<svg width="555" height="56" viewBox="0 0 555 56" fill="none" xmlns="http://www.w3.org/2000/svg">
<path d="M35 27.9292H21" stroke="#00157E" stroke-width="2" stroke-linecap="round" stroke-linejoin="round"/>
<path d="M28 34.9292L21 27.9292L28 20.9292" stroke="#00157E" stroke-width="2" stroke-linecap="round" stroke-linejoin="round"/>
<path d="M255.526 33.68L252.946 34.34L251.926 30.66H248.566L247.646 34H244.946L248.946 21.96H251.686L255.526 33.68ZM251.486 28.92L250.286 24.52H250.266L249.046 28.92H251.486ZM270.343 34H267.823V28C267.823 26.98 267.383 26.52 266.483 26.52C265.843 26.52 265.223 26.86 264.883 27.22C264.883 27.22 264.923 27.54 264.923 27.82V34H262.383V28C262.383 26.98 261.963 26.52 261.063 26.52C260.403 26.52 259.843 26.82 259.483 27.18V34H256.943V27L256.623 24.66L259.063 24.34L259.183 25.38H259.203C259.763 24.82 260.743 24.3 261.983 24.3C263.103 24.3 263.963 24.76 264.463 25.54H264.483C265.183 24.82 266.183 24.3 267.423 24.3C269.083 24.3 270.343 25.24 270.343 27.38V34ZM280.801 29.24C280.801 32.08 279.321 34.22 276.541 34.22C273.541 34.22 272.281 32.1 272.281 29.24C272.281 26.4 273.761 24.32 276.541 24.32C279.541 24.32 280.801 26.38 280.801 29.24ZM278.281 29.26C278.281 27.32 277.641 26.54 276.541 26.54C275.441 26.54 274.801 27.28 274.801 29.22C274.801 31.14 275.441 32 276.541 32C277.641 32 278.281 31.18 278.281 29.26ZM291.083 33.86L288.643 34.18L288.503 33.16H288.483C287.923 33.7 286.983 34.24 285.723 34.24C284.103 34.24 282.783 33.28 282.783 31.16V27L282.463 24.66L285.323 24.34V30.54C285.323 31.56 285.743 32.02 286.623 32.02C287.283 32.02 287.843 31.72 288.223 31.34V27L287.903 24.66L290.763 24.34V31.52L291.083 33.86ZM301.291 34H298.751V28C298.751 26.98 298.331 26.52 297.431 26.52C296.771 26.52 296.211 26.84 295.851 27.2V34H293.311V27L292.991 24.66L295.431 24.34L295.551 25.38H295.571C296.131 24.82 297.071 24.3 298.331 24.3C299.971 24.3 301.291 25.24 301.291 27.38V34ZM309.639 33.54C308.819 33.98 308.199 34.22 306.939 34.22C305.059 34.22 304.139 32.96 304.139 31.08V26.54H302.679V24.86L304.139 24.52V22.88L306.659 22.58V24.54H309.259V26.54H306.659V30.4C306.659 31.66 306.979 31.98 307.799 31.98C308.259 31.98 308.519 31.86 308.959 31.66L309.639 33.54Z" fill="#00157E"/>
<path d="M533 21.9292L521 33.9292" stroke="#00157E" stroke-width="2" stroke-linecap="round" stroke-linejoin="round"/>
<path d="M521 21.9292L533 33.9292" stroke="#00157E" stroke-width="2" stroke-linecap="round" stroke-linejoin="round"/>
</svg>
