<svg width="555" height="166" viewBox="0 0 555 166" fill="none" xmlns="http://www.w3.org/2000/svg">
<path d="M0 8C0 3.58173 3.58172 0 8 0H546.667C551.085 0 554.667 3.58172 554.667 8V158C554.667 162.418 551.085 166 546.667 166H8C3.58172 166 0 162.418 0 158V8Z" fill="white"/>
<path d="M222.142 29.24C222.142 33.58 219.322 36 214.962 36H212.122V24.06C212.122 24.06 213.902 23.84 215.862 23.84C219.602 23.84 222.142 25.56 222.142 29.24ZM219.382 29.44C219.382 27.14 217.902 26.06 215.822 26.06C215.262 26.06 214.822 26.1 214.822 26.1V33.6H215.522C217.882 33.6 219.382 32.26 219.382 29.44ZM226.75 36H224.21V29L223.89 26.66L226.75 26.34V36ZM226.99 23.88C226.99 24.72 226.33 25.4 225.49 25.4C224.65 25.4 223.99 24.72 223.99 23.88C223.99 23.06 224.65 22.38 225.49 22.38C226.33 22.38 226.99 23.06 226.99 23.88ZM235.307 32.96C235.307 34.78 233.847 36.22 231.647 36.22C230.507 36.22 229.487 36.04 228.627 35.64L229.287 33.56C230.007 33.86 230.707 34.16 231.507 34.16C232.367 34.16 232.787 33.86 232.787 33.36C232.787 32.9 232.567 32.72 232.047 32.5L230.567 31.88C229.687 31.52 228.727 30.86 228.727 29.3C228.727 27.34 230.387 26.3 232.367 26.3C233.487 26.3 234.247 26.48 235.147 26.86L234.367 28.9C233.727 28.64 233.107 28.38 232.387 28.38C231.607 28.38 231.167 28.6 231.167 29.12C231.167 29.62 231.567 29.8 231.927 29.94L233.467 30.56C234.667 31.04 235.307 31.8 235.307 32.96ZM250.734 36H248.214V30C248.214 28.98 247.774 28.52 246.874 28.52C246.234 28.52 245.614 28.86 245.274 29.22C245.274 29.22 245.314 29.54 245.314 29.82V36H242.774V30C242.774 28.98 242.354 28.52 241.454 28.52C240.794 28.52 240.234 28.82 239.874 29.18V36H237.334V29L237.014 26.66L239.454 26.34L239.574 27.38H239.594C240.154 26.82 241.134 26.3 242.374 26.3C243.494 26.3 244.354 26.76 244.854 27.54H244.874C245.574 26.82 246.574 26.3 247.814 26.3C249.474 26.3 250.734 27.24 250.734 29.38V36ZM255.832 36H253.292V29L252.972 26.66L255.832 26.34V36ZM256.072 23.88C256.072 24.72 255.412 25.4 254.572 25.4C253.732 25.4 253.072 24.72 253.072 23.88C253.072 23.06 253.732 22.38 254.572 22.38C255.412 22.38 256.072 23.06 256.072 23.88ZM264.389 32.96C264.389 34.78 262.929 36.22 260.729 36.22C259.589 36.22 258.569 36.04 257.709 35.64L258.369 33.56C259.089 33.86 259.789 34.16 260.589 34.16C261.449 34.16 261.869 33.86 261.869 33.36C261.869 32.9 261.649 32.72 261.129 32.5L259.649 31.88C258.769 31.52 257.809 30.86 257.809 29.3C257.809 27.34 259.469 26.3 261.449 26.3C262.569 26.3 263.329 26.48 264.229 26.86L263.449 28.9C262.809 28.64 262.189 28.38 261.469 28.38C260.689 28.38 260.249 28.6 260.249 29.12C260.249 29.62 260.649 29.8 261.009 29.94L262.549 30.56C263.749 31.04 264.389 31.8 264.389 32.96ZM272.436 32.96C272.436 34.78 270.976 36.22 268.776 36.22C267.636 36.22 266.616 36.04 265.756 35.64L266.416 33.56C267.136 33.86 267.836 34.16 268.636 34.16C269.496 34.16 269.916 33.86 269.916 33.36C269.916 32.9 269.696 32.72 269.176 32.5L267.696 31.88C266.816 31.52 265.856 30.86 265.856 29.3C265.856 27.34 267.516 26.3 269.496 26.3C270.616 26.3 271.376 26.48 272.276 26.86L271.496 28.9C270.856 28.64 270.236 28.38 269.516 28.38C268.736 28.38 268.296 28.6 268.296 29.12C268.296 29.62 268.696 29.8 269.056 29.94L270.596 30.56C271.796 31.04 272.436 31.8 272.436 32.96ZM286.722 30.82C286.722 34.12 285.002 36.08 282.022 36.08C281.682 36.08 281.342 36.02 281.202 35.98V39.92L278.662 40.24V29L278.342 26.66L280.782 26.34L280.902 27.3H280.922C281.162 27.1 282.082 26.3 283.342 26.3C285.742 26.3 286.722 28.12 286.722 30.82ZM284.182 31.24C284.182 29.48 283.862 28.52 282.482 28.52C281.842 28.52 281.382 28.88 281.202 29.02V33.78C281.342 33.84 281.662 33.94 282.102 33.94C283.502 33.94 284.182 32.88 284.182 31.24ZM293.841 28.62C292.681 28.62 291.921 28.82 291.241 29.58V36H288.701V29L288.381 26.66L290.821 26.34L290.981 27.68H291.001C291.541 26.96 292.361 26.3 293.841 26.3V28.62ZM303.028 31.24C303.028 34.08 301.548 36.22 298.768 36.22C295.768 36.22 294.508 34.1 294.508 31.24C294.508 28.4 295.988 26.32 298.768 26.32C301.768 26.32 303.028 28.38 303.028 31.24ZM300.508 31.26C300.508 29.32 299.868 28.54 298.768 28.54C297.668 28.54 297.028 29.28 297.028 31.22C297.028 33.14 297.668 34 298.768 34C299.868 34 300.508 33.18 300.508 31.26ZM311.61 26.74L310.85 28.96C310.35 28.74 309.89 28.56 309.21 28.56C307.95 28.56 307.01 29.46 307.01 31.16C307.01 33.08 307.87 33.92 309.09 33.92C309.81 33.92 310.19 33.76 310.79 33.52L311.55 35.6C310.67 36 309.85 36.24 308.77 36.24C305.93 36.24 304.43 34.32 304.43 31.3C304.43 27.82 306.79 26.3 309.21 26.3C310.15 26.3 310.79 26.42 311.61 26.74ZM320.14 35.44C319.08 35.98 318.2 36.24 316.92 36.24C313.76 36.24 312.36 34.32 312.36 31.12C312.36 28.26 314.06 26.32 316.58 26.32C319.22 26.32 320.08 28.14 320.08 30.42V31.54H314.84C314.92 33.22 315.72 34.02 317.24 34.02C318.14 34.02 318.64 33.8 319.36 33.5L320.14 35.44ZM317.86 30C317.86 29.02 317.44 28.36 316.5 28.36C315.5 28.36 315 29.12 314.88 30H317.86ZM328.061 32.96C328.061 34.78 326.601 36.22 324.401 36.22C323.261 36.22 322.241 36.04 321.381 35.64L322.041 33.56C322.761 33.86 323.461 34.16 324.261 34.16C325.121 34.16 325.541 33.86 325.541 33.36C325.541 32.9 325.321 32.72 324.801 32.5L323.321 31.88C322.441 31.52 321.481 30.86 321.481 29.3C321.481 27.34 323.141 26.3 325.121 26.3C326.241 26.3 327.001 26.48 327.901 26.86L327.121 28.9C326.481 28.64 325.861 28.38 325.141 28.38C324.361 28.38 323.921 28.6 323.921 29.12C323.921 29.62 324.321 29.8 324.681 29.94L326.221 30.56C327.421 31.04 328.061 31.8 328.061 32.96ZM336.108 32.96C336.108 34.78 334.648 36.22 332.448 36.22C331.308 36.22 330.288 36.04 329.428 35.64L330.088 33.56C330.808 33.86 331.508 34.16 332.308 34.16C333.168 34.16 333.588 33.86 333.588 33.36C333.588 32.9 333.368 32.72 332.848 32.5L331.368 31.88C330.488 31.52 329.528 30.86 329.528 29.3C329.528 27.34 331.188 26.3 333.168 26.3C334.288 26.3 335.048 26.48 335.948 26.86L335.168 28.9C334.528 28.64 333.908 28.38 333.188 28.38C332.408 28.38 331.968 28.6 331.968 29.12C331.968 29.62 332.368 29.8 332.728 29.94L334.268 30.56C335.468 31.04 336.108 31.8 336.108 32.96ZM343.695 26.6C343.695 29.7 340.355 29.44 340.355 30.98C340.355 31.42 340.635 31.76 340.635 31.76L338.775 32.26C338.775 32.26 338.135 31.56 338.135 30.64C338.135 28.54 341.195 28.64 341.195 27.16C341.195 26.4 340.675 25.96 339.855 25.96C339.195 25.96 338.695 26.2 338.175 26.56L337.215 24.94C337.895 24.3 339.075 23.72 340.375 23.72C342.275 23.72 343.695 24.74 343.695 26.6ZM341.375 34.64C341.375 35.48 340.695 36.16 339.855 36.16C339.015 36.16 338.355 35.48 338.355 34.64C338.355 33.8 339.015 33.14 339.855 33.14C340.695 33.14 341.375 33.8 341.375 34.64Z" fill="#00157E"/>
<path d="M209.712 73.84L208.4 74.208L207.376 70.88H204.24L203.264 74H201.856L205.2 64.368H206.576L209.712 73.84ZM207.088 69.92L205.84 65.76H205.824L204.528 69.92H207.088ZM212.533 74H211.253V64.928L211.029 63.28L212.533 63.072V74ZM216.314 74H215.034V64.928L214.81 63.28L216.314 63.072V74ZM225.951 73.696C225.487 73.952 225.055 74.16 224.239 74.16C223.087 74.16 222.351 73.408 222.351 72.128V67.552H221.247V66.704L222.351 66.48V65.232L223.615 65.072V66.512H225.711V67.552H223.615V71.696C223.615 72.704 223.871 73.024 224.607 73.024C225.007 73.024 225.311 72.864 225.535 72.72L225.951 73.696ZM233.292 74H232.028V69.136C232.028 68.048 231.596 67.488 230.572 67.488C229.836 67.488 229.34 67.808 228.908 68.192V74H227.628V64.928L227.404 63.28L228.908 63.072V67.168H228.924C229.42 66.736 230.108 66.336 231.036 66.336C232.316 66.336 233.292 67.136 233.292 68.688V74ZM241.032 73.6C240.312 74 239.576 74.176 238.664 74.176C236.456 74.176 235.32 72.688 235.32 70.208C235.32 67.888 236.536 66.336 238.424 66.336C240.232 66.336 240.968 67.536 240.968 69.184V70.08H236.568C236.584 72.08 237.304 73.04 238.936 73.04C239.56 73.04 240.04 72.864 240.584 72.592L241.032 73.6ZM239.768 69.184C239.768 68.064 239.352 67.36 238.36 67.36C237.4 67.36 236.792 68.112 236.632 69.184H239.768ZM247.613 74H246.333V68.24L246.109 66.592L247.613 66.384V74ZM247.869 64.56C247.869 65.072 247.469 65.456 246.989 65.456C246.493 65.456 246.077 65.072 246.077 64.56C246.077 64.048 246.493 63.648 246.989 63.648C247.469 63.648 247.869 64.048 247.869 64.56ZM255.856 74H254.576V69.136C254.576 68.032 254.16 67.472 253.152 67.472C252.432 67.472 251.92 67.776 251.456 68.192V74H250.176V68.24L249.952 66.592L251.216 66.384L251.344 67.264H251.36C251.92 66.72 252.656 66.336 253.584 66.336C254.848 66.336 255.856 67.152 255.856 68.688V74ZM264.267 69.888C264.267 72.32 263.211 74.08 260.715 74.08C260.299 74.08 259.963 74.048 259.659 73.968V77.168L258.379 77.376V68.24L258.155 66.592L259.419 66.384L259.531 67.152H259.547C260.043 66.736 260.699 66.336 261.563 66.336C263.387 66.336 264.267 67.712 264.267 69.888ZM262.987 70.256C262.987 68.624 262.619 67.488 261.131 67.488C260.491 67.488 260.027 67.76 259.659 68.064V72.784C259.963 72.912 260.315 72.992 260.811 72.992C262.203 72.992 262.987 71.904 262.987 70.256ZM272.205 73.92L270.941 74.128L270.813 73.264H270.797C270.237 73.792 269.501 74.176 268.573 74.176C267.309 74.176 266.301 73.36 266.301 71.824V68.24L266.077 66.592L267.581 66.384V71.376C267.581 72.48 267.997 73.056 269.005 73.056C269.725 73.056 270.237 72.752 270.701 72.32V68.24L270.477 66.592L271.981 66.384V72.272L272.205 73.92ZM278.279 73.696C277.815 73.952 277.383 74.16 276.567 74.16C275.415 74.16 274.679 73.408 274.679 72.128V67.552H273.575V66.704L274.679 66.48V65.232L275.943 65.072V66.512H278.039V67.552H275.943V71.696C275.943 72.704 276.199 73.024 276.935 73.024C277.335 73.024 277.639 72.864 277.863 72.72L278.279 73.696ZM292.324 66.512L290.26 73.968L289.076 74.032L287.252 68.352H287.236L285.396 73.984L284.212 74.032L282.34 66.592L283.556 66.288L284.9 72.128H284.916L286.66 66.512H287.908L289.668 72.128H289.684L291.076 66.512H292.324ZM295.316 74H294.036V68.24L293.812 66.592L295.316 66.384V74ZM295.572 64.56C295.572 65.072 295.172 65.456 294.692 65.456C294.196 65.456 293.78 65.072 293.78 64.56C293.78 64.048 294.196 63.648 294.692 63.648C295.172 63.648 295.572 64.048 295.572 64.56ZM299.127 74H297.847V64.928L297.623 63.28L299.127 63.072V74ZM302.908 74H301.628V64.928L301.404 63.28L302.908 63.072V74ZM314.721 69.808C314.721 72.304 313.425 74.16 311.057 74.16C310.225 74.16 309.313 74.016 308.769 73.808V64.928L308.545 63.28L310.049 63.072V67.088H310.065C310.545 66.688 311.185 66.336 312.033 66.336C313.793 66.336 314.721 67.6 314.721 69.808ZM313.425 70.272C313.425 68.624 313.041 67.504 311.585 67.504C310.913 67.504 310.433 67.776 310.049 68.112V72.928C310.369 73.008 310.689 73.056 311.169 73.056C312.657 73.056 313.425 71.792 313.425 70.272ZM321.97 73.6C321.25 74 320.514 74.176 319.602 74.176C317.394 74.176 316.258 72.688 316.258 70.208C316.258 67.888 317.474 66.336 319.362 66.336C321.17 66.336 321.906 67.536 321.906 69.184V70.08H317.506C317.522 72.08 318.242 73.04 319.874 73.04C320.498 73.04 320.978 72.864 321.522 72.592L321.97 73.6ZM320.706 69.184C320.706 68.064 320.29 67.36 319.298 67.36C318.338 67.36 317.73 68.112 317.57 69.184H320.706ZM328.486 74H327.206V64.928L326.982 63.28L328.486 63.072V74ZM336.908 70.256C336.908 72.448 335.868 74.176 333.708 74.176C331.34 74.176 330.508 72.496 330.508 70.256C330.508 68.064 331.548 66.336 333.708 66.336C336.076 66.336 336.908 68.016 336.908 70.256ZM335.596 70.288C335.596 68.432 334.972 67.456 333.708 67.456C332.476 67.456 331.82 68.32 331.82 70.208C331.82 72.064 332.444 73.056 333.708 73.056C334.94 73.056 335.596 72.176 335.596 70.288ZM343.277 71.824C343.277 73.184 342.205 74.16 340.605 74.16C339.837 74.16 339.069 74.048 338.461 73.76L338.845 72.64C339.373 72.88 339.965 73.072 340.541 73.072C341.405 73.072 341.981 72.736 341.981 72.032C341.981 71.488 341.693 71.264 341.197 71.04L339.805 70.4C339.309 70.176 338.413 69.728 338.413 68.432C338.413 67.008 339.661 66.336 341.021 66.336C341.837 66.336 342.413 66.464 343.053 66.736L342.621 67.84C342.109 67.616 341.613 67.456 341.005 67.456C340.189 67.456 339.661 67.712 339.661 68.352C339.661 68.912 340.141 69.136 340.445 69.28L341.869 69.952C342.861 70.416 343.277 71.008 343.277 71.824ZM349.045 73.696C348.581 73.952 348.149 74.16 347.333 74.16C346.181 74.16 345.445 73.408 345.445 72.128V67.552H344.341V66.704L345.445 66.48V65.232L346.709 65.072V66.512H348.805V67.552H346.709V71.696C346.709 72.704 346.965 73.024 347.701 73.024C348.101 73.024 348.405 72.864 348.629 72.72L349.045 73.696ZM352.226 73.184C352.226 73.696 351.81 74.112 351.314 74.112C350.802 74.112 350.386 73.696 350.386 73.184C350.386 72.688 350.802 72.272 351.314 72.272C351.81 72.272 352.226 72.688 352.226 73.184Z" fill="#00157E"/>
<rect width="554.667" height="64" transform="translate(0 98)" fill="white"/>
<path d="M20 110.5H265.333C267.266 110.5 268.833 112.067 268.833 114V146C268.833 147.933 267.266 149.5 265.333 149.5H20C18.067 149.5 16.5 147.933 16.5 146V114C16.5 112.067 18.067 110.5 20 110.5Z" fill="white"/>
<path d="M20 110.5H265.333C267.266 110.5 268.833 112.067 268.833 114V146C268.833 147.933 267.266 149.5 265.333 149.5H20C18.067 149.5 16.5 147.933 16.5 146V114C16.5 112.067 18.067 110.5 20 110.5Z" stroke="#00157E"/>
<path d="M130.142 134.504C129.246 134.968 128.334 135.176 127.118 135.176C124.766 135.176 122.958 133.592 122.958 130.392C122.958 126.984 124.974 125.192 127.566 125.192C128.638 125.192 129.294 125.352 130.11 125.704L129.598 126.872C128.99 126.6 128.414 126.392 127.55 126.392C125.87 126.392 124.334 127.688 124.334 130.056C124.334 132.696 125.31 133.992 127.646 133.992C128.414 133.992 129.118 133.688 129.694 133.432L130.142 134.504ZM136.679 134.92L135.399 135.128L135.287 134.248H135.271C134.727 134.76 134.135 135.192 133.239 135.192C131.991 135.192 131.255 134.44 131.255 133.256C131.255 131.912 132.311 131.256 133.831 131.096L135.175 130.952V130.28C135.175 129.24 134.855 128.504 133.623 128.504C132.999 128.504 132.535 128.696 132.071 128.936L131.607 127.992C132.279 127.592 132.967 127.336 133.927 127.336C135.431 127.336 136.439 128.216 136.439 129.704V133.272L136.679 134.92ZM135.175 133.448V131.816L134.007 131.976C133.047 132.104 132.519 132.408 132.519 133.096C132.519 133.72 132.903 134.136 133.543 134.136C134.295 134.136 134.759 133.816 135.175 133.448ZM144.697 135H143.417V130.136C143.417 129.032 143.001 128.472 141.993 128.472C141.273 128.472 140.761 128.776 140.297 129.192V135H139.017V129.24L138.793 127.592L140.057 127.384L140.185 128.264H140.201C140.761 127.72 141.497 127.336 142.425 127.336C143.689 127.336 144.697 128.152 144.697 129.688V135ZM152.052 127.656L151.652 128.808C151.236 128.648 150.772 128.504 150.244 128.504C148.836 128.504 147.988 129.56 147.988 131.144C147.988 133.144 148.772 134.056 150.212 134.056C150.724 134.056 151.14 133.88 151.556 133.704L151.988 134.744C151.364 135.032 150.676 135.176 149.956 135.176C147.812 135.176 146.708 133.64 146.708 131.352C146.708 128.6 148.404 127.336 150.308 127.336C150.964 127.336 151.524 127.448 152.052 127.656ZM158.733 134.6C158.013 135 157.277 135.176 156.365 135.176C154.157 135.176 153.021 133.688 153.021 131.208C153.021 128.888 154.237 127.336 156.125 127.336C157.933 127.336 158.669 128.536 158.669 130.184V131.08H154.269C154.285 133.08 155.005 134.04 156.637 134.04C157.261 134.04 157.741 133.864 158.285 133.592L158.733 134.6ZM157.469 130.184C157.469 129.064 157.053 128.36 156.061 128.36C155.101 128.36 154.493 129.112 154.333 130.184H157.469ZM161.89 135H160.61V125.928L160.386 124.28L161.89 124.072V135Z" fill="#00157E"/>
<path d="M289.333 110.5H534.666C536.599 110.5 538.166 112.067 538.166 114V146C538.166 147.933 536.599 149.5 534.666 149.5H289.333C287.4 149.5 285.833 147.933 285.833 146V114C285.833 112.067 287.4 110.5 289.333 110.5Z" fill="#00157E"/>
<path d="M289.333 110.5H534.666C536.599 110.5 538.166 112.067 538.166 114V146C538.166 147.933 536.599 149.5 534.666 149.5H289.333C287.4 149.5 285.833 147.933 285.833 146V114C285.833 112.067 287.4 110.5 289.333 110.5Z" stroke="#00157E"/>
<path d="M396.341 129.576C396.341 133.096 394.229 135 390.805 135H388.789V125.432C388.789 125.432 390.117 125.272 391.541 125.272C394.517 125.272 396.341 126.824 396.341 129.576ZM394.949 129.768C394.949 127.496 393.413 126.408 391.317 126.408C390.645 126.408 390.133 126.44 390.133 126.44V133.8H391.061C393.349 133.8 394.949 132.44 394.949 129.768ZM399.694 135H398.414V129.24L398.19 127.592L399.694 127.384V135ZM399.95 125.56C399.95 126.072 399.55 126.456 399.07 126.456C398.574 126.456 398.158 126.072 398.158 125.56C398.158 125.048 398.574 124.648 399.07 124.648C399.55 124.648 399.95 125.048 399.95 125.56ZM406.593 132.824C406.593 134.184 405.521 135.16 403.921 135.16C403.153 135.16 402.385 135.048 401.777 134.76L402.161 133.64C402.689 133.88 403.281 134.072 403.857 134.072C404.721 134.072 405.297 133.736 405.297 133.032C405.297 132.488 405.009 132.264 404.513 132.04L403.121 131.4C402.625 131.176 401.729 130.728 401.729 129.432C401.729 128.008 402.977 127.336 404.337 127.336C405.153 127.336 405.729 127.464 406.369 127.736L405.937 128.84C405.425 128.616 404.929 128.456 404.321 128.456C403.505 128.456 402.977 128.712 402.977 129.352C402.977 129.912 403.457 130.136 403.761 130.28L405.185 130.952C406.177 131.416 406.593 132.008 406.593 132.824ZM418.68 135H417.416V130.136C417.416 129.032 417 128.472 415.976 128.472C415.256 128.472 414.648 128.824 414.248 129.224C414.248 129.224 414.296 129.496 414.296 129.784V135H413.016V130.136C413.016 129.032 412.6 128.472 411.592 128.472C410.872 128.472 410.36 128.76 409.896 129.192V135H408.616V129.24L408.392 127.592L409.656 127.384L409.784 128.264H409.8C410.36 127.72 411.096 127.336 412.024 127.336C412.888 127.336 413.608 127.72 413.992 128.408H414.008C414.6 127.816 415.368 127.336 416.424 127.336C417.704 127.336 418.68 128.152 418.68 129.688V135ZM422.537 135H421.257V129.24L421.033 127.592L422.537 127.384V135ZM422.793 125.56C422.793 126.072 422.393 126.456 421.913 126.456C421.417 126.456 421.001 126.072 421.001 125.56C421.001 125.048 421.417 124.648 421.913 124.648C422.393 124.648 422.793 125.048 422.793 125.56ZM429.436 132.824C429.436 134.184 428.364 135.16 426.764 135.16C425.996 135.16 425.228 135.048 424.62 134.76L425.004 133.64C425.532 133.88 426.124 134.072 426.7 134.072C427.564 134.072 428.14 133.736 428.14 133.032C428.14 132.488 427.852 132.264 427.356 132.04L425.964 131.4C425.468 131.176 424.572 130.728 424.572 129.432C424.572 128.008 425.82 127.336 427.18 127.336C427.996 127.336 428.572 127.464 429.212 127.736L428.78 128.84C428.268 128.616 427.772 128.456 427.164 128.456C426.348 128.456 425.82 128.712 425.82 129.352C425.82 129.912 426.3 130.136 426.604 130.28L428.028 130.952C429.02 131.416 429.436 132.008 429.436 132.824ZM435.796 132.824C435.796 134.184 434.724 135.16 433.124 135.16C432.356 135.16 431.588 135.048 430.98 134.76L431.364 133.64C431.892 133.88 432.484 134.072 433.06 134.072C433.924 134.072 434.5 133.736 434.5 133.032C434.5 132.488 434.212 132.264 433.716 132.04L432.324 131.4C431.828 131.176 430.932 130.728 430.932 129.432C430.932 128.008 432.18 127.336 433.54 127.336C434.356 127.336 434.932 127.464 435.572 127.736L435.14 128.84C434.628 128.616 434.132 128.456 433.524 128.456C432.708 128.456 432.18 128.712 432.18 129.352C432.18 129.912 432.66 130.136 432.964 130.28L434.388 130.952C435.38 131.416 435.796 132.008 435.796 132.824Z" fill="white"/>
</svg>
