<svg width="64" height="67" viewBox="0 0 64 67" fill="none" xmlns="http://www.w3.org/2000/svg">
<path d="M32 0.500977C42.7696 0.500977 51.5 9.23142 51.5 20.001C51.5 30.7705 42.7696 39.501 32 39.501C21.2304 39.501 12.5 30.7705 12.5 20.001C12.5 9.23142 21.2304 0.500977 32 0.500977Z" fill="white"/>
<path d="M32 0.500977C42.7696 0.500977 51.5 9.23142 51.5 20.001C51.5 30.7705 42.7696 39.501 32 39.501C21.2304 39.501 12.5 30.7705 12.5 20.001C12.5 9.23142 21.2304 0.500977 32 0.500977Z" stroke="#00157E"/>
<path d="M11.6667 20.001C11.6667 8.95528 20.621 0.000976562 31.6667 0.000976562C42.7124 0.000976562 51.6667 8.95528 51.6667 20.001C51.6667 31.0467 42.7124 40.001 31.6667 40.001C20.621 40.001 11.6667 31.0467 11.6667 20.001Z" fill="#00157E" fill-opacity="0.2"/>
<path d="M43 27.001C43 27.5314 42.7893 28.0401 42.4142 28.4152C42.0391 28.7903 41.5304 29.001 41 29.001H23C22.4696 29.001 21.9609 28.7903 21.5858 28.4152C21.2107 28.0401 21 27.5314 21 27.001V16.001C21 15.4705 21.2107 14.9618 21.5858 14.5868C21.9609 14.2117 22.4696 14.001 23 14.001H27L29 11.001H35L37 14.001H41C41.5304 14.001 42.0391 14.2117 42.4142 14.5868C42.7893 14.9618 43 15.4705 43 16.001V27.001Z" stroke="#00157E" stroke-width="2" stroke-linecap="round" stroke-linejoin="round"/>
<path d="M32 25.001C34.2091 25.001 36 23.2101 36 21.001C36 18.7918 34.2091 17.001 32 17.001C29.7909 17.001 28 18.7918 28 21.001C28 23.2101 29.7909 25.001 32 25.001Z" stroke="#00157E" stroke-width="2" stroke-linecap="round" stroke-linejoin="round"/>
<path d="M24.4769 59.001H20.7089V51.777H21.7169V58.149H24.4769V59.001ZM29.3491 58.941L28.3891 59.097L28.3051 58.437H28.2931C27.8851 58.821 27.4411 59.145 26.7691 59.145C25.8331 59.145 25.2811 58.581 25.2811 57.693C25.2811 56.685 26.0731 56.193 27.2131 56.073L28.2211 55.965V55.461C28.2211 54.681 27.9811 54.129 27.0571 54.129C26.5891 54.129 26.2411 54.273 25.8931 54.453L25.5451 53.745C26.0491 53.445 26.5651 53.253 27.2851 53.253C28.4131 53.253 29.1691 53.913 29.1691 55.029V57.705L29.3491 58.941ZM28.2211 57.837V56.613L27.3451 56.733C26.6251 56.829 26.2291 57.057 26.2291 57.573C26.2291 58.041 26.5171 58.353 26.9971 58.353C27.5611 58.353 27.9091 58.113 28.2211 57.837ZM35.5426 55.857C35.5426 57.729 34.5706 59.121 32.7946 59.121C32.1706 59.121 31.4866 59.013 31.0786 58.857V52.197L30.9106 50.961L32.0386 50.805V53.817H32.0506C32.4106 53.517 32.8906 53.253 33.5266 53.253C34.8466 53.253 35.5426 54.201 35.5426 55.857ZM34.5706 56.205C34.5706 54.969 34.2826 54.129 33.1906 54.129C32.6866 54.129 32.3266 54.333 32.0386 54.585V58.197C32.2786 58.257 32.5186 58.293 32.8786 58.293C33.9946 58.293 34.5706 57.345 34.5706 56.205ZM40.9791 58.701C40.4391 59.001 39.8871 59.133 39.2031 59.133C37.5471 59.133 36.6951 58.017 36.6951 56.157C36.6951 54.417 37.6071 53.253 39.0231 53.253C40.3791 53.253 40.9311 54.153 40.9311 55.389V56.061H37.6311C37.6431 57.561 38.1831 58.281 39.4071 58.281C39.8751 58.281 40.2351 58.149 40.6431 57.945L40.9791 58.701ZM40.0311 55.389C40.0311 54.549 39.7191 54.021 38.9751 54.021C38.2551 54.021 37.7991 54.585 37.6791 55.389H40.0311ZM43.3472 59.001H42.3872V52.197L42.2192 50.961L43.3472 50.805V59.001Z" fill="#00157E"/>
</svg>
