<svg width="464" height="452" viewBox="0 0 464 452" fill="none" xmlns="http://www.w3.org/2000/svg">
<rect width="464" height="452.001" rx="8" fill="white"/>
<rect x="0.5" y="0.5" width="463" height="451.001" rx="7.5" stroke="#00157E" stroke-opacity="0.2"/>
<path d="M29.344 41.5H17.216V39.452L22.496 34.492C23.872 33.212 24.8 32.284 24.8 30.62C24.8 28.924 23.776 27.708 21.92 27.708C20.512 27.708 19.584 28.348 18.816 28.924L17.344 26.78C18.752 25.564 20.32 24.828 22.592 24.828C25.856 24.828 28.128 26.716 28.128 30.14C28.128 32.348 26.848 34.012 25.376 35.356L21.888 38.556V38.588H29.344V41.5ZM45.2253 33.34C45.2253 37.724 43.4333 41.852 38.5373 41.852C33.6733 41.852 31.8493 37.724 31.8493 33.34C31.8493 28.956 33.6733 24.828 38.5373 24.828C43.4333 24.828 45.2253 28.956 45.2253 33.34ZM41.9293 33.34C41.9293 29.98 40.8733 27.676 38.5373 27.676C36.2013 27.676 35.1453 29.98 35.1453 33.34C35.1453 36.7 36.2013 39.004 38.5373 39.004C40.8733 39.004 41.9293 36.7 41.9293 33.34ZM52.6693 24.316C52.6693 27.068 51.5493 28.86 49.4053 30.268L48.4773 29.18C49.5333 28.348 50.1413 27.388 50.3333 26.14C49.3093 26.012 48.4773 25.084 48.4773 24.028C48.4773 22.844 49.4053 21.948 50.5573 21.948C51.7413 21.948 52.6693 22.844 52.6693 24.316ZM69.319 33.34C69.319 37.724 67.527 41.852 62.631 41.852C57.767 41.852 55.943 37.724 55.943 33.34C55.943 28.956 57.767 24.828 62.631 24.828C67.527 24.828 69.319 28.956 69.319 33.34ZM66.023 33.34C66.023 29.98 64.967 27.676 62.631 27.676C60.295 27.676 59.239 29.98 59.239 33.34C59.239 36.7 60.295 39.004 62.631 39.004C64.967 39.004 66.023 36.7 66.023 33.34ZM85.819 33.34C85.819 37.724 84.027 41.852 79.131 41.852C74.267 41.852 72.443 37.724 72.443 33.34C72.443 28.956 74.267 24.828 79.131 24.828C84.027 24.828 85.819 28.956 85.819 33.34ZM82.523 33.34C82.523 29.98 81.467 27.676 79.131 27.676C76.795 27.676 75.739 29.98 75.739 33.34C75.739 36.7 76.795 39.004 79.131 39.004C81.467 39.004 82.523 36.7 82.523 33.34ZM102.319 33.34C102.319 37.724 100.527 41.852 95.631 41.852C90.767 41.852 88.943 37.724 88.943 33.34C88.943 28.956 90.767 24.828 95.631 24.828C100.527 24.828 102.319 28.956 102.319 33.34ZM99.023 33.34C99.023 29.98 97.967 27.676 95.631 27.676C93.295 27.676 92.239 29.98 92.239 33.34C92.239 36.7 93.295 39.004 95.631 39.004C97.967 39.004 99.023 36.7 99.023 33.34ZM109.763 39.612C109.763 40.764 108.835 41.724 107.651 41.724C106.499 41.724 105.571 40.764 105.571 39.612C105.571 38.46 106.499 37.532 107.651 37.532C108.835 37.532 109.763 38.46 109.763 39.612ZM126.413 33.34C126.413 37.724 124.621 41.852 119.725 41.852C114.861 41.852 113.037 37.724 113.037 33.34C113.037 28.956 114.861 24.828 119.725 24.828C124.621 24.828 126.413 28.956 126.413 33.34ZM123.117 33.34C123.117 29.98 122.061 27.676 119.725 27.676C117.389 27.676 116.333 29.98 116.333 33.34C116.333 36.7 117.389 39.004 119.725 39.004C122.061 39.004 123.117 36.7 123.117 33.34ZM142.913 33.34C142.913 37.724 141.121 41.852 136.225 41.852C131.361 41.852 129.537 37.724 129.537 33.34C129.537 28.956 131.361 24.828 136.225 24.828C141.121 24.828 142.913 28.956 142.913 33.34ZM139.617 33.34C139.617 29.98 138.561 27.676 136.225 27.676C133.889 27.676 132.833 29.98 132.833 33.34C132.833 36.7 133.889 39.004 136.225 39.004C138.561 39.004 139.617 36.7 139.617 33.34Z" fill="#00157E"/>
<path d="M160.952 41.004C160.056 41.468 159.144 41.676 157.928 41.676C155.576 41.676 153.768 40.092 153.768 36.892C153.768 33.484 155.784 31.692 158.376 31.692C159.448 31.692 160.104 31.852 160.92 32.204L160.408 33.372C159.8 33.1 159.224 32.892 158.36 32.892C156.68 32.892 155.144 34.188 155.144 36.556C155.144 39.196 156.12 40.492 158.456 40.492C159.224 40.492 159.928 40.188 160.504 39.932L160.952 41.004ZM169.649 41.5H168.305V37.1H163.969V41.5H162.625V31.868H163.969V35.964H168.305V31.868H169.649V41.5ZM177.096 33.004H173.64V36.14H176.76V37.276H173.64V41.5H172.312V31.868H177.096V33.004Z" fill="#00157E" fill-opacity="0.7"/>
<g clip-path="url(#clip0_820_126258)">
<path d="M22.021 68.388H19.655V70.74H18.731V68.388H16.379V67.464H18.731V65.112H19.655V67.464H22.021V68.388ZM31.0652 68.318C31.0652 72.182 29.1052 73.988 26.3192 74.324L26.0952 73.414C27.8592 73.204 29.6372 72.07 29.8892 69.396L29.8752 69.382C29.8752 69.382 29.2172 69.942 28.2232 69.942C26.8232 69.942 25.9132 68.892 25.9132 67.45C25.9132 65.7 26.9632 64.706 28.5452 64.706C30.1692 64.706 31.0652 65.826 31.0652 68.318ZM29.9032 68.304C29.9032 66.918 29.6512 65.658 28.4052 65.658C27.5232 65.658 27.0052 66.386 27.0052 67.296C27.0052 68.458 27.5372 69.018 28.5312 69.018C29.3852 69.018 29.9032 68.514 29.9032 68.514V68.304ZM37.516 69.956C37.516 71.3 36.494 72.154 35.052 72.154C33.582 72.154 32.588 71.412 32.588 70.04C32.588 68.808 33.498 68.066 34.198 67.59C33.358 67.002 32.798 66.498 32.798 65.448C32.798 64.258 33.778 63.418 35.038 63.418C36.396 63.418 37.278 64.174 37.278 65.35C37.278 66.358 36.578 67.002 35.892 67.478C36.788 68.08 37.516 68.682 37.516 69.956ZM36.438 69.956C36.438 69.046 35.808 68.584 34.968 68.038C34.226 68.542 33.652 68.976 33.652 69.9C33.652 70.74 34.212 71.216 35.066 71.216C35.976 71.216 36.438 70.656 36.438 69.956ZM36.284 65.476C36.284 64.762 35.808 64.3 35.052 64.3C34.296 64.3 33.806 64.79 33.806 65.49C33.806 66.148 34.352 66.526 35.108 67.044C35.71 66.652 36.284 66.148 36.284 65.476ZM44.6854 68.43C44.6854 70.292 43.9574 72.154 41.8434 72.154C39.7154 72.154 38.9874 70.292 38.9874 68.43C38.9874 66.568 39.7154 64.706 41.8434 64.706C43.9574 64.706 44.6854 66.568 44.6854 68.43ZM43.5374 68.43C43.5374 66.862 43.0194 65.686 41.8434 65.686C40.6534 65.686 40.1354 66.862 40.1354 68.43C40.1354 69.998 40.6534 71.174 41.8434 71.174C43.0194 71.174 43.5374 69.998 43.5374 68.43ZM47.8445 71.286C47.8445 71.734 47.4805 72.098 47.0465 72.098C46.5985 72.098 46.2345 71.734 46.2345 71.286C46.2345 70.852 46.5985 70.488 47.0465 70.488C47.4805 70.488 47.8445 70.852 47.8445 71.286ZM53.7877 71.44C53.7877 73.12 52.7097 74.184 50.8617 74.184C50.3157 74.184 49.7417 74.086 49.2237 73.96L49.4757 72.91C49.9377 73.05 50.3297 73.162 50.8897 73.162C51.9957 73.162 52.6677 72.616 52.6677 71.608C52.6677 70.236 51.4077 69.704 49.6297 69.704V68.906C51.7017 68.78 52.2757 67.856 52.2757 66.946C52.2757 66.148 51.7857 65.7 51.0017 65.7C50.3577 65.7 49.9797 65.91 49.5597 66.19L49.0977 65.42C49.6017 65.028 50.2457 64.706 51.2257 64.706C52.5697 64.706 53.3957 65.504 53.3957 66.806C53.3957 67.94 52.7377 68.696 51.7997 69.144V69.158C53.1717 69.452 53.7877 70.362 53.7877 71.44ZM60.1453 68.318C60.1453 72.182 58.1853 73.988 55.3993 74.324L55.1753 73.414C56.9393 73.204 58.7173 72.07 58.9693 69.396L58.9553 69.382C58.9553 69.382 58.2973 69.942 57.3033 69.942C55.9033 69.942 54.9933 68.892 54.9933 67.45C54.9933 65.7 56.0433 64.706 57.6253 64.706C59.2493 64.706 60.1453 65.826 60.1453 68.318ZM58.9833 68.304C58.9833 66.918 58.7313 65.658 57.4853 65.658C56.6033 65.658 56.0853 66.386 56.0853 67.296C56.0853 68.458 56.6173 69.018 57.6113 69.018C58.4653 69.018 58.9833 68.514 58.9833 68.514V68.304Z" fill="#00157E"/>
<path d="M71.959 71.566C71.175 71.972 70.377 72.154 69.313 72.154C67.255 72.154 65.673 70.768 65.673 67.968C65.673 64.986 67.437 63.418 69.705 63.418C70.643 63.418 71.217 63.558 71.931 63.866L71.483 64.888C70.951 64.65 70.447 64.468 69.691 64.468C68.221 64.468 66.877 65.602 66.877 67.674C66.877 69.984 67.731 71.118 69.775 71.118C70.447 71.118 71.063 70.852 71.567 70.628L71.959 71.566ZM79.5687 72H78.3927V68.15H74.5987V72H73.4227V63.572H74.5987V67.156H78.3927V63.572H79.5687V72ZM86.0853 64.566H83.0613V67.31H85.7913V68.304H83.0613V72H81.8993V63.572H86.0853V64.566Z" fill="#00157E" fill-opacity="0.7"/>
<path d="M109.021 68.388H106.655V70.74H105.731V68.388H103.379V67.464H105.731V65.112H106.655V67.464H109.021V68.388ZM118.079 72H112.885V71.272L115.279 68.976C115.923 68.346 116.413 67.884 116.413 67.114C116.413 66.302 115.909 65.7 114.971 65.7C114.341 65.7 113.893 65.98 113.557 66.26L113.025 65.518C113.627 65.014 114.243 64.706 115.209 64.706C116.595 64.706 117.547 65.518 117.547 66.988C117.547 67.968 116.959 68.71 116.287 69.326L114.495 70.978V70.992H118.079V72ZM120.913 71.286C120.913 71.734 120.549 72.098 120.115 72.098C119.667 72.098 119.303 71.734 119.303 71.286C119.303 70.852 119.667 70.488 120.115 70.488C120.549 70.488 120.913 70.852 120.913 71.286ZM128.158 68.43C128.158 70.292 127.43 72.154 125.316 72.154C123.188 72.154 122.46 70.292 122.46 68.43C122.46 66.568 123.188 64.706 125.316 64.706C127.43 64.706 128.158 66.568 128.158 68.43ZM127.01 68.43C127.01 66.862 126.492 65.686 125.316 65.686C124.126 65.686 123.608 66.862 123.608 68.43C123.608 69.998 124.126 71.174 125.316 71.174C126.492 71.174 127.01 69.998 127.01 68.43ZM135.363 68.43C135.363 70.292 134.635 72.154 132.521 72.154C130.393 72.154 129.665 70.292 129.665 68.43C129.665 66.568 130.393 64.706 132.521 64.706C134.635 64.706 135.363 66.568 135.363 68.43ZM134.215 68.43C134.215 66.862 133.697 65.686 132.521 65.686C131.331 65.686 130.813 66.862 130.813 68.43C130.813 69.998 131.331 71.174 132.521 71.174C133.697 71.174 134.215 69.998 134.215 68.43Z" fill="#00157E"/>
<path d="M146.069 65.616C146.069 66.876 145.103 67.842 143.843 67.842C142.583 67.842 141.617 66.876 141.617 65.616C141.617 64.356 142.583 63.418 143.843 63.418C145.103 63.418 146.069 64.356 146.069 65.616ZM152.285 69.942C152.285 71.202 151.319 72.154 150.059 72.154C148.799 72.154 147.833 71.202 147.833 69.942C147.833 68.696 148.799 67.744 150.059 67.744C151.319 67.744 152.285 68.696 152.285 69.942ZM149.709 63.768L145.075 72.28L144.221 71.818L148.855 63.306L149.709 63.768ZM151.263 69.942C151.263 69.228 150.773 68.738 150.059 68.738C149.345 68.738 148.855 69.228 148.855 69.942C148.855 70.642 149.345 71.174 150.059 71.174C150.773 71.174 151.263 70.642 151.263 69.942ZM145.033 65.616C145.033 64.902 144.557 64.412 143.843 64.412C143.129 64.412 142.639 64.902 142.639 65.616C142.639 66.33 143.129 66.848 143.843 66.848C144.557 66.848 145.033 66.33 145.033 65.616Z" fill="#00157E" fill-opacity="0.7"/>
</g>
<path d="M385.453 67.93C385.453 69.792 384.725 71.654 382.611 71.654C380.483 71.654 379.755 69.792 379.755 67.93C379.755 66.068 380.483 64.206 382.611 64.206C384.725 64.206 385.453 66.068 385.453 67.93ZM384.305 67.93C384.305 66.362 383.787 65.186 382.611 65.186C381.421 65.186 380.903 66.362 380.903 67.93C380.903 69.498 381.421 70.674 382.611 70.674C383.787 70.674 384.305 69.498 384.305 67.93ZM391.496 70.24C391.496 72.928 388.962 73.684 387.156 73.824L387.016 72.872C388.29 72.732 390.348 72.228 390.348 70.394C390.348 69.246 389.704 68.574 387.912 68.574H386.974L387.282 64.36H391.272V65.382H388.248L388.066 67.734C388.066 67.734 388.388 67.706 388.682 67.706C390.306 67.706 391.496 68.56 391.496 70.24ZM394.532 70.786C394.532 71.234 394.168 71.598 393.734 71.598C393.286 71.598 392.922 71.234 392.922 70.786C392.922 70.352 393.286 69.988 393.734 69.988C394.168 69.988 394.532 70.352 394.532 70.786ZM405.081 71.472L403.961 71.556L403.723 65.032H403.709L401.231 71.5H400.013L397.675 65.046H397.661L397.325 71.5H396.303L396.849 63.072H398.081L400.727 70.1H400.741L403.415 63.072H404.633L405.081 71.472ZM411.474 71.43L410.354 71.612L410.256 70.842H410.242C409.766 71.29 409.248 71.668 408.464 71.668C407.372 71.668 406.728 71.01 406.728 69.974C406.728 68.798 407.652 68.224 408.982 68.084L410.158 67.958V67.37C410.158 66.46 409.878 65.816 408.8 65.816C408.254 65.816 407.848 65.984 407.442 66.194L407.036 65.368C407.624 65.018 408.226 64.794 409.066 64.794C410.382 64.794 411.264 65.564 411.264 66.866V69.988L411.474 71.43ZM410.158 70.142V68.714L409.136 68.854C408.296 68.966 407.834 69.232 407.834 69.834C407.834 70.38 408.17 70.744 408.73 70.744C409.388 70.744 409.794 70.464 410.158 70.142ZM418.115 64.948L415.931 70.898C415.231 72.83 414.293 73.992 412.011 74.454L411.801 73.544C413.467 73.208 414.349 72.2 414.783 71.108L412.431 65.046L413.537 64.752L415.343 69.624H415.357L417.009 64.948H418.115ZM427.04 71.5H421.846V70.772L424.24 68.476C424.884 67.846 425.374 67.384 425.374 66.614C425.374 65.802 424.87 65.2 423.932 65.2C423.302 65.2 422.854 65.48 422.518 65.76L421.986 65.018C422.588 64.514 423.204 64.206 424.17 64.206C425.556 64.206 426.508 65.018 426.508 66.488C426.508 67.468 425.92 68.21 425.248 68.826L423.456 70.478V70.492H427.04V71.5ZM433.92 67.93C433.92 69.792 433.192 71.654 431.078 71.654C428.95 71.654 428.222 69.792 428.222 67.93C428.222 66.068 428.95 64.206 431.078 64.206C433.192 64.206 433.92 66.068 433.92 67.93ZM432.772 67.93C432.772 66.362 432.254 65.186 431.078 65.186C429.888 65.186 429.37 66.362 429.37 67.93C429.37 69.498 429.888 70.674 431.078 70.674C432.254 70.674 432.772 69.498 432.772 67.93ZM440.261 71.5H435.067V70.772L437.461 68.476C438.105 67.846 438.595 67.384 438.595 66.614C438.595 65.802 438.091 65.2 437.153 65.2C436.523 65.2 436.075 65.48 435.739 65.76L435.207 65.018C435.809 64.514 436.425 64.206 437.391 64.206C438.777 64.206 439.729 65.018 439.729 66.488C439.729 67.468 439.141 68.21 438.469 68.826L436.677 70.478V70.492H440.261V71.5ZM446.609 68.938C446.609 70.59 445.629 71.654 444.047 71.654C442.255 71.654 441.499 70.324 441.499 68.35C441.499 64.542 443.739 62.974 446.175 62.778L446.315 63.702C444.635 63.884 442.955 64.794 442.633 67.132L442.647 67.146C442.647 67.146 443.361 66.53 444.327 66.53C445.797 66.53 446.609 67.468 446.609 68.938ZM445.503 69.162C445.503 67.972 445.041 67.468 444.019 67.468C443.221 67.468 442.633 68.028 442.633 68.028V68.294C442.633 69.862 443.039 70.73 444.145 70.73C445.069 70.73 445.503 70.072 445.503 69.162Z" fill="#00157E" fill-opacity="0.7"/>
<path d="M48.4105 170.001L15.8721 183.729V259.954H411.872V221.395L375.872 221.785L339.18 207.763L299.026 216.332L268.564 203.479H231.872L195.872 191.229L161.257 221.395L120.411 183.729L86.4875 187.229L48.4105 170.001Z" fill="url(#paint0_linear_820_126258)"/>
<path d="M15.8721 183.729L48.4105 170.001L86.4875 187.229L120.411 183.729L161.257 221.395L195.872 191.229L231.872 203.479H268.564L299.026 216.332L339.18 207.763L375.872 221.785L411.872 221.395" stroke="#00157E" stroke-linecap="round"/>
<path d="M442.872 137.354C442.872 138.416 442.242 139.1 441.225 139.1C440.073 139.1 439.587 138.245 439.587 136.976C439.587 134.528 441.027 133.52 442.593 133.394L442.683 133.988C441.603 134.105 440.523 134.69 440.316 136.193L440.325 136.202C440.325 136.202 440.784 135.806 441.405 135.806C442.35 135.806 442.872 136.409 442.872 137.354ZM442.161 137.498C442.161 136.733 441.864 136.409 441.207 136.409C440.694 136.409 440.316 136.769 440.316 136.769V136.94C440.316 137.948 440.577 138.506 441.288 138.506C441.882 138.506 442.161 138.083 442.161 137.498ZM447.389 136.706C447.389 137.903 446.921 139.1 445.562 139.1C444.194 139.1 443.726 137.903 443.726 136.706C443.726 135.509 444.194 134.312 445.562 134.312C446.921 134.312 447.389 135.509 447.389 136.706ZM446.651 136.706C446.651 135.698 446.318 134.942 445.562 134.942C444.797 134.942 444.464 135.698 444.464 136.706C444.464 137.714 444.797 138.47 445.562 138.47C446.318 138.47 446.651 137.714 446.651 136.706Z" fill="#00157E" fill-opacity="0.7"/>
<path d="M443.206 176.921H442.117V178.757L441.424 178.874V176.921H438.949V176.336L441.451 172.898H442.117V176.309H443.206V176.921ZM441.424 176.309V173.87H441.415L439.687 176.309H441.424ZM447.389 175.193C447.389 176.39 446.921 177.587 445.562 177.587C444.194 177.587 443.726 176.39 443.726 175.193C443.726 173.996 444.194 172.799 445.562 172.799C446.921 172.799 447.389 173.996 447.389 175.193ZM446.651 175.193C446.651 174.185 446.318 173.429 445.562 173.429C444.797 173.429 444.464 174.185 444.464 175.193C444.464 176.201 444.797 176.957 445.562 176.957C446.318 176.957 446.651 176.201 446.651 175.193Z" fill="#00157E" fill-opacity="0.7"/>
<path d="M442.967 215.976H439.628V215.508L441.167 214.032C441.581 213.627 441.896 213.33 441.896 212.835C441.896 212.313 441.572 211.926 440.969 211.926C440.564 211.926 440.276 212.106 440.06 212.286L439.718 211.809C440.105 211.485 440.501 211.287 441.122 211.287C442.013 211.287 442.625 211.809 442.625 212.754C442.625 213.384 442.247 213.861 441.815 214.257L440.663 215.319V215.328H442.967V215.976ZM447.389 213.681C447.389 214.878 446.921 216.075 445.562 216.075C444.194 216.075 443.726 214.878 443.726 213.681C443.726 212.484 444.194 211.287 445.562 211.287C446.921 211.287 447.389 212.484 447.389 213.681ZM446.651 213.681C446.651 212.673 446.318 211.917 445.562 211.917C444.797 211.917 444.464 212.673 444.464 213.681C444.464 214.689 444.797 215.445 445.562 215.445C446.318 215.445 446.651 214.689 446.651 213.681Z" fill="#00157E" fill-opacity="0.7"/>
<path d="M447.389 252.167C447.389 253.364 446.921 254.561 445.562 254.561C444.194 254.561 443.726 253.364 443.726 252.167C443.726 250.97 444.194 249.773 445.562 249.773C446.921 249.773 447.389 250.97 447.389 252.167ZM446.651 252.167C446.651 251.159 446.318 250.403 445.562 250.403C444.797 250.403 444.464 251.159 444.464 252.167C444.464 253.175 444.797 253.931 445.562 253.931C446.318 253.931 446.651 253.175 446.651 252.167Z" fill="#00157E" fill-opacity="0.7"/>
<path d="M20.5611 278.447L19.8321 278.582L17.3121 274.244H17.3031V278.501H16.6191V273.083H17.4291L19.8681 277.268H19.8771V273.083H20.5611V278.447ZM25.3357 276.395C25.3357 277.628 24.7507 278.6 23.5357 278.6C22.2037 278.6 21.7357 277.655 21.7357 276.395C21.7357 275.162 22.3207 274.19 23.5357 274.19C24.8677 274.19 25.3357 275.135 25.3357 276.395ZM24.5977 276.413C24.5977 275.369 24.2467 274.82 23.5357 274.82C22.8427 274.82 22.4737 275.306 22.4737 276.368C22.4737 277.412 22.8247 277.97 23.5357 277.97C24.2287 277.97 24.5977 277.475 24.5977 276.413ZM29.54 274.289L28.019 278.492L27.308 278.519L25.922 274.352L26.642 274.172L27.695 277.565H27.704L28.82 274.289H29.54Z" fill="#00157E" fill-opacity="0.7"/>
<path d="M150.632 273.722H148.688V275.486H150.443V276.125H148.688V278.501H147.941V273.083H150.632V273.722ZM154.381 278.276C153.976 278.501 153.562 278.6 153.049 278.6C151.807 278.6 151.168 277.763 151.168 276.368C151.168 275.063 151.852 274.19 152.914 274.19C153.931 274.19 154.345 274.865 154.345 275.792V276.296H151.87C151.879 277.421 152.284 277.961 153.202 277.961C153.553 277.961 153.823 277.862 154.129 277.709L154.381 278.276ZM153.67 275.792C153.67 275.162 153.436 274.766 152.878 274.766C152.338 274.766 151.996 275.189 151.906 275.792H153.67ZM158.785 276.143C158.785 277.547 158.056 278.591 156.724 278.591C156.256 278.591 155.743 278.51 155.437 278.393V273.398L155.311 272.471L156.157 272.354V274.613H156.166C156.436 274.388 156.796 274.19 157.273 274.19C158.263 274.19 158.785 274.901 158.785 276.143ZM158.056 276.404C158.056 275.477 157.84 274.847 157.021 274.847C156.643 274.847 156.373 275 156.157 275.189V277.898C156.337 277.943 156.517 277.97 156.787 277.97C157.624 277.97 158.056 277.259 158.056 276.404Z" fill="#00157E" fill-opacity="0.7"/>
<path d="M274.233 278.483L273.513 278.537L273.36 274.343H273.351L271.758 278.501H270.975L269.472 274.352H269.463L269.247 278.501H268.59L268.941 273.083H269.733L271.434 277.601H271.443L273.162 273.083H273.945L274.233 278.483ZM278.343 278.456L277.623 278.573L277.56 278.078H277.551C277.245 278.366 276.912 278.609 276.408 278.609C275.706 278.609 275.292 278.186 275.292 277.52C275.292 276.764 275.886 276.395 276.741 276.305L277.497 276.224V275.846C277.497 275.261 277.317 274.847 276.624 274.847C276.273 274.847 276.012 274.955 275.751 275.09L275.49 274.559C275.868 274.334 276.255 274.19 276.795 274.19C277.641 274.19 278.208 274.685 278.208 275.522V277.529L278.343 278.456ZM277.497 277.628V276.71L276.84 276.8C276.3 276.872 276.003 277.043 276.003 277.43C276.003 277.781 276.219 278.015 276.579 278.015C277.002 278.015 277.263 277.835 277.497 277.628ZM280.396 278.501H279.676V275.261L279.55 274.334L280.396 274.217V278.501ZM280.54 273.191C280.54 273.479 280.315 273.695 280.045 273.695C279.766 273.695 279.532 273.479 279.532 273.191C279.532 272.903 279.766 272.678 280.045 272.678C280.315 272.678 280.54 272.903 280.54 273.191Z" fill="#00157E" fill-opacity="0.7"/>
<path d="M402.681 278.411L401.943 278.618L401.367 276.746H399.603L399.054 278.501H398.262L400.143 273.083H400.917L402.681 278.411ZM401.205 276.206L400.503 273.866H400.494L399.765 276.206H401.205ZM406.887 278.456L406.176 278.573L406.104 278.087H406.095C405.78 278.384 405.366 278.6 404.844 278.6C404.133 278.6 403.566 278.141 403.566 277.277V275.261L403.44 274.334L404.286 274.217V277.025C404.286 277.646 404.52 277.97 405.087 277.97C405.492 277.97 405.78 277.799 406.041 277.556V275.261L405.915 274.334L406.761 274.217V277.529L406.887 278.456ZM411.636 274.82H410.79C410.916 275.036 410.988 275.288 410.988 275.594C410.988 276.449 410.367 277.025 409.503 277.025C409.332 277.025 409.17 276.998 409.026 276.962C409.026 276.962 408.738 277.124 408.738 277.448C408.738 277.727 408.945 277.781 409.233 277.781H410.439C411.177 277.781 411.609 278.006 411.609 278.663C411.609 279.491 410.763 280.427 409.224 280.427C408.342 280.427 407.802 279.995 407.802 279.257C407.802 278.564 408.369 278.222 408.369 278.222C408.189 278.105 408.072 277.925 408.072 277.628C408.072 277.106 408.522 276.845 408.612 276.8C408.216 276.557 408 276.143 408 275.594C408 274.739 408.63 274.172 409.503 274.172C409.827 274.172 410.124 274.244 410.358 274.388L411.636 274.19V274.82ZM410.979 278.771C410.979 278.465 410.718 278.402 410.277 278.402H409.143C409.017 278.402 408.9 278.393 408.783 278.375C408.783 278.375 408.441 278.645 408.441 279.095C408.441 279.581 408.738 279.842 409.386 279.842C410.421 279.842 410.979 279.23 410.979 278.771ZM410.313 275.594C410.313 275.009 409.989 274.712 409.503 274.712C409.035 274.712 408.675 275.027 408.675 275.594C408.675 276.188 409.008 276.485 409.503 276.485C409.962 276.485 410.313 276.17 410.313 275.594Z" fill="#00157E" fill-opacity="0.7"/>
<path d="M219.047 96.001L218.953 186.001" stroke="#00157E" stroke-opacity="0.7" stroke-width="0.5" stroke-dasharray="2.16 2.16"/>
<circle cx="219" cy="198.001" r="8" fill="#00157E" fill-opacity="0.05"/>
<circle cx="219" cy="198.001" r="7" stroke="#00157E" stroke-opacity="0.7" stroke-width="2"/>
<path d="M219 210.001V260.001" stroke="#00157E" stroke-opacity="0.7" stroke-width="0.5" stroke-dasharray="2.16 2.16"/>
<path d="M16 316.001C16 307.164 23.1634 300.001 32 300.001H80C88.8366 300.001 96 307.164 96 316.001V316.001C96 324.838 88.8366 332.001 80 332.001H32C23.1634 332.001 16 324.838 16 316.001V316.001Z" fill="#00157E" fill-opacity="0.05"/>
<path d="M52.2333 320.001H51.1273V313.813L49.8953 313.981L49.7693 313.127L52.2333 312.735V320.001ZM62.3285 313.449L60.5225 319.973L59.4865 320.029L57.8905 315.059H57.8765L56.2665 319.987L55.2305 320.029L53.5925 313.519L54.6565 313.253L55.8325 318.363H55.8465L57.3725 313.449H58.4645L60.0045 318.363H60.0185L61.2365 313.449H62.3285Z" fill="#00157E"/>
<path d="M104 316.001C104 307.164 111.163 300.001 120 300.001H168C176.837 300.001 184 307.164 184 316.001V316.001C184 324.838 176.837 332.001 168 332.001H120C111.163 332.001 104 324.838 104 316.001V316.001Z" fill="#00157E" fill-opacity="0.05"/>
<path d="M139.379 320.001H138.273V313.813L137.041 313.981L136.915 313.127L139.379 312.735V320.001ZM150.426 320.001H149.32V315.745C149.32 314.779 148.956 314.289 148.06 314.289C147.43 314.289 146.898 314.597 146.548 314.947C146.548 314.947 146.59 315.185 146.59 315.437V320.001H145.47V315.745C145.47 314.779 145.106 314.289 144.224 314.289C143.594 314.289 143.146 314.541 142.74 314.919V320.001H141.62V314.961L141.424 313.519L142.53 313.337L142.642 314.107H142.656C143.146 313.631 143.79 313.295 144.602 313.295C145.358 313.295 145.988 313.631 146.324 314.233H146.338C146.856 313.715 147.528 313.295 148.452 313.295C149.572 313.295 150.426 314.009 150.426 315.353V320.001Z" fill="#00157E"/>
<path d="M192 316.001C192 307.164 199.163 300.001 208 300.001H256C264.837 300.001 272 307.164 272 316.001V316.001C272 324.838 264.837 332.001 256 332.001H208C199.163 332.001 192 324.838 192 316.001V316.001Z" fill="#00157E" fill-opacity="0.05"/>
<path d="M228.751 319.441C228.751 321.121 227.673 322.185 225.825 322.185C225.279 322.185 224.705 322.087 224.187 321.961L224.439 320.911C224.901 321.051 225.293 321.163 225.853 321.163C226.959 321.163 227.631 320.617 227.631 319.609C227.631 318.237 226.371 317.705 224.593 317.705V316.907C226.665 316.781 227.239 315.857 227.239 314.947C227.239 314.149 226.749 313.701 225.965 313.701C225.321 313.701 224.943 313.911 224.523 314.191L224.061 313.421C224.565 313.029 225.209 312.707 226.189 312.707C227.533 312.707 228.359 313.505 228.359 314.807C228.359 315.941 227.701 316.697 226.763 317.145V317.159C228.135 317.453 228.751 318.363 228.751 319.441ZM239.294 320.001H238.188V315.745C238.188 314.779 237.824 314.289 236.928 314.289C236.298 314.289 235.766 314.597 235.416 314.947C235.416 314.947 235.458 315.185 235.458 315.437V320.001H234.338V315.745C234.338 314.779 233.974 314.289 233.092 314.289C232.462 314.289 232.014 314.541 231.608 314.919V320.001H230.488V314.961L230.292 313.519L231.398 313.337L231.51 314.107H231.524C232.014 313.631 232.658 313.295 233.47 313.295C234.226 313.295 234.856 313.631 235.192 314.233H235.206C235.724 313.715 236.396 313.295 237.32 313.295C238.44 313.295 239.294 314.009 239.294 315.353V320.001Z" fill="#00157E"/>
<path d="M280 316.001C280 307.164 287.163 300.001 296 300.001H344C352.837 300.001 360 307.164 360 316.001V316.001C360 324.838 352.837 332.001 344 332.001H296C287.163 332.001 280 324.838 280 316.001V316.001Z" fill="#00157E" fill-opacity="0.05"/>
<path d="M316.959 313.449L314.775 319.399C314.075 321.331 313.137 322.493 310.855 322.955L310.645 322.045C312.311 321.709 313.193 320.701 313.627 319.609L311.275 313.547L312.381 313.253L314.187 318.125H314.201L315.853 313.449H316.959ZM321.764 319.735C321.358 319.959 320.98 320.141 320.266 320.141C319.258 320.141 318.614 319.483 318.614 318.363V314.359H317.648V313.617L318.614 313.421V312.329L319.72 312.189V313.449H321.554V314.359H319.72V317.985C319.72 318.867 319.944 319.147 320.588 319.147C320.938 319.147 321.204 319.007 321.4 318.881L321.764 319.735ZM327.982 319.959L326.904 320.113L326.806 319.455H326.792C326.372 319.805 325.798 320.155 325.028 320.155C323.586 320.155 322.62 318.965 322.62 317.019C322.62 314.765 323.782 313.379 325.77 313.379C326.302 313.379 326.68 313.477 326.68 313.477V312.063L326.47 310.621L327.786 310.439V318.517L327.982 319.959ZM325.42 319.175C325.966 319.175 326.344 318.951 326.68 318.685V314.499C326.68 314.499 326.316 314.317 325.672 314.317C324.398 314.317 323.768 315.395 323.768 316.669C323.768 318.251 324.188 319.175 325.42 319.175Z" fill="#00157E"/>
<path d="M384 300.501H432C440.56 300.501 447.5 307.441 447.5 316.001C447.5 324.561 440.56 331.501 432 331.501H384C375.44 331.501 368.5 324.561 368.5 316.001C368.5 307.441 375.44 300.501 384 300.501Z" fill="#00157E"/>
<path d="M384 300.501H432C440.56 300.501 447.5 307.441 447.5 316.001C447.5 324.561 440.56 331.501 432 331.501H384C375.44 331.501 368.5 324.561 368.5 316.001C368.5 307.441 375.44 300.501 384 300.501Z" stroke="#00157E"/>
<path d="M406.239 319.973L405.119 320.057L404.881 313.533H404.867L402.389 320.001H401.171L398.833 313.547H398.819L398.483 320.001H397.461L398.007 311.573H399.239L401.885 318.601H401.899L404.573 311.573H405.791L406.239 319.973ZM412.632 319.931L411.512 320.113L411.414 319.343H411.4C410.924 319.791 410.406 320.169 409.622 320.169C408.53 320.169 407.886 319.511 407.886 318.475C407.886 317.299 408.81 316.725 410.14 316.585L411.316 316.459V315.871C411.316 314.961 411.036 314.317 409.958 314.317C409.412 314.317 409.006 314.485 408.6 314.695L408.194 313.869C408.782 313.519 409.384 313.295 410.224 313.295C411.54 313.295 412.422 314.065 412.422 315.367V318.489L412.632 319.931ZM411.316 318.643V317.215L410.294 317.355C409.454 317.467 408.992 317.733 408.992 318.335C408.992 318.881 409.328 319.245 409.888 319.245C410.546 319.245 410.952 318.965 411.316 318.643ZM419.27 319.707L418.318 320.239L416.498 317.439H416.484L414.846 320.001H413.67L415.952 316.599L413.992 313.743L414.93 313.211L416.554 315.675H416.568L417.968 313.449H419.158L417.086 316.501L419.27 319.707Z" fill="white"/>
<g clip-path="url(#clip1_820_126258)">
<path d="M16.001 364.001C16.001 361.792 17.7918 360.001 20.001 360.001H44.001C46.2101 360.001 48.001 361.792 48.001 364.001V388.001C48.001 390.21 46.2101 392.001 44.001 392.001H20.001C17.7918 392.001 16.001 390.21 16.001 388.001V364.001Z" fill="#00157E" fill-opacity="0.05"/>
<g clip-path="url(#clip2_820_126258)">
<path d="M38.001 372.001H39.001C40.0618 372.001 41.0793 372.422 41.8294 373.173C42.5795 373.923 43.001 374.94 43.001 376.001C43.001 377.062 42.5795 378.079 41.8294 378.829C41.0793 379.58 40.0618 380.001 39.001 380.001H38.001" stroke="#00157E" stroke-width="2" stroke-linecap="round" stroke-linejoin="round"/>
<path d="M22.001 372.001H38.001V381.001C38.001 382.062 37.5795 383.079 36.8294 383.829C36.0793 384.58 35.0618 385.001 34.001 385.001H26.001C24.9401 385.001 23.9227 384.58 23.1725 383.829C22.4224 383.079 22.001 382.062 22.001 381.001V372.001Z" stroke="#00157E" stroke-width="2" stroke-linecap="round" stroke-linejoin="round"/>
<path d="M26.001 365.001V368.001" stroke="#00157E" stroke-width="2" stroke-linecap="round" stroke-linejoin="round"/>
<path d="M30.001 365.001V368.001" stroke="#00157E" stroke-width="2" stroke-linecap="round" stroke-linejoin="round"/>
<path d="M34.001 365.001V368.001" stroke="#00157E" stroke-width="2" stroke-linecap="round" stroke-linejoin="round"/>
</g>
<path d="M66.673 381.001H65.329V371.369H66.673V381.001ZM74.961 381.001H73.681V376.137C73.681 375.033 73.265 374.473 72.257 374.473C71.537 374.473 71.025 374.777 70.561 375.193V381.001H69.281V375.241L69.057 373.593L70.321 373.385L70.449 374.265H70.465C71.025 373.721 71.761 373.337 72.689 373.337C73.953 373.337 74.961 374.153 74.961 375.689V381.001ZM82.7682 373.513L80.0642 380.985L78.8002 381.033L76.3362 373.625L77.6162 373.305L79.4882 379.337H79.5042L81.4882 373.513H82.7682ZM89.4029 380.601C88.6829 381.001 87.9469 381.177 87.0349 381.177C84.8269 381.177 83.6909 379.689 83.6909 377.209C83.6909 374.889 84.9069 373.337 86.7949 373.337C88.6029 373.337 89.3389 374.537 89.3389 376.185V377.081H84.9389C84.9549 379.081 85.6749 380.041 87.3069 380.041C87.9309 380.041 88.4109 379.865 88.9549 379.593L89.4029 380.601ZM88.1389 376.185C88.1389 375.065 87.7229 374.361 86.7309 374.361C85.7709 374.361 85.1629 375.113 85.0029 376.185H88.1389ZM95.6482 378.825C95.6482 380.185 94.5762 381.161 92.9762 381.161C92.2082 381.161 91.4402 381.049 90.8322 380.761L91.2162 379.641C91.7442 379.881 92.3362 380.073 92.9122 380.073C93.7762 380.073 94.3522 379.737 94.3522 379.033C94.3522 378.489 94.0642 378.265 93.5682 378.041L92.1762 377.401C91.6802 377.177 90.7842 376.729 90.7842 375.433C90.7842 374.009 92.0322 373.337 93.3922 373.337C94.2082 373.337 94.7842 373.465 95.4242 373.737L94.9922 374.841C94.4802 374.617 93.9842 374.457 93.3762 374.457C92.5602 374.457 92.0322 374.713 92.0322 375.353C92.0322 375.913 92.5122 376.137 92.8162 376.281L94.2402 376.953C95.2322 377.417 95.6482 378.009 95.6482 378.825ZM101.416 380.697C100.952 380.953 100.52 381.161 99.7036 381.161C98.5516 381.161 97.8156 380.409 97.8156 379.129V374.553H96.7116V373.705L97.8156 373.481V372.233L99.0796 372.073V373.513H101.176V374.553H99.0796V378.697C99.0796 379.705 99.3356 380.025 100.072 380.025C100.472 380.025 100.776 379.865 101 379.721L101.416 380.697ZM108.106 380.601C107.386 381.001 106.65 381.177 105.738 381.177C103.53 381.177 102.394 379.689 102.394 377.209C102.394 374.889 103.61 373.337 105.498 373.337C107.306 373.337 108.042 374.537 108.042 376.185V377.081H103.642C103.658 379.081 104.378 380.041 106.01 380.041C106.634 380.041 107.114 379.865 107.658 379.593L108.106 380.601ZM106.842 376.185C106.842 375.065 106.426 374.361 105.434 374.361C104.474 374.361 103.866 375.113 103.706 376.185H106.842ZM115.631 380.953L114.399 381.129L114.287 380.377H114.271C113.791 380.777 113.135 381.177 112.255 381.177C110.607 381.177 109.503 379.817 109.503 377.593C109.503 375.017 110.831 373.433 113.103 373.433C113.711 373.433 114.143 373.545 114.143 373.545V371.929L113.903 370.281L115.407 370.073V379.305L115.631 380.953ZM112.703 380.057C113.327 380.057 113.759 379.801 114.143 379.497V374.713C114.143 374.713 113.727 374.505 112.991 374.505C111.535 374.505 110.815 375.737 110.815 377.193C110.815 379.001 111.295 380.057 112.703 380.057Z" fill="#00157E"/>
</g>
<path d="M366.963 380.629C366.291 380.977 365.607 381.133 364.695 381.133C362.931 381.133 361.575 379.945 361.575 377.545C361.575 374.989 363.087 373.645 365.031 373.645C365.835 373.645 366.327 373.765 366.939 374.029L366.555 374.905C366.099 374.701 365.667 374.545 365.019 374.545C363.759 374.545 362.607 375.517 362.607 377.293C362.607 379.273 363.339 380.245 365.091 380.245C365.667 380.245 366.195 380.017 366.627 379.825L366.963 380.629ZM373.486 381.001H372.478V377.701H369.226V381.001H368.218V373.777H369.226V376.849H372.478V373.777H373.486V381.001ZM379.071 374.629H376.479V376.981H378.819V377.833H376.479V381.001H375.483V373.777H379.071V374.629Z" fill="#00157E" fill-opacity="0.7"/>
<path d="M391.468 381.001H390.204V373.929L388.796 374.121L388.652 373.145L391.468 372.697V381.001ZM398.797 379.561C398.797 382.633 395.901 383.497 393.837 383.657L393.677 382.569C395.133 382.409 397.485 381.833 397.485 379.737C397.485 378.425 396.749 377.657 394.701 377.657H393.629L393.981 372.841H398.541V374.009H395.085L394.877 376.697C394.877 376.697 395.245 376.665 395.581 376.665C397.437 376.665 398.797 377.641 398.797 379.561ZM402.267 372.281C402.267 373.449 401.787 374.345 400.811 374.921L400.443 374.441C400.923 374.089 401.179 373.641 401.259 373.065C400.811 373.001 400.427 372.617 400.427 372.153C400.427 371.625 400.843 371.225 401.355 371.225C401.867 371.225 402.267 371.641 402.267 372.281ZM410.547 376.921C410.547 379.049 409.715 381.177 407.299 381.177C404.867 381.177 404.035 379.049 404.035 376.921C404.035 374.793 404.867 372.665 407.299 372.665C409.715 372.665 410.547 374.793 410.547 376.921ZM409.235 376.921C409.235 375.129 408.643 373.785 407.299 373.785C405.939 373.785 405.347 375.129 405.347 376.921C405.347 378.713 405.939 380.057 407.299 380.057C408.643 380.057 409.235 378.713 409.235 376.921ZM418.781 376.921C418.781 379.049 417.949 381.177 415.533 381.177C413.101 381.177 412.269 379.049 412.269 376.921C412.269 374.793 413.101 372.665 415.533 372.665C417.949 372.665 418.781 374.793 418.781 376.921ZM417.469 376.921C417.469 375.129 416.877 373.785 415.533 373.785C414.173 373.785 413.581 375.129 413.581 376.921C413.581 378.713 414.173 380.057 415.533 380.057C416.877 380.057 417.469 378.713 417.469 376.921ZM427.016 376.921C427.016 379.049 426.184 381.177 423.768 381.177C421.336 381.177 420.504 379.049 420.504 376.921C420.504 374.793 421.336 372.665 423.768 372.665C426.184 372.665 427.016 374.793 427.016 376.921ZM425.704 376.921C425.704 375.129 425.112 373.785 423.768 373.785C422.408 373.785 421.816 375.129 421.816 376.921C421.816 378.713 422.408 380.057 423.768 380.057C425.112 380.057 425.704 378.713 425.704 376.921ZM430.626 380.185C430.626 380.697 430.21 381.113 429.714 381.113C429.202 381.113 428.786 380.697 428.786 380.185C428.786 379.689 429.202 379.273 429.714 379.273C430.21 379.273 430.626 379.689 430.626 380.185ZM438.906 376.921C438.906 379.049 438.074 381.177 435.658 381.177C433.226 381.177 432.394 379.049 432.394 376.921C432.394 374.793 433.226 372.665 435.658 372.665C438.074 372.665 438.906 374.793 438.906 376.921ZM437.594 376.921C437.594 375.129 437.002 373.785 435.658 373.785C434.298 373.785 433.706 375.129 433.706 376.921C433.706 378.713 434.298 380.057 435.658 380.057C437.002 380.057 437.594 378.713 437.594 376.921ZM447.141 376.921C447.141 379.049 446.309 381.177 443.893 381.177C441.461 381.177 440.629 379.049 440.629 376.921C440.629 374.793 441.461 372.665 443.893 372.665C446.309 372.665 447.141 374.793 447.141 376.921ZM445.829 376.921C445.829 375.129 445.237 373.785 443.893 373.785C442.533 373.785 441.941 375.129 441.941 376.921C441.941 378.713 442.533 380.057 443.893 380.057C445.237 380.057 445.829 378.713 445.829 376.921Z" fill="#00157E"/>
<g clip-path="url(#clip3_820_126258)">
<path d="M16.001 404.001C16.001 401.792 17.7918 400.001 20.001 400.001H44.001C46.2101 400.001 48.001 401.792 48.001 404.001V428.001C48.001 430.21 46.2101 432.001 44.001 432.001H20.001C17.7918 432.001 16.001 430.21 16.001 428.001V404.001Z" fill="#00157E" fill-opacity="0.05"/>
<g clip-path="url(#clip4_820_126258)">
<path d="M32.001 405.001V427.001" stroke="#00157E" stroke-width="2" stroke-linecap="round" stroke-linejoin="round"/>
<path d="M37.001 409.001H29.501C28.5727 409.001 27.6825 409.37 27.0261 410.026C26.3697 410.682 26.001 411.573 26.001 412.501C26.001 413.429 26.3697 414.319 27.0261 414.976C27.6825 415.632 28.5727 416.001 29.501 416.001H34.501C35.4292 416.001 36.3195 416.37 36.9759 417.026C37.6322 417.682 38.001 418.573 38.001 419.501C38.001 420.429 37.6322 421.319 36.9759 421.976C36.3195 422.632 35.4292 423.001 34.501 423.001H26.001" stroke="#00157E" stroke-width="2" stroke-linecap="round" stroke-linejoin="round"/>
</g>
<path d="M71.953 420.505C71.057 420.969 70.145 421.177 68.929 421.177C66.577 421.177 64.769 419.593 64.769 416.393C64.769 412.985 66.785 411.193 69.377 411.193C70.449 411.193 71.105 411.353 71.921 411.705L71.409 412.873C70.801 412.601 70.225 412.393 69.361 412.393C67.681 412.393 66.145 413.689 66.145 416.057C66.145 418.697 67.121 419.993 69.457 419.993C70.225 419.993 70.929 419.689 71.505 419.433L71.953 420.505ZM78.4899 420.921L77.2099 421.129L77.0979 420.249H77.0819C76.5379 420.761 75.9459 421.193 75.0499 421.193C73.8019 421.193 73.0659 420.441 73.0659 419.257C73.0659 417.913 74.1219 417.257 75.6419 417.097L76.9859 416.953V416.281C76.9859 415.241 76.6659 414.505 75.4339 414.505C74.8099 414.505 74.3459 414.697 73.8819 414.937L73.4179 413.993C74.0899 413.593 74.7779 413.337 75.7379 413.337C77.2419 413.337 78.2499 414.217 78.2499 415.705V419.273L78.4899 420.921ZM76.9859 419.449V417.817L75.8179 417.977C74.8579 418.105 74.3299 418.409 74.3299 419.097C74.3299 419.721 74.7139 420.137 75.3539 420.137C76.1059 420.137 76.5699 419.817 76.9859 419.449ZM85.1639 418.825C85.1639 420.185 84.0919 421.161 82.4919 421.161C81.7239 421.161 80.9559 421.049 80.3479 420.761L80.7319 419.641C81.2599 419.881 81.8519 420.073 82.4279 420.073C83.2919 420.073 83.8679 419.737 83.8679 419.033C83.8679 418.489 83.5799 418.265 83.0839 418.041L81.6919 417.401C81.1959 417.177 80.2999 416.729 80.2999 415.433C80.2999 414.009 81.5479 413.337 82.9079 413.337C83.7239 413.337 84.2999 413.465 84.9399 413.737L84.5079 414.841C83.9959 414.617 83.4999 414.457 82.8919 414.457C82.0759 414.457 81.5479 414.713 81.5479 415.353C81.5479 415.913 82.0279 416.137 82.3319 416.281L83.7559 416.953C84.7479 417.417 85.1639 418.009 85.1639 418.825ZM92.8192 421.001H91.5552V416.137C91.5552 415.049 91.1232 414.489 90.0992 414.489C89.3632 414.489 88.8672 414.809 88.4352 415.193V421.001H87.1552V411.929L86.9312 410.281L88.4352 410.073V414.169H88.4512C88.9472 413.737 89.6352 413.337 90.5632 413.337C91.8432 413.337 92.8192 414.137 92.8192 415.689V421.001Z" fill="#00157E"/>
</g>
<path d="M370.963 420.629C370.291 420.977 369.607 421.133 368.695 421.133C366.931 421.133 365.575 419.945 365.575 417.545C365.575 414.989 367.087 413.645 369.031 413.645C369.835 413.645 370.327 413.765 370.939 414.029L370.555 414.905C370.099 414.701 369.667 414.545 369.019 414.545C367.759 414.545 366.607 415.517 366.607 417.293C366.607 419.273 367.339 420.245 369.091 420.245C369.667 420.245 370.195 420.017 370.627 419.825L370.963 420.629ZM377.486 421.001H376.478V417.701H373.226V421.001H372.218V413.777H373.226V416.849H376.478V413.777H377.486V421.001ZM383.071 414.629H380.479V416.981H382.819V417.833H380.479V421.001H379.483V413.777H383.071V414.629Z" fill="#00157E" fill-opacity="0.7"/>
<path d="M398.797 419.561C398.797 422.633 395.901 423.497 393.837 423.657L393.677 422.569C395.133 422.409 397.485 421.833 397.485 419.737C397.485 418.425 396.749 417.657 394.701 417.657H393.629L393.981 412.841H398.541V414.009H395.085L394.877 416.697C394.877 416.697 395.245 416.665 395.581 416.665C397.437 416.665 398.797 417.641 398.797 419.561ZM402.267 412.281C402.267 413.449 401.787 414.345 400.811 414.921L400.443 414.441C400.923 414.089 401.179 413.641 401.259 413.065C400.811 413.001 400.427 412.617 400.427 412.153C400.427 411.625 400.843 411.225 401.355 411.225C401.867 411.225 402.267 411.641 402.267 412.281ZM410.547 416.921C410.547 419.049 409.715 421.177 407.299 421.177C404.867 421.177 404.035 419.049 404.035 416.921C404.035 414.793 404.867 412.665 407.299 412.665C409.715 412.665 410.547 414.793 410.547 416.921ZM409.235 416.921C409.235 415.129 408.643 413.785 407.299 413.785C405.939 413.785 405.347 415.129 405.347 416.921C405.347 418.713 405.939 420.057 407.299 420.057C408.643 420.057 409.235 418.713 409.235 416.921ZM418.781 416.921C418.781 419.049 417.949 421.177 415.533 421.177C413.101 421.177 412.269 419.049 412.269 416.921C412.269 414.793 413.101 412.665 415.533 412.665C417.949 412.665 418.781 414.793 418.781 416.921ZM417.469 416.921C417.469 415.129 416.877 413.785 415.533 413.785C414.173 413.785 413.581 415.129 413.581 416.921C413.581 418.713 414.173 420.057 415.533 420.057C416.877 420.057 417.469 418.713 417.469 416.921ZM427.016 416.921C427.016 419.049 426.184 421.177 423.768 421.177C421.336 421.177 420.504 419.049 420.504 416.921C420.504 414.793 421.336 412.665 423.768 412.665C426.184 412.665 427.016 414.793 427.016 416.921ZM425.704 416.921C425.704 415.129 425.112 413.785 423.768 413.785C422.408 413.785 421.816 415.129 421.816 416.921C421.816 418.713 422.408 420.057 423.768 420.057C425.112 420.057 425.704 418.713 425.704 416.921ZM430.626 420.185C430.626 420.697 430.21 421.113 429.714 421.113C429.202 421.113 428.786 420.697 428.786 420.185C428.786 419.689 429.202 419.273 429.714 419.273C430.21 419.273 430.626 419.689 430.626 420.185ZM438.906 416.921C438.906 419.049 438.074 421.177 435.658 421.177C433.226 421.177 432.394 419.049 432.394 416.921C432.394 414.793 433.226 412.665 435.658 412.665C438.074 412.665 438.906 414.793 438.906 416.921ZM437.594 416.921C437.594 415.129 437.002 413.785 435.658 413.785C434.298 413.785 433.706 415.129 433.706 416.921C433.706 418.713 434.298 420.057 435.658 420.057C437.002 420.057 437.594 418.713 437.594 416.921ZM447.141 416.921C447.141 419.049 446.309 421.177 443.893 421.177C441.461 421.177 440.629 419.049 440.629 416.921C440.629 414.793 441.461 412.665 443.893 412.665C446.309 412.665 447.141 414.793 447.141 416.921ZM445.829 416.921C445.829 415.129 445.237 413.785 443.893 413.785C442.533 413.785 441.941 415.129 441.941 416.921C441.941 418.713 442.533 420.057 443.893 420.057C445.237 420.057 445.829 418.713 445.829 416.921Z" fill="#00157E"/>
<g filter="url(#filter0_d_820_126258)">
<rect x="77" y="96" width="240" height="43" rx="8" fill="white" shape-rendering="crispEdges"/>
<rect x="77.5" y="96.5" width="239" height="42" rx="7.5" stroke="#00157E" stroke-opacity="0.2" shape-rendering="crispEdges"/>
<path d="M99.784 122.5H93.56V121.268L96.104 118.916C96.696 118.372 97.096 117.972 97.096 117.22C97.096 116.484 96.632 115.988 95.896 115.988C95.208 115.988 94.776 116.26 94.424 116.532L93.528 115.188C94.264 114.548 95.112 114.148 96.312 114.148C98.008 114.148 99.176 115.14 99.176 116.884C99.176 117.956 98.552 118.788 97.88 119.396L96.488 120.644V120.66H99.784V122.5ZM106.57 120.852C106.57 123.716 104.122 124.836 101.258 125.172L100.954 123.444C102.298 123.236 104.49 122.772 104.49 121.06C104.49 119.988 103.706 119.46 101.898 119.46H100.954L101.258 114.34H106.282V116.164H102.938L102.826 118.052C102.826 118.052 103.13 118.036 103.45 118.036C105.402 118.036 106.57 118.996 106.57 120.852ZM110.309 114.036C110.309 115.668 109.653 116.58 108.469 117.428L107.893 116.804C108.453 116.324 108.821 115.812 108.949 115.108C108.357 115.044 107.877 114.516 107.877 113.908C107.877 113.252 108.421 112.708 109.077 112.708C109.765 112.708 110.309 113.22 110.309 114.036ZM118.631 118.42C118.631 120.66 117.655 122.692 115.191 122.692C112.727 122.692 111.751 120.66 111.751 118.42C111.751 116.18 112.727 114.148 115.191 114.148C117.655 114.148 118.631 116.18 118.631 118.42ZM116.583 118.42C116.583 116.884 116.151 115.956 115.191 115.956C114.247 115.956 113.799 116.884 113.799 118.42C113.799 119.956 114.247 120.884 115.191 120.884C116.151 120.884 116.583 119.956 116.583 118.42ZM126.912 118.42C126.912 120.66 125.936 122.692 123.472 122.692C121.008 122.692 120.032 120.66 120.032 118.42C120.032 116.18 121.008 114.148 123.472 114.148C125.936 114.148 126.912 116.18 126.912 118.42ZM124.864 118.42C124.864 116.884 124.432 115.956 123.472 115.956C122.528 115.956 122.08 116.884 122.08 118.42C122.08 119.956 122.528 120.884 123.472 120.884C124.432 120.884 124.864 119.956 124.864 118.42ZM135.193 118.42C135.193 120.66 134.217 122.692 131.753 122.692C129.289 122.692 128.313 120.66 128.313 118.42C128.313 116.18 129.289 114.148 131.753 114.148C134.217 114.148 135.193 116.18 135.193 118.42ZM133.145 118.42C133.145 116.884 132.713 115.956 131.753 115.956C130.809 115.956 130.361 116.884 130.361 118.42C130.361 119.956 130.809 120.884 131.753 120.884C132.713 120.884 133.145 119.956 133.145 118.42ZM139.075 121.412C139.075 122.084 138.531 122.628 137.859 122.628C137.187 122.628 136.643 122.084 136.643 121.412C136.643 120.756 137.187 120.212 137.859 120.212C138.531 120.212 139.075 120.756 139.075 121.412ZM147.397 118.42C147.397 120.66 146.421 122.692 143.957 122.692C141.493 122.692 140.517 120.66 140.517 118.42C140.517 116.18 141.493 114.148 143.957 114.148C146.421 114.148 147.397 116.18 147.397 118.42ZM145.349 118.42C145.349 116.884 144.917 115.956 143.957 115.956C143.013 115.956 142.565 116.884 142.565 118.42C142.565 119.956 143.013 120.884 143.957 120.884C144.917 120.884 145.349 119.956 145.349 118.42ZM155.678 118.42C155.678 120.66 154.702 122.692 152.238 122.692C149.774 122.692 148.798 120.66 148.798 118.42C148.798 116.18 149.774 114.148 152.238 114.148C154.702 114.148 155.678 116.18 155.678 118.42ZM153.63 118.42C153.63 116.884 153.198 115.956 152.238 115.956C151.294 115.956 150.846 116.884 150.846 118.42C150.846 119.956 151.294 120.884 152.238 120.884C153.198 120.884 153.63 119.956 153.63 118.42Z" fill="#00157E"/>
<path d="M230.376 117.92C230.376 120.048 229.544 122.176 227.128 122.176C224.696 122.176 223.864 120.048 223.864 117.92C223.864 115.792 224.696 113.664 227.128 113.664C229.544 113.664 230.376 115.792 230.376 117.92ZM229.064 117.92C229.064 116.128 228.472 114.784 227.128 114.784C225.768 114.784 225.176 116.128 225.176 117.92C225.176 119.712 225.768 121.056 227.128 121.056C228.472 121.056 229.064 119.712 229.064 117.92ZM237.282 120.56C237.282 123.632 234.386 124.496 232.322 124.656L232.162 123.568C233.618 123.408 235.97 122.832 235.97 120.736C235.97 119.424 235.234 118.656 233.186 118.656H232.114L232.466 113.84H237.026V115.008H233.57L233.362 117.696C233.362 117.696 233.73 117.664 234.066 117.664C235.922 117.664 237.282 118.64 237.282 120.56ZM240.752 121.184C240.752 121.696 240.336 122.112 239.84 122.112C239.328 122.112 238.912 121.696 238.912 121.184C238.912 120.688 239.328 120.272 239.84 120.272C240.336 120.272 240.752 120.688 240.752 121.184ZM252.808 121.968L251.528 122.064L251.256 114.608H251.24L248.408 122H247.016L244.344 114.624H244.328L243.944 122H242.776L243.4 112.368H244.808L247.832 120.4H247.848L250.904 112.368H252.296L252.808 121.968ZM260.114 121.92L258.834 122.128L258.722 121.248H258.706C258.162 121.76 257.57 122.192 256.674 122.192C255.426 122.192 254.69 121.44 254.69 120.256C254.69 118.912 255.746 118.256 257.266 118.096L258.61 117.952V117.28C258.61 116.24 258.29 115.504 257.058 115.504C256.434 115.504 255.97 115.696 255.506 115.936L255.042 114.992C255.714 114.592 256.402 114.336 257.362 114.336C258.866 114.336 259.874 115.216 259.874 116.704V120.272L260.114 121.92ZM258.61 120.448V118.816L257.442 118.976C256.482 119.104 255.954 119.408 255.954 120.096C255.954 120.72 256.338 121.136 256.978 121.136C257.73 121.136 258.194 120.816 258.61 120.448ZM267.704 114.512L265.208 121.312C264.408 123.52 263.336 124.848 260.728 125.376L260.488 124.336C262.392 123.952 263.4 122.8 263.896 121.552L261.208 114.624L262.472 114.288L264.536 119.856H264.552L266.44 114.512H267.704ZM277.904 122H271.968V121.168L274.704 118.544C275.44 117.824 276 117.296 276 116.416C276 115.488 275.424 114.8 274.352 114.8C273.632 114.8 273.12 115.12 272.736 115.44L272.128 114.592C272.816 114.016 273.52 113.664 274.624 113.664C276.208 113.664 277.296 114.592 277.296 116.272C277.296 117.392 276.624 118.24 275.856 118.944L273.808 120.832V120.848H277.904V122ZM285.767 117.92C285.767 120.048 284.935 122.176 282.519 122.176C280.087 122.176 279.255 120.048 279.255 117.92C279.255 115.792 280.087 113.664 282.519 113.664C284.935 113.664 285.767 115.792 285.767 117.92ZM284.455 117.92C284.455 116.128 283.863 114.784 282.519 114.784C281.159 114.784 280.567 116.128 280.567 117.92C280.567 119.712 281.159 121.056 282.519 121.056C283.863 121.056 284.455 119.712 284.455 117.92ZM293.014 122H287.078V121.168L289.814 118.544C290.549 117.824 291.11 117.296 291.11 116.416C291.11 115.488 290.534 114.8 289.462 114.8C288.742 114.8 288.23 115.12 287.846 115.44L287.238 114.592C287.926 114.016 288.63 113.664 289.734 113.664C291.318 113.664 292.406 114.592 292.406 116.272C292.406 117.392 291.734 118.24 290.966 118.944L288.918 120.832V120.848H293.014V122ZM300.268 119.072C300.268 120.96 299.148 122.176 297.34 122.176C295.292 122.176 294.428 120.656 294.428 118.4C294.428 114.048 296.988 112.256 299.772 112.032L299.932 113.088C298.012 113.296 296.092 114.336 295.724 117.008L295.74 117.024C295.74 117.024 296.556 116.32 297.66 116.32C299.34 116.32 300.268 117.392 300.268 119.072ZM299.004 119.328C299.004 117.968 298.476 117.392 297.308 117.392C296.396 117.392 295.724 118.032 295.724 118.032V118.336C295.724 120.128 296.188 121.12 297.452 121.12C298.508 121.12 299.004 120.368 299.004 119.328Z" fill="#00157E" fill-opacity="0.7"/>
</g>
<defs>
<filter id="filter0_d_820_126258" x="65" y="86" width="264" height="67" filterUnits="userSpaceOnUse" color-interpolation-filters="sRGB">
<feFlood flood-opacity="0" result="BackgroundImageFix"/>
<feColorMatrix in="SourceAlpha" type="matrix" values="0 0 0 0 0 0 0 0 0 0 0 0 0 0 0 0 0 0 127 0" result="hardAlpha"/>
<feOffset dy="2"/>
<feGaussianBlur stdDeviation="6"/>
<feComposite in2="hardAlpha" operator="out"/>
<feColorMatrix type="matrix" values="0 0 0 0 0 0 0 0 0 0.0823529 0 0 0 0 0.494118 0 0 0 0.15 0"/>
<feBlend mode="normal" in2="BackgroundImageFix" result="effect1_dropShadow_820_126258"/>
<feBlend mode="normal" in="SourceGraphic" in2="effect1_dropShadow_820_126258" result="shape"/>
</filter>
<linearGradient id="paint0_linear_820_126258" x1="213.872" y1="204.459" x2="213.872" y2="259.954" gradientUnits="userSpaceOnUse">
<stop stop-color="#00157E" stop-opacity="0.2"/>
<stop offset="1" stop-color="#00157E" stop-opacity="0"/>
</linearGradient>
<clipPath id="clip0_820_126258">
<rect width="350.998" height="24" fill="white" transform="translate(16.001 56)"/>
</clipPath>
<clipPath id="clip1_820_126258">
<rect width="328.998" height="32" fill="white" transform="translate(16.001 360.001)"/>
</clipPath>
<clipPath id="clip2_820_126258">
<rect width="24" height="24" fill="white" transform="translate(20.001 364.001)"/>
</clipPath>
<clipPath id="clip3_820_126258">
<rect width="332.998" height="32" fill="white" transform="translate(16.001 400.001)"/>
</clipPath>
<clipPath id="clip4_820_126258">
<rect width="24" height="24" fill="white" transform="translate(20.001 404.001)"/>
</clipPath>
</defs>
</svg>
