<svg width="420" height="452" viewBox="0 0 420 452" fill="none" xmlns="http://www.w3.org/2000/svg">
<rect width="420" height="452.001" rx="8" fill="white"/>
<rect x="0.5" y="0.5" width="419" height="451.001" rx="7.5" stroke="#00157E" stroke-opacity="0.2"/>
<path d="M29.344 41.5H17.216V39.452L22.496 34.492C23.872 33.212 24.8 32.284 24.8 30.62C24.8 28.924 23.776 27.708 21.92 27.708C20.512 27.708 19.584 28.348 18.816 28.924L17.344 26.78C18.752 25.564 20.32 24.828 22.592 24.828C25.856 24.828 28.128 26.716 28.128 30.14C28.128 32.348 26.848 34.012 25.376 35.356L21.888 38.556V38.588H29.344V41.5ZM45.2253 33.34C45.2253 37.724 43.4333 41.852 38.5373 41.852C33.6733 41.852 31.8493 37.724 31.8493 33.34C31.8493 28.956 33.6733 24.828 38.5373 24.828C43.4333 24.828 45.2253 28.956 45.2253 33.34ZM41.9293 33.34C41.9293 29.98 40.8733 27.676 38.5373 27.676C36.2013 27.676 35.1453 29.98 35.1453 33.34C35.1453 36.7 36.2013 39.004 38.5373 39.004C40.8733 39.004 41.9293 36.7 41.9293 33.34ZM52.6693 24.316C52.6693 27.068 51.5493 28.86 49.4053 30.268L48.4773 29.18C49.5333 28.348 50.1413 27.388 50.3333 26.14C49.3093 26.012 48.4773 25.084 48.4773 24.028C48.4773 22.844 49.4053 21.948 50.5573 21.948C51.7413 21.948 52.6693 22.844 52.6693 24.316ZM69.319 33.34C69.319 37.724 67.527 41.852 62.631 41.852C57.767 41.852 55.943 37.724 55.943 33.34C55.943 28.956 57.767 24.828 62.631 24.828C67.527 24.828 69.319 28.956 69.319 33.34ZM66.023 33.34C66.023 29.98 64.967 27.676 62.631 27.676C60.295 27.676 59.239 29.98 59.239 33.34C59.239 36.7 60.295 39.004 62.631 39.004C64.967 39.004 66.023 36.7 66.023 33.34ZM85.819 33.34C85.819 37.724 84.027 41.852 79.131 41.852C74.267 41.852 72.443 37.724 72.443 33.34C72.443 28.956 74.267 24.828 79.131 24.828C84.027 24.828 85.819 28.956 85.819 33.34ZM82.523 33.34C82.523 29.98 81.467 27.676 79.131 27.676C76.795 27.676 75.739 29.98 75.739 33.34C75.739 36.7 76.795 39.004 79.131 39.004C81.467 39.004 82.523 36.7 82.523 33.34ZM102.319 33.34C102.319 37.724 100.527 41.852 95.631 41.852C90.767 41.852 88.943 37.724 88.943 33.34C88.943 28.956 90.767 24.828 95.631 24.828C100.527 24.828 102.319 28.956 102.319 33.34ZM99.023 33.34C99.023 29.98 97.967 27.676 95.631 27.676C93.295 27.676 92.239 29.98 92.239 33.34C92.239 36.7 93.295 39.004 95.631 39.004C97.967 39.004 99.023 36.7 99.023 33.34ZM109.763 39.612C109.763 40.764 108.835 41.724 107.651 41.724C106.499 41.724 105.571 40.764 105.571 39.612C105.571 38.46 106.499 37.532 107.651 37.532C108.835 37.532 109.763 38.46 109.763 39.612ZM126.413 33.34C126.413 37.724 124.621 41.852 119.725 41.852C114.861 41.852 113.037 37.724 113.037 33.34C113.037 28.956 114.861 24.828 119.725 24.828C124.621 24.828 126.413 28.956 126.413 33.34ZM123.117 33.34C123.117 29.98 122.061 27.676 119.725 27.676C117.389 27.676 116.333 29.98 116.333 33.34C116.333 36.7 117.389 39.004 119.725 39.004C122.061 39.004 123.117 36.7 123.117 33.34ZM142.913 33.34C142.913 37.724 141.121 41.852 136.225 41.852C131.361 41.852 129.537 37.724 129.537 33.34C129.537 28.956 131.361 24.828 136.225 24.828C141.121 24.828 142.913 28.956 142.913 33.34ZM139.617 33.34C139.617 29.98 138.561 27.676 136.225 27.676C133.889 27.676 132.833 29.98 132.833 33.34C132.833 36.7 133.889 39.004 136.225 39.004C138.561 39.004 139.617 36.7 139.617 33.34Z" fill="#00157E"/>
<path d="M160.952 41.004C160.056 41.468 159.144 41.676 157.928 41.676C155.576 41.676 153.768 40.092 153.768 36.892C153.768 33.484 155.784 31.692 158.376 31.692C159.448 31.692 160.104 31.852 160.92 32.204L160.408 33.372C159.8 33.1 159.224 32.892 158.36 32.892C156.68 32.892 155.144 34.188 155.144 36.556C155.144 39.196 156.12 40.492 158.456 40.492C159.224 40.492 159.928 40.188 160.504 39.932L160.952 41.004ZM169.649 41.5H168.305V37.1H163.969V41.5H162.625V31.868H163.969V35.964H168.305V31.868H169.649V41.5ZM177.096 33.004H173.64V36.14H176.76V37.276H173.64V41.5H172.312V31.868H177.096V33.004Z" fill="#00157E" fill-opacity="0.7"/>
<g clip-path="url(#clip0_820_126258)">
<path d="M22.021 68.388H19.655V70.74H18.731V68.388H16.379V67.464H18.731V65.112H19.655V67.464H22.021V68.388ZM31.0652 68.318C31.0652 72.182 29.1052 73.988 26.3192 74.324L26.0952 73.414C27.8592 73.204 29.6372 72.07 29.8892 69.396L29.8752 69.382C29.8752 69.382 29.2172 69.942 28.2232 69.942C26.8232 69.942 25.9132 68.892 25.9132 67.45C25.9132 65.7 26.9632 64.706 28.5452 64.706C30.1692 64.706 31.0652 65.826 31.0652 68.318ZM29.9032 68.304C29.9032 66.918 29.6512 65.658 28.4052 65.658C27.5232 65.658 27.0052 66.386 27.0052 67.296C27.0052 68.458 27.5372 69.018 28.5312 69.018C29.3852 69.018 29.9032 68.514 29.9032 68.514V68.304ZM37.516 69.956C37.516 71.3 36.494 72.154 35.052 72.154C33.582 72.154 32.588 71.412 32.588 70.04C32.588 68.808 33.498 68.066 34.198 67.59C33.358 67.002 32.798 66.498 32.798 65.448C32.798 64.258 33.778 63.418 35.038 63.418C36.396 63.418 37.278 64.174 37.278 65.35C37.278 66.358 36.578 67.002 35.892 67.478C36.788 68.08 37.516 68.682 37.516 69.956ZM36.438 69.956C36.438 69.046 35.808 68.584 34.968 68.038C34.226 68.542 33.652 68.976 33.652 69.9C33.652 70.74 34.212 71.216 35.066 71.216C35.976 71.216 36.438 70.656 36.438 69.956ZM36.284 65.476C36.284 64.762 35.808 64.3 35.052 64.3C34.296 64.3 33.806 64.79 33.806 65.49C33.806 66.148 34.352 66.526 35.108 67.044C35.71 66.652 36.284 66.148 36.284 65.476ZM44.6854 68.43C44.6854 70.292 43.9574 72.154 41.8434 72.154C39.7154 72.154 38.9874 70.292 38.9874 68.43C38.9874 66.568 39.7154 64.706 41.8434 64.706C43.9574 64.706 44.6854 66.568 44.6854 68.43ZM43.5374 68.43C43.5374 66.862 43.0194 65.686 41.8434 65.686C40.6534 65.686 40.1354 66.862 40.1354 68.43C40.1354 69.998 40.6534 71.174 41.8434 71.174C43.0194 71.174 43.5374 69.998 43.5374 68.43ZM47.8445 71.286C47.8445 71.734 47.4805 72.098 47.0465 72.098C46.5985 72.098 46.2345 71.734 46.2345 71.286C46.2345 70.852 46.5985 70.488 47.0465 70.488C47.4805 70.488 47.8445 70.852 47.8445 71.286ZM53.7877 71.44C53.7877 73.12 52.7097 74.184 50.8617 74.184C50.3157 74.184 49.7417 74.086 49.2237 73.96L49.4757 72.91C49.9377 73.05 50.3297 73.162 50.8897 73.162C51.9957 73.162 52.6677 72.616 52.6677 71.608C52.6677 70.236 51.4077 69.704 49.6297 69.704V68.906C51.7017 68.78 52.2757 67.856 52.2757 66.946C52.2757 66.148 51.7857 65.7 51.0017 65.7C50.3577 65.7 49.9797 65.91 49.5597 66.19L49.0977 65.42C49.6017 65.028 50.2457 64.706 51.2257 64.706C52.5697 64.706 53.3957 65.504 53.3957 66.806C53.3957 67.94 52.7377 68.696 51.7997 69.144V69.158C53.1717 69.452 53.7877 70.362 53.7877 71.44ZM60.1453 68.318C60.1453 72.182 58.1853 73.988 55.3993 74.324L55.1753 73.414C56.9393 73.204 58.7173 72.07 58.9693 69.396L58.9553 69.382C58.9553 69.382 58.2973 69.942 57.3033 69.942C55.9033 69.942 54.9933 68.892 54.9933 67.45C54.9933 65.7 56.0433 64.706 57.6253 64.706C59.2493 64.706 60.1453 65.826 60.1453 68.318ZM58.9833 68.304C58.9833 66.918 58.7313 65.658 57.4853 65.658C56.6033 65.658 56.0853 66.386 56.0853 67.296C56.0853 68.458 56.6173 69.018 57.6113 69.018C58.4653 69.018 58.9833 68.514 58.9833 68.514V68.304Z" fill="#00157E"/>
<path d="M71.959 71.566C71.175 71.972 70.377 72.154 69.313 72.154C67.255 72.154 65.673 70.768 65.673 67.968C65.673 64.986 67.437 63.418 69.705 63.418C70.643 63.418 71.217 63.558 71.931 63.866L71.483 64.888C70.951 64.65 70.447 64.468 69.691 64.468C68.221 64.468 66.877 65.602 66.877 67.674C66.877 69.984 67.731 71.118 69.775 71.118C70.447 71.118 71.063 70.852 71.567 70.628L71.959 71.566ZM79.5687 72H78.3927V68.15H74.5987V72H73.4227V63.572H74.5987V67.156H78.3927V63.572H79.5687V72ZM86.0853 64.566H83.0613V67.31H85.7913V68.304H83.0613V72H81.8993V63.572H86.0853V64.566Z" fill="#00157E" fill-opacity="0.7"/>
<path d="M109.021 68.388H106.655V70.74H105.731V68.388H103.379V67.464H105.731V65.112H106.655V67.464H109.021V68.388ZM118.079 72H112.885V71.272L115.279 68.976C115.923 68.346 116.413 67.884 116.413 67.114C116.413 66.302 115.909 65.7 114.971 65.7C114.341 65.7 113.893 65.98 113.557 66.26L113.025 65.518C113.627 65.014 114.243 64.706 115.209 64.706C116.595 64.706 117.547 65.518 117.547 66.988C117.547 67.968 116.959 68.71 116.287 69.326L114.495 70.978V70.992H118.079V72ZM120.913 71.286C120.913 71.734 120.549 72.098 120.115 72.098C119.667 72.098 119.303 71.734 119.303 71.286C119.303 70.852 119.667 70.488 120.115 70.488C120.549 70.488 120.913 70.852 120.913 71.286ZM128.158 68.43C128.158 70.292 127.43 72.154 125.316 72.154C123.188 72.154 122.46 70.292 122.46 68.43C122.46 66.568 123.188 64.706 125.316 64.706C127.43 64.706 128.158 66.568 128.158 68.43ZM127.01 68.43C127.01 66.862 126.492 65.686 125.316 65.686C124.126 65.686 123.608 66.862 123.608 68.43C123.608 69.998 124.126 71.174 125.316 71.174C126.492 71.174 127.01 69.998 127.01 68.43ZM135.363 68.43C135.363 70.292 134.635 72.154 132.521 72.154C130.393 72.154 129.665 70.292 129.665 68.43C129.665 66.568 130.393 64.706 132.521 64.706C134.635 64.706 135.363 66.568 135.363 68.43ZM134.215 68.43C134.215 66.862 133.697 65.686 132.521 65.686C131.331 65.686 130.813 66.862 130.813 68.43C130.813 69.998 131.331 71.174 132.521 71.174C133.697 71.174 134.215 69.998 134.215 68.43Z" fill="#00157E"/>
<path d="M146.069 65.616C146.069 66.876 145.103 67.842 143.843 67.842C142.583 67.842 141.617 66.876 141.617 65.616C141.617 64.356 142.583 63.418 143.843 63.418C145.103 63.418 146.069 64.356 146.069 65.616ZM152.285 69.942C152.285 71.202 151.319 72.154 150.059 72.154C148.799 72.154 147.833 71.202 147.833 69.942C147.833 68.696 148.799 67.744 150.059 67.744C151.319 67.744 152.285 68.696 152.285 69.942ZM149.709 63.768L145.075 72.28L144.221 71.818L148.855 63.306L149.709 63.768ZM151.263 69.942C151.263 69.228 150.773 68.738 150.059 68.738C149.345 68.738 148.855 69.228 148.855 69.942C148.855 70.642 149.345 71.174 150.059 71.174C150.773 71.174 151.263 70.642 151.263 69.942ZM145.033 65.616C145.033 64.902 144.557 64.412 143.843 64.412C143.129 64.412 142.639 64.902 142.639 65.616C142.639 66.33 143.129 66.848 143.843 66.848C144.557 66.848 145.033 66.33 145.033 65.616Z" fill="#00157E" fill-opacity="0.7"/>
</g>
<path d="M350.531 67.94C350.531 69.536 349.907 71.132 348.095 71.132C346.271 71.132 345.647 69.536 345.647 67.94C345.647 66.344 346.271 64.748 348.095 64.748C349.907 64.748 350.531 66.344 350.531 67.94ZM349.547 67.94C349.547 66.596 349.103 65.588 348.095 65.588C347.075 65.588 346.631 66.596 346.631 67.94C346.631 69.284 347.075 70.292 348.095 70.292C349.103 70.292 349.547 69.284 349.547 67.94ZM355.711 69.92C355.711 72.224 353.539 72.872 351.991 72.992L351.871 72.176C352.963 72.056 354.727 71.624 354.727 70.052C354.727 69.068 354.175 68.492 352.639 68.492H351.835L352.099 64.88H355.519V65.756H352.927L352.771 67.772C352.771 67.772 353.047 67.748 353.299 67.748C354.691 67.748 355.711 68.48 355.711 69.92ZM358.313 70.388C358.313 70.772 358.001 71.084 357.629 71.084C357.245 71.084 356.933 70.772 356.933 70.388C356.933 70.016 357.245 69.704 357.629 69.704C358.001 69.704 358.313 70.016 358.313 70.388ZM367.355 70.976L366.395 71.048L366.191 65.456H366.179L364.055 71H363.011L361.007 65.468H360.995L360.707 71H359.831L360.299 63.776H361.355L363.623 69.8H363.635L365.927 63.776H366.971L367.355 70.976ZM372.834 70.94L371.874 71.096L371.79 70.436H371.778C371.37 70.82 370.926 71.144 370.254 71.144C369.318 71.144 368.766 70.58 368.766 69.692C368.766 68.684 369.558 68.192 370.698 68.072L371.706 67.964V67.46C371.706 66.68 371.466 66.128 370.542 66.128C370.074 66.128 369.726 66.272 369.378 66.452L369.03 65.744C369.534 65.444 370.05 65.252 370.77 65.252C371.898 65.252 372.654 65.912 372.654 67.028V69.704L372.834 70.94ZM371.706 69.836V68.612L370.83 68.732C370.11 68.828 369.714 69.056 369.714 69.572C369.714 70.04 370.002 70.352 370.482 70.352C371.046 70.352 371.394 70.112 371.706 69.836ZM378.527 65.384L376.655 70.484C376.055 72.14 375.251 73.136 373.295 73.532L373.115 72.752C374.543 72.464 375.299 71.6 375.671 70.664L373.655 65.468L374.603 65.216L376.151 69.392H376.163L377.579 65.384H378.527ZM386.177 71H381.725V70.376L383.777 68.408C384.329 67.868 384.749 67.472 384.749 66.812C384.749 66.116 384.317 65.6 383.513 65.6C382.973 65.6 382.589 65.84 382.301 66.08L381.845 65.444C382.361 65.012 382.889 64.748 383.717 64.748C384.905 64.748 385.721 65.444 385.721 66.704C385.721 67.544 385.217 68.18 384.641 68.708L383.105 70.124V70.136H386.177V71ZM392.074 67.94C392.074 69.536 391.45 71.132 389.638 71.132C387.814 71.132 387.19 69.536 387.19 67.94C387.19 66.344 387.814 64.748 389.638 64.748C391.45 64.748 392.074 66.344 392.074 67.94ZM391.09 67.94C391.09 66.596 390.646 65.588 389.638 65.588C388.618 65.588 388.174 66.596 388.174 67.94C388.174 69.284 388.618 70.292 389.638 70.292C390.646 70.292 391.09 69.284 391.09 67.94ZM397.509 71H393.057V70.376L395.109 68.408C395.661 67.868 396.081 67.472 396.081 66.812C396.081 66.116 395.649 65.6 394.845 65.6C394.305 65.6 393.921 65.84 393.633 66.08L393.177 65.444C393.693 65.012 394.221 64.748 395.049 64.748C396.237 64.748 397.053 65.444 397.053 66.704C397.053 67.544 396.549 68.18 395.973 68.708L394.437 70.124V70.136H397.509V71ZM402.95 68.804C402.95 70.22 402.11 71.132 400.754 71.132C399.218 71.132 398.57 69.992 398.57 68.3C398.57 65.036 400.49 63.692 402.578 63.524L402.698 64.316C401.258 64.472 399.818 65.252 399.542 67.256L399.554 67.268C399.554 67.268 400.166 66.74 400.994 66.74C402.254 66.74 402.95 67.544 402.95 68.804ZM402.002 68.996C402.002 67.976 401.606 67.544 400.73 67.544C400.046 67.544 399.542 68.024 399.542 68.024V68.252C399.542 69.596 399.89 70.34 400.838 70.34C401.63 70.34 402.002 69.776 402.002 68.996Z" fill="#00157E" fill-opacity="0.7"/>
<path d="M44.7951 170.001L15.8721 183.729V259.954H367.872V221.395L335.872 221.785L303.257 207.763L267.564 216.332L240.487 203.479H207.872L175.872 191.229L145.103 221.395L108.795 183.729L78.6413 187.229L44.7951 170.001Z" fill="url(#paint0_linear_820_126258)"/>
<path d="M15.8721 183.729L44.7951 170.001L78.6413 187.229L108.795 183.729L145.103 221.395L175.872 191.229L207.872 203.479H240.487L267.564 216.332L303.257 207.763L335.872 221.785L367.872 221.395" stroke="#00157E" stroke-linecap="round"/>
<path d="M398.872 137.354C398.872 138.416 398.242 139.1 397.225 139.1C396.073 139.1 395.587 138.245 395.587 136.976C395.587 134.528 397.027 133.52 398.593 133.394L398.683 133.988C397.603 134.105 396.523 134.69 396.316 136.193L396.325 136.202C396.325 136.202 396.784 135.806 397.405 135.806C398.35 135.806 398.872 136.409 398.872 137.354ZM398.161 137.498C398.161 136.733 397.864 136.409 397.207 136.409C396.694 136.409 396.316 136.769 396.316 136.769V136.94C396.316 137.948 396.577 138.506 397.288 138.506C397.882 138.506 398.161 138.083 398.161 137.498ZM403.389 136.706C403.389 137.903 402.921 139.1 401.562 139.1C400.194 139.1 399.726 137.903 399.726 136.706C399.726 135.509 400.194 134.312 401.562 134.312C402.921 134.312 403.389 135.509 403.389 136.706ZM402.651 136.706C402.651 135.698 402.318 134.942 401.562 134.942C400.797 134.942 400.464 135.698 400.464 136.706C400.464 137.714 400.797 138.47 401.562 138.47C402.318 138.47 402.651 137.714 402.651 136.706Z" fill="#00157E" fill-opacity="0.7"/>
<path d="M399.206 176.921H398.117V178.757L397.424 178.874V176.921H394.949V176.336L397.451 172.898H398.117V176.309H399.206V176.921ZM397.424 176.309V173.87H397.415L395.687 176.309H397.424ZM403.389 175.193C403.389 176.39 402.921 177.587 401.562 177.587C400.194 177.587 399.726 176.39 399.726 175.193C399.726 173.996 400.194 172.799 401.562 172.799C402.921 172.799 403.389 173.996 403.389 175.193ZM402.651 175.193C402.651 174.185 402.318 173.429 401.562 173.429C400.797 173.429 400.464 174.185 400.464 175.193C400.464 176.201 400.797 176.957 401.562 176.957C402.318 176.957 402.651 176.201 402.651 175.193Z" fill="#00157E" fill-opacity="0.7"/>
<path d="M398.967 215.976H395.628V215.508L397.167 214.032C397.581 213.627 397.896 213.33 397.896 212.835C397.896 212.313 397.572 211.926 396.969 211.926C396.564 211.926 396.276 212.106 396.06 212.286L395.718 211.809C396.105 211.485 396.501 211.287 397.122 211.287C398.013 211.287 398.625 211.809 398.625 212.754C398.625 213.384 398.247 213.861 397.815 214.257L396.663 215.319V215.328H398.967V215.976ZM403.389 213.681C403.389 214.878 402.921 216.075 401.562 216.075C400.194 216.075 399.726 214.878 399.726 213.681C399.726 212.484 400.194 211.287 401.562 211.287C402.921 211.287 403.389 212.484 403.389 213.681ZM402.651 213.681C402.651 212.673 402.318 211.917 401.562 211.917C400.797 211.917 400.464 212.673 400.464 213.681C400.464 214.689 400.797 215.445 401.562 215.445C402.318 215.445 402.651 214.689 402.651 213.681Z" fill="#00157E" fill-opacity="0.7"/>
<path d="M403.389 252.167C403.389 253.364 402.921 254.561 401.562 254.561C400.194 254.561 399.726 253.364 399.726 252.167C399.726 250.97 400.194 249.773 401.562 249.773C402.921 249.773 403.389 250.97 403.389 252.167ZM402.651 252.167C402.651 251.159 402.318 250.403 401.562 250.403C400.797 250.403 400.464 251.159 400.464 252.167C400.464 253.175 400.797 253.931 401.562 253.931C402.318 253.931 402.651 253.175 402.651 252.167Z" fill="#00157E" fill-opacity="0.7"/>
<path d="M20.5611 278.447L19.8321 278.582L17.3121 274.244H17.3031V278.501H16.6191V273.083H17.4291L19.8681 277.268H19.8771V273.083H20.5611V278.447ZM25.3357 276.395C25.3357 277.628 24.7507 278.6 23.5357 278.6C22.2037 278.6 21.7357 277.655 21.7357 276.395C21.7357 275.162 22.3207 274.19 23.5357 274.19C24.8677 274.19 25.3357 275.135 25.3357 276.395ZM24.5977 276.413C24.5977 275.369 24.2467 274.82 23.5357 274.82C22.8427 274.82 22.4737 275.306 22.4737 276.368C22.4737 277.412 22.8247 277.97 23.5357 277.97C24.2287 277.97 24.5977 277.475 24.5977 276.413ZM29.54 274.289L28.019 278.492L27.308 278.519L25.922 274.352L26.642 274.172L27.695 277.565H27.704L28.82 274.289H29.54Z" fill="#00157E" fill-opacity="0.7"/>
<path d="M135.965 273.722H134.021V275.486H135.776V276.125H134.021V278.501H133.274V273.083H135.965V273.722ZM139.714 278.276C139.309 278.501 138.895 278.6 138.382 278.6C137.14 278.6 136.501 277.763 136.501 276.368C136.501 275.063 137.185 274.19 138.247 274.19C139.264 274.19 139.678 274.865 139.678 275.792V276.296H137.203C137.212 277.421 137.617 277.961 138.535 277.961C138.886 277.961 139.156 277.862 139.462 277.709L139.714 278.276ZM139.003 275.792C139.003 275.162 138.769 274.766 138.211 274.766C137.671 274.766 137.329 275.189 137.239 275.792H139.003ZM144.118 276.143C144.118 277.547 143.389 278.591 142.057 278.591C141.589 278.591 141.076 278.51 140.77 278.393V273.398L140.644 272.471L141.49 272.354V274.613H141.499C141.769 274.388 142.129 274.19 142.606 274.19C143.596 274.19 144.118 274.901 144.118 276.143ZM143.389 276.404C143.389 275.477 143.173 274.847 142.354 274.847C141.976 274.847 141.706 275 141.49 275.189V277.898C141.67 277.943 141.85 277.97 142.12 277.97C142.957 277.97 143.389 277.259 143.389 276.404Z" fill="#00157E" fill-opacity="0.7"/>
<path d="M244.9 278.483L244.18 278.537L244.027 274.343H244.018L242.425 278.501H241.642L240.139 274.352H240.13L239.914 278.501H239.257L239.608 273.083H240.4L242.101 277.601H242.11L243.829 273.083H244.612L244.9 278.483ZM249.009 278.456L248.289 278.573L248.226 278.078H248.217C247.911 278.366 247.578 278.609 247.074 278.609C246.372 278.609 245.958 278.186 245.958 277.52C245.958 276.764 246.552 276.395 247.407 276.305L248.163 276.224V275.846C248.163 275.261 247.983 274.847 247.29 274.847C246.939 274.847 246.678 274.955 246.417 275.09L246.156 274.559C246.534 274.334 246.921 274.19 247.461 274.19C248.307 274.19 248.874 274.685 248.874 275.522V277.529L249.009 278.456ZM248.163 277.628V276.71L247.506 276.8C246.966 276.872 246.669 277.043 246.669 277.43C246.669 277.781 246.885 278.015 247.245 278.015C247.668 278.015 247.929 277.835 248.163 277.628ZM251.062 278.501H250.342V275.261L250.216 274.334L251.062 274.217V278.501ZM251.206 273.191C251.206 273.479 250.981 273.695 250.711 273.695C250.432 273.695 250.198 273.479 250.198 273.191C250.198 272.903 250.432 272.678 250.711 272.678C250.981 272.678 251.206 272.903 251.206 273.191Z" fill="#00157E" fill-opacity="0.7"/>
<path d="M358.681 278.411L357.943 278.618L357.367 276.746H355.603L355.054 278.501H354.262L356.143 273.083H356.917L358.681 278.411ZM357.205 276.206L356.503 273.866H356.494L355.765 276.206H357.205ZM362.887 278.456L362.176 278.573L362.104 278.087H362.095C361.78 278.384 361.366 278.6 360.844 278.6C360.133 278.6 359.566 278.141 359.566 277.277V275.261L359.44 274.334L360.286 274.217V277.025C360.286 277.646 360.52 277.97 361.087 277.97C361.492 277.97 361.78 277.799 362.041 277.556V275.261L361.915 274.334L362.761 274.217V277.529L362.887 278.456ZM367.636 274.82H366.79C366.916 275.036 366.988 275.288 366.988 275.594C366.988 276.449 366.367 277.025 365.503 277.025C365.332 277.025 365.17 276.998 365.026 276.962C365.026 276.962 364.738 277.124 364.738 277.448C364.738 277.727 364.945 277.781 365.233 277.781H366.439C367.177 277.781 367.609 278.006 367.609 278.663C367.609 279.491 366.763 280.427 365.224 280.427C364.342 280.427 363.802 279.995 363.802 279.257C363.802 278.564 364.369 278.222 364.369 278.222C364.189 278.105 364.072 277.925 364.072 277.628C364.072 277.106 364.522 276.845 364.612 276.8C364.216 276.557 364 276.143 364 275.594C364 274.739 364.63 274.172 365.503 274.172C365.827 274.172 366.124 274.244 366.358 274.388L367.636 274.19V274.82ZM366.979 278.771C366.979 278.465 366.718 278.402 366.277 278.402H365.143C365.017 278.402 364.9 278.393 364.783 278.375C364.783 278.375 364.441 278.645 364.441 279.095C364.441 279.581 364.738 279.842 365.386 279.842C366.421 279.842 366.979 279.23 366.979 278.771ZM366.313 275.594C366.313 275.009 365.989 274.712 365.503 274.712C365.035 274.712 364.675 275.027 364.675 275.594C364.675 276.188 365.008 276.485 365.503 276.485C365.962 276.485 366.313 276.17 366.313 275.594Z" fill="#00157E" fill-opacity="0.7"/>
<path d="M197.047 96.001L196.953 186.001" stroke="#00157E" stroke-opacity="0.7" stroke-width="0.5" stroke-dasharray="2.16 2.16"/>
<circle cx="197" cy="198.001" r="8" fill="#00157E" fill-opacity="0.05"/>
<circle cx="197" cy="198.001" r="7" stroke="#00157E" stroke-opacity="0.7" stroke-width="2"/>
<path d="M197 210.001V260.001" stroke="#00157E" stroke-opacity="0.7" stroke-width="0.5" stroke-dasharray="2.16 2.16"/>
<path d="M16 316.001C16 307.164 23.1634 300.001 32 300.001H64.8C73.6366 300.001 80.8 307.164 80.8 316.001V316.001C80.8 324.838 73.6366 332.001 64.8 332.001H32C23.1634 332.001 16 324.838 16 316.001V316.001Z" fill="#00157E" fill-opacity="0.05"/>
<path d="M44.6332 320.001H43.5272V313.813L42.2952 313.981L42.1692 313.127L44.6332 312.735V320.001ZM54.7284 313.449L52.9224 319.973L51.8864 320.029L50.2904 315.059H50.2764L48.6664 319.987L47.6304 320.029L45.9924 313.519L47.0564 313.253L48.2324 318.363H48.2464L49.7724 313.449H50.8644L52.4044 318.363H52.4184L53.6364 313.449H54.7284Z" fill="#00157E"/>
<path d="M96.8 316.001C96.8 307.164 103.963 300.001 112.8 300.001H145.6C154.437 300.001 161.6 307.164 161.6 316.001V316.001C161.6 324.838 154.437 332.001 145.6 332.001H112.8C103.963 332.001 96.8 324.838 96.8 316.001V316.001Z" fill="#00157E" fill-opacity="0.05"/>
<path d="M124.579 320.001H123.473V313.813L122.241 313.981L122.115 313.127L124.579 312.735V320.001ZM135.626 320.001H134.52V315.745C134.52 314.779 134.156 314.289 133.26 314.289C132.63 314.289 132.098 314.597 131.748 314.947C131.748 314.947 131.79 315.185 131.79 315.437V320.001H130.67V315.745C130.67 314.779 130.306 314.289 129.424 314.289C128.794 314.289 128.346 314.541 127.94 314.919V320.001H126.82V314.961L126.624 313.519L127.73 313.337L127.842 314.107H127.856C128.346 313.631 128.99 313.295 129.802 313.295C130.558 313.295 131.188 313.631 131.524 314.233H131.538C132.056 313.715 132.728 313.295 133.652 313.295C134.772 313.295 135.626 314.009 135.626 315.353V320.001Z" fill="#00157E"/>
<path d="M177.6 316.001C177.6 307.164 184.764 300.001 193.6 300.001H226.4C235.237 300.001 242.4 307.164 242.4 316.001V316.001C242.4 324.838 235.237 332.001 226.4 332.001H193.6C184.764 332.001 177.6 324.838 177.6 316.001V316.001Z" fill="#00157E" fill-opacity="0.05"/>
<path d="M206.751 319.441C206.751 321.121 205.673 322.185 203.825 322.185C203.279 322.185 202.705 322.087 202.187 321.961L202.439 320.911C202.901 321.051 203.293 321.163 203.853 321.163C204.959 321.163 205.631 320.617 205.631 319.609C205.631 318.237 204.371 317.705 202.593 317.705V316.907C204.665 316.781 205.239 315.857 205.239 314.947C205.239 314.149 204.749 313.701 203.965 313.701C203.321 313.701 202.943 313.911 202.523 314.191L202.061 313.421C202.565 313.029 203.209 312.707 204.189 312.707C205.533 312.707 206.359 313.505 206.359 314.807C206.359 315.941 205.701 316.697 204.763 317.145V317.159C206.135 317.453 206.751 318.363 206.751 319.441ZM217.294 320.001H216.188V315.745C216.188 314.779 215.824 314.289 214.928 314.289C214.298 314.289 213.766 314.597 213.416 314.947C213.416 314.947 213.458 315.185 213.458 315.437V320.001H212.338V315.745C212.338 314.779 211.974 314.289 211.092 314.289C210.462 314.289 210.014 314.541 209.608 314.919V320.001H208.488V314.961L208.292 313.519L209.398 313.337L209.51 314.107H209.524C210.014 313.631 210.658 313.295 211.47 313.295C212.226 313.295 212.856 313.631 213.192 314.233H213.206C213.724 313.715 214.396 313.295 215.32 313.295C216.44 313.295 217.294 314.009 217.294 315.353V320.001Z" fill="#00157E"/>
<path d="M258.4 316.001C258.4 307.164 265.563 300.001 274.4 300.001H307.2C316.036 300.001 323.2 307.164 323.2 316.001V316.001C323.2 324.838 316.036 332.001 307.2 332.001H274.4C265.563 332.001 258.4 324.838 258.4 316.001V316.001Z" fill="#00157E" fill-opacity="0.05"/>
<path d="M287.759 313.449L285.575 319.399C284.875 321.331 283.937 322.493 281.655 322.955L281.445 322.045C283.111 321.709 283.993 320.701 284.427 319.609L282.075 313.547L283.181 313.253L284.987 318.125H285.001L286.653 313.449H287.759ZM292.564 319.735C292.158 319.959 291.78 320.141 291.066 320.141C290.058 320.141 289.414 319.483 289.414 318.363V314.359H288.448V313.617L289.414 313.421V312.329L290.52 312.189V313.449H292.354V314.359H290.52V317.985C290.52 318.867 290.744 319.147 291.388 319.147C291.738 319.147 292.004 319.007 292.2 318.881L292.564 319.735ZM298.782 319.959L297.704 320.113L297.606 319.455H297.592C297.172 319.805 296.598 320.155 295.828 320.155C294.386 320.155 293.42 318.965 293.42 317.019C293.42 314.765 294.582 313.379 296.57 313.379C297.102 313.379 297.48 313.477 297.48 313.477V312.063L297.27 310.621L298.586 310.439V318.517L298.782 319.959ZM296.22 319.175C296.766 319.175 297.144 318.951 297.48 318.685V314.499C297.48 314.499 297.116 314.317 296.472 314.317C295.198 314.317 294.568 315.395 294.568 316.669C294.568 318.251 294.988 319.175 296.22 319.175Z" fill="#00157E"/>
<path d="M355.2 300.501H388C396.56 300.501 403.5 307.441 403.5 316.001C403.5 324.561 396.56 331.501 388 331.501H355.2C346.64 331.501 339.7 324.561 339.7 316.001C339.7 307.441 346.64 300.501 355.2 300.501Z" fill="#00157E"/>
<path d="M355.2 300.501H388C396.56 300.501 403.5 307.441 403.5 316.001C403.5 324.561 396.56 331.501 388 331.501H355.2C346.64 331.501 339.7 324.561 339.7 316.001C339.7 307.441 346.64 300.501 355.2 300.501Z" stroke="#00157E"/>
<path d="M369.84 319.973L368.72 320.057L368.482 313.533H368.468L365.99 320.001H364.772L362.434 313.547H362.42L362.084 320.001H361.062L361.608 311.573H362.84L365.486 318.601H365.5L368.174 311.573H369.392L369.84 319.973ZM376.232 319.931L375.112 320.113L375.014 319.343H375C374.524 319.791 374.006 320.169 373.222 320.169C372.13 320.169 371.486 319.511 371.486 318.475C371.486 317.299 372.41 316.725 373.74 316.585L374.916 316.459V315.871C374.916 314.961 374.636 314.317 373.558 314.317C373.012 314.317 372.606 314.485 372.2 314.695L371.794 313.869C372.382 313.519 372.984 313.295 373.824 313.295C375.14 313.295 376.022 314.065 376.022 315.367V318.489L376.232 319.931ZM374.916 318.643V317.215L373.894 317.355C373.054 317.467 372.592 317.733 372.592 318.335C372.592 318.881 372.928 319.245 373.488 319.245C374.146 319.245 374.552 318.965 374.916 318.643ZM382.87 319.707L381.918 320.239L380.098 317.439H380.084L378.446 320.001H377.27L379.552 316.599L377.592 313.743L378.53 313.211L380.154 315.675H380.168L381.568 313.449H382.758L380.686 316.501L382.87 319.707Z" fill="white"/>
<g clip-path="url(#clip1_820_126258)">
<path d="M16.001 364.001C16.001 361.792 17.7918 360.001 20.001 360.001H44.001C46.2101 360.001 48.001 361.792 48.001 364.001V388.001C48.001 390.21 46.2101 392.001 44.001 392.001H20.001C17.7918 392.001 16.001 390.21 16.001 388.001V364.001Z" fill="#00157E" fill-opacity="0.05"/>
<g clip-path="url(#clip2_820_126258)">
<path d="M38.001 372.001H39.001C40.0618 372.001 41.0793 372.422 41.8294 373.173C42.5795 373.923 43.001 374.94 43.001 376.001C43.001 377.062 42.5795 378.079 41.8294 378.829C41.0793 379.58 40.0618 380.001 39.001 380.001H38.001" stroke="#00157E" stroke-width="2" stroke-linecap="round" stroke-linejoin="round"/>
<path d="M22.001 372.001H38.001V381.001C38.001 382.062 37.5795 383.079 36.8294 383.829C36.0793 384.58 35.0618 385.001 34.001 385.001H26.001C24.9401 385.001 23.9227 384.58 23.1725 383.829C22.4224 383.079 22.001 382.062 22.001 381.001V372.001Z" stroke="#00157E" stroke-width="2" stroke-linecap="round" stroke-linejoin="round"/>
<path d="M26.001 365.001V368.001" stroke="#00157E" stroke-width="2" stroke-linecap="round" stroke-linejoin="round"/>
<path d="M30.001 365.001V368.001" stroke="#00157E" stroke-width="2" stroke-linecap="round" stroke-linejoin="round"/>
<path d="M34.001 365.001V368.001" stroke="#00157E" stroke-width="2" stroke-linecap="round" stroke-linejoin="round"/>
</g>
<path d="M66.339 380.001H65.163V371.573H66.339V380.001ZM73.591 380.001H72.471V375.745C72.471 374.779 72.107 374.289 71.225 374.289C70.595 374.289 70.147 374.555 69.741 374.919V380.001H68.621V374.961L68.425 373.519L69.531 373.337L69.643 374.107H69.657C70.147 373.631 70.791 373.295 71.603 373.295C72.709 373.295 73.591 374.009 73.591 375.353V380.001ZM80.4223 373.449L78.0563 379.987L76.9503 380.029L74.7943 373.547L75.9143 373.267L77.5523 378.545H77.5663L79.3023 373.449H80.4223ZM86.2276 379.651C85.5976 380.001 84.9536 380.155 84.1556 380.155C82.2236 380.155 81.2296 378.853 81.2296 376.683C81.2296 374.653 82.2936 373.295 83.9456 373.295C85.5276 373.295 86.1716 374.345 86.1716 375.787V376.571H82.3216C82.3356 378.321 82.9656 379.161 84.3936 379.161C84.9396 379.161 85.3596 379.007 85.8356 378.769L86.2276 379.651ZM85.1216 375.787C85.1216 374.807 84.7576 374.191 83.8896 374.191C83.0496 374.191 82.5176 374.849 82.3776 375.787H85.1216ZM91.6923 378.097C91.6923 379.287 90.7543 380.141 89.3543 380.141C88.6823 380.141 88.0103 380.043 87.4783 379.791L87.8143 378.811C88.2763 379.021 88.7943 379.189 89.2983 379.189C90.0543 379.189 90.5583 378.895 90.5583 378.279C90.5583 377.803 90.3063 377.607 89.8723 377.411L88.6543 376.851C88.2203 376.655 87.4363 376.263 87.4363 375.129C87.4363 373.883 88.5283 373.295 89.7183 373.295C90.4323 373.295 90.9363 373.407 91.4963 373.645L91.1183 374.611C90.6703 374.415 90.2363 374.275 89.7043 374.275C88.9903 374.275 88.5283 374.499 88.5283 375.059C88.5283 375.549 88.9483 375.745 89.2143 375.871L90.4603 376.459C91.3283 376.865 91.6923 377.383 91.6923 378.097ZM96.7388 379.735C96.3328 379.959 95.9548 380.141 95.2408 380.141C94.2328 380.141 93.5888 379.483 93.5888 378.363V374.359H92.6228V373.617L93.5888 373.421V372.329L94.6948 372.189V373.449H96.5288V374.359H94.6948V377.985C94.6948 378.867 94.9188 379.147 95.5628 379.147C95.9128 379.147 96.1788 379.007 96.3748 378.881L96.7388 379.735ZM102.593 379.651C101.963 380.001 101.319 380.155 100.521 380.155C98.5889 380.155 97.5949 378.853 97.5949 376.683C97.5949 374.653 98.6589 373.295 100.311 373.295C101.893 373.295 102.537 374.345 102.537 375.787V376.571H98.6869C98.7009 378.321 99.3309 379.161 100.759 379.161C101.305 379.161 101.725 379.007 102.201 378.769L102.593 379.651ZM101.487 375.787C101.487 374.807 101.123 374.191 100.255 374.191C99.4149 374.191 98.8829 374.849 98.7429 375.787H101.487ZM109.178 379.959L108.1 380.113L108.002 379.455H107.988C107.568 379.805 106.994 380.155 106.224 380.155C104.782 380.155 103.816 378.965 103.816 377.019C103.816 374.765 104.978 373.379 106.966 373.379C107.498 373.379 107.876 373.477 107.876 373.477V372.063L107.666 370.621L108.982 370.439V378.517L109.178 379.959ZM106.616 379.175C107.162 379.175 107.54 378.951 107.876 378.685V374.499C107.876 374.499 107.512 374.317 106.868 374.317C105.594 374.317 104.964 375.395 104.964 376.669C104.964 378.251 105.384 379.175 106.616 379.175Z" fill="#00157E"/>
</g>
<path d="M329.963 379.629C329.291 379.977 328.607 380.133 327.695 380.133C325.931 380.133 324.575 378.945 324.575 376.545C324.575 373.989 326.087 372.645 328.031 372.645C328.835 372.645 329.327 372.765 329.939 373.029L329.555 373.905C329.099 373.701 328.667 373.545 328.019 373.545C326.759 373.545 325.607 374.517 325.607 376.293C325.607 378.273 326.339 379.245 328.091 379.245C328.667 379.245 329.195 379.017 329.627 378.825L329.963 379.629ZM336.486 380.001H335.478V376.701H332.226V380.001H331.218V372.777H332.226V375.849H335.478V372.777H336.486V380.001ZM342.071 373.629H339.479V375.981H341.819V376.833H339.479V380.001H338.483V372.777H342.071V373.629Z" fill="#00157E" fill-opacity="0.7"/>
<path d="M354.534 380.001H353.428V373.813L352.196 373.981L352.07 373.127L354.534 372.735V380.001ZM360.947 378.741C360.947 381.429 358.413 382.185 356.607 382.325L356.467 381.373C357.741 381.233 359.799 380.729 359.799 378.895C359.799 377.747 359.155 377.075 357.363 377.075H356.425L356.733 372.861H360.723V373.883H357.699L357.517 376.235C357.517 376.235 357.839 376.207 358.133 376.207C359.757 376.207 360.947 377.061 360.947 378.741ZM363.983 372.371C363.983 373.393 363.563 374.177 362.709 374.681L362.387 374.261C362.807 373.953 363.031 373.561 363.101 373.057C362.709 373.001 362.373 372.665 362.373 372.259C362.373 371.797 362.737 371.447 363.185 371.447C363.633 371.447 363.983 371.811 363.983 372.371ZM371.228 376.431C371.228 378.293 370.5 380.155 368.386 380.155C366.258 380.155 365.53 378.293 365.53 376.431C365.53 374.569 366.258 372.707 368.386 372.707C370.5 372.707 371.228 374.569 371.228 376.431ZM370.08 376.431C370.08 374.863 369.562 373.687 368.386 373.687C367.196 373.687 366.678 374.863 366.678 376.431C366.678 377.999 367.196 379.175 368.386 379.175C369.562 379.175 370.08 377.999 370.08 376.431ZM378.433 376.431C378.433 378.293 377.705 380.155 375.591 380.155C373.463 380.155 372.735 378.293 372.735 376.431C372.735 374.569 373.463 372.707 375.591 372.707C377.705 372.707 378.433 374.569 378.433 376.431ZM377.285 376.431C377.285 374.863 376.767 373.687 375.591 373.687C374.401 373.687 373.883 374.863 373.883 376.431C373.883 377.999 374.401 379.175 375.591 379.175C376.767 379.175 377.285 377.999 377.285 376.431ZM385.639 376.431C385.639 378.293 384.911 380.155 382.797 380.155C380.669 380.155 379.941 378.293 379.941 376.431C379.941 374.569 380.669 372.707 382.797 372.707C384.911 372.707 385.639 374.569 385.639 376.431ZM384.491 376.431C384.491 374.863 383.973 373.687 382.797 373.687C381.607 373.687 381.089 374.863 381.089 376.431C381.089 377.999 381.607 379.175 382.797 379.175C383.973 379.175 384.491 377.999 384.491 376.431ZM388.798 379.287C388.798 379.735 388.434 380.099 388 380.099C387.552 380.099 387.188 379.735 387.188 379.287C387.188 378.853 387.552 378.489 388 378.489C388.434 378.489 388.798 378.853 388.798 379.287ZM396.043 376.431C396.043 378.293 395.315 380.155 393.201 380.155C391.073 380.155 390.345 378.293 390.345 376.431C390.345 374.569 391.073 372.707 393.201 372.707C395.315 372.707 396.043 374.569 396.043 376.431ZM394.895 376.431C394.895 374.863 394.377 373.687 393.201 373.687C392.011 373.687 391.493 374.863 391.493 376.431C391.493 377.999 392.011 379.175 393.201 379.175C394.377 379.175 394.895 377.999 394.895 376.431ZM403.248 376.431C403.248 378.293 402.52 380.155 400.406 380.155C398.278 380.155 397.55 378.293 397.55 376.431C397.55 374.569 398.278 372.707 400.406 372.707C402.52 372.707 403.248 374.569 403.248 376.431ZM402.1 376.431C402.1 374.863 401.582 373.687 400.406 373.687C399.216 373.687 398.698 374.863 398.698 376.431C398.698 377.999 399.216 379.175 400.406 379.175C401.582 379.175 402.1 377.999 402.1 376.431Z" fill="#00157E"/>
<g clip-path="url(#clip3_820_126258)">
<path d="M16.001 404.001C16.001 401.792 17.7918 400.001 20.001 400.001H44.001C46.2101 400.001 48.001 401.792 48.001 404.001V428.001C48.001 430.21 46.2101 432.001 44.001 432.001H20.001C17.7918 432.001 16.001 430.21 16.001 428.001V404.001Z" fill="#00157E" fill-opacity="0.05"/>
<g clip-path="url(#clip4_820_126258)">
<path d="M32.001 405.001V427.001" stroke="#00157E" stroke-width="2" stroke-linecap="round" stroke-linejoin="round"/>
<path d="M37.001 409.001H29.501C28.5727 409.001 27.6825 409.37 27.0261 410.026C26.3697 410.682 26.001 411.573 26.001 412.501C26.001 413.429 26.3697 414.319 27.0261 414.976C27.6825 415.632 28.5727 416.001 29.501 416.001H34.501C35.4292 416.001 36.3195 416.37 36.9759 417.026C37.6322 417.682 38.001 418.573 38.001 419.501C38.001 420.429 37.6322 421.319 36.9759 421.976C36.3195 422.632 35.4292 423.001 34.501 423.001H26.001" stroke="#00157E" stroke-width="2" stroke-linecap="round" stroke-linejoin="round"/>
</g>
<path d="M70.959 419.567C70.175 419.973 69.377 420.155 68.313 420.155C66.255 420.155 64.673 418.769 64.673 415.969C64.673 412.987 66.437 411.419 68.705 411.419C69.643 411.419 70.217 411.559 70.931 411.867L70.483 412.889C69.951 412.651 69.447 412.469 68.691 412.469C67.221 412.469 65.877 413.603 65.877 415.675C65.877 417.985 66.731 419.119 68.775 419.119C69.447 419.119 70.063 418.853 70.567 418.629L70.959 419.567ZM76.6787 419.931L75.5587 420.113L75.4607 419.343H75.4467C74.9707 419.791 74.4527 420.169 73.6687 420.169C72.5767 420.169 71.9327 419.511 71.9327 418.475C71.9327 417.299 72.8567 416.725 74.1867 416.585L75.3627 416.459V415.871C75.3627 414.961 75.0827 414.317 74.0047 414.317C73.4587 414.317 73.0527 414.485 72.6467 414.695L72.2407 413.869C72.8287 413.519 73.4307 413.295 74.2707 413.295C75.5867 413.295 76.4687 414.065 76.4687 415.367V418.489L76.6787 419.931ZM75.3627 418.643V417.215L74.3407 417.355C73.5007 417.467 73.0387 417.733 73.0387 418.335C73.0387 418.881 73.3747 419.245 73.9347 419.245C74.5927 419.245 74.9987 418.965 75.3627 418.643ZM82.5185 418.097C82.5185 419.287 81.5805 420.141 80.1805 420.141C79.5085 420.141 78.8365 420.043 78.3045 419.791L78.6405 418.811C79.1025 419.021 79.6205 419.189 80.1245 419.189C80.8805 419.189 81.3845 418.895 81.3845 418.279C81.3845 417.803 81.1325 417.607 80.6985 417.411L79.4805 416.851C79.0465 416.655 78.2625 416.263 78.2625 415.129C78.2625 413.883 79.3545 413.295 80.5445 413.295C81.2585 413.295 81.7625 413.407 82.3225 413.645L81.9445 414.611C81.4965 414.415 81.0625 414.275 80.5305 414.275C79.8165 414.275 79.3545 414.499 79.3545 415.059C79.3545 415.549 79.7745 415.745 80.0405 415.871L81.2865 416.459C82.1545 416.865 82.5185 417.383 82.5185 418.097ZM89.2169 420.001H88.1109V415.745C88.1109 414.793 87.7329 414.303 86.8369 414.303C86.1929 414.303 85.7589 414.583 85.3809 414.919V420.001H84.2609V412.063L84.0649 410.621L85.3809 410.439V414.023H85.3949C85.8289 413.645 86.4309 413.295 87.2429 413.295C88.3629 413.295 89.2169 413.995 89.2169 415.353V420.001Z" fill="#00157E"/>
</g>
<path d="M333.963 419.629C333.291 419.977 332.607 420.133 331.695 420.133C329.931 420.133 328.575 418.945 328.575 416.545C328.575 413.989 330.087 412.645 332.031 412.645C332.835 412.645 333.327 412.765 333.939 413.029L333.555 413.905C333.099 413.701 332.667 413.545 332.019 413.545C330.759 413.545 329.607 414.517 329.607 416.293C329.607 418.273 330.339 419.245 332.091 419.245C332.667 419.245 333.195 419.017 333.627 418.825L333.963 419.629ZM340.486 420.001H339.478V416.701H336.226V420.001H335.218V412.777H336.226V415.849H339.478V412.777H340.486V420.001ZM346.071 413.629H343.479V415.981H345.819V416.833H343.479V420.001H342.483V412.777H346.071V413.629Z" fill="#00157E" fill-opacity="0.7"/>
<path d="M360.947 418.741C360.947 421.429 358.413 422.185 356.607 422.325L356.467 421.373C357.741 421.233 359.799 420.729 359.799 418.895C359.799 417.747 359.155 417.075 357.363 417.075H356.425L356.733 412.861H360.723V413.883H357.699L357.517 416.235C357.517 416.235 357.839 416.207 358.133 416.207C359.757 416.207 360.947 417.061 360.947 418.741ZM363.983 412.371C363.983 413.393 363.563 414.177 362.709 414.681L362.387 414.261C362.807 413.953 363.031 413.561 363.101 413.057C362.709 413.001 362.373 412.665 362.373 412.259C362.373 411.797 362.737 411.447 363.185 411.447C363.633 411.447 363.983 411.811 363.983 412.371ZM371.228 416.431C371.228 418.293 370.5 420.155 368.386 420.155C366.258 420.155 365.53 418.293 365.53 416.431C365.53 414.569 366.258 412.707 368.386 412.707C370.5 412.707 371.228 414.569 371.228 416.431ZM370.08 416.431C370.08 414.863 369.562 413.687 368.386 413.687C367.196 413.687 366.678 414.863 366.678 416.431C366.678 417.999 367.196 419.175 368.386 419.175C369.562 419.175 370.08 417.999 370.08 416.431ZM378.433 416.431C378.433 418.293 377.705 420.155 375.591 420.155C373.463 420.155 372.735 418.293 372.735 416.431C372.735 414.569 373.463 412.707 375.591 412.707C377.705 412.707 378.433 414.569 378.433 416.431ZM377.285 416.431C377.285 414.863 376.767 413.687 375.591 413.687C374.401 413.687 373.883 414.863 373.883 416.431C373.883 417.999 374.401 419.175 375.591 419.175C376.767 419.175 377.285 417.999 377.285 416.431ZM385.639 416.431C385.639 418.293 384.911 420.155 382.797 420.155C380.669 420.155 379.941 418.293 379.941 416.431C379.941 414.569 380.669 412.707 382.797 412.707C384.911 412.707 385.639 414.569 385.639 416.431ZM384.491 416.431C384.491 414.863 383.973 413.687 382.797 413.687C381.607 413.687 381.089 414.863 381.089 416.431C381.089 417.999 381.607 419.175 382.797 419.175C383.973 419.175 384.491 417.999 384.491 416.431ZM388.798 419.287C388.798 419.735 388.434 420.099 388 420.099C387.552 420.099 387.188 419.735 387.188 419.287C387.188 418.853 387.552 418.489 388 418.489C388.434 418.489 388.798 418.853 388.798 419.287ZM396.043 416.431C396.043 418.293 395.315 420.155 393.201 420.155C391.073 420.155 390.345 418.293 390.345 416.431C390.345 414.569 391.073 412.707 393.201 412.707C395.315 412.707 396.043 414.569 396.043 416.431ZM394.895 416.431C394.895 414.863 394.377 413.687 393.201 413.687C392.011 413.687 391.493 414.863 391.493 416.431C391.493 417.999 392.011 419.175 393.201 419.175C394.377 419.175 394.895 417.999 394.895 416.431ZM403.248 416.431C403.248 418.293 402.52 420.155 400.406 420.155C398.278 420.155 397.55 418.293 397.55 416.431C397.55 414.569 398.278 412.707 400.406 412.707C402.52 412.707 403.248 414.569 403.248 416.431ZM402.1 416.431C402.1 414.863 401.582 413.687 400.406 413.687C399.216 413.687 398.698 414.863 398.698 416.431C398.698 417.999 399.216 419.175 400.406 419.175C401.582 419.175 402.1 417.999 402.1 416.431Z" fill="#00157E"/>
<g filter="url(#filter0_d_820_126258)">
<rect x="77" y="96" width="240" height="40" rx="8" fill="white" shape-rendering="crispEdges"/>
<rect x="77.5" y="96.5" width="239" height="39" rx="7.5" stroke="#00157E" stroke-opacity="0.2" shape-rendering="crispEdges"/>
<path d="M98.754 120H93.56V119.272L95.954 116.976C96.598 116.346 97.088 115.884 97.088 115.114C97.088 114.302 96.584 113.7 95.646 113.7C95.016 113.7 94.568 113.98 94.232 114.26L93.7 113.518C94.302 113.014 94.918 112.706 95.884 112.706C97.27 112.706 98.222 113.518 98.222 114.988C98.222 115.968 97.634 116.71 96.962 117.326L95.17 118.978V118.992H98.754V120ZM104.472 118.74C104.472 121.428 101.938 122.184 100.132 122.324L99.9917 121.372C101.266 121.232 103.324 120.728 103.324 118.894C103.324 117.746 102.68 117.074 100.888 117.074H99.9497L100.258 112.86H104.248V113.882H101.224L101.042 116.234C101.042 116.234 101.364 116.206 101.658 116.206C103.282 116.206 104.472 117.06 104.472 118.74ZM107.508 112.37C107.508 113.392 107.088 114.176 106.234 114.68L105.912 114.26C106.332 113.952 106.556 113.56 106.626 113.056C106.234 113 105.898 112.664 105.898 112.258C105.898 111.796 106.262 111.446 106.71 111.446C107.158 111.446 107.508 111.81 107.508 112.37ZM114.753 116.43C114.753 118.292 114.025 120.154 111.911 120.154C109.783 120.154 109.055 118.292 109.055 116.43C109.055 114.568 109.783 112.706 111.911 112.706C114.025 112.706 114.753 114.568 114.753 116.43ZM113.605 116.43C113.605 114.862 113.087 113.686 111.911 113.686C110.721 113.686 110.203 114.862 110.203 116.43C110.203 117.998 110.721 119.174 111.911 119.174C113.087 119.174 113.605 117.998 113.605 116.43ZM121.958 116.43C121.958 118.292 121.23 120.154 119.116 120.154C116.988 120.154 116.26 118.292 116.26 116.43C116.26 114.568 116.988 112.706 119.116 112.706C121.23 112.706 121.958 114.568 121.958 116.43ZM120.81 116.43C120.81 114.862 120.292 113.686 119.116 113.686C117.926 113.686 117.408 114.862 117.408 116.43C117.408 117.998 117.926 119.174 119.116 119.174C120.292 119.174 120.81 117.998 120.81 116.43ZM129.163 116.43C129.163 118.292 128.435 120.154 126.321 120.154C124.193 120.154 123.465 118.292 123.465 116.43C123.465 114.568 124.193 112.706 126.321 112.706C128.435 112.706 129.163 114.568 129.163 116.43ZM128.015 116.43C128.015 114.862 127.497 113.686 126.321 113.686C125.131 113.686 124.613 114.862 124.613 116.43C124.613 117.998 125.131 119.174 126.321 119.174C127.497 119.174 128.015 117.998 128.015 116.43ZM132.322 119.286C132.322 119.734 131.958 120.098 131.524 120.098C131.076 120.098 130.712 119.734 130.712 119.286C130.712 118.852 131.076 118.488 131.524 118.488C131.958 118.488 132.322 118.852 132.322 119.286ZM139.567 116.43C139.567 118.292 138.839 120.154 136.725 120.154C134.597 120.154 133.869 118.292 133.869 116.43C133.869 114.568 134.597 112.706 136.725 112.706C138.839 112.706 139.567 114.568 139.567 116.43ZM138.419 116.43C138.419 114.862 137.901 113.686 136.725 113.686C135.535 113.686 135.017 114.862 135.017 116.43C135.017 117.998 135.535 119.174 136.725 119.174C137.901 119.174 138.419 117.998 138.419 116.43ZM146.772 116.43C146.772 118.292 146.044 120.154 143.93 120.154C141.802 120.154 141.074 118.292 141.074 116.43C141.074 114.568 141.802 112.706 143.93 112.706C146.044 112.706 146.772 114.568 146.772 116.43ZM145.624 116.43C145.624 114.862 145.106 113.686 143.93 113.686C142.74 113.686 142.222 114.862 142.222 116.43C142.222 117.998 142.74 119.174 143.93 119.174C145.106 119.174 145.624 117.998 145.624 116.43Z" fill="#00157E"/>
<path d="M247.532 115.94C247.532 117.536 246.908 119.132 245.096 119.132C243.272 119.132 242.648 117.536 242.648 115.94C242.648 114.344 243.272 112.748 245.096 112.748C246.908 112.748 247.532 114.344 247.532 115.94ZM246.548 115.94C246.548 114.596 246.104 113.588 245.096 113.588C244.076 113.588 243.632 114.596 243.632 115.94C243.632 117.284 244.076 118.292 245.096 118.292C246.104 118.292 246.548 117.284 246.548 115.94ZM252.712 117.92C252.712 120.224 250.54 120.872 248.992 120.992L248.872 120.176C249.964 120.056 251.728 119.624 251.728 118.052C251.728 117.068 251.176 116.492 249.64 116.492H248.836L249.1 112.88H252.52V113.756H249.928L249.772 115.772C249.772 115.772 250.048 115.748 250.3 115.748C251.692 115.748 252.712 116.48 252.712 117.92ZM255.314 118.388C255.314 118.772 255.002 119.084 254.63 119.084C254.246 119.084 253.934 118.772 253.934 118.388C253.934 118.016 254.246 117.704 254.63 117.704C255.002 117.704 255.314 118.016 255.314 118.388ZM264.356 118.976L263.396 119.048L263.192 113.456H263.18L261.056 119H260.012L258.008 113.468H257.996L257.708 119H256.832L257.3 111.776H258.356L260.624 117.8H260.636L262.928 111.776H263.972L264.356 118.976ZM269.835 118.94L268.875 119.096L268.791 118.436H268.779C268.371 118.82 267.927 119.144 267.255 119.144C266.319 119.144 265.767 118.58 265.767 117.692C265.767 116.684 266.559 116.192 267.699 116.072L268.707 115.964V115.46C268.707 114.68 268.467 114.128 267.543 114.128C267.075 114.128 266.727 114.272 266.379 114.452L266.031 113.744C266.535 113.444 267.051 113.252 267.771 113.252C268.899 113.252 269.655 113.912 269.655 115.028V117.704L269.835 118.94ZM268.707 117.836V116.612L267.831 116.732C267.111 116.828 266.715 117.056 266.715 117.572C266.715 118.04 267.003 118.352 267.483 118.352C268.047 118.352 268.395 118.112 268.707 117.836ZM275.528 113.384L273.656 118.484C273.056 120.14 272.252 121.136 270.296 121.532L270.116 120.752C271.544 120.464 272.3 119.6 272.672 118.664L270.656 113.468L271.604 113.216L273.152 117.392H273.164L274.58 113.384H275.528ZM283.178 119H278.726V118.376L280.778 116.408C281.33 115.868 281.75 115.472 281.75 114.812C281.75 114.116 281.318 113.6 280.514 113.6C279.974 113.6 279.59 113.84 279.302 114.08L278.846 113.444C279.362 113.012 279.89 112.748 280.718 112.748C281.906 112.748 282.722 113.444 282.722 114.704C282.722 115.544 282.218 116.18 281.642 116.708L280.106 118.124V118.136H283.178V119ZM289.075 115.94C289.075 117.536 288.451 119.132 286.639 119.132C284.815 119.132 284.191 117.536 284.191 115.94C284.191 114.344 284.815 112.748 286.639 112.748C288.451 112.748 289.075 114.344 289.075 115.94ZM288.091 115.94C288.091 114.596 287.647 113.588 286.639 113.588C285.619 113.588 285.175 114.596 285.175 115.94C285.175 117.284 285.619 118.292 286.639 118.292C287.647 118.292 288.091 117.284 288.091 115.94ZM294.51 119H290.058V118.376L292.11 116.408C292.662 115.868 293.082 115.472 293.082 114.812C293.082 114.116 292.65 113.6 291.846 113.6C291.306 113.6 290.922 113.84 290.634 114.08L290.178 113.444C290.694 113.012 291.222 112.748 292.05 112.748C293.238 112.748 294.054 113.444 294.054 114.704C294.054 115.544 293.55 116.18 292.974 116.708L291.438 118.124V118.136H294.51V119ZM299.951 116.804C299.951 118.22 299.111 119.132 297.755 119.132C296.219 119.132 295.571 117.992 295.571 116.3C295.571 113.036 297.491 111.692 299.579 111.524L299.699 112.316C298.259 112.472 296.819 113.252 296.543 115.256L296.555 115.268C296.555 115.268 297.167 114.74 297.995 114.74C299.255 114.74 299.951 115.544 299.951 116.804ZM299.003 116.996C299.003 115.976 298.607 115.544 297.731 115.544C297.047 115.544 296.543 116.024 296.543 116.024V116.252C296.543 117.596 296.891 118.34 297.839 118.34C298.631 118.34 299.003 117.776 299.003 116.996Z" fill="#00157E" fill-opacity="0.7"/>
</g>
<defs>
<filter id="filter0_d_820_126258" x="65" y="86" width="264" height="64" filterUnits="userSpaceOnUse" color-interpolation-filters="sRGB">
<feFlood flood-opacity="0" result="BackgroundImageFix"/>
<feColorMatrix in="SourceAlpha" type="matrix" values="0 0 0 0 0 0 0 0 0 0 0 0 0 0 0 0 0 0 127 0" result="hardAlpha"/>
<feOffset dy="2"/>
<feGaussianBlur stdDeviation="6"/>
<feComposite in2="hardAlpha" operator="out"/>
<feColorMatrix type="matrix" values="0 0 0 0 0 0 0 0 0 0.0823529 0 0 0 0 0.494118 0 0 0 0.15 0"/>
<feBlend mode="normal" in2="BackgroundImageFix" result="effect1_dropShadow_820_126258"/>
<feBlend mode="normal" in="SourceGraphic" in2="effect1_dropShadow_820_126258" result="shape"/>
</filter>
<linearGradient id="paint0_linear_820_126258" x1="191.872" y1="204.459" x2="191.872" y2="259.954" gradientUnits="userSpaceOnUse">
<stop stop-color="#00157E" stop-opacity="0.2"/>
<stop offset="1" stop-color="#00157E" stop-opacity="0"/>
</linearGradient>
<clipPath id="clip0_820_126258">
<rect width="316.998" height="24" fill="white" transform="translate(16.001 56)"/>
</clipPath>
<clipPath id="clip1_820_126258">
<rect width="291.998" height="32" fill="white" transform="translate(16.001 360.001)"/>
</clipPath>
<clipPath id="clip2_820_126258">
<rect width="24" height="24" fill="white" transform="translate(20.001 364.001)"/>
</clipPath>
<clipPath id="clip3_820_126258">
<rect width="295.998" height="32" fill="white" transform="translate(16.001 400.001)"/>
</clipPath>
<clipPath id="clip4_820_126258">
<rect width="24" height="24" fill="white" transform="translate(20.001 404.001)"/>
</clipPath>
</defs>
</svg>
