<svg width="375" height="812" viewBox="0 0 375 812" fill="none" xmlns="http://www.w3.org/2000/svg">
<g clip-path="url(#clip0_885_20485)">
<rect width="375" height="812" fill="#F1F2F8"/>
<g filter="url(#filter0_d_885_20485)">
<path d="M343.99 22.17H357.993C359.556 22.17 360.823 23.4371 360.823 25.0001V29.6729C360.823 31.2359 359.556 32.503 357.993 32.503H343.99C342.427 32.503 341.16 31.2359 341.16 29.6729V25.0001C341.16 23.4371 342.427 22.17 343.99 22.17Z" stroke="#00157E"/>
<path d="M362.33 25.3367V29.3367C363.135 28.9979 363.658 28.2098 363.658 27.3367C363.658 26.4635 363.135 25.6754 362.33 25.3367Z" fill="#00157E"/>
<rect x="342.66" y="23.67" width="16.66" height="7.33333" rx="1.33333" fill="#00157E"/>
<path d="M325.427 30.0606C326.702 28.9817 328.571 28.9817 329.847 30.0606C329.911 30.1186 329.947 30.2007 329.949 30.2871C329.951 30.3736 329.917 30.457 329.855 30.5176L327.858 32.5332C327.8 32.5924 327.72 32.626 327.637 32.626C327.553 32.626 327.474 32.5924 327.415 32.5332L325.417 30.5176C325.355 30.457 325.321 30.3735 325.323 30.2871C325.325 30.2007 325.363 30.1185 325.427 30.0606ZM322.762 27.3711C325.51 24.8151 329.766 24.8151 332.514 27.3711C332.576 27.431 332.611 27.5135 332.612 27.5996C332.613 27.6858 332.579 27.7689 332.519 27.8301L331.364 28.9971C331.245 29.1162 331.053 29.1188 330.931 29.003C330.028 28.1858 328.854 27.7334 327.637 27.7334C326.42 27.7339 325.247 28.1863 324.345 29.003C324.223 29.1188 324.03 29.1162 323.911 28.9971L322.757 27.8301C322.696 27.769 322.662 27.6857 322.663 27.5996C322.664 27.5135 322.7 27.431 322.762 27.3711ZM320.097 24.6895C324.312 20.6503 330.962 20.6501 335.177 24.6895C335.238 24.7494 335.272 24.8316 335.272 24.917C335.273 25.0026 335.239 25.0848 335.179 25.1455L334.022 26.3125C333.903 26.432 333.711 26.4332 333.59 26.3155C331.984 24.7887 329.853 23.9376 327.637 23.9375C325.421 23.9375 323.289 24.7886 321.683 26.3155C321.562 26.4334 321.369 26.4322 321.25 26.3125L320.094 25.1455C320.033 25.0848 319.999 25.0026 320 24.917C320.001 24.8315 320.036 24.7494 320.097 24.6895Z" fill="#00157E"/>
<path d="M299.66 28.667C300.212 28.667 300.66 29.1147 300.66 29.667V31.667C300.66 32.2191 300.212 32.667 299.66 32.667H298.66C298.108 32.667 297.66 32.2191 297.66 31.667V29.667C297.66 29.1147 298.108 28.667 298.66 28.667H299.66ZM304.327 26.667C304.879 26.6672 305.327 27.1148 305.327 27.667V31.667C305.327 32.219 304.879 32.6668 304.327 32.667H303.327C302.775 32.667 302.327 32.2191 302.327 31.667V27.667C302.327 27.1147 302.775 26.667 303.327 26.667H304.327ZM308.993 24.333C309.545 24.333 309.993 24.7809 309.993 25.333V31.667C309.993 32.2191 309.545 32.667 308.993 32.667H307.993C307.441 32.6668 306.993 32.219 306.993 31.667V25.333C306.993 24.781 307.441 24.3332 307.993 24.333H308.993ZM313.66 22C314.212 22 314.66 22.4477 314.66 23V31.667C314.66 32.2191 314.212 32.667 313.66 32.667H312.66C312.108 32.667 311.66 32.2191 311.66 31.667V23C311.66 22.4477 312.108 22 312.66 22H313.66Z" fill="#00157E"/>
<path d="M32.1846 21.9175C34.4405 21.9175 36.4034 23.5215 36.4034 27.3301V27.3447C36.4034 30.9043 34.7994 33.0137 32.1407 33.0137C30.1998 33.0137 28.7496 31.8638 28.4127 30.2451L28.398 30.1646H30.2584L30.2804 30.2378C30.5587 30.9775 31.2105 31.4609 32.1407 31.4609C33.8179 31.4609 34.5284 29.8203 34.609 27.7988C34.609 27.7183 34.6163 27.6377 34.6163 27.5571H34.4698C34.0816 28.3921 33.1588 29.1318 31.7086 29.1318C29.6798 29.1318 28.2589 27.6523 28.2589 25.6455V25.6309C28.2589 23.4849 29.8922 21.9175 32.1846 21.9175ZM32.1773 27.6816C33.3712 27.6816 34.2867 26.8174 34.2867 25.6235V25.6089C34.2867 24.4004 33.3712 23.4556 32.1993 23.4556C31.0347 23.4556 30.1046 24.3857 30.1046 25.5649V25.5796C30.1046 26.8027 30.9762 27.6816 32.1773 27.6816ZM39.4486 25.9019C38.7821 25.9019 38.284 25.3892 38.284 24.7446C38.284 24.0928 38.7821 23.5874 39.4486 23.5874C40.1224 23.5874 40.6131 24.0928 40.6131 24.7446C40.6131 25.3892 40.1224 25.9019 39.4486 25.9019ZM39.4486 31.3364C38.7821 31.3364 38.284 30.8311 38.284 30.1792C38.284 29.5273 38.7821 29.022 39.4486 29.022C40.1224 29.022 40.6131 29.5273 40.6131 30.1792C40.6131 30.8311 40.1224 31.3364 39.4486 31.3364ZM47.6207 32.75V30.7212H42.4498V29.1758C43.8195 26.7954 45.3209 24.3638 46.7565 22.1812H49.4298V29.1611H50.8507V30.7212H49.4298V32.75H47.6207ZM44.2077 29.2051H47.65V23.6899H47.5402C46.4562 25.3452 45.233 27.3008 44.2077 29.0952V29.2051ZM54.9506 32.75V24.0415H54.8261L52.1967 25.9019V24.1221L54.9579 22.1812H56.8403V32.75H54.9506Z" fill="#00157E"/>
<path d="M162.398 77.8922C162.398 80.9322 160.938 84.1722 156.678 84.1722C152.398 84.1722 150.938 80.9522 150.938 77.8922C150.938 74.8122 152.358 71.6522 156.678 71.6522C161.018 71.6522 162.398 74.7922 162.398 77.8922ZM159.598 77.8922C159.598 75.4122 158.698 73.9322 156.678 73.9322C154.678 73.9322 153.758 75.4322 153.758 77.8922C153.758 80.3922 154.698 81.9122 156.678 81.9122C158.638 81.9122 159.598 80.3722 159.598 77.8922ZM172.427 74.4722L168.927 83.8322L166.427 84.1122L163.347 74.7522L165.867 74.1722L167.787 80.8322H167.807L169.987 74.4722H172.427ZM180.749 83.3722C179.689 83.9122 178.809 84.1722 177.529 84.1722C174.369 84.1722 172.969 82.2522 172.969 79.0522C172.969 76.1922 174.669 74.2522 177.189 74.2522C179.829 74.2522 180.689 76.0722 180.689 78.3522V79.4722H175.449C175.529 81.1522 176.329 81.9522 177.849 81.9522C178.749 81.9522 179.249 81.7322 179.969 81.4322L180.749 83.3722ZM178.469 77.9322C178.469 76.9522 178.049 76.2922 177.109 76.2922C176.109 76.2922 175.609 77.0522 175.489 77.9322H178.469ZM187.79 76.5522C186.63 76.5522 185.87 76.7522 185.19 77.5122V83.9322H182.65V76.9322L182.33 74.5922L184.77 74.2722L184.93 75.6122H184.95C185.49 74.8922 186.31 74.2322 187.79 74.2322V76.5522ZM197.506 74.4722L194.006 83.8322L191.506 84.1122L188.426 74.7522L190.946 74.1722L192.866 80.8322H192.886L195.066 74.4722H197.506ZM201.558 83.9322H199.018V76.9322L198.698 74.5922L201.558 74.2722V83.9322ZM201.798 71.8122C201.798 72.6522 201.138 73.3322 200.298 73.3322C199.458 73.3322 198.798 72.6522 198.798 71.8122C198.798 70.9922 199.458 70.3122 200.298 70.3122C201.138 70.3122 201.798 70.9922 201.798 71.8122ZM211.295 83.3722C210.235 83.9122 209.355 84.1722 208.075 84.1722C204.915 84.1722 203.515 82.2522 203.515 79.0522C203.515 76.1922 205.215 74.2522 207.735 74.2522C210.375 74.2522 211.235 76.0722 211.235 78.3522V79.4722H205.995C206.075 81.1522 206.875 81.9522 208.395 81.9522C209.295 81.9522 209.795 81.7322 210.515 81.4322L211.295 83.3722ZM209.015 77.9322C209.015 76.9522 208.595 76.2922 207.655 76.2922C206.655 76.2922 206.155 77.0522 206.035 77.9322H209.015ZM225.477 74.4722L222.757 83.8122L220.417 84.0722L218.577 77.9722H218.557L216.757 83.8322L214.397 84.0722L212.117 74.6722L214.397 74.1522L215.717 80.3722H215.737L217.497 74.4722H219.777L221.517 80.3722H221.537L223.097 74.4722H225.477Z" fill="#00157E"/>
</g>
<g clip-path="url(#clip1_885_20485)">
<path d="M15 130C15 125.582 18.5817 122 23 122H351C355.418 122 359 125.582 359 130V878.011C359 882.429 355.418 886.011 351 886.011H23C18.5817 886.011 15 882.429 15 878.011V130Z" fill="white"/>
<path d="M23 122.5H351C355.142 122.5 358.5 125.858 358.5 130V878.011C358.5 882.153 355.142 885.511 351 885.511H23C18.8579 885.511 15.5 882.153 15.5 878.011V130C15.5 125.858 18.8579 122.5 23 122.5Z" stroke="#00157E" stroke-opacity="0.2"/>
</g>
<g filter="url(#filter1_d_885_20485)">
<rect width="375" height="83" transform="translate(0 729)" fill="white"/>
<rect width="375" height="63" transform="translate(0 729)" fill="white"/>
<path d="M38.499 760.5C38.499 747.245 49.2442 736.5 62.499 736.5C75.7539 736.5 86.499 747.245 86.499 760.5C86.499 773.755 75.7539 784.5 62.499 784.5C49.2442 784.5 38.499 773.755 38.499 760.5Z" fill="#00157E" fill-opacity="0.05"/>
<path d="M53.499 750L62.499 743L71.499 750V761C71.499 761.53 71.2883 762.039 70.9132 762.414C70.5382 762.789 70.0295 763 69.499 763H55.499C54.9686 763 54.4599 762.789 54.0848 762.414C53.7097 762.039 53.499 761.53 53.499 761V750Z" stroke="#00157E" stroke-width="2" stroke-linecap="round" stroke-linejoin="round"/>
<path d="M59.499 763V753H65.499V763" stroke="#00157E" stroke-width="2" stroke-linecap="round" stroke-linejoin="round"/>
<path d="M47.8421 776.388C47.8421 778.284 46.9901 780.132 44.5781 780.132C42.1181 780.132 41.2781 778.308 41.2781 776.388C41.2781 774.48 42.1541 772.644 44.5781 772.644C47.0381 772.644 47.8421 774.456 47.8421 776.388ZM46.7861 776.388C46.7861 774.624 46.1021 773.496 44.5781 773.496C43.0661 773.496 42.3581 774.672 42.3581 776.388C42.3581 778.14 43.0421 779.28 44.5781 779.28C46.0661 779.28 46.7861 778.104 46.7861 776.388ZM53.4651 774.384L51.4371 779.988L50.4891 780.024L48.6411 774.468L49.6011 774.228L51.0051 778.752H51.0171L52.5051 774.384H53.4651ZM58.4411 779.7C57.9011 780 57.3491 780.132 56.6651 780.132C55.0091 780.132 54.1571 779.016 54.1571 777.156C54.1571 775.416 55.0691 774.252 56.4851 774.252C57.8411 774.252 58.3931 775.152 58.3931 776.388V777.06H55.0931C55.1051 778.56 55.6451 779.28 56.8691 779.28C57.3371 779.28 57.6971 779.148 58.1051 778.944L58.4411 779.7ZM57.4931 776.388C57.4931 775.548 57.1811 775.02 56.4371 775.02C55.7171 775.02 55.2611 775.584 55.1411 776.388H57.4931ZM62.3931 775.212C61.7451 775.212 61.2651 775.38 60.8331 775.776V780H59.8731V775.68L59.7051 774.444L60.6531 774.288L60.7491 775.056H60.7611C61.1451 774.624 61.6491 774.264 62.3931 774.264V775.212ZM67.8323 774.384L65.8043 779.988L64.8563 780.024L63.0083 774.468L63.9683 774.228L65.3723 778.752H65.3843L66.8723 774.384H67.8323ZM70.0094 780H69.0494V775.68L68.8814 774.444L70.0094 774.288V780ZM70.2014 772.92C70.2014 773.304 69.9014 773.592 69.5414 773.592C69.1694 773.592 68.8574 773.304 68.8574 772.92C68.8574 772.536 69.1694 772.236 69.5414 772.236C69.9014 772.236 70.2014 772.536 70.2014 772.92ZM75.8317 779.7C75.2917 780 74.7397 780.132 74.0557 780.132C72.3997 780.132 71.5477 779.016 71.5477 777.156C71.5477 775.416 72.4597 774.252 73.8757 774.252C75.2317 774.252 75.7837 775.152 75.7837 776.388V777.06H72.4837C72.4957 778.56 73.0357 779.28 74.2597 779.28C74.7277 779.28 75.0877 779.148 75.4957 778.944L75.8317 779.7ZM74.8837 776.388C74.8837 775.548 74.5717 775.02 73.8277 775.02C73.1077 775.02 72.6517 775.584 72.5317 776.388H74.8837ZM83.9957 774.384L82.4477 779.976L81.5597 780.024L80.1917 775.764H80.1797L78.7997 779.988L77.9117 780.024L76.5077 774.444L77.4197 774.216L78.4277 778.596H78.4397L79.7477 774.384H80.6837L82.0037 778.596H82.0157L83.0597 774.384H83.9957Z" fill="#00157E"/>
<path d="M182.5 753L177.5 758L182.5 763M177.5 758H189.5" stroke="#00157E" stroke-width="2" stroke-linecap="round" stroke-linejoin="round"/>
<path d="M192.5 743L197.5 748L192.5 753M197.5 748H185.5" stroke="#00157E" stroke-width="2" stroke-linecap="round" stroke-linejoin="round"/>
<path d="M169.832 774.564C169.832 776.256 168.452 777.108 166.844 777.108H166.664V780H165.668V772.836C165.668 772.836 166.568 772.704 167.516 772.704C168.92 772.704 169.832 773.376 169.832 774.564ZM168.848 774.744C168.848 773.856 168.26 773.46 167.348 773.46C166.964 773.46 166.664 773.508 166.664 773.508V776.34H166.82C167.888 776.34 168.848 775.86 168.848 774.744ZM174.636 779.94L173.676 780.096L173.592 779.436H173.58C173.172 779.82 172.728 780.144 172.056 780.144C171.12 780.144 170.568 779.58 170.568 778.692C170.568 777.684 171.36 777.192 172.5 777.072L173.508 776.964V776.46C173.508 775.68 173.268 775.128 172.344 775.128C171.876 775.128 171.528 775.272 171.18 775.452L170.832 774.744C171.336 774.444 171.852 774.252 172.572 774.252C173.7 774.252 174.456 774.912 174.456 776.028V778.704L174.636 779.94ZM173.508 778.836V777.612L172.632 777.732C171.912 777.828 171.516 778.056 171.516 778.572C171.516 779.04 171.804 779.352 172.284 779.352C172.848 779.352 173.196 779.112 173.508 778.836ZM180.329 774.384L178.457 779.484C177.857 781.14 177.053 782.136 175.097 782.532L174.917 781.752C176.345 781.464 177.101 780.6 177.473 779.664L175.457 774.468L176.405 774.216L177.953 778.392H177.965L179.381 774.384H180.329ZM189.035 780H188.087V776.352C188.087 775.524 187.775 775.104 187.007 775.104C186.467 775.104 186.011 775.368 185.711 775.668C185.711 775.668 185.747 775.872 185.747 776.088V780H184.787V776.352C184.787 775.524 184.475 775.104 183.719 775.104C183.179 775.104 182.795 775.32 182.447 775.644V780H181.487V775.68L181.319 774.444L182.267 774.288L182.363 774.948H182.375C182.795 774.54 183.347 774.252 184.043 774.252C184.691 774.252 185.231 774.54 185.519 775.056H185.531C185.975 774.612 186.551 774.252 187.343 774.252C188.303 774.252 189.035 774.864 189.035 776.016V780ZM194.844 779.7C194.304 780 193.752 780.132 193.068 780.132C191.412 780.132 190.56 779.016 190.56 777.156C190.56 775.416 191.472 774.252 192.888 774.252C194.244 774.252 194.796 775.152 194.796 776.388V777.06H191.496C191.508 778.56 192.048 779.28 193.272 779.28C193.74 779.28 194.1 779.148 194.508 778.944L194.844 779.7ZM193.896 776.388C193.896 775.548 193.584 775.02 192.84 775.02C192.12 775.02 191.664 775.584 191.544 776.388H193.896ZM200.536 780H199.576V776.352C199.576 775.524 199.264 775.104 198.508 775.104C197.968 775.104 197.584 775.332 197.236 775.644V780H196.276V775.68L196.108 774.444L197.056 774.288L197.152 774.948H197.164C197.584 774.54 198.136 774.252 198.832 774.252C199.78 774.252 200.536 774.864 200.536 776.016V780ZM205.237 779.772C204.889 779.964 204.565 780.12 203.953 780.12C203.089 780.12 202.537 779.556 202.537 778.596V775.164H201.709V774.528L202.537 774.36V773.424L203.485 773.304V774.384H205.057V775.164H203.485V778.272C203.485 779.028 203.677 779.268 204.229 779.268C204.529 779.268 204.757 779.148 204.925 779.04L205.237 779.772ZM209.771 778.368C209.771 779.388 208.967 780.12 207.767 780.12C207.191 780.12 206.615 780.036 206.159 779.82L206.447 778.98C206.843 779.16 207.287 779.304 207.719 779.304C208.367 779.304 208.799 779.052 208.799 778.524C208.799 778.116 208.583 777.948 208.211 777.78L207.167 777.3C206.795 777.132 206.123 776.796 206.123 775.824C206.123 774.756 207.059 774.252 208.079 774.252C208.691 774.252 209.123 774.348 209.603 774.552L209.279 775.38C208.895 775.212 208.523 775.092 208.067 775.092C207.455 775.092 207.059 775.284 207.059 775.764C207.059 776.184 207.419 776.352 207.647 776.46L208.715 776.964C209.459 777.312 209.771 777.756 209.771 778.368Z" fill="#00157E"/>
<path d="M320.501 762V760C320.501 758.939 320.08 757.922 319.329 757.172C318.579 756.421 317.562 756 316.501 756H308.501C307.44 756 306.423 756.421 305.673 757.172C304.922 757.922 304.501 758.939 304.501 760V762" stroke="#00157E" stroke-width="2" stroke-linecap="round" stroke-linejoin="round"/>
<path d="M312.501 752C314.71 752 316.501 750.209 316.501 748C316.501 745.791 314.71 744 312.501 744C310.292 744 308.501 745.791 308.501 748C308.501 750.209 310.292 752 312.501 752Z" stroke="#00157E" stroke-width="2" stroke-linecap="round" stroke-linejoin="round"/>
<path d="M303.194 774.564C303.194 776.256 301.814 777.108 300.206 777.108H300.026V780H299.03V772.836C299.03 772.836 299.93 772.704 300.878 772.704C302.282 772.704 303.194 773.376 303.194 774.564ZM302.21 774.744C302.21 773.856 301.622 773.46 300.71 773.46C300.326 773.46 300.026 773.508 300.026 773.508V776.34H300.182C301.25 776.34 302.21 775.86 302.21 774.744ZM307.01 775.212C306.362 775.212 305.882 775.38 305.45 775.776V780H304.49V775.68L304.322 774.444L305.27 774.288L305.366 775.056H305.378C305.762 774.624 306.266 774.264 307.01 774.264V775.212ZM312.457 777.192C312.457 778.836 311.677 780.132 310.057 780.132C308.281 780.132 307.657 778.872 307.657 777.192C307.657 775.548 308.437 774.252 310.057 774.252C311.833 774.252 312.457 775.512 312.457 777.192ZM311.473 777.216C311.473 775.824 311.005 775.092 310.057 775.092C309.133 775.092 308.641 775.74 308.641 777.156C308.641 778.548 309.109 779.292 310.057 779.292C310.981 779.292 311.473 778.632 311.473 777.216ZM317.836 780H316.888V775.164H314.98V780H314.032V775.164H313.204V774.528L314.032 774.36V773.916C314.032 772.704 314.8 771.816 316.168 771.816C316.792 771.816 317.188 772.008 317.476 772.164L317.128 772.932C316.984 772.836 316.624 772.632 316.168 772.632C315.292 772.632 314.98 773.124 314.98 773.808V774.384H317.836V780ZM320.696 780H319.736V773.196L319.568 771.96L320.696 771.804V780ZM326.496 779.7C325.956 780 325.404 780.132 324.72 780.132C323.064 780.132 322.212 779.016 322.212 777.156C322.212 775.416 323.124 774.252 324.54 774.252C325.896 774.252 326.448 775.152 326.448 776.388V777.06H323.148C323.16 778.56 323.7 779.28 324.924 779.28C325.392 779.28 325.752 779.148 326.16 778.944L326.496 779.7ZM325.548 776.388C325.548 775.548 325.236 775.02 324.492 775.02C323.772 775.02 323.316 775.584 323.196 776.388H325.548Z" fill="#00157E"/>
</g>
</g>
<defs>
<filter id="filter0_d_885_20485" x="-32" y="-30" width="439" height="170" filterUnits="userSpaceOnUse" color-interpolation-filters="sRGB">
<feFlood flood-opacity="0" result="BackgroundImageFix"/>
<feColorMatrix in="SourceAlpha" type="matrix" values="0 0 0 0 0 0 0 0 0 0 0 0 0 0 0 0 0 0 127 0" result="hardAlpha"/>
<feOffset dy="2"/>
<feGaussianBlur stdDeviation="16"/>
<feColorMatrix type="matrix" values="0 0 0 0 0 0 0 0 0 0.0823529 0 0 0 0 0.494118 0 0 0 0.1 0"/>
<feBlend mode="normal" in2="BackgroundImageFix" result="effect1_dropShadow_885_20485"/>
<feBlend mode="normal" in="SourceGraphic" in2="effect1_dropShadow_885_20485" result="shape"/>
</filter>
<filter id="filter1_d_885_20485" x="-32.001" y="695" width="439.002" height="147" filterUnits="userSpaceOnUse" color-interpolation-filters="sRGB">
<feFlood flood-opacity="0" result="BackgroundImageFix"/>
<feColorMatrix in="SourceAlpha" type="matrix" values="0 0 0 0 0 0 0 0 0 0 0 0 0 0 0 0 0 0 127 0" result="hardAlpha"/>
<feOffset dy="-2"/>
<feGaussianBlur stdDeviation="16"/>
<feColorMatrix type="matrix" values="0 0 0 0 0 0 0 0 0 0.0823529 0 0 0 0 0.494118 0 0 0 0.1 0"/>
<feBlend mode="normal" in2="BackgroundImageFix" result="effect1_dropShadow_885_20485"/>
<feBlend mode="normal" in="SourceGraphic" in2="effect1_dropShadow_885_20485" result="shape"/>
</filter>
<clipPath id="clip0_885_20485">
<rect width="375" height="812" fill="white"/>
</clipPath>
<clipPath id="clip1_885_20485">
<rect width="375" height="623" fill="white" transform="translate(0 106)"/>
</clipPath>
</defs>
</svg>
