<svg width="163" height="32" viewBox="0 0 163 32" fill="none" xmlns="http://www.w3.org/2000/svg">
<path d="M16 1C24.2843 1 31 7.71573 31 16C31 24.2843 24.2843 31 16 31C7.71573 31 1 24.2843 1 16C1 7.71573 7.71573 1 16 1Z" fill="white"/>
<path d="M16 1C24.2843 1 31 7.71573 31 16C31 24.2843 24.2843 31 16 31C7.71573 31 1 24.2843 1 16C1 7.71573 7.71573 1 16 1Z" stroke="#00157E" stroke-width="2"/>
<path d="M0 16C0 7.16344 7.16344 0 16 0C24.8366 0 32 7.16344 32 16C32 24.8366 24.8366 32 16 32C7.16344 32 0 24.8366 0 16Z" fill="#00157E" fill-opacity="0.2"/>
<circle cx="16" cy="16" r="9" fill="#00157E"/>
<path d="M55.7536 20.696L54.5696 21.272L51.8656 16.888C51.6256 16.92 51.4016 16.936 51.1616 16.936H50.9216V21H49.5936V11.448C49.5936 11.448 50.8096 11.272 52.0576 11.272C53.9136 11.272 55.0816 12.168 55.0816 13.688C55.0816 15.16 54.2336 16.072 53.0976 16.52L55.7536 20.696ZM53.7856 13.928C53.7856 12.776 52.9856 12.28 51.8336 12.28C51.3216 12.28 50.9216 12.328 50.9216 12.328V15.96H51.1296C52.4256 15.96 53.7856 15.416 53.7856 13.928ZM62.3014 20.92L61.0214 21.128L60.9094 20.248H60.8934C60.3494 20.76 59.7574 21.192 58.8614 21.192C57.6134 21.192 56.8774 20.44 56.8774 19.256C56.8774 17.912 57.9334 17.256 59.4534 17.096L60.7974 16.952V16.28C60.7974 15.24 60.4774 14.504 59.2454 14.504C58.6214 14.504 58.1574 14.696 57.6934 14.936L57.2294 13.992C57.9014 13.592 58.5894 13.336 59.5494 13.336C61.0534 13.336 62.0614 14.216 62.0614 15.704V19.272L62.3014 20.92ZM60.7974 19.448V17.816L59.6294 17.976C58.6694 18.104 58.1414 18.408 58.1414 19.096C58.1414 19.72 58.5254 20.136 59.1654 20.136C59.9174 20.136 60.3814 19.816 60.7974 19.448ZM70.2554 20.952L69.0234 21.128L68.9114 20.376H68.8954C68.4154 20.776 67.7594 21.176 66.8794 21.176C65.2314 21.176 64.1274 19.816 64.1274 17.592C64.1274 15.016 65.4554 13.432 67.7274 13.432C68.3354 13.432 68.7674 13.544 68.7674 13.544V11.928L68.5274 10.28L70.0314 10.072V19.304L70.2554 20.952ZM67.3274 20.056C67.9514 20.056 68.3834 19.8 68.7674 19.496V14.712C68.7674 14.712 68.3514 14.504 67.6154 14.504C66.1594 14.504 65.4394 15.736 65.4394 17.192C65.4394 19 65.9194 20.056 67.3274 20.056ZM73.9045 21H72.6245V15.24L72.4005 13.592L73.9045 13.384V21ZM74.1605 11.56C74.1605 12.072 73.7605 12.456 73.2805 12.456C72.7845 12.456 72.3685 12.072 72.3685 11.56C72.3685 11.048 72.7845 10.648 73.2805 10.648C73.7605 10.648 74.1605 11.048 74.1605 11.56ZM82.3555 17.256C82.3555 19.448 81.3155 21.176 79.1555 21.176C76.7875 21.176 75.9555 19.496 75.9555 17.256C75.9555 15.064 76.9955 13.336 79.1555 13.336C81.5235 13.336 82.3555 15.016 82.3555 17.256ZM81.0435 17.288C81.0435 15.432 80.4195 14.456 79.1555 14.456C77.9235 14.456 77.2675 15.32 77.2675 17.208C77.2675 19.064 77.8915 20.056 79.1555 20.056C80.3875 20.056 81.0435 19.176 81.0435 17.288ZM93.6688 16.808C93.6688 19.304 92.3728 21.16 90.0048 21.16C89.1728 21.16 88.2608 21.016 87.7168 20.808V11.928L87.4928 10.28L88.9968 10.072V14.088H89.0128C89.4928 13.688 90.1328 13.336 90.9808 13.336C92.7408 13.336 93.6688 14.6 93.6688 16.808ZM92.3728 17.272C92.3728 15.624 91.9888 14.504 90.5328 14.504C89.8608 14.504 89.3808 14.776 88.9968 15.112V19.928C89.3168 20.008 89.6368 20.056 90.1168 20.056C91.6048 20.056 92.3728 18.792 92.3728 17.272ZM101.622 20.92L100.358 21.128L100.23 20.264H100.214C99.6535 20.792 98.9175 21.176 97.9895 21.176C96.7255 21.176 95.7175 20.36 95.7175 18.824V15.24L95.4935 13.592L96.9975 13.384V18.376C96.9975 19.48 97.4135 20.056 98.4215 20.056C99.1415 20.056 99.6535 19.752 100.118 19.32V15.24L99.8935 13.592L101.398 13.384V19.272L101.622 20.92ZM107.696 20.696C107.232 20.952 106.8 21.16 105.984 21.16C104.832 21.16 104.096 20.408 104.096 19.128V14.552H102.992V13.704L104.096 13.48V12.232L105.36 12.072V13.512H107.456V14.552H105.36V18.696C105.36 19.704 105.616 20.024 106.352 20.024C106.752 20.024 107.056 19.864 107.28 19.72L107.696 20.696ZM113.149 20.696C112.685 20.952 112.253 21.16 111.437 21.16C110.285 21.16 109.549 20.408 109.549 19.128V14.552H108.445V13.704L109.549 13.48V12.232L110.813 12.072V13.512H112.909V14.552H110.813V18.696C110.813 19.704 111.069 20.024 111.805 20.024C112.205 20.024 112.509 19.864 112.733 19.72L113.149 20.696ZM120.527 17.256C120.527 19.448 119.487 21.176 117.327 21.176C114.959 21.176 114.127 19.496 114.127 17.256C114.127 15.064 115.167 13.336 117.327 13.336C119.695 13.336 120.527 15.016 120.527 17.256ZM119.215 17.288C119.215 15.432 118.591 14.456 117.327 14.456C116.095 14.456 115.439 15.32 115.439 17.208C115.439 19.064 116.063 20.056 117.327 20.056C118.559 20.056 119.215 19.176 119.215 17.288ZM128.241 21H126.961V16.136C126.961 15.032 126.545 14.472 125.537 14.472C124.817 14.472 124.305 14.776 123.841 15.192V21H122.561V15.24L122.337 13.592L123.601 13.384L123.729 14.264H123.745C124.305 13.72 125.041 13.336 125.969 13.336C127.233 13.336 128.241 14.152 128.241 15.688V21ZM135.372 21H134.092V11.928L133.868 10.28L135.372 10.072V21ZM142.817 20.92L141.537 21.128L141.425 20.248H141.409C140.865 20.76 140.273 21.192 139.377 21.192C138.129 21.192 137.393 20.44 137.393 19.256C137.393 17.912 138.449 17.256 139.969 17.096L141.313 16.952V16.28C141.313 15.24 140.993 14.504 139.761 14.504C139.137 14.504 138.673 14.696 138.209 14.936L137.745 13.992C138.417 13.592 139.105 13.336 140.065 13.336C141.569 13.336 142.577 14.216 142.577 15.704V19.272L142.817 20.92ZM141.313 19.448V17.816L140.145 17.976C139.185 18.104 138.657 18.408 138.657 19.096C138.657 19.72 139.041 20.136 139.681 20.136C140.433 20.136 140.897 19.816 141.313 19.448ZM151.075 16.808C151.075 19.304 149.779 21.16 147.411 21.16C146.579 21.16 145.667 21.016 145.123 20.808V11.928L144.899 10.28L146.403 10.072V14.088H146.419C146.899 13.688 147.539 13.336 148.387 13.336C150.147 13.336 151.075 14.6 151.075 16.808ZM149.779 17.272C149.779 15.624 149.395 14.504 147.939 14.504C147.267 14.504 146.787 14.776 146.403 15.112V19.928C146.723 20.008 147.043 20.056 147.523 20.056C149.011 20.056 149.779 18.792 149.779 17.272ZM158.324 20.6C157.604 21 156.868 21.176 155.956 21.176C153.748 21.176 152.612 19.688 152.612 17.208C152.612 14.888 153.828 13.336 155.716 13.336C157.524 13.336 158.26 14.536 158.26 16.184V17.08H153.86C153.876 19.08 154.596 20.04 156.228 20.04C156.852 20.04 157.332 19.864 157.876 19.592L158.324 20.6ZM157.06 16.184C157.06 15.064 156.644 14.36 155.652 14.36C154.692 14.36 154.084 15.112 153.924 16.184H157.06ZM161.481 21H160.201V11.928L159.977 10.28L161.481 10.072V21Z" fill="#00157E"/>
</svg>
