<svg width="256" height="572" viewBox="0 0 256 572" fill="none" xmlns="http://www.w3.org/2000/svg">
<rect width="256" height="572" fill="white"/>
<g clip-path="url(#clip0_384_8479)">
<path d="M42.981 39.04C42.981 42.3 41.201 44.28 38.221 44.28C35.001 44.28 33.341 42.58 33.341 38.98V31.96H36.061V38.9C36.061 40.92 36.761 41.68 38.221 41.68C39.641 41.68 40.361 40.68 40.361 39.1V31.96H42.981V39.04ZM54.7452 44H45.0052V42.14L50.8852 34.22V34.2H45.5252V31.96H54.2852V33.8L48.5652 41.76V41.78H54.7452V44ZM69.4396 40.24C69.4396 42.7 67.4396 44 63.8796 44H60.9396V32.06C60.9396 32.06 62.6396 31.84 64.3196 31.84C67.2396 31.84 68.5996 32.8 68.5996 34.62C68.5996 36.14 67.6196 36.88 66.3596 37.36V37.38C68.1996 37.58 69.4396 38.58 69.4396 40.24ZM66.7196 40.3C66.7196 39.16 65.8596 38.7 64.2396 38.7H63.5196V41.86H64.6996C65.9196 41.86 66.7196 41.32 66.7196 40.3ZM65.8796 35.22C65.8796 34.2 65.2196 33.82 64.1396 33.82C63.7796 33.82 63.5196 33.86 63.5196 33.86V36.88C64.7796 36.88 65.8796 36.52 65.8796 35.22ZM78.0311 43.86L75.5911 44.18L75.4711 43.14H75.4511C74.8911 43.64 74.1511 44.24 73.0711 44.24C71.5911 44.24 70.6111 43.32 70.6111 41.74C70.6111 39.94 71.9511 39.12 73.8911 38.92L75.2111 38.78V38.14C75.2111 37.18 74.8111 36.52 73.6111 36.52C72.8711 36.52 72.3711 36.74 71.8311 37.04L70.9111 35.32C71.8511 34.7 72.7511 34.3 74.1911 34.3C76.4911 34.3 77.7111 35.54 77.7111 37.56V41.52L78.0311 43.86ZM75.2111 41.96V40.22L74.3511 40.32C73.5711 40.42 73.0711 40.74 73.0711 41.4C73.0711 41.98 73.4111 42.42 74.0111 42.42C74.5911 42.42 74.9311 42.2 75.2111 41.96ZM88.2532 44H85.7132V38C85.7132 36.98 85.2932 36.52 84.3932 36.52C83.7332 36.52 83.1732 36.84 82.8132 37.2V44H80.2732V37L79.9532 34.66L82.3932 34.34L82.5132 35.38H82.5332C83.0932 34.82 84.0332 34.3 85.2932 34.3C86.9332 34.3 88.2532 35.24 88.2532 37.38V44ZM93.2614 44H90.7214V32.98L90.4014 30.64L93.2614 30.32V44ZM99.6414 43.62L96.9214 44.38L93.3014 39.14L96.4414 34.54H99.2014L96.1814 38.82L99.6414 43.62Z" fill="#00157E"/>
</g>
<path d="M24 84C24 79.5817 27.5817 76 32 76H224C228.418 76 232 79.5817 232 84V108C232 112.418 228.418 116 224 116H32C27.5817 116 24 112.418 24 108V84Z" fill="#00157E" fill-opacity="0.05"/>
<path d="M39 93L48 86L57 93V104C57 104.53 56.7893 105.039 56.4142 105.414C56.0391 105.789 55.5304 106 55 106H41C40.4696 106 39.9609 105.789 39.5858 105.414C39.2107 105.039 39 104.53 39 104V93Z" stroke="#00157E" stroke-width="2" stroke-linecap="round" stroke-linejoin="round"/>
<path d="M45 106V96H51V106" stroke="#00157E" stroke-width="2" stroke-linecap="round" stroke-linejoin="round"/>
<path d="M85.9575 96.184C85.9575 98.712 84.8215 101.176 81.6055 101.176C78.3255 101.176 77.2055 98.744 77.2055 96.184C77.2055 93.64 78.3735 91.192 81.6055 91.192C84.8855 91.192 85.9575 93.608 85.9575 96.184ZM84.5495 96.184C84.5495 93.832 83.6375 92.328 81.6055 92.328C79.5895 92.328 78.6455 93.896 78.6455 96.184C78.6455 98.52 79.5575 100.04 81.6055 100.04C83.5895 100.04 84.5495 98.472 84.5495 96.184ZM93.4548 93.512L90.7508 100.984L89.4868 101.032L87.0228 93.624L88.3028 93.304L90.1748 99.336H90.1908L92.1748 93.512H93.4548ZM100.089 100.6C99.3694 101 98.6334 101.176 97.7214 101.176C95.5134 101.176 94.3774 99.688 94.3774 97.208C94.3774 94.888 95.5934 93.336 97.4814 93.336C99.2894 93.336 100.025 94.536 100.025 96.184V97.08H95.6254C95.6414 99.08 96.3614 100.04 97.9934 100.04C98.6174 100.04 99.0974 99.864 99.6414 99.592L100.089 100.6ZM98.8254 96.184C98.8254 95.064 98.4094 94.36 97.4174 94.36C96.4574 94.36 95.8494 95.112 95.6894 96.184H98.8254ZM105.359 94.616C104.495 94.616 103.855 94.84 103.279 95.368V101H101.999V95.24L101.775 93.592L103.039 93.384L103.167 94.408H103.183C103.695 93.832 104.367 93.352 105.359 93.352V94.616ZM112.611 93.512L109.907 100.984L108.643 101.032L106.179 93.624L107.459 93.304L109.331 99.336H109.347L111.331 93.512H112.611ZM115.514 101H114.234V95.24L114.01 93.592L115.514 93.384V101ZM115.77 91.56C115.77 92.072 115.37 92.456 114.89 92.456C114.394 92.456 113.978 92.072 113.978 91.56C113.978 91.048 114.394 90.648 114.89 90.648C115.37 90.648 115.77 91.048 115.77 91.56ZM123.277 100.6C122.557 101 121.821 101.176 120.909 101.176C118.701 101.176 117.565 99.688 117.565 97.208C117.565 94.888 118.781 93.336 120.669 93.336C122.477 93.336 123.213 94.536 123.213 96.184V97.08H118.813C118.829 99.08 119.549 100.04 121.181 100.04C121.805 100.04 122.285 99.864 122.829 99.592L123.277 100.6ZM122.013 96.184C122.013 95.064 121.597 94.36 120.605 94.36C119.645 94.36 119.037 95.112 118.877 96.184H122.013ZM134.162 93.512L132.098 100.968L130.914 101.032L129.09 95.352H129.074L127.234 100.984L126.05 101.032L124.178 93.592L125.394 93.288L126.738 99.128H126.754L128.498 93.512H129.746L131.506 99.128H131.522L132.914 93.512H134.162Z" fill="#00157E"/>
<path d="M43 144L38 149L43 154M38 149H50" stroke="#00157E" stroke-width="2" stroke-linecap="round" stroke-linejoin="round"/>
<path d="M53 134L58 139L53 144M58 139H46" stroke="#00157E" stroke-width="2" stroke-linecap="round" stroke-linejoin="round"/>
<path d="M82.9425 141.752C82.9425 144.008 81.1025 145.144 78.9585 145.144H78.7185V149H77.3905V139.448C77.3905 139.448 78.5905 139.272 79.8545 139.272C81.7265 139.272 82.9425 140.168 82.9425 141.752ZM81.6305 141.992C81.6305 140.808 80.8465 140.28 79.6305 140.28C79.1185 140.28 78.7185 140.344 78.7185 140.344V144.12H78.9265C80.3505 144.12 81.6305 143.48 81.6305 141.992ZM89.3483 148.92L88.0683 149.128L87.9563 148.248H87.9403C87.3963 148.76 86.8043 149.192 85.9083 149.192C84.6603 149.192 83.9243 148.44 83.9243 147.256C83.9243 145.912 84.9803 145.256 86.5003 145.096L87.8443 144.952V144.28C87.8443 143.24 87.5243 142.504 86.2923 142.504C85.6683 142.504 85.2043 142.696 84.7403 142.936L84.2763 141.992C84.9483 141.592 85.6363 141.336 86.5963 141.336C88.1003 141.336 89.1083 142.216 89.1083 143.704V147.272L89.3483 148.92ZM87.8443 147.448V145.816L86.6763 145.976C85.7163 146.104 85.1883 146.408 85.1883 147.096C85.1883 147.72 85.5723 148.136 86.2123 148.136C86.9643 148.136 87.4283 147.816 87.8443 147.448ZM96.9384 141.512L94.4424 148.312C93.6424 150.52 92.5704 151.848 89.9624 152.376L89.7224 151.336C91.6264 150.952 92.6344 149.8 93.1304 148.552L90.4424 141.624L91.7064 141.288L93.7704 146.856H93.7864L95.6744 141.512H96.9384ZM108.547 149H107.283V144.136C107.283 143.032 106.867 142.472 105.843 142.472C105.123 142.472 104.515 142.824 104.115 143.224C104.115 143.224 104.163 143.496 104.163 143.784V149H102.883V144.136C102.883 143.032 102.467 142.472 101.459 142.472C100.739 142.472 100.227 142.76 99.7631 143.192V149H98.4831V143.24L98.2591 141.592L99.5231 141.384L99.6511 142.264H99.6671C100.227 141.72 100.963 141.336 101.891 141.336C102.755 141.336 103.475 141.72 103.859 142.408H103.875C104.467 141.816 105.235 141.336 106.291 141.336C107.571 141.336 108.547 142.152 108.547 143.688V149ZM116.293 148.6C115.573 149 114.837 149.176 113.924 149.176C111.717 149.176 110.581 147.688 110.581 145.208C110.581 142.888 111.797 141.336 113.685 141.336C115.493 141.336 116.229 142.536 116.229 144.184V145.08H111.829C111.845 147.08 112.565 148.04 114.197 148.04C114.821 148.04 115.301 147.864 115.845 147.592L116.293 148.6ZM115.029 144.184C115.029 143.064 114.613 142.36 113.621 142.36C112.661 142.36 112.053 143.112 111.893 144.184H115.029ZM123.882 149H122.602V144.136C122.602 143.032 122.186 142.472 121.178 142.472C120.458 142.472 119.946 142.776 119.482 143.192V149H118.202V143.24L117.978 141.592L119.242 141.384L119.37 142.264H119.386C119.946 141.72 120.682 141.336 121.61 141.336C122.874 141.336 123.882 142.152 123.882 143.688V149ZM130.149 148.696C129.685 148.952 129.253 149.16 128.437 149.16C127.285 149.16 126.549 148.408 126.549 147.128V142.552H125.445V141.704L126.549 141.48V140.232L127.813 140.072V141.512H129.909V142.552H127.813V146.696C127.813 147.704 128.069 148.024 128.805 148.024C129.205 148.024 129.509 147.864 129.733 147.72L130.149 148.696ZM136.194 146.824C136.194 148.184 135.122 149.16 133.522 149.16C132.754 149.16 131.986 149.048 131.378 148.76L131.762 147.64C132.29 147.88 132.882 148.072 133.458 148.072C134.322 148.072 134.898 147.736 134.898 147.032C134.898 146.488 134.61 146.264 134.114 146.04L132.722 145.4C132.226 145.176 131.33 144.728 131.33 143.432C131.33 142.008 132.578 141.336 133.938 141.336C134.754 141.336 135.33 141.464 135.97 141.736L135.538 142.84C135.026 142.616 134.53 142.456 133.922 142.456C133.106 142.456 132.578 142.712 132.578 143.352C132.578 143.912 133.058 144.136 133.362 144.28L134.786 144.952C135.778 145.416 136.194 146.008 136.194 146.824Z" fill="#00157E"/>
<path d="M56 201V199C56 197.939 55.5786 196.922 54.8284 196.172C54.0783 195.421 53.0609 195 52 195H44C42.9391 195 41.9217 195.421 41.1716 196.172C40.4214 196.922 40 197.939 40 199V201" stroke="#00157E" stroke-width="2" stroke-linecap="round" stroke-linejoin="round"/>
<path d="M48 191C50.2091 191 52 189.209 52 187C52 184.791 50.2091 183 48 183C45.7909 183 44 184.791 44 187C44 189.209 45.7909 191 48 191Z" stroke="#00157E" stroke-width="2" stroke-linecap="round" stroke-linejoin="round"/>
<path d="M83.0909 189.752C83.0909 192.008 81.2509 193.144 79.1069 193.144H78.8669V197H77.5389V187.448C77.5389 187.448 78.7389 187.272 80.0029 187.272C81.8749 187.272 83.0909 188.168 83.0909 189.752ZM81.7789 189.992C81.7789 188.808 80.9949 188.28 79.7789 188.28C79.2669 188.28 78.8669 188.344 78.8669 188.344V192.12H79.0749C80.4989 192.12 81.7789 191.48 81.7789 189.992ZM88.1791 190.616C87.3151 190.616 86.6751 190.84 86.0991 191.368V197H84.8191V191.24L84.5951 189.592L85.8591 189.384L85.9871 190.408H86.0031C86.5151 189.832 87.1871 189.352 88.1791 189.352V190.616ZM95.4414 193.256C95.4414 195.448 94.4014 197.176 92.2414 197.176C89.8734 197.176 89.0414 195.496 89.0414 193.256C89.0414 191.064 90.0814 189.336 92.2414 189.336C94.6094 189.336 95.4414 191.016 95.4414 193.256ZM94.1294 193.288C94.1294 191.432 93.5054 190.456 92.2414 190.456C91.0094 190.456 90.3534 191.32 90.3534 193.208C90.3534 195.064 90.9774 196.056 92.2414 196.056C93.4734 196.056 94.1294 195.176 94.1294 193.288ZM102.613 197H101.349V190.552H98.8052V197H97.5412V190.552H96.4372V189.704L97.5412 189.48V188.888C97.5412 187.272 98.5652 186.088 100.389 186.088C101.221 186.088 101.749 186.344 102.133 186.552L101.669 187.576C101.477 187.448 100.997 187.176 100.389 187.176C99.2212 187.176 98.8052 187.832 98.8052 188.744V189.512H102.613V197ZM106.426 197H105.146V187.928L104.922 186.28L106.426 186.072V197ZM114.16 196.6C113.44 197 112.704 197.176 111.792 197.176C109.584 197.176 108.448 195.688 108.448 193.208C108.448 190.888 109.664 189.336 111.552 189.336C113.36 189.336 114.096 190.536 114.096 192.184V193.08H109.696C109.712 195.08 110.432 196.04 112.064 196.04C112.688 196.04 113.168 195.864 113.712 195.592L114.16 196.6ZM112.896 192.184C112.896 191.064 112.48 190.36 111.488 190.36C110.528 190.36 109.92 191.112 109.76 192.184H112.896Z" fill="#00157E"/>
<path d="M32 452C32 449.791 33.7909 448 36 448H220C222.209 448 224 449.791 224 452V480C224 482.209 222.209 484 220 484H36C33.7909 484 32 482.209 32 480V452Z" fill="#00157E" fill-opacity="0.05"/>
<path d="M38 450.5H120C121.933 450.5 123.5 452.067 123.5 454V478C123.5 479.933 121.933 481.5 120 481.5H38C36.067 481.5 34.5 479.933 34.5 478V454C34.5 452.067 36.067 450.5 38 450.5Z" fill="#00157E"/>
<path d="M38 450.5H120C121.933 450.5 123.5 452.067 123.5 454V478C123.5 479.933 121.933 481.5 120 481.5H38C36.067 481.5 34.5 479.933 34.5 478V454C34.5 452.067 36.067 450.5 38 450.5Z" stroke="#00157E"/>
<path d="M70.6537 470H66.2577V461.572H67.4337V469.006H70.6537V470ZM73.0239 470H71.9039V464.96L71.7079 463.518L73.0239 463.336V470ZM73.2479 461.74C73.2479 462.188 72.8979 462.524 72.4779 462.524C72.0439 462.524 71.6799 462.188 71.6799 461.74C71.6799 461.292 72.0439 460.942 72.4779 460.942C72.8979 460.942 73.2479 461.292 73.2479 461.74ZM80.6145 464.274H79.2985C79.4945 464.61 79.6065 465.002 79.6065 465.478C79.6065 466.808 78.6405 467.704 77.2965 467.704C77.0305 467.704 76.7785 467.662 76.5545 467.606C76.5545 467.606 76.1065 467.858 76.1065 468.362C76.1065 468.796 76.4285 468.88 76.8765 468.88H78.7525C79.9005 468.88 80.5725 469.23 80.5725 470.252C80.5725 471.54 79.2565 472.996 76.8625 472.996C75.4905 472.996 74.6505 472.324 74.6505 471.176C74.6505 470.098 75.5325 469.566 75.5325 469.566C75.2525 469.384 75.0705 469.104 75.0705 468.642C75.0705 467.83 75.7705 467.424 75.9105 467.354C75.2945 466.976 74.9585 466.332 74.9585 465.478C74.9585 464.148 75.9385 463.266 77.2965 463.266C77.8005 463.266 78.2625 463.378 78.6265 463.602L80.6145 463.294V464.274ZM79.5925 470.42C79.5925 469.944 79.1865 469.846 78.5005 469.846H76.7365C76.5405 469.846 76.3585 469.832 76.1765 469.804C76.1765 469.804 75.6445 470.224 75.6445 470.924C75.6445 471.68 76.1065 472.086 77.1145 472.086C78.7245 472.086 79.5925 471.134 79.5925 470.42ZM78.5565 465.478C78.5565 464.568 78.0525 464.106 77.2965 464.106C76.5685 464.106 76.0085 464.596 76.0085 465.478C76.0085 466.402 76.5265 466.864 77.2965 466.864C78.0105 466.864 78.5565 466.374 78.5565 465.478ZM87.0304 470H85.9244V465.744C85.9244 464.792 85.5464 464.302 84.6504 464.302C84.0064 464.302 83.5724 464.582 83.1944 464.918V470H82.0744V462.062L81.8784 460.62L83.1944 460.438V464.022H83.2084C83.6424 463.644 84.2444 463.294 85.0564 463.294C86.1764 463.294 87.0304 463.994 87.0304 465.352V470ZM92.5288 469.734C92.1228 469.958 91.7448 470.14 91.0308 470.14C90.0228 470.14 89.3788 469.482 89.3788 468.362V464.358H88.4128V463.616L89.3788 463.42V462.328L90.4848 462.188V463.448H92.3188V464.358H90.4848V467.984C90.4848 468.866 90.7088 469.146 91.3528 469.146C91.7028 469.146 91.9688 469.006 92.1648 468.88L92.5288 469.734Z" fill="white"/>
<path d="M171.98 465.254C171.98 468.334 170.132 470 167.136 470H165.372V461.628C165.372 461.628 166.534 461.488 167.78 461.488C170.384 461.488 171.98 462.846 171.98 465.254ZM170.762 465.422C170.762 463.434 169.418 462.482 167.584 462.482C166.996 462.482 166.548 462.51 166.548 462.51V468.95H167.36C169.362 468.95 170.762 467.76 170.762 465.422ZM178.064 469.93L176.944 470.112L176.846 469.342H176.832C176.356 469.79 175.838 470.168 175.054 470.168C173.962 470.168 173.318 469.51 173.318 468.474C173.318 467.298 174.242 466.724 175.572 466.584L176.748 466.458V465.87C176.748 464.96 176.468 464.316 175.39 464.316C174.844 464.316 174.438 464.484 174.032 464.694L173.626 463.868C174.214 463.518 174.816 463.294 175.656 463.294C176.972 463.294 177.854 464.064 177.854 465.366V468.488L178.064 469.93ZM176.748 468.642V467.214L175.726 467.354C174.886 467.466 174.424 467.732 174.424 468.334C174.424 468.88 174.76 469.244 175.32 469.244C175.978 469.244 176.384 468.964 176.748 468.642ZM183.049 464.414C182.293 464.414 181.733 464.61 181.229 465.072V470H180.109V464.96L179.913 463.518L181.019 463.336L181.131 464.232H181.145C181.593 463.728 182.181 463.308 183.049 463.308V464.414ZM185.508 470H184.388V462.062L184.192 460.62L185.508 460.438V470ZM189.638 469.804L188.518 470.21L185.536 466.444L187.902 463.448H189.176L186.852 466.346L189.638 469.804Z" fill="#00157E"/>
<path d="M36 500.5H220C221.933 500.5 223.5 502.067 223.5 504V536C223.5 537.933 221.933 539.5 220 539.5H36C34.067 539.5 32.5 537.933 32.5 536V504C32.5 502.067 34.067 500.5 36 500.5Z" fill="#00157E"/>
<path d="M36 500.5H220C221.933 500.5 223.5 502.067 223.5 504V536C223.5 537.933 221.933 539.5 220 539.5H36C34.067 539.5 32.5 537.933 32.5 536V504C32.5 502.067 34.067 500.5 36 500.5Z" stroke="#00157E"/>
<path d="M95 529H91C90.4696 529 89.9609 528.789 89.5858 528.414C89.2107 528.039 89 527.53 89 527V513C89 512.47 89.2107 511.961 89.5858 511.586C89.9609 511.211 90.4696 511 91 511H95" stroke="white" stroke-width="2" stroke-linecap="round" stroke-linejoin="round"/>
<path d="M102 525L107 520L102 515" stroke="white" stroke-width="2" stroke-linecap="round" stroke-linejoin="round"/>
<path d="M107 520H95" stroke="white" stroke-width="2" stroke-linecap="round" stroke-linejoin="round"/>
<path d="M132.555 525H127.531V515.368H128.875V523.864H132.555V525ZM139.84 521.256C139.84 523.448 138.8 525.176 136.64 525.176C134.272 525.176 133.44 523.496 133.44 521.256C133.44 519.064 134.48 517.336 136.64 517.336C139.008 517.336 139.84 519.016 139.84 521.256ZM138.528 521.288C138.528 519.432 137.904 518.456 136.64 518.456C135.408 518.456 134.752 519.32 134.752 521.208C134.752 523.064 135.376 524.056 136.64 524.056C137.872 524.056 138.528 523.176 138.528 521.288ZM147.986 518.456H146.482C146.706 518.84 146.834 519.288 146.834 519.832C146.834 521.352 145.73 522.376 144.194 522.376C143.89 522.376 143.602 522.328 143.346 522.264C143.346 522.264 142.834 522.552 142.834 523.128C142.834 523.624 143.202 523.72 143.714 523.72H145.858C147.17 523.72 147.938 524.12 147.938 525.288C147.938 526.76 146.434 528.424 143.698 528.424C142.13 528.424 141.17 527.656 141.17 526.344C141.17 525.112 142.178 524.504 142.178 524.504C141.858 524.296 141.65 523.976 141.65 523.448C141.65 522.52 142.45 522.056 142.61 521.976C141.906 521.544 141.522 520.808 141.522 519.832C141.522 518.312 142.642 517.304 144.194 517.304C144.77 517.304 145.298 517.432 145.714 517.688L147.986 517.336V518.456ZM146.818 525.48C146.818 524.936 146.354 524.824 145.57 524.824H143.554C143.33 524.824 143.122 524.808 142.914 524.776C142.914 524.776 142.306 525.256 142.306 526.056C142.306 526.92 142.834 527.384 143.986 527.384C145.826 527.384 146.818 526.296 146.818 525.48ZM145.634 519.832C145.634 518.792 145.058 518.264 144.194 518.264C143.362 518.264 142.722 518.824 142.722 519.832C142.722 520.888 143.314 521.416 144.194 521.416C145.01 521.416 145.634 520.856 145.634 519.832ZM155.356 521.256C155.356 523.448 154.316 525.176 152.156 525.176C149.788 525.176 148.956 523.496 148.956 521.256C148.956 519.064 149.996 517.336 152.156 517.336C154.524 517.336 155.356 519.016 155.356 521.256ZM154.044 521.288C154.044 519.432 153.42 518.456 152.156 518.456C150.924 518.456 150.268 519.32 150.268 521.208C150.268 523.064 150.892 524.056 152.156 524.056C153.388 524.056 154.044 523.176 154.044 521.288ZM163.293 524.92L162.029 525.128L161.901 524.264H161.885C161.325 524.792 160.589 525.176 159.661 525.176C158.397 525.176 157.389 524.36 157.389 522.824V519.24L157.165 517.592L158.669 517.384V522.376C158.669 523.48 159.085 524.056 160.093 524.056C160.813 524.056 161.325 523.752 161.789 523.32V519.24L161.565 517.592L163.069 517.384V523.272L163.293 524.92ZM169.368 524.696C168.904 524.952 168.472 525.16 167.656 525.16C166.504 525.16 165.768 524.408 165.768 523.128V518.552H164.664V517.704L165.768 517.48V516.232L167.032 516.072V517.512H169.128V518.552H167.032V522.696C167.032 523.704 167.288 524.024 168.024 524.024C168.424 524.024 168.728 523.864 168.952 523.72L169.368 524.696Z" fill="white"/>
<defs>
<clipPath id="clip0_384_8479">
<rect width="68.001" height="12" fill="white" transform="translate(32 32)"/>
</clipPath>
</defs>
</svg>
