<svg width="555" height="256" viewBox="0 0 555 256" fill="none" xmlns="http://www.w3.org/2000/svg">
<path d="M24.33 11.787C24.33 13.999 23.336 16.155 20.522 16.155C17.652 16.155 16.672 14.027 16.672 11.787C16.672 9.56098 17.694 7.41898 20.522 7.41898C23.392 7.41898 24.33 9.53298 24.33 11.787ZM23.098 11.787C23.098 9.72898 22.3 8.41298 20.522 8.41298C18.758 8.41298 17.932 9.78498 17.932 11.787C17.932 13.831 18.73 15.161 20.522 15.161C22.258 15.161 23.098 13.789 23.098 11.787ZM32.6821 6.57898L32.4301 7.53098C32.2341 7.46098 32.0521 7.41898 31.7721 7.41898C31.1421 7.41898 30.6801 7.82498 30.6801 8.65098V9.44898H32.4861V10.359H30.6801V16.001H29.5741V10.359H27.3481V16.001H26.2421V10.359H25.2761V9.61698L26.2421 9.42098V8.67898C26.2421 7.26498 27.1381 6.45298 28.3701 6.45298C28.6501 6.45298 28.8881 6.49498 29.1261 6.57898L28.8601 7.51698C28.7201 7.46098 28.5521 7.41898 28.3001 7.41898C27.7121 7.41898 27.3481 7.72698 27.3481 8.56698V9.44898H29.5741V8.73498C29.5741 7.32098 30.4981 6.45298 31.8141 6.45298C32.1501 6.45298 32.3881 6.50898 32.6821 6.57898ZM38.0489 15.651C37.4189 16.001 36.7749 16.155 35.9769 16.155C34.0449 16.155 33.0509 14.853 33.0509 12.683C33.0509 10.653 34.1149 9.29498 35.7669 9.29498C37.3489 9.29498 37.9929 10.345 37.9929 11.787V12.571H34.1429C34.1569 14.321 34.7869 15.161 36.2149 15.161C36.7609 15.161 37.1809 15.007 37.6569 14.769L38.0489 15.651ZM36.9429 11.787C36.9429 10.807 36.5789 10.191 35.7109 10.191C34.8709 10.191 34.3389 10.849 34.1989 11.787H36.9429ZM42.6596 10.415C41.9036 10.415 41.3436 10.611 40.8396 11.073V16.001H39.7196V10.961L39.5236 9.51898L40.6296 9.33698L40.7416 10.233H40.7556C41.2036 9.72898 41.7916 9.30898 42.6596 9.30898V10.415ZM47.8203 14.097C47.8203 15.287 46.8823 16.141 45.4823 16.141C44.8103 16.141 44.1383 16.043 43.6063 15.791L43.9423 14.811C44.4043 15.021 44.9223 15.189 45.4263 15.189C46.1823 15.189 46.6863 14.895 46.6863 14.279C46.6863 13.803 46.4343 13.607 46.0003 13.411L44.7823 12.851C44.3483 12.655 43.5643 12.263 43.5643 11.129C43.5643 9.88298 44.6562 9.29498 45.8463 9.29498C46.5603 9.29498 47.0643 9.40698 47.6243 9.64498L47.2463 10.611C46.7983 10.415 46.3643 10.275 45.8323 10.275C45.1183 10.275 44.6562 10.499 44.6562 11.059C44.6562 11.549 45.0763 11.745 45.3423 11.871L46.5883 12.459C47.4563 12.865 47.8203 13.383 47.8203 14.097Z" fill="#00157E" fill-opacity="0.7"/>
<path d="M0 36.001C0 31.5827 3.58172 28.001 8 28.001H546.667C551.085 28.001 554.667 31.5827 554.667 36.001V248.005C554.667 252.423 551.085 256.005 546.667 256.005H8C3.58172 256.005 0 252.423 0 248.005V36.001Z" fill="white"/>
<path d="M8 28.501H546.667C550.809 28.5011 554.167 31.8589 554.167 36.001V248.005C554.167 252.147 550.809 255.505 546.667 255.505H8C3.85786 255.505 0.5 252.147 0.5 248.005V36.001C0.500001 31.8588 3.85786 28.501 8 28.501Z" stroke="#00157E" stroke-opacity="0.2"/>
<path d="M28 66.002C28 66.002 36 62.002 36 56.002V49.002L28 46.002L20 49.002V56.002C20 62.002 28 66.002 28 66.002Z" stroke="#00157E" stroke-width="2" stroke-linecap="round" stroke-linejoin="round"/>
<path d="M63.154 52.362L62.006 52.684L61.11 49.772H58.366L57.512 52.502H56.28L59.206 44.074H60.41L63.154 52.362ZM60.858 48.932L59.766 45.292H59.752L58.618 48.932H60.858ZM68.7582 46.076L68.4082 47.084C68.0442 46.944 67.6382 46.818 67.1762 46.818C65.9442 46.818 65.2022 47.742 65.2022 49.128C65.2022 50.878 65.8882 51.676 67.1482 51.676C67.5962 51.676 67.9602 51.522 68.3242 51.368L68.7022 52.278C68.1562 52.53 67.5542 52.656 66.9242 52.656C65.0482 52.656 64.0822 51.312 64.0822 49.31C64.0822 46.902 65.5662 45.796 67.2322 45.796C67.8062 45.796 68.2962 45.894 68.7582 46.076ZM74.2816 46.076L73.9316 47.084C73.5676 46.944 73.1616 46.818 72.6996 46.818C71.4676 46.818 70.7256 47.742 70.7256 49.128C70.7256 50.878 71.4116 51.676 72.6716 51.676C73.1196 51.676 73.4836 51.522 73.8476 51.368L74.2256 52.278C73.6796 52.53 73.0776 52.656 72.4476 52.656C70.5716 52.656 69.6056 51.312 69.6056 49.31C69.6056 46.902 71.0896 45.796 72.7556 45.796C73.3296 45.796 73.8196 45.894 74.2816 46.076ZM80.729 49.226C80.729 51.144 79.819 52.656 77.929 52.656C75.857 52.656 75.129 51.186 75.129 49.226C75.129 47.308 76.039 45.796 77.929 45.796C80.001 45.796 80.729 47.266 80.729 49.226ZM79.581 49.254C79.581 47.63 79.035 46.776 77.929 46.776C76.851 46.776 76.277 47.532 76.277 49.184C76.277 50.808 76.823 51.676 77.929 51.676C79.007 51.676 79.581 50.906 79.581 49.254ZM87.6747 52.432L86.5687 52.614L86.4567 51.858H86.4427C85.9527 52.32 85.3087 52.656 84.4967 52.656C83.3907 52.656 82.5087 51.942 82.5087 50.598V47.462L82.3127 46.02L83.6287 45.838V50.206C83.6287 51.172 83.9927 51.676 84.8747 51.676C85.5047 51.676 85.9527 51.41 86.3587 51.032V47.462L86.1627 46.02L87.4787 45.838V50.99L87.6747 52.432ZM94.6838 52.502H93.5638V48.246C93.5638 47.28 93.1998 46.79 92.3178 46.79C91.6878 46.79 91.2398 47.056 90.8338 47.42V52.502H89.7138V47.462L89.5177 46.02L90.6238 45.838L90.7358 46.608H90.7498C91.2398 46.132 91.8838 45.796 92.6958 45.796C93.8018 45.796 94.6838 46.51 94.6838 47.854V52.502ZM100.167 52.236C99.7615 52.46 99.3835 52.642 98.6695 52.642C97.6615 52.642 97.0175 51.984 97.0175 50.864V46.86H96.0515V46.118L97.0175 45.922V44.83L98.1235 44.69V45.95H99.9575V46.86H98.1235V50.486C98.1235 51.368 98.3475 51.648 98.9915 51.648C99.3415 51.648 99.6075 51.508 99.8035 51.382L100.167 52.236ZM105.457 50.598C105.457 51.788 104.519 52.642 103.119 52.642C102.447 52.642 101.775 52.544 101.243 52.292L101.579 51.312C102.041 51.522 102.559 51.69 103.063 51.69C103.819 51.69 104.323 51.396 104.323 50.78C104.323 50.304 104.071 50.108 103.637 49.912L102.419 49.352C101.985 49.156 101.201 48.764 101.201 47.63C101.201 46.384 102.293 45.796 103.483 45.796C104.197 45.796 104.701 45.908 105.261 46.146L104.883 47.112C104.435 46.916 104.001 46.776 103.469 46.776C102.755 46.776 102.293 47 102.293 47.56C102.293 48.05 102.713 48.246 102.979 48.372L104.225 48.96C105.093 49.366 105.457 49.884 105.457 50.598Z" fill="#00157E"/>
<path d="M61.16 62.066C61.16 63.758 59.78 64.61 58.172 64.61H57.992V67.502H56.996V60.338C56.996 60.338 57.896 60.206 58.844 60.206C60.248 60.206 61.16 60.878 61.16 62.066ZM60.176 62.246C60.176 61.358 59.588 60.962 58.676 60.962C58.292 60.962 57.992 61.01 57.992 61.01V63.842H58.148C59.216 63.842 60.176 63.362 60.176 62.246ZM64.9761 62.714C64.3281 62.714 63.8481 62.882 63.4161 63.278V67.502H62.4561V63.182L62.2881 61.946L63.2361 61.79L63.3321 62.558H63.3441C63.7281 62.126 64.2321 61.766 64.9761 61.766V62.714ZM67.1315 67.502H66.1715V63.182L66.0035 61.946L67.1315 61.79V67.502ZM67.3235 60.422C67.3235 60.806 67.0235 61.094 66.6635 61.094C66.2915 61.094 65.9795 60.806 65.9795 60.422C65.9795 60.038 66.2915 59.738 66.6635 59.738C67.0235 59.738 67.3235 60.038 67.3235 60.422ZM73.1458 61.886L71.1178 67.49L70.1698 67.526L68.3218 61.97L69.2818 61.73L70.6858 66.254H70.6978L72.1858 61.886H73.1458ZM77.894 67.442L76.934 67.598L76.85 66.938H76.838C76.43 67.322 75.986 67.646 75.314 67.646C74.378 67.646 73.826 67.082 73.826 66.194C73.826 65.186 74.618 64.694 75.758 64.574L76.766 64.466V63.962C76.766 63.182 76.526 62.63 75.602 62.63C75.134 62.63 74.786 62.774 74.438 62.954L74.09 62.246C74.594 61.946 75.11 61.754 75.83 61.754C76.958 61.754 77.714 62.414 77.714 63.53V66.206L77.894 67.442ZM76.766 66.338V65.114L75.89 65.234C75.17 65.33 74.774 65.558 74.774 66.074C74.774 66.542 75.062 66.854 75.542 66.854C76.106 66.854 76.454 66.614 76.766 66.338ZM82.4555 67.274C82.1075 67.466 81.7835 67.622 81.1715 67.622C80.3075 67.622 79.7555 67.058 79.7555 66.098V62.666H78.9275V62.03L79.7555 61.862V60.926L80.7035 60.806V61.886H82.2755V62.666H80.7035V65.774C80.7035 66.53 80.8955 66.77 81.4475 66.77C81.7475 66.77 81.9755 66.65 82.1435 66.542L82.4555 67.274ZM87.4733 67.202C86.9333 67.502 86.3813 67.634 85.6973 67.634C84.0413 67.634 83.1893 66.518 83.1893 64.658C83.1893 62.918 84.1013 61.754 85.5173 61.754C86.8733 61.754 87.4253 62.654 87.4253 63.89V64.562H84.1253C84.1373 66.062 84.6773 66.782 85.9013 66.782C86.3693 66.782 86.7293 66.65 87.1373 66.446L87.4733 67.202ZM86.5253 63.89C86.5253 63.05 86.2133 62.522 85.4693 62.522C84.7493 62.522 84.2933 63.086 84.1733 63.89H86.5253ZM97.7488 67.022L97.2088 67.706L95.6608 66.47C95.1568 67.178 94.4008 67.646 93.2728 67.646C92.0728 67.646 91.2568 66.974 91.2568 65.858C91.2568 64.934 91.7368 64.43 92.4568 63.818C91.9168 63.29 91.5928 62.762 91.5928 62.018C91.5928 60.83 92.3968 60.158 93.4288 60.158C94.3048 60.158 94.9408 60.734 94.9408 61.646C94.9408 62.63 94.4968 63.086 93.6808 63.746L95.4688 65.198C95.6488 64.682 95.6848 64.274 95.7328 63.506H97.7008V64.262H96.4168C96.3928 64.754 96.2608 65.246 96.0928 65.69L97.7488 67.022ZM95.0608 65.99L93.1408 64.406C93.0808 64.358 92.9968 64.298 92.9968 64.298C92.5528 64.634 92.1448 65.09 92.1448 65.678C92.1448 66.386 92.6488 66.878 93.4168 66.878C94.1848 66.878 94.7008 66.494 95.0608 65.99ZM94.1248 61.742C94.1248 61.274 93.8488 60.89 93.3448 60.89C92.7928 60.89 92.4328 61.25 92.4328 61.946C92.4328 62.438 92.5888 62.81 93.1408 63.326C93.7768 62.822 94.1248 62.462 94.1248 61.742ZM104.978 65.87C104.978 66.89 104.174 67.622 102.974 67.622C102.398 67.622 101.822 67.538 101.366 67.322L101.654 66.482C102.05 66.662 102.494 66.806 102.926 66.806C103.574 66.806 104.006 66.554 104.006 66.026C104.006 65.618 103.79 65.45 103.418 65.282L102.374 64.802C102.002 64.634 101.33 64.298 101.33 63.326C101.33 62.258 102.266 61.754 103.286 61.754C103.898 61.754 104.33 61.85 104.81 62.054L104.486 62.882C104.102 62.714 103.73 62.594 103.274 62.594C102.662 62.594 102.266 62.786 102.266 63.266C102.266 63.686 102.626 63.854 102.854 63.962L103.922 64.466C104.666 64.814 104.978 65.258 104.978 65.87ZM110.179 67.442L109.219 67.598L109.135 66.938H109.123C108.715 67.322 108.271 67.646 107.599 67.646C106.663 67.646 106.111 67.082 106.111 66.194C106.111 65.186 106.903 64.694 108.043 64.574L109.051 64.466V63.962C109.051 63.182 108.811 62.63 107.887 62.63C107.419 62.63 107.071 62.774 106.723 62.954L106.375 62.246C106.879 61.946 107.395 61.754 108.115 61.754C109.243 61.754 109.999 62.414 109.999 63.53V66.206L110.179 67.442ZM109.051 66.338V65.114L108.175 65.234C107.455 65.33 107.059 65.558 107.059 66.074C107.059 66.542 107.347 66.854 107.827 66.854C108.391 66.854 108.739 66.614 109.051 66.338ZM115.896 61.886L113.868 67.49L112.92 67.526L111.072 61.97L112.032 61.73L113.436 66.254H113.448L114.936 61.886H115.896ZM118.073 67.502H117.113V63.182L116.945 61.946L118.073 61.79V67.502ZM118.265 60.422C118.265 60.806 117.965 61.094 117.605 61.094C117.233 61.094 116.921 60.806 116.921 60.422C116.921 60.038 117.233 59.738 117.605 59.738C117.965 59.738 118.265 60.038 118.265 60.422ZM124.255 67.502H123.295V63.854C123.295 63.026 122.983 62.606 122.227 62.606C121.687 62.606 121.303 62.834 120.955 63.146V67.502H119.995V63.182L119.827 61.946L120.775 61.79L120.871 62.45H120.883C121.303 62.042 121.855 61.754 122.551 61.754C123.499 61.754 124.255 62.366 124.255 63.518V67.502ZM130.732 62.594H129.604C129.772 62.882 129.868 63.218 129.868 63.626C129.868 64.766 129.04 65.534 127.888 65.534C127.66 65.534 127.444 65.498 127.252 65.45C127.252 65.45 126.868 65.666 126.868 66.098C126.868 66.47 127.144 66.542 127.528 66.542H129.136C130.12 66.542 130.696 66.842 130.696 67.718C130.696 68.822 129.568 70.07 127.516 70.07C126.34 70.07 125.62 69.494 125.62 68.51C125.62 67.586 126.376 67.13 126.376 67.13C126.136 66.974 125.979 66.734 125.979 66.338C125.979 65.642 126.58 65.294 126.7 65.234C126.172 64.91 125.884 64.358 125.884 63.626C125.884 62.486 126.724 61.73 127.888 61.73C128.32 61.73 128.715 61.826 129.028 62.018L130.732 61.754V62.594ZM129.856 67.862C129.856 67.454 129.508 67.37 128.92 67.37H127.408C127.24 67.37 127.084 67.358 126.928 67.334C126.928 67.334 126.472 67.694 126.472 68.294C126.472 68.942 126.868 69.29 127.732 69.29C129.112 69.29 129.856 68.474 129.856 67.862ZM128.968 63.626C128.968 62.846 128.536 62.45 127.888 62.45C127.264 62.45 126.784 62.87 126.784 63.626C126.784 64.418 127.228 64.814 127.888 64.814C128.5 64.814 128.968 64.394 128.968 63.626ZM138.21 67.442L137.25 67.598L137.166 66.938H137.154C136.746 67.322 136.302 67.646 135.63 67.646C134.694 67.646 134.142 67.082 134.142 66.194C134.142 65.186 134.934 64.694 136.074 64.574L137.082 64.466V63.962C137.082 63.182 136.842 62.63 135.918 62.63C135.45 62.63 135.102 62.774 134.754 62.954L134.406 62.246C134.91 61.946 135.426 61.754 136.146 61.754C137.274 61.754 138.03 62.414 138.03 63.53V66.206L138.21 67.442ZM137.082 66.338V65.114L136.206 65.234C135.486 65.33 135.09 65.558 135.09 66.074C135.09 66.542 135.378 66.854 135.858 66.854C136.422 66.854 136.77 66.614 137.082 66.338ZM143.588 61.994L143.288 62.858C142.976 62.738 142.628 62.63 142.232 62.63C141.176 62.63 140.54 63.422 140.54 64.61C140.54 66.11 141.128 66.794 142.208 66.794C142.592 66.794 142.904 66.662 143.216 66.53L143.54 67.31C143.072 67.526 142.556 67.634 142.016 67.634C140.408 67.634 139.58 66.482 139.58 64.766C139.58 62.702 140.852 61.754 142.28 61.754C142.772 61.754 143.192 61.838 143.588 61.994ZM148.322 61.994L148.022 62.858C147.71 62.738 147.362 62.63 146.966 62.63C145.91 62.63 145.274 63.422 145.274 64.61C145.274 66.11 145.862 66.794 146.942 66.794C147.326 66.794 147.638 66.662 147.95 66.53L148.274 67.31C147.806 67.526 147.29 67.634 146.75 67.634C145.142 67.634 144.314 66.482 144.314 64.766C144.314 62.702 145.586 61.754 147.014 61.754C147.506 61.754 147.926 61.838 148.322 61.994ZM153.849 64.694C153.849 66.338 153.069 67.634 151.449 67.634C149.673 67.634 149.049 66.374 149.049 64.694C149.049 63.05 149.829 61.754 151.449 61.754C153.225 61.754 153.849 63.014 153.849 64.694ZM152.865 64.718C152.865 63.326 152.397 62.594 151.449 62.594C150.525 62.594 150.033 63.242 150.033 64.658C150.033 66.05 150.501 66.794 151.449 66.794C152.373 66.794 152.865 66.134 152.865 64.718ZM159.802 67.442L158.854 67.598L158.758 66.95H158.746C158.326 67.346 157.774 67.634 157.078 67.634C156.13 67.634 155.374 67.022 155.374 65.87V63.182L155.206 61.946L156.334 61.79V65.534C156.334 66.362 156.646 66.794 157.402 66.794C157.942 66.794 158.326 66.566 158.674 66.242V63.182L158.506 61.946L159.634 61.79V66.206L159.802 67.442ZM165.81 67.502H164.85V63.854C164.85 63.026 164.538 62.606 163.782 62.606C163.242 62.606 162.858 62.834 162.51 63.146V67.502H161.55V63.182L161.382 61.946L162.33 61.79L162.426 62.45H162.438C162.858 62.042 163.41 61.754 164.106 61.754C165.054 61.754 165.81 62.366 165.81 63.518V67.502ZM170.51 67.274C170.162 67.466 169.838 67.622 169.226 67.622C168.362 67.622 167.81 67.058 167.81 66.098V62.666H166.982V62.03L167.81 61.862V60.926L168.758 60.806V61.886H170.33V62.666H168.758V65.774C168.758 66.53 168.95 66.77 169.502 66.77C169.802 66.77 170.03 66.65 170.198 66.542L170.51 67.274ZM175.044 65.87C175.044 66.89 174.24 67.622 173.04 67.622C172.464 67.622 171.888 67.538 171.432 67.322L171.72 66.482C172.116 66.662 172.56 66.806 172.992 66.806C173.64 66.806 174.072 66.554 174.072 66.026C174.072 65.618 173.856 65.45 173.484 65.282L172.44 64.802C172.068 64.634 171.396 64.298 171.396 63.326C171.396 62.258 172.332 61.754 173.352 61.754C173.964 61.754 174.396 61.85 174.876 62.054L174.552 62.882C174.168 62.714 173.796 62.594 173.34 62.594C172.728 62.594 172.332 62.786 172.332 63.266C172.332 63.686 172.692 63.854 172.92 63.962L173.988 64.466C174.732 64.814 175.044 65.258 175.044 65.87Z" fill="#00157E" fill-opacity="0.7"/>
<path d="M523.667 62.002L529.667 56.002L523.667 50.002" stroke="#00157E" stroke-width="2" stroke-linecap="round" stroke-linejoin="round"/>
<mask id="path-10-inside-1_441_7200" fill="white">
<path d="M0 92.0029C0 87.5847 3.58172 84.0029 8 84.0029H546.667C551.085 84.0029 554.667 87.5847 554.667 92.0029V140.003H0V92.0029Z"/>
</mask>
<path d="M0 92.0029C0 87.0324 4.02944 83.0029 9 83.0029H545.667C550.637 83.0029 554.667 87.0324 554.667 92.0029C554.667 88.1369 551.085 85.0029 546.667 85.0029H8C3.58172 85.0029 0 88.1369 0 92.0029ZM0 92.0029M554.667 140.003H0H554.667M554.667 140.003M0 140.003V84.0029V140.003M0 140.003M554.667 84.0029V140.003V84.0029" fill="#00157E" fill-opacity="0.2" mask="url(#path-10-inside-1_441_7200)"/>
<path d="M37 104.003H19C17.8954 104.003 17 104.898 17 106.003V118.003C17 119.107 17.8954 120.003 19 120.003H37C38.1046 120.003 39 119.107 39 118.003V106.003C39 104.898 38.1046 104.003 37 104.003Z" stroke="#00157E" stroke-width="2" stroke-linecap="round" stroke-linejoin="round"/>
<path d="M17 110.003H39" stroke="#00157E" stroke-width="2" stroke-linecap="round" stroke-linejoin="round"/>
<path d="M62.958 108.069C62.174 108.475 61.376 108.657 60.312 108.657C58.254 108.657 56.672 107.271 56.672 104.471C56.672 101.489 58.436 99.9209 60.704 99.9209C61.642 99.9209 62.216 100.061 62.93 100.369L62.482 101.391C61.95 101.153 61.446 100.971 60.69 100.971C59.22 100.971 57.876 102.105 57.876 104.177C57.876 106.487 58.73 107.621 60.774 107.621C61.446 107.621 62.062 107.355 62.566 107.131L62.958 108.069ZM68.6778 108.433L67.5578 108.615L67.4598 107.845H67.4458C66.9698 108.293 66.4518 108.671 65.6678 108.671C64.5758 108.671 63.9318 108.013 63.9318 106.977C63.9318 105.801 64.8558 105.227 66.1858 105.087L67.3618 104.961V104.373C67.3618 103.463 67.0818 102.819 66.0038 102.819C65.4578 102.819 65.0518 102.987 64.6458 103.197L64.2398 102.371C64.8278 102.021 65.4298 101.797 66.2698 101.797C67.5858 101.797 68.4678 102.567 68.4678 103.869V106.991L68.6778 108.433ZM67.3618 107.145V105.717L66.3398 105.857C65.4998 105.969 65.0378 106.235 65.0378 106.837C65.0378 107.383 65.3738 107.747 65.9338 107.747C66.5918 107.747 66.9978 107.467 67.3618 107.145ZM73.6635 102.917C72.9075 102.917 72.3475 103.113 71.8435 103.575V108.503H70.7235V103.463L70.5275 102.021L71.6335 101.839L71.7455 102.735H71.7595C72.2075 102.231 72.7955 101.811 73.6635 101.811V102.917ZM79.7801 108.461L78.7021 108.615L78.6041 107.957H78.5901C78.1701 108.307 77.5961 108.657 76.8261 108.657C75.3841 108.657 74.4181 107.467 74.4181 105.521C74.4181 103.267 75.5801 101.881 77.5681 101.881C78.1001 101.881 78.4781 101.979 78.4781 101.979V100.565L78.2681 99.1229L79.5841 98.9409V107.019L79.7801 108.461ZM77.2181 107.677C77.7641 107.677 78.1421 107.453 78.4781 107.187V103.001C78.4781 103.001 78.1141 102.819 77.4701 102.819C76.1961 102.819 75.5661 103.897 75.5661 105.171C75.5661 106.753 75.9861 107.677 77.2181 107.677ZM85.6191 106.599C85.6191 107.789 84.6811 108.643 83.2811 108.643C82.6091 108.643 81.9371 108.545 81.4051 108.293L81.7411 107.313C82.2031 107.523 82.7211 107.691 83.2251 107.691C83.9811 107.691 84.4851 107.397 84.4851 106.781C84.4851 106.305 84.2331 106.109 83.7991 105.913L82.5811 105.353C82.1471 105.157 81.3631 104.765 81.3631 103.631C81.3631 102.385 82.4551 101.797 83.6451 101.797C84.3591 101.797 84.8631 101.909 85.4231 102.147L85.0451 103.113C84.5971 102.917 84.1631 102.777 83.6311 102.777C82.9171 102.777 82.4551 103.001 82.4551 103.561C82.4551 104.051 82.8751 104.247 83.1411 104.373L84.3871 104.961C85.2551 105.367 85.6191 105.885 85.6191 106.599Z" fill="#00157E"/>
<path d="M63.14 119.891C63.14 121.787 62.288 123.635 59.876 123.635C57.416 123.635 56.576 121.811 56.576 119.891C56.576 117.983 57.452 116.147 59.876 116.147C62.336 116.147 63.14 117.959 63.14 119.891ZM62.084 119.891C62.084 118.127 61.4 116.999 59.876 116.999C58.364 116.999 57.656 118.175 57.656 119.891C57.656 121.643 58.34 122.783 59.876 122.783C61.364 122.783 62.084 121.607 62.084 119.891ZM67.1909 118.715C66.5429 118.715 66.0629 118.883 65.6309 119.279V123.503H64.6709V119.183L64.5029 117.947L65.4509 117.791L65.5469 118.559H65.5589C65.9429 118.127 66.4469 117.767 67.1909 117.767V118.715ZM72.4337 123.467L71.5097 123.599L71.4257 123.035H71.4137C71.0537 123.335 70.5617 123.635 69.9017 123.635C68.6657 123.635 67.8377 122.615 67.8377 120.947C67.8377 119.015 68.8337 117.827 70.5377 117.827C70.9937 117.827 71.3177 117.911 71.3177 117.911V116.699L71.1377 115.463L72.2657 115.307V122.231L72.4337 123.467ZM70.2377 122.795C70.7057 122.795 71.0297 122.603 71.3177 122.375V118.787C71.3177 118.787 71.0057 118.631 70.4537 118.631C69.3617 118.631 68.8217 119.555 68.8217 120.647C68.8217 122.003 69.1817 122.795 70.2377 122.795ZM78.0866 123.203C77.5466 123.503 76.9946 123.635 76.3106 123.635C74.6546 123.635 73.8026 122.519 73.8026 120.659C73.8026 118.919 74.7146 117.755 76.1306 117.755C77.4866 117.755 78.0386 118.655 78.0386 119.891V120.563H74.7386C74.7506 122.063 75.2906 122.783 76.5146 122.783C76.9826 122.783 77.3426 122.651 77.7506 122.447L78.0866 123.203ZM77.1386 119.891C77.1386 119.051 76.8266 118.523 76.0826 118.523C75.3626 118.523 74.9066 119.087 74.7866 119.891H77.1386ZM82.0386 118.715C81.3906 118.715 80.9106 118.883 80.4786 119.279V123.503H79.5186V119.183L79.3506 117.947L80.2986 117.791L80.3946 118.559H80.4066C80.7906 118.127 81.2946 117.767 82.0386 117.767V118.715ZM91.0215 123.431L90.0495 123.611L86.6895 117.827H86.6775V123.503H85.7655V116.279H86.8455L90.0975 121.859H90.1095V116.279H91.0215V123.431ZM96.7157 123.503H93.0077V116.279H96.5957V117.131H94.0037V119.351H96.3437V120.191H94.0037V122.651H96.7157V123.503ZM105.904 116.279L104.488 123.503H103.528L101.776 117.731H101.764L100.024 123.503H99.0277L97.5877 116.339L98.5837 116.171L99.6517 121.823H99.6637L101.284 116.279H102.316L103.984 121.823H103.996L104.98 116.279H105.904ZM113.471 117.995L113.171 118.859C112.859 118.739 112.511 118.631 112.115 118.631C111.059 118.631 110.423 119.423 110.423 120.611C110.423 122.111 111.011 122.795 112.091 122.795C112.475 122.795 112.787 122.663 113.099 122.531L113.423 123.311C112.955 123.527 112.439 123.635 111.899 123.635C110.291 123.635 109.463 122.483 109.463 120.767C109.463 118.703 110.735 117.755 112.163 117.755C112.655 117.755 113.075 117.839 113.471 117.995ZM118.476 123.443L117.516 123.599L117.432 122.939H117.42C117.012 123.323 116.568 123.647 115.896 123.647C114.96 123.647 114.408 123.083 114.408 122.195C114.408 121.187 115.2 120.695 116.34 120.575L117.348 120.467V119.963C117.348 119.183 117.108 118.631 116.184 118.631C115.716 118.631 115.368 118.775 115.02 118.955L114.672 118.247C115.176 117.947 115.692 117.755 116.412 117.755C117.54 117.755 118.296 118.415 118.296 119.531V122.207L118.476 123.443ZM117.348 122.339V121.115L116.472 121.235C115.752 121.331 115.356 121.559 115.356 122.075C115.356 122.543 115.644 122.855 116.124 122.855C116.688 122.855 117.036 122.615 117.348 122.339ZM122.75 118.715C122.102 118.715 121.622 118.883 121.19 119.279V123.503H120.23V119.183L120.062 117.947L121.01 117.791L121.106 118.559H121.118C121.502 118.127 122.006 117.767 122.75 117.767V118.715ZM127.992 123.467L127.068 123.599L126.984 123.035H126.972C126.612 123.335 126.12 123.635 125.46 123.635C124.224 123.635 123.396 122.615 123.396 120.947C123.396 119.015 124.392 117.827 126.096 117.827C126.552 117.827 126.876 117.911 126.876 117.911V116.699L126.696 115.463L127.824 115.307V122.231L127.992 123.467ZM125.796 122.795C126.264 122.795 126.588 122.603 126.876 122.375V118.787C126.876 118.787 126.564 118.631 126.012 118.631C124.92 118.631 124.38 119.555 124.38 120.647C124.38 122.003 124.74 122.795 125.796 122.795ZM132.997 121.871C132.997 122.891 132.193 123.623 130.993 123.623C130.417 123.623 129.841 123.539 129.385 123.323L129.673 122.483C130.069 122.663 130.513 122.807 130.945 122.807C131.593 122.807 132.025 122.555 132.025 122.027C132.025 121.619 131.809 121.451 131.437 121.283L130.393 120.803C130.021 120.635 129.349 120.299 129.349 119.327C129.349 118.259 130.285 117.755 131.305 117.755C131.917 117.755 132.349 117.851 132.829 118.055L132.505 118.883C132.121 118.715 131.749 118.595 131.293 118.595C130.681 118.595 130.285 118.787 130.285 119.267C130.285 119.687 130.645 119.855 130.873 119.963L131.941 120.467C132.685 120.815 132.997 121.259 132.997 121.871ZM135.619 122.999C135.619 123.875 135.247 124.523 134.527 124.979L134.251 124.619C134.611 124.331 134.791 124.019 134.851 123.575C134.515 123.539 134.239 123.239 134.239 122.891C134.239 122.495 134.539 122.207 134.923 122.207C135.307 122.207 135.619 122.507 135.619 122.999ZM147.02 123.503H146.072V119.855C146.072 119.027 145.76 118.607 144.992 118.607C144.452 118.607 143.996 118.871 143.696 119.171C143.696 119.171 143.732 119.375 143.732 119.591V123.503H142.772V119.855C142.772 119.027 142.46 118.607 141.704 118.607C141.164 118.607 140.78 118.823 140.432 119.147V123.503H139.472V119.183L139.304 117.947L140.252 117.791L140.348 118.451H140.36C140.78 118.043 141.332 117.755 142.028 117.755C142.676 117.755 143.216 118.043 143.504 118.559H143.516C143.96 118.115 144.536 117.755 145.328 117.755C146.288 117.755 147.02 118.367 147.02 119.519V123.503ZM153.345 120.695C153.345 122.339 152.565 123.635 150.945 123.635C149.169 123.635 148.545 122.375 148.545 120.695C148.545 119.051 149.325 117.755 150.945 117.755C152.721 117.755 153.345 119.015 153.345 120.695ZM152.361 120.719C152.361 119.327 151.893 118.595 150.945 118.595C150.021 118.595 149.529 119.243 149.529 120.659C149.529 122.051 149.997 122.795 150.945 122.795C151.869 122.795 152.361 122.135 152.361 120.719ZM159.13 123.503H158.17V119.855C158.17 119.027 157.858 118.607 157.102 118.607C156.562 118.607 156.178 118.835 155.83 119.147V123.503H154.87V119.183L154.702 117.947L155.65 117.791L155.746 118.451H155.758C156.178 118.043 156.73 117.755 157.426 117.755C158.374 117.755 159.13 118.367 159.13 119.519V123.503ZM162.007 123.503H161.047V119.183L160.879 117.947L162.007 117.791V123.503ZM162.199 116.423C162.199 116.807 161.899 117.095 161.539 117.095C161.167 117.095 160.854 116.807 160.854 116.423C160.854 116.039 161.167 115.739 161.539 115.739C161.899 115.739 162.199 116.039 162.199 116.423ZM166.737 123.275C166.389 123.467 166.065 123.623 165.453 123.623C164.589 123.623 164.037 123.059 164.037 122.099V118.667H163.209V118.031L164.037 117.863V116.927L164.985 116.807V117.887H166.557V118.667H164.985V121.775C164.985 122.531 165.177 122.771 165.729 122.771C166.029 122.771 166.257 122.651 166.425 122.543L166.737 123.275ZM172.271 120.695C172.271 122.339 171.491 123.635 169.871 123.635C168.095 123.635 167.471 122.375 167.471 120.695C167.471 119.051 168.251 117.755 169.871 117.755C171.647 117.755 172.271 119.015 172.271 120.695ZM171.287 120.719C171.287 119.327 170.819 118.595 169.871 118.595C168.947 118.595 168.455 119.243 168.455 120.659C168.455 122.051 168.923 122.795 169.871 122.795C170.795 122.795 171.287 122.135 171.287 120.719ZM176.316 118.715C175.668 118.715 175.188 118.883 174.756 119.279V123.503H173.796V119.183L173.628 117.947L174.576 117.791L174.672 118.559H174.684C175.068 118.127 175.572 117.767 176.316 117.767V118.715Z" fill="#00157E" fill-opacity="0.7"/>
<path d="M523.667 118.003L529.667 112.003L523.667 106.003" stroke="#00157E" stroke-width="2" stroke-linecap="round" stroke-linejoin="round"/>
<mask id="path-17-inside-2_441_7200" fill="white">
<path d="M0 148.004C0 143.586 3.58172 140.004 8 140.004H546.667C551.085 140.004 554.667 143.586 554.667 148.004V196.004H0V148.004Z"/>
</mask>
<path d="M0 148.004C0 143.033 4.02944 139.004 9 139.004H545.667C550.637 139.004 554.667 143.033 554.667 148.004C554.667 144.138 551.085 141.004 546.667 141.004H8C3.58172 141.004 0 144.138 0 148.004ZM0 148.004M554.667 196.004H0H554.667M554.667 196.004M0 196.004V140.004V196.004M0 196.004M554.667 140.004V196.004V140.004" fill="#00157E" fill-opacity="0.2" mask="url(#path-17-inside-2_441_7200)"/>
<path d="M39 162.004L29.5 171.504L24.5 166.504L17 174.004" stroke="#00157E" stroke-width="2" stroke-linecap="round" stroke-linejoin="round"/>
<path d="M33 162.004H39V168.004" stroke="#00157E" stroke-width="2" stroke-linecap="round" stroke-linejoin="round"/>
<path d="M58.338 164.504H57.162V156.076H58.338V164.504ZM65.59 164.504H64.47V160.248C64.47 159.282 64.106 158.792 63.224 158.792C62.594 158.792 62.146 159.058 61.74 159.422V164.504H60.62V159.464L60.424 158.022L61.53 157.84L61.642 158.61H61.656C62.146 158.134 62.79 157.798 63.602 157.798C64.708 157.798 65.59 158.512 65.59 159.856V164.504ZM72.4213 157.952L70.0553 164.49L68.9493 164.532L66.7933 158.05L67.9133 157.77L69.5513 163.048H69.5653L71.3013 157.952H72.4213ZM78.2266 164.154C77.5966 164.504 76.9526 164.658 76.1546 164.658C74.2226 164.658 73.2286 163.356 73.2286 161.186C73.2286 159.156 74.2926 157.798 75.9446 157.798C77.5266 157.798 78.1706 158.848 78.1706 160.29V161.074H74.3206C74.3346 162.824 74.9646 163.664 76.3926 163.664C76.9386 163.664 77.3586 163.51 77.8346 163.272L78.2266 164.154ZM77.1206 160.29C77.1206 159.31 76.7566 158.694 75.8886 158.694C75.0486 158.694 74.5166 159.352 74.3766 160.29H77.1206ZM83.6913 162.6C83.6913 163.79 82.7533 164.644 81.3533 164.644C80.6813 164.644 80.0093 164.546 79.4773 164.294L79.8133 163.314C80.2753 163.524 80.7933 163.692 81.2973 163.692C82.0533 163.692 82.5573 163.398 82.5573 162.782C82.5573 162.306 82.3053 162.11 81.8713 161.914L80.6533 161.354C80.2193 161.158 79.4353 160.766 79.4353 159.632C79.4353 158.386 80.5273 157.798 81.7173 157.798C82.4313 157.798 82.9353 157.91 83.4953 158.148L83.1173 159.114C82.6693 158.918 82.2353 158.778 81.7033 158.778C80.9893 158.778 80.5273 159.002 80.5273 159.562C80.5273 160.052 80.9473 160.248 81.2133 160.374L82.4593 160.962C83.3273 161.368 83.6913 161.886 83.6913 162.6ZM88.7378 164.238C88.3318 164.462 87.9538 164.644 87.2398 164.644C86.2318 164.644 85.5878 163.986 85.5878 162.866V158.862H84.6218V158.12L85.5878 157.924V156.832L86.6938 156.692V157.952H88.5278V158.862H86.6938V162.488C86.6938 163.37 86.9178 163.65 87.5618 163.65C87.9118 163.65 88.1778 163.51 88.3738 163.384L88.7378 164.238ZM99.0393 164.504H97.9333V160.248C97.9333 159.282 97.5693 158.792 96.6733 158.792C96.0433 158.792 95.5113 159.1 95.1613 159.45C95.1613 159.45 95.2033 159.688 95.2033 159.94V164.504H94.0833V160.248C94.0833 159.282 93.7193 158.792 92.8373 158.792C92.2073 158.792 91.7593 159.044 91.3533 159.422V164.504H90.2333V159.464L90.0373 158.022L91.1433 157.84L91.2553 158.61H91.2693C91.7593 158.134 92.4033 157.798 93.2153 157.798C93.9713 157.798 94.6013 158.134 94.9373 158.736H94.9513C95.4693 158.218 96.1413 157.798 97.0653 157.798C98.1853 157.798 99.0393 158.512 99.0393 159.856V164.504ZM105.816 164.154C105.186 164.504 104.542 164.658 103.744 164.658C101.812 164.658 100.818 163.356 100.818 161.186C100.818 159.156 101.882 157.798 103.534 157.798C105.116 157.798 105.76 158.848 105.76 160.29V161.074H101.91C101.924 162.824 102.554 163.664 103.982 163.664C104.528 163.664 104.948 163.51 105.424 163.272L105.816 164.154ZM104.71 160.29C104.71 159.31 104.346 158.694 103.478 158.694C102.638 158.694 102.106 159.352 101.966 160.29H104.71ZM112.457 164.504H111.337V160.248C111.337 159.282 110.973 158.792 110.091 158.792C109.461 158.792 109.013 159.058 108.607 159.422V164.504H107.487V159.464L107.291 158.022L108.397 157.84L108.509 158.61H108.523C109.013 158.134 109.657 157.798 110.469 157.798C111.575 157.798 112.457 158.512 112.457 159.856V164.504ZM117.941 164.238C117.535 164.462 117.157 164.644 116.443 164.644C115.435 164.644 114.791 163.986 114.791 162.866V158.862H113.825V158.12L114.791 157.924V156.832L115.897 156.692V157.952H117.731V158.862H115.897V162.488C115.897 163.37 116.121 163.65 116.765 163.65C117.115 163.65 117.381 163.51 117.577 163.384L117.941 164.238Z" fill="#00157E"/>
<path d="M60.584 173.132H57.992V175.484H60.332V176.336H57.992V179.504H56.996V172.28H60.584V173.132ZM66.0987 176.696C66.0987 178.34 65.3187 179.636 63.6987 179.636C61.9227 179.636 61.2987 178.376 61.2987 176.696C61.2987 175.052 62.0787 173.756 63.6987 173.756C65.4747 173.756 66.0987 175.016 66.0987 176.696ZM65.1147 176.72C65.1147 175.328 64.6467 174.596 63.6987 174.596C62.7747 174.596 62.2827 175.244 62.2827 176.66C62.2827 178.052 62.7507 178.796 63.6987 178.796C64.6227 178.796 65.1147 178.136 65.1147 176.72ZM71.8841 179.504H70.9241V175.856C70.9241 175.028 70.6121 174.608 69.8561 174.608C69.3161 174.608 68.9321 174.836 68.5841 175.148V179.504H67.6241V175.184L67.4561 173.948L68.4041 173.792L68.5001 174.452H68.5121C68.9321 174.044 69.4841 173.756 70.1801 173.756C71.1281 173.756 71.8841 174.368 71.8841 175.52V179.504ZM77.9884 179.468L77.0644 179.6L76.9804 179.036H76.9684C76.6084 179.336 76.1164 179.636 75.4564 179.636C74.2204 179.636 73.3924 178.616 73.3924 176.948C73.3924 175.016 74.3884 173.828 76.0924 173.828C76.5484 173.828 76.8724 173.912 76.8724 173.912V172.7L76.6924 171.464L77.8204 171.308V178.232L77.9884 179.468ZM75.7924 178.796C76.2604 178.796 76.5844 178.604 76.8724 178.376V174.788C76.8724 174.788 76.5604 174.632 76.0084 174.632C74.9164 174.632 74.3764 175.556 74.3764 176.648C74.3764 178.004 74.7364 178.796 75.7924 178.796ZM82.9933 177.872C82.9933 178.892 82.1893 179.624 80.9893 179.624C80.4133 179.624 79.8373 179.54 79.3813 179.324L79.6693 178.484C80.0653 178.664 80.5093 178.808 80.9413 178.808C81.5893 178.808 82.0213 178.556 82.0213 178.028C82.0213 177.62 81.8053 177.452 81.4333 177.284L80.3893 176.804C80.0173 176.636 79.3453 176.3 79.3453 175.328C79.3453 174.26 80.2812 173.756 81.3013 173.756C81.9133 173.756 82.3453 173.852 82.8253 174.056L82.5013 174.884C82.1173 174.716 81.7453 174.596 81.2893 174.596C80.6773 174.596 80.2812 174.788 80.2812 175.268C80.2812 175.688 80.6413 175.856 80.8693 175.964L81.9373 176.468C82.6813 176.816 82.9933 177.26 82.9933 177.872ZM85.6148 179C85.6148 179.876 85.2428 180.524 84.5228 180.98L84.2468 180.62C84.6068 180.332 84.7868 180.02 84.8468 179.576C84.5108 179.54 84.2348 179.24 84.2348 178.892C84.2348 178.496 84.5348 178.208 84.9188 178.208C85.3028 178.208 85.6148 178.508 85.6148 179ZM92.2758 179.276C91.9278 179.468 91.6038 179.624 90.9918 179.624C90.1278 179.624 89.5758 179.06 89.5758 178.1V174.668H88.7478V174.032L89.5758 173.864V172.928L90.5238 172.808V173.888H92.0958V174.668H90.5238V177.776C90.5238 178.532 90.7158 178.772 91.2678 178.772C91.5678 178.772 91.7958 178.652 91.9638 178.544L92.2758 179.276ZM96.0777 174.716C95.4297 174.716 94.9497 174.884 94.5177 175.28V179.504H93.5577V175.184L93.3897 173.948L94.3377 173.792L94.4337 174.56H94.4457C94.8297 174.128 95.3337 173.768 96.0777 173.768V174.716ZM100.757 179.444L99.7973 179.6L99.7133 178.94H99.7013C99.2933 179.324 98.8493 179.648 98.1773 179.648C97.2413 179.648 96.6893 179.084 96.6893 178.196C96.6893 177.188 97.4813 176.696 98.6213 176.576L99.6293 176.468V175.964C99.6293 175.184 99.3893 174.632 98.4653 174.632C97.9973 174.632 97.6493 174.776 97.3013 174.956L96.9533 174.248C97.4573 173.948 97.9733 173.756 98.6933 173.756C99.8213 173.756 100.577 174.416 100.577 175.532V178.208L100.757 179.444ZM99.6293 178.34V177.116L98.7533 177.236C98.0333 177.332 97.6373 177.56 97.6373 178.076C97.6373 178.544 97.9253 178.856 98.4053 178.856C98.9693 178.856 99.3173 178.616 99.6293 178.34ZM106.723 179.468L105.799 179.6L105.715 179.036H105.703C105.343 179.336 104.851 179.636 104.191 179.636C102.955 179.636 102.127 178.616 102.127 176.948C102.127 175.016 103.123 173.828 104.827 173.828C105.283 173.828 105.607 173.912 105.607 173.912V172.7L105.427 171.464L106.555 171.308V178.232L106.723 179.468ZM104.527 178.796C104.995 178.796 105.319 178.604 105.607 178.376V174.788C105.607 174.788 105.295 174.632 104.743 174.632C103.651 174.632 103.111 175.556 103.111 176.648C103.111 178.004 103.471 178.796 104.527 178.796ZM109.46 179.504H108.5V175.184L108.332 173.948L109.46 173.792V179.504ZM109.652 172.424C109.652 172.808 109.352 173.096 108.992 173.096C108.62 173.096 108.308 172.808 108.308 172.424C108.308 172.04 108.62 171.74 108.992 171.74C109.352 171.74 109.652 172.04 109.652 172.424ZM115.642 179.504H114.682V175.856C114.682 175.028 114.37 174.608 113.614 174.608C113.074 174.608 112.69 174.836 112.342 175.148V179.504H111.382V175.184L111.214 173.948L112.162 173.792L112.258 174.452H112.27C112.69 174.044 113.242 173.756 113.938 173.756C114.886 173.756 115.642 174.368 115.642 175.52V179.504ZM122.118 174.596H120.99C121.158 174.884 121.254 175.22 121.254 175.628C121.254 176.768 120.426 177.536 119.274 177.536C119.046 177.536 118.83 177.5 118.638 177.452C118.638 177.452 118.254 177.668 118.254 178.1C118.254 178.472 118.53 178.544 118.914 178.544H120.522C121.506 178.544 122.082 178.844 122.082 179.72C122.082 180.824 120.954 182.072 118.902 182.072C117.726 182.072 117.006 181.496 117.006 180.512C117.006 179.588 117.762 179.132 117.762 179.132C117.522 178.976 117.366 178.736 117.366 178.34C117.366 177.644 117.966 177.296 118.086 177.236C117.558 176.912 117.27 176.36 117.27 175.628C117.27 174.488 118.11 173.732 119.274 173.732C119.706 173.732 120.102 173.828 120.414 174.02L122.118 173.756V174.596ZM121.242 179.864C121.242 179.456 120.894 179.372 120.306 179.372H118.794C118.626 179.372 118.47 179.36 118.314 179.336C118.314 179.336 117.858 179.696 117.858 180.296C117.858 180.944 118.254 181.292 119.118 181.292C120.498 181.292 121.242 180.476 121.242 179.864ZM120.354 175.628C120.354 174.848 119.922 174.452 119.274 174.452C118.65 174.452 118.17 174.872 118.17 175.628C118.17 176.42 118.614 176.816 119.274 176.816C119.886 176.816 120.354 176.396 120.354 175.628ZM124.498 179C124.498 179.876 124.126 180.524 123.406 180.98L123.13 180.62C123.49 180.332 123.67 180.02 123.73 179.576C123.394 179.54 123.118 179.24 123.118 178.892C123.118 178.496 123.418 178.208 123.802 178.208C124.186 178.208 124.498 178.508 124.498 179ZM132.035 179.444L131.075 179.6L130.991 178.94H130.979C130.571 179.324 130.127 179.648 129.455 179.648C128.519 179.648 127.967 179.084 127.967 178.196C127.967 177.188 128.759 176.696 129.899 176.576L130.907 176.468V175.964C130.907 175.184 130.667 174.632 129.743 174.632C129.275 174.632 128.927 174.776 128.579 174.956L128.231 174.248C128.735 173.948 129.251 173.756 129.971 173.756C131.099 173.756 131.855 174.416 131.855 175.532V178.208L132.035 179.444ZM130.907 178.34V177.116L130.031 177.236C129.311 177.332 128.915 177.56 128.915 178.076C128.915 178.544 129.203 178.856 129.683 178.856C130.247 178.856 130.595 178.616 130.907 178.34ZM137.04 177.872C137.04 178.892 136.236 179.624 135.036 179.624C134.46 179.624 133.884 179.54 133.428 179.324L133.716 178.484C134.112 178.664 134.556 178.808 134.988 178.808C135.636 178.808 136.068 178.556 136.068 178.028C136.068 177.62 135.852 177.452 135.48 177.284L134.436 176.804C134.064 176.636 133.392 176.3 133.392 175.328C133.392 174.26 134.328 173.756 135.348 173.756C135.96 173.756 136.392 173.852 136.872 174.056L136.548 174.884C136.164 174.716 135.792 174.596 135.336 174.596C134.724 174.596 134.328 174.788 134.328 175.268C134.328 175.688 134.688 175.856 134.916 175.964L135.984 176.468C136.728 176.816 137.04 177.26 137.04 177.872ZM141.81 177.872C141.81 178.892 141.006 179.624 139.806 179.624C139.23 179.624 138.654 179.54 138.198 179.324L138.486 178.484C138.882 178.664 139.326 178.808 139.758 178.808C140.406 178.808 140.838 178.556 140.838 178.028C140.838 177.62 140.622 177.452 140.25 177.284L139.206 176.804C138.834 176.636 138.162 176.3 138.162 175.328C138.162 174.26 139.098 173.756 140.118 173.756C140.73 173.756 141.162 173.852 141.642 174.056L141.318 174.884C140.934 174.716 140.562 174.596 140.106 174.596C139.494 174.596 139.098 174.788 139.098 175.268C139.098 175.688 139.458 175.856 139.686 175.964L140.754 176.468C141.498 176.816 141.81 177.26 141.81 177.872ZM147.227 179.204C146.687 179.504 146.135 179.636 145.451 179.636C143.795 179.636 142.943 178.52 142.943 176.66C142.943 174.92 143.855 173.756 145.271 173.756C146.627 173.756 147.179 174.656 147.179 175.892V176.564H143.879C143.891 178.064 144.431 178.784 145.655 178.784C146.123 178.784 146.483 178.652 146.891 178.448L147.227 179.204ZM146.279 175.892C146.279 175.052 145.967 174.524 145.223 174.524C144.503 174.524 144.047 175.088 143.927 175.892H146.279ZM151.467 179.276C151.119 179.468 150.795 179.624 150.183 179.624C149.319 179.624 148.767 179.06 148.767 178.1V174.668H147.939V174.032L148.767 173.864V172.928L149.715 172.808V173.888H151.287V174.668H149.715V177.776C149.715 178.532 149.907 178.772 150.459 178.772C150.759 178.772 150.987 178.652 151.155 178.544L151.467 179.276ZM162.817 179.504H161.869V175.856C161.869 175.028 161.557 174.608 160.789 174.608C160.249 174.608 159.793 174.872 159.493 175.172C159.493 175.172 159.529 175.376 159.529 175.592V179.504H158.569V175.856C158.569 175.028 158.257 174.608 157.501 174.608C156.961 174.608 156.577 174.824 156.229 175.148V179.504H155.269V175.184L155.101 173.948L156.049 173.792L156.145 174.452H156.157C156.577 174.044 157.129 173.756 157.825 173.756C158.473 173.756 159.013 174.044 159.301 174.56H159.313C159.757 174.116 160.333 173.756 161.125 173.756C162.085 173.756 162.817 174.368 162.817 175.52V179.504ZM168.41 179.444L167.45 179.6L167.366 178.94H167.354C166.946 179.324 166.502 179.648 165.83 179.648C164.894 179.648 164.342 179.084 164.342 178.196C164.342 177.188 165.134 176.696 166.274 176.576L167.282 176.468V175.964C167.282 175.184 167.042 174.632 166.118 174.632C165.65 174.632 165.302 174.776 164.954 174.956L164.606 174.248C165.11 173.948 165.626 173.756 166.346 173.756C167.474 173.756 168.23 174.416 168.23 175.532V178.208L168.41 179.444ZM167.282 178.34V177.116L166.406 177.236C165.686 177.332 165.29 177.56 165.29 178.076C165.29 178.544 165.578 178.856 166.058 178.856C166.622 178.856 166.97 178.616 167.282 178.34ZM174.423 179.504H173.463V175.856C173.463 175.028 173.151 174.608 172.395 174.608C171.855 174.608 171.471 174.836 171.123 175.148V179.504H170.163V175.184L169.995 173.948L170.943 173.792L171.039 174.452H171.051C171.471 174.044 172.023 173.756 172.719 173.756C173.667 173.756 174.423 174.368 174.423 175.52V179.504ZM179.999 179.444L179.039 179.6L178.955 178.94H178.943C178.535 179.324 178.091 179.648 177.419 179.648C176.483 179.648 175.931 179.084 175.931 178.196C175.931 177.188 176.723 176.696 177.863 176.576L178.871 176.468V175.964C178.871 175.184 178.631 174.632 177.707 174.632C177.239 174.632 176.891 174.776 176.543 174.956L176.195 174.248C176.699 173.948 177.215 173.756 177.935 173.756C179.063 173.756 179.819 174.416 179.819 175.532V178.208L179.999 179.444ZM178.871 178.34V177.116L177.995 177.236C177.275 177.332 176.879 177.56 176.879 178.076C176.879 178.544 177.167 178.856 177.647 178.856C178.211 178.856 178.559 178.616 178.871 178.34ZM186.337 174.596H185.209C185.377 174.884 185.473 175.22 185.473 175.628C185.473 176.768 184.645 177.536 183.493 177.536C183.265 177.536 183.049 177.5 182.857 177.452C182.857 177.452 182.473 177.668 182.473 178.1C182.473 178.472 182.749 178.544 183.133 178.544H184.741C185.725 178.544 186.301 178.844 186.301 179.72C186.301 180.824 185.173 182.072 183.121 182.072C181.945 182.072 181.225 181.496 181.225 180.512C181.225 179.588 181.981 179.132 181.981 179.132C181.741 178.976 181.585 178.736 181.585 178.34C181.585 177.644 182.185 177.296 182.305 177.236C181.777 176.912 181.489 176.36 181.489 175.628C181.489 174.488 182.329 173.732 183.493 173.732C183.925 173.732 184.321 173.828 184.633 174.02L186.337 173.756V174.596ZM185.461 179.864C185.461 179.456 185.113 179.372 184.525 179.372H183.013C182.845 179.372 182.689 179.36 182.533 179.336C182.533 179.336 182.077 179.696 182.077 180.296C182.077 180.944 182.473 181.292 183.337 181.292C184.717 181.292 185.461 180.476 185.461 179.864ZM184.573 175.628C184.573 174.848 184.141 174.452 183.493 174.452C182.869 174.452 182.389 174.872 182.389 175.628C182.389 176.42 182.833 176.816 183.493 176.816C184.105 176.816 184.573 176.396 184.573 175.628ZM191.348 179.204C190.808 179.504 190.256 179.636 189.572 179.636C187.916 179.636 187.064 178.52 187.064 176.66C187.064 174.92 187.976 173.756 189.392 173.756C190.748 173.756 191.3 174.656 191.3 175.892V176.564H188C188.012 178.064 188.552 178.784 189.776 178.784C190.244 178.784 190.604 178.652 191.012 178.448L191.348 179.204ZM190.4 175.892C190.4 175.052 190.088 174.524 189.344 174.524C188.624 174.524 188.168 175.088 188.048 175.892H190.4ZM200.328 179.504H199.38V175.856C199.38 175.028 199.068 174.608 198.3 174.608C197.76 174.608 197.304 174.872 197.004 175.172C197.004 175.172 197.04 175.376 197.04 175.592V179.504H196.08V175.856C196.08 175.028 195.768 174.608 195.012 174.608C194.472 174.608 194.088 174.824 193.74 175.148V179.504H192.78V175.184L192.612 173.948L193.56 173.792L193.656 174.452H193.668C194.088 174.044 194.64 173.756 195.336 173.756C195.984 173.756 196.524 174.044 196.812 174.56H196.824C197.268 174.116 197.844 173.756 198.636 173.756C199.596 173.756 200.328 174.368 200.328 175.52V179.504ZM206.137 179.204C205.597 179.504 205.045 179.636 204.361 179.636C202.705 179.636 201.853 178.52 201.853 176.66C201.853 174.92 202.765 173.756 204.181 173.756C205.537 173.756 206.089 174.656 206.089 175.892V176.564H202.789C202.801 178.064 203.341 178.784 204.565 178.784C205.033 178.784 205.393 178.652 205.801 178.448L206.137 179.204ZM205.189 175.892C205.189 175.052 204.877 174.524 204.133 174.524C203.413 174.524 202.957 175.088 202.837 175.892H205.189ZM211.829 179.504H210.869V175.856C210.869 175.028 210.557 174.608 209.801 174.608C209.261 174.608 208.877 174.836 208.529 175.148V179.504H207.569V175.184L207.401 173.948L208.349 173.792L208.445 174.452H208.457C208.877 174.044 209.429 173.756 210.125 173.756C211.073 173.756 211.829 174.368 211.829 175.52V179.504ZM216.53 179.276C216.182 179.468 215.858 179.624 215.246 179.624C214.382 179.624 213.83 179.06 213.83 178.1V174.668H213.002V174.032L213.83 173.864V172.928L214.778 172.808V173.888H216.35V174.668H214.778V177.776C214.778 178.532 214.97 178.772 215.522 178.772C215.822 178.772 216.05 178.652 216.218 178.544L216.53 179.276Z" fill="#00157E" fill-opacity="0.7"/>
<path d="M523.667 174.004L529.667 168.004L523.667 162.004" stroke="#00157E" stroke-width="2" stroke-linecap="round" stroke-linejoin="round"/>
<path d="M16 212.005C16 209.796 17.7909 208.005 20 208.005H534.667C536.876 208.005 538.667 209.796 538.667 212.005V236.005C538.667 238.214 536.876 240.005 534.667 240.005H20C17.7909 240.005 16 238.214 16 236.005V212.005Z" fill="#00157E" fill-opacity="0.05"/>
<path d="M244.255 225.639C244.255 227.109 243.233 228.159 241.539 228.159C240.671 228.159 239.901 227.977 239.243 227.697L239.607 226.675C240.153 226.927 240.797 227.137 241.455 227.137C242.477 227.137 243.135 226.745 243.135 225.821C243.135 225.135 242.631 224.799 241.959 224.477L240.643 223.847C239.761 223.427 239.159 222.881 239.159 221.691C239.159 220.249 240.419 219.423 241.875 219.423C242.659 219.423 243.163 219.549 243.891 219.815L243.499 220.809C243.051 220.599 242.561 220.403 241.945 220.403C241.077 220.403 240.293 220.753 240.293 221.649C240.293 222.251 240.657 222.545 241.217 222.811L242.561 223.469C243.625 223.987 244.255 224.561 244.255 225.639ZM250.879 228.005H249.773V223.749C249.773 222.797 249.395 222.307 248.499 222.307C247.855 222.307 247.421 222.587 247.043 222.923V228.005H245.923V220.067L245.727 218.625L247.043 218.443V222.027H247.057C247.491 221.649 248.093 221.299 248.905 221.299C250.025 221.299 250.879 221.999 250.879 223.357V228.005ZM258.254 224.729C258.254 226.647 257.344 228.159 255.454 228.159C253.382 228.159 252.654 226.689 252.654 224.729C252.654 222.811 253.564 221.299 255.454 221.299C257.526 221.299 258.254 222.769 258.254 224.729ZM257.106 224.757C257.106 223.133 256.56 222.279 255.454 222.279C254.376 222.279 253.802 223.035 253.802 224.687C253.802 226.311 254.348 227.179 255.454 227.179C256.532 227.179 257.106 226.409 257.106 224.757ZM267.887 221.453L266.081 227.977L265.045 228.033L263.449 223.063H263.435L261.825 227.991L260.789 228.033L259.151 221.523L260.215 221.257L261.391 226.367H261.405L262.931 221.453H264.023L265.563 226.367H265.577L266.795 221.453H267.887ZM276.595 227.935L275.475 228.117L275.377 227.347H275.363C274.887 227.795 274.369 228.173 273.585 228.173C272.493 228.173 271.849 227.515 271.849 226.479C271.849 225.303 272.773 224.729 274.103 224.589L275.279 224.463V223.875C275.279 222.965 274.999 222.321 273.921 222.321C273.375 222.321 272.969 222.489 272.563 222.699L272.157 221.873C272.745 221.523 273.347 221.299 274.187 221.299C275.503 221.299 276.385 222.069 276.385 223.371V226.493L276.595 227.935ZM275.279 226.647V225.219L274.257 225.359C273.417 225.471 272.955 225.737 272.955 226.339C272.955 226.885 273.291 227.249 273.851 227.249C274.509 227.249 274.915 226.969 275.279 226.647ZM279.733 228.005H278.613V220.067L278.417 218.625L279.733 218.443V228.005ZM283.041 228.005H281.921V220.067L281.725 218.625L283.041 218.443V228.005Z" fill="#00157E"/>
<path d="M297.333 224.005H311.333" stroke="#00157E" stroke-width="2" stroke-linecap="round" stroke-linejoin="round"/>
<path d="M304.333 217.005L311.333 224.005L304.333 231.005" stroke="#00157E" stroke-width="2" stroke-linecap="round" stroke-linejoin="round"/>
</svg>
