<svg width="343" height="344" viewBox="0 0 343 344" fill="none" xmlns="http://www.w3.org/2000/svg">
<path d="M0 7.99999C0 3.58172 3.58172 0 8 0H335C339.418 0 343 3.58172 343 8V336.004C343 340.422 339.418 344.004 335 344.004H7.99999C3.58172 344.004 0 340.422 0 336.004V7.99999Z" fill="white"/>
<path d="M8 0.5H335C339.142 0.5 342.5 3.85786 342.5 8V336.004C342.5 340.146 339.142 343.504 335 343.504H8C3.85787 343.504 0.5 340.146 0.5 336.004V8C0.5 3.85787 3.85786 0.5 8 0.5Z" stroke="#00157E" stroke-opacity="0.2"/>
<path d="M25.061 29.221C25.061 31.941 22.821 33.621 20.201 33.621H20.021V38.001H17.381V26.081C17.381 26.081 18.961 25.841 20.641 25.841C23.461 25.841 25.061 27.021 25.061 29.221ZM22.501 29.501C22.501 28.261 21.741 27.821 20.661 27.821C20.321 27.821 20.021 27.861 20.021 27.861V31.641H20.201C21.461 31.641 22.501 30.901 22.501 29.501ZM34.5179 33.241C34.5179 36.081 33.0379 38.221 30.2579 38.221C27.2579 38.221 25.9979 36.101 25.9979 33.241C25.9979 30.401 27.4779 28.321 30.2579 28.321C33.2579 28.321 34.5179 30.381 34.5179 33.241ZM31.9979 33.261C31.9979 31.321 31.3579 30.541 30.2579 30.541C29.1579 30.541 28.5179 31.281 28.5179 33.221C28.5179 35.141 29.1579 36.001 30.2579 36.001C31.3579 36.001 31.9979 35.181 31.9979 33.261ZM42.5197 34.961C42.5197 36.781 41.0597 38.221 38.8597 38.221C37.7197 38.221 36.6997 38.041 35.8397 37.641L36.4997 35.561C37.2197 35.861 37.9197 36.161 38.7197 36.161C39.5797 36.161 39.9997 35.861 39.9997 35.361C39.9997 34.901 39.7797 34.721 39.2597 34.501L37.7797 33.881C36.8997 33.521 35.9397 32.861 35.9397 31.301C35.9397 29.341 37.5997 28.301 39.5797 28.301C40.6997 28.301 41.4597 28.481 42.3597 28.861L41.5797 30.901C40.9397 30.641 40.3197 30.381 39.5997 30.381C38.8197 30.381 38.3797 30.601 38.3797 31.121C38.3797 31.621 38.7797 31.801 39.1397 31.941L40.6797 32.561C41.8797 33.041 42.5197 33.801 42.5197 34.961ZM47.1266 38.001H44.5866V31.001L44.2666 28.661L47.1266 28.341V38.001ZM47.3666 25.881C47.3666 26.721 46.7066 27.401 45.8666 27.401C45.0266 27.401 44.3666 26.721 44.3666 25.881C44.3666 25.061 45.0266 24.381 45.8666 24.381C46.7066 24.381 47.3666 25.061 47.3666 25.881ZM55.5038 37.541C54.6838 37.981 54.0638 38.221 52.8038 38.221C50.9238 38.221 50.0038 36.961 50.0038 35.081V30.541H48.5438V28.861L50.0038 28.521V26.881L52.5238 26.581V28.541H55.1238V30.541H52.5238V34.401C52.5238 35.661 52.8438 35.981 53.6638 35.981C54.1238 35.981 54.3838 35.861 54.8238 35.661L55.5038 37.541ZM59.6852 38.001H57.1452V31.001L56.8252 28.661L59.6852 28.341V38.001ZM59.9252 25.881C59.9252 26.721 59.2652 27.401 58.4252 27.401C57.5852 27.401 56.9252 26.721 56.9252 25.881C56.9252 25.061 57.5852 24.381 58.4252 24.381C59.2652 24.381 59.9252 25.061 59.9252 25.881ZM70.1624 33.241C70.1624 36.081 68.6824 38.221 65.9024 38.221C62.9024 38.221 61.6424 36.101 61.6424 33.241C61.6424 30.401 63.1224 28.321 65.9024 28.321C68.9024 28.321 70.1624 30.381 70.1624 33.241ZM67.6424 33.261C67.6424 31.321 67.0024 30.541 65.9024 30.541C64.8024 30.541 64.1624 31.281 64.1624 33.221C64.1624 35.141 64.8024 36.001 65.9024 36.001C67.0024 36.001 67.6424 35.181 67.6424 33.261ZM80.1243 38.001H77.5843V32.001C77.5843 30.981 77.1643 30.521 76.2643 30.521C75.6043 30.521 75.0443 30.841 74.6843 31.201V38.001H72.1443V31.001L71.8243 28.661L74.2643 28.341L74.3843 29.381H74.4043C74.9643 28.821 75.9043 28.301 77.1643 28.301C78.8043 28.301 80.1243 29.241 80.1243 31.381V38.001ZM88.6525 34.961C88.6525 36.781 87.1925 38.221 84.9925 38.221C83.8525 38.221 82.8325 38.041 81.9725 37.641L82.6325 35.561C83.3525 35.861 84.0525 36.161 84.8525 36.161C85.7125 36.161 86.1325 35.861 86.1325 35.361C86.1325 34.901 85.9125 34.721 85.3925 34.501L83.9125 33.881C83.0325 33.521 82.0725 32.861 82.0725 31.301C82.0725 29.341 83.7325 28.301 85.7125 28.301C86.8325 28.301 87.5925 28.481 88.4925 28.861L87.7125 30.901C87.0725 30.641 86.4525 30.381 85.7325 30.381C84.9525 30.381 84.5125 30.601 84.5125 31.121C84.5125 31.621 84.9125 31.801 85.2725 31.941L86.8125 32.561C88.0125 33.041 88.6525 33.801 88.6525 34.961Z" fill="#00157E"/>
<path d="M232.999 20.001C232.999 17.7918 234.79 16.001 236.999 16.001H322.999C325.208 16.001 326.999 17.7918 326.999 20.001V44.001C326.999 46.2101 325.208 48.001 322.999 48.001H236.999C234.79 48.001 232.999 46.2101 232.999 44.001V20.001Z" fill="#00157E" fill-opacity="0.05"/>
<path d="M246.92 33.635C246.92 35.105 245.898 36.155 244.204 36.155C243.336 36.155 242.566 35.973 241.908 35.693L242.272 34.671C242.818 34.923 243.462 35.133 244.12 35.133C245.142 35.133 245.8 34.741 245.8 33.817C245.8 33.131 245.296 32.795 244.624 32.473L243.308 31.843C242.426 31.423 241.824 30.877 241.824 29.687C241.824 28.245 243.084 27.419 244.54 27.419C245.324 27.419 245.828 27.545 246.556 27.811L246.164 28.805C245.716 28.595 245.226 28.399 244.61 28.399C243.742 28.399 242.958 28.749 242.958 29.645C242.958 30.247 243.322 30.541 243.882 30.807L245.226 31.465C246.29 31.983 246.92 32.557 246.92 33.635ZM253.545 36.001H252.439V31.745C252.439 30.793 252.061 30.303 251.165 30.303C250.521 30.303 250.087 30.583 249.709 30.919V36.001H248.589V28.063L248.393 26.621L249.709 26.439V30.023H249.723C250.157 29.645 250.759 29.295 251.571 29.295C252.691 29.295 253.545 29.995 253.545 31.353V36.001ZM260.919 32.725C260.919 34.643 260.009 36.155 258.119 36.155C256.047 36.155 255.319 34.685 255.319 32.725C255.319 30.807 256.229 29.295 258.119 29.295C260.191 29.295 260.919 30.765 260.919 32.725ZM259.771 32.753C259.771 31.129 259.225 30.275 258.119 30.275C257.041 30.275 256.467 31.031 256.467 32.683C256.467 34.307 257.013 35.175 258.119 35.175C259.197 35.175 259.771 34.405 259.771 32.753ZM270.553 29.449L268.747 35.973L267.711 36.029L266.115 31.059H266.101L264.491 35.987L263.455 36.029L261.817 29.519L262.881 29.253L264.057 34.363H264.071L265.597 29.449H266.689L268.229 34.363H268.243L269.461 29.449H270.553ZM279.261 35.931L278.141 36.113L278.043 35.343H278.029C277.553 35.791 277.035 36.169 276.251 36.169C275.159 36.169 274.515 35.511 274.515 34.475C274.515 33.299 275.439 32.725 276.769 32.585L277.945 32.459V31.871C277.945 30.961 277.665 30.317 276.587 30.317C276.041 30.317 275.635 30.485 275.229 30.695L274.823 29.869C275.411 29.519 276.013 29.295 276.853 29.295C278.169 29.295 279.051 30.065 279.051 31.367V34.489L279.261 35.931ZM277.945 34.643V33.215L276.923 33.355C276.083 33.467 275.621 33.733 275.621 34.335C275.621 34.881 275.957 35.245 276.517 35.245C277.175 35.245 277.581 34.965 277.945 34.643ZM282.399 36.001H281.279V28.063L281.083 26.621L282.399 26.439V36.001ZM285.707 36.001H284.587V28.063L284.391 26.621L285.707 26.439V36.001Z" fill="#00157E"/>
<path d="M299.999 32.001H313.999" stroke="#00157E" stroke-width="2" stroke-linecap="round" stroke-linejoin="round"/>
<path d="M306.999 25.001L313.999 32.001L306.999 39.001" stroke="#00157E" stroke-width="2" stroke-linecap="round" stroke-linejoin="round"/>
<mask id="path-8-inside-1_820_126259" fill="white">
<path d="M0.000976562 64.002H342.999V152.002H0.000976562V64.002Z"/>
</mask>
<path d="M342.999 152.002V151.002H0.000976562V152.002V153.002H342.999V152.002Z" fill="#00157E" fill-opacity="0.2" mask="url(#path-8-inside-1_820_126259)"/>
<path d="M23.576 87.778L21.77 88.24L21.056 85.664H18.704L18.06 88.002H16.17L18.97 79.574H20.888L23.576 87.778ZM20.748 84.446L19.908 81.366H19.894L19.04 84.446H20.748ZM30.5879 85.37C30.5879 87.092 29.1879 88.002 26.6959 88.002H24.6379V79.644C24.6379 79.644 25.8279 79.49 27.0039 79.49C29.0479 79.49 29.9999 80.162 29.9999 81.436C29.9999 82.5 29.3139 83.018 28.4319 83.354V83.368C29.7199 83.508 30.5879 84.208 30.5879 85.37ZM28.6839 85.412C28.6839 84.614 28.0819 84.292 26.9479 84.292H26.4439V86.504H27.2699C28.1239 86.504 28.6839 86.126 28.6839 85.412ZM28.0959 81.856C28.0959 81.142 27.6339 80.876 26.8779 80.876C26.6259 80.876 26.4439 80.904 26.4439 80.904V83.018C27.3259 83.018 28.0959 82.766 28.0959 81.856ZM37.834 85.37C37.834 87.092 36.434 88.002 33.942 88.002H31.884V79.644C31.884 79.644 33.074 79.49 34.25 79.49C36.294 79.49 37.246 80.162 37.246 81.436C37.246 82.5 36.56 83.018 35.678 83.354V83.368C36.966 83.508 37.834 84.208 37.834 85.37ZM35.93 85.412C35.93 84.614 35.328 84.292 34.194 84.292H33.69V86.504H34.516C35.37 86.504 35.93 86.126 35.93 85.412ZM35.342 81.856C35.342 81.142 34.88 80.876 34.124 80.876C33.872 80.876 33.69 80.904 33.69 80.904V83.018C34.572 83.018 35.342 82.766 35.342 81.856ZM46.8995 88.002H42.0695V79.574H43.9595V86.42H46.8995V88.002ZM51.9391 87.68C51.3651 87.988 50.9311 88.156 50.0491 88.156C48.7331 88.156 48.0891 87.274 48.0891 85.958V82.78H47.0671V81.604L48.0891 81.366V80.218L49.8531 80.008V81.38H51.6731V82.78H49.8531V85.482C49.8531 86.364 50.0771 86.588 50.6511 86.588C50.9731 86.588 51.1551 86.504 51.4631 86.364L51.9391 87.68ZM58.3703 87.918L56.6763 88.128L56.5783 87.442H56.5643C56.3963 87.582 55.8503 88.17 54.9543 88.17C53.3023 88.17 52.4763 86.77 52.4763 84.922C52.4763 82.542 53.8343 81.324 55.7523 81.324C56.1023 81.324 56.3683 81.38 56.3683 81.38V80.288L56.1443 78.65L58.1463 78.426V86.28L58.3703 87.918ZM55.5003 86.588C55.9203 86.588 56.2423 86.406 56.3683 86.294V82.906C56.3683 82.906 56.1303 82.794 55.6963 82.794C54.8423 82.794 54.2683 83.466 54.2683 84.656C54.2683 85.986 54.6183 86.588 55.5003 86.588Z" fill="#00157E"/>
<path d="M21.728 101.636C21.728 103.106 20.706 104.156 19.012 104.156C18.144 104.156 17.374 103.974 16.716 103.694L17.08 102.672C17.626 102.924 18.27 103.134 18.928 103.134C19.95 103.134 20.608 102.742 20.608 101.818C20.608 101.132 20.104 100.796 19.432 100.474L18.116 99.844C17.234 99.424 16.632 98.878 16.632 97.688C16.632 96.246 17.892 95.42 19.348 95.42C20.132 95.42 20.636 95.546 21.364 95.812L20.972 96.806C20.524 96.596 20.034 96.4 19.418 96.4C18.55 96.4 17.766 96.75 17.766 97.646C17.766 98.248 18.13 98.542 18.69 98.808L20.034 99.466C21.098 99.984 21.728 100.558 21.728 101.636ZM26.7007 103.736C26.2947 103.96 25.9167 104.142 25.2027 104.142C24.1947 104.142 23.5507 103.484 23.5507 102.364V98.36H22.5847V97.618L23.5507 97.422V96.33L24.6567 96.19V97.45H26.4907V98.36H24.6567V101.986C24.6567 102.868 24.8807 103.148 25.5247 103.148C25.8747 103.148 26.1407 103.008 26.3367 102.882L26.7007 103.736ZM31.1362 98.416C30.3802 98.416 29.8202 98.612 29.3162 99.074V104.002H28.1962V98.962L28.0002 97.52L29.1062 97.338L29.2182 98.234H29.2322C29.6802 97.73 30.2682 97.31 31.1362 97.31V98.416ZM37.6688 103.932L36.5628 104.114L36.4508 103.358H36.4368C35.9468 103.82 35.3028 104.156 34.4908 104.156C33.3848 104.156 32.5028 103.442 32.5028 102.098V98.962L32.3068 97.52L33.6228 97.338V101.706C33.6228 102.672 33.9868 103.176 34.8688 103.176C35.4988 103.176 35.9468 102.91 36.3528 102.532V98.962L36.1568 97.52L37.4728 97.338V102.49L37.6688 103.932ZM43.9359 97.576L43.5859 98.584C43.2219 98.444 42.8159 98.318 42.3539 98.318C41.1219 98.318 40.3799 99.242 40.3799 100.628C40.3799 102.378 41.0659 103.176 42.3259 103.176C42.7739 103.176 43.1379 103.022 43.5019 102.868L43.8799 103.778C43.3339 104.03 42.7319 104.156 42.1019 104.156C40.2259 104.156 39.2599 102.812 39.2599 100.81C39.2599 98.402 40.7439 97.296 42.4099 97.296C42.9839 97.296 43.4739 97.394 43.9359 97.576ZM48.8901 103.736C48.4841 103.96 48.1061 104.142 47.3921 104.142C46.3841 104.142 45.7401 103.484 45.7401 102.364V98.36H44.7741V97.618L45.7401 97.422V96.33L46.8461 96.19V97.45H48.6801V98.36H46.8461V101.986C46.8461 102.868 47.0701 103.148 47.7141 103.148C48.0641 103.148 48.3301 103.008 48.5261 102.882L48.8901 103.736ZM55.5516 103.932L54.4456 104.114L54.3336 103.358H54.3196C53.8296 103.82 53.1856 104.156 52.3736 104.156C51.2676 104.156 50.3856 103.442 50.3856 102.098V98.962L50.1896 97.52L51.5056 97.338V101.706C51.5056 102.672 51.8696 103.176 52.7516 103.176C53.3816 103.176 53.8296 102.91 54.2356 102.532V98.962L54.0396 97.52L55.3556 97.338V102.49L55.5516 103.932ZM60.5307 98.416C59.7747 98.416 59.2147 98.612 58.7107 99.074V104.002H57.5907V98.962L57.3947 97.52L58.5007 97.338L58.6127 98.234H58.6267C59.0747 97.73 59.6627 97.31 60.5307 97.31V98.416ZM66.2833 103.652C65.6533 104.002 65.0093 104.156 64.2113 104.156C62.2793 104.156 61.2853 102.854 61.2853 100.684C61.2853 98.654 62.3493 97.296 64.0013 97.296C65.5833 97.296 66.2273 98.346 66.2273 99.788V100.572H62.3773C62.3913 102.322 63.0213 103.162 64.4493 103.162C64.9953 103.162 65.4153 103.008 65.8913 102.77L66.2833 103.652ZM65.1773 99.788C65.1773 98.808 64.8133 98.192 63.9453 98.192C63.1053 98.192 62.5733 98.85 62.4333 99.788H65.1773ZM72.868 103.96L71.79 104.114L71.692 103.456H71.678C71.258 103.806 70.684 104.156 69.914 104.156C68.472 104.156 67.506 102.966 67.506 101.02C67.506 98.766 68.668 97.38 70.656 97.38C71.188 97.38 71.566 97.478 71.566 97.478V96.064L71.356 94.622L72.672 94.44V102.518L72.868 103.96ZM70.306 103.176C70.852 103.176 71.23 102.952 71.566 102.686V98.5C71.566 98.5 71.202 98.318 70.558 98.318C69.284 98.318 68.654 99.396 68.654 100.67C68.654 102.252 69.074 103.176 70.306 103.176ZM83.0044 100.404C83.0044 102.532 82.0804 104.072 79.8964 104.072C79.5324 104.072 79.2384 104.044 78.9724 103.974V106.774L77.8524 106.956V98.962L77.6564 97.52L78.7624 97.338L78.8604 98.01H78.8744C79.3084 97.646 79.8824 97.296 80.6384 97.296C82.2344 97.296 83.0044 98.5 83.0044 100.404ZM81.8844 100.726C81.8844 99.298 81.5624 98.304 80.2604 98.304C79.7004 98.304 79.2944 98.542 78.9724 98.808V102.938C79.2384 103.05 79.5464 103.12 79.9804 103.12C81.1984 103.12 81.8844 102.168 81.8844 100.726ZM87.7241 98.416C86.9681 98.416 86.4081 98.612 85.9041 99.074V104.002H84.7841V98.962L84.5881 97.52L85.6941 97.338L85.8061 98.234H85.8201C86.2681 97.73 86.8561 97.31 87.7241 97.31V98.416ZM94.0786 100.726C94.0786 102.644 93.1686 104.156 91.2786 104.156C89.2066 104.156 88.4786 102.686 88.4786 100.726C88.4786 98.808 89.3886 97.296 91.2786 97.296C93.3506 97.296 94.0786 98.766 94.0786 100.726ZM92.9306 100.754C92.9306 99.13 92.3846 98.276 91.2786 98.276C90.2006 98.276 89.6266 99.032 89.6266 100.684C89.6266 102.308 90.1726 103.176 91.2786 103.176C92.3566 103.176 92.9306 102.406 92.9306 100.754ZM100.772 103.96L99.6943 104.114L99.5963 103.456H99.5823C99.1623 103.806 98.5883 104.156 97.8183 104.156C96.3763 104.156 95.4103 102.966 95.4103 101.02C95.4103 98.766 96.5723 97.38 98.5603 97.38C99.0923 97.38 99.4703 97.478 99.4703 97.478V96.064L99.2603 94.622L100.576 94.44V102.518L100.772 103.96ZM98.2103 103.176C98.7563 103.176 99.1343 102.952 99.4703 102.686V98.5C99.4703 98.5 99.1063 98.318 98.4623 98.318C97.1883 98.318 96.5583 99.396 96.5583 100.67C96.5583 102.252 96.9783 103.176 98.2103 103.176ZM107.983 103.932L106.877 104.114L106.765 103.358H106.751C106.261 103.82 105.617 104.156 104.805 104.156C103.699 104.156 102.817 103.442 102.817 102.098V98.962L102.621 97.52L103.937 97.338V101.706C103.937 102.672 104.301 103.176 105.183 103.176C105.813 103.176 106.261 102.91 106.667 102.532V98.962L106.471 97.52L107.787 97.338V102.49L107.983 103.932ZM114.25 97.576L113.9 98.584C113.536 98.444 113.13 98.318 112.668 98.318C111.436 98.318 110.694 99.242 110.694 100.628C110.694 102.378 111.38 103.176 112.64 103.176C113.088 103.176 113.452 103.022 113.816 102.868L114.194 103.778C113.648 104.03 113.046 104.156 112.416 104.156C110.54 104.156 109.574 102.812 109.574 100.81C109.574 98.402 111.058 97.296 112.724 97.296C113.298 97.296 113.788 97.394 114.25 97.576ZM119.205 103.736C118.799 103.96 118.421 104.142 117.707 104.142C116.699 104.142 116.055 103.484 116.055 102.364V98.36H115.089V97.618L116.055 97.422V96.33L117.161 96.19V97.45H118.995V98.36H117.161V101.986C117.161 102.868 117.385 103.148 118.029 103.148C118.379 103.148 118.645 103.008 118.841 102.882L119.205 103.736Z" fill="#00157E" fill-opacity="0.7"/>
<g clip-path="url(#clip0_820_126259)">
<path d="M39.002 118.002L29.502 127.502L24.502 122.502L17.002 130.002" stroke="#00157E" stroke-width="2" stroke-linecap="round" stroke-linejoin="round"/>
<path d="M33.002 118.002H39.002V124.002" stroke="#00157E" stroke-width="2" stroke-linecap="round" stroke-linejoin="round"/>
</g>
<path d="M62.022 124.39H59.656V126.742H58.732V124.39H56.38V123.466H58.732V121.114H59.656V123.466H62.022V124.39ZM65.2987 128.002H64.1927V121.814L62.9607 121.982L62.8347 121.128L65.2987 120.736V128.002ZM68.8279 120.372C68.8279 121.394 68.4079 122.178 67.5539 122.682L67.2319 122.262C67.6519 121.954 67.8759 121.562 67.9459 121.058C67.5539 121.002 67.2179 120.666 67.2179 120.26C67.2179 119.798 67.5819 119.448 68.0299 119.448C68.4779 119.448 68.8279 119.812 68.8279 120.372ZM75.3731 128.002H70.1791V127.274L72.5731 124.978C73.2171 124.348 73.7071 123.886 73.7071 123.116C73.7071 122.304 73.2031 121.702 72.2651 121.702C71.6351 121.702 71.1871 121.982 70.8511 122.262L70.3191 121.52C70.9211 121.016 71.5371 120.708 72.5031 120.708C73.8891 120.708 74.8411 121.52 74.8411 122.99C74.8411 123.97 74.2531 124.712 73.5811 125.328L71.7891 126.98V126.994H75.3731V128.002ZM82.2528 124.432C82.2528 126.294 81.5248 128.156 79.4108 128.156C77.2828 128.156 76.5548 126.294 76.5548 124.432C76.5548 122.57 77.2828 120.708 79.4108 120.708C81.5248 120.708 82.2528 122.57 82.2528 124.432ZM81.1048 124.432C81.1048 122.864 80.5868 121.688 79.4108 121.688C78.2208 121.688 77.7028 122.864 77.7028 124.432C77.7028 126 78.2208 127.176 79.4108 127.176C80.5868 127.176 81.1048 126 81.1048 124.432ZM89.4579 124.432C89.4579 126.294 88.7299 128.156 86.6159 128.156C84.4879 128.156 83.7599 126.294 83.7599 124.432C83.7599 122.57 84.4879 120.708 86.6159 120.708C88.7299 120.708 89.4579 122.57 89.4579 124.432ZM88.3099 124.432C88.3099 122.864 87.7919 121.688 86.6159 121.688C85.4259 121.688 84.9079 122.864 84.9079 124.432C84.9079 126 85.4259 127.176 86.6159 127.176C87.7919 127.176 88.3099 126 88.3099 124.432ZM92.617 127.288C92.617 127.736 92.253 128.1 91.819 128.1C91.371 128.1 91.007 127.736 91.007 127.288C91.007 126.854 91.371 126.49 91.819 126.49C92.253 126.49 92.617 126.854 92.617 127.288ZM99.0502 125.958C99.0502 127.302 98.0282 128.156 96.5862 128.156C95.1162 128.156 94.1222 127.414 94.1222 126.042C94.1222 124.81 95.0322 124.068 95.7322 123.592C94.8922 123.004 94.3322 122.5 94.3322 121.45C94.3322 120.26 95.3122 119.42 96.5722 119.42C97.9302 119.42 98.8122 120.176 98.8122 121.352C98.8122 122.36 98.1122 123.004 97.4262 123.48C98.3222 124.082 99.0502 124.684 99.0502 125.958ZM97.9722 125.958C97.9722 125.048 97.3422 124.586 96.5022 124.04C95.7602 124.544 95.1862 124.978 95.1862 125.902C95.1862 126.742 95.7462 127.218 96.6002 127.218C97.5102 127.218 97.9722 126.658 97.9722 125.958ZM97.8182 121.478C97.8182 120.764 97.3422 120.302 96.5862 120.302C95.8302 120.302 95.3402 120.792 95.3402 121.492C95.3402 122.15 95.8862 122.528 96.6422 123.046C97.2442 122.654 97.8182 122.15 97.8182 121.478ZM105.688 125.44C105.688 127.092 104.708 128.156 103.126 128.156C101.334 128.156 100.578 126.826 100.578 124.852C100.578 121.044 102.818 119.476 105.254 119.28L105.394 120.204C103.714 120.386 102.034 121.296 101.712 123.634L101.726 123.648C101.726 123.648 102.44 123.032 103.406 123.032C104.876 123.032 105.688 123.97 105.688 125.44ZM104.582 125.664C104.582 124.474 104.12 123.97 103.098 123.97C102.3 123.97 101.712 124.53 101.712 124.53V124.796C101.712 126.364 102.118 127.232 103.224 127.232C104.148 127.232 104.582 126.574 104.582 125.664Z" fill="#00157E"/>
<path d="M117.96 127.568C117.176 127.974 116.378 128.156 115.314 128.156C113.256 128.156 111.674 126.77 111.674 123.97C111.674 120.988 113.438 119.42 115.706 119.42C116.644 119.42 117.218 119.56 117.932 119.868L117.484 120.89C116.952 120.652 116.448 120.47 115.692 120.47C114.222 120.47 112.878 121.604 112.878 123.676C112.878 125.986 113.732 127.12 115.776 127.12C116.448 127.12 117.064 126.854 117.568 126.63L117.96 127.568ZM125.57 128.002H124.394V124.152H120.6V128.002H119.424V119.574H120.6V123.158H124.394V119.574H125.57V128.002ZM132.086 120.568H129.062V123.312H131.792V124.306H129.062V128.002H127.9V119.574H132.086V120.568Z" fill="#00157E" fill-opacity="0.7"/>
<path d="M155.022 124.39H152.656V126.742H151.732V124.39H149.38V123.466H151.732V121.114H152.656V123.466H155.022V124.39ZM158.299 128.002H157.193V121.814L155.961 121.982L155.835 121.128L158.299 120.736V128.002ZM165.174 128.002H159.98V127.274L162.374 124.978C163.018 124.348 163.508 123.886 163.508 123.116C163.508 122.304 163.004 121.702 162.066 121.702C161.436 121.702 160.988 121.982 160.652 122.262L160.12 121.52C160.722 121.016 161.338 120.708 162.304 120.708C163.69 120.708 164.642 121.52 164.642 122.99C164.642 123.97 164.054 124.712 163.382 125.328L161.59 126.98V126.994H165.174V128.002ZM168.008 127.288C168.008 127.736 167.644 128.1 167.21 128.1C166.762 128.1 166.398 127.736 166.398 127.288C166.398 126.854 166.762 126.49 167.21 126.49C167.644 126.49 168.008 126.854 168.008 127.288ZM174.441 125.958C174.441 127.302 173.419 128.156 171.977 128.156C170.507 128.156 169.513 127.414 169.513 126.042C169.513 124.81 170.423 124.068 171.123 123.592C170.283 123.004 169.723 122.5 169.723 121.45C169.723 120.26 170.703 119.42 171.963 119.42C173.321 119.42 174.203 120.176 174.203 121.352C174.203 122.36 173.503 123.004 172.817 123.48C173.713 124.082 174.441 124.684 174.441 125.958ZM173.363 125.958C173.363 125.048 172.733 124.586 171.893 124.04C171.151 124.544 170.577 124.978 170.577 125.902C170.577 126.742 171.137 127.218 171.991 127.218C172.901 127.218 173.363 126.658 173.363 125.958ZM173.209 121.478C173.209 120.764 172.733 120.302 171.977 120.302C171.221 120.302 170.731 120.792 170.731 121.492C170.731 122.15 171.277 122.528 172.033 123.046C172.635 122.654 173.209 122.15 173.209 121.478ZM181.078 125.44C181.078 127.092 180.098 128.156 178.516 128.156C176.724 128.156 175.968 126.826 175.968 124.852C175.968 121.044 178.208 119.476 180.644 119.28L180.784 120.204C179.104 120.386 177.424 121.296 177.102 123.634L177.116 123.648C177.116 123.648 177.83 123.032 178.796 123.032C180.266 123.032 181.078 123.97 181.078 125.44ZM179.972 125.664C179.972 124.474 179.51 123.97 178.488 123.97C177.69 123.97 177.102 124.53 177.102 124.53V124.796C177.102 126.364 177.508 127.232 178.614 127.232C179.538 127.232 179.972 126.574 179.972 125.664Z" fill="#00157E"/>
<path d="M191.07 121.618C191.07 122.878 190.104 123.844 188.844 123.844C187.584 123.844 186.618 122.878 186.618 121.618C186.618 120.358 187.584 119.42 188.844 119.42C190.104 119.42 191.07 120.358 191.07 121.618ZM197.286 125.944C197.286 127.204 196.32 128.156 195.06 128.156C193.8 128.156 192.834 127.204 192.834 125.944C192.834 124.698 193.8 123.746 195.06 123.746C196.32 123.746 197.286 124.698 197.286 125.944ZM194.71 119.77L190.076 128.282L189.222 127.82L193.856 119.308L194.71 119.77ZM196.264 125.944C196.264 125.23 195.774 124.74 195.06 124.74C194.346 124.74 193.856 125.23 193.856 125.944C193.856 126.644 194.346 127.176 195.06 127.176C195.774 127.176 196.264 126.644 196.264 125.944ZM190.034 121.618C190.034 120.904 189.558 120.414 188.844 120.414C188.13 120.414 187.64 120.904 187.64 121.618C187.64 122.332 188.13 122.85 188.844 122.85C189.558 122.85 190.034 122.332 190.034 121.618Z" fill="#00157E" fill-opacity="0.7"/>
<path d="M259.962 86.63C259.29 86.978 258.606 87.134 257.694 87.134C255.93 87.134 254.574 85.946 254.574 83.546C254.574 80.99 256.086 79.646 258.03 79.646C258.834 79.646 259.326 79.766 259.938 80.03L259.554 80.906C259.098 80.702 258.666 80.546 258.018 80.546C256.758 80.546 255.606 81.518 255.606 83.294C255.606 85.274 256.338 86.246 258.09 86.246C258.666 86.246 259.194 86.018 259.626 85.826L259.962 86.63ZM266.485 87.002H265.477V83.702H262.225V87.002H261.217V79.778H262.225V82.85H265.477V79.778H266.485V87.002ZM272.07 80.63H269.478V82.982H271.818V83.834H269.478V87.002H268.482V79.778H272.07V80.63Z" fill="#00157E" fill-opacity="0.7"/>
<path d="M284.997 88.002H283.219V82.332L281.987 82.5L281.777 81.24L284.997 80.722V88.002ZM288.727 80.596C288.727 82.024 288.153 82.822 287.117 83.564L286.613 83.018C287.103 82.598 287.425 82.15 287.537 81.534C287.019 81.478 286.599 81.016 286.599 80.484C286.599 79.91 287.075 79.434 287.649 79.434C288.251 79.434 288.727 79.882 288.727 80.596ZM296.009 84.432C296.009 86.392 295.155 88.17 292.999 88.17C290.843 88.17 289.989 86.392 289.989 84.432C289.989 82.472 290.843 80.694 292.999 80.694C295.155 80.694 296.009 82.472 296.009 84.432ZM294.217 84.432C294.217 83.088 293.839 82.276 292.999 82.276C292.173 82.276 291.781 83.088 291.781 84.432C291.781 85.776 292.173 86.588 292.999 86.588C293.839 86.588 294.217 85.776 294.217 84.432ZM303.255 84.432C303.255 86.392 302.401 88.17 300.245 88.17C298.089 88.17 297.235 86.392 297.235 84.432C297.235 82.472 298.089 80.694 300.245 80.694C302.401 80.694 303.255 82.472 303.255 84.432ZM301.463 84.432C301.463 83.088 301.085 82.276 300.245 82.276C299.419 82.276 299.027 83.088 299.027 84.432C299.027 85.776 299.419 86.588 300.245 86.588C301.085 86.588 301.463 85.776 301.463 84.432ZM309.703 85.734C309.703 87.078 308.709 88.17 307.099 88.17C305.391 88.17 304.453 87.386 304.453 85.944C304.453 84.88 305.181 84.166 305.797 83.704C305.167 83.214 304.635 82.64 304.635 81.632C304.635 80.274 305.783 79.406 307.043 79.406C308.401 79.406 309.437 80.148 309.437 81.45C309.437 82.374 308.849 83.004 308.289 83.452C309.003 83.942 309.703 84.6 309.703 85.734ZM308.135 85.804C308.135 85.118 307.519 84.698 306.931 84.334C306.441 84.698 306.035 85.09 306.035 85.762C306.035 86.434 306.483 86.784 307.127 86.784C307.771 86.784 308.135 86.336 308.135 85.804ZM307.953 81.618C307.953 81.072 307.617 80.736 307.057 80.736C306.525 80.736 306.203 81.1 306.203 81.632C306.203 82.15 306.651 82.486 307.155 82.822C307.575 82.514 307.953 82.136 307.953 81.618ZM313.077 87.05C313.077 87.638 312.601 88.114 312.013 88.114C311.425 88.114 310.949 87.638 310.949 87.05C310.949 86.476 311.425 86 312.013 86C312.601 86 313.077 86.476 313.077 87.05ZM319.267 86.56C319.267 89.066 317.125 90.046 314.619 90.34L314.353 88.828C315.529 88.646 317.447 88.24 317.447 86.742C317.447 85.804 316.761 85.342 315.179 85.342H314.353L314.619 80.862H319.015V82.458H316.089L315.991 84.11C315.991 84.11 316.257 84.096 316.537 84.096C318.245 84.096 319.267 84.936 319.267 86.56ZM326.388 84.432C326.388 86.392 325.534 88.17 323.378 88.17C321.222 88.17 320.368 86.392 320.368 84.432C320.368 82.472 321.222 80.694 323.378 80.694C325.534 80.694 326.388 82.472 326.388 84.432ZM324.596 84.432C324.596 83.088 324.218 82.276 323.378 82.276C322.552 82.276 322.16 83.088 322.16 84.432C322.16 85.776 322.552 86.588 323.378 86.588C324.218 86.588 324.596 85.776 324.596 84.432Z" fill="#00157E"/>
<path d="M297.374 100.418C297.374 102.242 296.582 103.562 294.71 103.562C294.398 103.562 294.146 103.538 293.918 103.478V105.878L292.958 106.034V99.182L292.79 97.946L293.738 97.79L293.822 98.366H293.834C294.206 98.054 294.698 97.754 295.346 97.754C296.714 97.754 297.374 98.786 297.374 100.418ZM296.414 100.694C296.414 99.47 296.138 98.618 295.022 98.618C294.542 98.618 294.194 98.822 293.918 99.05V102.59C294.146 102.686 294.41 102.746 294.782 102.746C295.826 102.746 296.414 101.93 296.414 100.694ZM302.523 97.994L302.223 98.858C301.911 98.738 301.563 98.63 301.167 98.63C300.111 98.63 299.475 99.422 299.475 100.61C299.475 102.11 300.063 102.794 301.143 102.794C301.527 102.794 301.839 102.662 302.151 102.53L302.475 103.31C302.007 103.526 301.491 103.634 300.951 103.634C299.343 103.634 298.515 102.482 298.515 100.766C298.515 98.702 299.787 97.754 301.215 97.754C301.707 97.754 302.127 97.838 302.523 97.994ZM307.097 101.87C307.097 102.89 306.293 103.622 305.093 103.622C304.517 103.622 303.941 103.538 303.485 103.322L303.773 102.482C304.169 102.662 304.613 102.806 305.045 102.806C305.693 102.806 306.125 102.554 306.125 102.026C306.125 101.618 305.909 101.45 305.537 101.282L304.493 100.802C304.121 100.634 303.449 100.298 303.449 99.326C303.449 98.258 304.385 97.754 305.405 97.754C306.017 97.754 306.449 97.85 306.929 98.054L306.605 98.882C306.221 98.714 305.849 98.594 305.393 98.594C304.781 98.594 304.385 98.786 304.385 99.266C304.385 99.686 304.745 99.854 304.973 99.962L306.041 100.466C306.785 100.814 307.097 101.258 307.097 101.87ZM309.718 102.89C309.718 103.274 309.406 103.586 309.034 103.586C308.65 103.586 308.338 103.274 308.338 102.89C308.338 102.518 308.65 102.206 309.034 102.206C309.406 102.206 309.718 102.518 309.718 102.89Z" fill="#00157E" fill-opacity="0.7"/>
<path d="M317.91 104.002H316.804V97.814L315.572 97.982L315.446 97.128L317.91 96.736V104.002ZM325.485 100.432C325.485 102.294 324.757 104.156 322.643 104.156C320.515 104.156 319.787 102.294 319.787 100.432C319.787 98.57 320.515 96.708 322.643 96.708C324.757 96.708 325.485 98.57 325.485 100.432ZM324.337 100.432C324.337 98.864 323.819 97.688 322.643 97.688C321.453 97.688 320.935 98.864 320.935 100.432C320.935 102 321.453 103.176 322.643 103.176C323.819 103.176 324.337 102 324.337 100.432Z" fill="#00157E"/>
<path d="M257.962 119.13C257.29 119.478 256.606 119.634 255.694 119.634C253.93 119.634 252.574 118.446 252.574 116.046C252.574 113.49 254.086 112.146 256.03 112.146C256.834 112.146 257.326 112.266 257.938 112.53L257.554 113.406C257.098 113.202 256.666 113.046 256.018 113.046C254.758 113.046 253.606 114.018 253.606 115.794C253.606 117.774 254.338 118.746 256.09 118.746C256.666 118.746 257.194 118.518 257.626 118.326L257.962 119.13ZM264.485 119.502H263.477V116.202H260.225V119.502H259.217V112.278H260.225V115.35H263.477V112.278H264.485V119.502ZM270.07 113.13H267.478V115.482H269.818V116.334H267.478V119.502H266.482V112.278H270.07V113.13Z" fill="#00157E" fill-opacity="0.7"/>
<path d="M277.91 120.002H276.804V113.814L275.572 113.982L275.446 113.128L277.91 112.736V120.002ZM285.485 116.432C285.485 118.294 284.757 120.156 282.643 120.156C280.515 120.156 279.787 118.294 279.787 116.432C279.787 114.57 280.515 112.708 282.643 112.708C284.757 112.708 285.485 114.57 285.485 116.432ZM284.337 116.432C284.337 114.864 283.819 113.688 282.643 113.688C281.453 113.688 280.935 114.864 280.935 116.432C280.935 118 281.453 119.176 282.643 119.176C283.819 119.176 284.337 118 284.337 116.432ZM288.644 112.372C288.644 113.394 288.224 114.178 287.37 114.682L287.048 114.262C287.468 113.954 287.692 113.562 287.762 113.058C287.37 113.002 287.034 112.666 287.034 112.26C287.034 111.798 287.398 111.448 287.846 111.448C288.294 111.448 288.644 111.812 288.644 112.372ZM295.078 117.958C295.078 119.302 294.056 120.156 292.614 120.156C291.144 120.156 290.15 119.414 290.15 118.042C290.15 116.81 291.06 116.068 291.76 115.592C290.92 115.004 290.36 114.5 290.36 113.45C290.36 112.26 291.34 111.42 292.6 111.42C293.958 111.42 294.84 112.176 294.84 113.352C294.84 114.36 294.14 115.004 293.454 115.48C294.35 116.082 295.078 116.684 295.078 117.958ZM294 117.958C294 117.048 293.37 116.586 292.53 116.04C291.788 116.544 291.214 116.978 291.214 117.902C291.214 118.742 291.774 119.218 292.628 119.218C293.538 119.218 294 118.658 294 117.958ZM293.846 113.478C293.846 112.764 293.37 112.302 292.614 112.302C291.858 112.302 291.368 112.792 291.368 113.492C291.368 114.15 291.914 114.528 292.67 115.046C293.272 114.654 293.846 114.15 293.846 113.478ZM302.247 116.432C302.247 118.294 301.519 120.156 299.405 120.156C297.277 120.156 296.549 118.294 296.549 116.432C296.549 114.57 297.277 112.708 299.405 112.708C301.519 112.708 302.247 114.57 302.247 116.432ZM301.099 116.432C301.099 114.864 300.581 113.688 299.405 113.688C298.215 113.688 297.697 114.864 297.697 116.432C297.697 118 298.215 119.176 299.405 119.176C300.581 119.176 301.099 118 301.099 116.432ZM308.29 118.742C308.29 121.43 305.756 122.186 303.95 122.326L303.81 121.374C305.084 121.234 307.142 120.73 307.142 118.896C307.142 117.748 306.498 117.076 304.706 117.076H303.768L304.076 112.862H308.066V113.884H305.042L304.86 116.236C304.86 116.236 305.182 116.208 305.476 116.208C307.1 116.208 308.29 117.062 308.29 118.742ZM311.326 119.288C311.326 119.736 310.962 120.1 310.528 120.1C310.08 120.1 309.716 119.736 309.716 119.288C309.716 118.854 310.08 118.49 310.528 118.49C310.962 118.49 311.326 118.854 311.326 119.288ZM318.571 116.432C318.571 118.294 317.843 120.156 315.729 120.156C313.601 120.156 312.873 118.294 312.873 116.432C312.873 114.57 313.601 112.708 315.729 112.708C317.843 112.708 318.571 114.57 318.571 116.432ZM317.423 116.432C317.423 114.864 316.905 113.688 315.729 113.688C314.539 113.688 314.021 114.864 314.021 116.432C314.021 118 314.539 119.176 315.729 119.176C316.905 119.176 317.423 118 317.423 116.432ZM325.776 116.432C325.776 118.294 325.048 120.156 322.934 120.156C320.806 120.156 320.078 118.294 320.078 116.432C320.078 114.57 320.806 112.708 322.934 112.708C325.048 112.708 325.776 114.57 325.776 116.432ZM324.628 116.432C324.628 114.864 324.11 113.688 322.934 113.688C321.744 113.688 321.226 114.864 321.226 116.432C321.226 118 321.744 119.176 322.934 119.176C324.11 119.176 324.628 118 324.628 116.432Z" fill="#00157E"/>
<mask id="path-24-inside-2_820_126259" fill="white">
<path d="M0.000976562 152.003H342.999V240.003H0.000976562V152.003Z"/>
</mask>
<path d="M342.999 240.003V239.003H0.000976562V240.003V241.003H342.999V240.003Z" fill="#00157E" fill-opacity="0.2" mask="url(#path-24-inside-2_820_126259)"/>
<path d="M23.576 175.779L21.77 176.241L21.056 173.665H18.704L18.06 176.003H16.17L18.97 167.575H20.888L23.576 175.779ZM20.748 172.447L19.908 169.367H19.894L19.04 172.447H20.748ZM30.5879 173.371C30.5879 175.093 29.1879 176.003 26.6959 176.003H24.6379V167.645C24.6379 167.645 25.8279 167.491 27.0039 167.491C29.0479 167.491 29.9999 168.163 29.9999 169.437C29.9999 170.501 29.3139 171.019 28.4319 171.355V171.369C29.7199 171.509 30.5879 172.209 30.5879 173.371ZM28.6839 173.413C28.6839 172.615 28.0819 172.293 26.9479 172.293H26.4439V174.505H27.2699C28.1239 174.505 28.6839 174.127 28.6839 173.413ZM28.0959 169.857C28.0959 169.143 27.6339 168.877 26.8779 168.877C26.6259 168.877 26.4439 168.905 26.4439 168.905V171.019C27.3259 171.019 28.0959 170.767 28.0959 169.857ZM37.834 173.371C37.834 175.093 36.434 176.003 33.942 176.003H31.884V167.645C31.884 167.645 33.074 167.491 34.25 167.491C36.294 167.491 37.246 168.163 37.246 169.437C37.246 170.501 36.56 171.019 35.678 171.355V171.369C36.966 171.509 37.834 172.209 37.834 173.371ZM35.93 173.413C35.93 172.615 35.328 172.293 34.194 172.293H33.69V174.505H34.516C35.37 174.505 35.93 174.127 35.93 173.413ZM35.342 169.857C35.342 169.143 34.88 168.877 34.124 168.877C33.872 168.877 33.69 168.905 33.69 168.905V171.019C34.572 171.019 35.342 170.767 35.342 169.857ZM46.8995 176.003H42.0695V167.575H43.9595V174.421H46.8995V176.003ZM51.9391 175.681C51.3651 175.989 50.9311 176.157 50.0491 176.157C48.7331 176.157 48.0891 175.275 48.0891 173.959V170.781H47.0671V169.605L48.0891 169.367V168.219L49.8531 168.009V169.381H51.6731V170.781H49.8531V173.483C49.8531 174.365 50.0771 174.589 50.6511 174.589C50.9731 174.589 51.1551 174.505 51.4631 174.365L51.9391 175.681ZM58.3703 175.919L56.6763 176.129L56.5783 175.443H56.5643C56.3963 175.583 55.8503 176.171 54.9543 176.171C53.3023 176.171 52.4763 174.771 52.4763 172.923C52.4763 170.543 53.8343 169.325 55.7523 169.325C56.1023 169.325 56.3683 169.381 56.3683 169.381V168.289L56.1443 166.651L58.1463 166.427V174.281L58.3703 175.919ZM55.5003 174.589C55.9203 174.589 56.2423 174.407 56.3683 174.295V170.907C56.3683 170.907 56.1303 170.795 55.6963 170.795C54.8423 170.795 54.2683 171.467 54.2683 172.657C54.2683 173.987 54.6183 174.589 55.5003 174.589Z" fill="#00157E"/>
<path d="M21.728 189.637C21.728 191.107 20.706 192.157 19.012 192.157C18.144 192.157 17.374 191.975 16.716 191.695L17.08 190.673C17.626 190.925 18.27 191.135 18.928 191.135C19.95 191.135 20.608 190.743 20.608 189.819C20.608 189.133 20.104 188.797 19.432 188.475L18.116 187.845C17.234 187.425 16.632 186.879 16.632 185.689C16.632 184.247 17.892 183.421 19.348 183.421C20.132 183.421 20.636 183.547 21.364 183.813L20.972 184.807C20.524 184.597 20.034 184.401 19.418 184.401C18.55 184.401 17.766 184.751 17.766 185.647C17.766 186.249 18.13 186.543 18.69 186.809L20.034 187.467C21.098 187.985 21.728 188.559 21.728 189.637ZM26.7007 191.737C26.2947 191.961 25.9167 192.143 25.2027 192.143C24.1947 192.143 23.5507 191.485 23.5507 190.365V186.361H22.5847V185.619L23.5507 185.423V184.331L24.6567 184.191V185.451H26.4907V186.361H24.6567V189.987C24.6567 190.869 24.8807 191.149 25.5247 191.149C25.8747 191.149 26.1407 191.009 26.3367 190.883L26.7007 191.737ZM31.1362 186.417C30.3802 186.417 29.8202 186.613 29.3162 187.075V192.003H28.1962V186.963L28.0002 185.521L29.1062 185.339L29.2182 186.235H29.2322C29.6802 185.731 30.2682 185.311 31.1362 185.311V186.417ZM37.6688 191.933L36.5628 192.115L36.4508 191.359H36.4368C35.9468 191.821 35.3028 192.157 34.4908 192.157C33.3848 192.157 32.5028 191.443 32.5028 190.099V186.963L32.3068 185.521L33.6228 185.339V189.707C33.6228 190.673 33.9868 191.177 34.8688 191.177C35.4988 191.177 35.9468 190.911 36.3528 190.533V186.963L36.1568 185.521L37.4728 185.339V190.491L37.6688 191.933ZM43.9359 185.577L43.5859 186.585C43.2219 186.445 42.8159 186.319 42.3539 186.319C41.1219 186.319 40.3799 187.243 40.3799 188.629C40.3799 190.379 41.0659 191.177 42.3259 191.177C42.7739 191.177 43.1379 191.023 43.5019 190.869L43.8799 191.779C43.3339 192.031 42.7319 192.157 42.1019 192.157C40.2259 192.157 39.2599 190.813 39.2599 188.811C39.2599 186.403 40.7439 185.297 42.4099 185.297C42.9839 185.297 43.4739 185.395 43.9359 185.577ZM48.8901 191.737C48.4841 191.961 48.1061 192.143 47.3921 192.143C46.3841 192.143 45.7401 191.485 45.7401 190.365V186.361H44.7741V185.619L45.7401 185.423V184.331L46.8461 184.191V185.451H48.6801V186.361H46.8461V189.987C46.8461 190.869 47.0701 191.149 47.7141 191.149C48.0641 191.149 48.3301 191.009 48.5261 190.883L48.8901 191.737ZM55.5516 191.933L54.4456 192.115L54.3336 191.359H54.3196C53.8296 191.821 53.1856 192.157 52.3736 192.157C51.2676 192.157 50.3856 191.443 50.3856 190.099V186.963L50.1896 185.521L51.5056 185.339V189.707C51.5056 190.673 51.8696 191.177 52.7516 191.177C53.3816 191.177 53.8296 190.911 54.2356 190.533V186.963L54.0396 185.521L55.3556 185.339V190.491L55.5516 191.933ZM60.5307 186.417C59.7747 186.417 59.2147 186.613 58.7107 187.075V192.003H57.5907V186.963L57.3947 185.521L58.5007 185.339L58.6127 186.235H58.6267C59.0747 185.731 59.6627 185.311 60.5307 185.311V186.417ZM66.2833 191.653C65.6533 192.003 65.0093 192.157 64.2113 192.157C62.2793 192.157 61.2853 190.855 61.2853 188.685C61.2853 186.655 62.3493 185.297 64.0013 185.297C65.5833 185.297 66.2273 186.347 66.2273 187.789V188.573H62.3773C62.3913 190.323 63.0213 191.163 64.4493 191.163C64.9953 191.163 65.4153 191.009 65.8913 190.771L66.2833 191.653ZM65.1773 187.789C65.1773 186.809 64.8133 186.193 63.9453 186.193C63.1053 186.193 62.5733 186.851 62.4333 187.789H65.1773ZM72.868 191.961L71.79 192.115L71.692 191.457H71.678C71.258 191.807 70.684 192.157 69.914 192.157C68.472 192.157 67.506 190.967 67.506 189.021C67.506 186.767 68.668 185.381 70.656 185.381C71.188 185.381 71.566 185.479 71.566 185.479V184.065L71.356 182.623L72.672 182.441V190.519L72.868 191.961ZM70.306 191.177C70.852 191.177 71.23 190.953 71.566 190.687V186.501C71.566 186.501 71.202 186.319 70.558 186.319C69.284 186.319 68.654 187.397 68.654 188.671C68.654 190.253 69.074 191.177 70.306 191.177ZM83.0044 188.405C83.0044 190.533 82.0804 192.073 79.8964 192.073C79.5324 192.073 79.2384 192.045 78.9724 191.975V194.775L77.8524 194.957V186.963L77.6564 185.521L78.7624 185.339L78.8604 186.011H78.8744C79.3084 185.647 79.8824 185.297 80.6384 185.297C82.2344 185.297 83.0044 186.501 83.0044 188.405ZM81.8844 188.727C81.8844 187.299 81.5624 186.305 80.2604 186.305C79.7004 186.305 79.2944 186.543 78.9724 186.809V190.939C79.2384 191.051 79.5464 191.121 79.9804 191.121C81.1984 191.121 81.8844 190.169 81.8844 188.727ZM87.7241 186.417C86.9681 186.417 86.4081 186.613 85.9041 187.075V192.003H84.7841V186.963L84.5881 185.521L85.6941 185.339L85.8061 186.235H85.8201C86.2681 185.731 86.8561 185.311 87.7241 185.311V186.417ZM94.0786 188.727C94.0786 190.645 93.1686 192.157 91.2786 192.157C89.2066 192.157 88.4786 190.687 88.4786 188.727C88.4786 186.809 89.3886 185.297 91.2786 185.297C93.3506 185.297 94.0786 186.767 94.0786 188.727ZM92.9306 188.755C92.9306 187.131 92.3846 186.277 91.2786 186.277C90.2006 186.277 89.6266 187.033 89.6266 188.685C89.6266 190.309 90.1726 191.177 91.2786 191.177C92.3566 191.177 92.9306 190.407 92.9306 188.755ZM100.772 191.961L99.6943 192.115L99.5963 191.457H99.5823C99.1623 191.807 98.5883 192.157 97.8183 192.157C96.3763 192.157 95.4103 190.967 95.4103 189.021C95.4103 186.767 96.5723 185.381 98.5603 185.381C99.0923 185.381 99.4703 185.479 99.4703 185.479V184.065L99.2603 182.623L100.576 182.441V190.519L100.772 191.961ZM98.2103 191.177C98.7563 191.177 99.1343 190.953 99.4703 190.687V186.501C99.4703 186.501 99.1063 186.319 98.4623 186.319C97.1883 186.319 96.5583 187.397 96.5583 188.671C96.5583 190.253 96.9783 191.177 98.2103 191.177ZM107.983 191.933L106.877 192.115L106.765 191.359H106.751C106.261 191.821 105.617 192.157 104.805 192.157C103.699 192.157 102.817 191.443 102.817 190.099V186.963L102.621 185.521L103.937 185.339V189.707C103.937 190.673 104.301 191.177 105.183 191.177C105.813 191.177 106.261 190.911 106.667 190.533V186.963L106.471 185.521L107.787 185.339V190.491L107.983 191.933ZM114.25 185.577L113.9 186.585C113.536 186.445 113.13 186.319 112.668 186.319C111.436 186.319 110.694 187.243 110.694 188.629C110.694 190.379 111.38 191.177 112.64 191.177C113.088 191.177 113.452 191.023 113.816 190.869L114.194 191.779C113.648 192.031 113.046 192.157 112.416 192.157C110.54 192.157 109.574 190.813 109.574 188.811C109.574 186.403 111.058 185.297 112.724 185.297C113.298 185.297 113.788 185.395 114.25 185.577ZM119.205 191.737C118.799 191.961 118.421 192.143 117.707 192.143C116.699 192.143 116.055 191.485 116.055 190.365V186.361H115.089V185.619L116.055 185.423V184.331L117.161 184.191V185.451H118.995V186.361H117.161V189.987C117.161 190.869 117.385 191.149 118.029 191.149C118.379 191.149 118.645 191.009 118.841 190.883L119.205 191.737Z" fill="#00157E" fill-opacity="0.7"/>
<g clip-path="url(#clip1_820_126259)">
<path d="M39.002 206.003L29.502 215.503L24.502 210.503L17.002 218.003" stroke="#00157E" stroke-width="2" stroke-linecap="round" stroke-linejoin="round"/>
<path d="M33.002 206.003H39.002V212.003" stroke="#00157E" stroke-width="2" stroke-linecap="round" stroke-linejoin="round"/>
</g>
<path d="M62.022 212.391H59.656V214.743H58.732V212.391H56.38V211.467H58.732V209.115H59.656V211.467H62.022V212.391ZM65.2987 216.003H64.1927V209.815L62.9607 209.983L62.8347 209.129L65.2987 208.737V216.003ZM68.8279 208.373C68.8279 209.395 68.4079 210.179 67.5539 210.683L67.2319 210.263C67.6519 209.955 67.8759 209.563 67.9459 209.059C67.5539 209.003 67.2179 208.667 67.2179 208.261C67.2179 207.799 67.5819 207.449 68.0299 207.449C68.4779 207.449 68.8279 207.813 68.8279 208.373ZM75.3731 216.003H70.1791V215.275L72.5731 212.979C73.2171 212.349 73.7071 211.887 73.7071 211.117C73.7071 210.305 73.2031 209.703 72.2651 209.703C71.6351 209.703 71.1871 209.983 70.8511 210.263L70.3191 209.521C70.9211 209.017 71.5371 208.709 72.5031 208.709C73.8891 208.709 74.8411 209.521 74.8411 210.991C74.8411 211.971 74.2531 212.713 73.5811 213.329L71.7891 214.981V214.995H75.3731V216.003ZM82.2528 212.433C82.2528 214.295 81.5248 216.157 79.4108 216.157C77.2828 216.157 76.5548 214.295 76.5548 212.433C76.5548 210.571 77.2828 208.709 79.4108 208.709C81.5248 208.709 82.2528 210.571 82.2528 212.433ZM81.1048 212.433C81.1048 210.865 80.5868 209.689 79.4108 209.689C78.2208 209.689 77.7028 210.865 77.7028 212.433C77.7028 214.001 78.2208 215.177 79.4108 215.177C80.5868 215.177 81.1048 214.001 81.1048 212.433ZM89.4579 212.433C89.4579 214.295 88.7299 216.157 86.6159 216.157C84.4879 216.157 83.7599 214.295 83.7599 212.433C83.7599 210.571 84.4879 208.709 86.6159 208.709C88.7299 208.709 89.4579 210.571 89.4579 212.433ZM88.3099 212.433C88.3099 210.865 87.7919 209.689 86.6159 209.689C85.4259 209.689 84.9079 210.865 84.9079 212.433C84.9079 214.001 85.4259 215.177 86.6159 215.177C87.7919 215.177 88.3099 214.001 88.3099 212.433ZM92.617 215.289C92.617 215.737 92.253 216.101 91.819 216.101C91.371 216.101 91.007 215.737 91.007 215.289C91.007 214.855 91.371 214.491 91.819 214.491C92.253 214.491 92.617 214.855 92.617 215.289ZM99.0502 213.959C99.0502 215.303 98.0282 216.157 96.5862 216.157C95.1162 216.157 94.1222 215.415 94.1222 214.043C94.1222 212.811 95.0322 212.069 95.7322 211.593C94.8922 211.005 94.3322 210.501 94.3322 209.451C94.3322 208.261 95.3122 207.421 96.5722 207.421C97.9302 207.421 98.8122 208.177 98.8122 209.353C98.8122 210.361 98.1122 211.005 97.4262 211.481C98.3222 212.083 99.0502 212.685 99.0502 213.959ZM97.9722 213.959C97.9722 213.049 97.3422 212.587 96.5022 212.041C95.7602 212.545 95.1862 212.979 95.1862 213.903C95.1862 214.743 95.7462 215.219 96.6002 215.219C97.5102 215.219 97.9722 214.659 97.9722 213.959ZM97.8182 209.479C97.8182 208.765 97.3422 208.303 96.5862 208.303C95.8302 208.303 95.3402 208.793 95.3402 209.493C95.3402 210.151 95.8862 210.529 96.6422 211.047C97.2442 210.655 97.8182 210.151 97.8182 209.479ZM105.688 213.441C105.688 215.093 104.708 216.157 103.126 216.157C101.334 216.157 100.578 214.827 100.578 212.853C100.578 209.045 102.818 207.477 105.254 207.281L105.394 208.205C103.714 208.387 102.034 209.297 101.712 211.635L101.726 211.649C101.726 211.649 102.44 211.033 103.406 211.033C104.876 211.033 105.688 211.971 105.688 213.441ZM104.582 213.665C104.582 212.475 104.12 211.971 103.098 211.971C102.3 211.971 101.712 212.531 101.712 212.531V212.797C101.712 214.365 102.118 215.233 103.224 215.233C104.148 215.233 104.582 214.575 104.582 213.665Z" fill="#00157E"/>
<path d="M117.96 215.569C117.176 215.975 116.378 216.157 115.314 216.157C113.256 216.157 111.674 214.771 111.674 211.971C111.674 208.989 113.438 207.421 115.706 207.421C116.644 207.421 117.218 207.561 117.932 207.869L117.484 208.891C116.952 208.653 116.448 208.471 115.692 208.471C114.222 208.471 112.878 209.605 112.878 211.677C112.878 213.987 113.732 215.121 115.776 215.121C116.448 215.121 117.064 214.855 117.568 214.631L117.96 215.569ZM125.57 216.003H124.394V212.153H120.6V216.003H119.424V207.575H120.6V211.159H124.394V207.575H125.57V216.003ZM132.086 208.569H129.062V211.313H131.792V212.307H129.062V216.003H127.9V207.575H132.086V208.569Z" fill="#00157E" fill-opacity="0.7"/>
<path d="M155.022 212.391H152.656V214.743H151.732V212.391H149.38V211.467H151.732V209.115H152.656V211.467H155.022V212.391ZM158.299 216.003H157.193V209.815L155.961 209.983L155.835 209.129L158.299 208.737V216.003ZM165.174 216.003H159.98V215.275L162.374 212.979C163.018 212.349 163.508 211.887 163.508 211.117C163.508 210.305 163.004 209.703 162.066 209.703C161.436 209.703 160.988 209.983 160.652 210.263L160.12 209.521C160.722 209.017 161.338 208.709 162.304 208.709C163.69 208.709 164.642 209.521 164.642 210.991C164.642 211.971 164.054 212.713 163.382 213.329L161.59 214.981V214.995H165.174V216.003ZM168.008 215.289C168.008 215.737 167.644 216.101 167.21 216.101C166.762 216.101 166.398 215.737 166.398 215.289C166.398 214.855 166.762 214.491 167.21 214.491C167.644 214.491 168.008 214.855 168.008 215.289ZM174.441 213.959C174.441 215.303 173.419 216.157 171.977 216.157C170.507 216.157 169.513 215.415 169.513 214.043C169.513 212.811 170.423 212.069 171.123 211.593C170.283 211.005 169.723 210.501 169.723 209.451C169.723 208.261 170.703 207.421 171.963 207.421C173.321 207.421 174.203 208.177 174.203 209.353C174.203 210.361 173.503 211.005 172.817 211.481C173.713 212.083 174.441 212.685 174.441 213.959ZM173.363 213.959C173.363 213.049 172.733 212.587 171.893 212.041C171.151 212.545 170.577 212.979 170.577 213.903C170.577 214.743 171.137 215.219 171.991 215.219C172.901 215.219 173.363 214.659 173.363 213.959ZM173.209 209.479C173.209 208.765 172.733 208.303 171.977 208.303C171.221 208.303 170.731 208.793 170.731 209.493C170.731 210.151 171.277 210.529 172.033 211.047C172.635 210.655 173.209 210.151 173.209 209.479ZM181.078 213.441C181.078 215.093 180.098 216.157 178.516 216.157C176.724 216.157 175.968 214.827 175.968 212.853C175.968 209.045 178.208 207.477 180.644 207.281L180.784 208.205C179.104 208.387 177.424 209.297 177.102 211.635L177.116 211.649C177.116 211.649 177.83 211.033 178.796 211.033C180.266 211.033 181.078 211.971 181.078 213.441ZM179.972 213.665C179.972 212.475 179.51 211.971 178.488 211.971C177.69 211.971 177.102 212.531 177.102 212.531V212.797C177.102 214.365 177.508 215.233 178.614 215.233C179.538 215.233 179.972 214.575 179.972 213.665Z" fill="#00157E"/>
<path d="M191.07 209.619C191.07 210.879 190.104 211.845 188.844 211.845C187.584 211.845 186.618 210.879 186.618 209.619C186.618 208.359 187.584 207.421 188.844 207.421C190.104 207.421 191.07 208.359 191.07 209.619ZM197.286 213.945C197.286 215.205 196.32 216.157 195.06 216.157C193.8 216.157 192.834 215.205 192.834 213.945C192.834 212.699 193.8 211.747 195.06 211.747C196.32 211.747 197.286 212.699 197.286 213.945ZM194.71 207.771L190.076 216.283L189.222 215.821L193.856 207.309L194.71 207.771ZM196.264 213.945C196.264 213.231 195.774 212.741 195.06 212.741C194.346 212.741 193.856 213.231 193.856 213.945C193.856 214.645 194.346 215.177 195.06 215.177C195.774 215.177 196.264 214.645 196.264 213.945ZM190.034 209.619C190.034 208.905 189.558 208.415 188.844 208.415C188.13 208.415 187.64 208.905 187.64 209.619C187.64 210.333 188.13 210.851 188.844 210.851C189.558 210.851 190.034 210.333 190.034 209.619Z" fill="#00157E" fill-opacity="0.7"/>
<path d="M259.962 174.631C259.29 174.979 258.606 175.135 257.694 175.135C255.93 175.135 254.574 173.947 254.574 171.547C254.574 168.991 256.086 167.647 258.03 167.647C258.834 167.647 259.326 167.767 259.938 168.031L259.554 168.907C259.098 168.703 258.666 168.547 258.018 168.547C256.758 168.547 255.606 169.519 255.606 171.295C255.606 173.275 256.338 174.247 258.09 174.247C258.666 174.247 259.194 174.019 259.626 173.827L259.962 174.631ZM266.485 175.003H265.477V171.703H262.225V175.003H261.217V167.779H262.225V170.851H265.477V167.779H266.485V175.003ZM272.07 168.631H269.478V170.983H271.818V171.835H269.478V175.003H268.482V167.779H272.07V168.631Z" fill="#00157E" fill-opacity="0.7"/>
<path d="M284.997 176.003H283.219V170.333L281.987 170.501L281.777 169.241L284.997 168.723V176.003ZM288.727 168.597C288.727 170.025 288.153 170.823 287.117 171.565L286.613 171.019C287.103 170.599 287.425 170.151 287.537 169.535C287.019 169.479 286.599 169.017 286.599 168.485C286.599 167.911 287.075 167.435 287.649 167.435C288.251 167.435 288.727 167.883 288.727 168.597ZM296.009 172.433C296.009 174.393 295.155 176.171 292.999 176.171C290.843 176.171 289.989 174.393 289.989 172.433C289.989 170.473 290.843 168.695 292.999 168.695C295.155 168.695 296.009 170.473 296.009 172.433ZM294.217 172.433C294.217 171.089 293.839 170.277 292.999 170.277C292.173 170.277 291.781 171.089 291.781 172.433C291.781 173.777 292.173 174.589 292.999 174.589C293.839 174.589 294.217 173.777 294.217 172.433ZM303.255 172.433C303.255 174.393 302.401 176.171 300.245 176.171C298.089 176.171 297.235 174.393 297.235 172.433C297.235 170.473 298.089 168.695 300.245 168.695C302.401 168.695 303.255 170.473 303.255 172.433ZM301.463 172.433C301.463 171.089 301.085 170.277 300.245 170.277C299.419 170.277 299.027 171.089 299.027 172.433C299.027 173.777 299.419 174.589 300.245 174.589C301.085 174.589 301.463 173.777 301.463 172.433ZM309.703 173.735C309.703 175.079 308.709 176.171 307.099 176.171C305.391 176.171 304.453 175.387 304.453 173.945C304.453 172.881 305.181 172.167 305.797 171.705C305.167 171.215 304.635 170.641 304.635 169.633C304.635 168.275 305.783 167.407 307.043 167.407C308.401 167.407 309.437 168.149 309.437 169.451C309.437 170.375 308.849 171.005 308.289 171.453C309.003 171.943 309.703 172.601 309.703 173.735ZM308.135 173.805C308.135 173.119 307.519 172.699 306.931 172.335C306.441 172.699 306.035 173.091 306.035 173.763C306.035 174.435 306.483 174.785 307.127 174.785C307.771 174.785 308.135 174.337 308.135 173.805ZM307.953 169.619C307.953 169.073 307.617 168.737 307.057 168.737C306.525 168.737 306.203 169.101 306.203 169.633C306.203 170.151 306.651 170.487 307.155 170.823C307.575 170.515 307.953 170.137 307.953 169.619ZM313.077 175.051C313.077 175.639 312.601 176.115 312.013 176.115C311.425 176.115 310.949 175.639 310.949 175.051C310.949 174.477 311.425 174.001 312.013 174.001C312.601 174.001 313.077 174.477 313.077 175.051ZM319.267 174.561C319.267 177.067 317.125 178.047 314.619 178.341L314.353 176.829C315.529 176.647 317.447 176.241 317.447 174.743C317.447 173.805 316.761 173.343 315.179 173.343H314.353L314.619 168.863H319.015V170.459H316.089L315.991 172.111C315.991 172.111 316.257 172.097 316.537 172.097C318.245 172.097 319.267 172.937 319.267 174.561ZM326.388 172.433C326.388 174.393 325.534 176.171 323.378 176.171C321.222 176.171 320.368 174.393 320.368 172.433C320.368 170.473 321.222 168.695 323.378 168.695C325.534 168.695 326.388 170.473 326.388 172.433ZM324.596 172.433C324.596 171.089 324.218 170.277 323.378 170.277C322.552 170.277 322.16 171.089 322.16 172.433C322.16 173.777 322.552 174.589 323.378 174.589C324.218 174.589 324.596 173.777 324.596 172.433Z" fill="#00157E"/>
<path d="M297.374 188.419C297.374 190.243 296.582 191.563 294.71 191.563C294.398 191.563 294.146 191.539 293.918 191.479V193.879L292.958 194.035V187.183L292.79 185.947L293.738 185.791L293.822 186.367H293.834C294.206 186.055 294.698 185.755 295.346 185.755C296.714 185.755 297.374 186.787 297.374 188.419ZM296.414 188.695C296.414 187.471 296.138 186.619 295.022 186.619C294.542 186.619 294.194 186.823 293.918 187.051V190.591C294.146 190.687 294.41 190.747 294.782 190.747C295.826 190.747 296.414 189.931 296.414 188.695ZM302.523 185.995L302.223 186.859C301.911 186.739 301.563 186.631 301.167 186.631C300.111 186.631 299.475 187.423 299.475 188.611C299.475 190.111 300.063 190.795 301.143 190.795C301.527 190.795 301.839 190.663 302.151 190.531L302.475 191.311C302.007 191.527 301.491 191.635 300.951 191.635C299.343 191.635 298.515 190.483 298.515 188.767C298.515 186.703 299.787 185.755 301.215 185.755C301.707 185.755 302.127 185.839 302.523 185.995ZM307.097 189.871C307.097 190.891 306.293 191.623 305.093 191.623C304.517 191.623 303.941 191.539 303.485 191.323L303.773 190.483C304.169 190.663 304.613 190.807 305.045 190.807C305.693 190.807 306.125 190.555 306.125 190.027C306.125 189.619 305.909 189.451 305.537 189.283L304.493 188.803C304.121 188.635 303.449 188.299 303.449 187.327C303.449 186.259 304.385 185.755 305.405 185.755C306.017 185.755 306.449 185.851 306.929 186.055L306.605 186.883C306.221 186.715 305.849 186.595 305.393 186.595C304.781 186.595 304.385 186.787 304.385 187.267C304.385 187.687 304.745 187.855 304.973 187.963L306.041 188.467C306.785 188.815 307.097 189.259 307.097 189.871ZM309.718 190.891C309.718 191.275 309.406 191.587 309.034 191.587C308.65 191.587 308.338 191.275 308.338 190.891C308.338 190.519 308.65 190.207 309.034 190.207C309.406 190.207 309.718 190.519 309.718 190.891Z" fill="#00157E" fill-opacity="0.7"/>
<path d="M317.91 192.003H316.804V185.815L315.572 185.983L315.446 185.129L317.91 184.737V192.003ZM325.485 188.433C325.485 190.295 324.757 192.157 322.643 192.157C320.515 192.157 319.787 190.295 319.787 188.433C319.787 186.571 320.515 184.709 322.643 184.709C324.757 184.709 325.485 186.571 325.485 188.433ZM324.337 188.433C324.337 186.865 323.819 185.689 322.643 185.689C321.453 185.689 320.935 186.865 320.935 188.433C320.935 190.001 321.453 191.177 322.643 191.177C323.819 191.177 324.337 190.001 324.337 188.433Z" fill="#00157E"/>
<path d="M257.962 207.131C257.29 207.479 256.606 207.635 255.694 207.635C253.93 207.635 252.574 206.447 252.574 204.047C252.574 201.491 254.086 200.147 256.03 200.147C256.834 200.147 257.326 200.267 257.938 200.531L257.554 201.407C257.098 201.203 256.666 201.047 256.018 201.047C254.758 201.047 253.606 202.019 253.606 203.795C253.606 205.775 254.338 206.747 256.09 206.747C256.666 206.747 257.194 206.519 257.626 206.327L257.962 207.131ZM264.485 207.503H263.477V204.203H260.225V207.503H259.217V200.279H260.225V203.351H263.477V200.279H264.485V207.503ZM270.07 201.131H267.478V203.483H269.818V204.335H267.478V207.503H266.482V200.279H270.07V201.131Z" fill="#00157E" fill-opacity="0.7"/>
<path d="M277.91 208.003H276.804V201.815L275.572 201.983L275.446 201.129L277.91 200.737V208.003ZM285.485 204.433C285.485 206.295 284.757 208.157 282.643 208.157C280.515 208.157 279.787 206.295 279.787 204.433C279.787 202.571 280.515 200.709 282.643 200.709C284.757 200.709 285.485 202.571 285.485 204.433ZM284.337 204.433C284.337 202.865 283.819 201.689 282.643 201.689C281.453 201.689 280.935 202.865 280.935 204.433C280.935 206.001 281.453 207.177 282.643 207.177C283.819 207.177 284.337 206.001 284.337 204.433ZM288.644 200.373C288.644 201.395 288.224 202.179 287.37 202.683L287.048 202.263C287.468 201.955 287.692 201.563 287.762 201.059C287.37 201.003 287.034 200.667 287.034 200.261C287.034 199.799 287.398 199.449 287.846 199.449C288.294 199.449 288.644 199.813 288.644 200.373ZM295.078 205.959C295.078 207.303 294.056 208.157 292.614 208.157C291.144 208.157 290.15 207.415 290.15 206.043C290.15 204.811 291.06 204.069 291.76 203.593C290.92 203.005 290.36 202.501 290.36 201.451C290.36 200.261 291.34 199.421 292.6 199.421C293.958 199.421 294.84 200.177 294.84 201.353C294.84 202.361 294.14 203.005 293.454 203.481C294.35 204.083 295.078 204.685 295.078 205.959ZM294 205.959C294 205.049 293.37 204.587 292.53 204.041C291.788 204.545 291.214 204.979 291.214 205.903C291.214 206.743 291.774 207.219 292.628 207.219C293.538 207.219 294 206.659 294 205.959ZM293.846 201.479C293.846 200.765 293.37 200.303 292.614 200.303C291.858 200.303 291.368 200.793 291.368 201.493C291.368 202.151 291.914 202.529 292.67 203.047C293.272 202.655 293.846 202.151 293.846 201.479ZM302.247 204.433C302.247 206.295 301.519 208.157 299.405 208.157C297.277 208.157 296.549 206.295 296.549 204.433C296.549 202.571 297.277 200.709 299.405 200.709C301.519 200.709 302.247 202.571 302.247 204.433ZM301.099 204.433C301.099 202.865 300.581 201.689 299.405 201.689C298.215 201.689 297.697 202.865 297.697 204.433C297.697 206.001 298.215 207.177 299.405 207.177C300.581 207.177 301.099 206.001 301.099 204.433ZM308.29 206.743C308.29 209.431 305.756 210.187 303.95 210.327L303.81 209.375C305.084 209.235 307.142 208.731 307.142 206.897C307.142 205.749 306.498 205.077 304.706 205.077H303.768L304.076 200.863H308.066V201.885H305.042L304.86 204.237C304.86 204.237 305.182 204.209 305.476 204.209C307.1 204.209 308.29 205.063 308.29 206.743ZM311.326 207.289C311.326 207.737 310.962 208.101 310.528 208.101C310.08 208.101 309.716 207.737 309.716 207.289C309.716 206.855 310.08 206.491 310.528 206.491C310.962 206.491 311.326 206.855 311.326 207.289ZM318.571 204.433C318.571 206.295 317.843 208.157 315.729 208.157C313.601 208.157 312.873 206.295 312.873 204.433C312.873 202.571 313.601 200.709 315.729 200.709C317.843 200.709 318.571 202.571 318.571 204.433ZM317.423 204.433C317.423 202.865 316.905 201.689 315.729 201.689C314.539 201.689 314.021 202.865 314.021 204.433C314.021 206.001 314.539 207.177 315.729 207.177C316.905 207.177 317.423 206.001 317.423 204.433ZM325.776 204.433C325.776 206.295 325.048 208.157 322.934 208.157C320.806 208.157 320.078 206.295 320.078 204.433C320.078 202.571 320.806 200.709 322.934 200.709C325.048 200.709 325.776 202.571 325.776 204.433ZM324.628 204.433C324.628 202.865 324.11 201.689 322.934 201.689C321.744 201.689 321.226 202.865 321.226 204.433C321.226 206.001 321.744 207.177 322.934 207.177C324.11 207.177 324.628 206.001 324.628 204.433Z" fill="#00157E"/>
<path d="M23.576 263.78L21.77 264.242L21.056 261.666H18.704L18.06 264.004H16.17L18.97 255.576H20.888L23.576 263.78ZM20.748 260.448L19.908 257.368H19.894L19.04 260.448H20.748ZM30.5879 261.372C30.5879 263.094 29.1879 264.004 26.6959 264.004H24.6379V255.646C24.6379 255.646 25.8279 255.492 27.0039 255.492C29.0479 255.492 29.9999 256.164 29.9999 257.438C29.9999 258.502 29.3139 259.02 28.4319 259.356V259.37C29.7199 259.51 30.5879 260.21 30.5879 261.372ZM28.6839 261.414C28.6839 260.616 28.0819 260.294 26.9479 260.294H26.4439V262.506H27.2699C28.1239 262.506 28.6839 262.128 28.6839 261.414ZM28.0959 257.858C28.0959 257.144 27.6339 256.878 26.8779 256.878C26.6259 256.878 26.4439 256.906 26.4439 256.906V259.02C27.3259 259.02 28.0959 258.768 28.0959 257.858ZM37.834 261.372C37.834 263.094 36.434 264.004 33.942 264.004H31.884V255.646C31.884 255.646 33.074 255.492 34.25 255.492C36.294 255.492 37.246 256.164 37.246 257.438C37.246 258.502 36.56 259.02 35.678 259.356V259.37C36.966 259.51 37.834 260.21 37.834 261.372ZM35.93 261.414C35.93 260.616 35.328 260.294 34.194 260.294H33.69V262.506H34.516C35.37 262.506 35.93 262.128 35.93 261.414ZM35.342 257.858C35.342 257.144 34.88 256.878 34.124 256.878C33.872 256.878 33.69 256.906 33.69 256.906V259.02C34.572 259.02 35.342 258.768 35.342 257.858ZM46.8995 264.004H42.0695V255.576H43.9595V262.422H46.8995V264.004ZM51.9391 263.682C51.3651 263.99 50.9311 264.158 50.0491 264.158C48.7331 264.158 48.0891 263.276 48.0891 261.96V258.782H47.0671V257.606L48.0891 257.368V256.22L49.8531 256.01V257.382H51.6731V258.782H49.8531V261.484C49.8531 262.366 50.0771 262.59 50.6511 262.59C50.9731 262.59 51.1551 262.506 51.4631 262.366L51.9391 263.682ZM58.3703 263.92L56.6763 264.13L56.5783 263.444H56.5643C56.3963 263.584 55.8503 264.172 54.9543 264.172C53.3023 264.172 52.4763 262.772 52.4763 260.924C52.4763 258.544 53.8343 257.326 55.7523 257.326C56.1023 257.326 56.3683 257.382 56.3683 257.382V256.29L56.1443 254.652L58.1463 254.428V262.282L58.3703 263.92ZM55.5003 262.59C55.9203 262.59 56.2423 262.408 56.3683 262.296V258.908C56.3683 258.908 56.1303 258.796 55.6963 258.796C54.8423 258.796 54.2683 259.468 54.2683 260.658C54.2683 261.988 54.6183 262.59 55.5003 262.59Z" fill="#00157E"/>
<path d="M21.728 277.638C21.728 279.108 20.706 280.158 19.012 280.158C18.144 280.158 17.374 279.976 16.716 279.696L17.08 278.674C17.626 278.926 18.27 279.136 18.928 279.136C19.95 279.136 20.608 278.744 20.608 277.82C20.608 277.134 20.104 276.798 19.432 276.476L18.116 275.846C17.234 275.426 16.632 274.88 16.632 273.69C16.632 272.248 17.892 271.422 19.348 271.422C20.132 271.422 20.636 271.548 21.364 271.814L20.972 272.808C20.524 272.598 20.034 272.402 19.418 272.402C18.55 272.402 17.766 272.752 17.766 273.648C17.766 274.25 18.13 274.544 18.69 274.81L20.034 275.468C21.098 275.986 21.728 276.56 21.728 277.638ZM26.7007 279.738C26.2947 279.962 25.9167 280.144 25.2027 280.144C24.1947 280.144 23.5507 279.486 23.5507 278.366V274.362H22.5847V273.62L23.5507 273.424V272.332L24.6567 272.192V273.452H26.4907V274.362H24.6567V277.988C24.6567 278.87 24.8807 279.15 25.5247 279.15C25.8747 279.15 26.1407 279.01 26.3367 278.884L26.7007 279.738ZM31.1362 274.418C30.3802 274.418 29.8202 274.614 29.3162 275.076V280.004H28.1962V274.964L28.0002 273.522L29.1062 273.34L29.2182 274.236H29.2322C29.6802 273.732 30.2682 273.312 31.1362 273.312V274.418ZM37.6688 279.934L36.5628 280.116L36.4508 279.36H36.4368C35.9468 279.822 35.3028 280.158 34.4908 280.158C33.3848 280.158 32.5028 279.444 32.5028 278.1V274.964L32.3068 273.522L33.6228 273.34V277.708C33.6228 278.674 33.9868 279.178 34.8688 279.178C35.4988 279.178 35.9468 278.912 36.3528 278.534V274.964L36.1568 273.522L37.4728 273.34V278.492L37.6688 279.934ZM43.9359 273.578L43.5859 274.586C43.2219 274.446 42.8159 274.32 42.3539 274.32C41.1219 274.32 40.3799 275.244 40.3799 276.63C40.3799 278.38 41.0659 279.178 42.3259 279.178C42.7739 279.178 43.1379 279.024 43.5019 278.87L43.8799 279.78C43.3339 280.032 42.7319 280.158 42.1019 280.158C40.2259 280.158 39.2599 278.814 39.2599 276.812C39.2599 274.404 40.7439 273.298 42.4099 273.298C42.9839 273.298 43.4739 273.396 43.9359 273.578ZM48.8901 279.738C48.4841 279.962 48.1061 280.144 47.3921 280.144C46.3841 280.144 45.7401 279.486 45.7401 278.366V274.362H44.7741V273.62L45.7401 273.424V272.332L46.8461 272.192V273.452H48.6801V274.362H46.8461V277.988C46.8461 278.87 47.0701 279.15 47.7141 279.15C48.0641 279.15 48.3301 279.01 48.5261 278.884L48.8901 279.738ZM55.5516 279.934L54.4456 280.116L54.3336 279.36H54.3196C53.8296 279.822 53.1856 280.158 52.3736 280.158C51.2676 280.158 50.3856 279.444 50.3856 278.1V274.964L50.1896 273.522L51.5056 273.34V277.708C51.5056 278.674 51.8696 279.178 52.7516 279.178C53.3816 279.178 53.8296 278.912 54.2356 278.534V274.964L54.0396 273.522L55.3556 273.34V278.492L55.5516 279.934ZM60.5307 274.418C59.7747 274.418 59.2147 274.614 58.7107 275.076V280.004H57.5907V274.964L57.3947 273.522L58.5007 273.34L58.6127 274.236H58.6267C59.0747 273.732 59.6627 273.312 60.5307 273.312V274.418ZM66.2833 279.654C65.6533 280.004 65.0093 280.158 64.2113 280.158C62.2793 280.158 61.2853 278.856 61.2853 276.686C61.2853 274.656 62.3493 273.298 64.0013 273.298C65.5833 273.298 66.2273 274.348 66.2273 275.79V276.574H62.3773C62.3913 278.324 63.0213 279.164 64.4493 279.164C64.9953 279.164 65.4153 279.01 65.8913 278.772L66.2833 279.654ZM65.1773 275.79C65.1773 274.81 64.8133 274.194 63.9453 274.194C63.1053 274.194 62.5733 274.852 62.4333 275.79H65.1773ZM72.868 279.962L71.79 280.116L71.692 279.458H71.678C71.258 279.808 70.684 280.158 69.914 280.158C68.472 280.158 67.506 278.968 67.506 277.022C67.506 274.768 68.668 273.382 70.656 273.382C71.188 273.382 71.566 273.48 71.566 273.48V272.066L71.356 270.624L72.672 270.442V278.52L72.868 279.962ZM70.306 279.178C70.852 279.178 71.23 278.954 71.566 278.688V274.502C71.566 274.502 71.202 274.32 70.558 274.32C69.284 274.32 68.654 275.398 68.654 276.672C68.654 278.254 69.074 279.178 70.306 279.178ZM83.0044 276.406C83.0044 278.534 82.0804 280.074 79.8964 280.074C79.5324 280.074 79.2384 280.046 78.9724 279.976V282.776L77.8524 282.958V274.964L77.6564 273.522L78.7624 273.34L78.8604 274.012H78.8744C79.3084 273.648 79.8824 273.298 80.6384 273.298C82.2344 273.298 83.0044 274.502 83.0044 276.406ZM81.8844 276.728C81.8844 275.3 81.5624 274.306 80.2604 274.306C79.7004 274.306 79.2944 274.544 78.9724 274.81V278.94C79.2384 279.052 79.5464 279.122 79.9804 279.122C81.1984 279.122 81.8844 278.17 81.8844 276.728ZM87.7241 274.418C86.9681 274.418 86.4081 274.614 85.9041 275.076V280.004H84.7841V274.964L84.5881 273.522L85.6941 273.34L85.8061 274.236H85.8201C86.2681 273.732 86.8561 273.312 87.7241 273.312V274.418ZM94.0786 276.728C94.0786 278.646 93.1686 280.158 91.2786 280.158C89.2066 280.158 88.4786 278.688 88.4786 276.728C88.4786 274.81 89.3886 273.298 91.2786 273.298C93.3506 273.298 94.0786 274.768 94.0786 276.728ZM92.9306 276.756C92.9306 275.132 92.3846 274.278 91.2786 274.278C90.2006 274.278 89.6266 275.034 89.6266 276.686C89.6266 278.31 90.1726 279.178 91.2786 279.178C92.3566 279.178 92.9306 278.408 92.9306 276.756ZM100.772 279.962L99.6943 280.116L99.5963 279.458H99.5823C99.1623 279.808 98.5883 280.158 97.8183 280.158C96.3763 280.158 95.4103 278.968 95.4103 277.022C95.4103 274.768 96.5723 273.382 98.5603 273.382C99.0923 273.382 99.4703 273.48 99.4703 273.48V272.066L99.2603 270.624L100.576 270.442V278.52L100.772 279.962ZM98.2103 279.178C98.7563 279.178 99.1343 278.954 99.4703 278.688V274.502C99.4703 274.502 99.1063 274.32 98.4623 274.32C97.1883 274.32 96.5583 275.398 96.5583 276.672C96.5583 278.254 96.9783 279.178 98.2103 279.178ZM107.983 279.934L106.877 280.116L106.765 279.36H106.751C106.261 279.822 105.617 280.158 104.805 280.158C103.699 280.158 102.817 279.444 102.817 278.1V274.964L102.621 273.522L103.937 273.34V277.708C103.937 278.674 104.301 279.178 105.183 279.178C105.813 279.178 106.261 278.912 106.667 278.534V274.964L106.471 273.522L107.787 273.34V278.492L107.983 279.934ZM114.25 273.578L113.9 274.586C113.536 274.446 113.13 274.32 112.668 274.32C111.436 274.32 110.694 275.244 110.694 276.63C110.694 278.38 111.38 279.178 112.64 279.178C113.088 279.178 113.452 279.024 113.816 278.87L114.194 279.78C113.648 280.032 113.046 280.158 112.416 280.158C110.54 280.158 109.574 278.814 109.574 276.812C109.574 274.404 111.058 273.298 112.724 273.298C113.298 273.298 113.788 273.396 114.25 273.578ZM119.205 279.738C118.799 279.962 118.421 280.144 117.707 280.144C116.699 280.144 116.055 279.486 116.055 278.366V274.362H115.089V273.62L116.055 273.424V272.332L117.161 272.192V273.452H118.995V274.362H117.161V277.988C117.161 278.87 117.385 279.15 118.029 279.15C118.379 279.15 118.645 279.01 118.841 278.884L119.205 279.738Z" fill="#00157E" fill-opacity="0.7"/>
<g clip-path="url(#clip2_820_126259)">
<path d="M39.002 294.004L29.502 303.504L24.502 298.504L17.002 306.004" stroke="#00157E" stroke-width="2" stroke-linecap="round" stroke-linejoin="round"/>
<path d="M33.002 294.004H39.002V300.004" stroke="#00157E" stroke-width="2" stroke-linecap="round" stroke-linejoin="round"/>
</g>
<path d="M62.022 300.392H59.656V302.744H58.732V300.392H56.38V299.468H58.732V297.116H59.656V299.468H62.022V300.392ZM65.2987 304.004H64.1927V297.816L62.9607 297.984L62.8347 297.13L65.2987 296.738V304.004ZM68.8279 296.374C68.8279 297.396 68.4079 298.18 67.5539 298.684L67.2319 298.264C67.6519 297.956 67.8759 297.564 67.9459 297.06C67.5539 297.004 67.2179 296.668 67.2179 296.262C67.2179 295.8 67.5819 295.45 68.0299 295.45C68.4779 295.45 68.8279 295.814 68.8279 296.374ZM75.3731 304.004H70.1791V303.276L72.5731 300.98C73.2171 300.35 73.7071 299.888 73.7071 299.118C73.7071 298.306 73.2031 297.704 72.2651 297.704C71.6351 297.704 71.1871 297.984 70.8511 298.264L70.3191 297.522C70.9211 297.018 71.5371 296.71 72.5031 296.71C73.8891 296.71 74.8411 297.522 74.8411 298.992C74.8411 299.972 74.2531 300.714 73.5811 301.33L71.7891 302.982V302.996H75.3731V304.004ZM82.2528 300.434C82.2528 302.296 81.5248 304.158 79.4108 304.158C77.2828 304.158 76.5548 302.296 76.5548 300.434C76.5548 298.572 77.2828 296.71 79.4108 296.71C81.5248 296.71 82.2528 298.572 82.2528 300.434ZM81.1048 300.434C81.1048 298.866 80.5868 297.69 79.4108 297.69C78.2208 297.69 77.7028 298.866 77.7028 300.434C77.7028 302.002 78.2208 303.178 79.4108 303.178C80.5868 303.178 81.1048 302.002 81.1048 300.434ZM89.4579 300.434C89.4579 302.296 88.7299 304.158 86.6159 304.158C84.4879 304.158 83.7599 302.296 83.7599 300.434C83.7599 298.572 84.4879 296.71 86.6159 296.71C88.7299 296.71 89.4579 298.572 89.4579 300.434ZM88.3099 300.434C88.3099 298.866 87.7919 297.69 86.6159 297.69C85.4259 297.69 84.9079 298.866 84.9079 300.434C84.9079 302.002 85.4259 303.178 86.6159 303.178C87.7919 303.178 88.3099 302.002 88.3099 300.434ZM92.617 303.29C92.617 303.738 92.253 304.102 91.819 304.102C91.371 304.102 91.007 303.738 91.007 303.29C91.007 302.856 91.371 302.492 91.819 302.492C92.253 302.492 92.617 302.856 92.617 303.29ZM99.0502 301.96C99.0502 303.304 98.0282 304.158 96.5862 304.158C95.1162 304.158 94.1222 303.416 94.1222 302.044C94.1222 300.812 95.0322 300.07 95.7322 299.594C94.8922 299.006 94.3322 298.502 94.3322 297.452C94.3322 296.262 95.3122 295.422 96.5722 295.422C97.9302 295.422 98.8122 296.178 98.8122 297.354C98.8122 298.362 98.1122 299.006 97.4262 299.482C98.3222 300.084 99.0502 300.686 99.0502 301.96ZM97.9722 301.96C97.9722 301.05 97.3422 300.588 96.5022 300.042C95.7602 300.546 95.1862 300.98 95.1862 301.904C95.1862 302.744 95.7462 303.22 96.6002 303.22C97.5102 303.22 97.9722 302.66 97.9722 301.96ZM97.8182 297.48C97.8182 296.766 97.3422 296.304 96.5862 296.304C95.8302 296.304 95.3402 296.794 95.3402 297.494C95.3402 298.152 95.8862 298.53 96.6422 299.048C97.2442 298.656 97.8182 298.152 97.8182 297.48ZM105.688 301.442C105.688 303.094 104.708 304.158 103.126 304.158C101.334 304.158 100.578 302.828 100.578 300.854C100.578 297.046 102.818 295.478 105.254 295.282L105.394 296.206C103.714 296.388 102.034 297.298 101.712 299.636L101.726 299.65C101.726 299.65 102.44 299.034 103.406 299.034C104.876 299.034 105.688 299.972 105.688 301.442ZM104.582 301.666C104.582 300.476 104.12 299.972 103.098 299.972C102.3 299.972 101.712 300.532 101.712 300.532V300.798C101.712 302.366 102.118 303.234 103.224 303.234C104.148 303.234 104.582 302.576 104.582 301.666Z" fill="#00157E"/>
<path d="M117.96 303.57C117.176 303.976 116.378 304.158 115.314 304.158C113.256 304.158 111.674 302.772 111.674 299.972C111.674 296.99 113.438 295.422 115.706 295.422C116.644 295.422 117.218 295.562 117.932 295.87L117.484 296.892C116.952 296.654 116.448 296.472 115.692 296.472C114.222 296.472 112.878 297.606 112.878 299.678C112.878 301.988 113.732 303.122 115.776 303.122C116.448 303.122 117.064 302.856 117.568 302.632L117.96 303.57ZM125.57 304.004H124.394V300.154H120.6V304.004H119.424V295.576H120.6V299.16H124.394V295.576H125.57V304.004ZM132.086 296.57H129.062V299.314H131.792V300.308H129.062V304.004H127.9V295.576H132.086V296.57Z" fill="#00157E" fill-opacity="0.7"/>
<path d="M155.022 300.392H152.656V302.744H151.732V300.392H149.38V299.468H151.732V297.116H152.656V299.468H155.022V300.392ZM158.299 304.004H157.193V297.816L155.961 297.984L155.835 297.13L158.299 296.738V304.004ZM165.174 304.004H159.98V303.276L162.374 300.98C163.018 300.35 163.508 299.888 163.508 299.118C163.508 298.306 163.004 297.704 162.066 297.704C161.436 297.704 160.988 297.984 160.652 298.264L160.12 297.522C160.722 297.018 161.338 296.71 162.304 296.71C163.69 296.71 164.642 297.522 164.642 298.992C164.642 299.972 164.054 300.714 163.382 301.33L161.59 302.982V302.996H165.174V304.004ZM168.008 303.29C168.008 303.738 167.644 304.102 167.21 304.102C166.762 304.102 166.398 303.738 166.398 303.29C166.398 302.856 166.762 302.492 167.21 302.492C167.644 302.492 168.008 302.856 168.008 303.29ZM174.441 301.96C174.441 303.304 173.419 304.158 171.977 304.158C170.507 304.158 169.513 303.416 169.513 302.044C169.513 300.812 170.423 300.07 171.123 299.594C170.283 299.006 169.723 298.502 169.723 297.452C169.723 296.262 170.703 295.422 171.963 295.422C173.321 295.422 174.203 296.178 174.203 297.354C174.203 298.362 173.503 299.006 172.817 299.482C173.713 300.084 174.441 300.686 174.441 301.96ZM173.363 301.96C173.363 301.05 172.733 300.588 171.893 300.042C171.151 300.546 170.577 300.98 170.577 301.904C170.577 302.744 171.137 303.22 171.991 303.22C172.901 303.22 173.363 302.66 173.363 301.96ZM173.209 297.48C173.209 296.766 172.733 296.304 171.977 296.304C171.221 296.304 170.731 296.794 170.731 297.494C170.731 298.152 171.277 298.53 172.033 299.048C172.635 298.656 173.209 298.152 173.209 297.48ZM181.078 301.442C181.078 303.094 180.098 304.158 178.516 304.158C176.724 304.158 175.968 302.828 175.968 300.854C175.968 297.046 178.208 295.478 180.644 295.282L180.784 296.206C179.104 296.388 177.424 297.298 177.102 299.636L177.116 299.65C177.116 299.65 177.83 299.034 178.796 299.034C180.266 299.034 181.078 299.972 181.078 301.442ZM179.972 301.666C179.972 300.476 179.51 299.972 178.488 299.972C177.69 299.972 177.102 300.532 177.102 300.532V300.798C177.102 302.366 177.508 303.234 178.614 303.234C179.538 303.234 179.972 302.576 179.972 301.666Z" fill="#00157E"/>
<path d="M191.07 297.62C191.07 298.88 190.104 299.846 188.844 299.846C187.584 299.846 186.618 298.88 186.618 297.62C186.618 296.36 187.584 295.422 188.844 295.422C190.104 295.422 191.07 296.36 191.07 297.62ZM197.286 301.946C197.286 303.206 196.32 304.158 195.06 304.158C193.8 304.158 192.834 303.206 192.834 301.946C192.834 300.7 193.8 299.748 195.06 299.748C196.32 299.748 197.286 300.7 197.286 301.946ZM194.71 295.772L190.076 304.284L189.222 303.822L193.856 295.31L194.71 295.772ZM196.264 301.946C196.264 301.232 195.774 300.742 195.06 300.742C194.346 300.742 193.856 301.232 193.856 301.946C193.856 302.646 194.346 303.178 195.06 303.178C195.774 303.178 196.264 302.646 196.264 301.946ZM190.034 297.62C190.034 296.906 189.558 296.416 188.844 296.416C188.13 296.416 187.64 296.906 187.64 297.62C187.64 298.334 188.13 298.852 188.844 298.852C189.558 298.852 190.034 298.334 190.034 297.62Z" fill="#00157E" fill-opacity="0.7"/>
<path d="M259.962 262.632C259.29 262.98 258.606 263.136 257.694 263.136C255.93 263.136 254.574 261.948 254.574 259.548C254.574 256.992 256.086 255.648 258.03 255.648C258.834 255.648 259.326 255.768 259.938 256.032L259.554 256.908C259.098 256.704 258.666 256.548 258.018 256.548C256.758 256.548 255.606 257.52 255.606 259.296C255.606 261.276 256.338 262.248 258.09 262.248C258.666 262.248 259.194 262.02 259.626 261.828L259.962 262.632ZM266.485 263.004H265.477V259.704H262.225V263.004H261.217V255.78H262.225V258.852H265.477V255.78H266.485V263.004ZM272.07 256.632H269.478V258.984H271.818V259.836H269.478V263.004H268.482V255.78H272.07V256.632Z" fill="#00157E" fill-opacity="0.7"/>
<path d="M284.997 264.004H283.219V258.334L281.987 258.502L281.777 257.242L284.997 256.724V264.004ZM288.727 256.598C288.727 258.026 288.153 258.824 287.117 259.566L286.613 259.02C287.103 258.6 287.425 258.152 287.537 257.536C287.019 257.48 286.599 257.018 286.599 256.486C286.599 255.912 287.075 255.436 287.649 255.436C288.251 255.436 288.727 255.884 288.727 256.598ZM296.009 260.434C296.009 262.394 295.155 264.172 292.999 264.172C290.843 264.172 289.989 262.394 289.989 260.434C289.989 258.474 290.843 256.696 292.999 256.696C295.155 256.696 296.009 258.474 296.009 260.434ZM294.217 260.434C294.217 259.09 293.839 258.278 292.999 258.278C292.173 258.278 291.781 259.09 291.781 260.434C291.781 261.778 292.173 262.59 292.999 262.59C293.839 262.59 294.217 261.778 294.217 260.434ZM303.255 260.434C303.255 262.394 302.401 264.172 300.245 264.172C298.089 264.172 297.235 262.394 297.235 260.434C297.235 258.474 298.089 256.696 300.245 256.696C302.401 256.696 303.255 258.474 303.255 260.434ZM301.463 260.434C301.463 259.09 301.085 258.278 300.245 258.278C299.419 258.278 299.027 259.09 299.027 260.434C299.027 261.778 299.419 262.59 300.245 262.59C301.085 262.59 301.463 261.778 301.463 260.434ZM309.703 261.736C309.703 263.08 308.709 264.172 307.099 264.172C305.391 264.172 304.453 263.388 304.453 261.946C304.453 260.882 305.181 260.168 305.797 259.706C305.167 259.216 304.635 258.642 304.635 257.634C304.635 256.276 305.783 255.408 307.043 255.408C308.401 255.408 309.437 256.15 309.437 257.452C309.437 258.376 308.849 259.006 308.289 259.454C309.003 259.944 309.703 260.602 309.703 261.736ZM308.135 261.806C308.135 261.12 307.519 260.7 306.931 260.336C306.441 260.7 306.035 261.092 306.035 261.764C306.035 262.436 306.483 262.786 307.127 262.786C307.771 262.786 308.135 262.338 308.135 261.806ZM307.953 257.62C307.953 257.074 307.617 256.738 307.057 256.738C306.525 256.738 306.203 257.102 306.203 257.634C306.203 258.152 306.651 258.488 307.155 258.824C307.575 258.516 307.953 258.138 307.953 257.62ZM313.077 263.052C313.077 263.64 312.601 264.116 312.013 264.116C311.425 264.116 310.949 263.64 310.949 263.052C310.949 262.478 311.425 262.002 312.013 262.002C312.601 262.002 313.077 262.478 313.077 263.052ZM319.267 262.562C319.267 265.068 317.125 266.048 314.619 266.342L314.353 264.83C315.529 264.648 317.447 264.242 317.447 262.744C317.447 261.806 316.761 261.344 315.179 261.344H314.353L314.619 256.864H319.015V258.46H316.089L315.991 260.112C315.991 260.112 316.257 260.098 316.537 260.098C318.245 260.098 319.267 260.938 319.267 262.562ZM326.388 260.434C326.388 262.394 325.534 264.172 323.378 264.172C321.222 264.172 320.368 262.394 320.368 260.434C320.368 258.474 321.222 256.696 323.378 256.696C325.534 256.696 326.388 258.474 326.388 260.434ZM324.596 260.434C324.596 259.09 324.218 258.278 323.378 258.278C322.552 258.278 322.16 259.09 322.16 260.434C322.16 261.778 322.552 262.59 323.378 262.59C324.218 262.59 324.596 261.778 324.596 260.434Z" fill="#00157E"/>
<path d="M297.374 276.42C297.374 278.244 296.582 279.564 294.71 279.564C294.398 279.564 294.146 279.54 293.918 279.48V281.88L292.958 282.036V275.184L292.79 273.948L293.738 273.792L293.822 274.368H293.834C294.206 274.056 294.698 273.756 295.346 273.756C296.714 273.756 297.374 274.788 297.374 276.42ZM296.414 276.696C296.414 275.472 296.138 274.62 295.022 274.62C294.542 274.62 294.194 274.824 293.918 275.052V278.592C294.146 278.688 294.41 278.748 294.782 278.748C295.826 278.748 296.414 277.932 296.414 276.696ZM302.523 273.996L302.223 274.86C301.911 274.74 301.563 274.632 301.167 274.632C300.111 274.632 299.475 275.424 299.475 276.612C299.475 278.112 300.063 278.796 301.143 278.796C301.527 278.796 301.839 278.664 302.151 278.532L302.475 279.312C302.007 279.528 301.491 279.636 300.951 279.636C299.343 279.636 298.515 278.484 298.515 276.768C298.515 274.704 299.787 273.756 301.215 273.756C301.707 273.756 302.127 273.84 302.523 273.996ZM307.097 277.872C307.097 278.892 306.293 279.624 305.093 279.624C304.517 279.624 303.941 279.54 303.485 279.324L303.773 278.484C304.169 278.664 304.613 278.808 305.045 278.808C305.693 278.808 306.125 278.556 306.125 278.028C306.125 277.62 305.909 277.452 305.537 277.284L304.493 276.804C304.121 276.636 303.449 276.3 303.449 275.328C303.449 274.26 304.385 273.756 305.405 273.756C306.017 273.756 306.449 273.852 306.929 274.056L306.605 274.884C306.221 274.716 305.849 274.596 305.393 274.596C304.781 274.596 304.385 274.788 304.385 275.268C304.385 275.688 304.745 275.856 304.973 275.964L306.041 276.468C306.785 276.816 307.097 277.26 307.097 277.872ZM309.718 278.892C309.718 279.276 309.406 279.588 309.034 279.588C308.65 279.588 308.338 279.276 308.338 278.892C308.338 278.52 308.65 278.208 309.034 278.208C309.406 278.208 309.718 278.52 309.718 278.892Z" fill="#00157E" fill-opacity="0.7"/>
<path d="M317.91 280.004H316.804V273.816L315.572 273.984L315.446 273.13L317.91 272.738V280.004ZM325.485 276.434C325.485 278.296 324.757 280.158 322.643 280.158C320.515 280.158 319.787 278.296 319.787 276.434C319.787 274.572 320.515 272.71 322.643 272.71C324.757 272.71 325.485 274.572 325.485 276.434ZM324.337 276.434C324.337 274.866 323.819 273.69 322.643 273.69C321.453 273.69 320.935 274.866 320.935 276.434C320.935 278.002 321.453 279.178 322.643 279.178C323.819 279.178 324.337 278.002 324.337 276.434Z" fill="#00157E"/>
<path d="M257.962 295.132C257.29 295.48 256.606 295.636 255.694 295.636C253.93 295.636 252.574 294.448 252.574 292.048C252.574 289.492 254.086 288.148 256.03 288.148C256.834 288.148 257.326 288.268 257.938 288.532L257.554 289.408C257.098 289.204 256.666 289.048 256.018 289.048C254.758 289.048 253.606 290.02 253.606 291.796C253.606 293.776 254.338 294.748 256.09 294.748C256.666 294.748 257.194 294.52 257.626 294.328L257.962 295.132ZM264.485 295.504H263.477V292.204H260.225V295.504H259.217V288.28H260.225V291.352H263.477V288.28H264.485V295.504ZM270.07 289.132H267.478V291.484H269.818V292.336H267.478V295.504H266.482V288.28H270.07V289.132Z" fill="#00157E" fill-opacity="0.7"/>
<path d="M277.91 296.004H276.804V289.816L275.572 289.984L275.446 289.13L277.91 288.738V296.004ZM285.485 292.434C285.485 294.296 284.757 296.158 282.643 296.158C280.515 296.158 279.787 294.296 279.787 292.434C279.787 290.572 280.515 288.71 282.643 288.71C284.757 288.71 285.485 290.572 285.485 292.434ZM284.337 292.434C284.337 290.866 283.819 289.69 282.643 289.69C281.453 289.69 280.935 290.866 280.935 292.434C280.935 294.002 281.453 295.178 282.643 295.178C283.819 295.178 284.337 294.002 284.337 292.434ZM288.644 288.374C288.644 289.396 288.224 290.18 287.37 290.684L287.048 290.264C287.468 289.956 287.692 289.564 287.762 289.06C287.37 289.004 287.034 288.668 287.034 288.262C287.034 287.8 287.398 287.45 287.846 287.45C288.294 287.45 288.644 287.814 288.644 288.374ZM295.078 293.96C295.078 295.304 294.056 296.158 292.614 296.158C291.144 296.158 290.15 295.416 290.15 294.044C290.15 292.812 291.06 292.07 291.76 291.594C290.92 291.006 290.36 290.502 290.36 289.452C290.36 288.262 291.34 287.422 292.6 287.422C293.958 287.422 294.84 288.178 294.84 289.354C294.84 290.362 294.14 291.006 293.454 291.482C294.35 292.084 295.078 292.686 295.078 293.96ZM294 293.96C294 293.05 293.37 292.588 292.53 292.042C291.788 292.546 291.214 292.98 291.214 293.904C291.214 294.744 291.774 295.22 292.628 295.22C293.538 295.22 294 294.66 294 293.96ZM293.846 289.48C293.846 288.766 293.37 288.304 292.614 288.304C291.858 288.304 291.368 288.794 291.368 289.494C291.368 290.152 291.914 290.53 292.67 291.048C293.272 290.656 293.846 290.152 293.846 289.48ZM302.247 292.434C302.247 294.296 301.519 296.158 299.405 296.158C297.277 296.158 296.549 294.296 296.549 292.434C296.549 290.572 297.277 288.71 299.405 288.71C301.519 288.71 302.247 290.572 302.247 292.434ZM301.099 292.434C301.099 290.866 300.581 289.69 299.405 289.69C298.215 289.69 297.697 290.866 297.697 292.434C297.697 294.002 298.215 295.178 299.405 295.178C300.581 295.178 301.099 294.002 301.099 292.434ZM308.29 294.744C308.29 297.432 305.756 298.188 303.95 298.328L303.81 297.376C305.084 297.236 307.142 296.732 307.142 294.898C307.142 293.75 306.498 293.078 304.706 293.078H303.768L304.076 288.864H308.066V289.886H305.042L304.86 292.238C304.86 292.238 305.182 292.21 305.476 292.21C307.1 292.21 308.29 293.064 308.29 294.744ZM311.326 295.29C311.326 295.738 310.962 296.102 310.528 296.102C310.08 296.102 309.716 295.738 309.716 295.29C309.716 294.856 310.08 294.492 310.528 294.492C310.962 294.492 311.326 294.856 311.326 295.29ZM318.571 292.434C318.571 294.296 317.843 296.158 315.729 296.158C313.601 296.158 312.873 294.296 312.873 292.434C312.873 290.572 313.601 288.71 315.729 288.71C317.843 288.71 318.571 290.572 318.571 292.434ZM317.423 292.434C317.423 290.866 316.905 289.69 315.729 289.69C314.539 289.69 314.021 290.866 314.021 292.434C314.021 294.002 314.539 295.178 315.729 295.178C316.905 295.178 317.423 294.002 317.423 292.434ZM325.776 292.434C325.776 294.296 325.048 296.158 322.934 296.158C320.806 296.158 320.078 294.296 320.078 292.434C320.078 290.572 320.806 288.71 322.934 288.71C325.048 288.71 325.776 290.572 325.776 292.434ZM324.628 292.434C324.628 290.866 324.11 289.69 322.934 289.69C321.744 289.69 321.226 290.866 321.226 292.434C321.226 294.002 321.744 295.178 322.934 295.178C324.11 295.178 324.628 294.002 324.628 292.434Z" fill="#00157E"/>
<defs>
<clipPath id="clip0_820_126259">
<rect width="24" height="24" fill="white" transform="translate(16.002 112.002)"/>
</clipPath>
<clipPath id="clip1_820_126259">
<rect width="24" height="24" fill="white" transform="translate(16.002 200.003)"/>
</clipPath>
<clipPath id="clip2_820_126259">
<rect width="24" height="24" fill="white" transform="translate(16.002 288.004)"/>
</clipPath>
</defs>
</svg>
