<svg width="125" height="63" viewBox="0 0 125 63" fill="none" xmlns="http://www.w3.org/2000/svg">
<path d="M38.5 31.5C38.5 18.2452 49.2452 7.5 62.5 7.5C75.7548 7.5 86.5 18.2452 86.5 31.5C86.5 44.7548 75.7548 55.5 62.5 55.5C49.2452 55.5 38.5 44.7548 38.5 31.5Z" fill="#00157E" fill-opacity="0.05"/>
<path d="M53.5 21L62.5 14L71.5 21V32C71.5 32.5304 71.2893 33.0391 70.9142 33.4142C70.5391 33.7893 70.0304 34 69.5 34H55.5C54.9696 34 54.4609 33.7893 54.0858 33.4142C53.7107 33.0391 53.5 32.5304 53.5 32V21Z" stroke="#00157E" stroke-width="2" stroke-linecap="round" stroke-linejoin="round"/>
<path d="M59.5 34V24H65.5V34" stroke="#00157E" stroke-width="2" stroke-linecap="round" stroke-linejoin="round"/>
<path d="M47.8431 47.388C47.8431 49.284 46.9911 51.132 44.5791 51.132C42.1191 51.132 41.2791 49.308 41.2791 47.388C41.2791 45.48 42.1551 43.644 44.5791 43.644C47.0391 43.644 47.8431 45.456 47.8431 47.388ZM46.7871 47.388C46.7871 45.624 46.1031 44.496 44.5791 44.496C43.0671 44.496 42.3591 45.672 42.3591 47.388C42.3591 49.14 43.0431 50.28 44.5791 50.28C46.0671 50.28 46.7871 49.104 46.7871 47.388ZM53.4661 45.384L51.4381 50.988L50.4901 51.024L48.6421 45.468L49.6021 45.228L51.0061 49.752H51.0181L52.5061 45.384H53.4661ZM58.442 50.7C57.902 51 57.35 51.132 56.666 51.132C55.01 51.132 54.158 50.016 54.158 48.156C54.158 46.416 55.07 45.252 56.486 45.252C57.842 45.252 58.394 46.152 58.394 47.388V48.06H55.094C55.106 49.56 55.646 50.28 56.87 50.28C57.338 50.28 57.698 50.148 58.106 49.944L58.442 50.7ZM57.494 47.388C57.494 46.548 57.182 46.02 56.438 46.02C55.718 46.02 55.262 46.584 55.142 47.388H57.494ZM62.3941 46.212C61.7461 46.212 61.2661 46.38 60.8341 46.776V51H59.8741V46.68L59.7061 45.444L60.6541 45.288L60.7501 46.056H60.7621C61.1461 45.624 61.6501 45.264 62.3941 45.264V46.212ZM67.8333 45.384L65.8053 50.988L64.8573 51.024L63.0093 45.468L63.9693 45.228L65.3733 49.752H65.3853L66.8733 45.384H67.8333ZM70.0104 51H69.0504V46.68L68.8824 45.444L70.0104 45.288V51ZM70.2024 43.92C70.2024 44.304 69.9024 44.592 69.5424 44.592C69.1704 44.592 68.8584 44.304 68.8584 43.92C68.8584 43.536 69.1704 43.236 69.5424 43.236C69.9024 43.236 70.2024 43.536 70.2024 43.92ZM75.8327 50.7C75.2927 51 74.7407 51.132 74.0567 51.132C72.4007 51.132 71.5487 50.016 71.5487 48.156C71.5487 46.416 72.4607 45.252 73.8767 45.252C75.2327 45.252 75.7847 46.152 75.7847 47.388V48.06H72.4847C72.4967 49.56 73.0367 50.28 74.2607 50.28C74.7287 50.28 75.0887 50.148 75.4967 49.944L75.8327 50.7ZM74.8847 47.388C74.8847 46.548 74.5727 46.02 73.8287 46.02C73.1087 46.02 72.6527 46.584 72.5327 47.388H74.8847ZM83.9967 45.384L82.4487 50.976L81.5607 51.024L80.1927 46.764H80.1807L78.8007 50.988L77.9127 51.024L76.5087 45.444L77.4207 45.216L78.4287 49.596H78.4407L79.7487 45.384H80.6847L82.0047 49.596H82.0167L83.0607 45.384H83.9967Z" fill="#00157E"/>
</svg>
