<svg width="343" height="296" viewBox="0 0 343 296" fill="none" xmlns="http://www.w3.org/2000/svg">
<path d="M0 8C0 3.58172 3.58172 0 8 0H335C339.418 0 343 3.58172 343 8V288.004C343 292.422 339.418 296.004 335 296.004H7.99999C3.58172 296.004 0 292.422 0 288.004V8Z" fill="white"/>
<path d="M8 0.5H335C339.142 0.5 342.5 3.85786 342.5 8V288.004C342.5 292.146 339.142 295.504 335 295.504H8C3.85787 295.504 0.5 292.146 0.5 288.004V8C0.5 3.85786 3.85786 0.5 8 0.5Z" stroke="#00157E" stroke-opacity="0.2"/>
<path d="M25.061 29.221C25.061 31.941 22.821 33.621 20.201 33.621H20.021V38.001H17.381V26.081C17.381 26.081 18.961 25.841 20.641 25.841C23.461 25.841 25.061 27.021 25.061 29.221ZM22.501 29.501C22.501 28.261 21.741 27.821 20.661 27.821C20.321 27.821 20.021 27.861 20.021 27.861V31.641H20.201C21.461 31.641 22.501 30.901 22.501 29.501ZM34.5179 33.241C34.5179 36.081 33.0379 38.221 30.2579 38.221C27.2579 38.221 25.9979 36.101 25.9979 33.241C25.9979 30.401 27.4779 28.321 30.2579 28.321C33.2579 28.321 34.5179 30.381 34.5179 33.241ZM31.9979 33.261C31.9979 31.321 31.3579 30.541 30.2579 30.541C29.1579 30.541 28.5179 31.281 28.5179 33.221C28.5179 35.141 29.1579 36.001 30.2579 36.001C31.3579 36.001 31.9979 35.181 31.9979 33.261ZM42.5197 34.961C42.5197 36.781 41.0597 38.221 38.8597 38.221C37.7197 38.221 36.6997 38.041 35.8397 37.641L36.4997 35.561C37.2197 35.861 37.9197 36.161 38.7197 36.161C39.5797 36.161 39.9997 35.861 39.9997 35.361C39.9997 34.901 39.7797 34.721 39.2597 34.501L37.7797 33.881C36.8997 33.521 35.9397 32.861 35.9397 31.301C35.9397 29.341 37.5997 28.301 39.5797 28.301C40.6997 28.301 41.4597 28.481 42.3597 28.861L41.5797 30.901C40.9397 30.641 40.3197 30.381 39.5997 30.381C38.8197 30.381 38.3797 30.601 38.3797 31.121C38.3797 31.621 38.7797 31.801 39.1397 31.941L40.6797 32.561C41.8797 33.041 42.5197 33.801 42.5197 34.961ZM47.1266 38.001H44.5866V31.001L44.2666 28.661L47.1266 28.341V38.001ZM47.3666 25.881C47.3666 26.721 46.7066 27.401 45.8666 27.401C45.0266 27.401 44.3666 26.721 44.3666 25.881C44.3666 25.061 45.0266 24.381 45.8666 24.381C46.7066 24.381 47.3666 25.061 47.3666 25.881ZM55.5038 37.541C54.6838 37.981 54.0638 38.221 52.8038 38.221C50.9238 38.221 50.0038 36.961 50.0038 35.081V30.541H48.5438V28.861L50.0038 28.521V26.881L52.5238 26.581V28.541H55.1238V30.541H52.5238V34.401C52.5238 35.661 52.8438 35.981 53.6638 35.981C54.1238 35.981 54.3838 35.861 54.8238 35.661L55.5038 37.541ZM59.6852 38.001H57.1452V31.001L56.8252 28.661L59.6852 28.341V38.001ZM59.9252 25.881C59.9252 26.721 59.2652 27.401 58.4252 27.401C57.5852 27.401 56.9252 26.721 56.9252 25.881C56.9252 25.061 57.5852 24.381 58.4252 24.381C59.2652 24.381 59.9252 25.061 59.9252 25.881ZM70.1624 33.241C70.1624 36.081 68.6824 38.221 65.9024 38.221C62.9024 38.221 61.6424 36.101 61.6424 33.241C61.6424 30.401 63.1224 28.321 65.9024 28.321C68.9024 28.321 70.1624 30.381 70.1624 33.241ZM67.6424 33.261C67.6424 31.321 67.0024 30.541 65.9024 30.541C64.8024 30.541 64.1624 31.281 64.1624 33.221C64.1624 35.141 64.8024 36.001 65.9024 36.001C67.0024 36.001 67.6424 35.181 67.6424 33.261ZM80.1243 38.001H77.5843V32.001C77.5843 30.981 77.1643 30.521 76.2643 30.521C75.6043 30.521 75.0443 30.841 74.6843 31.201V38.001H72.1443V31.001L71.8243 28.661L74.2643 28.341L74.3843 29.381H74.4043C74.9643 28.821 75.9043 28.301 77.1643 28.301C78.8043 28.301 80.1243 29.241 80.1243 31.381V38.001ZM88.6525 34.961C88.6525 36.781 87.1925 38.221 84.9925 38.221C83.8525 38.221 82.8325 38.041 81.9725 37.641L82.6325 35.561C83.3525 35.861 84.0525 36.161 84.8525 36.161C85.7125 36.161 86.1325 35.861 86.1325 35.361C86.1325 34.901 85.9125 34.721 85.3925 34.501L83.9125 33.881C83.0325 33.521 82.0725 32.861 82.0725 31.301C82.0725 29.341 83.7325 28.301 85.7125 28.301C86.8325 28.301 87.5925 28.481 88.4925 28.861L87.7125 30.901C87.0725 30.641 86.4525 30.381 85.7325 30.381C84.9525 30.381 84.5125 30.601 84.5125 31.121C84.5125 31.621 84.9125 31.801 85.2725 31.941L86.8125 32.561C88.0125 33.041 88.6525 33.801 88.6525 34.961Z" fill="#00157E"/>
<path d="M232.999 20.001C232.999 17.7918 234.79 16.001 236.999 16.001H322.999C325.208 16.001 326.999 17.7918 326.999 20.001V44.001C326.999 46.2101 325.208 48.001 322.999 48.001H236.999C234.79 48.001 232.999 46.2101 232.999 44.001V20.001Z" fill="#00157E" fill-opacity="0.05"/>
<path d="M246.92 33.635C246.92 35.105 245.898 36.155 244.204 36.155C243.336 36.155 242.566 35.973 241.908 35.693L242.272 34.671C242.818 34.923 243.462 35.133 244.12 35.133C245.142 35.133 245.8 34.741 245.8 33.817C245.8 33.131 245.296 32.795 244.624 32.473L243.308 31.843C242.426 31.423 241.824 30.877 241.824 29.687C241.824 28.245 243.084 27.419 244.54 27.419C245.324 27.419 245.828 27.545 246.556 27.811L246.164 28.805C245.716 28.595 245.226 28.399 244.61 28.399C243.742 28.399 242.958 28.749 242.958 29.645C242.958 30.247 243.322 30.541 243.882 30.807L245.226 31.465C246.29 31.983 246.92 32.557 246.92 33.635ZM253.545 36.001H252.439V31.745C252.439 30.793 252.061 30.303 251.165 30.303C250.521 30.303 250.087 30.583 249.709 30.919V36.001H248.589V28.063L248.393 26.621L249.709 26.439V30.023H249.723C250.157 29.645 250.759 29.295 251.571 29.295C252.691 29.295 253.545 29.995 253.545 31.353V36.001ZM260.919 32.725C260.919 34.643 260.009 36.155 258.119 36.155C256.047 36.155 255.319 34.685 255.319 32.725C255.319 30.807 256.229 29.295 258.119 29.295C260.191 29.295 260.919 30.765 260.919 32.725ZM259.771 32.753C259.771 31.129 259.225 30.275 258.119 30.275C257.041 30.275 256.467 31.031 256.467 32.683C256.467 34.307 257.013 35.175 258.119 35.175C259.197 35.175 259.771 34.405 259.771 32.753ZM270.553 29.449L268.747 35.973L267.711 36.029L266.115 31.059H266.101L264.491 35.987L263.455 36.029L261.817 29.519L262.881 29.253L264.057 34.363H264.071L265.597 29.449H266.689L268.229 34.363H268.243L269.461 29.449H270.553ZM279.261 35.931L278.141 36.113L278.043 35.343H278.029C277.553 35.791 277.035 36.169 276.251 36.169C275.159 36.169 274.515 35.511 274.515 34.475C274.515 33.299 275.439 32.725 276.769 32.585L277.945 32.459V31.871C277.945 30.961 277.665 30.317 276.587 30.317C276.041 30.317 275.635 30.485 275.229 30.695L274.823 29.869C275.411 29.519 276.013 29.295 276.853 29.295C278.169 29.295 279.051 30.065 279.051 31.367V34.489L279.261 35.931ZM277.945 34.643V33.215L276.923 33.355C276.083 33.467 275.621 33.733 275.621 34.335C275.621 34.881 275.957 35.245 276.517 35.245C277.175 35.245 277.581 34.965 277.945 34.643ZM282.399 36.001H281.279V28.063L281.083 26.621L282.399 26.439V36.001ZM285.707 36.001H284.587V28.063L284.391 26.621L285.707 26.439V36.001Z" fill="#00157E"/>
<path d="M299.999 32.001H313.999" stroke="#00157E" stroke-width="2" stroke-linecap="round" stroke-linejoin="round"/>
<path d="M306.999 25.001L313.999 32.001L306.999 39.001" stroke="#00157E" stroke-width="2" stroke-linecap="round" stroke-linejoin="round"/>
<mask id="path-8-inside-1_820_126259" fill="white">
<path d="M0.000976562 64.002H342.999V136.002H0.000976562V64.002Z"/>
</mask>
<path d="M342.999 136.002V135.002H0.000976562V136.002V137.002H342.999V136.002Z" fill="#00157E" fill-opacity="0.2" mask="url(#path-8-inside-1_820_126259)"/>
<path d="M23.576 87.778L21.77 88.24L21.056 85.664H18.704L18.06 88.002H16.17L18.97 79.574H20.888L23.576 87.778ZM20.748 84.446L19.908 81.366H19.894L19.04 84.446H20.748ZM30.5879 85.37C30.5879 87.092 29.1879 88.002 26.6959 88.002H24.6379V79.644C24.6379 79.644 25.8279 79.49 27.0039 79.49C29.0479 79.49 29.9999 80.162 29.9999 81.436C29.9999 82.5 29.3139 83.018 28.4319 83.354V83.368C29.7199 83.508 30.5879 84.208 30.5879 85.37ZM28.6839 85.412C28.6839 84.614 28.0819 84.292 26.9479 84.292H26.4439V86.504H27.2699C28.1239 86.504 28.6839 86.126 28.6839 85.412ZM28.0959 81.856C28.0959 81.142 27.6339 80.876 26.8779 80.876C26.6259 80.876 26.4439 80.904 26.4439 80.904V83.018C27.3259 83.018 28.0959 82.766 28.0959 81.856ZM37.834 85.37C37.834 87.092 36.434 88.002 33.942 88.002H31.884V79.644C31.884 79.644 33.074 79.49 34.25 79.49C36.294 79.49 37.246 80.162 37.246 81.436C37.246 82.5 36.56 83.018 35.678 83.354V83.368C36.966 83.508 37.834 84.208 37.834 85.37ZM35.93 85.412C35.93 84.614 35.328 84.292 34.194 84.292H33.69V86.504H34.516C35.37 86.504 35.93 86.126 35.93 85.412ZM35.342 81.856C35.342 81.142 34.88 80.876 34.124 80.876C33.872 80.876 33.69 80.904 33.69 80.904V83.018C34.572 83.018 35.342 82.766 35.342 81.856ZM46.8995 88.002H42.0695V79.574H43.9595V86.42H46.8995V88.002ZM51.9391 87.68C51.3651 87.988 50.9311 88.156 50.0491 88.156C48.7331 88.156 48.0891 87.274 48.0891 85.958V82.78H47.0671V81.604L48.0891 81.366V80.218L49.8531 80.008V81.38H51.6731V82.78H49.8531V85.482C49.8531 86.364 50.0771 86.588 50.6511 86.588C50.9731 86.588 51.1551 86.504 51.4631 86.364L51.9391 87.68ZM58.3703 87.918L56.6763 88.128L56.5783 87.442H56.5643C56.3963 87.582 55.8503 88.17 54.9543 88.17C53.3023 88.17 52.4763 86.77 52.4763 84.922C52.4763 82.542 53.8343 81.324 55.7523 81.324C56.1023 81.324 56.3683 81.38 56.3683 81.38V80.288L56.1443 78.65L58.1463 78.426V86.28L58.3703 87.918ZM55.5003 86.588C55.9203 86.588 56.2423 86.406 56.3683 86.294V82.906C56.3683 82.906 56.1303 82.794 55.6963 82.794C54.8423 82.794 54.2683 83.466 54.2683 84.656C54.2683 85.986 54.6183 86.588 55.5003 86.588Z" fill="#00157E"/>
<path d="M21.728 101.636C21.728 103.106 20.706 104.156 19.012 104.156C18.144 104.156 17.374 103.974 16.716 103.694L17.08 102.672C17.626 102.924 18.27 103.134 18.928 103.134C19.95 103.134 20.608 102.742 20.608 101.818C20.608 101.132 20.104 100.796 19.432 100.474L18.116 99.844C17.234 99.424 16.632 98.878 16.632 97.688C16.632 96.246 17.892 95.42 19.348 95.42C20.132 95.42 20.636 95.546 21.364 95.812L20.972 96.806C20.524 96.596 20.034 96.4 19.418 96.4C18.55 96.4 17.766 96.75 17.766 97.646C17.766 98.248 18.13 98.542 18.69 98.808L20.034 99.466C21.098 99.984 21.728 100.558 21.728 101.636ZM26.7007 103.736C26.2947 103.96 25.9167 104.142 25.2027 104.142C24.1947 104.142 23.5507 103.484 23.5507 102.364V98.36H22.5847V97.618L23.5507 97.422V96.33L24.6567 96.19V97.45H26.4907V98.36H24.6567V101.986C24.6567 102.868 24.8807 103.148 25.5247 103.148C25.8747 103.148 26.1407 103.008 26.3367 102.882L26.7007 103.736ZM31.1362 98.416C30.3802 98.416 29.8202 98.612 29.3162 99.074V104.002H28.1962V98.962L28.0002 97.52L29.1062 97.338L29.2182 98.234H29.2322C29.6802 97.73 30.2682 97.31 31.1362 97.31V98.416ZM37.6688 103.932L36.5628 104.114L36.4508 103.358H36.4368C35.9468 103.82 35.3028 104.156 34.4908 104.156C33.3848 104.156 32.5028 103.442 32.5028 102.098V98.962L32.3068 97.52L33.6228 97.338V101.706C33.6228 102.672 33.9868 103.176 34.8688 103.176C35.4988 103.176 35.9468 102.91 36.3528 102.532V98.962L36.1568 97.52L37.4728 97.338V102.49L37.6688 103.932ZM43.9359 97.576L43.5859 98.584C43.2219 98.444 42.8159 98.318 42.3539 98.318C41.1219 98.318 40.3799 99.242 40.3799 100.628C40.3799 102.378 41.0659 103.176 42.3259 103.176C42.7739 103.176 43.1379 103.022 43.5019 102.868L43.8799 103.778C43.3339 104.03 42.7319 104.156 42.1019 104.156C40.2259 104.156 39.2599 102.812 39.2599 100.81C39.2599 98.402 40.7439 97.296 42.4099 97.296C42.9839 97.296 43.4739 97.394 43.9359 97.576ZM48.8901 103.736C48.4841 103.96 48.1061 104.142 47.3921 104.142C46.3841 104.142 45.7401 103.484 45.7401 102.364V98.36H44.7741V97.618L45.7401 97.422V96.33L46.8461 96.19V97.45H48.6801V98.36H46.8461V101.986C46.8461 102.868 47.0701 103.148 47.7141 103.148C48.0641 103.148 48.3301 103.008 48.5261 102.882L48.8901 103.736ZM55.5516 103.932L54.4456 104.114L54.3336 103.358H54.3196C53.8296 103.82 53.1856 104.156 52.3736 104.156C51.2676 104.156 50.3856 103.442 50.3856 102.098V98.962L50.1896 97.52L51.5056 97.338V101.706C51.5056 102.672 51.8696 103.176 52.7516 103.176C53.3816 103.176 53.8296 102.91 54.2356 102.532V98.962L54.0396 97.52L55.3556 97.338V102.49L55.5516 103.932ZM60.5307 98.416C59.7747 98.416 59.2147 98.612 58.7107 99.074V104.002H57.5907V98.962L57.3947 97.52L58.5007 97.338L58.6127 98.234H58.6267C59.0747 97.73 59.6627 97.31 60.5307 97.31V98.416ZM66.2833 103.652C65.6533 104.002 65.0093 104.156 64.2113 104.156C62.2793 104.156 61.2853 102.854 61.2853 100.684C61.2853 98.654 62.3493 97.296 64.0013 97.296C65.5833 97.296 66.2273 98.346 66.2273 99.788V100.572H62.3773C62.3913 102.322 63.0213 103.162 64.4493 103.162C64.9953 103.162 65.4153 103.008 65.8913 102.77L66.2833 103.652ZM65.1773 99.788C65.1773 98.808 64.8133 98.192 63.9453 98.192C63.1053 98.192 62.5733 98.85 62.4333 99.788H65.1773ZM72.868 103.96L71.79 104.114L71.692 103.456H71.678C71.258 103.806 70.684 104.156 69.914 104.156C68.472 104.156 67.506 102.966 67.506 101.02C67.506 98.766 68.668 97.38 70.656 97.38C71.188 97.38 71.566 97.478 71.566 97.478V96.064L71.356 94.622L72.672 94.44V102.518L72.868 103.96ZM70.306 103.176C70.852 103.176 71.23 102.952 71.566 102.686V98.5C71.566 98.5 71.202 98.318 70.558 98.318C69.284 98.318 68.654 99.396 68.654 100.67C68.654 102.252 69.074 103.176 70.306 103.176ZM83.0044 100.404C83.0044 102.532 82.0804 104.072 79.8964 104.072C79.5324 104.072 79.2384 104.044 78.9724 103.974V106.774L77.8524 106.956V98.962L77.6564 97.52L78.7624 97.338L78.8604 98.01H78.8744C79.3084 97.646 79.8824 97.296 80.6384 97.296C82.2344 97.296 83.0044 98.5 83.0044 100.404ZM81.8844 100.726C81.8844 99.298 81.5624 98.304 80.2604 98.304C79.7004 98.304 79.2944 98.542 78.9724 98.808V102.938C79.2384 103.05 79.5464 103.12 79.9804 103.12C81.1984 103.12 81.8844 102.168 81.8844 100.726ZM87.7241 98.416C86.9681 98.416 86.4081 98.612 85.9041 99.074V104.002H84.7841V98.962L84.5881 97.52L85.6941 97.338L85.8061 98.234H85.8201C86.2681 97.73 86.8561 97.31 87.7241 97.31V98.416ZM94.0786 100.726C94.0786 102.644 93.1686 104.156 91.2786 104.156C89.2066 104.156 88.4786 102.686 88.4786 100.726C88.4786 98.808 89.3886 97.296 91.2786 97.296C93.3506 97.296 94.0786 98.766 94.0786 100.726ZM92.9306 100.754C92.9306 99.13 92.3846 98.276 91.2786 98.276C90.2006 98.276 89.6266 99.032 89.6266 100.684C89.6266 102.308 90.1726 103.176 91.2786 103.176C92.3566 103.176 92.9306 102.406 92.9306 100.754ZM100.772 103.96L99.6943 104.114L99.5963 103.456H99.5823C99.1623 103.806 98.5883 104.156 97.8183 104.156C96.3763 104.156 95.4103 102.966 95.4103 101.02C95.4103 98.766 96.5723 97.38 98.5603 97.38C99.0923 97.38 99.4703 97.478 99.4703 97.478V96.064L99.2603 94.622L100.576 94.44V102.518L100.772 103.96ZM98.2103 103.176C98.7563 103.176 99.1343 102.952 99.4703 102.686V98.5C99.4703 98.5 99.1063 98.318 98.4623 98.318C97.1883 98.318 96.5583 99.396 96.5583 100.67C96.5583 102.252 96.9783 103.176 98.2103 103.176ZM107.983 103.932L106.877 104.114L106.765 103.358H106.751C106.261 103.82 105.617 104.156 104.805 104.156C103.699 104.156 102.817 103.442 102.817 102.098V98.962L102.621 97.52L103.937 97.338V101.706C103.937 102.672 104.301 103.176 105.183 103.176C105.813 103.176 106.261 102.91 106.667 102.532V98.962L106.471 97.52L107.787 97.338V102.49L107.983 103.932ZM114.25 97.576L113.9 98.584C113.536 98.444 113.13 98.318 112.668 98.318C111.436 98.318 110.694 99.242 110.694 100.628C110.694 102.378 111.38 103.176 112.64 103.176C113.088 103.176 113.452 103.022 113.816 102.868L114.194 103.778C113.648 104.03 113.046 104.156 112.416 104.156C110.54 104.156 109.574 102.812 109.574 100.81C109.574 98.402 111.058 97.296 112.724 97.296C113.298 97.296 113.788 97.394 114.25 97.576ZM119.205 103.736C118.799 103.96 118.421 104.142 117.707 104.142C116.699 104.142 116.055 103.484 116.055 102.364V98.36H115.089V97.618L116.055 97.422V96.33L117.161 96.19V97.45H118.995V98.36H117.161V101.986C117.161 102.868 117.385 103.148 118.029 103.148C118.379 103.148 118.645 103.008 118.841 102.882L119.205 103.736Z" fill="#00157E" fill-opacity="0.7"/>
<path d="M22.022 116.39H19.656V118.742H18.732V116.39H16.38V115.466H18.732V113.114H19.656V115.466H22.022V116.39ZM25.2987 120.002H24.1927V113.814L22.9607 113.982L22.8347 113.128L25.2987 112.736V120.002ZM28.8279 112.372C28.8279 113.394 28.4079 114.178 27.5539 114.682L27.2319 114.262C27.6519 113.954 27.8759 113.562 27.9459 113.058C27.5539 113.002 27.2179 112.666 27.2179 112.26C27.2179 111.798 27.5819 111.448 28.0299 111.448C28.4779 111.448 28.8279 111.812 28.8279 112.372ZM35.3731 120.002H30.1791V119.274L32.5731 116.978C33.2171 116.348 33.7071 115.886 33.7071 115.116C33.7071 114.304 33.2031 113.702 32.2651 113.702C31.6351 113.702 31.1871 113.982 30.8511 114.262L30.3191 113.52C30.9211 113.016 31.5371 112.708 32.5031 112.708C33.8891 112.708 34.8411 113.52 34.8411 114.99C34.8411 115.97 34.2531 116.712 33.5811 117.328L31.7891 118.98V118.994H35.3731V120.002ZM42.2528 116.432C42.2528 118.294 41.5248 120.156 39.4108 120.156C37.2828 120.156 36.5548 118.294 36.5548 116.432C36.5548 114.57 37.2828 112.708 39.4108 112.708C41.5248 112.708 42.2528 114.57 42.2528 116.432ZM41.1048 116.432C41.1048 114.864 40.5868 113.688 39.4108 113.688C38.2208 113.688 37.7028 114.864 37.7028 116.432C37.7028 118 38.2208 119.176 39.4108 119.176C40.5868 119.176 41.1048 118 41.1048 116.432ZM49.4579 116.432C49.4579 118.294 48.7299 120.156 46.6159 120.156C44.4879 120.156 43.7599 118.294 43.7599 116.432C43.7599 114.57 44.4879 112.708 46.6159 112.708C48.7299 112.708 49.4579 114.57 49.4579 116.432ZM48.3099 116.432C48.3099 114.864 47.7919 113.688 46.6159 113.688C45.4259 113.688 44.9079 114.864 44.9079 116.432C44.9079 118 45.4259 119.176 46.6159 119.176C47.7919 119.176 48.3099 118 48.3099 116.432ZM52.617 119.288C52.617 119.736 52.253 120.1 51.819 120.1C51.371 120.1 51.007 119.736 51.007 119.288C51.007 118.854 51.371 118.49 51.819 118.49C52.253 118.49 52.617 118.854 52.617 119.288ZM59.0502 117.958C59.0502 119.302 58.0282 120.156 56.5862 120.156C55.1162 120.156 54.1222 119.414 54.1222 118.042C54.1222 116.81 55.0322 116.068 55.7322 115.592C54.8922 115.004 54.3322 114.5 54.3322 113.45C54.3322 112.26 55.3122 111.42 56.5722 111.42C57.9302 111.42 58.8122 112.176 58.8122 113.352C58.8122 114.36 58.1122 115.004 57.4262 115.48C58.3222 116.082 59.0502 116.684 59.0502 117.958ZM57.9722 117.958C57.9722 117.048 57.3422 116.586 56.5022 116.04C55.7602 116.544 55.1862 116.978 55.1862 117.902C55.1862 118.742 55.7462 119.218 56.6002 119.218C57.5102 119.218 57.9722 118.658 57.9722 117.958ZM57.8182 113.478C57.8182 112.764 57.3422 112.302 56.5862 112.302C55.8302 112.302 55.3402 112.792 55.3402 113.492C55.3402 114.15 55.8862 114.528 56.6422 115.046C57.2442 114.654 57.8182 114.15 57.8182 113.478ZM65.6876 117.44C65.6876 119.092 64.7076 120.156 63.1256 120.156C61.3336 120.156 60.5776 118.826 60.5776 116.852C60.5776 113.044 62.8176 111.476 65.2536 111.28L65.3936 112.204C63.7136 112.386 62.0336 113.296 61.7116 115.634L61.7256 115.648C61.7256 115.648 62.4396 115.032 63.4056 115.032C64.8756 115.032 65.6876 115.97 65.6876 117.44ZM64.5816 117.664C64.5816 116.474 64.1196 115.97 63.0976 115.97C62.2996 115.97 61.7116 116.53 61.7116 116.53V116.796C61.7116 118.364 62.1176 119.232 63.2236 119.232C64.1476 119.232 64.5816 118.574 64.5816 117.664Z" fill="#00157E"/>
<path d="M77.96 119.568C77.176 119.974 76.378 120.156 75.314 120.156C73.256 120.156 71.674 118.77 71.674 115.97C71.674 112.988 73.438 111.42 75.706 111.42C76.644 111.42 77.218 111.56 77.932 111.868L77.484 112.89C76.952 112.652 76.448 112.47 75.692 112.47C74.222 112.47 72.878 113.604 72.878 115.676C72.878 117.986 73.732 119.12 75.776 119.12C76.448 119.12 77.064 118.854 77.568 118.63L77.96 119.568ZM85.5697 120.002H84.3937V116.152H80.5997V120.002H79.4237V111.574H80.5997V115.158H84.3937V111.574H85.5697V120.002ZM92.0863 112.568H89.0623V115.312H91.7923V116.306H89.0623V120.002H87.9003V111.574H92.0863V112.568Z" fill="#00157E" fill-opacity="0.7"/>
<path d="M115.022 116.39H112.656V118.742H111.732V116.39H109.38V115.466H111.732V113.114H112.656V115.466H115.022V116.39ZM118.299 120.002H117.193V113.814L115.961 113.982L115.835 113.128L118.299 112.736V120.002ZM125.174 120.002H119.98V119.274L122.374 116.978C123.018 116.348 123.508 115.886 123.508 115.116C123.508 114.304 123.004 113.702 122.066 113.702C121.436 113.702 120.988 113.982 120.652 114.262L120.12 113.52C120.722 113.016 121.338 112.708 122.304 112.708C123.69 112.708 124.642 113.52 124.642 114.99C124.642 115.97 124.054 116.712 123.382 117.328L121.59 118.98V118.994H125.174V120.002ZM128.008 119.288C128.008 119.736 127.644 120.1 127.21 120.1C126.762 120.1 126.398 119.736 126.398 119.288C126.398 118.854 126.762 118.49 127.21 118.49C127.644 118.49 128.008 118.854 128.008 119.288ZM134.441 117.958C134.441 119.302 133.419 120.156 131.977 120.156C130.507 120.156 129.513 119.414 129.513 118.042C129.513 116.81 130.423 116.068 131.123 115.592C130.283 115.004 129.723 114.5 129.723 113.45C129.723 112.26 130.703 111.42 131.963 111.42C133.321 111.42 134.203 112.176 134.203 113.352C134.203 114.36 133.503 115.004 132.817 115.48C133.713 116.082 134.441 116.684 134.441 117.958ZM133.363 117.958C133.363 117.048 132.733 116.586 131.893 116.04C131.151 116.544 130.577 116.978 130.577 117.902C130.577 118.742 131.137 119.218 131.991 119.218C132.901 119.218 133.363 118.658 133.363 117.958ZM133.209 113.478C133.209 112.764 132.733 112.302 131.977 112.302C131.221 112.302 130.731 112.792 130.731 113.492C130.731 114.15 131.277 114.528 132.033 115.046C132.635 114.654 133.209 114.15 133.209 113.478ZM141.078 117.44C141.078 119.092 140.098 120.156 138.516 120.156C136.724 120.156 135.968 118.826 135.968 116.852C135.968 113.044 138.208 111.476 140.644 111.28L140.784 112.204C139.104 112.386 137.424 113.296 137.102 115.634L137.116 115.648C137.116 115.648 137.83 115.032 138.796 115.032C140.266 115.032 141.078 115.97 141.078 117.44ZM139.972 117.664C139.972 116.474 139.51 115.97 138.488 115.97C137.69 115.97 137.102 116.53 137.102 116.53V116.796C137.102 118.364 137.508 119.232 138.614 119.232C139.538 119.232 139.972 118.574 139.972 117.664Z" fill="#00157E"/>
<path d="M151.07 113.618C151.07 114.878 150.104 115.844 148.844 115.844C147.584 115.844 146.618 114.878 146.618 113.618C146.618 112.358 147.584 111.42 148.844 111.42C150.104 111.42 151.07 112.358 151.07 113.618ZM157.286 117.944C157.286 119.204 156.32 120.156 155.06 120.156C153.8 120.156 152.834 119.204 152.834 117.944C152.834 116.698 153.8 115.746 155.06 115.746C156.32 115.746 157.286 116.698 157.286 117.944ZM154.71 111.77L150.076 120.282L149.222 119.82L153.856 111.308L154.71 111.77ZM156.264 117.944C156.264 117.23 155.774 116.74 155.06 116.74C154.346 116.74 153.856 117.23 153.856 117.944C153.856 118.644 154.346 119.176 155.06 119.176C155.774 119.176 156.264 118.644 156.264 117.944ZM150.034 113.618C150.034 112.904 149.558 112.414 148.844 112.414C148.13 112.414 147.64 112.904 147.64 113.618C147.64 114.332 148.13 114.85 148.844 114.85C149.558 114.85 150.034 114.332 150.034 113.618Z" fill="#00157E" fill-opacity="0.7"/>
<path d="M259.962 86.63C259.29 86.978 258.606 87.134 257.694 87.134C255.93 87.134 254.574 85.946 254.574 83.546C254.574 80.99 256.086 79.646 258.03 79.646C258.834 79.646 259.326 79.766 259.938 80.03L259.554 80.906C259.098 80.702 258.666 80.546 258.018 80.546C256.758 80.546 255.606 81.518 255.606 83.294C255.606 85.274 256.338 86.246 258.09 86.246C258.666 86.246 259.194 86.018 259.626 85.826L259.962 86.63ZM266.485 87.002H265.477V83.702H262.225V87.002H261.217V79.778H262.225V82.85H265.477V79.778H266.485V87.002ZM272.07 80.63H269.478V82.982H271.818V83.834H269.478V87.002H268.482V79.778H272.07V80.63Z" fill="#00157E" fill-opacity="0.7"/>
<path d="M284.997 88.002H283.219V82.332L281.987 82.5L281.777 81.24L284.997 80.722V88.002ZM288.727 80.596C288.727 82.024 288.153 82.822 287.117 83.564L286.613 83.018C287.103 82.598 287.425 82.15 287.537 81.534C287.019 81.478 286.599 81.016 286.599 80.484C286.599 79.91 287.075 79.434 287.649 79.434C288.251 79.434 288.727 79.882 288.727 80.596ZM296.009 84.432C296.009 86.392 295.155 88.17 292.999 88.17C290.843 88.17 289.989 86.392 289.989 84.432C289.989 82.472 290.843 80.694 292.999 80.694C295.155 80.694 296.009 82.472 296.009 84.432ZM294.217 84.432C294.217 83.088 293.839 82.276 292.999 82.276C292.173 82.276 291.781 83.088 291.781 84.432C291.781 85.776 292.173 86.588 292.999 86.588C293.839 86.588 294.217 85.776 294.217 84.432ZM303.255 84.432C303.255 86.392 302.401 88.17 300.245 88.17C298.089 88.17 297.235 86.392 297.235 84.432C297.235 82.472 298.089 80.694 300.245 80.694C302.401 80.694 303.255 82.472 303.255 84.432ZM301.463 84.432C301.463 83.088 301.085 82.276 300.245 82.276C299.419 82.276 299.027 83.088 299.027 84.432C299.027 85.776 299.419 86.588 300.245 86.588C301.085 86.588 301.463 85.776 301.463 84.432ZM309.703 85.734C309.703 87.078 308.709 88.17 307.099 88.17C305.391 88.17 304.453 87.386 304.453 85.944C304.453 84.88 305.181 84.166 305.797 83.704C305.167 83.214 304.635 82.64 304.635 81.632C304.635 80.274 305.783 79.406 307.043 79.406C308.401 79.406 309.437 80.148 309.437 81.45C309.437 82.374 308.849 83.004 308.289 83.452C309.003 83.942 309.703 84.6 309.703 85.734ZM308.135 85.804C308.135 85.118 307.519 84.698 306.931 84.334C306.441 84.698 306.035 85.09 306.035 85.762C306.035 86.434 306.483 86.784 307.127 86.784C307.771 86.784 308.135 86.336 308.135 85.804ZM307.953 81.618C307.953 81.072 307.617 80.736 307.057 80.736C306.525 80.736 306.203 81.1 306.203 81.632C306.203 82.15 306.651 82.486 307.155 82.822C307.575 82.514 307.953 82.136 307.953 81.618ZM313.077 87.05C313.077 87.638 312.601 88.114 312.013 88.114C311.425 88.114 310.949 87.638 310.949 87.05C310.949 86.476 311.425 86 312.013 86C312.601 86 313.077 86.476 313.077 87.05ZM319.267 86.56C319.267 89.066 317.125 90.046 314.619 90.34L314.353 88.828C315.529 88.646 317.447 88.24 317.447 86.742C317.447 85.804 316.761 85.342 315.179 85.342H314.353L314.619 80.862H319.015V82.458H316.089L315.991 84.11C315.991 84.11 316.257 84.096 316.537 84.096C318.245 84.096 319.267 84.936 319.267 86.56ZM326.388 84.432C326.388 86.392 325.534 88.17 323.378 88.17C321.222 88.17 320.368 86.392 320.368 84.432C320.368 82.472 321.222 80.694 323.378 80.694C325.534 80.694 326.388 82.472 326.388 84.432ZM324.596 84.432C324.596 83.088 324.218 82.276 323.378 82.276C322.552 82.276 322.16 83.088 322.16 84.432C322.16 85.776 322.552 86.588 323.378 86.588C324.218 86.588 324.596 85.776 324.596 84.432Z" fill="#00157E"/>
<path d="M295.27 100.404C295.27 102.532 294.346 104.072 292.162 104.072C291.798 104.072 291.504 104.044 291.238 103.974V106.774L290.118 106.956V98.962L289.922 97.52L291.028 97.338L291.126 98.01H291.14C291.574 97.646 292.148 97.296 292.904 97.296C294.5 97.296 295.27 98.5 295.27 100.404ZM294.15 100.726C294.15 99.298 293.828 98.304 292.526 98.304C291.966 98.304 291.56 98.542 291.238 98.808V102.938C291.504 103.05 291.812 103.12 292.246 103.12C293.464 103.12 294.15 102.168 294.15 100.726ZM301.278 97.576L300.928 98.584C300.564 98.444 300.158 98.318 299.696 98.318C298.464 98.318 297.722 99.242 297.722 100.628C297.722 102.378 298.408 103.176 299.668 103.176C300.116 103.176 300.48 103.022 300.844 102.868L301.222 103.778C300.676 104.03 300.074 104.156 299.444 104.156C297.568 104.156 296.602 102.812 296.602 100.81C296.602 98.402 298.086 97.296 299.752 97.296C300.326 97.296 300.816 97.394 301.278 97.576ZM306.613 102.098C306.613 103.288 305.675 104.142 304.275 104.142C303.603 104.142 302.931 104.044 302.399 103.792L302.735 102.812C303.197 103.022 303.715 103.19 304.219 103.19C304.975 103.19 305.479 102.896 305.479 102.28C305.479 101.804 305.227 101.608 304.793 101.412L303.575 100.852C303.141 100.656 302.357 100.264 302.357 99.13C302.357 97.884 303.449 97.296 304.639 97.296C305.353 97.296 305.857 97.408 306.417 97.646L306.039 98.612C305.591 98.416 305.157 98.276 304.625 98.276C303.911 98.276 303.449 98.5 303.449 99.06C303.449 99.55 303.869 99.746 304.135 99.872L305.381 100.46C306.249 100.866 306.613 101.384 306.613 102.098ZM309.672 103.288C309.672 103.736 309.308 104.1 308.874 104.1C308.426 104.1 308.062 103.736 308.062 103.288C308.062 102.854 308.426 102.49 308.874 102.49C309.308 102.49 309.672 102.854 309.672 103.288Z" fill="#00157E" fill-opacity="0.7"/>
<path d="M317.91 104.002H316.804V97.814L315.572 97.982L315.446 97.128L317.91 96.736V104.002ZM325.485 100.432C325.485 102.294 324.757 104.156 322.643 104.156C320.515 104.156 319.787 102.294 319.787 100.432C319.787 98.57 320.515 96.708 322.643 96.708C324.757 96.708 325.485 98.57 325.485 100.432ZM324.337 100.432C324.337 98.864 323.819 97.688 322.643 97.688C321.453 97.688 320.935 98.864 320.935 100.432C320.935 102 321.453 103.176 322.643 103.176C323.819 103.176 324.337 102 324.337 100.432Z" fill="#00157E"/>
<path d="M255.956 119.568C255.172 119.974 254.374 120.156 253.31 120.156C251.252 120.156 249.67 118.77 249.67 115.97C249.67 112.988 251.434 111.42 253.702 111.42C254.64 111.42 255.214 111.56 255.928 111.868L255.48 112.89C254.948 112.652 254.444 112.47 253.688 112.47C252.218 112.47 250.874 113.604 250.874 115.676C250.874 117.986 251.728 119.12 253.772 119.12C254.444 119.12 255.06 118.854 255.564 118.63L255.956 119.568ZM263.566 120.002H262.39V116.152H258.596V120.002H257.42V111.574H258.596V115.158H262.39V111.574H263.566V120.002ZM270.082 112.568H267.058V115.312H269.788V116.306H267.058V120.002H265.896V111.574H270.082V112.568Z" fill="#00157E" fill-opacity="0.7"/>
<path d="M277.91 120.002H276.804V113.814L275.572 113.982L275.446 113.128L277.91 112.736V120.002ZM285.485 116.432C285.485 118.294 284.757 120.156 282.643 120.156C280.515 120.156 279.787 118.294 279.787 116.432C279.787 114.57 280.515 112.708 282.643 112.708C284.757 112.708 285.485 114.57 285.485 116.432ZM284.337 116.432C284.337 114.864 283.819 113.688 282.643 113.688C281.453 113.688 280.935 114.864 280.935 116.432C280.935 118 281.453 119.176 282.643 119.176C283.819 119.176 284.337 118 284.337 116.432ZM288.644 112.372C288.644 113.394 288.224 114.178 287.37 114.682L287.048 114.262C287.468 113.954 287.692 113.562 287.762 113.058C287.37 113.002 287.034 112.666 287.034 112.26C287.034 111.798 287.398 111.448 287.846 111.448C288.294 111.448 288.644 111.812 288.644 112.372ZM295.078 117.958C295.078 119.302 294.056 120.156 292.614 120.156C291.144 120.156 290.15 119.414 290.15 118.042C290.15 116.81 291.06 116.068 291.76 115.592C290.92 115.004 290.36 114.5 290.36 113.45C290.36 112.26 291.34 111.42 292.6 111.42C293.958 111.42 294.84 112.176 294.84 113.352C294.84 114.36 294.14 115.004 293.454 115.48C294.35 116.082 295.078 116.684 295.078 117.958ZM294 117.958C294 117.048 293.37 116.586 292.53 116.04C291.788 116.544 291.214 116.978 291.214 117.902C291.214 118.742 291.774 119.218 292.628 119.218C293.538 119.218 294 118.658 294 117.958ZM293.846 113.478C293.846 112.764 293.37 112.302 292.614 112.302C291.858 112.302 291.368 112.792 291.368 113.492C291.368 114.15 291.914 114.528 292.67 115.046C293.272 114.654 293.846 114.15 293.846 113.478ZM302.247 116.432C302.247 118.294 301.519 120.156 299.405 120.156C297.277 120.156 296.549 118.294 296.549 116.432C296.549 114.57 297.277 112.708 299.405 112.708C301.519 112.708 302.247 114.57 302.247 116.432ZM301.099 116.432C301.099 114.864 300.581 113.688 299.405 113.688C298.215 113.688 297.697 114.864 297.697 116.432C297.697 118 298.215 119.176 299.405 119.176C300.581 119.176 301.099 118 301.099 116.432ZM308.29 118.742C308.29 121.43 305.756 122.186 303.95 122.326L303.81 121.374C305.084 121.234 307.142 120.73 307.142 118.896C307.142 117.748 306.498 117.076 304.706 117.076H303.768L304.076 112.862H308.066V113.884H305.042L304.86 116.236C304.86 116.236 305.182 116.208 305.476 116.208C307.1 116.208 308.29 117.062 308.29 118.742ZM311.326 119.288C311.326 119.736 310.962 120.1 310.528 120.1C310.08 120.1 309.716 119.736 309.716 119.288C309.716 118.854 310.08 118.49 310.528 118.49C310.962 118.49 311.326 118.854 311.326 119.288ZM318.571 116.432C318.571 118.294 317.843 120.156 315.729 120.156C313.601 120.156 312.873 118.294 312.873 116.432C312.873 114.57 313.601 112.708 315.729 112.708C317.843 112.708 318.571 114.57 318.571 116.432ZM317.423 116.432C317.423 114.864 316.905 113.688 315.729 113.688C314.539 113.688 314.021 114.864 314.021 116.432C314.021 118 314.539 119.176 315.729 119.176C316.905 119.176 317.423 118 317.423 116.432ZM325.776 116.432C325.776 118.294 325.048 120.156 322.934 120.156C320.806 120.156 320.078 118.294 320.078 116.432C320.078 114.57 320.806 112.708 322.934 112.708C325.048 112.708 325.776 114.57 325.776 116.432ZM324.628 116.432C324.628 114.864 324.11 113.688 322.934 113.688C321.744 113.688 321.226 114.864 321.226 116.432C321.226 118 321.744 119.176 322.934 119.176C324.11 119.176 324.628 118 324.628 116.432Z" fill="#00157E"/>
<mask id="path-22-inside-2_820_126259" fill="white">
<path d="M0.000976562 136.003H342.999V208.003H0.000976562V136.003Z"/>
</mask>
<path d="M342.999 208.003V207.003H0.000976562V208.003V209.003H342.999V208.003Z" fill="#00157E" fill-opacity="0.2" mask="url(#path-22-inside-2_820_126259)"/>
<path d="M23.576 159.779L21.77 160.241L21.056 157.665H18.704L18.06 160.003H16.17L18.97 151.575H20.888L23.576 159.779ZM20.748 156.447L19.908 153.367H19.894L19.04 156.447H20.748ZM30.5879 157.371C30.5879 159.093 29.1879 160.003 26.6959 160.003H24.6379V151.645C24.6379 151.645 25.8279 151.491 27.0039 151.491C29.0479 151.491 29.9999 152.163 29.9999 153.437C29.9999 154.501 29.3139 155.019 28.4319 155.355V155.369C29.7199 155.509 30.5879 156.209 30.5879 157.371ZM28.6839 157.413C28.6839 156.615 28.0819 156.293 26.9479 156.293H26.4439V158.505H27.2699C28.1239 158.505 28.6839 158.127 28.6839 157.413ZM28.0959 153.857C28.0959 153.143 27.6339 152.877 26.8779 152.877C26.6259 152.877 26.4439 152.905 26.4439 152.905V155.019C27.3259 155.019 28.0959 154.767 28.0959 153.857ZM37.834 157.371C37.834 159.093 36.434 160.003 33.942 160.003H31.884V151.645C31.884 151.645 33.074 151.491 34.25 151.491C36.294 151.491 37.246 152.163 37.246 153.437C37.246 154.501 36.56 155.019 35.678 155.355V155.369C36.966 155.509 37.834 156.209 37.834 157.371ZM35.93 157.413C35.93 156.615 35.328 156.293 34.194 156.293H33.69V158.505H34.516C35.37 158.505 35.93 158.127 35.93 157.413ZM35.342 153.857C35.342 153.143 34.88 152.877 34.124 152.877C33.872 152.877 33.69 152.905 33.69 152.905V155.019C34.572 155.019 35.342 154.767 35.342 153.857ZM46.8995 160.003H42.0695V151.575H43.9595V158.421H46.8995V160.003ZM51.9391 159.681C51.3651 159.989 50.9311 160.157 50.0491 160.157C48.7331 160.157 48.0891 159.275 48.0891 157.959V154.781H47.0671V153.605L48.0891 153.367V152.219L49.8531 152.009V153.381H51.6731V154.781H49.8531V157.483C49.8531 158.365 50.0771 158.589 50.6511 158.589C50.9731 158.589 51.1551 158.505 51.4631 158.365L51.9391 159.681ZM58.3703 159.919L56.6763 160.129L56.5783 159.443H56.5643C56.3963 159.583 55.8503 160.171 54.9543 160.171C53.3023 160.171 52.4763 158.771 52.4763 156.923C52.4763 154.543 53.8343 153.325 55.7523 153.325C56.1023 153.325 56.3683 153.381 56.3683 153.381V152.289L56.1443 150.651L58.1463 150.427V158.281L58.3703 159.919ZM55.5003 158.589C55.9203 158.589 56.2423 158.407 56.3683 158.295V154.907C56.3683 154.907 56.1303 154.795 55.6963 154.795C54.8423 154.795 54.2683 155.467 54.2683 156.657C54.2683 157.987 54.6183 158.589 55.5003 158.589Z" fill="#00157E"/>
<path d="M21.728 173.637C21.728 175.107 20.706 176.157 19.012 176.157C18.144 176.157 17.374 175.975 16.716 175.695L17.08 174.673C17.626 174.925 18.27 175.135 18.928 175.135C19.95 175.135 20.608 174.743 20.608 173.819C20.608 173.133 20.104 172.797 19.432 172.475L18.116 171.845C17.234 171.425 16.632 170.879 16.632 169.689C16.632 168.247 17.892 167.421 19.348 167.421C20.132 167.421 20.636 167.547 21.364 167.813L20.972 168.807C20.524 168.597 20.034 168.401 19.418 168.401C18.55 168.401 17.766 168.751 17.766 169.647C17.766 170.249 18.13 170.543 18.69 170.809L20.034 171.467C21.098 171.985 21.728 172.559 21.728 173.637ZM26.7007 175.737C26.2947 175.961 25.9167 176.143 25.2027 176.143C24.1947 176.143 23.5507 175.485 23.5507 174.365V170.361H22.5847V169.619L23.5507 169.423V168.331L24.6567 168.191V169.451H26.4907V170.361H24.6567V173.987C24.6567 174.869 24.8807 175.149 25.5247 175.149C25.8747 175.149 26.1407 175.009 26.3367 174.883L26.7007 175.737ZM31.1362 170.417C30.3802 170.417 29.8202 170.613 29.3162 171.075V176.003H28.1962V170.963L28.0002 169.521L29.1062 169.339L29.2182 170.235H29.2322C29.6802 169.731 30.2682 169.311 31.1362 169.311V170.417ZM37.6688 175.933L36.5628 176.115L36.4508 175.359H36.4368C35.9468 175.821 35.3028 176.157 34.4908 176.157C33.3848 176.157 32.5028 175.443 32.5028 174.099V170.963L32.3068 169.521L33.6228 169.339V173.707C33.6228 174.673 33.9868 175.177 34.8688 175.177C35.4988 175.177 35.9468 174.911 36.3528 174.533V170.963L36.1568 169.521L37.4728 169.339V174.491L37.6688 175.933ZM43.9359 169.577L43.5859 170.585C43.2219 170.445 42.8159 170.319 42.3539 170.319C41.1219 170.319 40.3799 171.243 40.3799 172.629C40.3799 174.379 41.0659 175.177 42.3259 175.177C42.7739 175.177 43.1379 175.023 43.5019 174.869L43.8799 175.779C43.3339 176.031 42.7319 176.157 42.1019 176.157C40.2259 176.157 39.2599 174.813 39.2599 172.811C39.2599 170.403 40.7439 169.297 42.4099 169.297C42.9839 169.297 43.4739 169.395 43.9359 169.577ZM48.8901 175.737C48.4841 175.961 48.1061 176.143 47.3921 176.143C46.3841 176.143 45.7401 175.485 45.7401 174.365V170.361H44.7741V169.619L45.7401 169.423V168.331L46.8461 168.191V169.451H48.6801V170.361H46.8461V173.987C46.8461 174.869 47.0701 175.149 47.7141 175.149C48.0641 175.149 48.3301 175.009 48.5261 174.883L48.8901 175.737ZM55.5516 175.933L54.4456 176.115L54.3336 175.359H54.3196C53.8296 175.821 53.1856 176.157 52.3736 176.157C51.2676 176.157 50.3856 175.443 50.3856 174.099V170.963L50.1896 169.521L51.5056 169.339V173.707C51.5056 174.673 51.8696 175.177 52.7516 175.177C53.3816 175.177 53.8296 174.911 54.2356 174.533V170.963L54.0396 169.521L55.3556 169.339V174.491L55.5516 175.933ZM60.5307 170.417C59.7747 170.417 59.2147 170.613 58.7107 171.075V176.003H57.5907V170.963L57.3947 169.521L58.5007 169.339L58.6127 170.235H58.6267C59.0747 169.731 59.6627 169.311 60.5307 169.311V170.417ZM66.2833 175.653C65.6533 176.003 65.0093 176.157 64.2113 176.157C62.2793 176.157 61.2853 174.855 61.2853 172.685C61.2853 170.655 62.3493 169.297 64.0013 169.297C65.5833 169.297 66.2273 170.347 66.2273 171.789V172.573H62.3773C62.3913 174.323 63.0213 175.163 64.4493 175.163C64.9953 175.163 65.4153 175.009 65.8913 174.771L66.2833 175.653ZM65.1773 171.789C65.1773 170.809 64.8133 170.193 63.9453 170.193C63.1053 170.193 62.5733 170.851 62.4333 171.789H65.1773ZM72.868 175.961L71.79 176.115L71.692 175.457H71.678C71.258 175.807 70.684 176.157 69.914 176.157C68.472 176.157 67.506 174.967 67.506 173.021C67.506 170.767 68.668 169.381 70.656 169.381C71.188 169.381 71.566 169.479 71.566 169.479V168.065L71.356 166.623L72.672 166.441V174.519L72.868 175.961ZM70.306 175.177C70.852 175.177 71.23 174.953 71.566 174.687V170.501C71.566 170.501 71.202 170.319 70.558 170.319C69.284 170.319 68.654 171.397 68.654 172.671C68.654 174.253 69.074 175.177 70.306 175.177ZM83.0044 172.405C83.0044 174.533 82.0804 176.073 79.8964 176.073C79.5324 176.073 79.2384 176.045 78.9724 175.975V178.775L77.8524 178.957V170.963L77.6564 169.521L78.7624 169.339L78.8604 170.011H78.8744C79.3084 169.647 79.8824 169.297 80.6384 169.297C82.2344 169.297 83.0044 170.501 83.0044 172.405ZM81.8844 172.727C81.8844 171.299 81.5624 170.305 80.2604 170.305C79.7004 170.305 79.2944 170.543 78.9724 170.809V174.939C79.2384 175.051 79.5464 175.121 79.9804 175.121C81.1984 175.121 81.8844 174.169 81.8844 172.727ZM87.7241 170.417C86.9681 170.417 86.4081 170.613 85.9041 171.075V176.003H84.7841V170.963L84.5881 169.521L85.6941 169.339L85.8061 170.235H85.8201C86.2681 169.731 86.8561 169.311 87.7241 169.311V170.417ZM94.0786 172.727C94.0786 174.645 93.1686 176.157 91.2786 176.157C89.2066 176.157 88.4786 174.687 88.4786 172.727C88.4786 170.809 89.3886 169.297 91.2786 169.297C93.3506 169.297 94.0786 170.767 94.0786 172.727ZM92.9306 172.755C92.9306 171.131 92.3846 170.277 91.2786 170.277C90.2006 170.277 89.6266 171.033 89.6266 172.685C89.6266 174.309 90.1726 175.177 91.2786 175.177C92.3566 175.177 92.9306 174.407 92.9306 172.755ZM100.772 175.961L99.6943 176.115L99.5963 175.457H99.5823C99.1623 175.807 98.5883 176.157 97.8183 176.157C96.3763 176.157 95.4103 174.967 95.4103 173.021C95.4103 170.767 96.5723 169.381 98.5603 169.381C99.0923 169.381 99.4703 169.479 99.4703 169.479V168.065L99.2603 166.623L100.576 166.441V174.519L100.772 175.961ZM98.2103 175.177C98.7563 175.177 99.1343 174.953 99.4703 174.687V170.501C99.4703 170.501 99.1063 170.319 98.4623 170.319C97.1883 170.319 96.5583 171.397 96.5583 172.671C96.5583 174.253 96.9783 175.177 98.2103 175.177ZM107.983 175.933L106.877 176.115L106.765 175.359H106.751C106.261 175.821 105.617 176.157 104.805 176.157C103.699 176.157 102.817 175.443 102.817 174.099V170.963L102.621 169.521L103.937 169.339V173.707C103.937 174.673 104.301 175.177 105.183 175.177C105.813 175.177 106.261 174.911 106.667 174.533V170.963L106.471 169.521L107.787 169.339V174.491L107.983 175.933ZM114.25 169.577L113.9 170.585C113.536 170.445 113.13 170.319 112.668 170.319C111.436 170.319 110.694 171.243 110.694 172.629C110.694 174.379 111.38 175.177 112.64 175.177C113.088 175.177 113.452 175.023 113.816 174.869L114.194 175.779C113.648 176.031 113.046 176.157 112.416 176.157C110.54 176.157 109.574 174.813 109.574 172.811C109.574 170.403 111.058 169.297 112.724 169.297C113.298 169.297 113.788 169.395 114.25 169.577ZM119.205 175.737C118.799 175.961 118.421 176.143 117.707 176.143C116.699 176.143 116.055 175.485 116.055 174.365V170.361H115.089V169.619L116.055 169.423V168.331L117.161 168.191V169.451H118.995V170.361H117.161V173.987C117.161 174.869 117.385 175.149 118.029 175.149C118.379 175.149 118.645 175.009 118.841 174.883L119.205 175.737Z" fill="#00157E" fill-opacity="0.7"/>
<path d="M22.022 188.391H19.656V190.743H18.732V188.391H16.38V187.467H18.732V185.115H19.656V187.467H22.022V188.391ZM25.2987 192.003H24.1927V185.815L22.9607 185.983L22.8347 185.129L25.2987 184.737V192.003ZM28.8279 184.373C28.8279 185.395 28.4079 186.179 27.5539 186.683L27.2319 186.263C27.6519 185.955 27.8759 185.563 27.9459 185.059C27.5539 185.003 27.2179 184.667 27.2179 184.261C27.2179 183.799 27.5819 183.449 28.0299 183.449C28.4779 183.449 28.8279 183.813 28.8279 184.373ZM35.3731 192.003H30.1791V191.275L32.5731 188.979C33.2171 188.349 33.7071 187.887 33.7071 187.117C33.7071 186.305 33.2031 185.703 32.2651 185.703C31.6351 185.703 31.1871 185.983 30.8511 186.263L30.3191 185.521C30.9211 185.017 31.5371 184.709 32.5031 184.709C33.8891 184.709 34.8411 185.521 34.8411 186.991C34.8411 187.971 34.2531 188.713 33.5811 189.329L31.7891 190.981V190.995H35.3731V192.003ZM42.2528 188.433C42.2528 190.295 41.5248 192.157 39.4108 192.157C37.2828 192.157 36.5548 190.295 36.5548 188.433C36.5548 186.571 37.2828 184.709 39.4108 184.709C41.5248 184.709 42.2528 186.571 42.2528 188.433ZM41.1048 188.433C41.1048 186.865 40.5868 185.689 39.4108 185.689C38.2208 185.689 37.7028 186.865 37.7028 188.433C37.7028 190.001 38.2208 191.177 39.4108 191.177C40.5868 191.177 41.1048 190.001 41.1048 188.433ZM49.4579 188.433C49.4579 190.295 48.7299 192.157 46.6159 192.157C44.4879 192.157 43.7599 190.295 43.7599 188.433C43.7599 186.571 44.4879 184.709 46.6159 184.709C48.7299 184.709 49.4579 186.571 49.4579 188.433ZM48.3099 188.433C48.3099 186.865 47.7919 185.689 46.6159 185.689C45.4259 185.689 44.9079 186.865 44.9079 188.433C44.9079 190.001 45.4259 191.177 46.6159 191.177C47.7919 191.177 48.3099 190.001 48.3099 188.433ZM52.617 191.289C52.617 191.737 52.253 192.101 51.819 192.101C51.371 192.101 51.007 191.737 51.007 191.289C51.007 190.855 51.371 190.491 51.819 190.491C52.253 190.491 52.617 190.855 52.617 191.289ZM59.0502 189.959C59.0502 191.303 58.0282 192.157 56.5862 192.157C55.1162 192.157 54.1222 191.415 54.1222 190.043C54.1222 188.811 55.0322 188.069 55.7322 187.593C54.8922 187.005 54.3322 186.501 54.3322 185.451C54.3322 184.261 55.3122 183.421 56.5722 183.421C57.9302 183.421 58.8122 184.177 58.8122 185.353C58.8122 186.361 58.1122 187.005 57.4262 187.481C58.3222 188.083 59.0502 188.685 59.0502 189.959ZM57.9722 189.959C57.9722 189.049 57.3422 188.587 56.5022 188.041C55.7602 188.545 55.1862 188.979 55.1862 189.903C55.1862 190.743 55.7462 191.219 56.6002 191.219C57.5102 191.219 57.9722 190.659 57.9722 189.959ZM57.8182 185.479C57.8182 184.765 57.3422 184.303 56.5862 184.303C55.8302 184.303 55.3402 184.793 55.3402 185.493C55.3402 186.151 55.8862 186.529 56.6422 187.047C57.2442 186.655 57.8182 186.151 57.8182 185.479ZM65.6876 189.441C65.6876 191.093 64.7076 192.157 63.1256 192.157C61.3336 192.157 60.5776 190.827 60.5776 188.853C60.5776 185.045 62.8176 183.477 65.2536 183.281L65.3936 184.205C63.7136 184.387 62.0336 185.297 61.7116 187.635L61.7256 187.649C61.7256 187.649 62.4396 187.033 63.4056 187.033C64.8756 187.033 65.6876 187.971 65.6876 189.441ZM64.5816 189.665C64.5816 188.475 64.1196 187.971 63.0976 187.971C62.2996 187.971 61.7116 188.531 61.7116 188.531V188.797C61.7116 190.365 62.1176 191.233 63.2236 191.233C64.1476 191.233 64.5816 190.575 64.5816 189.665Z" fill="#00157E"/>
<path d="M77.96 191.569C77.176 191.975 76.378 192.157 75.314 192.157C73.256 192.157 71.674 190.771 71.674 187.971C71.674 184.989 73.438 183.421 75.706 183.421C76.644 183.421 77.218 183.561 77.932 183.869L77.484 184.891C76.952 184.653 76.448 184.471 75.692 184.471C74.222 184.471 72.878 185.605 72.878 187.677C72.878 189.987 73.732 191.121 75.776 191.121C76.448 191.121 77.064 190.855 77.568 190.631L77.96 191.569ZM85.5697 192.003H84.3937V188.153H80.5997V192.003H79.4237V183.575H80.5997V187.159H84.3937V183.575H85.5697V192.003ZM92.0863 184.569H89.0623V187.313H91.7923V188.307H89.0623V192.003H87.9003V183.575H92.0863V184.569Z" fill="#00157E" fill-opacity="0.7"/>
<path d="M115.022 188.391H112.656V190.743H111.732V188.391H109.38V187.467H111.732V185.115H112.656V187.467H115.022V188.391ZM118.299 192.003H117.193V185.815L115.961 185.983L115.835 185.129L118.299 184.737V192.003ZM125.174 192.003H119.98V191.275L122.374 188.979C123.018 188.349 123.508 187.887 123.508 187.117C123.508 186.305 123.004 185.703 122.066 185.703C121.436 185.703 120.988 185.983 120.652 186.263L120.12 185.521C120.722 185.017 121.338 184.709 122.304 184.709C123.69 184.709 124.642 185.521 124.642 186.991C124.642 187.971 124.054 188.713 123.382 189.329L121.59 190.981V190.995H125.174V192.003ZM128.008 191.289C128.008 191.737 127.644 192.101 127.21 192.101C126.762 192.101 126.398 191.737 126.398 191.289C126.398 190.855 126.762 190.491 127.21 190.491C127.644 190.491 128.008 190.855 128.008 191.289ZM134.441 189.959C134.441 191.303 133.419 192.157 131.977 192.157C130.507 192.157 129.513 191.415 129.513 190.043C129.513 188.811 130.423 188.069 131.123 187.593C130.283 187.005 129.723 186.501 129.723 185.451C129.723 184.261 130.703 183.421 131.963 183.421C133.321 183.421 134.203 184.177 134.203 185.353C134.203 186.361 133.503 187.005 132.817 187.481C133.713 188.083 134.441 188.685 134.441 189.959ZM133.363 189.959C133.363 189.049 132.733 188.587 131.893 188.041C131.151 188.545 130.577 188.979 130.577 189.903C130.577 190.743 131.137 191.219 131.991 191.219C132.901 191.219 133.363 190.659 133.363 189.959ZM133.209 185.479C133.209 184.765 132.733 184.303 131.977 184.303C131.221 184.303 130.731 184.793 130.731 185.493C130.731 186.151 131.277 186.529 132.033 187.047C132.635 186.655 133.209 186.151 133.209 185.479ZM141.078 189.441C141.078 191.093 140.098 192.157 138.516 192.157C136.724 192.157 135.968 190.827 135.968 188.853C135.968 185.045 138.208 183.477 140.644 183.281L140.784 184.205C139.104 184.387 137.424 185.297 137.102 187.635L137.116 187.649C137.116 187.649 137.83 187.033 138.796 187.033C140.266 187.033 141.078 187.971 141.078 189.441ZM139.972 189.665C139.972 188.475 139.51 187.971 138.488 187.971C137.69 187.971 137.102 188.531 137.102 188.531V188.797C137.102 190.365 137.508 191.233 138.614 191.233C139.538 191.233 139.972 190.575 139.972 189.665Z" fill="#00157E"/>
<path d="M151.07 185.619C151.07 186.879 150.104 187.845 148.844 187.845C147.584 187.845 146.618 186.879 146.618 185.619C146.618 184.359 147.584 183.421 148.844 183.421C150.104 183.421 151.07 184.359 151.07 185.619ZM157.286 189.945C157.286 191.205 156.32 192.157 155.06 192.157C153.8 192.157 152.834 191.205 152.834 189.945C152.834 188.699 153.8 187.747 155.06 187.747C156.32 187.747 157.286 188.699 157.286 189.945ZM154.71 183.771L150.076 192.283L149.222 191.821L153.856 183.309L154.71 183.771ZM156.264 189.945C156.264 189.231 155.774 188.741 155.06 188.741C154.346 188.741 153.856 189.231 153.856 189.945C153.856 190.645 154.346 191.177 155.06 191.177C155.774 191.177 156.264 190.645 156.264 189.945ZM150.034 185.619C150.034 184.905 149.558 184.415 148.844 184.415C148.13 184.415 147.64 184.905 147.64 185.619C147.64 186.333 148.13 186.851 148.844 186.851C149.558 186.851 150.034 186.333 150.034 185.619Z" fill="#00157E" fill-opacity="0.7"/>
<path d="M259.962 158.631C259.29 158.979 258.606 159.135 257.694 159.135C255.93 159.135 254.574 157.947 254.574 155.547C254.574 152.991 256.086 151.647 258.03 151.647C258.834 151.647 259.326 151.767 259.938 152.031L259.554 152.907C259.098 152.703 258.666 152.547 258.018 152.547C256.758 152.547 255.606 153.519 255.606 155.295C255.606 157.275 256.338 158.247 258.09 158.247C258.666 158.247 259.194 158.019 259.626 157.827L259.962 158.631ZM266.485 159.003H265.477V155.703H262.225V159.003H261.217V151.779H262.225V154.851H265.477V151.779H266.485V159.003ZM272.07 152.631H269.478V154.983H271.818V155.835H269.478V159.003H268.482V151.779H272.07V152.631Z" fill="#00157E" fill-opacity="0.7"/>
<path d="M284.997 160.003H283.219V154.333L281.987 154.501L281.777 153.241L284.997 152.723V160.003ZM288.727 152.597C288.727 154.025 288.153 154.823 287.117 155.565L286.613 155.019C287.103 154.599 287.425 154.151 287.537 153.535C287.019 153.479 286.599 153.017 286.599 152.485C286.599 151.911 287.075 151.435 287.649 151.435C288.251 151.435 288.727 151.883 288.727 152.597ZM296.009 156.433C296.009 158.393 295.155 160.171 292.999 160.171C290.843 160.171 289.989 158.393 289.989 156.433C289.989 154.473 290.843 152.695 292.999 152.695C295.155 152.695 296.009 154.473 296.009 156.433ZM294.217 156.433C294.217 155.089 293.839 154.277 292.999 154.277C292.173 154.277 291.781 155.089 291.781 156.433C291.781 157.777 292.173 158.589 292.999 158.589C293.839 158.589 294.217 157.777 294.217 156.433ZM303.255 156.433C303.255 158.393 302.401 160.171 300.245 160.171C298.089 160.171 297.235 158.393 297.235 156.433C297.235 154.473 298.089 152.695 300.245 152.695C302.401 152.695 303.255 154.473 303.255 156.433ZM301.463 156.433C301.463 155.089 301.085 154.277 300.245 154.277C299.419 154.277 299.027 155.089 299.027 156.433C299.027 157.777 299.419 158.589 300.245 158.589C301.085 158.589 301.463 157.777 301.463 156.433ZM309.703 157.735C309.703 159.079 308.709 160.171 307.099 160.171C305.391 160.171 304.453 159.387 304.453 157.945C304.453 156.881 305.181 156.167 305.797 155.705C305.167 155.215 304.635 154.641 304.635 153.633C304.635 152.275 305.783 151.407 307.043 151.407C308.401 151.407 309.437 152.149 309.437 153.451C309.437 154.375 308.849 155.005 308.289 155.453C309.003 155.943 309.703 156.601 309.703 157.735ZM308.135 157.805C308.135 157.119 307.519 156.699 306.931 156.335C306.441 156.699 306.035 157.091 306.035 157.763C306.035 158.435 306.483 158.785 307.127 158.785C307.771 158.785 308.135 158.337 308.135 157.805ZM307.953 153.619C307.953 153.073 307.617 152.737 307.057 152.737C306.525 152.737 306.203 153.101 306.203 153.633C306.203 154.151 306.651 154.487 307.155 154.823C307.575 154.515 307.953 154.137 307.953 153.619ZM313.077 159.051C313.077 159.639 312.601 160.115 312.013 160.115C311.425 160.115 310.949 159.639 310.949 159.051C310.949 158.477 311.425 158.001 312.013 158.001C312.601 158.001 313.077 158.477 313.077 159.051ZM319.267 158.561C319.267 161.067 317.125 162.047 314.619 162.341L314.353 160.829C315.529 160.647 317.447 160.241 317.447 158.743C317.447 157.805 316.761 157.343 315.179 157.343H314.353L314.619 152.863H319.015V154.459H316.089L315.991 156.111C315.991 156.111 316.257 156.097 316.537 156.097C318.245 156.097 319.267 156.937 319.267 158.561ZM326.388 156.433C326.388 158.393 325.534 160.171 323.378 160.171C321.222 160.171 320.368 158.393 320.368 156.433C320.368 154.473 321.222 152.695 323.378 152.695C325.534 152.695 326.388 154.473 326.388 156.433ZM324.596 156.433C324.596 155.089 324.218 154.277 323.378 154.277C322.552 154.277 322.16 155.089 322.16 156.433C322.16 157.777 322.552 158.589 323.378 158.589C324.218 158.589 324.596 157.777 324.596 156.433Z" fill="#00157E"/>
<path d="M295.27 172.405C295.27 174.533 294.346 176.073 292.162 176.073C291.798 176.073 291.504 176.045 291.238 175.975V178.775L290.118 178.957V170.963L289.922 169.521L291.028 169.339L291.126 170.011H291.14C291.574 169.647 292.148 169.297 292.904 169.297C294.5 169.297 295.27 170.501 295.27 172.405ZM294.15 172.727C294.15 171.299 293.828 170.305 292.526 170.305C291.966 170.305 291.56 170.543 291.238 170.809V174.939C291.504 175.051 291.812 175.121 292.246 175.121C293.464 175.121 294.15 174.169 294.15 172.727ZM301.278 169.577L300.928 170.585C300.564 170.445 300.158 170.319 299.696 170.319C298.464 170.319 297.722 171.243 297.722 172.629C297.722 174.379 298.408 175.177 299.668 175.177C300.116 175.177 300.48 175.023 300.844 174.869L301.222 175.779C300.676 176.031 300.074 176.157 299.444 176.157C297.568 176.157 296.602 174.813 296.602 172.811C296.602 170.403 298.086 169.297 299.752 169.297C300.326 169.297 300.816 169.395 301.278 169.577ZM306.613 174.099C306.613 175.289 305.675 176.143 304.275 176.143C303.603 176.143 302.931 176.045 302.399 175.793L302.735 174.813C303.197 175.023 303.715 175.191 304.219 175.191C304.975 175.191 305.479 174.897 305.479 174.281C305.479 173.805 305.227 173.609 304.793 173.413L303.575 172.853C303.141 172.657 302.357 172.265 302.357 171.131C302.357 169.885 303.449 169.297 304.639 169.297C305.353 169.297 305.857 169.409 306.417 169.647L306.039 170.613C305.591 170.417 305.157 170.277 304.625 170.277C303.911 170.277 303.449 170.501 303.449 171.061C303.449 171.551 303.869 171.747 304.135 171.873L305.381 172.461C306.249 172.867 306.613 173.385 306.613 174.099ZM309.672 175.289C309.672 175.737 309.308 176.101 308.874 176.101C308.426 176.101 308.062 175.737 308.062 175.289C308.062 174.855 308.426 174.491 308.874 174.491C309.308 174.491 309.672 174.855 309.672 175.289Z" fill="#00157E" fill-opacity="0.7"/>
<path d="M317.91 176.003H316.804V169.815L315.572 169.983L315.446 169.129L317.91 168.737V176.003ZM325.485 172.433C325.485 174.295 324.757 176.157 322.643 176.157C320.515 176.157 319.787 174.295 319.787 172.433C319.787 170.571 320.515 168.709 322.643 168.709C324.757 168.709 325.485 170.571 325.485 172.433ZM324.337 172.433C324.337 170.865 323.819 169.689 322.643 169.689C321.453 169.689 320.935 170.865 320.935 172.433C320.935 174.001 321.453 175.177 322.643 175.177C323.819 175.177 324.337 174.001 324.337 172.433Z" fill="#00157E"/>
<path d="M255.956 191.569C255.172 191.975 254.374 192.157 253.31 192.157C251.252 192.157 249.67 190.771 249.67 187.971C249.67 184.989 251.434 183.421 253.702 183.421C254.64 183.421 255.214 183.561 255.928 183.869L255.48 184.891C254.948 184.653 254.444 184.471 253.688 184.471C252.218 184.471 250.874 185.605 250.874 187.677C250.874 189.987 251.728 191.121 253.772 191.121C254.444 191.121 255.06 190.855 255.564 190.631L255.956 191.569ZM263.566 192.003H262.39V188.153H258.596V192.003H257.42V183.575H258.596V187.159H262.39V183.575H263.566V192.003ZM270.082 184.569H267.058V187.313H269.788V188.307H267.058V192.003H265.896V183.575H270.082V184.569Z" fill="#00157E" fill-opacity="0.7"/>
<path d="M277.91 192.003H276.804V185.815L275.572 185.983L275.446 185.129L277.91 184.737V192.003ZM285.485 188.433C285.485 190.295 284.757 192.157 282.643 192.157C280.515 192.157 279.787 190.295 279.787 188.433C279.787 186.571 280.515 184.709 282.643 184.709C284.757 184.709 285.485 186.571 285.485 188.433ZM284.337 188.433C284.337 186.865 283.819 185.689 282.643 185.689C281.453 185.689 280.935 186.865 280.935 188.433C280.935 190.001 281.453 191.177 282.643 191.177C283.819 191.177 284.337 190.001 284.337 188.433ZM288.644 184.373C288.644 185.395 288.224 186.179 287.37 186.683L287.048 186.263C287.468 185.955 287.692 185.563 287.762 185.059C287.37 185.003 287.034 184.667 287.034 184.261C287.034 183.799 287.398 183.449 287.846 183.449C288.294 183.449 288.644 183.813 288.644 184.373ZM295.078 189.959C295.078 191.303 294.056 192.157 292.614 192.157C291.144 192.157 290.15 191.415 290.15 190.043C290.15 188.811 291.06 188.069 291.76 187.593C290.92 187.005 290.36 186.501 290.36 185.451C290.36 184.261 291.34 183.421 292.6 183.421C293.958 183.421 294.84 184.177 294.84 185.353C294.84 186.361 294.14 187.005 293.454 187.481C294.35 188.083 295.078 188.685 295.078 189.959ZM294 189.959C294 189.049 293.37 188.587 292.53 188.041C291.788 188.545 291.214 188.979 291.214 189.903C291.214 190.743 291.774 191.219 292.628 191.219C293.538 191.219 294 190.659 294 189.959ZM293.846 185.479C293.846 184.765 293.37 184.303 292.614 184.303C291.858 184.303 291.368 184.793 291.368 185.493C291.368 186.151 291.914 186.529 292.67 187.047C293.272 186.655 293.846 186.151 293.846 185.479ZM302.247 188.433C302.247 190.295 301.519 192.157 299.405 192.157C297.277 192.157 296.549 190.295 296.549 188.433C296.549 186.571 297.277 184.709 299.405 184.709C301.519 184.709 302.247 186.571 302.247 188.433ZM301.099 188.433C301.099 186.865 300.581 185.689 299.405 185.689C298.215 185.689 297.697 186.865 297.697 188.433C297.697 190.001 298.215 191.177 299.405 191.177C300.581 191.177 301.099 190.001 301.099 188.433ZM308.29 190.743C308.29 193.431 305.756 194.187 303.95 194.327L303.81 193.375C305.084 193.235 307.142 192.731 307.142 190.897C307.142 189.749 306.498 189.077 304.706 189.077H303.768L304.076 184.863H308.066V185.885H305.042L304.86 188.237C304.86 188.237 305.182 188.209 305.476 188.209C307.1 188.209 308.29 189.063 308.29 190.743ZM311.326 191.289C311.326 191.737 310.962 192.101 310.528 192.101C310.08 192.101 309.716 191.737 309.716 191.289C309.716 190.855 310.08 190.491 310.528 190.491C310.962 190.491 311.326 190.855 311.326 191.289ZM318.571 188.433C318.571 190.295 317.843 192.157 315.729 192.157C313.601 192.157 312.873 190.295 312.873 188.433C312.873 186.571 313.601 184.709 315.729 184.709C317.843 184.709 318.571 186.571 318.571 188.433ZM317.423 188.433C317.423 186.865 316.905 185.689 315.729 185.689C314.539 185.689 314.021 186.865 314.021 188.433C314.021 190.001 314.539 191.177 315.729 191.177C316.905 191.177 317.423 190.001 317.423 188.433ZM325.776 188.433C325.776 190.295 325.048 192.157 322.934 192.157C320.806 192.157 320.078 190.295 320.078 188.433C320.078 186.571 320.806 184.709 322.934 184.709C325.048 184.709 325.776 186.571 325.776 188.433ZM324.628 188.433C324.628 186.865 324.11 185.689 322.934 185.689C321.744 185.689 321.226 186.865 321.226 188.433C321.226 190.001 321.744 191.177 322.934 191.177C324.11 191.177 324.628 190.001 324.628 188.433Z" fill="#00157E"/>
<path d="M23.576 231.78L21.77 232.242L21.056 229.666H18.704L18.06 232.004H16.17L18.97 223.576H20.888L23.576 231.78ZM20.748 228.448L19.908 225.368H19.894L19.04 228.448H20.748ZM30.5879 229.372C30.5879 231.094 29.1879 232.004 26.6959 232.004H24.6379V223.646C24.6379 223.646 25.8279 223.492 27.0039 223.492C29.0479 223.492 29.9999 224.164 29.9999 225.438C29.9999 226.502 29.3139 227.02 28.4319 227.356V227.37C29.7199 227.51 30.5879 228.21 30.5879 229.372ZM28.6839 229.414C28.6839 228.616 28.0819 228.294 26.9479 228.294H26.4439V230.506H27.2699C28.1239 230.506 28.6839 230.128 28.6839 229.414ZM28.0959 225.858C28.0959 225.144 27.6339 224.878 26.8779 224.878C26.6259 224.878 26.4439 224.906 26.4439 224.906V227.02C27.3259 227.02 28.0959 226.768 28.0959 225.858ZM37.834 229.372C37.834 231.094 36.434 232.004 33.942 232.004H31.884V223.646C31.884 223.646 33.074 223.492 34.25 223.492C36.294 223.492 37.246 224.164 37.246 225.438C37.246 226.502 36.56 227.02 35.678 227.356V227.37C36.966 227.51 37.834 228.21 37.834 229.372ZM35.93 229.414C35.93 228.616 35.328 228.294 34.194 228.294H33.69V230.506H34.516C35.37 230.506 35.93 230.128 35.93 229.414ZM35.342 225.858C35.342 225.144 34.88 224.878 34.124 224.878C33.872 224.878 33.69 224.906 33.69 224.906V227.02C34.572 227.02 35.342 226.768 35.342 225.858ZM46.8995 232.004H42.0695V223.576H43.9595V230.422H46.8995V232.004ZM51.9391 231.682C51.3651 231.99 50.9311 232.158 50.0491 232.158C48.7331 232.158 48.0891 231.276 48.0891 229.96V226.782H47.0671V225.606L48.0891 225.368V224.22L49.8531 224.01V225.382H51.6731V226.782H49.8531V229.484C49.8531 230.366 50.0771 230.59 50.6511 230.59C50.9731 230.59 51.1551 230.506 51.4631 230.366L51.9391 231.682ZM58.3703 231.92L56.6763 232.13L56.5783 231.444H56.5643C56.3963 231.584 55.8503 232.172 54.9543 232.172C53.3023 232.172 52.4763 230.772 52.4763 228.924C52.4763 226.544 53.8343 225.326 55.7523 225.326C56.1023 225.326 56.3683 225.382 56.3683 225.382V224.29L56.1443 222.652L58.1463 222.428V230.282L58.3703 231.92ZM55.5003 230.59C55.9203 230.59 56.2423 230.408 56.3683 230.296V226.908C56.3683 226.908 56.1303 226.796 55.6963 226.796C54.8423 226.796 54.2683 227.468 54.2683 228.658C54.2683 229.988 54.6183 230.59 55.5003 230.59Z" fill="#00157E"/>
<path d="M21.728 245.638C21.728 247.108 20.706 248.158 19.012 248.158C18.144 248.158 17.374 247.976 16.716 247.696L17.08 246.674C17.626 246.926 18.27 247.136 18.928 247.136C19.95 247.136 20.608 246.744 20.608 245.82C20.608 245.134 20.104 244.798 19.432 244.476L18.116 243.846C17.234 243.426 16.632 242.88 16.632 241.69C16.632 240.248 17.892 239.422 19.348 239.422C20.132 239.422 20.636 239.548 21.364 239.814L20.972 240.808C20.524 240.598 20.034 240.402 19.418 240.402C18.55 240.402 17.766 240.752 17.766 241.648C17.766 242.25 18.13 242.544 18.69 242.81L20.034 243.468C21.098 243.986 21.728 244.56 21.728 245.638ZM26.7007 247.738C26.2947 247.962 25.9167 248.144 25.2027 248.144C24.1947 248.144 23.5507 247.486 23.5507 246.366V242.362H22.5847V241.62L23.5507 241.424V240.332L24.6567 240.192V241.452H26.4907V242.362H24.6567V245.988C24.6567 246.87 24.8807 247.15 25.5247 247.15C25.8747 247.15 26.1407 247.01 26.3367 246.884L26.7007 247.738ZM31.1362 242.418C30.3802 242.418 29.8202 242.614 29.3162 243.076V248.004H28.1962V242.964L28.0002 241.522L29.1062 241.34L29.2182 242.236H29.2322C29.6802 241.732 30.2682 241.312 31.1362 241.312V242.418ZM37.6688 247.934L36.5628 248.116L36.4508 247.36H36.4368C35.9468 247.822 35.3028 248.158 34.4908 248.158C33.3848 248.158 32.5028 247.444 32.5028 246.1V242.964L32.3068 241.522L33.6228 241.34V245.708C33.6228 246.674 33.9868 247.178 34.8688 247.178C35.4988 247.178 35.9468 246.912 36.3528 246.534V242.964L36.1568 241.522L37.4728 241.34V246.492L37.6688 247.934ZM43.9359 241.578L43.5859 242.586C43.2219 242.446 42.8159 242.32 42.3539 242.32C41.1219 242.32 40.3799 243.244 40.3799 244.63C40.3799 246.38 41.0659 247.178 42.3259 247.178C42.7739 247.178 43.1379 247.024 43.5019 246.87L43.8799 247.78C43.3339 248.032 42.7319 248.158 42.1019 248.158C40.2259 248.158 39.2599 246.814 39.2599 244.812C39.2599 242.404 40.7439 241.298 42.4099 241.298C42.9839 241.298 43.4739 241.396 43.9359 241.578ZM48.8901 247.738C48.4841 247.962 48.1061 248.144 47.3921 248.144C46.3841 248.144 45.7401 247.486 45.7401 246.366V242.362H44.7741V241.62L45.7401 241.424V240.332L46.8461 240.192V241.452H48.6801V242.362H46.8461V245.988C46.8461 246.87 47.0701 247.15 47.7141 247.15C48.0641 247.15 48.3301 247.01 48.5261 246.884L48.8901 247.738ZM55.5516 247.934L54.4456 248.116L54.3336 247.36H54.3196C53.8296 247.822 53.1856 248.158 52.3736 248.158C51.2676 248.158 50.3856 247.444 50.3856 246.1V242.964L50.1896 241.522L51.5056 241.34V245.708C51.5056 246.674 51.8696 247.178 52.7516 247.178C53.3816 247.178 53.8296 246.912 54.2356 246.534V242.964L54.0396 241.522L55.3556 241.34V246.492L55.5516 247.934ZM60.5307 242.418C59.7747 242.418 59.2147 242.614 58.7107 243.076V248.004H57.5907V242.964L57.3947 241.522L58.5007 241.34L58.6127 242.236H58.6267C59.0747 241.732 59.6627 241.312 60.5307 241.312V242.418ZM66.2833 247.654C65.6533 248.004 65.0093 248.158 64.2113 248.158C62.2793 248.158 61.2853 246.856 61.2853 244.686C61.2853 242.656 62.3493 241.298 64.0013 241.298C65.5833 241.298 66.2273 242.348 66.2273 243.79V244.574H62.3773C62.3913 246.324 63.0213 247.164 64.4493 247.164C64.9953 247.164 65.4153 247.01 65.8913 246.772L66.2833 247.654ZM65.1773 243.79C65.1773 242.81 64.8133 242.194 63.9453 242.194C63.1053 242.194 62.5733 242.852 62.4333 243.79H65.1773ZM72.868 247.962L71.79 248.116L71.692 247.458H71.678C71.258 247.808 70.684 248.158 69.914 248.158C68.472 248.158 67.506 246.968 67.506 245.022C67.506 242.768 68.668 241.382 70.656 241.382C71.188 241.382 71.566 241.48 71.566 241.48V240.066L71.356 238.624L72.672 238.442V246.52L72.868 247.962ZM70.306 247.178C70.852 247.178 71.23 246.954 71.566 246.688V242.502C71.566 242.502 71.202 242.32 70.558 242.32C69.284 242.32 68.654 243.398 68.654 244.672C68.654 246.254 69.074 247.178 70.306 247.178ZM83.0044 244.406C83.0044 246.534 82.0804 248.074 79.8964 248.074C79.5324 248.074 79.2384 248.046 78.9724 247.976V250.776L77.8524 250.958V242.964L77.6564 241.522L78.7624 241.34L78.8604 242.012H78.8744C79.3084 241.648 79.8824 241.298 80.6384 241.298C82.2344 241.298 83.0044 242.502 83.0044 244.406ZM81.8844 244.728C81.8844 243.3 81.5624 242.306 80.2604 242.306C79.7004 242.306 79.2944 242.544 78.9724 242.81V246.94C79.2384 247.052 79.5464 247.122 79.9804 247.122C81.1984 247.122 81.8844 246.17 81.8844 244.728ZM87.7241 242.418C86.9681 242.418 86.4081 242.614 85.9041 243.076V248.004H84.7841V242.964L84.5881 241.522L85.6941 241.34L85.8061 242.236H85.8201C86.2681 241.732 86.8561 241.312 87.7241 241.312V242.418ZM94.0786 244.728C94.0786 246.646 93.1686 248.158 91.2786 248.158C89.2066 248.158 88.4786 246.688 88.4786 244.728C88.4786 242.81 89.3886 241.298 91.2786 241.298C93.3506 241.298 94.0786 242.768 94.0786 244.728ZM92.9306 244.756C92.9306 243.132 92.3846 242.278 91.2786 242.278C90.2006 242.278 89.6266 243.034 89.6266 244.686C89.6266 246.31 90.1726 247.178 91.2786 247.178C92.3566 247.178 92.9306 246.408 92.9306 244.756ZM100.772 247.962L99.6943 248.116L99.5963 247.458H99.5823C99.1623 247.808 98.5883 248.158 97.8183 248.158C96.3763 248.158 95.4103 246.968 95.4103 245.022C95.4103 242.768 96.5723 241.382 98.5603 241.382C99.0923 241.382 99.4703 241.48 99.4703 241.48V240.066L99.2603 238.624L100.576 238.442V246.52L100.772 247.962ZM98.2103 247.178C98.7563 247.178 99.1343 246.954 99.4703 246.688V242.502C99.4703 242.502 99.1063 242.32 98.4623 242.32C97.1883 242.32 96.5583 243.398 96.5583 244.672C96.5583 246.254 96.9783 247.178 98.2103 247.178ZM107.983 247.934L106.877 248.116L106.765 247.36H106.751C106.261 247.822 105.617 248.158 104.805 248.158C103.699 248.158 102.817 247.444 102.817 246.1V242.964L102.621 241.522L103.937 241.34V245.708C103.937 246.674 104.301 247.178 105.183 247.178C105.813 247.178 106.261 246.912 106.667 246.534V242.964L106.471 241.522L107.787 241.34V246.492L107.983 247.934ZM114.25 241.578L113.9 242.586C113.536 242.446 113.13 242.32 112.668 242.32C111.436 242.32 110.694 243.244 110.694 244.63C110.694 246.38 111.38 247.178 112.64 247.178C113.088 247.178 113.452 247.024 113.816 246.87L114.194 247.78C113.648 248.032 113.046 248.158 112.416 248.158C110.54 248.158 109.574 246.814 109.574 244.812C109.574 242.404 111.058 241.298 112.724 241.298C113.298 241.298 113.788 241.396 114.25 241.578ZM119.205 247.738C118.799 247.962 118.421 248.144 117.707 248.144C116.699 248.144 116.055 247.486 116.055 246.366V242.362H115.089V241.62L116.055 241.424V240.332L117.161 240.192V241.452H118.995V242.362H117.161V245.988C117.161 246.87 117.385 247.15 118.029 247.15C118.379 247.15 118.645 247.01 118.841 246.884L119.205 247.738Z" fill="#00157E" fill-opacity="0.7"/>
<path d="M22.022 260.392H19.656V262.744H18.732V260.392H16.38V259.468H18.732V257.116H19.656V259.468H22.022V260.392ZM25.2987 264.004H24.1927V257.816L22.9607 257.984L22.8347 257.13L25.2987 256.738V264.004ZM28.8279 256.374C28.8279 257.396 28.4079 258.18 27.5539 258.684L27.2319 258.264C27.6519 257.956 27.8759 257.564 27.9459 257.06C27.5539 257.004 27.2179 256.668 27.2179 256.262C27.2179 255.8 27.5819 255.45 28.0299 255.45C28.4779 255.45 28.8279 255.814 28.8279 256.374ZM35.3731 264.004H30.1791V263.276L32.5731 260.98C33.2171 260.35 33.7071 259.888 33.7071 259.118C33.7071 258.306 33.2031 257.704 32.2651 257.704C31.6351 257.704 31.1871 257.984 30.8511 258.264L30.3191 257.522C30.9211 257.018 31.5371 256.71 32.5031 256.71C33.8891 256.71 34.8411 257.522 34.8411 258.992C34.8411 259.972 34.2531 260.714 33.5811 261.33L31.7891 262.982V262.996H35.3731V264.004ZM42.2528 260.434C42.2528 262.296 41.5248 264.158 39.4108 264.158C37.2828 264.158 36.5548 262.296 36.5548 260.434C36.5548 258.572 37.2828 256.71 39.4108 256.71C41.5248 256.71 42.2528 258.572 42.2528 260.434ZM41.1048 260.434C41.1048 258.866 40.5868 257.69 39.4108 257.69C38.2208 257.69 37.7028 258.866 37.7028 260.434C37.7028 262.002 38.2208 263.178 39.4108 263.178C40.5868 263.178 41.1048 262.002 41.1048 260.434ZM49.4579 260.434C49.4579 262.296 48.7299 264.158 46.6159 264.158C44.4879 264.158 43.7599 262.296 43.7599 260.434C43.7599 258.572 44.4879 256.71 46.6159 256.71C48.7299 256.71 49.4579 258.572 49.4579 260.434ZM48.3099 260.434C48.3099 258.866 47.7919 257.69 46.6159 257.69C45.4259 257.69 44.9079 258.866 44.9079 260.434C44.9079 262.002 45.4259 263.178 46.6159 263.178C47.7919 263.178 48.3099 262.002 48.3099 260.434ZM52.617 263.29C52.617 263.738 52.253 264.102 51.819 264.102C51.371 264.102 51.007 263.738 51.007 263.29C51.007 262.856 51.371 262.492 51.819 262.492C52.253 262.492 52.617 262.856 52.617 263.29ZM59.0502 261.96C59.0502 263.304 58.0282 264.158 56.5862 264.158C55.1162 264.158 54.1222 263.416 54.1222 262.044C54.1222 260.812 55.0322 260.07 55.7322 259.594C54.8922 259.006 54.3322 258.502 54.3322 257.452C54.3322 256.262 55.3122 255.422 56.5722 255.422C57.9302 255.422 58.8122 256.178 58.8122 257.354C58.8122 258.362 58.1122 259.006 57.4262 259.482C58.3222 260.084 59.0502 260.686 59.0502 261.96ZM57.9722 261.96C57.9722 261.05 57.3422 260.588 56.5022 260.042C55.7602 260.546 55.1862 260.98 55.1862 261.904C55.1862 262.744 55.7462 263.22 56.6002 263.22C57.5102 263.22 57.9722 262.66 57.9722 261.96ZM57.8182 257.48C57.8182 256.766 57.3422 256.304 56.5862 256.304C55.8302 256.304 55.3402 256.794 55.3402 257.494C55.3402 258.152 55.8862 258.53 56.6422 259.048C57.2442 258.656 57.8182 258.152 57.8182 257.48ZM65.6876 261.442C65.6876 263.094 64.7076 264.158 63.1256 264.158C61.3336 264.158 60.5776 262.828 60.5776 260.854C60.5776 257.046 62.8176 255.478 65.2536 255.282L65.3936 256.206C63.7136 256.388 62.0336 257.298 61.7116 259.636L61.7256 259.65C61.7256 259.65 62.4396 259.034 63.4056 259.034C64.8756 259.034 65.6876 259.972 65.6876 261.442ZM64.5816 261.666C64.5816 260.476 64.1196 259.972 63.0976 259.972C62.2996 259.972 61.7116 260.532 61.7116 260.532V260.798C61.7116 262.366 62.1176 263.234 63.2236 263.234C64.1476 263.234 64.5816 262.576 64.5816 261.666Z" fill="#00157E"/>
<path d="M77.96 263.57C77.176 263.976 76.378 264.158 75.314 264.158C73.256 264.158 71.674 262.772 71.674 259.972C71.674 256.99 73.438 255.422 75.706 255.422C76.644 255.422 77.218 255.562 77.932 255.87L77.484 256.892C76.952 256.654 76.448 256.472 75.692 256.472C74.222 256.472 72.878 257.606 72.878 259.678C72.878 261.988 73.732 263.122 75.776 263.122C76.448 263.122 77.064 262.856 77.568 262.632L77.96 263.57ZM85.5697 264.004H84.3937V260.154H80.5997V264.004H79.4237V255.576H80.5997V259.16H84.3937V255.576H85.5697V264.004ZM92.0863 256.57H89.0623V259.314H91.7923V260.308H89.0623V264.004H87.9003V255.576H92.0863V256.57Z" fill="#00157E" fill-opacity="0.7"/>
<path d="M115.022 260.392H112.656V262.744H111.732V260.392H109.38V259.468H111.732V257.116H112.656V259.468H115.022V260.392ZM118.299 264.004H117.193V257.816L115.961 257.984L115.835 257.13L118.299 256.738V264.004ZM125.174 264.004H119.98V263.276L122.374 260.98C123.018 260.35 123.508 259.888 123.508 259.118C123.508 258.306 123.004 257.704 122.066 257.704C121.436 257.704 120.988 257.984 120.652 258.264L120.12 257.522C120.722 257.018 121.338 256.71 122.304 256.71C123.69 256.71 124.642 257.522 124.642 258.992C124.642 259.972 124.054 260.714 123.382 261.33L121.59 262.982V262.996H125.174V264.004ZM128.008 263.29C128.008 263.738 127.644 264.102 127.21 264.102C126.762 264.102 126.398 263.738 126.398 263.29C126.398 262.856 126.762 262.492 127.21 262.492C127.644 262.492 128.008 262.856 128.008 263.29ZM134.441 261.96C134.441 263.304 133.419 264.158 131.977 264.158C130.507 264.158 129.513 263.416 129.513 262.044C129.513 260.812 130.423 260.07 131.123 259.594C130.283 259.006 129.723 258.502 129.723 257.452C129.723 256.262 130.703 255.422 131.963 255.422C133.321 255.422 134.203 256.178 134.203 257.354C134.203 258.362 133.503 259.006 132.817 259.482C133.713 260.084 134.441 260.686 134.441 261.96ZM133.363 261.96C133.363 261.05 132.733 260.588 131.893 260.042C131.151 260.546 130.577 260.98 130.577 261.904C130.577 262.744 131.137 263.22 131.991 263.22C132.901 263.22 133.363 262.66 133.363 261.96ZM133.209 257.48C133.209 256.766 132.733 256.304 131.977 256.304C131.221 256.304 130.731 256.794 130.731 257.494C130.731 258.152 131.277 258.53 132.033 259.048C132.635 258.656 133.209 258.152 133.209 257.48ZM141.078 261.442C141.078 263.094 140.098 264.158 138.516 264.158C136.724 264.158 135.968 262.828 135.968 260.854C135.968 257.046 138.208 255.478 140.644 255.282L140.784 256.206C139.104 256.388 137.424 257.298 137.102 259.636L137.116 259.65C137.116 259.65 137.83 259.034 138.796 259.034C140.266 259.034 141.078 259.972 141.078 261.442ZM139.972 261.666C139.972 260.476 139.51 259.972 138.488 259.972C137.69 259.972 137.102 260.532 137.102 260.532V260.798C137.102 262.366 137.508 263.234 138.614 263.234C139.538 263.234 139.972 262.576 139.972 261.666Z" fill="#00157E"/>
<path d="M151.07 257.62C151.07 258.88 150.104 259.846 148.844 259.846C147.584 259.846 146.618 258.88 146.618 257.62C146.618 256.36 147.584 255.422 148.844 255.422C150.104 255.422 151.07 256.36 151.07 257.62ZM157.286 261.946C157.286 263.206 156.32 264.158 155.06 264.158C153.8 264.158 152.834 263.206 152.834 261.946C152.834 260.7 153.8 259.748 155.06 259.748C156.32 259.748 157.286 260.7 157.286 261.946ZM154.71 255.772L150.076 264.284L149.222 263.822L153.856 255.31L154.71 255.772ZM156.264 261.946C156.264 261.232 155.774 260.742 155.06 260.742C154.346 260.742 153.856 261.232 153.856 261.946C153.856 262.646 154.346 263.178 155.06 263.178C155.774 263.178 156.264 262.646 156.264 261.946ZM150.034 257.62C150.034 256.906 149.558 256.416 148.844 256.416C148.13 256.416 147.64 256.906 147.64 257.62C147.64 258.334 148.13 258.852 148.844 258.852C149.558 258.852 150.034 258.334 150.034 257.62Z" fill="#00157E" fill-opacity="0.7"/>
<path d="M259.962 230.632C259.29 230.98 258.606 231.136 257.694 231.136C255.93 231.136 254.574 229.948 254.574 227.548C254.574 224.992 256.086 223.648 258.03 223.648C258.834 223.648 259.326 223.768 259.938 224.032L259.554 224.908C259.098 224.704 258.666 224.548 258.018 224.548C256.758 224.548 255.606 225.52 255.606 227.296C255.606 229.276 256.338 230.248 258.09 230.248C258.666 230.248 259.194 230.02 259.626 229.828L259.962 230.632ZM266.485 231.004H265.477V227.704H262.225V231.004H261.217V223.78H262.225V226.852H265.477V223.78H266.485V231.004ZM272.07 224.632H269.478V226.984H271.818V227.836H269.478V231.004H268.482V223.78H272.07V224.632Z" fill="#00157E" fill-opacity="0.7"/>
<path d="M284.997 232.004H283.219V226.334L281.987 226.502L281.777 225.242L284.997 224.724V232.004ZM288.727 224.598C288.727 226.026 288.153 226.824 287.117 227.566L286.613 227.02C287.103 226.6 287.425 226.152 287.537 225.536C287.019 225.48 286.599 225.018 286.599 224.486C286.599 223.912 287.075 223.436 287.649 223.436C288.251 223.436 288.727 223.884 288.727 224.598ZM296.009 228.434C296.009 230.394 295.155 232.172 292.999 232.172C290.843 232.172 289.989 230.394 289.989 228.434C289.989 226.474 290.843 224.696 292.999 224.696C295.155 224.696 296.009 226.474 296.009 228.434ZM294.217 228.434C294.217 227.09 293.839 226.278 292.999 226.278C292.173 226.278 291.781 227.09 291.781 228.434C291.781 229.778 292.173 230.59 292.999 230.59C293.839 230.59 294.217 229.778 294.217 228.434ZM303.255 228.434C303.255 230.394 302.401 232.172 300.245 232.172C298.089 232.172 297.235 230.394 297.235 228.434C297.235 226.474 298.089 224.696 300.245 224.696C302.401 224.696 303.255 226.474 303.255 228.434ZM301.463 228.434C301.463 227.09 301.085 226.278 300.245 226.278C299.419 226.278 299.027 227.09 299.027 228.434C299.027 229.778 299.419 230.59 300.245 230.59C301.085 230.59 301.463 229.778 301.463 228.434ZM309.703 229.736C309.703 231.08 308.709 232.172 307.099 232.172C305.391 232.172 304.453 231.388 304.453 229.946C304.453 228.882 305.181 228.168 305.797 227.706C305.167 227.216 304.635 226.642 304.635 225.634C304.635 224.276 305.783 223.408 307.043 223.408C308.401 223.408 309.437 224.15 309.437 225.452C309.437 226.376 308.849 227.006 308.289 227.454C309.003 227.944 309.703 228.602 309.703 229.736ZM308.135 229.806C308.135 229.12 307.519 228.7 306.931 228.336C306.441 228.7 306.035 229.092 306.035 229.764C306.035 230.436 306.483 230.786 307.127 230.786C307.771 230.786 308.135 230.338 308.135 229.806ZM307.953 225.62C307.953 225.074 307.617 224.738 307.057 224.738C306.525 224.738 306.203 225.102 306.203 225.634C306.203 226.152 306.651 226.488 307.155 226.824C307.575 226.516 307.953 226.138 307.953 225.62ZM313.077 231.052C313.077 231.64 312.601 232.116 312.013 232.116C311.425 232.116 310.949 231.64 310.949 231.052C310.949 230.478 311.425 230.002 312.013 230.002C312.601 230.002 313.077 230.478 313.077 231.052ZM319.267 230.562C319.267 233.068 317.125 234.048 314.619 234.342L314.353 232.83C315.529 232.648 317.447 232.242 317.447 230.744C317.447 229.806 316.761 229.344 315.179 229.344H314.353L314.619 224.864H319.015V226.46H316.089L315.991 228.112C315.991 228.112 316.257 228.098 316.537 228.098C318.245 228.098 319.267 228.938 319.267 230.562ZM326.388 228.434C326.388 230.394 325.534 232.172 323.378 232.172C321.222 232.172 320.368 230.394 320.368 228.434C320.368 226.474 321.222 224.696 323.378 224.696C325.534 224.696 326.388 226.474 326.388 228.434ZM324.596 228.434C324.596 227.09 324.218 226.278 323.378 226.278C322.552 226.278 322.16 227.09 322.16 228.434C322.16 229.778 322.552 230.59 323.378 230.59C324.218 230.59 324.596 229.778 324.596 228.434Z" fill="#00157E"/>
<path d="M295.27 244.406C295.27 246.534 294.346 248.074 292.162 248.074C291.798 248.074 291.504 248.046 291.238 247.976V250.776L290.118 250.958V242.964L289.922 241.522L291.028 241.34L291.126 242.012H291.14C291.574 241.648 292.148 241.298 292.904 241.298C294.5 241.298 295.27 242.502 295.27 244.406ZM294.15 244.728C294.15 243.3 293.828 242.306 292.526 242.306C291.966 242.306 291.56 242.544 291.238 242.81V246.94C291.504 247.052 291.812 247.122 292.246 247.122C293.464 247.122 294.15 246.17 294.15 244.728ZM301.278 241.578L300.928 242.586C300.564 242.446 300.158 242.32 299.696 242.32C298.464 242.32 297.722 243.244 297.722 244.63C297.722 246.38 298.408 247.178 299.668 247.178C300.116 247.178 300.48 247.024 300.844 246.87L301.222 247.78C300.676 248.032 300.074 248.158 299.444 248.158C297.568 248.158 296.602 246.814 296.602 244.812C296.602 242.404 298.086 241.298 299.752 241.298C300.326 241.298 300.816 241.396 301.278 241.578ZM306.613 246.1C306.613 247.29 305.675 248.144 304.275 248.144C303.603 248.144 302.931 248.046 302.399 247.794L302.735 246.814C303.197 247.024 303.715 247.192 304.219 247.192C304.975 247.192 305.479 246.898 305.479 246.282C305.479 245.806 305.227 245.61 304.793 245.414L303.575 244.854C303.141 244.658 302.357 244.266 302.357 243.132C302.357 241.886 303.449 241.298 304.639 241.298C305.353 241.298 305.857 241.41 306.417 241.648L306.039 242.614C305.591 242.418 305.157 242.278 304.625 242.278C303.911 242.278 303.449 242.502 303.449 243.062C303.449 243.552 303.869 243.748 304.135 243.874L305.381 244.462C306.249 244.868 306.613 245.386 306.613 246.1ZM309.672 247.29C309.672 247.738 309.308 248.102 308.874 248.102C308.426 248.102 308.062 247.738 308.062 247.29C308.062 246.856 308.426 246.492 308.874 246.492C309.308 246.492 309.672 246.856 309.672 247.29Z" fill="#00157E" fill-opacity="0.7"/>
<path d="M317.91 248.004H316.804V241.816L315.572 241.984L315.446 241.13L317.91 240.738V248.004ZM325.485 244.434C325.485 246.296 324.757 248.158 322.643 248.158C320.515 248.158 319.787 246.296 319.787 244.434C319.787 242.572 320.515 240.71 322.643 240.71C324.757 240.71 325.485 242.572 325.485 244.434ZM324.337 244.434C324.337 242.866 323.819 241.69 322.643 241.69C321.453 241.69 320.935 242.866 320.935 244.434C320.935 246.002 321.453 247.178 322.643 247.178C323.819 247.178 324.337 246.002 324.337 244.434Z" fill="#00157E"/>
<path d="M255.956 263.57C255.172 263.976 254.374 264.158 253.31 264.158C251.252 264.158 249.67 262.772 249.67 259.972C249.67 256.99 251.434 255.422 253.702 255.422C254.64 255.422 255.214 255.562 255.928 255.87L255.48 256.892C254.948 256.654 254.444 256.472 253.688 256.472C252.218 256.472 250.874 257.606 250.874 259.678C250.874 261.988 251.728 263.122 253.772 263.122C254.444 263.122 255.06 262.856 255.564 262.632L255.956 263.57ZM263.566 264.004H262.39V260.154H258.596V264.004H257.42V255.576H258.596V259.16H262.39V255.576H263.566V264.004ZM270.082 256.57H267.058V259.314H269.788V260.308H267.058V264.004H265.896V255.576H270.082V256.57Z" fill="#00157E" fill-opacity="0.7"/>
<path d="M277.91 264.004H276.804V257.816L275.572 257.984L275.446 257.13L277.91 256.738V264.004ZM285.485 260.434C285.485 262.296 284.757 264.158 282.643 264.158C280.515 264.158 279.787 262.296 279.787 260.434C279.787 258.572 280.515 256.71 282.643 256.71C284.757 256.71 285.485 258.572 285.485 260.434ZM284.337 260.434C284.337 258.866 283.819 257.69 282.643 257.69C281.453 257.69 280.935 258.866 280.935 260.434C280.935 262.002 281.453 263.178 282.643 263.178C283.819 263.178 284.337 262.002 284.337 260.434ZM288.644 256.374C288.644 257.396 288.224 258.18 287.37 258.684L287.048 258.264C287.468 257.956 287.692 257.564 287.762 257.06C287.37 257.004 287.034 256.668 287.034 256.262C287.034 255.8 287.398 255.45 287.846 255.45C288.294 255.45 288.644 255.814 288.644 256.374ZM295.078 261.96C295.078 263.304 294.056 264.158 292.614 264.158C291.144 264.158 290.15 263.416 290.15 262.044C290.15 260.812 291.06 260.07 291.76 259.594C290.92 259.006 290.36 258.502 290.36 257.452C290.36 256.262 291.34 255.422 292.6 255.422C293.958 255.422 294.84 256.178 294.84 257.354C294.84 258.362 294.14 259.006 293.454 259.482C294.35 260.084 295.078 260.686 295.078 261.96ZM294 261.96C294 261.05 293.37 260.588 292.53 260.042C291.788 260.546 291.214 260.98 291.214 261.904C291.214 262.744 291.774 263.22 292.628 263.22C293.538 263.22 294 262.66 294 261.96ZM293.846 257.48C293.846 256.766 293.37 256.304 292.614 256.304C291.858 256.304 291.368 256.794 291.368 257.494C291.368 258.152 291.914 258.53 292.67 259.048C293.272 258.656 293.846 258.152 293.846 257.48ZM302.247 260.434C302.247 262.296 301.519 264.158 299.405 264.158C297.277 264.158 296.549 262.296 296.549 260.434C296.549 258.572 297.277 256.71 299.405 256.71C301.519 256.71 302.247 258.572 302.247 260.434ZM301.099 260.434C301.099 258.866 300.581 257.69 299.405 257.69C298.215 257.69 297.697 258.866 297.697 260.434C297.697 262.002 298.215 263.178 299.405 263.178C300.581 263.178 301.099 262.002 301.099 260.434ZM308.29 262.744C308.29 265.432 305.756 266.188 303.95 266.328L303.81 265.376C305.084 265.236 307.142 264.732 307.142 262.898C307.142 261.75 306.498 261.078 304.706 261.078H303.768L304.076 256.864H308.066V257.886H305.042L304.86 260.238C304.86 260.238 305.182 260.21 305.476 260.21C307.1 260.21 308.29 261.064 308.29 262.744ZM311.326 263.29C311.326 263.738 310.962 264.102 310.528 264.102C310.08 264.102 309.716 263.738 309.716 263.29C309.716 262.856 310.08 262.492 310.528 262.492C310.962 262.492 311.326 262.856 311.326 263.29ZM318.571 260.434C318.571 262.296 317.843 264.158 315.729 264.158C313.601 264.158 312.873 262.296 312.873 260.434C312.873 258.572 313.601 256.71 315.729 256.71C317.843 256.71 318.571 258.572 318.571 260.434ZM317.423 260.434C317.423 258.866 316.905 257.69 315.729 257.69C314.539 257.69 314.021 258.866 314.021 260.434C314.021 262.002 314.539 263.178 315.729 263.178C316.905 263.178 317.423 262.002 317.423 260.434ZM325.776 260.434C325.776 262.296 325.048 264.158 322.934 264.158C320.806 264.158 320.078 262.296 320.078 260.434C320.078 258.572 320.806 256.71 322.934 256.71C325.048 256.71 325.776 258.572 325.776 260.434ZM324.628 260.434C324.628 258.866 324.11 257.69 322.934 257.69C321.744 257.69 321.226 258.866 321.226 260.434C321.226 262.002 321.744 263.178 322.934 263.178C324.11 263.178 324.628 262.002 324.628 260.434Z" fill="#00157E"/>
</svg>
