<svg width="420" height="40" viewBox="0 0 420 40" fill="none" xmlns="http://www.w3.org/2000/svg">
<mask id="path-1-inside-1_365_3678" fill="white">
<path d="M0 8C0 3.58172 3.58172 0 8 0H412C416.418 0 420 3.58172 420 8V40H0V8Z"/>
</mask>
<path d="M0 0H420H0M420 41H0V39H420V41ZM420 39M0 40V0V40M0 40M420 0V40V0" fill="#00157E" fill-opacity="0.1" mask="url(#path-1-inside-1_365_3678)"/>
<path d="M22.6378 22.296C22.6378 23.976 21.4698 25.176 19.5338 25.176C18.5418 25.176 17.6618 24.968 16.9098 24.648L17.3258 23.48C17.9498 23.768 18.6858 24.008 19.4378 24.008C20.6058 24.008 21.3578 23.56 21.3578 22.504C21.3578 21.72 20.7818 21.336 20.0138 20.968L18.5098 20.248C17.5018 19.768 16.8138 19.144 16.8138 17.784C16.8138 16.136 18.2538 15.192 19.9178 15.192C20.8138 15.192 21.3898 15.336 22.2218 15.64L21.7738 16.776C21.2618 16.536 20.7018 16.312 19.9978 16.312C19.0058 16.312 18.1098 16.712 18.1098 17.736C18.1098 18.424 18.5258 18.76 19.1658 19.064L20.7018 19.816C21.9178 20.408 22.6378 21.064 22.6378 22.296ZM33.4748 17.512L31.4108 24.968L30.2268 25.032L28.4028 19.352H28.3868L26.5468 24.984L25.3628 25.032L23.4908 17.592L24.7068 17.288L26.0508 23.128H26.0668L27.8108 17.512H29.0588L30.8188 23.128H30.8348L32.2268 17.512H33.4748ZM36.467 25H35.187V19.24L34.963 17.592L36.467 17.384V25ZM36.723 15.56C36.723 16.072 36.323 16.456 35.843 16.456C35.347 16.456 34.931 16.072 34.931 15.56C34.931 15.048 35.347 14.648 35.843 14.648C36.323 14.648 36.723 15.048 36.723 15.56ZM42.774 24.696C42.31 24.952 41.878 25.16 41.062 25.16C39.91 25.16 39.174 24.408 39.174 23.128V18.552H38.07V17.704L39.174 17.48V16.232L40.438 16.072V17.512H42.534V18.552H40.438V22.696C40.438 23.704 40.694 24.024 41.43 24.024C41.83 24.024 42.134 23.864 42.358 23.72L42.774 24.696ZM49.3471 25H43.9391V24.136L47.6031 18.568V18.552H44.1631V17.512H49.1871V18.376L45.5551 23.928V23.944H49.3471V25ZM56.1675 24.6C55.4475 25 54.7115 25.176 53.7995 25.176C51.5915 25.176 50.4555 23.688 50.4555 21.208C50.4555 18.888 51.6715 17.336 53.5595 17.336C55.3675 17.336 56.1035 18.536 56.1035 20.184V21.08H51.7035C51.7195 23.08 52.4395 24.04 54.0715 24.04C54.6955 24.04 55.1755 23.864 55.7195 23.592L56.1675 24.6ZM54.9035 20.184C54.9035 19.064 54.4875 18.36 53.4955 18.36C52.5355 18.36 51.9275 19.112 51.7675 20.184H54.9035ZM61.4369 18.616C60.5729 18.616 59.9329 18.84 59.3569 19.368V25H58.0769V19.24L57.8529 17.592L59.1169 17.384L59.2449 18.408H59.2609C59.7729 17.832 60.4449 17.352 61.4369 17.352V18.616ZM64.2468 25H62.9668V15.928L62.7428 14.28L64.2468 14.072V25ZM71.692 24.92L70.412 25.128L70.3 24.248H70.284C69.74 24.76 69.148 25.192 68.252 25.192C67.004 25.192 66.268 24.44 66.268 23.256C66.268 21.912 67.324 21.256 68.844 21.096L70.188 20.952V20.28C70.188 19.24 69.868 18.504 68.636 18.504C68.012 18.504 67.548 18.696 67.084 18.936L66.62 17.992C67.292 17.592 67.98 17.336 68.94 17.336C70.444 17.336 71.452 18.216 71.452 19.704V23.272L71.692 24.92ZM70.188 23.448V21.816L69.02 21.976C68.06 22.104 67.532 22.408 67.532 23.096C67.532 23.72 67.916 24.136 68.556 24.136C69.308 24.136 69.772 23.816 70.188 23.448ZM79.71 25H78.43V20.136C78.43 19.032 78.014 18.472 77.006 18.472C76.286 18.472 75.774 18.776 75.31 19.192V25H74.03V19.24L73.806 17.592L75.07 17.384L75.198 18.264H75.214C75.774 17.72 76.51 17.336 77.438 17.336C78.702 17.336 79.71 18.152 79.71 19.688V25ZM87.8491 24.952L86.6171 25.128L86.5051 24.376H86.4891C86.0091 24.776 85.3531 25.176 84.4731 25.176C82.8251 25.176 81.7211 23.816 81.7211 21.592C81.7211 19.016 83.0491 17.432 85.3211 17.432C85.9291 17.432 86.3611 17.544 86.3611 17.544V15.928L86.1211 14.28L87.6251 14.072V23.304L87.8491 24.952ZM84.9211 24.056C85.5451 24.056 85.9771 23.8 86.3611 23.496V18.712C86.3611 18.712 85.9451 18.504 85.2091 18.504C83.7531 18.504 83.0331 19.736 83.0331 21.192C83.0331 23 83.5131 24.056 84.9211 24.056Z" fill="#00157E"/>
</svg>
