<svg width="375" height="812" viewBox="0 0 375 812" fill="none" xmlns="http://www.w3.org/2000/svg">
<g clip-path="url(#clip0_417_80533)">
<rect width="375" height="812" fill="white"/>
<path d="M343.99 22.17H357.993C359.556 22.17 360.823 23.4371 360.823 25.0001V29.6729C360.823 31.2359 359.556 32.503 357.993 32.503H343.99C342.427 32.503 341.16 31.2359 341.16 29.6729V25.0001C341.16 23.4371 342.427 22.17 343.99 22.17Z" stroke="#00157E"/>
<path d="M362.33 25.3367V29.3367C363.135 28.9979 363.658 28.2098 363.658 27.3367C363.658 26.4635 363.135 25.6754 362.33 25.3367" fill="#00157E"/>
<rect x="342.66" y="23.67" width="16.66" height="7.33333" rx="1.33333" fill="#00157E"/>
<path d="M325.427 30.0606C326.702 28.9817 328.571 28.9817 329.847 30.0606C329.911 30.1186 329.947 30.2007 329.949 30.2871C329.951 30.3736 329.917 30.457 329.855 30.5176L327.858 32.5332C327.8 32.5924 327.72 32.626 327.637 32.626C327.553 32.626 327.474 32.5924 327.415 32.5332L325.417 30.5176C325.355 30.457 325.321 30.3735 325.323 30.2871C325.325 30.2007 325.363 30.1185 325.427 30.0606ZM322.762 27.3711C325.51 24.8151 329.766 24.8151 332.514 27.3711C332.576 27.431 332.611 27.5135 332.612 27.5996C332.613 27.6858 332.579 27.7689 332.519 27.8301L331.364 28.9971C331.245 29.1162 331.053 29.1188 330.931 29.003C330.028 28.1858 328.854 27.7334 327.637 27.7334C326.42 27.7339 325.247 28.1863 324.345 29.003C324.223 29.1188 324.03 29.1162 323.911 28.9971L322.757 27.8301C322.696 27.769 322.662 27.6857 322.663 27.5996C322.664 27.5135 322.7 27.431 322.762 27.3711ZM320.097 24.6895C324.312 20.6503 330.962 20.6501 335.177 24.6895C335.238 24.7494 335.272 24.8316 335.272 24.917C335.273 25.0026 335.239 25.0848 335.179 25.1455L334.022 26.3125C333.903 26.432 333.711 26.4332 333.59 26.3155C331.984 24.7887 329.853 23.9376 327.637 23.9375C325.421 23.9375 323.289 24.7886 321.683 26.3155C321.562 26.4334 321.369 26.4322 321.25 26.3125L320.094 25.1455C320.033 25.0848 319.999 25.0026 320 24.917C320.001 24.8315 320.036 24.7494 320.097 24.6895Z" fill="#00157E"/>
<path d="M299.66 28.667C300.212 28.667 300.66 29.1147 300.66 29.667V31.667C300.66 32.2191 300.212 32.667 299.66 32.667H298.66C298.108 32.667 297.66 32.2191 297.66 31.667V29.667C297.66 29.1147 298.108 28.667 298.66 28.667H299.66ZM304.327 26.667C304.879 26.6672 305.327 27.1148 305.327 27.667V31.667C305.327 32.219 304.879 32.6668 304.327 32.667H303.327C302.775 32.667 302.327 32.2191 302.327 31.667V27.667C302.327 27.1147 302.775 26.667 303.327 26.667H304.327ZM308.993 24.333C309.545 24.333 309.993 24.7809 309.993 25.333V31.667C309.993 32.2191 309.545 32.667 308.993 32.667H307.993C307.441 32.6668 306.993 32.219 306.993 31.667V25.333C306.993 24.781 307.441 24.3332 307.993 24.333H308.993ZM313.66 22C314.212 22 314.66 22.4477 314.66 23V31.667C314.66 32.2191 314.212 32.667 313.66 32.667H312.66C312.108 32.667 311.66 32.2191 311.66 31.667V23C311.66 22.4477 312.108 22 312.66 22H313.66Z" fill="#00157E"/>
<path d="M32.1846 21.9175C34.4405 21.9175 36.4034 23.5215 36.4034 27.3301V27.3447C36.4034 30.9043 34.7994 33.0137 32.1407 33.0137C30.1998 33.0137 28.7496 31.8638 28.4127 30.2451L28.398 30.1646H30.2584L30.2804 30.2378C30.5587 30.9775 31.2105 31.4609 32.1407 31.4609C33.8179 31.4609 34.5284 29.8203 34.609 27.7988C34.609 27.7183 34.6163 27.6377 34.6163 27.5571H34.4698C34.0816 28.3921 33.1588 29.1318 31.7086 29.1318C29.6798 29.1318 28.2589 27.6523 28.2589 25.6455V25.6309C28.2589 23.4849 29.8922 21.9175 32.1846 21.9175ZM32.1773 27.6816C33.3712 27.6816 34.2867 26.8174 34.2867 25.6235V25.6089C34.2867 24.4004 33.3712 23.4556 32.1993 23.4556C31.0347 23.4556 30.1046 24.3857 30.1046 25.5649V25.5796C30.1046 26.8027 30.9762 27.6816 32.1773 27.6816ZM39.4486 25.9019C38.7821 25.9019 38.284 25.3892 38.284 24.7446C38.284 24.0928 38.7821 23.5874 39.4486 23.5874C40.1224 23.5874 40.6131 24.0928 40.6131 24.7446C40.6131 25.3892 40.1224 25.9019 39.4486 25.9019ZM39.4486 31.3364C38.7821 31.3364 38.284 30.8311 38.284 30.1792C38.284 29.5273 38.7821 29.022 39.4486 29.022C40.1224 29.022 40.6131 29.5273 40.6131 30.1792C40.6131 30.8311 40.1224 31.3364 39.4486 31.3364ZM47.6207 32.75V30.7212H42.4498V29.1758C43.8195 26.7954 45.3209 24.3638 46.7565 22.1812H49.4298V29.1611H50.8507V30.7212H49.4298V32.75H47.6207ZM44.2077 29.2051H47.65V23.6899H47.5402C46.4562 25.3452 45.233 27.3008 44.2077 29.0952V29.2051ZM54.9506 32.75V24.0415H54.8261L52.1967 25.9019V24.1221L54.9579 22.1812H56.8403V32.75H54.9506Z" fill="#00157E"/>
<path d="M353 71.9292L341 83.9292" stroke="#00157E" stroke-width="2" stroke-linecap="round" stroke-linejoin="round"/>
<path d="M341 71.9292L353 83.9292" stroke="#00157E" stroke-width="2" stroke-linecap="round" stroke-linejoin="round"/>
<path d="M157.467 80.18C157.467 82.48 155.807 84.24 153.267 84.24C151.847 84.24 150.707 83.98 149.527 83.42L150.387 81.16C151.187 81.56 152.107 81.9 153.047 81.9C154.147 81.9 154.807 81.52 154.807 80.7C154.807 79.98 154.307 79.72 153.447 79.34L151.927 78.68C150.587 78.1 149.587 77.24 149.587 75.36C149.587 73.06 151.607 71.72 153.807 71.72C155.127 71.72 155.987 72 157.047 72.44L156.167 74.64C155.547 74.34 154.787 74 153.947 74C152.967 74 152.207 74.36 152.207 75.18C152.207 75.86 152.707 76.14 153.487 76.46L154.967 77.08C156.447 77.7 157.467 78.66 157.467 80.18ZM167.665 83.86L165.225 84.18L165.085 83.16H165.065C164.505 83.7 163.565 84.24 162.305 84.24C160.685 84.24 159.365 83.28 159.365 81.16V77L159.045 74.66L161.905 74.34V80.54C161.905 81.56 162.325 82.02 163.205 82.02C163.865 82.02 164.425 81.72 164.805 81.34V77L164.485 74.66L167.345 74.34V81.52L167.665 83.86ZM183.293 84H180.773V78C180.773 76.98 180.333 76.52 179.433 76.52C178.793 76.52 178.173 76.86 177.833 77.22C177.833 77.22 177.873 77.54 177.873 77.82V84H175.333V78C175.333 76.98 174.913 76.52 174.013 76.52C173.353 76.52 172.793 76.82 172.433 77.18V84H169.893V77L169.573 74.66L172.013 74.34L172.133 75.38H172.153C172.713 74.82 173.693 74.3 174.933 74.3C176.053 74.3 176.913 74.76 177.413 75.54H177.433C178.133 74.82 179.133 74.3 180.373 74.3C182.033 74.3 183.293 75.24 183.293 77.38V84ZM199.211 84H196.691V78C196.691 76.98 196.251 76.52 195.351 76.52C194.711 76.52 194.091 76.86 193.751 77.22C193.751 77.22 193.791 77.54 193.791 77.82V84H191.251V78C191.251 76.98 190.831 76.52 189.931 76.52C189.271 76.52 188.711 76.82 188.351 77.18V84H185.811V77L185.491 74.66L187.931 74.34L188.051 75.38H188.071C188.631 74.82 189.611 74.3 190.851 74.3C191.971 74.3 192.831 74.76 193.331 75.54H193.351C194.051 74.82 195.051 74.3 196.291 74.3C197.951 74.3 199.211 75.24 199.211 77.38V84ZM208.569 83.86L206.129 84.18L206.009 83.14H205.989C205.429 83.64 204.689 84.24 203.609 84.24C202.129 84.24 201.149 83.32 201.149 81.74C201.149 79.94 202.489 79.12 204.429 78.92L205.749 78.78V78.14C205.749 77.18 205.349 76.52 204.149 76.52C203.409 76.52 202.909 76.74 202.369 77.04L201.449 75.32C202.389 74.7 203.289 74.3 204.729 74.3C207.029 74.3 208.249 75.54 208.249 77.56V81.52L208.569 83.86ZM205.749 81.96V80.22L204.889 80.32C204.109 80.42 203.609 80.74 203.609 81.4C203.609 81.98 203.949 82.42 204.549 82.42C205.129 82.42 205.469 82.2 205.749 81.96ZM215.951 76.62C214.791 76.62 214.031 76.82 213.351 77.58V84H210.811V77L210.491 74.66L212.931 74.34L213.091 75.68H213.111C213.651 74.96 214.471 74.3 215.951 74.3V76.62ZM225.586 74.54L222.666 82.76C221.306 86.62 219.286 87.76 216.066 88.24L215.606 86.14C217.286 85.88 219.126 84.96 219.786 83.64L216.486 74.82L218.966 74.2L221.106 80.64H221.126L223.126 74.54H225.586Z" fill="#00157E"/>
<path d="M35 77.9292H21" stroke="#00157E" stroke-width="2" stroke-linecap="round" stroke-linejoin="round"/>
<path d="M28 84.9292L21 77.9292L28 70.9292" stroke="#00157E" stroke-width="2" stroke-linecap="round" stroke-linejoin="round"/>
<g clip-path="url(#clip1_417_80533)">
<path d="M23.154 133.86L22.006 134.182L21.11 131.27H18.366L17.512 134H16.28L19.206 125.572H20.41L23.154 133.86ZM20.858 130.43L19.766 126.79H19.752L18.618 130.43H20.858ZM33.3362 134H32.2302V129.744C32.2302 128.778 31.8662 128.288 30.9702 128.288C30.3402 128.288 29.8082 128.596 29.4582 128.946C29.4582 128.946 29.5002 129.184 29.5002 129.436V134H28.3802V129.744C28.3802 128.778 28.0162 128.288 27.1342 128.288C26.5042 128.288 26.0562 128.54 25.6502 128.918V134H24.5302V128.96L24.3342 127.518L25.4402 127.336L25.5522 128.106H25.5662C26.0562 127.63 26.7002 127.294 27.5122 127.294C28.2682 127.294 28.8982 127.63 29.2342 128.232H29.2482C29.7662 127.714 30.4382 127.294 31.3622 127.294C32.4822 127.294 33.3362 128.008 33.3362 129.352V134ZM40.7154 130.724C40.7154 132.642 39.8054 134.154 37.9154 134.154C35.8434 134.154 35.1154 132.684 35.1154 130.724C35.1154 128.806 36.0254 127.294 37.9154 127.294C39.9874 127.294 40.7154 128.764 40.7154 130.724ZM39.5674 130.752C39.5674 129.128 39.0214 128.274 37.9154 128.274C36.8374 128.274 36.2634 129.03 36.2634 130.682C36.2634 132.306 36.8094 133.174 37.9154 133.174C38.9934 133.174 39.5674 132.404 39.5674 130.752ZM47.661 133.93L46.555 134.112L46.443 133.356H46.429C45.939 133.818 45.295 134.154 44.483 134.154C43.377 134.154 42.495 133.44 42.495 132.096V128.96L42.299 127.518L43.615 127.336V131.704C43.615 132.67 43.979 133.174 44.861 133.174C45.491 133.174 45.939 132.908 46.345 132.53V128.96L46.149 127.518L47.465 127.336V132.488L47.661 133.93ZM54.6701 134H53.5501V129.744C53.5501 128.778 53.1861 128.288 52.3041 128.288C51.6741 128.288 51.2261 128.554 50.8201 128.918V134H49.7001V128.96L49.5041 127.518L50.6101 127.336L50.7221 128.106H50.7361C51.2261 127.63 51.8701 127.294 52.6821 127.294C53.7881 127.294 54.6701 128.008 54.6701 129.352V134ZM60.1538 133.734C59.7478 133.958 59.3698 134.14 58.6558 134.14C57.6478 134.14 57.0038 133.482 57.0038 132.362V128.358H56.0378V127.616L57.0038 127.42V126.328L58.1098 126.188V127.448H59.9438V128.358H58.1098V131.984C58.1098 132.866 58.3338 133.146 58.9778 133.146C59.3278 133.146 59.5938 133.006 59.7898 132.88L60.1538 133.734Z" fill="#00157E" fill-opacity="0.7"/>
<mask id="path-15-inside-1_417_80533" fill="white">
<path d="M16 146H359V186H16V146Z"/>
</mask>
<path d="M359 186V185H16V186V187H359V186Z" fill="#00157E" fill-opacity="0.2" mask="url(#path-15-inside-1_417_80533)"/>
<path d="M24.242 170.504C23.346 170.968 22.434 171.176 21.218 171.176C18.866 171.176 17.058 169.592 17.058 166.392C17.058 162.984 19.074 161.192 21.666 161.192C22.738 161.192 23.394 161.352 24.21 161.704L23.698 162.872C23.09 162.6 22.514 162.392 21.65 162.392C19.97 162.392 18.434 163.688 18.434 166.056C18.434 168.696 19.41 169.992 21.746 169.992C22.514 169.992 23.218 169.688 23.794 169.432L24.242 170.504ZM32.9389 171H31.5949V166.6H27.2589V171H25.9149V161.368H27.2589V165.464H31.5949V161.368H32.9389V171ZM40.3864 162.504H36.9304V165.64H40.0504V166.776H36.9304V171H35.6024V161.368H40.3864V162.504Z" fill="#00157E"/>
<path d="M64.9614 170.2C64.9614 174.04 61.3414 175.12 58.7614 175.32L58.5614 173.96C60.3814 173.76 63.3214 173.04 63.3214 170.42C63.3214 168.78 62.4014 167.82 59.8414 167.82H58.5014L58.9414 161.8H64.6414V163.26H60.3214L60.0614 166.62C60.0614 166.62 60.5214 166.58 60.9414 166.58C63.2614 166.58 64.9614 167.8 64.9614 170.2ZM75.0784 166.9C75.0784 169.56 74.0384 172.22 71.0184 172.22C67.9784 172.22 66.9384 169.56 66.9384 166.9C66.9384 164.24 67.9784 161.58 71.0184 161.58C74.0384 161.58 75.0784 164.24 75.0784 166.9ZM73.4384 166.9C73.4384 164.66 72.6984 162.98 71.0184 162.98C69.3184 162.98 68.5784 164.66 68.5784 166.9C68.5784 169.14 69.3184 170.82 71.0184 170.82C72.6984 170.82 73.4384 169.14 73.4384 166.9ZM85.3714 166.9C85.3714 169.56 84.3314 172.22 81.3114 172.22C78.2714 172.22 77.2314 169.56 77.2314 166.9C77.2314 164.24 78.2714 161.58 81.3114 161.58C84.3314 161.58 85.3714 164.24 85.3714 166.9ZM83.7314 166.9C83.7314 164.66 82.9914 162.98 81.3114 162.98C79.6114 162.98 78.8714 164.66 78.8714 166.9C78.8714 169.14 79.6114 170.82 81.3114 170.82C82.9914 170.82 83.7314 169.14 83.7314 166.9ZM89.8843 170.98C89.8843 171.62 89.3643 172.14 88.7443 172.14C88.1043 172.14 87.5843 171.62 87.5843 170.98C87.5843 170.36 88.1043 169.84 88.7443 169.84C89.3643 169.84 89.8843 170.36 89.8843 170.98ZM100.235 166.9C100.235 169.56 99.1946 172.22 96.1746 172.22C93.1346 172.22 92.0946 169.56 92.0946 166.9C92.0946 164.24 93.1346 161.58 96.1746 161.58C99.1946 161.58 100.235 164.24 100.235 166.9ZM98.5946 166.9C98.5946 164.66 97.8546 162.98 96.1746 162.98C94.4746 162.98 93.7346 164.66 93.7346 166.9C93.7346 169.14 94.4746 170.82 96.1746 170.82C97.8546 170.82 98.5946 169.14 98.5946 166.9ZM110.528 166.9C110.528 169.56 109.488 172.22 106.468 172.22C103.428 172.22 102.388 169.56 102.388 166.9C102.388 164.24 103.428 161.58 106.468 161.58C109.488 161.58 110.528 164.24 110.528 166.9ZM108.888 166.9C108.888 164.66 108.148 162.98 106.468 162.98C104.768 162.98 104.028 164.66 104.028 166.9C104.028 169.14 104.768 170.82 106.468 170.82C108.148 170.82 108.888 169.14 108.888 166.9Z" fill="#00157E"/>
<path d="M346.999 157L351.999 162L338.999 175H333.999V170L346.999 157Z" stroke="#00157E" stroke-width="2" stroke-linecap="round" stroke-linejoin="round"/>
<path d="M21.488 238H17.162V229.572H21.348V230.566H18.324V233.156H21.054V234.136H18.324V237.006H21.488V238ZM27.7413 237.706L26.7893 238.238L24.9693 235.438H24.9553L23.3173 238H22.1413L24.4233 234.598L22.4633 231.742L23.4013 231.21L25.0253 233.674H25.0393L26.4393 231.448H27.6293L25.5573 234.5L27.7413 237.706ZM33.4962 237.65C32.8662 238 32.2222 238.154 31.4242 238.154C29.4922 238.154 28.4982 236.852 28.4982 234.682C28.4982 232.652 29.5622 231.294 31.2142 231.294C32.7962 231.294 33.4402 232.344 33.4402 233.786V234.57H29.5902C29.6042 236.32 30.2342 237.16 31.6622 237.16C32.2082 237.16 32.6282 237.006 33.1042 236.768L33.4962 237.65ZM32.3902 233.786C32.3902 232.806 32.0262 232.19 31.1582 232.19C30.3182 232.19 29.7862 232.848 29.6462 233.786H32.3902ZM39.3949 231.574L39.0449 232.582C38.6809 232.442 38.2749 232.316 37.8129 232.316C36.5809 232.316 35.8389 233.24 35.8389 234.626C35.8389 236.376 36.5249 237.174 37.7849 237.174C38.2329 237.174 38.5969 237.02 38.9609 236.866L39.3389 237.776C38.7929 238.028 38.1909 238.154 37.5609 238.154C35.6849 238.154 34.7189 236.81 34.7189 234.808C34.7189 232.4 36.2029 231.294 37.8689 231.294C38.4429 231.294 38.9329 231.392 39.3949 231.574ZM46.1024 237.93L44.9964 238.112L44.8844 237.356H44.8704C44.3804 237.818 43.7364 238.154 42.9244 238.154C41.8184 238.154 40.9364 237.44 40.9364 236.096V232.96L40.7404 231.518L42.0564 231.336V235.704C42.0564 236.67 42.4204 237.174 43.3024 237.174C43.9324 237.174 44.3804 236.908 44.7864 236.53V232.96L44.5904 231.518L45.9064 231.336V236.488L46.1024 237.93ZM51.4175 237.734C51.0115 237.958 50.6335 238.14 49.9195 238.14C48.9115 238.14 48.2675 237.482 48.2675 236.362V232.358H47.3015V231.616L48.2675 231.42V230.328L49.3735 230.188V231.448H51.2075V232.358H49.3735V235.984C49.3735 236.866 49.5975 237.146 50.2415 237.146C50.5915 237.146 50.8575 237.006 51.0535 236.88L51.4175 237.734ZM57.2716 237.65C56.6416 238 55.9976 238.154 55.1996 238.154C53.2676 238.154 52.2736 236.852 52.2736 234.682C52.2736 232.652 53.3376 231.294 54.9896 231.294C56.5716 231.294 57.2156 232.344 57.2156 233.786V234.57H53.3656C53.3796 236.32 54.0096 237.16 55.4376 237.16C55.9836 237.16 56.4036 237.006 56.8796 236.768L57.2716 237.65ZM56.1656 233.786C56.1656 232.806 55.8016 232.19 54.9336 232.19C54.0936 232.19 53.5616 232.848 53.4216 233.786H56.1656ZM67.0337 234.724C67.0337 236.642 66.1237 238.154 64.2337 238.154C62.1617 238.154 61.4337 236.684 61.4337 234.724C61.4337 232.806 62.3437 231.294 64.2337 231.294C66.3057 231.294 67.0337 232.764 67.0337 234.724ZM65.8857 234.752C65.8857 233.128 65.3397 232.274 64.2337 232.274C63.1557 232.274 62.5817 233.03 62.5817 234.682C62.5817 236.306 63.1277 237.174 64.2337 237.174C65.3117 237.174 65.8857 236.404 65.8857 234.752ZM73.7834 238H72.6634V233.744C72.6634 232.778 72.2994 232.288 71.4174 232.288C70.7874 232.288 70.3394 232.554 69.9334 232.918V238H68.8134V232.96L68.6174 231.518L69.7234 231.336L69.8354 232.106H69.8494C70.3394 231.63 70.9834 231.294 71.7954 231.294C72.9014 231.294 73.7834 232.008 73.7834 233.352V238Z" fill="#00157E" fill-opacity="0.7"/>
<mask id="path-22-inside-2_417_80533" fill="white">
<path d="M16 250H359V290H16V250Z"/>
</mask>
<path d="M359 290V289H16V290V291H359V290Z" fill="#00157E" fill-opacity="0.2" mask="url(#path-22-inside-2_417_80533)"/>
<path d="M22.3343 274.36C22.3343 276.28 21.1023 277.496 18.9903 277.496C18.3663 277.496 17.7103 277.384 17.1183 277.24L17.4063 276.04C17.9343 276.2 18.3823 276.328 19.0223 276.328C20.2863 276.328 21.0543 275.704 21.0543 274.552C21.0543 272.984 19.6143 272.376 17.5823 272.376V271.464C19.9503 271.32 20.6063 270.264 20.6063 269.224C20.6063 268.312 20.0463 267.8 19.1503 267.8C18.4143 267.8 17.9823 268.04 17.5023 268.36L16.9743 267.48C17.5503 267.032 18.2863 266.664 19.4063 266.664C20.9423 266.664 21.8863 267.576 21.8863 269.064C21.8863 270.36 21.1343 271.224 20.0623 271.736V271.752C21.6303 272.088 22.3343 273.128 22.3343 274.36ZM26.368 275H25.104V267.928L23.696 268.12L23.552 267.144L26.368 266.696V275ZM30.4014 274.184C30.4014 274.696 29.9854 275.112 29.4894 275.112C28.9774 275.112 28.5614 274.696 28.5614 274.184C28.5614 273.688 28.9774 273.272 29.4894 273.272C29.9854 273.272 30.4014 273.688 30.4014 274.184ZM38.6817 270.92C38.6817 273.048 37.8497 275.176 35.4337 275.176C33.0017 275.176 32.1697 273.048 32.1697 270.92C32.1697 268.792 33.0017 266.664 35.4337 266.664C37.8497 266.664 38.6817 268.792 38.6817 270.92ZM37.3697 270.92C37.3697 269.128 36.7777 267.784 35.4337 267.784C34.0737 267.784 33.4817 269.128 33.4817 270.92C33.4817 272.712 34.0737 274.056 35.4337 274.056C36.7777 274.056 37.3697 272.712 37.3697 270.92ZM45.588 273.56C45.588 276.632 42.692 277.496 40.628 277.656L40.468 276.568C41.924 276.408 44.276 275.832 44.276 273.736C44.276 272.424 43.54 271.656 41.492 271.656H40.42L40.772 266.84H45.332V268.008H41.876L41.668 270.696C41.668 270.696 42.036 270.664 42.372 270.664C44.228 270.664 45.588 271.64 45.588 273.56ZM49.0577 274.184C49.0577 274.696 48.6417 275.112 48.1457 275.112C47.6337 275.112 47.2177 274.696 47.2177 274.184C47.2177 273.688 47.6337 273.272 48.1457 273.272C48.6417 273.272 49.0577 273.688 49.0577 274.184ZM56.5379 275H50.6019V274.168L53.3379 271.544C54.0739 270.824 54.6339 270.296 54.6339 269.416C54.6339 268.488 54.0579 267.8 52.9859 267.8C52.2659 267.8 51.7539 268.12 51.3699 268.44L50.7619 267.592C51.4499 267.016 52.1539 266.664 53.2579 266.664C54.8419 266.664 55.9299 267.592 55.9299 269.272C55.9299 270.392 55.2579 271.24 54.4899 271.944L52.4419 273.832V273.848H56.5379V275ZM64.4004 270.92C64.4004 273.048 63.5684 275.176 61.1524 275.176C58.7204 275.176 57.8884 273.048 57.8884 270.92C57.8884 268.792 58.7204 266.664 61.1524 266.664C63.5684 266.664 64.4004 268.792 64.4004 270.92ZM63.0884 270.92C63.0884 269.128 62.4964 267.784 61.1524 267.784C59.7924 267.784 59.2004 269.128 59.2004 270.92C59.2004 272.712 59.7924 274.056 61.1524 274.056C62.4964 274.056 63.0884 272.712 63.0884 270.92ZM71.6473 275H65.7113V274.168L68.4473 271.544C69.1833 270.824 69.7433 270.296 69.7433 269.416C69.7433 268.488 69.1673 267.8 68.0953 267.8C67.3753 267.8 66.8633 268.12 66.4793 268.44L65.8713 267.592C66.5593 267.016 67.2633 266.664 68.3673 266.664C69.9513 266.664 71.0393 267.592 71.0393 269.272C71.0393 270.392 70.3673 271.24 69.5993 271.944L67.5513 273.832V273.848H71.6473V275ZM78.9018 272.072C78.9018 273.96 77.7818 275.176 75.9738 275.176C73.9258 275.176 73.0618 273.656 73.0618 271.4C73.0618 267.048 75.6218 265.256 78.4058 265.032L78.5658 266.088C76.6458 266.296 74.7258 267.336 74.3578 270.008L74.3738 270.024C74.3738 270.024 75.1898 269.32 76.2938 269.32C77.9738 269.32 78.9018 270.392 78.9018 272.072ZM77.6378 272.328C77.6378 270.968 77.1098 270.392 75.9418 270.392C75.0298 270.392 74.3578 271.032 74.3578 271.032V271.336C74.3578 273.128 74.8218 274.12 76.0858 274.12C77.1418 274.12 77.6378 273.368 77.6378 272.328Z" fill="#00157E"/>
<path d="M346.999 261L351.999 266L338.999 279H333.999V274L346.999 261Z" stroke="#00157E" stroke-width="2" stroke-linecap="round" stroke-linejoin="round"/>
<path d="M22.552 341.734L21.516 342.238L19.15 338.402C18.94 338.43 18.744 338.444 18.534 338.444H18.324V342H17.162V333.642C17.162 333.642 18.226 333.488 19.318 333.488C20.942 333.488 21.964 334.272 21.964 335.602C21.964 336.89 21.222 337.688 20.228 338.08L22.552 341.734ZM20.83 335.812C20.83 334.804 20.13 334.37 19.122 334.37C18.674 334.37 18.324 334.412 18.324 334.412V337.59H18.506C19.64 337.59 20.83 337.114 20.83 335.812ZM28.4513 341.65C27.8213 342 27.1773 342.154 26.3792 342.154C24.4473 342.154 23.4533 340.852 23.4533 338.682C23.4533 336.652 24.5173 335.294 26.1693 335.294C27.7513 335.294 28.3953 336.344 28.3953 337.786V338.57H24.5453C24.5593 340.32 25.1893 341.16 26.6173 341.16C27.1633 341.16 27.5833 341.006 28.0593 340.768L28.4513 341.65ZM27.3453 337.786C27.3453 336.806 26.9813 336.19 26.1133 336.19C25.2733 336.19 24.7413 336.848 24.6013 337.786H27.3453ZM34.35 335.574L34 336.582C33.636 336.442 33.23 336.316 32.768 336.316C31.536 336.316 30.794 337.24 30.794 338.626C30.794 340.376 31.48 341.174 32.74 341.174C33.188 341.174 33.552 341.02 33.916 340.866L34.294 341.776C33.748 342.028 33.146 342.154 32.516 342.154C30.64 342.154 29.674 340.81 29.674 338.808C29.674 336.4 31.158 335.294 32.824 335.294C33.398 335.294 33.888 335.392 34.35 335.574ZM37.0395 342H35.9195V336.96L35.7235 335.518L37.0395 335.336V342ZM37.2635 333.74C37.2635 334.188 36.9135 334.524 36.4935 334.524C36.0595 334.524 35.6955 334.188 35.6955 333.74C35.6955 333.292 36.0595 332.942 36.4935 332.942C36.9135 332.942 37.2635 333.292 37.2635 333.74ZM44.4341 338.402C44.4341 340.53 43.5101 342.07 41.3261 342.07C40.9621 342.07 40.6681 342.042 40.4021 341.972V344.772L39.2821 344.954V336.96L39.0861 335.518L40.1921 335.336L40.2901 336.008H40.3041C40.7381 335.644 41.3121 335.294 42.0681 335.294C43.6641 335.294 44.4341 336.498 44.4341 338.402ZM43.3141 338.724C43.3141 337.296 42.9921 336.302 41.6901 336.302C41.1301 336.302 40.7241 336.54 40.4021 336.806V340.936C40.6681 341.048 40.9761 341.118 41.4101 341.118C42.6281 341.118 43.3141 340.166 43.3141 338.724ZM47.3618 342H46.2418V336.96L46.0458 335.518L47.3618 335.336V342ZM47.5858 333.74C47.5858 334.188 47.2358 334.524 46.8158 334.524C46.3818 334.524 46.0177 334.188 46.0177 333.74C46.0177 333.292 46.3818 332.942 46.8158 332.942C47.2358 332.942 47.5858 333.292 47.5858 333.74ZM54.1544 341.65C53.5244 342 52.8804 342.154 52.0824 342.154C50.1504 342.154 49.1564 340.852 49.1564 338.682C49.1564 336.652 50.2204 335.294 51.8724 335.294C53.4544 335.294 54.0984 336.344 54.0984 337.786V338.57H50.2484C50.2624 340.32 50.8924 341.16 52.3204 341.16C52.8664 341.16 53.2864 341.006 53.7624 340.768L54.1544 341.65ZM53.0484 337.786C53.0484 336.806 52.6844 336.19 51.8164 336.19C50.9764 336.19 50.4444 336.848 50.3044 337.786H53.0484ZM60.7951 342H59.6751V337.744C59.6751 336.778 59.3111 336.288 58.4291 336.288C57.7991 336.288 57.3511 336.554 56.9451 336.918V342H55.8251V336.96L55.6291 335.518L56.7351 335.336L56.8471 336.106H56.8611C57.3511 335.63 57.9951 335.294 58.8071 335.294C59.9131 335.294 60.7951 336.008 60.7951 337.352V342ZM66.2788 341.734C65.8728 341.958 65.4948 342.14 64.7808 342.14C63.7728 342.14 63.1288 341.482 63.1288 340.362V336.358H62.1628V335.616L63.1288 335.42V334.328L64.2348 334.188V335.448H66.0688V336.358H64.2348V339.984C64.2348 340.866 64.4588 341.146 65.1028 341.146C65.4528 341.146 65.7188 341.006 65.9148 340.88L66.2788 341.734Z" fill="#00157E" fill-opacity="0.7"/>
<mask id="path-28-inside-3_417_80533" fill="white">
<path d="M16 354H359V394H16V354Z"/>
</mask>
<path d="M359 394V393H16V394V395H359V394Z" fill="#00157E" fill-opacity="0.2" mask="url(#path-28-inside-3_417_80533)"/>
<path d="M24.8217 379H23.4777V374.6H19.1417V379H17.7977V369.368H19.1417V373.464H23.4777V369.368H24.8217V379ZM32.3492 378.92L31.0692 379.128L30.9572 378.248H30.9412C30.3972 378.76 29.8052 379.192 28.9092 379.192C27.6612 379.192 26.9252 378.44 26.9252 377.256C26.9252 375.912 27.9812 375.256 29.5012 375.096L30.8452 374.952V374.28C30.8452 373.24 30.5252 372.504 29.2932 372.504C28.6692 372.504 28.2052 372.696 27.7412 372.936L27.2772 371.992C27.9492 371.592 28.6372 371.336 29.5972 371.336C31.1012 371.336 32.1092 372.216 32.1092 373.704V377.272L32.3492 378.92ZM30.8452 377.448V375.816L29.6772 375.976C28.7172 376.104 28.1892 376.408 28.1892 377.096C28.1892 377.72 28.5732 378.136 29.2132 378.136C29.9652 378.136 30.4292 377.816 30.8452 377.448ZM40.3672 379H39.0872V374.136C39.0872 373.032 38.6712 372.472 37.6632 372.472C36.9432 372.472 36.4312 372.776 35.9672 373.192V379H34.6872V373.24L34.4632 371.592L35.7272 371.384L35.8552 372.264H35.8712C36.4312 371.72 37.1672 371.336 38.0952 371.336C39.3592 371.336 40.3672 372.152 40.3672 373.688V379ZM47.2264 376.824C47.2264 378.184 46.1544 379.16 44.5544 379.16C43.7864 379.16 43.0184 379.048 42.4104 378.76L42.7944 377.64C43.3224 377.88 43.9144 378.072 44.4904 378.072C45.3544 378.072 45.9304 377.736 45.9304 377.032C45.9304 376.488 45.6424 376.264 45.1464 376.04L43.7544 375.4C43.2584 375.176 42.3624 374.728 42.3624 373.432C42.3624 372.008 43.6104 371.336 44.9704 371.336C45.7864 371.336 46.3624 371.464 47.0024 371.736L46.5704 372.84C46.0584 372.616 45.5624 372.456 44.9544 372.456C44.1384 372.456 43.6104 372.712 43.6104 373.352C43.6104 373.912 44.0904 374.136 44.3944 374.28L45.8184 374.952C46.8104 375.416 47.2264 376.008 47.2264 376.824ZM62.4811 378.968L61.2011 379.064L60.9291 371.608H60.9131L58.0811 379H56.6891L54.0171 371.624H54.0011L53.6171 379H52.4491L53.0731 369.368H54.4811L57.5051 377.4H57.5211L60.5771 369.368H61.9691L62.4811 378.968ZM70.0591 378.6C69.3391 379 68.6031 379.176 67.6911 379.176C65.4831 379.176 64.3471 377.688 64.3471 375.208C64.3471 372.888 65.5631 371.336 67.4511 371.336C69.2591 371.336 69.9951 372.536 69.9951 374.184V375.08H65.5951C65.6111 377.08 66.3311 378.04 67.9631 378.04C68.5871 378.04 69.0671 377.864 69.6111 377.592L70.0591 378.6ZM68.7951 374.184C68.7951 373.064 68.3791 372.36 67.3871 372.36C66.4271 372.36 65.8191 373.112 65.6591 374.184H68.7951ZM77.3925 371.512L74.8965 378.312C74.0965 380.52 73.0245 381.848 70.4165 382.376L70.1765 381.336C72.0805 380.952 73.0885 379.8 73.5845 378.552L70.8965 371.624L72.1605 371.288L74.2245 376.856H74.2405L76.1285 371.512H77.3925ZM83.981 378.6C83.261 379 82.525 379.176 81.613 379.176C79.405 379.176 78.269 377.688 78.269 375.208C78.269 372.888 79.485 371.336 81.373 371.336C83.181 371.336 83.917 372.536 83.917 374.184V375.08H79.517C79.533 377.08 80.253 378.04 81.885 378.04C82.509 378.04 82.989 377.864 83.533 377.592L83.981 378.6ZM82.717 374.184C82.717 373.064 82.301 372.36 81.309 372.36C80.349 372.36 79.741 373.112 79.581 374.184H82.717ZM89.2504 372.616C88.3864 372.616 87.7464 372.84 87.1704 373.368V379H85.8904V373.24L85.6664 371.592L86.9304 371.384L87.0584 372.408H87.0744C87.5864 371.832 88.2584 371.352 89.2504 371.352V372.616Z" fill="#00157E"/>
<path d="M346.999 365L351.999 370L338.999 383H333.999V378L346.999 365Z" stroke="#00157E" stroke-width="2" stroke-linecap="round" stroke-linejoin="round"/>
<path d="M23.77 441.254C23.77 444.334 21.922 446 18.926 446H17.162V437.628C17.162 437.628 18.324 437.488 19.57 437.488C22.174 437.488 23.77 438.846 23.77 441.254ZM22.552 441.422C22.552 439.434 21.208 438.482 19.374 438.482C18.786 438.482 18.338 438.51 18.338 438.51V444.95H19.15C21.152 444.95 22.552 443.76 22.552 441.422ZM30.1055 445.65C29.4755 446 28.8315 446.154 28.0335 446.154C26.1015 446.154 25.1075 444.852 25.1075 442.682C25.1075 440.652 26.1715 439.294 27.8235 439.294C29.4055 439.294 30.0495 440.344 30.0495 441.786V442.57H26.1995C26.2135 444.32 26.8435 445.16 28.2715 445.16C28.8175 445.16 29.2375 445.006 29.7135 444.768L30.1055 445.65ZM28.9995 441.786C28.9995 440.806 28.6355 440.19 27.7675 440.19C26.9275 440.19 26.3955 440.848 26.2555 441.786H28.9995ZM36.9563 442.332C36.9563 444.516 35.8223 446.14 33.7503 446.14C33.0223 446.14 32.2243 446.014 31.7483 445.832V438.062L31.5523 436.62L32.8683 436.438V439.952H32.8823C33.3023 439.602 33.8623 439.294 34.6043 439.294C36.1443 439.294 36.9563 440.4 36.9563 442.332ZM35.8223 442.738C35.8223 441.296 35.4863 440.316 34.2123 440.316C33.6243 440.316 33.2043 440.554 32.8683 440.848V445.062C33.1483 445.132 33.4283 445.174 33.8483 445.174C35.1503 445.174 35.8223 444.068 35.8223 442.738ZM39.8969 446H38.7769V440.96L38.5809 439.518L39.8969 439.336V446ZM40.1209 437.74C40.1209 438.188 39.7709 438.524 39.3509 438.524C38.9169 438.524 38.5529 438.188 38.5529 437.74C38.5529 437.292 38.9169 436.942 39.3509 436.942C39.7709 436.942 40.1209 437.292 40.1209 437.74ZM45.4155 445.734C45.0095 445.958 44.6315 446.14 43.9175 446.14C42.9095 446.14 42.2655 445.482 42.2655 444.362V440.358H41.2995V439.616L42.2655 439.42V438.328L43.3715 438.188V439.448H45.2055V440.358H43.3715V443.984C43.3715 444.866 43.5955 445.146 44.2395 445.146C44.5895 445.146 44.8555 445.006 45.0515 444.88L45.4155 445.734ZM54.1485 445.93L53.0285 446.112L52.9305 445.342H52.9165C52.4405 445.79 51.9225 446.168 51.1385 446.168C50.0465 446.168 49.4025 445.51 49.4025 444.474C49.4025 443.298 50.3265 442.724 51.6565 442.584L52.8325 442.458V441.87C52.8325 440.96 52.5525 440.316 51.4745 440.316C50.9285 440.316 50.5225 440.484 50.1165 440.694L49.7105 439.868C50.2985 439.518 50.9005 439.294 51.7405 439.294C53.0565 439.294 53.9385 440.064 53.9385 441.366V444.488L54.1485 445.93ZM52.8325 444.642V443.214L51.8105 443.354C50.9705 443.466 50.5085 443.732 50.5085 444.334C50.5085 444.88 50.8445 445.244 51.4045 445.244C52.0625 445.244 52.4685 444.964 52.8325 444.642ZM60.4222 439.574L60.0722 440.582C59.7082 440.442 59.3022 440.316 58.8402 440.316C57.6082 440.316 56.8662 441.24 56.8662 442.626C56.8662 444.376 57.5522 445.174 58.8122 445.174C59.2602 445.174 59.6242 445.02 59.9882 444.866L60.3662 445.776C59.8202 446.028 59.2182 446.154 58.5882 446.154C56.7122 446.154 55.7462 444.81 55.7462 442.808C55.7462 440.4 57.2302 439.294 58.8962 439.294C59.4702 439.294 59.9602 439.392 60.4222 439.574ZM65.9457 439.574L65.5957 440.582C65.2317 440.442 64.8257 440.316 64.3637 440.316C63.1317 440.316 62.3897 441.24 62.3897 442.626C62.3897 444.376 63.0757 445.174 64.3357 445.174C64.7837 445.174 65.1477 445.02 65.5117 444.866L65.8897 445.776C65.3437 446.028 64.7417 446.154 64.1117 446.154C62.2357 446.154 61.2697 444.81 61.2697 442.808C61.2697 440.4 62.7537 439.294 64.4197 439.294C64.9937 439.294 65.4837 439.392 65.9457 439.574ZM72.3931 442.724C72.3931 444.642 71.4831 446.154 69.5931 446.154C67.5211 446.154 66.7931 444.684 66.7931 442.724C66.7931 440.806 67.7031 439.294 69.5931 439.294C71.6651 439.294 72.3931 440.764 72.3931 442.724ZM71.2451 442.752C71.2451 441.128 70.6991 440.274 69.5931 440.274C68.5151 440.274 67.9411 441.03 67.9411 442.682C67.9411 444.306 68.4871 445.174 69.5931 445.174C70.6711 445.174 71.2451 444.404 71.2451 442.752ZM79.3387 445.93L78.2327 446.112L78.1207 445.356H78.1067C77.6167 445.818 76.9727 446.154 76.1607 446.154C75.0547 446.154 74.1727 445.44 74.1727 444.096V440.96L73.9767 439.518L75.2927 439.336V443.704C75.2927 444.67 75.6567 445.174 76.5387 445.174C77.1687 445.174 77.6167 444.908 78.0227 444.53V440.96L77.8267 439.518L79.1427 439.336V444.488L79.3387 445.93ZM86.3478 446H85.2278V441.744C85.2278 440.778 84.8638 440.288 83.9818 440.288C83.3518 440.288 82.9038 440.554 82.4978 440.918V446H81.3778V440.96L81.1818 439.518L82.2878 439.336L82.3998 440.106H82.4138C82.9038 439.63 83.5478 439.294 84.3598 439.294C85.4658 439.294 86.3478 440.008 86.3478 441.352V446ZM91.8315 445.734C91.4255 445.958 91.0475 446.14 90.3335 446.14C89.3255 446.14 88.6815 445.482 88.6815 444.362V440.358H87.7155V439.616L88.6815 439.42V438.328L89.7875 438.188V439.448H91.6215V440.358H89.7875V443.984C89.7875 444.866 90.0115 445.146 90.6555 445.146C91.0055 445.146 91.2715 445.006 91.4675 444.88L91.8315 445.734Z" fill="#00157E" fill-opacity="0.7"/>
<path d="M24 458.5H351C355.142 458.5 358.5 461.858 358.5 466V518C358.5 522.142 355.142 525.5 351 525.5H24C19.8579 525.5 16.5 522.142 16.5 518V466C16.5 461.858 19.8579 458.5 24 458.5Z" fill="white"/>
<path d="M24 458.5H351C355.142 458.5 358.5 461.858 358.5 466V518C358.5 522.142 355.142 525.5 351 525.5H24C19.8579 525.5 16.5 522.142 16.5 518V466C16.5 461.858 19.8579 458.5 24 458.5Z" stroke="#00157E"/>
<path d="M35 483L44 476L53 483V494C53 494.53 52.7893 495.039 52.4142 495.414C52.0391 495.789 51.5304 496 51 496H37C36.4696 496 35.9609 495.789 35.5858 495.414C35.2107 495.039 35 494.53 35 494V483Z" stroke="#00157E" stroke-width="2" stroke-linecap="round" stroke-linejoin="round"/>
<path d="M41 496V486H47V496" stroke="#00157E" stroke-width="2" stroke-linecap="round" stroke-linejoin="round"/>
<path d="M79.616 482H77.74V478.5H74.856V482H72.966V473.572H74.856V476.96H77.74V473.572H79.616V482ZM87.0399 478.668C87.0399 480.656 86.0039 482.154 84.0579 482.154C81.9579 482.154 81.0759 480.67 81.0759 478.668C81.0759 476.68 82.1119 475.224 84.0579 475.224C86.1579 475.224 87.0399 476.666 87.0399 478.668ZM85.2759 478.682C85.2759 477.324 84.8279 476.778 84.0579 476.778C83.2879 476.778 82.8399 477.296 82.8399 478.654C82.8399 479.998 83.2879 480.6 84.0579 480.6C84.8279 480.6 85.2759 480.026 85.2759 478.682ZM94.2373 481.902L92.5293 482.126L92.4313 481.412H92.4173C92.0253 481.79 91.3673 482.168 90.4853 482.168C89.3513 482.168 88.4273 481.496 88.4273 480.012V477.1L88.2033 475.462L90.2053 475.238V479.578C90.2053 480.292 90.4993 480.614 91.1153 480.614C91.5773 480.614 91.9693 480.404 92.2353 480.138V477.1L92.0113 475.462L94.0133 475.238V480.264L94.2373 481.902ZM100.01 479.872C100.01 481.146 98.9884 482.154 97.4484 482.154C96.6504 482.154 95.9364 482.028 95.3344 481.748L95.7964 480.292C96.3004 480.502 96.7904 480.712 97.3504 480.712C97.9524 480.712 98.2464 480.502 98.2464 480.152C98.2464 479.83 98.0924 479.704 97.7284 479.55L96.6924 479.116C96.0764 478.864 95.4044 478.402 95.4044 477.31C95.4044 475.938 96.5664 475.21 97.9524 475.21C98.7364 475.21 99.2684 475.336 99.8984 475.602L99.3524 477.03C98.9044 476.848 98.4704 476.666 97.9664 476.666C97.4204 476.666 97.1124 476.82 97.1124 477.184C97.1124 477.534 97.3924 477.66 97.6444 477.758L98.7224 478.192C99.5624 478.528 100.01 479.06 100.01 479.872ZM106.469 481.608C105.727 481.986 105.111 482.168 104.215 482.168C102.003 482.168 101.023 480.824 101.023 478.584C101.023 476.582 102.213 475.224 103.977 475.224C105.825 475.224 106.427 476.498 106.427 478.094V478.878H102.759C102.815 480.054 103.375 480.614 104.439 480.614C105.069 480.614 105.419 480.46 105.923 480.25L106.469 481.608ZM104.873 477.8C104.873 477.114 104.579 476.652 103.921 476.652C103.221 476.652 102.871 477.184 102.787 477.8H104.873ZM113.344 482H111.566V477.8C111.566 477.142 111.286 476.778 110.628 476.778C110.082 476.778 109.69 477.1 109.55 477.226V482H107.772V474.286L107.548 472.648L109.55 472.424V475.826H109.564C109.732 475.672 110.334 475.21 111.3 475.21C112.476 475.21 113.344 475.882 113.344 477.366V482ZM120.673 478.668C120.673 480.656 119.637 482.154 117.691 482.154C115.591 482.154 114.709 480.67 114.709 478.668C114.709 476.68 115.745 475.224 117.691 475.224C119.791 475.224 120.673 476.666 120.673 478.668ZM118.909 478.682C118.909 477.324 118.461 476.778 117.691 476.778C116.921 476.778 116.473 477.296 116.473 478.654C116.473 479.998 116.921 480.6 117.691 480.6C118.461 480.6 118.909 480.026 118.909 478.682ZM123.81 482H122.032V474.272L121.808 472.648L123.81 472.424V482ZM131.048 481.916L129.354 482.126L129.256 481.44H129.242C129.074 481.58 128.528 482.168 127.632 482.168C125.98 482.168 125.154 480.768 125.154 478.92C125.154 476.54 126.512 475.322 128.43 475.322C128.78 475.322 129.046 475.378 129.046 475.378V474.286L128.822 472.648L130.824 472.424V480.278L131.048 481.916ZM128.178 480.586C128.598 480.586 128.92 480.404 129.046 480.292V476.904C129.046 476.904 128.808 476.792 128.374 476.792C127.52 476.792 126.946 477.464 126.946 478.654C126.946 479.984 127.296 480.586 128.178 480.586Z" fill="#00157E"/>
<path d="M78.958 497.566C78.174 497.972 77.376 498.154 76.312 498.154C74.254 498.154 72.672 496.768 72.672 493.968C72.672 490.986 74.436 489.418 76.704 489.418C77.642 489.418 78.216 489.558 78.93 489.866L78.482 490.888C77.95 490.65 77.446 490.468 76.69 490.468C75.22 490.468 73.876 491.602 73.876 493.674C73.876 495.984 74.73 497.118 76.774 497.118C77.446 497.118 78.062 496.852 78.566 496.628L78.958 497.566ZM86.5678 498H85.3918V494.15H81.5978V498H80.4218V489.572H81.5978V493.156H85.3918V489.572H86.5678V498ZM92.8883 497.44C92.8883 499.12 91.8103 500.184 89.9623 500.184C89.4163 500.184 88.8423 500.086 88.3243 499.96L88.5763 498.91C89.0383 499.05 89.4303 499.162 89.9903 499.162C91.0963 499.162 91.7683 498.616 91.7683 497.608C91.7683 496.236 90.5083 495.704 88.7303 495.704V494.906C90.8023 494.78 91.3763 493.856 91.3763 492.946C91.3763 492.148 90.8863 491.7 90.1023 491.7C89.4583 491.7 89.0803 491.91 88.6603 492.19L88.1983 491.42C88.7023 491.028 89.3463 490.706 90.3263 490.706C91.6703 490.706 92.4963 491.504 92.4963 492.806C92.4963 493.94 91.8383 494.696 90.9003 495.144V495.158C92.2723 495.452 92.8883 496.362 92.8883 497.44ZM98.7979 496.74C98.7979 499.428 96.2639 500.184 94.4579 500.324L94.3179 499.372C95.5919 499.232 97.6499 498.728 97.6499 496.894C97.6499 495.746 97.0059 495.074 95.2139 495.074H94.2759L94.5839 490.86H98.5739V491.882H95.5499L95.3679 494.234C95.3679 494.234 95.6899 494.206 95.9839 494.206C97.6079 494.206 98.7979 495.06 98.7979 496.74ZM108.819 494.43C108.819 496.292 108.091 498.154 105.977 498.154C103.849 498.154 103.121 496.292 103.121 494.43C103.121 492.568 103.849 490.706 105.977 490.706C108.091 490.706 108.819 492.568 108.819 494.43ZM107.671 494.43C107.671 492.862 107.153 491.686 105.977 491.686C104.787 491.686 104.269 492.862 104.269 494.43C104.269 495.998 104.787 497.174 105.977 497.174C107.153 497.174 107.671 495.998 107.671 494.43ZM115.31 494.318C115.31 498.182 113.35 499.988 110.564 500.324L110.34 499.414C112.104 499.204 113.882 498.07 114.134 495.396L114.12 495.382C114.12 495.382 113.462 495.942 112.468 495.942C111.068 495.942 110.158 494.892 110.158 493.45C110.158 491.7 111.208 490.706 112.79 490.706C114.414 490.706 115.31 491.826 115.31 494.318ZM114.148 494.304C114.148 492.918 113.896 491.658 112.65 491.658C111.768 491.658 111.25 492.386 111.25 493.296C111.25 494.458 111.782 495.018 112.776 495.018C113.63 495.018 114.148 494.514 114.148 494.514V494.304ZM122.573 494.43C122.573 496.292 121.845 498.154 119.731 498.154C117.603 498.154 116.875 496.292 116.875 494.43C116.875 492.568 117.603 490.706 119.731 490.706C121.845 490.706 122.573 492.568 122.573 494.43ZM121.425 494.43C121.425 492.862 120.907 491.686 119.731 491.686C118.541 491.686 118.023 492.862 118.023 494.43C118.023 495.998 118.541 497.174 119.731 497.174C120.907 497.174 121.425 495.998 121.425 494.43ZM129.778 494.43C129.778 496.292 129.05 498.154 126.936 498.154C124.808 498.154 124.08 496.292 124.08 494.43C124.08 492.568 124.808 490.706 126.936 490.706C129.05 490.706 129.778 492.568 129.778 494.43ZM128.63 494.43C128.63 492.862 128.112 491.686 126.936 491.686C125.746 491.686 125.228 492.862 125.228 494.43C125.228 495.998 125.746 497.174 126.936 497.174C128.112 497.174 128.63 495.998 128.63 494.43ZM139.923 494.43C139.923 496.292 139.195 498.154 137.081 498.154C134.953 498.154 134.225 496.292 134.225 494.43C134.225 492.568 134.953 490.706 137.081 490.706C139.195 490.706 139.923 492.568 139.923 494.43ZM138.775 494.43C138.775 492.862 138.257 491.686 137.081 491.686C135.891 491.686 135.373 492.862 135.373 494.43C135.373 495.998 135.891 497.174 137.081 497.174C138.257 497.174 138.775 495.998 138.775 494.43ZM147.128 494.43C147.128 496.292 146.4 498.154 144.286 498.154C142.158 498.154 141.43 496.292 141.43 494.43C141.43 492.568 142.158 490.706 144.286 490.706C146.4 490.706 147.128 492.568 147.128 494.43ZM145.98 494.43C145.98 492.862 145.462 491.686 144.286 491.686C143.096 491.686 142.578 492.862 142.578 494.43C142.578 495.998 143.096 497.174 144.286 497.174C145.462 497.174 145.98 495.998 145.98 494.43ZM154.333 494.43C154.333 496.292 153.605 498.154 151.491 498.154C149.363 498.154 148.635 496.292 148.635 494.43C148.635 492.568 149.363 490.706 151.491 490.706C153.605 490.706 154.333 492.568 154.333 494.43ZM153.185 494.43C153.185 492.862 152.667 491.686 151.491 491.686C150.301 491.686 149.783 492.862 149.783 494.43C149.783 495.998 150.301 497.174 151.491 497.174C152.667 497.174 153.185 495.998 153.185 494.43ZM161.538 494.43C161.538 496.292 160.81 498.154 158.696 498.154C156.568 498.154 155.84 496.292 155.84 494.43C155.84 492.568 156.568 490.706 158.696 490.706C160.81 490.706 161.538 492.568 161.538 494.43ZM160.39 494.43C160.39 492.862 159.872 491.686 158.696 491.686C157.506 491.686 156.988 492.862 156.988 494.43C156.988 495.998 157.506 497.174 158.696 497.174C159.872 497.174 160.39 495.998 160.39 494.43ZM170.983 498H165.789V497.272L168.183 494.976C168.827 494.346 169.317 493.884 169.317 493.114C169.317 492.302 168.813 491.7 167.875 491.7C167.245 491.7 166.797 491.98 166.461 492.26L165.929 491.518C166.531 491.014 167.147 490.706 168.113 490.706C169.499 490.706 170.451 491.518 170.451 492.988C170.451 493.968 169.863 494.71 169.191 495.326L167.399 496.978V496.992H170.983V498ZM178.587 497.118H176.893V499.974L175.815 500.156V497.118H171.965V496.208L175.857 490.86H176.893V496.166H178.587V497.118ZM175.815 496.166V492.372H175.801L173.113 496.166H175.815ZM183.963 491.812L179.959 500.31L179.021 499.834L182.745 491.882H178.937V490.86H183.963V491.812ZM190.659 494.43C190.659 496.292 189.931 498.154 187.817 498.154C185.689 498.154 184.961 496.292 184.961 494.43C184.961 492.568 185.689 490.706 187.817 490.706C189.931 490.706 190.659 492.568 190.659 494.43ZM189.511 494.43C189.511 492.862 188.993 491.686 187.817 491.686C186.627 491.686 186.109 492.862 186.109 494.43C186.109 495.998 186.627 497.174 187.817 497.174C188.993 497.174 189.511 495.998 189.511 494.43ZM200.104 498H194.91V497.272L197.304 494.976C197.948 494.346 198.438 493.884 198.438 493.114C198.438 492.302 197.934 491.7 196.996 491.7C196.366 491.7 195.918 491.98 195.582 492.26L195.05 491.518C195.652 491.014 196.268 490.706 197.234 490.706C198.62 490.706 199.572 491.518 199.572 492.988C199.572 493.968 198.984 494.71 198.312 495.326L196.52 496.978V496.992H200.104V498ZM206.269 494.318C206.269 498.182 204.309 499.988 201.523 500.324L201.299 499.414C203.063 499.204 204.841 498.07 205.093 495.396L205.079 495.382C205.079 495.382 204.421 495.942 203.427 495.942C202.027 495.942 201.117 494.892 201.117 493.45C201.117 491.7 202.167 490.706 203.749 490.706C205.373 490.706 206.269 491.826 206.269 494.318ZM205.107 494.304C205.107 492.918 204.855 491.658 203.609 491.658C202.727 491.658 202.209 492.386 202.209 493.296C202.209 494.458 202.741 495.018 203.735 495.018C204.589 495.018 205.107 494.514 205.107 494.514V494.304ZM212.832 498H207.638V497.272L210.032 494.976C210.676 494.346 211.166 493.884 211.166 493.114C211.166 492.302 210.662 491.7 209.724 491.7C209.094 491.7 208.646 491.98 208.31 492.26L207.778 491.518C208.38 491.014 208.996 490.706 209.962 490.706C211.348 490.706 212.3 491.518 212.3 492.988C212.3 493.968 211.712 494.71 211.04 495.326L209.248 496.978V496.992H212.832V498ZM219.712 494.43C219.712 496.292 218.984 498.154 216.87 498.154C214.742 498.154 214.014 496.292 214.014 494.43C214.014 492.568 214.742 490.706 216.87 490.706C218.984 490.706 219.712 492.568 219.712 494.43ZM218.564 494.43C218.564 492.862 218.046 491.686 216.87 491.686C215.68 491.686 215.162 492.862 215.162 494.43C215.162 495.998 215.68 497.174 216.87 497.174C218.046 497.174 218.564 495.998 218.564 494.43ZM226.314 498H225.208V491.812L223.976 491.98L223.85 491.126L226.314 490.734V498Z" fill="#00157E" fill-opacity="0.7"/>
<g clip-path="url(#clip2_417_80533)">
<path d="M265.432 478.072C265.432 480.136 264.268 481.156 262.708 481.156C261.04 481.156 259.972 480.316 259.972 478.048V473.776H261.004V478.096C261.004 479.524 261.556 480.196 262.672 480.196C263.788 480.196 264.472 479.512 264.472 478.12V473.776H265.432V478.072ZM271.314 478.972C271.314 480.232 270.438 481.132 268.986 481.132C268.242 481.132 267.582 480.976 267.018 480.736L267.33 479.86C267.798 480.076 268.35 480.256 268.914 480.256C269.79 480.256 270.354 479.92 270.354 479.128C270.354 478.54 269.922 478.252 269.346 477.976L268.218 477.436C267.462 477.076 266.946 476.608 266.946 475.588C266.946 474.352 268.026 473.644 269.274 473.644C269.946 473.644 270.378 473.752 271.002 473.98L270.666 474.832C270.282 474.652 269.862 474.484 269.334 474.484C268.59 474.484 267.918 474.784 267.918 475.552C267.918 476.068 268.23 476.32 268.71 476.548L269.862 477.112C270.774 477.556 271.314 478.048 271.314 478.972ZM278.469 476.932C278.469 479.572 276.885 481 274.317 481H272.805V473.824C272.805 473.824 273.801 473.704 274.869 473.704C277.101 473.704 278.469 474.868 278.469 476.932ZM277.425 477.076C277.425 475.372 276.273 474.556 274.701 474.556C274.197 474.556 273.813 474.58 273.813 474.58V480.1H274.509C276.225 480.1 277.425 479.08 277.425 477.076Z" fill="#00157E" fill-opacity="0.7"/>
<path d="M291.716 482H289.938V476.33L288.706 476.498L288.496 475.238L291.716 474.72V482ZM299.296 478.43C299.296 480.39 298.442 482.168 296.286 482.168C294.13 482.168 293.276 480.39 293.276 478.43C293.276 476.47 294.13 474.692 296.286 474.692C298.442 474.692 299.296 476.47 299.296 478.43ZM297.504 478.43C297.504 477.086 297.126 476.274 296.286 476.274C295.46 476.274 295.068 477.086 295.068 478.43C295.068 479.774 295.46 480.586 296.286 480.586C297.126 480.586 297.504 479.774 297.504 478.43ZM302.692 474.594C302.692 476.022 302.118 476.82 301.082 477.562L300.578 477.016C301.068 476.596 301.39 476.148 301.502 475.532C300.984 475.476 300.564 475.014 300.564 474.482C300.564 473.908 301.04 473.432 301.614 473.432C302.216 473.432 302.692 473.88 302.692 474.594ZM309.974 478.43C309.974 480.39 309.12 482.168 306.964 482.168C304.808 482.168 303.954 480.39 303.954 478.43C303.954 476.47 304.808 474.692 306.964 474.692C309.12 474.692 309.974 476.47 309.974 478.43ZM308.182 478.43C308.182 477.086 307.804 476.274 306.964 476.274C306.138 476.274 305.746 477.086 305.746 478.43C305.746 479.774 306.138 480.586 306.964 480.586C307.804 480.586 308.182 479.774 308.182 478.43ZM317.22 478.43C317.22 480.39 316.366 482.168 314.21 482.168C312.054 482.168 311.2 480.39 311.2 478.43C311.2 476.47 312.054 474.692 314.21 474.692C316.366 474.692 317.22 476.47 317.22 478.43ZM315.428 478.43C315.428 477.086 315.05 476.274 314.21 476.274C313.384 476.274 312.992 477.086 312.992 478.43C312.992 479.774 313.384 480.586 314.21 480.586C315.05 480.586 315.428 479.774 315.428 478.43ZM324.466 478.43C324.466 480.39 323.612 482.168 321.456 482.168C319.3 482.168 318.446 480.39 318.446 478.43C318.446 476.47 319.3 474.692 321.456 474.692C323.612 474.692 324.466 476.47 324.466 478.43ZM322.674 478.43C322.674 477.086 322.296 476.274 321.456 476.274C320.63 476.274 320.238 477.086 320.238 478.43C320.238 479.774 320.63 480.586 321.456 480.586C322.296 480.586 322.674 479.774 322.674 478.43ZM327.862 481.048C327.862 481.636 327.386 482.112 326.798 482.112C326.21 482.112 325.734 481.636 325.734 481.048C325.734 480.474 326.21 479.998 326.798 479.998C327.386 479.998 327.862 480.474 327.862 481.048ZM335.144 478.43C335.144 480.39 334.29 482.168 332.134 482.168C329.978 482.168 329.124 480.39 329.124 478.43C329.124 476.47 329.978 474.692 332.134 474.692C334.29 474.692 335.144 476.47 335.144 478.43ZM333.352 478.43C333.352 477.086 332.974 476.274 332.134 476.274C331.308 476.274 330.916 477.086 330.916 478.43C330.916 479.774 331.308 480.586 332.134 480.586C332.974 480.586 333.352 479.774 333.352 478.43ZM342.39 478.43C342.39 480.39 341.536 482.168 339.38 482.168C337.224 482.168 336.37 480.39 336.37 478.43C336.37 476.47 337.224 474.692 339.38 474.692C341.536 474.692 342.39 476.47 342.39 478.43ZM340.598 478.43C340.598 477.086 340.22 476.274 339.38 476.274C338.554 476.274 338.162 477.086 338.162 478.43C338.162 479.774 338.554 480.586 339.38 480.586C340.22 480.586 340.598 479.774 340.598 478.43Z" fill="#00157E"/>
<path d="M325 495L331 501L337 495" stroke="#00157E" stroke-width="2" stroke-linecap="round" stroke-linejoin="round"/>
</g>
</g>
<rect width="375" height="64" transform="translate(0 748)" fill="white"/>
<path d="M20 760.5H355C356.933 760.5 358.5 762.067 358.5 764V796C358.5 797.933 356.933 799.5 355 799.5H20C18.067 799.5 16.5 797.933 16.5 796V764C16.5 762.067 18.067 760.5 20 760.5Z" fill="#00157E"/>
<path d="M20 760.5H355C356.933 760.5 358.5 762.067 358.5 764V796C358.5 797.933 356.933 799.5 355 799.5H20C18.067 799.5 16.5 797.933 16.5 796V764C16.5 762.067 18.067 760.5 20 760.5Z" stroke="#00157E"/>
<path d="M169.874 785H164.93V775.368H169.714V776.504H166.258V779.464H169.378V780.584H166.258V783.864H169.874V785ZM177.02 784.664L175.932 785.272L173.852 782.072H173.836L171.964 785H170.62L173.228 781.112L170.988 777.848L172.06 777.24L173.916 780.056H173.932L175.532 777.512H176.892L174.524 781L177.02 784.664ZM183.597 784.6C182.877 785 182.141 785.176 181.229 785.176C179.021 785.176 177.885 783.688 177.885 781.208C177.885 778.888 179.101 777.336 180.989 777.336C182.797 777.336 183.533 778.536 183.533 780.184V781.08H179.133C179.149 783.08 179.869 784.04 181.501 784.04C182.125 784.04 182.605 783.864 183.149 783.592L183.597 784.6ZM182.333 780.184C182.333 779.064 181.917 778.36 180.925 778.36C179.965 778.36 179.357 779.112 179.197 780.184H182.333ZM190.339 777.656L189.939 778.808C189.523 778.648 189.059 778.504 188.531 778.504C187.123 778.504 186.275 779.56 186.275 781.144C186.275 783.144 187.059 784.056 188.499 784.056C189.011 784.056 189.427 783.88 189.843 783.704L190.275 784.744C189.651 785.032 188.963 785.176 188.243 785.176C186.099 785.176 184.995 783.64 184.995 781.352C184.995 778.6 186.691 777.336 188.595 777.336C189.251 777.336 189.811 777.448 190.339 777.656ZM198.004 784.92L196.74 785.128L196.612 784.264H196.596C196.036 784.792 195.3 785.176 194.372 785.176C193.108 785.176 192.1 784.36 192.1 782.824V779.24L191.876 777.592L193.38 777.384V782.376C193.38 783.48 193.796 784.056 194.804 784.056C195.524 784.056 196.036 783.752 196.5 783.32V779.24L196.276 777.592L197.78 777.384V783.272L198.004 784.92ZM204.079 784.696C203.615 784.952 203.183 785.16 202.367 785.16C201.215 785.16 200.479 784.408 200.479 783.128V778.552H199.375V777.704L200.479 777.48V776.232L201.743 776.072V777.512H203.839V778.552H201.743V782.696C201.743 783.704 201.999 784.024 202.735 784.024C203.135 784.024 203.439 783.864 203.663 783.72L204.079 784.696ZM210.769 784.6C210.049 785 209.313 785.176 208.401 785.176C206.193 785.176 205.057 783.688 205.057 781.208C205.057 778.888 206.273 777.336 208.161 777.336C209.969 777.336 210.705 778.536 210.705 780.184V781.08H206.305C206.321 783.08 207.041 784.04 208.673 784.04C209.297 784.04 209.777 783.864 210.321 783.592L210.769 784.6ZM209.505 780.184C209.505 779.064 209.089 778.36 208.097 778.36C207.137 778.36 206.529 779.112 206.369 780.184H209.505Z" fill="white"/>
</g>
<defs>
<clipPath id="clip0_417_80533">
<rect width="375" height="812" fill="white"/>
</clipPath>
<clipPath id="clip1_417_80533">
<rect width="375" height="642" fill="white" transform="translate(0 106)"/>
</clipPath>
<clipPath id="clip2_417_80533">
<rect width="131" height="36" fill="white" transform="translate(228 474)"/>
</clipPath>
</defs>
</svg>
