<svg width="375" height="812" viewBox="0 0 375 812" fill="none" xmlns="http://www.w3.org/2000/svg">
<g clip-path="url(#clip0_417_80167)">
<rect width="375" height="812" fill="white"/>
<path d="M343.99 22.17H357.993C359.556 22.17 360.823 23.4371 360.823 25.0001V29.6729C360.823 31.2359 359.556 32.503 357.993 32.503H343.99C342.427 32.503 341.16 31.2359 341.16 29.6729V25.0001C341.16 23.4371 342.427 22.17 343.99 22.17Z" stroke="#00157E"/>
<path d="M362.33 25.3367V29.3367C363.135 28.9979 363.658 28.2098 363.658 27.3367C363.658 26.4635 363.135 25.6754 362.33 25.3367" fill="#00157E"/>
<rect x="342.66" y="23.67" width="16.66" height="7.33333" rx="1.33333" fill="#00157E"/>
<path d="M325.427 30.0606C326.702 28.9817 328.571 28.9817 329.847 30.0606C329.911 30.1186 329.947 30.2007 329.949 30.2871C329.951 30.3736 329.917 30.457 329.855 30.5176L327.858 32.5332C327.8 32.5924 327.72 32.626 327.637 32.626C327.553 32.626 327.474 32.5924 327.415 32.5332L325.417 30.5176C325.355 30.457 325.321 30.3735 325.323 30.2871C325.325 30.2007 325.363 30.1185 325.427 30.0606ZM322.762 27.3711C325.51 24.8151 329.766 24.8151 332.514 27.3711C332.576 27.431 332.611 27.5135 332.612 27.5996C332.613 27.6858 332.579 27.7689 332.519 27.8301L331.364 28.9971C331.245 29.1162 331.053 29.1188 330.931 29.003C330.028 28.1858 328.854 27.7334 327.637 27.7334C326.42 27.7339 325.247 28.1863 324.345 29.003C324.223 29.1188 324.03 29.1162 323.911 28.9971L322.757 27.8301C322.696 27.769 322.662 27.6857 322.663 27.5996C322.664 27.5135 322.7 27.431 322.762 27.3711ZM320.097 24.6895C324.312 20.6503 330.962 20.6501 335.177 24.6895C335.238 24.7494 335.272 24.8316 335.272 24.917C335.273 25.0026 335.239 25.0848 335.179 25.1455L334.022 26.3125C333.903 26.432 333.711 26.4332 333.59 26.3155C331.984 24.7887 329.853 23.9376 327.637 23.9375C325.421 23.9375 323.289 24.7886 321.683 26.3155C321.562 26.4334 321.369 26.4322 321.25 26.3125L320.094 25.1455C320.033 25.0848 319.999 25.0026 320 24.917C320.001 24.8315 320.036 24.7494 320.097 24.6895Z" fill="#00157E"/>
<path d="M299.66 28.667C300.212 28.667 300.66 29.1147 300.66 29.667V31.667C300.66 32.2191 300.212 32.667 299.66 32.667H298.66C298.108 32.667 297.66 32.2191 297.66 31.667V29.667C297.66 29.1147 298.108 28.667 298.66 28.667H299.66ZM304.327 26.667C304.879 26.6672 305.327 27.1148 305.327 27.667V31.667C305.327 32.219 304.879 32.6668 304.327 32.667H303.327C302.775 32.667 302.327 32.2191 302.327 31.667V27.667C302.327 27.1147 302.775 26.667 303.327 26.667H304.327ZM308.993 24.333C309.545 24.333 309.993 24.7809 309.993 25.333V31.667C309.993 32.2191 309.545 32.667 308.993 32.667H307.993C307.441 32.6668 306.993 32.219 306.993 31.667V25.333C306.993 24.781 307.441 24.3332 307.993 24.333H308.993ZM313.66 22C314.212 22 314.66 22.4477 314.66 23V31.667C314.66 32.2191 314.212 32.667 313.66 32.667H312.66C312.108 32.667 311.66 32.2191 311.66 31.667V23C311.66 22.4477 312.108 22 312.66 22H313.66Z" fill="#00157E"/>
<path d="M32.1846 21.9175C34.4405 21.9175 36.4034 23.5215 36.4034 27.3301V27.3447C36.4034 30.9043 34.7994 33.0137 32.1407 33.0137C30.1998 33.0137 28.7496 31.8638 28.4127 30.2451L28.398 30.1646H30.2584L30.2804 30.2378C30.5587 30.9775 31.2105 31.4609 32.1407 31.4609C33.8179 31.4609 34.5284 29.8203 34.609 27.7988C34.609 27.7183 34.6163 27.6377 34.6163 27.5571H34.4698C34.0816 28.3921 33.1588 29.1318 31.7086 29.1318C29.6798 29.1318 28.2589 27.6523 28.2589 25.6455V25.6309C28.2589 23.4849 29.8922 21.9175 32.1846 21.9175ZM32.1773 27.6816C33.3712 27.6816 34.2867 26.8174 34.2867 25.6235V25.6089C34.2867 24.4004 33.3712 23.4556 32.1993 23.4556C31.0347 23.4556 30.1046 24.3857 30.1046 25.5649V25.5796C30.1046 26.8027 30.9762 27.6816 32.1773 27.6816ZM39.4486 25.9019C38.7821 25.9019 38.284 25.3892 38.284 24.7446C38.284 24.0928 38.7821 23.5874 39.4486 23.5874C40.1224 23.5874 40.6131 24.0928 40.6131 24.7446C40.6131 25.3892 40.1224 25.9019 39.4486 25.9019ZM39.4486 31.3364C38.7821 31.3364 38.284 30.8311 38.284 30.1792C38.284 29.5273 38.7821 29.022 39.4486 29.022C40.1224 29.022 40.6131 29.5273 40.6131 30.1792C40.6131 30.8311 40.1224 31.3364 39.4486 31.3364ZM47.6207 32.75V30.7212H42.4498V29.1758C43.8195 26.7954 45.3209 24.3638 46.7565 22.1812H49.4298V29.1611H50.8507V30.7212H49.4298V32.75H47.6207ZM44.2077 29.2051H47.65V23.6899H47.5402C46.4562 25.3452 45.233 27.3008 44.2077 29.0952V29.2051ZM54.9506 32.75V24.0415H54.8261L52.1967 25.9019V24.1221L54.9579 22.1812H56.8403V32.75H54.9506Z" fill="#00157E"/>
<path d="M353 71.9292L341 83.9292" stroke="#00157E" stroke-width="2" stroke-linecap="round" stroke-linejoin="round"/>
<path d="M341 71.9292L353 83.9292" stroke="#00157E" stroke-width="2" stroke-linecap="round" stroke-linejoin="round"/>
<path d="M139.407 74.22H136.167V84H133.467V74.22H130.227V71.96H139.407V74.22ZM143.4 84H140.86V77L140.54 74.66L143.4 74.34V84ZM143.64 71.88C143.64 72.72 142.98 73.4 142.14 73.4C141.3 73.4 140.64 72.72 140.64 71.88C140.64 71.06 141.3 70.38 142.14 70.38C142.98 70.38 143.64 71.06 143.64 71.88ZM159.338 84H156.818V78C156.818 76.98 156.378 76.52 155.478 76.52C154.838 76.52 154.218 76.86 153.878 77.22C153.878 77.22 153.918 77.54 153.918 77.82V84H151.378V78C151.378 76.98 150.958 76.52 150.058 76.52C149.398 76.52 148.838 76.82 148.478 77.18V84H145.938V77L145.618 74.66L148.058 74.34L148.178 75.38H148.198C148.758 74.82 149.738 74.3 150.978 74.3C152.098 74.3 152.958 74.76 153.458 75.54H153.478C154.178 74.82 155.178 74.3 156.418 74.3C158.078 74.3 159.338 75.24 159.338 77.38V84ZM169.056 83.44C167.996 83.98 167.116 84.24 165.836 84.24C162.676 84.24 161.276 82.32 161.276 79.12C161.276 76.26 162.976 74.32 165.496 74.32C168.136 74.32 168.996 76.14 168.996 78.42V79.54H163.756C163.836 81.22 164.636 82.02 166.156 82.02C167.056 82.02 167.556 81.8 168.276 81.5L169.056 83.44ZM166.776 78C166.776 77.02 166.356 76.36 165.416 76.36C164.416 76.36 163.916 77.12 163.796 78H166.776ZM181.176 80.96C181.176 82.78 179.716 84.22 177.516 84.22C176.376 84.22 175.356 84.04 174.496 83.64L175.156 81.56C175.876 81.86 176.576 82.16 177.376 82.16C178.236 82.16 178.656 81.86 178.656 81.36C178.656 80.9 178.436 80.72 177.916 80.5L176.436 79.88C175.556 79.52 174.596 78.86 174.596 77.3C174.596 75.34 176.256 74.3 178.236 74.3C179.356 74.3 180.116 74.48 181.016 74.86L180.236 76.9C179.596 76.64 178.976 76.38 178.256 76.38C177.476 76.38 177.036 76.6 177.036 77.12C177.036 77.62 177.436 77.8 177.796 77.94L179.336 78.56C180.536 79.04 181.176 79.8 181.176 80.96ZM189.803 74.74L189.043 76.96C188.543 76.74 188.083 76.56 187.403 76.56C186.143 76.56 185.203 77.46 185.203 79.16C185.203 81.08 186.063 81.92 187.283 81.92C188.003 81.92 188.383 81.76 188.983 81.52L189.743 83.6C188.863 84 188.043 84.24 186.963 84.24C184.123 84.24 182.623 82.32 182.623 79.3C182.623 75.82 184.983 74.3 187.403 74.3C188.343 74.3 188.983 74.42 189.803 74.74ZM199.522 84H196.982V78C196.982 77.06 196.582 76.54 195.642 76.54C194.862 76.54 194.302 77 194.102 77.18V84H191.562V72.98L191.242 70.64L194.102 70.32V75.18H194.122C194.362 74.96 195.222 74.3 196.602 74.3C198.282 74.3 199.522 75.26 199.522 77.38V84ZM209.251 83.44C208.191 83.98 207.311 84.24 206.031 84.24C202.871 84.24 201.471 82.32 201.471 79.12C201.471 76.26 203.171 74.32 205.691 74.32C208.331 74.32 209.191 76.14 209.191 78.42V79.54H203.951C204.031 81.22 204.831 82.02 206.351 82.02C207.251 82.02 207.751 81.8 208.471 81.5L209.251 83.44ZM206.971 78C206.971 77.02 206.551 76.36 205.611 76.36C204.611 76.36 204.111 77.12 203.991 78H206.971ZM218.992 83.88L216.572 84.18L216.432 83.2H216.412C216.172 83.4 215.392 84.24 214.112 84.24C211.752 84.24 210.572 82.24 210.572 79.6C210.572 76.2 212.512 74.46 215.252 74.46C215.752 74.46 216.132 74.54 216.132 74.54V72.98L215.812 70.64L218.672 70.32V81.54L218.992 83.88ZM214.892 81.98C215.492 81.98 215.952 81.72 216.132 81.56V76.72C216.132 76.72 215.792 76.56 215.172 76.56C213.952 76.56 213.132 77.52 213.132 79.22C213.132 81.12 213.632 81.98 214.892 81.98ZM229.531 83.86L227.091 84.18L226.951 83.16H226.931C226.371 83.7 225.431 84.24 224.171 84.24C222.551 84.24 221.231 83.28 221.231 81.16V77L220.911 74.66L223.771 74.34V80.54C223.771 81.56 224.191 82.02 225.071 82.02C225.731 82.02 226.291 81.72 226.671 81.34V77L226.351 74.66L229.211 74.34V81.52L229.531 83.86ZM234.258 84H231.718V72.96L231.398 70.64L234.258 70.32V84ZM243.958 83.44C242.898 83.98 242.018 84.24 240.738 84.24C237.578 84.24 236.178 82.32 236.178 79.12C236.178 76.26 237.878 74.32 240.398 74.32C243.038 74.32 243.898 76.14 243.898 78.42V79.54H238.658C238.738 81.22 239.538 82.02 241.058 82.02C241.958 82.02 242.458 81.8 243.178 81.5L243.958 83.44ZM241.678 78C241.678 77.02 241.258 76.36 240.318 76.36C239.318 76.36 238.818 77.12 238.698 78H241.678Z" fill="#00157E"/>
<path d="M35 77.9292H21" stroke="#00157E" stroke-width="2" stroke-linecap="round" stroke-linejoin="round"/>
<path d="M28 84.9292L21 77.9292L28 70.9292" stroke="#00157E" stroke-width="2" stroke-linecap="round" stroke-linejoin="round"/>
<g clip-path="url(#clip1_417_80167)">
<path d="M22.552 133.734L21.516 134.238L19.15 130.402C18.94 130.43 18.744 130.444 18.534 130.444H18.324V134H17.162V125.642C17.162 125.642 18.226 125.488 19.318 125.488C20.942 125.488 21.964 126.272 21.964 127.602C21.964 128.89 21.222 129.688 20.228 130.08L22.552 133.734ZM20.83 127.812C20.83 126.804 20.13 126.37 19.122 126.37C18.674 126.37 18.324 126.412 18.324 126.412V129.59H18.506C19.64 129.59 20.83 129.114 20.83 127.812ZM28.4513 133.65C27.8213 134 27.1773 134.154 26.3792 134.154C24.4473 134.154 23.4533 132.852 23.4533 130.682C23.4533 128.652 24.5173 127.294 26.1693 127.294C27.7513 127.294 28.3953 128.344 28.3953 129.786V130.57H24.5453C24.5593 132.32 25.1893 133.16 26.6173 133.16C27.1633 133.16 27.5833 133.006 28.0593 132.768L28.4513 133.65ZM27.3453 129.786C27.3453 128.806 26.9813 128.19 26.1133 128.19C25.2733 128.19 24.7413 128.848 24.6013 129.786H27.3453ZM34.35 127.574L34 128.582C33.636 128.442 33.23 128.316 32.768 128.316C31.536 128.316 30.794 129.24 30.794 130.626C30.794 132.376 31.48 133.174 32.74 133.174C33.188 133.174 33.552 133.02 33.916 132.866L34.294 133.776C33.748 134.028 33.146 134.154 32.516 134.154C30.64 134.154 29.674 132.81 29.674 130.808C29.674 128.4 31.158 127.294 32.824 127.294C33.398 127.294 33.888 127.392 34.35 127.574ZM37.0395 134H35.9195V128.96L35.7235 127.518L37.0395 127.336V134ZM37.2635 125.74C37.2635 126.188 36.9135 126.524 36.4935 126.524C36.0595 126.524 35.6955 126.188 35.6955 125.74C35.6955 125.292 36.0595 124.942 36.4935 124.942C36.9135 124.942 37.2635 125.292 37.2635 125.74ZM44.4341 130.402C44.4341 132.53 43.5101 134.07 41.3261 134.07C40.9621 134.07 40.6681 134.042 40.4021 133.972V136.772L39.2821 136.954V128.96L39.0861 127.518L40.1921 127.336L40.2901 128.008H40.3041C40.7381 127.644 41.3121 127.294 42.0681 127.294C43.6641 127.294 44.4341 128.498 44.4341 130.402ZM43.3141 130.724C43.3141 129.296 42.9921 128.302 41.6901 128.302C41.1301 128.302 40.7241 128.54 40.4021 128.806V132.936C40.6681 133.048 40.9761 133.118 41.4101 133.118C42.6281 133.118 43.3141 132.166 43.3141 130.724ZM47.3618 134H46.2418V128.96L46.0458 127.518L47.3618 127.336V134ZM47.5858 125.74C47.5858 126.188 47.2358 126.524 46.8158 126.524C46.3818 126.524 46.0177 126.188 46.0177 125.74C46.0177 125.292 46.3818 124.942 46.8158 124.942C47.2358 124.942 47.5858 125.292 47.5858 125.74ZM54.1544 133.65C53.5244 134 52.8804 134.154 52.0824 134.154C50.1504 134.154 49.1564 132.852 49.1564 130.682C49.1564 128.652 50.2204 127.294 51.8724 127.294C53.4544 127.294 54.0984 128.344 54.0984 129.786V130.57H50.2484C50.2624 132.32 50.8924 133.16 52.3204 133.16C52.8664 133.16 53.2864 133.006 53.7624 132.768L54.1544 133.65ZM53.0484 129.786C53.0484 128.806 52.6844 128.19 51.8164 128.19C50.9764 128.19 50.4444 128.848 50.3044 129.786H53.0484ZM60.7951 134H59.6751V129.744C59.6751 128.778 59.3111 128.288 58.4291 128.288C57.7991 128.288 57.3511 128.554 56.9451 128.918V134H55.8251V128.96L55.6291 127.518L56.7351 127.336L56.8471 128.106H56.8611C57.3511 127.63 57.9951 127.294 58.8071 127.294C59.9131 127.294 60.7951 128.008 60.7951 129.352V134ZM66.2788 133.734C65.8728 133.958 65.4948 134.14 64.7808 134.14C63.7728 134.14 63.1288 133.482 63.1288 132.362V128.358H62.1628V127.616L63.1288 127.42V126.328L64.2348 126.188V127.448H66.0688V128.358H64.2348V131.984C64.2348 132.866 64.4588 133.146 65.1028 133.146C65.4528 133.146 65.7188 133.006 65.9148 132.88L66.2788 133.734Z" fill="#00157E" fill-opacity="0.7"/>
<mask id="path-15-inside-1_417_80167" fill="white">
<path d="M16 146H359V186H16V146Z"/>
</mask>
<path d="M359 186V185H16V186V187H359V186Z" fill="#00157E" fill-opacity="0.2" mask="url(#path-15-inside-1_417_80167)"/>
<path d="M24.8217 171H23.4777V166.6H19.1417V171H17.7977V161.368H19.1417V165.464H23.4777V161.368H24.8217V171ZM32.3492 170.92L31.0692 171.128L30.9572 170.248H30.9412C30.3972 170.76 29.8052 171.192 28.9092 171.192C27.6612 171.192 26.9252 170.44 26.9252 169.256C26.9252 167.912 27.9812 167.256 29.5012 167.096L30.8452 166.952V166.28C30.8452 165.24 30.5252 164.504 29.2932 164.504C28.6692 164.504 28.2052 164.696 27.7412 164.936L27.2772 163.992C27.9492 163.592 28.6372 163.336 29.5972 163.336C31.1012 163.336 32.1092 164.216 32.1092 165.704V169.272L32.3492 170.92ZM30.8452 169.448V167.816L29.6772 167.976C28.7172 168.104 28.1892 168.408 28.1892 169.096C28.1892 169.72 28.5732 170.136 29.2132 170.136C29.9652 170.136 30.4292 169.816 30.8452 169.448ZM40.3672 171H39.0872V166.136C39.0872 165.032 38.6712 164.472 37.6632 164.472C36.9432 164.472 36.4312 164.776 35.9672 165.192V171H34.6872V165.24L34.4632 163.592L35.7272 163.384L35.8552 164.264H35.8712C36.4312 163.72 37.1672 163.336 38.0952 163.336C39.3592 163.336 40.3672 164.152 40.3672 165.688V171ZM47.2264 168.824C47.2264 170.184 46.1544 171.16 44.5544 171.16C43.7864 171.16 43.0184 171.048 42.4104 170.76L42.7944 169.64C43.3224 169.88 43.9144 170.072 44.4904 170.072C45.3544 170.072 45.9304 169.736 45.9304 169.032C45.9304 168.488 45.6424 168.264 45.1464 168.04L43.7544 167.4C43.2584 167.176 42.3624 166.728 42.3624 165.432C42.3624 164.008 43.6104 163.336 44.9704 163.336C45.7864 163.336 46.3624 163.464 47.0024 163.736L46.5704 164.84C46.0584 164.616 45.5624 164.456 44.9544 164.456C44.1384 164.456 43.6104 164.712 43.6104 165.352C43.6104 165.912 44.0904 166.136 44.3944 166.28L45.8184 166.952C46.8104 167.416 47.2264 168.008 47.2264 168.824ZM62.4811 170.968L61.2011 171.064L60.9291 163.608H60.9131L58.0811 171H56.6891L54.0171 163.624H54.0011L53.6171 171H52.4491L53.0731 161.368H54.4811L57.5051 169.4H57.5211L60.5771 161.368H61.9691L62.4811 170.968ZM70.0591 170.6C69.3391 171 68.6031 171.176 67.6911 171.176C65.4831 171.176 64.3471 169.688 64.3471 167.208C64.3471 164.888 65.5631 163.336 67.4511 163.336C69.2591 163.336 69.9951 164.536 69.9951 166.184V167.08H65.5951C65.6111 169.08 66.3311 170.04 67.9631 170.04C68.5871 170.04 69.0671 169.864 69.6111 169.592L70.0591 170.6ZM68.7951 166.184C68.7951 165.064 68.3791 164.36 67.3871 164.36C66.4271 164.36 65.8191 165.112 65.6591 166.184H68.7951ZM77.3925 163.512L74.8965 170.312C74.0965 172.52 73.0245 173.848 70.4165 174.376L70.1765 173.336C72.0805 172.952 73.0885 171.8 73.5845 170.552L70.8965 163.624L72.1605 163.288L74.2245 168.856H74.2405L76.1285 163.512H77.3925ZM83.981 170.6C83.261 171 82.525 171.176 81.613 171.176C79.405 171.176 78.269 169.688 78.269 167.208C78.269 164.888 79.485 163.336 81.373 163.336C83.181 163.336 83.917 164.536 83.917 166.184V167.08H79.517C79.533 169.08 80.253 170.04 81.885 170.04C82.509 170.04 82.989 169.864 83.533 169.592L83.981 170.6ZM82.717 166.184C82.717 165.064 82.301 164.36 81.309 164.36C80.349 164.36 79.741 165.112 79.581 166.184H82.717ZM89.2504 164.616C88.3864 164.616 87.7464 164.84 87.1704 165.368V171H85.8904V165.24L85.6664 163.592L86.9304 163.384L87.0584 164.408H87.0744C87.5864 163.832 88.2584 163.352 89.2504 163.352V164.616Z" fill="#00157E"/>
<path d="M346.999 157L351.999 162L338.999 175H333.999V170L346.999 157Z" stroke="#00157E" stroke-width="2" stroke-linecap="round" stroke-linejoin="round"/>
<path d="M16 226C16 223.791 17.7909 222 20 222H355C357.209 222 359 223.791 359 226V254C359 256.209 357.209 258 355 258H20C17.7909 258 16 256.209 16 254V226Z" fill="#00157E" fill-opacity="0.05"/>
<path d="M22 224.5H179.5C181.433 224.5 183 226.067 183 228V252C183 253.933 181.433 255.5 179.5 255.5H22C20.067 255.5 18.5 253.933 18.5 252V228C18.5 226.067 20.067 224.5 22 224.5Z" fill="#00157E"/>
<path d="M22 224.5H179.5C181.433 224.5 183 226.067 183 228V252C183 253.933 181.433 255.5 179.5 255.5H22C20.067 255.5 18.5 253.933 18.5 252V228C18.5 226.067 20.067 224.5 22 224.5Z" stroke="#00157E"/>
<path d="M61.6528 241.634C61.6528 243.104 60.6308 244.154 58.9368 244.154C58.0688 244.154 57.2988 243.972 56.6408 243.692L57.0048 242.67C57.5508 242.922 58.1948 243.132 58.8528 243.132C59.8748 243.132 60.5328 242.74 60.5328 241.816C60.5328 241.13 60.0288 240.794 59.3568 240.472L58.0408 239.842C57.1588 239.422 56.5568 238.876 56.5568 237.686C56.5568 236.244 57.8168 235.418 59.2728 235.418C60.0568 235.418 60.5608 235.544 61.2888 235.81L60.8968 236.804C60.4488 236.594 59.9588 236.398 59.3428 236.398C58.4748 236.398 57.6908 236.748 57.6908 237.644C57.6908 238.246 58.0548 238.54 58.6148 238.806L59.9588 239.464C61.0228 239.982 61.6528 240.556 61.6528 241.634ZM64.4975 244H63.3775V238.96L63.1815 237.518L64.4975 237.336V244ZM64.7215 235.74C64.7215 236.188 64.3715 236.524 63.9515 236.524C63.5175 236.524 63.1535 236.188 63.1535 235.74C63.1535 235.292 63.5175 234.942 63.9515 234.942C64.3715 234.942 64.7215 235.292 64.7215 235.74ZM71.7101 244H70.5901V239.744C70.5901 238.778 70.2261 238.288 69.3441 238.288C68.7141 238.288 68.2661 238.554 67.8601 238.918V244H66.7401V238.96L66.5441 237.518L67.6501 237.336L67.7621 238.106H67.7761C68.2661 237.63 68.9101 237.294 69.7221 237.294C70.8281 237.294 71.7101 238.008 71.7101 239.352V244ZM79.2659 238.274H77.9499C78.1459 238.61 78.2579 239.002 78.2579 239.478C78.2579 240.808 77.2919 241.704 75.9479 241.704C75.6819 241.704 75.4299 241.662 75.2059 241.606C75.2059 241.606 74.7579 241.858 74.7579 242.362C74.7579 242.796 75.0799 242.88 75.5279 242.88H77.4039C78.5519 242.88 79.2239 243.23 79.2239 244.252C79.2239 245.54 77.9079 246.996 75.5139 246.996C74.1419 246.996 73.3019 246.324 73.3019 245.176C73.3019 244.098 74.1839 243.566 74.1839 243.566C73.9039 243.384 73.7219 243.104 73.7219 242.642C73.7219 241.83 74.4219 241.424 74.5619 241.354C73.9459 240.976 73.6099 240.332 73.6099 239.478C73.6099 238.148 74.5899 237.266 75.9479 237.266C76.4519 237.266 76.9139 237.378 77.2779 237.602L79.2659 237.294V238.274ZM78.2439 244.42C78.2439 243.944 77.8379 243.846 77.1519 243.846H75.3879C75.1919 243.846 75.0099 243.832 74.8279 243.804C74.8279 243.804 74.2959 244.224 74.2959 244.924C74.2959 245.68 74.7579 246.086 75.7659 246.086C77.3759 246.086 78.2439 245.134 78.2439 244.42ZM77.2079 239.478C77.2079 238.568 76.7039 238.106 75.9479 238.106C75.2199 238.106 74.6599 238.596 74.6599 239.478C74.6599 240.402 75.1779 240.864 75.9479 240.864C76.6619 240.864 77.2079 240.374 77.2079 239.478ZM81.8458 244H80.7258V236.062L80.5298 234.62L81.8458 234.438V244ZM88.6124 243.65C87.9824 244 87.3384 244.154 86.5404 244.154C84.6084 244.154 83.6144 242.852 83.6144 240.682C83.6144 238.652 84.6784 237.294 86.3304 237.294C87.9124 237.294 88.5564 238.344 88.5564 239.786V240.57H84.7064C84.7204 242.32 85.3504 243.16 86.7784 243.16C87.3244 243.16 87.7444 243.006 88.2204 242.768L88.6124 243.65ZM87.5064 239.786C87.5064 238.806 87.1424 238.19 86.2744 238.19C85.4344 238.19 84.9024 238.848 84.7624 239.786H87.5064ZM97.7725 243.65C97.1425 244 96.4985 244.154 95.7005 244.154C93.7685 244.154 92.7745 242.852 92.7745 240.682C92.7745 238.652 93.8385 237.294 95.4905 237.294C97.0725 237.294 97.7165 238.344 97.7165 239.786V240.57H93.8665C93.8805 242.32 94.5105 243.16 95.9385 243.16C96.4845 243.16 96.9045 243.006 97.3805 242.768L97.7725 243.65ZM96.6665 239.786C96.6665 238.806 96.3025 238.19 95.4345 238.19C94.5945 238.19 94.0625 238.848 93.9225 239.786H96.6665ZM104.022 243.706L103.07 244.238L101.25 241.438H101.236L99.5976 244H98.4216L100.704 240.598L98.7436 237.742L99.6816 237.21L101.306 239.674H101.32L102.72 237.448H103.91L101.838 240.5L104.022 243.706ZM109.776 243.65C109.146 244 108.502 244.154 107.704 244.154C105.772 244.154 104.778 242.852 104.778 240.682C104.778 238.652 105.842 237.294 107.494 237.294C109.076 237.294 109.72 238.344 109.72 239.786V240.57H105.87C105.884 242.32 106.514 243.16 107.942 243.16C108.488 243.16 108.908 243.006 109.384 242.768L109.776 243.65ZM108.67 239.786C108.67 238.806 108.306 238.19 107.438 238.19C106.598 238.19 106.066 238.848 105.926 239.786H108.67ZM115.675 237.574L115.325 238.582C114.961 238.442 114.555 238.316 114.093 238.316C112.861 238.316 112.119 239.24 112.119 240.626C112.119 242.376 112.805 243.174 114.065 243.174C114.513 243.174 114.877 243.02 115.241 242.866L115.619 243.776C115.073 244.028 114.471 244.154 113.841 244.154C111.965 244.154 110.999 242.81 110.999 240.808C110.999 238.4 112.483 237.294 114.149 237.294C114.723 237.294 115.213 237.392 115.675 237.574ZM122.383 243.93L121.277 244.112L121.165 243.356H121.151C120.661 243.818 120.017 244.154 119.205 244.154C118.099 244.154 117.217 243.44 117.217 242.096V238.96L117.021 237.518L118.337 237.336V241.704C118.337 242.67 118.701 243.174 119.583 243.174C120.213 243.174 120.661 242.908 121.067 242.53V238.96L120.871 237.518L122.187 237.336V242.488L122.383 243.93ZM127.698 243.734C127.292 243.958 126.914 244.14 126.2 244.14C125.192 244.14 124.548 243.482 124.548 242.362V238.358H123.582V237.616L124.548 237.42V236.328L125.654 236.188V237.448H127.488V238.358H125.654V241.984C125.654 242.866 125.878 243.146 126.522 243.146C126.872 243.146 127.138 243.006 127.334 242.88L127.698 243.734ZM130.341 244H129.221V238.96L129.025 237.518L130.341 237.336V244ZM130.565 235.74C130.565 236.188 130.215 236.524 129.795 236.524C129.361 236.524 128.997 236.188 128.997 235.74C128.997 235.292 129.361 234.942 129.795 234.942C130.215 234.942 130.565 235.292 130.565 235.74ZM137.736 240.724C137.736 242.642 136.826 244.154 134.936 244.154C132.864 244.154 132.136 242.684 132.136 240.724C132.136 238.806 133.046 237.294 134.936 237.294C137.008 237.294 137.736 238.764 137.736 240.724ZM136.588 240.752C136.588 239.128 136.042 238.274 134.936 238.274C133.858 238.274 133.284 239.03 133.284 240.682C133.284 242.306 133.83 243.174 134.936 243.174C136.014 243.174 136.588 242.404 136.588 240.752ZM144.486 244H143.366V239.744C143.366 238.778 143.002 238.288 142.12 238.288C141.49 238.288 141.042 238.554 140.636 238.918V244H139.516V238.96L139.32 237.518L140.426 237.336L140.538 238.106H140.552C141.042 237.63 141.686 237.294 142.498 237.294C143.604 237.294 144.486 238.008 144.486 239.352V244Z" fill="white"/>
<path d="M226.6 243.734L225.564 244.238L223.198 240.402C222.988 240.43 222.792 240.444 222.582 240.444H222.372V244H221.21V235.642C221.21 235.642 222.274 235.488 223.366 235.488C224.99 235.488 226.012 236.272 226.012 237.602C226.012 238.89 225.27 239.688 224.276 240.08L226.6 243.734ZM224.878 237.812C224.878 236.804 224.178 236.37 223.17 236.37C222.722 236.37 222.372 236.412 222.372 236.412V239.59H222.554C223.688 239.59 224.878 239.114 224.878 237.812ZM232.499 243.65C231.869 244 231.225 244.154 230.427 244.154C228.495 244.154 227.501 242.852 227.501 240.682C227.501 238.652 228.565 237.294 230.217 237.294C231.799 237.294 232.443 238.344 232.443 239.786V240.57H228.593C228.607 242.32 229.237 243.16 230.665 243.16C231.211 243.16 231.631 243.006 232.107 242.768L232.499 243.65ZM231.393 239.786C231.393 238.806 231.029 238.19 230.161 238.19C229.321 238.19 228.789 238.848 228.649 239.786H231.393ZM238.398 237.574L238.048 238.582C237.684 238.442 237.278 238.316 236.816 238.316C235.584 238.316 234.842 239.24 234.842 240.626C234.842 242.376 235.528 243.174 236.788 243.174C237.236 243.174 237.6 243.02 237.964 242.866L238.342 243.776C237.796 244.028 237.194 244.154 236.564 244.154C234.688 244.154 233.722 242.81 233.722 240.808C233.722 238.4 235.206 237.294 236.872 237.294C237.446 237.294 237.936 237.392 238.398 237.574ZM245.105 243.93L243.999 244.112L243.887 243.356H243.873C243.383 243.818 242.739 244.154 241.927 244.154C240.821 244.154 239.939 243.44 239.939 242.096V238.96L239.743 237.518L241.059 237.336V241.704C241.059 242.67 241.423 243.174 242.305 243.174C242.935 243.174 243.383 242.908 243.789 242.53V238.96L243.593 237.518L244.909 237.336V242.488L245.105 243.93ZM250.084 238.414C249.328 238.414 248.768 238.61 248.264 239.072V244H247.144V238.96L246.948 237.518L248.054 237.336L248.166 238.232H248.18C248.628 237.728 249.216 237.308 250.084 237.308V238.414ZM254.391 238.414C253.635 238.414 253.075 238.61 252.571 239.072V244H251.451V238.96L251.255 237.518L252.361 237.336L252.473 238.232H252.487C252.935 237.728 253.523 237.308 254.391 237.308V238.414ZM256.906 244H255.786V238.96L255.59 237.518L256.906 237.336V244ZM257.13 235.74C257.13 236.188 256.78 236.524 256.36 236.524C255.926 236.524 255.562 236.188 255.562 235.74C255.562 235.292 255.926 234.942 256.36 234.942C256.78 234.942 257.13 235.292 257.13 235.74ZM264.118 244H262.998V239.744C262.998 238.778 262.634 238.288 261.752 238.288C261.122 238.288 260.674 238.554 260.268 238.918V244H259.148V238.96L258.952 237.518L260.058 237.336L260.17 238.106H260.184C260.674 237.63 261.318 237.294 262.13 237.294C263.236 237.294 264.118 238.008 264.118 239.352V244ZM271.674 238.274H270.358C270.554 238.61 270.666 239.002 270.666 239.478C270.666 240.808 269.7 241.704 268.356 241.704C268.09 241.704 267.838 241.662 267.614 241.606C267.614 241.606 267.166 241.858 267.166 242.362C267.166 242.796 267.488 242.88 267.936 242.88H269.812C270.96 242.88 271.632 243.23 271.632 244.252C271.632 245.54 270.316 246.996 267.922 246.996C266.55 246.996 265.71 246.324 265.71 245.176C265.71 244.098 266.592 243.566 266.592 243.566C266.312 243.384 266.13 243.104 266.13 242.642C266.13 241.83 266.83 241.424 266.97 241.354C266.354 240.976 266.018 240.332 266.018 239.478C266.018 238.148 266.998 237.266 268.356 237.266C268.86 237.266 269.322 237.378 269.686 237.602L271.674 237.294V238.274ZM270.652 244.42C270.652 243.944 270.246 243.846 269.56 243.846H267.796C267.6 243.846 267.418 243.832 267.236 243.804C267.236 243.804 266.704 244.224 266.704 244.924C266.704 245.68 267.166 246.086 268.174 246.086C269.784 246.086 270.652 245.134 270.652 244.42ZM269.616 239.478C269.616 238.568 269.112 238.106 268.356 238.106C267.628 238.106 267.068 238.596 267.068 239.478C267.068 240.402 267.586 240.864 268.356 240.864C269.07 240.864 269.616 240.374 269.616 239.478ZM280.651 243.65C280.021 244 279.377 244.154 278.579 244.154C276.647 244.154 275.653 242.852 275.653 240.682C275.653 238.652 276.717 237.294 278.369 237.294C279.951 237.294 280.595 238.344 280.595 239.786V240.57H276.745C276.759 242.32 277.389 243.16 278.817 243.16C279.363 243.16 279.783 243.006 280.259 242.768L280.651 243.65ZM279.545 239.786C279.545 238.806 279.181 238.19 278.313 238.19C277.473 238.19 276.941 238.848 276.801 239.786H279.545ZM286.9 243.706L285.948 244.238L284.128 241.438H284.114L282.476 244H281.3L283.582 240.598L281.622 237.742L282.56 237.21L284.184 239.674H284.198L285.598 237.448H286.788L284.716 240.5L286.9 243.706ZM292.655 243.65C292.025 244 291.381 244.154 290.583 244.154C288.651 244.154 287.657 242.852 287.657 240.682C287.657 238.652 288.721 237.294 290.373 237.294C291.955 237.294 292.599 238.344 292.599 239.786V240.57H288.749C288.763 242.32 289.393 243.16 290.821 243.16C291.367 243.16 291.787 243.006 292.263 242.768L292.655 243.65ZM291.549 239.786C291.549 238.806 291.185 238.19 290.317 238.19C289.477 238.19 288.945 238.848 288.805 239.786H291.549ZM298.554 237.574L298.204 238.582C297.84 238.442 297.434 238.316 296.972 238.316C295.74 238.316 294.998 239.24 294.998 240.626C294.998 242.376 295.684 243.174 296.944 243.174C297.392 243.174 297.756 243.02 298.12 242.866L298.498 243.776C297.952 244.028 297.35 244.154 296.72 244.154C294.844 244.154 293.878 242.81 293.878 240.808C293.878 238.4 295.362 237.294 297.028 237.294C297.602 237.294 298.092 237.392 298.554 237.574ZM305.262 243.93L304.156 244.112L304.044 243.356H304.03C303.54 243.818 302.896 244.154 302.084 244.154C300.978 244.154 300.096 243.44 300.096 242.096V238.96L299.9 237.518L301.216 237.336V241.704C301.216 242.67 301.58 243.174 302.462 243.174C303.092 243.174 303.54 242.908 303.946 242.53V238.96L303.75 237.518L305.066 237.336V242.488L305.262 243.93ZM310.577 243.734C310.171 243.958 309.793 244.14 309.079 244.14C308.071 244.14 307.427 243.482 307.427 242.362V238.358H306.461V237.616L307.427 237.42V236.328L308.533 236.188V237.448H310.367V238.358H308.533V241.984C308.533 242.866 308.757 243.146 309.401 243.146C309.751 243.146 310.017 243.006 310.213 242.88L310.577 243.734ZM313.22 244H312.1V238.96L311.904 237.518L313.22 237.336V244ZM313.444 235.74C313.444 236.188 313.094 236.524 312.674 236.524C312.24 236.524 311.876 236.188 311.876 235.74C311.876 235.292 312.24 234.942 312.674 234.942C313.094 234.942 313.444 235.292 313.444 235.74ZM320.615 240.724C320.615 242.642 319.705 244.154 317.815 244.154C315.743 244.154 315.015 242.684 315.015 240.724C315.015 238.806 315.925 237.294 317.815 237.294C319.887 237.294 320.615 238.764 320.615 240.724ZM319.467 240.752C319.467 239.128 318.921 238.274 317.815 238.274C316.737 238.274 316.163 239.03 316.163 240.682C316.163 242.306 316.709 243.174 317.815 243.174C318.893 243.174 319.467 242.404 319.467 240.752ZM327.364 244H326.244V239.744C326.244 238.778 325.88 238.288 324.998 238.288C324.368 238.288 323.92 238.554 323.514 238.918V244H322.394V238.96L322.198 237.518L323.304 237.336L323.416 238.106H323.43C323.92 237.63 324.564 237.294 325.376 237.294C326.482 237.294 327.364 238.008 327.364 239.352V244Z" fill="#00157E"/>
<mask id="path-25-inside-2_417_80167" fill="white">
<path d="M16 274H359V316H16V274Z"/>
</mask>
<path d="M359 316V315H16V316V317H359V316Z" fill="#00157E" fill-opacity="0.1" mask="url(#path-25-inside-2_417_80167)"/>
<path d="M24.4739 299.84L23.1619 300.208L22.1379 296.88H19.0019L18.0259 300H16.6179L19.9619 290.368H21.3379L24.4739 299.84ZM21.8499 295.92L20.6019 291.76H20.5859L19.2899 295.92H21.8499ZM30.5701 297.824C30.5701 299.184 29.4981 300.16 27.8981 300.16C27.1301 300.16 26.3621 300.048 25.7541 299.76L26.1381 298.64C26.6661 298.88 27.2581 299.072 27.8341 299.072C28.6981 299.072 29.2741 298.736 29.2741 298.032C29.2741 297.488 28.9861 297.264 28.4901 297.04L27.0981 296.4C26.6021 296.176 25.7061 295.728 25.7061 294.432C25.7061 293.008 26.9541 292.336 28.3141 292.336C29.1301 292.336 29.7061 292.464 30.3461 292.736L29.9141 293.84C29.4021 293.616 28.9061 293.456 28.2981 293.456C27.4821 293.456 26.9541 293.712 26.9541 294.352C26.9541 294.912 27.4341 295.136 27.7381 295.28L29.1621 295.952C30.1541 296.416 30.5701 297.008 30.5701 297.824ZM40.2889 297.824C40.2889 299.184 39.2169 300.16 37.6169 300.16C36.8489 300.16 36.0809 300.048 35.4729 299.76L35.8569 298.64C36.3849 298.88 36.9769 299.072 37.5529 299.072C38.4169 299.072 38.9929 298.736 38.9929 298.032C38.9929 297.488 38.7049 297.264 38.2089 297.04L36.8169 296.4C36.3209 296.176 35.4249 295.728 35.4249 294.432C35.4249 293.008 36.6729 292.336 38.0329 292.336C38.8489 292.336 39.4249 292.464 40.0649 292.736L39.6329 293.84C39.1209 293.616 38.6249 293.456 38.0169 293.456C37.2009 293.456 36.6729 293.712 36.6729 294.352C36.6729 294.912 37.1529 295.136 37.4569 295.28L38.8809 295.952C39.8729 296.416 40.2889 297.008 40.2889 297.824ZM48.2002 296.256C48.2002 298.448 47.1602 300.176 45.0002 300.176C42.6322 300.176 41.8002 298.496 41.8002 296.256C41.8002 294.064 42.8402 292.336 45.0002 292.336C47.3682 292.336 48.2002 294.016 48.2002 296.256ZM46.8882 296.288C46.8882 294.432 46.2642 293.456 45.0002 293.456C43.7682 293.456 43.1122 294.32 43.1122 296.208C43.1122 298.064 43.7362 299.056 45.0002 299.056C46.2322 299.056 46.8882 298.176 46.8882 296.288ZM56.1221 296.256C56.1221 298.448 55.0821 300.176 52.9221 300.176C50.5541 300.176 49.7221 298.496 49.7221 296.256C49.7221 294.064 50.7621 292.336 52.9221 292.336C55.2901 292.336 56.1221 294.016 56.1221 296.256ZM54.8101 296.288C54.8101 294.432 54.1861 293.456 52.9221 293.456C51.6901 293.456 51.0341 294.32 51.0341 296.208C51.0341 298.064 51.6581 299.056 52.9221 299.056C54.1541 299.056 54.8101 298.176 54.8101 296.288ZM63.836 300H62.556V295.136C62.556 294.032 62.14 293.472 61.132 293.472C60.412 293.472 59.9 293.776 59.436 294.192V300H58.156V294.24L57.932 292.592L59.196 292.384L59.324 293.264H59.34C59.9 292.72 60.636 292.336 61.564 292.336C62.828 292.336 63.836 293.152 63.836 294.688V300ZM74.6305 299.92L73.3505 300.128L73.2385 299.248H73.2225C72.6785 299.76 72.0865 300.192 71.1905 300.192C69.9425 300.192 69.2065 299.44 69.2065 298.256C69.2065 296.912 70.2625 296.256 71.7825 296.096L73.1265 295.952V295.28C73.1265 294.24 72.8065 293.504 71.5745 293.504C70.9505 293.504 70.4865 293.696 70.0225 293.936L69.5585 292.992C70.2305 292.592 70.9185 292.336 71.8785 292.336C73.3825 292.336 74.3905 293.216 74.3905 294.704V298.272L74.6305 299.92ZM73.1265 298.448V296.816L71.9585 296.976C70.9985 297.104 70.4705 297.408 70.4705 298.096C70.4705 298.72 70.8545 299.136 71.4945 299.136C72.2465 299.136 72.7105 298.816 73.1265 298.448ZM81.3045 297.824C81.3045 299.184 80.2325 300.16 78.6325 300.16C77.8645 300.16 77.0965 300.048 76.4885 299.76L76.8725 298.64C77.4005 298.88 77.9925 299.072 78.5685 299.072C79.4325 299.072 80.0085 298.736 80.0085 298.032C80.0085 297.488 79.7205 297.264 79.2245 297.04L77.8325 296.4C77.3365 296.176 76.4405 295.728 76.4405 294.432C76.4405 293.008 77.6885 292.336 79.0485 292.336C79.8645 292.336 80.4405 292.464 81.0805 292.736L80.6485 293.84C80.1365 293.616 79.6405 293.456 79.0325 293.456C78.2165 293.456 77.6885 293.712 77.6885 294.352C77.6885 294.912 78.1685 295.136 78.4725 295.28L79.8965 295.952C80.8885 296.416 81.3045 297.008 81.3045 297.824ZM92.5752 295.888C92.5752 298.32 91.5192 300.08 89.0232 300.08C88.6072 300.08 88.2712 300.048 87.9672 299.968V303.168L86.6872 303.376V294.24L86.4632 292.592L87.7272 292.384L87.8392 293.152H87.8552C88.3512 292.736 89.0072 292.336 89.8712 292.336C91.6952 292.336 92.5752 293.712 92.5752 295.888ZM91.2952 296.256C91.2952 294.624 90.9272 293.488 89.4392 293.488C88.7992 293.488 88.3352 293.76 87.9672 294.064V298.784C88.2712 298.912 88.6232 298.992 89.1192 298.992C90.5112 298.992 91.2952 297.904 91.2952 296.256ZM100.497 296.256C100.497 298.448 99.4571 300.176 97.2971 300.176C94.9291 300.176 94.0971 298.496 94.0971 296.256C94.0971 294.064 95.1371 292.336 97.2971 292.336C99.6651 292.336 100.497 294.016 100.497 296.256ZM99.1851 296.288C99.1851 294.432 98.5611 293.456 97.2971 293.456C96.0651 293.456 95.4091 294.32 95.4091 296.208C95.4091 298.064 96.0331 299.056 97.2971 299.056C98.5291 299.056 99.1851 298.176 99.1851 296.288ZM106.867 297.824C106.867 299.184 105.795 300.16 104.195 300.16C103.427 300.16 102.659 300.048 102.051 299.76L102.435 298.64C102.963 298.88 103.555 299.072 104.131 299.072C104.995 299.072 105.571 298.736 105.571 298.032C105.571 297.488 105.283 297.264 104.787 297.04L103.395 296.4C102.899 296.176 102.003 295.728 102.003 294.432C102.003 293.008 103.251 292.336 104.611 292.336C105.427 292.336 106.003 292.464 106.643 292.736L106.211 293.84C105.699 293.616 105.203 293.456 104.595 293.456C103.779 293.456 103.251 293.712 103.251 294.352C103.251 294.912 103.731 295.136 104.035 295.28L105.459 295.952C106.451 296.416 106.867 297.008 106.867 297.824ZM113.226 297.824C113.226 299.184 112.154 300.16 110.554 300.16C109.786 300.16 109.018 300.048 108.41 299.76L108.794 298.64C109.322 298.88 109.914 299.072 110.49 299.072C111.354 299.072 111.93 298.736 111.93 298.032C111.93 297.488 111.642 297.264 111.146 297.04L109.754 296.4C109.258 296.176 108.362 295.728 108.362 294.432C108.362 293.008 109.61 292.336 110.97 292.336C111.786 292.336 112.362 292.464 113.002 292.736L112.57 293.84C112.058 293.616 111.562 293.456 110.954 293.456C110.138 293.456 109.61 293.712 109.61 294.352C109.61 294.912 110.09 295.136 110.394 295.28L111.818 295.952C112.81 296.416 113.226 297.008 113.226 297.824ZM116.562 300H115.282V294.24L115.058 292.592L116.562 292.384V300ZM116.818 290.56C116.818 291.072 116.418 291.456 115.938 291.456C115.442 291.456 115.026 291.072 115.026 290.56C115.026 290.048 115.442 289.648 115.938 289.648C116.418 289.648 116.818 290.048 116.818 290.56ZM125.045 295.808C125.045 298.304 123.749 300.16 121.381 300.16C120.549 300.16 119.637 300.016 119.093 299.808V290.928L118.869 289.28L120.373 289.072V293.088H120.389C120.869 292.688 121.509 292.336 122.357 292.336C124.117 292.336 125.045 293.6 125.045 295.808ZM123.749 296.272C123.749 294.624 123.365 293.504 121.909 293.504C121.237 293.504 120.757 293.776 120.373 294.112V298.928C120.693 299.008 121.013 299.056 121.493 299.056C122.981 299.056 123.749 297.792 123.749 296.272ZM128.341 300H127.061V290.928L126.837 289.28L128.341 289.072V300ZM136.075 299.6C135.355 300 134.619 300.176 133.707 300.176C131.499 300.176 130.363 298.688 130.363 296.208C130.363 293.888 131.579 292.336 133.467 292.336C135.275 292.336 136.011 293.536 136.011 295.184V296.08H131.611C131.627 298.08 132.347 299.04 133.979 299.04C134.603 299.04 135.083 298.864 135.627 298.592L136.075 299.6ZM134.811 295.184C134.811 294.064 134.395 293.36 133.403 293.36C132.443 293.36 131.835 294.112 131.675 295.184H134.811Z" fill="#00157E"/>
<rect opacity="0.75" x="315.999" y="283" width="42" height="24" rx="12" fill="white" stroke="#00157E" stroke-width="2"/>
<circle cx="327.999" cy="295" r="8" fill="#00157E"/>
<path d="M21.488 348H17.162V339.572H21.348V340.566H18.324V343.156H21.054V344.136H18.324V347.006H21.488V348ZM27.7413 347.706L26.7893 348.238L24.9693 345.438H24.9553L23.3173 348H22.1413L24.4233 344.598L22.4633 341.742L23.4013 341.21L25.0253 343.674H25.0393L26.4393 341.448H27.6293L25.5573 344.5L27.7413 347.706ZM33.4962 347.65C32.8662 348 32.2222 348.154 31.4242 348.154C29.4922 348.154 28.4982 346.852 28.4982 344.682C28.4982 342.652 29.5622 341.294 31.2142 341.294C32.7962 341.294 33.4402 342.344 33.4402 343.786V344.57H29.5902C29.6042 346.32 30.2342 347.16 31.6622 347.16C32.2082 347.16 32.6282 347.006 33.1042 346.768L33.4962 347.65ZM32.3902 343.786C32.3902 342.806 32.0262 342.19 31.1582 342.19C30.3182 342.19 29.7862 342.848 29.6462 343.786H32.3902ZM39.3949 341.574L39.0449 342.582C38.6809 342.442 38.2749 342.316 37.8129 342.316C36.5809 342.316 35.8389 343.24 35.8389 344.626C35.8389 346.376 36.5249 347.174 37.7849 347.174C38.2329 347.174 38.5969 347.02 38.9609 346.866L39.3389 347.776C38.7929 348.028 38.1909 348.154 37.5609 348.154C35.6849 348.154 34.7189 346.81 34.7189 344.808C34.7189 342.4 36.2029 341.294 37.8689 341.294C38.4429 341.294 38.9329 341.392 39.3949 341.574ZM46.1024 347.93L44.9964 348.112L44.8844 347.356H44.8704C44.3804 347.818 43.7364 348.154 42.9244 348.154C41.8184 348.154 40.9364 347.44 40.9364 346.096V342.96L40.7404 341.518L42.0564 341.336V345.704C42.0564 346.67 42.4204 347.174 43.3024 347.174C43.9324 347.174 44.3804 346.908 44.7864 346.53V342.96L44.5904 341.518L45.9064 341.336V346.488L46.1024 347.93ZM51.4175 347.734C51.0115 347.958 50.6335 348.14 49.9195 348.14C48.9115 348.14 48.2675 347.482 48.2675 346.362V342.358H47.3015V341.616L48.2675 341.42V340.328L49.3735 340.188V341.448H51.2075V342.358H49.3735V345.984C49.3735 346.866 49.5975 347.146 50.2415 347.146C50.5915 347.146 50.8575 347.006 51.0535 346.88L51.4175 347.734ZM57.2716 347.65C56.6416 348 55.9976 348.154 55.1996 348.154C53.2676 348.154 52.2736 346.852 52.2736 344.682C52.2736 342.652 53.3376 341.294 54.9896 341.294C56.5716 341.294 57.2156 342.344 57.2156 343.786V344.57H53.3656C53.3796 346.32 54.0096 347.16 55.4376 347.16C55.9836 347.16 56.4036 347.006 56.8796 346.768L57.2716 347.65ZM56.1656 343.786C56.1656 342.806 55.8016 342.19 54.9336 342.19C54.0936 342.19 53.5616 342.848 53.4216 343.786H56.1656ZM67.0337 344.724C67.0337 346.642 66.1237 348.154 64.2337 348.154C62.1617 348.154 61.4337 346.684 61.4337 344.724C61.4337 342.806 62.3437 341.294 64.2337 341.294C66.3057 341.294 67.0337 342.764 67.0337 344.724ZM65.8857 344.752C65.8857 343.128 65.3397 342.274 64.2337 342.274C63.1557 342.274 62.5817 343.03 62.5817 344.682C62.5817 346.306 63.1277 347.174 64.2337 347.174C65.3117 347.174 65.8857 346.404 65.8857 344.752ZM73.7834 348H72.6634V343.744C72.6634 342.778 72.2994 342.288 71.4174 342.288C70.7874 342.288 70.3394 342.554 69.9334 342.918V348H68.8134V342.96L68.6174 341.518L69.7234 341.336L69.8354 342.106H69.8494C70.3394 341.63 70.9834 341.294 71.7954 341.294C72.9014 341.294 73.7834 342.008 73.7834 343.352V348Z" fill="#00157E" fill-opacity="0.7"/>
<path d="M16 364C16 361.791 17.7909 360 20 360H355C357.209 360 359 361.791 359 364V396C359 398.209 357.209 400 355 400H20C17.7909 400 16 398.209 16 396V364Z" fill="white"/>
<path d="M20 360.5H355C356.933 360.5 358.5 362.067 358.5 364V396C358.5 397.933 356.933 399.5 355 399.5H20C18.067 399.5 16.5 397.933 16.5 396V364C16.5 362.067 18.067 360.5 20 360.5Z" stroke="#00157E" stroke-opacity="0.7"/>
<path d="M34.3333 384.36C34.3333 386.28 33.1013 387.496 30.9893 387.496C30.3653 387.496 29.7093 387.384 29.1173 387.24L29.4053 386.04C29.9333 386.2 30.3813 386.328 31.0213 386.328C32.2853 386.328 33.0533 385.704 33.0533 384.552C33.0533 382.984 31.6133 382.376 29.5813 382.376V381.464C31.9493 381.32 32.6053 380.264 32.6053 379.224C32.6053 378.312 32.0453 377.8 31.1493 377.8C30.4133 377.8 29.9813 378.04 29.5013 378.36L28.9733 377.48C29.5493 377.032 30.2853 376.664 31.4053 376.664C32.9413 376.664 33.8853 377.576 33.8853 379.064C33.8853 380.36 33.1333 381.224 32.0613 381.736V381.752C33.6293 382.088 34.3333 383.128 34.3333 384.36ZM38.3671 385H37.1031V377.928L35.6951 378.12L35.5511 377.144L38.3671 376.696V385ZM42.4004 384.184C42.4004 384.696 41.9844 385.112 41.4884 385.112C40.9764 385.112 40.5604 384.696 40.5604 384.184C40.5604 383.688 40.9764 383.272 41.4884 383.272C41.9844 383.272 42.4004 383.688 42.4004 384.184ZM50.6807 380.92C50.6807 383.048 49.8487 385.176 47.4327 385.176C45.0007 385.176 44.1687 383.048 44.1687 380.92C44.1687 378.792 45.0007 376.664 47.4327 376.664C49.8487 376.664 50.6807 378.792 50.6807 380.92ZM49.3687 380.92C49.3687 379.128 48.7767 377.784 47.4327 377.784C46.0727 377.784 45.4807 379.128 45.4807 380.92C45.4807 382.712 46.0727 384.056 47.4327 384.056C48.7767 384.056 49.3687 382.712 49.3687 380.92ZM57.5871 383.56C57.5871 386.632 54.6911 387.496 52.6271 387.656L52.4671 386.568C53.9231 386.408 56.2751 385.832 56.2751 383.736C56.2751 382.424 55.5391 381.656 53.4911 381.656H52.4191L52.7711 376.84H57.3311V378.008H53.8751L53.6671 380.696C53.6671 380.696 54.0351 380.664 54.3711 380.664C56.2271 380.664 57.5871 381.64 57.5871 383.56ZM61.0567 384.184C61.0567 384.696 60.6407 385.112 60.1447 385.112C59.6327 385.112 59.2167 384.696 59.2167 384.184C59.2167 383.688 59.6327 383.272 60.1447 383.272C60.6407 383.272 61.0567 383.688 61.0567 384.184ZM68.5369 385H62.6009V384.168L65.3369 381.544C66.0729 380.824 66.6329 380.296 66.6329 379.416C66.6329 378.488 66.0569 377.8 64.9849 377.8C64.2649 377.8 63.7529 378.12 63.3689 378.44L62.7609 377.592C63.4489 377.016 64.1529 376.664 65.2569 376.664C66.8409 376.664 67.9289 377.592 67.9289 379.272C67.9289 380.392 67.2569 381.24 66.4889 381.944L64.4409 383.832V383.848H68.5369V385ZM76.3994 380.92C76.3994 383.048 75.5674 385.176 73.1514 385.176C70.7194 385.176 69.8874 383.048 69.8874 380.92C69.8874 378.792 70.7194 376.664 73.1514 376.664C75.5674 376.664 76.3994 378.792 76.3994 380.92ZM75.0874 380.92C75.0874 379.128 74.4954 377.784 73.1514 377.784C71.7914 377.784 71.1994 379.128 71.1994 380.92C71.1994 382.712 71.7914 384.056 73.1514 384.056C74.4954 384.056 75.0874 382.712 75.0874 380.92ZM83.6463 385H77.7103V384.168L80.4463 381.544C81.1823 380.824 81.7423 380.296 81.7423 379.416C81.7423 378.488 81.1663 377.8 80.0943 377.8C79.3743 377.8 78.8623 378.12 78.4783 378.44L77.8703 377.592C78.5583 377.016 79.2623 376.664 80.3663 376.664C81.9503 376.664 83.0383 377.592 83.0383 379.272C83.0383 380.392 82.3663 381.24 81.5983 381.944L79.5503 383.832V383.848H83.6463V385ZM90.9008 382.072C90.9008 383.96 89.7808 385.176 87.9728 385.176C85.9248 385.176 85.0608 383.656 85.0608 381.4C85.0608 377.048 87.6208 375.256 90.4048 375.032L90.5648 376.088C88.6448 376.296 86.7248 377.336 86.3568 380.008L86.3728 380.024C86.3728 380.024 87.1888 379.32 88.2928 379.32C89.9728 379.32 90.9008 380.392 90.9008 382.072ZM89.6368 382.328C89.6368 380.968 89.1088 380.392 87.9408 380.392C87.0288 380.392 86.3568 381.032 86.3568 381.032V381.336C86.3568 383.128 86.8208 384.12 88.0848 384.12C89.1408 384.12 89.6368 383.368 89.6368 382.328Z" fill="#00157E"/>
<path d="M342 372H328C326.895 372 326 372.895 326 374V388C326 389.105 326.895 390 328 390H342C343.105 390 344 389.105 344 388V374C344 372.895 343.105 372 342 372Z" stroke="#00157E" stroke-width="2" stroke-linecap="round" stroke-linejoin="round"/>
<path d="M339 370V374" stroke="#00157E" stroke-width="2" stroke-linecap="round" stroke-linejoin="round"/>
<path d="M331 370V374" stroke="#00157E" stroke-width="2" stroke-linecap="round" stroke-linejoin="round"/>
<path d="M326 378H344" stroke="#00157E" stroke-width="2" stroke-linecap="round" stroke-linejoin="round"/>
</g>
<rect width="375" height="64" transform="translate(0 748)" fill="white"/>
<path d="M20 760.5H355C356.933 760.5 358.5 762.067 358.5 764V796C358.5 797.933 356.933 799.5 355 799.5H20C18.067 799.5 16.5 797.933 16.5 796V764C16.5 762.067 18.067 760.5 20 760.5Z" fill="#00157E"/>
<path d="M20 760.5H355C356.933 760.5 358.5 762.067 358.5 764V796C358.5 797.933 356.933 799.5 355 799.5H20C18.067 799.5 16.5 797.933 16.5 796V764C16.5 762.067 18.067 760.5 20 760.5Z" stroke="#00157E"/>
<path d="M170.733 784.504C169.837 784.968 168.925 785.176 167.709 785.176C165.357 785.176 163.549 783.592 163.549 780.392C163.549 776.984 165.565 775.192 168.157 775.192C169.229 775.192 169.885 775.352 170.701 775.704L170.189 776.872C169.581 776.6 169.005 776.392 168.141 776.392C166.461 776.392 164.925 777.688 164.925 780.056C164.925 782.696 165.901 783.992 168.237 783.992C169.005 783.992 169.709 783.688 170.285 783.432L170.733 784.504ZM177.949 781.256C177.949 783.448 176.909 785.176 174.749 785.176C172.381 785.176 171.549 783.496 171.549 781.256C171.549 779.064 172.589 777.336 174.749 777.336C177.117 777.336 177.949 779.016 177.949 781.256ZM176.637 781.288C176.637 779.432 176.013 778.456 174.749 778.456C173.517 778.456 172.861 779.32 172.861 781.208C172.861 783.064 173.485 784.056 174.749 784.056C175.981 784.056 176.637 783.176 176.637 781.288ZM185.663 785H184.383V780.136C184.383 779.032 183.967 778.472 182.959 778.472C182.239 778.472 181.727 778.776 181.263 779.192V785H179.983V779.24L179.759 777.592L181.023 777.384L181.151 778.264H181.167C181.727 777.72 182.463 777.336 183.391 777.336C184.655 777.336 185.663 778.152 185.663 779.688V785ZM193.402 785H192.138V778.552H189.594V785H188.33V778.552H187.226V777.704L188.33 777.48V776.888C188.33 775.272 189.354 774.088 191.178 774.088C192.01 774.088 192.538 774.344 192.922 774.552L192.458 775.576C192.266 775.448 191.786 775.176 191.178 775.176C190.01 775.176 189.594 775.832 189.594 776.744V777.512H193.402V785ZM199.328 778.616C198.464 778.616 197.824 778.84 197.248 779.368V785H195.968V779.24L195.743 777.592L197.008 777.384L197.136 778.408H197.152C197.664 777.832 198.336 777.352 199.328 777.352V778.616ZM210.953 785H209.689V780.136C209.689 779.032 209.273 778.472 208.249 778.472C207.529 778.472 206.921 778.824 206.521 779.224C206.521 779.224 206.569 779.496 206.569 779.784V785H205.289V780.136C205.289 779.032 204.873 778.472 203.865 778.472C203.145 778.472 202.633 778.76 202.169 779.192V785H200.889V779.24L200.665 777.592L201.929 777.384L202.057 778.264H202.073C202.633 777.72 203.369 777.336 204.297 777.336C205.161 777.336 205.881 777.72 206.265 778.408H206.281C206.873 777.816 207.641 777.336 208.697 777.336C209.977 777.336 210.953 778.152 210.953 779.688V785Z" fill="white"/>
</g>
<defs>
<clipPath id="clip0_417_80167">
<rect width="375" height="812" fill="white"/>
</clipPath>
<clipPath id="clip1_417_80167">
<rect width="375" height="642" fill="white" transform="translate(0 106)"/>
</clipPath>
</defs>
</svg>
