<svg width="375" height="812" viewBox="0 0 375 812" fill="none" xmlns="http://www.w3.org/2000/svg">
<g clip-path="url(#clip0_697_92435)">
<rect width="375" height="812" fill="white"/>
<path d="M343.99 22.17H357.993C359.556 22.17 360.823 23.4372 360.823 25.0001V29.673C360.823 31.2359 359.556 32.5031 357.993 32.5031H343.99C342.427 32.5031 341.16 31.2359 341.16 29.673V25.0001C341.16 23.4372 342.427 22.17 343.99 22.17Z" stroke="#00157E"/>
<path d="M362.33 25.3367V29.3367C363.135 28.9979 363.658 28.2098 363.658 27.3367C363.658 26.4635 363.135 25.6754 362.33 25.3367" fill="#00157E"/>
<rect x="342.66" y="23.67" width="16.66" height="7.33333" rx="1.33333" fill="#00157E"/>
<path d="M325.427 30.0606C326.702 28.9817 328.571 28.9817 329.847 30.0606C329.911 30.1186 329.947 30.2008 329.949 30.2872C329.951 30.3736 329.917 30.4571 329.855 30.5176L327.858 32.5333C327.8 32.5925 327.72 32.626 327.637 32.626C327.553 32.626 327.474 32.5924 327.415 32.5333L325.417 30.5176C325.355 30.457 325.321 30.3735 325.323 30.2872C325.325 30.2007 325.363 30.1186 325.427 30.0606ZM322.762 27.3711C325.51 24.8151 329.766 24.8152 332.514 27.3711C332.576 27.431 332.611 27.5135 332.612 27.5997C332.613 27.6858 332.579 27.769 332.519 27.8301L331.364 28.9971C331.245 29.1162 331.053 29.1189 330.931 29.003C330.028 28.1858 328.854 27.7334 327.637 27.7335C326.42 27.734 325.247 28.1863 324.345 29.003C324.223 29.1188 324.03 29.1162 323.911 28.9971L322.757 27.8301C322.696 27.7691 322.662 27.6858 322.663 27.5997C322.664 27.5135 322.7 27.431 322.762 27.3711ZM320.097 24.6895C324.312 20.6503 330.962 20.6501 335.177 24.6895C335.238 24.7494 335.272 24.8316 335.272 24.917C335.273 25.0026 335.239 25.0848 335.179 25.1456L334.022 26.3126C333.903 26.432 333.711 26.4333 333.59 26.3155C331.984 24.7888 329.853 23.9377 327.637 23.9376C325.421 23.9375 323.289 24.7886 321.683 26.3155C321.562 26.4335 321.369 26.4323 321.25 26.3126L320.094 25.1456C320.033 25.0848 319.999 25.0026 320 24.917C320.001 24.8315 320.036 24.7494 320.097 24.6895Z" fill="#00157E"/>
<path d="M299.66 28.667C300.212 28.667 300.66 29.1147 300.66 29.667V31.667C300.66 32.2191 300.212 32.667 299.66 32.667H298.66C298.108 32.667 297.66 32.2191 297.66 31.667V29.667C297.66 29.1147 298.108 28.667 298.66 28.667H299.66ZM304.327 26.667C304.879 26.6672 305.327 27.1148 305.327 27.667V31.667C305.327 32.219 304.879 32.6668 304.327 32.667H303.327C302.775 32.667 302.327 32.2191 302.327 31.667V27.667C302.327 27.1147 302.775 26.667 303.327 26.667H304.327ZM308.993 24.333C309.545 24.333 309.993 24.7809 309.993 25.333V31.667C309.993 32.2191 309.545 32.667 308.993 32.667H307.993C307.441 32.6668 306.993 32.219 306.993 31.667V25.333C306.993 24.781 307.441 24.3332 307.993 24.333H308.993ZM313.66 22C314.212 22 314.66 22.4477 314.66 23V31.667C314.66 32.2191 314.212 32.667 313.66 32.667H312.66C312.108 32.667 311.66 32.2191 311.66 31.667V23C311.66 22.4477 312.108 22 312.66 22H313.66Z" fill="#00157E"/>
<path d="M32.1846 21.9175C34.4405 21.9175 36.4034 23.5215 36.4034 27.3301V27.3447C36.4034 30.9043 34.7994 33.0137 32.1407 33.0137C30.1998 33.0137 28.7496 31.8638 28.4127 30.2451L28.398 30.1646H30.2584L30.2804 30.2378C30.5587 30.9775 31.2105 31.4609 32.1407 31.4609C33.8179 31.4609 34.5284 29.8203 34.609 27.7988C34.609 27.7183 34.6163 27.6377 34.6163 27.5571H34.4698C34.0816 28.3921 33.1588 29.1318 31.7086 29.1318C29.6798 29.1318 28.2589 27.6523 28.2589 25.6455V25.6309C28.2589 23.4849 29.8922 21.9175 32.1846 21.9175ZM32.1773 27.6816C33.3712 27.6816 34.2867 26.8174 34.2867 25.6235V25.6089C34.2867 24.4004 33.3712 23.4556 32.1993 23.4556C31.0347 23.4556 30.1046 24.3857 30.1046 25.5649V25.5796C30.1046 26.8027 30.9762 27.6816 32.1773 27.6816ZM39.4486 25.9019C38.7821 25.9019 38.284 25.3892 38.284 24.7446C38.284 24.0928 38.7821 23.5874 39.4486 23.5874C40.1224 23.5874 40.6131 24.0928 40.6131 24.7446C40.6131 25.3892 40.1224 25.9019 39.4486 25.9019ZM39.4486 31.3364C38.7821 31.3364 38.284 30.8311 38.284 30.1792C38.284 29.5273 38.7821 29.022 39.4486 29.022C40.1224 29.022 40.6131 29.5273 40.6131 30.1792C40.6131 30.8311 40.1224 31.3364 39.4486 31.3364ZM47.6207 32.75V30.7212H42.4498V29.1758C43.8195 26.7954 45.3209 24.3638 46.7565 22.1812H49.4298V29.1611H50.8507V30.7212H49.4298V32.75H47.6207ZM44.2077 29.2051H47.65V23.6899H47.5402C46.4562 25.3452 45.233 27.3008 44.2077 29.0952V29.2051ZM54.9506 32.75V24.0415H54.8261L52.1967 25.9019V24.1221L54.9579 22.1812H56.8403V32.75H54.9506Z" fill="#00157E"/>
<path d="M35 77.9292H21" stroke="#00157E" stroke-width="2" stroke-linecap="round" stroke-linejoin="round"/>
<path d="M28 84.9292L21 77.9292L28 70.9292" stroke="#00157E" stroke-width="2" stroke-linecap="round" stroke-linejoin="round"/>
<path d="M157.467 80.18C157.467 82.48 155.807 84.24 153.267 84.24C151.847 84.24 150.707 83.98 149.527 83.42L150.387 81.16C151.187 81.56 152.107 81.9 153.047 81.9C154.147 81.9 154.807 81.52 154.807 80.7C154.807 79.98 154.307 79.72 153.447 79.34L151.927 78.68C150.587 78.1 149.587 77.24 149.587 75.36C149.587 73.06 151.607 71.72 153.807 71.72C155.127 71.72 155.987 72 157.047 72.44L156.167 74.64C155.547 74.34 154.787 74 153.947 74C152.967 74 152.207 74.36 152.207 75.18C152.207 75.86 152.707 76.14 153.487 76.46L154.967 77.08C156.447 77.7 157.467 78.66 157.467 80.18ZM167.665 83.86L165.225 84.18L165.085 83.16H165.065C164.505 83.7 163.565 84.24 162.305 84.24C160.685 84.24 159.365 83.28 159.365 81.16V77L159.045 74.66L161.905 74.34V80.54C161.905 81.56 162.325 82.02 163.205 82.02C163.865 82.02 164.425 81.72 164.805 81.34V77L164.485 74.66L167.345 74.34V81.52L167.665 83.86ZM183.293 84H180.773V78C180.773 76.98 180.333 76.52 179.433 76.52C178.793 76.52 178.173 76.86 177.833 77.22C177.833 77.22 177.873 77.54 177.873 77.82V84H175.333V78C175.333 76.98 174.913 76.52 174.013 76.52C173.353 76.52 172.793 76.82 172.433 77.18V84H169.893V77L169.573 74.66L172.013 74.34L172.133 75.38H172.153C172.713 74.82 173.693 74.3 174.933 74.3C176.053 74.3 176.913 74.76 177.413 75.54H177.433C178.133 74.82 179.133 74.3 180.373 74.3C182.033 74.3 183.293 75.24 183.293 77.38V84ZM199.211 84H196.691V78C196.691 76.98 196.251 76.52 195.351 76.52C194.711 76.52 194.091 76.86 193.751 77.22C193.751 77.22 193.791 77.54 193.791 77.82V84H191.251V78C191.251 76.98 190.831 76.52 189.931 76.52C189.271 76.52 188.711 76.82 188.351 77.18V84H185.811V77L185.491 74.66L187.931 74.34L188.051 75.38H188.071C188.631 74.82 189.611 74.3 190.851 74.3C191.971 74.3 192.831 74.76 193.331 75.54H193.351C194.051 74.82 195.051 74.3 196.291 74.3C197.951 74.3 199.211 75.24 199.211 77.38V84ZM208.569 83.86L206.129 84.18L206.009 83.14H205.989C205.429 83.64 204.689 84.24 203.609 84.24C202.129 84.24 201.149 83.32 201.149 81.74C201.149 79.94 202.489 79.12 204.429 78.92L205.749 78.78V78.14C205.749 77.18 205.349 76.52 204.149 76.52C203.409 76.52 202.909 76.74 202.369 77.04L201.449 75.32C202.389 74.7 203.289 74.3 204.729 74.3C207.029 74.3 208.249 75.54 208.249 77.56V81.52L208.569 83.86ZM205.749 81.96V80.22L204.889 80.32C204.109 80.42 203.609 80.74 203.609 81.4C203.609 81.98 203.949 82.42 204.549 82.42C205.129 82.42 205.469 82.2 205.749 81.96ZM215.951 76.62C214.791 76.62 214.031 76.82 213.351 77.58V84H210.811V77L210.491 74.66L212.931 74.34L213.091 75.68H213.111C213.651 74.96 214.471 74.3 215.951 74.3V76.62ZM225.586 74.54L222.666 82.76C221.306 86.62 219.286 87.76 216.066 88.24L215.606 86.14C217.286 85.88 219.126 84.96 219.786 83.64L216.486 74.82L218.966 74.2L221.106 80.64H221.126L223.126 74.54H225.586Z" fill="#00157E"/>
<path d="M353 71.9292L341 83.9292" stroke="#00157E" stroke-width="2" stroke-linecap="round" stroke-linejoin="round"/>
<path d="M341 71.9292L353 83.9292" stroke="#00157E" stroke-width="2" stroke-linecap="round" stroke-linejoin="round"/>
<g clip-path="url(#clip1_697_92435)">
<path d="M23.154 133.86L22.006 134.182L21.11 131.27H18.366L17.512 134H16.28L19.206 125.572H20.41L23.154 133.86ZM20.858 130.43L19.766 126.79H19.752L18.618 130.43H20.858ZM33.3362 134H32.2302V129.744C32.2302 128.778 31.8662 128.288 30.9702 128.288C30.3402 128.288 29.8082 128.596 29.4582 128.946C29.4582 128.946 29.5002 129.184 29.5002 129.436V134H28.3802V129.744C28.3802 128.778 28.0162 128.288 27.1342 128.288C26.5042 128.288 26.0562 128.54 25.6502 128.918V134H24.5302V128.96L24.3342 127.518L25.4402 127.336L25.5522 128.106H25.5662C26.0562 127.63 26.7002 127.294 27.5122 127.294C28.2682 127.294 28.8982 127.63 29.2342 128.232H29.2482C29.7662 127.714 30.4382 127.294 31.3622 127.294C32.4822 127.294 33.3362 128.008 33.3362 129.352V134ZM40.7154 130.724C40.7154 132.642 39.8054 134.154 37.9154 134.154C35.8434 134.154 35.1154 132.684 35.1154 130.724C35.1154 128.806 36.0254 127.294 37.9154 127.294C39.9874 127.294 40.7154 128.764 40.7154 130.724ZM39.5674 130.752C39.5674 129.128 39.0214 128.274 37.9154 128.274C36.8374 128.274 36.2634 129.03 36.2634 130.682C36.2634 132.306 36.8094 133.174 37.9154 133.174C38.9934 133.174 39.5674 132.404 39.5674 130.752ZM47.661 133.93L46.555 134.112L46.443 133.356H46.429C45.939 133.818 45.295 134.154 44.483 134.154C43.377 134.154 42.495 133.44 42.495 132.096V128.96L42.299 127.518L43.615 127.336V131.704C43.615 132.67 43.979 133.174 44.861 133.174C45.491 133.174 45.939 132.908 46.345 132.53V128.96L46.149 127.518L47.465 127.336V132.488L47.661 133.93ZM54.6701 134H53.5501V129.744C53.5501 128.778 53.1861 128.288 52.3041 128.288C51.6741 128.288 51.2261 128.554 50.8201 128.918V134H49.7001V128.96L49.5041 127.518L50.6101 127.336L50.7221 128.106H50.7361C51.2261 127.63 51.8701 127.294 52.6821 127.294C53.7881 127.294 54.6701 128.008 54.6701 129.352V134ZM60.1538 133.734C59.7478 133.958 59.3698 134.14 58.6558 134.14C57.6478 134.14 57.0038 133.482 57.0038 132.362V128.358H56.0378V127.616L57.0038 127.42V126.328L58.1098 126.188V127.448H59.9438V128.358H58.1098V131.984C58.1098 132.866 58.3338 133.146 58.9778 133.146C59.3278 133.146 59.5938 133.006 59.7898 132.88L60.1538 133.734Z" fill="#00157E" fill-opacity="0.7"/>
<mask id="path-15-inside-1_697_92435" fill="white">
<path d="M16 146H359V186H16V146Z"/>
</mask>
<path d="M359 186V185H16V186V187H359V186Z" fill="#00157E" fill-opacity="0.2" mask="url(#path-15-inside-1_697_92435)"/>
<path d="M24.242 170.504C23.346 170.968 22.434 171.176 21.218 171.176C18.866 171.176 17.058 169.592 17.058 166.392C17.058 162.984 19.074 161.192 21.666 161.192C22.738 161.192 23.394 161.352 24.21 161.704L23.698 162.872C23.09 162.6 22.514 162.392 21.65 162.392C19.97 162.392 18.434 163.688 18.434 166.056C18.434 168.696 19.41 169.992 21.746 169.992C22.514 169.992 23.218 169.688 23.794 169.432L24.242 170.504ZM32.9389 171H31.5949V166.6H27.2589V171H25.9149V161.368H27.2589V165.464H31.5949V161.368H32.9389V171ZM40.3864 162.504H36.9304V165.64H40.0504V166.776H36.9304V171H35.6024V161.368H40.3864V162.504Z" fill="#00157E"/>
<path d="M64.9614 170.2C64.9614 174.04 61.3414 175.12 58.7614 175.32L58.5614 173.96C60.3814 173.76 63.3214 173.04 63.3214 170.42C63.3214 168.78 62.4014 167.82 59.8414 167.82H58.5014L58.9414 161.8H64.6414V163.26H60.3214L60.0614 166.62C60.0614 166.62 60.5214 166.58 60.9414 166.58C63.2614 166.58 64.9614 167.8 64.9614 170.2ZM75.0784 166.9C75.0784 169.56 74.0384 172.22 71.0184 172.22C67.9784 172.22 66.9384 169.56 66.9384 166.9C66.9384 164.24 67.9784 161.58 71.0184 161.58C74.0384 161.58 75.0784 164.24 75.0784 166.9ZM73.4384 166.9C73.4384 164.66 72.6984 162.98 71.0184 162.98C69.3184 162.98 68.5784 164.66 68.5784 166.9C68.5784 169.14 69.3184 170.82 71.0184 170.82C72.6984 170.82 73.4384 169.14 73.4384 166.9ZM85.3714 166.9C85.3714 169.56 84.3314 172.22 81.3114 172.22C78.2714 172.22 77.2314 169.56 77.2314 166.9C77.2314 164.24 78.2714 161.58 81.3114 161.58C84.3314 161.58 85.3714 164.24 85.3714 166.9ZM83.7314 166.9C83.7314 164.66 82.9914 162.98 81.3114 162.98C79.6114 162.98 78.8714 164.66 78.8714 166.9C78.8714 169.14 79.6114 170.82 81.3114 170.82C82.9914 170.82 83.7314 169.14 83.7314 166.9ZM89.8843 170.98C89.8843 171.62 89.3643 172.14 88.7443 172.14C88.1043 172.14 87.5843 171.62 87.5843 170.98C87.5843 170.36 88.1043 169.84 88.7443 169.84C89.3643 169.84 89.8843 170.36 89.8843 170.98ZM100.235 166.9C100.235 169.56 99.1946 172.22 96.1746 172.22C93.1346 172.22 92.0946 169.56 92.0946 166.9C92.0946 164.24 93.1346 161.58 96.1746 161.58C99.1946 161.58 100.235 164.24 100.235 166.9ZM98.5946 166.9C98.5946 164.66 97.8546 162.98 96.1746 162.98C94.4746 162.98 93.7346 164.66 93.7346 166.9C93.7346 169.14 94.4746 170.82 96.1746 170.82C97.8546 170.82 98.5946 169.14 98.5946 166.9ZM110.528 166.9C110.528 169.56 109.488 172.22 106.468 172.22C103.428 172.22 102.388 169.56 102.388 166.9C102.388 164.24 103.428 161.58 106.468 161.58C109.488 161.58 110.528 164.24 110.528 166.9ZM108.888 166.9C108.888 164.66 108.148 162.98 106.468 162.98C104.768 162.98 104.028 164.66 104.028 166.9C104.028 169.14 104.768 170.82 106.468 170.82C108.148 170.82 108.888 169.14 108.888 166.9Z" fill="#00157E"/>
<path d="M346.999 157L351.999 162L338.999 175H333.999V170L346.999 157Z" stroke="#00157E" stroke-width="2" stroke-linecap="round" stroke-linejoin="round"/>
<path d="M21.488 238H17.162V229.572H21.348V230.566H18.324V233.156H21.054V234.136H18.324V237.006H21.488V238ZM27.7413 237.706L26.7893 238.238L24.9693 235.438H24.9553L23.3173 238H22.1413L24.4233 234.598L22.4633 231.742L23.4013 231.21L25.0253 233.674H25.0393L26.4393 231.448H27.6293L25.5573 234.5L27.7413 237.706ZM33.4962 237.65C32.8662 238 32.2222 238.154 31.4242 238.154C29.4922 238.154 28.4982 236.852 28.4982 234.682C28.4982 232.652 29.5622 231.294 31.2142 231.294C32.7962 231.294 33.4402 232.344 33.4402 233.786V234.57H29.5902C29.6042 236.32 30.2342 237.16 31.6622 237.16C32.2082 237.16 32.6282 237.006 33.1042 236.768L33.4962 237.65ZM32.3902 233.786C32.3902 232.806 32.0262 232.19 31.1582 232.19C30.3182 232.19 29.7862 232.848 29.6462 233.786H32.3902ZM39.3949 231.574L39.0449 232.582C38.6809 232.442 38.2749 232.316 37.8129 232.316C36.5809 232.316 35.8389 233.24 35.8389 234.626C35.8389 236.376 36.5249 237.174 37.7849 237.174C38.2329 237.174 38.5969 237.02 38.9609 236.866L39.3389 237.776C38.7929 238.028 38.1909 238.154 37.5609 238.154C35.6849 238.154 34.7189 236.81 34.7189 234.808C34.7189 232.4 36.2029 231.294 37.8689 231.294C38.4429 231.294 38.9329 231.392 39.3949 231.574ZM46.1024 237.93L44.9964 238.112L44.8844 237.356H44.8704C44.3804 237.818 43.7364 238.154 42.9244 238.154C41.8184 238.154 40.9364 237.44 40.9364 236.096V232.96L40.7404 231.518L42.0564 231.336V235.704C42.0564 236.67 42.4204 237.174 43.3024 237.174C43.9324 237.174 44.3804 236.908 44.7864 236.53V232.96L44.5904 231.518L45.9064 231.336V236.488L46.1024 237.93ZM51.4175 237.734C51.0115 237.958 50.6335 238.14 49.9195 238.14C48.9115 238.14 48.2675 237.482 48.2675 236.362V232.358H47.3015V231.616L48.2675 231.42V230.328L49.3735 230.188V231.448H51.2075V232.358H49.3735V235.984C49.3735 236.866 49.5975 237.146 50.2415 237.146C50.5915 237.146 50.8575 237.006 51.0535 236.88L51.4175 237.734ZM57.2716 237.65C56.6416 238 55.9976 238.154 55.1996 238.154C53.2676 238.154 52.2736 236.852 52.2736 234.682C52.2736 232.652 53.3376 231.294 54.9896 231.294C56.5716 231.294 57.2156 232.344 57.2156 233.786V234.57H53.3656C53.3796 236.32 54.0096 237.16 55.4376 237.16C55.9836 237.16 56.4036 237.006 56.8796 236.768L57.2716 237.65ZM56.1656 233.786C56.1656 232.806 55.8016 232.19 54.9336 232.19C54.0936 232.19 53.5616 232.848 53.4216 233.786H56.1656ZM67.0337 234.724C67.0337 236.642 66.1237 238.154 64.2337 238.154C62.1617 238.154 61.4337 236.684 61.4337 234.724C61.4337 232.806 62.3437 231.294 64.2337 231.294C66.3057 231.294 67.0337 232.764 67.0337 234.724ZM65.8857 234.752C65.8857 233.128 65.3397 232.274 64.2337 232.274C63.1557 232.274 62.5817 233.03 62.5817 234.682C62.5817 236.306 63.1277 237.174 64.2337 237.174C65.3117 237.174 65.8857 236.404 65.8857 234.752ZM73.7834 238H72.6634V233.744C72.6634 232.778 72.2994 232.288 71.4174 232.288C70.7874 232.288 70.3394 232.554 69.9334 232.918V238H68.8134V232.96L68.6174 231.518L69.7234 231.336L69.8354 232.106H69.8494C70.3394 231.63 70.9834 231.294 71.7954 231.294C72.9014 231.294 73.7834 232.008 73.7834 233.352V238Z" fill="#00157E" fill-opacity="0.7"/>
<mask id="path-22-inside-2_697_92435" fill="white">
<path d="M16 250H359V290H16V250Z"/>
</mask>
<path d="M359 290V289H16V290V291H359V290Z" fill="#00157E" fill-opacity="0.2" mask="url(#path-22-inside-2_697_92435)"/>
<path d="M22.3343 274.36C22.3343 276.28 21.1023 277.496 18.9903 277.496C18.3663 277.496 17.7103 277.384 17.1183 277.24L17.4063 276.04C17.9343 276.2 18.3823 276.328 19.0223 276.328C20.2863 276.328 21.0543 275.704 21.0543 274.552C21.0543 272.984 19.6143 272.376 17.5823 272.376V271.464C19.9503 271.32 20.6063 270.264 20.6063 269.224C20.6063 268.312 20.0463 267.8 19.1503 267.8C18.4143 267.8 17.9823 268.04 17.5023 268.36L16.9743 267.48C17.5503 267.032 18.2863 266.664 19.4063 266.664C20.9423 266.664 21.8863 267.576 21.8863 269.064C21.8863 270.36 21.1343 271.224 20.0623 271.736V271.752C21.6303 272.088 22.3343 273.128 22.3343 274.36ZM26.368 275H25.104V267.928L23.696 268.12L23.552 267.144L26.368 266.696V275ZM30.4014 274.184C30.4014 274.696 29.9854 275.112 29.4894 275.112C28.9774 275.112 28.5614 274.696 28.5614 274.184C28.5614 273.688 28.9774 273.272 29.4894 273.272C29.9854 273.272 30.4014 273.688 30.4014 274.184ZM38.6817 270.92C38.6817 273.048 37.8497 275.176 35.4337 275.176C33.0017 275.176 32.1697 273.048 32.1697 270.92C32.1697 268.792 33.0017 266.664 35.4337 266.664C37.8497 266.664 38.6817 268.792 38.6817 270.92ZM37.3697 270.92C37.3697 269.128 36.7777 267.784 35.4337 267.784C34.0737 267.784 33.4817 269.128 33.4817 270.92C33.4817 272.712 34.0737 274.056 35.4337 274.056C36.7777 274.056 37.3697 272.712 37.3697 270.92ZM45.588 273.56C45.588 276.632 42.692 277.496 40.628 277.656L40.468 276.568C41.924 276.408 44.276 275.832 44.276 273.736C44.276 272.424 43.54 271.656 41.492 271.656H40.42L40.772 266.84H45.332V268.008H41.876L41.668 270.696C41.668 270.696 42.036 270.664 42.372 270.664C44.228 270.664 45.588 271.64 45.588 273.56ZM49.0577 274.184C49.0577 274.696 48.6417 275.112 48.1457 275.112C47.6337 275.112 47.2177 274.696 47.2177 274.184C47.2177 273.688 47.6337 273.272 48.1457 273.272C48.6417 273.272 49.0577 273.688 49.0577 274.184ZM56.5379 275H50.6019V274.168L53.3379 271.544C54.0739 270.824 54.6339 270.296 54.6339 269.416C54.6339 268.488 54.0579 267.8 52.9859 267.8C52.2659 267.8 51.7539 268.12 51.3699 268.44L50.7619 267.592C51.4499 267.016 52.1539 266.664 53.2579 266.664C54.8419 266.664 55.9299 267.592 55.9299 269.272C55.9299 270.392 55.2579 271.24 54.4899 271.944L52.4419 273.832V273.848H56.5379V275ZM64.4004 270.92C64.4004 273.048 63.5684 275.176 61.1524 275.176C58.7204 275.176 57.8884 273.048 57.8884 270.92C57.8884 268.792 58.7204 266.664 61.1524 266.664C63.5684 266.664 64.4004 268.792 64.4004 270.92ZM63.0884 270.92C63.0884 269.128 62.4964 267.784 61.1524 267.784C59.7924 267.784 59.2004 269.128 59.2004 270.92C59.2004 272.712 59.7924 274.056 61.1524 274.056C62.4964 274.056 63.0884 272.712 63.0884 270.92ZM71.6473 275H65.7113V274.168L68.4473 271.544C69.1833 270.824 69.7433 270.296 69.7433 269.416C69.7433 268.488 69.1673 267.8 68.0953 267.8C67.3753 267.8 66.8633 268.12 66.4793 268.44L65.8713 267.592C66.5593 267.016 67.2633 266.664 68.3673 266.664C69.9513 266.664 71.0393 267.592 71.0393 269.272C71.0393 270.392 70.3673 271.24 69.5993 271.944L67.5513 273.832V273.848H71.6473V275ZM78.9018 272.072C78.9018 273.96 77.7818 275.176 75.9738 275.176C73.9258 275.176 73.0618 273.656 73.0618 271.4C73.0618 267.048 75.6218 265.256 78.4058 265.032L78.5658 266.088C76.6458 266.296 74.7258 267.336 74.3578 270.008L74.3738 270.024C74.3738 270.024 75.1898 269.32 76.2938 269.32C77.9738 269.32 78.9018 270.392 78.9018 272.072ZM77.6378 272.328C77.6378 270.968 77.1098 270.392 75.9418 270.392C75.0298 270.392 74.3578 271.032 74.3578 271.032V271.336C74.3578 273.128 74.8218 274.12 76.0858 274.12C77.1418 274.12 77.6378 273.368 77.6378 272.328Z" fill="#00157E"/>
<path d="M346.999 261L351.999 266L338.999 279H333.999V274L346.999 261Z" stroke="#00157E" stroke-width="2" stroke-linecap="round" stroke-linejoin="round"/>
<path d="M22.553 341.734L21.517 342.238L19.151 338.402C18.941 338.43 18.745 338.444 18.535 338.444H18.325V342H17.163V333.642C17.163 333.642 18.227 333.488 19.319 333.488C20.943 333.488 21.965 334.272 21.965 335.602C21.965 336.89 21.223 337.688 20.229 338.08L22.553 341.734ZM20.831 335.812C20.831 334.804 20.131 334.37 19.123 334.37C18.675 334.37 18.325 334.412 18.325 334.412V337.59H18.507C19.641 337.59 20.831 337.114 20.831 335.812ZM28.4522 341.65C27.8222 342 27.1782 342.154 26.3802 342.154C24.4482 342.154 23.4542 340.852 23.4542 338.682C23.4542 336.652 24.5182 335.294 26.1702 335.294C27.7522 335.294 28.3962 336.344 28.3962 337.786V338.57H24.5462C24.5602 340.32 25.1902 341.16 26.6182 341.16C27.1642 341.16 27.5842 341.006 28.0602 340.768L28.4522 341.65ZM27.3462 337.786C27.3462 336.806 26.9822 336.19 26.1142 336.19C25.2742 336.19 24.7422 336.848 24.6022 337.786H27.3462ZM34.3509 335.574L34.0009 336.582C33.6369 336.442 33.2309 336.316 32.7689 336.316C31.5369 336.316 30.7949 337.24 30.7949 338.626C30.7949 340.376 31.4809 341.174 32.7409 341.174C33.1889 341.174 33.5529 341.02 33.9169 340.866L34.2949 341.776C33.7489 342.028 33.1469 342.154 32.5169 342.154C30.6409 342.154 29.6749 340.81 29.6749 338.808C29.6749 336.4 31.1589 335.294 32.8249 335.294C33.3989 335.294 33.8889 335.392 34.3509 335.574ZM37.0405 342H35.9205V336.96L35.7245 335.518L37.0405 335.336V342ZM37.2645 333.74C37.2645 334.188 36.9145 334.524 36.4945 334.524C36.0605 334.524 35.6965 334.188 35.6965 333.74C35.6965 333.292 36.0605 332.942 36.4945 332.942C36.9145 332.942 37.2645 333.292 37.2645 333.74ZM44.4351 338.402C44.4351 340.53 43.5111 342.07 41.3271 342.07C40.9631 342.07 40.6691 342.042 40.4031 341.972V344.772L39.2831 344.954V336.96L39.0871 335.518L40.1931 335.336L40.2911 336.008H40.3051C40.7391 335.644 41.3131 335.294 42.0691 335.294C43.6651 335.294 44.4351 336.498 44.4351 338.402ZM43.3151 338.724C43.3151 337.296 42.9931 336.302 41.6911 336.302C41.1311 336.302 40.7251 336.54 40.4031 336.806V340.936C40.6691 341.048 40.9771 341.118 41.4111 341.118C42.6291 341.118 43.3151 340.166 43.3151 338.724ZM47.3627 342H46.2427V336.96L46.0467 335.518L47.3627 335.336V342ZM47.5867 333.74C47.5867 334.188 47.2367 334.524 46.8167 334.524C46.3827 334.524 46.0187 334.188 46.0187 333.74C46.0187 333.292 46.3827 332.942 46.8167 332.942C47.2367 332.942 47.5867 333.292 47.5867 333.74ZM54.1554 341.65C53.5254 342 52.8814 342.154 52.0834 342.154C50.1514 342.154 49.1574 340.852 49.1574 338.682C49.1574 336.652 50.2214 335.294 51.8734 335.294C53.4554 335.294 54.0994 336.344 54.0994 337.786V338.57H50.2494C50.2634 340.32 50.8934 341.16 52.3214 341.16C52.8674 341.16 53.2874 341.006 53.7634 340.768L54.1554 341.65ZM53.0494 337.786C53.0494 336.806 52.6854 336.19 51.8174 336.19C50.9774 336.19 50.4454 336.848 50.3054 337.786H53.0494ZM60.7961 342H59.6761V337.744C59.6761 336.778 59.3121 336.288 58.4301 336.288C57.8001 336.288 57.3521 336.554 56.9461 336.918V342H55.8261V336.96L55.6301 335.518L56.7361 335.336L56.8481 336.106H56.8621C57.3521 335.63 57.9961 335.294 58.8081 335.294C59.9141 335.294 60.7961 336.008 60.7961 337.352V342ZM66.2798 341.734C65.8738 341.958 65.4958 342.14 64.7818 342.14C63.7738 342.14 63.1298 341.482 63.1298 340.362V336.358H62.1638V335.616L63.1298 335.42V334.328L64.2358 334.188V335.448H66.0698V336.358H64.2358V339.984C64.2358 340.866 64.4598 341.146 65.1038 341.146C65.4538 341.146 65.7198 341.006 65.9158 340.88L66.2798 341.734Z" fill="#00157E" fill-opacity="0.7"/>
<path d="M16 362C16 357.582 19.5817 354 24 354H351C355.418 354 359 357.582 359 362V414C359 418.418 355.418 422 351 422H24C19.5817 422 16 418.418 16 414V362Z" fill="white"/>
<path d="M24 354.5H351C355.142 354.5 358.5 357.858 358.5 362V414C358.5 418.142 355.142 421.5 351 421.5H24C19.8579 421.5 16.5 418.142 16.5 414V362C16.5 357.858 19.8579 354.5 24 354.5Z" stroke="#00157E" stroke-opacity="0.7"/>
<path d="M35 379L44 372L53 379V390C53 390.53 52.7893 391.039 52.4142 391.414C52.0391 391.789 51.5304 392 51 392H37C36.4696 392 35.9609 391.789 35.5858 391.414C35.2107 391.039 35 390.53 35 390V379Z" stroke="#00157E" stroke-width="2" stroke-linecap="round" stroke-linejoin="round"/>
<path d="M41 392V382H47V392" stroke="#00157E" stroke-width="2" stroke-linecap="round" stroke-linejoin="round"/>
<path d="M79.616 378H77.74V374.5H74.856V378H72.966V369.572H74.856V372.96H77.74V369.572H79.616V378ZM87.0399 374.668C87.0399 376.656 86.0039 378.154 84.0579 378.154C81.9579 378.154 81.0759 376.67 81.0759 374.668C81.0759 372.68 82.1119 371.224 84.0579 371.224C86.1579 371.224 87.0399 372.666 87.0399 374.668ZM85.2759 374.682C85.2759 373.324 84.8279 372.778 84.0579 372.778C83.2879 372.778 82.8399 373.296 82.8399 374.654C82.8399 375.998 83.2879 376.6 84.0579 376.6C84.8279 376.6 85.2759 376.026 85.2759 374.682ZM94.2373 377.902L92.5293 378.126L92.4313 377.412H92.4173C92.0253 377.79 91.3673 378.168 90.4853 378.168C89.3513 378.168 88.4273 377.496 88.4273 376.012V373.1L88.2033 371.462L90.2053 371.238V375.578C90.2053 376.292 90.4993 376.614 91.1153 376.614C91.5773 376.614 91.9693 376.404 92.2353 376.138V373.1L92.0113 371.462L94.0133 371.238V376.264L94.2373 377.902ZM100.01 375.872C100.01 377.146 98.9884 378.154 97.4484 378.154C96.6504 378.154 95.9364 378.028 95.3344 377.748L95.7964 376.292C96.3004 376.502 96.7904 376.712 97.3504 376.712C97.9524 376.712 98.2464 376.502 98.2464 376.152C98.2464 375.83 98.0924 375.704 97.7284 375.55L96.6924 375.116C96.0764 374.864 95.4044 374.402 95.4044 373.31C95.4044 371.938 96.5664 371.21 97.9524 371.21C98.7364 371.21 99.2684 371.336 99.8984 371.602L99.3524 373.03C98.9044 372.848 98.4704 372.666 97.9664 372.666C97.4204 372.666 97.1124 372.82 97.1124 373.184C97.1124 373.534 97.3924 373.66 97.6444 373.758L98.7224 374.192C99.5624 374.528 100.01 375.06 100.01 375.872ZM106.469 377.608C105.727 377.986 105.111 378.168 104.215 378.168C102.003 378.168 101.023 376.824 101.023 374.584C101.023 372.582 102.213 371.224 103.977 371.224C105.825 371.224 106.427 372.498 106.427 374.094V374.878H102.759C102.815 376.054 103.375 376.614 104.439 376.614C105.069 376.614 105.419 376.46 105.923 376.25L106.469 377.608ZM104.873 373.8C104.873 373.114 104.579 372.652 103.921 372.652C103.221 372.652 102.871 373.184 102.787 373.8H104.873ZM113.344 378H111.566V373.8C111.566 373.142 111.286 372.778 110.628 372.778C110.082 372.778 109.69 373.1 109.55 373.226V378H107.772V370.286L107.548 368.648L109.55 368.424V371.826H109.564C109.732 371.672 110.334 371.21 111.3 371.21C112.476 371.21 113.344 371.882 113.344 373.366V378ZM120.673 374.668C120.673 376.656 119.637 378.154 117.691 378.154C115.591 378.154 114.709 376.67 114.709 374.668C114.709 372.68 115.745 371.224 117.691 371.224C119.791 371.224 120.673 372.666 120.673 374.668ZM118.909 374.682C118.909 373.324 118.461 372.778 117.691 372.778C116.921 372.778 116.473 373.296 116.473 374.654C116.473 375.998 116.921 376.6 117.691 376.6C118.461 376.6 118.909 376.026 118.909 374.682ZM123.81 378H122.032V370.272L121.808 368.648L123.81 368.424V378ZM131.048 377.916L129.354 378.126L129.256 377.44H129.242C129.074 377.58 128.528 378.168 127.632 378.168C125.98 378.168 125.154 376.768 125.154 374.92C125.154 372.54 126.512 371.322 128.43 371.322C128.78 371.322 129.046 371.378 129.046 371.378V370.286L128.822 368.648L130.824 368.424V376.278L131.048 377.916ZM128.178 376.586C128.598 376.586 128.92 376.404 129.046 376.292V372.904C129.046 372.904 128.808 372.792 128.374 372.792C127.52 372.792 126.946 373.464 126.946 374.654C126.946 375.984 127.296 376.586 128.178 376.586Z" fill="#00157E"/>
<path d="M77.964 392.628C77.292 392.976 76.608 393.132 75.696 393.132C73.932 393.132 72.576 391.944 72.576 389.544C72.576 386.988 74.088 385.644 76.032 385.644C76.836 385.644 77.328 385.764 77.94 386.028L77.556 386.904C77.1 386.7 76.668 386.544 76.02 386.544C74.76 386.544 73.608 387.516 73.608 389.292C73.608 391.272 74.34 392.244 76.092 392.244C76.668 392.244 77.196 392.016 77.628 391.824L77.964 392.628ZM84.4867 393H83.4787V389.7H80.2267V393H79.2187V385.776H80.2267V388.848H83.4787V385.776H84.4867V393ZM89.9043 392.52C89.9043 393.96 88.9803 394.872 87.3963 394.872C86.9283 394.872 86.4363 394.788 85.9923 394.68L86.2083 393.78C86.6043 393.9 86.9403 393.996 87.4203 393.996C88.3683 393.996 88.9443 393.528 88.9443 392.664C88.9443 391.488 87.8643 391.032 86.3403 391.032V390.348C88.1163 390.24 88.6083 389.448 88.6083 388.668C88.6083 387.984 88.1883 387.6 87.5163 387.6C86.9643 387.6 86.6403 387.78 86.2803 388.02L85.8843 387.36C86.3163 387.024 86.8683 386.748 87.7083 386.748C88.8603 386.748 89.5683 387.432 89.5683 388.548C89.5683 389.52 89.0043 390.168 88.2003 390.552V390.564C89.3763 390.816 89.9043 391.596 89.9043 392.52ZM94.9696 391.92C94.9696 394.224 92.7976 394.872 91.2496 394.992L91.1296 394.176C92.2216 394.056 93.9856 393.624 93.9856 392.052C93.9856 391.068 93.4336 390.492 91.8976 390.492H91.0936L91.3576 386.88H94.7776V387.756H92.1856L92.0296 389.772C92.0296 389.772 92.3056 389.748 92.5576 389.748C93.9496 389.748 94.9696 390.48 94.9696 391.92ZM103.559 389.94C103.559 391.536 102.935 393.132 101.123 393.132C99.2993 393.132 98.6753 391.536 98.6753 389.94C98.6753 388.344 99.2993 386.748 101.123 386.748C102.935 386.748 103.559 388.344 103.559 389.94ZM102.575 389.94C102.575 388.596 102.131 387.588 101.123 387.588C100.103 387.588 99.6593 388.596 99.6593 389.94C99.6593 391.284 100.103 392.292 101.123 392.292C102.131 392.292 102.575 391.284 102.575 389.94ZM109.123 389.844C109.123 393.156 107.443 394.704 105.055 394.992L104.863 394.212C106.375 394.032 107.899 393.06 108.115 390.768L108.103 390.756C108.103 390.756 107.539 391.236 106.687 391.236C105.487 391.236 104.707 390.336 104.707 389.1C104.707 387.6 105.607 386.748 106.963 386.748C108.355 386.748 109.123 387.708 109.123 389.844ZM108.127 389.832C108.127 388.644 107.911 387.564 106.843 387.564C106.087 387.564 105.643 388.188 105.643 388.968C105.643 389.964 106.099 390.444 106.951 390.444C107.683 390.444 108.127 390.012 108.127 390.012V389.832ZM115.348 389.94C115.348 391.536 114.724 393.132 112.912 393.132C111.088 393.132 110.464 391.536 110.464 389.94C110.464 388.344 111.088 386.748 112.912 386.748C114.724 386.748 115.348 388.344 115.348 389.94ZM114.364 389.94C114.364 388.596 113.92 387.588 112.912 387.588C111.892 387.588 111.448 388.596 111.448 389.94C111.448 391.284 111.892 392.292 112.912 392.292C113.92 392.292 114.364 391.284 114.364 389.94ZM121.524 389.94C121.524 391.536 120.9 393.132 119.088 393.132C117.264 393.132 116.64 391.536 116.64 389.94C116.64 388.344 117.264 386.748 119.088 386.748C120.9 386.748 121.524 388.344 121.524 389.94ZM120.54 389.94C120.54 388.596 120.096 387.588 119.088 387.588C118.068 387.588 117.624 388.596 117.624 389.94C117.624 391.284 118.068 392.292 119.088 392.292C120.096 392.292 120.54 391.284 120.54 389.94ZM130.22 389.94C130.22 391.536 129.596 393.132 127.784 393.132C125.96 393.132 125.336 391.536 125.336 389.94C125.336 388.344 125.96 386.748 127.784 386.748C129.596 386.748 130.22 388.344 130.22 389.94ZM129.236 389.94C129.236 388.596 128.792 387.588 127.784 387.588C126.764 387.588 126.32 388.596 126.32 389.94C126.32 391.284 126.764 392.292 127.784 392.292C128.792 392.292 129.236 391.284 129.236 389.94ZM136.395 389.94C136.395 391.536 135.771 393.132 133.959 393.132C132.135 393.132 131.511 391.536 131.511 389.94C131.511 388.344 132.135 386.748 133.959 386.748C135.771 386.748 136.395 388.344 136.395 389.94ZM135.411 389.94C135.411 388.596 134.967 387.588 133.959 387.588C132.939 387.588 132.495 388.596 132.495 389.94C132.495 391.284 132.939 392.292 133.959 392.292C134.967 392.292 135.411 391.284 135.411 389.94ZM142.571 389.94C142.571 391.536 141.947 393.132 140.135 393.132C138.311 393.132 137.687 391.536 137.687 389.94C137.687 388.344 138.311 386.748 140.135 386.748C141.947 386.748 142.571 388.344 142.571 389.94ZM141.587 389.94C141.587 388.596 141.143 387.588 140.135 387.588C139.115 387.588 138.671 388.596 138.671 389.94C138.671 391.284 139.115 392.292 140.135 392.292C141.143 392.292 141.587 391.284 141.587 389.94ZM148.747 389.94C148.747 391.536 148.123 393.132 146.311 393.132C144.487 393.132 143.863 391.536 143.863 389.94C143.863 388.344 144.487 386.748 146.311 386.748C148.123 386.748 148.747 388.344 148.747 389.94ZM147.763 389.94C147.763 388.596 147.319 387.588 146.311 387.588C145.291 387.588 144.847 388.596 144.847 389.94C144.847 391.284 145.291 392.292 146.311 392.292C147.319 392.292 147.763 391.284 147.763 389.94ZM156.842 393H152.39V392.376L154.442 390.408C154.994 389.868 155.414 389.472 155.414 388.812C155.414 388.116 154.982 387.6 154.178 387.6C153.638 387.6 153.254 387.84 152.966 388.08L152.51 387.444C153.026 387.012 153.554 386.748 154.382 386.748C155.57 386.748 156.386 387.444 156.386 388.704C156.386 389.544 155.882 390.18 155.306 390.708L153.77 392.124V392.136H156.842V393ZM163.36 392.244H161.908V394.692L160.984 394.848V392.244H157.684V391.464L161.02 386.88H161.908V391.428H163.36V392.244ZM160.984 391.428V388.176H160.972L158.668 391.428H160.984ZM167.969 387.696L164.537 394.98L163.733 394.572L166.925 387.756H163.661V386.88H167.969V387.696ZM173.708 389.94C173.708 391.536 173.084 393.132 171.272 393.132C169.448 393.132 168.824 391.536 168.824 389.94C168.824 388.344 169.448 386.748 171.272 386.748C173.084 386.748 173.708 388.344 173.708 389.94ZM172.724 389.94C172.724 388.596 172.28 387.588 171.272 387.588C170.252 387.588 169.808 388.596 169.808 389.94C169.808 391.284 170.252 392.292 171.272 392.292C172.28 392.292 172.724 391.284 172.724 389.94ZM181.803 393H177.351V392.376L179.403 390.408C179.955 389.868 180.375 389.472 180.375 388.812C180.375 388.116 179.943 387.6 179.139 387.6C178.599 387.6 178.215 387.84 177.927 388.08L177.471 387.444C177.987 387.012 178.515 386.748 179.343 386.748C180.531 386.748 181.347 387.444 181.347 388.704C181.347 389.544 180.843 390.18 180.267 390.708L178.731 392.124V392.136H181.803V393ZM187.088 389.844C187.088 393.156 185.408 394.704 183.02 394.992L182.828 394.212C184.34 394.032 185.864 393.06 186.08 390.768L186.068 390.756C186.068 390.756 185.504 391.236 184.652 391.236C183.452 391.236 182.672 390.336 182.672 389.1C182.672 387.6 183.572 386.748 184.928 386.748C186.32 386.748 187.088 387.708 187.088 389.844ZM186.092 389.832C186.092 388.644 185.876 387.564 184.808 387.564C184.052 387.564 183.608 388.188 183.608 388.968C183.608 389.964 184.064 390.444 184.916 390.444C185.648 390.444 186.092 390.012 186.092 390.012V389.832ZM192.713 393H188.261V392.376L190.313 390.408C190.865 389.868 191.285 389.472 191.285 388.812C191.285 388.116 190.853 387.6 190.049 387.6C189.509 387.6 189.125 387.84 188.837 388.08L188.381 387.444C188.897 387.012 189.425 386.748 190.253 386.748C191.441 386.748 192.257 387.444 192.257 388.704C192.257 389.544 191.753 390.18 191.177 390.708L189.641 392.124V392.136H192.713V393ZM198.61 389.94C198.61 391.536 197.986 393.132 196.174 393.132C194.35 393.132 193.726 391.536 193.726 389.94C193.726 388.344 194.35 386.748 196.174 386.748C197.986 386.748 198.61 388.344 198.61 389.94ZM197.626 389.94C197.626 388.596 197.182 387.588 196.174 387.588C195.154 387.588 194.71 388.596 194.71 389.94C194.71 391.284 195.154 392.292 196.174 392.292C197.182 392.292 197.626 391.284 197.626 389.94ZM204.269 393H203.321V387.696L202.265 387.84L202.157 387.108L204.269 386.772V393Z" fill="#00157E" fill-opacity="0.7"/>
<g clip-path="url(#clip2_697_92435)">
<path d="M266.964 376.628C266.292 376.976 265.608 377.132 264.696 377.132C262.932 377.132 261.576 375.944 261.576 373.544C261.576 370.988 263.088 369.644 265.032 369.644C265.836 369.644 266.328 369.764 266.94 370.028L266.556 370.904C266.1 370.7 265.668 370.544 265.02 370.544C263.76 370.544 262.608 371.516 262.608 373.292C262.608 375.272 263.34 376.244 265.092 376.244C265.668 376.244 266.196 376.016 266.628 375.824L266.964 376.628ZM273.487 377H272.479V373.7H269.227V377H268.219V369.776H269.227V372.848H272.479V369.776H273.487V377ZM279.072 370.628H276.48V372.98H278.82V373.832H276.48V377H275.484V369.776H279.072V370.628Z" fill="#00157E" fill-opacity="0.7"/>
<path d="M291.716 378H289.938V372.33L288.706 372.498L288.496 371.238L291.716 370.72V378ZM299.296 374.43C299.296 376.39 298.442 378.168 296.286 378.168C294.13 378.168 293.276 376.39 293.276 374.43C293.276 372.47 294.13 370.692 296.286 370.692C298.442 370.692 299.296 372.47 299.296 374.43ZM297.504 374.43C297.504 373.086 297.126 372.274 296.286 372.274C295.46 372.274 295.068 373.086 295.068 374.43C295.068 375.774 295.46 376.586 296.286 376.586C297.126 376.586 297.504 375.774 297.504 374.43ZM302.692 370.594C302.692 372.022 302.118 372.82 301.082 373.562L300.578 373.016C301.068 372.596 301.39 372.148 301.502 371.532C300.984 371.476 300.564 371.014 300.564 370.482C300.564 369.908 301.04 369.432 301.614 369.432C302.216 369.432 302.692 369.88 302.692 370.594ZM309.974 374.43C309.974 376.39 309.12 378.168 306.964 378.168C304.808 378.168 303.954 376.39 303.954 374.43C303.954 372.47 304.808 370.692 306.964 370.692C309.12 370.692 309.974 372.47 309.974 374.43ZM308.182 374.43C308.182 373.086 307.804 372.274 306.964 372.274C306.138 372.274 305.746 373.086 305.746 374.43C305.746 375.774 306.138 376.586 306.964 376.586C307.804 376.586 308.182 375.774 308.182 374.43ZM317.22 374.43C317.22 376.39 316.366 378.168 314.21 378.168C312.054 378.168 311.2 376.39 311.2 374.43C311.2 372.47 312.054 370.692 314.21 370.692C316.366 370.692 317.22 372.47 317.22 374.43ZM315.428 374.43C315.428 373.086 315.05 372.274 314.21 372.274C313.384 372.274 312.992 373.086 312.992 374.43C312.992 375.774 313.384 376.586 314.21 376.586C315.05 376.586 315.428 375.774 315.428 374.43ZM324.466 374.43C324.466 376.39 323.612 378.168 321.456 378.168C319.3 378.168 318.446 376.39 318.446 374.43C318.446 372.47 319.3 370.692 321.456 370.692C323.612 370.692 324.466 372.47 324.466 374.43ZM322.674 374.43C322.674 373.086 322.296 372.274 321.456 372.274C320.63 372.274 320.238 373.086 320.238 374.43C320.238 375.774 320.63 376.586 321.456 376.586C322.296 376.586 322.674 375.774 322.674 374.43ZM327.862 377.048C327.862 377.636 327.386 378.112 326.798 378.112C326.21 378.112 325.734 377.636 325.734 377.048C325.734 376.474 326.21 375.998 326.798 375.998C327.386 375.998 327.862 376.474 327.862 377.048ZM335.144 374.43C335.144 376.39 334.29 378.168 332.134 378.168C329.978 378.168 329.124 376.39 329.124 374.43C329.124 372.47 329.978 370.692 332.134 370.692C334.29 370.692 335.144 372.47 335.144 374.43ZM333.352 374.43C333.352 373.086 332.974 372.274 332.134 372.274C331.308 372.274 330.916 373.086 330.916 374.43C330.916 375.774 331.308 376.586 332.134 376.586C332.974 376.586 333.352 375.774 333.352 374.43ZM342.39 374.43C342.39 376.39 341.536 378.168 339.38 378.168C337.224 378.168 336.37 376.39 336.37 374.43C336.37 372.47 337.224 370.692 339.38 370.692C341.536 370.692 342.39 372.47 342.39 374.43ZM340.598 374.43C340.598 373.086 340.22 372.274 339.38 372.274C338.554 372.274 338.162 373.086 338.162 374.43C338.162 375.774 338.554 376.586 339.38 376.586C340.22 376.586 340.598 375.774 340.598 374.43Z" fill="#00157E"/>
<path d="M325 391L331 397L337 391" stroke="#00157E" stroke-width="2" stroke-linecap="round" stroke-linejoin="round"/>
</g>
<path d="M23.771 469.254C23.771 472.334 21.923 474 18.927 474H17.163V465.628C17.163 465.628 18.325 465.488 19.571 465.488C22.175 465.488 23.771 466.846 23.771 469.254ZM22.553 469.422C22.553 467.434 21.209 466.482 19.375 466.482C18.787 466.482 18.339 466.51 18.339 466.51V472.95H19.151C21.153 472.95 22.553 471.76 22.553 469.422ZM30.1065 473.65C29.4765 474 28.8325 474.154 28.0345 474.154C26.1025 474.154 25.1085 472.852 25.1085 470.682C25.1085 468.652 26.1725 467.294 27.8245 467.294C29.4065 467.294 30.0505 468.344 30.0505 469.786V470.57H26.2005C26.2145 472.32 26.8445 473.16 28.2725 473.16C28.8185 473.16 29.2385 473.006 29.7145 472.768L30.1065 473.65ZM29.0005 469.786C29.0005 468.806 28.6365 468.19 27.7685 468.19C26.9285 468.19 26.3965 468.848 26.2565 469.786H29.0005ZM36.9572 470.332C36.9572 472.516 35.8232 474.14 33.7512 474.14C33.0232 474.14 32.2252 474.014 31.7492 473.832V466.062L31.5532 464.62L32.8692 464.438V467.952H32.8832C33.3032 467.602 33.8632 467.294 34.6052 467.294C36.1452 467.294 36.9572 468.4 36.9572 470.332ZM35.8232 470.738C35.8232 469.296 35.4872 468.316 34.2132 468.316C33.6252 468.316 33.2052 468.554 32.8692 468.848V473.062C33.1492 473.132 33.4292 473.174 33.8492 473.174C35.1512 473.174 35.8232 472.068 35.8232 470.738ZM39.8979 474H38.7779V468.96L38.5819 467.518L39.8979 467.336V474ZM40.1219 465.74C40.1219 466.188 39.7719 466.524 39.3519 466.524C38.9179 466.524 38.5539 466.188 38.5539 465.74C38.5539 465.292 38.9179 464.942 39.3519 464.942C39.7719 464.942 40.1219 465.292 40.1219 465.74ZM45.4165 473.734C45.0105 473.958 44.6325 474.14 43.9185 474.14C42.9105 474.14 42.2665 473.482 42.2665 472.362V468.358H41.3005V467.616L42.2665 467.42V466.328L43.3725 466.188V467.448H45.2065V468.358H43.3725V471.984C43.3725 472.866 43.5965 473.146 44.2405 473.146C44.5905 473.146 44.8565 473.006 45.0525 472.88L45.4165 473.734ZM54.1494 473.93L53.0294 474.112L52.9314 473.342H52.9174C52.4414 473.79 51.9234 474.168 51.1394 474.168C50.0474 474.168 49.4034 473.51 49.4034 472.474C49.4034 471.298 50.3274 470.724 51.6574 470.584L52.8334 470.458V469.87C52.8334 468.96 52.5534 468.316 51.4754 468.316C50.9294 468.316 50.5234 468.484 50.1174 468.694L49.7114 467.868C50.2994 467.518 50.9014 467.294 51.7414 467.294C53.0574 467.294 53.9394 468.064 53.9394 469.366V472.488L54.1494 473.93ZM52.8334 472.642V471.214L51.8114 471.354C50.9714 471.466 50.5094 471.732 50.5094 472.334C50.5094 472.88 50.8454 473.244 51.4054 473.244C52.0634 473.244 52.4694 472.964 52.8334 472.642ZM60.4232 467.574L60.0732 468.582C59.7092 468.442 59.3032 468.316 58.8412 468.316C57.6092 468.316 56.8672 469.24 56.8672 470.626C56.8672 472.376 57.5532 473.174 58.8132 473.174C59.2612 473.174 59.6252 473.02 59.9892 472.866L60.3672 473.776C59.8212 474.028 59.2192 474.154 58.5892 474.154C56.7132 474.154 55.7472 472.81 55.7472 470.808C55.7472 468.4 57.2312 467.294 58.8972 467.294C59.4712 467.294 59.9612 467.392 60.4232 467.574ZM65.9466 467.574L65.5966 468.582C65.2326 468.442 64.8266 468.316 64.3646 468.316C63.1326 468.316 62.3906 469.24 62.3906 470.626C62.3906 472.376 63.0766 473.174 64.3366 473.174C64.7846 473.174 65.1486 473.02 65.5126 472.866L65.8906 473.776C65.3446 474.028 64.7426 474.154 64.1126 474.154C62.2366 474.154 61.2706 472.81 61.2706 470.808C61.2706 468.4 62.7546 467.294 64.4206 467.294C64.9946 467.294 65.4846 467.392 65.9466 467.574ZM72.3941 470.724C72.3941 472.642 71.4841 474.154 69.5941 474.154C67.5221 474.154 66.7941 472.684 66.7941 470.724C66.7941 468.806 67.7041 467.294 69.5941 467.294C71.6661 467.294 72.3941 468.764 72.3941 470.724ZM71.2461 470.752C71.2461 469.128 70.7001 468.274 69.5941 468.274C68.5161 468.274 67.9421 469.03 67.9421 470.682C67.9421 472.306 68.4881 473.174 69.5941 473.174C70.6721 473.174 71.2461 472.404 71.2461 470.752ZM79.3397 473.93L78.2337 474.112L78.1217 473.356H78.1077C77.6177 473.818 76.9737 474.154 76.1617 474.154C75.0557 474.154 74.1737 473.44 74.1737 472.096V468.96L73.9777 467.518L75.2937 467.336V471.704C75.2937 472.67 75.6577 473.174 76.5397 473.174C77.1697 473.174 77.6177 472.908 78.0237 472.53V468.96L77.8277 467.518L79.1437 467.336V472.488L79.3397 473.93ZM86.3488 474H85.2288V469.744C85.2288 468.778 84.8648 468.288 83.9828 468.288C83.3528 468.288 82.9048 468.554 82.4988 468.918V474H81.3788V468.96L81.1828 467.518L82.2888 467.336L82.4008 468.106H82.4148C82.9048 467.63 83.5488 467.294 84.3608 467.294C85.4668 467.294 86.3488 468.008 86.3488 469.352V474ZM91.8325 473.734C91.4265 473.958 91.0485 474.14 90.3345 474.14C89.3265 474.14 88.6825 473.482 88.6825 472.362V468.358H87.7165V467.616L88.6825 467.42V466.328L89.7885 466.188V467.448H91.6225V468.358H89.7885V471.984C89.7885 472.866 90.0125 473.146 90.6565 473.146C91.0065 473.146 91.2725 473.006 91.4685 472.88L91.8325 473.734Z" fill="#00157E" fill-opacity="0.7"/>
<path d="M16 494C16 489.582 19.5817 486 24 486H351C355.418 486 359 489.582 359 494V546C359 550.418 355.418 554 351 554H24C19.5817 554 16 550.418 16 546V494Z" fill="white"/>
<path d="M24 486.5H351C355.142 486.5 358.5 489.858 358.5 494V546C358.5 550.142 355.142 553.5 351 553.5H24C19.8579 553.5 16.5 550.142 16.5 546V494C16.5 489.858 19.8579 486.5 24 486.5Z" stroke="#00157E" stroke-opacity="0.7"/>
<path d="M44 510C45.6569 510 47 508.657 47 507C47 505.343 45.6569 504 44 504C42.3431 504 41 505.343 41 507C41 508.657 42.3431 510 44 510Z" stroke="#00157E" stroke-width="2" stroke-linecap="round" stroke-linejoin="round"/>
<path d="M44 524V510" stroke="#00157E" stroke-width="2" stroke-linecap="round" stroke-linejoin="round"/>
<path d="M37 514H34C34 516.652 35.0536 519.196 36.9289 521.071C38.8043 522.946 41.3478 524 44 524C46.6522 524 49.1957 522.946 51.0711 521.071C52.9464 519.196 54 516.652 54 514H51" stroke="#00157E" stroke-width="2" stroke-linecap="round" stroke-linejoin="round"/>
<path d="M78.048 507.326C78.048 508.936 76.886 510.168 75.108 510.168C74.114 510.168 73.316 509.986 72.49 509.594L73.092 508.012C73.652 508.292 74.296 508.53 74.954 508.53C75.724 508.53 76.186 508.264 76.186 507.69C76.186 507.186 75.836 507.004 75.234 506.738L74.17 506.276C73.232 505.87 72.532 505.268 72.532 503.952C72.532 502.342 73.946 501.404 75.486 501.404C76.41 501.404 77.012 501.6 77.754 501.908L77.138 503.448C76.704 503.238 76.172 503 75.584 503C74.898 503 74.366 503.252 74.366 503.826C74.366 504.302 74.716 504.498 75.262 504.722L76.298 505.156C77.334 505.59 78.048 506.262 78.048 507.326ZM84.1645 509.902L82.4565 510.126L82.3725 509.398H82.3585C81.9665 509.748 81.4485 510.168 80.6925 510.168C79.6565 510.168 78.9705 509.524 78.9705 508.418C78.9705 507.158 79.9085 506.584 81.2665 506.444L82.1905 506.346V505.898C82.1905 505.226 81.9105 504.764 81.0705 504.764C80.5525 504.764 80.2025 504.918 79.8245 505.128L79.1805 503.924C79.8385 503.49 80.4685 503.21 81.4765 503.21C83.0865 503.21 83.9405 504.078 83.9405 505.492V508.264L84.1645 509.902ZM82.1905 508.572V507.354L81.5885 507.424C81.0425 507.494 80.6925 507.718 80.6925 508.18C80.6925 508.586 80.9305 508.894 81.3505 508.894C81.7565 508.894 81.9945 508.74 82.1905 508.572ZM91.1562 503.378L88.7062 509.93L86.9562 510.126L84.8002 503.574L86.5642 503.168L87.9082 507.83H87.9222L89.4482 503.378H91.1562ZM93.993 510H92.215V505.1L91.991 503.462L93.993 503.238V510ZM94.161 501.516C94.161 502.104 93.699 502.58 93.111 502.58C92.523 502.58 92.061 502.104 92.061 501.516C92.061 500.942 92.523 500.466 93.111 500.466C93.699 500.466 94.161 500.942 94.161 501.516ZM101.355 510H99.577V505.8C99.577 505.086 99.283 504.764 98.653 504.764C98.191 504.764 97.799 504.988 97.547 505.24V510H95.769V505.1L95.545 503.462L97.253 503.238L97.337 503.966H97.351C97.743 503.574 98.401 503.21 99.283 503.21C100.431 503.21 101.355 503.868 101.355 505.366V510ZM108.865 504.456H107.591C107.745 504.764 107.815 505.1 107.815 505.478C107.815 506.696 106.975 507.76 105.351 507.76C105.113 507.76 104.875 507.732 104.665 507.69C104.665 507.69 104.413 507.872 104.413 508.18C104.413 508.488 104.637 508.572 104.931 508.572H107.003C108.165 508.572 108.781 509.048 108.781 510.028C108.781 511.386 107.591 513.01 105.029 513.01C103.461 513.01 102.621 512.394 102.621 511.204C102.621 510.112 103.447 509.706 103.447 509.706C103.153 509.482 102.943 509.202 102.943 508.656C102.943 507.844 103.615 507.424 103.797 507.34C103.167 506.92 102.859 506.234 102.859 505.478C102.859 504.26 103.713 503.196 105.351 503.196C105.883 503.196 106.345 503.308 106.709 503.504L108.865 503.21V504.456ZM107.269 510.434C107.269 510.154 107.045 510.07 106.667 510.07H104.987C104.777 510.07 104.567 510.056 104.371 510.028C104.371 510.028 104.063 510.294 104.063 510.784C104.063 511.372 104.483 511.652 105.211 511.652C106.485 511.652 107.269 511.036 107.269 510.434ZM106.219 505.492C106.219 504.834 105.869 504.498 105.351 504.498C104.833 504.498 104.455 504.848 104.455 505.492C104.455 506.164 104.819 506.486 105.351 506.486C105.855 506.486 106.219 506.15 106.219 505.492ZM114.229 507.872C114.229 509.146 113.207 510.154 111.667 510.154C110.869 510.154 110.155 510.028 109.553 509.748L110.015 508.292C110.519 508.502 111.009 508.712 111.569 508.712C112.171 508.712 112.465 508.502 112.465 508.152C112.465 507.83 112.311 507.704 111.947 507.55L110.911 507.116C110.295 506.864 109.623 506.402 109.623 505.31C109.623 503.938 110.785 503.21 112.171 503.21C112.955 503.21 113.487 503.336 114.117 503.602L113.571 505.03C113.123 504.848 112.689 504.666 112.185 504.666C111.639 504.666 111.331 504.82 111.331 505.184C111.331 505.534 111.611 505.66 111.863 505.758L112.941 506.192C113.781 506.528 114.229 507.06 114.229 507.872ZM125.265 509.776L123.459 510.238L122.745 507.662H120.393L119.749 510H117.859L120.659 501.572H122.577L125.265 509.776ZM122.437 506.444L121.597 503.364H121.583L120.729 506.444H122.437ZM130.877 503.518L130.345 505.072C129.995 504.918 129.673 504.792 129.197 504.792C128.315 504.792 127.657 505.422 127.657 506.612C127.657 507.956 128.259 508.544 129.113 508.544C129.617 508.544 129.883 508.432 130.303 508.264L130.835 509.72C130.219 510 129.645 510.168 128.889 510.168C126.901 510.168 125.851 508.824 125.851 506.71C125.851 504.274 127.503 503.21 129.197 503.21C129.855 503.21 130.303 503.294 130.877 503.518ZM136.428 503.518L135.896 505.072C135.546 504.918 135.224 504.792 134.748 504.792C133.866 504.792 133.208 505.422 133.208 506.612C133.208 507.956 133.81 508.544 134.664 508.544C135.168 508.544 135.434 508.432 135.854 508.264L136.386 509.72C135.77 510 135.196 510.168 134.44 510.168C132.452 510.168 131.402 508.824 131.402 506.71C131.402 504.274 133.054 503.21 134.748 503.21C135.406 503.21 135.854 503.294 136.428 503.518ZM142.917 506.668C142.917 508.656 141.881 510.154 139.935 510.154C137.835 510.154 136.953 508.67 136.953 506.668C136.953 504.68 137.989 503.224 139.935 503.224C142.035 503.224 142.917 504.666 142.917 506.668ZM141.153 506.682C141.153 505.324 140.705 504.778 139.935 504.778C139.165 504.778 138.717 505.296 138.717 506.654C138.717 507.998 139.165 508.6 139.935 508.6C140.705 508.6 141.153 508.026 141.153 506.682ZM150.114 509.902L148.406 510.126L148.308 509.412H148.294C147.902 509.79 147.244 510.168 146.362 510.168C145.228 510.168 144.304 509.496 144.304 508.012V505.1L144.08 503.462L146.082 503.238V507.578C146.082 508.292 146.376 508.614 146.992 508.614C147.454 508.614 147.846 508.404 148.112 508.138V505.1L147.888 503.462L149.89 503.238V508.264L150.114 509.902ZM157.259 510H155.481V505.8C155.481 505.086 155.187 504.764 154.557 504.764C154.095 504.764 153.703 504.988 153.451 505.24V510H151.673V505.1L151.449 503.462L153.157 503.238L153.241 503.966H153.255C153.647 503.574 154.305 503.21 155.187 503.21C156.335 503.21 157.259 503.868 157.259 505.366V510ZM163.103 509.678C162.529 509.986 162.095 510.154 161.213 510.154C159.897 510.154 159.253 509.272 159.253 507.956V504.778H158.231V503.602L159.253 503.364V502.216L161.017 502.006V503.378H162.837V504.778H161.017V507.48C161.017 508.362 161.241 508.586 161.815 508.586C162.137 508.586 162.319 508.502 162.627 508.362L163.103 509.678Z" fill="#00157E"/>
<path d="M77.964 524.628C77.292 524.976 76.608 525.132 75.696 525.132C73.932 525.132 72.576 523.944 72.576 521.544C72.576 518.988 74.088 517.644 76.032 517.644C76.836 517.644 77.328 517.764 77.94 518.028L77.556 518.904C77.1 518.7 76.668 518.544 76.02 518.544C74.76 518.544 73.608 519.516 73.608 521.292C73.608 523.272 74.34 524.244 76.092 524.244C76.668 524.244 77.196 524.016 77.628 523.824L77.964 524.628ZM84.4867 525H83.4787V521.7H80.2267V525H79.2187V517.776H80.2267V520.848H83.4787V517.776H84.4867V525ZM89.9043 524.52C89.9043 525.96 88.9803 526.872 87.3963 526.872C86.9283 526.872 86.4363 526.788 85.9923 526.68L86.2083 525.78C86.6043 525.9 86.9403 525.996 87.4203 525.996C88.3683 525.996 88.9443 525.528 88.9443 524.664C88.9443 523.488 87.8643 523.032 86.3403 523.032V522.348C88.1163 522.24 88.6083 521.448 88.6083 520.668C88.6083 519.984 88.1883 519.6 87.5163 519.6C86.9643 519.6 86.6403 519.78 86.2803 520.02L85.8843 519.36C86.3163 519.024 86.8683 518.748 87.7083 518.748C88.8603 518.748 89.5683 519.432 89.5683 520.548C89.5683 521.52 89.0043 522.168 88.2003 522.552V522.564C89.3763 522.816 89.9043 523.596 89.9043 524.52ZM94.9696 523.92C94.9696 526.224 92.7976 526.872 91.2496 526.992L91.1296 526.176C92.2216 526.056 93.9856 525.624 93.9856 524.052C93.9856 523.068 93.4336 522.492 91.8976 522.492H91.0936L91.3576 518.88H94.7776V519.756H92.1856L92.0296 521.772C92.0296 521.772 92.3056 521.748 92.5576 521.748C93.9496 521.748 94.9696 522.48 94.9696 523.92ZM103.559 521.94C103.559 523.536 102.935 525.132 101.123 525.132C99.2993 525.132 98.6753 523.536 98.6753 521.94C98.6753 520.344 99.2993 518.748 101.123 518.748C102.935 518.748 103.559 520.344 103.559 521.94ZM102.575 521.94C102.575 520.596 102.131 519.588 101.123 519.588C100.103 519.588 99.6593 520.596 99.6593 521.94C99.6593 523.284 100.103 524.292 101.123 524.292C102.131 524.292 102.575 523.284 102.575 521.94ZM109.123 521.844C109.123 525.156 107.443 526.704 105.055 526.992L104.863 526.212C106.375 526.032 107.899 525.06 108.115 522.768L108.103 522.756C108.103 522.756 107.539 523.236 106.687 523.236C105.487 523.236 104.707 522.336 104.707 521.1C104.707 519.6 105.607 518.748 106.963 518.748C108.355 518.748 109.123 519.708 109.123 521.844ZM108.127 521.832C108.127 520.644 107.911 519.564 106.843 519.564C106.087 519.564 105.643 520.188 105.643 520.968C105.643 521.964 106.099 522.444 106.951 522.444C107.683 522.444 108.127 522.012 108.127 522.012V521.832ZM115.348 521.94C115.348 523.536 114.724 525.132 112.912 525.132C111.088 525.132 110.464 523.536 110.464 521.94C110.464 520.344 111.088 518.748 112.912 518.748C114.724 518.748 115.348 520.344 115.348 521.94ZM114.364 521.94C114.364 520.596 113.92 519.588 112.912 519.588C111.892 519.588 111.448 520.596 111.448 521.94C111.448 523.284 111.892 524.292 112.912 524.292C113.92 524.292 114.364 523.284 114.364 521.94ZM121.524 521.94C121.524 523.536 120.9 525.132 119.088 525.132C117.264 525.132 116.64 523.536 116.64 521.94C116.64 520.344 117.264 518.748 119.088 518.748C120.9 518.748 121.524 520.344 121.524 521.94ZM120.54 521.94C120.54 520.596 120.096 519.588 119.088 519.588C118.068 519.588 117.624 520.596 117.624 521.94C117.624 523.284 118.068 524.292 119.088 524.292C120.096 524.292 120.54 523.284 120.54 521.94ZM130.22 521.94C130.22 523.536 129.596 525.132 127.784 525.132C125.96 525.132 125.336 523.536 125.336 521.94C125.336 520.344 125.96 518.748 127.784 518.748C129.596 518.748 130.22 520.344 130.22 521.94ZM129.236 521.94C129.236 520.596 128.792 519.588 127.784 519.588C126.764 519.588 126.32 520.596 126.32 521.94C126.32 523.284 126.764 524.292 127.784 524.292C128.792 524.292 129.236 523.284 129.236 521.94ZM136.395 521.94C136.395 523.536 135.771 525.132 133.959 525.132C132.135 525.132 131.511 523.536 131.511 521.94C131.511 520.344 132.135 518.748 133.959 518.748C135.771 518.748 136.395 520.344 136.395 521.94ZM135.411 521.94C135.411 520.596 134.967 519.588 133.959 519.588C132.939 519.588 132.495 520.596 132.495 521.94C132.495 523.284 132.939 524.292 133.959 524.292C134.967 524.292 135.411 523.284 135.411 521.94ZM142.571 521.94C142.571 523.536 141.947 525.132 140.135 525.132C138.311 525.132 137.687 523.536 137.687 521.94C137.687 520.344 138.311 518.748 140.135 518.748C141.947 518.748 142.571 520.344 142.571 521.94ZM141.587 521.94C141.587 520.596 141.143 519.588 140.135 519.588C139.115 519.588 138.671 520.596 138.671 521.94C138.671 523.284 139.115 524.292 140.135 524.292C141.143 524.292 141.587 523.284 141.587 521.94ZM148.747 521.94C148.747 523.536 148.123 525.132 146.311 525.132C144.487 525.132 143.863 523.536 143.863 521.94C143.863 520.344 144.487 518.748 146.311 518.748C148.123 518.748 148.747 520.344 148.747 521.94ZM147.763 521.94C147.763 520.596 147.319 519.588 146.311 519.588C145.291 519.588 144.847 520.596 144.847 521.94C144.847 523.284 145.291 524.292 146.311 524.292C147.319 524.292 147.763 523.284 147.763 521.94ZM156.842 525H152.39V524.376L154.442 522.408C154.994 521.868 155.414 521.472 155.414 520.812C155.414 520.116 154.982 519.6 154.178 519.6C153.638 519.6 153.254 519.84 152.966 520.08L152.51 519.444C153.026 519.012 153.554 518.748 154.382 518.748C155.57 518.748 156.386 519.444 156.386 520.704C156.386 521.544 155.882 522.18 155.306 522.708L153.77 524.124V524.136H156.842V525ZM163.36 524.244H161.908V526.692L160.984 526.848V524.244H157.684V523.464L161.02 518.88H161.908V523.428H163.36V524.244ZM160.984 523.428V520.176H160.972L158.668 523.428H160.984ZM167.969 519.696L164.537 526.98L163.733 526.572L166.925 519.756H163.661V518.88H167.969V519.696ZM173.708 521.94C173.708 523.536 173.084 525.132 171.272 525.132C169.448 525.132 168.824 523.536 168.824 521.94C168.824 520.344 169.448 518.748 171.272 518.748C173.084 518.748 173.708 520.344 173.708 521.94ZM172.724 521.94C172.724 520.596 172.28 519.588 171.272 519.588C170.252 519.588 169.808 520.596 169.808 521.94C169.808 523.284 170.252 524.292 171.272 524.292C172.28 524.292 172.724 523.284 172.724 521.94ZM181.803 525H177.351V524.376L179.403 522.408C179.955 521.868 180.375 521.472 180.375 520.812C180.375 520.116 179.943 519.6 179.139 519.6C178.599 519.6 178.215 519.84 177.927 520.08L177.471 519.444C177.987 519.012 178.515 518.748 179.343 518.748C180.531 518.748 181.347 519.444 181.347 520.704C181.347 521.544 180.843 522.18 180.267 522.708L178.731 524.124V524.136H181.803V525ZM187.088 521.844C187.088 525.156 185.408 526.704 183.02 526.992L182.828 526.212C184.34 526.032 185.864 525.06 186.08 522.768L186.068 522.756C186.068 522.756 185.504 523.236 184.652 523.236C183.452 523.236 182.672 522.336 182.672 521.1C182.672 519.6 183.572 518.748 184.928 518.748C186.32 518.748 187.088 519.708 187.088 521.844ZM186.092 521.832C186.092 520.644 185.876 519.564 184.808 519.564C184.052 519.564 183.608 520.188 183.608 520.968C183.608 521.964 184.064 522.444 184.916 522.444C185.648 522.444 186.092 522.012 186.092 522.012V521.832ZM192.713 525H188.261V524.376L190.313 522.408C190.865 521.868 191.285 521.472 191.285 520.812C191.285 520.116 190.853 519.6 190.049 519.6C189.509 519.6 189.125 519.84 188.837 520.08L188.381 519.444C188.897 519.012 189.425 518.748 190.253 518.748C191.441 518.748 192.257 519.444 192.257 520.704C192.257 521.544 191.753 522.18 191.177 522.708L189.641 524.124V524.136H192.713V525ZM198.61 521.94C198.61 523.536 197.986 525.132 196.174 525.132C194.35 525.132 193.726 523.536 193.726 521.94C193.726 520.344 194.35 518.748 196.174 518.748C197.986 518.748 198.61 520.344 198.61 521.94ZM197.626 521.94C197.626 520.596 197.182 519.588 196.174 519.588C195.154 519.588 194.71 520.596 194.71 521.94C194.71 523.284 195.154 524.292 196.174 524.292C197.182 524.292 197.626 523.284 197.626 521.94ZM206.705 525H202.253V524.376L204.305 522.408C204.857 521.868 205.277 521.472 205.277 520.812C205.277 520.116 204.845 519.6 204.041 519.6C203.501 519.6 203.117 519.84 202.829 520.08L202.373 519.444C202.889 519.012 203.417 518.748 204.245 518.748C205.433 518.748 206.249 519.444 206.249 520.704C206.249 521.544 205.745 522.18 205.169 522.708L203.633 524.124V524.136H206.705V525Z" fill="#00157E" fill-opacity="0.7"/>
<g clip-path="url(#clip3_697_92435)">
<path d="M265.964 508.628C265.292 508.976 264.608 509.132 263.696 509.132C261.932 509.132 260.576 507.944 260.576 505.544C260.576 502.988 262.088 501.644 264.032 501.644C264.836 501.644 265.328 501.764 265.94 502.028L265.556 502.904C265.1 502.7 264.668 502.544 264.02 502.544C262.76 502.544 261.608 503.516 261.608 505.292C261.608 507.272 262.34 508.244 264.092 508.244C264.668 508.244 265.196 508.016 265.628 507.824L265.964 508.628ZM272.487 509H271.479V505.7H268.227V509H267.219V501.776H268.227V504.848H271.479V501.776H272.487V509ZM278.072 502.628H275.48V504.98H277.82V505.832H275.48V509H274.484V501.776H278.072V502.628Z" fill="#00157E" fill-opacity="0.7"/>
<path d="M293.483 510H288.037V508.922L290.263 506.864C290.781 506.388 291.131 506.038 291.131 505.38C291.131 504.736 290.725 504.302 290.081 504.302C289.479 504.302 289.101 504.54 288.793 504.778L288.009 503.602C288.653 503.042 289.395 502.692 290.445 502.692C291.929 502.692 292.951 503.56 292.951 505.086C292.951 506.024 292.405 506.752 291.817 507.284L290.599 508.376V508.39H293.483V510ZM299.421 508.558C299.421 511.064 297.279 512.044 294.773 512.338L294.507 510.826C295.683 510.644 297.601 510.238 297.601 508.74C297.601 507.802 296.915 507.34 295.333 507.34H294.507L294.773 502.86H299.169V504.456H296.243L296.145 506.108C296.145 506.108 296.411 506.094 296.691 506.094C298.399 506.094 299.421 506.934 299.421 508.558ZM302.692 502.594C302.692 504.022 302.118 504.82 301.082 505.562L300.578 505.016C301.068 504.596 301.39 504.148 301.502 503.532C300.984 503.476 300.564 503.014 300.564 502.482C300.564 501.908 301.04 501.432 301.614 501.432C302.216 501.432 302.692 501.88 302.692 502.594ZM309.974 506.43C309.974 508.39 309.12 510.168 306.964 510.168C304.808 510.168 303.954 508.39 303.954 506.43C303.954 504.47 304.808 502.692 306.964 502.692C309.12 502.692 309.974 504.47 309.974 506.43ZM308.182 506.43C308.182 505.086 307.804 504.274 306.964 504.274C306.138 504.274 305.746 505.086 305.746 506.43C305.746 507.774 306.138 508.586 306.964 508.586C307.804 508.586 308.182 507.774 308.182 506.43ZM317.22 506.43C317.22 508.39 316.366 510.168 314.21 510.168C312.054 510.168 311.2 508.39 311.2 506.43C311.2 504.47 312.054 502.692 314.21 502.692C316.366 502.692 317.22 504.47 317.22 506.43ZM315.428 506.43C315.428 505.086 315.05 504.274 314.21 504.274C313.384 504.274 312.992 505.086 312.992 506.43C312.992 507.774 313.384 508.586 314.21 508.586C315.05 508.586 315.428 507.774 315.428 506.43ZM324.466 506.43C324.466 508.39 323.612 510.168 321.456 510.168C319.3 510.168 318.446 508.39 318.446 506.43C318.446 504.47 319.3 502.692 321.456 502.692C323.612 502.692 324.466 504.47 324.466 506.43ZM322.674 506.43C322.674 505.086 322.296 504.274 321.456 504.274C320.63 504.274 320.238 505.086 320.238 506.43C320.238 507.774 320.63 508.586 321.456 508.586C322.296 508.586 322.674 507.774 322.674 506.43ZM327.862 509.048C327.862 509.636 327.386 510.112 326.798 510.112C326.21 510.112 325.734 509.636 325.734 509.048C325.734 508.474 326.21 507.998 326.798 507.998C327.386 507.998 327.862 508.474 327.862 509.048ZM335.144 506.43C335.144 508.39 334.29 510.168 332.134 510.168C329.978 510.168 329.124 508.39 329.124 506.43C329.124 504.47 329.978 502.692 332.134 502.692C334.29 502.692 335.144 504.47 335.144 506.43ZM333.352 506.43C333.352 505.086 332.974 504.274 332.134 504.274C331.308 504.274 330.916 505.086 330.916 506.43C330.916 507.774 331.308 508.586 332.134 508.586C332.974 508.586 333.352 507.774 333.352 506.43ZM342.39 506.43C342.39 508.39 341.536 510.168 339.38 510.168C337.224 510.168 336.37 508.39 336.37 506.43C336.37 504.47 337.224 502.692 339.38 502.692C341.536 502.692 342.39 504.47 342.39 506.43ZM340.598 506.43C340.598 505.086 340.22 504.274 339.38 504.274C338.554 504.274 338.162 505.086 338.162 506.43C338.162 507.774 338.554 508.586 339.38 508.586C340.22 508.586 340.598 507.774 340.598 506.43Z" fill="#00157E"/>
<path d="M325 523L331 529L337 523" stroke="#00157E" stroke-width="2" stroke-linecap="round" stroke-linejoin="round"/>
</g>
</g>
<rect width="375" height="64" transform="translate(0 748)" fill="white"/>
<path d="M20 760.5H355C356.933 760.5 358.5 762.067 358.5 764V796C358.5 797.933 356.933 799.5 355 799.5H20C18.067 799.5 16.5 797.933 16.5 796V764C16.5 762.067 18.067 760.5 20 760.5Z" fill="#00157E"/>
<path d="M20 760.5H355C356.933 760.5 358.5 762.067 358.5 764V796C358.5 797.933 356.933 799.5 355 799.5H20C18.067 799.5 16.5 797.933 16.5 796V764C16.5 762.067 18.067 760.5 20 760.5Z" stroke="#00157E"/>
<path d="M170.733 784.504C169.837 784.968 168.925 785.176 167.709 785.176C165.357 785.176 163.549 783.592 163.549 780.392C163.549 776.984 165.565 775.192 168.157 775.192C169.229 775.192 169.885 775.352 170.701 775.704L170.189 776.872C169.581 776.6 169.005 776.392 168.141 776.392C166.461 776.392 164.925 777.688 164.925 780.056C164.925 782.696 165.901 783.992 168.237 783.992C169.005 783.992 169.709 783.688 170.285 783.432L170.733 784.504ZM177.949 781.256C177.949 783.448 176.909 785.176 174.749 785.176C172.381 785.176 171.549 783.496 171.549 781.256C171.549 779.064 172.589 777.336 174.749 777.336C177.117 777.336 177.949 779.016 177.949 781.256ZM176.637 781.288C176.637 779.432 176.013 778.456 174.749 778.456C173.517 778.456 172.861 779.32 172.861 781.208C172.861 783.064 173.485 784.056 174.749 784.056C175.981 784.056 176.637 783.176 176.637 781.288ZM185.663 785H184.383V780.136C184.383 779.032 183.967 778.472 182.959 778.472C182.239 778.472 181.727 778.776 181.263 779.192V785H179.983V779.24L179.759 777.592L181.023 777.384L181.151 778.264H181.167C181.727 777.72 182.463 777.336 183.391 777.336C184.655 777.336 185.663 778.152 185.663 779.688V785ZM193.402 785H192.138V778.552H189.594V785H188.33V778.552H187.226V777.704L188.33 777.48V776.888C188.33 775.272 189.354 774.088 191.178 774.088C192.01 774.088 192.538 774.344 192.922 774.552L192.458 775.576C192.266 775.448 191.786 775.176 191.178 775.176C190.01 775.176 189.594 775.832 189.594 776.744V777.512H193.402V785ZM199.328 778.616C198.464 778.616 197.824 778.84 197.248 779.368V785H195.968V779.24L195.743 777.592L197.008 777.384L197.136 778.408H197.152C197.664 777.832 198.336 777.352 199.328 777.352V778.616ZM210.953 785H209.689V780.136C209.689 779.032 209.273 778.472 208.249 778.472C207.529 778.472 206.921 778.824 206.521 779.224C206.521 779.224 206.569 779.496 206.569 779.784V785H205.289V780.136C205.289 779.032 204.873 778.472 203.865 778.472C203.145 778.472 202.633 778.76 202.169 779.192V785H200.889V779.24L200.665 777.592L201.929 777.384L202.057 778.264H202.073C202.633 777.72 203.369 777.336 204.297 777.336C205.161 777.336 205.881 777.72 206.265 778.408H206.281C206.873 777.816 207.641 777.336 208.697 777.336C209.977 777.336 210.953 778.152 210.953 779.688V785Z" fill="white"/>
</g>
<defs>
<clipPath id="clip0_697_92435">
<rect width="375" height="812" fill="white"/>
</clipPath>
<clipPath id="clip1_697_92435">
<rect width="375" height="642" fill="white" transform="translate(0 106)"/>
</clipPath>
<clipPath id="clip2_697_92435">
<rect width="153" height="36" fill="white" transform="translate(206 370)"/>
</clipPath>
<clipPath id="clip3_697_92435">
<rect width="151" height="36" fill="white" transform="translate(208 502)"/>
</clipPath>
</defs>
</svg>
