<svg width="156" height="144" viewBox="0 0 156 144" fill="none" xmlns="http://www.w3.org/2000/svg">
<path d="M0 8C0 3.58173 3.58172 0 8 0H148C152.418 0 156 3.58172 156 8V136C156 140.418 152.418 144 148 144H8C3.58172 144 0 140.418 0 136V8Z" fill="white"/>
<path d="M8 0.5H148C152.142 0.5 155.5 3.85786 155.5 8V136C155.5 140.142 152.142 143.5 148 143.5H8C3.85786 143.5 0.5 140.142 0.5 136V8C0.500002 3.85787 3.85787 0.5 8 0.5Z" stroke="#00157E" stroke-opacity="0.2"/>
<path d="M43.5 65V79" stroke="#00157E" stroke-width="2" stroke-linecap="round" stroke-linejoin="round"/>
<path d="M36.5 72H50.5" stroke="#00157E" stroke-width="2" stroke-linecap="round" stroke-linejoin="round"/>
<path d="M70.6794 75.86L69.5314 76.182L68.6354 73.27H65.8914L65.0374 76H63.8054L66.7314 67.572H67.9354L70.6794 75.86ZM68.3834 72.43L67.2914 68.79H67.2774L66.1434 72.43H68.3834ZM76.9695 75.958L75.8915 76.112L75.7935 75.454H75.7795C75.3595 75.804 74.7855 76.154 74.0155 76.154C72.5735 76.154 71.6075 74.964 71.6075 73.018C71.6075 70.764 72.7695 69.378 74.7575 69.378C75.2895 69.378 75.6675 69.476 75.6675 69.476V68.062L75.4575 66.62L76.7735 66.438V74.516L76.9695 75.958ZM74.4075 75.174C74.9535 75.174 75.3315 74.95 75.6675 74.684V70.498C75.6675 70.498 75.3035 70.316 74.6595 70.316C73.3855 70.316 72.7555 71.394 72.7555 72.668C72.7555 74.25 73.1755 75.174 74.4075 75.174ZM83.9285 75.958L82.8505 76.112L82.7525 75.454H82.7385C82.3185 75.804 81.7445 76.154 80.9745 76.154C79.5325 76.154 78.5665 74.964 78.5665 73.018C78.5665 70.764 79.7285 69.378 81.7165 69.378C82.2485 69.378 82.6265 69.476 82.6265 69.476V68.062L82.4165 66.62L83.7325 66.438V74.516L83.9285 75.958ZM81.3665 75.174C81.9125 75.174 82.2905 74.95 82.6265 74.684V70.498C82.6265 70.498 82.2625 70.316 81.6185 70.316C80.3445 70.316 79.7145 71.394 79.7145 72.668C79.7145 74.25 80.1345 75.174 81.3665 75.174ZM93.757 68.566H91.405V76H90.229V68.566H87.877V67.572H93.757V68.566ZM99.8976 76H98.7916V71.744C98.7916 70.792 98.4136 70.302 97.5176 70.302C96.8736 70.302 96.4396 70.582 96.0616 70.918V76H94.9416V68.062L94.7456 66.62L96.0616 66.438V70.022H96.0756C96.5096 69.644 97.1116 69.294 97.9236 69.294C99.0436 69.294 99.8976 69.994 99.8976 71.352V76ZM106.67 75.65C106.04 76 105.396 76.154 104.598 76.154C102.666 76.154 101.672 74.852 101.672 72.682C101.672 70.652 102.736 69.294 104.388 69.294C105.97 69.294 106.614 70.344 106.614 71.786V72.57H102.764C102.778 74.32 103.408 75.16 104.836 75.16C105.382 75.16 105.802 75.006 106.278 74.768L106.67 75.65ZM105.564 71.786C105.564 70.806 105.2 70.19 104.332 70.19C103.492 70.19 102.96 70.848 102.82 71.786H105.564ZM117.147 76H116.041V71.744C116.041 70.778 115.677 70.288 114.781 70.288C114.151 70.288 113.619 70.596 113.269 70.946C113.269 70.946 113.311 71.184 113.311 71.436V76H112.191V71.744C112.191 70.778 111.827 70.288 110.945 70.288C110.315 70.288 109.867 70.54 109.461 70.918V76H108.341V70.96L108.145 69.518L109.251 69.336L109.363 70.106H109.377C109.867 69.63 110.511 69.294 111.323 69.294C112.079 69.294 112.709 69.63 113.045 70.232H113.059C113.577 69.714 114.249 69.294 115.173 69.294C116.293 69.294 117.147 70.008 117.147 71.352V76ZM123.924 75.65C123.294 76 122.65 76.154 121.852 76.154C119.92 76.154 118.926 74.852 118.926 72.682C118.926 70.652 119.99 69.294 121.642 69.294C123.224 69.294 123.868 70.344 123.868 71.786V72.57H120.018C120.032 74.32 120.662 75.16 122.09 75.16C122.636 75.16 123.056 75.006 123.532 74.768L123.924 75.65ZM122.818 71.786C122.818 70.806 122.454 70.19 121.586 70.19C120.746 70.19 120.214 70.848 120.074 71.786H122.818Z" fill="#00157E"/>
</svg>
