<svg width="160" height="40" viewBox="0 0 160 40" fill="none" xmlns="http://www.w3.org/2000/svg">
<path d="M0 8C0 3.58172 3.58172 0 8 0H152C156.418 0 160 3.58172 160 8V32C160 36.4183 156.418 40 152 40H8C3.58172 40 0 36.4183 0 32V8Z" fill="#00157E" fill-opacity="0.2"/>
<path d="M15 17L24 10L33 17V28C33 28.5304 32.7893 29.0391 32.4142 29.4142C32.0391 29.7893 31.5304 30 31 30H17C16.4696 30 15.9609 29.7893 15.5858 29.4142C15.2107 29.0391 15 28.5304 15 28V17Z" stroke="#00157E" stroke-width="2" stroke-linecap="round" stroke-linejoin="round"/>
<path d="M21 30V20H27V30" stroke="#00157E" stroke-width="2" stroke-linecap="round" stroke-linejoin="round"/>
<path d="M58.9425 17.752C58.9425 20.008 57.1025 21.144 54.9585 21.144H54.7185V25H53.3905V15.448C53.3905 15.448 54.5905 15.272 55.8545 15.272C57.7265 15.272 58.9425 16.168 58.9425 17.752ZM57.6305 17.992C57.6305 16.808 56.8465 16.28 55.6305 16.28C55.1185 16.28 54.7185 16.344 54.7185 16.344V20.12H54.9265C56.3505 20.12 57.6305 19.48 57.6305 17.992ZM65.3483 24.92L64.0683 25.128L63.9563 24.248H63.9403C63.3963 24.76 62.8043 25.192 61.9083 25.192C60.6603 25.192 59.9243 24.44 59.9243 23.256C59.9243 21.912 60.9803 21.256 62.5003 21.096L63.8443 20.952V20.28C63.8443 19.24 63.5243 18.504 62.2923 18.504C61.6683 18.504 61.2043 18.696 60.7403 18.936L60.2763 17.992C60.9483 17.592 61.6363 17.336 62.5963 17.336C64.1003 17.336 65.1083 18.216 65.1083 19.704V23.272L65.3483 24.92ZM63.8443 23.448V21.816L62.6763 21.976C61.7163 22.104 61.1883 22.408 61.1883 23.096C61.1883 23.72 61.5723 24.136 62.2123 24.136C62.9643 24.136 63.4283 23.816 63.8443 23.448ZM72.9384 17.512L70.4424 24.312C69.6424 26.52 68.5704 27.848 65.9624 28.376L65.7224 27.336C67.6264 26.952 68.6344 25.8 69.1304 24.552L66.4424 17.624L67.7064 17.288L69.7704 22.856H69.7864L71.6744 17.512H72.9384ZM84.5471 25H83.2831V20.136C83.2831 19.032 82.8671 18.472 81.8431 18.472C81.1231 18.472 80.5151 18.824 80.1151 19.224C80.1151 19.224 80.1631 19.496 80.1631 19.784V25H78.8831V20.136C78.8831 19.032 78.4671 18.472 77.4591 18.472C76.7391 18.472 76.2271 18.76 75.7631 19.192V25H74.4831V19.24L74.2591 17.592L75.5231 17.384L75.6511 18.264H75.6671C76.2271 17.72 76.9631 17.336 77.8911 17.336C78.7551 17.336 79.4751 17.72 79.8591 18.408H79.8751C80.4671 17.816 81.2351 17.336 82.2911 17.336C83.5711 17.336 84.5471 18.152 84.5471 19.688V25ZM92.2925 24.6C91.5725 25 90.8365 25.176 89.9245 25.176C87.7165 25.176 86.5805 23.688 86.5805 21.208C86.5805 18.888 87.7965 17.336 89.6845 17.336C91.4925 17.336 92.2285 18.536 92.2285 20.184V21.08H87.8285C87.8445 23.08 88.5645 24.04 90.1965 24.04C90.8205 24.04 91.3005 23.864 91.8445 23.592L92.2925 24.6ZM91.0285 20.184C91.0285 19.064 90.6125 18.36 89.6205 18.36C88.6605 18.36 88.0525 19.112 87.8925 20.184H91.0285ZM99.8819 25H98.6019V20.136C98.6019 19.032 98.1859 18.472 97.1779 18.472C96.4579 18.472 95.9459 18.776 95.4819 19.192V25H94.2019V19.24L93.9779 17.592L95.2419 17.384L95.3699 18.264H95.3859C95.9459 17.72 96.6819 17.336 97.6099 17.336C98.8739 17.336 99.8819 18.152 99.8819 19.688V25ZM106.149 24.696C105.685 24.952 105.253 25.16 104.437 25.16C103.285 25.16 102.549 24.408 102.549 23.128V18.552H101.445V17.704L102.549 17.48V16.232L103.813 16.072V17.512H105.909V18.552H103.813V22.696C103.813 23.704 104.069 24.024 104.805 24.024C105.205 24.024 105.509 23.864 105.733 23.72L106.149 24.696ZM112.194 22.824C112.194 24.184 111.122 25.16 109.522 25.16C108.754 25.16 107.986 25.048 107.378 24.76L107.762 23.64C108.29 23.88 108.882 24.072 109.458 24.072C110.322 24.072 110.898 23.736 110.898 23.032C110.898 22.488 110.61 22.264 110.114 22.04L108.722 21.4C108.226 21.176 107.33 20.728 107.33 19.432C107.33 18.008 108.578 17.336 109.938 17.336C110.754 17.336 111.33 17.464 111.97 17.736L111.538 18.84C111.026 18.616 110.53 18.456 109.922 18.456C109.106 18.456 108.578 18.712 108.578 19.352C108.578 19.912 109.058 20.136 109.362 20.28L110.786 20.952C111.778 21.416 112.194 22.008 112.194 22.824Z" fill="#00157E"/>
</svg>
