<svg width="420" height="290" viewBox="0 0 420 290" fill="none" xmlns="http://www.w3.org/2000/svg">
<path d="M0 8.00001C0 3.58173 3.58172 0 8 0H412C416.418 0 420 3.58172 420 8V282.004C420 286.422 416.418 290.004 412 290.004H8C3.58172 290.004 0 286.422 0 282.004V8.00001Z" fill="white"/>
<path d="M8 0.5H412C416.142 0.5 419.5 3.85786 419.5 8V282.004C419.5 286.146 416.142 289.504 412 289.504H8C3.85786 289.504 0.5 286.146 0.5 282.004V8C0.500006 3.85787 3.85787 0.5 8 0.5Z" stroke="#00157E" stroke-opacity="0.2"/>
<path d="M23.249 29.977C23.249 32.153 21.457 33.497 19.361 33.497H19.217V37.001H17.105V27.465C17.105 27.465 18.369 27.273 19.713 27.273C21.969 27.273 23.249 28.217 23.249 29.977ZM21.201 30.201C21.201 29.209 20.593 28.857 19.729 28.857C19.457 28.857 19.217 28.889 19.217 28.889V31.913H19.361C20.369 31.913 21.201 31.321 21.201 30.201ZM30.8145 33.193C30.8145 35.465 29.6305 37.177 27.4065 37.177C25.0065 37.177 23.9985 35.481 23.9985 33.193C23.9985 30.921 25.1825 29.257 27.4065 29.257C29.8065 29.257 30.8145 30.905 30.8145 33.193ZM28.7985 33.209C28.7985 31.657 28.2865 31.033 27.4065 31.033C26.5265 31.033 26.0145 31.625 26.0145 33.177C26.0145 34.713 26.5265 35.401 27.4065 35.401C28.2865 35.401 28.7985 34.745 28.7985 33.209ZM37.216 34.569C37.216 36.025 36.048 37.177 34.288 37.177C33.376 37.177 32.56 37.033 31.872 36.713L32.4 35.049C32.976 35.289 33.536 35.529 34.176 35.529C34.864 35.529 35.2 35.289 35.2 34.889C35.2 34.521 35.024 34.377 34.608 34.201L33.424 33.705C32.72 33.417 31.952 32.889 31.952 31.641C31.952 30.073 33.28 29.241 34.864 29.241C35.76 29.241 36.368 29.385 37.088 29.689L36.464 31.321C35.952 31.113 35.456 30.905 34.88 30.905C34.256 30.905 33.904 31.081 33.904 31.497C33.904 31.897 34.224 32.041 34.512 32.153L35.744 32.649C36.704 33.033 37.216 33.641 37.216 34.569ZM40.9015 37.001H38.8695V31.401L38.6135 29.529L40.9015 29.273V37.001ZM41.0935 27.305C41.0935 27.977 40.5655 28.521 39.8935 28.521C39.2215 28.521 38.6935 27.977 38.6935 27.305C38.6935 26.649 39.2215 26.105 39.8935 26.105C40.5655 26.105 41.0935 26.649 41.0935 27.305ZM47.6032 36.633C46.9472 36.985 46.4512 37.177 45.4432 37.177C43.9392 37.177 43.2032 36.169 43.2032 34.665V31.033H42.0352V29.689L43.2032 29.417V28.105L45.2192 27.865V29.433H47.2992V31.033H45.2192V34.121C45.2192 35.129 45.4752 35.385 46.1312 35.385C46.4992 35.385 46.7072 35.289 47.0592 35.129L47.6032 36.633ZM50.9484 37.001H48.9164V31.401L48.6604 29.529L50.9484 29.273V37.001ZM51.1404 27.305C51.1404 27.977 50.6124 28.521 49.9404 28.521C49.2684 28.521 48.7404 27.977 48.7404 27.305C48.7404 26.649 49.2684 26.105 49.9404 26.105C50.6124 26.105 51.1404 26.649 51.1404 27.305ZM59.3301 33.193C59.3301 35.465 58.1461 37.177 55.9221 37.177C53.5221 37.177 52.5141 35.481 52.5141 33.193C52.5141 30.921 53.6981 29.257 55.9221 29.257C58.3221 29.257 59.3301 30.905 59.3301 33.193ZM57.3141 33.209C57.3141 31.657 56.8021 31.033 55.9221 31.033C55.0421 31.033 54.5301 31.625 54.5301 33.177C54.5301 34.713 55.0421 35.401 55.9221 35.401C56.8021 35.401 57.3141 34.745 57.3141 33.209ZM67.2996 37.001H65.2676V32.201C65.2676 31.385 64.9316 31.017 64.2116 31.017C63.6836 31.017 63.2356 31.273 62.9476 31.561V37.001H60.9156V31.401L60.6596 29.529L62.6116 29.273L62.7076 30.105H62.7236C63.1716 29.657 63.9236 29.241 64.9316 29.241C66.2436 29.241 67.2996 29.993 67.2996 31.705V37.001ZM74.1222 34.569C74.1222 36.025 72.9542 37.177 71.1942 37.177C70.2822 37.177 69.4662 37.033 68.7782 36.713L69.3062 35.049C69.8822 35.289 70.4422 35.529 71.0822 35.529C71.7702 35.529 72.1062 35.289 72.1062 34.889C72.1062 34.521 71.9302 34.377 71.5142 34.201L70.3302 33.705C69.6262 33.417 68.8582 32.889 68.8582 31.641C68.8582 30.073 70.1862 29.241 71.7702 29.241C72.6662 29.241 73.2742 29.385 73.9942 29.689L73.3702 31.321C72.8582 31.113 72.3622 30.905 71.7862 30.905C71.1622 30.905 70.8102 31.081 70.8102 31.497C70.8102 31.897 71.1302 32.041 71.4182 32.153L72.6502 32.649C73.6102 33.033 74.1222 33.641 74.1222 34.569Z" fill="#00157E"/>
<path d="M301.999 32.001C301.999 23.1644 309.162 16.001 317.999 16.001H387.999C396.836 16.001 403.999 23.1644 403.999 32.001V32.001C403.999 40.8375 396.836 48.001 387.999 48.001H317.999C309.162 48.001 301.999 40.8375 301.999 32.001V32.001Z" fill="#00157E" fill-opacity="0.05"/>
<path d="M319.92 33.635C319.92 35.105 318.898 36.155 317.204 36.155C316.336 36.155 315.566 35.973 314.908 35.693L315.272 34.671C315.818 34.923 316.462 35.133 317.12 35.133C318.142 35.133 318.8 34.741 318.8 33.817C318.8 33.131 318.296 32.795 317.624 32.473L316.308 31.843C315.426 31.423 314.824 30.877 314.824 29.687C314.824 28.245 316.084 27.419 317.54 27.419C318.324 27.419 318.828 27.545 319.556 27.811L319.164 28.805C318.716 28.595 318.226 28.399 317.61 28.399C316.742 28.399 315.958 28.749 315.958 29.645C315.958 30.247 316.322 30.541 316.882 30.807L318.226 31.465C319.29 31.983 319.92 32.557 319.92 33.635ZM326.545 36.001H325.439V31.745C325.439 30.793 325.061 30.303 324.165 30.303C323.521 30.303 323.087 30.583 322.709 30.919V36.001H321.589V28.063L321.393 26.621L322.709 26.439V30.023H322.723C323.157 29.645 323.759 29.295 324.571 29.295C325.691 29.295 326.545 29.995 326.545 31.353V36.001ZM333.919 32.725C333.919 34.643 333.009 36.155 331.119 36.155C329.047 36.155 328.319 34.685 328.319 32.725C328.319 30.807 329.229 29.295 331.119 29.295C333.191 29.295 333.919 30.765 333.919 32.725ZM332.771 32.753C332.771 31.129 332.225 30.275 331.119 30.275C330.041 30.275 329.467 31.031 329.467 32.683C329.467 34.307 330.013 35.175 331.119 35.175C332.197 35.175 332.771 34.405 332.771 32.753ZM343.553 29.449L341.747 35.973L340.711 36.029L339.115 31.059H339.101L337.491 35.987L336.455 36.029L334.817 29.519L335.881 29.253L337.057 34.363H337.071L338.597 29.449H339.689L341.229 34.363H341.243L342.461 29.449H343.553ZM352.261 35.931L351.141 36.113L351.043 35.343H351.029C350.553 35.791 350.035 36.169 349.251 36.169C348.159 36.169 347.515 35.511 347.515 34.475C347.515 33.299 348.439 32.725 349.769 32.585L350.945 32.459V31.871C350.945 30.961 350.665 30.317 349.587 30.317C349.041 30.317 348.635 30.485 348.229 30.695L347.823 29.869C348.411 29.519 349.013 29.295 349.853 29.295C351.169 29.295 352.051 30.065 352.051 31.367V34.489L352.261 35.931ZM350.945 34.643V33.215L349.923 33.355C349.083 33.467 348.621 33.733 348.621 34.335C348.621 34.881 348.957 35.245 349.517 35.245C350.175 35.245 350.581 34.965 350.945 34.643ZM355.399 36.001H354.279V28.063L354.083 26.621L355.399 26.439V36.001ZM358.707 36.001H357.587V28.063L357.391 26.621L358.707 26.439V36.001Z" fill="#00157E"/>
<path d="M376.999 38.001L382.999 32.001L376.999 26.001" stroke="#00157E" stroke-width="2" stroke-linecap="round" stroke-linejoin="round"/>
<mask id="path-7-inside-1_820_126259" fill="white">
<path d="M16 64.002H404V134.002H16V64.002Z"/>
</mask>
<path d="M404 134.002V133.002H16V134.002V135.002H404V134.002Z" fill="#00157E" fill-opacity="0.2" mask="url(#path-7-inside-1_820_126259)"/>
<path d="M23.155 87.862L22.007 88.184L21.111 85.272H18.367L17.513 88.002H16.281L19.207 79.574H20.411L23.155 87.862ZM20.859 84.432L19.767 80.792H19.753L18.619 84.432H20.859ZM29.9491 85.426C29.9491 87.316 28.3951 88.002 26.3511 88.002H24.5731V79.63C24.5731 79.63 25.6371 79.504 26.7291 79.504C28.3391 79.504 29.3191 80.106 29.3191 81.436C29.3191 82.444 28.6891 83.116 27.8911 83.466V83.48C29.0251 83.606 29.9491 84.264 29.9491 85.426ZM28.7871 85.608C28.7871 84.67 28.1851 84.11 26.5331 84.11H25.7211V87.05H26.7431C27.8911 87.05 28.7871 86.616 28.7871 85.608ZM28.1571 81.702C28.1571 80.764 27.5551 80.358 26.4771 80.358C26.0851 80.358 25.7211 80.4 25.7211 80.4V83.298C27.1631 83.27 28.1571 82.864 28.1571 81.702ZM36.9491 85.426C36.9491 87.316 35.3951 88.002 33.3511 88.002H31.5731V79.63C31.5731 79.63 32.6371 79.504 33.7291 79.504C35.3391 79.504 36.3191 80.106 36.3191 81.436C36.3191 82.444 35.6891 83.116 34.8911 83.466V83.48C36.0251 83.606 36.9491 84.264 36.9491 85.426ZM35.7871 85.608C35.7871 84.67 35.1851 84.11 33.5331 84.11H32.7211V87.05H33.7431C34.8911 87.05 35.7871 86.616 35.7871 85.608ZM35.1571 81.702C35.1571 80.764 34.5551 80.358 33.4771 80.358C33.0851 80.358 32.7211 80.4 32.7211 80.4V83.298C34.1631 83.27 35.1571 82.864 35.1571 81.702ZM45.9086 88.002H41.5126V79.574H42.6886V87.008H45.9086V88.002ZM50.3931 87.736C49.9871 87.96 49.6091 88.142 48.8951 88.142C47.8871 88.142 47.2431 87.484 47.2431 86.364V82.36H46.2771V81.618L47.2431 81.422V80.33L48.3491 80.19V81.45H50.1831V82.36H48.3491V85.986C48.3491 86.868 48.5731 87.148 49.2171 87.148C49.5671 87.148 49.8331 87.008 50.0291 86.882L50.3931 87.736ZM56.6111 87.96L55.5331 88.114L55.4351 87.456H55.4211C55.0011 87.806 54.4271 88.156 53.6571 88.156C52.2151 88.156 51.2491 86.966 51.2491 85.02C51.2491 82.766 52.4111 81.38 54.3991 81.38C54.9311 81.38 55.3091 81.478 55.3091 81.478V80.064L55.0991 78.622L56.4151 78.44V86.518L56.6111 87.96ZM54.0491 87.176C54.5951 87.176 54.9731 86.952 55.3091 86.686V82.5C55.3091 82.5 54.9451 82.318 54.3011 82.318C53.0271 82.318 52.3971 83.396 52.3971 84.67C52.3971 86.252 52.8171 87.176 54.0491 87.176Z" fill="#00157E"/>
<path d="M20.909 100.974C20.909 102.234 20.033 103.134 18.581 103.134C17.837 103.134 17.177 102.978 16.613 102.738L16.925 101.862C17.393 102.078 17.945 102.258 18.509 102.258C19.385 102.258 19.949 101.922 19.949 101.13C19.949 100.542 19.517 100.254 18.941 99.978L17.813 99.438C17.057 99.078 16.541 98.61 16.541 97.59C16.541 96.354 17.621 95.646 18.869 95.646C19.541 95.646 19.973 95.754 20.597 95.982L20.261 96.834C19.877 96.654 19.457 96.486 18.929 96.486C18.185 96.486 17.513 96.786 17.513 97.554C17.513 98.07 17.825 98.322 18.305 98.55L19.457 99.114C20.369 99.558 20.909 100.05 20.909 100.974ZM25.1713 102.774C24.8233 102.966 24.4993 103.122 23.8873 103.122C23.0233 103.122 22.4713 102.558 22.4713 101.598V98.166H21.6433V97.53L22.4713 97.362V96.426L23.4193 96.306V97.386H24.9913V98.166H23.4193V101.274C23.4193 102.03 23.6113 102.27 24.1633 102.27C24.4633 102.27 24.6913 102.15 24.8593 102.042L25.1713 102.774ZM28.9732 98.214C28.3252 98.214 27.8452 98.382 27.4132 98.778V103.002H26.4532V98.682L26.2852 97.446L27.2332 97.29L27.3292 98.058H27.3412C27.7252 97.626 28.2292 97.266 28.9732 97.266V98.214ZM34.5726 102.942L33.6246 103.098L33.5286 102.45H33.5166C33.0966 102.846 32.5446 103.134 31.8486 103.134C30.9006 103.134 30.1446 102.522 30.1446 101.37V98.682L29.9766 97.446L31.1046 97.29V101.034C31.1046 101.862 31.4166 102.294 32.1726 102.294C32.7126 102.294 33.0966 102.066 33.4446 101.742V98.682L33.2766 97.446L34.4046 97.29V101.706L34.5726 102.942ZM39.9444 97.494L39.6444 98.358C39.3324 98.238 38.9844 98.13 38.5884 98.13C37.5324 98.13 36.8964 98.922 36.8964 100.11C36.8964 101.61 37.4844 102.294 38.5644 102.294C38.9484 102.294 39.2604 102.162 39.5724 102.03L39.8964 102.81C39.4284 103.026 38.9124 103.134 38.3724 103.134C36.7644 103.134 35.9364 101.982 35.9364 100.266C35.9364 98.202 37.2084 97.254 38.6364 97.254C39.1284 97.254 39.5484 97.338 39.9444 97.494ZM44.1909 102.774C43.8429 102.966 43.5189 103.122 42.9069 103.122C42.0429 103.122 41.4909 102.558 41.4909 101.598V98.166H40.6629V97.53L41.4909 97.362V96.426L42.4389 96.306V97.386H44.0109V98.166H42.4389V101.274C42.4389 102.03 42.6309 102.27 43.1829 102.27C43.4829 102.27 43.7109 102.15 43.8789 102.042L44.1909 102.774ZM49.9007 102.942L48.9527 103.098L48.8567 102.45H48.8447C48.4247 102.846 47.8727 103.134 47.1767 103.134C46.2287 103.134 45.4727 102.522 45.4727 101.37V98.682L45.3047 97.446L46.4327 97.29V101.034C46.4327 101.862 46.7447 102.294 47.5007 102.294C48.0407 102.294 48.4247 102.066 48.7727 101.742V98.682L48.6047 97.446L49.7327 97.29V101.706L49.9007 102.942ZM54.1685 98.214C53.5205 98.214 53.0405 98.382 52.6085 98.778V103.002H51.6485V98.682L51.4805 97.446L52.4285 97.29L52.5245 98.058H52.5365C52.9205 97.626 53.4245 97.266 54.1685 97.266V98.214ZM59.0993 102.702C58.5593 103.002 58.0073 103.134 57.3233 103.134C55.6673 103.134 54.8153 102.018 54.8153 100.158C54.8153 98.418 55.7273 97.254 57.1433 97.254C58.4993 97.254 59.0513 98.154 59.0513 99.39V100.062H55.7513C55.7633 101.562 56.3033 102.282 57.5273 102.282C57.9953 102.282 58.3553 102.15 58.7633 101.946L59.0993 102.702ZM58.1513 99.39C58.1513 98.55 57.8393 98.022 57.0953 98.022C56.3753 98.022 55.9193 98.586 55.7993 99.39H58.1513ZM64.7433 102.966L63.8193 103.098L63.7353 102.534H63.7233C63.3633 102.834 62.8713 103.134 62.2113 103.134C60.9753 103.134 60.1473 102.114 60.1473 100.446C60.1473 98.514 61.1433 97.326 62.8473 97.326C63.3033 97.326 63.6273 97.41 63.6273 97.41V96.198L63.4473 94.962L64.5753 94.806V101.73L64.7433 102.966ZM62.5473 102.294C63.0153 102.294 63.3393 102.102 63.6273 101.874V98.286C63.6273 98.286 63.3153 98.13 62.7633 98.13C61.6713 98.13 61.1313 99.054 61.1313 100.146C61.1313 101.502 61.4913 102.294 62.5473 102.294ZM73.4317 99.918C73.4317 101.742 72.6397 103.062 70.7677 103.062C70.4557 103.062 70.2037 103.038 69.9757 102.978V105.378L69.0157 105.534V98.682L68.8477 97.446L69.7957 97.29L69.8797 97.866H69.8917C70.2637 97.554 70.7557 97.254 71.4037 97.254C72.7717 97.254 73.4317 98.286 73.4317 99.918ZM72.4717 100.194C72.4717 98.97 72.1957 98.118 71.0797 98.118C70.5997 98.118 70.2517 98.322 69.9757 98.55V102.09C70.2037 102.186 70.4677 102.246 70.8397 102.246C71.8837 102.246 72.4717 101.43 72.4717 100.194ZM77.4771 98.214C76.8291 98.214 76.3491 98.382 75.9171 98.778V103.002H74.9571V98.682L74.7891 97.446L75.7371 97.29L75.8331 98.058H75.8451C76.2291 97.626 76.7331 97.266 77.4771 97.266V98.214ZM82.9239 100.194C82.9239 101.838 82.1439 103.134 80.5239 103.134C78.7479 103.134 78.1239 101.874 78.1239 100.194C78.1239 98.55 78.9039 97.254 80.5239 97.254C82.2999 97.254 82.9239 98.514 82.9239 100.194ZM81.9399 100.218C81.9399 98.826 81.4719 98.094 80.5239 98.094C79.5999 98.094 79.1079 98.742 79.1079 100.158C79.1079 101.55 79.5759 102.294 80.5239 102.294C81.4479 102.294 81.9399 101.634 81.9399 100.218ZM88.6613 102.966L87.7373 103.098L87.6533 102.534H87.6413C87.2813 102.834 86.7893 103.134 86.1293 103.134C84.8933 103.134 84.0653 102.114 84.0653 100.446C84.0653 98.514 85.0613 97.326 86.7653 97.326C87.2213 97.326 87.5453 97.41 87.5453 97.41V96.198L87.3653 94.962L88.4933 94.806V101.73L88.6613 102.966ZM86.4653 102.294C86.9333 102.294 87.2573 102.102 87.5453 101.874V98.286C87.5453 98.286 87.2333 98.13 86.6813 98.13C85.5893 98.13 85.0493 99.054 85.0493 100.146C85.0493 101.502 85.4093 102.294 86.4653 102.294ZM94.8421 102.942L93.8941 103.098L93.7981 102.45H93.7861C93.3661 102.846 92.8141 103.134 92.1181 103.134C91.1701 103.134 90.4141 102.522 90.4141 101.37V98.682L90.2461 97.446L91.3741 97.29V101.034C91.3741 101.862 91.6861 102.294 92.4421 102.294C92.9821 102.294 93.3661 102.066 93.7141 101.742V98.682L93.5461 97.446L94.6741 97.29V101.706L94.8421 102.942ZM100.214 97.494L99.9139 98.358C99.6019 98.238 99.2539 98.13 98.8579 98.13C97.8019 98.13 97.1659 98.922 97.1659 100.11C97.1659 101.61 97.7539 102.294 98.8339 102.294C99.2179 102.294 99.5299 102.162 99.8419 102.03L100.166 102.81C99.6979 103.026 99.1819 103.134 98.6419 103.134C97.0339 103.134 96.2059 101.982 96.2059 100.266C96.2059 98.202 97.4779 97.254 98.9059 97.254C99.3979 97.254 99.8179 97.338 100.214 97.494ZM104.46 102.774C104.112 102.966 103.788 103.122 103.176 103.122C102.312 103.122 101.76 102.558 101.76 101.598V98.166H100.932V97.53L101.76 97.362V96.426L102.708 96.306V97.386H104.28V98.166H102.708V101.274C102.708 102.03 102.9 102.27 103.452 102.27C103.752 102.27 103.98 102.15 104.148 102.042L104.46 102.774Z" fill="#00157E" fill-opacity="0.7"/>
<path d="M21.161 114.906H19.133V116.922H18.341V114.906H16.325V114.114H18.341V112.098H19.133V114.114H21.161V114.906ZM23.9696 118.002H23.0216V112.698L21.9656 112.842L21.8576 112.11L23.9696 111.774V118.002ZM26.9947 111.462C26.9947 112.338 26.6347 113.01 25.9027 113.442L25.6267 113.082C25.9867 112.818 26.1787 112.482 26.2387 112.05C25.9027 112.002 25.6147 111.714 25.6147 111.366C25.6147 110.97 25.9267 110.67 26.3107 110.67C26.6947 110.67 26.9947 110.982 26.9947 111.462ZM32.6049 118.002H28.1529V117.378L30.2049 115.41C30.7569 114.87 31.1769 114.474 31.1769 113.814C31.1769 113.118 30.7449 112.602 29.9409 112.602C29.4009 112.602 29.0169 112.842 28.7289 113.082L28.2729 112.446C28.7889 112.014 29.3169 111.75 30.1449 111.75C31.3329 111.75 32.1489 112.446 32.1489 113.706C32.1489 114.546 31.6449 115.182 31.0689 115.71L29.5329 117.126V117.138H32.6049V118.002ZM38.5017 114.942C38.5017 116.538 37.8777 118.134 36.0657 118.134C34.2417 118.134 33.6177 116.538 33.6177 114.942C33.6177 113.346 34.2417 111.75 36.0657 111.75C37.8777 111.75 38.5017 113.346 38.5017 114.942ZM37.5177 114.942C37.5177 113.598 37.0737 112.59 36.0657 112.59C35.0457 112.59 34.6017 113.598 34.6017 114.942C34.6017 116.286 35.0457 117.294 36.0657 117.294C37.0737 117.294 37.5177 116.286 37.5177 114.942ZM44.6775 114.942C44.6775 116.538 44.0535 118.134 42.2415 118.134C40.4175 118.134 39.7935 116.538 39.7935 114.942C39.7935 113.346 40.4175 111.75 42.2415 111.75C44.0535 111.75 44.6775 113.346 44.6775 114.942ZM43.6935 114.942C43.6935 113.598 43.2495 112.59 42.2415 112.59C41.2215 112.59 40.7775 113.598 40.7775 114.942C40.7775 116.286 41.2215 117.294 42.2415 117.294C43.2495 117.294 43.6935 116.286 43.6935 114.942ZM47.3853 117.39C47.3853 117.774 47.0733 118.086 46.7013 118.086C46.3173 118.086 46.0053 117.774 46.0053 117.39C46.0053 117.018 46.3173 116.706 46.7013 116.706C47.0733 116.706 47.3853 117.018 47.3853 117.39ZM52.8995 116.25C52.8995 117.402 52.0235 118.134 50.7875 118.134C49.5275 118.134 48.6755 117.498 48.6755 116.322C48.6755 115.266 49.4555 114.63 50.0555 114.222C49.3355 113.718 48.8555 113.286 48.8555 112.386C48.8555 111.366 49.6955 110.646 50.7755 110.646C51.9395 110.646 52.6955 111.294 52.6955 112.302C52.6955 113.166 52.0955 113.718 51.5075 114.126C52.2755 114.642 52.8995 115.158 52.8995 116.25ZM51.9755 116.25C51.9755 115.47 51.4355 115.074 50.7155 114.606C50.0795 115.038 49.5875 115.41 49.5875 116.202C49.5875 116.922 50.0675 117.33 50.7995 117.33C51.5795 117.33 51.9755 116.85 51.9755 116.25ZM51.8435 112.41C51.8435 111.798 51.4355 111.402 50.7875 111.402C50.1395 111.402 49.7195 111.822 49.7195 112.422C49.7195 112.986 50.1875 113.31 50.8355 113.754C51.3515 113.418 51.8435 112.986 51.8435 112.41ZM58.5887 115.806C58.5887 117.222 57.7487 118.134 56.3927 118.134C54.8567 118.134 54.2087 116.994 54.2087 115.302C54.2087 112.038 56.1287 110.694 58.2167 110.526L58.3367 111.318C56.8967 111.474 55.4567 112.254 55.1807 114.258L55.1927 114.27C55.1927 114.27 55.8047 113.742 56.6327 113.742C57.8927 113.742 58.5887 114.546 58.5887 115.806ZM57.6407 115.998C57.6407 114.978 57.2447 114.546 56.3687 114.546C55.6847 114.546 55.1807 115.026 55.1807 115.026V115.254C55.1807 116.598 55.5287 117.342 56.4767 117.342C57.2687 117.342 57.6407 116.778 57.6407 115.998Z" fill="#00157E"/>
<path d="M69.965 117.63C69.293 117.978 68.609 118.134 67.697 118.134C65.933 118.134 64.577 116.946 64.577 114.546C64.577 111.99 66.089 110.646 68.033 110.646C68.837 110.646 69.329 110.766 69.941 111.03L69.557 111.906C69.101 111.702 68.669 111.546 68.021 111.546C66.761 111.546 65.609 112.518 65.609 114.294C65.609 116.274 66.341 117.246 68.093 117.246C68.669 117.246 69.197 117.018 69.629 116.826L69.965 117.63ZM76.4876 118.002H75.4796V114.702H72.2276V118.002H71.2196V110.778H72.2276V113.85H75.4796V110.778H76.4876V118.002ZM82.0733 111.63H79.4813V113.982H81.8213V114.834H79.4813V118.002H78.4853V110.778H82.0733V111.63Z" fill="#00157E" fill-opacity="0.7"/>
<path d="M104.161 114.906H102.133V116.922H101.341V114.906H99.325V114.114H101.341V112.098H102.133V114.114H104.161V114.906ZM106.97 118.002H106.022V112.698L104.966 112.842L104.858 112.11L106.97 111.774V118.002ZM112.863 118.002H108.411V117.378L110.463 115.41C111.015 114.87 111.435 114.474 111.435 113.814C111.435 113.118 111.003 112.602 110.199 112.602C109.659 112.602 109.275 112.842 108.987 113.082L108.531 112.446C109.047 112.014 109.575 111.75 110.403 111.75C111.591 111.75 112.407 112.446 112.407 113.706C112.407 114.546 111.903 115.182 111.327 115.71L109.791 117.126V117.138H112.863V118.002ZM115.292 117.39C115.292 117.774 114.98 118.086 114.608 118.086C114.224 118.086 113.912 117.774 113.912 117.39C113.912 117.018 114.224 116.706 114.608 116.706C114.98 116.706 115.292 117.018 115.292 117.39ZM120.806 116.25C120.806 117.402 119.93 118.134 118.694 118.134C117.434 118.134 116.582 117.498 116.582 116.322C116.582 115.266 117.362 114.63 117.962 114.222C117.242 113.718 116.762 113.286 116.762 112.386C116.762 111.366 117.602 110.646 118.682 110.646C119.846 110.646 120.602 111.294 120.602 112.302C120.602 113.166 120.002 113.718 119.414 114.126C120.182 114.642 120.806 115.158 120.806 116.25ZM119.882 116.25C119.882 115.47 119.342 115.074 118.622 114.606C117.986 115.038 117.494 115.41 117.494 116.202C117.494 116.922 117.974 117.33 118.706 117.33C119.486 117.33 119.882 116.85 119.882 116.25ZM119.75 112.41C119.75 111.798 119.342 111.402 118.694 111.402C118.046 111.402 117.626 111.822 117.626 112.422C117.626 112.986 118.094 113.31 118.742 113.754C119.258 113.418 119.75 112.986 119.75 112.41ZM126.495 115.806C126.495 117.222 125.655 118.134 124.299 118.134C122.763 118.134 122.115 116.994 122.115 115.302C122.115 112.038 124.035 110.694 126.123 110.526L126.243 111.318C124.803 111.474 123.363 112.254 123.087 114.258L123.099 114.27C123.099 114.27 123.711 113.742 124.539 113.742C125.799 113.742 126.495 114.546 126.495 115.806ZM125.547 115.998C125.547 114.978 125.151 114.546 124.275 114.546C123.591 114.546 123.087 115.026 123.087 115.026V115.254C123.087 116.598 123.435 117.342 124.383 117.342C125.175 117.342 125.547 116.778 125.547 115.998Z" fill="#00157E"/>
<path d="M135.345 112.53C135.345 113.61 134.517 114.438 133.437 114.438C132.357 114.438 131.529 113.61 131.529 112.53C131.529 111.45 132.357 110.646 133.437 110.646C134.517 110.646 135.345 111.45 135.345 112.53ZM140.673 116.238C140.673 117.318 139.845 118.134 138.765 118.134C137.685 118.134 136.857 117.318 136.857 116.238C136.857 115.17 137.685 114.354 138.765 114.354C139.845 114.354 140.673 115.17 140.673 116.238ZM138.465 110.946L134.493 118.242L133.761 117.846L137.733 110.55L138.465 110.946ZM139.797 116.238C139.797 115.626 139.377 115.206 138.765 115.206C138.153 115.206 137.733 115.626 137.733 116.238C137.733 116.838 138.153 117.294 138.765 117.294C139.377 117.294 139.797 116.838 139.797 116.238ZM134.457 112.53C134.457 111.918 134.049 111.498 133.437 111.498C132.825 111.498 132.405 111.918 132.405 112.53C132.405 113.142 132.825 113.586 133.437 113.586C134.049 113.586 134.457 113.142 134.457 112.53Z" fill="#00157E" fill-opacity="0.7"/>
<path d="M336.963 86.63C336.291 86.978 335.607 87.134 334.695 87.134C332.931 87.134 331.575 85.946 331.575 83.546C331.575 80.99 333.087 79.646 335.031 79.646C335.835 79.646 336.327 79.766 336.939 80.03L336.555 80.906C336.099 80.702 335.667 80.546 335.019 80.546C333.759 80.546 332.607 81.518 332.607 83.294C332.607 85.274 333.339 86.246 335.091 86.246C335.667 86.246 336.195 86.018 336.627 85.826L336.963 86.63ZM343.486 87.002H342.478V83.702H339.226V87.002H338.218V79.778H339.226V82.85H342.478V79.778H343.486V87.002ZM349.071 80.63H346.479V82.982H348.819V83.834H346.479V87.002H345.483V79.778H349.071V80.63Z" fill="#00157E" fill-opacity="0.7"/>
<path d="M361.998 88.002H360.22V82.332L358.988 82.5L358.778 81.24L361.998 80.722V88.002ZM365.728 80.596C365.728 82.024 365.154 82.822 364.118 83.564L363.614 83.018C364.104 82.598 364.426 82.15 364.538 81.534C364.02 81.478 363.6 81.016 363.6 80.484C363.6 79.91 364.076 79.434 364.65 79.434C365.252 79.434 365.728 79.882 365.728 80.596ZM373.01 84.432C373.01 86.392 372.156 88.17 370 88.17C367.844 88.17 366.99 86.392 366.99 84.432C366.99 82.472 367.844 80.694 370 80.694C372.156 80.694 373.01 82.472 373.01 84.432ZM371.218 84.432C371.218 83.088 370.84 82.276 370 82.276C369.174 82.276 368.782 83.088 368.782 84.432C368.782 85.776 369.174 86.588 370 86.588C370.84 86.588 371.218 85.776 371.218 84.432ZM380.256 84.432C380.256 86.392 379.402 88.17 377.246 88.17C375.09 88.17 374.236 86.392 374.236 84.432C374.236 82.472 375.09 80.694 377.246 80.694C379.402 80.694 380.256 82.472 380.256 84.432ZM378.464 84.432C378.464 83.088 378.086 82.276 377.246 82.276C376.42 82.276 376.028 83.088 376.028 84.432C376.028 85.776 376.42 86.588 377.246 86.588C378.086 86.588 378.464 85.776 378.464 84.432ZM386.704 85.734C386.704 87.078 385.71 88.17 384.1 88.17C382.392 88.17 381.454 87.386 381.454 85.944C381.454 84.88 382.182 84.166 382.798 83.704C382.168 83.214 381.636 82.64 381.636 81.632C381.636 80.274 382.784 79.406 384.044 79.406C385.402 79.406 386.438 80.148 386.438 81.45C386.438 82.374 385.85 83.004 385.29 83.452C386.004 83.942 386.704 84.6 386.704 85.734ZM385.136 85.804C385.136 85.118 384.52 84.698 383.932 84.334C383.442 84.698 383.036 85.09 383.036 85.762C383.036 86.434 383.484 86.784 384.128 86.784C384.772 86.784 385.136 86.336 385.136 85.804ZM384.954 81.618C384.954 81.072 384.618 80.736 384.058 80.736C383.526 80.736 383.204 81.1 383.204 81.632C383.204 82.15 383.652 82.486 384.156 82.822C384.576 82.514 384.954 82.136 384.954 81.618ZM390.078 87.05C390.078 87.638 389.602 88.114 389.014 88.114C388.426 88.114 387.95 87.638 387.95 87.05C387.95 86.476 388.426 86 389.014 86C389.602 86 390.078 86.476 390.078 87.05ZM396.268 86.56C396.268 89.066 394.126 90.046 391.62 90.34L391.354 88.828C392.53 88.646 394.448 88.24 394.448 86.742C394.448 85.804 393.762 85.342 392.18 85.342H391.354L391.62 80.862H396.016V82.458H393.09L392.992 84.11C392.992 84.11 393.258 84.096 393.538 84.096C395.246 84.096 396.268 84.936 396.268 86.56ZM403.389 84.432C403.389 86.392 402.535 88.17 400.379 88.17C398.223 88.17 397.369 86.392 397.369 84.432C397.369 82.472 398.223 80.694 400.379 80.694C402.535 80.694 403.389 82.472 403.389 84.432ZM401.597 84.432C401.597 83.088 401.219 82.276 400.379 82.276C399.553 82.276 399.161 83.088 399.161 84.432C399.161 85.776 399.553 86.588 400.379 86.588C401.219 86.588 401.597 85.776 401.597 84.432Z" fill="#00157E"/>
<path d="M376.375 99.918C376.375 101.742 375.583 103.062 373.711 103.062C373.399 103.062 373.147 103.038 372.919 102.978V105.378L371.959 105.534V98.682L371.791 97.446L372.739 97.29L372.823 97.866H372.835C373.207 97.554 373.699 97.254 374.347 97.254C375.715 97.254 376.375 98.286 376.375 99.918ZM375.415 100.194C375.415 98.97 375.139 98.118 374.023 98.118C373.543 98.118 373.195 98.322 372.919 98.55V102.09C373.147 102.186 373.411 102.246 373.783 102.246C374.827 102.246 375.415 101.43 375.415 100.194ZM381.524 97.494L381.224 98.358C380.912 98.238 380.564 98.13 380.168 98.13C379.112 98.13 378.476 98.922 378.476 100.11C378.476 101.61 379.064 102.294 380.144 102.294C380.528 102.294 380.84 102.162 381.152 102.03L381.476 102.81C381.008 103.026 380.492 103.134 379.952 103.134C378.344 103.134 377.516 101.982 377.516 100.266C377.516 98.202 378.788 97.254 380.216 97.254C380.708 97.254 381.128 97.338 381.524 97.494ZM386.098 101.37C386.098 102.39 385.294 103.122 384.094 103.122C383.518 103.122 382.942 103.038 382.486 102.822L382.774 101.982C383.17 102.162 383.614 102.306 384.046 102.306C384.694 102.306 385.126 102.054 385.126 101.526C385.126 101.118 384.91 100.95 384.538 100.782L383.494 100.302C383.122 100.134 382.45 99.798 382.45 98.826C382.45 97.758 383.386 97.254 384.406 97.254C385.018 97.254 385.45 97.35 385.93 97.554L385.606 98.382C385.222 98.214 384.85 98.094 384.394 98.094C383.782 98.094 383.386 98.286 383.386 98.766C383.386 99.186 383.746 99.354 383.974 99.462L385.042 99.966C385.786 100.314 386.098 100.758 386.098 101.37ZM388.719 102.39C388.719 102.774 388.407 103.086 388.035 103.086C387.651 103.086 387.339 102.774 387.339 102.39C387.339 102.018 387.651 101.706 388.035 101.706C388.407 101.706 388.719 102.018 388.719 102.39Z" fill="#00157E" fill-opacity="0.7"/>
<path d="M396.495 103.002H395.547V97.698L394.491 97.842L394.383 97.11L396.495 96.774V103.002ZM402.988 99.942C402.988 101.538 402.364 103.134 400.552 103.134C398.728 103.134 398.104 101.538 398.104 99.942C398.104 98.346 398.728 96.75 400.552 96.75C402.364 96.75 402.988 98.346 402.988 99.942ZM402.004 99.942C402.004 98.598 401.56 97.59 400.552 97.59C399.532 97.59 399.088 98.598 399.088 99.942C399.088 101.286 399.532 102.294 400.552 102.294C401.56 102.294 402.004 101.286 402.004 99.942Z" fill="#00157E"/>
<path d="M341.963 117.63C341.291 117.978 340.607 118.134 339.695 118.134C337.931 118.134 336.575 116.946 336.575 114.546C336.575 111.99 338.087 110.646 340.031 110.646C340.835 110.646 341.327 110.766 341.939 111.03L341.555 111.906C341.099 111.702 340.667 111.546 340.019 111.546C338.759 111.546 337.607 112.518 337.607 114.294C337.607 116.274 338.339 117.246 340.091 117.246C340.667 117.246 341.195 117.018 341.627 116.826L341.963 117.63ZM348.486 118.002H347.478V114.702H344.226V118.002H343.218V110.778H344.226V113.85H347.478V110.778H348.486V118.002ZM354.071 111.63H351.479V113.982H353.819V114.834H351.479V118.002H350.483V110.778H354.071V111.63Z" fill="#00157E" fill-opacity="0.7"/>
<path d="M361.495 118.002H360.547V112.698L359.491 112.842L359.383 112.11L361.495 111.774V118.002ZM367.988 114.942C367.988 116.538 367.364 118.134 365.552 118.134C363.728 118.134 363.104 116.538 363.104 114.942C363.104 113.346 363.728 111.75 365.552 111.75C367.364 111.75 367.988 113.346 367.988 114.942ZM367.004 114.942C367.004 113.598 366.56 112.59 365.552 112.59C364.532 112.59 364.088 113.598 364.088 114.942C364.088 116.286 364.532 117.294 365.552 117.294C366.56 117.294 367.004 116.286 367.004 114.942ZM370.696 111.462C370.696 112.338 370.336 113.01 369.604 113.442L369.328 113.082C369.688 112.818 369.88 112.482 369.94 112.05C369.604 112.002 369.316 111.714 369.316 111.366C369.316 110.97 369.628 110.67 370.012 110.67C370.396 110.67 370.696 110.982 370.696 111.462ZM376.21 116.25C376.21 117.402 375.334 118.134 374.098 118.134C372.838 118.134 371.986 117.498 371.986 116.322C371.986 115.266 372.766 114.63 373.366 114.222C372.646 113.718 372.166 113.286 372.166 112.386C372.166 111.366 373.006 110.646 374.086 110.646C375.25 110.646 376.006 111.294 376.006 112.302C376.006 113.166 375.406 113.718 374.818 114.126C375.586 114.642 376.21 115.158 376.21 116.25ZM375.286 116.25C375.286 115.47 374.746 115.074 374.026 114.606C373.39 115.038 372.898 115.41 372.898 116.202C372.898 116.922 373.378 117.33 374.11 117.33C374.89 117.33 375.286 116.85 375.286 116.25ZM375.154 112.41C375.154 111.798 374.746 111.402 374.098 111.402C373.45 111.402 373.03 111.822 373.03 112.422C373.03 112.986 373.498 113.31 374.146 113.754C374.662 113.418 375.154 112.986 375.154 112.41ZM382.355 114.942C382.355 116.538 381.731 118.134 379.919 118.134C378.095 118.134 377.471 116.538 377.471 114.942C377.471 113.346 378.095 111.75 379.919 111.75C381.731 111.75 382.355 113.346 382.355 114.942ZM381.371 114.942C381.371 113.598 380.927 112.59 379.919 112.59C378.899 112.59 378.455 113.598 378.455 114.942C378.455 116.286 378.899 117.294 379.919 117.294C380.927 117.294 381.371 116.286 381.371 114.942ZM387.535 116.922C387.535 119.226 385.363 119.874 383.815 119.994L383.695 119.178C384.787 119.058 386.551 118.626 386.551 117.054C386.551 116.07 385.999 115.494 384.463 115.494H383.659L383.923 111.882H387.343V112.758H384.751L384.595 114.774C384.595 114.774 384.871 114.75 385.123 114.75C386.515 114.75 387.535 115.482 387.535 116.922ZM390.137 117.39C390.137 117.774 389.825 118.086 389.453 118.086C389.069 118.086 388.757 117.774 388.757 117.39C388.757 117.018 389.069 116.706 389.453 116.706C389.825 116.706 390.137 117.018 390.137 117.39ZM396.347 114.942C396.347 116.538 395.723 118.134 393.911 118.134C392.087 118.134 391.463 116.538 391.463 114.942C391.463 113.346 392.087 111.75 393.911 111.75C395.723 111.75 396.347 113.346 396.347 114.942ZM395.363 114.942C395.363 113.598 394.919 112.59 393.911 112.59C392.891 112.59 392.447 113.598 392.447 114.942C392.447 116.286 392.891 117.294 393.911 117.294C394.919 117.294 395.363 116.286 395.363 114.942ZM402.523 114.942C402.523 116.538 401.899 118.134 400.087 118.134C398.263 118.134 397.639 116.538 397.639 114.942C397.639 113.346 398.263 111.75 400.087 111.75C401.899 111.75 402.523 113.346 402.523 114.942ZM401.539 114.942C401.539 113.598 401.095 112.59 400.087 112.59C399.067 112.59 398.623 113.598 398.623 114.942C398.623 116.286 399.067 117.294 400.087 117.294C401.095 117.294 401.539 116.286 401.539 114.942Z" fill="#00157E"/>
<mask id="path-21-inside-2_820_126259" fill="white">
<path d="M16 134.003H404V204.003H16V134.003Z"/>
</mask>
<path d="M404 204.003V203.003H16V204.003V205.003H404V204.003Z" fill="#00157E" fill-opacity="0.2" mask="url(#path-21-inside-2_820_126259)"/>
<path d="M23.155 157.863L22.007 158.185L21.111 155.273H18.367L17.513 158.003H16.281L19.207 149.575H20.411L23.155 157.863ZM20.859 154.433L19.767 150.793H19.753L18.619 154.433H20.859ZM29.9491 155.427C29.9491 157.317 28.3951 158.003 26.3511 158.003H24.5731V149.631C24.5731 149.631 25.6371 149.505 26.7291 149.505C28.3391 149.505 29.3191 150.107 29.3191 151.437C29.3191 152.445 28.6891 153.117 27.8911 153.467V153.481C29.0251 153.607 29.9491 154.265 29.9491 155.427ZM28.7871 155.609C28.7871 154.671 28.1851 154.111 26.5331 154.111H25.7211V157.051H26.7431C27.8911 157.051 28.7871 156.617 28.7871 155.609ZM28.1571 151.703C28.1571 150.765 27.5551 150.359 26.4771 150.359C26.0851 150.359 25.7211 150.401 25.7211 150.401V153.299C27.1631 153.271 28.1571 152.865 28.1571 151.703ZM36.9491 155.427C36.9491 157.317 35.3951 158.003 33.3511 158.003H31.5731V149.631C31.5731 149.631 32.6371 149.505 33.7291 149.505C35.3391 149.505 36.3191 150.107 36.3191 151.437C36.3191 152.445 35.6891 153.117 34.8911 153.467V153.481C36.0251 153.607 36.9491 154.265 36.9491 155.427ZM35.7871 155.609C35.7871 154.671 35.1851 154.111 33.5331 154.111H32.7211V157.051H33.7431C34.8911 157.051 35.7871 156.617 35.7871 155.609ZM35.1571 151.703C35.1571 150.765 34.5551 150.359 33.4771 150.359C33.0851 150.359 32.7211 150.401 32.7211 150.401V153.299C34.1631 153.271 35.1571 152.865 35.1571 151.703ZM45.9086 158.003H41.5126V149.575H42.6886V157.009H45.9086V158.003ZM50.3931 157.737C49.9871 157.961 49.6091 158.143 48.8951 158.143C47.8871 158.143 47.2431 157.485 47.2431 156.365V152.361H46.2771V151.619L47.2431 151.423V150.331L48.3491 150.191V151.451H50.1831V152.361H48.3491V155.987C48.3491 156.869 48.5731 157.149 49.2171 157.149C49.5671 157.149 49.8331 157.009 50.0291 156.883L50.3931 157.737ZM56.6111 157.961L55.5331 158.115L55.4351 157.457H55.4211C55.0011 157.807 54.4271 158.157 53.6571 158.157C52.2151 158.157 51.2491 156.967 51.2491 155.021C51.2491 152.767 52.4111 151.381 54.3991 151.381C54.9311 151.381 55.3091 151.479 55.3091 151.479V150.065L55.0991 148.623L56.4151 148.441V156.519L56.6111 157.961ZM54.0491 157.177C54.5951 157.177 54.9731 156.953 55.3091 156.687V152.501C55.3091 152.501 54.9451 152.319 54.3011 152.319C53.0271 152.319 52.3971 153.397 52.3971 154.671C52.3971 156.253 52.8171 157.177 54.0491 157.177Z" fill="#00157E"/>
<path d="M20.909 170.975C20.909 172.235 20.033 173.135 18.581 173.135C17.837 173.135 17.177 172.979 16.613 172.739L16.925 171.863C17.393 172.079 17.945 172.259 18.509 172.259C19.385 172.259 19.949 171.923 19.949 171.131C19.949 170.543 19.517 170.255 18.941 169.979L17.813 169.439C17.057 169.079 16.541 168.611 16.541 167.591C16.541 166.355 17.621 165.647 18.869 165.647C19.541 165.647 19.973 165.755 20.597 165.983L20.261 166.835C19.877 166.655 19.457 166.487 18.929 166.487C18.185 166.487 17.513 166.787 17.513 167.555C17.513 168.071 17.825 168.323 18.305 168.551L19.457 169.115C20.369 169.559 20.909 170.051 20.909 170.975ZM25.1713 172.775C24.8233 172.967 24.4993 173.123 23.8873 173.123C23.0233 173.123 22.4713 172.559 22.4713 171.599V168.167H21.6433V167.531L22.4713 167.363V166.427L23.4193 166.307V167.387H24.9913V168.167H23.4193V171.275C23.4193 172.031 23.6113 172.271 24.1633 172.271C24.4633 172.271 24.6913 172.151 24.8593 172.043L25.1713 172.775ZM28.9732 168.215C28.3252 168.215 27.8452 168.383 27.4132 168.779V173.003H26.4532V168.683L26.2852 167.447L27.2332 167.291L27.3292 168.059H27.3412C27.7252 167.627 28.2292 167.267 28.9732 167.267V168.215ZM34.5726 172.943L33.6246 173.099L33.5286 172.451H33.5166C33.0966 172.847 32.5446 173.135 31.8486 173.135C30.9006 173.135 30.1446 172.523 30.1446 171.371V168.683L29.9766 167.447L31.1046 167.291V171.035C31.1046 171.863 31.4166 172.295 32.1726 172.295C32.7126 172.295 33.0966 172.067 33.4446 171.743V168.683L33.2766 167.447L34.4046 167.291V171.707L34.5726 172.943ZM39.9444 167.495L39.6444 168.359C39.3324 168.239 38.9844 168.131 38.5884 168.131C37.5324 168.131 36.8964 168.923 36.8964 170.111C36.8964 171.611 37.4844 172.295 38.5644 172.295C38.9484 172.295 39.2604 172.163 39.5724 172.031L39.8964 172.811C39.4284 173.027 38.9124 173.135 38.3724 173.135C36.7644 173.135 35.9364 171.983 35.9364 170.267C35.9364 168.203 37.2084 167.255 38.6364 167.255C39.1284 167.255 39.5484 167.339 39.9444 167.495ZM44.1909 172.775C43.8429 172.967 43.5189 173.123 42.9069 173.123C42.0429 173.123 41.4909 172.559 41.4909 171.599V168.167H40.6629V167.531L41.4909 167.363V166.427L42.4389 166.307V167.387H44.0109V168.167H42.4389V171.275C42.4389 172.031 42.6309 172.271 43.1829 172.271C43.4829 172.271 43.7109 172.151 43.8789 172.043L44.1909 172.775ZM49.9007 172.943L48.9527 173.099L48.8567 172.451H48.8447C48.4247 172.847 47.8727 173.135 47.1767 173.135C46.2287 173.135 45.4727 172.523 45.4727 171.371V168.683L45.3047 167.447L46.4327 167.291V171.035C46.4327 171.863 46.7447 172.295 47.5007 172.295C48.0407 172.295 48.4247 172.067 48.7727 171.743V168.683L48.6047 167.447L49.7327 167.291V171.707L49.9007 172.943ZM54.1685 168.215C53.5205 168.215 53.0405 168.383 52.6085 168.779V173.003H51.6485V168.683L51.4805 167.447L52.4285 167.291L52.5245 168.059H52.5365C52.9205 167.627 53.4245 167.267 54.1685 167.267V168.215ZM59.0993 172.703C58.5593 173.003 58.0073 173.135 57.3233 173.135C55.6673 173.135 54.8153 172.019 54.8153 170.159C54.8153 168.419 55.7273 167.255 57.1433 167.255C58.4993 167.255 59.0513 168.155 59.0513 169.391V170.063H55.7513C55.7633 171.563 56.3033 172.283 57.5273 172.283C57.9953 172.283 58.3553 172.151 58.7633 171.947L59.0993 172.703ZM58.1513 169.391C58.1513 168.551 57.8393 168.023 57.0953 168.023C56.3753 168.023 55.9193 168.587 55.7993 169.391H58.1513ZM64.7433 172.967L63.8193 173.099L63.7353 172.535H63.7233C63.3633 172.835 62.8713 173.135 62.2113 173.135C60.9753 173.135 60.1473 172.115 60.1473 170.447C60.1473 168.515 61.1433 167.327 62.8473 167.327C63.3033 167.327 63.6273 167.411 63.6273 167.411V166.199L63.4473 164.963L64.5753 164.807V171.731L64.7433 172.967ZM62.5473 172.295C63.0153 172.295 63.3393 172.103 63.6273 171.875V168.287C63.6273 168.287 63.3153 168.131 62.7633 168.131C61.6713 168.131 61.1313 169.055 61.1313 170.147C61.1313 171.503 61.4913 172.295 62.5473 172.295ZM73.4317 169.919C73.4317 171.743 72.6397 173.063 70.7677 173.063C70.4557 173.063 70.2037 173.039 69.9757 172.979V175.379L69.0157 175.535V168.683L68.8477 167.447L69.7957 167.291L69.8797 167.867H69.8917C70.2637 167.555 70.7557 167.255 71.4037 167.255C72.7717 167.255 73.4317 168.287 73.4317 169.919ZM72.4717 170.195C72.4717 168.971 72.1957 168.119 71.0797 168.119C70.5997 168.119 70.2517 168.323 69.9757 168.551V172.091C70.2037 172.187 70.4677 172.247 70.8397 172.247C71.8837 172.247 72.4717 171.431 72.4717 170.195ZM77.4771 168.215C76.8291 168.215 76.3491 168.383 75.9171 168.779V173.003H74.9571V168.683L74.7891 167.447L75.7371 167.291L75.8331 168.059H75.8451C76.2291 167.627 76.7331 167.267 77.4771 167.267V168.215ZM82.9239 170.195C82.9239 171.839 82.1439 173.135 80.5239 173.135C78.7479 173.135 78.1239 171.875 78.1239 170.195C78.1239 168.551 78.9039 167.255 80.5239 167.255C82.2999 167.255 82.9239 168.515 82.9239 170.195ZM81.9399 170.219C81.9399 168.827 81.4719 168.095 80.5239 168.095C79.5999 168.095 79.1079 168.743 79.1079 170.159C79.1079 171.551 79.5759 172.295 80.5239 172.295C81.4479 172.295 81.9399 171.635 81.9399 170.219ZM88.6613 172.967L87.7373 173.099L87.6533 172.535H87.6413C87.2813 172.835 86.7893 173.135 86.1293 173.135C84.8933 173.135 84.0653 172.115 84.0653 170.447C84.0653 168.515 85.0613 167.327 86.7653 167.327C87.2213 167.327 87.5453 167.411 87.5453 167.411V166.199L87.3653 164.963L88.4933 164.807V171.731L88.6613 172.967ZM86.4653 172.295C86.9333 172.295 87.2573 172.103 87.5453 171.875V168.287C87.5453 168.287 87.2333 168.131 86.6813 168.131C85.5893 168.131 85.0493 169.055 85.0493 170.147C85.0493 171.503 85.4093 172.295 86.4653 172.295ZM94.8421 172.943L93.8941 173.099L93.7981 172.451H93.7861C93.3661 172.847 92.8141 173.135 92.1181 173.135C91.1701 173.135 90.4141 172.523 90.4141 171.371V168.683L90.2461 167.447L91.3741 167.291V171.035C91.3741 171.863 91.6861 172.295 92.4421 172.295C92.9821 172.295 93.3661 172.067 93.7141 171.743V168.683L93.5461 167.447L94.6741 167.291V171.707L94.8421 172.943ZM100.214 167.495L99.9139 168.359C99.6019 168.239 99.2539 168.131 98.8579 168.131C97.8019 168.131 97.1659 168.923 97.1659 170.111C97.1659 171.611 97.7539 172.295 98.8339 172.295C99.2179 172.295 99.5299 172.163 99.8419 172.031L100.166 172.811C99.6979 173.027 99.1819 173.135 98.6419 173.135C97.0339 173.135 96.2059 171.983 96.2059 170.267C96.2059 168.203 97.4779 167.255 98.9059 167.255C99.3979 167.255 99.8179 167.339 100.214 167.495ZM104.46 172.775C104.112 172.967 103.788 173.123 103.176 173.123C102.312 173.123 101.76 172.559 101.76 171.599V168.167H100.932V167.531L101.76 167.363V166.427L102.708 166.307V167.387H104.28V168.167H102.708V171.275C102.708 172.031 102.9 172.271 103.452 172.271C103.752 172.271 103.98 172.151 104.148 172.043L104.46 172.775Z" fill="#00157E" fill-opacity="0.7"/>
<path d="M21.161 184.907H19.133V186.923H18.341V184.907H16.325V184.115H18.341V182.099H19.133V184.115H21.161V184.907ZM23.9696 188.003H23.0216V182.699L21.9656 182.843L21.8576 182.111L23.9696 181.775V188.003ZM26.9947 181.463C26.9947 182.339 26.6347 183.011 25.9027 183.443L25.6267 183.083C25.9867 182.819 26.1787 182.483 26.2387 182.051C25.9027 182.003 25.6147 181.715 25.6147 181.367C25.6147 180.971 25.9267 180.671 26.3107 180.671C26.6947 180.671 26.9947 180.983 26.9947 181.463ZM32.6049 188.003H28.1529V187.379L30.2049 185.411C30.7569 184.871 31.1769 184.475 31.1769 183.815C31.1769 183.119 30.7449 182.603 29.9409 182.603C29.4009 182.603 29.0169 182.843 28.7289 183.083L28.2729 182.447C28.7889 182.015 29.3169 181.751 30.1449 181.751C31.3329 181.751 32.1489 182.447 32.1489 183.707C32.1489 184.547 31.6449 185.183 31.0689 185.711L29.5329 187.127V187.139H32.6049V188.003ZM38.5017 184.943C38.5017 186.539 37.8777 188.135 36.0657 188.135C34.2417 188.135 33.6177 186.539 33.6177 184.943C33.6177 183.347 34.2417 181.751 36.0657 181.751C37.8777 181.751 38.5017 183.347 38.5017 184.943ZM37.5177 184.943C37.5177 183.599 37.0737 182.591 36.0657 182.591C35.0457 182.591 34.6017 183.599 34.6017 184.943C34.6017 186.287 35.0457 187.295 36.0657 187.295C37.0737 187.295 37.5177 186.287 37.5177 184.943ZM44.6775 184.943C44.6775 186.539 44.0535 188.135 42.2415 188.135C40.4175 188.135 39.7935 186.539 39.7935 184.943C39.7935 183.347 40.4175 181.751 42.2415 181.751C44.0535 181.751 44.6775 183.347 44.6775 184.943ZM43.6935 184.943C43.6935 183.599 43.2495 182.591 42.2415 182.591C41.2215 182.591 40.7775 183.599 40.7775 184.943C40.7775 186.287 41.2215 187.295 42.2415 187.295C43.2495 187.295 43.6935 186.287 43.6935 184.943ZM47.3853 187.391C47.3853 187.775 47.0733 188.087 46.7013 188.087C46.3173 188.087 46.0053 187.775 46.0053 187.391C46.0053 187.019 46.3173 186.707 46.7013 186.707C47.0733 186.707 47.3853 187.019 47.3853 187.391ZM52.8995 186.251C52.8995 187.403 52.0235 188.135 50.7875 188.135C49.5275 188.135 48.6755 187.499 48.6755 186.323C48.6755 185.267 49.4555 184.631 50.0555 184.223C49.3355 183.719 48.8555 183.287 48.8555 182.387C48.8555 181.367 49.6955 180.647 50.7755 180.647C51.9395 180.647 52.6955 181.295 52.6955 182.303C52.6955 183.167 52.0955 183.719 51.5075 184.127C52.2755 184.643 52.8995 185.159 52.8995 186.251ZM51.9755 186.251C51.9755 185.471 51.4355 185.075 50.7155 184.607C50.0795 185.039 49.5875 185.411 49.5875 186.203C49.5875 186.923 50.0675 187.331 50.7995 187.331C51.5795 187.331 51.9755 186.851 51.9755 186.251ZM51.8435 182.411C51.8435 181.799 51.4355 181.403 50.7875 181.403C50.1395 181.403 49.7195 181.823 49.7195 182.423C49.7195 182.987 50.1875 183.311 50.8355 183.755C51.3515 183.419 51.8435 182.987 51.8435 182.411ZM58.5887 185.807C58.5887 187.223 57.7487 188.135 56.3927 188.135C54.8567 188.135 54.2087 186.995 54.2087 185.303C54.2087 182.039 56.1287 180.695 58.2167 180.527L58.3367 181.319C56.8967 181.475 55.4567 182.255 55.1807 184.259L55.1927 184.271C55.1927 184.271 55.8047 183.743 56.6327 183.743C57.8927 183.743 58.5887 184.547 58.5887 185.807ZM57.6407 185.999C57.6407 184.979 57.2447 184.547 56.3687 184.547C55.6847 184.547 55.1807 185.027 55.1807 185.027V185.255C55.1807 186.599 55.5287 187.343 56.4767 187.343C57.2687 187.343 57.6407 186.779 57.6407 185.999Z" fill="#00157E"/>
<path d="M69.965 187.631C69.293 187.979 68.609 188.135 67.697 188.135C65.933 188.135 64.577 186.947 64.577 184.547C64.577 181.991 66.089 180.647 68.033 180.647C68.837 180.647 69.329 180.767 69.941 181.031L69.557 181.907C69.101 181.703 68.669 181.547 68.021 181.547C66.761 181.547 65.609 182.519 65.609 184.295C65.609 186.275 66.341 187.247 68.093 187.247C68.669 187.247 69.197 187.019 69.629 186.827L69.965 187.631ZM76.4876 188.003H75.4796V184.703H72.2276V188.003H71.2196V180.779H72.2276V183.851H75.4796V180.779H76.4876V188.003ZM82.0733 181.631H79.4813V183.983H81.8213V184.835H79.4813V188.003H78.4853V180.779H82.0733V181.631Z" fill="#00157E" fill-opacity="0.7"/>
<path d="M104.161 184.907H102.133V186.923H101.341V184.907H99.325V184.115H101.341V182.099H102.133V184.115H104.161V184.907ZM106.97 188.003H106.022V182.699L104.966 182.843L104.858 182.111L106.97 181.775V188.003ZM112.863 188.003H108.411V187.379L110.463 185.411C111.015 184.871 111.435 184.475 111.435 183.815C111.435 183.119 111.003 182.603 110.199 182.603C109.659 182.603 109.275 182.843 108.987 183.083L108.531 182.447C109.047 182.015 109.575 181.751 110.403 181.751C111.591 181.751 112.407 182.447 112.407 183.707C112.407 184.547 111.903 185.183 111.327 185.711L109.791 187.127V187.139H112.863V188.003ZM115.292 187.391C115.292 187.775 114.98 188.087 114.608 188.087C114.224 188.087 113.912 187.775 113.912 187.391C113.912 187.019 114.224 186.707 114.608 186.707C114.98 186.707 115.292 187.019 115.292 187.391ZM120.806 186.251C120.806 187.403 119.93 188.135 118.694 188.135C117.434 188.135 116.582 187.499 116.582 186.323C116.582 185.267 117.362 184.631 117.962 184.223C117.242 183.719 116.762 183.287 116.762 182.387C116.762 181.367 117.602 180.647 118.682 180.647C119.846 180.647 120.602 181.295 120.602 182.303C120.602 183.167 120.002 183.719 119.414 184.127C120.182 184.643 120.806 185.159 120.806 186.251ZM119.882 186.251C119.882 185.471 119.342 185.075 118.622 184.607C117.986 185.039 117.494 185.411 117.494 186.203C117.494 186.923 117.974 187.331 118.706 187.331C119.486 187.331 119.882 186.851 119.882 186.251ZM119.75 182.411C119.75 181.799 119.342 181.403 118.694 181.403C118.046 181.403 117.626 181.823 117.626 182.423C117.626 182.987 118.094 183.311 118.742 183.755C119.258 183.419 119.75 182.987 119.75 182.411ZM126.495 185.807C126.495 187.223 125.655 188.135 124.299 188.135C122.763 188.135 122.115 186.995 122.115 185.303C122.115 182.039 124.035 180.695 126.123 180.527L126.243 181.319C124.803 181.475 123.363 182.255 123.087 184.259L123.099 184.271C123.099 184.271 123.711 183.743 124.539 183.743C125.799 183.743 126.495 184.547 126.495 185.807ZM125.547 185.999C125.547 184.979 125.151 184.547 124.275 184.547C123.591 184.547 123.087 185.027 123.087 185.027V185.255C123.087 186.599 123.435 187.343 124.383 187.343C125.175 187.343 125.547 186.779 125.547 185.999Z" fill="#00157E"/>
<path d="M135.345 182.531C135.345 183.611 134.517 184.439 133.437 184.439C132.357 184.439 131.529 183.611 131.529 182.531C131.529 181.451 132.357 180.647 133.437 180.647C134.517 180.647 135.345 181.451 135.345 182.531ZM140.673 186.239C140.673 187.319 139.845 188.135 138.765 188.135C137.685 188.135 136.857 187.319 136.857 186.239C136.857 185.171 137.685 184.355 138.765 184.355C139.845 184.355 140.673 185.171 140.673 186.239ZM138.465 180.947L134.493 188.243L133.761 187.847L137.733 180.551L138.465 180.947ZM139.797 186.239C139.797 185.627 139.377 185.207 138.765 185.207C138.153 185.207 137.733 185.627 137.733 186.239C137.733 186.839 138.153 187.295 138.765 187.295C139.377 187.295 139.797 186.839 139.797 186.239ZM134.457 182.531C134.457 181.919 134.049 181.499 133.437 181.499C132.825 181.499 132.405 181.919 132.405 182.531C132.405 183.143 132.825 183.587 133.437 183.587C134.049 183.587 134.457 183.143 134.457 182.531Z" fill="#00157E" fill-opacity="0.7"/>
<path d="M336.963 156.631C336.291 156.979 335.607 157.135 334.695 157.135C332.931 157.135 331.575 155.947 331.575 153.547C331.575 150.991 333.087 149.647 335.031 149.647C335.835 149.647 336.327 149.767 336.939 150.031L336.555 150.907C336.099 150.703 335.667 150.547 335.019 150.547C333.759 150.547 332.607 151.519 332.607 153.295C332.607 155.275 333.339 156.247 335.091 156.247C335.667 156.247 336.195 156.019 336.627 155.827L336.963 156.631ZM343.486 157.003H342.478V153.703H339.226V157.003H338.218V149.779H339.226V152.851H342.478V149.779H343.486V157.003ZM349.071 150.631H346.479V152.983H348.819V153.835H346.479V157.003H345.483V149.779H349.071V150.631Z" fill="#00157E" fill-opacity="0.7"/>
<path d="M361.998 158.003H360.22V152.333L358.988 152.501L358.778 151.241L361.998 150.723V158.003ZM365.728 150.597C365.728 152.025 365.154 152.823 364.118 153.565L363.614 153.019C364.104 152.599 364.426 152.151 364.538 151.535C364.02 151.479 363.6 151.017 363.6 150.485C363.6 149.911 364.076 149.435 364.65 149.435C365.252 149.435 365.728 149.883 365.728 150.597ZM373.01 154.433C373.01 156.393 372.156 158.171 370 158.171C367.844 158.171 366.99 156.393 366.99 154.433C366.99 152.473 367.844 150.695 370 150.695C372.156 150.695 373.01 152.473 373.01 154.433ZM371.218 154.433C371.218 153.089 370.84 152.277 370 152.277C369.174 152.277 368.782 153.089 368.782 154.433C368.782 155.777 369.174 156.589 370 156.589C370.84 156.589 371.218 155.777 371.218 154.433ZM380.256 154.433C380.256 156.393 379.402 158.171 377.246 158.171C375.09 158.171 374.236 156.393 374.236 154.433C374.236 152.473 375.09 150.695 377.246 150.695C379.402 150.695 380.256 152.473 380.256 154.433ZM378.464 154.433C378.464 153.089 378.086 152.277 377.246 152.277C376.42 152.277 376.028 153.089 376.028 154.433C376.028 155.777 376.42 156.589 377.246 156.589C378.086 156.589 378.464 155.777 378.464 154.433ZM386.704 155.735C386.704 157.079 385.71 158.171 384.1 158.171C382.392 158.171 381.454 157.387 381.454 155.945C381.454 154.881 382.182 154.167 382.798 153.705C382.168 153.215 381.636 152.641 381.636 151.633C381.636 150.275 382.784 149.407 384.044 149.407C385.402 149.407 386.438 150.149 386.438 151.451C386.438 152.375 385.85 153.005 385.29 153.453C386.004 153.943 386.704 154.601 386.704 155.735ZM385.136 155.805C385.136 155.119 384.52 154.699 383.932 154.335C383.442 154.699 383.036 155.091 383.036 155.763C383.036 156.435 383.484 156.785 384.128 156.785C384.772 156.785 385.136 156.337 385.136 155.805ZM384.954 151.619C384.954 151.073 384.618 150.737 384.058 150.737C383.526 150.737 383.204 151.101 383.204 151.633C383.204 152.151 383.652 152.487 384.156 152.823C384.576 152.515 384.954 152.137 384.954 151.619ZM390.078 157.051C390.078 157.639 389.602 158.115 389.014 158.115C388.426 158.115 387.95 157.639 387.95 157.051C387.95 156.477 388.426 156.001 389.014 156.001C389.602 156.001 390.078 156.477 390.078 157.051ZM396.268 156.561C396.268 159.067 394.126 160.047 391.62 160.341L391.354 158.829C392.53 158.647 394.448 158.241 394.448 156.743C394.448 155.805 393.762 155.343 392.18 155.343H391.354L391.62 150.863H396.016V152.459H393.09L392.992 154.111C392.992 154.111 393.258 154.097 393.538 154.097C395.246 154.097 396.268 154.937 396.268 156.561ZM403.389 154.433C403.389 156.393 402.535 158.171 400.379 158.171C398.223 158.171 397.369 156.393 397.369 154.433C397.369 152.473 398.223 150.695 400.379 150.695C402.535 150.695 403.389 152.473 403.389 154.433ZM401.597 154.433C401.597 153.089 401.219 152.277 400.379 152.277C399.553 152.277 399.161 153.089 399.161 154.433C399.161 155.777 399.553 156.589 400.379 156.589C401.219 156.589 401.597 155.777 401.597 154.433Z" fill="#00157E"/>
<path d="M376.375 169.919C376.375 171.743 375.583 173.063 373.711 173.063C373.399 173.063 373.147 173.039 372.919 172.979V175.379L371.959 175.535V168.683L371.791 167.447L372.739 167.291L372.823 167.867H372.835C373.207 167.555 373.699 167.255 374.347 167.255C375.715 167.255 376.375 168.287 376.375 169.919ZM375.415 170.195C375.415 168.971 375.139 168.119 374.023 168.119C373.543 168.119 373.195 168.323 372.919 168.551V172.091C373.147 172.187 373.411 172.247 373.783 172.247C374.827 172.247 375.415 171.431 375.415 170.195ZM381.524 167.495L381.224 168.359C380.912 168.239 380.564 168.131 380.168 168.131C379.112 168.131 378.476 168.923 378.476 170.111C378.476 171.611 379.064 172.295 380.144 172.295C380.528 172.295 380.84 172.163 381.152 172.031L381.476 172.811C381.008 173.027 380.492 173.135 379.952 173.135C378.344 173.135 377.516 171.983 377.516 170.267C377.516 168.203 378.788 167.255 380.216 167.255C380.708 167.255 381.128 167.339 381.524 167.495ZM386.098 171.371C386.098 172.391 385.294 173.123 384.094 173.123C383.518 173.123 382.942 173.039 382.486 172.823L382.774 171.983C383.17 172.163 383.614 172.307 384.046 172.307C384.694 172.307 385.126 172.055 385.126 171.527C385.126 171.119 384.91 170.951 384.538 170.783L383.494 170.303C383.122 170.135 382.45 169.799 382.45 168.827C382.45 167.759 383.386 167.255 384.406 167.255C385.018 167.255 385.45 167.351 385.93 167.555L385.606 168.383C385.222 168.215 384.85 168.095 384.394 168.095C383.782 168.095 383.386 168.287 383.386 168.767C383.386 169.187 383.746 169.355 383.974 169.463L385.042 169.967C385.786 170.315 386.098 170.759 386.098 171.371ZM388.719 172.391C388.719 172.775 388.407 173.087 388.035 173.087C387.651 173.087 387.339 172.775 387.339 172.391C387.339 172.019 387.651 171.707 388.035 171.707C388.407 171.707 388.719 172.019 388.719 172.391Z" fill="#00157E" fill-opacity="0.7"/>
<path d="M396.495 173.003H395.547V167.699L394.491 167.843L394.383 167.111L396.495 166.775V173.003ZM402.988 169.943C402.988 171.539 402.364 173.135 400.552 173.135C398.728 173.135 398.104 171.539 398.104 169.943C398.104 168.347 398.728 166.751 400.552 166.751C402.364 166.751 402.988 168.347 402.988 169.943ZM402.004 169.943C402.004 168.599 401.56 167.591 400.552 167.591C399.532 167.591 399.088 168.599 399.088 169.943C399.088 171.287 399.532 172.295 400.552 172.295C401.56 172.295 402.004 171.287 402.004 169.943Z" fill="#00157E"/>
<path d="M341.963 187.631C341.291 187.979 340.607 188.135 339.695 188.135C337.931 188.135 336.575 186.947 336.575 184.547C336.575 181.991 338.087 180.647 340.031 180.647C340.835 180.647 341.327 180.767 341.939 181.031L341.555 181.907C341.099 181.703 340.667 181.547 340.019 181.547C338.759 181.547 337.607 182.519 337.607 184.295C337.607 186.275 338.339 187.247 340.091 187.247C340.667 187.247 341.195 187.019 341.627 186.827L341.963 187.631ZM348.486 188.003H347.478V184.703H344.226V188.003H343.218V180.779H344.226V183.851H347.478V180.779H348.486V188.003ZM354.071 181.631H351.479V183.983H353.819V184.835H351.479V188.003H350.483V180.779H354.071V181.631Z" fill="#00157E" fill-opacity="0.7"/>
<path d="M361.495 188.003H360.547V182.699L359.491 182.843L359.383 182.111L361.495 181.775V188.003ZM367.988 184.943C367.988 186.539 367.364 188.135 365.552 188.135C363.728 188.135 363.104 186.539 363.104 184.943C363.104 183.347 363.728 181.751 365.552 181.751C367.364 181.751 367.988 183.347 367.988 184.943ZM367.004 184.943C367.004 183.599 366.56 182.591 365.552 182.591C364.532 182.591 364.088 183.599 364.088 184.943C364.088 186.287 364.532 187.295 365.552 187.295C366.56 187.295 367.004 186.287 367.004 184.943ZM370.696 181.463C370.696 182.339 370.336 183.011 369.604 183.443L369.328 183.083C369.688 182.819 369.88 182.483 369.94 182.051C369.604 182.003 369.316 181.715 369.316 181.367C369.316 180.971 369.628 180.671 370.012 180.671C370.396 180.671 370.696 180.983 370.696 181.463ZM376.21 186.251C376.21 187.403 375.334 188.135 374.098 188.135C372.838 188.135 371.986 187.499 371.986 186.323C371.986 185.267 372.766 184.631 373.366 184.223C372.646 183.719 372.166 183.287 372.166 182.387C372.166 181.367 373.006 180.647 374.086 180.647C375.25 180.647 376.006 181.295 376.006 182.303C376.006 183.167 375.406 183.719 374.818 184.127C375.586 184.643 376.21 185.159 376.21 186.251ZM375.286 186.251C375.286 185.471 374.746 185.075 374.026 184.607C373.39 185.039 372.898 185.411 372.898 186.203C372.898 186.923 373.378 187.331 374.11 187.331C374.89 187.331 375.286 186.851 375.286 186.251ZM375.154 182.411C375.154 181.799 374.746 181.403 374.098 181.403C373.45 181.403 373.03 181.823 373.03 182.423C373.03 182.987 373.498 183.311 374.146 183.755C374.662 183.419 375.154 182.987 375.154 182.411ZM382.355 184.943C382.355 186.539 381.731 188.135 379.919 188.135C378.095 188.135 377.471 186.539 377.471 184.943C377.471 183.347 378.095 181.751 379.919 181.751C381.731 181.751 382.355 183.347 382.355 184.943ZM381.371 184.943C381.371 183.599 380.927 182.591 379.919 182.591C378.899 182.591 378.455 183.599 378.455 184.943C378.455 186.287 378.899 187.295 379.919 187.295C380.927 187.295 381.371 186.287 381.371 184.943ZM387.535 186.923C387.535 189.227 385.363 189.875 383.815 189.995L383.695 189.179C384.787 189.059 386.551 188.627 386.551 187.055C386.551 186.071 385.999 185.495 384.463 185.495H383.659L383.923 181.883H387.343V182.759H384.751L384.595 184.775C384.595 184.775 384.871 184.751 385.123 184.751C386.515 184.751 387.535 185.483 387.535 186.923ZM390.137 187.391C390.137 187.775 389.825 188.087 389.453 188.087C389.069 188.087 388.757 187.775 388.757 187.391C388.757 187.019 389.069 186.707 389.453 186.707C389.825 186.707 390.137 187.019 390.137 187.391ZM396.347 184.943C396.347 186.539 395.723 188.135 393.911 188.135C392.087 188.135 391.463 186.539 391.463 184.943C391.463 183.347 392.087 181.751 393.911 181.751C395.723 181.751 396.347 183.347 396.347 184.943ZM395.363 184.943C395.363 183.599 394.919 182.591 393.911 182.591C392.891 182.591 392.447 183.599 392.447 184.943C392.447 186.287 392.891 187.295 393.911 187.295C394.919 187.295 395.363 186.287 395.363 184.943ZM402.523 184.943C402.523 186.539 401.899 188.135 400.087 188.135C398.263 188.135 397.639 186.539 397.639 184.943C397.639 183.347 398.263 181.751 400.087 181.751C401.899 181.751 402.523 183.347 402.523 184.943ZM401.539 184.943C401.539 183.599 401.095 182.591 400.087 182.591C399.067 182.591 398.623 183.599 398.623 184.943C398.623 186.287 399.067 187.295 400.087 187.295C401.095 187.295 401.539 186.287 401.539 184.943Z" fill="#00157E"/>
<path d="M23.155 227.864L22.007 228.186L21.111 225.274H18.367L17.513 228.004H16.281L19.207 219.576H20.411L23.155 227.864ZM20.859 224.434L19.767 220.794H19.753L18.619 224.434H20.859ZM29.9491 225.428C29.9491 227.318 28.3951 228.004 26.3511 228.004H24.5731V219.632C24.5731 219.632 25.6371 219.506 26.7291 219.506C28.3391 219.506 29.3191 220.108 29.3191 221.438C29.3191 222.446 28.6891 223.118 27.8911 223.468V223.482C29.0251 223.608 29.9491 224.266 29.9491 225.428ZM28.7871 225.61C28.7871 224.672 28.1851 224.112 26.5331 224.112H25.7211V227.052H26.7431C27.8911 227.052 28.7871 226.618 28.7871 225.61ZM28.1571 221.704C28.1571 220.766 27.5551 220.36 26.4771 220.36C26.0851 220.36 25.7211 220.402 25.7211 220.402V223.3C27.1631 223.272 28.1571 222.866 28.1571 221.704ZM36.9491 225.428C36.9491 227.318 35.3951 228.004 33.3511 228.004H31.5731V219.632C31.5731 219.632 32.6371 219.506 33.7291 219.506C35.3391 219.506 36.3191 220.108 36.3191 221.438C36.3191 222.446 35.6891 223.118 34.8911 223.468V223.482C36.0251 223.608 36.9491 224.266 36.9491 225.428ZM35.7871 225.61C35.7871 224.672 35.1851 224.112 33.5331 224.112H32.7211V227.052H33.7431C34.8911 227.052 35.7871 226.618 35.7871 225.61ZM35.1571 221.704C35.1571 220.766 34.5551 220.36 33.4771 220.36C33.0851 220.36 32.7211 220.402 32.7211 220.402V223.3C34.1631 223.272 35.1571 222.866 35.1571 221.704ZM45.9086 228.004H41.5126V219.576H42.6886V227.01H45.9086V228.004ZM50.3931 227.738C49.9871 227.962 49.6091 228.144 48.8951 228.144C47.8871 228.144 47.2431 227.486 47.2431 226.366V222.362H46.2771V221.62L47.2431 221.424V220.332L48.3491 220.192V221.452H50.1831V222.362H48.3491V225.988C48.3491 226.87 48.5731 227.15 49.2171 227.15C49.5671 227.15 49.8331 227.01 50.0291 226.884L50.3931 227.738ZM56.6111 227.962L55.5331 228.116L55.4351 227.458H55.4211C55.0011 227.808 54.4271 228.158 53.6571 228.158C52.2151 228.158 51.2491 226.968 51.2491 225.022C51.2491 222.768 52.4111 221.382 54.3991 221.382C54.9311 221.382 55.3091 221.48 55.3091 221.48V220.066L55.0991 218.624L56.4151 218.442V226.52L56.6111 227.962ZM54.0491 227.178C54.5951 227.178 54.9731 226.954 55.3091 226.688V222.502C55.3091 222.502 54.9451 222.32 54.3011 222.32C53.0271 222.32 52.3971 223.398 52.3971 224.672C52.3971 226.254 52.8171 227.178 54.0491 227.178Z" fill="#00157E"/>
<path d="M20.909 240.976C20.909 242.236 20.033 243.136 18.581 243.136C17.837 243.136 17.177 242.98 16.613 242.74L16.925 241.864C17.393 242.08 17.945 242.26 18.509 242.26C19.385 242.26 19.949 241.924 19.949 241.132C19.949 240.544 19.517 240.256 18.941 239.98L17.813 239.44C17.057 239.08 16.541 238.612 16.541 237.592C16.541 236.356 17.621 235.648 18.869 235.648C19.541 235.648 19.973 235.756 20.597 235.984L20.261 236.836C19.877 236.656 19.457 236.488 18.929 236.488C18.185 236.488 17.513 236.788 17.513 237.556C17.513 238.072 17.825 238.324 18.305 238.552L19.457 239.116C20.369 239.56 20.909 240.052 20.909 240.976ZM25.1713 242.776C24.8233 242.968 24.4993 243.124 23.8873 243.124C23.0233 243.124 22.4713 242.56 22.4713 241.6V238.168H21.6433V237.532L22.4713 237.364V236.428L23.4193 236.308V237.388H24.9913V238.168H23.4193V241.276C23.4193 242.032 23.6113 242.272 24.1633 242.272C24.4633 242.272 24.6913 242.152 24.8593 242.044L25.1713 242.776ZM28.9732 238.216C28.3252 238.216 27.8452 238.384 27.4132 238.78V243.004H26.4532V238.684L26.2852 237.448L27.2332 237.292L27.3292 238.06H27.3412C27.7252 237.628 28.2292 237.268 28.9732 237.268V238.216ZM34.5726 242.944L33.6246 243.1L33.5286 242.452H33.5166C33.0966 242.848 32.5446 243.136 31.8486 243.136C30.9006 243.136 30.1446 242.524 30.1446 241.372V238.684L29.9766 237.448L31.1046 237.292V241.036C31.1046 241.864 31.4166 242.296 32.1726 242.296C32.7126 242.296 33.0966 242.068 33.4446 241.744V238.684L33.2766 237.448L34.4046 237.292V241.708L34.5726 242.944ZM39.9444 237.496L39.6444 238.36C39.3324 238.24 38.9844 238.132 38.5884 238.132C37.5324 238.132 36.8964 238.924 36.8964 240.112C36.8964 241.612 37.4844 242.296 38.5644 242.296C38.9484 242.296 39.2604 242.164 39.5724 242.032L39.8964 242.812C39.4284 243.028 38.9124 243.136 38.3724 243.136C36.7644 243.136 35.9364 241.984 35.9364 240.268C35.9364 238.204 37.2084 237.256 38.6364 237.256C39.1284 237.256 39.5484 237.34 39.9444 237.496ZM44.1909 242.776C43.8429 242.968 43.5189 243.124 42.9069 243.124C42.0429 243.124 41.4909 242.56 41.4909 241.6V238.168H40.6629V237.532L41.4909 237.364V236.428L42.4389 236.308V237.388H44.0109V238.168H42.4389V241.276C42.4389 242.032 42.6309 242.272 43.1829 242.272C43.4829 242.272 43.7109 242.152 43.8789 242.044L44.1909 242.776ZM49.9007 242.944L48.9527 243.1L48.8567 242.452H48.8447C48.4247 242.848 47.8727 243.136 47.1767 243.136C46.2287 243.136 45.4727 242.524 45.4727 241.372V238.684L45.3047 237.448L46.4327 237.292V241.036C46.4327 241.864 46.7447 242.296 47.5007 242.296C48.0407 242.296 48.4247 242.068 48.7727 241.744V238.684L48.6047 237.448L49.7327 237.292V241.708L49.9007 242.944ZM54.1685 238.216C53.5205 238.216 53.0405 238.384 52.6085 238.78V243.004H51.6485V238.684L51.4805 237.448L52.4285 237.292L52.5245 238.06H52.5365C52.9205 237.628 53.4245 237.268 54.1685 237.268V238.216ZM59.0993 242.704C58.5593 243.004 58.0073 243.136 57.3233 243.136C55.6673 243.136 54.8153 242.02 54.8153 240.16C54.8153 238.42 55.7273 237.256 57.1433 237.256C58.4993 237.256 59.0513 238.156 59.0513 239.392V240.064H55.7513C55.7633 241.564 56.3033 242.284 57.5273 242.284C57.9953 242.284 58.3553 242.152 58.7633 241.948L59.0993 242.704ZM58.1513 239.392C58.1513 238.552 57.8393 238.024 57.0953 238.024C56.3753 238.024 55.9193 238.588 55.7993 239.392H58.1513ZM64.7433 242.968L63.8193 243.1L63.7353 242.536H63.7233C63.3633 242.836 62.8713 243.136 62.2113 243.136C60.9753 243.136 60.1473 242.116 60.1473 240.448C60.1473 238.516 61.1433 237.328 62.8473 237.328C63.3033 237.328 63.6273 237.412 63.6273 237.412V236.2L63.4473 234.964L64.5753 234.808V241.732L64.7433 242.968ZM62.5473 242.296C63.0153 242.296 63.3393 242.104 63.6273 241.876V238.288C63.6273 238.288 63.3153 238.132 62.7633 238.132C61.6713 238.132 61.1313 239.056 61.1313 240.148C61.1313 241.504 61.4913 242.296 62.5473 242.296ZM73.4317 239.92C73.4317 241.744 72.6397 243.064 70.7677 243.064C70.4557 243.064 70.2037 243.04 69.9757 242.98V245.38L69.0157 245.536V238.684L68.8477 237.448L69.7957 237.292L69.8797 237.868H69.8917C70.2637 237.556 70.7557 237.256 71.4037 237.256C72.7717 237.256 73.4317 238.288 73.4317 239.92ZM72.4717 240.196C72.4717 238.972 72.1957 238.12 71.0797 238.12C70.5997 238.12 70.2517 238.324 69.9757 238.552V242.092C70.2037 242.188 70.4677 242.248 70.8397 242.248C71.8837 242.248 72.4717 241.432 72.4717 240.196ZM77.4771 238.216C76.8291 238.216 76.3491 238.384 75.9171 238.78V243.004H74.9571V238.684L74.7891 237.448L75.7371 237.292L75.8331 238.06H75.8451C76.2291 237.628 76.7331 237.268 77.4771 237.268V238.216ZM82.9239 240.196C82.9239 241.84 82.1439 243.136 80.5239 243.136C78.7479 243.136 78.1239 241.876 78.1239 240.196C78.1239 238.552 78.9039 237.256 80.5239 237.256C82.2999 237.256 82.9239 238.516 82.9239 240.196ZM81.9399 240.22C81.9399 238.828 81.4719 238.096 80.5239 238.096C79.5999 238.096 79.1079 238.744 79.1079 240.16C79.1079 241.552 79.5759 242.296 80.5239 242.296C81.4479 242.296 81.9399 241.636 81.9399 240.22ZM88.6613 242.968L87.7373 243.1L87.6533 242.536H87.6413C87.2813 242.836 86.7893 243.136 86.1293 243.136C84.8933 243.136 84.0653 242.116 84.0653 240.448C84.0653 238.516 85.0613 237.328 86.7653 237.328C87.2213 237.328 87.5453 237.412 87.5453 237.412V236.2L87.3653 234.964L88.4933 234.808V241.732L88.6613 242.968ZM86.4653 242.296C86.9333 242.296 87.2573 242.104 87.5453 241.876V238.288C87.5453 238.288 87.2333 238.132 86.6813 238.132C85.5893 238.132 85.0493 239.056 85.0493 240.148C85.0493 241.504 85.4093 242.296 86.4653 242.296ZM94.8421 242.944L93.8941 243.1L93.7981 242.452H93.7861C93.3661 242.848 92.8141 243.136 92.1181 243.136C91.1701 243.136 90.4141 242.524 90.4141 241.372V238.684L90.2461 237.448L91.3741 237.292V241.036C91.3741 241.864 91.6861 242.296 92.4421 242.296C92.9821 242.296 93.3661 242.068 93.7141 241.744V238.684L93.5461 237.448L94.6741 237.292V241.708L94.8421 242.944ZM100.214 237.496L99.9139 238.36C99.6019 238.24 99.2539 238.132 98.8579 238.132C97.8019 238.132 97.1659 238.924 97.1659 240.112C97.1659 241.612 97.7539 242.296 98.8339 242.296C99.2179 242.296 99.5299 242.164 99.8419 242.032L100.166 242.812C99.6979 243.028 99.1819 243.136 98.6419 243.136C97.0339 243.136 96.2059 241.984 96.2059 240.268C96.2059 238.204 97.4779 237.256 98.9059 237.256C99.3979 237.256 99.8179 237.34 100.214 237.496ZM104.46 242.776C104.112 242.968 103.788 243.124 103.176 243.124C102.312 243.124 101.76 242.56 101.76 241.6V238.168H100.932V237.532L101.76 237.364V236.428L102.708 236.308V237.388H104.28V238.168H102.708V241.276C102.708 242.032 102.9 242.272 103.452 242.272C103.752 242.272 103.98 242.152 104.148 242.044L104.46 242.776Z" fill="#00157E" fill-opacity="0.7"/>
<path d="M21.161 254.908H19.133V256.924H18.341V254.908H16.325V254.116H18.341V252.1H19.133V254.116H21.161V254.908ZM23.9696 258.004H23.0216V252.7L21.9656 252.844L21.8576 252.112L23.9696 251.776V258.004ZM26.9947 251.464C26.9947 252.34 26.6347 253.012 25.9027 253.444L25.6267 253.084C25.9867 252.82 26.1787 252.484 26.2387 252.052C25.9027 252.004 25.6147 251.716 25.6147 251.368C25.6147 250.972 25.9267 250.672 26.3107 250.672C26.6947 250.672 26.9947 250.984 26.9947 251.464ZM32.6049 258.004H28.1529V257.38L30.2049 255.412C30.7569 254.872 31.1769 254.476 31.1769 253.816C31.1769 253.12 30.7449 252.604 29.9409 252.604C29.4009 252.604 29.0169 252.844 28.7289 253.084L28.2729 252.448C28.7889 252.016 29.3169 251.752 30.1449 251.752C31.3329 251.752 32.1489 252.448 32.1489 253.708C32.1489 254.548 31.6449 255.184 31.0689 255.712L29.5329 257.128V257.14H32.6049V258.004ZM38.5017 254.944C38.5017 256.54 37.8777 258.136 36.0657 258.136C34.2417 258.136 33.6177 256.54 33.6177 254.944C33.6177 253.348 34.2417 251.752 36.0657 251.752C37.8777 251.752 38.5017 253.348 38.5017 254.944ZM37.5177 254.944C37.5177 253.6 37.0737 252.592 36.0657 252.592C35.0457 252.592 34.6017 253.6 34.6017 254.944C34.6017 256.288 35.0457 257.296 36.0657 257.296C37.0737 257.296 37.5177 256.288 37.5177 254.944ZM44.6775 254.944C44.6775 256.54 44.0535 258.136 42.2415 258.136C40.4175 258.136 39.7935 256.54 39.7935 254.944C39.7935 253.348 40.4175 251.752 42.2415 251.752C44.0535 251.752 44.6775 253.348 44.6775 254.944ZM43.6935 254.944C43.6935 253.6 43.2495 252.592 42.2415 252.592C41.2215 252.592 40.7775 253.6 40.7775 254.944C40.7775 256.288 41.2215 257.296 42.2415 257.296C43.2495 257.296 43.6935 256.288 43.6935 254.944ZM47.3853 257.392C47.3853 257.776 47.0733 258.088 46.7013 258.088C46.3173 258.088 46.0053 257.776 46.0053 257.392C46.0053 257.02 46.3173 256.708 46.7013 256.708C47.0733 256.708 47.3853 257.02 47.3853 257.392ZM52.8995 256.252C52.8995 257.404 52.0235 258.136 50.7875 258.136C49.5275 258.136 48.6755 257.5 48.6755 256.324C48.6755 255.268 49.4555 254.632 50.0555 254.224C49.3355 253.72 48.8555 253.288 48.8555 252.388C48.8555 251.368 49.6955 250.648 50.7755 250.648C51.9395 250.648 52.6955 251.296 52.6955 252.304C52.6955 253.168 52.0955 253.72 51.5075 254.128C52.2755 254.644 52.8995 255.16 52.8995 256.252ZM51.9755 256.252C51.9755 255.472 51.4355 255.076 50.7155 254.608C50.0795 255.04 49.5875 255.412 49.5875 256.204C49.5875 256.924 50.0675 257.332 50.7995 257.332C51.5795 257.332 51.9755 256.852 51.9755 256.252ZM51.8435 252.412C51.8435 251.8 51.4355 251.404 50.7875 251.404C50.1395 251.404 49.7195 251.824 49.7195 252.424C49.7195 252.988 50.1875 253.312 50.8355 253.756C51.3515 253.42 51.8435 252.988 51.8435 252.412ZM58.5887 255.808C58.5887 257.224 57.7487 258.136 56.3927 258.136C54.8567 258.136 54.2087 256.996 54.2087 255.304C54.2087 252.04 56.1287 250.696 58.2167 250.528L58.3367 251.32C56.8967 251.476 55.4567 252.256 55.1807 254.26L55.1927 254.272C55.1927 254.272 55.8047 253.744 56.6327 253.744C57.8927 253.744 58.5887 254.548 58.5887 255.808ZM57.6407 256C57.6407 254.98 57.2447 254.548 56.3687 254.548C55.6847 254.548 55.1807 255.028 55.1807 255.028V255.256C55.1807 256.6 55.5287 257.344 56.4767 257.344C57.2687 257.344 57.6407 256.78 57.6407 256Z" fill="#00157E"/>
<path d="M69.965 257.632C69.293 257.98 68.609 258.136 67.697 258.136C65.933 258.136 64.577 256.948 64.577 254.548C64.577 251.992 66.089 250.648 68.033 250.648C68.837 250.648 69.329 250.768 69.941 251.032L69.557 251.908C69.101 251.704 68.669 251.548 68.021 251.548C66.761 251.548 65.609 252.52 65.609 254.296C65.609 256.276 66.341 257.248 68.093 257.248C68.669 257.248 69.197 257.02 69.629 256.828L69.965 257.632ZM76.4876 258.004H75.4796V254.704H72.2276V258.004H71.2196V250.78H72.2276V253.852H75.4796V250.78H76.4876V258.004ZM82.0733 251.632H79.4813V253.984H81.8213V254.836H79.4813V258.004H78.4853V250.78H82.0733V251.632Z" fill="#00157E" fill-opacity="0.7"/>
<path d="M104.161 254.908H102.133V256.924H101.341V254.908H99.325V254.116H101.341V252.1H102.133V254.116H104.161V254.908ZM106.97 258.004H106.022V252.7L104.966 252.844L104.858 252.112L106.97 251.776V258.004ZM112.863 258.004H108.411V257.38L110.463 255.412C111.015 254.872 111.435 254.476 111.435 253.816C111.435 253.12 111.003 252.604 110.199 252.604C109.659 252.604 109.275 252.844 108.987 253.084L108.531 252.448C109.047 252.016 109.575 251.752 110.403 251.752C111.591 251.752 112.407 252.448 112.407 253.708C112.407 254.548 111.903 255.184 111.327 255.712L109.791 257.128V257.14H112.863V258.004ZM115.292 257.392C115.292 257.776 114.98 258.088 114.608 258.088C114.224 258.088 113.912 257.776 113.912 257.392C113.912 257.02 114.224 256.708 114.608 256.708C114.98 256.708 115.292 257.02 115.292 257.392ZM120.806 256.252C120.806 257.404 119.93 258.136 118.694 258.136C117.434 258.136 116.582 257.5 116.582 256.324C116.582 255.268 117.362 254.632 117.962 254.224C117.242 253.72 116.762 253.288 116.762 252.388C116.762 251.368 117.602 250.648 118.682 250.648C119.846 250.648 120.602 251.296 120.602 252.304C120.602 253.168 120.002 253.72 119.414 254.128C120.182 254.644 120.806 255.16 120.806 256.252ZM119.882 256.252C119.882 255.472 119.342 255.076 118.622 254.608C117.986 255.04 117.494 255.412 117.494 256.204C117.494 256.924 117.974 257.332 118.706 257.332C119.486 257.332 119.882 256.852 119.882 256.252ZM119.75 252.412C119.75 251.8 119.342 251.404 118.694 251.404C118.046 251.404 117.626 251.824 117.626 252.424C117.626 252.988 118.094 253.312 118.742 253.756C119.258 253.42 119.75 252.988 119.75 252.412ZM126.495 255.808C126.495 257.224 125.655 258.136 124.299 258.136C122.763 258.136 122.115 256.996 122.115 255.304C122.115 252.04 124.035 250.696 126.123 250.528L126.243 251.32C124.803 251.476 123.363 252.256 123.087 254.26L123.099 254.272C123.099 254.272 123.711 253.744 124.539 253.744C125.799 253.744 126.495 254.548 126.495 255.808ZM125.547 256C125.547 254.98 125.151 254.548 124.275 254.548C123.591 254.548 123.087 255.028 123.087 255.028V255.256C123.087 256.6 123.435 257.344 124.383 257.344C125.175 257.344 125.547 256.78 125.547 256Z" fill="#00157E"/>
<path d="M135.345 252.532C135.345 253.612 134.517 254.44 133.437 254.44C132.357 254.44 131.529 253.612 131.529 252.532C131.529 251.452 132.357 250.648 133.437 250.648C134.517 250.648 135.345 251.452 135.345 252.532ZM140.673 256.24C140.673 257.32 139.845 258.136 138.765 258.136C137.685 258.136 136.857 257.32 136.857 256.24C136.857 255.172 137.685 254.356 138.765 254.356C139.845 254.356 140.673 255.172 140.673 256.24ZM138.465 250.948L134.493 258.244L133.761 257.848L137.733 250.552L138.465 250.948ZM139.797 256.24C139.797 255.628 139.377 255.208 138.765 255.208C138.153 255.208 137.733 255.628 137.733 256.24C137.733 256.84 138.153 257.296 138.765 257.296C139.377 257.296 139.797 256.84 139.797 256.24ZM134.457 252.532C134.457 251.92 134.049 251.5 133.437 251.5C132.825 251.5 132.405 251.92 132.405 252.532C132.405 253.144 132.825 253.588 133.437 253.588C134.049 253.588 134.457 253.144 134.457 252.532Z" fill="#00157E" fill-opacity="0.7"/>
<path d="M336.963 226.632C336.291 226.98 335.607 227.136 334.695 227.136C332.931 227.136 331.575 225.948 331.575 223.548C331.575 220.992 333.087 219.648 335.031 219.648C335.835 219.648 336.327 219.768 336.939 220.032L336.555 220.908C336.099 220.704 335.667 220.548 335.019 220.548C333.759 220.548 332.607 221.52 332.607 223.296C332.607 225.276 333.339 226.248 335.091 226.248C335.667 226.248 336.195 226.02 336.627 225.828L336.963 226.632ZM343.486 227.004H342.478V223.704H339.226V227.004H338.218V219.78H339.226V222.852H342.478V219.78H343.486V227.004ZM349.071 220.632H346.479V222.984H348.819V223.836H346.479V227.004H345.483V219.78H349.071V220.632Z" fill="#00157E" fill-opacity="0.7"/>
<path d="M361.998 228.004H360.22V222.334L358.988 222.502L358.778 221.242L361.998 220.724V228.004ZM365.728 220.598C365.728 222.026 365.154 222.824 364.118 223.566L363.614 223.02C364.104 222.6 364.426 222.152 364.538 221.536C364.02 221.48 363.6 221.018 363.6 220.486C363.6 219.912 364.076 219.436 364.65 219.436C365.252 219.436 365.728 219.884 365.728 220.598ZM373.01 224.434C373.01 226.394 372.156 228.172 370 228.172C367.844 228.172 366.99 226.394 366.99 224.434C366.99 222.474 367.844 220.696 370 220.696C372.156 220.696 373.01 222.474 373.01 224.434ZM371.218 224.434C371.218 223.09 370.84 222.278 370 222.278C369.174 222.278 368.782 223.09 368.782 224.434C368.782 225.778 369.174 226.59 370 226.59C370.84 226.59 371.218 225.778 371.218 224.434ZM380.256 224.434C380.256 226.394 379.402 228.172 377.246 228.172C375.09 228.172 374.236 226.394 374.236 224.434C374.236 222.474 375.09 220.696 377.246 220.696C379.402 220.696 380.256 222.474 380.256 224.434ZM378.464 224.434C378.464 223.09 378.086 222.278 377.246 222.278C376.42 222.278 376.028 223.09 376.028 224.434C376.028 225.778 376.42 226.59 377.246 226.59C378.086 226.59 378.464 225.778 378.464 224.434ZM386.704 225.736C386.704 227.08 385.71 228.172 384.1 228.172C382.392 228.172 381.454 227.388 381.454 225.946C381.454 224.882 382.182 224.168 382.798 223.706C382.168 223.216 381.636 222.642 381.636 221.634C381.636 220.276 382.784 219.408 384.044 219.408C385.402 219.408 386.438 220.15 386.438 221.452C386.438 222.376 385.85 223.006 385.29 223.454C386.004 223.944 386.704 224.602 386.704 225.736ZM385.136 225.806C385.136 225.12 384.52 224.7 383.932 224.336C383.442 224.7 383.036 225.092 383.036 225.764C383.036 226.436 383.484 226.786 384.128 226.786C384.772 226.786 385.136 226.338 385.136 225.806ZM384.954 221.62C384.954 221.074 384.618 220.738 384.058 220.738C383.526 220.738 383.204 221.102 383.204 221.634C383.204 222.152 383.652 222.488 384.156 222.824C384.576 222.516 384.954 222.138 384.954 221.62ZM390.078 227.052C390.078 227.64 389.602 228.116 389.014 228.116C388.426 228.116 387.95 227.64 387.95 227.052C387.95 226.478 388.426 226.002 389.014 226.002C389.602 226.002 390.078 226.478 390.078 227.052ZM396.268 226.562C396.268 229.068 394.126 230.048 391.62 230.342L391.354 228.83C392.53 228.648 394.448 228.242 394.448 226.744C394.448 225.806 393.762 225.344 392.18 225.344H391.354L391.62 220.864H396.016V222.46H393.09L392.992 224.112C392.992 224.112 393.258 224.098 393.538 224.098C395.246 224.098 396.268 224.938 396.268 226.562ZM403.389 224.434C403.389 226.394 402.535 228.172 400.379 228.172C398.223 228.172 397.369 226.394 397.369 224.434C397.369 222.474 398.223 220.696 400.379 220.696C402.535 220.696 403.389 222.474 403.389 224.434ZM401.597 224.434C401.597 223.09 401.219 222.278 400.379 222.278C399.553 222.278 399.161 223.09 399.161 224.434C399.161 225.778 399.553 226.59 400.379 226.59C401.219 226.59 401.597 225.778 401.597 224.434Z" fill="#00157E"/>
<path d="M376.375 239.92C376.375 241.744 375.583 243.064 373.711 243.064C373.399 243.064 373.147 243.04 372.919 242.98V245.38L371.959 245.536V238.684L371.791 237.448L372.739 237.292L372.823 237.868H372.835C373.207 237.556 373.699 237.256 374.347 237.256C375.715 237.256 376.375 238.288 376.375 239.92ZM375.415 240.196C375.415 238.972 375.139 238.12 374.023 238.12C373.543 238.12 373.195 238.324 372.919 238.552V242.092C373.147 242.188 373.411 242.248 373.783 242.248C374.827 242.248 375.415 241.432 375.415 240.196ZM381.524 237.496L381.224 238.36C380.912 238.24 380.564 238.132 380.168 238.132C379.112 238.132 378.476 238.924 378.476 240.112C378.476 241.612 379.064 242.296 380.144 242.296C380.528 242.296 380.84 242.164 381.152 242.032L381.476 242.812C381.008 243.028 380.492 243.136 379.952 243.136C378.344 243.136 377.516 241.984 377.516 240.268C377.516 238.204 378.788 237.256 380.216 237.256C380.708 237.256 381.128 237.34 381.524 237.496ZM386.098 241.372C386.098 242.392 385.294 243.124 384.094 243.124C383.518 243.124 382.942 243.04 382.486 242.824L382.774 241.984C383.17 242.164 383.614 242.308 384.046 242.308C384.694 242.308 385.126 242.056 385.126 241.528C385.126 241.12 384.91 240.952 384.538 240.784L383.494 240.304C383.122 240.136 382.45 239.8 382.45 238.828C382.45 237.76 383.386 237.256 384.406 237.256C385.018 237.256 385.45 237.352 385.93 237.556L385.606 238.384C385.222 238.216 384.85 238.096 384.394 238.096C383.782 238.096 383.386 238.288 383.386 238.768C383.386 239.188 383.746 239.356 383.974 239.464L385.042 239.968C385.786 240.316 386.098 240.76 386.098 241.372ZM388.719 242.392C388.719 242.776 388.407 243.088 388.035 243.088C387.651 243.088 387.339 242.776 387.339 242.392C387.339 242.02 387.651 241.708 388.035 241.708C388.407 241.708 388.719 242.02 388.719 242.392Z" fill="#00157E" fill-opacity="0.7"/>
<path d="M396.495 243.004H395.547V237.7L394.491 237.844L394.383 237.112L396.495 236.776V243.004ZM402.988 239.944C402.988 241.54 402.364 243.136 400.552 243.136C398.728 243.136 398.104 241.54 398.104 239.944C398.104 238.348 398.728 236.752 400.552 236.752C402.364 236.752 402.988 238.348 402.988 239.944ZM402.004 239.944C402.004 238.6 401.56 237.592 400.552 237.592C399.532 237.592 399.088 238.6 399.088 239.944C399.088 241.288 399.532 242.296 400.552 242.296C401.56 242.296 402.004 241.288 402.004 239.944Z" fill="#00157E"/>
<path d="M341.963 257.632C341.291 257.98 340.607 258.136 339.695 258.136C337.931 258.136 336.575 256.948 336.575 254.548C336.575 251.992 338.087 250.648 340.031 250.648C340.835 250.648 341.327 250.768 341.939 251.032L341.555 251.908C341.099 251.704 340.667 251.548 340.019 251.548C338.759 251.548 337.607 252.52 337.607 254.296C337.607 256.276 338.339 257.248 340.091 257.248C340.667 257.248 341.195 257.02 341.627 256.828L341.963 257.632ZM348.486 258.004H347.478V254.704H344.226V258.004H343.218V250.78H344.226V253.852H347.478V250.78H348.486V258.004ZM354.071 251.632H351.479V253.984H353.819V254.836H351.479V258.004H350.483V250.78H354.071V251.632Z" fill="#00157E" fill-opacity="0.7"/>
<path d="M361.495 258.004H360.547V252.7L359.491 252.844L359.383 252.112L361.495 251.776V258.004ZM367.988 254.944C367.988 256.54 367.364 258.136 365.552 258.136C363.728 258.136 363.104 256.54 363.104 254.944C363.104 253.348 363.728 251.752 365.552 251.752C367.364 251.752 367.988 253.348 367.988 254.944ZM367.004 254.944C367.004 253.6 366.56 252.592 365.552 252.592C364.532 252.592 364.088 253.6 364.088 254.944C364.088 256.288 364.532 257.296 365.552 257.296C366.56 257.296 367.004 256.288 367.004 254.944ZM370.696 251.464C370.696 252.34 370.336 253.012 369.604 253.444L369.328 253.084C369.688 252.82 369.88 252.484 369.94 252.052C369.604 252.004 369.316 251.716 369.316 251.368C369.316 250.972 369.628 250.672 370.012 250.672C370.396 250.672 370.696 250.984 370.696 251.464ZM376.21 256.252C376.21 257.404 375.334 258.136 374.098 258.136C372.838 258.136 371.986 257.5 371.986 256.324C371.986 255.268 372.766 254.632 373.366 254.224C372.646 253.72 372.166 253.288 372.166 252.388C372.166 251.368 373.006 250.648 374.086 250.648C375.25 250.648 376.006 251.296 376.006 252.304C376.006 253.168 375.406 253.72 374.818 254.128C375.586 254.644 376.21 255.16 376.21 256.252ZM375.286 256.252C375.286 255.472 374.746 255.076 374.026 254.608C373.39 255.04 372.898 255.412 372.898 256.204C372.898 256.924 373.378 257.332 374.11 257.332C374.89 257.332 375.286 256.852 375.286 256.252ZM375.154 252.412C375.154 251.8 374.746 251.404 374.098 251.404C373.45 251.404 373.03 251.824 373.03 252.424C373.03 252.988 373.498 253.312 374.146 253.756C374.662 253.42 375.154 252.988 375.154 252.412ZM382.355 254.944C382.355 256.54 381.731 258.136 379.919 258.136C378.095 258.136 377.471 256.54 377.471 254.944C377.471 253.348 378.095 251.752 379.919 251.752C381.731 251.752 382.355 253.348 382.355 254.944ZM381.371 254.944C381.371 253.6 380.927 252.592 379.919 252.592C378.899 252.592 378.455 253.6 378.455 254.944C378.455 256.288 378.899 257.296 379.919 257.296C380.927 257.296 381.371 256.288 381.371 254.944ZM387.535 256.924C387.535 259.228 385.363 259.876 383.815 259.996L383.695 259.18C384.787 259.06 386.551 258.628 386.551 257.056C386.551 256.072 385.999 255.496 384.463 255.496H383.659L383.923 251.884H387.343V252.76H384.751L384.595 254.776C384.595 254.776 384.871 254.752 385.123 254.752C386.515 254.752 387.535 255.484 387.535 256.924ZM390.137 257.392C390.137 257.776 389.825 258.088 389.453 258.088C389.069 258.088 388.757 257.776 388.757 257.392C388.757 257.02 389.069 256.708 389.453 256.708C389.825 256.708 390.137 257.02 390.137 257.392ZM396.347 254.944C396.347 256.54 395.723 258.136 393.911 258.136C392.087 258.136 391.463 256.54 391.463 254.944C391.463 253.348 392.087 251.752 393.911 251.752C395.723 251.752 396.347 253.348 396.347 254.944ZM395.363 254.944C395.363 253.6 394.919 252.592 393.911 252.592C392.891 252.592 392.447 253.6 392.447 254.944C392.447 256.288 392.891 257.296 393.911 257.296C394.919 257.296 395.363 256.288 395.363 254.944ZM402.523 254.944C402.523 256.54 401.899 258.136 400.087 258.136C398.263 258.136 397.639 256.54 397.639 254.944C397.639 253.348 398.263 251.752 400.087 251.752C401.899 251.752 402.523 253.348 402.523 254.944ZM401.539 254.944C401.539 253.6 401.095 252.592 400.087 252.592C399.067 252.592 398.623 253.6 398.623 254.944C398.623 256.288 399.067 257.296 400.087 257.296C401.095 257.296 401.539 256.288 401.539 254.944Z" fill="#00157E"/>
</svg>
