<svg width="420" height="56" viewBox="0 0 420 56" fill="none" xmlns="http://www.w3.org/2000/svg">
<rect width="420" height="56" rx="8" fill="white"/>
<rect x="0.5" y="0.5" width="419" height="55" rx="7.5" stroke="#00157E" stroke-opacity="0.1"/>
<path d="M37 20H19C17.8954 20 17 20.8954 17 22V34C17 35.1046 17.8954 36 19 36H37C38.1046 36 39 35.1046 39 34V22C39 20.8954 38.1046 20 37 20Z" stroke="#00157E" stroke-width="2" stroke-linecap="round" stroke-linejoin="round"/>
<path d="M17 26H39" stroke="#00157E" stroke-width="2" stroke-linecap="round" stroke-linejoin="round"/>
<path d="M62.832 15.572L60.158 24H58.912L56.28 15.712L57.456 15.376L59.528 22.432H59.542L61.6 15.572H62.832ZM65.4474 24H64.2714V15.572H65.4474V24ZM72.3354 21.634C72.3354 23.104 71.3134 24.154 69.6194 24.154C68.7514 24.154 67.9814 23.972 67.3234 23.692L67.6874 22.67C68.2334 22.922 68.8774 23.132 69.5354 23.132C70.5574 23.132 71.2154 22.74 71.2154 21.816C71.2154 21.13 70.7114 20.794 70.0394 20.472L68.7234 19.842C67.8414 19.422 67.2394 18.876 67.2394 17.686C67.2394 16.244 68.4994 15.418 69.9554 15.418C70.7394 15.418 71.2434 15.544 71.9714 15.81L71.5794 16.804C71.1314 16.594 70.6414 16.398 70.0254 16.398C69.1574 16.398 68.3734 16.748 68.3734 17.644C68.3734 18.246 68.7374 18.54 69.2974 18.806L70.6414 19.464C71.7054 19.982 72.3354 20.556 72.3354 21.634ZM80.0388 23.86L78.8908 24.182L77.9948 21.27H75.2508L74.3968 24H73.1648L76.0908 15.572H77.2948L80.0388 23.86ZM77.7428 20.43L76.6508 16.79H76.6368L75.5028 20.43H77.7428ZM90.5424 15.866L90.1364 16.916C89.5764 16.678 89.0024 16.468 88.2464 16.468C86.5664 16.468 85.1384 17.588 85.1384 19.66C85.1384 21.942 86.0204 23.09 88.1344 23.09C88.6944 23.09 89.3104 22.936 89.3104 22.936V19.87H90.4724V23.72C90.4724 23.72 89.4364 24.154 87.6024 24.154C85.4744 24.154 83.9064 22.67 83.9064 19.94C83.9064 17 85.8804 15.418 88.2744 15.418C89.1844 15.418 89.8424 15.558 90.5424 15.866ZM97.6275 20.724C97.6275 22.642 96.7175 24.154 94.8275 24.154C92.7555 24.154 92.0275 22.684 92.0275 20.724C92.0275 18.806 92.9375 17.294 94.8275 17.294C96.8995 17.294 97.6275 18.764 97.6275 20.724ZM96.4795 20.752C96.4795 19.128 95.9335 18.274 94.8275 18.274C93.7495 18.274 93.1755 19.03 93.1755 20.682C93.1755 22.306 93.7215 23.174 94.8275 23.174C95.9055 23.174 96.4795 22.404 96.4795 20.752ZM100.499 24H99.3791V16.062L99.1831 14.62L100.499 14.438V24ZM107.63 23.958L106.552 24.112L106.454 23.454H106.44C106.02 23.804 105.446 24.154 104.676 24.154C103.234 24.154 102.268 22.964 102.268 21.018C102.268 18.764 103.43 17.378 105.418 17.378C105.95 17.378 106.328 17.476 106.328 17.476V16.062L106.118 14.62L107.434 14.438V22.516L107.63 23.958ZM105.068 23.174C105.614 23.174 105.992 22.95 106.328 22.684V18.498C106.328 18.498 105.964 18.316 105.32 18.316C104.046 18.316 103.416 19.394 103.416 20.668C103.416 22.25 103.836 23.174 105.068 23.174Z" fill="#00157E"/>
<path d="M60.644 38.94L59.684 39.096L59.6 38.436H59.588C59.18 38.82 58.736 39.144 58.064 39.144C57.128 39.144 56.576 38.58 56.576 37.692C56.576 36.684 57.368 36.192 58.508 36.072L59.516 35.964V35.46C59.516 34.68 59.276 34.128 58.352 34.128C57.884 34.128 57.536 34.272 57.188 34.452L56.84 33.744C57.344 33.444 57.86 33.252 58.58 33.252C59.708 33.252 60.464 33.912 60.464 35.028V37.704L60.644 38.94ZM59.516 37.836V36.612L58.64 36.732C57.92 36.828 57.524 37.056 57.524 37.572C57.524 38.04 57.812 38.352 58.292 38.352C58.856 38.352 59.204 38.112 59.516 37.836ZM66.3606 33.384L64.3326 38.988L63.3846 39.024L61.5366 33.468L62.4966 33.228L63.9006 37.752H63.9126L65.4006 33.384H66.3606ZM71.1088 38.94L70.1488 39.096L70.0648 38.436H70.0528C69.6448 38.82 69.2008 39.144 68.5288 39.144C67.5928 39.144 67.0408 38.58 67.0408 37.692C67.0408 36.684 67.8328 36.192 68.9728 36.072L69.9808 35.964V35.46C69.9808 34.68 69.7408 34.128 68.8168 34.128C68.3488 34.128 68.0008 34.272 67.6528 34.452L67.3048 33.744C67.8088 33.444 68.3248 33.252 69.0448 33.252C70.1728 33.252 70.9288 33.912 70.9288 35.028V37.704L71.1088 38.94ZM69.9808 37.836V36.612L69.1048 36.732C68.3848 36.828 67.9888 37.056 67.9888 37.572C67.9888 38.04 68.2768 38.352 68.7568 38.352C69.3208 38.352 69.6688 38.112 69.9808 37.836ZM73.8463 39H72.8863V34.68L72.7183 33.444L73.8463 33.288V39ZM74.0383 31.92C74.0383 32.304 73.7383 32.592 73.3783 32.592C73.0063 32.592 72.6943 32.304 72.6943 31.92C72.6943 31.536 73.0063 31.236 73.3783 31.236C73.7383 31.236 74.0383 31.536 74.0383 31.92ZM76.7046 39H75.7446V32.196L75.5766 30.96L76.7046 30.804V39ZM82.2885 38.94L81.3285 39.096L81.2445 38.436H81.2325C80.8245 38.82 80.3805 39.144 79.7085 39.144C78.7725 39.144 78.2205 38.58 78.2205 37.692C78.2205 36.684 79.0125 36.192 80.1525 36.072L81.1605 35.964V35.46C81.1605 34.68 80.9205 34.128 79.9965 34.128C79.5285 34.128 79.1805 34.272 78.8325 34.452L78.4845 33.744C78.9885 33.444 79.5045 33.252 80.2245 33.252C81.3525 33.252 82.1085 33.912 82.1085 35.028V37.704L82.2885 38.94ZM81.1605 37.836V36.612L80.2845 36.732C79.5645 36.828 79.1685 37.056 79.1685 37.572C79.1685 38.04 79.4565 38.352 79.9365 38.352C80.5005 38.352 80.8485 38.112 81.1605 37.836ZM88.482 35.856C88.482 37.728 87.51 39.12 85.734 39.12C85.11 39.12 84.426 39.012 84.018 38.856V32.196L83.85 30.96L84.978 30.804V33.816H84.99C85.35 33.516 85.83 33.252 86.466 33.252C87.786 33.252 88.482 34.2 88.482 35.856ZM87.51 36.204C87.51 34.968 87.222 34.128 86.13 34.128C85.626 34.128 85.266 34.332 84.978 34.584V38.196C85.218 38.256 85.458 38.292 85.818 38.292C86.934 38.292 87.51 37.344 87.51 36.204ZM90.9546 39H89.9946V32.196L89.8266 30.96L90.9546 30.804V39ZM96.7545 38.7C96.2145 39 95.6625 39.132 94.9785 39.132C93.3225 39.132 92.4705 38.016 92.4705 36.156C92.4705 34.416 93.3825 33.252 94.7985 33.252C96.1545 33.252 96.7065 34.152 96.7065 35.388V36.06H93.4065C93.4185 37.56 93.9585 38.28 95.1825 38.28C95.6505 38.28 96.0105 38.148 96.4185 37.944L96.7545 38.7ZM95.8065 35.388C95.8065 34.548 95.4945 34.02 94.7505 34.02C94.0305 34.02 93.5745 34.584 93.4545 35.388H95.8065ZM106.178 36.072C106.178 38.136 105.014 39.156 103.454 39.156C101.786 39.156 100.718 38.316 100.718 36.048V31.776H101.75V36.096C101.75 37.524 102.302 38.196 103.418 38.196C104.534 38.196 105.218 37.512 105.218 36.12V31.776H106.178V36.072ZM112.06 36.972C112.06 38.232 111.184 39.132 109.732 39.132C108.988 39.132 108.328 38.976 107.764 38.736L108.076 37.86C108.544 38.076 109.096 38.256 109.66 38.256C110.536 38.256 111.1 37.92 111.1 37.128C111.1 36.54 110.668 36.252 110.092 35.976L108.964 35.436C108.208 35.076 107.692 34.608 107.692 33.588C107.692 32.352 108.772 31.644 110.02 31.644C110.692 31.644 111.124 31.752 111.748 31.98L111.412 32.832C111.028 32.652 110.608 32.484 110.08 32.484C109.336 32.484 108.664 32.784 108.664 33.552C108.664 34.068 108.976 34.32 109.456 34.548L110.608 35.112C111.52 35.556 112.06 36.048 112.06 36.972ZM119.215 34.932C119.215 37.572 117.631 39 115.063 39H113.551V31.824C113.551 31.824 114.547 31.704 115.615 31.704C117.847 31.704 119.215 32.868 119.215 34.932ZM118.171 35.076C118.171 33.372 117.019 32.556 115.447 32.556C114.943 32.556 114.559 32.58 114.559 32.58V38.1H115.255C116.971 38.1 118.171 37.08 118.171 35.076ZM128.329 38.244H126.877V40.692L125.953 40.848V38.244H122.653V37.464L125.989 32.88H126.877V37.428H128.329V38.244ZM125.953 37.428V34.176H125.941L123.637 37.428H125.953ZM130.521 32.46C130.521 33.336 130.161 34.008 129.429 34.44L129.153 34.08C129.513 33.816 129.705 33.48 129.765 33.048C129.429 33 129.141 32.712 129.141 32.364C129.141 31.968 129.453 31.668 129.837 31.668C130.221 31.668 130.521 31.98 130.521 32.46ZM135.855 33.696L132.423 40.98L131.619 40.572L134.811 33.756H131.547V32.88H135.855V33.696ZM141.595 35.94C141.595 37.536 140.971 39.132 139.159 39.132C137.335 39.132 136.711 37.536 136.711 35.94C136.711 34.344 137.335 32.748 139.159 32.748C140.971 32.748 141.595 34.344 141.595 35.94ZM140.611 35.94C140.611 34.596 140.167 33.588 139.159 33.588C138.139 33.588 137.695 34.596 137.695 35.94C137.695 37.284 138.139 38.292 139.159 38.292C140.167 38.292 140.611 37.284 140.611 35.94ZM147.77 35.94C147.77 37.536 147.146 39.132 145.334 39.132C143.51 39.132 142.886 37.536 142.886 35.94C142.886 34.344 143.51 32.748 145.334 32.748C147.146 32.748 147.77 34.344 147.77 35.94ZM146.786 35.94C146.786 34.596 146.342 33.588 145.334 33.588C144.314 33.588 143.87 34.596 143.87 35.94C143.87 37.284 144.314 38.292 145.334 38.292C146.342 38.292 146.786 37.284 146.786 35.94ZM150.478 38.388C150.478 38.772 150.166 39.084 149.794 39.084C149.41 39.084 149.098 38.772 149.098 38.388C149.098 38.016 149.41 37.704 149.794 37.704C150.166 37.704 150.478 38.016 150.478 38.388ZM156.688 35.94C156.688 37.536 156.064 39.132 154.252 39.132C152.428 39.132 151.804 37.536 151.804 35.94C151.804 34.344 152.428 32.748 154.252 32.748C156.064 32.748 156.688 34.344 156.688 35.94ZM155.704 35.94C155.704 34.596 155.26 33.588 154.252 33.588C153.232 33.588 152.788 34.596 152.788 35.94C152.788 37.284 153.232 38.292 154.252 38.292C155.26 38.292 155.704 37.284 155.704 35.94ZM162.864 35.94C162.864 37.536 162.24 39.132 160.428 39.132C158.604 39.132 157.98 37.536 157.98 35.94C157.98 34.344 158.604 32.748 160.428 32.748C162.24 32.748 162.864 34.344 162.864 35.94ZM161.88 35.94C161.88 34.596 161.436 33.588 160.428 33.588C159.408 33.588 158.964 34.596 158.964 35.94C158.964 37.284 159.408 38.292 160.428 38.292C161.436 38.292 161.88 37.284 161.88 35.94Z" fill="#00157E" fill-opacity="0.7"/>
<g clip-path="url(#clip0_276_338916)">
<path d="M296.764 23H292.996V15.776H294.004V22.148H296.764V23ZM298.796 23H297.836V18.68L297.668 17.444L298.796 17.288V23ZM298.988 15.92C298.988 16.304 298.688 16.592 298.328 16.592C297.956 16.592 297.644 16.304 297.644 15.92C297.644 15.536 297.956 15.236 298.328 15.236C298.688 15.236 298.988 15.536 298.988 15.92ZM308.266 23H307.318V19.352C307.318 18.524 307.006 18.104 306.238 18.104C305.698 18.104 305.242 18.368 304.942 18.668C304.942 18.668 304.978 18.872 304.978 19.088V23H304.018V19.352C304.018 18.524 303.706 18.104 302.95 18.104C302.41 18.104 302.026 18.32 301.678 18.644V23H300.718V18.68L300.55 17.444L301.498 17.288L301.594 17.948H301.606C302.026 17.54 302.578 17.252 303.274 17.252C303.922 17.252 304.462 17.54 304.75 18.056H304.762C305.206 17.612 305.782 17.252 306.574 17.252C307.534 17.252 308.266 17.864 308.266 19.016V23ZM311.159 23H310.199V18.68L310.031 17.444L311.159 17.288V23ZM311.351 15.92C311.351 16.304 311.051 16.592 310.691 16.592C310.319 16.592 310.007 16.304 310.007 15.92C310.007 15.536 310.319 15.236 310.691 15.236C311.051 15.236 311.351 15.536 311.351 15.92ZM315.889 22.772C315.541 22.964 315.217 23.12 314.605 23.12C313.741 23.12 313.189 22.556 313.189 21.596V18.164H312.361V17.528L313.189 17.36V16.424L314.137 16.304V17.384H315.709V18.164H314.137V21.272C314.137 22.028 314.329 22.268 314.881 22.268C315.181 22.268 315.409 22.148 315.577 22.04L315.889 22.772Z" fill="#00157E" fill-opacity="0.7"/>
<path d="M331.432 20.072C331.432 22.136 330.268 23.156 328.708 23.156C327.04 23.156 325.972 22.316 325.972 20.048V15.776H327.004V20.096C327.004 21.524 327.556 22.196 328.672 22.196C329.788 22.196 330.472 21.512 330.472 20.12V15.776H331.432V20.072ZM337.314 20.972C337.314 22.232 336.438 23.132 334.986 23.132C334.242 23.132 333.582 22.976 333.018 22.736L333.33 21.86C333.798 22.076 334.35 22.256 334.914 22.256C335.79 22.256 336.354 21.92 336.354 21.128C336.354 20.54 335.922 20.252 335.346 19.976L334.218 19.436C333.462 19.076 332.946 18.608 332.946 17.588C332.946 16.352 334.026 15.644 335.274 15.644C335.946 15.644 336.378 15.752 337.002 15.98L336.666 16.832C336.282 16.652 335.862 16.484 335.334 16.484C334.59 16.484 333.918 16.784 333.918 17.552C333.918 18.068 334.23 18.32 334.71 18.548L335.862 19.112C336.774 19.556 337.314 20.048 337.314 20.972ZM344.469 18.932C344.469 21.572 342.885 23 340.317 23H338.805V15.824C338.805 15.824 339.801 15.704 340.869 15.704C343.101 15.704 344.469 16.868 344.469 18.932ZM343.425 19.076C343.425 17.372 342.273 16.556 340.701 16.556C340.197 16.556 339.813 16.58 339.813 16.58V22.1H340.509C342.225 22.1 343.425 21.08 343.425 19.076Z" fill="#00157E" fill-opacity="0.7"/>
<path d="M360.421 22.558C360.421 25.064 358.279 26.044 355.773 26.338L355.507 24.826C356.683 24.644 358.601 24.238 358.601 22.74C358.601 21.802 357.915 21.34 356.333 21.34H355.507L355.773 16.86H360.169V18.456H357.243L357.145 20.108C357.145 20.108 357.411 20.094 357.691 20.094C359.399 20.094 360.421 20.934 360.421 22.558ZM363.692 16.594C363.692 18.022 363.118 18.82 362.082 19.562L361.578 19.016C362.068 18.596 362.39 18.148 362.502 17.532C361.984 17.476 361.564 17.014 361.564 16.482C361.564 15.908 362.04 15.432 362.614 15.432C363.216 15.432 363.692 15.88 363.692 16.594ZM370.974 20.43C370.974 22.39 370.12 24.168 367.964 24.168C365.808 24.168 364.954 22.39 364.954 20.43C364.954 18.47 365.808 16.692 367.964 16.692C370.12 16.692 370.974 18.47 370.974 20.43ZM369.182 20.43C369.182 19.086 368.804 18.274 367.964 18.274C367.138 18.274 366.746 19.086 366.746 20.43C366.746 21.774 367.138 22.586 367.964 22.586C368.804 22.586 369.182 21.774 369.182 20.43ZM378.22 20.43C378.22 22.39 377.366 24.168 375.21 24.168C373.054 24.168 372.2 22.39 372.2 20.43C372.2 18.47 373.054 16.692 375.21 16.692C377.366 16.692 378.22 18.47 378.22 20.43ZM376.428 20.43C376.428 19.086 376.05 18.274 375.21 18.274C374.384 18.274 373.992 19.086 373.992 20.43C373.992 21.774 374.384 22.586 375.21 22.586C376.05 22.586 376.428 21.774 376.428 20.43ZM385.466 20.43C385.466 22.39 384.612 24.168 382.456 24.168C380.3 24.168 379.446 22.39 379.446 20.43C379.446 18.47 380.3 16.692 382.456 16.692C384.612 16.692 385.466 18.47 385.466 20.43ZM383.674 20.43C383.674 19.086 383.296 18.274 382.456 18.274C381.63 18.274 381.238 19.086 381.238 20.43C381.238 21.774 381.63 22.586 382.456 22.586C383.296 22.586 383.674 21.774 383.674 20.43ZM388.862 23.048C388.862 23.636 388.386 24.112 387.798 24.112C387.21 24.112 386.734 23.636 386.734 23.048C386.734 22.474 387.21 21.998 387.798 21.998C388.386 21.998 388.862 22.474 388.862 23.048ZM396.144 20.43C396.144 22.39 395.29 24.168 393.134 24.168C390.978 24.168 390.124 22.39 390.124 20.43C390.124 18.47 390.978 16.692 393.134 16.692C395.29 16.692 396.144 18.47 396.144 20.43ZM394.352 20.43C394.352 19.086 393.974 18.274 393.134 18.274C392.308 18.274 391.916 19.086 391.916 20.43C391.916 21.774 392.308 22.586 393.134 22.586C393.974 22.586 394.352 21.774 394.352 20.43ZM403.39 20.43C403.39 22.39 402.536 24.168 400.38 24.168C398.224 24.168 397.37 22.39 397.37 20.43C397.37 18.47 398.224 16.692 400.38 16.692C402.536 16.692 403.39 18.47 403.39 20.43ZM401.598 20.43C401.598 19.086 401.22 18.274 400.38 18.274C399.554 18.274 399.162 19.086 399.162 20.43C399.162 21.774 399.554 22.586 400.38 22.586C401.22 22.586 401.598 21.774 401.598 20.43Z" fill="#00157E"/>
</g>
<defs>
<clipPath id="clip0_276_338916">
<rect width="151" height="24" fill="white" transform="translate(269 16)"/>
</clipPath>
</defs>
</svg>
