<svg width="128" height="128" viewBox="0 0 128 128" fill="none" xmlns="http://www.w3.org/2000/svg">
<g clip-path="url(#clip0_399_77828)">
<rect width="128" height="128" rx="64" fill="#C6CBE2"/>
<g clip-path="url(#clip1_399_77828)">
<path d="M64.5606 71.3344C68.5115 70.4788 74.0502 67.2416 76.968 64.2041C76.0309 59.4909 77.11 53.6657 77.8 46.3737L61.2958 50.2971L59.7922 65.9233C59.4544 69.4615 61.0802 72.0862 64.5606 71.3344Z" fill="#8C594E"/>
<path d="M76.9319 39.1159C73.4555 38.7649 72.726 42.0679 72.726 42.0679L72.0176 49.0602C72.0176 49.0602 72.032 50.598 73.3148 50.9988C75.2574 51.6008 76.2905 49.9579 77.3709 48.1428C77.4366 48.0429 78.8469 45.3445 78.9271 45.1855C80.1376 42.9012 80.2283 39.451 76.9319 39.1159Z" fill="#99665B"/>
<path d="M65.3192 23.6091V23.6169L78.7597 25.0272L76.5253 49.3137C76.1744 50.9566 76.085 52.4681 75.6736 53.8468C75.1479 55.5962 73.8913 57.2115 72.2274 58.0212C67.9952 60.0715 63.1045 63.1471 58.2007 61.817C53.1747 60.4606 51.8998 55.7132 51.4976 51.1104C51.466 50.7594 51.4397 50.4046 51.4121 50.0589C50.9732 44.3849 51.1072 38.5663 51.3004 32.8804L51.6211 23.5381L65.3192 23.6091Z" fill="#99665B"/>
<path d="M53.1662 19.5621C53.1662 19.5621 59.8693 14.101 63.1144 13.4649C80.444 10.0542 93.1288 24.7196 83.9205 44.1259C83.1963 45.6531 82.7796 46.6047 79.9301 51.4376C78.3884 54.0662 76.9071 58.2485 76.6048 58.2984C76.6048 58.2984 75.0868 58.5613 75.9385 52.5745C76.4931 48.709 77.2633 45.1313 77.5525 46.2236C78.5317 44.0838 79.5503 39.9476 77.421 39.4192C74.4375 38.6766 72.4949 42.3187 72.4949 42.3187C72.0559 43.4634 72.1006 43.9143 70.9505 43.9261C69.8583 43.9261 70.1619 42.6932 70.2789 41.5892L70.4945 39.4731C70.8296 37.3701 70.7481 33.4718 68.1746 31.5765C67.2717 30.9194 59.0741 26.3612 56.477 24.9654C55.1429 24.253 51.9793 25.7829 51.6061 28.6311C51.5942 28.6823 49.8895 21.8241 53.1662 19.5621Z" fill="#424242"/>
<path d="M35.4291 106.369C38.1892 95.8929 38.1235 84.9391 40.1541 74.3363C41.0913 69.4601 42.3057 63.2696 45.3037 59.1767C47.5092 56.1747 53.379 52.1739 57.1328 54.6054C62.402 58.0227 60.6368 68.6005 59.7431 73.7541C57.8688 84.5317 53.3554 100.462 50.1694 111.685C46.8349 123.402 33.4063 114.056 35.4291 106.369Z" fill="#717DB7"/>
<path d="M39.2116 101.491C47.4986 95.9265 53.0543 107.359 46.9176 114.06C41.9718 118.895 23.7274 132.385 15.6192 137.859C15.0277 138.261 14.3235 138.464 13.6089 138.439C12.8943 138.413 12.2063 138.161 11.6446 137.719C8.06567 134.886 5.40018 131.633 8.60192 128.722C24.6566 111.935 27.5363 111.235 39.2116 101.491Z" fill="#717DB7"/>
<path d="M41.8538 139.329C42.0772 137.71 42.8553 135.781 42.3362 133.852C41.9116 132.265 41.2716 131.832 41.4345 130.237C42.3362 121.194 43.0223 112.04 42.5793 107.033C41.3964 93.7703 39.3644 75.0619 45.0148 62.2852C47.2728 57.1737 53.1479 49.5729 58.6248 52.1161C58.6248 52.1161 79.8436 61.0747 93.7493 75.359C95.8812 77.5513 95.5368 82.4564 95.1096 85.4794C93.3826 97.7028 87.1736 111.277 84.1559 136.561C83.7195 140.203 83.4462 144.106 82.3776 145.432C80.4744 147.798 64.7733 155.694 42.0194 143.686C39.8875 142.565 41.5489 141.514 41.8538 139.329Z" fill="#1C2F8C"/>
<path d="M81.0583 71.2647C81.0583 71.2647 76.4489 63.1289 72.2325 61.5018C68.0161 59.8746 54.4442 60.6225 54.4442 60.6225C54.4442 60.6225 47.2153 76.3762 47.1404 77.446C47.0654 78.5159 50.5051 106.858 50.5051 106.858L68.6009 92.486L81.0583 71.2647Z" fill="#717DB7"/>
<path d="M56.3888 67.5805L57.7255 49.4676L76.1802 46.6246C76.1342 48.2728 75.8424 49.8921 75.6755 51.5376C75.5086 53.1832 75.8306 54.8235 75.8687 56.4835C75.9384 59.2121 75.8871 62.0261 76.4575 64.7087C73.4345 67.5923 68.2955 70.5246 64.5601 71.3343C61.0797 72.0861 56.0497 71.1187 56.3888 67.5805Z" fill="#E3E5F1"/>
<path d="M50.493 90.8943C51.1396 86.4347 52.6564 82.8045 54.5412 78.7064C54.804 78.1281 55.0012 77.7298 55.0787 77.5747C55.1007 77.528 55.1192 77.4796 55.1339 77.4301C55.3035 76.9044 55.6597 76.3498 55.5545 75.7215L55.1747 73.6987C55.174 73.6973 55.1736 73.6957 55.1736 73.6941C55.1736 73.6925 55.174 73.691 55.1747 73.6895L57.664 70.2065C57.7924 70.0301 57.9689 69.8943 58.1724 69.8155C58.3759 69.7367 58.5977 69.7182 58.8115 69.7623C59.0316 69.8052 59.2335 69.914 59.3903 70.0743C59.5471 70.2347 59.6515 70.4389 59.6895 70.66L60.2296 73.9458C60.2603 74.1395 60.2376 74.338 60.164 74.5198C60.0903 74.7015 59.9685 74.8598 59.8117 74.9776L58.2844 76.1395C57.8218 76.5443 57.204 77.3644 57.2237 77.9467C53.6514 106.375 55.9475 113.639 50.3287 125.157C49.7346 126.376 47.9011 126.016 47.8104 124.665C47.148 114.834 49.406 98.3847 50.493 90.8943Z" fill="#C6CBE2"/>
<path d="M58.1621 68.552C59.0913 69.6416 58.0306 70.6826 57.2828 71.4041L53.0624 76.1016C51.593 77.4159 51.3853 75.5758 51.6718 73.9395L53.4252 62.092C54.8197 55.9396 57.8111 55.7477 57.8111 55.7477C57.566 56.8759 57.383 58.0167 57.263 59.165C57.0054 61.7293 55.4992 65.4212 58.1621 68.552Z" fill="white"/>
<path d="M75.5991 53.8549C75.5991 53.8549 75.2048 57.6901 74.4688 59.3856C70.8925 67.7146 60.0807 69.2945 60.0807 69.2945C58.8597 69.6691 58.8754 70.2553 58.9398 72.2977L60.0925 79.6357C60.1661 81.5941 61.1873 81.46 62.0128 80.7043C62.0128 80.7043 70.2484 74.4414 72.5761 72.3135C78.0661 67.3059 78.8206 63.5403 77.3485 56.6728C76.8399 54.2952 75.5991 53.8549 75.5991 53.8549Z" fill="white"/>
<path d="M53.1661 19.5622C53.1661 19.5622 59.8692 14.1011 63.1117 13.465C80.4439 10.0569 93.1287 24.7197 83.9204 44.1259C83.1962 45.6532 82.7795 46.6048 79.93 51.4376C78.3883 54.0663 76.907 58.2486 76.6047 58.2985C76.079 58.3905 74.5268 58.2604 74.4348 57.3548C74.2153 55.2111 76.2039 50.7976 76.4063 49.6383C76.4063 49.6383 72.0979 43.9143 70.9426 43.9262C69.8504 43.9262 70.154 42.6933 70.2709 41.5893L70.4839 39.4732C70.8217 37.3702 70.7375 33.4719 68.1667 31.5766C67.2611 30.9194 59.0622 26.3613 56.469 24.9655C55.135 24.2531 51.9713 25.783 51.5981 28.6312C51.5981 28.6312 51.5363 28.3998 51.4588 28.0069C51.1354 26.3035 50.4953 21.4089 53.1661 19.5622Z" fill="#00157E"/>
<path d="M51.2965 32.8753L51.4621 28.0043C51.5396 28.3986 51.5935 28.6286 51.5935 28.6286C51.9721 25.787 55.1423 24.2532 56.4697 24.9656C59.0682 26.3614 67.2658 30.913 68.1674 31.5806C70.7448 33.472 70.8263 37.3638 70.4911 39.4667L70.2795 41.5946C70.1678 42.6934 69.8589 43.9328 70.9512 43.9263C72.1091 43.9144 72.0565 43.4636 72.4929 42.3188C72.4929 42.3188 72.5113 42.2833 72.5455 42.2229C72.7006 41.7786 73.2026 40.5576 74.2305 39.7664L74.4026 39.6349L74.4223 39.6231C74.4802 39.5837 74.538 39.5508 74.5998 39.5114L74.6195 39.5035C74.6852 39.4654 74.7509 39.4273 74.8232 39.3918C74.968 39.3227 75.1173 39.2635 75.2701 39.2143L75.3056 39.2038C75.3674 39.1841 75.437 39.1683 75.4975 39.1526L75.579 39.1342C75.6302 39.1263 75.6828 39.1145 75.7367 39.1066C75.77 39.0989 75.8038 39.0941 75.8379 39.0921C75.8862 39.0841 75.9349 39.0788 75.9838 39.0763C76.0234 39.071 76.0634 39.0683 76.1034 39.0685C76.1455 39.0685 76.1915 39.0685 76.2348 39.0685H76.3728C76.4109 39.0685 76.4504 39.0685 76.4924 39.075C76.5345 39.0816 76.6002 39.075 76.6541 39.0842C76.6707 39.0855 76.6874 39.0855 76.704 39.0842C76.7816 39.0921 76.8539 39.1 76.9275 39.1118C77.099 39.1413 77.2687 39.18 77.4361 39.2275H77.444C77.5172 39.2463 77.5892 39.2696 77.6596 39.2972L77.6977 39.309C77.7611 39.3299 77.8234 39.354 77.8843 39.3813L77.9422 39.4049C77.9908 39.4325 78.046 39.4536 78.0959 39.4812L78.1616 39.5166C78.2076 39.539 78.2536 39.5666 78.2931 39.5929C78.3154 39.6087 78.3387 39.6232 78.3627 39.6362C78.4009 39.6625 78.4429 39.6888 78.4823 39.7204C78.5218 39.7519 78.5283 39.7519 78.552 39.7703C78.5757 39.7887 78.6203 39.8242 78.6558 39.8557C78.6913 39.8873 78.7018 39.8939 78.7255 39.9123C78.7492 39.9307 78.786 39.9714 78.8175 40.003C78.849 40.0345 78.8596 40.0476 78.8793 40.0674C78.9083 40.096 78.9351 40.1267 78.9595 40.1594C78.9831 40.183 79.0028 40.2106 79.0212 40.233C79.0474 40.2628 79.0719 40.2939 79.0948 40.3263C79.1146 40.3518 79.1326 40.3785 79.1487 40.4065C79.1711 40.4363 79.1917 40.4675 79.2105 40.4998C79.2302 40.53 79.2447 40.5602 79.2644 40.5918C79.2826 40.622 79.2993 40.6532 79.3143 40.6851C79.3301 40.7153 79.3459 40.7495 79.3656 40.7837C79.3853 40.8178 79.3919 40.8415 79.4037 40.873C79.4155 40.9046 79.4379 40.9532 79.4536 40.9927C79.4694 41.0321 79.472 41.0426 79.4799 41.0702C79.5032 41.1315 79.5225 41.1943 79.5378 41.2582C79.5378 41.266 79.5378 41.27 79.5456 41.2739C79.5654 41.3436 79.5811 41.4054 79.5956 41.4816C79.5956 41.5052 79.6048 41.5236 79.6074 41.5447C79.6153 41.5933 79.6271 41.6472 79.635 41.6985C79.635 41.7247 79.635 41.7484 79.6429 41.7747C79.6495 41.822 79.6534 41.8706 79.6587 41.9219C79.6587 41.9442 79.6587 41.9718 79.6587 41.9981C79.6587 42.0481 79.6666 42.0941 79.6666 42.1414C79.6666 42.1887 79.6666 42.1992 79.6666 42.2268V42.3688C79.6685 42.3981 79.6685 42.4275 79.6666 42.4568C79.6666 42.5041 79.6666 42.5502 79.6666 42.6001C79.6666 42.6264 79.6666 42.6579 79.6587 42.6855C79.6587 42.7342 79.6508 42.7815 79.6469 42.8314C79.6469 42.8577 79.6403 42.8892 79.6363 42.9155C79.6363 42.9655 79.6245 43.0167 79.6166 43.0627C79.6087 43.1087 79.6087 43.1206 79.6048 43.1469C79.5969 43.1981 79.5903 43.2468 79.5785 43.298C79.5785 43.3243 79.5667 43.3519 79.5627 43.3782C79.5509 43.4321 79.5391 43.482 79.5286 43.5333C79.5286 43.5596 79.5167 43.5872 79.5128 43.6135C79.497 43.6634 79.4852 43.7133 79.4694 43.7685C79.4694 43.7909 79.4589 43.8172 79.451 43.8408C79.4352 43.8947 79.4208 43.9486 79.4011 44.0038C79.3962 44.027 79.3896 44.0499 79.3814 44.0722C79.363 44.126 79.3432 44.1799 79.3235 44.2338C79.3156 44.2575 79.3117 44.2759 79.3038 44.2995C79.2815 44.3574 79.2578 44.4113 79.2394 44.4691L79.2157 44.523C79.1921 44.5847 79.1658 44.6465 79.1382 44.7083C79.1382 44.7188 79.1277 44.7306 79.1224 44.7425C79.0922 44.8161 79.058 44.8857 79.0225 44.958C78.9884 45.0316 78.9503 45.1052 78.9108 45.1749C78.8974 45.2117 78.8793 45.2466 78.8569 45.2787C78.7768 45.4404 78.6059 45.7598 78.414 46.1344C77.9711 46.9742 77.3967 48.0691 77.3546 48.1308C77.1549 48.4699 76.9603 48.8012 76.7487 49.1179C76.7487 49.1179 76.7487 49.1179 76.7487 49.1245C76.6883 49.2178 76.6252 49.3059 76.5634 49.3952L76.5292 49.4491C76.5069 49.4833 76.4793 49.5227 76.4556 49.5569C76.2098 50.7871 76.0981 51.9424 75.8629 53.0228C75.805 53.3002 75.7314 53.5696 75.6578 53.839C75.1321 55.5937 73.873 57.2037 72.209 58.0134C67.9808 60.0638 63.0861 63.1393 58.1823 61.8132C53.1523 60.4568 51.8814 55.7054 51.4792 51.1026C51.4476 50.7477 51.4214 50.3968 51.3938 50.0511C50.9692 44.3797 51.1006 38.5611 51.2965 32.8753Z" fill="#F1F2F8"/>
<path d="M59.1174 148.274C56.0734 149.228 52.2999 139.731 54.2359 138.861C54.2359 138.861 73.6882 122.994 81.3679 118.795C85.232 116.683 95.2381 125.665 91.6276 129.689C84.2108 134.932 67.5186 145.631 59.1174 148.274Z" fill="#AAB1D4"/>
<path d="M80.8782 92.8338C81.2436 86.429 84.0484 72.4838 92.5115 74.4041C97.506 75.5371 99.6247 83.0893 99.5484 88.6424C99.4012 99.9457 96.4505 112.256 93.6654 126.164C91.8254 134.747 77.5411 133.931 78.3717 126.34C79.1025 119.663 80.5023 99.3924 80.8782 92.8338Z" fill="#717DB7"/>
</g>
</g>
<defs>
<clipPath id="clip0_399_77828">
<rect width="128" height="128" rx="64" fill="white"/>
</clipPath>
<clipPath id="clip1_399_77828">
<rect width="128" height="128" fill="white"/>
</clipPath>
</defs>
</svg>
