<svg width="128" height="128" viewBox="0 0 128 128" fill="none" xmlns="http://www.w3.org/2000/svg">
<g clip-path="url(#clip0_399_77779)">
<rect width="128" height="128" rx="64" fill="#C6CBE2"/>
<path d="M83.2397 23.978C83.1232 23.5189 82.9678 23.0598 82.7771 22.6007C82.2014 21.2376 81.3151 19.9274 79.9731 19.2035C78.8713 18.6102 77.5611 18.4725 76.2934 18.5043C71.314 18.6385 64.4701 21.8591 64.5831 27.3646C64.6608 31.401 68.5666 34.4063 72.4476 35.1903C79.6906 36.6523 84.8218 30.2003 83.2397 23.978Z" fill="#00157E"/>
<path d="M32.02 112.992C30.5305 116.074 28.8165 122.327 27.1194 127.79C25.0557 134.449 23.4391 136.138 20.8437 142.504C22.2238 145.094 23.0211 146.862 26.7357 147.108C30.6345 140.288 33.54 139.537 42.1902 116.199C43.8851 110.384 36.0521 106.609 32.0162 112.996L32.02 112.992Z" fill="white" fill-opacity="0.7"/>
<path d="M42.4884 115.885C44.6295 107.687 55.2664 74.3828 54.3794 66.2234C53.9818 62.5597 52.0109 60.4236 42.6298 66.3336C37.8818 69.3254 34.0202 103.696 32.3848 112.18C30.4629 122.12 40.8235 122.279 42.4884 115.885Z" fill="#5563A9"/>
<path d="M70.3545 69.3428C70.3545 69.3428 67.2221 72.8919 62.0027 72.8248C56.7832 72.7541 57.4012 65.3946 57.4012 65.3946L57.5954 50.9052H69.8424L70.3545 69.3428Z" fill="#EE9F7C"/>
<path d="M70.4393 69.3425C70.4393 69.3425 65.0115 76.8785 59.7921 76.8115C54.5762 76.7408 57.3307 67.605 57.3307 67.605L57.6838 50.9014H69.9308L70.4429 69.339L70.4393 69.3425Z" fill="#C6CBE2"/>
<path d="M80.4929 45.417C82.5941 38.3012 79.9631 29.6986 73.8997 25.362C67.4054 20.7217 58.8064 22.3462 54.0213 28.5121C49.0738 34.8898 49.2821 43.669 50.5605 51.2333C51.5281 56.9648 53.1737 67.0294 60.0883 67.386C64.8734 67.6297 71.4489 62.5904 73.1687 57.2897C74.0409 54.5987 75.8843 52.9884 77.6465 50.8413C78.9743 49.2274 79.9137 47.3769 80.4893 45.417H80.4929Z" fill="#FFBF9D"/>
<path d="M57.0289 250.9C55.1254 268.063 51.2797 275.002 51.2797 275.002C46.0108 277.926 40.2475 277.082 39.34 274.232C38.1993 269.242 45.1774 243.389 40.2687 214.477C34.1099 178.213 36.3418 156.54 37.9733 146.197C38.1322 145.197 38.2911 144.308 38.4465 143.534C38.9974 140.755 39.4777 139.395 39.4777 139.395L44.4782 123.419C49.4928 124.994 52.8123 125.87 55.4468 126.276L58.3108 184.301C60.2389 211.581 58.5792 236.923 57.0253 250.9H57.0289Z" fill="#F37F26"/>
<path d="M82.6267 230.478C85.5578 247.44 80.9139 265.079 76.5774 283.828C76.5774 283.828 69.8782 293.362 63.956 284.343C63.956 284.343 65.0155 267.413 64.0584 250.127C63.5993 241.821 62.6776 233.438 60.9508 226.806C56.8755 211.165 53.8243 164.893 53.8243 164.893L38.452 143.531C39.0029 140.752 39.4832 139.392 39.4832 139.392L44.4837 123.416C49.4984 124.991 52.8179 125.867 55.4523 126.273C61.2545 127.177 63.7194 125.824 73.5968 124.768C79.0352 137.927 83.6437 148.051 85.7944 160.273C90.1416 184.986 79.6391 213.16 82.6302 230.475L82.6267 230.478Z" fill="#FF8A28"/>
<path d="M85.8615 75.1237C83.0081 72.1856 78.9787 69.5052 74.4726 67.0403C72.947 66.2033 71.7428 65.6454 70.2561 64.7449C70.2561 65.0027 70.083 68.9932 70.0654 69.1344C70.0654 69.3958 70.0406 69.6571 70.0053 69.9149C70.189 70.9778 68.8576 72.0337 67.5651 73.1249C63.1473 76.8506 58.9837 77.5463 56.2116 75.2932C52.3341 72.1432 57.2816 63.8514 58.6483 61.8703C56.1339 60.832 51.8538 61.3406 49.7314 61.8138C48.5343 62.0786 47.7785 62.9756 47.1605 64.0598C44.1729 69.3392 40.8322 81.5721 38.3249 86.7598C36.139 91.2765 35.8847 97.5907 38.7028 101.832C40.5815 104.654 42.4531 116.328 41.4714 121.661C40.9028 124.761 39.6739 131.238 38.6745 134.321C38.2543 135.614 38.1166 137.923 39.2078 138.739L39.9741 139.311C41.5385 140.476 43.7774 139.759 44.3742 137.905L47.5808 127.947C47.6761 127.65 48.1176 127.714 48.1246 128.025L48.2835 137.92C48.4813 153.002 88.1286 149.227 82.3547 138.276C81.1258 135.942 79.6497 132.577 78.9293 130.037C78.1135 127.17 77.0364 120.234 77.7851 118.165L86.2711 89.9981C87.5636 86.449 88.4535 77.8041 85.8473 75.1202L85.8615 75.1237Z" fill="#1C2F8C"/>
<path d="M68.3167 77.79C62.6876 82.5963 49.9991 92.1806 49.9991 92.1806C49.9991 92.1806 54.1274 73.7394 56.4616 68.5941C56.3169 70.1409 57.1891 75.099 58.4851 76.1479C60.5016 77.79 65.2372 79.4674 68.3167 77.7865V77.79Z" fill="#C6CBE2"/>
<path d="M57.2353 64.713C57.2353 64.713 57.7368 68.0856 56.861 69.4204C54.6538 72.7859 51.2849 91.1952 51.2849 91.1952C51.2849 91.1952 70.7501 75.6605 70.4746 70.5893L70.2416 66.7295C70.2416 66.7295 74.0555 69.1097 75.5705 73.358C76.9301 77.1719 69.4823 82.4126 62.4548 84.994C62.1475 85.1035 62.2252 85.5591 62.5536 85.5591C64.2346 85.5661 66.4841 85.6473 68.0556 85.9263C69.9096 86.2548 63.6555 89.4719 50.1583 93.1799C49.9147 93.247 48.6928 81.7875 49.392 80.163C49.7098 79.425 50.681 81.1201 51.1895 82.1159C51.2813 82.2925 51.5426 82.236 51.5532 82.0382C51.6133 80.8481 51.7298 78.5456 51.7828 77.6699C51.9276 75.1943 51.8216 72.3091 52.9164 70.0137C53.9193 67.9055 55.0246 65.1686 57.2318 64.713H57.2353Z" fill="#5563A9"/>
<path d="M59.9106 76.441L59.8259 81.6816L57.6858 82.8152C57.1914 83.1189 56.4887 83.7899 56.4075 84.3443L55.348 87.8193C53.0279 89.8039 51.3469 91.1494 51.2692 91.213C51.2904 91.1282 51.6612 89.2036 52.1274 86.8411C53.2821 84.9941 54.5429 83.5922 54.5429 83.5922C54.783 83.0942 55.2386 82.621 55.2527 81.9783L55.2386 80.0077L58.5122 75.8371L59.9106 76.4445V76.441Z" fill="#AAB1D4"/>
<path d="M58.8473 75.6394C59.5041 76.4234 58.8226 77.0485 58.2928 77.5288L54.9627 80.5022C53.9139 81.3816 53.6985 80.1632 53.8503 79.0791C54.0728 77.5111 54.1434 75.8655 54.1858 74.2657C54.2282 72.7013 54.1787 71.1016 54.6308 69.5866C54.998 68.3647 55.9833 66.373 57.3994 65.9633C57.3994 65.9633 57.3923 67.0404 57.4806 68.2658C57.5265 68.9262 57.2546 69.6537 57.0604 70.0951C56.7426 70.8084 57.3394 73.8349 58.8508 75.643L58.8473 75.6394Z" fill="white"/>
<path d="M70.198 66.2989C70.198 66.2989 70.0779 67.7715 69.241 69.6926C66.8573 75.1805 59.8862 76.2152 59.8862 76.2152C59.0811 76.4624 59.0881 76.8508 59.134 78.1963L59.6179 83.1297C59.6673 84.4187 60.4442 84.2209 61.2317 83.7336C61.2317 83.7336 67.1998 79.7395 68.7325 78.3305C72.3486 75.0215 72.1191 72.433 71.1374 67.9057C70.8019 66.3343 70.198 66.3025 70.198 66.3025V66.2989Z" fill="white"/>
<path d="M52.6117 56.1563C54.275 59.2251 55.7582 62.4528 58.4774 64.7271C58.4385 61.178 60.8222 48.0658 60.9035 47.0982C61.0059 45.8551 62.5173 22.6889 62.5173 22.6889C52.9754 22.4064 45.5453 33.1879 43.7972 42.7404C42.9108 47.5749 49.0802 50.3647 51.298 53.8785C51.7606 54.6166 52.1914 55.3794 52.6081 56.1528L52.6117 56.1563Z" fill="#00157E"/>
<path d="M80.3006 45.6364C82.3842 38.57 79.7745 30.0204 73.7499 25.7121C67.2979 21.1035 58.7554 22.7174 54.0021 28.8444C49.0863 35.1798 49.2947 43.906 50.566 51.4173C51.5301 57.1135 53.1616 67.111 60.0338 67.4641C64.7906 67.7078 71.3202 62.6967 73.0294 57.4349C73.8946 54.7616 75.7275 53.1618 77.479 51.0324C78.7963 49.4256 79.7286 47.5892 80.3042 45.6399L80.3006 45.6364Z" fill="#F1F2F8"/>
<path d="M81.732 32.2167C79.1576 28.0496 75.3295 24.7053 70.9647 23.4163C68.0018 22.5441 64.8694 22.3781 61.7653 22.6995C60.2715 22.8548 58.8484 23.3033 57.8066 24.4334C52.7531 29.9212 57.1992 32.6192 59.4558 34.8228C61.2497 36.5674 64.6823 38.3154 66.7093 41.7126C66.8965 42.0269 67.0695 42.3377 67.2355 42.6485C68.747 43.1464 70.2831 43.2524 71.9641 43.1959C71.7769 45.5231 71.7275 47.1722 71.7275 47.1722C71.7275 47.1722 73.5038 44.6155 75.7003 45.9715C78.5149 47.709 75.7427 54.2492 72.7198 56.0291C72.7198 56.0291 72.8787 59.4192 70.2301 62.1525V65.5886C70.2301 65.5886 72.4726 61.8948 76.0323 59.1791C79.6802 56.3928 82.9963 52.8967 84.4194 48.433C86.0721 43.2418 84.7796 37.1501 81.732 32.2131V32.2167Z" fill="#00157E"/>
<path d="M71.1276 40.4382L71.2194 40.304C71.2194 40.304 71.0959 39.7249 71.1135 40.417C68.8852 36.4159 65.9223 31.1117 65.9223 31.1117L57.8 24.1654C57.8 24.1654 45.1363 29.7521 47.3187 41.088C47.4918 41.9815 53.0503 48.8536 60.996 42.2851C63.8105 39.9579 61.6917 44.4287 66.2295 47.3704C68.9805 49.1538 70.5414 49.4681 70.2518 55.415C70.2236 56.0295 70.1318 56.598 69.8387 57.1277C70.5273 56.764 71.0111 56.0824 71.3042 55.3762C72.2789 53.0313 72.1977 50.2627 71.8057 47.7942C71.7492 47.4305 71.6821 47.042 71.8304 46.703C72.1518 45.9684 73.5008 45.6859 73.5396 44.7889C73.5502 44.5488 73.1335 44.0367 73.0205 43.8319C72.7768 43.4011 71.449 40.4418 71.1276 40.4418V40.4382Z" fill="#00157E"/>
<path d="M93.9965 134.939C94.0247 124.461 92.1319 87.526 88.1202 78.2842C86.3156 74.1348 82.4875 72.3832 78.9067 75.8793C69.8556 84.7149 81.135 124.08 82.5652 134.649C84.0661 145.766 93.9859 139.562 94 134.939H93.9965Z" fill="#5563A9"/>
</g>
<defs>
<clipPath id="clip0_399_77779">
<rect width="128" height="128" rx="64" fill="white"/>
</clipPath>
</defs>
</svg>
