<svg width="555" height="360" viewBox="0 0 555 360" fill="none" xmlns="http://www.w3.org/2000/svg">
<path d="M0 8C0 3.58172 3.58172 0 8 0H546.667C551.085 0 554.667 3.58172 554.667 8V352C554.667 356.418 551.085 360 546.667 360H8C3.58172 360 0 356.418 0 352V8Z" fill="white"/>
<path d="M8 0.5H546.667C550.809 0.500198 554.167 3.85799 554.167 8V352C554.167 356.142 550.809 359.5 546.667 359.5H8C3.85787 359.5 0.5 356.142 0.5 352V8C0.500001 3.85787 3.85787 0.5 8 0.5Z" stroke="#00157E" stroke-opacity="0.2"/>
<path d="M272.486 24.5408C277.113 23.4956 281.954 23.9736 286.287 25.9041C287.296 26.3536 287.75 27.5359 287.3 28.5447C286.851 29.5536 285.669 30.0078 284.66 29.5584C281.114 27.9786 277.153 27.5877 273.367 28.4432C269.581 29.2986 266.172 31.3539 263.65 34.3045C261.128 37.2551 259.628 40.9431 259.373 44.8162C259.118 48.6891 260.122 52.5406 262.234 55.7967C264.347 59.0528 267.455 61.5394 271.095 62.8846C274.736 64.2297 278.715 64.362 282.437 63.2615C286.159 62.161 289.426 59.8859 291.75 56.7771C294.074 53.6686 295.331 49.8926 295.334 46.0115V44.1717C295.334 43.0671 296.229 42.1717 297.334 42.1717C298.438 42.1717 299.334 43.0671 299.334 44.1717V46.0115L299.316 46.9002C299.135 51.33 297.617 55.6095 294.955 59.1717C292.114 62.9713 288.121 65.7523 283.572 67.0975C279.023 68.4426 274.159 68.2806 269.709 66.6365C265.259 64.9925 261.461 61.9537 258.879 57.9744C256.297 53.9946 255.068 49.2863 255.381 44.5525C255.693 39.8191 257.527 35.313 260.609 31.7068C263.691 28.1005 267.859 25.5863 272.486 24.5408ZM295.92 28.5975C296.7 27.8166 297.966 27.8152 298.748 28.5955C299.529 29.3762 299.528 30.6441 298.748 31.4256L278.748 51.4451C278.373 51.8201 277.864 52.0309 277.334 52.031C276.803 52.031 276.295 51.8202 275.92 51.4451L269.92 45.4451C269.139 44.6641 269.139 43.398 269.92 42.617C270.701 41.8361 271.967 41.8361 272.748 42.617L277.332 47.201L295.92 28.5975Z" fill="#00157E"/>
<path d="M233.451 107.368L230.411 112.936V117H229.067V113.016L226.187 107.624L227.387 107.064L229.755 111.656H229.771L232.043 107.368H233.451ZM239.775 113.256C239.775 115.448 238.735 117.176 236.575 117.176C234.207 117.176 233.375 115.496 233.375 113.256C233.375 111.064 234.415 109.336 236.575 109.336C238.943 109.336 239.775 111.016 239.775 113.256ZM238.463 113.288C238.463 111.432 237.839 110.456 236.575 110.456C235.343 110.456 234.687 111.32 234.687 113.208C234.687 115.064 235.311 116.056 236.575 116.056C237.807 116.056 238.463 115.176 238.463 113.288ZM247.713 116.92L246.449 117.128L246.321 116.264H246.305C245.745 116.792 245.009 117.176 244.081 117.176C242.817 117.176 241.809 116.36 241.809 114.824V111.24L241.585 109.592L243.089 109.384V114.376C243.089 115.48 243.505 116.056 244.513 116.056C245.233 116.056 245.745 115.752 246.209 115.32V111.24L245.985 109.592L247.489 109.384V115.272L247.713 116.92ZM253.403 110.616C252.539 110.616 251.899 110.84 251.323 111.368V117H250.043V111.24L249.819 109.592L251.083 109.384L251.211 110.408H251.227C251.739 109.832 252.411 109.352 253.403 109.352V110.616ZM264.212 112.888C264.212 115.32 263.156 117.08 260.66 117.08C260.244 117.08 259.908 117.048 259.604 116.968V120.168L258.324 120.376V111.24L258.1 109.592L259.364 109.384L259.476 110.152H259.492C259.988 109.736 260.644 109.336 261.508 109.336C263.332 109.336 264.212 110.712 264.212 112.888ZM262.932 113.256C262.932 111.624 262.564 110.488 261.076 110.488C260.436 110.488 259.972 110.76 259.604 111.064V115.784C259.908 115.912 260.26 115.992 260.756 115.992C262.148 115.992 262.932 114.904 262.932 113.256ZM271.158 116.92L269.878 117.128L269.766 116.248H269.75C269.206 116.76 268.614 117.192 267.718 117.192C266.47 117.192 265.734 116.44 265.734 115.256C265.734 113.912 266.79 113.256 268.31 113.096L269.654 112.952V112.28C269.654 111.24 269.334 110.504 268.102 110.504C267.478 110.504 267.014 110.696 266.55 110.936L266.086 109.992C266.758 109.592 267.446 109.336 268.406 109.336C269.91 109.336 270.918 110.216 270.918 111.704V115.272L271.158 116.92ZM269.654 115.448V113.816L268.486 113.976C267.526 114.104 266.998 114.408 266.998 115.096C266.998 115.72 267.382 116.136 268.022 116.136C268.774 116.136 269.238 115.816 269.654 115.448ZM278.748 109.512L276.252 116.312C275.452 118.52 274.38 119.848 271.772 120.376L271.532 119.336C273.436 118.952 274.444 117.8 274.94 116.552L272.252 109.624L273.516 109.288L275.58 114.856H275.596L277.484 109.512H278.748ZM290.357 117H289.093V112.136C289.093 111.032 288.677 110.472 287.653 110.472C286.933 110.472 286.325 110.824 285.925 111.224C285.925 111.224 285.973 111.496 285.973 111.784V117H284.693V112.136C284.693 111.032 284.277 110.472 283.269 110.472C282.549 110.472 282.037 110.76 281.573 111.192V117H280.293V111.24L280.069 109.592L281.333 109.384L281.461 110.264H281.477C282.037 109.72 282.773 109.336 283.701 109.336C284.565 109.336 285.285 109.72 285.669 110.408H285.685C286.277 109.816 287.045 109.336 288.101 109.336C289.381 109.336 290.357 110.152 290.357 111.688V117ZM298.102 116.6C297.382 117 296.646 117.176 295.734 117.176C293.526 117.176 292.39 115.688 292.39 113.208C292.39 110.888 293.606 109.336 295.494 109.336C297.302 109.336 298.038 110.536 298.038 112.184V113.08H293.638C293.654 115.08 294.374 116.04 296.006 116.04C296.63 116.04 297.11 115.864 297.654 115.592L298.102 116.6ZM296.838 112.184C296.838 111.064 296.422 110.36 295.43 110.36C294.47 110.36 293.862 111.112 293.702 112.184H296.838ZM305.692 117H304.412V112.136C304.412 111.032 303.996 110.472 302.988 110.472C302.268 110.472 301.756 110.776 301.292 111.192V117H300.012V111.24L299.788 109.592L301.052 109.384L301.18 110.264H301.196C301.756 109.72 302.492 109.336 303.42 109.336C304.684 109.336 305.692 110.152 305.692 111.688V117ZM311.959 116.696C311.495 116.952 311.063 117.16 310.247 117.16C309.095 117.16 308.359 116.408 308.359 115.128V110.552H307.255V109.704L308.359 109.48V108.232L309.623 108.072V109.512H311.719V110.552H309.623V114.696C309.623 115.704 309.879 116.024 310.615 116.024C311.015 116.024 311.319 115.864 311.543 115.72L311.959 116.696ZM322.915 113.256C322.915 115.448 321.875 117.176 319.715 117.176C317.347 117.176 316.515 115.496 316.515 113.256C316.515 111.064 317.555 109.336 319.715 109.336C322.083 109.336 322.915 111.016 322.915 113.256ZM321.603 113.288C321.603 111.432 320.979 110.456 319.715 110.456C318.483 110.456 317.827 111.32 317.827 113.208C317.827 115.064 318.451 116.056 319.715 116.056C320.947 116.056 321.603 115.176 321.603 113.288ZM328.567 106.232L328.279 107.32C328.055 107.24 327.847 107.192 327.527 107.192C326.807 107.192 326.279 107.656 326.279 108.6V109.512H328.343V110.552H326.279V117H325.015V110.552H323.911V109.704L325.015 109.48V108.696C325.015 107.08 326.103 106.088 327.591 106.088C327.991 106.088 328.279 106.152 328.567 106.232Z" fill="#00157E"/>
<path d="M237.574 164.504C236.678 164.968 235.766 165.176 234.55 165.176C232.198 165.176 230.39 163.592 230.39 160.392C230.39 156.984 232.406 155.192 234.998 155.192C236.07 155.192 236.726 155.352 237.542 155.704L237.03 156.872C236.422 156.6 235.846 156.392 234.982 156.392C233.302 156.392 231.766 157.688 231.766 160.056C231.766 162.696 232.742 163.992 235.078 163.992C235.846 163.992 236.55 163.688 237.126 163.432L237.574 164.504ZM246.271 165H244.927V160.6H240.591V165H239.247V155.368H240.591V159.464H244.927V155.368H246.271V165ZM253.719 156.504H250.263V159.64H253.383V160.776H250.263V165H248.935V155.368H253.719V156.504Z" fill="#00157E"/>
<path d="M278.292 163.94C278.292 167.52 275.232 168.92 271.652 169.34L271.272 167.18C272.952 166.92 275.692 166.34 275.692 164.2C275.692 162.86 274.712 162.2 272.452 162.2H271.272L271.652 155.8H277.932V158.08H273.752L273.612 160.44C273.612 160.44 273.992 160.42 274.392 160.42C276.832 160.42 278.292 161.62 278.292 163.94ZM288.466 160.9C288.466 163.7 287.246 166.24 284.166 166.24C281.086 166.24 279.866 163.7 279.866 160.9C279.866 158.1 281.086 155.56 284.166 155.56C287.246 155.56 288.466 158.1 288.466 160.9ZM285.906 160.9C285.906 158.98 285.366 157.82 284.166 157.82C282.986 157.82 282.426 158.98 282.426 160.9C282.426 162.82 282.986 163.98 284.166 163.98C285.366 163.98 285.906 162.82 285.906 160.9ZM298.817 160.9C298.817 163.7 297.597 166.24 294.517 166.24C291.437 166.24 290.217 163.7 290.217 160.9C290.217 158.1 291.437 155.56 294.517 155.56C297.597 155.56 298.817 158.1 298.817 160.9ZM296.257 160.9C296.257 158.98 295.717 157.82 294.517 157.82C293.337 157.82 292.777 158.98 292.777 160.9C292.777 162.82 293.337 163.98 294.517 163.98C295.717 163.98 296.257 162.82 296.257 160.9ZM303.669 164.64C303.669 165.48 302.989 166.16 302.149 166.16C301.309 166.16 300.629 165.48 300.629 164.64C300.629 163.82 301.309 163.14 302.149 163.14C302.989 163.14 303.669 163.82 303.669 164.64ZM314.071 160.9C314.071 163.7 312.851 166.24 309.771 166.24C306.691 166.24 305.471 163.7 305.471 160.9C305.471 158.1 306.691 155.56 309.771 155.56C312.851 155.56 314.071 158.1 314.071 160.9ZM311.511 160.9C311.511 158.98 310.971 157.82 309.771 157.82C308.591 157.82 308.031 158.98 308.031 160.9C308.031 162.82 308.591 163.98 309.771 163.98C310.971 163.98 311.511 162.82 311.511 160.9ZM324.423 160.9C324.423 163.7 323.203 166.24 320.123 166.24C317.043 166.24 315.823 163.7 315.823 160.9C315.823 158.1 317.043 155.56 320.123 155.56C323.203 155.56 324.423 158.1 324.423 160.9ZM321.863 160.9C321.863 158.98 321.323 157.82 320.123 157.82C318.943 157.82 318.383 158.98 318.383 160.9C318.383 162.82 318.943 163.98 320.123 163.98C321.323 163.98 321.863 162.82 321.863 160.9Z" fill="#00157E"/>
<path d="M230.779 212.696C230.315 212.952 229.883 213.16 229.067 213.16C227.915 213.16 227.179 212.408 227.179 211.128V206.552H226.075V205.704L227.179 205.48V204.232L228.443 204.072V205.512H230.539V206.552H228.443V210.696C228.443 211.704 228.699 212.024 229.435 212.024C229.835 212.024 230.139 211.864 230.363 211.72L230.779 212.696ZM238.158 209.256C238.158 211.448 237.118 213.176 234.958 213.176C232.59 213.176 231.758 211.496 231.758 209.256C231.758 207.064 232.798 205.336 234.958 205.336C237.326 205.336 238.158 207.016 238.158 209.256ZM236.846 209.288C236.846 207.432 236.222 206.456 234.958 206.456C233.726 206.456 233.07 207.32 233.07 209.208C233.07 211.064 233.694 212.056 234.958 212.056C236.19 212.056 236.846 211.176 236.846 209.288Z" fill="#00157E"/>
<path d="M264.154 213H262.81V208.6H258.474V213H257.13V203.368H258.474V207.464H262.81V203.368H264.154V213ZM271.682 212.92L270.402 213.128L270.29 212.248H270.274C269.73 212.76 269.138 213.192 268.242 213.192C266.994 213.192 266.258 212.44 266.258 211.256C266.258 209.912 267.314 209.256 268.834 209.096L270.178 208.952V208.28C270.178 207.24 269.858 206.504 268.626 206.504C268.002 206.504 267.538 206.696 267.074 206.936L266.61 205.992C267.282 205.592 267.97 205.336 268.93 205.336C270.434 205.336 271.442 206.216 271.442 207.704V211.272L271.682 212.92ZM270.178 211.448V209.816L269.01 209.976C268.05 210.104 267.522 210.408 267.522 211.096C267.522 211.72 267.906 212.136 268.546 212.136C269.298 212.136 269.762 211.816 270.178 211.448ZM279.7 213H278.42V208.136C278.42 207.032 278.004 206.472 276.996 206.472C276.276 206.472 275.764 206.776 275.3 207.192V213H274.02V207.24L273.796 205.592L275.06 205.384L275.188 206.264H275.204C275.764 205.72 276.5 205.336 277.428 205.336C278.692 205.336 279.7 206.152 279.7 207.688V213ZM286.559 210.824C286.559 212.184 285.487 213.16 283.887 213.16C283.119 213.16 282.351 213.048 281.743 212.76L282.127 211.64C282.655 211.88 283.247 212.072 283.823 212.072C284.687 212.072 285.263 211.736 285.263 211.032C285.263 210.488 284.975 210.264 284.479 210.04L283.087 209.4C282.591 209.176 281.695 208.728 281.695 207.432C281.695 206.008 282.943 205.336 284.303 205.336C285.119 205.336 285.695 205.464 286.335 205.736L285.903 206.84C285.391 206.616 284.895 206.456 284.287 206.456C283.471 206.456 282.943 206.712 282.943 207.352C282.943 207.912 283.423 208.136 283.727 208.28L285.151 208.952C286.143 209.416 286.559 210.008 286.559 210.824ZM301.813 212.968L300.533 213.064L300.261 205.608H300.245L297.413 213H296.021L293.349 205.624H293.333L292.949 213H291.781L292.405 203.368H293.813L296.837 211.4H296.853L299.909 203.368H301.301L301.813 212.968ZM309.391 212.6C308.671 213 307.935 213.176 307.023 213.176C304.815 213.176 303.679 211.688 303.679 209.208C303.679 206.888 304.895 205.336 306.783 205.336C308.591 205.336 309.327 206.536 309.327 208.184V209.08H304.927C304.943 211.08 305.663 212.04 307.295 212.04C307.919 212.04 308.399 211.864 308.943 211.592L309.391 212.6ZM308.127 208.184C308.127 207.064 307.711 206.36 306.719 206.36C305.759 206.36 305.151 207.112 304.991 208.184H308.127ZM316.725 205.512L314.229 212.312C313.429 214.52 312.357 215.848 309.749 216.376L309.509 215.336C311.413 214.952 312.421 213.8 312.917 212.552L310.229 205.624L311.493 205.288L313.557 210.856H313.573L315.461 205.512H316.725ZM323.313 212.6C322.593 213 321.857 213.176 320.945 213.176C318.737 213.176 317.601 211.688 317.601 209.208C317.601 206.888 318.817 205.336 320.705 205.336C322.513 205.336 323.249 206.536 323.249 208.184V209.08H318.849C318.865 211.08 319.585 212.04 321.217 212.04C321.841 212.04 322.321 211.864 322.865 211.592L323.313 212.6ZM322.049 208.184C322.049 207.064 321.633 206.36 320.641 206.36C319.681 206.36 319.073 207.112 318.913 208.184H322.049ZM328.583 206.616C327.719 206.616 327.079 206.84 326.503 207.368V213H325.223V207.24L324.999 205.592L326.263 205.384L326.391 206.408H326.407C326.919 205.832 327.591 205.352 328.583 205.352V206.616Z" fill="#00157E"/>
<path d="M162.246 246.512L160.182 253.968L158.998 254.032L157.174 248.352H157.158L155.318 253.984L154.134 254.032L152.262 246.592L153.478 246.288L154.822 252.128H154.838L156.582 246.512H157.83L159.59 252.128H159.606L160.998 246.512H162.246ZM165.238 254H163.958V248.24L163.734 246.592L165.238 246.384V254ZM165.494 244.56C165.494 245.072 165.094 245.456 164.614 245.456C164.118 245.456 163.702 245.072 163.702 244.56C163.702 244.048 164.118 243.648 164.614 243.648C165.094 243.648 165.494 244.048 165.494 244.56ZM169.049 254H167.769V244.928L167.545 243.28L169.049 243.072V254ZM172.83 254H171.55V244.928L171.326 243.28L172.83 243.072V254ZM184.643 249.808C184.643 252.304 183.347 254.16 180.979 254.16C180.147 254.16 179.235 254.016 178.691 253.808V244.928L178.467 243.28L179.971 243.072V247.088H179.987C180.467 246.688 181.107 246.336 181.955 246.336C183.715 246.336 184.643 247.6 184.643 249.808ZM183.347 250.272C183.347 248.624 182.963 247.504 181.507 247.504C180.835 247.504 180.355 247.776 179.971 248.112V252.928C180.291 253.008 180.611 253.056 181.091 253.056C182.579 253.056 183.347 251.792 183.347 250.272ZM191.891 253.6C191.171 254 190.435 254.176 189.523 254.176C187.315 254.176 186.179 252.688 186.179 250.208C186.179 247.888 187.395 246.336 189.283 246.336C191.091 246.336 191.827 247.536 191.827 249.184V250.08H187.427C187.443 252.08 188.163 253.04 189.795 253.04C190.419 253.04 190.899 252.864 191.443 252.592L191.891 253.6ZM190.627 249.184C190.627 248.064 190.211 247.36 189.219 247.36C188.259 247.36 187.651 248.112 187.491 249.184H190.627ZM202.36 253.6C201.64 254 200.904 254.176 199.992 254.176C197.784 254.176 196.648 252.688 196.648 250.208C196.648 247.888 197.864 246.336 199.752 246.336C201.56 246.336 202.296 247.536 202.296 249.184V250.08H197.896C197.912 252.08 198.632 253.04 200.264 253.04C200.888 253.04 201.368 252.864 201.912 252.592L202.36 253.6ZM201.096 249.184C201.096 248.064 200.68 247.36 199.688 247.36C198.728 247.36 198.12 248.112 197.96 249.184H201.096ZM209.502 253.664L208.414 254.272L206.334 251.072H206.318L204.446 254H203.102L205.71 250.112L203.47 246.848L204.542 246.24L206.398 249.056H206.414L208.014 246.512H209.374L207.006 250L209.502 253.664ZM216.079 253.6C215.359 254 214.623 254.176 213.711 254.176C211.503 254.176 210.367 252.688 210.367 250.208C210.367 247.888 211.583 246.336 213.471 246.336C215.279 246.336 216.015 247.536 216.015 249.184V250.08H211.615C211.631 252.08 212.351 253.04 213.983 253.04C214.607 253.04 215.087 252.864 215.631 252.592L216.079 253.6ZM214.815 249.184C214.815 248.064 214.399 247.36 213.407 247.36C212.447 247.36 211.839 248.112 211.679 249.184H214.815ZM222.82 246.656L222.42 247.808C222.004 247.648 221.54 247.504 221.012 247.504C219.604 247.504 218.756 248.56 218.756 250.144C218.756 252.144 219.54 253.056 220.98 253.056C221.492 253.056 221.908 252.88 222.324 252.704L222.756 253.744C222.132 254.032 221.444 254.176 220.724 254.176C218.58 254.176 217.476 252.64 217.476 250.352C217.476 247.6 219.172 246.336 221.076 246.336C221.732 246.336 222.292 246.448 222.82 246.656ZM230.486 253.92L229.222 254.128L229.094 253.264H229.078C228.518 253.792 227.782 254.176 226.854 254.176C225.59 254.176 224.582 253.36 224.582 251.824V248.24L224.358 246.592L225.862 246.384V251.376C225.862 252.48 226.278 253.056 227.286 253.056C228.006 253.056 228.518 252.752 228.982 252.32V248.24L228.758 246.592L230.262 246.384V252.272L230.486 253.92ZM236.56 253.696C236.096 253.952 235.664 254.16 234.848 254.16C233.696 254.16 232.96 253.408 232.96 252.128V247.552H231.856V246.704L232.96 246.48V245.232L234.224 245.072V246.512H236.32V247.552H234.224V251.696C234.224 252.704 234.48 253.024 235.216 253.024C235.616 253.024 235.92 252.864 236.144 252.72L236.56 253.696ZM243.251 253.6C242.531 254 241.795 254.176 240.883 254.176C238.675 254.176 237.539 252.688 237.539 250.208C237.539 247.888 238.755 246.336 240.643 246.336C242.451 246.336 243.187 247.536 243.187 249.184V250.08H238.787C238.803 252.08 239.523 253.04 241.155 253.04C241.779 253.04 242.259 252.864 242.803 252.592L243.251 253.6ZM241.987 249.184C241.987 248.064 241.571 247.36 240.579 247.36C239.619 247.36 239.011 248.112 238.851 249.184H241.987ZM250.776 253.952L249.544 254.128L249.432 253.376H249.416C248.936 253.776 248.28 254.176 247.4 254.176C245.752 254.176 244.648 252.816 244.648 250.592C244.648 248.016 245.976 246.432 248.248 246.432C248.856 246.432 249.288 246.544 249.288 246.544V244.928L249.048 243.28L250.552 243.072V252.304L250.776 253.952ZM247.848 253.056C248.472 253.056 248.904 252.8 249.288 252.496V247.712C249.288 247.712 248.872 247.504 248.136 247.504C246.68 247.504 245.96 248.736 245.96 250.192C245.96 252 246.44 253.056 247.848 253.056ZM265.449 246.512L263.385 253.968L262.201 254.032L260.377 248.352H260.361L258.521 253.984L257.337 254.032L255.465 246.592L256.681 246.288L258.025 252.128H258.041L259.785 246.512H261.033L262.793 252.128H262.809L264.201 246.512H265.449ZM268.441 254H267.161V248.24L266.937 246.592L268.441 246.384V254ZM268.697 244.56C268.697 245.072 268.297 245.456 267.817 245.456C267.321 245.456 266.905 245.072 266.905 244.56C266.905 244.048 267.321 243.648 267.817 243.648C268.297 243.648 268.697 244.048 268.697 244.56ZM274.748 253.696C274.284 253.952 273.852 254.16 273.036 254.16C271.884 254.16 271.148 253.408 271.148 252.128V247.552H270.044V246.704L271.148 246.48V245.232L272.412 245.072V246.512H274.508V247.552H272.412V251.696C272.412 252.704 272.668 253.024 273.404 253.024C273.804 253.024 274.108 252.864 274.332 252.72L274.748 253.696ZM282.089 254H280.825V249.136C280.825 248.048 280.393 247.488 279.369 247.488C278.633 247.488 278.137 247.808 277.705 248.192V254H276.425V244.928L276.201 243.28L277.705 243.072V247.168H277.721C278.217 246.736 278.905 246.336 279.833 246.336C281.113 246.336 282.089 247.136 282.089 248.688V254ZM292.324 251.824C292.324 253.184 291.252 254.16 289.652 254.16C288.884 254.16 288.116 254.048 287.508 253.76L287.892 252.64C288.42 252.88 289.012 253.072 289.588 253.072C290.452 253.072 291.028 252.736 291.028 252.032C291.028 251.488 290.74 251.264 290.244 251.04L288.852 250.4C288.356 250.176 287.46 249.728 287.46 248.432C287.46 247.008 288.708 246.336 290.068 246.336C290.884 246.336 291.46 246.464 292.1 246.736L291.668 247.84C291.156 247.616 290.66 247.456 290.052 247.456C289.236 247.456 288.708 247.712 288.708 248.352C288.708 248.912 289.188 249.136 289.492 249.28L290.916 249.952C291.908 250.416 292.324 251.008 292.324 251.824ZM300.252 253.92L298.988 254.128L298.86 253.264H298.844C298.284 253.792 297.548 254.176 296.62 254.176C295.356 254.176 294.348 253.36 294.348 251.824V248.24L294.124 246.592L295.628 246.384V251.376C295.628 252.48 296.044 253.056 297.052 253.056C297.772 253.056 298.284 252.752 298.748 252.32V248.24L298.524 246.592L300.028 246.384V252.272L300.252 253.92ZM311.606 246.512V254H310.326V247.552H307.798V254H306.534V247.552H303.99V254H302.726V247.552H301.622V246.704L302.726 246.48V245.632C302.726 244.016 303.75 243.088 305.158 243.088C305.478 243.088 305.75 243.136 306.022 243.232L305.718 244.304C305.558 244.24 305.366 244.192 305.078 244.192C304.406 244.192 303.99 244.544 303.99 245.504V246.512H306.534V245.888C306.534 244.272 307.558 243.088 309.382 243.088C310.214 243.088 310.742 243.344 311.11 243.552L310.662 244.576C310.47 244.448 309.974 244.176 309.366 244.176C308.214 244.176 307.798 244.832 307.798 245.744V246.512H311.606ZM318.992 246.656L318.592 247.808C318.176 247.648 317.712 247.504 317.184 247.504C315.776 247.504 314.928 248.56 314.928 250.144C314.928 252.144 315.712 253.056 317.152 253.056C317.664 253.056 318.08 252.88 318.496 252.704L318.928 253.744C318.304 254.032 317.616 254.176 316.896 254.176C314.752 254.176 313.648 252.64 313.648 250.352C313.648 247.6 315.344 246.336 317.248 246.336C317.904 246.336 318.464 246.448 318.992 246.656ZM322.066 254H320.786V248.24L320.562 246.592L322.066 246.384V254ZM322.322 244.56C322.322 245.072 321.922 245.456 321.442 245.456C320.946 245.456 320.53 245.072 320.53 244.56C320.53 244.048 320.946 243.648 321.442 243.648C321.922 243.648 322.322 244.048 322.322 244.56ZM329.829 253.6C329.109 254 328.373 254.176 327.461 254.176C325.253 254.176 324.117 252.688 324.117 250.208C324.117 247.888 325.333 246.336 327.221 246.336C329.029 246.336 329.765 247.536 329.765 249.184V250.08H325.365C325.381 252.08 326.101 253.04 327.733 253.04C328.357 253.04 328.837 252.864 329.381 252.592L329.829 253.6ZM328.565 249.184C328.565 248.064 328.149 247.36 327.157 247.36C326.197 247.36 325.589 248.112 325.429 249.184H328.565ZM337.418 254H336.138V249.136C336.138 248.032 335.722 247.472 334.714 247.472C333.994 247.472 333.482 247.776 333.018 248.192V254H331.738V248.24L331.514 246.592L332.778 246.384L332.906 247.264H332.922C333.482 246.72 334.218 246.336 335.146 246.336C336.41 246.336 337.418 247.152 337.418 248.688V254ZM343.685 253.696C343.221 253.952 342.789 254.16 341.973 254.16C340.821 254.16 340.085 253.408 340.085 252.128V247.552H338.981V246.704L340.085 246.48V245.232L341.349 245.072V246.512H343.445V247.552H341.349V251.696C341.349 252.704 341.605 253.024 342.341 253.024C342.741 253.024 343.045 252.864 343.269 252.72L343.685 253.696ZM353.586 246.656L353.186 247.808C352.77 247.648 352.306 247.504 351.778 247.504C350.37 247.504 349.522 248.56 349.522 250.144C349.522 252.144 350.306 253.056 351.746 253.056C352.258 253.056 352.674 252.88 353.09 252.704L353.522 253.744C352.898 254.032 352.21 254.176 351.49 254.176C349.346 254.176 348.242 252.64 348.242 250.352C348.242 247.6 349.938 246.336 351.842 246.336C352.498 246.336 353.058 246.448 353.586 246.656ZM358.708 247.616C357.844 247.616 357.204 247.84 356.628 248.368V254H355.348V248.24L355.124 246.592L356.388 246.384L356.516 247.408H356.532C357.044 246.832 357.716 246.352 358.708 246.352V247.616ZM365.282 253.6C364.562 254 363.826 254.176 362.914 254.176C360.706 254.176 359.57 252.688 359.57 250.208C359.57 247.888 360.786 246.336 362.674 246.336C364.482 246.336 365.218 247.536 365.218 249.184V250.08H360.818C360.834 252.08 361.554 253.04 363.186 253.04C363.81 253.04 364.29 252.864 364.834 252.592L365.282 253.6ZM364.018 249.184C364.018 248.064 363.602 247.36 362.61 247.36C361.65 247.36 361.042 248.112 360.882 249.184H364.018ZM372.807 253.952L371.575 254.128L371.463 253.376H371.447C370.967 253.776 370.311 254.176 369.431 254.176C367.783 254.176 366.679 252.816 366.679 250.592C366.679 248.016 368.007 246.432 370.279 246.432C370.887 246.432 371.319 246.544 371.319 246.544V244.928L371.079 243.28L372.583 243.072V252.304L372.807 253.952ZM369.879 253.056C370.503 253.056 370.935 252.8 371.319 252.496V247.712C371.319 247.712 370.903 247.504 370.167 247.504C368.711 247.504 367.991 248.736 367.991 250.192C367.991 252 368.471 253.056 369.879 253.056ZM376.457 254H375.177V248.24L374.953 246.592L376.457 246.384V254ZM376.713 244.56C376.713 245.072 376.313 245.456 375.833 245.456C375.337 245.456 374.921 245.072 374.921 244.56C374.921 244.048 375.337 243.648 375.833 243.648C376.313 243.648 376.713 244.048 376.713 244.56ZM382.764 253.696C382.3 253.952 381.868 254.16 381.052 254.16C379.9 254.16 379.164 253.408 379.164 252.128V247.552H378.06V246.704L379.164 246.48V245.232L380.428 245.072V246.512H382.524V247.552H380.428V251.696C380.428 252.704 380.684 253.024 381.42 253.024C381.82 253.024 382.124 252.864 382.348 252.72L382.764 253.696ZM393.72 250.256C393.72 252.448 392.68 254.176 390.52 254.176C388.152 254.176 387.32 252.496 387.32 250.256C387.32 248.064 388.36 246.336 390.52 246.336C392.888 246.336 393.72 248.016 393.72 250.256ZM392.408 250.288C392.408 248.432 391.784 247.456 390.52 247.456C389.288 247.456 388.632 248.32 388.632 250.208C388.632 252.064 389.256 253.056 390.52 253.056C391.752 253.056 392.408 252.176 392.408 250.288ZM401.434 254H400.154V249.136C400.154 248.032 399.738 247.472 398.73 247.472C398.01 247.472 397.498 247.776 397.034 248.192V254H395.754V248.24L395.53 246.592L396.794 246.384L396.922 247.264H396.938C397.498 246.72 398.234 246.336 399.162 246.336C400.426 246.336 401.434 247.152 401.434 248.688V254Z" fill="#00157E"/>
<path d="M251.062 271.168C251.062 273.072 249.702 274.48 247.526 274.48C246.822 274.48 246.118 274.352 245.462 274.16L245.91 272.288C246.47 272.464 246.966 272.592 247.606 272.592C248.518 272.592 249.046 272.112 249.046 271.344C249.046 270.192 248.086 269.68 245.99 269.68V268.256C247.878 268.16 248.694 267.6 248.694 266.528C248.694 265.856 248.23 265.456 247.59 265.456C246.966 265.456 246.662 265.632 246.198 265.952L245.334 264.624C245.99 264.048 246.79 263.648 247.926 263.648C249.622 263.648 250.678 264.496 250.678 266.128C250.678 267.28 249.926 268.176 248.982 268.624V268.64C250.278 268.976 251.062 269.888 251.062 271.168ZM255.559 272H253.527V265.52L252.119 265.712L251.879 264.272L255.559 263.68V272ZM259.822 270.912C259.822 271.584 259.278 272.128 258.606 272.128C257.934 272.128 257.39 271.584 257.39 270.912C257.39 270.256 257.934 269.712 258.606 269.712C259.278 269.712 259.822 270.256 259.822 270.912ZM268.144 267.92C268.144 270.16 267.168 272.192 264.704 272.192C262.24 272.192 261.264 270.16 261.264 267.92C261.264 265.68 262.24 263.648 264.704 263.648C267.168 263.648 268.144 265.68 268.144 267.92ZM266.096 267.92C266.096 266.384 265.664 265.456 264.704 265.456C263.76 265.456 263.312 266.384 263.312 267.92C263.312 269.456 263.76 270.384 264.704 270.384C265.664 270.384 266.096 269.456 266.096 267.92ZM275.177 270.352C275.177 273.216 272.729 274.336 269.865 274.672L269.561 272.944C270.905 272.736 273.097 272.272 273.097 270.56C273.097 269.488 272.313 268.96 270.505 268.96H269.561L269.865 263.84H274.889V265.664H271.545L271.433 267.552C271.433 267.552 271.737 267.536 272.057 267.536C274.009 267.536 275.177 268.496 275.177 270.352ZM278.916 270.912C278.916 271.584 278.372 272.128 277.7 272.128C277.028 272.128 276.484 271.584 276.484 270.912C276.484 270.256 277.028 269.712 277.7 269.712C278.372 269.712 278.916 270.256 278.916 270.912ZM286.438 272H280.214V270.768L282.758 268.416C283.35 267.872 283.75 267.472 283.75 266.72C283.75 265.984 283.286 265.488 282.55 265.488C281.862 265.488 281.43 265.76 281.078 266.032L280.182 264.688C280.918 264.048 281.766 263.648 282.966 263.648C284.662 263.648 285.83 264.64 285.83 266.384C285.83 267.456 285.206 268.288 284.534 268.896L283.142 270.144V270.16H286.438V272ZM294.472 267.92C294.472 270.16 293.496 272.192 291.032 272.192C288.568 272.192 287.592 270.16 287.592 267.92C287.592 265.68 288.568 263.648 291.032 263.648C293.496 263.648 294.472 265.68 294.472 267.92ZM292.424 267.92C292.424 266.384 291.992 265.456 291.032 265.456C290.088 265.456 289.64 266.384 289.64 267.92C289.64 269.456 290.088 270.384 291.032 270.384C291.992 270.384 292.424 269.456 292.424 267.92ZM301.75 272H295.526V270.768L298.07 268.416C298.662 267.872 299.062 267.472 299.062 266.72C299.062 265.984 298.598 265.488 297.862 265.488C297.174 265.488 296.742 265.76 296.39 266.032L295.494 264.688C296.23 264.048 297.078 263.648 298.278 263.648C299.974 263.648 301.142 264.64 301.142 266.384C301.142 267.456 300.518 268.288 299.846 268.896L298.454 270.144V270.16H301.75V272ZM309.145 268.976C309.145 270.928 307.961 272.192 306.025 272.192C303.865 272.192 303.001 270.432 303.001 268.336C303.001 264.24 305.481 262.32 308.681 262L308.937 263.584C306.921 263.84 305.305 264.688 305.001 266.688L305.017 266.704C305.017 266.704 305.657 266.24 306.665 266.24C308.297 266.24 309.145 267.376 309.145 268.976ZM307.225 269.264C307.225 268.32 306.921 267.824 306.089 267.824C305.433 267.824 305.001 268.192 305.001 268.192V268.4C305.001 269.92 305.369 270.528 306.185 270.528C306.905 270.528 307.225 270.032 307.225 269.264Z" fill="#00157E"/>
<path d="M20 304.5H534.667C536.6 304.5 538.167 306.067 538.167 308V340C538.167 341.933 536.6 343.5 534.667 343.5H20C18.067 343.5 16.5 341.933 16.5 340V308C16.5 306.067 18.067 304.5 20 304.5Z" fill="#00157E"/>
<path d="M20 304.5H534.667C536.6 304.5 538.167 306.067 538.167 308V340C538.167 341.933 536.6 343.5 534.667 343.5H20C18.067 343.5 16.5 341.933 16.5 340V308C16.5 306.067 18.067 304.5 20 304.5Z" stroke="#00157E"/>
<path d="M260.567 328.504C259.671 328.968 258.759 329.176 257.543 329.176C255.191 329.176 253.383 327.592 253.383 324.392C253.383 320.984 255.399 319.192 257.991 319.192C259.063 319.192 259.719 319.352 260.535 319.704L260.023 320.872C259.415 320.6 258.839 320.392 257.975 320.392C256.295 320.392 254.759 321.688 254.759 324.056C254.759 326.696 255.735 327.992 258.071 327.992C258.839 327.992 259.543 327.688 260.119 327.432L260.567 328.504ZM267.783 325.256C267.783 327.448 266.743 329.176 264.583 329.176C262.215 329.176 261.383 327.496 261.383 325.256C261.383 323.064 262.423 321.336 264.583 321.336C266.951 321.336 267.783 323.016 267.783 325.256ZM266.471 325.288C266.471 323.432 265.847 322.456 264.583 322.456C263.351 322.456 262.695 323.32 262.695 325.208C262.695 327.064 263.319 328.056 264.583 328.056C265.815 328.056 266.471 327.176 266.471 325.288ZM275.496 329H274.216V324.136C274.216 323.032 273.8 322.472 272.792 322.472C272.072 322.472 271.56 322.776 271.096 323.192V329H269.816V323.24L269.592 321.592L270.856 321.384L270.984 322.264H271C271.56 321.72 272.296 321.336 273.224 321.336C274.488 321.336 275.496 322.152 275.496 323.688V329ZM283.236 329H281.972V322.552H279.428V329H278.164V322.552H277.06V321.704L278.164 321.48V320.888C278.164 319.272 279.188 318.088 281.012 318.088C281.844 318.088 282.372 318.344 282.756 318.552L282.292 319.576C282.1 319.448 281.62 319.176 281.012 319.176C279.844 319.176 279.428 319.832 279.428 320.744V321.512H283.236V329ZM289.161 322.616C288.297 322.616 287.657 322.84 287.081 323.368V329H285.801V323.24L285.577 321.592L286.841 321.384L286.969 322.408H286.985C287.497 321.832 288.169 321.352 289.161 321.352V322.616ZM300.787 329H299.523V324.136C299.523 323.032 299.107 322.472 298.083 322.472C297.363 322.472 296.755 322.824 296.355 323.224C296.355 323.224 296.403 323.496 296.403 323.784V329H295.123V324.136C295.123 323.032 294.707 322.472 293.699 322.472C292.979 322.472 292.467 322.76 292.003 323.192V329H290.723V323.24L290.499 321.592L291.763 321.384L291.891 322.264H291.907C292.467 321.72 293.203 321.336 294.131 321.336C294.995 321.336 295.715 321.72 296.099 322.408H296.115C296.707 321.816 297.475 321.336 298.531 321.336C299.811 321.336 300.787 322.152 300.787 323.688V329Z" fill="white"/>
</svg>
