<svg width="555" height="64" viewBox="0 0 555 64" fill="none" xmlns="http://www.w3.org/2000/svg">
<rect width="554.667" height="64" fill="white"/>
<path d="M20 12.5H534.667C536.6 12.5002 538.167 14.0671 538.167 16V48C538.167 49.9329 536.6 51.4998 534.667 51.5H20C18.067 51.5 16.5 49.933 16.5 48V16C16.5 14.067 18.067 12.5 20 12.5Z" fill="#00157E"/>
<path d="M20 12.5H534.667C536.6 12.5002 538.167 14.0671 538.167 16V48C538.167 49.9329 536.6 51.4998 534.667 51.5H20C18.067 51.5 16.5 49.933 16.5 48V16C16.5 14.067 18.067 12.5 20 12.5Z" stroke="#00157E"/>
<path d="M260.567 36.504C259.671 36.968 258.759 37.176 257.543 37.176C255.191 37.176 253.383 35.592 253.383 32.392C253.383 28.984 255.399 27.192 257.991 27.192C259.063 27.192 259.719 27.352 260.535 27.704L260.023 28.872C259.415 28.6 258.839 28.392 257.975 28.392C256.295 28.392 254.759 29.688 254.759 32.056C254.759 34.696 255.735 35.992 258.071 35.992C258.839 35.992 259.543 35.688 260.119 35.432L260.567 36.504ZM267.783 33.256C267.783 35.448 266.743 37.176 264.583 37.176C262.215 37.176 261.383 35.496 261.383 33.256C261.383 31.064 262.423 29.336 264.583 29.336C266.951 29.336 267.783 31.016 267.783 33.256ZM266.471 33.288C266.471 31.432 265.847 30.456 264.583 30.456C263.351 30.456 262.695 31.32 262.695 33.208C262.695 35.064 263.319 36.056 264.583 36.056C265.815 36.056 266.471 35.176 266.471 33.288ZM275.496 37H274.216V32.136C274.216 31.032 273.8 30.472 272.792 30.472C272.072 30.472 271.56 30.776 271.096 31.192V37H269.816V31.24L269.592 29.592L270.856 29.384L270.984 30.264H271C271.56 29.72 272.296 29.336 273.224 29.336C274.488 29.336 275.496 30.152 275.496 31.688V37ZM283.236 37H281.972V30.552H279.428V37H278.164V30.552H277.06V29.704L278.164 29.48V28.888C278.164 27.272 279.188 26.088 281.012 26.088C281.844 26.088 282.372 26.344 282.756 26.552L282.292 27.576C282.1 27.448 281.62 27.176 281.012 27.176C279.844 27.176 279.428 27.832 279.428 28.744V29.512H283.236V37ZM289.161 30.616C288.297 30.616 287.657 30.84 287.081 31.368V37H285.801V31.24L285.577 29.592L286.841 29.384L286.969 30.408H286.985C287.497 29.832 288.169 29.352 289.161 29.352V30.616ZM300.787 37H299.523V32.136C299.523 31.032 299.107 30.472 298.083 30.472C297.363 30.472 296.755 30.824 296.355 31.224C296.355 31.224 296.403 31.496 296.403 31.784V37H295.123V32.136C295.123 31.032 294.707 30.472 293.699 30.472C292.979 30.472 292.467 30.76 292.003 31.192V37H290.723V31.24L290.499 29.592L291.763 29.384L291.891 30.264H291.907C292.467 29.72 293.203 29.336 294.131 29.336C294.995 29.336 295.715 29.72 296.099 30.408H296.115C296.707 29.816 297.475 29.336 298.531 29.336C299.811 29.336 300.787 30.152 300.787 31.688V37Z" fill="white"/>
</svg>
