<svg width="514" height="88" viewBox="0 0 514 88" fill="none" xmlns="http://www.w3.org/2000/svg">
<g clip-path="url(#clip0_279_338935)">
<path d="M5.558 16H1.162V7.572H2.338V15.006H5.558V16ZM11.2422 15.93L10.1222 16.112L10.0242 15.342H10.0102C9.53422 15.79 9.01622 16.168 8.23222 16.168C7.14022 16.168 6.49622 15.51 6.49622 14.474C6.49622 13.298 7.42022 12.724 8.75022 12.584L9.92622 12.458V11.87C9.92622 10.96 9.64622 10.316 8.56822 10.316C8.02222 10.316 7.61622 10.484 7.21022 10.694L6.80422 9.868C7.39222 9.518 7.99422 9.294 8.83422 9.294C10.1502 9.294 11.0322 10.064 11.0322 11.366V14.488L11.2422 15.93ZM9.92622 14.642V13.214L8.90422 13.354C8.06422 13.466 7.60222 13.732 7.60222 14.334C7.60222 14.88 7.93822 15.244 8.49822 15.244C9.15622 15.244 9.56222 14.964 9.92622 14.642ZM18.468 12.332C18.468 14.516 17.334 16.14 15.262 16.14C14.534 16.14 13.736 16.014 13.26 15.832V8.062L13.064 6.62L14.38 6.438V9.952H14.394C14.814 9.602 15.374 9.294 16.116 9.294C17.656 9.294 18.468 10.4 18.468 12.332ZM17.334 12.738C17.334 11.296 16.998 10.316 15.724 10.316C15.136 10.316 14.716 10.554 14.38 10.848V15.062C14.66 15.132 14.94 15.174 15.36 15.174C16.662 15.174 17.334 14.068 17.334 12.738ZM24.8106 15.65C24.1806 16 23.5366 16.154 22.7386 16.154C20.8066 16.154 19.8126 14.852 19.8126 12.682C19.8126 10.652 20.8766 9.294 22.5286 9.294C24.1106 9.294 24.7546 10.344 24.7546 11.786V12.57H20.9046C20.9186 14.32 21.5486 15.16 22.9766 15.16C23.5226 15.16 23.9426 15.006 24.4186 14.768L24.8106 15.65ZM23.7046 11.786C23.7046 10.806 23.3406 10.19 22.4726 10.19C21.6326 10.19 21.1006 10.848 20.9606 11.786H23.7046ZM27.5733 16H26.4533V8.062L26.2573 6.62L27.5733 6.438V16ZM36.0054 15.734C35.5994 15.958 35.2214 16.14 34.5074 16.14C33.4994 16.14 32.8554 15.482 32.8554 14.362V10.358H31.8894V9.616L32.8554 9.42V8.328L33.9614 8.188V9.448H35.7954V10.358H33.9614V13.984C33.9614 14.866 34.1854 15.146 34.8294 15.146C35.1794 15.146 35.4454 15.006 35.6414 14.88L36.0054 15.734ZM41.8595 15.65C41.2295 16 40.5855 16.154 39.7875 16.154C37.8555 16.154 36.8615 14.852 36.8615 12.682C36.8615 10.652 37.9255 9.294 39.5775 9.294C41.1595 9.294 41.8035 10.344 41.8035 11.786V12.57H37.9535C37.9675 14.32 38.5975 15.16 40.0255 15.16C40.5715 15.16 40.9915 15.006 41.4675 14.768L41.8595 15.65ZM40.7535 11.786C40.7535 10.806 40.3895 10.19 39.5215 10.19C38.6815 10.19 38.1495 10.848 38.0095 11.786H40.7535ZM48.1085 15.706L47.1565 16.238L45.3365 13.438H45.3225L43.6845 16H42.5085L44.7905 12.598L42.8305 9.742L43.7685 9.21L45.3925 11.674H45.4065L46.8065 9.448H47.9965L45.9245 12.5L48.1085 15.706ZM52.7534 15.734C52.3474 15.958 51.9694 16.14 51.2554 16.14C50.2474 16.14 49.6034 15.482 49.6034 14.362V10.358H48.6374V9.616L49.6034 9.42V8.328L50.7094 8.188V9.448H52.5434V10.358H50.7094V13.984C50.7094 14.866 50.9334 15.146 51.5774 15.146C51.9274 15.146 52.1934 15.006 52.3894 14.88L52.7534 15.734Z" fill="#00157E" fill-opacity="0.7"/>
</g>
<g clip-path="url(#clip1_279_338935)">
<mask id="path-2-inside-1_279_338935" fill="white">
<path d="M0 28H514V68H0V28Z"/>
</mask>
<path d="M8.82173 53H7.47773V48.6H3.14173V53H1.79773V43.368H3.14173V47.464H7.47773V43.368H8.82173V53ZM16.3492 52.92L15.0692 53.128L14.9572 52.248H14.9412C14.3972 52.76 13.8052 53.192 12.9092 53.192C11.6612 53.192 10.9252 52.44 10.9252 51.256C10.9252 49.912 11.9812 49.256 13.5012 49.096L14.8452 48.952V48.28C14.8452 47.24 14.5252 46.504 13.2932 46.504C12.6692 46.504 12.2052 46.696 11.7412 46.936L11.2772 45.992C11.9492 45.592 12.6372 45.336 13.5972 45.336C15.1012 45.336 16.1092 46.216 16.1092 47.704V51.272L16.3492 52.92ZM14.8452 51.448V49.816L13.6772 49.976C12.7172 50.104 12.1892 50.408 12.1892 51.096C12.1892 51.72 12.5732 52.136 13.2132 52.136C13.9652 52.136 14.4292 51.816 14.8452 51.448ZM24.3672 53H23.0872V48.136C23.0872 47.032 22.6712 46.472 21.6632 46.472C20.9432 46.472 20.4312 46.776 19.9672 47.192V53H18.6872V47.24L18.4632 45.592L19.7272 45.384L19.8552 46.264H19.8712C20.4312 45.72 21.1672 45.336 22.0952 45.336C23.3592 45.336 24.3672 46.152 24.3672 47.688V53ZM31.2264 50.824C31.2264 52.184 30.1544 53.16 28.5544 53.16C27.7864 53.16 27.0184 53.048 26.4104 52.76L26.7944 51.64C27.3224 51.88 27.9144 52.072 28.4904 52.072C29.3544 52.072 29.9304 51.736 29.9304 51.032C29.9304 50.488 29.6424 50.264 29.1464 50.04L27.7544 49.4C27.2584 49.176 26.3624 48.728 26.3624 47.432C26.3624 46.008 27.6104 45.336 28.9704 45.336C29.7864 45.336 30.3624 45.464 31.0024 45.736L30.5704 46.84C30.0584 46.616 29.5624 46.456 28.9544 46.456C28.1384 46.456 27.6104 46.712 27.6104 47.352C27.6104 47.912 28.0904 48.136 28.3944 48.28L29.8184 48.952C30.8104 49.416 31.2264 50.008 31.2264 50.824ZM46.4811 52.968L45.2011 53.064L44.9291 45.608H44.9131L42.0811 53H40.6891L38.0171 45.624H38.0011L37.6171 53H36.4491L37.0731 43.368H38.4811L41.5051 51.4H41.5211L44.5771 43.368H45.9691L46.4811 52.968ZM54.0591 52.6C53.3391 53 52.6031 53.176 51.6911 53.176C49.4831 53.176 48.3471 51.688 48.3471 49.208C48.3471 46.888 49.5631 45.336 51.4511 45.336C53.2591 45.336 53.9951 46.536 53.9951 48.184V49.08H49.5951C49.6111 51.08 50.3311 52.04 51.9631 52.04C52.5871 52.04 53.0671 51.864 53.6111 51.592L54.0591 52.6ZM52.7951 48.184C52.7951 47.064 52.3791 46.36 51.3871 46.36C50.4271 46.36 49.8191 47.112 49.6591 48.184H52.7951ZM61.3925 45.512L58.8965 52.312C58.0965 54.52 57.0245 55.848 54.4165 56.376L54.1765 55.336C56.0805 54.952 57.0885 53.8 57.5845 52.552L54.8965 45.624L56.1605 45.288L58.2245 50.856H58.2405L60.1285 45.512H61.3925ZM67.981 52.6C67.261 53 66.525 53.176 65.613 53.176C63.405 53.176 62.269 51.688 62.269 49.208C62.269 46.888 63.485 45.336 65.373 45.336C67.181 45.336 67.917 46.536 67.917 48.184V49.08H63.517C63.533 51.08 64.253 52.04 65.885 52.04C66.509 52.04 66.989 51.864 67.533 51.592L67.981 52.6ZM66.717 48.184C66.717 47.064 66.301 46.36 65.309 46.36C64.349 46.36 63.741 47.112 63.581 48.184H66.717ZM73.2504 46.616C72.3864 46.616 71.7464 46.84 71.1704 47.368V53H69.8904V47.24L69.6664 45.592L70.9304 45.384L71.0584 46.408H71.0744C71.5864 45.832 72.2584 45.352 73.2504 45.352V46.616Z" fill="#00157E"/>
<path d="M501.999 39L506.999 44L493.999 57H488.999V52L501.999 39Z" stroke="#00157E" stroke-width="2" stroke-linecap="round" stroke-linejoin="round"/>
</g>
<path d="M514 68V67H0V68V69H514V68Z" fill="#00157E" fill-opacity="0.2" mask="url(#path-2-inside-1_279_338935)"/>
<defs>
<clipPath id="clip0_279_338935">
<rect width="514" height="24" fill="white"/>
</clipPath>
<clipPath id="clip1_279_338935">
<path d="M0 28H514V68H0V28Z" fill="white"/>
</clipPath>
</defs>
</svg>
