<svg width="240" height="97" viewBox="0 0 240 97" fill="none" xmlns="http://www.w3.org/2000/svg">
<path d="M8 1H232C235.866 1 239 4.13401 239 8V89.001C239 92.867 235.866 96.001 232 96.001H8C4.13401 96.001 1 92.867 1 89.001V8L1.00879 7.63965C1.19633 3.94111 4.25486 1 8 1Z" fill="white"/>
<path d="M8 1H232C235.866 1 239 4.13401 239 8V89.001C239 92.867 235.866 96.001 232 96.001H8C4.13401 96.001 1 92.867 1 89.001V8L1.00879 7.63965C1.19633 3.94111 4.25486 1 8 1Z" stroke="#00157E" stroke-width="2"/>
<path d="M20.908 24.972C20.908 26.232 20.032 27.132 18.58 27.132C17.836 27.132 17.176 26.976 16.612 26.736L16.924 25.86C17.392 26.076 17.944 26.256 18.508 26.256C19.384 26.256 19.948 25.92 19.948 25.128C19.948 24.54 19.516 24.252 18.94 23.976L17.812 23.436C17.056 23.076 16.54 22.608 16.54 21.588C16.54 20.352 17.62 19.644 18.868 19.644C19.54 19.644 19.972 19.752 20.596 19.98L20.26 20.832C19.876 20.652 19.456 20.484 18.928 20.484C18.184 20.484 17.512 20.784 17.512 21.552C17.512 22.068 17.824 22.32 18.304 22.548L19.456 23.112C20.368 23.556 20.908 24.048 20.908 24.972ZM29.9103 27H28.9623V23.352C28.9623 22.524 28.6503 22.104 27.8823 22.104C27.3423 22.104 26.8863 22.368 26.5863 22.668C26.5863 22.668 26.6223 22.872 26.6223 23.088V27H25.6623V23.352C25.6623 22.524 25.3503 22.104 24.5943 22.104C24.0543 22.104 23.6703 22.32 23.3223 22.644V27H22.3623V22.68L22.1943 21.444L23.1423 21.288L23.2383 21.948H23.2503C23.6703 21.54 24.2223 21.252 24.9183 21.252C25.5663 21.252 26.1063 21.54 26.3943 22.056H26.4063C26.8503 21.612 27.4263 21.252 28.2183 21.252C29.1783 21.252 29.9103 21.864 29.9103 23.016V27ZM35.5034 26.94L34.5434 27.096L34.4594 26.436H34.4474C34.0394 26.82 33.5954 27.144 32.9234 27.144C31.9874 27.144 31.4354 26.58 31.4354 25.692C31.4354 24.684 32.2274 24.192 33.3674 24.072L34.3754 23.964V23.46C34.3754 22.68 34.1354 22.128 33.2114 22.128C32.7434 22.128 32.3954 22.272 32.0474 22.452L31.6994 21.744C32.2034 21.444 32.7194 21.252 33.4394 21.252C34.5674 21.252 35.3234 21.912 35.3234 23.028V25.704L35.5034 26.94ZM34.3754 25.836V24.612L33.4994 24.732C32.7794 24.828 32.3834 25.056 32.3834 25.572C32.3834 26.04 32.6714 26.352 33.1514 26.352C33.7154 26.352 34.0634 26.112 34.3754 25.836ZM38.1929 27H37.2329V20.196L37.0649 18.96L38.1929 18.804V27ZM41.0288 27H40.0688V20.196L39.9008 18.96L41.0288 18.804V27Z" fill="#00157E" fill-opacity="0.7"/>
<path d="M26.32 54.24C24.9 54.98 23.82 55.24 22.18 55.24C19.06 55.24 16.74 53.14 16.74 49.18C16.74 45.02 19.32 42.72 22.82 42.72C24.32 42.72 25.2 43 26.28 43.48L25.3 45.74C24.58 45.38 23.96 45.1 22.86 45.1C21.14 45.1 19.54 46.34 19.54 48.88C19.54 51.64 20.62 52.82 22.88 52.82C23.88 52.82 24.64 52.5 25.42 52.12L26.32 54.24ZM35.5716 50.24C35.5716 53.08 34.0916 55.22 31.3116 55.22C28.3116 55.22 27.0516 53.1 27.0516 50.24C27.0516 47.4 28.5316 45.32 31.3116 45.32C34.3116 45.32 35.5716 47.38 35.5716 50.24ZM33.0516 50.26C33.0516 48.32 32.4116 47.54 31.3116 47.54C30.2116 47.54 29.5716 48.28 29.5716 50.22C29.5716 52.14 30.2116 53 31.3116 53C32.4116 53 33.0516 52.18 33.0516 50.26ZM50.9534 55H48.4334V49C48.4334 47.98 47.9934 47.52 47.0934 47.52C46.4534 47.52 45.8334 47.86 45.4934 48.22C45.4934 48.22 45.5334 48.54 45.5334 48.82V55H42.9934V49C42.9934 47.98 42.5734 47.52 41.6734 47.52C41.0134 47.52 40.4534 47.82 40.0934 48.18V55H37.5534V48L37.2334 45.66L39.6734 45.34L39.7934 46.38H39.8134C40.3734 45.82 41.3534 45.3 42.5934 45.3C43.7134 45.3 44.5734 45.76 45.0734 46.54H45.0934C45.7934 45.82 46.7934 45.3 48.0334 45.3C49.6934 45.3 50.9534 46.24 50.9534 48.38V55ZM61.5314 49.82C61.5314 53.12 59.8114 55.08 56.8314 55.08C56.4914 55.08 56.1514 55.02 56.0114 54.98V58.92L53.4714 59.24V48L53.1514 45.66L55.5914 45.34L55.7114 46.3H55.7314C55.9714 46.1 56.8914 45.3 58.1514 45.3C60.5514 45.3 61.5314 47.12 61.5314 49.82ZM58.9914 50.24C58.9914 48.48 58.6714 47.52 57.2914 47.52C56.6514 47.52 56.1914 47.88 56.0114 48.02V52.78C56.1514 52.84 56.4714 52.94 56.9114 52.94C58.3114 52.94 58.9914 51.88 58.9914 50.24ZM70.3505 54.86L67.9105 55.18L67.7905 54.14H67.7705C67.2105 54.64 66.4705 55.24 65.3905 55.24C63.9105 55.24 62.9305 54.32 62.9305 52.74C62.9305 50.94 64.2705 50.12 66.2105 49.92L67.5305 49.78V49.14C67.5305 48.18 67.1305 47.52 65.9305 47.52C65.1905 47.52 64.6905 47.74 64.1505 48.04L63.2305 46.32C64.1705 45.7 65.0705 45.3 66.5105 45.3C68.8105 45.3 70.0305 46.54 70.0305 48.56V52.52L70.3505 54.86ZM67.5305 52.96V51.22L66.6705 51.32C65.8905 51.42 65.3905 51.74 65.3905 52.4C65.3905 52.98 65.7305 53.42 66.3305 53.42C66.9105 53.42 67.2505 53.2 67.5305 52.96ZM79.1925 45.74L78.4325 47.96C77.9325 47.74 77.4725 47.56 76.7925 47.56C75.5325 47.56 74.5925 48.46 74.5925 50.16C74.5925 52.08 75.4525 52.92 76.6725 52.92C77.3925 52.92 77.7725 52.76 78.3725 52.52L79.1325 54.6C78.2525 55 77.4325 55.24 76.3525 55.24C73.5125 55.24 72.0125 53.32 72.0125 50.3C72.0125 46.82 74.3725 45.3 76.7925 45.3C77.7325 45.3 78.3725 45.42 79.1925 45.74ZM87.0067 54.54C86.1867 54.98 85.5667 55.22 84.3067 55.22C82.4267 55.22 81.5067 53.96 81.5067 52.08V47.54H80.0467V45.86L81.5067 45.52V43.88L84.0267 43.58V45.54H86.6267V47.54H84.0267V51.4C84.0267 52.66 84.3467 52.98 85.1667 52.98C85.6267 52.98 85.8867 52.86 86.3267 52.66L87.0067 54.54Z" fill="#00157E"/>
<path d="M27.152 80.968L25.872 81.064L25.6 73.608H25.584L22.752 81H21.36L18.688 73.624H18.672L18.288 81H17.12L17.744 71.368H19.152L22.176 79.4H22.192L25.248 71.368H26.64L27.152 80.968ZM35.418 77.256C35.418 79.448 34.378 81.176 32.218 81.176C29.85 81.176 29.018 79.496 29.018 77.256C29.018 75.064 30.058 73.336 32.218 73.336C34.586 73.336 35.418 75.016 35.418 77.256ZM34.106 77.288C34.106 75.432 33.482 74.456 32.218 74.456C30.986 74.456 30.33 75.32 30.33 77.208C30.33 79.064 30.954 80.056 32.218 80.056C33.45 80.056 34.106 79.176 34.106 77.288ZM40.8119 74.616C39.9479 74.616 39.3079 74.84 38.7319 75.368V81H37.4519V75.24L37.2279 73.592L38.4919 73.384L38.6199 74.408H38.6359C39.1479 73.832 39.8199 73.352 40.8119 73.352V74.616ZM47.3863 80.6C46.6663 81 45.9303 81.176 45.0182 81.176C42.8103 81.176 41.6743 79.688 41.6743 77.208C41.6743 74.888 42.8903 73.336 44.7783 73.336C46.5863 73.336 47.3223 74.536 47.3223 76.184V77.08H42.9223C42.9383 79.08 43.6583 80.04 45.2903 80.04C45.9143 80.04 46.3943 79.864 46.9383 79.592L47.3863 80.6ZM46.1223 76.184C46.1223 75.064 45.7063 74.36 44.7143 74.36C43.7543 74.36 43.1463 75.112 42.9863 76.184H46.1223ZM57.487 73.656L57.087 74.808C56.671 74.648 56.207 74.504 55.679 74.504C54.271 74.504 53.423 75.56 53.423 77.144C53.423 79.144 54.207 80.056 55.647 80.056C56.159 80.056 56.575 79.88 56.991 79.704L57.423 80.744C56.799 81.032 56.111 81.176 55.391 81.176C53.247 81.176 52.143 79.64 52.143 77.352C52.143 74.6 53.839 73.336 55.743 73.336C56.399 73.336 56.959 73.448 57.487 73.656ZM64.8555 77.256C64.8555 79.448 63.8155 81.176 61.6555 81.176C59.2875 81.176 58.4555 79.496 58.4555 77.256C58.4555 75.064 59.4955 73.336 61.6555 73.336C64.0235 73.336 64.8555 75.016 64.8555 77.256ZM63.5435 77.288C63.5435 75.432 62.9195 74.456 61.6555 74.456C60.4235 74.456 59.7675 75.32 59.7675 77.208C59.7675 79.064 60.3915 80.056 61.6555 80.056C62.8875 80.056 63.5435 79.176 63.5435 77.288ZM72.5694 81H71.2894V76.136C71.2894 75.032 70.8734 74.472 69.8654 74.472C69.1454 74.472 68.6334 74.776 68.1694 75.192V81H66.8894V75.24L66.6654 73.592L67.9294 73.384L68.0574 74.264H68.0734C68.6334 73.72 69.3694 73.336 70.2974 73.336C71.5614 73.336 72.5694 74.152 72.5694 75.688V81ZM78.8365 80.696C78.3725 80.952 77.9405 81.16 77.1245 81.16C75.9725 81.16 75.2365 80.408 75.2365 79.128V74.552H74.1325V73.704L75.2365 73.48V72.232L76.5005 72.072V73.512H78.5965V74.552H76.5005V78.696C76.5005 79.704 76.7565 80.024 77.4925 80.024C77.8925 80.024 78.1965 79.864 78.4205 79.72L78.8365 80.696ZM85.5269 80.6C84.8069 81 84.0709 81.176 83.1589 81.176C80.9509 81.176 79.8149 79.688 79.8149 77.208C79.8149 74.888 81.0309 73.336 82.9189 73.336C84.7269 73.336 85.4629 74.536 85.4629 76.184V77.08H81.0629C81.0789 79.08 81.7989 80.04 83.4309 80.04C84.0549 80.04 84.5349 79.864 85.0789 79.592L85.5269 80.6ZM84.2629 76.184C84.2629 75.064 83.8469 74.36 82.8549 74.36C81.8949 74.36 81.2869 75.112 81.1269 76.184H84.2629ZM93.1163 81H91.8363V76.136C91.8363 75.032 91.4203 74.472 90.4123 74.472C89.6923 74.472 89.1803 74.776 88.7163 75.192V81H87.4363V75.24L87.2122 73.592L88.4763 73.384L88.6043 74.264H88.6203C89.1803 73.72 89.9163 73.336 90.8443 73.336C92.1083 73.336 93.1163 74.152 93.1163 75.688V81ZM99.3834 80.696C98.9194 80.952 98.4874 81.16 97.6714 81.16C96.5194 81.16 95.7834 80.408 95.7834 79.128V74.552H94.6794V73.704L95.7834 73.48V72.232L97.0474 72.072V73.512H99.1434V74.552H97.0474V78.696C97.0474 79.704 97.3034 80.024 98.0394 80.024C98.4394 80.024 98.7434 79.864 98.9674 79.72L99.3834 80.696ZM110.34 77.256C110.34 79.448 109.3 81.176 107.14 81.176C104.772 81.176 103.94 79.496 103.94 77.256C103.94 75.064 104.98 73.336 107.14 73.336C109.508 73.336 110.34 75.016 110.34 77.256ZM109.028 77.288C109.028 75.432 108.404 74.456 107.14 74.456C105.908 74.456 105.252 75.32 105.252 77.208C105.252 79.064 105.876 80.056 107.14 80.056C108.372 80.056 109.028 79.176 109.028 77.288ZM118.054 81H116.774V76.136C116.774 75.032 116.358 74.472 115.35 74.472C114.63 74.472 114.118 74.776 113.654 75.192V81H112.374V75.24L112.15 73.592L113.414 73.384L113.542 74.264H113.558C114.118 73.72 114.854 73.336 115.782 73.336C117.046 73.336 118.054 74.152 118.054 75.688V81ZM128.272 78.824C128.272 80.184 127.2 81.16 125.6 81.16C124.832 81.16 124.064 81.048 123.456 80.76L123.84 79.64C124.368 79.88 124.96 80.072 125.536 80.072C126.4 80.072 126.976 79.736 126.976 79.032C126.976 78.488 126.688 78.264 126.192 78.04L124.8 77.4C124.304 77.176 123.408 76.728 123.408 75.432C123.408 74.008 124.656 73.336 126.016 73.336C126.832 73.336 127.408 73.464 128.048 73.736L127.616 74.84C127.104 74.616 126.608 74.456 126 74.456C125.184 74.456 124.656 74.712 124.656 75.352C124.656 75.912 125.136 76.136 125.44 76.28L126.864 76.952C127.856 77.416 128.272 78.008 128.272 78.824ZM135.128 73.656L134.728 74.808C134.312 74.648 133.848 74.504 133.32 74.504C131.912 74.504 131.064 75.56 131.064 77.144C131.064 79.144 131.848 80.056 133.288 80.056C133.8 80.056 134.216 79.88 134.632 79.704L135.064 80.744C134.44 81.032 133.752 81.176 133.032 81.176C130.888 81.176 129.784 79.64 129.784 77.352C129.784 74.6 131.48 73.336 133.384 73.336C134.04 73.336 134.6 73.448 135.128 73.656ZM140.249 74.616C139.385 74.616 138.745 74.84 138.169 75.368V81H136.889V75.24L136.665 73.592L137.929 73.384L138.057 74.408H138.073C138.585 73.832 139.257 73.352 140.249 73.352V74.616ZM146.824 80.6C146.104 81 145.368 81.176 144.456 81.176C142.248 81.176 141.112 79.688 141.112 77.208C141.112 74.888 142.328 73.336 144.216 73.336C146.024 73.336 146.76 74.536 146.76 76.184V77.08H142.36C142.376 79.08 143.096 80.04 144.728 80.04C145.352 80.04 145.832 79.864 146.376 79.592L146.824 80.6ZM145.56 76.184C145.56 75.064 145.144 74.36 144.152 74.36C143.192 74.36 142.584 75.112 142.424 76.184H145.56ZM153.933 80.6C153.213 81 152.477 81.176 151.565 81.176C149.357 81.176 148.221 79.688 148.221 77.208C148.221 74.888 149.437 73.336 151.325 73.336C153.133 73.336 153.869 74.536 153.869 76.184V77.08H149.469C149.485 79.08 150.205 80.04 151.837 80.04C152.461 80.04 152.941 79.864 153.485 79.592L153.933 80.6ZM152.669 76.184C152.669 75.064 152.253 74.36 151.261 74.36C150.301 74.36 149.693 75.112 149.533 76.184H152.669ZM161.523 81H160.243V76.136C160.243 75.032 159.827 74.472 158.819 74.472C158.099 74.472 157.587 74.776 157.123 75.192V81H155.843V75.24L155.618 73.592L156.883 73.384L157.011 74.264H157.027C157.587 73.72 158.323 73.336 159.251 73.336C160.515 73.336 161.523 74.152 161.523 75.688V81Z" fill="#00157E"/>
</svg>
