<svg width="420" height="292" viewBox="0 0 420 292" fill="none" xmlns="http://www.w3.org/2000/svg">
<path d="M0 8C0 3.58172 3.58172 0 8 0H412C416.418 0 420 3.58172 420 8V284.001C420 288.419 416.418 292.001 412 292.001H8C3.58172 292.001 0 288.419 0 284.001V8Z" fill="white"/>
<path d="M8 0.5H412C416.142 0.5 419.5 3.85786 419.5 8V284.001C419.5 288.143 416.142 291.501 412 291.501H8C3.85786 291.501 0.5 288.143 0.5 284.001V8C0.5 3.85786 3.85786 0.5 8 0.5Z" stroke="#00157E" stroke-opacity="0.2"/>
<path d="M398 21.9302L386 33.9302" stroke="#00157E" stroke-width="2" stroke-linecap="round" stroke-linejoin="round"/>
<path d="M386 21.9302L398 33.9302" stroke="#00157E" stroke-width="2" stroke-linecap="round" stroke-linejoin="round"/>
<path d="M162.981 33.941L160.421 34.101L160.181 26.161H160.161L157.521 34.001H154.961L152.441 26.201H152.421L152.101 34.001H149.781L150.661 21.961H153.561L156.381 30.461H156.401L159.241 21.961H162.161L162.981 33.941ZM173.233 29.241C173.233 32.081 171.753 34.221 168.973 34.221C165.973 34.221 164.713 32.101 164.713 29.241C164.713 26.401 166.193 24.321 168.973 24.321C171.973 24.321 173.233 26.381 173.233 29.241ZM170.713 29.261C170.713 27.321 170.073 26.541 168.973 26.541C167.873 26.541 167.233 27.281 167.233 29.221C167.233 31.141 167.873 32.001 168.973 32.001C170.073 32.001 170.713 31.181 170.713 29.261ZM180.355 26.621C179.195 26.621 178.435 26.821 177.755 27.581V34.001H175.215V27.001L174.895 24.661L177.335 24.341L177.495 25.681H177.515C178.055 24.961 178.875 24.301 180.355 24.301V26.621ZM188.802 33.441C187.742 33.981 186.862 34.241 185.582 34.241C182.422 34.241 181.022 32.321 181.022 29.121C181.022 26.261 182.722 24.321 185.242 24.321C187.882 24.321 188.742 26.141 188.742 28.421V29.541H183.502C183.582 31.221 184.382 32.021 185.902 32.021C186.802 32.021 187.302 31.801 188.022 31.501L188.802 33.441ZM186.522 28.001C186.522 27.021 186.102 26.361 185.162 26.361C184.162 26.361 183.662 27.121 183.542 28.001H186.522ZM200.522 20.561L199.922 22.721C199.622 22.621 199.402 22.561 199.082 22.561C198.282 22.561 197.762 23.001 197.762 23.941V24.541H200.162V26.541H197.762V34.001H195.242V26.541H193.782V24.861L195.242 24.521V23.821C195.242 21.681 196.782 20.301 198.882 20.301C199.562 20.301 200.022 20.421 200.522 20.561ZM209.96 33.861L207.52 34.181L207.38 33.161H207.36C206.8 33.701 205.86 34.241 204.6 34.241C202.98 34.241 201.66 33.281 201.66 31.161V27.001L201.34 24.661L204.2 24.341V30.541C204.2 31.561 204.62 32.021 205.5 32.021C206.16 32.021 206.72 31.721 207.1 31.341V27.001L206.78 24.661L209.64 24.341V31.521L209.96 33.861ZM220.168 34.001H217.628V28.001C217.628 26.981 217.208 26.521 216.308 26.521C215.648 26.521 215.088 26.841 214.728 27.201V34.001H212.188V27.001L211.868 24.661L214.308 24.341L214.428 25.381H214.448C215.008 24.821 215.948 24.301 217.208 24.301C218.848 24.301 220.168 25.241 220.168 27.381V34.001ZM229.276 24.741L228.516 26.961C228.016 26.741 227.556 26.561 226.876 26.561C225.616 26.561 224.676 27.461 224.676 29.161C224.676 31.081 225.536 31.921 226.756 31.921C227.476 31.921 227.856 31.761 228.456 31.521L229.216 33.601C228.336 34.001 227.516 34.241 226.436 34.241C223.596 34.241 222.096 32.321 222.096 29.301C222.096 25.821 224.456 24.301 226.876 24.301C227.816 24.301 228.456 24.421 229.276 24.741ZM237.09 33.541C236.27 33.981 235.65 34.221 234.39 34.221C232.51 34.221 231.59 32.961 231.59 31.081V26.541H230.13V24.861L231.59 24.521V22.881L234.11 22.581V24.541H236.71V26.541H234.11V30.401C234.11 31.661 234.43 31.981 235.25 31.981C235.71 31.981 235.97 31.861 236.41 31.661L237.09 33.541ZM241.271 34.001H238.731V27.001L238.411 24.661L241.271 24.341V34.001ZM241.511 21.881C241.511 22.721 240.851 23.401 240.011 23.401C239.171 23.401 238.511 22.721 238.511 21.881C238.511 21.061 239.171 20.381 240.011 20.381C240.851 20.381 241.511 21.061 241.511 21.881ZM251.749 29.241C251.749 32.081 250.269 34.221 247.489 34.221C244.489 34.221 243.229 32.101 243.229 29.241C243.229 26.401 244.709 24.321 247.489 24.321C250.489 24.321 251.749 26.381 251.749 29.241ZM249.229 29.261C249.229 27.321 248.589 26.541 247.489 26.541C246.389 26.541 245.749 27.281 245.749 29.221C245.749 31.141 246.389 32.001 247.489 32.001C248.589 32.001 249.229 31.181 249.229 29.261ZM261.711 34.001H259.171V28.001C259.171 26.981 258.751 26.521 257.851 26.521C257.191 26.521 256.631 26.841 256.271 27.201V34.001H253.731V27.001L253.411 24.661L255.851 24.341L255.971 25.381H255.991C256.551 24.821 257.491 24.301 258.751 24.301C260.391 24.301 261.711 25.241 261.711 27.381V34.001ZM270.239 30.961C270.239 32.781 268.779 34.221 266.579 34.221C265.439 34.221 264.419 34.041 263.559 33.641L264.219 31.561C264.939 31.861 265.639 32.161 266.439 32.161C267.299 32.161 267.719 31.861 267.719 31.361C267.719 30.901 267.499 30.721 266.979 30.501L265.499 29.881C264.619 29.521 263.659 28.861 263.659 27.301C263.659 25.341 265.319 24.301 267.299 24.301C268.419 24.301 269.179 24.481 270.079 24.861L269.299 26.901C268.659 26.641 268.039 26.381 267.319 26.381C266.539 26.381 266.099 26.601 266.099 27.121C266.099 27.621 266.499 27.801 266.859 27.941L268.399 28.561C269.599 29.041 270.239 29.801 270.239 30.961Z" fill="#00157E"/>
<mask id="path-7-inside-1_369_674" fill="white">
<path d="M0 64.001C0 59.5827 3.58172 56.001 8 56.001H412C416.418 56.001 420 59.5827 420 64.001V112.001H0V64.001Z"/>
</mask>
<path d="M0 56.001H420H0M420 113.001H0V111.001H420V113.001ZM420 111.001M0 112.001V56.001V112.001M0 112.001M420 56.001V112.001V56.001" fill="#00157E" fill-opacity="0.2" mask="url(#path-7-inside-1_369_674)"/>
<path d="M19 81.001L28 74.001L37 81.001V92.001C37 92.5314 36.7893 93.0401 36.4142 93.4152C36.0391 93.7903 35.5304 94.001 35 94.001H21C20.4696 94.001 19.9609 93.7903 19.5858 93.4152C19.2107 93.0401 19 92.5314 19 92.001V81.001Z" stroke="#00157E" stroke-width="2" stroke-linecap="round" stroke-linejoin="round"/>
<path d="M25 94.001V84.001H31V94.001" stroke="#00157E" stroke-width="2" stroke-linecap="round" stroke-linejoin="round"/>
<path d="M63.308 80.001H62.132V76.151H58.338V80.001H57.162V71.573H58.338V75.157H62.132V71.573H63.308V80.001ZM70.7486 76.725C70.7486 78.643 69.8386 80.155 67.9486 80.155C65.8766 80.155 65.1486 78.685 65.1486 76.725C65.1486 74.807 66.0586 73.295 67.9486 73.295C70.0206 73.295 70.7486 74.765 70.7486 76.725ZM69.6006 76.753C69.6006 75.129 69.0546 74.275 67.9486 74.275C66.8706 74.275 66.2966 75.031 66.2966 76.683C66.2966 78.307 66.8426 79.175 67.9486 79.175C69.0266 79.175 69.6006 78.405 69.6006 76.753ZM77.6942 79.931L76.5882 80.113L76.4762 79.357H76.4622C75.9722 79.819 75.3282 80.155 74.5162 80.155C73.4102 80.155 72.5282 79.441 72.5282 78.097V74.961L72.3322 73.519L73.6482 73.337V77.705C73.6482 78.671 74.0122 79.175 74.8942 79.175C75.5242 79.175 75.9722 78.909 76.3782 78.531V74.961L76.1822 73.519L77.4982 73.337V78.489L77.6942 79.931ZM83.5273 78.097C83.5273 79.287 82.5893 80.141 81.1893 80.141C80.5173 80.141 79.8453 80.043 79.3133 79.791L79.6493 78.811C80.1113 79.021 80.6293 79.189 81.1333 79.189C81.8893 79.189 82.3933 78.895 82.3933 78.279C82.3933 77.803 82.1413 77.607 81.7073 77.411L80.4893 76.851C80.0553 76.655 79.2713 76.263 79.2713 75.129C79.2713 73.883 80.3633 73.295 81.5533 73.295C82.2673 73.295 82.7713 73.407 83.3313 73.645L82.9533 74.611C82.5053 74.415 82.0713 74.275 81.5393 74.275C80.8253 74.275 80.3633 74.499 80.3633 75.059C80.3633 75.549 80.7833 75.745 81.0493 75.871L82.2953 76.459C83.1633 76.865 83.5273 77.383 83.5273 78.097ZM89.8477 79.651C89.2177 80.001 88.5737 80.155 87.7757 80.155C85.8437 80.155 84.8497 78.853 84.8497 76.683C84.8497 74.653 85.9137 73.295 87.5657 73.295C89.1477 73.295 89.7917 74.345 89.7917 75.787V76.571H85.9417C85.9557 78.321 86.5857 79.161 88.0137 79.161C88.5597 79.161 88.9797 79.007 89.4557 78.769L89.8477 79.651ZM88.7417 75.787C88.7417 74.807 88.3777 74.191 87.5097 74.191C86.6697 74.191 86.1377 74.849 85.9977 75.787H88.7417ZM96.4464 80.001H95.3404V75.745C95.3404 74.793 94.9624 74.303 94.0664 74.303C93.4224 74.303 92.9884 74.583 92.6104 74.919V80.001H91.4904V72.063L91.2944 70.621L92.6104 70.439V74.023H92.6244C93.0584 73.645 93.6604 73.295 94.4724 73.295C95.5924 73.295 96.4464 73.995 96.4464 75.353V80.001ZM103.821 76.725C103.821 78.643 102.911 80.155 101.021 80.155C98.9488 80.155 98.2208 78.685 98.2208 76.725C98.2208 74.807 99.1308 73.295 101.021 73.295C103.093 73.295 103.821 74.765 103.821 76.725ZM102.673 76.753C102.673 75.129 102.127 74.275 101.021 74.275C99.9428 74.275 99.3688 75.031 99.3688 76.683C99.3688 78.307 99.9148 79.175 101.021 79.175C102.099 79.175 102.673 78.405 102.673 76.753ZM106.692 80.001H105.572V72.063L105.376 70.621L106.692 70.439V80.001ZM113.823 79.959L112.745 80.113L112.647 79.455H112.633C112.213 79.805 111.639 80.155 110.869 80.155C109.427 80.155 108.461 78.965 108.461 77.019C108.461 74.765 109.623 73.379 111.611 73.379C112.143 73.379 112.521 73.477 112.521 73.477V72.063L112.311 70.621L113.627 70.439V78.517L113.823 79.959ZM111.261 79.175C111.807 79.175 112.185 78.951 112.521 78.685V74.499C112.521 74.499 112.157 74.317 111.513 74.317C110.239 74.317 109.609 75.395 109.609 76.669C109.609 78.251 110.029 79.175 111.261 79.175Z" fill="#00157E"/>
<path d="M61.964 94.629C61.292 94.977 60.608 95.133 59.696 95.133C57.932 95.133 56.576 93.945 56.576 91.545C56.576 88.989 58.088 87.645 60.032 87.645C60.836 87.645 61.328 87.765 61.94 88.029L61.556 88.905C61.1 88.701 60.668 88.545 60.02 88.545C58.76 88.545 57.608 89.517 57.608 91.293C57.608 93.273 58.34 94.245 60.092 94.245C60.668 94.245 61.196 94.017 61.628 93.825L61.964 94.629ZM68.4867 95.001H67.4787V91.701H64.2267V95.001H63.2187V87.777H64.2267V90.849H67.4787V87.777H68.4867V95.001ZM73.9043 94.521C73.9043 95.961 72.9803 96.873 71.3963 96.873C70.9283 96.873 70.4363 96.789 69.9923 96.681L70.2083 95.781C70.6043 95.901 70.9403 95.997 71.4203 95.997C72.3683 95.997 72.9443 95.529 72.9443 94.665C72.9443 93.489 71.8643 93.033 70.3403 93.033V92.349C72.1163 92.241 72.6083 91.449 72.6083 90.669C72.6083 89.985 72.1883 89.601 71.5163 89.601C70.9643 89.601 70.6403 89.781 70.2803 90.021L69.8843 89.361C70.3163 89.025 70.8683 88.749 71.7083 88.749C72.8603 88.749 73.5683 89.433 73.5683 90.549C73.5683 91.521 73.0043 92.169 72.2003 92.553V92.565C73.3763 92.817 73.9043 93.597 73.9043 94.521ZM78.9696 93.921C78.9696 96.225 76.7976 96.873 75.2496 96.993L75.1296 96.177C76.2216 96.057 77.9856 95.625 77.9856 94.053C77.9856 93.069 77.4336 92.493 75.8976 92.493H75.0936L75.3576 88.881H78.7776V89.757H76.1856L76.0296 91.773C76.0296 91.773 76.3056 91.749 76.5576 91.749C77.9496 91.749 78.9696 92.481 78.9696 93.921ZM87.5593 91.941C87.5593 93.537 86.9353 95.133 85.1233 95.133C83.2993 95.133 82.6753 93.537 82.6753 91.941C82.6753 90.345 83.2993 88.749 85.1233 88.749C86.9353 88.749 87.5593 90.345 87.5593 91.941ZM86.5753 91.941C86.5753 90.597 86.1313 89.589 85.1233 89.589C84.1033 89.589 83.6593 90.597 83.6593 91.941C83.6593 93.285 84.1033 94.293 85.1233 94.293C86.1313 94.293 86.5753 93.285 86.5753 91.941ZM93.1231 91.845C93.1231 95.157 91.4431 96.705 89.0551 96.993L88.8631 96.213C90.3751 96.033 91.8991 95.061 92.1151 92.769L92.1031 92.757C92.1031 92.757 91.5391 93.237 90.6871 93.237C89.4871 93.237 88.7071 92.337 88.7071 91.101C88.7071 89.601 89.6071 88.749 90.9631 88.749C92.3551 88.749 93.1231 89.709 93.1231 91.845ZM92.1271 91.833C92.1271 90.645 91.9111 89.565 90.8431 89.565C90.0871 89.565 89.6431 90.189 89.6431 90.969C89.6431 91.965 90.0991 92.445 90.9511 92.445C91.6831 92.445 92.1271 92.013 92.1271 92.013V91.833ZM99.3484 91.941C99.3484 93.537 98.7244 95.133 96.9124 95.133C95.0884 95.133 94.4644 93.537 94.4644 91.941C94.4644 90.345 95.0884 88.749 96.9124 88.749C98.7244 88.749 99.3484 90.345 99.3484 91.941ZM98.3644 91.941C98.3644 90.597 97.9204 89.589 96.9124 89.589C95.8924 89.589 95.4484 90.597 95.4484 91.941C95.4484 93.285 95.8924 94.293 96.9124 94.293C97.9204 94.293 98.3644 93.285 98.3644 91.941ZM105.524 91.941C105.524 93.537 104.9 95.133 103.088 95.133C101.264 95.133 100.64 93.537 100.64 91.941C100.64 90.345 101.264 88.749 103.088 88.749C104.9 88.749 105.524 90.345 105.524 91.941ZM104.54 91.941C104.54 90.597 104.096 89.589 103.088 89.589C102.068 89.589 101.624 90.597 101.624 91.941C101.624 93.285 102.068 94.293 103.088 94.293C104.096 94.293 104.54 93.285 104.54 91.941ZM114.22 91.941C114.22 93.537 113.596 95.133 111.784 95.133C109.96 95.133 109.336 93.537 109.336 91.941C109.336 90.345 109.96 88.749 111.784 88.749C113.596 88.749 114.22 90.345 114.22 91.941ZM113.236 91.941C113.236 90.597 112.792 89.589 111.784 89.589C110.764 89.589 110.32 90.597 110.32 91.941C110.32 93.285 110.764 94.293 111.784 94.293C112.792 94.293 113.236 93.285 113.236 91.941ZM120.395 91.941C120.395 93.537 119.771 95.133 117.959 95.133C116.135 95.133 115.511 93.537 115.511 91.941C115.511 90.345 116.135 88.749 117.959 88.749C119.771 88.749 120.395 90.345 120.395 91.941ZM119.411 91.941C119.411 90.597 118.967 89.589 117.959 89.589C116.939 89.589 116.495 90.597 116.495 91.941C116.495 93.285 116.939 94.293 117.959 94.293C118.967 94.293 119.411 93.285 119.411 91.941ZM126.571 91.941C126.571 93.537 125.947 95.133 124.135 95.133C122.311 95.133 121.687 93.537 121.687 91.941C121.687 90.345 122.311 88.749 124.135 88.749C125.947 88.749 126.571 90.345 126.571 91.941ZM125.587 91.941C125.587 90.597 125.143 89.589 124.135 89.589C123.115 89.589 122.671 90.597 122.671 91.941C122.671 93.285 123.115 94.293 124.135 94.293C125.143 94.293 125.587 93.285 125.587 91.941ZM132.747 91.941C132.747 93.537 132.123 95.133 130.311 95.133C128.487 95.133 127.863 93.537 127.863 91.941C127.863 90.345 128.487 88.749 130.311 88.749C132.123 88.749 132.747 90.345 132.747 91.941ZM131.763 91.941C131.763 90.597 131.319 89.589 130.311 89.589C129.291 89.589 128.847 90.597 128.847 91.941C128.847 93.285 129.291 94.293 130.311 94.293C131.319 94.293 131.763 93.285 131.763 91.941ZM140.842 95.001H136.39V94.377L138.442 92.409C138.994 91.869 139.414 91.473 139.414 90.813C139.414 90.117 138.982 89.601 138.178 89.601C137.638 89.601 137.254 89.841 136.966 90.081L136.51 89.445C137.026 89.013 137.554 88.749 138.382 88.749C139.57 88.749 140.386 89.445 140.386 90.705C140.386 91.545 139.882 92.181 139.306 92.709L137.77 94.125V94.137H140.842V95.001ZM147.36 94.245H145.908V96.693L144.984 96.849V94.245H141.684V93.465L145.02 88.881H145.908V93.429H147.36V94.245ZM144.984 93.429V90.177H144.972L142.668 93.429H144.984ZM151.969 89.697L148.537 96.981L147.733 96.573L150.925 89.757H147.661V88.881H151.969V89.697ZM157.708 91.941C157.708 93.537 157.084 95.133 155.272 95.133C153.448 95.133 152.824 93.537 152.824 91.941C152.824 90.345 153.448 88.749 155.272 88.749C157.084 88.749 157.708 90.345 157.708 91.941ZM156.724 91.941C156.724 90.597 156.28 89.589 155.272 89.589C154.252 89.589 153.808 90.597 153.808 91.941C153.808 93.285 154.252 94.293 155.272 94.293C156.28 94.293 156.724 93.285 156.724 91.941ZM165.803 95.001H161.351V94.377L163.403 92.409C163.955 91.869 164.375 91.473 164.375 90.813C164.375 90.117 163.943 89.601 163.139 89.601C162.599 89.601 162.215 89.841 161.927 90.081L161.471 89.445C161.987 89.013 162.515 88.749 163.343 88.749C164.531 88.749 165.347 89.445 165.347 90.705C165.347 91.545 164.843 92.181 164.267 92.709L162.731 94.125V94.137H165.803V95.001ZM171.088 91.845C171.088 95.157 169.408 96.705 167.02 96.993L166.828 96.213C168.34 96.033 169.864 95.061 170.08 92.769L170.068 92.757C170.068 92.757 169.504 93.237 168.652 93.237C167.452 93.237 166.672 92.337 166.672 91.101C166.672 89.601 167.572 88.749 168.928 88.749C170.32 88.749 171.088 89.709 171.088 91.845ZM170.092 91.833C170.092 90.645 169.876 89.565 168.808 89.565C168.052 89.565 167.608 90.189 167.608 90.969C167.608 91.965 168.064 92.445 168.916 92.445C169.648 92.445 170.092 92.013 170.092 92.013V91.833ZM176.713 95.001H172.261V94.377L174.313 92.409C174.865 91.869 175.285 91.473 175.285 90.813C175.285 90.117 174.853 89.601 174.049 89.601C173.509 89.601 173.125 89.841 172.837 90.081L172.381 89.445C172.897 89.013 173.425 88.749 174.253 88.749C175.441 88.749 176.257 89.445 176.257 90.705C176.257 91.545 175.753 92.181 175.177 92.709L173.641 94.125V94.137H176.713V95.001ZM182.61 91.941C182.61 93.537 181.986 95.133 180.174 95.133C178.35 95.133 177.726 93.537 177.726 91.941C177.726 90.345 178.35 88.749 180.174 88.749C181.986 88.749 182.61 90.345 182.61 91.941ZM181.626 91.941C181.626 90.597 181.182 89.589 180.174 89.589C179.154 89.589 178.71 90.597 178.71 91.941C178.71 93.285 179.154 94.293 180.174 94.293C181.182 94.293 181.626 93.285 181.626 91.941ZM188.269 95.001H187.321V89.697L186.265 89.841L186.157 89.109L188.269 88.773V95.001Z" fill="#00157E" fill-opacity="0.7"/>
<path d="M327.964 78.629C327.292 78.977 326.608 79.133 325.696 79.133C323.932 79.133 322.576 77.945 322.576 75.545C322.576 72.989 324.088 71.645 326.032 71.645C326.836 71.645 327.328 71.765 327.94 72.029L327.556 72.905C327.1 72.701 326.668 72.545 326.02 72.545C324.76 72.545 323.608 73.517 323.608 75.293C323.608 77.273 324.34 78.245 326.092 78.245C326.668 78.245 327.196 78.017 327.628 77.825L327.964 78.629ZM334.487 79.001H333.479V75.701H330.227V79.001H329.219V71.777H330.227V74.849H333.479V71.777H334.487V79.001ZM340.072 72.629H337.48V74.981H339.82V75.833H337.48V79.001H336.484V71.777H340.072V72.629Z" fill="#00157E" fill-opacity="0.7"/>
<path d="M352.716 80.001H350.938V74.331L349.706 74.499L349.496 73.239L352.716 72.721V80.001ZM360.296 76.431C360.296 78.391 359.442 80.169 357.286 80.169C355.13 80.169 354.276 78.391 354.276 76.431C354.276 74.471 355.13 72.693 357.286 72.693C359.442 72.693 360.296 74.471 360.296 76.431ZM358.504 76.431C358.504 75.087 358.126 74.275 357.286 74.275C356.46 74.275 356.068 75.087 356.068 76.431C356.068 77.775 356.46 78.587 357.286 78.587C358.126 78.587 358.504 77.775 358.504 76.431ZM363.692 72.595C363.692 74.023 363.118 74.821 362.082 75.563L361.578 75.017C362.068 74.597 362.39 74.149 362.502 73.533C361.984 73.477 361.564 73.015 361.564 72.483C361.564 71.909 362.04 71.433 362.614 71.433C363.216 71.433 363.692 71.881 363.692 72.595ZM370.974 76.431C370.974 78.391 370.12 80.169 367.964 80.169C365.808 80.169 364.954 78.391 364.954 76.431C364.954 74.471 365.808 72.693 367.964 72.693C370.12 72.693 370.974 74.471 370.974 76.431ZM369.182 76.431C369.182 75.087 368.804 74.275 367.964 74.275C367.138 74.275 366.746 75.087 366.746 76.431C366.746 77.775 367.138 78.587 367.964 78.587C368.804 78.587 369.182 77.775 369.182 76.431ZM378.22 76.431C378.22 78.391 377.366 80.169 375.21 80.169C373.054 80.169 372.2 78.391 372.2 76.431C372.2 74.471 373.054 72.693 375.21 72.693C377.366 72.693 378.22 74.471 378.22 76.431ZM376.428 76.431C376.428 75.087 376.05 74.275 375.21 74.275C374.384 74.275 373.992 75.087 373.992 76.431C373.992 77.775 374.384 78.587 375.21 78.587C376.05 78.587 376.428 77.775 376.428 76.431ZM385.466 76.431C385.466 78.391 384.612 80.169 382.456 80.169C380.3 80.169 379.446 78.391 379.446 76.431C379.446 74.471 380.3 72.693 382.456 72.693C384.612 72.693 385.466 74.471 385.466 76.431ZM383.674 76.431C383.674 75.087 383.296 74.275 382.456 74.275C381.63 74.275 381.238 75.087 381.238 76.431C381.238 77.775 381.63 78.587 382.456 78.587C383.296 78.587 383.674 77.775 383.674 76.431ZM388.862 79.049C388.862 79.637 388.386 80.113 387.798 80.113C387.21 80.113 386.734 79.637 386.734 79.049C386.734 78.475 387.21 77.999 387.798 77.999C388.386 77.999 388.862 78.475 388.862 79.049ZM396.144 76.431C396.144 78.391 395.29 80.169 393.134 80.169C390.978 80.169 390.124 78.391 390.124 76.431C390.124 74.471 390.978 72.693 393.134 72.693C395.29 72.693 396.144 74.471 396.144 76.431ZM394.352 76.431C394.352 75.087 393.974 74.275 393.134 74.275C392.308 74.275 391.916 75.087 391.916 76.431C391.916 77.775 392.308 78.587 393.134 78.587C393.974 78.587 394.352 77.775 394.352 76.431ZM403.39 76.431C403.39 78.391 402.536 80.169 400.38 80.169C398.224 80.169 397.37 78.391 397.37 76.431C397.37 74.471 398.224 72.693 400.38 72.693C402.536 72.693 403.39 74.471 403.39 76.431ZM401.598 76.431C401.598 75.087 401.22 74.275 400.38 74.275C399.554 74.275 399.162 75.087 399.162 76.431C399.162 77.775 399.554 78.587 400.38 78.587C401.22 78.587 401.598 77.775 401.598 76.431Z" fill="#00157E"/>
<mask id="path-15-inside-2_369_674" fill="white">
<path d="M0 112.001H420V168.001H0V112.001Z"/>
</mask>
<path d="M420 168.001V167.001H0V168.001V169.001H420V168.001Z" fill="#00157E" fill-opacity="0.2" mask="url(#path-15-inside-2_369_674)"/>
<path d="M28 136.001C29.6569 136.001 31 134.658 31 133.001C31 131.344 29.6569 130.001 28 130.001C26.3431 130.001 25 131.344 25 133.001C25 134.658 26.3431 136.001 28 136.001Z" stroke="#00157E" stroke-width="2" stroke-linecap="round" stroke-linejoin="round"/>
<path d="M28 150.001V136.001" stroke="#00157E" stroke-width="2" stroke-linecap="round" stroke-linejoin="round"/>
<path d="M21 140.001H18C18 142.653 19.0536 145.197 20.9289 147.072C22.8043 148.947 25.3478 150.001 28 150.001C30.6522 150.001 33.1957 148.947 35.0711 147.072C36.9464 145.197 38 142.653 38 140.001H35" stroke="#00157E" stroke-width="2" stroke-linecap="round" stroke-linejoin="round"/>
<path d="M61.726 133.635C61.726 135.105 60.704 136.155 59.01 136.155C58.142 136.155 57.372 135.973 56.714 135.693L57.078 134.671C57.624 134.923 58.268 135.133 58.926 135.133C59.948 135.133 60.606 134.741 60.606 133.817C60.606 133.131 60.102 132.795 59.43 132.473L58.114 131.843C57.232 131.423 56.63 130.877 56.63 129.687C56.63 128.245 57.89 127.419 59.346 127.419C60.13 127.419 60.634 127.545 61.362 127.811L60.97 128.805C60.522 128.595 60.032 128.399 59.416 128.399C58.548 128.399 57.764 128.749 57.764 129.645C57.764 130.247 58.128 130.541 58.688 130.807L60.032 131.465C61.096 131.983 61.726 132.557 61.726 133.635ZM67.7207 135.931L66.6007 136.113L66.5027 135.343H66.4887C66.0127 135.791 65.4947 136.169 64.7107 136.169C63.6187 136.169 62.9747 135.511 62.9747 134.475C62.9747 133.299 63.8987 132.725 65.2287 132.585L66.4047 132.459V131.871C66.4047 130.961 66.1247 130.317 65.0467 130.317C64.5007 130.317 64.0947 130.485 63.6887 130.695L63.2827 129.869C63.8707 129.519 64.4727 129.295 65.3127 129.295C66.6287 129.295 67.5107 130.065 67.5107 131.367V134.489L67.7207 135.931ZM66.4047 134.643V133.215L65.3827 133.355C64.5427 133.467 64.0807 133.733 64.0807 134.335C64.0807 134.881 64.4167 135.245 64.9767 135.245C65.6347 135.245 66.0407 134.965 66.4047 134.643ZM74.3901 129.449L72.0241 135.987L70.9181 136.029L68.7621 129.547L69.8821 129.267L71.5201 134.545H71.5341L73.2701 129.449H74.3901ZM76.9301 136.001H75.8101V130.961L75.6141 129.519L76.9301 129.337V136.001ZM77.1541 127.741C77.1541 128.189 76.8041 128.525 76.3841 128.525C75.9501 128.525 75.5861 128.189 75.5861 127.741C75.5861 127.293 75.9501 126.943 76.3841 126.943C76.8041 126.943 77.1541 127.293 77.1541 127.741ZM84.1427 136.001H83.0227V131.745C83.0227 130.779 82.6587 130.289 81.7767 130.289C81.1467 130.289 80.6987 130.555 80.2927 130.919V136.001H79.1727V130.961L78.9767 129.519L80.0827 129.337L80.1947 130.107H80.2087C80.6987 129.631 81.3427 129.295 82.1547 129.295C83.2607 129.295 84.1427 130.009 84.1427 131.353V136.001ZM91.6985 130.275H90.3825C90.5785 130.611 90.6905 131.003 90.6905 131.479C90.6905 132.809 89.7245 133.705 88.3805 133.705C88.1145 133.705 87.8625 133.663 87.6385 133.607C87.6385 133.607 87.1905 133.859 87.1905 134.363C87.1905 134.797 87.5125 134.881 87.9605 134.881H89.8365C90.9845 134.881 91.6565 135.231 91.6565 136.253C91.6565 137.541 90.3405 138.997 87.9465 138.997C86.5745 138.997 85.7345 138.325 85.7345 137.177C85.7345 136.099 86.6165 135.567 86.6165 135.567C86.3365 135.385 86.1545 135.105 86.1545 134.643C86.1545 133.831 86.8545 133.425 86.9945 133.355C86.3785 132.977 86.0425 132.333 86.0425 131.479C86.0425 130.149 87.0225 129.267 88.3805 129.267C88.8845 129.267 89.3465 129.379 89.7105 129.603L91.6985 129.295V130.275ZM90.6765 136.421C90.6765 135.945 90.2705 135.847 89.5845 135.847H87.8205C87.6245 135.847 87.4425 135.833 87.2605 135.805C87.2605 135.805 86.7285 136.225 86.7285 136.925C86.7285 137.681 87.1905 138.087 88.1985 138.087C89.8085 138.087 90.6765 137.135 90.6765 136.421ZM89.6405 131.479C89.6405 130.569 89.1365 130.107 88.3805 130.107C87.6525 130.107 87.0925 130.597 87.0925 131.479C87.0925 132.403 87.6105 132.865 88.3805 132.865C89.0945 132.865 89.6405 132.375 89.6405 131.479ZM96.9804 134.097C96.9804 135.287 96.0424 136.141 94.6424 136.141C93.9704 136.141 93.2984 136.043 92.7664 135.791L93.1024 134.811C93.5644 135.021 94.0824 135.189 94.5864 135.189C95.3424 135.189 95.8464 134.895 95.8464 134.279C95.8464 133.803 95.5944 133.607 95.1604 133.411L93.9424 132.851C93.5084 132.655 92.7244 132.263 92.7244 131.129C92.7244 129.883 93.8164 129.295 95.0064 129.295C95.7204 129.295 96.2244 129.407 96.7844 129.645L96.4064 130.611C95.9584 130.415 95.5244 130.275 94.9924 130.275C94.2784 130.275 93.8164 130.499 93.8164 131.059C93.8164 131.549 94.2364 131.745 94.5024 131.871L95.7484 132.459C96.6164 132.865 96.9804 133.383 96.9804 134.097ZM105.988 135.931L104.868 136.113L104.77 135.343H104.756C104.28 135.791 103.762 136.169 102.978 136.169C101.886 136.169 101.242 135.511 101.242 134.475C101.242 133.299 102.166 132.725 103.496 132.585L104.672 132.459V131.871C104.672 130.961 104.392 130.317 103.314 130.317C102.768 130.317 102.362 130.485 101.956 130.695L101.55 129.869C102.138 129.519 102.74 129.295 103.58 129.295C104.896 129.295 105.778 130.065 105.778 131.367V134.489L105.988 135.931ZM104.672 134.643V133.215L103.65 133.355C102.81 133.467 102.348 133.733 102.348 134.335C102.348 134.881 102.684 135.245 103.244 135.245C103.902 135.245 104.308 134.965 104.672 134.643ZM112.262 129.575L111.912 130.583C111.548 130.443 111.142 130.317 110.68 130.317C109.448 130.317 108.706 131.241 108.706 132.627C108.706 134.377 109.392 135.175 110.652 135.175C111.1 135.175 111.464 135.021 111.828 134.867L112.206 135.777C111.66 136.029 111.058 136.155 110.428 136.155C108.552 136.155 107.586 134.811 107.586 132.809C107.586 130.401 109.07 129.295 110.736 129.295C111.31 129.295 111.8 129.393 112.262 129.575ZM117.786 129.575L117.436 130.583C117.072 130.443 116.666 130.317 116.204 130.317C114.972 130.317 114.23 131.241 114.23 132.627C114.23 134.377 114.916 135.175 116.176 135.175C116.624 135.175 116.988 135.021 117.352 134.867L117.73 135.777C117.184 136.029 116.582 136.155 115.952 136.155C114.076 136.155 113.11 134.811 113.11 132.809C113.11 130.401 114.594 129.295 116.26 129.295C116.834 129.295 117.324 129.393 117.786 129.575ZM124.233 132.725C124.233 134.643 123.323 136.155 121.433 136.155C119.361 136.155 118.633 134.685 118.633 132.725C118.633 130.807 119.543 129.295 121.433 129.295C123.505 129.295 124.233 130.765 124.233 132.725ZM123.085 132.753C123.085 131.129 122.539 130.275 121.433 130.275C120.355 130.275 119.781 131.031 119.781 132.683C119.781 134.307 120.327 135.175 121.433 135.175C122.511 135.175 123.085 134.405 123.085 132.753ZM131.179 135.931L130.073 136.113L129.961 135.357H129.947C129.457 135.819 128.813 136.155 128.001 136.155C126.895 136.155 126.013 135.441 126.013 134.097V130.961L125.817 129.519L127.133 129.337V133.705C127.133 134.671 127.497 135.175 128.379 135.175C129.009 135.175 129.457 134.909 129.863 134.531V130.961L129.667 129.519L130.983 129.337V134.489L131.179 135.931ZM138.188 136.001H137.068V131.745C137.068 130.779 136.704 130.289 135.822 130.289C135.192 130.289 134.744 130.555 134.338 130.919V136.001H133.218V130.961L133.022 129.519L134.128 129.337L134.24 130.107H134.254C134.744 129.631 135.388 129.295 136.2 129.295C137.306 129.295 138.188 130.009 138.188 131.353V136.001ZM143.671 135.735C143.265 135.959 142.887 136.141 142.173 136.141C141.165 136.141 140.521 135.483 140.521 134.363V130.359H139.555V129.617L140.521 129.421V128.329L141.627 128.189V129.449H143.461V130.359H141.627V133.985C141.627 134.867 141.851 135.147 142.495 135.147C142.845 135.147 143.111 135.007 143.307 134.881L143.671 135.735Z" fill="#00157E"/>
<path d="M61.964 150.629C61.292 150.977 60.608 151.133 59.696 151.133C57.932 151.133 56.576 149.945 56.576 147.545C56.576 144.989 58.088 143.645 60.032 143.645C60.836 143.645 61.328 143.765 61.94 144.029L61.556 144.905C61.1 144.701 60.668 144.545 60.02 144.545C58.76 144.545 57.608 145.517 57.608 147.293C57.608 149.273 58.34 150.245 60.092 150.245C60.668 150.245 61.196 150.017 61.628 149.825L61.964 150.629ZM68.4867 151.001H67.4787V147.701H64.2267V151.001H63.2187V143.777H64.2267V146.849H67.4787V143.777H68.4867V151.001ZM73.9043 150.521C73.9043 151.961 72.9803 152.873 71.3963 152.873C70.9283 152.873 70.4363 152.789 69.9923 152.681L70.2083 151.781C70.6043 151.901 70.9403 151.997 71.4203 151.997C72.3683 151.997 72.9443 151.529 72.9443 150.665C72.9443 149.489 71.8643 149.033 70.3403 149.033V148.349C72.1163 148.241 72.6083 147.449 72.6083 146.669C72.6083 145.985 72.1883 145.601 71.5163 145.601C70.9643 145.601 70.6403 145.781 70.2803 146.021L69.8843 145.361C70.3163 145.025 70.8683 144.749 71.7083 144.749C72.8603 144.749 73.5683 145.433 73.5683 146.549C73.5683 147.521 73.0043 148.169 72.2003 148.553V148.565C73.3763 148.817 73.9043 149.597 73.9043 150.521ZM78.9696 149.921C78.9696 152.225 76.7976 152.873 75.2496 152.993L75.1296 152.177C76.2216 152.057 77.9856 151.625 77.9856 150.053C77.9856 149.069 77.4336 148.493 75.8976 148.493H75.0936L75.3576 144.881H78.7776V145.757H76.1856L76.0296 147.773C76.0296 147.773 76.3056 147.749 76.5576 147.749C77.9496 147.749 78.9696 148.481 78.9696 149.921ZM87.5593 147.941C87.5593 149.537 86.9353 151.133 85.1233 151.133C83.2993 151.133 82.6753 149.537 82.6753 147.941C82.6753 146.345 83.2993 144.749 85.1233 144.749C86.9353 144.749 87.5593 146.345 87.5593 147.941ZM86.5753 147.941C86.5753 146.597 86.1313 145.589 85.1233 145.589C84.1033 145.589 83.6593 146.597 83.6593 147.941C83.6593 149.285 84.1033 150.293 85.1233 150.293C86.1313 150.293 86.5753 149.285 86.5753 147.941ZM93.1231 147.845C93.1231 151.157 91.4431 152.705 89.0551 152.993L88.8631 152.213C90.3751 152.033 91.8991 151.061 92.1151 148.769L92.1031 148.757C92.1031 148.757 91.5391 149.237 90.6871 149.237C89.4871 149.237 88.7071 148.337 88.7071 147.101C88.7071 145.601 89.6071 144.749 90.9631 144.749C92.3551 144.749 93.1231 145.709 93.1231 147.845ZM92.1271 147.833C92.1271 146.645 91.9111 145.565 90.8431 145.565C90.0871 145.565 89.6431 146.189 89.6431 146.969C89.6431 147.965 90.0991 148.445 90.9511 148.445C91.6831 148.445 92.1271 148.013 92.1271 148.013V147.833ZM99.3484 147.941C99.3484 149.537 98.7244 151.133 96.9124 151.133C95.0884 151.133 94.4644 149.537 94.4644 147.941C94.4644 146.345 95.0884 144.749 96.9124 144.749C98.7244 144.749 99.3484 146.345 99.3484 147.941ZM98.3644 147.941C98.3644 146.597 97.9204 145.589 96.9124 145.589C95.8924 145.589 95.4484 146.597 95.4484 147.941C95.4484 149.285 95.8924 150.293 96.9124 150.293C97.9204 150.293 98.3644 149.285 98.3644 147.941ZM105.524 147.941C105.524 149.537 104.9 151.133 103.088 151.133C101.264 151.133 100.64 149.537 100.64 147.941C100.64 146.345 101.264 144.749 103.088 144.749C104.9 144.749 105.524 146.345 105.524 147.941ZM104.54 147.941C104.54 146.597 104.096 145.589 103.088 145.589C102.068 145.589 101.624 146.597 101.624 147.941C101.624 149.285 102.068 150.293 103.088 150.293C104.096 150.293 104.54 149.285 104.54 147.941ZM114.22 147.941C114.22 149.537 113.596 151.133 111.784 151.133C109.96 151.133 109.336 149.537 109.336 147.941C109.336 146.345 109.96 144.749 111.784 144.749C113.596 144.749 114.22 146.345 114.22 147.941ZM113.236 147.941C113.236 146.597 112.792 145.589 111.784 145.589C110.764 145.589 110.32 146.597 110.32 147.941C110.32 149.285 110.764 150.293 111.784 150.293C112.792 150.293 113.236 149.285 113.236 147.941ZM120.395 147.941C120.395 149.537 119.771 151.133 117.959 151.133C116.135 151.133 115.511 149.537 115.511 147.941C115.511 146.345 116.135 144.749 117.959 144.749C119.771 144.749 120.395 146.345 120.395 147.941ZM119.411 147.941C119.411 146.597 118.967 145.589 117.959 145.589C116.939 145.589 116.495 146.597 116.495 147.941C116.495 149.285 116.939 150.293 117.959 150.293C118.967 150.293 119.411 149.285 119.411 147.941ZM126.571 147.941C126.571 149.537 125.947 151.133 124.135 151.133C122.311 151.133 121.687 149.537 121.687 147.941C121.687 146.345 122.311 144.749 124.135 144.749C125.947 144.749 126.571 146.345 126.571 147.941ZM125.587 147.941C125.587 146.597 125.143 145.589 124.135 145.589C123.115 145.589 122.671 146.597 122.671 147.941C122.671 149.285 123.115 150.293 124.135 150.293C125.143 150.293 125.587 149.285 125.587 147.941ZM132.747 147.941C132.747 149.537 132.123 151.133 130.311 151.133C128.487 151.133 127.863 149.537 127.863 147.941C127.863 146.345 128.487 144.749 130.311 144.749C132.123 144.749 132.747 146.345 132.747 147.941ZM131.763 147.941C131.763 146.597 131.319 145.589 130.311 145.589C129.291 145.589 128.847 146.597 128.847 147.941C128.847 149.285 129.291 150.293 130.311 150.293C131.319 150.293 131.763 149.285 131.763 147.941ZM140.842 151.001H136.39V150.377L138.442 148.409C138.994 147.869 139.414 147.473 139.414 146.813C139.414 146.117 138.982 145.601 138.178 145.601C137.638 145.601 137.254 145.841 136.966 146.081L136.51 145.445C137.026 145.013 137.554 144.749 138.382 144.749C139.57 144.749 140.386 145.445 140.386 146.705C140.386 147.545 139.882 148.181 139.306 148.709L137.77 150.125V150.137H140.842V151.001ZM147.36 150.245H145.908V152.693L144.984 152.849V150.245H141.684V149.465L145.02 144.881H145.908V149.429H147.36V150.245ZM144.984 149.429V146.177H144.972L142.668 149.429H144.984ZM151.969 145.697L148.537 152.981L147.733 152.573L150.925 145.757H147.661V144.881H151.969V145.697ZM157.708 147.941C157.708 149.537 157.084 151.133 155.272 151.133C153.448 151.133 152.824 149.537 152.824 147.941C152.824 146.345 153.448 144.749 155.272 144.749C157.084 144.749 157.708 146.345 157.708 147.941ZM156.724 147.941C156.724 146.597 156.28 145.589 155.272 145.589C154.252 145.589 153.808 146.597 153.808 147.941C153.808 149.285 154.252 150.293 155.272 150.293C156.28 150.293 156.724 149.285 156.724 147.941ZM165.803 151.001H161.351V150.377L163.403 148.409C163.955 147.869 164.375 147.473 164.375 146.813C164.375 146.117 163.943 145.601 163.139 145.601C162.599 145.601 162.215 145.841 161.927 146.081L161.471 145.445C161.987 145.013 162.515 144.749 163.343 144.749C164.531 144.749 165.347 145.445 165.347 146.705C165.347 147.545 164.843 148.181 164.267 148.709L162.731 150.125V150.137H165.803V151.001ZM171.088 147.845C171.088 151.157 169.408 152.705 167.02 152.993L166.828 152.213C168.34 152.033 169.864 151.061 170.08 148.769L170.068 148.757C170.068 148.757 169.504 149.237 168.652 149.237C167.452 149.237 166.672 148.337 166.672 147.101C166.672 145.601 167.572 144.749 168.928 144.749C170.32 144.749 171.088 145.709 171.088 147.845ZM170.092 147.833C170.092 146.645 169.876 145.565 168.808 145.565C168.052 145.565 167.608 146.189 167.608 146.969C167.608 147.965 168.064 148.445 168.916 148.445C169.648 148.445 170.092 148.013 170.092 148.013V147.833ZM176.713 151.001H172.261V150.377L174.313 148.409C174.865 147.869 175.285 147.473 175.285 146.813C175.285 146.117 174.853 145.601 174.049 145.601C173.509 145.601 173.125 145.841 172.837 146.081L172.381 145.445C172.897 145.013 173.425 144.749 174.253 144.749C175.441 144.749 176.257 145.445 176.257 146.705C176.257 147.545 175.753 148.181 175.177 148.709L173.641 150.125V150.137H176.713V151.001ZM182.61 147.941C182.61 149.537 181.986 151.133 180.174 151.133C178.35 151.133 177.726 149.537 177.726 147.941C177.726 146.345 178.35 144.749 180.174 144.749C181.986 144.749 182.61 146.345 182.61 147.941ZM181.626 147.941C181.626 146.597 181.182 145.589 180.174 145.589C179.154 145.589 178.71 146.597 178.71 147.941C178.71 149.285 179.154 150.293 180.174 150.293C181.182 150.293 181.626 149.285 181.626 147.941ZM190.705 151.001H186.253V150.377L188.305 148.409C188.857 147.869 189.277 147.473 189.277 146.813C189.277 146.117 188.845 145.601 188.041 145.601C187.501 145.601 187.117 145.841 186.829 146.081L186.373 145.445C186.889 145.013 187.417 144.749 188.245 144.749C189.433 144.749 190.249 145.445 190.249 146.705C190.249 147.545 189.745 148.181 189.169 148.709L187.633 150.125V150.137H190.705V151.001Z" fill="#00157E" fill-opacity="0.7"/>
<path d="M326.964 134.629C326.292 134.977 325.608 135.133 324.696 135.133C322.932 135.133 321.576 133.945 321.576 131.545C321.576 128.989 323.088 127.645 325.032 127.645C325.836 127.645 326.328 127.765 326.94 128.029L326.556 128.905C326.1 128.701 325.668 128.545 325.02 128.545C323.76 128.545 322.608 129.517 322.608 131.293C322.608 133.273 323.34 134.245 325.092 134.245C325.668 134.245 326.196 134.017 326.628 133.825L326.964 134.629ZM333.487 135.001H332.479V131.701H329.227V135.001H328.219V127.777H329.227V130.849H332.479V127.777H333.487V135.001ZM339.072 128.629H336.48V130.981H338.82V131.833H336.48V135.001H335.484V127.777H339.072V128.629Z" fill="#00157E" fill-opacity="0.7"/>
<path d="M354.483 136.001H349.037V134.923L351.263 132.865C351.781 132.389 352.131 132.039 352.131 131.381C352.131 130.737 351.725 130.303 351.081 130.303C350.479 130.303 350.101 130.541 349.793 130.779L349.009 129.603C349.653 129.043 350.395 128.693 351.445 128.693C352.929 128.693 353.951 129.561 353.951 131.087C353.951 132.025 353.405 132.753 352.817 133.285L351.599 134.377V134.391H354.483V136.001ZM360.421 134.559C360.421 137.065 358.279 138.045 355.773 138.339L355.507 136.827C356.683 136.645 358.601 136.239 358.601 134.741C358.601 133.803 357.915 133.341 356.333 133.341H355.507L355.773 128.861H360.169V130.457H357.243L357.145 132.109C357.145 132.109 357.411 132.095 357.691 132.095C359.399 132.095 360.421 132.935 360.421 134.559ZM363.692 128.595C363.692 130.023 363.118 130.821 362.082 131.563L361.578 131.017C362.068 130.597 362.39 130.149 362.502 129.533C361.984 129.477 361.564 129.015 361.564 128.483C361.564 127.909 362.04 127.433 362.614 127.433C363.216 127.433 363.692 127.881 363.692 128.595ZM370.974 132.431C370.974 134.391 370.12 136.169 367.964 136.169C365.808 136.169 364.954 134.391 364.954 132.431C364.954 130.471 365.808 128.693 367.964 128.693C370.12 128.693 370.974 130.471 370.974 132.431ZM369.182 132.431C369.182 131.087 368.804 130.275 367.964 130.275C367.138 130.275 366.746 131.087 366.746 132.431C366.746 133.775 367.138 134.587 367.964 134.587C368.804 134.587 369.182 133.775 369.182 132.431ZM378.22 132.431C378.22 134.391 377.366 136.169 375.21 136.169C373.054 136.169 372.2 134.391 372.2 132.431C372.2 130.471 373.054 128.693 375.21 128.693C377.366 128.693 378.22 130.471 378.22 132.431ZM376.428 132.431C376.428 131.087 376.05 130.275 375.21 130.275C374.384 130.275 373.992 131.087 373.992 132.431C373.992 133.775 374.384 134.587 375.21 134.587C376.05 134.587 376.428 133.775 376.428 132.431ZM385.466 132.431C385.466 134.391 384.612 136.169 382.456 136.169C380.3 136.169 379.446 134.391 379.446 132.431C379.446 130.471 380.3 128.693 382.456 128.693C384.612 128.693 385.466 130.471 385.466 132.431ZM383.674 132.431C383.674 131.087 383.296 130.275 382.456 130.275C381.63 130.275 381.238 131.087 381.238 132.431C381.238 133.775 381.63 134.587 382.456 134.587C383.296 134.587 383.674 133.775 383.674 132.431ZM388.862 135.049C388.862 135.637 388.386 136.113 387.798 136.113C387.21 136.113 386.734 135.637 386.734 135.049C386.734 134.475 387.21 133.999 387.798 133.999C388.386 133.999 388.862 134.475 388.862 135.049ZM396.144 132.431C396.144 134.391 395.29 136.169 393.134 136.169C390.978 136.169 390.124 134.391 390.124 132.431C390.124 130.471 390.978 128.693 393.134 128.693C395.29 128.693 396.144 130.471 396.144 132.431ZM394.352 132.431C394.352 131.087 393.974 130.275 393.134 130.275C392.308 130.275 391.916 131.087 391.916 132.431C391.916 133.775 392.308 134.587 393.134 134.587C393.974 134.587 394.352 133.775 394.352 132.431ZM403.39 132.431C403.39 134.391 402.536 136.169 400.38 136.169C398.224 136.169 397.37 134.391 397.37 132.431C397.37 130.471 398.224 128.693 400.38 128.693C402.536 128.693 403.39 130.471 403.39 132.431ZM401.598 132.431C401.598 131.087 401.22 130.275 400.38 130.275C399.554 130.275 399.162 131.087 399.162 132.431C399.162 133.775 399.554 134.587 400.38 134.587C401.22 134.587 401.598 133.775 401.598 132.431Z" fill="#00157E"/>
<mask id="path-24-inside-3_369_674" fill="white">
<path d="M0 168.001H420V224.001H0V168.001Z"/>
</mask>
<path d="M420 224.001V223.001H0V224.001V225.001H420V224.001Z" fill="#00157E" fill-opacity="0.2" mask="url(#path-24-inside-3_369_674)"/>
<g clip-path="url(#clip0_369_674)">
<path d="M38.65 198.391L28 206.131L17.35 198.391C17.2072 198.286 17.1013 198.139 17.0475 197.97C16.9936 197.801 16.9945 197.619 17.05 197.451L18.27 193.671L20.71 186.161C20.7337 186.1 20.7714 186.045 20.82 186.001C20.8993 185.929 21.0027 185.889 21.11 185.889C21.2173 185.889 21.3208 185.929 21.4 186.001C21.4514 186.051 21.4893 186.113 21.51 186.181L23.95 193.671H32.05L34.49 186.161C34.5137 186.1 34.5514 186.045 34.6 186.001C34.6793 185.929 34.7827 185.889 34.89 185.889C34.9973 185.889 35.1008 185.929 35.18 186.001C35.2314 186.051 35.2693 186.113 35.29 186.181L37.73 193.691L39 197.451C39.0505 197.625 39.0438 197.81 38.9807 197.979C38.9177 198.148 38.8017 198.293 38.65 198.391Z" stroke="#00157E" stroke-width="2" stroke-linecap="round" stroke-linejoin="round"/>
</g>
<path d="M63.77 187.255C63.77 190.335 61.922 192.001 58.926 192.001H57.162V183.629C57.162 183.629 58.324 183.489 59.57 183.489C62.174 183.489 63.77 184.847 63.77 187.255ZM62.552 187.423C62.552 185.435 61.208 184.483 59.374 184.483C58.786 184.483 58.338 184.511 58.338 184.511V190.951H59.15C61.152 190.951 62.552 189.761 62.552 187.423ZM70.1055 191.651C69.4755 192.001 68.8315 192.155 68.0335 192.155C66.1015 192.155 65.1075 190.853 65.1075 188.683C65.1075 186.653 66.1715 185.295 67.8235 185.295C69.4055 185.295 70.0495 186.345 70.0495 187.787V188.571H66.1995C66.2135 190.321 66.8435 191.161 68.2715 191.161C68.8175 191.161 69.2375 191.007 69.7135 190.769L70.1055 191.651ZM68.9995 187.787C68.9995 186.807 68.6355 186.191 67.7675 186.191C66.9275 186.191 66.3955 186.849 66.2555 187.787H68.9995ZM76.9283 188.403C76.9283 190.531 76.0043 192.071 73.8203 192.071C73.4563 192.071 73.1623 192.043 72.8963 191.973V194.773L71.7763 194.955V186.961L71.5802 185.519L72.6863 185.337L72.7843 186.009H72.7983C73.2323 185.645 73.8063 185.295 74.5623 185.295C76.1583 185.295 76.9283 186.499 76.9283 188.403ZM75.8083 188.725C75.8083 187.297 75.4863 186.303 74.1843 186.303C73.6243 186.303 73.2183 186.541 72.8963 186.807V190.937C73.1623 191.049 73.4703 191.119 73.9043 191.119C75.1223 191.119 75.8083 190.167 75.8083 188.725ZM83.8599 188.725C83.8599 190.643 82.9499 192.155 81.0599 192.155C78.9879 192.155 78.2599 190.685 78.2599 188.725C78.2599 186.807 79.1699 185.295 81.0599 185.295C83.1319 185.295 83.8599 186.765 83.8599 188.725ZM82.7119 188.753C82.7119 187.129 82.1659 186.275 81.0599 186.275C79.9819 186.275 79.4079 187.031 79.4079 188.683C79.4079 190.307 79.9539 191.175 81.0599 191.175C82.1379 191.175 82.7119 190.405 82.7119 188.753ZM89.4335 190.097C89.4335 191.287 88.4955 192.141 87.0955 192.141C86.4235 192.141 85.7515 192.043 85.2195 191.791L85.5555 190.811C86.0175 191.021 86.5355 191.189 87.0395 191.189C87.7955 191.189 88.2995 190.895 88.2995 190.279C88.2995 189.803 88.0475 189.607 87.6135 189.411L86.3955 188.851C85.9615 188.655 85.1775 188.263 85.1775 187.129C85.1775 185.883 86.2695 185.295 87.4595 185.295C88.1735 185.295 88.6775 185.407 89.2375 185.645L88.8595 186.611C88.4115 186.415 87.9775 186.275 87.4455 186.275C86.7315 186.275 86.2695 186.499 86.2695 187.059C86.2695 187.549 86.6895 187.745 86.9555 187.871L88.2015 188.459C89.0695 188.865 89.4335 189.383 89.4335 190.097ZM92.352 192.001H91.232V186.961L91.036 185.519L92.352 185.337V192.001ZM92.576 183.741C92.576 184.189 92.226 184.525 91.806 184.525C91.372 184.525 91.008 184.189 91.008 183.741C91.008 183.293 91.372 182.943 91.806 182.943C92.226 182.943 92.576 183.293 92.576 183.741ZM97.8706 191.735C97.4646 191.959 97.0866 192.141 96.3726 192.141C95.3646 192.141 94.7206 191.483 94.7206 190.363V186.359H93.7546V185.617L94.7206 185.421V184.329L95.8266 184.189V185.449H97.6606V186.359H95.8266V189.985C95.8266 190.867 96.0506 191.147 96.6946 191.147C97.0446 191.147 97.3106 191.007 97.5066 190.881L97.8706 191.735Z" fill="#00157E"/>
<path d="M58.496 207.001H57.548V201.697L56.492 201.841L56.384 201.109L58.496 200.773V207.001ZM64.389 207.001H59.937V206.377L61.989 204.409C62.541 203.869 62.961 203.473 62.961 202.813C62.961 202.117 62.529 201.601 61.725 201.601C61.185 201.601 60.801 201.841 60.513 202.081L60.057 201.445C60.573 201.013 61.101 200.749 61.929 200.749C63.117 200.749 63.933 201.445 63.933 202.705C63.933 203.545 63.429 204.181 62.853 204.709L61.317 206.125V206.137H64.389V207.001ZM69.1113 206.521C69.1113 207.961 68.1873 208.873 66.6033 208.873C66.1353 208.873 65.6433 208.789 65.1993 208.681L65.4153 207.781C65.8113 207.901 66.1473 207.997 66.6273 207.997C67.5753 207.997 68.1513 207.529 68.1513 206.665C68.1513 205.489 67.0713 205.033 65.5473 205.033V204.349C67.3233 204.241 67.8153 203.449 67.8153 202.669C67.8153 201.985 67.3953 201.601 66.7233 201.601C66.1713 201.601 65.8473 201.781 65.4873 202.021L65.0913 201.361C65.5233 201.025 66.0753 200.749 66.9153 200.749C68.0673 200.749 68.7753 201.433 68.7753 202.549C68.7753 203.521 68.2113 204.169 67.4073 204.553V204.565C68.5833 204.817 69.1113 205.597 69.1113 206.521ZM71.7046 206.389C71.7046 206.773 71.3926 207.085 71.0206 207.085C70.6366 207.085 70.3246 206.773 70.3246 206.389C70.3246 206.017 70.6366 205.705 71.0206 205.705C71.3926 205.705 71.7046 206.017 71.7046 206.389ZM78.4068 206.245H76.9548V208.693L76.0308 208.849V206.245H72.7308V205.465L76.0668 200.881H76.9548V205.429H78.4068V206.245ZM76.0308 205.429V202.177H76.0188L73.7148 205.429H76.0308ZM82.954 205.921C82.954 208.225 80.782 208.873 79.234 208.993L79.114 208.177C80.206 208.057 81.97 207.625 81.97 206.053C81.97 205.069 81.418 204.493 79.882 204.493H79.078L79.342 200.881H82.762V201.757H80.17L80.014 203.773C80.014 203.773 80.29 203.749 80.542 203.749C81.934 203.749 82.954 204.481 82.954 205.921ZM88.5682 204.805C88.5682 206.221 87.7282 207.133 86.3722 207.133C84.8362 207.133 84.1882 205.993 84.1882 204.301C84.1882 201.037 86.1082 199.693 88.1962 199.525L88.3162 200.317C86.8762 200.473 85.4362 201.253 85.1602 203.257L85.1722 203.269C85.1722 203.269 85.7842 202.741 86.6122 202.741C87.8722 202.741 88.5682 203.545 88.5682 204.805ZM87.6202 204.997C87.6202 203.977 87.2242 203.545 86.3482 203.545C85.6642 203.545 85.1602 204.025 85.1602 204.025V204.253C85.1602 205.597 85.5082 206.341 86.4562 206.341C87.2482 206.341 87.6202 205.777 87.6202 204.997ZM91.1226 206.389C91.1226 206.773 90.8106 207.085 90.4386 207.085C90.0546 207.085 89.7426 206.773 89.7426 206.389C89.7426 206.017 90.0546 205.705 90.4386 205.705C90.8106 205.705 91.1226 206.017 91.1226 206.389ZM96.0935 201.697L92.6615 208.981L91.8575 208.573L95.0495 201.757H91.7855V200.881H96.0935V201.697ZM101.277 205.249C101.277 206.401 100.401 207.133 99.1654 207.133C97.9054 207.133 97.0534 206.497 97.0534 205.321C97.0534 204.265 97.8334 203.629 98.4334 203.221C97.7134 202.717 97.2334 202.285 97.2334 201.385C97.2334 200.365 98.0734 199.645 99.1534 199.645C100.317 199.645 101.073 200.293 101.073 201.301C101.073 202.165 100.473 202.717 99.8854 203.125C100.653 203.641 101.277 204.157 101.277 205.249ZM100.353 205.249C100.353 204.469 99.8134 204.073 99.0934 203.605C98.4574 204.037 97.9654 204.409 97.9654 205.201C97.9654 205.921 98.4454 206.329 99.1774 206.329C99.9574 206.329 100.353 205.849 100.353 205.249ZM100.221 201.409C100.221 200.797 99.8134 200.401 99.1654 200.401C98.5174 200.401 98.0974 200.821 98.0974 201.421C98.0974 201.985 98.5654 202.309 99.2134 202.753C99.7294 202.417 100.221 201.985 100.221 201.409Z" fill="#00157E" fill-opacity="0.7"/>
<path d="M325.964 190.629C325.292 190.977 324.608 191.133 323.696 191.133C321.932 191.133 320.576 189.945 320.576 187.545C320.576 184.989 322.088 183.645 324.032 183.645C324.836 183.645 325.328 183.765 325.94 184.029L325.556 184.905C325.1 184.701 324.668 184.545 324.02 184.545C322.76 184.545 321.608 185.517 321.608 187.293C321.608 189.273 322.34 190.245 324.092 190.245C324.668 190.245 325.196 190.017 325.628 189.825L325.964 190.629ZM332.487 191.001H331.479V187.701H328.227V191.001H327.219V183.777H328.227V186.849H331.479V183.777H332.487V191.001ZM338.072 184.629H335.48V186.981H337.82V187.833H335.48V191.001H334.484V183.777H338.072V184.629Z" fill="#00157E" fill-opacity="0.7"/>
<path d="M353.266 192.001H347.82V190.923L350.046 188.865C350.564 188.389 350.914 188.039 350.914 187.381C350.914 186.737 350.508 186.303 349.864 186.303C349.262 186.303 348.884 186.541 348.576 186.779L347.792 185.603C348.436 185.043 349.178 184.693 350.228 184.693C351.712 184.693 352.734 185.561 352.734 187.087C352.734 188.025 352.188 188.753 351.6 189.285L350.382 190.377V190.391H353.266V192.001ZM360.296 188.431C360.296 190.391 359.442 192.169 357.286 192.169C355.13 192.169 354.276 190.391 354.276 188.431C354.276 186.471 355.13 184.693 357.286 184.693C359.442 184.693 360.296 186.471 360.296 188.431ZM358.504 188.431C358.504 187.087 358.126 186.275 357.286 186.275C356.46 186.275 356.068 187.087 356.068 188.431C356.068 189.775 356.46 190.587 357.286 190.587C358.126 190.587 358.504 189.775 358.504 188.431ZM363.692 184.595C363.692 186.023 363.118 186.821 362.082 187.563L361.578 187.017C362.068 186.597 362.39 186.149 362.502 185.533C361.984 185.477 361.564 185.015 361.564 184.483C361.564 183.909 362.04 183.433 362.614 183.433C363.216 183.433 363.692 183.881 363.692 184.595ZM370.974 188.431C370.974 190.391 370.12 192.169 367.964 192.169C365.808 192.169 364.954 190.391 364.954 188.431C364.954 186.471 365.808 184.693 367.964 184.693C370.12 184.693 370.974 186.471 370.974 188.431ZM369.182 188.431C369.182 187.087 368.804 186.275 367.964 186.275C367.138 186.275 366.746 187.087 366.746 188.431C366.746 189.775 367.138 190.587 367.964 190.587C368.804 190.587 369.182 189.775 369.182 188.431ZM378.22 188.431C378.22 190.391 377.366 192.169 375.21 192.169C373.054 192.169 372.2 190.391 372.2 188.431C372.2 186.471 373.054 184.693 375.21 184.693C377.366 184.693 378.22 186.471 378.22 188.431ZM376.428 188.431C376.428 187.087 376.05 186.275 375.21 186.275C374.384 186.275 373.992 187.087 373.992 188.431C373.992 189.775 374.384 190.587 375.21 190.587C376.05 190.587 376.428 189.775 376.428 188.431ZM385.466 188.431C385.466 190.391 384.612 192.169 382.456 192.169C380.3 192.169 379.446 190.391 379.446 188.431C379.446 186.471 380.3 184.693 382.456 184.693C384.612 184.693 385.466 186.471 385.466 188.431ZM383.674 188.431C383.674 187.087 383.296 186.275 382.456 186.275C381.63 186.275 381.238 187.087 381.238 188.431C381.238 189.775 381.63 190.587 382.456 190.587C383.296 190.587 383.674 189.775 383.674 188.431ZM388.862 191.049C388.862 191.637 388.386 192.113 387.798 192.113C387.21 192.113 386.734 191.637 386.734 191.049C386.734 190.475 387.21 189.999 387.798 189.999C388.386 189.999 388.862 190.475 388.862 191.049ZM396.144 188.431C396.144 190.391 395.29 192.169 393.134 192.169C390.978 192.169 390.124 190.391 390.124 188.431C390.124 186.471 390.978 184.693 393.134 184.693C395.29 184.693 396.144 186.471 396.144 188.431ZM394.352 188.431C394.352 187.087 393.974 186.275 393.134 186.275C392.308 186.275 391.916 187.087 391.916 188.431C391.916 189.775 392.308 190.587 393.134 190.587C393.974 190.587 394.352 189.775 394.352 188.431ZM403.39 188.431C403.39 190.391 402.536 192.169 400.38 192.169C398.224 192.169 397.37 190.391 397.37 188.431C397.37 186.471 398.224 184.693 400.38 184.693C402.536 184.693 403.39 186.471 403.39 188.431ZM401.598 188.431C401.598 187.087 401.22 186.275 400.38 186.275C399.554 186.275 399.162 187.087 399.162 188.431C399.162 189.775 399.554 190.587 400.38 190.587C401.22 190.587 401.598 189.775 401.598 188.431Z" fill="#00157E"/>
<path d="M28 262.001C33.5228 262.001 38 257.524 38 252.001C38 246.478 33.5228 242.001 28 242.001C22.4772 242.001 18 246.478 18 252.001C18 257.524 22.4772 262.001 28 262.001Z" stroke="#00157E" stroke-width="2" stroke-linecap="round" stroke-linejoin="round"/>
<path d="M28 256.001C30.2091 256.001 32 254.21 32 252.001C32 249.792 30.2091 248.001 28 248.001C25.7909 248.001 24 249.792 24 252.001C24 254.21 25.7909 256.001 28 256.001Z" stroke="#00157E" stroke-width="2" stroke-linecap="round" stroke-linejoin="round"/>
<path d="M20.93 244.931L25.17 249.171" stroke="#00157E" stroke-width="2" stroke-linecap="round" stroke-linejoin="round"/>
<path d="M30.83 254.831L35.07 259.071" stroke="#00157E" stroke-width="2" stroke-linecap="round" stroke-linejoin="round"/>
<path d="M30.83 249.171L35.07 244.931" stroke="#00157E" stroke-width="2" stroke-linecap="round" stroke-linejoin="round"/>
<path d="M30.83 249.171L34.36 245.641" stroke="#00157E" stroke-width="2" stroke-linecap="round" stroke-linejoin="round"/>
<path d="M20.93 259.071L25.17 254.831" stroke="#00157E" stroke-width="2" stroke-linecap="round" stroke-linejoin="round"/>
<path d="M61.488 248.001H57.162V239.573H61.348V240.567H58.324V243.157H61.054V244.137H58.324V247.007H61.488V248.001ZM71.9553 248.001H70.8493V243.745C70.8493 242.779 70.4853 242.289 69.5893 242.289C68.9593 242.289 68.4273 242.597 68.0773 242.947C68.0773 242.947 68.1193 243.185 68.1193 243.437V248.001H66.9993V243.745C66.9993 242.779 66.6353 242.289 65.7533 242.289C65.1233 242.289 64.6753 242.541 64.2693 242.919V248.001H63.1493V242.961L62.9533 241.519L64.0593 241.337L64.1713 242.107H64.1853C64.6753 241.631 65.3193 241.295 66.1313 241.295C66.8873 241.295 67.5173 241.631 67.8533 242.233H67.8673C68.3853 241.715 69.0573 241.295 69.9813 241.295C71.1013 241.295 71.9553 242.009 71.9553 243.353V248.001ZM78.7325 247.651C78.1025 248.001 77.4585 248.155 76.6605 248.155C74.7285 248.155 73.7345 246.853 73.7345 244.683C73.7345 242.653 74.7985 241.295 76.4505 241.295C78.0325 241.295 78.6765 242.345 78.6765 243.787V244.571H74.8265C74.8405 246.321 75.4705 247.161 76.8985 247.161C77.4445 247.161 77.8645 247.007 78.3405 246.769L78.7325 247.651ZM77.6265 243.787C77.6265 242.807 77.2625 242.191 76.3945 242.191C75.5545 242.191 75.0225 242.849 74.8825 243.787H77.6265ZM83.3432 242.415C82.5872 242.415 82.0272 242.611 81.5232 243.073V248.001H80.4032V242.961L80.2072 241.519L81.3132 241.337L81.4252 242.233H81.4392C81.8872 241.729 82.4752 241.309 83.3432 241.309V242.415ZM90.0578 242.275H88.7418C88.9378 242.611 89.0498 243.003 89.0498 243.479C89.0498 244.809 88.0838 245.705 86.7398 245.705C86.4738 245.705 86.2218 245.663 85.9978 245.607C85.9978 245.607 85.5498 245.859 85.5498 246.363C85.5498 246.797 85.8718 246.881 86.3198 246.881H88.1958C89.3438 246.881 90.0158 247.231 90.0158 248.253C90.0158 249.541 88.6998 250.997 86.3058 250.997C84.9338 250.997 84.0938 250.325 84.0938 249.177C84.0938 248.099 84.9758 247.567 84.9758 247.567C84.6958 247.385 84.5138 247.105 84.5138 246.643C84.5138 245.831 85.2138 245.425 85.3538 245.355C84.7378 244.977 84.4018 244.333 84.4018 243.479C84.4018 242.149 85.3818 241.267 86.7398 241.267C87.2438 241.267 87.7058 241.379 88.0698 241.603L90.0578 241.295V242.275ZM89.0358 248.421C89.0358 247.945 88.6298 247.847 87.9438 247.847H86.1798C85.9838 247.847 85.8018 247.833 85.6198 247.805C85.6198 247.805 85.0878 248.225 85.0878 248.925C85.0878 249.681 85.5498 250.087 86.5578 250.087C88.1678 250.087 89.0358 249.135 89.0358 248.421ZM87.9998 243.479C87.9998 242.569 87.4958 242.107 86.7398 242.107C86.0118 242.107 85.4518 242.597 85.4518 243.479C85.4518 244.403 85.9698 244.865 86.7398 244.865C87.4538 244.865 87.9998 244.375 87.9998 243.479ZM95.9044 247.651C95.2744 248.001 94.6304 248.155 93.8324 248.155C91.9004 248.155 90.9064 246.853 90.9064 244.683C90.9064 242.653 91.9704 241.295 93.6224 241.295C95.2044 241.295 95.8484 242.345 95.8484 243.787V244.571H91.9984C92.0124 246.321 92.6424 247.161 94.0704 247.161C94.6164 247.161 95.0364 247.007 95.5124 246.769L95.9044 247.651ZM94.7984 243.787C94.7984 242.807 94.4344 242.191 93.5664 242.191C92.7264 242.191 92.1944 242.849 92.0544 243.787H94.7984ZM102.545 248.001H101.425V243.745C101.425 242.779 101.061 242.289 100.179 242.289C99.5491 242.289 99.1011 242.555 98.6951 242.919V248.001H97.5751V242.961L97.3791 241.519L98.4851 241.337L98.5971 242.107H98.6111C99.1011 241.631 99.7451 241.295 100.557 241.295C101.663 241.295 102.545 242.009 102.545 243.353V248.001ZM108.981 241.575L108.631 242.583C108.267 242.443 107.861 242.317 107.399 242.317C106.167 242.317 105.425 243.241 105.425 244.627C105.425 246.377 106.111 247.175 107.371 247.175C107.819 247.175 108.183 247.021 108.547 246.867L108.925 247.777C108.379 248.029 107.777 248.155 107.147 248.155C105.271 248.155 104.305 246.811 104.305 244.809C104.305 242.401 105.789 241.295 107.455 241.295C108.029 241.295 108.519 241.393 108.981 241.575ZM115.268 241.449L113.084 247.399C112.384 249.331 111.446 250.493 109.164 250.955L108.954 250.045C110.62 249.709 111.502 248.701 111.936 247.609L109.584 241.547L110.69 241.253L112.496 246.125H112.51L114.162 241.449H115.268ZM123.857 247.931L122.737 248.113L122.639 247.343H122.625C122.149 247.791 121.631 248.169 120.847 248.169C119.755 248.169 119.111 247.511 119.111 246.475C119.111 245.299 120.035 244.725 121.365 244.585L122.541 244.459V243.871C122.541 242.961 122.261 242.317 121.183 242.317C120.637 242.317 120.231 242.485 119.825 242.695L119.419 241.869C120.007 241.519 120.609 241.295 121.449 241.295C122.765 241.295 123.647 242.065 123.647 243.367V246.489L123.857 247.931ZM122.541 246.643V245.215L121.519 245.355C120.679 245.467 120.217 245.733 120.217 246.335C120.217 246.881 120.553 247.245 121.113 247.245C121.771 247.245 122.177 246.965 122.541 246.643ZM130.131 241.575L129.781 242.583C129.417 242.443 129.011 242.317 128.549 242.317C127.317 242.317 126.575 243.241 126.575 244.627C126.575 246.377 127.261 247.175 128.521 247.175C128.969 247.175 129.333 247.021 129.697 246.867L130.075 247.777C129.529 248.029 128.927 248.155 128.297 248.155C126.421 248.155 125.455 246.811 125.455 244.809C125.455 242.401 126.939 241.295 128.605 241.295C129.179 241.295 129.669 241.393 130.131 241.575ZM135.655 241.575L135.305 242.583C134.941 242.443 134.535 242.317 134.073 242.317C132.841 242.317 132.099 243.241 132.099 244.627C132.099 246.377 132.785 247.175 134.045 247.175C134.493 247.175 134.857 247.021 135.221 246.867L135.599 247.777C135.053 248.029 134.451 248.155 133.821 248.155C131.945 248.155 130.979 246.811 130.979 244.809C130.979 242.401 132.463 241.295 134.129 241.295C134.703 241.295 135.193 241.393 135.655 241.575ZM142.102 244.725C142.102 246.643 141.192 248.155 139.302 248.155C137.23 248.155 136.502 246.685 136.502 244.725C136.502 242.807 137.412 241.295 139.302 241.295C141.374 241.295 142.102 242.765 142.102 244.725ZM140.954 244.753C140.954 243.129 140.408 242.275 139.302 242.275C138.224 242.275 137.65 243.031 137.65 244.683C137.65 246.307 138.196 247.175 139.302 247.175C140.38 247.175 140.954 246.405 140.954 244.753ZM149.048 247.931L147.942 248.113L147.83 247.357H147.816C147.326 247.819 146.682 248.155 145.87 248.155C144.764 248.155 143.882 247.441 143.882 246.097V242.961L143.686 241.519L145.002 241.337V245.705C145.002 246.671 145.366 247.175 146.248 247.175C146.878 247.175 147.326 246.909 147.732 246.531V242.961L147.536 241.519L148.852 241.337V246.489L149.048 247.931ZM156.057 248.001H154.937V243.745C154.937 242.779 154.573 242.289 153.691 242.289C153.061 242.289 152.613 242.555 152.207 242.919V248.001H151.087V242.961L150.891 241.519L151.997 241.337L152.109 242.107H152.123C152.613 241.631 153.257 241.295 154.069 241.295C155.175 241.295 156.057 242.009 156.057 243.353V248.001ZM161.541 247.735C161.135 247.959 160.757 248.141 160.043 248.141C159.035 248.141 158.391 247.483 158.391 246.363V242.359H157.425V241.617L158.391 241.421V240.329L159.497 240.189V241.449H161.331V242.359H159.497V245.985C159.497 246.867 159.721 247.147 160.365 247.147C160.715 247.147 160.981 247.007 161.177 246.881L161.541 247.735Z" fill="#00157E"/>
<path d="M61.964 262.629C61.292 262.977 60.608 263.133 59.696 263.133C57.932 263.133 56.576 261.945 56.576 259.545C56.576 256.989 58.088 255.645 60.032 255.645C60.836 255.645 61.328 255.765 61.94 256.029L61.556 256.905C61.1 256.701 60.668 256.545 60.02 256.545C58.76 256.545 57.608 257.517 57.608 259.293C57.608 261.273 58.34 262.245 60.092 262.245C60.668 262.245 61.196 262.017 61.628 261.825L61.964 262.629ZM68.4867 263.001H67.4787V259.701H64.2267V263.001H63.2187V255.777H64.2267V258.849H67.4787V255.777H68.4867V263.001ZM73.9043 262.521C73.9043 263.961 72.9803 264.873 71.3963 264.873C70.9283 264.873 70.4363 264.789 69.9923 264.681L70.2083 263.781C70.6043 263.901 70.9403 263.997 71.4203 263.997C72.3683 263.997 72.9443 263.529 72.9443 262.665C72.9443 261.489 71.8643 261.033 70.3403 261.033V260.349C72.1163 260.241 72.6083 259.449 72.6083 258.669C72.6083 257.985 72.1883 257.601 71.5163 257.601C70.9643 257.601 70.6403 257.781 70.2803 258.021L69.8843 257.361C70.3163 257.025 70.8683 256.749 71.7083 256.749C72.8603 256.749 73.5683 257.433 73.5683 258.549C73.5683 259.521 73.0043 260.169 72.2003 260.553V260.565C73.3763 260.817 73.9043 261.597 73.9043 262.521ZM78.9696 261.921C78.9696 264.225 76.7976 264.873 75.2496 264.993L75.1296 264.177C76.2216 264.057 77.9856 263.625 77.9856 262.053C77.9856 261.069 77.4336 260.493 75.8976 260.493H75.0936L75.3576 256.881H78.7776V257.757H76.1856L76.0296 259.773C76.0296 259.773 76.3056 259.749 76.5576 259.749C77.9496 259.749 78.9696 260.481 78.9696 261.921ZM87.5593 259.941C87.5593 261.537 86.9353 263.133 85.1233 263.133C83.2993 263.133 82.6753 261.537 82.6753 259.941C82.6753 258.345 83.2993 256.749 85.1233 256.749C86.9353 256.749 87.5593 258.345 87.5593 259.941ZM86.5753 259.941C86.5753 258.597 86.1313 257.589 85.1233 257.589C84.1033 257.589 83.6593 258.597 83.6593 259.941C83.6593 261.285 84.1033 262.293 85.1233 262.293C86.1313 262.293 86.5753 261.285 86.5753 259.941ZM93.1231 259.845C93.1231 263.157 91.4431 264.705 89.0551 264.993L88.8631 264.213C90.3751 264.033 91.8991 263.061 92.1151 260.769L92.1031 260.757C92.1031 260.757 91.5391 261.237 90.6871 261.237C89.4871 261.237 88.7071 260.337 88.7071 259.101C88.7071 257.601 89.6071 256.749 90.9631 256.749C92.3551 256.749 93.1231 257.709 93.1231 259.845ZM92.1271 259.833C92.1271 258.645 91.9111 257.565 90.8431 257.565C90.0871 257.565 89.6431 258.189 89.6431 258.969C89.6431 259.965 90.0991 260.445 90.9511 260.445C91.6831 260.445 92.1271 260.013 92.1271 260.013V259.833ZM99.3484 259.941C99.3484 261.537 98.7244 263.133 96.9124 263.133C95.0884 263.133 94.4644 261.537 94.4644 259.941C94.4644 258.345 95.0884 256.749 96.9124 256.749C98.7244 256.749 99.3484 258.345 99.3484 259.941ZM98.3644 259.941C98.3644 258.597 97.9204 257.589 96.9124 257.589C95.8924 257.589 95.4484 258.597 95.4484 259.941C95.4484 261.285 95.8924 262.293 96.9124 262.293C97.9204 262.293 98.3644 261.285 98.3644 259.941ZM105.524 259.941C105.524 261.537 104.9 263.133 103.088 263.133C101.264 263.133 100.64 261.537 100.64 259.941C100.64 258.345 101.264 256.749 103.088 256.749C104.9 256.749 105.524 258.345 105.524 259.941ZM104.54 259.941C104.54 258.597 104.096 257.589 103.088 257.589C102.068 257.589 101.624 258.597 101.624 259.941C101.624 261.285 102.068 262.293 103.088 262.293C104.096 262.293 104.54 261.285 104.54 259.941ZM114.22 259.941C114.22 261.537 113.596 263.133 111.784 263.133C109.96 263.133 109.336 261.537 109.336 259.941C109.336 258.345 109.96 256.749 111.784 256.749C113.596 256.749 114.22 258.345 114.22 259.941ZM113.236 259.941C113.236 258.597 112.792 257.589 111.784 257.589C110.764 257.589 110.32 258.597 110.32 259.941C110.32 261.285 110.764 262.293 111.784 262.293C112.792 262.293 113.236 261.285 113.236 259.941ZM120.395 259.941C120.395 261.537 119.771 263.133 117.959 263.133C116.135 263.133 115.511 261.537 115.511 259.941C115.511 258.345 116.135 256.749 117.959 256.749C119.771 256.749 120.395 258.345 120.395 259.941ZM119.411 259.941C119.411 258.597 118.967 257.589 117.959 257.589C116.939 257.589 116.495 258.597 116.495 259.941C116.495 261.285 116.939 262.293 117.959 262.293C118.967 262.293 119.411 261.285 119.411 259.941ZM126.571 259.941C126.571 261.537 125.947 263.133 124.135 263.133C122.311 263.133 121.687 261.537 121.687 259.941C121.687 258.345 122.311 256.749 124.135 256.749C125.947 256.749 126.571 258.345 126.571 259.941ZM125.587 259.941C125.587 258.597 125.143 257.589 124.135 257.589C123.115 257.589 122.671 258.597 122.671 259.941C122.671 261.285 123.115 262.293 124.135 262.293C125.143 262.293 125.587 261.285 125.587 259.941ZM132.747 259.941C132.747 261.537 132.123 263.133 130.311 263.133C128.487 263.133 127.863 261.537 127.863 259.941C127.863 258.345 128.487 256.749 130.311 256.749C132.123 256.749 132.747 258.345 132.747 259.941ZM131.763 259.941C131.763 258.597 131.319 257.589 130.311 257.589C129.291 257.589 128.847 258.597 128.847 259.941C128.847 261.285 129.291 262.293 130.311 262.293C131.319 262.293 131.763 261.285 131.763 259.941ZM140.842 263.001H136.39V262.377L138.442 260.409C138.994 259.869 139.414 259.473 139.414 258.813C139.414 258.117 138.982 257.601 138.178 257.601C137.638 257.601 137.254 257.841 136.966 258.081L136.51 257.445C137.026 257.013 137.554 256.749 138.382 256.749C139.57 256.749 140.386 257.445 140.386 258.705C140.386 259.545 139.882 260.181 139.306 260.709L137.77 262.125V262.137H140.842V263.001ZM147.36 262.245H145.908V264.693L144.984 264.849V262.245H141.684V261.465L145.02 256.881H145.908V261.429H147.36V262.245ZM144.984 261.429V258.177H144.972L142.668 261.429H144.984ZM151.969 257.697L148.537 264.981L147.733 264.573L150.925 257.757H147.661V256.881H151.969V257.697ZM157.708 259.941C157.708 261.537 157.084 263.133 155.272 263.133C153.448 263.133 152.824 261.537 152.824 259.941C152.824 258.345 153.448 256.749 155.272 256.749C157.084 256.749 157.708 258.345 157.708 259.941ZM156.724 259.941C156.724 258.597 156.28 257.589 155.272 257.589C154.252 257.589 153.808 258.597 153.808 259.941C153.808 261.285 154.252 262.293 155.272 262.293C156.28 262.293 156.724 261.285 156.724 259.941ZM165.803 263.001H161.351V262.377L163.403 260.409C163.955 259.869 164.375 259.473 164.375 258.813C164.375 258.117 163.943 257.601 163.139 257.601C162.599 257.601 162.215 257.841 161.927 258.081L161.471 257.445C161.987 257.013 162.515 256.749 163.343 256.749C164.531 256.749 165.347 257.445 165.347 258.705C165.347 259.545 164.843 260.181 164.267 260.709L162.731 262.125V262.137H165.803V263.001ZM171.088 259.845C171.088 263.157 169.408 264.705 167.02 264.993L166.828 264.213C168.34 264.033 169.864 263.061 170.08 260.769L170.068 260.757C170.068 260.757 169.504 261.237 168.652 261.237C167.452 261.237 166.672 260.337 166.672 259.101C166.672 257.601 167.572 256.749 168.928 256.749C170.32 256.749 171.088 257.709 171.088 259.845ZM170.092 259.833C170.092 258.645 169.876 257.565 168.808 257.565C168.052 257.565 167.608 258.189 167.608 258.969C167.608 259.965 168.064 260.445 168.916 260.445C169.648 260.445 170.092 260.013 170.092 260.013V259.833ZM176.713 263.001H172.261V262.377L174.313 260.409C174.865 259.869 175.285 259.473 175.285 258.813C175.285 258.117 174.853 257.601 174.049 257.601C173.509 257.601 173.125 257.841 172.837 258.081L172.381 257.445C172.897 257.013 173.425 256.749 174.253 256.749C175.441 256.749 176.257 257.445 176.257 258.705C176.257 259.545 175.753 260.181 175.177 260.709L173.641 262.125V262.137H176.713V263.001ZM182.61 259.941C182.61 261.537 181.986 263.133 180.174 263.133C178.35 263.133 177.726 261.537 177.726 259.941C177.726 258.345 178.35 256.749 180.174 256.749C181.986 256.749 182.61 258.345 182.61 259.941ZM181.626 259.941C181.626 258.597 181.182 257.589 180.174 257.589C179.154 257.589 178.71 258.597 178.71 259.941C178.71 261.285 179.154 262.293 180.174 262.293C181.182 262.293 181.626 261.285 181.626 259.941ZM190.189 262.521C190.189 263.961 189.265 264.873 187.681 264.873C187.213 264.873 186.721 264.789 186.277 264.681L186.493 263.781C186.889 263.901 187.225 263.997 187.705 263.997C188.653 263.997 189.229 263.529 189.229 262.665C189.229 261.489 188.149 261.033 186.625 261.033V260.349C188.401 260.241 188.893 259.449 188.893 258.669C188.893 257.985 188.473 257.601 187.801 257.601C187.249 257.601 186.925 257.781 186.565 258.021L186.169 257.361C186.601 257.025 187.153 256.749 187.993 256.749C189.145 256.749 189.853 257.433 189.853 258.549C189.853 259.521 189.289 260.169 188.485 260.553V260.565C189.661 260.817 190.189 261.597 190.189 262.521Z" fill="#00157E" fill-opacity="0.7"/>
<path d="M327.964 246.629C327.292 246.977 326.608 247.133 325.696 247.133C323.932 247.133 322.576 245.945 322.576 243.545C322.576 240.989 324.088 239.645 326.032 239.645C326.836 239.645 327.328 239.765 327.94 240.029L327.556 240.905C327.1 240.701 326.668 240.545 326.02 240.545C324.76 240.545 323.608 241.517 323.608 243.293C323.608 245.273 324.34 246.245 326.092 246.245C326.668 246.245 327.196 246.017 327.628 245.825L327.964 246.629ZM334.487 247.001H333.479V243.701H330.227V247.001H329.219V239.777H330.227V242.849H333.479V239.777H334.487V247.001ZM340.072 240.629H337.48V242.981H339.82V243.833H337.48V247.001H336.484V239.777H340.072V240.629Z" fill="#00157E" fill-opacity="0.7"/>
<path d="M352.716 248.001H350.938V242.331L349.706 242.499L349.496 241.239L352.716 240.721V248.001ZM360.296 244.431C360.296 246.391 359.442 248.169 357.286 248.169C355.13 248.169 354.276 246.391 354.276 244.431C354.276 242.471 355.13 240.693 357.286 240.693C359.442 240.693 360.296 242.471 360.296 244.431ZM358.504 244.431C358.504 243.087 358.126 242.275 357.286 242.275C356.46 242.275 356.068 243.087 356.068 244.431C356.068 245.775 356.46 246.587 357.286 246.587C358.126 246.587 358.504 245.775 358.504 244.431ZM363.692 240.595C363.692 242.023 363.118 242.821 362.082 243.563L361.578 243.017C362.068 242.597 362.39 242.149 362.502 241.533C361.984 241.477 361.564 241.015 361.564 240.483C361.564 239.909 362.04 239.433 362.614 239.433C363.216 239.433 363.692 239.881 363.692 240.595ZM370.974 244.431C370.974 246.391 370.12 248.169 367.964 248.169C365.808 248.169 364.954 246.391 364.954 244.431C364.954 242.471 365.808 240.693 367.964 240.693C370.12 240.693 370.974 242.471 370.974 244.431ZM369.182 244.431C369.182 243.087 368.804 242.275 367.964 242.275C367.138 242.275 366.746 243.087 366.746 244.431C366.746 245.775 367.138 246.587 367.964 246.587C368.804 246.587 369.182 245.775 369.182 244.431ZM378.22 244.431C378.22 246.391 377.366 248.169 375.21 248.169C373.054 248.169 372.2 246.391 372.2 244.431C372.2 242.471 373.054 240.693 375.21 240.693C377.366 240.693 378.22 242.471 378.22 244.431ZM376.428 244.431C376.428 243.087 376.05 242.275 375.21 242.275C374.384 242.275 373.992 243.087 373.992 244.431C373.992 245.775 374.384 246.587 375.21 246.587C376.05 246.587 376.428 245.775 376.428 244.431ZM385.466 244.431C385.466 246.391 384.612 248.169 382.456 248.169C380.3 248.169 379.446 246.391 379.446 244.431C379.446 242.471 380.3 240.693 382.456 240.693C384.612 240.693 385.466 242.471 385.466 244.431ZM383.674 244.431C383.674 243.087 383.296 242.275 382.456 242.275C381.63 242.275 381.238 243.087 381.238 244.431C381.238 245.775 381.63 246.587 382.456 246.587C383.296 246.587 383.674 245.775 383.674 244.431ZM388.862 247.049C388.862 247.637 388.386 248.113 387.798 248.113C387.21 248.113 386.734 247.637 386.734 247.049C386.734 246.475 387.21 245.999 387.798 245.999C388.386 245.999 388.862 246.475 388.862 247.049ZM396.144 244.431C396.144 246.391 395.29 248.169 393.134 248.169C390.978 248.169 390.124 246.391 390.124 244.431C390.124 242.471 390.978 240.693 393.134 240.693C395.29 240.693 396.144 242.471 396.144 244.431ZM394.352 244.431C394.352 243.087 393.974 242.275 393.134 242.275C392.308 242.275 391.916 243.087 391.916 244.431C391.916 245.775 392.308 246.587 393.134 246.587C393.974 246.587 394.352 245.775 394.352 244.431ZM403.39 244.431C403.39 246.391 402.536 248.169 400.38 248.169C398.224 248.169 397.37 246.391 397.37 244.431C397.37 242.471 398.224 240.693 400.38 240.693C402.536 240.693 403.39 242.471 403.39 244.431ZM401.598 244.431C401.598 243.087 401.22 242.275 400.38 242.275C399.554 242.275 399.162 243.087 399.162 244.431C399.162 245.775 399.554 246.587 400.38 246.587C401.22 246.587 401.598 245.775 401.598 244.431Z" fill="#00157E"/>
<defs>
<clipPath id="clip0_369_674">
<rect width="24" height="24" fill="white" transform="translate(16 184.001)"/>
</clipPath>
</defs>
</svg>
