<svg width="421" height="56" viewBox="0 0 421 56" fill="none" xmlns="http://www.w3.org/2000/svg">
<path d="M6.88623 15.734L5.85023 16.238L3.48423 12.402C3.27423 12.43 3.07823 12.444 2.86823 12.444H2.65823V16H1.49623V7.642C1.49623 7.642 2.56023 7.488 3.65223 7.488C5.27623 7.488 6.29823 8.272 6.29823 9.602C6.29823 10.89 5.55623 11.688 4.56223 12.08L6.88623 15.734ZM5.16423 9.812C5.16423 8.804 4.46423 8.37 3.45623 8.37C3.00823 8.37 2.65823 8.412 2.65823 8.412V11.59H2.84023C3.97423 11.59 5.16423 11.114 5.16423 9.812ZM12.7855 15.65C12.1555 16 11.5115 16.154 10.7135 16.154C8.78148 16.154 7.78748 14.852 7.78748 12.682C7.78748 10.652 8.85148 9.294 10.5035 9.294C12.0855 9.294 12.7295 10.344 12.7295 11.786V12.57H8.87948C8.89348 14.32 9.52348 15.16 10.9515 15.16C11.4975 15.16 11.9175 15.006 12.3935 14.768L12.7855 15.65ZM11.6795 11.786C11.6795 10.806 11.3155 10.19 10.4475 10.19C9.60748 10.19 9.07548 10.848 8.93548 11.786H11.6795ZM19.3702 15.958L18.2922 16.112L18.1942 15.454H18.1802C17.7602 15.804 17.1862 16.154 16.4162 16.154C14.9742 16.154 14.0082 14.964 14.0082 13.018C14.0082 10.764 15.1702 9.378 17.1582 9.378C17.6902 9.378 18.0682 9.476 18.0682 9.476V8.062L17.8582 6.62L19.1742 6.438V14.516L19.3702 15.958ZM16.8082 15.174C17.3542 15.174 17.7322 14.95 18.0682 14.684V10.498C18.0682 10.498 17.7042 10.316 17.0602 10.316C15.7862 10.316 15.1562 11.394 15.1562 12.668C15.1562 14.25 15.5762 15.174 16.8082 15.174ZM28.9886 16H23.7946V15.272L26.1886 12.976C26.8326 12.346 27.3226 11.884 27.3226 11.114C27.3226 10.302 26.8186 9.7 25.8806 9.7C25.2506 9.7 24.8026 9.98 24.4666 10.26L23.9346 9.518C24.5366 9.014 25.1526 8.706 26.1186 8.706C27.5046 8.706 28.4566 9.518 28.4566 10.988C28.4566 11.968 27.8686 12.71 27.1966 13.326L25.4046 14.978V14.992H28.9886V16ZM32.2443 16H31.1383V9.812L29.9063 9.98L29.7803 9.126L32.2443 8.734V16Z" fill="#00157E" fill-opacity="0.7"/>
<path d="M0.333252 40.001C0.333252 38.8964 1.22868 38.001 2.33325 38.001H417.333C418.438 38.001 419.333 38.8964 419.333 40.001C419.333 41.1055 418.438 42.001 417.333 42.001H2.33325C1.22868 42.001 0.333252 41.1055 0.333252 40.001Z" fill="#00157E" fill-opacity="0.4"/>
<path d="M0 39.9333C0 38.8288 0.895431 37.9333 2 37.9333H56C57.1046 37.9333 58 38.8288 58 39.9333C58 41.0379 57.1046 41.9333 56 41.9333H2C0.895432 41.9333 0 41.0379 0 39.9333Z" fill="#00157E"/>
<circle cx="58" cy="39.9333" r="8" fill="#00157E"/>
</svg>
