<svg width="420" height="42" viewBox="0 0 420 42" fill="none" xmlns="http://www.w3.org/2000/svg">
<path d="M6.98885 17.504H4.30085V26H2.95685V17.504H0.268852V16.368H6.98885V17.504ZM13.1846 22.256C13.1846 24.448 12.1446 26.176 9.9846 26.176C7.6166 26.176 6.7846 24.496 6.7846 22.256C6.7846 20.064 7.8246 18.336 9.9846 18.336C12.3526 18.336 13.1846 20.016 13.1846 22.256ZM11.8726 22.288C11.8726 20.432 11.2486 19.456 9.9846 19.456C8.7526 19.456 8.0966 20.32 8.0966 22.208C8.0966 24.064 8.7206 25.056 9.9846 25.056C11.2166 25.056 11.8726 24.176 11.8726 22.288ZM21.3305 19.456H19.8265C20.0505 19.84 20.1785 20.288 20.1785 20.832C20.1785 22.352 19.0745 23.376 17.5385 23.376C17.2345 23.376 16.9465 23.328 16.6905 23.264C16.6905 23.264 16.1785 23.552 16.1785 24.128C16.1785 24.624 16.5465 24.72 17.0585 24.72H19.2025C20.5145 24.72 21.2825 25.12 21.2825 26.288C21.2825 27.76 19.7785 29.424 17.0425 29.424C15.4745 29.424 14.5145 28.656 14.5145 27.344C14.5145 26.112 15.5225 25.504 15.5225 25.504C15.2025 25.296 14.9945 24.976 14.9945 24.448C14.9945 23.52 15.7945 23.056 15.9545 22.976C15.2505 22.544 14.8665 21.808 14.8665 20.832C14.8665 19.312 15.9865 18.304 17.5385 18.304C18.1145 18.304 18.6425 18.432 19.0585 18.688L21.3305 18.336V19.456ZM20.1625 26.48C20.1625 25.936 19.6985 25.824 18.9145 25.824H16.8985C16.6745 25.824 16.4665 25.808 16.2585 25.776C16.2585 25.776 15.6505 26.256 15.6505 27.056C15.6505 27.92 16.1785 28.384 17.3305 28.384C19.1705 28.384 20.1625 27.296 20.1625 26.48ZM18.9785 20.832C18.9785 19.792 18.4025 19.264 17.5385 19.264C16.7065 19.264 16.0665 19.824 16.0665 20.832C16.0665 21.888 16.6585 22.416 17.5385 22.416C18.3545 22.416 18.9785 21.856 18.9785 20.832ZM29.268 19.456H27.764C27.988 19.84 28.116 20.288 28.116 20.832C28.116 22.352 27.012 23.376 25.476 23.376C25.172 23.376 24.884 23.328 24.628 23.264C24.628 23.264 24.116 23.552 24.116 24.128C24.116 24.624 24.484 24.72 24.996 24.72H27.14C28.452 24.72 29.22 25.12 29.22 26.288C29.22 27.76 27.716 29.424 24.98 29.424C23.412 29.424 22.452 28.656 22.452 27.344C22.452 26.112 23.46 25.504 23.46 25.504C23.14 25.296 22.932 24.976 22.932 24.448C22.932 23.52 23.732 23.056 23.892 22.976C23.188 22.544 22.804 21.808 22.804 20.832C22.804 19.312 23.924 18.304 25.476 18.304C26.052 18.304 26.58 18.432 26.996 18.688L29.268 18.336V19.456ZM28.1 26.48C28.1 25.936 27.636 25.824 26.852 25.824H24.836C24.612 25.824 24.404 25.808 24.196 25.776C24.196 25.776 23.588 26.256 23.588 27.056C23.588 27.92 24.116 28.384 25.268 28.384C27.108 28.384 28.1 27.296 28.1 26.48ZM26.916 20.832C26.916 19.792 26.34 19.264 25.476 19.264C24.644 19.264 24.004 19.824 24.004 20.832C24.004 21.888 24.596 22.416 25.476 22.416C26.292 22.416 26.916 21.856 26.916 20.832ZM32.2165 26H30.9365V16.928L30.7125 15.28L32.2165 15.072V26ZM39.9497 25.6C39.2297 26 38.4937 26.176 37.5817 26.176C35.3737 26.176 34.2377 24.688 34.2377 22.208C34.2377 19.888 35.4537 18.336 37.3417 18.336C39.1497 18.336 39.8857 19.536 39.8857 21.184V22.08H35.4857C35.5017 24.08 36.2217 25.04 37.8537 25.04C38.4777 25.04 38.9577 24.864 39.5017 24.592L39.9497 25.6ZM38.6857 21.184C38.6857 20.064 38.2697 19.36 37.2777 19.36C36.3177 19.36 35.7097 20.112 35.5497 21.184H38.6857ZM49.5545 23.824C49.5545 25.184 48.4825 26.16 46.8825 26.16C46.1145 26.16 45.3465 26.048 44.7385 25.76L45.1225 24.64C45.6505 24.88 46.2425 25.072 46.8185 25.072C47.6825 25.072 48.2585 24.736 48.2585 24.032C48.2585 23.488 47.9705 23.264 47.4745 23.04L46.0825 22.4C45.5865 22.176 44.6905 21.728 44.6905 20.432C44.6905 19.008 45.9385 18.336 47.2985 18.336C48.1145 18.336 48.6905 18.464 49.3305 18.736L48.8985 19.84C48.3865 19.616 47.8905 19.456 47.2825 19.456C46.4665 19.456 45.9385 19.712 45.9385 20.352C45.9385 20.912 46.4185 21.136 46.7225 21.28L48.1465 21.952C49.1385 22.416 49.5545 23.008 49.5545 23.824ZM60.5539 18.512L58.4899 25.968L57.3059 26.032L55.4819 20.352H55.4659L53.6259 25.984L52.4419 26.032L50.5699 18.592L51.7859 18.288L53.1299 24.128H53.1459L54.8899 18.512H56.1379L57.8979 24.128H57.9139L59.3059 18.512H60.5539ZM63.5461 26H62.2661V20.24L62.0421 18.592L63.5461 18.384V26ZM63.8021 16.56C63.8021 17.072 63.4021 17.456 62.9221 17.456C62.4261 17.456 62.0101 17.072 62.0101 16.56C62.0101 16.048 62.4261 15.648 62.9221 15.648C63.4021 15.648 63.8021 16.048 63.8021 16.56ZM69.8531 25.696C69.3891 25.952 68.9571 26.16 68.1411 26.16C66.9891 26.16 66.2531 25.408 66.2531 24.128V19.552H65.1491V18.704L66.2531 18.48V17.232L67.5171 17.072V18.512H69.6131V19.552H67.5171V23.696C67.5171 24.704 67.7731 25.024 68.5091 25.024C68.9091 25.024 69.2131 24.864 69.4371 24.72L69.8531 25.696ZM76.1755 18.656L75.7755 19.808C75.3595 19.648 74.8955 19.504 74.3675 19.504C72.9595 19.504 72.1115 20.56 72.1115 22.144C72.1115 24.144 72.8955 25.056 74.3355 25.056C74.8475 25.056 75.2635 24.88 75.6795 24.704L76.1115 25.744C75.4875 26.032 74.7995 26.176 74.0795 26.176C71.9355 26.176 70.8315 24.64 70.8315 22.352C70.8315 19.6 72.5275 18.336 74.4315 18.336C75.0875 18.336 75.6475 18.448 76.1755 18.656ZM83.5692 26H82.3052V21.136C82.3052 20.048 81.8732 19.488 80.8492 19.488C80.1132 19.488 79.6172 19.808 79.1852 20.192V26H77.9052V16.928L77.6812 15.28L79.1852 15.072V19.168H79.2012C79.6972 18.736 80.3852 18.336 81.3132 18.336C82.5932 18.336 83.5692 19.136 83.5692 20.688V26Z" fill="#00157E"/>
<rect x="376.999" y="9" width="42" height="24" rx="12" fill="#00157E" stroke="#00157E" stroke-width="2"/>
<circle cx="407" cy="21" r="8" fill="white"/>
</svg>
