<svg width="514" height="96" viewBox="0 0 514 96" fill="none" xmlns="http://www.w3.org/2000/svg">
<g clip-path="url(#clip0_325_1230712)">
<path d="M5.558 16H1.162V7.572H2.338V15.006H5.558V16ZM11.2422 15.93L10.1222 16.112L10.0242 15.342H10.0102C9.53422 15.79 9.01622 16.168 8.23222 16.168C7.14022 16.168 6.49622 15.51 6.49622 14.474C6.49622 13.298 7.42022 12.724 8.75022 12.584L9.92622 12.458V11.87C9.92622 10.96 9.64622 10.316 8.56822 10.316C8.02222 10.316 7.61622 10.484 7.21022 10.694L6.80422 9.868C7.39222 9.518 7.99422 9.294 8.83422 9.294C10.1502 9.294 11.0322 10.064 11.0322 11.366V14.488L11.2422 15.93ZM9.92622 14.642V13.214L8.90422 13.354C8.06422 13.466 7.60222 13.732 7.60222 14.334C7.60222 14.88 7.93822 15.244 8.49822 15.244C9.15622 15.244 9.56222 14.964 9.92622 14.642ZM18.468 12.332C18.468 14.516 17.334 16.14 15.262 16.14C14.534 16.14 13.736 16.014 13.26 15.832V8.062L13.064 6.62L14.38 6.438V9.952H14.394C14.814 9.602 15.374 9.294 16.116 9.294C17.656 9.294 18.468 10.4 18.468 12.332ZM17.334 12.738C17.334 11.296 16.998 10.316 15.724 10.316C15.136 10.316 14.716 10.554 14.38 10.848V15.062C14.66 15.132 14.94 15.174 15.36 15.174C16.662 15.174 17.334 14.068 17.334 12.738ZM24.8106 15.65C24.1806 16 23.5366 16.154 22.7386 16.154C20.8066 16.154 19.8126 14.852 19.8126 12.682C19.8126 10.652 20.8766 9.294 22.5286 9.294C24.1106 9.294 24.7546 10.344 24.7546 11.786V12.57H20.9046C20.9186 14.32 21.5486 15.16 22.9766 15.16C23.5226 15.16 23.9426 15.006 24.4186 14.768L24.8106 15.65ZM23.7046 11.786C23.7046 10.806 23.3406 10.19 22.4726 10.19C21.6326 10.19 21.1006 10.848 20.9606 11.786H23.7046ZM27.5733 16H26.4533V8.062L26.2573 6.62L27.5733 6.438V16ZM36.0054 15.734C35.5994 15.958 35.2214 16.14 34.5074 16.14C33.4994 16.14 32.8554 15.482 32.8554 14.362V10.358H31.8894V9.616L32.8554 9.42V8.328L33.9614 8.188V9.448H35.7954V10.358H33.9614V13.984C33.9614 14.866 34.1854 15.146 34.8294 15.146C35.1794 15.146 35.4454 15.006 35.6414 14.88L36.0054 15.734ZM41.8595 15.65C41.2295 16 40.5855 16.154 39.7875 16.154C37.8555 16.154 36.8615 14.852 36.8615 12.682C36.8615 10.652 37.9255 9.294 39.5775 9.294C41.1595 9.294 41.8035 10.344 41.8035 11.786V12.57H37.9535C37.9675 14.32 38.5975 15.16 40.0255 15.16C40.5715 15.16 40.9915 15.006 41.4675 14.768L41.8595 15.65ZM40.7535 11.786C40.7535 10.806 40.3895 10.19 39.5215 10.19C38.6815 10.19 38.1495 10.848 38.0095 11.786H40.7535ZM48.1085 15.706L47.1565 16.238L45.3365 13.438H45.3225L43.6845 16H42.5085L44.7905 12.598L42.8305 9.742L43.7685 9.21L45.3925 11.674H45.4065L46.8065 9.448H47.9965L45.9245 12.5L48.1085 15.706ZM52.7534 15.734C52.3474 15.958 51.9694 16.14 51.2554 16.14C50.2474 16.14 49.6034 15.482 49.6034 14.362V10.358H48.6374V9.616L49.6034 9.42V8.328L50.7094 8.188V9.448H52.5434V10.358H50.7094V13.984C50.7094 14.866 50.9334 15.146 51.5774 15.146C51.9274 15.146 52.1934 15.006 52.3894 14.88L52.7534 15.734Z" fill="#00157E" fill-opacity="0.7"/>
</g>
<g clip-path="url(#clip1_325_1230712)">
<mask id="path-2-inside-1_325_1230712" fill="white">
<path d="M0 28H514V76H0V28Z"/>
</mask>
<path d="M8.82173 57H7.47773V52.6H3.14173V57H1.79773V47.368H3.14173V51.464H7.47773V47.368H8.82173V57ZM16.3492 56.92L15.0692 57.128L14.9572 56.248H14.9412C14.3972 56.76 13.8052 57.192 12.9092 57.192C11.6612 57.192 10.9252 56.44 10.9252 55.256C10.9252 53.912 11.9812 53.256 13.5012 53.096L14.8452 52.952V52.28C14.8452 51.24 14.5252 50.504 13.2932 50.504C12.6692 50.504 12.2052 50.696 11.7412 50.936L11.2772 49.992C11.9492 49.592 12.6372 49.336 13.5972 49.336C15.1012 49.336 16.1092 50.216 16.1092 51.704V55.272L16.3492 56.92ZM14.8452 55.448V53.816L13.6772 53.976C12.7172 54.104 12.1892 54.408 12.1892 55.096C12.1892 55.72 12.5732 56.136 13.2132 56.136C13.9652 56.136 14.4292 55.816 14.8452 55.448ZM24.3672 57H23.0872V52.136C23.0872 51.032 22.6712 50.472 21.6632 50.472C20.9432 50.472 20.4312 50.776 19.9672 51.192V57H18.6872V51.24L18.4632 49.592L19.7272 49.384L19.8552 50.264H19.8712C20.4312 49.72 21.1672 49.336 22.0952 49.336C23.3592 49.336 24.3672 50.152 24.3672 51.688V57ZM31.2264 54.824C31.2264 56.184 30.1544 57.16 28.5544 57.16C27.7864 57.16 27.0184 57.048 26.4104 56.76L26.7944 55.64C27.3224 55.88 27.9144 56.072 28.4904 56.072C29.3544 56.072 29.9304 55.736 29.9304 55.032C29.9304 54.488 29.6424 54.264 29.1464 54.04L27.7544 53.4C27.2584 53.176 26.3624 52.728 26.3624 51.432C26.3624 50.008 27.6104 49.336 28.9704 49.336C29.7864 49.336 30.3624 49.464 31.0024 49.736L30.5704 50.84C30.0584 50.616 29.5624 50.456 28.9544 50.456C28.1384 50.456 27.6104 50.712 27.6104 51.352C27.6104 51.912 28.0904 52.136 28.3944 52.28L29.8184 52.952C30.8104 53.416 31.2264 54.008 31.2264 54.824ZM46.4811 56.968L45.2011 57.064L44.9291 49.608H44.9131L42.0811 57H40.6891L38.0171 49.624H38.0011L37.6171 57H36.4491L37.0731 47.368H38.4811L41.5051 55.4H41.5211L44.5771 47.368H45.9691L46.4811 56.968ZM54.0591 56.6C53.3391 57 52.6031 57.176 51.6911 57.176C49.4831 57.176 48.3471 55.688 48.3471 53.208C48.3471 50.888 49.5631 49.336 51.4511 49.336C53.2591 49.336 53.9951 50.536 53.9951 52.184V53.08H49.5951C49.6111 55.08 50.3311 56.04 51.9631 56.04C52.5871 56.04 53.0671 55.864 53.6111 55.592L54.0591 56.6ZM52.7951 52.184C52.7951 51.064 52.3791 50.36 51.3871 50.36C50.4271 50.36 49.8191 51.112 49.6591 52.184H52.7951ZM61.3925 49.512L58.8965 56.312C58.0965 58.52 57.0245 59.848 54.4165 60.376L54.1765 59.336C56.0805 58.952 57.0885 57.8 57.5845 56.552L54.8965 49.624L56.1605 49.288L58.2245 54.856H58.2405L60.1285 49.512H61.3925ZM67.981 56.6C67.261 57 66.525 57.176 65.613 57.176C63.405 57.176 62.269 55.688 62.269 53.208C62.269 50.888 63.485 49.336 65.373 49.336C67.181 49.336 67.917 50.536 67.917 52.184V53.08H63.517C63.533 55.08 64.253 56.04 65.885 56.04C66.509 56.04 66.989 55.864 67.533 55.592L67.981 56.6ZM66.717 52.184C66.717 51.064 66.301 50.36 65.309 50.36C64.349 50.36 63.741 51.112 63.581 52.184H66.717ZM73.2504 50.616C72.3864 50.616 71.7464 50.84 71.1704 51.368V57H69.8904V51.24L69.6664 49.592L70.9304 49.384L71.0584 50.408H71.0744C71.5864 49.832 72.2584 49.352 73.2504 49.352V50.616Z" fill="#00157E"/>
<path d="M481.999 40C481.999 37.7909 483.79 36 485.999 36H509.999C512.208 36 513.999 37.7909 513.999 40V64C513.999 66.2091 512.208 68 509.999 68H485.999C483.79 68 481.999 66.2091 481.999 64V40Z" fill="white"/>
<path d="M501.999 43L506.999 48L493.999 61H488.999V56L501.999 43Z" stroke="#00157E" stroke-width="2" stroke-linecap="round" stroke-linejoin="round"/>
</g>
<path d="M514 76V75H0V76V77H514V76Z" fill="#00157E" fill-opacity="0.2" mask="url(#path-2-inside-1_325_1230712)"/>
<g clip-path="url(#clip2_325_1230712)">
<g clip-path="url(#clip3_325_1230712)">
<path d="M7.99992 94.6666C11.6818 94.6666 14.6666 91.6818 14.6666 87.9999C14.6666 84.318 11.6818 81.3333 7.99992 81.3333C4.31802 81.3333 1.33325 84.318 1.33325 87.9999C1.33325 91.6818 4.31802 94.6666 7.99992 94.6666Z" stroke="#00157E" stroke-width="2" stroke-linecap="round" stroke-linejoin="round"/>
<path d="M8 90.6667V88" stroke="#00157E" stroke-width="2" stroke-linecap="round" stroke-linejoin="round"/>
<path d="M8 85.3333H8.00667" stroke="#00157E" stroke-width="2" stroke-linecap="round" stroke-linejoin="round"/>
</g>
<path d="M32.33 87.786C32.33 89.998 31.336 92.154 28.522 92.154C25.652 92.154 24.672 90.026 24.672 87.786C24.672 85.56 25.694 83.418 28.522 83.418C31.392 83.418 32.33 85.532 32.33 87.786ZM31.098 87.786C31.098 85.728 30.3 84.412 28.522 84.412C26.758 84.412 25.932 85.784 25.932 87.786C25.932 89.83 26.73 91.16 28.522 91.16C30.258 91.16 31.098 89.788 31.098 87.786ZM39.2681 88.402C39.2681 90.53 38.3441 92.07 36.1601 92.07C35.7961 92.07 35.5021 92.042 35.2361 91.972V94.772L34.1161 94.954V86.96L33.9201 85.518L35.0261 85.336L35.1241 86.008H35.1381C35.5721 85.644 36.1461 85.294 36.9021 85.294C38.4981 85.294 39.2681 86.498 39.2681 88.402ZM38.1481 88.724C38.1481 87.296 37.8261 86.302 36.5241 86.302C35.9641 86.302 35.5581 86.54 35.2361 86.806V90.936C35.5021 91.048 35.8101 91.118 36.2441 91.118C37.4621 91.118 38.1481 90.166 38.1481 88.724ZM44.228 91.734C43.822 91.958 43.444 92.14 42.73 92.14C41.722 92.14 41.078 91.482 41.078 90.362V86.358H40.112V85.616L41.078 85.42V84.328L42.184 84.188V85.448H44.018V86.358H42.184V89.984C42.184 90.866 42.408 91.146 43.052 91.146C43.402 91.146 43.668 91.006 43.864 90.88L44.228 91.734ZM46.8715 92H45.7515V86.96L45.5555 85.518L46.8715 85.336V92ZM47.0955 83.74C47.0955 84.188 46.7455 84.524 46.3255 84.524C45.8915 84.524 45.5275 84.188 45.5275 83.74C45.5275 83.292 45.8915 82.942 46.3255 82.942C46.7455 82.942 47.0955 83.292 47.0955 83.74ZM54.2661 88.724C54.2661 90.642 53.3561 92.154 51.4661 92.154C49.3941 92.154 48.6661 90.684 48.6661 88.724C48.6661 86.806 49.5761 85.294 51.4661 85.294C53.5381 85.294 54.2661 86.764 54.2661 88.724ZM53.1181 88.752C53.1181 87.128 52.5721 86.274 51.4661 86.274C50.3881 86.274 49.8141 87.03 49.8141 88.682C49.8141 90.306 50.3601 91.174 51.4661 91.174C52.5441 91.174 53.1181 90.404 53.1181 88.752ZM61.0158 92H59.8958V87.744C59.8958 86.778 59.5318 86.288 58.6498 86.288C58.0198 86.288 57.5718 86.554 57.1658 86.918V92H56.0458V86.96L55.8498 85.518L56.9558 85.336L57.0678 86.106H57.0818C57.5718 85.63 58.2158 85.294 59.0278 85.294C60.1338 85.294 61.0158 86.008 61.0158 87.352V92ZM67.5215 91.93L66.4015 92.112L66.3035 91.342H66.2895C65.8135 91.79 65.2955 92.168 64.5115 92.168C63.4195 92.168 62.7755 91.51 62.7755 90.474C62.7755 89.298 63.6995 88.724 65.0295 88.584L66.2055 88.458V87.87C66.2055 86.96 65.9255 86.316 64.8475 86.316C64.3015 86.316 63.8955 86.484 63.4895 86.694L63.0835 85.868C63.6715 85.518 64.2735 85.294 65.1135 85.294C66.4295 85.294 67.3115 86.064 67.3115 87.366V90.488L67.5215 91.93ZM66.2055 90.642V89.214L65.1835 89.354C64.3435 89.466 63.8815 89.732 63.8815 90.334C63.8815 90.88 64.2175 91.244 64.7775 91.244C65.4355 91.244 65.8415 90.964 66.2055 90.642ZM70.6593 92H69.5393V84.062L69.3433 82.62L70.6593 82.438V92ZM80.6593 84.566H78.3073V92H77.1313V84.566H74.7793V83.572H80.6593V84.566ZM85.4786 91.65C84.8486 92 84.2046 92.154 83.4066 92.154C81.4746 92.154 80.4806 90.852 80.4806 88.682C80.4806 86.652 81.5446 85.294 83.1966 85.294C84.7786 85.294 85.4226 86.344 85.4226 87.786V88.57H81.5726C81.5866 90.32 82.2166 91.16 83.6446 91.16C84.1906 91.16 84.6106 91.006 85.0866 90.768L85.4786 91.65ZM84.3726 87.786C84.3726 86.806 84.0086 86.19 83.1406 86.19C82.3006 86.19 81.7686 86.848 81.6286 87.786H84.3726ZM91.7276 91.706L90.7756 92.238L88.9556 89.438H88.9416L87.3036 92H86.1276L88.4096 88.598L86.4496 85.742L87.3876 85.21L89.0116 87.674H89.0256L90.4256 85.448H91.6156L89.5436 88.5L91.7276 91.706ZM96.3726 91.734C95.9666 91.958 95.5886 92.14 94.8746 92.14C93.8666 92.14 93.2226 91.482 93.2226 90.362V86.358H92.2566V85.616L93.2226 85.42V84.328L94.3286 84.188V85.448H96.1626V86.358H94.3286V89.984C94.3286 90.866 94.5526 91.146 95.1966 91.146C95.5466 91.146 95.8126 91.006 96.0086 90.88L96.3726 91.734Z" fill="#00157E"/>
</g>
<defs>
<clipPath id="clip0_325_1230712">
<rect width="514" height="24" fill="white"/>
</clipPath>
<clipPath id="clip1_325_1230712">
<path d="M0 28H514V76H0V28Z" fill="white"/>
</clipPath>
<clipPath id="clip2_325_1230712">
<rect width="514" height="16" fill="white" transform="translate(0 80)"/>
</clipPath>
<clipPath id="clip3_325_1230712">
<rect width="16" height="16" fill="white" transform="translate(0 80)"/>
</clipPath>
</defs>
</svg>
