<svg width="514" height="88" viewBox="0 0 514 88" fill="none" xmlns="http://www.w3.org/2000/svg">
<path d="M5.55898 16H1.16298V7.572H2.33898V15.006H5.55898V16ZM11.2432 15.93L10.1232 16.112L10.0252 15.342H10.0112C9.5352 15.79 9.0172 16.168 8.2332 16.168C7.1412 16.168 6.4972 15.51 6.4972 14.474C6.4972 13.298 7.4212 12.724 8.7512 12.584L9.9272 12.458V11.87C9.9272 10.96 9.6472 10.316 8.5692 10.316C8.0232 10.316 7.6172 10.484 7.2112 10.694L6.8052 9.868C7.3932 9.518 7.9952 9.294 8.8352 9.294C10.1512 9.294 11.0332 10.064 11.0332 11.366V14.488L11.2432 15.93ZM9.9272 14.642V13.214L8.9052 13.354C8.0652 13.466 7.6032 13.732 7.6032 14.334C7.6032 14.88 7.9392 15.244 8.4992 15.244C9.1572 15.244 9.5632 14.964 9.9272 14.642ZM18.4689 12.332C18.4689 14.516 17.3349 16.14 15.2629 16.14C14.5349 16.14 13.7369 16.014 13.2609 15.832V8.062L13.0649 6.62L14.3809 6.438V9.952H14.3949C14.8149 9.602 15.3749 9.294 16.1169 9.294C17.6569 9.294 18.4689 10.4 18.4689 12.332ZM17.3349 12.738C17.3349 11.296 16.9989 10.316 15.7249 10.316C15.1369 10.316 14.7169 10.554 14.3809 10.848V15.062C14.6609 15.132 14.9409 15.174 15.3609 15.174C16.6629 15.174 17.3349 14.068 17.3349 12.738ZM24.8116 15.65C24.1816 16 23.5376 16.154 22.7396 16.154C20.8076 16.154 19.8136 14.852 19.8136 12.682C19.8136 10.652 20.8776 9.294 22.5296 9.294C24.1116 9.294 24.7556 10.344 24.7556 11.786V12.57H20.9056C20.9196 14.32 21.5496 15.16 22.9776 15.16C23.5236 15.16 23.9436 15.006 24.4196 14.768L24.8116 15.65ZM23.7056 11.786C23.7056 10.806 23.3416 10.19 22.4736 10.19C21.6336 10.19 21.1016 10.848 20.9616 11.786H23.7056ZM27.5743 16H26.4543V8.062L26.2583 6.62L27.5743 6.438V16Z" fill="#00157E" fill-opacity="0.7"/>
<g clip-path="url(#clip0_279_338935)">
<mask id="path-2-inside-1_279_338935" fill="white">
<path d="M0 28H514V68H0V28Z"/>
</mask>
<path d="M8.82173 53H7.47773V48.6H3.14173V53H1.79773V43.368H3.14173V47.464H7.47773V43.368H8.82173V53ZM16.3492 52.92L15.0692 53.128L14.9572 52.248H14.9412C14.3972 52.76 13.8052 53.192 12.9092 53.192C11.6612 53.192 10.9252 52.44 10.9252 51.256C10.9252 49.912 11.9812 49.256 13.5012 49.096L14.8452 48.952V48.28C14.8452 47.24 14.5252 46.504 13.2932 46.504C12.6692 46.504 12.2052 46.696 11.7412 46.936L11.2772 45.992C11.9492 45.592 12.6372 45.336 13.5972 45.336C15.1012 45.336 16.1092 46.216 16.1092 47.704V51.272L16.3492 52.92ZM14.8452 51.448V49.816L13.6772 49.976C12.7172 50.104 12.1892 50.408 12.1892 51.096C12.1892 51.72 12.5732 52.136 13.2132 52.136C13.9652 52.136 14.4292 51.816 14.8452 51.448ZM24.3672 53H23.0872V48.136C23.0872 47.032 22.6712 46.472 21.6632 46.472C20.9432 46.472 20.4312 46.776 19.9672 47.192V53H18.6872V47.24L18.4632 45.592L19.7272 45.384L19.8552 46.264H19.8712C20.4312 45.72 21.1672 45.336 22.0952 45.336C23.3592 45.336 24.3672 46.152 24.3672 47.688V53ZM31.2264 50.824C31.2264 52.184 30.1544 53.16 28.5544 53.16C27.7864 53.16 27.0184 53.048 26.4104 52.76L26.7944 51.64C27.3224 51.88 27.9144 52.072 28.4904 52.072C29.3544 52.072 29.9304 51.736 29.9304 51.032C29.9304 50.488 29.6424 50.264 29.1464 50.04L27.7544 49.4C27.2584 49.176 26.3624 48.728 26.3624 47.432C26.3624 46.008 27.6104 45.336 28.9704 45.336C29.7864 45.336 30.3624 45.464 31.0024 45.736L30.5704 46.84C30.0584 46.616 29.5624 46.456 28.9544 46.456C28.1384 46.456 27.6104 46.712 27.6104 47.352C27.6104 47.912 28.0904 48.136 28.3944 48.28L29.8184 48.952C30.8104 49.416 31.2264 50.008 31.2264 50.824ZM46.4811 52.968L45.2011 53.064L44.9291 45.608H44.9131L42.0811 53H40.6891L38.0171 45.624H38.0011L37.6171 53H36.4491L37.0731 43.368H38.4811L41.5051 51.4H41.5211L44.5771 43.368H45.9691L46.4811 52.968ZM54.0591 52.6C53.3391 53 52.6031 53.176 51.6911 53.176C49.4831 53.176 48.3471 51.688 48.3471 49.208C48.3471 46.888 49.5631 45.336 51.4511 45.336C53.2591 45.336 53.9951 46.536 53.9951 48.184V49.08H49.5951C49.6111 51.08 50.3311 52.04 51.9631 52.04C52.5871 52.04 53.0671 51.864 53.6111 51.592L54.0591 52.6ZM52.7951 48.184C52.7951 47.064 52.3791 46.36 51.3871 46.36C50.4271 46.36 49.8191 47.112 49.6591 48.184H52.7951ZM61.3925 45.512L58.8965 52.312C58.0965 54.52 57.0245 55.848 54.4165 56.376L54.1765 55.336C56.0805 54.952 57.0885 53.8 57.5845 52.552L54.8965 45.624L56.1605 45.288L58.2245 50.856H58.2405L60.1285 45.512H61.3925ZM67.981 52.6C67.261 53 66.525 53.176 65.613 53.176C63.405 53.176 62.269 51.688 62.269 49.208C62.269 46.888 63.485 45.336 65.373 45.336C67.181 45.336 67.917 46.536 67.917 48.184V49.08H63.517C63.533 51.08 64.253 52.04 65.885 52.04C66.509 52.04 66.989 51.864 67.533 51.592L67.981 52.6ZM66.717 48.184C66.717 47.064 66.301 46.36 65.309 46.36C64.349 46.36 63.741 47.112 63.581 48.184H66.717ZM73.2504 46.616C72.3864 46.616 71.7464 46.84 71.1704 47.368V53H69.8904V47.24L69.6664 45.592L70.9304 45.384L71.0584 46.408H71.0744C71.5864 45.832 72.2584 45.352 73.2504 45.352V46.616Z" fill="#00157E"/>
<path d="M501.999 39L506.999 44L493.999 57H488.999V52L501.999 39Z" stroke="#00157E" stroke-width="2" stroke-linecap="round" stroke-linejoin="round"/>
</g>
<path d="M514 68V67H0V68V69H514V68Z" fill="#00157E" fill-opacity="0.2" mask="url(#path-2-inside-1_279_338935)"/>
<defs>
<clipPath id="clip0_279_338935">
<path d="M0 28H514V68H0V28Z" fill="white"/>
</clipPath>
</defs>
</svg>
