<svg width="420" height="56" viewBox="0 0 420 56" fill="none" xmlns="http://www.w3.org/2000/svg">
<mask id="path-1-inside-1_276_338918" fill="white">
<path d="M0 8C0 3.58172 3.58172 0 8 0H412C416.418 0 420 3.58172 420 8V56H0V8Z"/>
</mask>
<path d="M0 8C0 3.58172 3.58172 0 8 0H412C416.418 0 420 3.58172 420 8V56H0V8Z" fill="white"/>
<path d="M0 8C0 3.02944 4.02944 -1 9 -1H411C415.971 -1 420 3.02944 420 8C420 4.13401 416.418 1 412 1H8C3.58172 1 0 4.13401 0 8ZM0 8M420 56H0H420M420 56M0 56V0V56M0 56M420 0V56V0" fill="#00157E" fill-opacity="0.2" mask="url(#path-1-inside-1_276_338918)"/>
<path d="M36 37V35C36 33.9391 35.5786 32.9217 34.8284 32.1716C34.0783 31.4214 33.0609 31 32 31H24C22.9391 31 21.9217 31.4214 21.1716 32.1716C20.4214 32.9217 20 33.9391 20 35V37" stroke="#00157E" stroke-width="2" stroke-linecap="round" stroke-linejoin="round"/>
<path d="M28 27C30.2091 27 32 25.2091 32 23C32 20.7909 30.2091 19 28 19C25.7909 19 24 20.7909 24 23C24 25.2091 25.7909 27 28 27Z" stroke="#00157E" stroke-width="2" stroke-linecap="round" stroke-linejoin="round"/>
<path d="M63.154 31.86L62.006 32.182L61.11 29.27H58.366L57.512 32H56.28L59.206 23.572H60.41L63.154 31.86ZM60.858 28.43L59.766 24.79H59.752L58.618 28.43H60.858ZM69.5002 32H68.3802V27.744C68.3802 26.778 68.0162 26.288 67.1342 26.288C66.5042 26.288 66.0562 26.554 65.6502 26.918V32H64.5302V26.96L64.3342 25.518L65.4402 25.336L65.5522 26.106H65.5662C66.0562 25.63 66.7002 25.294 67.5122 25.294C68.6182 25.294 69.5002 26.008 69.5002 27.352V32ZM76.6779 32H75.5579V27.744C75.5579 26.778 75.1939 26.288 74.3119 26.288C73.6819 26.288 73.2339 26.554 72.8279 26.918V32H71.7079V26.96L71.5119 25.518L72.6179 25.336L72.7299 26.106H72.7439C73.2339 25.63 73.8779 25.294 74.6899 25.294C75.7959 25.294 76.6779 26.008 76.6779 27.352V32ZM83.1836 31.93L82.0636 32.112L81.9656 31.342H81.9516C81.4756 31.79 80.9576 32.168 80.1736 32.168C79.0816 32.168 78.4376 31.51 78.4376 30.474C78.4376 29.298 79.3616 28.724 80.6916 28.584L81.8676 28.458V27.87C81.8676 26.96 81.5876 26.316 80.5096 26.316C79.9636 26.316 79.5576 26.484 79.1516 26.694L78.7456 25.868C79.3336 25.518 79.9356 25.294 80.7756 25.294C82.0916 25.294 82.9736 26.064 82.9736 27.366V30.488L83.1836 31.93ZM81.8676 30.642V29.214L80.8456 29.354C80.0056 29.466 79.5436 29.732 79.5436 30.334C79.5436 30.88 79.8796 31.244 80.4396 31.244C81.0976 31.244 81.5036 30.964 81.8676 30.642ZM96.8068 31.972L95.6868 32.056L95.4488 25.532H95.4348L92.9568 32H91.7388L89.4008 25.546H89.3868L89.0508 32H88.0288L88.5748 23.572H89.8068L92.4528 30.6H92.4668L95.1408 23.572H96.3588L96.8068 31.972ZM104.04 31.93L102.934 32.112L102.822 31.356H102.808C102.318 31.818 101.674 32.154 100.862 32.154C99.7559 32.154 98.8739 31.44 98.8739 30.096V26.96L98.6779 25.518L99.9939 25.336V29.704C99.9939 30.67 100.358 31.174 101.24 31.174C101.87 31.174 102.318 30.908 102.724 30.53V26.96L102.528 25.518L103.844 25.336V30.488L104.04 31.93ZM100.932 23.824C100.932 24.244 100.61 24.538 100.218 24.538C99.8259 24.538 99.4899 24.244 99.4899 23.824C99.4899 23.418 99.8259 23.096 100.218 23.096C100.61 23.096 100.932 23.418 100.932 23.824ZM103.214 23.824C103.214 24.244 102.878 24.538 102.486 24.538C102.094 24.538 101.758 24.244 101.758 23.824C101.758 23.418 102.094 23.096 102.486 23.096C102.878 23.096 103.214 23.418 103.214 23.824ZM107.171 32H106.051V24.062L105.855 22.62L107.171 22.438V32ZM110.48 32H109.36V24.062L109.164 22.62L110.48 22.438V32ZM117.246 31.65C116.616 32 115.972 32.154 115.174 32.154C113.242 32.154 112.248 30.852 112.248 28.682C112.248 26.652 113.312 25.294 114.964 25.294C116.546 25.294 117.19 26.344 117.19 27.786V28.57H113.34C113.354 30.32 113.984 31.16 115.412 31.16C115.958 31.16 116.378 31.006 116.854 30.768L117.246 31.65ZM116.14 27.786C116.14 26.806 115.776 26.19 114.908 26.19C114.068 26.19 113.536 26.848 113.396 27.786H116.14ZM121.857 26.414C121.101 26.414 120.541 26.61 120.037 27.072V32H118.917V26.96L118.721 25.518L119.827 25.336L119.939 26.232H119.953C120.401 25.728 120.989 25.308 121.857 25.308V26.414Z" fill="#00157E"/>
<path d="M389 34L395 28L389 22" stroke="#00157E" stroke-width="2" stroke-linecap="round" stroke-linejoin="round"/>
</svg>
