<svg width="420" height="56" viewBox="0 0 420 56" fill="none" xmlns="http://www.w3.org/2000/svg">
<mask id="path-1-inside-1_288_562490" fill="white">
<path d="M0 0H420V56H0V0Z"/>
</mask>
<path d="M0 0H420V56H0V0Z" fill="white"/>
<path d="M420 56V55H0V56V57H420V56Z" fill="#00157E" fill-opacity="0.2" mask="url(#path-1-inside-1_288_562490)"/>
<path d="M36 37V35C36 33.9391 35.5786 32.9217 34.8284 32.1716C34.0783 31.4214 33.0609 31 32 31H24C22.9391 31 21.9217 31.4214 21.1716 32.1716C20.4214 32.9217 20 33.9391 20 35V37" stroke="#00157E" stroke-width="2" stroke-linecap="round" stroke-linejoin="round"/>
<path d="M28 27C30.2091 27 32 25.2091 32 23C32 20.7909 30.2091 19 28 19C25.7909 19 24 20.7909 24 23C24 25.2091 25.7909 27 28 27Z" stroke="#00157E" stroke-width="2" stroke-linecap="round" stroke-linejoin="round"/>
<path d="M63.154 24.36L62.006 24.682L61.11 21.77H58.366L57.512 24.5H56.28L59.206 16.072H60.41L63.154 24.36ZM60.858 20.93L59.766 17.29H59.752L58.618 20.93H60.858ZM69.5002 24.5H68.3802V20.244C68.3802 19.278 68.0162 18.788 67.1342 18.788C66.5042 18.788 66.0562 19.054 65.6502 19.418V24.5H64.5302V19.46L64.3342 18.018L65.4402 17.836L65.5522 18.606H65.5662C66.0562 18.13 66.7002 17.794 67.5122 17.794C68.6182 17.794 69.5002 18.508 69.5002 19.852V24.5ZM76.6779 24.5H75.5579V20.244C75.5579 19.278 75.1939 18.788 74.3119 18.788C73.6819 18.788 73.2339 19.054 72.8279 19.418V24.5H71.7079V19.46L71.5119 18.018L72.6179 17.836L72.7299 18.606H72.7439C73.2339 18.13 73.8779 17.794 74.6899 17.794C75.7959 17.794 76.6779 18.508 76.6779 19.852V24.5ZM83.1836 24.43L82.0636 24.612L81.9656 23.842H81.9516C81.4756 24.29 80.9576 24.668 80.1736 24.668C79.0816 24.668 78.4376 24.01 78.4376 22.974C78.4376 21.798 79.3616 21.224 80.6916 21.084L81.8676 20.958V20.37C81.8676 19.46 81.5876 18.816 80.5096 18.816C79.9636 18.816 79.5576 18.984 79.1516 19.194L78.7456 18.368C79.3336 18.018 79.9356 17.794 80.7756 17.794C82.0916 17.794 82.9736 18.564 82.9736 19.866V22.988L83.1836 24.43ZM81.8676 23.142V21.714L80.8456 21.854C80.0056 21.966 79.5436 22.232 79.5436 22.834C79.5436 23.38 79.8796 23.744 80.4396 23.744C81.0976 23.744 81.5036 23.464 81.8676 23.142ZM96.8068 24.472L95.6868 24.556L95.4488 18.032H95.4348L92.9568 24.5H91.7388L89.4008 18.046H89.3868L89.0508 24.5H88.0288L88.5748 16.072H89.8068L92.4528 23.1H92.4668L95.1408 16.072H96.3588L96.8068 24.472ZM104.04 24.43L102.934 24.612L102.822 23.856H102.808C102.318 24.318 101.674 24.654 100.862 24.654C99.7559 24.654 98.8739 23.94 98.8739 22.596V19.46L98.6779 18.018L99.9939 17.836V22.204C99.9939 23.17 100.358 23.674 101.24 23.674C101.87 23.674 102.318 23.408 102.724 23.03V19.46L102.528 18.018L103.844 17.836V22.988L104.04 24.43ZM100.932 16.324C100.932 16.744 100.61 17.038 100.218 17.038C99.8259 17.038 99.4899 16.744 99.4899 16.324C99.4899 15.918 99.8259 15.596 100.218 15.596C100.61 15.596 100.932 15.918 100.932 16.324ZM103.214 16.324C103.214 16.744 102.878 17.038 102.486 17.038C102.094 17.038 101.758 16.744 101.758 16.324C101.758 15.918 102.094 15.596 102.486 15.596C102.878 15.596 103.214 15.918 103.214 16.324ZM107.171 24.5H106.051V16.562L105.855 15.12L107.171 14.938V24.5ZM110.48 24.5H109.36V16.562L109.164 15.12L110.48 14.938V24.5ZM117.246 24.15C116.616 24.5 115.972 24.654 115.174 24.654C113.242 24.654 112.248 23.352 112.248 21.182C112.248 19.152 113.312 17.794 114.964 17.794C116.546 17.794 117.19 18.844 117.19 20.286V21.07H113.34C113.354 22.82 113.984 23.66 115.412 23.66C115.958 23.66 116.378 23.506 116.854 23.268L117.246 24.15ZM116.14 20.286C116.14 19.306 115.776 18.69 114.908 18.69C114.068 18.69 113.536 19.348 113.396 20.286H116.14ZM121.857 18.914C121.101 18.914 120.541 19.11 120.037 19.572V24.5H118.917V19.46L118.721 18.018L119.827 17.836L119.939 18.732H119.953C120.401 18.228 120.989 17.808 121.857 17.808V18.914Z" fill="#00157E"/>
<path d="M61.964 39.128C61.292 39.476 60.608 39.632 59.696 39.632C57.932 39.632 56.576 38.444 56.576 36.044C56.576 33.488 58.088 32.144 60.032 32.144C60.836 32.144 61.328 32.264 61.94 32.528L61.556 33.404C61.1 33.2 60.668 33.044 60.02 33.044C58.76 33.044 57.608 34.016 57.608 35.792C57.608 37.772 58.34 38.744 60.092 38.744C60.668 38.744 61.196 38.516 61.628 38.324L61.964 39.128ZM68.4867 39.5H67.4787V36.2H64.2267V39.5H63.2187V32.276H64.2267V35.348H67.4787V32.276H68.4867V39.5ZM73.9043 39.02C73.9043 40.46 72.9803 41.372 71.3963 41.372C70.9283 41.372 70.4363 41.288 69.9923 41.18L70.2083 40.28C70.6043 40.4 70.9403 40.496 71.4203 40.496C72.3683 40.496 72.9443 40.028 72.9443 39.164C72.9443 37.988 71.8643 37.532 70.3403 37.532V36.848C72.1163 36.74 72.6083 35.948 72.6083 35.168C72.6083 34.484 72.1883 34.1 71.5163 34.1C70.9643 34.1 70.6403 34.28 70.2803 34.52L69.8843 33.86C70.3163 33.524 70.8683 33.248 71.7083 33.248C72.8603 33.248 73.5683 33.932 73.5683 35.048C73.5683 36.02 73.0043 36.668 72.2003 37.052V37.064C73.3763 37.316 73.9043 38.096 73.9043 39.02ZM78.9696 38.42C78.9696 40.724 76.7976 41.372 75.2496 41.492L75.1296 40.676C76.2216 40.556 77.9856 40.124 77.9856 38.552C77.9856 37.568 77.4336 36.992 75.8976 36.992H75.0936L75.3576 33.38H78.7776V34.256H76.1856L76.0296 36.272C76.0296 36.272 76.3056 36.248 76.5576 36.248C77.9496 36.248 78.9696 36.98 78.9696 38.42ZM87.5593 36.44C87.5593 38.036 86.9353 39.632 85.1233 39.632C83.2993 39.632 82.6753 38.036 82.6753 36.44C82.6753 34.844 83.2993 33.248 85.1233 33.248C86.9353 33.248 87.5593 34.844 87.5593 36.44ZM86.5753 36.44C86.5753 35.096 86.1313 34.088 85.1233 34.088C84.1033 34.088 83.6593 35.096 83.6593 36.44C83.6593 37.784 84.1033 38.792 85.1233 38.792C86.1313 38.792 86.5753 37.784 86.5753 36.44ZM93.1231 36.344C93.1231 39.656 91.4431 41.204 89.0551 41.492L88.8631 40.712C90.3751 40.532 91.8991 39.56 92.1151 37.268L92.1031 37.256C92.1031 37.256 91.5391 37.736 90.6871 37.736C89.4871 37.736 88.7071 36.836 88.7071 35.6C88.7071 34.1 89.6071 33.248 90.9631 33.248C92.3551 33.248 93.1231 34.208 93.1231 36.344ZM92.1271 36.332C92.1271 35.144 91.9111 34.064 90.8431 34.064C90.0871 34.064 89.6431 34.688 89.6431 35.468C89.6431 36.464 90.0991 36.944 90.9511 36.944C91.6831 36.944 92.1271 36.512 92.1271 36.512V36.332ZM99.3484 36.44C99.3484 38.036 98.7244 39.632 96.9124 39.632C95.0884 39.632 94.4644 38.036 94.4644 36.44C94.4644 34.844 95.0884 33.248 96.9124 33.248C98.7244 33.248 99.3484 34.844 99.3484 36.44ZM98.3644 36.44C98.3644 35.096 97.9204 34.088 96.9124 34.088C95.8924 34.088 95.4484 35.096 95.4484 36.44C95.4484 37.784 95.8924 38.792 96.9124 38.792C97.9204 38.792 98.3644 37.784 98.3644 36.44ZM105.524 36.44C105.524 38.036 104.9 39.632 103.088 39.632C101.264 39.632 100.64 38.036 100.64 36.44C100.64 34.844 101.264 33.248 103.088 33.248C104.9 33.248 105.524 34.844 105.524 36.44ZM104.54 36.44C104.54 35.096 104.096 34.088 103.088 34.088C102.068 34.088 101.624 35.096 101.624 36.44C101.624 37.784 102.068 38.792 103.088 38.792C104.096 38.792 104.54 37.784 104.54 36.44ZM114.22 36.44C114.22 38.036 113.596 39.632 111.784 39.632C109.96 39.632 109.336 38.036 109.336 36.44C109.336 34.844 109.96 33.248 111.784 33.248C113.596 33.248 114.22 34.844 114.22 36.44ZM113.236 36.44C113.236 35.096 112.792 34.088 111.784 34.088C110.764 34.088 110.32 35.096 110.32 36.44C110.32 37.784 110.764 38.792 111.784 38.792C112.792 38.792 113.236 37.784 113.236 36.44ZM120.395 36.44C120.395 38.036 119.771 39.632 117.959 39.632C116.135 39.632 115.511 38.036 115.511 36.44C115.511 34.844 116.135 33.248 117.959 33.248C119.771 33.248 120.395 34.844 120.395 36.44ZM119.411 36.44C119.411 35.096 118.967 34.088 117.959 34.088C116.939 34.088 116.495 35.096 116.495 36.44C116.495 37.784 116.939 38.792 117.959 38.792C118.967 38.792 119.411 37.784 119.411 36.44ZM126.571 36.44C126.571 38.036 125.947 39.632 124.135 39.632C122.311 39.632 121.687 38.036 121.687 36.44C121.687 34.844 122.311 33.248 124.135 33.248C125.947 33.248 126.571 34.844 126.571 36.44ZM125.587 36.44C125.587 35.096 125.143 34.088 124.135 34.088C123.115 34.088 122.671 35.096 122.671 36.44C122.671 37.784 123.115 38.792 124.135 38.792C125.143 38.792 125.587 37.784 125.587 36.44ZM132.747 36.44C132.747 38.036 132.123 39.632 130.311 39.632C128.487 39.632 127.863 38.036 127.863 36.44C127.863 34.844 128.487 33.248 130.311 33.248C132.123 33.248 132.747 34.844 132.747 36.44ZM131.763 36.44C131.763 35.096 131.319 34.088 130.311 34.088C129.291 34.088 128.847 35.096 128.847 36.44C128.847 37.784 129.291 38.792 130.311 38.792C131.319 38.792 131.763 37.784 131.763 36.44ZM140.986 37.304C140.986 38.72 140.146 39.632 138.79 39.632C137.254 39.632 136.606 38.492 136.606 36.8C136.606 33.536 138.526 32.192 140.614 32.024L140.734 32.816C139.294 32.972 137.854 33.752 137.578 35.756L137.59 35.768C137.59 35.768 138.202 35.24 139.03 35.24C140.29 35.24 140.986 36.044 140.986 37.304ZM140.038 37.496C140.038 36.476 139.642 36.044 138.766 36.044C138.082 36.044 137.578 36.524 137.578 36.524V36.752C137.578 38.096 137.926 38.84 138.874 38.84C139.666 38.84 140.038 38.276 140.038 37.496ZM145.957 34.196L142.525 41.48L141.721 41.072L144.913 34.256H141.649V33.38H145.957V34.196ZM151.141 37.748C151.141 38.9 150.265 39.632 149.029 39.632C147.769 39.632 146.917 38.996 146.917 37.82C146.917 36.764 147.697 36.128 148.297 35.72C147.577 35.216 147.097 34.784 147.097 33.884C147.097 32.864 147.937 32.144 149.017 32.144C150.181 32.144 150.937 32.792 150.937 33.8C150.937 34.664 150.337 35.216 149.749 35.624C150.517 36.14 151.141 36.656 151.141 37.748ZM150.217 37.748C150.217 36.968 149.677 36.572 148.957 36.104C148.321 36.536 147.829 36.908 147.829 37.7C147.829 38.42 148.309 38.828 149.041 38.828C149.821 38.828 150.217 38.348 150.217 37.748ZM150.085 33.908C150.085 33.296 149.677 32.9 149.029 32.9C148.381 32.9 147.961 33.32 147.961 33.92C147.961 34.484 148.429 34.808 149.077 35.252C149.593 34.916 150.085 34.484 150.085 33.908ZM154.25 39.5H153.302V34.196L152.246 34.34L152.138 33.608L154.25 33.272V39.5ZM160.226 39.5H159.278V34.196L158.222 34.34L158.114 33.608L160.226 33.272V39.5ZM166.108 36.344C166.108 39.656 164.428 41.204 162.04 41.492L161.848 40.712C163.36 40.532 164.884 39.56 165.1 37.268L165.088 37.256C165.088 37.256 164.524 37.736 163.672 37.736C162.472 37.736 161.692 36.836 161.692 35.6C161.692 34.1 162.592 33.248 163.948 33.248C165.34 33.248 166.108 34.208 166.108 36.344ZM165.112 36.332C165.112 35.144 164.896 34.064 163.828 34.064C163.072 34.064 162.628 34.688 162.628 35.468C162.628 36.464 163.084 36.944 163.936 36.944C164.668 36.944 165.112 36.512 165.112 36.512V36.332ZM169.297 39.5H168.349V34.196L167.293 34.34L167.185 33.608L169.297 33.272V39.5ZM175.19 39.5H170.738V38.876L172.79 36.908C173.342 36.368 173.762 35.972 173.762 35.312C173.762 34.616 173.33 34.1 172.526 34.1C171.986 34.1 171.602 34.34 171.314 34.58L170.858 33.944C171.374 33.512 171.902 33.248 172.73 33.248C173.918 33.248 174.734 33.944 174.734 35.204C174.734 36.044 174.23 36.68 173.654 37.208L172.118 38.624V38.636H175.19V39.5ZM179.912 39.02C179.912 40.46 178.988 41.372 177.404 41.372C176.936 41.372 176.444 41.288 176 41.18L176.216 40.28C176.612 40.4 176.948 40.496 177.428 40.496C178.376 40.496 178.952 40.028 178.952 39.164C178.952 37.988 177.872 37.532 176.348 37.532V36.848C178.124 36.74 178.616 35.948 178.616 35.168C178.616 34.484 178.196 34.1 177.524 34.1C176.972 34.1 176.648 34.28 176.288 34.52L175.892 33.86C176.324 33.524 176.876 33.248 177.716 33.248C178.868 33.248 179.576 33.932 179.576 35.048C179.576 36.02 179.012 36.668 178.208 37.052V37.064C179.384 37.316 179.912 38.096 179.912 39.02ZM188.493 36.44C188.493 38.036 187.869 39.632 186.057 39.632C184.233 39.632 183.609 38.036 183.609 36.44C183.609 34.844 184.233 33.248 186.057 33.248C187.869 33.248 188.493 34.844 188.493 36.44ZM187.509 36.44C187.509 35.096 187.065 34.088 186.057 34.088C185.037 34.088 184.593 35.096 184.593 36.44C184.593 37.784 185.037 38.792 186.057 38.792C187.065 38.792 187.509 37.784 187.509 36.44Z" fill="#00157E" fill-opacity="0.7"/>
<path d="M389 34L395 28L389 22" stroke="#00157E" stroke-width="2" stroke-linecap="round" stroke-linejoin="round"/>
</svg>
