<svg width="142" height="24" viewBox="0 0 142 24" fill="none" xmlns="http://www.w3.org/2000/svg">
<path d="M12 0.5C18.3513 0.5 23.5 5.64873 23.5 12C23.5 18.3513 18.3513 23.5 12 23.5C5.64873 23.5 0.5 18.3513 0.5 12C0.5 5.64873 5.64873 0.5 12 0.5Z" fill="white"/>
<path d="M12 0.5C18.3513 0.5 23.5 5.64873 23.5 12C23.5 18.3513 18.3513 23.5 12 23.5C5.64873 23.5 0.5 18.3513 0.5 12C0.5 5.64873 5.64873 0.5 12 0.5Z" stroke="#00157E"/>
<path d="M0 12C0 5.37258 5.37258 0 12 0V0C18.6274 0 24 5.37258 24 12V12C24 18.6274 18.6274 24 12 24V24C5.37258 24 0 18.6274 0 12V12Z" fill="#00157E" fill-opacity="0.1"/>
<path d="M46.6926 15.734L45.6566 16.238L43.2906 12.402C43.0806 12.43 42.8846 12.444 42.6746 12.444H42.4646V16H41.3026V7.642C41.3026 7.642 42.3666 7.488 43.4586 7.488C45.0826 7.488 46.1046 8.272 46.1046 9.602C46.1046 10.89 45.3626 11.688 44.3686 12.08L46.6926 15.734ZM44.9706 9.812C44.9706 8.804 44.2706 8.37 43.2626 8.37C42.8146 8.37 42.4646 8.412 42.4646 8.412V11.59H42.6466C43.7806 11.59 44.9706 11.114 44.9706 9.812ZM52.4219 15.93L51.3019 16.112L51.2039 15.342H51.1899C50.7139 15.79 50.1959 16.168 49.4119 16.168C48.3199 16.168 47.6759 15.51 47.6759 14.474C47.6759 13.298 48.5999 12.724 49.9299 12.584L51.1059 12.458V11.87C51.1059 10.96 50.8259 10.316 49.7479 10.316C49.2019 10.316 48.7959 10.484 48.3899 10.694L47.9839 9.868C48.5719 9.518 49.1739 9.294 50.0139 9.294C51.3299 9.294 52.2119 10.064 52.2119 11.366V14.488L52.4219 15.93ZM51.1059 14.642V13.214L50.0839 13.354C49.2439 13.466 48.7819 13.732 48.7819 14.334C48.7819 14.88 49.1179 15.244 49.6779 15.244C50.3359 15.244 50.7419 14.964 51.1059 14.642ZM59.3817 15.958L58.3037 16.112L58.2057 15.454H58.1917C57.7717 15.804 57.1977 16.154 56.4277 16.154C54.9857 16.154 54.0197 14.964 54.0197 13.018C54.0197 10.764 55.1817 9.378 57.1697 9.378C57.7017 9.378 58.0797 9.476 58.0797 9.476V8.062L57.8697 6.62L59.1857 6.438V14.516L59.3817 15.958ZM56.8197 15.174C57.3657 15.174 57.7437 14.95 58.0797 14.684V10.498C58.0797 10.498 57.7157 10.316 57.0717 10.316C55.7977 10.316 55.1677 11.394 55.1677 12.668C55.1677 14.25 55.5877 15.174 56.8197 15.174ZM62.5746 16H61.4546V10.96L61.2586 9.518L62.5746 9.336V16ZM62.7986 7.74C62.7986 8.188 62.4486 8.524 62.0286 8.524C61.5946 8.524 61.2306 8.188 61.2306 7.74C61.2306 7.292 61.5946 6.942 62.0286 6.942C62.4486 6.942 62.7986 7.292 62.7986 7.74ZM69.9693 12.724C69.9693 14.642 69.0593 16.154 67.1693 16.154C65.0973 16.154 64.3693 14.684 64.3693 12.724C64.3693 10.806 65.2793 9.294 67.1693 9.294C69.2413 9.294 69.9693 10.764 69.9693 12.724ZM68.8213 12.752C68.8213 11.128 68.2753 10.274 67.1693 10.274C66.0913 10.274 65.5173 11.03 65.5173 12.682C65.5173 14.306 66.0633 15.174 67.1693 15.174C68.2473 15.174 68.8213 14.404 68.8213 12.752ZM74.5069 12.388H71.2449V11.45H74.5069V12.388ZM81.427 12.332C81.427 14.516 80.293 16.14 78.221 16.14C77.493 16.14 76.695 16.014 76.219 15.832V8.062L76.023 6.62L77.339 6.438V9.952H77.353C77.773 9.602 78.333 9.294 79.075 9.294C80.615 9.294 81.427 10.4 81.427 12.332ZM80.293 12.738C80.293 11.296 79.957 10.316 78.683 10.316C78.095 10.316 77.675 10.554 77.339 10.848V15.062C77.619 15.132 77.899 15.174 78.319 15.174C79.621 15.174 80.293 14.068 80.293 12.738ZM88.3856 15.93L87.2796 16.112L87.1676 15.356H87.1536C86.6636 15.818 86.0196 16.154 85.2076 16.154C84.1016 16.154 83.2196 15.44 83.2196 14.096V10.96L83.0236 9.518L84.3396 9.336V13.704C84.3396 14.67 84.7036 15.174 85.5856 15.174C86.2156 15.174 86.6636 14.908 87.0696 14.53V10.96L86.8736 9.518L88.1896 9.336V14.488L88.3856 15.93ZM93.7007 15.734C93.2947 15.958 92.9167 16.14 92.2027 16.14C91.1947 16.14 90.5507 15.482 90.5507 14.362V10.358H89.5847V9.616L90.5507 9.42V8.328L91.6567 8.188V9.448H93.4907V10.358H91.6567V13.984C91.6567 14.866 91.8807 15.146 92.5247 15.146C92.8747 15.146 93.1407 15.006 93.3367 14.88L93.7007 15.734ZM98.4722 15.734C98.0662 15.958 97.6882 16.14 96.9742 16.14C95.9662 16.14 95.3222 15.482 95.3222 14.362V10.358H94.3562V9.616L95.3222 9.42V8.328L96.4282 8.188V9.448H98.2622V10.358H96.4282V13.984C96.4282 14.866 96.6522 15.146 97.2962 15.146C97.6462 15.146 97.9122 15.006 98.1082 14.88L98.4722 15.734ZM104.928 12.724C104.928 14.642 104.018 16.154 102.128 16.154C100.056 16.154 99.3283 14.684 99.3283 12.724C99.3283 10.806 100.238 9.294 102.128 9.294C104.2 9.294 104.928 10.764 104.928 12.724ZM103.78 12.752C103.78 11.128 103.234 10.274 102.128 10.274C101.05 10.274 100.476 11.03 100.476 12.682C100.476 14.306 101.022 15.174 102.128 15.174C103.206 15.174 103.78 14.404 103.78 12.752ZM111.678 16H110.558V11.744C110.558 10.778 110.194 10.288 109.312 10.288C108.682 10.288 108.234 10.554 107.828 10.918V16H106.708V10.96L106.512 9.518L107.618 9.336L107.73 10.106H107.744C108.234 9.63 108.878 9.294 109.69 9.294C110.796 9.294 111.678 10.008 111.678 11.352V16ZM117.917 16H116.797V8.062L116.601 6.62L117.917 6.438V16ZM124.432 15.93L123.312 16.112L123.214 15.342H123.2C122.724 15.79 122.206 16.168 121.422 16.168C120.33 16.168 119.686 15.51 119.686 14.474C119.686 13.298 120.61 12.724 121.94 12.584L123.116 12.458V11.87C123.116 10.96 122.836 10.316 121.758 10.316C121.212 10.316 120.806 10.484 120.4 10.694L119.994 9.868C120.582 9.518 121.184 9.294 122.024 9.294C123.34 9.294 124.222 10.064 124.222 11.366V14.488L124.432 15.93ZM123.116 14.642V13.214L122.094 13.354C121.254 13.466 120.792 13.732 120.792 14.334C120.792 14.88 121.128 15.244 121.688 15.244C122.346 15.244 122.752 14.964 123.116 14.642ZM131.657 12.332C131.657 14.516 130.523 16.14 128.451 16.14C127.723 16.14 126.925 16.014 126.449 15.832V8.062L126.253 6.62L127.569 6.438V9.952H127.583C128.003 9.602 128.563 9.294 129.305 9.294C130.845 9.294 131.657 10.4 131.657 12.332ZM130.523 12.738C130.523 11.296 130.187 10.316 128.913 10.316C128.325 10.316 127.905 10.554 127.569 10.848V15.062C127.849 15.132 128.129 15.174 128.549 15.174C129.851 15.174 130.523 14.068 130.523 12.738ZM138 15.65C137.37 16 136.726 16.154 135.928 16.154C133.996 16.154 133.002 14.852 133.002 12.682C133.002 10.652 134.066 9.294 135.718 9.294C137.3 9.294 137.944 10.344 137.944 11.786V12.57H134.094C134.108 14.32 134.738 15.16 136.166 15.16C136.712 15.16 137.132 15.006 137.608 14.768L138 15.65ZM136.894 11.786C136.894 10.806 136.53 10.19 135.662 10.19C134.822 10.19 134.29 10.848 134.15 11.786H136.894ZM140.763 16H139.643V8.062L139.447 6.62L140.763 6.438V16Z" fill="#00157E"/>
</svg>
