<svg width="555" height="256" viewBox="0 0 555 256" fill="none" xmlns="http://www.w3.org/2000/svg">
<path d="M22.02 9.65898C22.02 11.633 20.41 12.627 18.534 12.627H18.324V16.001H17.162V7.64298C17.162 7.64298 18.212 7.48898 19.318 7.48898C20.956 7.48898 22.02 8.27298 22.02 9.65898ZM20.872 9.86898C20.872 8.83298 20.186 8.37098 19.122 8.37098C18.674 8.37098 18.324 8.42698 18.324 8.42698V11.731H18.506C19.752 11.731 20.872 11.171 20.872 9.86898ZM27.9454 15.651C27.3154 16.001 26.6714 16.155 25.8734 16.155C23.9414 16.155 22.9474 14.853 22.9474 12.683C22.9474 10.653 24.0114 9.29498 25.6634 9.29498C27.2454 9.29498 27.8894 10.345 27.8894 11.787V12.571H24.0394C24.0534 14.321 24.6834 15.161 26.1114 15.161C26.6574 15.161 27.0774 15.007 27.5534 14.769L27.9454 15.651ZM26.8394 11.787C26.8394 10.807 26.4754 10.191 25.6074 10.191C24.7674 10.191 24.2354 10.849 24.0954 11.787H26.8394ZM34.5861 16.001H33.4661V11.745C33.4661 10.779 33.1021 10.289 32.2201 10.289C31.5901 10.289 31.1421 10.555 30.7361 10.919V16.001H29.6161V10.961L29.4201 9.51898L30.5261 9.33698L30.6381 10.107H30.6521C31.1421 9.63098 31.7861 9.29498 32.5981 9.29498C33.7041 9.29498 34.5861 10.009 34.5861 11.353V16.001ZM41.7078 15.959L40.6298 16.113L40.5318 15.455H40.5178C40.0978 15.805 39.5238 16.155 38.7538 16.155C37.3118 16.155 36.3458 14.965 36.3458 13.019C36.3458 10.765 37.5078 9.37898 39.4958 9.37898C40.0278 9.37898 40.4058 9.47698 40.4058 9.47698V8.06298L40.1958 6.62098L41.5118 6.43898V14.517L41.7078 15.959ZM39.1458 15.175C39.6918 15.175 40.0698 14.951 40.4058 14.685V10.499C40.4058 10.499 40.0418 10.317 39.3978 10.317C38.1238 10.317 37.4938 11.395 37.4938 12.669C37.4938 14.251 37.9138 15.175 39.1458 15.175ZM44.9008 16.001H43.7808V10.961L43.5848 9.51898L44.9008 9.33698V16.001ZM45.1248 7.74098C45.1248 8.18898 44.7748 8.52498 44.3548 8.52498C43.9208 8.52498 43.5568 8.18898 43.5568 7.74098C43.5568 7.29298 43.9208 6.94298 44.3548 6.94298C44.7748 6.94298 45.1248 7.29298 45.1248 7.74098ZM52.1134 16.001H50.9934V11.745C50.9934 10.779 50.6294 10.289 49.7474 10.289C49.1174 10.289 48.6694 10.555 48.2634 10.919V16.001H47.1434V10.961L46.9474 9.51898L48.0534 9.33698L48.1654 10.107H48.1794C48.6694 9.63098 49.3134 9.29498 50.1254 9.29498C51.2314 9.29498 52.1134 10.009 52.1134 11.353V16.001ZM59.6692 10.275H58.3532C58.5492 10.611 58.6612 11.003 58.6612 11.479C58.6612 12.809 57.6952 13.705 56.3512 13.705C56.0852 13.705 55.8332 13.663 55.6092 13.607C55.6092 13.607 55.1612 13.859 55.1612 14.363C55.1612 14.797 55.4832 14.881 55.9312 14.881H57.8072C58.9552 14.881 59.6272 15.231 59.6272 16.253C59.6272 17.541 58.3112 18.997 55.9172 18.997C54.5452 18.997 53.7052 18.325 53.7052 17.177C53.7052 16.099 54.5872 15.567 54.5872 15.567C54.3072 15.385 54.1252 15.105 54.1252 14.643C54.1252 13.831 54.8252 13.425 54.9652 13.355C54.3492 12.977 54.0132 12.333 54.0132 11.479C54.0132 10.149 54.9932 9.26698 56.3512 9.26698C56.8552 9.26698 57.3172 9.37898 57.6812 9.60298L59.6692 9.29498V10.275ZM58.6472 16.421C58.6472 15.945 58.2412 15.847 57.5552 15.847H55.7912C55.5952 15.847 55.4132 15.833 55.2312 15.805C55.2312 15.805 54.6992 16.225 54.6992 16.925C54.6992 17.681 55.1612 18.087 56.1692 18.087C57.7792 18.087 58.6472 17.135 58.6472 16.421ZM57.6112 11.479C57.6112 10.569 57.1072 10.107 56.3512 10.107C55.6232 10.107 55.0632 10.597 55.0632 11.479C55.0632 12.403 55.5812 12.865 56.3512 12.865C57.0652 12.865 57.6112 12.375 57.6112 11.479ZM69.2486 12.403C69.2486 14.531 68.3246 16.071 66.1406 16.071C65.7766 16.071 65.4826 16.043 65.2166 15.973V18.773L64.0966 18.955V10.961L63.9006 9.51898L65.0066 9.33698L65.1046 10.009H65.1186C65.5526 9.64498 66.1266 9.29498 66.8826 9.29498C68.4786 9.29498 69.2486 10.499 69.2486 12.403ZM68.1286 12.725C68.1286 11.297 67.8066 10.303 66.5046 10.303C65.9446 10.303 65.5386 10.541 65.2166 10.807V14.937C65.4826 15.049 65.7906 15.119 66.2246 15.119C67.4426 15.119 68.1286 14.167 68.1286 12.725ZM75.3262 15.931L74.2062 16.113L74.1082 15.343H74.0942C73.6182 15.791 73.1002 16.169 72.3162 16.169C71.2242 16.169 70.5802 15.511 70.5802 14.475C70.5802 13.299 71.5042 12.725 72.8342 12.585L74.0102 12.459V11.871C74.0102 10.961 73.7302 10.317 72.6522 10.317C72.1062 10.317 71.7002 10.485 71.2942 10.695L70.8882 9.86898C71.4762 9.51898 72.0782 9.29498 72.9182 9.29498C74.2342 9.29498 75.1162 10.065 75.1162 11.367V14.489L75.3262 15.931ZM74.0102 14.643V13.215L72.9882 13.355C72.1482 13.467 71.6862 13.733 71.6862 14.335C71.6862 14.881 72.0222 15.245 72.5822 15.245C73.2402 15.245 73.6462 14.965 74.0102 14.643ZM81.9676 9.44898L79.7836 15.399C79.0836 17.331 78.1456 18.493 75.8636 18.955L75.6536 18.045C77.3196 17.709 78.2016 16.701 78.6356 15.609L76.2836 9.54698L77.3896 9.25298L79.1956 14.125H79.2096L80.8616 9.44898H81.9676ZM92.1252 16.001H91.0192V11.745C91.0192 10.779 90.6552 10.289 89.7592 10.289C89.1292 10.289 88.5972 10.597 88.2472 10.947C88.2472 10.947 88.2892 11.185 88.2892 11.437V16.001H87.1692V11.745C87.1692 10.779 86.8052 10.289 85.9232 10.289C85.2932 10.289 84.8452 10.541 84.4392 10.919V16.001H83.3192V10.961L83.1232 9.51898L84.2292 9.33698L84.3412 10.107H84.3552C84.8452 9.63098 85.4892 9.29498 86.3012 9.29498C87.0572 9.29498 87.6872 9.63098 88.0232 10.233H88.0372C88.5552 9.71498 89.2272 9.29498 90.1512 9.29498C91.2712 9.29498 92.1252 10.009 92.1252 11.353V16.001ZM98.9024 15.651C98.2724 16.001 97.6284 16.155 96.8304 16.155C94.8984 16.155 93.9044 14.853 93.9044 12.683C93.9044 10.653 94.9684 9.29498 96.6204 9.29498C98.2024 9.29498 98.8464 10.345 98.8464 11.787V12.571H94.9964C95.0104 14.321 95.6404 15.161 97.0684 15.161C97.6144 15.161 98.0344 15.007 98.5104 14.769L98.9024 15.651ZM97.7964 11.787C97.7964 10.807 97.4324 10.191 96.5644 10.191C95.7244 10.191 95.1924 10.849 95.0524 11.787H97.7964ZM105.543 16.001H104.423V11.745C104.423 10.779 104.059 10.289 103.177 10.289C102.547 10.289 102.099 10.555 101.693 10.919V16.001H100.573V10.961L100.377 9.51898L101.483 9.33698L101.595 10.107H101.609C102.099 9.63098 102.743 9.29498 103.555 9.29498C104.661 9.29498 105.543 10.009 105.543 11.353V16.001ZM111.027 15.735C110.621 15.959 110.243 16.141 109.529 16.141C108.521 16.141 107.877 15.483 107.877 14.363V10.359H106.911V9.61698L107.877 9.42098V8.32898L108.983 8.18898V9.44898H110.817V10.359H108.983V13.985C108.983 14.867 109.207 15.147 109.851 15.147C110.201 15.147 110.467 15.007 110.663 14.881L111.027 15.735ZM116.316 14.097C116.316 15.287 115.378 16.141 113.978 16.141C113.306 16.141 112.634 16.043 112.102 15.791L112.438 14.811C112.9 15.021 113.418 15.189 113.922 15.189C114.678 15.189 115.182 14.895 115.182 14.279C115.182 13.803 114.93 13.607 114.496 13.411L113.278 12.851C112.844 12.655 112.06 12.263 112.06 11.129C112.06 9.88298 113.152 9.29498 114.342 9.29498C115.056 9.29498 115.56 9.40698 116.12 9.64498L115.742 10.611C115.294 10.415 114.86 10.275 114.328 10.275C113.614 10.275 113.152 10.499 113.152 11.059C113.152 11.549 113.572 11.745 113.838 11.871L115.084 12.459C115.952 12.865 116.316 13.383 116.316 14.097Z" fill="#00157E" fill-opacity="0.7"/>
<path d="M0 36.001C0 31.5827 3.58172 28.001 8 28.001H546.667C551.085 28.001 554.667 31.5827 554.667 36.001V248.001C554.667 252.419 551.085 256.001 546.667 256.001H8C3.58172 256.001 0 252.419 0 248.001V36.001Z" fill="white"/>
<path d="M8 28.501H546.667C550.809 28.5011 554.167 31.8589 554.167 36.001V248.001C554.167 252.143 550.809 255.501 546.667 255.501H8C3.85786 255.501 0.5 252.143 0.5 248.001V36.001C0.5 31.8588 3.85786 28.501 8 28.501Z" stroke="#00157E" stroke-opacity="0.2"/>
<path d="M21.754 64.001H16.56V63.273L18.954 60.977C19.598 60.347 20.088 59.885 20.088 59.115C20.088 58.303 19.584 57.701 18.646 57.701C18.016 57.701 17.568 57.981 17.232 58.261L16.7 57.519C17.302 57.015 17.918 56.707 18.884 56.707C20.27 56.707 21.222 57.519 21.222 58.989C21.222 59.969 20.634 60.711 19.962 61.327L18.17 62.979V62.993H21.754V64.001ZM27.8217 61.957C27.8217 63.301 26.7997 64.155 25.3577 64.155C23.8877 64.155 22.8937 63.413 22.8937 62.041C22.8937 60.809 23.8037 60.067 24.5037 59.591C23.6637 59.003 23.1037 58.499 23.1037 57.449C23.1037 56.259 24.0837 55.419 25.3437 55.419C26.7017 55.419 27.5837 56.175 27.5837 57.351C27.5837 58.359 26.8837 59.003 26.1977 59.479C27.0937 60.081 27.8217 60.683 27.8217 61.957ZM26.7437 61.957C26.7437 61.047 26.1137 60.585 25.2737 60.039C24.5317 60.543 23.9577 60.977 23.9577 61.901C23.9577 62.741 24.5177 63.217 25.3717 63.217C26.2817 63.217 26.7437 62.657 26.7437 61.957ZM26.5897 57.477C26.5897 56.763 26.1137 56.301 25.3577 56.301C24.6017 56.301 24.1117 56.791 24.1117 57.491C24.1117 58.149 24.6577 58.527 25.4137 59.045C26.0157 58.653 26.5897 58.149 26.5897 57.477ZM30.9451 63.287C30.9451 63.735 30.5811 64.099 30.1471 64.099C29.6991 64.099 29.3351 63.735 29.3351 63.287C29.3351 62.853 29.6991 62.489 30.1471 62.489C30.5811 62.489 30.9451 62.853 30.9451 63.287ZM38.1903 60.431C38.1903 62.293 37.4623 64.155 35.3483 64.155C33.2203 64.155 32.4923 62.293 32.4923 60.431C32.4923 58.569 33.2203 56.707 35.3483 56.707C37.4623 56.707 38.1903 58.569 38.1903 60.431ZM37.0423 60.431C37.0423 58.863 36.5243 57.687 35.3483 57.687C34.1583 57.687 33.6403 58.863 33.6403 60.431C33.6403 61.999 34.1583 63.175 35.3483 63.175C36.5243 63.175 37.0423 61.999 37.0423 60.431ZM44.2334 62.741C44.2334 65.429 41.6994 66.185 39.8934 66.325L39.7534 65.373C41.0274 65.233 43.0854 64.729 43.0854 62.895C43.0854 61.747 42.4414 61.075 40.6494 61.075H39.7114L40.0194 56.861H44.0094V57.883H40.9854L40.8034 60.235C40.8034 60.235 41.1254 60.207 41.4194 60.207C43.0434 60.207 44.2334 61.061 44.2334 62.741ZM47.2693 63.287C47.2693 63.735 46.9053 64.099 46.4713 64.099C46.0233 64.099 45.6593 63.735 45.6593 63.287C45.6593 62.853 46.0233 62.489 46.4713 62.489C46.9053 62.489 47.2693 62.853 47.2693 63.287ZM53.8145 64.001H48.6205V63.273L51.0145 60.977C51.6585 60.347 52.1485 59.885 52.1485 59.115C52.1485 58.303 51.6445 57.701 50.7065 57.701C50.0765 57.701 49.6285 57.981 49.2925 58.261L48.7605 57.519C49.3625 57.015 49.9785 56.707 50.9445 56.707C52.3305 56.707 53.2825 57.519 53.2825 58.989C53.2825 59.969 52.6945 60.711 52.0225 61.327L50.2305 62.979V62.993H53.8145V64.001ZM60.6942 60.431C60.6942 62.293 59.9662 64.155 57.8522 64.155C55.7242 64.155 54.9962 62.293 54.9962 60.431C54.9962 58.569 55.7242 56.707 57.8522 56.707C59.9662 56.707 60.6942 58.569 60.6942 60.431ZM59.5462 60.431C59.5462 58.863 59.0282 57.687 57.8522 57.687C56.6622 57.687 56.1442 58.863 56.1442 60.431C56.1442 61.999 56.6622 63.175 57.8522 63.175C59.0282 63.175 59.5462 61.999 59.5462 60.431ZM67.0353 64.001H61.8413V63.273L64.2353 60.977C64.8792 60.347 65.3693 59.885 65.3693 59.115C65.3693 58.303 64.8653 57.701 63.9273 57.701C63.2973 57.701 62.8493 57.981 62.5133 58.261L61.9813 57.519C62.5833 57.015 63.1993 56.707 64.1653 56.707C65.5513 56.707 66.5033 57.519 66.5033 58.989C66.5033 59.969 65.9153 60.711 65.2433 61.327L63.4513 62.979V62.993H67.0353V64.001ZM73.3829 61.439C73.3829 63.091 72.4029 64.155 70.8209 64.155C69.0289 64.155 68.2729 62.825 68.2729 60.851C68.2729 57.043 70.5129 55.475 72.9489 55.279L73.0889 56.203C71.4089 56.385 69.7289 57.295 69.4069 59.633L69.4209 59.647C69.4209 59.647 70.1349 59.031 71.1009 59.031C72.5709 59.031 73.3829 59.969 73.3829 61.439ZM72.2769 61.663C72.2769 60.473 71.8149 59.969 70.7929 59.969C69.9949 59.969 69.4069 60.529 69.4069 60.529V60.795C69.4069 62.363 69.8129 63.231 70.9189 63.231C71.8429 63.231 72.2769 62.573 72.2769 61.663Z" fill="#00157E" fill-opacity="0.7"/>
<g clip-path="url(#clip0_441_7088)">
<path d="M28 102.001C33.5228 102.001 38 97.5238 38 92.001C38 86.4781 33.5228 82.001 28 82.001C22.4772 82.001 18 86.4781 18 92.001C18 97.5238 22.4772 102.001 28 102.001Z" stroke="#00157E" stroke-width="2" stroke-linecap="round" stroke-linejoin="round"/>
<path d="M28 86.001V92.001L32 94.001" stroke="#00157E" stroke-width="2" stroke-linecap="round" stroke-linejoin="round"/>
<path d="M62.958 95.567C62.174 95.973 61.376 96.155 60.312 96.155C58.254 96.155 56.672 94.769 56.672 91.969C56.672 88.987 58.436 87.419 60.704 87.419C61.642 87.419 62.216 87.559 62.93 87.867L62.482 88.889C61.95 88.651 61.446 88.469 60.69 88.469C59.22 88.469 57.876 89.603 57.876 91.675C57.876 93.985 58.73 95.119 60.774 95.119C61.446 95.119 62.062 94.853 62.566 94.629L62.958 95.567ZM68.6778 95.931L67.5578 96.113L67.4598 95.343H67.4458C66.9698 95.791 66.4518 96.169 65.6678 96.169C64.5758 96.169 63.9318 95.511 63.9318 94.475C63.9318 93.299 64.8558 92.725 66.1858 92.585L67.3618 92.459V91.871C67.3618 90.961 67.0818 90.317 66.0038 90.317C65.4578 90.317 65.0518 90.485 64.6458 90.695L64.2398 89.869C64.8278 89.519 65.4298 89.295 66.2698 89.295C67.5858 89.295 68.4678 90.065 68.4678 91.367V94.489L68.6778 95.931ZM67.3618 94.643V93.215L66.3398 93.355C65.4998 93.467 65.0378 93.733 65.0378 94.335C65.0378 94.881 65.3738 95.245 65.9338 95.245C66.5918 95.245 66.9978 94.965 67.3618 94.643ZM73.9575 86.579L73.7055 87.531C73.5095 87.461 73.3275 87.419 73.0475 87.419C72.4175 87.419 71.9555 87.825 71.9555 88.651V89.449H73.7615V90.359H71.9555V96.001H70.8495V90.359H69.8835V89.617L70.8495 89.421V88.735C70.8495 87.321 71.8015 86.453 73.1035 86.453C73.4535 86.453 73.7055 86.509 73.9575 86.579ZM79.3204 95.651C78.6904 96.001 78.0464 96.155 77.2484 96.155C75.3164 96.155 74.3224 94.853 74.3224 92.683C74.3224 90.653 75.3864 89.295 77.0384 89.295C78.6204 89.295 79.2644 90.345 79.2644 91.787V92.571H75.4144C75.4284 94.321 76.0584 95.161 77.4864 95.161C78.0324 95.161 78.4524 95.007 78.9284 94.769L79.3204 95.651ZM78.2144 91.787C78.2144 90.807 77.8504 90.191 76.9824 90.191C76.1424 90.191 75.6104 90.849 75.4704 91.787H78.2144Z" fill="#00157E"/>
</g>
<path d="M469.099 93.073C469.099 95.137 467.935 96.157 466.375 96.157C464.707 96.157 463.639 95.317 463.639 93.049V88.777H464.671V93.097C464.671 94.525 465.223 95.197 466.339 95.197C467.455 95.197 468.139 94.513 468.139 93.121V88.777H469.099V93.073ZM474.981 93.973C474.981 95.233 474.105 96.133 472.653 96.133C471.909 96.133 471.249 95.977 470.685 95.737L470.997 94.861C471.465 95.077 472.017 95.257 472.581 95.257C473.457 95.257 474.021 94.921 474.021 94.129C474.021 93.541 473.589 93.253 473.013 92.977L471.885 92.437C471.129 92.077 470.613 91.609 470.613 90.589C470.613 89.353 471.693 88.645 472.941 88.645C473.613 88.645 474.045 88.753 474.669 88.981L474.333 89.833C473.949 89.653 473.529 89.485 473.001 89.485C472.257 89.485 471.585 89.785 471.585 90.553C471.585 91.069 471.897 91.321 472.377 91.549L473.529 92.113C474.441 92.557 474.981 93.049 474.981 93.973ZM482.135 91.933C482.135 94.573 480.551 96.001 477.983 96.001H476.471V88.825C476.471 88.825 477.467 88.705 478.535 88.705C480.767 88.705 482.135 89.869 482.135 91.933ZM481.091 92.077C481.091 90.373 479.939 89.557 478.367 89.557C477.863 89.557 477.479 89.581 477.479 89.581V95.101H478.175C479.891 95.101 481.091 94.081 481.091 92.077Z" fill="#00157E" fill-opacity="0.7"/>
<path d="M497.622 96.001H492.428V95.273L494.822 92.977C495.466 92.347 495.956 91.885 495.956 91.115C495.956 90.303 495.452 89.701 494.514 89.701C493.884 89.701 493.436 89.981 493.1 90.261L492.568 89.519C493.17 89.015 493.786 88.707 494.752 88.707C496.138 88.707 497.09 89.519 497.09 90.989C497.09 91.969 496.502 92.711 495.83 93.327L494.038 94.979V94.993H497.622V96.001ZM500.106 87.573L499.602 90.485H498.748V87.573H500.106ZM507.181 92.431C507.181 94.293 506.453 96.155 504.339 96.155C502.211 96.155 501.483 94.293 501.483 92.431C501.483 90.569 502.211 88.707 504.339 88.707C506.453 88.707 507.181 90.569 507.181 92.431ZM506.033 92.431C506.033 90.863 505.515 89.687 504.339 89.687C503.149 89.687 502.631 90.863 502.631 92.431C502.631 93.999 503.149 95.175 504.339 95.175C505.515 95.175 506.033 93.999 506.033 92.431ZM513.224 94.741C513.224 97.429 510.69 98.185 508.884 98.325L508.744 97.373C510.018 97.233 512.076 96.729 512.076 94.895C512.076 93.747 511.432 93.075 509.64 93.075H508.702L509.01 88.861H513V89.883H509.976L509.794 92.235C509.794 92.235 510.116 92.207 510.41 92.207C512.034 92.207 513.224 93.061 513.224 94.741ZM520.306 92.431C520.306 94.293 519.578 96.155 517.464 96.155C515.336 96.155 514.608 94.293 514.608 92.431C514.608 90.569 515.336 88.707 517.464 88.707C519.578 88.707 520.306 90.569 520.306 92.431ZM519.158 92.431C519.158 90.863 518.64 89.687 517.464 89.687C516.274 89.687 515.756 90.863 515.756 92.431C515.756 93.999 516.274 95.175 517.464 95.175C518.64 95.175 519.158 93.999 519.158 92.431ZM523.465 95.287C523.465 95.735 523.101 96.099 522.667 96.099C522.219 96.099 521.855 95.735 521.855 95.287C521.855 94.853 522.219 94.489 522.667 94.489C523.101 94.489 523.465 94.853 523.465 95.287ZM530.711 92.431C530.711 94.293 529.983 96.155 527.869 96.155C525.741 96.155 525.013 94.293 525.013 92.431C525.013 90.569 525.741 88.707 527.869 88.707C529.983 88.707 530.711 90.569 530.711 92.431ZM529.563 92.431C529.563 90.863 529.045 89.687 527.869 89.687C526.679 89.687 526.161 90.863 526.161 92.431C526.161 93.999 526.679 95.175 527.869 95.175C529.045 95.175 529.563 93.999 529.563 92.431ZM537.916 92.431C537.916 94.293 537.188 96.155 535.074 96.155C532.946 96.155 532.218 94.293 532.218 92.431C532.218 90.569 532.946 88.707 535.074 88.707C537.188 88.707 537.916 90.569 537.916 92.431ZM536.768 92.431C536.768 90.863 536.25 89.687 535.074 89.687C533.884 89.687 533.366 90.863 533.366 92.431C533.366 93.999 533.884 95.175 535.074 95.175C536.25 95.175 536.768 93.999 536.768 92.431Z" fill="#00157E"/>
<path d="M21.754 140.001H16.56V139.273L18.954 136.977C19.598 136.347 20.088 135.885 20.088 135.115C20.088 134.303 19.584 133.701 18.646 133.701C18.016 133.701 17.568 133.981 17.232 134.261L16.7 133.519C17.302 133.015 17.918 132.707 18.884 132.707C20.27 132.707 21.222 133.519 21.222 134.989C21.222 135.969 20.634 136.711 19.962 137.327L18.17 138.979V138.993H21.754V140.001ZM27.9197 136.319C27.9197 140.183 25.9597 141.989 23.1737 142.325L22.9497 141.415C24.7137 141.205 26.4917 140.071 26.7437 137.397L26.7297 137.383C26.7297 137.383 26.0717 137.943 25.0777 137.943C23.6777 137.943 22.7677 136.893 22.7677 135.451C22.7677 133.701 23.8177 132.707 25.3997 132.707C27.0237 132.707 27.9197 133.827 27.9197 136.319ZM26.7577 136.305C26.7577 134.919 26.5057 133.659 25.2597 133.659C24.3777 133.659 23.8597 134.387 23.8597 135.297C23.8597 136.459 24.3917 137.019 25.3857 137.019C26.2397 137.019 26.7577 136.515 26.7577 136.515V136.305ZM31.1365 139.287C31.1365 139.735 30.7725 140.099 30.3385 140.099C29.8905 140.099 29.5265 139.735 29.5265 139.287C29.5265 138.853 29.8905 138.489 30.3385 138.489C30.7725 138.489 31.1365 138.853 31.1365 139.287ZM38.3817 136.431C38.3817 138.293 37.6537 140.155 35.5397 140.155C33.4117 140.155 32.6837 138.293 32.6837 136.431C32.6837 134.569 33.4117 132.707 35.5397 132.707C37.6537 132.707 38.3817 134.569 38.3817 136.431ZM37.2337 136.431C37.2337 134.863 36.7157 133.687 35.5397 133.687C34.3497 133.687 33.8317 134.863 33.8317 136.431C33.8317 137.999 34.3497 139.175 35.5397 139.175C36.7157 139.175 37.2337 137.999 37.2337 136.431ZM44.4248 138.741C44.4248 141.429 41.8908 142.185 40.0848 142.325L39.9448 141.373C41.2188 141.233 43.2768 140.729 43.2768 138.895C43.2768 137.747 42.6328 137.075 40.8408 137.075H39.9028L40.2108 132.861H44.2008V133.883H41.1768L40.9948 136.235C40.9948 136.235 41.3168 136.207 41.6108 136.207C43.2348 136.207 44.4248 137.061 44.4248 138.741ZM47.4607 139.287C47.4607 139.735 47.0967 140.099 46.6627 140.099C46.2147 140.099 45.8507 139.735 45.8507 139.287C45.8507 138.853 46.2147 138.489 46.6627 138.489C47.0967 138.489 47.4607 138.853 47.4607 139.287ZM54.006 140.001H48.812V139.273L51.206 136.977C51.85 136.347 52.34 135.885 52.34 135.115C52.34 134.303 51.836 133.701 50.898 133.701C50.268 133.701 49.82 133.981 49.484 134.261L48.952 133.519C49.554 133.015 50.17 132.707 51.136 132.707C52.522 132.707 53.474 133.519 53.474 134.989C53.474 135.969 52.886 136.711 52.214 137.327L50.422 138.979V138.993H54.006V140.001ZM60.8856 136.431C60.8856 138.293 60.1576 140.155 58.0436 140.155C55.9156 140.155 55.1876 138.293 55.1876 136.431C55.1876 134.569 55.9156 132.707 58.0436 132.707C60.1576 132.707 60.8856 134.569 60.8856 136.431ZM59.7376 136.431C59.7376 134.863 59.2196 133.687 58.0436 133.687C56.8536 133.687 56.3356 134.863 56.3356 136.431C56.3356 137.999 56.8536 139.175 58.0436 139.175C59.2196 139.175 59.7376 137.999 59.7376 136.431ZM67.2267 140.001H62.0327V139.273L64.4267 136.977C65.0707 136.347 65.5607 135.885 65.5607 135.115C65.5607 134.303 65.0567 133.701 64.1187 133.701C63.4887 133.701 63.0407 133.981 62.7047 134.261L62.1727 133.519C62.7747 133.015 63.3907 132.707 64.3567 132.707C65.7427 132.707 66.6947 133.519 66.6947 134.989C66.6947 135.969 66.1067 136.711 65.4347 137.327L63.6427 138.979V138.993H67.2267V140.001ZM73.5743 137.439C73.5743 139.091 72.5943 140.155 71.0123 140.155C69.2203 140.155 68.4643 138.825 68.4643 136.851C68.4643 133.043 70.7043 131.475 73.1403 131.279L73.2803 132.203C71.6003 132.385 69.9203 133.295 69.5983 135.633L69.6123 135.647C69.6123 135.647 70.3263 135.031 71.2923 135.031C72.7623 135.031 73.5743 135.969 73.5743 137.439ZM72.4683 137.663C72.4683 136.473 72.0063 135.969 70.9843 135.969C70.1863 135.969 69.5983 136.529 69.5983 136.529V136.795C69.5983 138.363 70.0043 139.231 71.1103 139.231C72.0343 139.231 72.4683 138.573 72.4683 137.663Z" fill="#00157E" fill-opacity="0.7"/>
<g clip-path="url(#clip1_441_7088)">
<path d="M28 178.001C33.5228 178.001 38 173.524 38 168.001C38 162.478 33.5228 158.001 28 158.001C22.4772 158.001 18 162.478 18 168.001C18 173.524 22.4772 178.001 28 178.001Z" stroke="#00157E" stroke-width="2" stroke-linecap="round" stroke-linejoin="round"/>
<path d="M28 162.001V168.001L32 170.001" stroke="#00157E" stroke-width="2" stroke-linecap="round" stroke-linejoin="round"/>
<path d="M63.308 172.001H62.132V168.151H58.338V172.001H57.162V163.573H58.338V167.157H62.132V163.573H63.308V172.001ZM70.1466 171.651C69.5166 172.001 68.8726 172.155 68.0746 172.155C66.1426 172.155 65.1486 170.853 65.1486 168.683C65.1486 166.653 66.2126 165.295 67.8646 165.295C69.4466 165.295 70.0906 166.345 70.0906 167.787V168.571H66.2406C66.2546 170.321 66.8846 171.161 68.3126 171.161C68.8586 171.161 69.2786 171.007 69.7546 170.769L70.1466 171.651ZM69.0406 167.787C69.0406 166.807 68.6766 166.191 67.8086 166.191C66.9686 166.191 66.4366 166.849 66.2966 167.787H69.0406ZM76.1153 171.931L74.9953 172.113L74.8973 171.343H74.8833C74.4073 171.791 73.8893 172.169 73.1053 172.169C72.0133 172.169 71.3693 171.511 71.3693 170.475C71.3693 169.299 72.2933 168.725 73.6233 168.585L74.7993 168.459V167.871C74.7993 166.961 74.5193 166.317 73.4413 166.317C72.8953 166.317 72.4893 166.485 72.0833 166.695L71.6773 165.869C72.2653 165.519 72.8673 165.295 73.7073 165.295C75.0233 165.295 75.9053 166.065 75.9053 167.367V170.489L76.1153 171.931ZM74.7993 170.643V169.215L73.7773 169.355C72.9373 169.467 72.4753 169.733 72.4753 170.335C72.4753 170.881 72.8113 171.245 73.3713 171.245C74.0293 171.245 74.4353 170.965 74.7993 170.643ZM79.253 172.001H78.133V164.063L77.937 162.621L79.253 162.439V172.001ZM84.7456 171.735C84.3396 171.959 83.9616 172.141 83.2476 172.141C82.2396 172.141 81.5956 171.483 81.5956 170.363V166.359H80.6296V165.617L81.5956 165.421V164.329L82.7016 164.189V165.449H84.5356V166.359H82.7016V169.985C82.7016 170.867 82.9256 171.147 83.5696 171.147C83.9196 171.147 84.1856 171.007 84.3816 170.881L84.7456 171.735ZM91.1691 172.001H90.0631V167.745C90.0631 166.793 89.6851 166.303 88.7891 166.303C88.1451 166.303 87.7111 166.583 87.3331 166.919V172.001H86.2131V164.063L86.0171 162.621L87.3331 162.439V166.023H87.3471C87.7811 165.645 88.3831 165.295 89.1951 165.295C90.3151 165.295 91.1691 165.995 91.1691 167.353V172.001ZM97.6195 165.575L97.2695 166.583C96.9055 166.443 96.4995 166.317 96.0375 166.317C94.8055 166.317 94.0635 167.241 94.0635 168.627C94.0635 170.377 94.7495 171.175 96.0095 171.175C96.4575 171.175 96.8215 171.021 97.1855 170.867L97.5635 171.777C97.0175 172.029 96.4155 172.155 95.7855 172.155C93.9095 172.155 92.9435 170.811 92.9435 168.809C92.9435 166.401 94.4275 165.295 96.0935 165.295C96.6675 165.295 97.1575 165.393 97.6195 165.575ZM103.459 171.931L102.339 172.113L102.241 171.343H102.227C101.751 171.791 101.233 172.169 100.449 172.169C99.357 172.169 98.713 171.511 98.713 170.475C98.713 169.299 99.637 168.725 100.967 168.585L102.143 168.459V167.871C102.143 166.961 101.863 166.317 100.785 166.317C100.239 166.317 99.833 166.485 99.427 166.695L99.021 165.869C99.609 165.519 100.211 165.295 101.051 165.295C102.367 165.295 103.249 166.065 103.249 167.367V170.489L103.459 171.931ZM102.143 170.643V169.215L101.121 169.355C100.281 169.467 99.819 169.733 99.819 170.335C99.819 170.881 100.155 171.245 100.715 171.245C101.373 171.245 101.779 170.965 102.143 170.643ZM108.445 166.415C107.689 166.415 107.129 166.611 106.625 167.073V172.001H105.505V166.961L105.309 165.519L106.415 165.337L106.527 166.233H106.541C106.989 165.729 107.577 165.309 108.445 165.309V166.415ZM114.197 171.651C113.567 172.001 112.923 172.155 112.125 172.155C110.193 172.155 109.199 170.853 109.199 168.683C109.199 166.653 110.263 165.295 111.915 165.295C113.497 165.295 114.141 166.345 114.141 167.787V168.571H110.291C110.305 170.321 110.935 171.161 112.363 171.161C112.909 171.161 113.329 171.007 113.805 170.769L114.197 171.651ZM113.091 167.787C113.091 166.807 112.727 166.191 111.859 166.191C111.019 166.191 110.487 166.849 110.347 167.787H113.091Z" fill="#00157E"/>
</g>
<path d="M477.099 169.073C477.099 171.137 475.935 172.157 474.375 172.157C472.707 172.157 471.639 171.317 471.639 169.049V164.777H472.671V169.097C472.671 170.525 473.223 171.197 474.339 171.197C475.455 171.197 476.139 170.513 476.139 169.121V164.777H477.099V169.073ZM482.981 169.973C482.981 171.233 482.105 172.133 480.653 172.133C479.909 172.133 479.249 171.977 478.685 171.737L478.997 170.861C479.465 171.077 480.017 171.257 480.581 171.257C481.457 171.257 482.021 170.921 482.021 170.129C482.021 169.541 481.589 169.253 481.013 168.977L479.885 168.437C479.129 168.077 478.613 167.609 478.613 166.589C478.613 165.353 479.693 164.645 480.941 164.645C481.613 164.645 482.045 164.753 482.669 164.981L482.333 165.833C481.949 165.653 481.529 165.485 481.001 165.485C480.257 165.485 479.585 165.785 479.585 166.553C479.585 167.069 479.897 167.321 480.377 167.549L481.529 168.113C482.441 168.557 482.981 169.049 482.981 169.973ZM490.135 167.933C490.135 170.573 488.551 172.001 485.983 172.001H484.471V164.825C484.471 164.825 485.467 164.705 486.535 164.705C488.767 164.705 490.135 165.869 490.135 167.933ZM489.091 168.077C489.091 166.373 487.939 165.557 486.367 165.557C485.863 165.557 485.479 165.581 485.479 165.581V171.101H486.175C487.891 171.101 489.091 170.081 489.091 168.077Z" fill="#00157E" fill-opacity="0.7"/>
<path d="M507.4 171.119H505.706V173.975L504.628 174.157V171.119H500.778V170.209L504.67 164.861H505.706V170.167H507.4V171.119ZM504.628 170.167V166.373H504.614L501.926 170.167H504.628ZM513.427 172.001H508.233V171.273L510.627 168.977C511.271 168.347 511.761 167.885 511.761 167.115C511.761 166.303 511.257 165.701 510.319 165.701C509.689 165.701 509.241 165.981 508.905 166.261L508.373 165.519C508.975 165.015 509.591 164.707 510.557 164.707C511.943 164.707 512.895 165.519 512.895 166.989C512.895 167.969 512.307 168.711 511.635 169.327L509.843 170.979V170.993H513.427V172.001ZM520.306 168.431C520.306 170.293 519.578 172.155 517.464 172.155C515.336 172.155 514.608 170.293 514.608 168.431C514.608 166.569 515.336 164.707 517.464 164.707C519.578 164.707 520.306 166.569 520.306 168.431ZM519.158 168.431C519.158 166.863 518.64 165.687 517.464 165.687C516.274 165.687 515.756 166.863 515.756 168.431C515.756 169.999 516.274 171.175 517.464 171.175C518.64 171.175 519.158 169.999 519.158 168.431ZM523.465 171.287C523.465 171.735 523.101 172.099 522.667 172.099C522.219 172.099 521.855 171.735 521.855 171.287C521.855 170.853 522.219 170.489 522.667 170.489C523.101 170.489 523.465 170.853 523.465 171.287ZM530.711 168.431C530.711 170.293 529.983 172.155 527.869 172.155C525.741 172.155 525.013 170.293 525.013 168.431C525.013 166.569 525.741 164.707 527.869 164.707C529.983 164.707 530.711 166.569 530.711 168.431ZM529.563 168.431C529.563 166.863 529.045 165.687 527.869 165.687C526.679 165.687 526.161 166.863 526.161 168.431C526.161 169.999 526.679 171.175 527.869 171.175C529.045 171.175 529.563 169.999 529.563 168.431ZM537.916 168.431C537.916 170.293 537.188 172.155 535.074 172.155C532.946 172.155 532.218 170.293 532.218 168.431C532.218 166.569 532.946 164.707 535.074 164.707C537.188 164.707 537.916 166.569 537.916 168.431ZM536.768 168.431C536.768 166.863 536.25 165.687 535.074 165.687C533.884 165.687 533.366 166.863 533.366 168.431C533.366 169.999 533.884 171.175 535.074 171.175C536.25 171.175 536.768 169.999 536.768 168.431Z" fill="#00157E"/>
<path d="M16 212.001C16 209.792 17.7909 208.001 20 208.001H534.667C536.876 208.001 538.667 209.792 538.667 212.001V236.001C538.667 238.21 536.876 240.001 534.667 240.001H20C17.7909 240.001 16 238.21 16 236.001V212.001Z" fill="#00157E" fill-opacity="0.05"/>
<path d="M244.255 225.635C244.255 227.105 243.233 228.155 241.539 228.155C240.671 228.155 239.901 227.973 239.243 227.693L239.607 226.671C240.153 226.923 240.797 227.133 241.455 227.133C242.477 227.133 243.135 226.741 243.135 225.817C243.135 225.131 242.631 224.795 241.959 224.473L240.643 223.843C239.761 223.423 239.159 222.877 239.159 221.687C239.159 220.245 240.419 219.419 241.875 219.419C242.659 219.419 243.163 219.545 243.891 219.811L243.499 220.805C243.051 220.595 242.561 220.399 241.945 220.399C241.077 220.399 240.293 220.749 240.293 221.645C240.293 222.247 240.657 222.541 241.217 222.807L242.561 223.465C243.625 223.983 244.255 224.557 244.255 225.635ZM250.879 228.001H249.773V223.745C249.773 222.793 249.395 222.303 248.499 222.303C247.855 222.303 247.421 222.583 247.043 222.919V228.001H245.923V220.063L245.727 218.621L247.043 218.439V222.023H247.057C247.491 221.645 248.093 221.295 248.905 221.295C250.025 221.295 250.879 221.995 250.879 223.353V228.001ZM258.254 224.725C258.254 226.643 257.344 228.155 255.454 228.155C253.382 228.155 252.654 226.685 252.654 224.725C252.654 222.807 253.564 221.295 255.454 221.295C257.526 221.295 258.254 222.765 258.254 224.725ZM257.106 224.753C257.106 223.129 256.56 222.275 255.454 222.275C254.376 222.275 253.802 223.031 253.802 224.683C253.802 226.307 254.348 227.175 255.454 227.175C256.532 227.175 257.106 226.405 257.106 224.753ZM267.887 221.449L266.081 227.973L265.045 228.029L263.449 223.059H263.435L261.825 227.987L260.789 228.029L259.151 221.519L260.215 221.253L261.391 226.363H261.405L262.931 221.449H264.023L265.563 226.363H265.577L266.795 221.449H267.887ZM276.595 227.931L275.475 228.113L275.377 227.343H275.363C274.887 227.791 274.369 228.169 273.585 228.169C272.493 228.169 271.849 227.511 271.849 226.475C271.849 225.299 272.773 224.725 274.103 224.585L275.279 224.459V223.871C275.279 222.961 274.999 222.317 273.921 222.317C273.375 222.317 272.969 222.485 272.563 222.695L272.157 221.869C272.745 221.519 273.347 221.295 274.187 221.295C275.503 221.295 276.385 222.065 276.385 223.367V226.489L276.595 227.931ZM275.279 226.643V225.215L274.257 225.355C273.417 225.467 272.955 225.733 272.955 226.335C272.955 226.881 273.291 227.245 273.851 227.245C274.509 227.245 274.915 226.965 275.279 226.643ZM279.733 228.001H278.613V220.063L278.417 218.621L279.733 218.439V228.001ZM283.041 228.001H281.921V220.063L281.725 218.621L283.041 218.439V228.001Z" fill="#00157E"/>
<path d="M297.333 224.001H311.333" stroke="#00157E" stroke-width="2" stroke-linecap="round" stroke-linejoin="round"/>
<path d="M304.333 217.001L311.333 224.001L304.333 231.001" stroke="#00157E" stroke-width="2" stroke-linecap="round" stroke-linejoin="round"/>
<defs>
<clipPath id="clip0_441_7088">
<rect width="430.667" height="24" fill="white" transform="translate(16 80.001)"/>
</clipPath>
<clipPath id="clip1_441_7088">
<rect width="438.667" height="24" fill="white" transform="translate(16 156.001)"/>
</clipPath>
</defs>
</svg>
