<svg width="375" height="812" viewBox="0 0 375 812" fill="none" xmlns="http://www.w3.org/2000/svg">
<g clip-path="url(#clip0_393_69774)">
<rect width="375" height="812" fill="white"/>
<path d="M343.99 22.17H357.993C359.556 22.17 360.823 23.4371 360.823 25.0001V29.6729C360.823 31.2359 359.556 32.503 357.993 32.503H343.99C342.427 32.503 341.16 31.2359 341.16 29.6729V25.0001C341.16 23.4371 342.427 22.17 343.99 22.17Z" stroke="#00157E"/>
<path d="M362.33 25.3367V29.3367C363.135 28.9979 363.658 28.2098 363.658 27.3367C363.658 26.4635 363.135 25.6754 362.33 25.3367" fill="#00157E"/>
<rect x="342.66" y="23.67" width="16.66" height="7.33333" rx="1.33333" fill="#00157E"/>
<path d="M325.427 30.0606C326.702 28.9817 328.571 28.9817 329.847 30.0606C329.911 30.1186 329.947 30.2007 329.949 30.2871C329.951 30.3736 329.917 30.457 329.855 30.5176L327.858 32.5332C327.8 32.5924 327.72 32.626 327.637 32.626C327.553 32.626 327.474 32.5924 327.415 32.5332L325.417 30.5176C325.355 30.457 325.321 30.3735 325.323 30.2871C325.325 30.2007 325.363 30.1185 325.427 30.0606ZM322.762 27.3711C325.51 24.8151 329.766 24.8151 332.514 27.3711C332.576 27.431 332.611 27.5135 332.612 27.5996C332.613 27.6858 332.579 27.7689 332.519 27.8301L331.364 28.9971C331.245 29.1162 331.053 29.1188 330.931 29.003C330.028 28.1858 328.854 27.7334 327.637 27.7334C326.42 27.7339 325.247 28.1863 324.345 29.003C324.223 29.1188 324.03 29.1162 323.911 28.9971L322.757 27.8301C322.696 27.769 322.662 27.6857 322.663 27.5996C322.664 27.5135 322.7 27.431 322.762 27.3711ZM320.097 24.6895C324.312 20.6503 330.962 20.6501 335.177 24.6895C335.238 24.7494 335.272 24.8316 335.272 24.917C335.273 25.0026 335.239 25.0848 335.179 25.1455L334.022 26.3125C333.903 26.432 333.711 26.4332 333.59 26.3155C331.984 24.7887 329.853 23.9376 327.637 23.9375C325.421 23.9375 323.289 24.7886 321.683 26.3155C321.562 26.4334 321.369 26.4322 321.25 26.3125L320.094 25.1455C320.033 25.0848 319.999 25.0026 320 24.917C320.001 24.8315 320.036 24.7494 320.097 24.6895Z" fill="#00157E"/>
<path d="M299.66 28.667C300.212 28.667 300.66 29.1147 300.66 29.667V31.667C300.66 32.2191 300.212 32.667 299.66 32.667H298.66C298.108 32.667 297.66 32.2191 297.66 31.667V29.667C297.66 29.1147 298.108 28.667 298.66 28.667H299.66ZM304.327 26.667C304.879 26.6672 305.327 27.1148 305.327 27.667V31.667C305.327 32.219 304.879 32.6668 304.327 32.667H303.327C302.775 32.667 302.327 32.2191 302.327 31.667V27.667C302.327 27.1147 302.775 26.667 303.327 26.667H304.327ZM308.993 24.333C309.545 24.333 309.993 24.7809 309.993 25.333V31.667C309.993 32.2191 309.545 32.667 308.993 32.667H307.993C307.441 32.6668 306.993 32.219 306.993 31.667V25.333C306.993 24.781 307.441 24.3332 307.993 24.333H308.993ZM313.66 22C314.212 22 314.66 22.4477 314.66 23V31.667C314.66 32.2191 314.212 32.667 313.66 32.667H312.66C312.108 32.667 311.66 32.2191 311.66 31.667V23C311.66 22.4477 312.108 22 312.66 22H313.66Z" fill="#00157E"/>
<path d="M32.1846 21.9175C34.4405 21.9175 36.4034 23.5215 36.4034 27.3301V27.3447C36.4034 30.9043 34.7994 33.0137 32.1407 33.0137C30.1998 33.0137 28.7496 31.8638 28.4127 30.2451L28.398 30.1646H30.2584L30.2804 30.2378C30.5587 30.9775 31.2105 31.4609 32.1407 31.4609C33.8179 31.4609 34.5284 29.8203 34.609 27.7988C34.609 27.7183 34.6163 27.6377 34.6163 27.5571H34.4698C34.0816 28.3921 33.1588 29.1318 31.7086 29.1318C29.6798 29.1318 28.2589 27.6523 28.2589 25.6455V25.6309C28.2589 23.4849 29.8922 21.9175 32.1846 21.9175ZM32.1773 27.6816C33.3712 27.6816 34.2867 26.8174 34.2867 25.6235V25.6089C34.2867 24.4004 33.3712 23.4556 32.1993 23.4556C31.0347 23.4556 30.1046 24.3857 30.1046 25.5649V25.5796C30.1046 26.8027 30.9762 27.6816 32.1773 27.6816ZM39.4486 25.9019C38.7821 25.9019 38.284 25.3892 38.284 24.7446C38.284 24.0928 38.7821 23.5874 39.4486 23.5874C40.1224 23.5874 40.6131 24.0928 40.6131 24.7446C40.6131 25.3892 40.1224 25.9019 39.4486 25.9019ZM39.4486 31.3364C38.7821 31.3364 38.284 30.8311 38.284 30.1792C38.284 29.5273 38.7821 29.022 39.4486 29.022C40.1224 29.022 40.6131 29.5273 40.6131 30.1792C40.6131 30.8311 40.1224 31.3364 39.4486 31.3364ZM47.6207 32.75V30.7212H42.4498V29.1758C43.8195 26.7954 45.3209 24.3638 46.7565 22.1812H49.4298V29.1611H50.8507V30.7212H49.4298V32.75H47.6207ZM44.2077 29.2051H47.65V23.6899H47.5402C46.4562 25.3452 45.233 27.3008 44.2077 29.0952V29.2051ZM54.9506 32.75V24.0415H54.8261L52.1967 25.9019V24.1221L54.9579 22.1812H56.8403V32.75H54.9506Z" fill="#00157E"/>
<path d="M16 54C16 51.7909 17.7909 50 20 50H315C317.209 50 319 51.7909 319 54V86C319 88.2091 317.209 90 315 90H20C17.7909 90 16 88.2091 16 86V54Z" fill="white"/>
<path d="M20 50.5H315C316.933 50.5 318.5 52.067 318.5 54V86C318.5 87.933 316.933 89.5 315 89.5H20C18.067 89.5 16.5 87.933 16.5 86V54C16.5 52.067 18.067 50.5 20 50.5Z" stroke="#00157E" stroke-opacity="0.7"/>
<path d="M39 77C43.4183 77 47 73.4183 47 69C47 64.5817 43.4183 61 39 61C34.5817 61 31 64.5817 31 69C31 73.4183 34.5817 77 39 77Z" stroke="#00157E" stroke-width="2" stroke-linecap="round" stroke-linejoin="round"/>
<path d="M49 79L44.65 74.65" stroke="#00157E" stroke-width="2" stroke-linecap="round" stroke-linejoin="round"/>
<path d="M66.6314 75H61.6874V65.368H66.4714V66.504H63.0154V69.464H66.1354V70.584H63.0154V73.864H66.6314V75ZM74.21 75H72.93V70.136C72.93 69.032 72.514 68.472 71.506 68.472C70.786 68.472 70.274 68.776 69.81 69.192V75H68.53V69.24L68.306 67.592L69.57 67.384L69.698 68.264H69.714C70.274 67.72 71.01 67.336 71.938 67.336C73.202 67.336 74.21 68.152 74.21 69.688V75ZM80.4771 74.696C80.0131 74.952 79.5811 75.16 78.7651 75.16C77.6131 75.16 76.8771 74.408 76.8771 73.128V68.552H75.7731V67.704L76.8771 67.48V66.232L78.1411 66.072V67.512H80.2371V68.552H78.1411V72.696C78.1411 73.704 78.3971 74.024 79.1331 74.024C79.5331 74.024 79.8371 73.864 80.0611 73.72L80.4771 74.696ZM87.1675 74.6C86.4475 75 85.7115 75.176 84.7995 75.176C82.5915 75.176 81.4555 73.688 81.4555 71.208C81.4555 68.888 82.6715 67.336 84.5595 67.336C86.3675 67.336 87.1035 68.536 87.1035 70.184V71.08H82.7035C82.7195 73.08 83.4395 74.04 85.0715 74.04C85.6955 74.04 86.1755 73.864 86.7195 73.592L87.1675 74.6ZM85.9035 70.184C85.9035 69.064 85.4875 68.36 84.4955 68.36C83.5355 68.36 82.9275 69.112 82.7675 70.184H85.9035ZM92.4369 68.616C91.5729 68.616 90.9329 68.84 90.3569 69.368V75H89.0769V69.24L88.8529 67.592L90.1169 67.384L90.2449 68.408H90.2609C90.7729 67.832 91.4449 67.352 92.4369 67.352V68.616ZM98.7501 75H97.4061V65.368H98.7501V75ZM107.55 72.056C107.55 74.216 105.774 75 103.438 75H101.406V65.432C101.406 65.432 102.622 65.288 103.87 65.288C105.71 65.288 106.83 65.976 106.83 67.496C106.83 68.648 106.11 69.416 105.198 69.816V69.832C106.494 69.976 107.55 70.728 107.55 72.056ZM106.222 72.264C106.222 71.192 105.534 70.552 103.646 70.552H102.718V73.912H103.886C105.198 73.912 106.222 73.416 106.222 72.264ZM105.502 67.8C105.502 66.728 104.814 66.264 103.582 66.264C103.134 66.264 102.718 66.312 102.718 66.312V69.624C104.366 69.592 105.502 69.128 105.502 67.8ZM116.254 74.84L114.942 75.208L113.918 71.88H110.782L109.806 75H108.398L111.742 65.368H113.118L116.254 74.84ZM113.63 70.92L112.382 66.76H112.366L111.07 70.92H113.63ZM124.883 74.904L123.587 75.144L119.107 67.432H119.091V75H117.875V65.368H119.315L123.651 72.808H123.667V65.368H124.883V74.904ZM128.955 74.328C128.955 75.496 128.459 76.36 127.499 76.968L127.131 76.488C127.611 76.104 127.851 75.688 127.931 75.096C127.483 75.048 127.115 74.648 127.115 74.184C127.115 73.656 127.515 73.272 128.027 73.272C128.539 73.272 128.955 73.672 128.955 74.328ZM139.773 75H138.493V70.136C138.493 69.032 138.077 68.472 137.069 68.472C136.349 68.472 135.837 68.776 135.373 69.192V75H134.093V69.24L133.868 67.592L135.133 67.384L135.261 68.264H135.277C135.837 67.72 136.573 67.336 137.501 67.336C138.765 67.336 139.773 68.152 139.773 69.688V75ZM147.208 74.92L145.928 75.128L145.816 74.248H145.8C145.256 74.76 144.664 75.192 143.768 75.192C142.52 75.192 141.784 74.44 141.784 73.256C141.784 71.912 142.84 71.256 144.36 71.096L145.704 70.952V70.28C145.704 69.24 145.384 68.504 144.152 68.504C143.528 68.504 143.064 68.696 142.6 68.936L142.136 67.992C142.808 67.592 143.496 67.336 144.456 67.336C145.96 67.336 146.968 68.216 146.968 69.704V73.272L147.208 74.92ZM145.704 73.448V71.816L144.536 71.976C143.576 72.104 143.048 72.408 143.048 73.096C143.048 73.72 143.432 74.136 144.072 74.136C144.824 74.136 145.288 73.816 145.704 73.448ZM159.61 75H158.346V70.136C158.346 69.032 157.93 68.472 156.906 68.472C156.186 68.472 155.578 68.824 155.178 69.224C155.178 69.224 155.226 69.496 155.226 69.784V75H153.946V70.136C153.946 69.032 153.53 68.472 152.522 68.472C151.802 68.472 151.29 68.76 150.826 69.192V75H149.546V69.24L149.322 67.592L150.586 67.384L150.714 68.264H150.73C151.29 67.72 152.026 67.336 152.954 67.336C153.818 67.336 154.538 67.72 154.922 68.408H154.938C155.53 67.816 156.298 67.336 157.354 67.336C158.634 67.336 159.61 68.152 159.61 69.688V75ZM167.355 74.6C166.635 75 165.899 75.176 164.987 75.176C162.779 75.176 161.643 73.688 161.643 71.208C161.643 68.888 162.859 67.336 164.747 67.336C166.555 67.336 167.291 68.536 167.291 70.184V71.08H162.891C162.907 73.08 163.627 74.04 165.259 74.04C165.883 74.04 166.363 73.864 166.907 73.592L167.355 74.6ZM166.091 70.184C166.091 69.064 165.675 68.36 164.683 68.36C163.723 68.36 163.115 69.112 162.955 70.184H166.091ZM178.512 71.256C178.512 73.448 177.472 75.176 175.312 75.176C172.944 75.176 172.112 73.496 172.112 71.256C172.112 69.064 173.152 67.336 175.312 67.336C177.68 67.336 178.512 69.016 178.512 71.256ZM177.2 71.288C177.2 69.432 176.576 68.456 175.312 68.456C174.08 68.456 173.424 69.32 173.424 71.208C173.424 73.064 174.048 74.056 175.312 74.056C176.544 74.056 177.2 73.176 177.2 71.288ZM183.906 68.616C183.042 68.616 182.402 68.84 181.826 69.368V75H180.546V69.24L180.322 67.592L181.586 67.384L181.714 68.408H181.73C182.242 67.832 182.914 67.352 183.906 67.352V68.616ZM193.739 74.92L192.459 75.128L192.347 74.248H192.331C191.787 74.76 191.195 75.192 190.299 75.192C189.051 75.192 188.315 74.44 188.315 73.256C188.315 71.912 189.371 71.256 190.891 71.096L192.235 70.952V70.28C192.235 69.24 191.915 68.504 190.683 68.504C190.059 68.504 189.595 68.696 189.131 68.936L188.667 67.992C189.339 67.592 190.027 67.336 190.987 67.336C192.491 67.336 193.499 68.216 193.499 69.704V73.272L193.739 74.92ZM192.235 73.448V71.816L191.067 71.976C190.107 72.104 189.579 72.408 189.579 73.096C189.579 73.72 189.963 74.136 190.603 74.136C191.355 74.136 191.819 73.816 192.235 73.448ZM200.909 67.656L200.509 68.808C200.093 68.648 199.629 68.504 199.101 68.504C197.693 68.504 196.845 69.56 196.845 71.144C196.845 73.144 197.629 74.056 199.069 74.056C199.581 74.056 199.997 73.88 200.413 73.704L200.845 74.744C200.221 75.032 199.533 75.176 198.813 75.176C196.669 75.176 195.565 73.64 195.565 71.352C195.565 68.6 197.261 67.336 199.165 67.336C199.821 67.336 200.381 67.448 200.909 67.656ZM207.221 67.656L206.821 68.808C206.405 68.648 205.941 68.504 205.413 68.504C204.005 68.504 203.157 69.56 203.157 71.144C203.157 73.144 203.941 74.056 205.381 74.056C205.893 74.056 206.309 73.88 206.725 73.704L207.157 74.744C206.533 75.032 205.845 75.176 205.125 75.176C202.981 75.176 201.877 73.64 201.877 71.352C201.877 68.6 203.573 67.336 205.477 67.336C206.133 67.336 206.693 67.448 207.221 67.656ZM214.59 71.256C214.59 73.448 213.55 75.176 211.39 75.176C209.022 75.176 208.19 73.496 208.19 71.256C208.19 69.064 209.23 67.336 211.39 67.336C213.758 67.336 214.59 69.016 214.59 71.256ZM213.278 71.288C213.278 69.432 212.654 68.456 211.39 68.456C210.158 68.456 209.502 69.32 209.502 71.208C209.502 73.064 210.126 74.056 211.39 74.056C212.622 74.056 213.278 73.176 213.278 71.288ZM222.528 74.92L221.264 75.128L221.136 74.264H221.12C220.56 74.792 219.824 75.176 218.896 75.176C217.632 75.176 216.624 74.36 216.624 72.824V69.24L216.4 67.592L217.904 67.384V72.376C217.904 73.48 218.32 74.056 219.328 74.056C220.048 74.056 220.56 73.752 221.024 73.32V69.24L220.8 67.592L222.304 67.384V73.272L222.528 74.92ZM230.538 75H229.258V70.136C229.258 69.032 228.842 68.472 227.834 68.472C227.114 68.472 226.602 68.776 226.138 69.192V75H224.858V69.24L224.634 67.592L225.898 67.384L226.026 68.264H226.042C226.602 67.72 227.338 67.336 228.266 67.336C229.53 67.336 230.538 68.152 230.538 69.688V75ZM236.805 74.696C236.341 74.952 235.909 75.16 235.093 75.16C233.941 75.16 233.205 74.408 233.205 73.128V68.552H232.101V67.704L233.205 67.48V66.232L234.469 66.072V67.512H236.565V68.552H234.469V72.696C234.469 73.704 234.725 74.024 235.461 74.024C235.861 74.024 236.165 73.864 236.389 73.72L236.805 74.696ZM247.554 75H246.274V70.136C246.274 69.032 245.858 68.472 244.85 68.472C244.13 68.472 243.618 68.776 243.154 69.192V75H241.874V69.24L241.65 67.592L242.914 67.384L243.042 68.264H243.058C243.618 67.72 244.354 67.336 245.282 67.336C246.546 67.336 247.554 68.152 247.554 69.688V75ZM255.981 74.92L254.717 75.128L254.589 74.264H254.573C254.013 74.792 253.277 75.176 252.349 75.176C251.085 75.176 250.077 74.36 250.077 72.824V69.24L249.853 67.592L251.357 67.384V72.376C251.357 73.48 251.773 74.056 252.781 74.056C253.501 74.056 254.013 73.752 254.477 73.32V69.24L254.253 67.592L255.757 67.384V73.272L255.981 74.92ZM268.375 75H267.111V70.136C267.111 69.032 266.695 68.472 265.671 68.472C264.951 68.472 264.343 68.824 263.943 69.224C263.943 69.224 263.991 69.496 263.991 69.784V75H262.711V70.136C262.711 69.032 262.295 68.472 261.287 68.472C260.567 68.472 260.055 68.76 259.591 69.192V75H258.311V69.24L258.087 67.592L259.351 67.384L259.479 68.264H259.495C260.055 67.72 260.791 67.336 261.719 67.336C262.583 67.336 263.303 67.72 263.687 68.408H263.703C264.295 67.816 265.063 67.336 266.119 67.336C267.399 67.336 268.375 68.152 268.375 69.688V75ZM276.841 70.808C276.841 73.304 275.545 75.16 273.177 75.16C272.345 75.16 271.433 75.016 270.889 74.808V65.928L270.665 64.28L272.169 64.072V68.088H272.185C272.665 67.688 273.305 67.336 274.153 67.336C275.913 67.336 276.841 68.6 276.841 70.808ZM275.545 71.272C275.545 69.624 275.161 68.504 273.705 68.504C273.033 68.504 272.553 68.776 272.169 69.112V73.928C272.489 74.008 272.809 74.056 273.289 74.056C274.777 74.056 275.545 72.792 275.545 71.272ZM284.089 74.6C283.369 75 282.633 75.176 281.721 75.176C279.513 75.176 278.377 73.688 278.377 71.208C278.377 68.888 279.593 67.336 281.481 67.336C283.289 67.336 284.025 68.536 284.025 70.184V71.08H279.625C279.641 73.08 280.361 74.04 281.993 74.04C282.617 74.04 283.097 73.864 283.641 73.592L284.089 74.6ZM282.825 70.184C282.825 69.064 282.409 68.36 281.417 68.36C280.457 68.36 279.849 69.112 279.689 70.184H282.825ZM289.359 68.616C288.495 68.616 287.855 68.84 287.279 69.368V75H285.999V69.24L285.775 67.592L287.039 67.384L287.167 68.408H287.183C287.695 67.832 288.367 67.352 289.359 67.352V68.616Z" fill="#00157E" fill-opacity="0.4"/>
<path d="M349 64L337 76" stroke="#00157E" stroke-width="2" stroke-linecap="round" stroke-linejoin="round"/>
<path d="M337 64L349 76" stroke="#00157E" stroke-width="2" stroke-linecap="round" stroke-linejoin="round"/>
<g clip-path="url(#clip1_393_69774)">
<path d="M22.552 117.734L21.516 118.238L19.15 114.402C18.94 114.43 18.744 114.444 18.534 114.444H18.324V118H17.162V109.642C17.162 109.642 18.226 109.488 19.318 109.488C20.942 109.488 21.964 110.272 21.964 111.602C21.964 112.89 21.222 113.688 20.228 114.08L22.552 117.734ZM20.83 111.812C20.83 110.804 20.13 110.37 19.122 110.37C18.674 110.37 18.324 110.412 18.324 110.412V113.59H18.506C19.64 113.59 20.83 113.114 20.83 111.812ZM28.4513 117.65C27.8213 118 27.1773 118.154 26.3792 118.154C24.4473 118.154 23.4533 116.852 23.4533 114.682C23.4533 112.652 24.5173 111.294 26.1693 111.294C27.7513 111.294 28.3953 112.344 28.3953 113.786V114.57H24.5453C24.5593 116.32 25.1893 117.16 26.6173 117.16C27.1633 117.16 27.5833 117.006 28.0593 116.768L28.4513 117.65ZM27.3453 113.786C27.3453 112.806 26.9813 112.19 26.1133 112.19C25.2733 112.19 24.7413 112.848 24.6013 113.786H27.3453ZM34.35 111.574L34 112.582C33.636 112.442 33.23 112.316 32.768 112.316C31.536 112.316 30.794 113.24 30.794 114.626C30.794 116.376 31.48 117.174 32.74 117.174C33.188 117.174 33.552 117.02 33.916 116.866L34.294 117.776C33.748 118.028 33.146 118.154 32.516 118.154C30.64 118.154 29.674 116.81 29.674 114.808C29.674 112.4 31.158 111.294 32.824 111.294C33.398 111.294 33.888 111.392 34.35 111.574ZM40.7974 114.724C40.7974 116.642 39.8874 118.154 37.9974 118.154C35.9254 118.154 35.1974 116.684 35.1974 114.724C35.1974 112.806 36.1074 111.294 37.9974 111.294C40.0694 111.294 40.7974 112.764 40.7974 114.724ZM39.6494 114.752C39.6494 113.128 39.1034 112.274 37.9974 112.274C36.9194 112.274 36.3454 113.03 36.3454 114.682C36.3454 116.306 36.8914 117.174 37.9974 117.174C39.0754 117.174 39.6494 116.404 39.6494 114.752ZM51.383 118H50.277V113.744C50.277 112.778 49.913 112.288 49.017 112.288C48.387 112.288 47.855 112.596 47.505 112.946C47.505 112.946 47.547 113.184 47.547 113.436V118H46.427V113.744C46.427 112.778 46.063 112.288 45.181 112.288C44.551 112.288 44.103 112.54 43.697 112.918V118H42.577V112.96L42.381 111.518L43.487 111.336L43.599 112.106H43.613C44.103 111.63 44.747 111.294 45.559 111.294C46.315 111.294 46.945 111.63 47.281 112.232H47.295C47.813 111.714 48.485 111.294 49.409 111.294C50.529 111.294 51.383 112.008 51.383 113.352V118ZM62.4162 118H61.3102V113.744C61.3102 112.778 60.9462 112.288 60.0502 112.288C59.4202 112.288 58.8882 112.596 58.5382 112.946C58.5382 112.946 58.5802 113.184 58.5802 113.436V118H57.4602V113.744C57.4602 112.778 57.0962 112.288 56.2142 112.288C55.5842 112.288 55.1362 112.54 54.7302 112.918V118H53.6102V112.96L53.4142 111.518L54.5202 111.336L54.6322 112.106H54.6462C55.1362 111.63 55.7802 111.294 56.5922 111.294C57.3482 111.294 57.9782 111.63 58.3142 112.232H58.3282C58.8462 111.714 59.5182 111.294 60.4422 111.294C61.5622 111.294 62.4162 112.008 62.4162 113.352V118ZM69.1934 117.65C68.5634 118 67.9194 118.154 67.1214 118.154C65.1894 118.154 64.1954 116.852 64.1954 114.682C64.1954 112.652 65.2594 111.294 66.9114 111.294C68.4934 111.294 69.1374 112.344 69.1374 113.786V114.57H65.2874C65.3014 116.32 65.9314 117.16 67.3594 117.16C67.9054 117.16 68.3254 117.006 68.8014 116.768L69.1934 117.65ZM68.0874 113.786C68.0874 112.806 67.7234 112.19 66.8554 112.19C66.0154 112.19 65.4834 112.848 65.3434 113.786H68.0874ZM75.8341 118H74.7141V113.744C74.7141 112.778 74.3501 112.288 73.4681 112.288C72.8381 112.288 72.3901 112.554 71.9841 112.918V118H70.8641V112.96L70.6681 111.518L71.7741 111.336L71.8861 112.106H71.9001C72.3901 111.63 73.0341 111.294 73.8461 111.294C74.9521 111.294 75.8341 112.008 75.8341 113.352V118ZM82.9559 117.958L81.8779 118.112L81.7799 117.454H81.7659C81.3459 117.804 80.7719 118.154 80.0019 118.154C78.5599 118.154 77.5939 116.964 77.5939 115.018C77.5939 112.764 78.7559 111.378 80.7439 111.378C81.2759 111.378 81.6539 111.476 81.6539 111.476V110.062L81.4439 108.62L82.7599 108.438V116.516L82.9559 117.958ZM80.3939 117.174C80.9399 117.174 81.3179 116.95 81.6539 116.684V112.498C81.6539 112.498 81.2899 112.316 80.6459 112.316C79.3719 112.316 78.7419 113.394 78.7419 114.668C78.7419 116.25 79.1619 117.174 80.3939 117.174ZM89.5509 117.65C88.9209 118 88.2769 118.154 87.4789 118.154C85.5469 118.154 84.5529 116.852 84.5529 114.682C84.5529 112.652 85.6169 111.294 87.2689 111.294C88.8509 111.294 89.4949 112.344 89.4949 113.786V114.57H85.6449C85.6589 116.32 86.2889 117.16 87.7169 117.16C88.2629 117.16 88.6829 117.006 89.1589 116.768L89.5509 117.65ZM88.4449 113.786C88.4449 112.806 88.0809 112.19 87.2129 112.19C86.3729 112.19 85.8409 112.848 85.7009 113.786H88.4449ZM96.1356 117.958L95.0576 118.112L94.9596 117.454H94.9456C94.5256 117.804 93.9516 118.154 93.1816 118.154C91.7396 118.154 90.7736 116.964 90.7736 115.018C90.7736 112.764 91.9356 111.378 93.9236 111.378C94.4556 111.378 94.8336 111.476 94.8336 111.476V110.062L94.6236 108.62L95.9396 108.438V116.516L96.1356 117.958ZM93.5736 117.174C94.1196 117.174 94.4976 116.95 94.8336 116.684V112.498C94.8336 112.498 94.4696 112.316 93.8256 112.316C92.5516 112.316 91.9216 113.394 91.9216 114.668C91.9216 116.25 92.3416 117.174 93.5736 117.174ZM104.06 112.414C103.304 112.414 102.744 112.61 102.24 113.072V118H101.12V112.96L100.924 111.518L102.03 111.336L102.142 112.232H102.156C102.604 111.728 103.192 111.308 104.06 111.308V112.414ZM109.813 117.65C109.183 118 108.539 118.154 107.741 118.154C105.809 118.154 104.815 116.852 104.815 114.682C104.815 112.652 105.879 111.294 107.531 111.294C109.113 111.294 109.757 112.344 109.757 113.786V114.57H105.907C105.921 116.32 106.551 117.16 107.979 117.16C108.525 117.16 108.945 117.006 109.421 116.768L109.813 117.65ZM108.707 113.786C108.707 112.806 108.343 112.19 107.475 112.19C106.635 112.19 106.103 112.848 105.963 113.786H108.707ZM115.711 111.574L115.361 112.582C114.997 112.442 114.591 112.316 114.129 112.316C112.897 112.316 112.155 113.24 112.155 114.626C112.155 116.376 112.841 117.174 114.101 117.174C114.549 117.174 114.913 117.02 115.277 116.866L115.655 117.776C115.109 118.028 114.507 118.154 113.877 118.154C112.001 118.154 111.035 116.81 111.035 114.808C111.035 112.4 112.519 111.294 114.185 111.294C114.759 111.294 115.249 111.392 115.711 111.574ZM118.401 118H117.281V112.96L117.085 111.518L118.401 111.336V118ZM118.625 109.74C118.625 110.188 118.275 110.524 117.855 110.524C117.421 110.524 117.057 110.188 117.057 109.74C117.057 109.292 117.421 108.942 117.855 108.942C118.275 108.942 118.625 109.292 118.625 109.74ZM125.795 114.402C125.795 116.53 124.871 118.07 122.687 118.07C122.323 118.07 122.029 118.042 121.763 117.972V120.772L120.643 120.954V112.96L120.447 111.518L121.553 111.336L121.651 112.008H121.665C122.099 111.644 122.673 111.294 123.429 111.294C125.025 111.294 125.795 112.498 125.795 114.402ZM124.675 114.724C124.675 113.296 124.353 112.302 123.051 112.302C122.491 112.302 122.085 112.54 121.763 112.806V116.936C122.029 117.048 122.337 117.118 122.771 117.118C123.989 117.118 124.675 116.166 124.675 114.724ZM128.723 118H127.603V112.96L127.407 111.518L128.723 111.336V118ZM128.947 109.74C128.947 110.188 128.597 110.524 128.177 110.524C127.743 110.524 127.379 110.188 127.379 109.74C127.379 109.292 127.743 108.942 128.177 108.942C128.597 108.942 128.947 109.292 128.947 109.74ZM135.516 117.65C134.886 118 134.242 118.154 133.444 118.154C131.512 118.154 130.518 116.852 130.518 114.682C130.518 112.652 131.582 111.294 133.234 111.294C134.816 111.294 135.46 112.344 135.46 113.786V114.57H131.61C131.624 116.32 132.254 117.16 133.682 117.16C134.228 117.16 134.648 117.006 135.124 116.768L135.516 117.65ZM134.41 113.786C134.41 112.806 134.046 112.19 133.178 112.19C132.338 112.19 131.806 112.848 131.666 113.786H134.41ZM142.156 118H141.036V113.744C141.036 112.778 140.672 112.288 139.79 112.288C139.16 112.288 138.712 112.554 138.306 112.918V118H137.186V112.96L136.99 111.518L138.096 111.336L138.208 112.106H138.222C138.712 111.63 139.356 111.294 140.168 111.294C141.274 111.294 142.156 112.008 142.156 113.352V118ZM147.64 117.734C147.234 117.958 146.856 118.14 146.142 118.14C145.134 118.14 144.49 117.482 144.49 116.362V112.358H143.524V111.616L144.49 111.42V110.328L145.596 110.188V111.448H147.43V112.358H145.596V115.984C145.596 116.866 145.82 117.146 146.464 117.146C146.814 117.146 147.08 117.006 147.276 116.88L147.64 117.734ZM152.93 116.096C152.93 117.286 151.992 118.14 150.592 118.14C149.92 118.14 149.248 118.042 148.716 117.79L149.052 116.81C149.514 117.02 150.032 117.188 150.536 117.188C151.292 117.188 151.796 116.894 151.796 116.278C151.796 115.802 151.544 115.606 151.11 115.41L149.892 114.85C149.458 114.654 148.674 114.262 148.674 113.128C148.674 111.882 149.766 111.294 150.956 111.294C151.67 111.294 152.174 111.406 152.734 111.644L152.356 112.61C151.908 112.414 151.474 112.274 150.942 112.274C150.228 112.274 149.766 112.498 149.766 113.058C149.766 113.548 150.186 113.744 150.452 113.87L151.698 114.458C152.566 114.864 152.93 115.382 152.93 116.096Z" fill="#00157E" fill-opacity="0.7"/>
<mask id="path-16-inside-1_393_69774" fill="white">
<path d="M0 126.001H375V182.001H0V126.001Z"/>
</mask>
<path d="M0 126.001H375V182.001H0V126.001Z" fill="white"/>
<path d="M375 182.001V181.001H0V182.001V183.001H375V182.001Z" fill="#00157E" fill-opacity="0.2" mask="url(#path-16-inside-1_393_69774)"/>
<path d="M36 163.001V161.001C36 159.94 35.5786 158.923 34.8284 158.173C34.0783 157.422 33.0609 157.001 32 157.001H24C22.9391 157.001 21.9217 157.422 21.1716 158.173C20.4214 158.923 20 159.94 20 161.001V163.001" stroke="#00157E" stroke-width="2" stroke-linecap="round" stroke-linejoin="round"/>
<path d="M28 153.001C30.2091 153.001 32 151.21 32 149.001C32 146.792 30.2091 145.001 28 145.001C25.7909 145.001 24 146.792 24 149.001C24 151.21 25.7909 153.001 28 153.001Z" stroke="#00157E" stroke-width="2" stroke-linecap="round" stroke-linejoin="round"/>
<path d="M61.558 150.501H57.162V142.073H58.338V149.507H61.558V150.501ZM67.3302 150.151C66.7002 150.501 66.0562 150.655 65.2582 150.655C63.3262 150.655 62.3322 149.353 62.3322 147.183C62.3322 145.153 63.3962 143.795 65.0482 143.795C66.6302 143.795 67.2742 144.845 67.2742 146.287V147.071H63.4242C63.4382 148.821 64.0682 149.661 65.4962 149.661C66.0422 149.661 66.4622 149.507 66.9382 149.269L67.3302 150.151ZM66.2242 146.287C66.2242 145.307 65.8602 144.691 64.9922 144.691C64.1522 144.691 63.6202 145.349 63.4802 146.287H66.2242ZM73.9709 150.501H72.8509V146.245C72.8509 145.279 72.4869 144.789 71.6049 144.789C70.9749 144.789 70.5269 145.055 70.1209 145.419V150.501H69.0009V145.461L68.8049 144.019L69.9109 143.837L70.0229 144.607H70.0369C70.5269 144.131 71.1709 143.795 71.9829 143.795C73.0889 143.795 73.9709 144.509 73.9709 145.853V150.501ZM80.4766 150.431L79.3566 150.613L79.2586 149.843H79.2446C78.7686 150.291 78.2506 150.669 77.4666 150.669C76.3746 150.669 75.7306 150.011 75.7306 148.975C75.7306 147.799 76.6546 147.225 77.9846 147.085L79.1606 146.959V146.371C79.1606 145.461 78.8806 144.817 77.8026 144.817C77.2566 144.817 76.8506 144.985 76.4446 145.195L76.0386 144.369C76.6266 144.019 77.2286 143.795 78.0686 143.795C79.3846 143.795 80.2666 144.565 80.2666 145.867V148.989L80.4766 150.431ZM79.1606 149.143V147.715L78.1386 147.855C77.2986 147.967 76.8366 148.233 76.8366 148.835C76.8366 149.381 77.1726 149.745 77.7326 149.745C78.3906 149.745 78.7966 149.465 79.1606 149.143ZM89.6898 143.067H86.6658V145.811H89.3958V146.805H86.6658V150.501H85.5038V142.073H89.6898V143.067ZM92.2426 150.501H91.1226V145.461L90.9266 144.019L92.2426 143.837V150.501ZM92.4666 142.241C92.4666 142.689 92.1166 143.025 91.6966 143.025C91.2626 143.025 90.8986 142.689 90.8986 142.241C90.8986 141.793 91.2626 141.443 91.6966 141.443C92.1166 141.443 92.4666 141.793 92.4666 142.241ZM98.2792 148.597C98.2792 149.787 97.3412 150.641 95.9412 150.641C95.2692 150.641 94.5972 150.543 94.0652 150.291L94.4012 149.311C94.8632 149.521 95.3812 149.689 95.8852 149.689C96.6412 149.689 97.1452 149.395 97.1452 148.779C97.1452 148.303 96.8932 148.107 96.4592 147.911L95.2412 147.351C94.8072 147.155 94.0232 146.763 94.0232 145.629C94.0232 144.383 95.1152 143.795 96.3052 143.795C97.0192 143.795 97.5232 143.907 98.0832 144.145L97.7052 145.111C97.2572 144.915 96.8232 144.775 96.2912 144.775C95.5772 144.775 95.1152 144.999 95.1152 145.559C95.1152 146.049 95.5352 146.245 95.8012 146.371L97.0472 146.959C97.9152 147.365 98.2792 147.883 98.2792 148.597ZM104.278 144.075L103.928 145.083C103.564 144.943 103.158 144.817 102.696 144.817C101.464 144.817 100.722 145.741 100.722 147.127C100.722 148.877 101.408 149.675 102.668 149.675C103.116 149.675 103.48 149.521 103.844 149.367L104.222 150.277C103.676 150.529 103.074 150.655 102.444 150.655C100.568 150.655 99.6017 149.311 99.6017 147.309C99.6017 144.901 101.086 143.795 102.752 143.795C103.326 143.795 103.816 143.893 104.278 144.075ZM110.747 150.501H109.641V146.245C109.641 145.293 109.263 144.803 108.367 144.803C107.723 144.803 107.289 145.083 106.911 145.419V150.501H105.791V142.563L105.595 141.121L106.911 140.939V144.523H106.925C107.359 144.145 107.961 143.795 108.773 143.795C109.893 143.795 110.747 144.495 110.747 145.853V150.501ZM117.52 150.151C116.89 150.501 116.246 150.655 115.448 150.655C113.516 150.655 112.522 149.353 112.522 147.183C112.522 145.153 113.586 143.795 115.238 143.795C116.82 143.795 117.464 144.845 117.464 146.287V147.071H113.614C113.628 148.821 114.258 149.661 115.686 149.661C116.232 149.661 116.652 149.507 117.128 149.269L117.52 150.151ZM116.414 146.287C116.414 145.307 116.05 144.691 115.182 144.691C114.342 144.691 113.81 145.349 113.67 146.287H116.414ZM122.13 144.915C121.374 144.915 120.814 145.111 120.31 145.573V150.501H119.19V145.461L118.994 144.019L120.1 143.837L120.212 144.733H120.226C120.674 144.229 121.262 143.809 122.13 143.809V144.915Z" fill="#00157E"/>
<path d="M61.964 165.129C61.292 165.477 60.608 165.633 59.696 165.633C57.932 165.633 56.576 164.445 56.576 162.045C56.576 159.489 58.088 158.145 60.032 158.145C60.836 158.145 61.328 158.265 61.94 158.529L61.556 159.405C61.1 159.201 60.668 159.045 60.02 159.045C58.76 159.045 57.608 160.017 57.608 161.793C57.608 163.773 58.34 164.745 60.092 164.745C60.668 164.745 61.196 164.517 61.628 164.325L61.964 165.129ZM68.4867 165.501H67.4787V162.201H64.2267V165.501H63.2187V158.277H64.2267V161.349H67.4787V158.277H68.4867V165.501ZM73.9043 165.021C73.9043 166.461 72.9803 167.373 71.3963 167.373C70.9283 167.373 70.4363 167.289 69.9923 167.181L70.2083 166.281C70.6043 166.401 70.9403 166.497 71.4203 166.497C72.3683 166.497 72.9443 166.029 72.9443 165.165C72.9443 163.989 71.8643 163.533 70.3403 163.533V162.849C72.1163 162.741 72.6083 161.949 72.6083 161.169C72.6083 160.485 72.1883 160.101 71.5163 160.101C70.9643 160.101 70.6403 160.281 70.2803 160.521L69.8843 159.861C70.3163 159.525 70.8683 159.249 71.7083 159.249C72.8603 159.249 73.5683 159.933 73.5683 161.049C73.5683 162.021 73.0043 162.669 72.2003 163.053V163.065C73.3763 163.317 73.9043 164.097 73.9043 165.021ZM78.9696 164.421C78.9696 166.725 76.7976 167.373 75.2496 167.493L75.1296 166.677C76.2216 166.557 77.9856 166.125 77.9856 164.553C77.9856 163.569 77.4336 162.993 75.8976 162.993H75.0936L75.3576 159.381H78.7776V160.257H76.1856L76.0296 162.273C76.0296 162.273 76.3056 162.249 76.5576 162.249C77.9496 162.249 78.9696 162.981 78.9696 164.421ZM87.5593 162.441C87.5593 164.037 86.9353 165.633 85.1233 165.633C83.2993 165.633 82.6753 164.037 82.6753 162.441C82.6753 160.845 83.2993 159.249 85.1233 159.249C86.9353 159.249 87.5593 160.845 87.5593 162.441ZM86.5753 162.441C86.5753 161.097 86.1313 160.089 85.1233 160.089C84.1033 160.089 83.6593 161.097 83.6593 162.441C83.6593 163.785 84.1033 164.793 85.1233 164.793C86.1313 164.793 86.5753 163.785 86.5753 162.441ZM93.1231 162.345C93.1231 165.657 91.4431 167.205 89.0551 167.493L88.8631 166.713C90.3751 166.533 91.8991 165.561 92.1151 163.269L92.1031 163.257C92.1031 163.257 91.5391 163.737 90.6871 163.737C89.4871 163.737 88.7071 162.837 88.7071 161.601C88.7071 160.101 89.6071 159.249 90.9631 159.249C92.3551 159.249 93.1231 160.209 93.1231 162.345ZM92.1271 162.333C92.1271 161.145 91.9111 160.065 90.8431 160.065C90.0871 160.065 89.6431 160.689 89.6431 161.469C89.6431 162.465 90.0991 162.945 90.9511 162.945C91.6831 162.945 92.1271 162.513 92.1271 162.513V162.333ZM99.3484 162.441C99.3484 164.037 98.7244 165.633 96.9124 165.633C95.0884 165.633 94.4644 164.037 94.4644 162.441C94.4644 160.845 95.0884 159.249 96.9124 159.249C98.7244 159.249 99.3484 160.845 99.3484 162.441ZM98.3644 162.441C98.3644 161.097 97.9204 160.089 96.9124 160.089C95.8924 160.089 95.4484 161.097 95.4484 162.441C95.4484 163.785 95.8924 164.793 96.9124 164.793C97.9204 164.793 98.3644 163.785 98.3644 162.441ZM105.524 162.441C105.524 164.037 104.9 165.633 103.088 165.633C101.264 165.633 100.64 164.037 100.64 162.441C100.64 160.845 101.264 159.249 103.088 159.249C104.9 159.249 105.524 160.845 105.524 162.441ZM104.54 162.441C104.54 161.097 104.096 160.089 103.088 160.089C102.068 160.089 101.624 161.097 101.624 162.441C101.624 163.785 102.068 164.793 103.088 164.793C104.096 164.793 104.54 163.785 104.54 162.441ZM114.22 162.441C114.22 164.037 113.596 165.633 111.784 165.633C109.96 165.633 109.336 164.037 109.336 162.441C109.336 160.845 109.96 159.249 111.784 159.249C113.596 159.249 114.22 160.845 114.22 162.441ZM113.236 162.441C113.236 161.097 112.792 160.089 111.784 160.089C110.764 160.089 110.32 161.097 110.32 162.441C110.32 163.785 110.764 164.793 111.784 164.793C112.792 164.793 113.236 163.785 113.236 162.441ZM120.395 162.441C120.395 164.037 119.771 165.633 117.959 165.633C116.135 165.633 115.511 164.037 115.511 162.441C115.511 160.845 116.135 159.249 117.959 159.249C119.771 159.249 120.395 160.845 120.395 162.441ZM119.411 162.441C119.411 161.097 118.967 160.089 117.959 160.089C116.939 160.089 116.495 161.097 116.495 162.441C116.495 163.785 116.939 164.793 117.959 164.793C118.967 164.793 119.411 163.785 119.411 162.441ZM126.571 162.441C126.571 164.037 125.947 165.633 124.135 165.633C122.311 165.633 121.687 164.037 121.687 162.441C121.687 160.845 122.311 159.249 124.135 159.249C125.947 159.249 126.571 160.845 126.571 162.441ZM125.587 162.441C125.587 161.097 125.143 160.089 124.135 160.089C123.115 160.089 122.671 161.097 122.671 162.441C122.671 163.785 123.115 164.793 124.135 164.793C125.143 164.793 125.587 163.785 125.587 162.441ZM132.747 162.441C132.747 164.037 132.123 165.633 130.311 165.633C128.487 165.633 127.863 164.037 127.863 162.441C127.863 160.845 128.487 159.249 130.311 159.249C132.123 159.249 132.747 160.845 132.747 162.441ZM131.763 162.441C131.763 161.097 131.319 160.089 130.311 160.089C129.291 160.089 128.847 161.097 128.847 162.441C128.847 163.785 129.291 164.793 130.311 164.793C131.319 164.793 131.763 163.785 131.763 162.441ZM140.986 163.305C140.986 164.721 140.146 165.633 138.79 165.633C137.254 165.633 136.606 164.493 136.606 162.801C136.606 159.537 138.526 158.193 140.614 158.025L140.734 158.817C139.294 158.973 137.854 159.753 137.578 161.757L137.59 161.769C137.59 161.769 138.202 161.241 139.03 161.241C140.29 161.241 140.986 162.045 140.986 163.305ZM140.038 163.497C140.038 162.477 139.642 162.045 138.766 162.045C138.082 162.045 137.578 162.525 137.578 162.525V162.753C137.578 164.097 137.926 164.841 138.874 164.841C139.666 164.841 140.038 164.277 140.038 163.497ZM145.957 160.197L142.525 167.481L141.721 167.073L144.913 160.257H141.649V159.381H145.957V160.197ZM151.141 163.749C151.141 164.901 150.265 165.633 149.029 165.633C147.769 165.633 146.917 164.997 146.917 163.821C146.917 162.765 147.697 162.129 148.297 161.721C147.577 161.217 147.097 160.785 147.097 159.885C147.097 158.865 147.937 158.145 149.017 158.145C150.181 158.145 150.937 158.793 150.937 159.801C150.937 160.665 150.337 161.217 149.749 161.625C150.517 162.141 151.141 162.657 151.141 163.749ZM150.217 163.749C150.217 162.969 149.677 162.573 148.957 162.105C148.321 162.537 147.829 162.909 147.829 163.701C147.829 164.421 148.309 164.829 149.041 164.829C149.821 164.829 150.217 164.349 150.217 163.749ZM150.085 159.909C150.085 159.297 149.677 158.901 149.029 158.901C148.381 158.901 147.961 159.321 147.961 159.921C147.961 160.485 148.429 160.809 149.077 161.253C149.593 160.917 150.085 160.485 150.085 159.909ZM154.25 165.501H153.302V160.197L152.246 160.341L152.138 159.609L154.25 159.273V165.501ZM160.226 165.501H159.278V160.197L158.222 160.341L158.114 159.609L160.226 159.273V165.501ZM166.108 162.345C166.108 165.657 164.428 167.205 162.04 167.493L161.848 166.713C163.36 166.533 164.884 165.561 165.1 163.269L165.088 163.257C165.088 163.257 164.524 163.737 163.672 163.737C162.472 163.737 161.692 162.837 161.692 161.601C161.692 160.101 162.592 159.249 163.948 159.249C165.34 159.249 166.108 160.209 166.108 162.345ZM165.112 162.333C165.112 161.145 164.896 160.065 163.828 160.065C163.072 160.065 162.628 160.689 162.628 161.469C162.628 162.465 163.084 162.945 163.936 162.945C164.668 162.945 165.112 162.513 165.112 162.513V162.333ZM169.297 165.501H168.349V160.197L167.293 160.341L167.185 159.609L169.297 159.273V165.501ZM175.19 165.501H170.738V164.877L172.79 162.909C173.342 162.369 173.762 161.973 173.762 161.313C173.762 160.617 173.33 160.101 172.526 160.101C171.986 160.101 171.602 160.341 171.314 160.581L170.858 159.945C171.374 159.513 171.902 159.249 172.73 159.249C173.918 159.249 174.734 159.945 174.734 161.205C174.734 162.045 174.23 162.681 173.654 163.209L172.118 164.625V164.637H175.19V165.501ZM179.912 165.021C179.912 166.461 178.988 167.373 177.404 167.373C176.936 167.373 176.444 167.289 176 167.181L176.216 166.281C176.612 166.401 176.948 166.497 177.428 166.497C178.376 166.497 178.952 166.029 178.952 165.165C178.952 163.989 177.872 163.533 176.348 163.533V162.849C178.124 162.741 178.616 161.949 178.616 161.169C178.616 160.485 178.196 160.101 177.524 160.101C176.972 160.101 176.648 160.281 176.288 160.521L175.892 159.861C176.324 159.525 176.876 159.249 177.716 159.249C178.868 159.249 179.576 159.933 179.576 161.049C179.576 162.021 179.012 162.669 178.208 163.053V163.065C179.384 163.317 179.912 164.097 179.912 165.021ZM188.493 162.441C188.493 164.037 187.869 165.633 186.057 165.633C184.233 165.633 183.609 164.037 183.609 162.441C183.609 160.845 184.233 159.249 186.057 159.249C187.869 159.249 188.493 160.845 188.493 162.441ZM187.509 162.441C187.509 161.097 187.065 160.089 186.057 160.089C185.037 160.089 184.593 161.097 184.593 162.441C184.593 163.785 185.037 164.793 186.057 164.793C187.065 164.793 187.509 163.785 187.509 162.441Z" fill="#00157E" fill-opacity="0.7"/>
<path d="M344 160.001L350 154.001L344 148.001" stroke="#00157E" stroke-width="2" stroke-linecap="round" stroke-linejoin="round"/>
<mask id="path-23-inside-2_393_69774" fill="white">
<path d="M0 182.002H375V238.002H0V182.002Z"/>
</mask>
<path d="M0 182.002H375V238.002H0V182.002Z" fill="white"/>
<path d="M375 238.002V237.002H0V238.002V239.002H375V238.002Z" fill="#00157E" fill-opacity="0.2" mask="url(#path-23-inside-2_393_69774)"/>
<path d="M28.001 199.002C25.8253 199.002 23.6984 199.647 21.8893 200.855C20.0802 202.064 18.6702 203.782 17.8375 205.792C17.0048 207.802 16.7869 210.014 17.2113 212.148C17.6357 214.282 18.6834 216.242 20.2218 217.78C21.7602 219.319 23.7204 220.366 25.8542 220.791C27.9881 221.215 30.1999 220.997 32.2099 220.164C34.22 219.332 35.9379 217.922 37.1466 216.113C38.3552 214.304 39.0002 212.177 39 210.001C38.997 207.085 37.8372 204.289 35.7752 202.227C33.7131 200.165 30.9172 199.005 28.001 199.002ZM28.001 201.261C29.4685 201.26 30.9126 201.629 32.2 202.333C33.4873 203.038 34.5764 204.056 35.3666 205.292C36.1569 206.529 36.6229 207.945 36.7215 209.409C36.8202 210.873 36.5484 212.339 35.9312 213.67H20.0697C19.4525 212.339 19.1807 210.873 19.2794 209.409C19.3781 207.944 19.8442 206.529 20.6345 205.292C21.4249 204.055 22.5141 203.038 23.8016 202.333C25.089 201.628 26.5333 201.26 28.001 201.261Z" fill="#00157E"/>
<path d="M61.726 204.136C61.726 205.606 60.704 206.656 59.01 206.656C58.142 206.656 57.372 206.474 56.714 206.194L57.078 205.172C57.624 205.424 58.268 205.634 58.926 205.634C59.948 205.634 60.606 205.242 60.606 204.318C60.606 203.632 60.102 203.296 59.43 202.974L58.114 202.344C57.232 201.924 56.63 201.378 56.63 200.188C56.63 198.746 57.89 197.92 59.346 197.92C60.13 197.92 60.634 198.046 61.362 198.312L60.97 199.306C60.522 199.096 60.032 198.9 59.416 198.9C58.548 198.9 57.764 199.25 57.764 200.146C57.764 200.748 58.128 201.042 58.688 201.308L60.032 201.966C61.096 202.484 61.726 203.058 61.726 204.136ZM68.5887 206.432L67.4827 206.614L67.3707 205.858H67.3567C66.8667 206.32 66.2227 206.656 65.4107 206.656C64.3047 206.656 63.4227 205.942 63.4227 204.598V201.462L63.2267 200.02L64.5427 199.838V204.206C64.5427 205.172 64.9067 205.676 65.7887 205.676C66.4187 205.676 66.8667 205.41 67.2727 205.032V201.462L67.0767 200.02L68.3927 199.838V204.99L68.5887 206.432ZM75.5978 206.502H74.4778V202.246C74.4778 201.28 74.1138 200.79 73.2318 200.79C72.6018 200.79 72.1538 201.056 71.7478 201.42V206.502H70.6278V201.462L70.4318 200.02L71.5378 199.838L71.6498 200.608H71.6638C72.1538 200.132 72.7978 199.796 73.6098 199.796C74.7158 199.796 75.5978 200.51 75.5978 201.854V206.502ZM80.7455 200.916C79.9895 200.916 79.4295 201.112 78.9255 201.574V206.502H77.8055V201.462L77.6095 200.02L78.7155 199.838L78.8275 200.734H78.8415C79.2895 200.23 79.8775 199.81 80.7455 199.81V200.916ZM83.2602 206.502H82.1402V201.462L81.9442 200.02L83.2602 199.838V206.502ZM83.4842 198.242C83.4842 198.69 83.1342 199.026 82.7142 199.026C82.2802 199.026 81.9162 198.69 81.9162 198.242C81.9162 197.794 82.2802 197.444 82.7142 197.444C83.1342 197.444 83.4842 197.794 83.4842 198.242ZM89.2968 204.598C89.2968 205.788 88.3588 206.642 86.9588 206.642C86.2868 206.642 85.6148 206.544 85.0828 206.292L85.4188 205.312C85.8808 205.522 86.3988 205.69 86.9028 205.69C87.6588 205.69 88.1628 205.396 88.1628 204.78C88.1628 204.304 87.9108 204.108 87.4768 203.912L86.2588 203.352C85.8248 203.156 85.0408 202.764 85.0408 201.63C85.0408 200.384 86.1328 199.796 87.3228 199.796C88.0368 199.796 88.5408 199.908 89.1008 200.146L88.7228 201.112C88.2748 200.916 87.8408 200.776 87.3088 200.776C86.5948 200.776 86.1328 201 86.1328 201.56C86.1328 202.05 86.5528 202.246 86.8188 202.372L88.0648 202.96C88.9328 203.366 89.2968 203.884 89.2968 204.598ZM95.6173 206.152C94.9873 206.502 94.3433 206.656 93.5453 206.656C91.6133 206.656 90.6193 205.354 90.6193 203.184C90.6193 201.154 91.6833 199.796 93.3353 199.796C94.9173 199.796 95.5613 200.846 95.5613 202.288V203.072H91.7113C91.7253 204.822 92.3553 205.662 93.7833 205.662C94.3293 205.662 94.7493 205.508 95.2253 205.27L95.6173 206.152ZM94.5113 202.288C94.5113 201.308 94.1473 200.692 93.2793 200.692C92.4393 200.692 91.9073 201.35 91.7673 202.288H94.5113Z" fill="#00157E"/>
<path d="M61.964 221.13C61.292 221.478 60.608 221.634 59.696 221.634C57.932 221.634 56.576 220.446 56.576 218.046C56.576 215.49 58.088 214.146 60.032 214.146C60.836 214.146 61.328 214.266 61.94 214.53L61.556 215.406C61.1 215.202 60.668 215.046 60.02 215.046C58.76 215.046 57.608 216.018 57.608 217.794C57.608 219.774 58.34 220.746 60.092 220.746C60.668 220.746 61.196 220.518 61.628 220.326L61.964 221.13ZM68.4867 221.502H67.4787V218.202H64.2267V221.502H63.2187V214.278H64.2267V217.35H67.4787V214.278H68.4867V221.502ZM74.0243 220.422C74.0243 222.726 71.8523 223.374 70.3043 223.494L70.1843 222.678C71.2763 222.558 73.0403 222.126 73.0403 220.554C73.0403 219.57 72.4883 218.994 70.9523 218.994H70.1483L70.4123 215.382H73.8323V216.258H71.2403L71.0843 218.274C71.0843 218.274 71.3603 218.25 71.6123 218.25C73.0043 218.25 74.0243 218.982 74.0243 220.422ZM79.6385 219.306C79.6385 220.722 78.7985 221.634 77.4425 221.634C75.9065 221.634 75.2585 220.494 75.2585 218.802C75.2585 215.538 77.1785 214.194 79.2665 214.026L79.3865 214.818C77.9465 214.974 76.5065 215.754 76.2305 217.758L76.2425 217.77C76.2425 217.77 76.8545 217.242 77.6825 217.242C78.9425 217.242 79.6385 218.046 79.6385 219.306ZM78.6905 219.498C78.6905 218.478 78.2945 218.046 77.4185 218.046C76.7345 218.046 76.2305 218.526 76.2305 218.526V218.754C76.2305 220.098 76.5785 220.842 77.5265 220.842C78.3185 220.842 78.6905 220.278 78.6905 219.498ZM88.1804 218.442C88.1804 220.038 87.5564 221.634 85.7444 221.634C83.9204 221.634 83.2964 220.038 83.2964 218.442C83.2964 216.846 83.9204 215.25 85.7444 215.25C87.5564 215.25 88.1804 216.846 88.1804 218.442ZM87.1964 218.442C87.1964 217.098 86.7524 216.09 85.7444 216.09C84.7244 216.09 84.2804 217.098 84.2804 218.442C84.2804 219.786 84.7244 220.794 85.7444 220.794C86.7524 220.794 87.1964 219.786 87.1964 218.442ZM94.3562 218.442C94.3562 220.038 93.7322 221.634 91.9202 221.634C90.0962 221.634 89.4722 220.038 89.4722 218.442C89.4722 216.846 90.0962 215.25 91.9202 215.25C93.7322 215.25 94.3562 216.846 94.3562 218.442ZM93.3722 218.442C93.3722 217.098 92.9282 216.09 91.9202 216.09C90.9002 216.09 90.4562 217.098 90.4562 218.442C90.4562 219.786 90.9002 220.794 91.9202 220.794C92.9282 220.794 93.3722 219.786 93.3722 218.442ZM99.92 218.346C99.92 221.658 98.24 223.206 95.852 223.494L95.66 222.714C97.172 222.534 98.696 221.562 98.912 219.27L98.9 219.258C98.9 219.258 98.336 219.738 97.484 219.738C96.284 219.738 95.504 218.838 95.504 217.602C95.504 216.102 96.404 215.25 97.76 215.25C99.152 215.25 99.92 216.21 99.92 218.346ZM98.924 218.334C98.924 217.146 98.708 216.066 97.64 216.066C96.884 216.066 96.44 216.69 96.44 217.47C96.44 218.466 96.896 218.946 97.748 218.946C98.48 218.946 98.924 218.514 98.924 218.514V218.334ZM105.545 221.502H101.093V220.878L103.145 218.91C103.697 218.37 104.117 217.974 104.117 217.314C104.117 216.618 103.685 216.102 102.881 216.102C102.341 216.102 101.957 216.342 101.669 216.582L101.213 215.946C101.729 215.514 102.257 215.25 103.085 215.25C104.273 215.25 105.089 215.946 105.089 217.206C105.089 218.046 104.585 218.682 104.009 219.21L102.473 220.626V220.638H105.545V221.502ZM113.962 218.442C113.962 220.038 113.338 221.634 111.526 221.634C109.702 221.634 109.078 220.038 109.078 218.442C109.078 216.846 109.702 215.25 111.526 215.25C113.338 215.25 113.962 216.846 113.962 218.442ZM112.978 218.442C112.978 217.098 112.534 216.09 111.526 216.09C110.506 216.09 110.062 217.098 110.062 218.442C110.062 219.786 110.506 220.794 111.526 220.794C112.534 220.794 112.978 219.786 112.978 218.442ZM120.137 218.442C120.137 220.038 119.513 221.634 117.701 221.634C115.877 221.634 115.253 220.038 115.253 218.442C115.253 216.846 115.877 215.25 117.701 215.25C119.513 215.25 120.137 216.846 120.137 218.442ZM119.153 218.442C119.153 217.098 118.709 216.09 117.701 216.09C116.681 216.09 116.237 217.098 116.237 218.442C116.237 219.786 116.681 220.794 117.701 220.794C118.709 220.794 119.153 219.786 119.153 218.442ZM126.313 218.442C126.313 220.038 125.689 221.634 123.877 221.634C122.053 221.634 121.429 220.038 121.429 218.442C121.429 216.846 122.053 215.25 123.877 215.25C125.689 215.25 126.313 216.846 126.313 218.442ZM125.329 218.442C125.329 217.098 124.885 216.09 123.877 216.09C122.857 216.09 122.413 217.098 122.413 218.442C122.413 219.786 122.857 220.794 123.877 220.794C124.885 220.794 125.329 219.786 125.329 218.442ZM132.489 218.442C132.489 220.038 131.865 221.634 130.053 221.634C128.229 221.634 127.605 220.038 127.605 218.442C127.605 216.846 128.229 215.25 130.053 215.25C131.865 215.25 132.489 216.846 132.489 218.442ZM131.505 218.442C131.505 217.098 131.061 216.09 130.053 216.09C129.033 216.09 128.589 217.098 128.589 218.442C128.589 219.786 129.033 220.794 130.053 220.794C131.061 220.794 131.505 219.786 131.505 218.442ZM138.148 221.502H137.2V216.198L136.144 216.342L136.036 215.61L138.148 215.274V221.502ZM144.041 221.502H139.589V220.878L141.641 218.91C142.193 218.37 142.613 217.974 142.613 217.314C142.613 216.618 142.181 216.102 141.377 216.102C140.837 216.102 140.453 216.342 140.165 216.582L139.709 215.946C140.225 215.514 140.753 215.25 141.581 215.25C142.769 215.25 143.585 215.946 143.585 217.206C143.585 218.046 143.081 218.682 142.505 219.21L140.969 220.626V220.638H144.041V221.502ZM148.764 221.022C148.764 222.462 147.84 223.374 146.256 223.374C145.788 223.374 145.296 223.29 144.852 223.182L145.068 222.282C145.464 222.402 145.8 222.498 146.28 222.498C147.228 222.498 147.804 222.03 147.804 221.166C147.804 219.99 146.724 219.534 145.2 219.534V218.85C146.976 218.742 147.468 217.95 147.468 217.17C147.468 216.486 147.048 216.102 146.376 216.102C145.824 216.102 145.5 216.282 145.14 216.522L144.744 215.862C145.176 215.526 145.728 215.25 146.568 215.25C147.72 215.25 148.428 215.934 148.428 217.05C148.428 218.022 147.864 218.67 147.06 219.054V219.066C148.236 219.318 148.764 220.098 148.764 221.022ZM155.329 220.746H153.877V223.194L152.953 223.35V220.746H149.653V219.966L152.989 215.382H153.877V219.93H155.329V220.746ZM152.953 219.93V216.678H152.941L150.637 219.93H152.953ZM162.513 220.422C162.513 222.726 160.341 223.374 158.793 223.494L158.673 222.678C159.765 222.558 161.529 222.126 161.529 220.554C161.529 219.57 160.977 218.994 159.441 218.994H158.637L158.901 215.382H162.321V216.258H159.729L159.573 218.274C159.573 218.274 159.849 218.25 160.101 218.25C161.493 218.25 162.513 218.982 162.513 220.422ZM167.587 220.422C167.587 222.726 165.415 223.374 163.867 223.494L163.747 222.678C164.839 222.558 166.603 222.126 166.603 220.554C166.603 219.57 166.051 218.994 164.515 218.994H163.711L163.975 215.382H167.395V216.258H164.803L164.647 218.274C164.647 218.274 164.923 218.25 165.175 218.25C166.567 218.25 167.587 218.982 167.587 220.422ZM173.201 219.306C173.201 220.722 172.361 221.634 171.005 221.634C169.469 221.634 168.821 220.494 168.821 218.802C168.821 215.538 170.741 214.194 172.829 214.026L172.949 214.818C171.509 214.974 170.069 215.754 169.793 217.758L169.805 217.77C169.805 217.77 170.417 217.242 171.245 217.242C172.505 217.242 173.201 218.046 173.201 219.306ZM172.253 219.498C172.253 218.478 171.857 218.046 170.981 218.046C170.297 218.046 169.793 218.526 169.793 218.526V218.754C169.793 220.098 170.141 220.842 171.089 220.842C171.881 220.842 172.253 220.278 172.253 219.498ZM178.767 219.306C178.767 220.722 177.927 221.634 176.571 221.634C175.035 221.634 174.387 220.494 174.387 218.802C174.387 215.538 176.307 214.194 178.395 214.026L178.515 214.818C177.075 214.974 175.635 215.754 175.359 217.758L175.371 217.77C175.371 217.77 175.983 217.242 176.811 217.242C178.071 217.242 178.767 218.046 178.767 219.306ZM177.819 219.498C177.819 218.478 177.423 218.046 176.547 218.046C175.863 218.046 175.359 218.526 175.359 218.526V218.754C175.359 220.098 175.707 220.842 176.655 220.842C177.447 220.842 177.819 220.278 177.819 219.498ZM186.697 218.346C186.697 221.658 185.017 223.206 182.629 223.494L182.437 222.714C183.949 222.534 185.473 221.562 185.689 219.27L185.677 219.258C185.677 219.258 185.113 219.738 184.261 219.738C183.061 219.738 182.281 218.838 182.281 217.602C182.281 216.102 183.181 215.25 184.537 215.25C185.929 215.25 186.697 216.21 186.697 218.346ZM185.701 218.334C185.701 217.146 185.485 216.066 184.417 216.066C183.661 216.066 183.217 216.69 183.217 217.47C183.217 218.466 183.673 218.946 184.525 218.946C185.257 218.946 185.701 218.514 185.701 218.514V218.334Z" fill="#00157E" fill-opacity="0.7"/>
<path d="M344 216.002L350 210.002L344 204.002" stroke="#00157E" stroke-width="2" stroke-linecap="round" stroke-linejoin="round"/>
<mask id="path-29-inside-3_393_69774" fill="white">
<path d="M0 238.003H375V294.003H0V238.003Z"/>
</mask>
<path d="M0 238.003H375V294.003H0V238.003Z" fill="white"/>
<path d="M375 294.003V293.003H0V294.003V295.003H375V294.003Z" fill="#00157E" fill-opacity="0.2" mask="url(#path-29-inside-3_393_69774)"/>
<path d="M36 275.003V273.003C36 271.942 35.5786 270.925 34.8284 270.175C34.0783 269.424 33.0609 269.003 32 269.003H24C22.9391 269.003 21.9217 269.424 21.1716 270.175C20.4214 270.925 20 271.942 20 273.003V275.003" stroke="#00157E" stroke-width="2" stroke-linecap="round" stroke-linejoin="round"/>
<path d="M28 265.003C30.2091 265.003 32 263.212 32 261.003C32 258.794 30.2091 257.003 28 257.003C25.7909 257.003 24 258.794 24 261.003C24 263.212 25.7909 265.003 28 265.003Z" stroke="#00157E" stroke-width="2" stroke-linecap="round" stroke-linejoin="round"/>
<path d="M63.308 262.503H62.132V258.653H58.338V262.503H57.162V254.075H58.338V257.659H62.132V254.075H63.308V262.503ZM69.8946 262.433L68.7746 262.615L68.6766 261.845H68.6626C68.1866 262.293 67.6686 262.671 66.8846 262.671C65.7926 262.671 65.1486 262.013 65.1486 260.977C65.1486 259.801 66.0726 259.227 67.4026 259.087L68.5786 258.961V258.373C68.5786 257.463 68.2986 256.819 67.2206 256.819C66.6746 256.819 66.2686 256.987 65.8626 257.197L65.4566 256.371C66.0446 256.021 66.6466 255.797 67.4866 255.797C68.8026 255.797 69.6846 256.567 69.6846 257.869V260.991L69.8946 262.433ZM68.5786 261.145V259.717L67.5566 259.857C66.7166 259.969 66.2546 260.235 66.2546 260.837C66.2546 261.383 66.5906 261.747 67.1506 261.747C67.8086 261.747 68.2146 261.467 68.5786 261.145ZM76.9103 262.503H75.7903V258.247C75.7903 257.281 75.4263 256.791 74.5443 256.791C73.9143 256.791 73.4663 257.057 73.0603 257.421V262.503H71.9403V257.463L71.7443 256.021L72.8503 255.839L72.9623 256.609H72.9763C73.4663 256.133 74.1103 255.797 74.9223 255.797C76.0283 255.797 76.9103 256.511 76.9103 257.855V262.503ZM82.912 260.599C82.912 261.789 81.974 262.643 80.574 262.643C79.902 262.643 79.23 262.545 78.698 262.293L79.034 261.313C79.496 261.523 80.014 261.691 80.518 261.691C81.274 261.691 81.778 261.397 81.778 260.781C81.778 260.305 81.526 260.109 81.092 259.913L79.874 259.353C79.44 259.157 78.656 258.765 78.656 257.631C78.656 256.385 79.748 255.797 80.938 255.797C81.652 255.797 82.156 255.909 82.716 256.147L82.338 257.113C81.89 256.917 81.456 256.777 80.924 256.777C80.21 256.777 79.748 257.001 79.748 257.561C79.748 258.051 80.168 258.247 80.434 258.373L81.68 258.961C82.548 259.367 82.912 259.885 82.912 260.599ZM96.26 262.475L95.14 262.559L94.902 256.035H94.888L92.41 262.503H91.192L88.854 256.049H88.84L88.504 262.503H87.482L88.028 254.075H89.26L91.906 261.103H91.92L94.594 254.075H95.812L96.26 262.475ZM102.891 262.153C102.261 262.503 101.617 262.657 100.819 262.657C98.8867 262.657 97.8927 261.355 97.8927 259.185C97.8927 257.155 98.9567 255.797 100.609 255.797C102.191 255.797 102.835 256.847 102.835 258.289V259.073H98.9847C98.9987 260.823 99.6287 261.663 101.057 261.663C101.603 261.663 102.023 261.509 102.499 261.271L102.891 262.153ZM101.785 258.289C101.785 257.309 101.421 256.693 100.553 256.693C99.7127 256.693 99.1807 257.351 99.0407 258.289H101.785ZM109.307 255.951L107.123 261.901C106.423 263.833 105.485 264.995 103.203 265.457L102.993 264.547C104.659 264.211 105.541 263.203 105.975 262.111L103.623 256.049L104.729 255.755L106.535 260.627H106.549L108.201 255.951H109.307ZM115.072 262.153C114.442 262.503 113.798 262.657 113 262.657C111.068 262.657 110.074 261.355 110.074 259.185C110.074 257.155 111.138 255.797 112.79 255.797C114.372 255.797 115.016 256.847 115.016 258.289V259.073H111.166C111.18 260.823 111.81 261.663 113.238 261.663C113.784 261.663 114.204 261.509 114.68 261.271L115.072 262.153ZM113.966 258.289C113.966 257.309 113.602 256.693 112.734 256.693C111.894 256.693 111.362 257.351 111.222 258.289H113.966ZM119.683 256.917C118.927 256.917 118.367 257.113 117.863 257.575V262.503H116.743V257.463L116.547 256.021L117.653 255.839L117.765 256.735H117.779C118.227 256.231 118.815 255.811 119.683 255.811V256.917Z" fill="#00157E"/>
<path d="M61.964 277.131C61.292 277.479 60.608 277.635 59.696 277.635C57.932 277.635 56.576 276.447 56.576 274.047C56.576 271.491 58.088 270.147 60.032 270.147C60.836 270.147 61.328 270.267 61.94 270.531L61.556 271.407C61.1 271.203 60.668 271.047 60.02 271.047C58.76 271.047 57.608 272.019 57.608 273.795C57.608 275.775 58.34 276.747 60.092 276.747C60.668 276.747 61.196 276.519 61.628 276.327L61.964 277.131ZM68.4867 277.503H67.4787V274.203H64.2267V277.503H63.2187V270.279H64.2267V273.351H67.4787V270.279H68.4867V277.503ZM74.4203 277.503H69.9683V276.879L72.0203 274.911C72.5723 274.371 72.9923 273.975 72.9923 273.315C72.9923 272.619 72.5603 272.103 71.7563 272.103C71.2163 272.103 70.8323 272.343 70.5443 272.583L70.0883 271.947C70.6043 271.515 71.1323 271.251 71.9603 271.251C73.1483 271.251 73.9643 271.947 73.9643 273.207C73.9643 274.047 73.4603 274.683 72.8843 275.211L71.3483 276.627V276.639H74.4203V277.503ZM80.3172 274.443C80.3172 276.039 79.6932 277.635 77.8812 277.635C76.0572 277.635 75.4332 276.039 75.4332 274.443C75.4332 272.847 76.0572 271.251 77.8812 271.251C79.6932 271.251 80.3172 272.847 80.3172 274.443ZM79.3332 274.443C79.3332 273.099 78.8892 272.091 77.8812 272.091C76.8612 272.091 76.4172 273.099 76.4172 274.443C76.4172 275.787 76.8612 276.795 77.8812 276.795C78.8892 276.795 79.3332 275.787 79.3332 274.443ZM85.2398 276.891C85.2398 277.275 84.9278 277.587 84.5558 277.587C84.1718 277.587 83.8598 277.275 83.8598 276.891C83.8598 276.519 84.1718 276.207 84.5558 276.207C84.9278 276.207 85.2398 276.519 85.2398 276.891ZM87.982 276.891C87.982 277.275 87.67 277.587 87.298 277.587C86.914 277.587 86.602 277.275 86.602 276.891C86.602 276.519 86.914 276.207 87.298 276.207C87.67 276.207 87.982 276.519 87.982 276.891ZM90.7242 276.891C90.7242 277.275 90.4122 277.587 90.0402 277.587C89.6562 277.587 89.3442 277.275 89.3442 276.891C89.3442 276.519 89.6562 276.207 90.0402 276.207C90.4122 276.207 90.7242 276.519 90.7242 276.891Z" fill="#00157E" fill-opacity="0.7"/>
<path d="M344 272.003L350 266.003L344 260.003" stroke="#00157E" stroke-width="2" stroke-linecap="round" stroke-linejoin="round"/>
<mask id="path-36-inside-4_393_69774" fill="white">
<path d="M0 294.004H375V350.004H0V294.004Z"/>
</mask>
<path d="M0 294.004H375V350.004H0V294.004Z" fill="white"/>
<path d="M375 350.004V349.004H0V350.004V351.004H375V350.004Z" fill="#00157E" fill-opacity="0.2" mask="url(#path-36-inside-4_393_69774)"/>
<path d="M36 331.004V329.004C36 327.943 35.5786 326.926 34.8284 326.176C34.0783 325.425 33.0609 325.004 32 325.004H24C22.9391 325.004 21.9217 325.425 21.1716 326.176C20.4214 326.926 20 327.943 20 329.004V331.004" stroke="#00157E" stroke-width="2" stroke-linecap="round" stroke-linejoin="round"/>
<path d="M28 321.004C30.2091 321.004 32 319.213 32 317.004C32 314.795 30.2091 313.004 28 313.004C25.7909 313.004 24 314.795 24 317.004C24 319.213 25.7909 321.004 28 321.004Z" stroke="#00157E" stroke-width="2" stroke-linecap="round" stroke-linejoin="round"/>
<path d="M61.558 318.504H57.162V310.076H58.338V317.51H61.558V318.504ZM67.9462 318.434L66.8402 318.616L66.7282 317.86H66.7142C66.2242 318.322 65.5802 318.658 64.7682 318.658C63.6622 318.658 62.7802 317.944 62.7802 316.6V313.464L62.5842 312.022L63.9002 311.84V316.208C63.9002 317.174 64.2642 317.678 65.1462 317.678C65.7762 317.678 66.2242 317.412 66.6302 317.034V313.464L66.4342 312.022L67.7502 311.84V316.992L67.9462 318.434ZM71.0772 318.504H69.9572V310.566L69.7612 309.124L71.0772 308.942V318.504ZM75.2072 318.308L74.0872 318.714L71.1052 314.948L73.4712 311.952H74.7452L72.4212 314.85L75.2072 318.308ZM80.7774 318.434L79.6574 318.616L79.5594 317.846H79.5454C79.0694 318.294 78.5514 318.672 77.7674 318.672C76.6754 318.672 76.0314 318.014 76.0314 316.978C76.0314 315.802 76.9554 315.228 78.2854 315.088L79.4614 314.962V314.374C79.4614 313.464 79.1814 312.82 78.1034 312.82C77.5574 312.82 77.1514 312.988 76.7454 313.198L76.3394 312.372C76.9274 312.022 77.5294 311.798 78.3694 311.798C79.6854 311.798 80.5674 312.568 80.5674 313.87V316.992L80.7774 318.434ZM79.4614 317.146V315.718L78.4394 315.858C77.5994 315.97 77.1374 316.236 77.1374 316.838C77.1374 317.384 77.4734 317.748 78.0334 317.748C78.6914 317.748 79.0974 317.468 79.4614 317.146ZM86.6171 316.6C86.6171 317.79 85.6791 318.644 84.2791 318.644C83.6071 318.644 82.9351 318.546 82.4031 318.294L82.7391 317.314C83.2011 317.524 83.7191 317.692 84.2231 317.692C84.9791 317.692 85.4831 317.398 85.4831 316.782C85.4831 316.306 85.2311 316.11 84.7971 315.914L83.5791 315.354C83.1451 315.158 82.3611 314.766 82.3611 313.632C82.3611 312.386 83.4531 311.798 84.6431 311.798C85.3571 311.798 85.8611 311.91 86.4211 312.148L86.0431 313.114C85.5951 312.918 85.1611 312.778 84.6291 312.778C83.9151 312.778 83.4531 313.002 83.4531 313.562C83.4531 314.052 83.8731 314.248 84.1391 314.374L85.3851 314.962C86.2531 315.368 86.6171 315.886 86.6171 316.6ZM97.515 318.504H96.339V314.654H92.545V318.504H91.369V310.076H92.545V313.66H96.339V310.076H97.515V318.504ZM104.97 318.434L103.864 318.616L103.752 317.86H103.738C103.248 318.322 102.604 318.658 101.792 318.658C100.686 318.658 99.8036 317.944 99.8036 316.6V313.464L99.6076 312.022L100.924 311.84V316.208C100.924 317.174 101.288 317.678 102.17 317.678C102.8 317.678 103.248 317.412 103.654 317.034V313.464L103.458 312.022L104.774 311.84V316.992L104.97 318.434ZM112.189 314.836C112.189 317.02 111.055 318.644 108.983 318.644C108.255 318.644 107.457 318.518 106.981 318.336V310.566L106.785 309.124L108.101 308.942V312.456H108.115C108.535 312.106 109.095 311.798 109.837 311.798C111.377 311.798 112.189 312.904 112.189 314.836ZM111.055 315.242C111.055 313.8 110.719 312.82 109.445 312.82C108.857 312.82 108.437 313.058 108.101 313.352V317.566C108.381 317.636 108.661 317.678 109.081 317.678C110.383 317.678 111.055 316.572 111.055 315.242ZM118.531 318.154C117.901 318.504 117.257 318.658 116.459 318.658C114.527 318.658 113.533 317.356 113.533 315.186C113.533 313.156 114.597 311.798 116.249 311.798C117.831 311.798 118.475 312.848 118.475 314.29V315.074H114.625C114.639 316.824 115.269 317.664 116.697 317.664C117.243 317.664 117.663 317.51 118.139 317.272L118.531 318.154ZM117.425 314.29C117.425 313.31 117.061 312.694 116.193 312.694C115.353 312.694 114.821 313.352 114.681 314.29H117.425ZM123.142 312.918C122.386 312.918 121.826 313.114 121.322 313.576V318.504H120.202V313.464L120.006 312.022L121.112 311.84L121.224 312.736H121.238C121.686 312.232 122.274 311.812 123.142 311.812V312.918Z" fill="#00157E"/>
<path d="M61.964 333.132C61.292 333.48 60.608 333.636 59.696 333.636C57.932 333.636 56.576 332.448 56.576 330.048C56.576 327.492 58.088 326.148 60.032 326.148C60.836 326.148 61.328 326.268 61.94 326.532L61.556 327.408C61.1 327.204 60.668 327.048 60.02 327.048C58.76 327.048 57.608 328.02 57.608 329.796C57.608 331.776 58.34 332.748 60.092 332.748C60.668 332.748 61.196 332.52 61.628 332.328L61.964 333.132ZM68.4867 333.504H67.4787V330.204H64.2267V333.504H63.2187V326.28H64.2267V329.352H67.4787V326.28H68.4867V333.504ZM74.4203 333.504H69.9683V332.88L72.0203 330.912C72.5723 330.372 72.9923 329.976 72.9923 329.316C72.9923 328.62 72.5603 328.104 71.7563 328.104C71.2163 328.104 70.8323 328.344 70.5443 328.584L70.0883 327.948C70.6043 327.516 71.1323 327.252 71.9603 327.252C73.1483 327.252 73.9643 327.948 73.9643 329.208C73.9643 330.048 73.4603 330.684 72.8843 331.212L71.3483 332.628V332.64H74.4203V333.504ZM80.3172 330.444C80.3172 332.04 79.6932 333.636 77.8812 333.636C76.0572 333.636 75.4332 332.04 75.4332 330.444C75.4332 328.848 76.0572 327.252 77.8812 327.252C79.6932 327.252 80.3172 328.848 80.3172 330.444ZM79.3332 330.444C79.3332 329.1 78.8892 328.092 77.8812 328.092C76.8612 328.092 76.4172 329.1 76.4172 330.444C76.4172 331.788 76.8612 332.796 77.8812 332.796C78.8892 332.796 79.3332 331.788 79.3332 330.444ZM85.2398 332.892C85.2398 333.276 84.9278 333.588 84.5558 333.588C84.1718 333.588 83.8598 333.276 83.8598 332.892C83.8598 332.52 84.1718 332.208 84.5558 332.208C84.9278 332.208 85.2398 332.52 85.2398 332.892ZM87.982 332.892C87.982 333.276 87.67 333.588 87.298 333.588C86.914 333.588 86.602 333.276 86.602 332.892C86.602 332.52 86.914 332.208 87.298 332.208C87.67 332.208 87.982 332.52 87.982 332.892ZM90.7242 332.892C90.7242 333.276 90.4122 333.588 90.0402 333.588C89.6562 333.588 89.3442 333.276 89.3442 332.892C89.3442 332.52 89.6562 332.208 90.0402 332.208C90.4122 332.208 90.7242 332.52 90.7242 332.892Z" fill="#00157E" fill-opacity="0.7"/>
<path d="M344 328.004L350 322.004L344 316.004" stroke="#00157E" stroke-width="2" stroke-linecap="round" stroke-linejoin="round"/>
</g>
</g>
<defs>
<clipPath id="clip0_393_69774">
<rect width="375" height="812" fill="white"/>
</clipPath>
<clipPath id="clip1_393_69774">
<rect width="375" height="722" fill="white" transform="translate(0 90)"/>
</clipPath>
</defs>
</svg>
