<svg width="64" height="75" viewBox="0 0 64 75" fill="none" xmlns="http://www.w3.org/2000/svg">
<path d="M12 28C12 16.9543 20.9543 8 32 8C43.0457 8 52 16.9543 52 28C52 39.0457 43.0457 48 32 48C20.9543 48 12 39.0457 12 28Z" fill="#00157E"/>
<g clip-path="url(#clip0_276_338913)">
<path d="M43 35C43 35.5304 42.7893 36.0391 42.4142 36.4142C42.0391 36.7893 41.5304 37 41 37H23C22.4696 37 21.9609 36.7893 21.5858 36.4142C21.2107 36.0391 21 35.5304 21 35V24C21 23.4696 21.2107 22.9609 21.5858 22.5858C21.9609 22.2107 22.4696 22 23 22H27L29 19H35L37 22H41C41.5304 22 42.0391 22.2107 42.4142 22.5858C42.7893 22.9609 43 23.4696 43 24V35Z" stroke="white" stroke-width="2" stroke-linecap="round" stroke-linejoin="round"/>
<path d="M32 33C34.2091 33 36 31.2091 36 29C36 26.7909 34.2091 25 32 25C29.7909 25 28 26.7909 28 29C28 31.2091 29.7909 33 32 33Z" stroke="white" stroke-width="2" stroke-linecap="round" stroke-linejoin="round"/>
</g>
<path d="M24.4769 67H20.7089V59.776H21.7169V66.148H24.4769V67ZM29.3491 66.94L28.3891 67.096L28.3051 66.436H28.2931C27.8851 66.82 27.4411 67.144 26.7691 67.144C25.8331 67.144 25.2811 66.58 25.2811 65.692C25.2811 64.684 26.0731 64.192 27.2131 64.072L28.2211 63.964V63.46C28.2211 62.68 27.9811 62.128 27.0571 62.128C26.5891 62.128 26.2411 62.272 25.8931 62.452L25.5451 61.744C26.0491 61.444 26.5651 61.252 27.2851 61.252C28.4131 61.252 29.1691 61.912 29.1691 63.028V65.704L29.3491 66.94ZM28.2211 65.836V64.612L27.3451 64.732C26.6251 64.828 26.2291 65.056 26.2291 65.572C26.2291 66.04 26.5171 66.352 26.9971 66.352C27.5611 66.352 27.9091 66.112 28.2211 65.836ZM35.5426 63.856C35.5426 65.728 34.5706 67.12 32.7946 67.12C32.1706 67.12 31.4866 67.012 31.0786 66.856V60.196L30.9106 58.96L32.0386 58.804V61.816H32.0506C32.4106 61.516 32.8906 61.252 33.5266 61.252C34.8466 61.252 35.5426 62.2 35.5426 63.856ZM34.5706 64.204C34.5706 62.968 34.2826 62.128 33.1906 62.128C32.6866 62.128 32.3266 62.332 32.0386 62.584V66.196C32.2786 66.256 32.5186 66.292 32.8786 66.292C33.9946 66.292 34.5706 65.344 34.5706 64.204ZM40.9791 66.7C40.4391 67 39.8871 67.132 39.2031 67.132C37.5471 67.132 36.6951 66.016 36.6951 64.156C36.6951 62.416 37.6071 61.252 39.0231 61.252C40.3791 61.252 40.9311 62.152 40.9311 63.388V64.06H37.6311C37.6431 65.56 38.1831 66.28 39.4071 66.28C39.8751 66.28 40.2351 66.148 40.6431 65.944L40.9791 66.7ZM40.0311 63.388C40.0311 62.548 39.7191 62.02 38.9751 62.02C38.2551 62.02 37.7991 62.584 37.6791 63.388H40.0311ZM43.3472 67H42.3872V60.196L42.2192 58.96L43.3472 58.804V67Z" fill="#00157E"/>
<defs>
<clipPath id="clip0_276_338913">
<rect width="24" height="24" fill="white" transform="translate(20 16)"/>
</clipPath>
</defs>
</svg>
