<svg width="375" height="812" viewBox="0 0 375 812" fill="none" xmlns="http://www.w3.org/2000/svg">
<g clip-path="url(#clip0_663_85202)">
<rect width="375" height="812" fill="white"/>
<g filter="url(#filter0_d_663_85202)">
<path d="M343.99 22.17H357.993C359.556 22.17 360.823 23.4372 360.823 25.0001V29.673C360.823 31.2359 359.556 32.5031 357.993 32.5031H343.99C342.427 32.5031 341.16 31.2359 341.16 29.673V25.0001C341.16 23.4372 342.427 22.17 343.99 22.17Z" stroke="#00157E"/>
<path d="M362.33 25.3367V29.3367C363.135 28.9979 363.658 28.2098 363.658 27.3367C363.658 26.4635 363.135 25.6754 362.33 25.3367" fill="#00157E"/>
<rect x="342.66" y="23.67" width="16.66" height="7.33333" rx="1.33333" fill="#00157E"/>
<path d="M325.427 30.0606C326.702 28.9817 328.571 28.9817 329.847 30.0606C329.911 30.1186 329.947 30.2008 329.949 30.2872C329.951 30.3736 329.917 30.4571 329.855 30.5176L327.858 32.5333C327.8 32.5925 327.72 32.626 327.637 32.626C327.553 32.626 327.474 32.5924 327.415 32.5333L325.417 30.5176C325.355 30.457 325.321 30.3735 325.323 30.2872C325.325 30.2007 325.363 30.1186 325.427 30.0606ZM322.762 27.3711C325.51 24.8151 329.766 24.8152 332.514 27.3711C332.576 27.431 332.611 27.5135 332.612 27.5997C332.613 27.6858 332.579 27.769 332.519 27.8301L331.364 28.9971C331.245 29.1162 331.053 29.1189 330.931 29.003C330.028 28.1858 328.854 27.7334 327.637 27.7335C326.42 27.734 325.247 28.1863 324.345 29.003C324.223 29.1188 324.03 29.1162 323.911 28.9971L322.757 27.8301C322.696 27.7691 322.662 27.6858 322.663 27.5997C322.664 27.5135 322.7 27.431 322.762 27.3711ZM320.097 24.6895C324.312 20.6503 330.962 20.6501 335.177 24.6895C335.238 24.7494 335.272 24.8316 335.272 24.917C335.273 25.0026 335.239 25.0848 335.179 25.1456L334.022 26.3126C333.903 26.432 333.711 26.4333 333.59 26.3155C331.984 24.7888 329.853 23.9377 327.637 23.9376C325.421 23.9375 323.289 24.7886 321.683 26.3155C321.562 26.4335 321.369 26.4323 321.25 26.3126L320.094 25.1456C320.033 25.0848 319.999 25.0026 320 24.917C320.001 24.8315 320.036 24.7494 320.097 24.6895Z" fill="#00157E"/>
<path d="M299.66 28.667C300.212 28.667 300.66 29.1147 300.66 29.667V31.667C300.66 32.2191 300.212 32.667 299.66 32.667H298.66C298.108 32.667 297.66 32.2191 297.66 31.667V29.667C297.66 29.1147 298.108 28.667 298.66 28.667H299.66ZM304.327 26.667C304.879 26.6672 305.327 27.1148 305.327 27.667V31.667C305.327 32.219 304.879 32.6668 304.327 32.667H303.327C302.775 32.667 302.327 32.2191 302.327 31.667V27.667C302.327 27.1147 302.775 26.667 303.327 26.667H304.327ZM308.993 24.333C309.545 24.333 309.993 24.7809 309.993 25.333V31.667C309.993 32.2191 309.545 32.667 308.993 32.667H307.993C307.441 32.6668 306.993 32.219 306.993 31.667V25.333C306.993 24.781 307.441 24.3332 307.993 24.333H308.993ZM313.66 22C314.212 22 314.66 22.4477 314.66 23V31.667C314.66 32.2191 314.212 32.667 313.66 32.667H312.66C312.108 32.667 311.66 32.2191 311.66 31.667V23C311.66 22.4477 312.108 22 312.66 22H313.66Z" fill="#00157E"/>
<path d="M32.1846 21.9175C34.4405 21.9175 36.4034 23.5215 36.4034 27.3301V27.3447C36.4034 30.9043 34.7994 33.0137 32.1407 33.0137C30.1998 33.0137 28.7496 31.8638 28.4127 30.2451L28.398 30.1646H30.2584L30.2804 30.2378C30.5587 30.9775 31.2105 31.4609 32.1407 31.4609C33.8179 31.4609 34.5284 29.8203 34.609 27.7988C34.609 27.7183 34.6163 27.6377 34.6163 27.5571H34.4698C34.0816 28.3921 33.1588 29.1318 31.7086 29.1318C29.6798 29.1318 28.2589 27.6523 28.2589 25.6455V25.6309C28.2589 23.4849 29.8922 21.9175 32.1846 21.9175ZM32.1773 27.6816C33.3712 27.6816 34.2867 26.8174 34.2867 25.6235V25.6089C34.2867 24.4004 33.3712 23.4556 32.1993 23.4556C31.0347 23.4556 30.1046 24.3857 30.1046 25.5649V25.5796C30.1046 26.8027 30.9762 27.6816 32.1773 27.6816ZM39.4486 25.9019C38.7821 25.9019 38.284 25.3892 38.284 24.7446C38.284 24.0928 38.7821 23.5874 39.4486 23.5874C40.1224 23.5874 40.6131 24.0928 40.6131 24.7446C40.6131 25.3892 40.1224 25.9019 39.4486 25.9019ZM39.4486 31.3364C38.7821 31.3364 38.284 30.8311 38.284 30.1792C38.284 29.5273 38.7821 29.022 39.4486 29.022C40.1224 29.022 40.6131 29.5273 40.6131 30.1792C40.6131 30.8311 40.1224 31.3364 39.4486 31.3364ZM47.6207 32.75V30.7212H42.4498V29.1758C43.8195 26.7954 45.3209 24.3638 46.7565 22.1812H49.4298V29.1611H50.8507V30.7212H49.4298V32.75H47.6207ZM44.2077 29.2051H47.65V23.6899H47.5402C46.4562 25.3452 45.233 27.3008 44.2077 29.0952V29.2051ZM54.9506 32.75V24.0415H54.8261L52.1967 25.9019V24.1221L54.9579 22.1812H56.8403V32.75H54.9506Z" fill="#00157E"/>
<path d="M123.362 77.24C123.362 81.58 120.542 84 116.182 84H113.342V72.06C113.342 72.06 115.122 71.84 117.082 71.84C120.822 71.84 123.362 73.56 123.362 77.24ZM120.602 77.44C120.602 75.14 119.122 74.06 117.042 74.06C116.482 74.06 116.042 74.1 116.042 74.1V81.6H116.742C119.102 81.6 120.602 80.26 120.602 77.44ZM133.331 79.24C133.331 82.08 131.851 84.22 129.071 84.22C126.071 84.22 124.811 82.1 124.811 79.24C124.811 76.4 126.291 74.32 129.071 74.32C132.071 74.32 133.331 76.38 133.331 79.24ZM130.811 79.26C130.811 77.32 130.171 76.54 129.071 76.54C127.971 76.54 127.331 77.28 127.331 79.22C127.331 81.14 127.971 82 129.071 82C130.171 82 130.811 81.18 130.811 79.26ZM148.713 84H146.193V78C146.193 76.98 145.753 76.52 144.853 76.52C144.213 76.52 143.593 76.86 143.253 77.22C143.253 77.22 143.293 77.54 143.293 77.82V84H140.753V78C140.753 76.98 140.333 76.52 139.433 76.52C138.773 76.52 138.213 76.82 137.853 77.18V84H135.313V77L134.993 74.66L137.433 74.34L137.553 75.38H137.573C138.133 74.82 139.113 74.3 140.353 74.3C141.473 74.3 142.333 74.76 142.833 75.54H142.853C143.553 74.82 144.553 74.3 145.793 74.3C147.453 74.3 148.713 75.24 148.713 77.38V84ZM158.431 83.44C157.371 83.98 156.491 84.24 155.211 84.24C152.051 84.24 150.651 82.32 150.651 79.12C150.651 76.26 152.351 74.32 154.871 74.32C157.511 74.32 158.371 76.14 158.371 78.42V79.54H153.131C153.211 81.22 154.011 82.02 155.531 82.02C156.431 82.02 156.931 81.8 157.651 81.5L158.431 83.44ZM156.151 78C156.151 77.02 155.731 76.36 154.791 76.36C153.791 76.36 153.291 77.12 153.171 78H156.151ZM166.352 80.96C166.352 82.78 164.892 84.22 162.692 84.22C161.552 84.22 160.532 84.04 159.672 83.64L160.332 81.56C161.052 81.86 161.752 82.16 162.552 82.16C163.412 82.16 163.832 81.86 163.832 81.36C163.832 80.9 163.612 80.72 163.092 80.5L161.612 79.88C160.732 79.52 159.772 78.86 159.772 77.3C159.772 75.34 161.432 74.3 163.412 74.3C164.532 74.3 165.292 74.48 166.192 74.86L165.412 76.9C164.772 76.64 164.152 76.38 163.432 76.38C162.652 76.38 162.212 76.6 162.212 77.12C162.212 77.62 162.612 77.8 162.972 77.94L164.512 78.56C165.712 79.04 166.352 79.8 166.352 80.96ZM174.219 83.54C173.399 83.98 172.779 84.22 171.519 84.22C169.639 84.22 168.719 82.96 168.719 81.08V76.54H167.259V74.86L168.719 74.52V72.88L171.239 72.58V74.54H173.839V76.54H171.239V80.4C171.239 81.66 171.559 81.98 172.379 81.98C172.839 81.98 173.099 81.86 173.539 81.66L174.219 83.54ZM178.4 84H175.86V77L175.54 74.66L178.4 74.34V84ZM178.64 71.88C178.64 72.72 177.98 73.4 177.14 73.4C176.3 73.4 175.64 72.72 175.64 71.88C175.64 71.06 176.3 70.38 177.14 70.38C177.98 70.38 178.64 71.06 178.64 71.88ZM187.538 74.74L186.778 76.96C186.278 76.74 185.818 76.56 185.138 76.56C183.878 76.56 182.938 77.46 182.938 79.16C182.938 81.08 183.798 81.92 185.018 81.92C185.738 81.92 186.118 81.76 186.718 81.52L187.478 83.6C186.598 84 185.778 84.24 184.698 84.24C181.858 84.24 180.358 82.32 180.358 79.3C180.358 75.82 182.718 74.3 185.138 74.3C186.078 74.3 186.718 74.42 187.538 74.74ZM201.315 75.22C201.315 77.94 199.075 79.62 196.455 79.62H196.275V84H193.635V72.08C193.635 72.08 195.215 71.84 196.895 71.84C199.715 71.84 201.315 73.02 201.315 75.22ZM198.755 75.5C198.755 74.26 197.995 73.82 196.915 73.82C196.575 73.82 196.275 73.86 196.275 73.86V77.64H196.455C197.715 77.64 198.755 76.9 198.755 75.5ZM209.594 83.86L207.154 84.18L207.034 83.14H207.014C206.454 83.64 205.714 84.24 204.634 84.24C203.154 84.24 202.174 83.32 202.174 81.74C202.174 79.94 203.514 79.12 205.454 78.92L206.774 78.78V78.14C206.774 77.18 206.374 76.52 205.174 76.52C204.434 76.52 203.934 76.74 203.394 77.04L202.474 75.32C203.414 74.7 204.314 74.3 205.754 74.3C208.054 74.3 209.274 75.54 209.274 77.56V81.52L209.594 83.86ZM206.774 81.96V80.22L205.914 80.32C205.134 80.42 204.634 80.74 204.634 81.4C204.634 81.98 204.974 82.42 205.574 82.42C206.154 82.42 206.494 82.2 206.774 81.96ZM219.502 74.54L216.582 82.76C215.222 86.62 213.202 87.76 209.982 88.24L209.522 86.14C211.202 85.88 213.042 84.96 213.702 83.64L210.402 74.82L212.882 74.2L215.022 80.64H215.042L217.042 74.54H219.502ZM234.435 84H231.915V78C231.915 76.98 231.475 76.52 230.575 76.52C229.935 76.52 229.315 76.86 228.975 77.22C228.975 77.22 229.015 77.54 229.015 77.82V84H226.475V78C226.475 76.98 226.055 76.52 225.155 76.52C224.495 76.52 223.935 76.82 223.575 77.18V84H221.035V77L220.715 74.66L223.155 74.34L223.275 75.38H223.295C223.855 74.82 224.835 74.3 226.075 74.3C227.195 74.3 228.055 74.76 228.555 75.54H228.575C229.275 74.82 230.275 74.3 231.515 74.3C233.175 74.3 234.435 75.24 234.435 77.38V84ZM244.153 83.44C243.093 83.98 242.213 84.24 240.933 84.24C237.773 84.24 236.373 82.32 236.373 79.12C236.373 76.26 238.073 74.32 240.593 74.32C243.233 74.32 244.093 76.14 244.093 78.42V79.54H238.853C238.933 81.22 239.733 82.02 241.253 82.02C242.153 82.02 242.653 81.8 243.373 81.5L244.153 83.44ZM241.873 78C241.873 77.02 241.453 76.36 240.513 76.36C239.513 76.36 239.013 77.12 238.893 78H241.873ZM254.035 84H251.495V78C251.495 76.98 251.075 76.52 250.175 76.52C249.515 76.52 248.955 76.84 248.595 77.2V84H246.055V77L245.735 74.66L248.175 74.34L248.295 75.38H248.315C248.875 74.82 249.815 74.3 251.075 74.3C252.715 74.3 254.035 75.24 254.035 77.38V84ZM262.383 83.54C261.563 83.98 260.943 84.22 259.683 84.22C257.803 84.22 256.883 82.96 256.883 81.08V76.54H255.423V74.86L256.883 74.52V72.88L259.403 72.58V74.54H262.003V76.54H259.403V80.4C259.403 81.66 259.723 81.98 260.543 81.98C261.003 81.98 261.263 81.86 261.703 81.66L262.383 83.54Z" fill="#00157E"/>
<path d="M353 71.9292L341 83.9292" stroke="#00157E" stroke-width="2" stroke-linecap="round" stroke-linejoin="round"/>
<path d="M341 71.9292L353 83.9292" stroke="#00157E" stroke-width="2" stroke-linecap="round" stroke-linejoin="round"/>
</g>
<path d="M25.344 135.468H17.344V132.844H25.344V135.468ZM39.0395 140.428C39.0395 146.38 33.6635 148.364 28.7995 148.844L28.3515 146.06C31.1675 145.676 35.7115 144.652 35.7115 140.812C35.7115 138.412 34.2075 137.1 30.3355 137.1H28.2875L28.9595 127.18H38.5275V130.124H31.7115L31.3595 134.764C31.3595 134.764 32.0635 134.7 32.7035 134.7C36.5115 134.7 39.0395 136.652 39.0395 140.428ZM55.2565 135.34C55.2565 139.724 53.4645 143.852 48.5685 143.852C43.7045 143.852 41.8805 139.724 41.8805 135.34C41.8805 130.956 43.7045 126.828 48.5685 126.828C53.4645 126.828 55.2565 130.956 55.2565 135.34ZM51.9605 135.34C51.9605 131.98 50.9045 129.676 48.5685 129.676C46.2325 129.676 45.1765 131.98 45.1765 135.34C45.1765 138.7 46.2325 141.004 48.5685 141.004C50.9045 141.004 51.9605 138.7 51.9605 135.34ZM71.7565 135.34C71.7565 139.724 69.9645 143.852 65.0685 143.852C60.2045 143.852 58.3805 139.724 58.3805 135.34C58.3805 130.956 60.2045 126.828 65.0685 126.828C69.9645 126.828 71.7565 130.956 71.7565 135.34ZM68.4605 135.34C68.4605 131.98 67.4045 129.676 65.0685 129.676C62.7325 129.676 61.6765 131.98 61.6765 135.34C61.6765 138.7 62.7325 141.004 65.0685 141.004C67.4045 141.004 68.4605 138.7 68.4605 135.34ZM79.2005 141.612C79.2005 142.764 78.2725 143.724 77.0885 143.724C75.9365 143.724 75.0085 142.764 75.0085 141.612C75.0085 140.46 75.9365 139.532 77.0885 139.532C78.2725 139.532 79.2005 140.46 79.2005 141.612ZM95.8503 135.34C95.8503 139.724 94.0583 143.852 89.1623 143.852C84.2983 143.852 82.4743 139.724 82.4743 135.34C82.4743 130.956 84.2983 126.828 89.1623 126.828C94.0583 126.828 95.8503 130.956 95.8503 135.34ZM92.5543 135.34C92.5543 131.98 91.4983 129.676 89.1623 129.676C86.8263 129.676 85.7703 131.98 85.7703 135.34C85.7703 138.7 86.8263 141.004 89.1623 141.004C91.4983 141.004 92.5543 138.7 92.5543 135.34ZM112.35 135.34C112.35 139.724 110.558 143.852 105.662 143.852C100.798 143.852 98.9743 139.724 98.9743 135.34C98.9743 130.956 100.798 126.828 105.662 126.828C110.558 126.828 112.35 130.956 112.35 135.34ZM109.054 135.34C109.054 131.98 107.998 129.676 105.662 129.676C103.326 129.676 102.27 131.98 102.27 135.34C102.27 138.7 103.326 141.004 105.662 141.004C107.998 141.004 109.054 138.7 109.054 135.34Z" fill="#00157E"/>
<path d="M129.952 143.004C129.056 143.468 128.144 143.676 126.928 143.676C124.576 143.676 122.768 142.092 122.768 138.892C122.768 135.484 124.784 133.692 127.376 133.692C128.448 133.692 129.104 133.852 129.92 134.204L129.408 135.372C128.8 135.1 128.224 134.892 127.36 134.892C125.68 134.892 124.144 136.188 124.144 138.556C124.144 141.196 125.12 142.492 127.456 142.492C128.224 142.492 128.928 142.188 129.504 141.932L129.952 143.004ZM138.649 143.5H137.305V139.1H132.969V143.5H131.625V133.868H132.969V137.964H137.305V133.868H138.649V143.5ZM146.096 135.004H142.64V138.14H145.76V139.276H142.64V143.5H141.312V133.868H146.096V135.004Z" fill="#00157E" fill-opacity="0.7"/>
<path d="M347 125L352 130L339 143H334V138L347 125Z" stroke="#00157E" stroke-width="2" stroke-linecap="round" stroke-linejoin="round"/>
<path d="M20.396 181.734C19.99 181.958 19.612 182.14 18.898 182.14C17.89 182.14 17.246 181.482 17.246 180.362V176.358H16.28V175.616L17.246 175.42V174.328L18.352 174.188V175.448H20.186V176.358H18.352V179.984C18.352 180.866 18.576 181.146 19.22 181.146C19.57 181.146 19.836 181.006 20.032 180.88L20.396 181.734ZM26.8521 178.724C26.8521 180.642 25.9421 182.154 24.0521 182.154C21.9801 182.154 21.2521 180.684 21.2521 178.724C21.2521 176.806 22.1621 175.294 24.0521 175.294C26.1241 175.294 26.8521 176.764 26.8521 178.724ZM25.7041 178.752C25.7041 177.128 25.1581 176.274 24.0521 176.274C22.9741 176.274 22.4001 177.03 22.4001 178.682C22.4001 180.306 22.9461 181.174 24.0521 181.174C25.1301 181.174 25.7041 180.404 25.7041 178.752Z" fill="#00157E" fill-opacity="0.7"/>
<mask id="path-16-inside-1_663_85202" fill="white">
<path d="M16 194H359V260H16V194Z"/>
</mask>
<path d="M359 260V259H16V260V261H359V260Z" fill="#00157E" fill-opacity="0.2" mask="url(#path-16-inside-1_663_85202)"/>
<path d="M24.8217 208H23.4777V203.6H19.1417V208H17.7977V198.368H19.1417V202.464H23.4777V198.368H24.8217V208ZM32.3492 207.92L31.0692 208.128L30.9572 207.248H30.9412C30.3972 207.76 29.8052 208.192 28.9092 208.192C27.6612 208.192 26.9252 207.44 26.9252 206.256C26.9252 204.912 27.9812 204.256 29.5012 204.096L30.8452 203.952V203.28C30.8452 202.24 30.5252 201.504 29.2932 201.504C28.6692 201.504 28.2052 201.696 27.7412 201.936L27.2772 200.992C27.9492 200.592 28.6372 200.336 29.5972 200.336C31.1012 200.336 32.1092 201.216 32.1092 202.704V206.272L32.3492 207.92ZM30.8452 206.448V204.816L29.6772 204.976C28.7172 205.104 28.1892 205.408 28.1892 206.096C28.1892 206.72 28.5732 207.136 29.2132 207.136C29.9652 207.136 30.4292 206.816 30.8452 206.448ZM40.3672 208H39.0872V203.136C39.0872 202.032 38.6712 201.472 37.6632 201.472C36.9432 201.472 36.4312 201.776 35.9672 202.192V208H34.6872V202.24L34.4632 200.592L35.7272 200.384L35.8552 201.264H35.8712C36.4312 200.72 37.1672 200.336 38.0952 200.336C39.3592 200.336 40.3672 201.152 40.3672 202.688V208ZM47.2264 205.824C47.2264 207.184 46.1544 208.16 44.5544 208.16C43.7864 208.16 43.0184 208.048 42.4104 207.76L42.7944 206.64C43.3224 206.88 43.9144 207.072 44.4904 207.072C45.3544 207.072 45.9304 206.736 45.9304 206.032C45.9304 205.488 45.6424 205.264 45.1464 205.04L43.7544 204.4C43.2584 204.176 42.3624 203.728 42.3624 202.432C42.3624 201.008 43.6104 200.336 44.9704 200.336C45.7864 200.336 46.3624 200.464 47.0024 200.736L46.5704 201.84C46.0584 201.616 45.5624 201.456 44.9544 201.456C44.1384 201.456 43.6104 201.712 43.6104 202.352C43.6104 202.912 44.0904 203.136 44.3944 203.28L45.8184 203.952C46.8104 204.416 47.2264 205.008 47.2264 205.824ZM62.4811 207.968L61.2011 208.064L60.9291 200.608H60.9131L58.0811 208H56.6891L54.0171 200.624H54.0011L53.6171 208H52.4491L53.0731 198.368H54.4811L57.5051 206.4H57.5211L60.5771 198.368H61.9691L62.4811 207.968ZM70.0591 207.6C69.3391 208 68.6031 208.176 67.6911 208.176C65.4831 208.176 64.3471 206.688 64.3471 204.208C64.3471 201.888 65.5631 200.336 67.4511 200.336C69.2591 200.336 69.9951 201.536 69.9951 203.184V204.08H65.5951C65.6111 206.08 66.3311 207.04 67.9631 207.04C68.5871 207.04 69.0671 206.864 69.6111 206.592L70.0591 207.6ZM68.7951 203.184C68.7951 202.064 68.3791 201.36 67.3871 201.36C66.4271 201.36 65.8191 202.112 65.6591 203.184H68.7951ZM77.3925 200.512L74.8965 207.312C74.0965 209.52 73.0245 210.848 70.4165 211.376L70.1765 210.336C72.0805 209.952 73.0885 208.8 73.5845 207.552L70.8965 200.624L72.1605 200.288L74.2245 205.856H74.2405L76.1285 200.512H77.3925ZM83.981 207.6C83.261 208 82.525 208.176 81.613 208.176C79.405 208.176 78.269 206.688 78.269 204.208C78.269 201.888 79.485 200.336 81.373 200.336C83.181 200.336 83.917 201.536 83.917 203.184V204.08H79.517C79.533 206.08 80.253 207.04 81.885 207.04C82.509 207.04 82.989 206.864 83.533 206.592L83.981 207.6ZM82.717 203.184C82.717 202.064 82.301 201.36 81.309 201.36C80.349 201.36 79.741 202.112 79.581 203.184H82.717ZM89.2504 201.616C88.3864 201.616 87.7464 201.84 87.1704 202.368V208H85.8904V202.24L85.6664 200.592L86.9304 200.384L87.0584 201.408H87.0744C87.5864 200.832 88.2584 200.352 89.2504 200.352V201.616Z" fill="#00157E"/>
<path d="M27.1764 225.968L25.8964 226.064L25.6244 218.608H25.6084L22.7764 226H21.3844L18.7124 218.624H18.6964L18.3124 226H17.1444L17.7684 216.368H19.1764L22.2004 224.4H22.2164L25.2724 216.368H26.6644L27.1764 225.968ZM34.482 225.92L33.202 226.128L33.09 225.248H33.074C32.53 225.76 31.938 226.192 31.042 226.192C29.794 226.192 29.058 225.44 29.058 224.256C29.058 222.912 30.114 222.256 31.634 222.096L32.978 221.952V221.28C32.978 220.24 32.658 219.504 31.426 219.504C30.802 219.504 30.338 219.696 29.874 219.936L29.41 218.992C30.082 218.592 30.77 218.336 31.73 218.336C33.234 218.336 34.242 219.216 34.242 220.704V224.272L34.482 225.92ZM32.978 224.448V222.816L31.81 222.976C30.85 223.104 30.322 223.408 30.322 224.096C30.322 224.72 30.706 225.136 31.346 225.136C32.098 225.136 32.562 224.816 32.978 224.448ZM38.132 226H36.852V220.24L36.628 218.592L38.132 218.384V226ZM38.388 216.56C38.388 217.072 37.988 217.456 37.508 217.456C37.012 217.456 36.596 217.072 36.596 216.56C36.596 216.048 37.012 215.648 37.508 215.648C37.988 215.648 38.388 216.048 38.388 216.56ZM46.375 226H45.095V221.136C45.095 220.032 44.679 219.472 43.671 219.472C42.951 219.472 42.439 219.776 41.975 220.192V226H40.695V220.24L40.471 218.592L41.735 218.384L41.863 219.264H41.879C42.439 218.72 43.175 218.336 44.103 218.336C45.367 218.336 46.375 219.152 46.375 220.688V226ZM57.5215 223.296C57.5215 224.976 56.3535 226.176 54.4175 226.176C53.4255 226.176 52.5455 225.968 51.7935 225.648L52.2095 224.48C52.8335 224.768 53.5695 225.008 54.3215 225.008C55.4895 225.008 56.2415 224.56 56.2415 223.504C56.2415 222.72 55.6655 222.336 54.8975 221.968L53.3935 221.248C52.3855 220.768 51.6975 220.144 51.6975 218.784C51.6975 217.136 53.1375 216.192 54.8015 216.192C55.6975 216.192 56.2735 216.336 57.1055 216.64L56.6575 217.776C56.1455 217.536 55.5855 217.312 54.8815 217.312C53.8895 217.312 52.9935 217.712 52.9935 218.736C52.9935 219.424 53.4095 219.76 54.0495 220.064L55.5855 220.816C56.8015 221.408 57.5215 222.064 57.5215 223.296ZM63.2047 225.696C62.7407 225.952 62.3087 226.16 61.4927 226.16C60.3407 226.16 59.6047 225.408 59.6047 224.128V219.552H58.5007V218.704L59.6047 218.48V217.232L60.8687 217.072V218.512H62.9647V219.552H60.8687V223.696C60.8687 224.704 61.1247 225.024 61.8607 225.024C62.2607 225.024 62.5647 224.864 62.7887 224.72L63.2047 225.696ZM68.2738 219.616C67.4098 219.616 66.7698 219.84 66.1938 220.368V226H64.9138V220.24L64.6898 218.592L65.9538 218.384L66.0818 219.408H66.0978C66.6098 218.832 67.2818 218.352 68.2738 218.352V219.616ZM74.8482 225.6C74.1282 226 73.3922 226.176 72.4802 226.176C70.2722 226.176 69.1362 224.688 69.1362 222.208C69.1362 219.888 70.3522 218.336 72.2402 218.336C74.0482 218.336 74.7842 219.536 74.7842 221.184V222.08H70.3842C70.4002 224.08 71.1202 225.04 72.7522 225.04C73.3762 225.04 73.8562 224.864 74.4002 224.592L74.8482 225.6ZM73.5842 221.184C73.5842 220.064 73.1682 219.36 72.1762 219.36C71.2162 219.36 70.6082 220.112 70.4482 221.184H73.5842ZM81.9575 225.6C81.2375 226 80.5015 226.176 79.5895 226.176C77.3815 226.176 76.2455 224.688 76.2455 222.208C76.2455 219.888 77.4615 218.336 79.3495 218.336C81.1575 218.336 81.8935 219.536 81.8935 221.184V222.08H77.4935C77.5095 224.08 78.2295 225.04 79.8615 225.04C80.4855 225.04 80.9655 224.864 81.5095 224.592L81.9575 225.6ZM80.6935 221.184C80.6935 220.064 80.2775 219.36 79.2855 219.36C78.3255 219.36 77.7175 220.112 77.5575 221.184H80.6935ZM87.6109 225.696C87.1469 225.952 86.7149 226.16 85.8989 226.16C84.7469 226.16 84.0109 225.408 84.0109 224.128V219.552H82.9069V218.704L84.0109 218.48V217.232L85.2749 217.072V218.512H87.3709V219.552H85.2749V223.696C85.2749 224.704 85.5309 225.024 86.2669 225.024C86.6669 225.024 86.9709 224.864 87.1949 224.72L87.6109 225.696ZM97.9754 226H92.0394V225.168L94.7754 222.544C95.5114 221.824 96.0714 221.296 96.0714 220.416C96.0714 219.488 95.4954 218.8 94.4234 218.8C93.7034 218.8 93.1914 219.12 92.8074 219.44L92.1994 218.592C92.8874 218.016 93.5914 217.664 94.6954 217.664C96.2794 217.664 97.3674 218.592 97.3674 220.272C97.3674 221.392 96.6954 222.24 95.9274 222.944L93.8794 224.832V224.848H97.9754V226ZM104.272 225.36C104.272 227.28 103.04 228.496 100.928 228.496C100.304 228.496 99.6478 228.384 99.0558 228.24L99.3438 227.04C99.8718 227.2 100.32 227.328 100.96 227.328C102.224 227.328 102.992 226.704 102.992 225.552C102.992 223.984 101.552 223.376 99.5198 223.376V222.464C101.888 222.32 102.544 221.264 102.544 220.224C102.544 219.312 101.984 218.8 101.088 218.8C100.352 218.8 99.9198 219.04 99.4398 219.36L98.9118 218.48C99.4878 218.032 100.224 217.664 101.344 217.664C102.88 217.664 103.824 218.576 103.824 220.064C103.824 221.36 103.072 222.224 102 222.736V222.752C103.568 223.088 104.272 224.128 104.272 225.36Z" fill="#00157E"/>
<path d="M22.5584 241.664C22.5584 243.2 21.3904 244.176 19.7424 244.176C18.0624 244.176 16.9264 243.328 16.9264 241.76C16.9264 240.352 17.9664 239.504 18.7664 238.96C17.8064 238.288 17.1664 237.712 17.1664 236.512C17.1664 235.152 18.2864 234.192 19.7264 234.192C21.2784 234.192 22.2864 235.056 22.2864 236.4C22.2864 237.552 21.4864 238.288 20.7024 238.832C21.7264 239.52 22.5584 240.208 22.5584 241.664ZM21.3264 241.664C21.3264 240.624 20.6064 240.096 19.6464 239.472C18.7984 240.048 18.1424 240.544 18.1424 241.6C18.1424 242.56 18.7824 243.104 19.7584 243.104C20.7984 243.104 21.3264 242.464 21.3264 241.664ZM21.1504 236.544C21.1504 235.728 20.6064 235.2 19.7424 235.2C18.8784 235.2 18.3184 235.76 18.3184 236.56C18.3184 237.312 18.9424 237.744 19.8064 238.336C20.4944 237.888 21.1504 237.312 21.1504 236.544ZM30.752 239.92C30.752 242.048 29.92 244.176 27.504 244.176C25.072 244.176 24.24 242.048 24.24 239.92C24.24 237.792 25.072 235.664 27.504 235.664C29.92 235.664 30.752 237.792 30.752 239.92ZM29.44 239.92C29.44 238.128 28.848 236.784 27.504 236.784C26.144 236.784 25.552 238.128 25.552 239.92C25.552 241.712 26.144 243.056 27.504 243.056C28.848 243.056 29.44 241.712 29.44 239.92ZM38.9864 239.92C38.9864 242.048 38.1544 244.176 35.7384 244.176C33.3064 244.176 32.4744 242.048 32.4744 239.92C32.4744 237.792 33.3064 235.664 35.7384 235.664C38.1544 235.664 38.9864 237.792 38.9864 239.92ZM37.6744 239.92C37.6744 238.128 37.0824 236.784 35.7384 236.784C34.3784 236.784 33.7864 238.128 33.7864 239.92C33.7864 241.712 34.3784 243.056 35.7384 243.056C37.0824 243.056 37.6744 241.712 37.6744 239.92ZM42.9852 244H41.7212V236.928L40.3132 237.12L40.1692 236.144L42.9852 235.696V244ZM55.53 244H48.234V242.96L53.594 235.504V235.488H48.65V234.368H55.226V235.392L49.994 242.864V242.88H55.53V244ZM63.2787 243.92L62.0147 244.128L61.8867 243.264H61.8707C61.3107 243.792 60.5747 244.176 59.6467 244.176C58.3827 244.176 57.3747 243.36 57.3747 241.824V238.24L57.1507 236.592L58.6547 236.384V241.376C58.6547 242.48 59.0707 243.056 60.0787 243.056C60.7987 243.056 61.3107 242.752 61.7747 242.32V238.24L61.5507 236.592L63.0547 236.384V242.272L63.2787 243.92ZM59.7267 234.656C59.7267 235.136 59.3587 235.472 58.9107 235.472C58.4627 235.472 58.0787 235.136 58.0787 234.656C58.0787 234.192 58.4627 233.824 58.9107 233.824C59.3587 233.824 59.7267 234.192 59.7267 234.656ZM62.3347 234.656C62.3347 235.136 61.9507 235.472 61.5027 235.472C61.0547 235.472 60.6707 235.136 60.6707 234.656C60.6707 234.192 61.0547 233.824 61.5027 233.824C61.9507 233.824 62.3347 234.192 62.3347 234.656ZM68.9691 237.616C68.1051 237.616 67.4651 237.84 66.8891 238.368V244H65.6091V238.24L65.3851 236.592L66.6491 236.384L66.7771 237.408H66.7931C67.3051 236.832 67.9771 236.352 68.9691 236.352V237.616ZM71.843 244H70.563V238.24L70.339 236.592L71.843 236.384V244ZM72.099 234.56C72.099 235.072 71.699 235.456 71.219 235.456C70.723 235.456 70.307 235.072 70.307 234.56C70.307 234.048 70.723 233.648 71.219 233.648C71.699 233.648 72.099 234.048 72.099 234.56ZM79.238 236.656L78.838 237.808C78.422 237.648 77.958 237.504 77.43 237.504C76.022 237.504 75.174 238.56 75.174 240.144C75.174 242.144 75.958 243.056 77.398 243.056C77.91 243.056 78.326 242.88 78.742 242.704L79.174 243.744C78.55 244.032 77.862 244.176 77.142 244.176C74.998 244.176 73.894 242.64 73.894 240.352C73.894 237.6 75.59 236.336 77.494 236.336C78.15 236.336 78.71 236.448 79.238 236.656ZM86.6317 244H85.3677V239.136C85.3677 238.048 84.9357 237.488 83.9117 237.488C83.1757 237.488 82.6797 237.808 82.2477 238.192V244H80.9677V234.928L80.7437 233.28L82.2477 233.072V237.168H82.2637C82.7597 236.736 83.4477 236.336 84.3757 236.336C85.6557 236.336 86.6317 237.136 86.6317 238.688V244Z" fill="#00157E"/>
<path d="M346.999 205L351.999 210L338.999 223H333.999V218L346.999 205Z" stroke="#00157E" stroke-width="2" stroke-linecap="round" stroke-linejoin="round"/>
<g clip-path="url(#clip1_663_85202)">
<path d="M21.727 289.635C21.727 291.105 20.705 292.155 19.011 292.155C18.143 292.155 17.373 291.973 16.715 291.693L17.079 290.671C17.625 290.923 18.269 291.133 18.927 291.133C19.949 291.133 20.607 290.741 20.607 289.817C20.607 289.131 20.103 288.795 19.431 288.473L18.115 287.843C17.233 287.423 16.631 286.877 16.631 285.687C16.631 284.245 17.891 283.419 19.347 283.419C20.131 283.419 20.635 283.545 21.363 283.811L20.971 284.805C20.523 284.595 20.033 284.399 19.417 284.399C18.549 284.399 17.765 284.749 17.765 285.645C17.765 286.247 18.129 286.541 18.689 286.807L20.033 287.465C21.097 287.983 21.727 288.557 21.727 289.635ZM26.6997 291.735C26.2937 291.959 25.9157 292.141 25.2017 292.141C24.1937 292.141 23.5497 291.483 23.5497 290.363V286.359H22.5837V285.617L23.5497 285.421V284.329L24.6557 284.189V285.449H26.4897V286.359H24.6557V289.985C24.6557 290.867 24.8797 291.147 25.5237 291.147C25.8737 291.147 26.1397 291.007 26.3357 290.881L26.6997 291.735ZM32.4932 291.931L31.3732 292.113L31.2752 291.343H31.2612C30.7852 291.791 30.2672 292.169 29.4832 292.169C28.3912 292.169 27.7472 291.511 27.7472 290.475C27.7472 289.299 28.6712 288.725 30.0012 288.585L31.1772 288.459V287.871C31.1772 286.961 30.8972 286.317 29.8192 286.317C29.2732 286.317 28.8672 286.485 28.4612 286.695L28.0552 285.869C28.6432 285.519 29.2452 285.295 30.0852 285.295C31.4012 285.295 32.2832 286.065 32.2832 287.367V290.489L32.4932 291.931ZM31.1772 290.643V289.215L30.1552 289.355C29.3152 289.467 28.8532 289.733 28.8532 290.335C28.8532 290.881 29.1892 291.245 29.7492 291.245C30.4072 291.245 30.8132 290.965 31.1772 290.643ZM37.8149 291.735C37.4089 291.959 37.0309 292.141 36.3169 292.141C35.3089 292.141 34.6649 291.483 34.6649 290.363V286.359H33.6989V285.617L34.6649 285.421V284.329L35.7709 284.189V285.449H37.6049V286.359H35.7709V289.985C35.7709 290.867 35.9949 291.147 36.6389 291.147C36.9889 291.147 37.2549 291.007 37.4509 290.881L37.8149 291.735ZM44.4764 291.931L43.3704 292.113L43.2584 291.357H43.2444C42.7544 291.819 42.1104 292.155 41.2984 292.155C40.1924 292.155 39.3104 291.441 39.3104 290.097V286.961L39.1144 285.519L40.4304 285.337V289.705C40.4304 290.671 40.7944 291.175 41.6764 291.175C42.3064 291.175 42.7544 290.909 43.1604 290.531V286.961L42.9644 285.519L44.2804 285.337V290.489L44.4764 291.931ZM50.3095 290.097C50.3095 291.287 49.3715 292.141 47.9715 292.141C47.2995 292.141 46.6275 292.043 46.0955 291.791L46.4315 290.811C46.8935 291.021 47.4115 291.189 47.9155 291.189C48.6715 291.189 49.1755 290.895 49.1755 290.279C49.1755 289.803 48.9235 289.607 48.4895 289.411L47.2715 288.851C46.8375 288.655 46.0535 288.263 46.0535 287.129C46.0535 285.883 47.1455 285.295 48.3355 285.295C49.0495 285.295 49.5535 285.407 50.1135 285.645L49.7355 286.611C49.2875 286.415 48.8535 286.275 48.3215 286.275C47.6075 286.275 47.1455 286.499 47.1455 287.059C47.1455 287.549 47.5655 287.745 47.8315 287.871L49.0775 288.459C49.9455 288.865 50.3095 289.383 50.3095 290.097Z" fill="#00157E"/>
</g>
<path d="M285.999 276.501H346.999C353.35 276.501 358.499 281.65 358.499 288.001C358.499 294.352 353.35 299.501 346.999 299.501H285.999C279.648 299.501 274.499 294.352 274.499 288.001C274.499 281.65 279.648 276.501 285.999 276.501Z" fill="#00157E"/>
<path d="M285.999 276.501H346.999C353.35 276.501 358.499 281.65 358.499 288.001C358.499 294.352 353.35 299.501 346.999 299.501H285.999C279.648 299.501 274.499 294.352 274.499 288.001C274.499 281.65 279.648 276.501 285.999 276.501Z" stroke="#00157E"/>
<g clip-path="url(#clip2_663_85202)">
<path d="M289.999 294.668C293.681 294.668 296.666 291.683 296.666 288.001C296.666 284.319 293.681 281.334 289.999 281.334C286.317 281.334 283.333 284.319 283.333 288.001C283.333 291.683 286.317 294.668 289.999 294.668Z" stroke="white" stroke-width="2" stroke-linecap="round" stroke-linejoin="round"/>
<path d="M289.999 284.001V288.001L292.666 289.334" stroke="white" stroke-width="2" stroke-linecap="round" stroke-linejoin="round"/>
</g>
<path d="M312.5 285.659C312.5 287.633 310.89 288.627 309.014 288.627H308.804V292.001H307.642V283.643C307.642 283.643 308.692 283.489 309.798 283.489C311.436 283.489 312.5 284.273 312.5 285.659ZM311.352 285.869C311.352 284.833 310.666 284.371 309.602 284.371C309.154 284.371 308.804 284.427 308.804 284.427V287.731H308.986C310.232 287.731 311.352 287.171 311.352 285.869ZM318.426 291.651C317.796 292.001 317.152 292.155 316.354 292.155C314.422 292.155 313.428 290.853 313.428 288.683C313.428 286.653 314.492 285.295 316.144 285.295C317.726 285.295 318.37 286.345 318.37 287.787V288.571H314.52C314.534 290.321 315.164 291.161 316.592 291.161C317.138 291.161 317.558 291.007 318.034 290.769L318.426 291.651ZM317.32 287.787C317.32 286.807 316.956 286.191 316.088 286.191C315.248 286.191 314.716 286.849 314.576 287.787H317.32ZM325.067 292.001H323.947V287.745C323.947 286.779 323.583 286.289 322.701 286.289C322.071 286.289 321.623 286.555 321.217 286.919V292.001H320.097V286.961L319.901 285.519L321.007 285.337L321.119 286.107H321.133C321.623 285.631 322.267 285.295 323.079 285.295C324.185 285.295 325.067 286.009 325.067 287.353V292.001ZM332.188 291.959L331.11 292.113L331.012 291.455H330.998C330.578 291.805 330.004 292.155 329.234 292.155C327.792 292.155 326.826 290.965 326.826 289.019C326.826 286.765 327.988 285.379 329.976 285.379C330.508 285.379 330.886 285.477 330.886 285.477V284.063L330.676 282.621L331.992 282.439V290.517L332.188 291.959ZM329.626 291.175C330.172 291.175 330.55 290.951 330.886 290.685V286.499C330.886 286.499 330.522 286.317 329.878 286.317C328.604 286.317 327.974 287.395 327.974 288.669C327.974 290.251 328.394 291.175 329.626 291.175ZM335.381 292.001H334.261V286.961L334.065 285.519L335.381 285.337V292.001ZM335.605 283.741C335.605 284.189 335.255 284.525 334.835 284.525C334.401 284.525 334.037 284.189 334.037 283.741C334.037 283.293 334.401 282.943 334.835 282.943C335.255 282.943 335.605 283.293 335.605 283.741ZM342.594 292.001H341.474V287.745C341.474 286.779 341.11 286.289 340.228 286.289C339.598 286.289 339.15 286.555 338.744 286.919V292.001H337.624V286.961L337.428 285.519L338.534 285.337L338.646 286.107H338.66C339.15 285.631 339.794 285.295 340.606 285.295C341.712 285.295 342.594 286.009 342.594 287.353V292.001ZM350.15 286.275H348.834C349.03 286.611 349.142 287.003 349.142 287.479C349.142 288.809 348.176 289.705 346.832 289.705C346.566 289.705 346.314 289.663 346.09 289.607C346.09 289.607 345.642 289.859 345.642 290.363C345.642 290.797 345.964 290.881 346.412 290.881H348.288C349.436 290.881 350.108 291.231 350.108 292.253C350.108 293.541 348.792 294.997 346.398 294.997C345.026 294.997 344.186 294.325 344.186 293.177C344.186 292.099 345.068 291.567 345.068 291.567C344.788 291.385 344.606 291.105 344.606 290.643C344.606 289.831 345.306 289.425 345.446 289.355C344.83 288.977 344.494 288.333 344.494 287.479C344.494 286.149 345.474 285.267 346.832 285.267C347.336 285.267 347.798 285.379 348.162 285.603L350.15 285.295V286.275ZM349.128 292.421C349.128 291.945 348.722 291.847 348.036 291.847H346.272C346.076 291.847 345.894 291.833 345.712 291.805C345.712 291.805 345.18 292.225 345.18 292.925C345.18 293.681 345.642 294.087 346.65 294.087C348.26 294.087 349.128 293.135 349.128 292.421ZM348.092 287.479C348.092 286.569 347.588 286.107 346.832 286.107C346.104 286.107 345.544 286.597 345.544 287.479C345.544 288.403 346.062 288.865 346.832 288.865C347.546 288.865 348.092 288.375 348.092 287.479Z" fill="white"/>
<path d="M22.539 325.427C22.539 327.317 20.985 328.003 18.941 328.003H17.163V319.631C17.163 319.631 18.227 319.505 19.319 319.505C20.929 319.505 21.909 320.107 21.909 321.437C21.909 322.445 21.279 323.117 20.481 323.467V323.481C21.615 323.607 22.539 324.265 22.539 325.427ZM21.377 325.609C21.377 324.671 20.775 324.111 19.123 324.111H18.311V327.051H19.333C20.481 327.051 21.377 326.617 21.377 325.609ZM20.747 321.703C20.747 320.765 20.145 320.359 19.067 320.359C18.675 320.359 18.311 320.401 18.311 320.401V323.299C19.753 323.271 20.747 322.865 20.747 321.703ZM29.273 324.727C29.273 326.645 28.363 328.157 26.473 328.157C24.401 328.157 23.673 326.687 23.673 324.727C23.673 322.809 24.583 321.297 26.473 321.297C28.545 321.297 29.273 322.767 29.273 324.727ZM28.125 324.755C28.125 323.131 27.579 322.277 26.473 322.277C25.395 322.277 24.821 323.033 24.821 324.685C24.821 326.309 25.367 327.177 26.473 327.177C27.551 327.177 28.125 326.407 28.125 324.755ZM36.2046 324.727C36.2046 326.645 35.2946 328.157 33.4046 328.157C31.3326 328.157 30.6046 326.687 30.6046 324.727C30.6046 322.809 31.5146 321.297 33.4046 321.297C35.4766 321.297 36.2046 322.767 36.2046 324.727ZM35.0566 324.755C35.0566 323.131 34.5106 322.277 33.4046 322.277C32.3266 322.277 31.7526 323.033 31.7526 324.685C31.7526 326.309 32.2986 327.177 33.4046 327.177C34.4826 327.177 35.0566 326.407 35.0566 324.755ZM39.0763 328.003H37.9563V320.065L37.7603 318.623L39.0763 318.441V328.003ZM43.2063 327.807L42.0863 328.213L39.1043 324.447L41.4703 321.451H42.7443L40.4203 324.349L43.2063 327.807ZM45.6264 328.003H44.5064V322.963L44.3104 321.521L45.6264 321.339V328.003ZM45.8504 319.743C45.8504 320.191 45.5004 320.527 45.0804 320.527C44.6464 320.527 44.2824 320.191 44.2824 319.743C44.2824 319.295 44.6464 318.945 45.0804 318.945C45.5004 318.945 45.8504 319.295 45.8504 319.743ZM52.839 328.003H51.719V323.747C51.719 322.781 51.355 322.291 50.473 322.291C49.843 322.291 49.395 322.557 48.989 322.921V328.003H47.869V322.963L47.673 321.521L48.779 321.339L48.891 322.109H48.905C49.395 321.633 50.039 321.297 50.851 321.297C51.957 321.297 52.839 322.011 52.839 323.355V328.003ZM60.3948 322.277H59.0788C59.2748 322.613 59.3868 323.005 59.3868 323.481C59.3868 324.811 58.4208 325.707 57.0768 325.707C56.8108 325.707 56.5588 325.665 56.3348 325.609C56.3348 325.609 55.8868 325.861 55.8868 326.365C55.8868 326.799 56.2088 326.883 56.6568 326.883H58.5328C59.6808 326.883 60.3528 327.233 60.3528 328.255C60.3528 329.543 59.0368 330.999 56.6428 330.999C55.2708 330.999 54.4308 330.327 54.4308 329.179C54.4308 328.101 55.3128 327.569 55.3128 327.569C55.0328 327.387 54.8508 327.107 54.8508 326.645C54.8508 325.833 55.5508 325.427 55.6908 325.357C55.0748 324.979 54.7388 324.335 54.7388 323.481C54.7388 322.151 55.7188 321.269 57.0768 321.269C57.5808 321.269 58.0428 321.381 58.4068 321.605L60.3948 321.297V322.277ZM59.3728 328.423C59.3728 327.947 58.9668 327.849 58.2808 327.849H56.5168C56.3208 327.849 56.1388 327.835 55.9568 327.807C55.9568 327.807 55.4248 328.227 55.4248 328.927C55.4248 329.683 55.8868 330.089 56.8948 330.089C58.5048 330.089 59.3728 329.137 59.3728 328.423ZM58.3368 323.481C58.3368 322.571 57.8328 322.109 57.0768 322.109C56.3488 322.109 55.7888 322.599 55.7888 323.481C55.7888 324.405 56.3068 324.867 57.0768 324.867C57.7908 324.867 58.3368 324.377 58.3368 323.481ZM69.0501 321.577L68.7001 322.585C68.3361 322.445 67.9301 322.319 67.4681 322.319C66.2361 322.319 65.4941 323.243 65.4941 324.629C65.4941 326.379 66.1801 327.177 67.4401 327.177C67.8881 327.177 68.2521 327.023 68.6161 326.869L68.9941 327.779C68.4481 328.031 67.8461 328.157 67.2161 328.157C65.3401 328.157 64.3741 326.813 64.3741 324.811C64.3741 322.403 65.8581 321.297 67.5241 321.297C68.0981 321.297 68.5881 321.395 69.0501 321.577ZM75.4976 324.727C75.4976 326.645 74.5876 328.157 72.6976 328.157C70.6256 328.157 69.8976 326.687 69.8976 324.727C69.8976 322.809 70.8076 321.297 72.6976 321.297C74.7696 321.297 75.4976 322.767 75.4976 324.727ZM74.3496 324.755C74.3496 323.131 73.8036 322.277 72.6976 322.277C71.6196 322.277 71.0456 323.033 71.0456 324.685C71.0456 326.309 71.5916 327.177 72.6976 327.177C73.7756 327.177 74.3496 326.407 74.3496 324.755ZM82.2472 328.003H81.1272V323.747C81.1272 322.781 80.7632 322.291 79.8812 322.291C79.2512 322.291 78.8032 322.557 78.3972 322.921V328.003H77.2772V322.963L77.0812 321.521L78.1872 321.339L78.2992 322.109H78.3132C78.8032 321.633 79.4472 321.297 80.2592 321.297C81.3652 321.297 82.2472 322.011 82.2472 323.355V328.003ZM89.019 328.003H87.913V322.361H85.687V328.003H84.581V322.361H83.615V321.619L84.581 321.423V320.905C84.581 319.491 85.477 318.455 87.073 318.455C87.801 318.455 88.263 318.679 88.599 318.861L88.193 319.757C88.025 319.645 87.605 319.407 87.073 319.407C86.051 319.407 85.687 319.981 85.687 320.779V321.451H89.019V328.003ZM94.2036 322.417C93.4476 322.417 92.8876 322.613 92.3836 323.075V328.003H91.2636V322.963L91.0676 321.521L92.1736 321.339L92.2856 322.235H92.2996C92.7476 321.731 93.3356 321.311 94.2036 321.311V322.417ZM104.376 328.003H103.27V323.747C103.27 322.781 102.906 322.291 102.01 322.291C101.38 322.291 100.848 322.599 100.498 322.949C100.498 322.949 100.54 323.187 100.54 323.439V328.003H99.4202V323.747C99.4202 322.781 99.0562 322.291 98.1742 322.291C97.5442 322.291 97.0962 322.543 96.6902 322.921V328.003H95.5702V322.963L95.3742 321.521L96.4802 321.339L96.5922 322.109H96.6062C97.0962 321.633 97.7402 321.297 98.5522 321.297C99.3082 321.297 99.9382 321.633 100.274 322.235H100.288C100.806 321.717 101.478 321.297 102.402 321.297C103.522 321.297 104.376 322.011 104.376 323.355V328.003ZM110.901 327.933L109.781 328.115L109.683 327.345H109.669C109.193 327.793 108.675 328.171 107.891 328.171C106.799 328.171 106.155 327.513 106.155 326.477C106.155 325.301 107.079 324.727 108.409 324.587L109.585 324.461V323.873C109.585 322.963 109.305 322.319 108.227 322.319C107.681 322.319 107.275 322.487 106.869 322.697L106.463 321.871C107.051 321.521 107.653 321.297 108.493 321.297C109.809 321.297 110.691 322.067 110.691 323.369V326.491L110.901 327.933ZM109.585 326.645V325.217L108.563 325.357C107.723 325.469 107.261 325.735 107.261 326.337C107.261 326.883 107.597 327.247 108.157 327.247C108.815 327.247 109.221 326.967 109.585 326.645ZM116.223 327.737C115.817 327.961 115.439 328.143 114.725 328.143C113.717 328.143 113.073 327.485 113.073 326.365V322.361H112.107V321.619L113.073 321.423V320.331L114.179 320.191V321.451H116.013V322.361H114.179V325.987C114.179 326.869 114.403 327.149 115.047 327.149C115.397 327.149 115.663 327.009 115.859 326.883L116.223 327.737ZM118.867 328.003H117.747V322.963L117.551 321.521L118.867 321.339V328.003ZM119.091 319.743C119.091 320.191 118.741 320.527 118.321 320.527C117.887 320.527 117.523 320.191 117.523 319.743C117.523 319.295 117.887 318.945 118.321 318.945C118.741 318.945 119.091 319.295 119.091 319.743ZM126.261 324.727C126.261 326.645 125.351 328.157 123.461 328.157C121.389 328.157 120.661 326.687 120.661 324.727C120.661 322.809 121.571 321.297 123.461 321.297C125.533 321.297 126.261 322.767 126.261 324.727ZM125.113 324.755C125.113 323.131 124.567 322.277 123.461 322.277C122.383 322.277 121.809 323.033 121.809 324.685C121.809 326.309 122.355 327.177 123.461 327.177C124.539 327.177 125.113 326.407 125.113 324.755ZM133.011 328.003H131.891V323.747C131.891 322.781 131.527 322.291 130.645 322.291C130.015 322.291 129.567 322.557 129.161 322.921V328.003H128.041V322.963L127.845 321.521L128.951 321.339L129.063 322.109H129.077C129.567 321.633 130.211 321.297 131.023 321.297C132.129 321.297 133.011 322.011 133.011 323.355V328.003Z" fill="#00157E"/>
<path d="M283.999 327.003V331.003C283.999 331.533 283.788 332.042 283.413 332.417C283.038 332.792 282.529 333.003 281.999 333.003H267.999C267.469 333.003 266.96 332.792 266.585 332.417C266.21 332.042 265.999 331.533 265.999 331.003V327.003" stroke="#00157E" stroke-width="2" stroke-linecap="round" stroke-linejoin="round"/>
<path d="M269.999 322.003L274.999 327.003L279.999 322.003" stroke="#00157E" stroke-width="2" stroke-linecap="round" stroke-linejoin="round"/>
<path d="M274.999 327.003V315.003" stroke="#00157E" stroke-width="2" stroke-linecap="round" stroke-linejoin="round"/>
<path d="M303.063 323.257C303.063 326.337 301.215 328.003 298.219 328.003H296.455V319.631C296.455 319.631 297.617 319.491 298.863 319.491C301.467 319.491 303.063 320.849 303.063 323.257ZM301.845 323.425C301.845 321.437 300.501 320.485 298.667 320.485C298.079 320.485 297.631 320.513 297.631 320.513V326.953H298.443C300.445 326.953 301.845 325.763 301.845 323.425ZM310.001 324.727C310.001 326.645 309.091 328.157 307.201 328.157C305.129 328.157 304.401 326.687 304.401 324.727C304.401 322.809 305.311 321.297 307.201 321.297C309.273 321.297 310.001 322.767 310.001 324.727ZM308.853 324.755C308.853 323.131 308.307 322.277 307.201 322.277C306.123 322.277 305.549 323.033 305.549 324.685C305.549 326.309 306.095 327.177 307.201 327.177C308.279 327.177 308.853 326.407 308.853 324.755ZM319.634 321.451L317.828 327.975L316.792 328.031L315.196 323.061H315.182L313.572 327.989L312.536 328.031L310.898 321.521L311.962 321.255L313.138 326.365H313.152L314.678 321.451H315.77L317.31 326.365H317.324L318.542 321.451H319.634ZM326.074 328.003H324.954V323.747C324.954 322.781 324.59 322.291 323.708 322.291C323.078 322.291 322.63 322.557 322.224 322.921V328.003H321.104V322.963L320.908 321.521L322.014 321.339L322.126 322.109H322.14C322.63 321.633 323.274 321.297 324.086 321.297C325.192 321.297 326.074 322.011 326.074 323.355V328.003ZM329.374 328.003H328.254V320.065L328.058 318.623L329.374 318.441V328.003ZM336.743 324.727C336.743 326.645 335.833 328.157 333.943 328.157C331.871 328.157 331.143 326.687 331.143 324.727C331.143 322.809 332.053 321.297 333.943 321.297C336.015 321.297 336.743 322.767 336.743 324.727ZM335.595 324.755C335.595 323.131 335.049 322.277 333.943 322.277C332.865 322.277 332.291 323.033 332.291 324.685C332.291 326.309 332.837 327.177 333.943 327.177C335.021 327.177 335.595 326.407 335.595 324.755ZM342.82 327.933L341.7 328.115L341.602 327.345H341.588C341.112 327.793 340.594 328.171 339.81 328.171C338.718 328.171 338.074 327.513 338.074 326.477C338.074 325.301 338.998 324.727 340.328 324.587L341.504 324.461V323.873C341.504 322.963 341.224 322.319 340.146 322.319C339.6 322.319 339.194 322.487 338.788 322.697L338.382 321.871C338.97 321.521 339.572 321.297 340.412 321.297C341.728 321.297 342.61 322.067 342.61 323.369V326.491L342.82 327.933ZM341.504 326.645V325.217L340.482 325.357C339.642 325.469 339.18 325.735 339.18 326.337C339.18 326.883 339.516 327.247 340.076 327.247C340.734 327.247 341.14 326.967 341.504 326.645ZM349.78 327.961L348.702 328.115L348.604 327.457H348.59C348.17 327.807 347.596 328.157 346.826 328.157C345.384 328.157 344.418 326.967 344.418 325.021C344.418 322.767 345.58 321.381 347.568 321.381C348.1 321.381 348.478 321.479 348.478 321.479V320.065L348.268 318.623L349.584 318.441V326.519L349.78 327.961ZM347.218 327.177C347.764 327.177 348.142 326.953 348.478 326.687V322.501C348.478 322.501 348.114 322.319 347.47 322.319C346.196 322.319 345.566 323.397 345.566 324.671C345.566 326.253 345.986 327.177 347.218 327.177Z" fill="#00157E"/>
<g clip-path="url(#clip3_663_85202)">
<path d="M21.727 361.638C21.727 363.108 20.705 364.158 19.011 364.158C18.143 364.158 17.373 363.976 16.715 363.696L17.079 362.674C17.625 362.926 18.269 363.136 18.927 363.136C19.949 363.136 20.607 362.744 20.607 361.82C20.607 361.134 20.103 360.798 19.431 360.476L18.115 359.846C17.233 359.426 16.631 358.88 16.631 357.69C16.631 356.248 17.891 355.422 19.347 355.422C20.131 355.422 20.635 355.548 21.363 355.814L20.971 356.808C20.523 356.598 20.033 356.402 19.417 356.402C18.549 356.402 17.765 356.752 17.765 357.648C17.765 358.25 18.129 358.544 18.689 358.81L20.033 359.468C21.097 359.986 21.727 360.56 21.727 361.638ZM24.5717 364.004H23.4517V358.964L23.2557 357.522L24.5717 357.34V364.004ZM24.7957 355.744C24.7957 356.192 24.4457 356.528 24.0257 356.528C23.5917 356.528 23.2277 356.192 23.2277 355.744C23.2277 355.296 23.5917 354.946 24.0257 354.946C24.4457 354.946 24.7957 355.296 24.7957 355.744ZM32.1623 358.278H30.8463C31.0423 358.614 31.1543 359.006 31.1543 359.482C31.1543 360.812 30.1883 361.708 28.8443 361.708C28.5783 361.708 28.3263 361.666 28.1023 361.61C28.1023 361.61 27.6543 361.862 27.6543 362.366C27.6543 362.8 27.9763 362.884 28.4243 362.884H30.3003C31.4483 362.884 32.1203 363.234 32.1203 364.256C32.1203 365.544 30.8043 367 28.4103 367C27.0383 367 26.1983 366.328 26.1983 365.18C26.1983 364.102 27.0803 363.57 27.0803 363.57C26.8003 363.388 26.6183 363.108 26.6183 362.646C26.6183 361.834 27.3183 361.428 27.4583 361.358C26.8423 360.98 26.5063 360.336 26.5063 359.482C26.5063 358.152 27.4863 357.27 28.8443 357.27C29.3483 357.27 29.8103 357.382 30.1743 357.606L32.1623 357.298V358.278ZM31.1403 364.424C31.1403 363.948 30.7343 363.85 30.0483 363.85H28.2843C28.0883 363.85 27.9063 363.836 27.7243 363.808C27.7243 363.808 27.1923 364.228 27.1923 364.928C27.1923 365.684 27.6543 366.09 28.6623 366.09C30.2723 366.09 31.1403 365.138 31.1403 364.424ZM30.1043 359.482C30.1043 358.572 29.6003 358.11 28.8443 358.11C28.1163 358.11 27.5563 358.6 27.5563 359.482C27.5563 360.406 28.0743 360.868 28.8443 360.868C29.5583 360.868 30.1043 360.378 30.1043 359.482ZM38.6203 364.004H37.5003V359.748C37.5003 358.782 37.1363 358.292 36.2543 358.292C35.6243 358.292 35.1763 358.558 34.7703 358.922V364.004H33.6503V358.964L33.4543 357.522L34.5603 357.34L34.6723 358.11H34.6863C35.1763 357.634 35.8203 357.298 36.6323 357.298C37.7383 357.298 38.6203 358.012 38.6203 359.356V364.004ZM45.378 363.654C44.748 364.004 44.104 364.158 43.306 364.158C41.374 364.158 40.38 362.856 40.38 360.686C40.38 358.656 41.444 357.298 43.096 357.298C44.678 357.298 45.322 358.348 45.322 359.79V360.574H41.472C41.486 362.324 42.116 363.164 43.544 363.164C44.09 363.164 44.51 363.01 44.986 362.772L45.378 363.654ZM44.272 359.79C44.272 358.81 43.908 358.194 43.04 358.194C42.2 358.194 41.668 358.852 41.528 359.79H44.272ZM51.9627 363.962L50.8847 364.116L50.7867 363.458H50.7727C50.3527 363.808 49.7787 364.158 49.0087 364.158C47.5667 364.158 46.6007 362.968 46.6007 361.022C46.6007 358.768 47.7627 357.382 49.7507 357.382C50.2827 357.382 50.6607 357.48 50.6607 357.48V356.066L50.4507 354.624L51.7667 354.442V362.52L51.9627 363.962ZM49.4007 363.178C49.9467 363.178 50.3247 362.954 50.6607 362.688V358.502C50.6607 358.502 50.2967 358.32 49.6527 358.32C48.3787 358.32 47.7487 359.398 47.7487 360.672C47.7487 362.254 48.1687 363.178 49.4007 363.178Z" fill="#00157E"/>
</g>
<path d="M347.938 355.576L345.278 360.546V364.004H343.402V360.574L340.98 355.996L342.688 355.254L344.368 358.88H344.382L345.95 355.576H347.938ZM352.931 363.612C352.189 363.99 351.573 364.172 350.677 364.172C348.465 364.172 347.485 362.828 347.485 360.588C347.485 358.586 348.675 357.228 350.439 357.228C352.287 357.228 352.889 358.502 352.889 360.098V360.882H349.221C349.277 362.058 349.837 362.618 350.901 362.618C351.531 362.618 351.881 362.464 352.385 362.254L352.931 363.612ZM351.335 359.804C351.335 359.118 351.041 358.656 350.383 358.656C349.683 358.656 349.333 359.188 349.249 359.804H351.335ZM358.476 361.876C358.476 363.15 357.454 364.158 355.914 364.158C355.116 364.158 354.402 364.032 353.8 363.752L354.262 362.296C354.766 362.506 355.256 362.716 355.816 362.716C356.418 362.716 356.712 362.506 356.712 362.156C356.712 361.834 356.558 361.708 356.194 361.554L355.158 361.12C354.542 360.868 353.87 360.406 353.87 359.314C353.87 357.942 355.032 357.214 356.418 357.214C357.202 357.214 357.734 357.34 358.364 357.606L357.818 359.034C357.37 358.852 356.936 358.67 356.432 358.67C355.886 358.67 355.578 358.824 355.578 359.188C355.578 359.538 355.858 359.664 356.11 359.762L357.188 360.196C358.028 360.532 358.476 361.064 358.476 361.876Z" fill="#00157E"/>
<path d="M16.001 400.004C16.001 397.795 17.7918 396.004 20.001 396.004H44.001C46.2101 396.004 48.001 397.795 48.001 400.004V424.004C48.001 426.213 46.2101 428.004 44.001 428.004H20.001C17.7918 428.004 16.001 426.213 16.001 424.004V400.004Z" fill="#00157E" fill-opacity="0.05"/>
<path d="M26.001 409.004L32.001 415.004L38.001 409.004" stroke="#00157E" stroke-width="2" stroke-linecap="round" stroke-linejoin="round"/>
<path d="M70.4255 408.508H66.9695V411.644H70.0895V412.78H66.9695V417.004H65.6415V407.372H70.4255V408.508ZM77.8881 416.924L76.6241 417.132L76.4961 416.268H76.4801C75.9201 416.796 75.1841 417.18 74.2561 417.18C72.9921 417.18 71.9841 416.364 71.9841 414.828V411.244L71.7601 409.596L73.2641 409.388V414.38C73.2641 415.484 73.6801 416.06 74.6881 416.06C75.4081 416.06 75.9201 415.756 76.3841 415.324V411.244L76.1601 409.596L77.6641 409.388V415.276L77.8881 416.924ZM83.5785 410.62C82.7145 410.62 82.0745 410.844 81.4985 411.372V417.004H80.2185V411.244L79.9945 409.596L81.2585 409.388L81.3865 410.412H81.4025C81.9145 409.836 82.5865 409.356 83.5785 409.356V410.62ZM89.15 416.7C88.686 416.956 88.254 417.164 87.438 417.164C86.286 417.164 85.55 416.412 85.55 415.132V410.556H84.446V409.708L85.55 409.484V408.236L86.814 408.076V409.516H88.91V410.556H86.814V414.7C86.814 415.708 87.07 416.028 87.806 416.028C88.206 416.028 88.51 415.868 88.734 415.724L89.15 416.7ZM96.4911 417.004H95.2271V412.14C95.2271 411.052 94.7951 410.492 93.7711 410.492C93.0351 410.492 92.5391 410.812 92.1071 411.196V417.004H90.8271V407.932L90.6031 406.284L92.1071 406.076V410.172H92.1231C92.6191 409.74 93.3071 409.34 94.2351 409.34C95.5151 409.34 96.4911 410.14 96.4911 411.692V417.004ZM104.231 416.604C103.511 417.004 102.775 417.18 101.863 417.18C99.655 417.18 98.519 415.692 98.519 413.212C98.519 410.892 99.735 409.34 101.623 409.34C103.431 409.34 104.167 410.54 104.167 412.188V413.084H99.767C99.783 415.084 100.503 416.044 102.135 416.044C102.759 416.044 103.239 415.868 103.783 415.596L104.231 416.604ZM102.967 412.188C102.967 411.068 102.551 410.364 101.559 410.364C100.599 410.364 99.991 411.116 99.831 412.188H102.967ZM109.5 410.62C108.636 410.62 107.996 410.844 107.42 411.372V417.004H106.14V411.244L105.916 409.596L107.18 409.388L107.308 410.412H107.324C107.836 409.836 108.508 409.356 109.5 409.356V410.62ZM120.31 413.26C120.31 415.452 119.27 417.18 117.11 417.18C114.742 417.18 113.91 415.5 113.91 413.26C113.91 411.068 114.95 409.34 117.11 409.34C119.478 409.34 120.31 411.02 120.31 413.26ZM118.998 413.292C118.998 411.436 118.374 410.46 117.11 410.46C115.878 410.46 115.222 411.324 115.222 413.212C115.222 415.068 115.846 416.06 117.11 416.06C118.342 416.06 118.998 415.18 118.998 413.292ZM128.231 412.892C128.231 415.324 127.175 417.084 124.679 417.084C124.263 417.084 123.927 417.052 123.623 416.972V420.172L122.343 420.38V411.244L122.119 409.596L123.383 409.388L123.495 410.156H123.511C124.007 409.74 124.663 409.34 125.527 409.34C127.351 409.34 128.231 410.716 128.231 412.892ZM126.951 413.26C126.951 411.628 126.583 410.492 125.095 410.492C124.455 410.492 123.991 410.764 123.623 411.068V415.788C123.927 415.916 124.279 415.996 124.775 415.996C126.167 415.996 126.951 414.908 126.951 413.26ZM133.9 416.7C133.436 416.956 133.004 417.164 132.188 417.164C131.036 417.164 130.3 416.412 130.3 415.132V410.556H129.196V409.708L130.3 409.484V408.236L131.564 408.076V409.516H133.66V410.556H131.564V414.7C131.564 415.708 131.82 416.028 132.556 416.028C132.956 416.028 133.26 415.868 133.484 415.724L133.9 416.7ZM136.921 417.004H135.641V411.244L135.417 409.596L136.921 409.388V417.004ZM137.177 407.564C137.177 408.076 136.777 408.46 136.297 408.46C135.801 408.46 135.385 408.076 135.385 407.564C135.385 407.052 135.801 406.652 136.297 406.652C136.777 406.652 137.177 407.052 137.177 407.564ZM145.372 413.26C145.372 415.452 144.332 417.18 142.172 417.18C139.804 417.18 138.972 415.5 138.972 413.26C138.972 411.068 140.012 409.34 142.172 409.34C144.54 409.34 145.372 411.02 145.372 413.26ZM144.06 413.292C144.06 411.436 143.436 410.46 142.172 410.46C140.94 410.46 140.284 411.324 140.284 413.212C140.284 415.068 140.908 416.06 142.172 416.06C143.404 416.06 144.06 415.18 144.06 413.292ZM153.086 417.004H151.806V412.14C151.806 411.036 151.39 410.476 150.382 410.476C149.662 410.476 149.15 410.78 148.686 411.196V417.004H147.406V411.244L147.182 409.596L148.446 409.388L148.574 410.268H148.59C149.15 409.724 149.886 409.34 150.814 409.34C152.078 409.34 153.086 410.156 153.086 411.692V417.004ZM159.945 414.828C159.945 416.188 158.873 417.164 157.273 417.164C156.505 417.164 155.737 417.052 155.129 416.764L155.513 415.644C156.041 415.884 156.633 416.076 157.209 416.076C158.073 416.076 158.649 415.74 158.649 415.036C158.649 414.492 158.361 414.268 157.865 414.044L156.473 413.404C155.977 413.18 155.081 412.732 155.081 411.436C155.081 410.012 156.329 409.34 157.689 409.34C158.505 409.34 159.081 409.468 159.721 409.74L159.289 410.844C158.777 410.62 158.281 410.46 157.673 410.46C156.857 410.46 156.329 410.716 156.329 411.356C156.329 411.916 156.809 412.14 157.113 412.284L158.537 412.956C159.529 413.42 159.945 414.012 159.945 414.828Z" fill="#00157E"/>
<rect width="375" height="64" transform="translate(0 748)" fill="white"/>
<path d="M20 760.5H355C356.933 760.5 358.5 762.067 358.5 764V796C358.5 797.933 356.933 799.5 355 799.5H20C18.067 799.5 16.5 797.933 16.5 796V764C16.5 762.067 18.067 760.5 20 760.5Z" fill="#00157E"/>
<path d="M20 760.5H355C356.933 760.5 358.5 762.067 358.5 764V796C358.5 797.933 356.933 799.5 355 799.5H20C18.067 799.5 16.5 797.933 16.5 796V764C16.5 762.067 18.067 760.5 20 760.5Z" stroke="#00157E"/>
<path d="M170.733 784.504C169.837 784.968 168.925 785.176 167.709 785.176C165.357 785.176 163.549 783.592 163.549 780.392C163.549 776.984 165.565 775.192 168.157 775.192C169.229 775.192 169.885 775.352 170.701 775.704L170.189 776.872C169.581 776.6 169.005 776.392 168.141 776.392C166.461 776.392 164.925 777.688 164.925 780.056C164.925 782.696 165.901 783.992 168.237 783.992C169.005 783.992 169.709 783.688 170.285 783.432L170.733 784.504ZM177.949 781.256C177.949 783.448 176.909 785.176 174.749 785.176C172.381 785.176 171.549 783.496 171.549 781.256C171.549 779.064 172.589 777.336 174.749 777.336C177.117 777.336 177.949 779.016 177.949 781.256ZM176.637 781.288C176.637 779.432 176.013 778.456 174.749 778.456C173.517 778.456 172.861 779.32 172.861 781.208C172.861 783.064 173.485 784.056 174.749 784.056C175.981 784.056 176.637 783.176 176.637 781.288ZM185.663 785H184.383V780.136C184.383 779.032 183.967 778.472 182.959 778.472C182.239 778.472 181.727 778.776 181.263 779.192V785H179.983V779.24L179.759 777.592L181.023 777.384L181.151 778.264H181.167C181.727 777.72 182.463 777.336 183.391 777.336C184.655 777.336 185.663 778.152 185.663 779.688V785ZM193.402 785H192.138V778.552H189.594V785H188.33V778.552H187.226V777.704L188.33 777.48V776.888C188.33 775.272 189.354 774.088 191.178 774.088C192.01 774.088 192.538 774.344 192.922 774.552L192.458 775.576C192.266 775.448 191.786 775.176 191.178 775.176C190.01 775.176 189.594 775.832 189.594 776.744V777.512H193.402V785ZM199.328 778.616C198.464 778.616 197.824 778.84 197.248 779.368V785H195.968V779.24L195.743 777.592L197.008 777.384L197.136 778.408H197.152C197.664 777.832 198.336 777.352 199.328 777.352V778.616ZM210.953 785H209.689V780.136C209.689 779.032 209.273 778.472 208.249 778.472C207.529 778.472 206.921 778.824 206.521 779.224C206.521 779.224 206.569 779.496 206.569 779.784V785H205.289V780.136C205.289 779.032 204.873 778.472 203.865 778.472C203.145 778.472 202.633 778.76 202.169 779.192V785H200.889V779.24L200.665 777.592L201.929 777.384L202.057 778.264H202.073C202.633 777.72 203.369 777.336 204.297 777.336C205.161 777.336 205.881 777.72 206.265 778.408H206.281C206.873 777.816 207.641 777.336 208.697 777.336C209.977 777.336 210.953 778.152 210.953 779.688V785Z" fill="white"/>
</g>
<defs>
<filter id="filter0_d_663_85202" x="-32" y="-30" width="439" height="170" filterUnits="userSpaceOnUse" color-interpolation-filters="sRGB">
<feFlood flood-opacity="0" result="BackgroundImageFix"/>
<feColorMatrix in="SourceAlpha" type="matrix" values="0 0 0 0 0 0 0 0 0 0 0 0 0 0 0 0 0 0 127 0" result="hardAlpha"/>
<feOffset dy="2"/>
<feGaussianBlur stdDeviation="16"/>
<feColorMatrix type="matrix" values="0 0 0 0 0 0 0 0 0 0.0823529 0 0 0 0 0.494118 0 0 0 0.1 0"/>
<feBlend mode="normal" in2="BackgroundImageFix" result="effect1_dropShadow_663_85202"/>
<feBlend mode="normal" in="SourceGraphic" in2="effect1_dropShadow_663_85202" result="shape"/>
</filter>
<clipPath id="clip0_663_85202">
<rect width="375" height="812" fill="white"/>
</clipPath>
<clipPath id="clip1_663_85202">
<rect width="245.998" height="24" fill="white" transform="translate(16.001 276.001)"/>
</clipPath>
<clipPath id="clip2_663_85202">
<rect width="16" height="16" fill="white" transform="translate(281.999 280.001)"/>
</clipPath>
<clipPath id="clip3_663_85202">
<rect width="311.998" height="24" fill="white" transform="translate(16.001 348.004)"/>
</clipPath>
</defs>
</svg>
