<svg width="555" height="84" viewBox="0 0 555 84" fill="none" xmlns="http://www.w3.org/2000/svg">
<path d="M24.33 11.787C24.33 13.999 23.336 16.155 20.522 16.155C17.652 16.155 16.672 14.027 16.672 11.787C16.672 9.56098 17.694 7.41898 20.522 7.41898C23.392 7.41898 24.33 9.53298 24.33 11.787ZM23.098 11.787C23.098 9.72898 22.3 8.41298 20.522 8.41298C18.758 8.41298 17.932 9.78498 17.932 11.787C17.932 13.831 18.73 15.161 20.522 15.161C22.258 15.161 23.098 13.789 23.098 11.787ZM29.3921 15.735C28.9861 15.959 28.6081 16.141 27.8941 16.141C26.8861 16.141 26.2421 15.483 26.2421 14.363V10.359H25.2761V9.61698L26.2421 9.42098V8.32898L27.3481 8.18898V9.44898H29.1821V10.359H27.3481V13.985C27.3481 14.867 27.5721 15.147 28.2161 15.147C28.5661 15.147 28.8321 15.007 29.0281 14.881L29.3921 15.735ZM35.8156 16.001H34.7096V11.745C34.7096 10.793 34.3316 10.303 33.4356 10.303C32.7916 10.303 32.3576 10.583 31.9796 10.919V16.001H30.8596V8.06298L30.6636 6.62098L31.9796 6.43898V10.023H31.9936C32.4276 9.64498 33.0296 9.29498 33.8416 9.29498C34.9616 9.29498 35.8156 9.99498 35.8156 11.353V16.001ZM42.588 15.651C41.958 16.001 41.314 16.155 40.516 16.155C38.584 16.155 37.59 14.853 37.59 12.683C37.59 10.653 38.654 9.29498 40.306 9.29498C41.888 9.29498 42.532 10.345 42.532 11.787V12.571H38.682C38.696 14.321 39.326 15.161 40.754 15.161C41.3 15.161 41.72 15.007 42.196 14.769L42.588 15.651ZM41.482 11.787C41.482 10.807 41.118 10.191 40.25 10.191C39.41 10.191 38.878 10.849 38.738 11.787H41.482ZM47.1987 10.415C46.4427 10.415 45.8827 10.611 45.3787 11.073V16.001H44.2587V10.961L44.0627 9.51898L45.1687 9.33698L45.2807 10.233H45.2947C45.7427 9.72898 46.3307 9.30898 47.1987 9.30898V10.415ZM56.6568 12.403C56.6568 14.531 55.7328 16.071 53.5488 16.071C53.1848 16.071 52.8908 16.043 52.6248 15.973V18.773L51.5048 18.955V10.961L51.3088 9.51898L52.4148 9.33698L52.5128 10.009H52.5268C52.9608 9.64498 53.5348 9.29498 54.2908 9.29498C55.8868 9.29498 56.6568 10.499 56.6568 12.403ZM55.5368 12.725C55.5368 11.297 55.2148 10.303 53.9128 10.303C53.3528 10.303 52.9468 10.541 52.6248 10.807V14.937C52.8908 15.049 53.1988 15.119 53.6328 15.119C54.8508 15.119 55.5368 14.167 55.5368 12.725ZM61.3764 10.415C60.6204 10.415 60.0604 10.611 59.5564 11.073V16.001H58.4364V10.961L58.2404 9.51898L59.3464 9.33698L59.4584 10.233H59.4724C59.9204 9.72898 60.5084 9.30898 61.3764 9.30898V10.415ZM67.731 12.725C67.731 14.643 66.821 16.155 64.931 16.155C62.859 16.155 62.131 14.685 62.131 12.725C62.131 10.807 63.041 9.29498 64.931 9.29498C67.003 9.29498 67.731 10.765 67.731 12.725ZM66.583 12.753C66.583 11.129 66.037 10.275 64.931 10.275C63.853 10.275 63.279 11.031 63.279 12.683C63.279 14.307 63.825 15.175 64.931 15.175C66.009 15.175 66.583 14.405 66.583 12.753ZM74.4246 15.959L73.3466 16.113L73.2486 15.455H73.2346C72.8146 15.805 72.2406 16.155 71.4706 16.155C70.0286 16.155 69.0626 14.965 69.0626 13.019C69.0626 10.765 70.2246 9.37898 72.2126 9.37898C72.7446 9.37898 73.1226 9.47698 73.1226 9.47698V8.06298L72.9126 6.62098L74.2286 6.43898V14.517L74.4246 15.959ZM71.8626 15.175C72.4086 15.175 72.7866 14.951 73.1226 14.685V10.499C73.1226 10.499 72.7586 10.317 72.1146 10.317C70.8406 10.317 70.2106 11.395 70.2106 12.669C70.2106 14.251 70.6306 15.175 71.8626 15.175ZM81.6356 15.931L80.5296 16.113L80.4176 15.357H80.4036C79.9136 15.819 79.2696 16.155 78.4576 16.155C77.3516 16.155 76.4696 15.441 76.4696 14.097V10.961L76.2736 9.51898L77.5896 9.33698V13.705C77.5896 14.671 77.9536 15.175 78.8356 15.175C79.4656 15.175 79.9136 14.909 80.3196 14.531V10.961L80.1236 9.51898L81.4396 9.33698V14.489L81.6356 15.931ZM87.9027 9.57498L87.5527 10.583C87.1887 10.443 86.7827 10.317 86.3207 10.317C85.0887 10.317 84.3467 11.241 84.3467 12.627C84.3467 14.377 85.0327 15.175 86.2927 15.175C86.7407 15.175 87.1047 15.021 87.4687 14.867L87.8467 15.777C87.3007 16.029 86.6987 16.155 86.0687 16.155C84.1927 16.155 83.2267 14.811 83.2267 12.809C83.2267 10.401 84.7107 9.29498 86.3767 9.29498C86.9507 9.29498 87.4407 9.39298 87.9027 9.57498ZM92.8569 15.735C92.4509 15.959 92.0729 16.141 91.3589 16.141C90.3509 16.141 89.7069 15.483 89.7069 14.363V10.359H88.7409V9.61698L89.7069 9.42098V8.32898L90.8129 8.18898V9.44898H92.6469V10.359H90.8129V13.985C90.8129 14.867 91.0369 15.147 91.6809 15.147C92.0309 15.147 92.2969 15.007 92.4929 14.881L92.8569 15.735ZM98.1464 14.097C98.1464 15.287 97.2084 16.141 95.8084 16.141C95.1364 16.141 94.4644 16.043 93.9324 15.791L94.2684 14.811C94.7304 15.021 95.2484 15.189 95.7524 15.189C96.5084 15.189 97.0124 14.895 97.0124 14.279C97.0124 13.803 96.7604 13.607 96.3264 13.411L95.1084 12.851C94.6744 12.655 93.8904 12.263 93.8904 11.129C93.8904 9.88298 94.9824 9.29498 96.1724 9.29498C96.8864 9.29498 97.3904 9.40698 97.9504 9.64498L97.5724 10.611C97.1244 10.415 96.6904 10.275 96.1584 10.275C95.4444 10.275 94.9824 10.499 94.9824 11.059C94.9824 11.549 95.4024 11.745 95.6684 11.871L96.9144 12.459C97.7824 12.865 98.1464 13.383 98.1464 14.097Z" fill="#00157E" fill-opacity="0.7"/>
<rect y="28.001" width="554.667" height="56" rx="8" fill="white"/>
<rect x="0.5" y="28.501" width="553.667" height="55" rx="7.5" stroke="#00157E" stroke-opacity="0.2"/>
<g clip-path="url(#clip0_441_7229)">
<path d="M37 48.001H19C17.8954 48.001 17 48.8964 17 50.001V62.001C17 63.1055 17.8954 64.001 19 64.001H37C38.1046 64.001 39 63.1055 39 62.001V50.001C39 48.8964 38.1046 48.001 37 48.001Z" stroke="#00157E" stroke-width="2" stroke-linecap="round" stroke-linejoin="round"/>
<path d="M17 54.001H39" stroke="#00157E" stroke-width="2" stroke-linecap="round" stroke-linejoin="round"/>
</g>
<path d="M62.832 43.573L60.158 52.001H58.912L56.28 43.713L57.456 43.377L59.528 50.433H59.542L61.6 43.573H62.832ZM65.4474 52.001H64.2714V43.573H65.4474V52.001ZM72.3354 49.635C72.3354 51.105 71.3134 52.155 69.6194 52.155C68.7514 52.155 67.9814 51.973 67.3234 51.693L67.6874 50.671C68.2334 50.923 68.8774 51.133 69.5354 51.133C70.5574 51.133 71.2154 50.741 71.2154 49.817C71.2154 49.131 70.7114 48.795 70.0394 48.473L68.7234 47.843C67.8414 47.423 67.2394 46.877 67.2394 45.687C67.2394 44.245 68.4994 43.419 69.9554 43.419C70.7394 43.419 71.2434 43.545 71.9714 43.811L71.5794 44.805C71.1314 44.595 70.6414 44.399 70.0254 44.399C69.1574 44.399 68.3734 44.749 68.3734 45.645C68.3734 46.247 68.7374 46.541 69.2974 46.807L70.6414 47.465C71.7054 47.983 72.3354 48.557 72.3354 49.635ZM80.0388 51.861L78.8908 52.183L77.9948 49.271H75.2508L74.3968 52.001H73.1648L76.0908 43.573H77.2948L80.0388 51.861ZM77.7428 48.431L76.6508 44.791H76.6368L75.5028 48.431H77.7428ZM90.5424 43.867L90.1364 44.917C89.5764 44.679 89.0024 44.469 88.2464 44.469C86.5664 44.469 85.1384 45.589 85.1384 47.661C85.1384 49.943 86.0204 51.091 88.1344 51.091C88.6944 51.091 89.3104 50.937 89.3104 50.937V47.871H90.4724V51.721C90.4724 51.721 89.4364 52.155 87.6024 52.155C85.4744 52.155 83.9064 50.671 83.9064 47.941C83.9064 45.001 85.8804 43.419 88.2744 43.419C89.1844 43.419 89.8424 43.559 90.5424 43.867ZM97.6275 48.725C97.6275 50.643 96.7175 52.155 94.8275 52.155C92.7555 52.155 92.0275 50.685 92.0275 48.725C92.0275 46.807 92.9375 45.295 94.8275 45.295C96.8995 45.295 97.6275 46.765 97.6275 48.725ZM96.4795 48.753C96.4795 47.129 95.9335 46.275 94.8275 46.275C93.7495 46.275 93.1755 47.031 93.1755 48.683C93.1755 50.307 93.7215 51.175 94.8275 51.175C95.9055 51.175 96.4795 50.405 96.4795 48.753ZM100.499 52.001H99.3791V44.063L99.1831 42.621L100.499 42.439V52.001ZM107.63 51.959L106.552 52.113L106.454 51.455H106.44C106.02 51.805 105.446 52.155 104.676 52.155C103.234 52.155 102.268 50.965 102.268 49.019C102.268 46.765 103.43 45.379 105.418 45.379C105.95 45.379 106.328 45.477 106.328 45.477V44.063L106.118 42.621L107.434 42.439V50.517L107.63 51.959ZM105.068 51.175C105.614 51.175 105.992 50.951 106.328 50.685V46.499C106.328 46.499 105.964 46.317 105.32 46.317C104.046 46.317 103.416 47.395 103.416 48.669C103.416 50.251 103.836 51.175 105.068 51.175Z" fill="#00157E"/>
<path d="M60.644 66.941L59.684 67.097L59.6 66.437H59.588C59.18 66.821 58.736 67.145 58.064 67.145C57.128 67.145 56.576 66.581 56.576 65.693C56.576 64.685 57.368 64.193 58.508 64.073L59.516 63.965V63.461C59.516 62.681 59.276 62.129 58.352 62.129C57.884 62.129 57.536 62.273 57.188 62.453L56.84 61.745C57.344 61.445 57.86 61.253 58.58 61.253C59.708 61.253 60.464 61.913 60.464 63.029V65.705L60.644 66.941ZM59.516 65.837V64.613L58.64 64.733C57.92 64.829 57.524 65.057 57.524 65.573C57.524 66.041 57.812 66.353 58.292 66.353C58.856 66.353 59.204 66.113 59.516 65.837ZM66.3606 61.385L64.3326 66.989L63.3846 67.025L61.5366 61.469L62.4966 61.229L63.9006 65.753H63.9126L65.4006 61.385H66.3606ZM71.1088 66.941L70.1488 67.097L70.0648 66.437H70.0528C69.6448 66.821 69.2008 67.145 68.5288 67.145C67.5928 67.145 67.0408 66.581 67.0408 65.693C67.0408 64.685 67.8328 64.193 68.9728 64.073L69.9808 63.965V63.461C69.9808 62.681 69.7408 62.129 68.8168 62.129C68.3488 62.129 68.0008 62.273 67.6528 62.453L67.3048 61.745C67.8088 61.445 68.3248 61.253 69.0448 61.253C70.1728 61.253 70.9288 61.913 70.9288 63.029V65.705L71.1088 66.941ZM69.9808 65.837V64.613L69.1048 64.733C68.3848 64.829 67.9888 65.057 67.9888 65.573C67.9888 66.041 68.2768 66.353 68.7568 66.353C69.3208 66.353 69.6688 66.113 69.9808 65.837ZM73.8463 67.001H72.8863V62.681L72.7183 61.445L73.8463 61.289V67.001ZM74.0383 59.921C74.0383 60.305 73.7383 60.593 73.3783 60.593C73.0063 60.593 72.6943 60.305 72.6943 59.921C72.6943 59.537 73.0063 59.237 73.3783 59.237C73.7383 59.237 74.0383 59.537 74.0383 59.921ZM76.7046 67.001H75.7446V60.197L75.5766 58.961L76.7046 58.805V67.001ZM82.2885 66.941L81.3285 67.097L81.2445 66.437H81.2325C80.8245 66.821 80.3805 67.145 79.7085 67.145C78.7725 67.145 78.2205 66.581 78.2205 65.693C78.2205 64.685 79.0125 64.193 80.1525 64.073L81.1605 63.965V63.461C81.1605 62.681 80.9205 62.129 79.9965 62.129C79.5285 62.129 79.1805 62.273 78.8325 62.453L78.4845 61.745C78.9885 61.445 79.5045 61.253 80.2245 61.253C81.3525 61.253 82.1085 61.913 82.1085 63.029V65.705L82.2885 66.941ZM81.1605 65.837V64.613L80.2845 64.733C79.5645 64.829 79.1685 65.057 79.1685 65.573C79.1685 66.041 79.4565 66.353 79.9365 66.353C80.5005 66.353 80.8485 66.113 81.1605 65.837ZM88.482 63.857C88.482 65.729 87.51 67.121 85.734 67.121C85.11 67.121 84.426 67.013 84.018 66.857V60.197L83.85 58.961L84.978 58.805V61.817H84.99C85.35 61.517 85.83 61.253 86.466 61.253C87.786 61.253 88.482 62.201 88.482 63.857ZM87.51 64.205C87.51 62.969 87.222 62.129 86.13 62.129C85.626 62.129 85.266 62.333 84.978 62.585V66.197C85.218 66.257 85.458 66.293 85.818 66.293C86.934 66.293 87.51 65.345 87.51 64.205ZM90.9546 67.001H89.9946V60.197L89.8266 58.961L90.9546 58.805V67.001ZM96.7545 66.701C96.2145 67.001 95.6625 67.133 94.9785 67.133C93.3225 67.133 92.4705 66.017 92.4705 64.157C92.4705 62.417 93.3825 61.253 94.7985 61.253C96.1545 61.253 96.7065 62.153 96.7065 63.389V64.061H93.4065C93.4185 65.561 93.9585 66.281 95.1825 66.281C95.6505 66.281 96.0105 66.149 96.4185 65.945L96.7545 66.701ZM95.8065 63.389C95.8065 62.549 95.4945 62.021 94.7505 62.021C94.0305 62.021 93.5745 62.585 93.4545 63.389H95.8065ZM106.178 64.073C106.178 66.137 105.014 67.157 103.454 67.157C101.786 67.157 100.718 66.317 100.718 64.049V59.777H101.75V64.097C101.75 65.525 102.302 66.197 103.418 66.197C104.534 66.197 105.218 65.513 105.218 64.121V59.777H106.178V64.073ZM112.06 64.973C112.06 66.233 111.184 67.133 109.732 67.133C108.988 67.133 108.328 66.977 107.764 66.737L108.076 65.861C108.544 66.077 109.096 66.257 109.66 66.257C110.536 66.257 111.1 65.921 111.1 65.129C111.1 64.541 110.668 64.253 110.092 63.977L108.964 63.437C108.208 63.077 107.692 62.609 107.692 61.589C107.692 60.353 108.772 59.645 110.02 59.645C110.692 59.645 111.124 59.753 111.748 59.981L111.412 60.833C111.028 60.653 110.608 60.485 110.08 60.485C109.336 60.485 108.664 60.785 108.664 61.553C108.664 62.069 108.976 62.321 109.456 62.549L110.608 63.113C111.52 63.557 112.06 64.049 112.06 64.973ZM119.215 62.933C119.215 65.573 117.631 67.001 115.063 67.001H113.551V59.825C113.551 59.825 114.547 59.705 115.615 59.705C117.847 59.705 119.215 60.869 119.215 62.933ZM118.171 63.077C118.171 61.373 117.019 60.557 115.447 60.557C114.943 60.557 114.559 60.581 114.559 60.581V66.101H115.255C116.971 66.101 118.171 65.081 118.171 63.077ZM128.329 66.245H126.877V68.693L125.953 68.849V66.245H122.653V65.465L125.989 60.881H126.877V65.429H128.329V66.245ZM125.953 65.429V62.177H125.941L123.637 65.429H125.953ZM130.521 60.461C130.521 61.337 130.161 62.009 129.429 62.441L129.153 62.081C129.513 61.817 129.705 61.481 129.765 61.049C129.429 61.001 129.141 60.713 129.141 60.365C129.141 59.969 129.453 59.669 129.837 59.669C130.221 59.669 130.521 59.981 130.521 60.461ZM135.855 61.697L132.423 68.981L131.619 68.573L134.811 61.757H131.547V60.881H135.855V61.697ZM141.595 63.941C141.595 65.537 140.971 67.133 139.159 67.133C137.335 67.133 136.711 65.537 136.711 63.941C136.711 62.345 137.335 60.749 139.159 60.749C140.971 60.749 141.595 62.345 141.595 63.941ZM140.611 63.941C140.611 62.597 140.167 61.589 139.159 61.589C138.139 61.589 137.695 62.597 137.695 63.941C137.695 65.285 138.139 66.293 139.159 66.293C140.167 66.293 140.611 65.285 140.611 63.941ZM147.77 63.941C147.77 65.537 147.146 67.133 145.334 67.133C143.51 67.133 142.886 65.537 142.886 63.941C142.886 62.345 143.51 60.749 145.334 60.749C147.146 60.749 147.77 62.345 147.77 63.941ZM146.786 63.941C146.786 62.597 146.342 61.589 145.334 61.589C144.314 61.589 143.87 62.597 143.87 63.941C143.87 65.285 144.314 66.293 145.334 66.293C146.342 66.293 146.786 65.285 146.786 63.941ZM150.478 66.389C150.478 66.773 150.166 67.085 149.794 67.085C149.41 67.085 149.098 66.773 149.098 66.389C149.098 66.017 149.41 65.705 149.794 65.705C150.166 65.705 150.478 66.017 150.478 66.389ZM156.688 63.941C156.688 65.537 156.064 67.133 154.252 67.133C152.428 67.133 151.804 65.537 151.804 63.941C151.804 62.345 152.428 60.749 154.252 60.749C156.064 60.749 156.688 62.345 156.688 63.941ZM155.704 63.941C155.704 62.597 155.26 61.589 154.252 61.589C153.232 61.589 152.788 62.597 152.788 63.941C152.788 65.285 153.232 66.293 154.252 66.293C155.26 66.293 155.704 65.285 155.704 63.941ZM162.864 63.941C162.864 65.537 162.24 67.133 160.428 67.133C158.604 67.133 157.98 65.537 157.98 63.941C157.98 62.345 158.604 60.749 160.428 60.749C162.24 60.749 162.864 62.345 162.864 63.941ZM161.88 63.941C161.88 62.597 161.436 61.589 160.428 61.589C159.408 61.589 158.964 62.597 158.964 63.941C158.964 65.285 159.408 66.293 160.428 66.293C161.436 66.293 161.88 65.285 161.88 63.941Z" fill="#00157E" fill-opacity="0.7"/>
<path d="M431.431 51.001H427.663V43.777H428.671V50.149H431.431V51.001ZM433.462 51.001H432.502V46.681L432.334 45.445L433.462 45.289V51.001ZM433.654 43.921C433.654 44.305 433.354 44.593 432.994 44.593C432.622 44.593 432.31 44.305 432.31 43.921C432.31 43.537 432.622 43.237 432.994 43.237C433.354 43.237 433.654 43.537 433.654 43.921ZM442.933 51.001H441.985V47.353C441.985 46.525 441.673 46.105 440.905 46.105C440.365 46.105 439.909 46.369 439.609 46.669C439.609 46.669 439.645 46.873 439.645 47.089V51.001H438.685V47.353C438.685 46.525 438.373 46.105 437.617 46.105C437.077 46.105 436.693 46.321 436.345 46.645V51.001H435.385V46.681L435.217 45.445L436.165 45.289L436.261 45.949H436.273C436.693 45.541 437.245 45.253 437.941 45.253C438.589 45.253 439.129 45.541 439.417 46.057H439.429C439.873 45.613 440.449 45.253 441.241 45.253C442.201 45.253 442.933 45.865 442.933 47.017V51.001ZM445.826 51.001H444.866V46.681L444.698 45.445L445.826 45.289V51.001ZM446.018 43.921C446.018 44.305 445.718 44.593 445.358 44.593C444.986 44.593 444.674 44.305 444.674 43.921C444.674 43.537 444.986 43.237 445.358 43.237C445.718 43.237 446.018 43.537 446.018 43.921ZM450.556 50.773C450.208 50.965 449.884 51.121 449.272 51.121C448.408 51.121 447.856 50.557 447.856 49.597V46.165H447.028V45.529L447.856 45.361V44.425L448.804 44.305V45.385H450.376V46.165H448.804V49.273C448.804 50.029 448.996 50.269 449.548 50.269C449.848 50.269 450.076 50.149 450.244 50.041L450.556 50.773Z" fill="#00157E" fill-opacity="0.7"/>
<path d="M466.099 48.073C466.099 50.137 464.935 51.157 463.375 51.157C461.707 51.157 460.639 50.317 460.639 48.049V43.777H461.671V48.097C461.671 49.525 462.223 50.197 463.339 50.197C464.455 50.197 465.139 49.513 465.139 48.121V43.777H466.099V48.073ZM471.981 48.973C471.981 50.233 471.105 51.133 469.653 51.133C468.909 51.133 468.249 50.977 467.685 50.737L467.997 49.861C468.465 50.077 469.017 50.257 469.581 50.257C470.457 50.257 471.021 49.921 471.021 49.129C471.021 48.541 470.589 48.253 470.013 47.977L468.885 47.437C468.129 47.077 467.613 46.609 467.613 45.589C467.613 44.353 468.693 43.645 469.941 43.645C470.613 43.645 471.045 43.753 471.669 43.981L471.333 44.833C470.949 44.653 470.529 44.485 470.001 44.485C469.257 44.485 468.585 44.785 468.585 45.553C468.585 46.069 468.897 46.321 469.377 46.549L470.529 47.113C471.441 47.557 471.981 48.049 471.981 48.973ZM479.135 46.933C479.135 49.573 477.551 51.001 474.983 51.001H473.471V43.825C473.471 43.825 474.467 43.705 475.535 43.705C477.767 43.705 479.135 44.869 479.135 46.933ZM478.091 47.077C478.091 45.373 476.939 44.557 475.367 44.557C474.863 44.557 474.479 44.581 474.479 44.581V50.101H475.175C476.891 50.101 478.091 49.081 478.091 47.077Z" fill="#00157E" fill-opacity="0.7"/>
<path d="M495.088 50.559C495.088 53.065 492.946 54.045 490.44 54.339L490.174 52.827C491.35 52.645 493.268 52.239 493.268 50.741C493.268 49.803 492.582 49.341 491 49.341H490.174L490.44 44.861H494.836V46.457H491.91L491.812 48.109C491.812 48.109 492.078 48.095 492.358 48.095C494.066 48.095 495.088 48.935 495.088 50.559ZM498.359 44.595C498.359 46.023 497.785 46.821 496.749 47.563L496.245 47.017C496.735 46.597 497.057 46.149 497.169 45.533C496.651 45.477 496.231 45.015 496.231 44.483C496.231 43.909 496.707 43.433 497.281 43.433C497.883 43.433 498.359 43.881 498.359 44.595ZM505.641 48.431C505.641 50.391 504.787 52.169 502.631 52.169C500.475 52.169 499.621 50.391 499.621 48.431C499.621 46.471 500.475 44.693 502.631 44.693C504.787 44.693 505.641 46.471 505.641 48.431ZM503.849 48.431C503.849 47.087 503.471 46.275 502.631 46.275C501.805 46.275 501.413 47.087 501.413 48.431C501.413 49.775 501.805 50.587 502.631 50.587C503.471 50.587 503.849 49.775 503.849 48.431ZM512.887 48.431C512.887 50.391 512.033 52.169 509.877 52.169C507.721 52.169 506.867 50.391 506.867 48.431C506.867 46.471 507.721 44.693 509.877 44.693C512.033 44.693 512.887 46.471 512.887 48.431ZM511.095 48.431C511.095 47.087 510.717 46.275 509.877 46.275C509.051 46.275 508.659 47.087 508.659 48.431C508.659 49.775 509.051 50.587 509.877 50.587C510.717 50.587 511.095 49.775 511.095 48.431ZM520.133 48.431C520.133 50.391 519.279 52.169 517.123 52.169C514.967 52.169 514.113 50.391 514.113 48.431C514.113 46.471 514.967 44.693 517.123 44.693C519.279 44.693 520.133 46.471 520.133 48.431ZM518.341 48.431C518.341 47.087 517.963 46.275 517.123 46.275C516.297 46.275 515.905 47.087 515.905 48.431C515.905 49.775 516.297 50.587 517.123 50.587C517.963 50.587 518.341 49.775 518.341 48.431ZM523.529 51.049C523.529 51.637 523.053 52.113 522.465 52.113C521.877 52.113 521.401 51.637 521.401 51.049C521.401 50.475 521.877 49.999 522.465 49.999C523.053 49.999 523.529 50.475 523.529 51.049ZM530.811 48.431C530.811 50.391 529.957 52.169 527.801 52.169C525.645 52.169 524.791 50.391 524.791 48.431C524.791 46.471 525.645 44.693 527.801 44.693C529.957 44.693 530.811 46.471 530.811 48.431ZM529.019 48.431C529.019 47.087 528.641 46.275 527.801 46.275C526.975 46.275 526.583 47.087 526.583 48.431C526.583 49.775 526.975 50.587 527.801 50.587C528.641 50.587 529.019 49.775 529.019 48.431ZM538.057 48.431C538.057 50.391 537.203 52.169 535.047 52.169C532.891 52.169 532.037 50.391 532.037 48.431C532.037 46.471 532.891 44.693 535.047 44.693C537.203 44.693 538.057 46.471 538.057 48.431ZM536.265 48.431C536.265 47.087 535.887 46.275 535.047 46.275C534.221 46.275 533.829 47.087 533.829 48.431C533.829 49.775 534.221 50.587 535.047 50.587C535.887 50.587 536.265 49.775 536.265 48.431Z" fill="#00157E"/>
<defs>
<clipPath id="clip0_441_7229">
<rect width="24" height="24" fill="white" transform="translate(16 44.001)"/>
</clipPath>
</defs>
</svg>
