<svg width="420" height="116" viewBox="0 0 420 116" fill="none" xmlns="http://www.w3.org/2000/svg">
<path d="M7.77 11.254C7.77 14.334 5.922 16 2.926 16H1.162V7.628C1.162 7.628 2.324 7.488 3.57 7.488C6.174 7.488 7.77 8.846 7.77 11.254ZM6.552 11.422C6.552 9.434 5.208 8.482 3.374 8.482C2.786 8.482 2.338 8.51 2.338 8.51V14.95H3.15C5.152 14.95 6.552 13.76 6.552 11.422ZM14.1055 15.65C13.4755 16 12.8315 16.154 12.0335 16.154C10.1015 16.154 9.10755 14.852 9.10755 12.682C9.10755 10.652 10.1715 9.294 11.8235 9.294C13.4055 9.294 14.0495 10.344 14.0495 11.786V12.57H10.1995C10.2135 14.32 10.8435 15.16 12.2715 15.16C12.8175 15.16 13.2375 15.006 13.7135 14.768L14.1055 15.65ZM12.9995 11.786C12.9995 10.806 12.6355 10.19 11.7675 10.19C10.9275 10.19 10.3955 10.848 10.2555 11.786H12.9995ZM20.9563 12.332C20.9563 14.516 19.8223 16.14 17.7503 16.14C17.0223 16.14 16.2243 16.014 15.7483 15.832V8.062L15.5523 6.62L16.8683 6.438V9.952H16.8823C17.3023 9.602 17.8623 9.294 18.6043 9.294C20.1443 9.294 20.9563 10.4 20.9563 12.332ZM19.8223 12.738C19.8223 11.296 19.4863 10.316 18.2123 10.316C17.6243 10.316 17.2043 10.554 16.8683 10.848V15.062C17.1483 15.132 17.4283 15.174 17.8483 15.174C19.1503 15.174 19.8223 14.068 19.8223 12.738ZM23.8969 16H22.7769V10.96L22.5809 9.518L23.8969 9.336V16ZM24.1209 7.74C24.1209 8.188 23.7709 8.524 23.3509 8.524C22.9169 8.524 22.5529 8.188 22.5529 7.74C22.5529 7.292 22.9169 6.942 23.3509 6.942C23.7709 6.942 24.1209 7.292 24.1209 7.74ZM29.4155 15.734C29.0095 15.958 28.6315 16.14 27.9175 16.14C26.9095 16.14 26.2655 15.482 26.2655 14.362V10.358H25.2995V9.616L26.2655 9.42V8.328L27.3715 8.188V9.448H29.2055V10.358H27.3715V13.984C27.3715 14.866 27.5955 15.146 28.2395 15.146C28.5895 15.146 28.8555 15.006 29.0515 14.88L29.4155 15.734ZM38.1485 15.93L37.0285 16.112L36.9305 15.342H36.9165C36.4405 15.79 35.9225 16.168 35.1385 16.168C34.0465 16.168 33.4025 15.51 33.4025 14.474C33.4025 13.298 34.3265 12.724 35.6565 12.584L36.8325 12.458V11.87C36.8325 10.96 36.5525 10.316 35.4745 10.316C34.9285 10.316 34.5225 10.484 34.1165 10.694L33.7105 9.868C34.2985 9.518 34.9005 9.294 35.7405 9.294C37.0565 9.294 37.9385 10.064 37.9385 11.366V14.488L38.1485 15.93ZM36.8325 14.642V13.214L35.8105 13.354C34.9705 13.466 34.5085 13.732 34.5085 14.334C34.5085 14.88 34.8445 15.244 35.4045 15.244C36.0625 15.244 36.4685 14.964 36.8325 14.642ZM44.4222 9.574L44.0722 10.582C43.7082 10.442 43.3022 10.316 42.8402 10.316C41.6082 10.316 40.8662 11.24 40.8662 12.626C40.8662 14.376 41.5522 15.174 42.8122 15.174C43.2602 15.174 43.6242 15.02 43.9882 14.866L44.3662 15.776C43.8202 16.028 43.2182 16.154 42.5882 16.154C40.7122 16.154 39.7462 14.81 39.7462 12.808C39.7462 10.4 41.2302 9.294 42.8962 9.294C43.4702 9.294 43.9602 9.392 44.4222 9.574ZM49.9457 9.574L49.5957 10.582C49.2317 10.442 48.8257 10.316 48.3637 10.316C47.1317 10.316 46.3897 11.24 46.3897 12.626C46.3897 14.376 47.0757 15.174 48.3357 15.174C48.7837 15.174 49.1477 15.02 49.5117 14.866L49.8897 15.776C49.3437 16.028 48.7417 16.154 48.1117 16.154C46.2357 16.154 45.2697 14.81 45.2697 12.808C45.2697 10.4 46.7537 9.294 48.4197 9.294C48.9937 9.294 49.4837 9.392 49.9457 9.574ZM56.3931 12.724C56.3931 14.642 55.4831 16.154 53.5931 16.154C51.5211 16.154 50.7931 14.684 50.7931 12.724C50.7931 10.806 51.7031 9.294 53.5931 9.294C55.6651 9.294 56.3931 10.764 56.3931 12.724ZM55.2451 12.752C55.2451 11.128 54.6991 10.274 53.5931 10.274C52.5151 10.274 51.9411 11.03 51.9411 12.682C51.9411 14.306 52.4871 15.174 53.5931 15.174C54.6711 15.174 55.2451 14.404 55.2451 12.752ZM63.3387 15.93L62.2327 16.112L62.1207 15.356H62.1067C61.6167 15.818 60.9727 16.154 60.1607 16.154C59.0547 16.154 58.1727 15.44 58.1727 14.096V10.96L57.9767 9.518L59.2927 9.336V13.704C59.2927 14.67 59.6567 15.174 60.5387 15.174C61.1687 15.174 61.6167 14.908 62.0227 14.53V10.96L61.8267 9.518L63.1427 9.336V14.488L63.3387 15.93ZM70.3478 16H69.2278V11.744C69.2278 10.778 68.8638 10.288 67.9818 10.288C67.3518 10.288 66.9038 10.554 66.4978 10.918V16H65.3778V10.96L65.1818 9.518L66.2878 9.336L66.3998 10.106H66.4138C66.9038 9.63 67.5478 9.294 68.3598 9.294C69.4658 9.294 70.3478 10.008 70.3478 11.352V16ZM75.8315 15.734C75.4255 15.958 75.0475 16.14 74.3335 16.14C73.3255 16.14 72.6815 15.482 72.6815 14.362V10.358H71.7155V9.616L72.6815 9.42V8.328L73.7875 8.188V9.448H75.6215V10.358H73.7875V13.984C73.7875 14.866 74.0115 15.146 74.6555 15.146C75.0055 15.146 75.2715 15.006 75.4675 14.88L75.8315 15.734Z" fill="#00157E" fill-opacity="0.7"/>
<path d="M8 28.5H412C416.142 28.5 419.5 31.8579 419.5 36V88C419.5 92.1421 416.142 95.5 412 95.5H8C3.85786 95.5 0.5 92.1421 0.5 88V36C0.5 31.8579 3.85786 28.5 8 28.5Z" fill="white"/>
<path d="M8 28.5H412C416.142 28.5 419.5 31.8579 419.5 36V88C419.5 92.1421 416.142 95.5 412 95.5H8C3.85786 95.5 0.5 92.1421 0.5 88V36C0.5 31.8579 3.85786 28.5 8 28.5Z" stroke="#FF0095"/>
<path d="M19 53L28 46L37 53V64C37 64.5304 36.7893 65.0391 36.4142 65.4142C36.0391 65.7893 35.5304 66 35 66H21C20.4696 66 19.9609 65.7893 19.5858 65.4142C19.2107 65.0391 19 64.5304 19 64V53Z" stroke="#00157E" stroke-width="2" stroke-linecap="round" stroke-linejoin="round"/>
<path d="M25 66V56H31V66" stroke="#00157E" stroke-width="2" stroke-linecap="round" stroke-linejoin="round"/>
<path d="M63.616 52H61.74V48.5H58.856V52H56.966V43.572H58.856V46.96H61.74V43.572H63.616V52ZM71.0399 48.668C71.0399 50.656 70.0039 52.154 68.0579 52.154C65.9579 52.154 65.0759 50.67 65.0759 48.668C65.0759 46.68 66.1119 45.224 68.0579 45.224C70.1579 45.224 71.0399 46.666 71.0399 48.668ZM69.2759 48.682C69.2759 47.324 68.8279 46.778 68.0579 46.778C67.2879 46.778 66.8399 47.296 66.8399 48.654C66.8399 49.998 67.2879 50.6 68.0579 50.6C68.8279 50.6 69.2759 50.026 69.2759 48.682ZM78.2373 51.902L76.5293 52.126L76.4313 51.412H76.4173C76.0253 51.79 75.3673 52.168 74.4853 52.168C73.3513 52.168 72.4273 51.496 72.4273 50.012V47.1L72.2033 45.462L74.2053 45.238V49.578C74.2053 50.292 74.4993 50.614 75.1153 50.614C75.5773 50.614 75.9693 50.404 76.2353 50.138V47.1L76.0113 45.462L78.0133 45.238V50.264L78.2373 51.902ZM84.0104 49.872C84.0104 51.146 82.9884 52.154 81.4484 52.154C80.6504 52.154 79.9364 52.028 79.3344 51.748L79.7964 50.292C80.3004 50.502 80.7904 50.712 81.3504 50.712C81.9524 50.712 82.2464 50.502 82.2464 50.152C82.2464 49.83 82.0924 49.704 81.7284 49.55L80.6924 49.116C80.0764 48.864 79.4044 48.402 79.4044 47.31C79.4044 45.938 80.5664 45.21 81.9524 45.21C82.7364 45.21 83.2684 45.336 83.8984 45.602L83.3524 47.03C82.9044 46.848 82.4704 46.666 81.9664 46.666C81.4204 46.666 81.1124 46.82 81.1124 47.184C81.1124 47.534 81.3924 47.66 81.6444 47.758L82.7224 48.192C83.5624 48.528 84.0104 49.06 84.0104 49.872ZM90.4692 51.608C89.7272 51.986 89.1112 52.168 88.2152 52.168C86.0032 52.168 85.0232 50.824 85.0232 48.584C85.0232 46.582 86.2132 45.224 87.9772 45.224C89.8252 45.224 90.4272 46.498 90.4272 48.094V48.878H86.7592C86.8152 50.054 87.3752 50.614 88.4392 50.614C89.0692 50.614 89.4192 50.46 89.9232 50.25L90.4692 51.608ZM88.8732 47.8C88.8732 47.114 88.5792 46.652 87.9212 46.652C87.2212 46.652 86.8712 47.184 86.7872 47.8H88.8732ZM97.3443 52H95.5663V47.8C95.5663 47.142 95.2863 46.778 94.6283 46.778C94.0823 46.778 93.6903 47.1 93.5503 47.226V52H91.7723V44.286L91.5483 42.648L93.5503 42.424V45.826H93.5643C93.7323 45.672 94.3343 45.21 95.3003 45.21C96.4763 45.21 97.3443 45.882 97.3443 47.366V52ZM104.673 48.668C104.673 50.656 103.637 52.154 101.691 52.154C99.5908 52.154 98.7088 50.67 98.7088 48.668C98.7088 46.68 99.7448 45.224 101.691 45.224C103.791 45.224 104.673 46.666 104.673 48.668ZM102.909 48.682C102.909 47.324 102.461 46.778 101.691 46.778C100.921 46.778 100.473 47.296 100.473 48.654C100.473 49.998 100.921 50.6 101.691 50.6C102.461 50.6 102.909 50.026 102.909 48.682ZM107.81 52H106.032V44.272L105.808 42.648L107.81 42.424V52ZM115.048 51.916L113.354 52.126L113.256 51.44H113.242C113.074 51.58 112.528 52.168 111.632 52.168C109.98 52.168 109.154 50.768 109.154 48.92C109.154 46.54 110.512 45.322 112.43 45.322C112.78 45.322 113.046 45.378 113.046 45.378V44.286L112.822 42.648L114.824 42.424V50.278L115.048 51.916ZM112.178 50.586C112.598 50.586 112.92 50.404 113.046 50.292V46.904C113.046 46.904 112.808 46.792 112.374 46.792C111.52 46.792 110.946 47.464 110.946 48.654C110.946 49.984 111.296 50.586 112.178 50.586Z" fill="#00157E"/>
<path d="M62.958 67.566C62.174 67.972 61.376 68.154 60.312 68.154C58.254 68.154 56.672 66.768 56.672 63.968C56.672 60.986 58.436 59.418 60.704 59.418C61.642 59.418 62.216 59.558 62.93 59.866L62.482 60.888C61.95 60.65 61.446 60.468 60.69 60.468C59.22 60.468 57.876 61.602 57.876 63.674C57.876 65.984 58.73 67.118 60.774 67.118C61.446 67.118 62.062 66.852 62.566 66.628L62.958 67.566ZM70.5678 68H69.3918V64.15H65.5978V68H64.4218V59.572H65.5978V63.156H69.3918V59.572H70.5678V68ZM76.8883 67.44C76.8883 69.12 75.8103 70.184 73.9623 70.184C73.4163 70.184 72.8423 70.086 72.3243 69.96L72.5763 68.91C73.0383 69.05 73.4303 69.162 73.9903 69.162C75.0963 69.162 75.7683 68.616 75.7683 67.608C75.7683 66.236 74.5083 65.704 72.7303 65.704V64.906C74.8023 64.78 75.3763 63.856 75.3763 62.946C75.3763 62.148 74.8863 61.7 74.1023 61.7C73.4583 61.7 73.0803 61.91 72.6603 62.19L72.1983 61.42C72.7023 61.028 73.3463 60.706 74.3263 60.706C75.6703 60.706 76.4963 61.504 76.4963 62.806C76.4963 63.94 75.8383 64.696 74.9003 65.144V65.158C76.2723 65.452 76.8883 66.362 76.8883 67.44ZM82.7979 66.74C82.7979 69.428 80.2639 70.184 78.4579 70.324L78.3179 69.372C79.5919 69.232 81.6499 68.728 81.6499 66.894C81.6499 65.746 81.0059 65.074 79.2139 65.074H78.2759L78.5839 60.86H82.5739V61.882H79.5499L79.3679 64.234C79.3679 64.234 79.6899 64.206 79.9839 64.206C81.6079 64.206 82.7979 65.06 82.7979 66.74ZM92.8192 64.43C92.8192 66.292 92.0912 68.154 89.9772 68.154C87.8492 68.154 87.1212 66.292 87.1212 64.43C87.1212 62.568 87.8492 60.706 89.9772 60.706C92.0912 60.706 92.8192 62.568 92.8192 64.43ZM91.6712 64.43C91.6712 62.862 91.1532 61.686 89.9772 61.686C88.7872 61.686 88.2692 62.862 88.2692 64.43C88.2692 65.998 88.7872 67.174 89.9772 67.174C91.1532 67.174 91.6712 65.998 91.6712 64.43ZM99.3103 64.318C99.3103 68.182 97.3503 69.988 94.5643 70.324L94.3403 69.414C96.1043 69.204 97.8823 68.07 98.1343 65.396L98.1203 65.382C98.1203 65.382 97.4623 65.942 96.4683 65.942C95.0683 65.942 94.1583 64.892 94.1583 63.45C94.1583 61.7 95.2083 60.706 96.7903 60.706C98.4143 60.706 99.3103 61.826 99.3103 64.318ZM98.1483 64.304C98.1483 62.918 97.8963 61.658 96.6503 61.658C95.7683 61.658 95.2503 62.386 95.2503 63.296C95.2503 64.458 95.7823 65.018 96.7763 65.018C97.6303 65.018 98.1483 64.514 98.1483 64.514V64.304ZM106.573 64.43C106.573 66.292 105.845 68.154 103.731 68.154C101.603 68.154 100.875 66.292 100.875 64.43C100.875 62.568 101.603 60.706 103.731 60.706C105.845 60.706 106.573 62.568 106.573 64.43ZM105.425 64.43C105.425 62.862 104.907 61.686 103.731 61.686C102.541 61.686 102.023 62.862 102.023 64.43C102.023 65.998 102.541 67.174 103.731 67.174C104.907 67.174 105.425 65.998 105.425 64.43ZM113.778 64.43C113.778 66.292 113.05 68.154 110.936 68.154C108.808 68.154 108.08 66.292 108.08 64.43C108.08 62.568 108.808 60.706 110.936 60.706C113.05 60.706 113.778 62.568 113.778 64.43ZM112.63 64.43C112.63 62.862 112.112 61.686 110.936 61.686C109.746 61.686 109.228 62.862 109.228 64.43C109.228 65.998 109.746 67.174 110.936 67.174C112.112 67.174 112.63 65.998 112.63 64.43ZM123.923 64.43C123.923 66.292 123.195 68.154 121.081 68.154C118.953 68.154 118.225 66.292 118.225 64.43C118.225 62.568 118.953 60.706 121.081 60.706C123.195 60.706 123.923 62.568 123.923 64.43ZM122.775 64.43C122.775 62.862 122.257 61.686 121.081 61.686C119.891 61.686 119.373 62.862 119.373 64.43C119.373 65.998 119.891 67.174 121.081 67.174C122.257 67.174 122.775 65.998 122.775 64.43ZM131.128 64.43C131.128 66.292 130.4 68.154 128.286 68.154C126.158 68.154 125.43 66.292 125.43 64.43C125.43 62.568 126.158 60.706 128.286 60.706C130.4 60.706 131.128 62.568 131.128 64.43ZM129.98 64.43C129.98 62.862 129.462 61.686 128.286 61.686C127.096 61.686 126.578 62.862 126.578 64.43C126.578 65.998 127.096 67.174 128.286 67.174C129.462 67.174 129.98 65.998 129.98 64.43ZM138.333 64.43C138.333 66.292 137.605 68.154 135.491 68.154C133.363 68.154 132.635 66.292 132.635 64.43C132.635 62.568 133.363 60.706 135.491 60.706C137.605 60.706 138.333 62.568 138.333 64.43ZM137.185 64.43C137.185 62.862 136.667 61.686 135.491 61.686C134.301 61.686 133.783 62.862 133.783 64.43C133.783 65.998 134.301 67.174 135.491 67.174C136.667 67.174 137.185 65.998 137.185 64.43ZM145.538 64.43C145.538 66.292 144.81 68.154 142.696 68.154C140.568 68.154 139.84 66.292 139.84 64.43C139.84 62.568 140.568 60.706 142.696 60.706C144.81 60.706 145.538 62.568 145.538 64.43ZM144.39 64.43C144.39 62.862 143.872 61.686 142.696 61.686C141.506 61.686 140.988 62.862 140.988 64.43C140.988 65.998 141.506 67.174 142.696 67.174C143.872 67.174 144.39 65.998 144.39 64.43ZM154.983 68H149.789V67.272L152.183 64.976C152.827 64.346 153.317 63.884 153.317 63.114C153.317 62.302 152.813 61.7 151.875 61.7C151.245 61.7 150.797 61.98 150.461 62.26L149.929 61.518C150.531 61.014 151.147 60.706 152.113 60.706C153.499 60.706 154.451 61.518 154.451 62.988C154.451 63.968 153.863 64.71 153.191 65.326L151.399 66.978V66.992H154.983V68ZM162.587 67.118H160.893V69.974L159.815 70.156V67.118H155.965V66.208L159.857 60.86H160.893V66.166H162.587V67.118ZM159.815 66.166V62.372H159.801L157.113 66.166H159.815ZM167.963 61.812L163.959 70.31L163.021 69.834L166.745 61.882H162.937V60.86H167.963V61.812ZM174.659 64.43C174.659 66.292 173.931 68.154 171.817 68.154C169.689 68.154 168.961 66.292 168.961 64.43C168.961 62.568 169.689 60.706 171.817 60.706C173.931 60.706 174.659 62.568 174.659 64.43ZM173.511 64.43C173.511 62.862 172.993 61.686 171.817 61.686C170.627 61.686 170.109 62.862 170.109 64.43C170.109 65.998 170.627 67.174 171.817 67.174C172.993 67.174 173.511 65.998 173.511 64.43ZM184.104 68H178.91V67.272L181.304 64.976C181.948 64.346 182.438 63.884 182.438 63.114C182.438 62.302 181.934 61.7 180.996 61.7C180.366 61.7 179.918 61.98 179.582 62.26L179.05 61.518C179.652 61.014 180.268 60.706 181.234 60.706C182.62 60.706 183.572 61.518 183.572 62.988C183.572 63.968 182.984 64.71 182.312 65.326L180.52 66.978V66.992H184.104V68ZM190.269 64.318C190.269 68.182 188.309 69.988 185.523 70.324L185.299 69.414C187.063 69.204 188.841 68.07 189.093 65.396L189.079 65.382C189.079 65.382 188.421 65.942 187.427 65.942C186.027 65.942 185.117 64.892 185.117 63.45C185.117 61.7 186.167 60.706 187.749 60.706C189.373 60.706 190.269 61.826 190.269 64.318ZM189.107 64.304C189.107 62.918 188.855 61.658 187.609 61.658C186.727 61.658 186.209 62.386 186.209 63.296C186.209 64.458 186.741 65.018 187.735 65.018C188.589 65.018 189.107 64.514 189.107 64.514V64.304ZM196.832 68H191.638V67.272L194.032 64.976C194.676 64.346 195.166 63.884 195.166 63.114C195.166 62.302 194.662 61.7 193.724 61.7C193.094 61.7 192.646 61.98 192.31 62.26L191.778 61.518C192.38 61.014 192.996 60.706 193.962 60.706C195.348 60.706 196.3 61.518 196.3 62.988C196.3 63.968 195.712 64.71 195.04 65.326L193.248 66.978V66.992H196.832V68ZM203.712 64.43C203.712 66.292 202.984 68.154 200.87 68.154C198.742 68.154 198.014 66.292 198.014 64.43C198.014 62.568 198.742 60.706 200.87 60.706C202.984 60.706 203.712 62.568 203.712 64.43ZM202.564 64.43C202.564 62.862 202.046 61.686 200.87 61.686C199.68 61.686 199.162 62.862 199.162 64.43C199.162 65.998 199.68 67.174 200.87 67.174C202.046 67.174 202.564 65.998 202.564 64.43ZM210.314 68H209.208V61.812L207.976 61.98L207.85 61.126L210.314 60.734V68Z" fill="#00157E" fill-opacity="0.7"/>
<g clip-path="url(#clip0_357_2498)">
<path d="M326.432 48.072C326.432 50.136 325.268 51.156 323.708 51.156C322.04 51.156 320.972 50.316 320.972 48.048V43.776H322.004V48.096C322.004 49.524 322.556 50.196 323.672 50.196C324.788 50.196 325.472 49.512 325.472 48.12V43.776H326.432V48.072ZM332.314 48.972C332.314 50.232 331.438 51.132 329.986 51.132C329.242 51.132 328.582 50.976 328.018 50.736L328.33 49.86C328.798 50.076 329.35 50.256 329.914 50.256C330.79 50.256 331.354 49.92 331.354 49.128C331.354 48.54 330.922 48.252 330.346 47.976L329.218 47.436C328.462 47.076 327.946 46.608 327.946 45.588C327.946 44.352 329.026 43.644 330.274 43.644C330.946 43.644 331.378 43.752 332.002 43.98L331.666 44.832C331.282 44.652 330.862 44.484 330.334 44.484C329.59 44.484 328.918 44.784 328.918 45.552C328.918 46.068 329.23 46.32 329.71 46.548L330.862 47.112C331.774 47.556 332.314 48.048 332.314 48.972ZM339.469 46.932C339.469 49.572 337.885 51 335.317 51H333.805V43.824C333.805 43.824 334.801 43.704 335.869 43.704C338.101 43.704 339.469 44.868 339.469 46.932ZM338.425 47.076C338.425 45.372 337.273 44.556 335.701 44.556C335.197 44.556 334.813 44.58 334.813 44.58V50.1H335.509C337.225 50.1 338.425 49.08 338.425 47.076Z" fill="#00157E" fill-opacity="0.7"/>
<path d="M352.716 52H350.938V46.33L349.706 46.498L349.496 45.238L352.716 44.72V52ZM360.296 48.43C360.296 50.39 359.442 52.168 357.286 52.168C355.13 52.168 354.276 50.39 354.276 48.43C354.276 46.47 355.13 44.692 357.286 44.692C359.442 44.692 360.296 46.47 360.296 48.43ZM358.504 48.43C358.504 47.086 358.126 46.274 357.286 46.274C356.46 46.274 356.068 47.086 356.068 48.43C356.068 49.774 356.46 50.586 357.286 50.586C358.126 50.586 358.504 49.774 358.504 48.43ZM363.692 44.594C363.692 46.022 363.118 46.82 362.082 47.562L361.578 47.016C362.068 46.596 362.39 46.148 362.502 45.532C361.984 45.476 361.564 45.014 361.564 44.482C361.564 43.908 362.04 43.432 362.614 43.432C363.216 43.432 363.692 43.88 363.692 44.594ZM370.974 48.43C370.974 50.39 370.12 52.168 367.964 52.168C365.808 52.168 364.954 50.39 364.954 48.43C364.954 46.47 365.808 44.692 367.964 44.692C370.12 44.692 370.974 46.47 370.974 48.43ZM369.182 48.43C369.182 47.086 368.804 46.274 367.964 46.274C367.138 46.274 366.746 47.086 366.746 48.43C366.746 49.774 367.138 50.586 367.964 50.586C368.804 50.586 369.182 49.774 369.182 48.43ZM378.22 48.43C378.22 50.39 377.366 52.168 375.21 52.168C373.054 52.168 372.2 50.39 372.2 48.43C372.2 46.47 373.054 44.692 375.21 44.692C377.366 44.692 378.22 46.47 378.22 48.43ZM376.428 48.43C376.428 47.086 376.05 46.274 375.21 46.274C374.384 46.274 373.992 47.086 373.992 48.43C373.992 49.774 374.384 50.586 375.21 50.586C376.05 50.586 376.428 49.774 376.428 48.43ZM385.466 48.43C385.466 50.39 384.612 52.168 382.456 52.168C380.3 52.168 379.446 50.39 379.446 48.43C379.446 46.47 380.3 44.692 382.456 44.692C384.612 44.692 385.466 46.47 385.466 48.43ZM383.674 48.43C383.674 47.086 383.296 46.274 382.456 46.274C381.63 46.274 381.238 47.086 381.238 48.43C381.238 49.774 381.63 50.586 382.456 50.586C383.296 50.586 383.674 49.774 383.674 48.43ZM388.862 51.048C388.862 51.636 388.386 52.112 387.798 52.112C387.21 52.112 386.734 51.636 386.734 51.048C386.734 50.474 387.21 49.998 387.798 49.998C388.386 49.998 388.862 50.474 388.862 51.048ZM396.144 48.43C396.144 50.39 395.29 52.168 393.134 52.168C390.978 52.168 390.124 50.39 390.124 48.43C390.124 46.47 390.978 44.692 393.134 44.692C395.29 44.692 396.144 46.47 396.144 48.43ZM394.352 48.43C394.352 47.086 393.974 46.274 393.134 46.274C392.308 46.274 391.916 47.086 391.916 48.43C391.916 49.774 392.308 50.586 393.134 50.586C393.974 50.586 394.352 49.774 394.352 48.43ZM403.39 48.43C403.39 50.39 402.536 52.168 400.38 52.168C398.224 52.168 397.37 50.39 397.37 48.43C397.37 46.47 398.224 44.692 400.38 44.692C402.536 44.692 403.39 46.47 403.39 48.43ZM401.598 48.43C401.598 47.086 401.22 46.274 400.38 46.274C399.554 46.274 399.162 47.086 399.162 48.43C399.162 49.774 399.554 50.586 400.38 50.586C401.22 50.586 401.598 49.774 401.598 48.43Z" fill="#00157E"/>
<path d="M386 65L392 71L398 65" stroke="#00157E" stroke-width="2" stroke-linecap="round" stroke-linejoin="round"/>
</g>
<g clip-path="url(#clip1_357_2498)">
<path d="M6.86001 102.573L1.21335 112C1.09693 112.202 1.03533 112.43 1.03467 112.663C1.03402 112.896 1.09434 113.125 1.20963 113.327C1.32492 113.529 1.49116 113.698 1.69182 113.816C1.89247 113.934 2.12055 113.997 2.35335 114H13.6467C13.8795 113.997 14.1076 113.934 14.3082 113.816C14.5089 113.698 14.6751 113.529 14.7904 113.327C14.9057 113.125 14.966 112.896 14.9654 112.663C14.9647 112.43 14.9031 112.202 14.7867 112L9.14001 102.573C9.02117 102.377 8.85383 102.215 8.65414 102.103C8.45446 101.99 8.22917 101.931 8.00001 101.931C7.77086 101.931 7.54557 101.99 7.34588 102.103C7.1462 102.215 6.97886 102.377 6.86001 102.573V102.573Z" stroke="#FF0095" stroke-width="2" stroke-linecap="round" stroke-linejoin="round"/>
<path d="M8 111.333H8.00667" stroke="#FF0095" stroke-width="2" stroke-linecap="round" stroke-linejoin="round"/>
<path d="M8 106V108.667" stroke="#FF0095" stroke-width="2" stroke-linecap="round" stroke-linejoin="round"/>
</g>
<path d="M29.488 112H25.162V103.572H29.348V104.566H26.324V107.156H29.054V108.136H26.324V111.006H29.488V112ZM34.0893 106.414C33.3333 106.414 32.7733 106.61 32.2693 107.072V112H31.1493V106.96L30.9533 105.518L32.0593 105.336L32.1713 106.232H32.1853C32.6333 105.728 33.2213 105.308 34.0893 105.308V106.414ZM38.3959 106.414C37.6399 106.414 37.0799 106.61 36.5759 107.072V112H35.4559V106.96L35.2599 105.518L36.3659 105.336L36.4779 106.232H36.4919C36.9399 105.728 37.5279 105.308 38.3959 105.308V106.414ZM44.7505 108.724C44.7505 110.642 43.8405 112.154 41.9505 112.154C39.8785 112.154 39.1505 110.684 39.1505 108.724C39.1505 106.806 40.0605 105.294 41.9505 105.294C44.0225 105.294 44.7505 106.764 44.7505 108.724ZM43.6025 108.752C43.6025 107.128 43.0565 106.274 41.9505 106.274C40.8725 106.274 40.2985 107.03 40.2985 108.682C40.2985 110.306 40.8445 111.174 41.9505 111.174C43.0285 111.174 43.6025 110.404 43.6025 108.752ZM49.4702 106.414C48.7142 106.414 48.1542 106.61 47.6502 107.072V112H46.5302V106.96L46.3342 105.518L47.4402 105.336L47.5522 106.232H47.5662C48.0142 105.728 48.6022 105.308 49.4702 105.308V106.414ZM57.0523 111.734C56.6463 111.958 56.2683 112.14 55.5543 112.14C54.5463 112.14 53.9023 111.482 53.9023 110.362V106.358H52.9363V105.616L53.9023 105.42V104.328L55.0083 104.188V105.448H56.8423V106.358H55.0083V109.984C55.0083 110.866 55.2323 111.146 55.8763 111.146C56.2263 111.146 56.4923 111.006 56.6883 110.88L57.0523 111.734ZM62.9063 111.65C62.2763 112 61.6323 112.154 60.8343 112.154C58.9023 112.154 57.9083 110.852 57.9083 108.682C57.9083 106.652 58.9723 105.294 60.6243 105.294C62.2063 105.294 62.8503 106.344 62.8503 107.786V108.57H59.0003C59.0143 110.32 59.6443 111.16 61.0723 111.16C61.6183 111.16 62.0383 111.006 62.5143 110.768L62.9063 111.65ZM61.8003 107.786C61.8003 106.806 61.4363 106.19 60.5683 106.19C59.7283 106.19 59.1963 106.848 59.0563 107.786H61.8003ZM69.1554 111.706L68.2034 112.238L66.3834 109.438H66.3694L64.7314 112H63.5554L65.8374 108.598L63.8774 105.742L64.8154 105.21L66.4394 107.674H66.4534L67.8534 105.448H69.0434L66.9714 108.5L69.1554 111.706ZM73.8003 111.734C73.3943 111.958 73.0163 112.14 72.3023 112.14C71.2943 112.14 70.6503 111.482 70.6503 110.362V106.358H69.6843V105.616L70.6503 105.42V104.328L71.7563 104.188V105.448H73.5903V106.358H71.7563V109.984C71.7563 110.866 71.9803 111.146 72.6243 111.146C72.9743 111.146 73.2403 111.006 73.4363 110.88L73.8003 111.734Z" fill="#FF0095"/>
<defs>
<clipPath id="clip0_357_2498">
<rect width="208" height="36" fill="white" transform="translate(212 44)"/>
</clipPath>
<clipPath id="clip1_357_2498">
<rect width="16" height="16" fill="white" transform="translate(0 100)"/>
</clipPath>
</defs>
</svg>
