<svg width="375" height="812" viewBox="0 0 375 812" fill="none" xmlns="http://www.w3.org/2000/svg">
<g clip-path="url(#clip0_697_92433)">
<rect width="375" height="812" fill="white"/>
<rect width="375" height="106" fill="white"/>
<path d="M343.99 22.17H357.993C359.556 22.17 360.823 23.4372 360.823 25.0001V29.673C360.823 31.2359 359.556 32.5031 357.993 32.5031H343.99C342.427 32.5031 341.16 31.2359 341.16 29.673V25.0001C341.16 23.4372 342.427 22.17 343.99 22.17Z" stroke="#00157E"/>
<path d="M362.33 25.3367V29.3367C363.135 28.9979 363.658 28.2098 363.658 27.3367C363.658 26.4635 363.135 25.6754 362.33 25.3367" fill="#00157E"/>
<rect x="342.66" y="23.67" width="16.66" height="7.33333" rx="1.33333" fill="#00157E"/>
<path d="M325.427 30.0606C326.702 28.9817 328.571 28.9817 329.847 30.0606C329.911 30.1186 329.947 30.2008 329.949 30.2872C329.951 30.3736 329.917 30.4571 329.855 30.5176L327.858 32.5333C327.8 32.5925 327.72 32.626 327.637 32.626C327.553 32.626 327.474 32.5924 327.415 32.5333L325.417 30.5176C325.355 30.457 325.321 30.3735 325.323 30.2872C325.325 30.2007 325.363 30.1186 325.427 30.0606ZM322.762 27.3711C325.51 24.8151 329.766 24.8152 332.514 27.3711C332.576 27.431 332.611 27.5135 332.612 27.5997C332.613 27.6858 332.579 27.769 332.519 27.8301L331.364 28.9971C331.245 29.1162 331.053 29.1189 330.931 29.003C330.028 28.1858 328.854 27.7334 327.637 27.7335C326.42 27.734 325.247 28.1863 324.345 29.003C324.223 29.1188 324.03 29.1162 323.911 28.9971L322.757 27.8301C322.696 27.7691 322.662 27.6858 322.663 27.5997C322.664 27.5135 322.7 27.431 322.762 27.3711ZM320.097 24.6895C324.312 20.6503 330.962 20.6501 335.177 24.6895C335.238 24.7494 335.272 24.8316 335.272 24.917C335.273 25.0026 335.239 25.0848 335.179 25.1456L334.022 26.3126C333.903 26.432 333.711 26.4333 333.59 26.3155C331.984 24.7888 329.853 23.9377 327.637 23.9376C325.421 23.9375 323.289 24.7886 321.683 26.3155C321.562 26.4335 321.369 26.4323 321.25 26.3126L320.094 25.1456C320.033 25.0848 319.999 25.0026 320 24.917C320.001 24.8315 320.036 24.7494 320.097 24.6895Z" fill="#00157E"/>
<path d="M299.66 28.667C300.212 28.667 300.66 29.1147 300.66 29.667V31.667C300.66 32.2191 300.212 32.667 299.66 32.667H298.66C298.108 32.667 297.66 32.2191 297.66 31.667V29.667C297.66 29.1147 298.108 28.667 298.66 28.667H299.66ZM304.327 26.667C304.879 26.6672 305.327 27.1148 305.327 27.667V31.667C305.327 32.219 304.879 32.6668 304.327 32.667H303.327C302.775 32.667 302.327 32.2191 302.327 31.667V27.667C302.327 27.1147 302.775 26.667 303.327 26.667H304.327ZM308.993 24.333C309.545 24.333 309.993 24.7809 309.993 25.333V31.667C309.993 32.2191 309.545 32.667 308.993 32.667H307.993C307.441 32.6668 306.993 32.219 306.993 31.667V25.333C306.993 24.781 307.441 24.3332 307.993 24.333H308.993ZM313.66 22C314.212 22 314.66 22.4477 314.66 23V31.667C314.66 32.2191 314.212 32.667 313.66 32.667H312.66C312.108 32.667 311.66 32.2191 311.66 31.667V23C311.66 22.4477 312.108 22 312.66 22H313.66Z" fill="#00157E"/>
<path d="M32.1846 21.9175C34.4405 21.9175 36.4034 23.5215 36.4034 27.3301V27.3447C36.4034 30.9043 34.7994 33.0137 32.1407 33.0137C30.1998 33.0137 28.7496 31.8638 28.4127 30.2451L28.398 30.1646H30.2584L30.2804 30.2378C30.5587 30.9775 31.2105 31.4609 32.1407 31.4609C33.8179 31.4609 34.5284 29.8203 34.609 27.7988C34.609 27.7183 34.6163 27.6377 34.6163 27.5571H34.4698C34.0816 28.3921 33.1588 29.1318 31.7086 29.1318C29.6798 29.1318 28.2589 27.6523 28.2589 25.6455V25.6309C28.2589 23.4849 29.8922 21.9175 32.1846 21.9175ZM32.1773 27.6816C33.3712 27.6816 34.2867 26.8174 34.2867 25.6235V25.6089C34.2867 24.4004 33.3712 23.4556 32.1993 23.4556C31.0347 23.4556 30.1046 24.3857 30.1046 25.5649V25.5796C30.1046 26.8027 30.9762 27.6816 32.1773 27.6816ZM39.4486 25.9019C38.7821 25.9019 38.284 25.3892 38.284 24.7446C38.284 24.0928 38.7821 23.5874 39.4486 23.5874C40.1224 23.5874 40.6131 24.0928 40.6131 24.7446C40.6131 25.3892 40.1224 25.9019 39.4486 25.9019ZM39.4486 31.3364C38.7821 31.3364 38.284 30.8311 38.284 30.1792C38.284 29.5273 38.7821 29.022 39.4486 29.022C40.1224 29.022 40.6131 29.5273 40.6131 30.1792C40.6131 30.8311 40.1224 31.3364 39.4486 31.3364ZM47.6207 32.75V30.7212H42.4498V29.1758C43.8195 26.7954 45.3209 24.3638 46.7565 22.1812H49.4298V29.1611H50.8507V30.7212H49.4298V32.75H47.6207ZM44.2077 29.2051H47.65V23.6899H47.5402C46.4562 25.3452 45.233 27.3008 44.2077 29.0952V29.2051ZM54.9506 32.75V24.0415H54.8261L52.1967 25.9019V24.1221L54.9579 22.1812H56.8403V32.75H54.9506Z" fill="#00157E"/>
<path d="M35 77.9292H21" stroke="#00157E" stroke-width="2" stroke-linecap="round" stroke-linejoin="round"/>
<path d="M28 84.9292L21 77.9292L28 70.9292" stroke="#00157E" stroke-width="2" stroke-linecap="round" stroke-linejoin="round"/>
<path d="M160.004 83.3L157.584 84.3L154.764 79.18C154.504 79.22 154.264 79.22 154.024 79.22H153.844V84H151.204V72.08C151.204 72.08 152.904 71.84 154.464 71.84C157.244 71.84 158.864 72.9 158.864 75.16C158.864 76.56 158.084 77.58 157.024 78.24L160.004 83.3ZM156.344 75.44C156.344 74.22 155.484 73.8 154.444 73.8C154.104 73.8 153.844 73.84 153.844 73.84V77.5H154.004C155.224 77.5 156.344 76.9 156.344 75.44ZM168.518 83.44C167.458 83.98 166.578 84.24 165.298 84.24C162.138 84.24 160.738 82.32 160.738 79.12C160.738 76.26 162.438 74.32 164.958 74.32C167.598 74.32 168.458 76.14 168.458 78.42V79.54H163.218C163.298 81.22 164.098 82.02 165.618 82.02C166.518 82.02 167.018 81.8 167.738 81.5L168.518 83.44ZM166.238 78C166.238 77.02 165.818 76.36 164.878 76.36C163.878 76.36 163.378 77.12 163.258 78H166.238ZM177.02 74.74L176.26 76.96C175.76 76.74 175.3 76.56 174.62 76.56C173.36 76.56 172.42 77.46 172.42 79.16C172.42 81.08 173.28 81.92 174.5 81.92C175.22 81.92 175.6 81.76 176.2 81.52L176.96 83.6C176.08 84 175.26 84.24 174.18 84.24C171.34 84.24 169.84 82.32 169.84 79.3C169.84 75.82 172.2 74.3 174.62 74.3C175.56 74.3 176.2 74.42 177.02 74.74ZM181.398 84H178.858V77L178.538 74.66L181.398 74.34V84ZM181.638 71.88C181.638 72.72 180.978 73.4 180.138 73.4C179.298 73.4 178.638 72.72 178.638 71.88C178.638 71.06 179.298 70.38 180.138 70.38C180.978 70.38 181.638 71.06 181.638 71.88ZM191.996 78.82C191.996 82.12 190.276 84.08 187.296 84.08C186.956 84.08 186.616 84.02 186.476 83.98V87.92L183.936 88.24V77L183.616 74.66L186.056 74.34L186.176 75.3H186.196C186.436 75.1 187.356 74.3 188.616 74.3C191.016 74.3 191.996 76.12 191.996 78.82ZM189.456 79.24C189.456 77.48 189.136 76.52 187.756 76.52C187.116 76.52 186.656 76.88 186.476 77.02V81.78C186.616 81.84 186.936 81.94 187.376 81.94C188.776 81.94 189.456 80.88 189.456 79.24ZM196.555 84H194.015V77L193.695 74.66L196.555 74.34V84ZM196.795 71.88C196.795 72.72 196.135 73.4 195.295 73.4C194.455 73.4 193.795 72.72 193.795 71.88C193.795 71.06 194.455 70.38 195.295 70.38C196.135 70.38 196.795 71.06 196.795 71.88ZM206.292 83.44C205.232 83.98 204.352 84.24 203.072 84.24C199.912 84.24 198.512 82.32 198.512 79.12C198.512 76.26 200.212 74.32 202.732 74.32C205.372 74.32 206.232 76.14 206.232 78.42V79.54H200.992C201.072 81.22 201.872 82.02 203.392 82.02C204.292 82.02 204.792 81.8 205.512 81.5L206.292 83.44ZM204.012 78C204.012 77.02 203.592 76.36 202.652 76.36C201.652 76.36 201.152 77.12 201.032 78H204.012ZM216.173 84H213.633V78C213.633 76.98 213.213 76.52 212.313 76.52C211.653 76.52 211.093 76.84 210.733 77.2V84H208.193V77L207.873 74.66L210.313 74.34L210.433 75.38H210.453C211.013 74.82 211.953 74.3 213.213 74.3C214.853 74.3 216.173 75.24 216.173 77.38V84ZM224.522 83.54C223.702 83.98 223.082 84.22 221.822 84.22C219.942 84.22 219.022 82.96 219.022 81.08V76.54H217.562V74.86L219.022 74.52V72.88L221.542 72.58V74.54H224.142V76.54H221.542V80.4C221.542 81.66 221.862 81.98 222.682 81.98C223.142 81.98 223.402 81.86 223.842 81.66L224.522 83.54Z" fill="#00157E"/>
<path d="M353 71.9292L341 83.9292" stroke="#00157E" stroke-width="2" stroke-linecap="round" stroke-linejoin="round"/>
<path d="M341 71.9292L353 83.9292" stroke="#00157E" stroke-width="2" stroke-linecap="round" stroke-linejoin="round"/>
<g clip-path="url(#clip1_697_92433)">
<path d="M18.672 128H17.328V118.368H18.672V128ZM33.6154 120.512L31.5514 127.968L30.3674 128.032L28.5434 122.352H28.5274L26.6874 127.984L25.5034 128.032L23.6314 120.592L24.8474 120.288L26.1914 126.128H26.2074L27.9514 120.512H29.1994L30.9594 126.128H30.9754L32.3674 120.512H33.6154ZM39.9889 127.92L38.7089 128.128L38.5969 127.248H38.5809C38.0369 127.76 37.4449 128.192 36.5489 128.192C35.3009 128.192 34.5649 127.44 34.5649 126.256C34.5649 124.912 35.6209 124.256 37.1409 124.096L38.4849 123.952V123.28C38.4849 122.24 38.1649 121.504 36.9329 121.504C36.3089 121.504 35.8449 121.696 35.3809 121.936L34.9169 120.992C35.5889 120.592 36.2769 120.336 37.2369 120.336C38.7409 120.336 39.7489 121.216 39.7489 122.704V126.272L39.9889 127.92ZM38.4849 126.448V124.816L37.3169 124.976C36.3569 125.104 35.8289 125.408 35.8289 126.096C35.8289 126.72 36.2129 127.136 36.8529 127.136C37.6049 127.136 38.0689 126.816 38.4849 126.448ZM48.0069 128H46.7269V123.136C46.7269 122.032 46.3109 121.472 45.3029 121.472C44.5829 121.472 44.0709 121.776 43.6069 122.192V128H42.3269V122.24L42.1029 120.592L43.3669 120.384L43.4949 121.264H43.5109C44.0709 120.72 44.8069 120.336 45.7349 120.336C46.9989 120.336 48.0069 121.152 48.0069 122.688V128ZM54.274 127.696C53.81 127.952 53.378 128.16 52.562 128.16C51.41 128.16 50.674 127.408 50.674 126.128V121.552H49.57V120.704L50.674 120.48V119.232L51.938 119.072V120.512H54.034V121.552H51.938V125.696C51.938 126.704 52.194 127.024 52.93 127.024C53.33 127.024 53.634 126.864 53.858 126.72L54.274 127.696ZM63.0865 127.696C62.6225 127.952 62.1905 128.16 61.3745 128.16C60.2225 128.16 59.4865 127.408 59.4865 126.128V121.552H58.3825V120.704L59.4865 120.48V119.232L60.7505 119.072V120.512H62.8465V121.552H60.7505V125.696C60.7505 126.704 61.0065 127.024 61.7425 127.024C62.1425 127.024 62.4465 126.864 62.6705 126.72L63.0865 127.696ZM70.4649 124.256C70.4649 126.448 69.4249 128.176 67.2649 128.176C64.8969 128.176 64.0649 126.496 64.0649 124.256C64.0649 122.064 65.1049 120.336 67.2649 120.336C69.6329 120.336 70.4649 122.016 70.4649 124.256ZM69.1529 124.288C69.1529 122.432 68.5289 121.456 67.2649 121.456C66.0329 121.456 65.3769 122.32 65.3769 124.208C65.3769 126.064 66.0009 127.056 67.2649 127.056C68.4969 127.056 69.1529 126.176 69.1529 124.288ZM79.6021 127.696C79.1381 127.952 78.7061 128.16 77.8901 128.16C76.7381 128.16 76.0021 127.408 76.0021 126.128V121.552H74.8981V120.704L76.0021 120.48V119.232L77.2661 119.072V120.512H79.3621V121.552H77.2661V125.696C77.2661 126.704 77.5221 127.024 78.2581 127.024C78.6581 127.024 78.9621 126.864 79.1861 126.72L79.6021 127.696ZM84.6713 121.616C83.8073 121.616 83.1673 121.84 82.5913 122.368V128H81.3113V122.24L81.0872 120.592L82.3513 120.384L82.4793 121.408H82.4953C83.0073 120.832 83.6793 120.352 84.6713 120.352V121.616ZM90.9108 127.92L89.6308 128.128L89.5188 127.248H89.5028C88.9588 127.76 88.3668 128.192 87.4708 128.192C86.2228 128.192 85.4868 127.44 85.4868 126.256C85.4868 124.912 86.5428 124.256 88.0628 124.096L89.4068 123.952V123.28C89.4068 122.24 89.0868 121.504 87.8548 121.504C87.2308 121.504 86.7668 121.696 86.3028 121.936L85.8388 120.992C86.5108 120.592 87.1988 120.336 88.1588 120.336C89.6628 120.336 90.6708 121.216 90.6708 122.704V126.272L90.9108 127.92ZM89.4068 126.448V124.816L88.2388 124.976C87.2788 125.104 86.7508 125.408 86.7508 126.096C86.7508 126.72 87.1348 127.136 87.7748 127.136C88.5268 127.136 88.9908 126.816 89.4068 126.448ZM98.9288 128H97.6488V123.136C97.6488 122.032 97.2328 121.472 96.2248 121.472C95.5048 121.472 94.9928 121.776 94.5288 122.192V128H93.2488V122.24L93.0247 120.592L94.2888 120.384L94.4168 121.264H94.4328C94.9928 120.72 95.7288 120.336 96.6568 120.336C97.9208 120.336 98.9288 121.152 98.9288 122.688V128ZM105.788 125.824C105.788 127.184 104.716 128.16 103.116 128.16C102.348 128.16 101.58 128.048 100.972 127.76L101.356 126.64C101.884 126.88 102.476 127.072 103.052 127.072C103.916 127.072 104.492 126.736 104.492 126.032C104.492 125.488 104.204 125.264 103.708 125.04L102.316 124.4C101.82 124.176 100.924 123.728 100.924 122.432C100.924 121.008 102.172 120.336 103.532 120.336C104.348 120.336 104.924 120.464 105.564 120.736L105.132 121.84C104.62 121.616 104.124 121.456 103.516 121.456C102.7 121.456 102.172 121.712 102.172 122.352C102.172 122.912 102.652 123.136 102.956 123.28L104.38 123.952C105.372 124.416 105.788 125.008 105.788 125.824ZM111.507 117.232L111.219 118.32C110.995 118.24 110.787 118.192 110.467 118.192C109.747 118.192 109.219 118.656 109.219 119.6V120.512H111.283V121.552H109.219V128H107.955V121.552H106.851V120.704L107.955 120.48V119.696C107.955 118.08 109.043 117.088 110.531 117.088C110.931 117.088 111.219 117.152 111.507 117.232ZM117.636 127.6C116.916 128 116.18 128.176 115.268 128.176C113.06 128.176 111.924 126.688 111.924 124.208C111.924 121.888 113.14 120.336 115.028 120.336C116.836 120.336 117.572 121.536 117.572 123.184V124.08H113.172C113.188 126.08 113.908 127.04 115.54 127.04C116.164 127.04 116.644 126.864 117.188 126.592L117.636 127.6ZM116.372 123.184C116.372 122.064 115.956 121.36 114.964 121.36C114.004 121.36 113.396 122.112 113.236 123.184H116.372ZM122.906 121.616C122.042 121.616 121.402 121.84 120.826 122.368V128H119.546V122.24L119.322 120.592L120.586 120.384L120.714 121.408H120.73C121.242 120.832 121.914 120.352 122.906 120.352V121.616ZM129.139 128H127.859V122.24L127.635 120.592L129.139 120.384V128ZM129.395 118.56C129.395 119.072 128.995 119.456 128.515 119.456C128.019 119.456 127.603 119.072 127.603 118.56C127.603 118.048 128.019 117.648 128.515 117.648C128.995 117.648 129.395 118.048 129.395 118.56ZM137.382 128H136.102V123.136C136.102 122.032 135.686 121.472 134.678 121.472C133.958 121.472 133.446 121.776 132.982 122.192V128H131.702V122.24L131.478 120.592L132.742 120.384L132.87 121.264H132.886C133.446 120.72 134.182 120.336 135.11 120.336C136.374 120.336 137.382 121.152 137.382 122.688V128ZM143.649 127.696C143.185 127.952 142.753 128.16 141.937 128.16C140.785 128.16 140.049 127.408 140.049 126.128V121.552H138.945V120.704L140.049 120.48V119.232L141.313 119.072V120.512H143.409V121.552H141.313V125.696C141.313 126.704 141.569 127.024 142.305 127.024C142.705 127.024 143.009 126.864 143.233 126.72L143.649 127.696ZM150.339 127.6C149.619 128 148.883 128.176 147.971 128.176C145.763 128.176 144.627 126.688 144.627 124.208C144.627 121.888 145.843 120.336 147.731 120.336C149.539 120.336 150.275 121.536 150.275 123.184V124.08H145.875C145.891 126.08 146.611 127.04 148.243 127.04C148.867 127.04 149.347 126.864 149.891 126.592L150.339 127.6ZM149.075 123.184C149.075 122.064 148.659 121.36 147.667 121.36C146.707 121.36 146.099 122.112 145.939 123.184H149.075ZM155.609 121.616C154.745 121.616 154.105 121.84 153.529 122.368V128H152.249V122.24L152.025 120.592L153.289 120.384L153.417 121.408H153.433C153.945 120.832 154.617 120.352 155.609 120.352V121.616ZM162.851 128H161.571V123.136C161.571 122.032 161.155 121.472 160.147 121.472C159.427 121.472 158.915 121.776 158.451 122.192V128H157.171V122.24L156.947 120.592L158.211 120.384L158.339 121.264H158.355C158.915 120.72 159.651 120.336 160.579 120.336C161.843 120.336 162.851 121.152 162.851 122.688V128ZM170.286 127.92L169.006 128.128L168.894 127.248H168.878C168.334 127.76 167.742 128.192 166.846 128.192C165.598 128.192 164.862 127.44 164.862 126.256C164.862 124.912 165.918 124.256 167.438 124.096L168.782 123.952V123.28C168.782 122.24 168.462 121.504 167.23 121.504C166.606 121.504 166.142 121.696 165.678 121.936L165.214 120.992C165.886 120.592 166.574 120.336 167.534 120.336C169.038 120.336 170.046 121.216 170.046 122.704V126.272L170.286 127.92ZM168.782 126.448V124.816L167.614 124.976C166.654 125.104 166.126 125.408 166.126 126.096C166.126 126.72 166.51 127.136 167.15 127.136C167.902 127.136 168.366 126.816 168.782 126.448ZM173.872 128H172.592V118.928L172.368 117.28L173.872 117.072V128ZM177.653 128H176.373V118.928L176.149 117.28L177.653 117.072V128ZM185.61 120.512L183.114 127.312C182.314 129.52 181.242 130.848 178.634 131.376L178.394 130.336C180.298 129.952 181.306 128.8 181.802 127.552L179.114 120.624L180.378 120.288L182.442 125.856H182.458L184.346 120.512H185.61Z" fill="#00157E" fill-opacity="0.7"/>
<path d="M23.154 175.86L22.006 176.182L21.11 173.27H18.366L17.512 176H16.28L19.206 167.572H20.41L23.154 175.86ZM20.858 172.43L19.766 168.79H19.752L18.618 172.43H20.858ZM33.3362 176H32.2302V171.744C32.2302 170.778 31.8662 170.288 30.9702 170.288C30.3402 170.288 29.8082 170.596 29.4582 170.946C29.4582 170.946 29.5002 171.184 29.5002 171.436V176H28.3802V171.744C28.3802 170.778 28.0162 170.288 27.1342 170.288C26.5042 170.288 26.0562 170.54 25.6502 170.918V176H24.5302V170.96L24.3342 169.518L25.4402 169.336L25.5522 170.106H25.5662C26.0562 169.63 26.7002 169.294 27.5122 169.294C28.2682 169.294 28.8982 169.63 29.2342 170.232H29.2482C29.7662 169.714 30.4382 169.294 31.3622 169.294C32.4822 169.294 33.3362 170.008 33.3362 171.352V176ZM40.7154 172.724C40.7154 174.642 39.8054 176.154 37.9154 176.154C35.8434 176.154 35.1154 174.684 35.1154 172.724C35.1154 170.806 36.0254 169.294 37.9154 169.294C39.9874 169.294 40.7154 170.764 40.7154 172.724ZM39.5674 172.752C39.5674 171.128 39.0214 170.274 37.9154 170.274C36.8374 170.274 36.2634 171.03 36.2634 172.682C36.2634 174.306 36.8094 175.174 37.9154 175.174C38.9934 175.174 39.5674 174.404 39.5674 172.752ZM47.661 175.93L46.555 176.112L46.443 175.356H46.429C45.939 175.818 45.295 176.154 44.483 176.154C43.377 176.154 42.495 175.44 42.495 174.096V170.96L42.299 169.518L43.615 169.336V173.704C43.615 174.67 43.979 175.174 44.861 175.174C45.491 175.174 45.939 174.908 46.345 174.53V170.96L46.149 169.518L47.465 169.336V174.488L47.661 175.93ZM54.6701 176H53.5501V171.744C53.5501 170.778 53.1861 170.288 52.3041 170.288C51.6741 170.288 51.2261 170.554 50.8201 170.918V176H49.7001V170.96L49.5041 169.518L50.6101 169.336L50.7221 170.106H50.7361C51.2261 169.63 51.8701 169.294 52.6821 169.294C53.7881 169.294 54.6701 170.008 54.6701 171.352V176ZM60.1538 175.734C59.7478 175.958 59.3698 176.14 58.6558 176.14C57.6478 176.14 57.0038 175.482 57.0038 174.362V170.358H56.0378V169.616L57.0038 169.42V168.328L58.1098 168.188V169.448H59.9438V170.358H58.1098V173.984C58.1098 174.866 58.3338 175.146 58.9778 175.146C59.3278 175.146 59.5938 175.006 59.7898 174.88L60.1538 175.734Z" fill="#00157E" fill-opacity="0.7"/>
<path d="M16 192C16 189.791 17.7909 188 20 188H355C357.209 188 359 189.791 359 192V224C359 226.209 357.209 228 355 228H20C17.7909 228 16 226.209 16 224V192Z" fill="white"/>
<path d="M20 188.5H355C356.933 188.5 358.5 190.067 358.5 192V224C358.5 225.933 356.933 227.5 355 227.5H20C18.067 227.5 16.5 225.933 16.5 224V192C16.5 190.067 18.067 188.5 20 188.5Z" stroke="#00157E" stroke-opacity="0.7"/>
<path d="M36.2411 212.504C35.3451 212.968 34.4331 213.176 33.2171 213.176C30.8651 213.176 29.0571 211.592 29.0571 208.392C29.0571 204.984 31.0731 203.192 33.6651 203.192C34.7371 203.192 35.3931 203.352 36.2091 203.704L35.6971 204.872C35.0891 204.6 34.5131 204.392 33.6491 204.392C31.9691 204.392 30.4331 205.688 30.4331 208.056C30.4331 210.696 31.4091 211.992 33.7451 211.992C34.5131 211.992 35.2171 211.688 35.7931 211.432L36.2411 212.504ZM44.9379 213H43.5939V208.6H39.2579V213H37.9139V203.368H39.2579V207.464H43.5939V203.368H44.9379V213ZM52.3854 204.504H48.9294V207.64H52.0494V208.776H48.9294V213H47.6014V203.368H52.3854V204.504Z" fill="#00157E"/>
<path d="M67 205L73 211L79 205" stroke="#00157E" stroke-width="2" stroke-linecap="round" stroke-linejoin="round"/>
<path d="M300.361 212.2C300.361 216.04 296.741 217.12 294.161 217.32L293.961 215.96C295.781 215.76 298.721 215.04 298.721 212.42C298.721 210.78 297.801 209.82 295.241 209.82H293.901L294.341 203.8H300.041V205.26H295.721L295.461 208.62C295.461 208.62 295.921 208.58 296.341 208.58C298.661 208.58 300.361 209.8 300.361 212.2ZM310.478 208.9C310.478 211.56 309.438 214.22 306.418 214.22C303.378 214.22 302.338 211.56 302.338 208.9C302.338 206.24 303.378 203.58 306.418 203.58C309.438 203.58 310.478 206.24 310.478 208.9ZM308.838 208.9C308.838 206.66 308.098 204.98 306.418 204.98C304.718 204.98 303.978 206.66 303.978 208.9C303.978 211.14 304.718 212.82 306.418 212.82C308.098 212.82 308.838 211.14 308.838 208.9ZM320.771 208.9C320.771 211.56 319.731 214.22 316.711 214.22C313.671 214.22 312.631 211.56 312.631 208.9C312.631 206.24 313.671 203.58 316.711 203.58C319.731 203.58 320.771 206.24 320.771 208.9ZM319.131 208.9C319.131 206.66 318.391 204.98 316.711 204.98C315.011 204.98 314.271 206.66 314.271 208.9C314.271 211.14 315.011 212.82 316.711 212.82C318.391 212.82 319.131 211.14 319.131 208.9ZM325.284 212.98C325.284 213.62 324.764 214.14 324.144 214.14C323.504 214.14 322.984 213.62 322.984 212.98C322.984 212.36 323.504 211.84 324.144 211.84C324.764 211.84 325.284 212.36 325.284 212.98ZM335.634 208.9C335.634 211.56 334.594 214.22 331.574 214.22C328.534 214.22 327.494 211.56 327.494 208.9C327.494 206.24 328.534 203.58 331.574 203.58C334.594 203.58 335.634 206.24 335.634 208.9ZM333.994 208.9C333.994 206.66 333.254 204.98 331.574 204.98C329.874 204.98 329.134 206.66 329.134 208.9C329.134 211.14 329.874 212.82 331.574 212.82C333.254 212.82 333.994 211.14 333.994 208.9ZM345.927 208.9C345.927 211.56 344.887 214.22 341.867 214.22C338.827 214.22 337.787 211.56 337.787 208.9C337.787 206.24 338.827 203.58 341.867 203.58C344.887 203.58 345.927 206.24 345.927 208.9ZM344.287 208.9C344.287 206.66 343.547 204.98 341.867 204.98C340.167 204.98 339.427 206.66 339.427 208.9C339.427 211.14 340.167 212.82 341.867 212.82C343.547 212.82 344.287 211.14 344.287 208.9Z" fill="#00157E"/>
<g clip-path="url(#clip2_697_92433)">
<path d="M20.355 270.578L20.103 271.53C19.907 271.46 19.725 271.418 19.445 271.418C18.815 271.418 18.353 271.824 18.353 272.65V273.448H20.159V274.358H18.353V280H17.247V274.358H16.281V273.616L17.247 273.42V272.734C17.247 271.32 18.199 270.452 19.501 270.452C19.851 270.452 20.103 270.508 20.355 270.578ZM24.4086 274.414C23.6526 274.414 23.0926 274.61 22.5886 275.072V280H21.4686V274.96L21.2726 273.518L22.3786 273.336L22.4906 274.232H22.5046C22.9526 273.728 23.5406 273.308 24.4086 273.308V274.414ZM30.7632 276.724C30.7632 278.642 29.8532 280.154 27.9632 280.154C25.8912 280.154 25.1632 278.684 25.1632 276.724C25.1632 274.806 26.0732 273.294 27.9632 273.294C30.0352 273.294 30.7632 274.764 30.7632 276.724ZM29.6152 276.752C29.6152 275.128 29.0692 274.274 27.9632 274.274C26.8852 274.274 26.3112 275.03 26.3112 276.682C26.3112 278.306 26.8572 279.174 27.9632 279.174C29.0412 279.174 29.6152 278.404 29.6152 276.752ZM41.3489 280H40.2429V275.744C40.2429 274.778 39.8789 274.288 38.9829 274.288C38.3529 274.288 37.8209 274.596 37.4709 274.946C37.4709 274.946 37.5129 275.184 37.5129 275.436V280H36.3929V275.744C36.3929 274.778 36.0289 274.288 35.1469 274.288C34.5169 274.288 34.0689 274.54 33.6629 274.918V280H32.5429V274.96L32.3469 273.518L33.4529 273.336L33.5649 274.106H33.5789C34.0689 273.63 34.7129 273.294 35.5249 273.294C36.2809 273.294 36.9109 273.63 37.2469 274.232H37.2609C37.7789 273.714 38.4509 273.294 39.3749 273.294C40.4949 273.294 41.3489 274.008 41.3489 275.352V280Z" fill="#00157E" fill-opacity="0.7"/>
</g>
<path d="M16 300C16 295.582 19.5817 292 24 292H351C355.418 292 359 295.582 359 300V352C359 356.418 355.418 360 351 360H24C19.5817 360 16 356.418 16 352V300Z" fill="white"/>
<path d="M24 292.5H351C355.142 292.5 358.5 295.858 358.5 300V352C358.5 356.142 355.142 359.5 351 359.5H24C19.8579 359.5 16.5 356.142 16.5 352V300C16.5 295.858 19.8579 292.5 24 292.5Z" stroke="#00157E" stroke-opacity="0.7"/>
<path d="M44 316C45.6569 316 47 314.657 47 313C47 311.343 45.6569 310 44 310C42.3431 310 41 311.343 41 313C41 314.657 42.3431 316 44 316Z" stroke="#00157E" stroke-width="2" stroke-linecap="round" stroke-linejoin="round"/>
<path d="M44 330V316" stroke="#00157E" stroke-width="2" stroke-linecap="round" stroke-linejoin="round"/>
<path d="M37 320H34C34 322.652 35.0536 325.196 36.9289 327.071C38.8043 328.946 41.3478 330 44 330C46.6522 330 49.1957 328.946 51.0711 327.071C52.9464 325.196 54 322.652 54 320H51" stroke="#00157E" stroke-width="2" stroke-linecap="round" stroke-linejoin="round"/>
<path d="M78.048 313.326C78.048 314.936 76.886 316.168 75.108 316.168C74.114 316.168 73.316 315.986 72.49 315.594L73.092 314.012C73.652 314.292 74.296 314.53 74.954 314.53C75.724 314.53 76.186 314.264 76.186 313.69C76.186 313.186 75.836 313.004 75.234 312.738L74.17 312.276C73.232 311.87 72.532 311.268 72.532 309.952C72.532 308.342 73.946 307.404 75.486 307.404C76.41 307.404 77.012 307.6 77.754 307.908L77.138 309.448C76.704 309.238 76.172 309 75.584 309C74.898 309 74.366 309.252 74.366 309.826C74.366 310.302 74.716 310.498 75.262 310.722L76.298 311.156C77.334 311.59 78.048 312.262 78.048 313.326ZM84.1645 315.902L82.4565 316.126L82.3725 315.398H82.3585C81.9665 315.748 81.4485 316.168 80.6925 316.168C79.6565 316.168 78.9705 315.524 78.9705 314.418C78.9705 313.158 79.9085 312.584 81.2665 312.444L82.1905 312.346V311.898C82.1905 311.226 81.9105 310.764 81.0705 310.764C80.5525 310.764 80.2025 310.918 79.8245 311.128L79.1805 309.924C79.8385 309.49 80.4685 309.21 81.4765 309.21C83.0865 309.21 83.9405 310.078 83.9405 311.492V314.264L84.1645 315.902ZM82.1905 314.572V313.354L81.5885 313.424C81.0425 313.494 80.6925 313.718 80.6925 314.18C80.6925 314.586 80.9305 314.894 81.3505 314.894C81.7565 314.894 81.9945 314.74 82.1905 314.572ZM91.1562 309.378L88.7062 315.93L86.9562 316.126L84.8002 309.574L86.5642 309.168L87.9082 313.83H87.9222L89.4482 309.378H91.1562ZM93.993 316H92.215V311.1L91.991 309.462L93.993 309.238V316ZM94.161 307.516C94.161 308.104 93.699 308.58 93.111 308.58C92.523 308.58 92.061 308.104 92.061 307.516C92.061 306.942 92.523 306.466 93.111 306.466C93.699 306.466 94.161 306.942 94.161 307.516ZM101.355 316H99.577V311.8C99.577 311.086 99.283 310.764 98.653 310.764C98.191 310.764 97.799 310.988 97.547 311.24V316H95.769V311.1L95.545 309.462L97.253 309.238L97.337 309.966H97.351C97.743 309.574 98.401 309.21 99.283 309.21C100.431 309.21 101.355 309.868 101.355 311.366V316ZM108.865 310.456H107.591C107.745 310.764 107.815 311.1 107.815 311.478C107.815 312.696 106.975 313.76 105.351 313.76C105.113 313.76 104.875 313.732 104.665 313.69C104.665 313.69 104.413 313.872 104.413 314.18C104.413 314.488 104.637 314.572 104.931 314.572H107.003C108.165 314.572 108.781 315.048 108.781 316.028C108.781 317.386 107.591 319.01 105.029 319.01C103.461 319.01 102.621 318.394 102.621 317.204C102.621 316.112 103.447 315.706 103.447 315.706C103.153 315.482 102.943 315.202 102.943 314.656C102.943 313.844 103.615 313.424 103.797 313.34C103.167 312.92 102.859 312.234 102.859 311.478C102.859 310.26 103.713 309.196 105.351 309.196C105.883 309.196 106.345 309.308 106.709 309.504L108.865 309.21V310.456ZM107.269 316.434C107.269 316.154 107.045 316.07 106.667 316.07H104.987C104.777 316.07 104.567 316.056 104.371 316.028C104.371 316.028 104.063 316.294 104.063 316.784C104.063 317.372 104.483 317.652 105.211 317.652C106.485 317.652 107.269 317.036 107.269 316.434ZM106.219 311.492C106.219 310.834 105.869 310.498 105.351 310.498C104.833 310.498 104.455 310.848 104.455 311.492C104.455 312.164 104.819 312.486 105.351 312.486C105.855 312.486 106.219 312.15 106.219 311.492ZM114.229 313.872C114.229 315.146 113.207 316.154 111.667 316.154C110.869 316.154 110.155 316.028 109.553 315.748L110.015 314.292C110.519 314.502 111.009 314.712 111.569 314.712C112.171 314.712 112.465 314.502 112.465 314.152C112.465 313.83 112.311 313.704 111.947 313.55L110.911 313.116C110.295 312.864 109.623 312.402 109.623 311.31C109.623 309.938 110.785 309.21 112.171 309.21C112.955 309.21 113.487 309.336 114.117 309.602L113.571 311.03C113.123 310.848 112.689 310.666 112.185 310.666C111.639 310.666 111.331 310.82 111.331 311.184C111.331 311.534 111.611 311.66 111.863 311.758L112.941 312.192C113.781 312.528 114.229 313.06 114.229 313.872ZM125.265 315.776L123.459 316.238L122.745 313.662H120.393L119.749 316H117.859L120.659 307.572H122.577L125.265 315.776ZM122.437 312.444L121.597 309.364H121.583L120.729 312.444H122.437ZM130.877 309.518L130.345 311.072C129.995 310.918 129.673 310.792 129.197 310.792C128.315 310.792 127.657 311.422 127.657 312.612C127.657 313.956 128.259 314.544 129.113 314.544C129.617 314.544 129.883 314.432 130.303 314.264L130.835 315.72C130.219 316 129.645 316.168 128.889 316.168C126.901 316.168 125.851 314.824 125.851 312.71C125.851 310.274 127.503 309.21 129.197 309.21C129.855 309.21 130.303 309.294 130.877 309.518ZM136.428 309.518L135.896 311.072C135.546 310.918 135.224 310.792 134.748 310.792C133.866 310.792 133.208 311.422 133.208 312.612C133.208 313.956 133.81 314.544 134.664 314.544C135.168 314.544 135.434 314.432 135.854 314.264L136.386 315.72C135.77 316 135.196 316.168 134.44 316.168C132.452 316.168 131.402 314.824 131.402 312.71C131.402 310.274 133.054 309.21 134.748 309.21C135.406 309.21 135.854 309.294 136.428 309.518ZM142.917 312.668C142.917 314.656 141.881 316.154 139.935 316.154C137.835 316.154 136.953 314.67 136.953 312.668C136.953 310.68 137.989 309.224 139.935 309.224C142.035 309.224 142.917 310.666 142.917 312.668ZM141.153 312.682C141.153 311.324 140.705 310.778 139.935 310.778C139.165 310.778 138.717 311.296 138.717 312.654C138.717 313.998 139.165 314.6 139.935 314.6C140.705 314.6 141.153 314.026 141.153 312.682ZM150.114 315.902L148.406 316.126L148.308 315.412H148.294C147.902 315.79 147.244 316.168 146.362 316.168C145.228 316.168 144.304 315.496 144.304 314.012V311.1L144.08 309.462L146.082 309.238V313.578C146.082 314.292 146.376 314.614 146.992 314.614C147.454 314.614 147.846 314.404 148.112 314.138V311.1L147.888 309.462L149.89 309.238V314.264L150.114 315.902ZM157.259 316H155.481V311.8C155.481 311.086 155.187 310.764 154.557 310.764C154.095 310.764 153.703 310.988 153.451 311.24V316H151.673V311.1L151.449 309.462L153.157 309.238L153.241 309.966H153.255C153.647 309.574 154.305 309.21 155.187 309.21C156.335 309.21 157.259 309.868 157.259 311.366V316ZM163.103 315.678C162.529 315.986 162.095 316.154 161.213 316.154C159.897 316.154 159.253 315.272 159.253 313.956V310.778H158.231V309.602L159.253 309.364V308.216L161.017 308.006V309.378H162.837V310.778H161.017V313.48C161.017 314.362 161.241 314.586 161.815 314.586C162.137 314.586 162.319 314.502 162.627 314.362L163.103 315.678Z" fill="#00157E"/>
<path d="M77.964 330.628C77.292 330.976 76.608 331.132 75.696 331.132C73.932 331.132 72.576 329.944 72.576 327.544C72.576 324.988 74.088 323.644 76.032 323.644C76.836 323.644 77.328 323.764 77.94 324.028L77.556 324.904C77.1 324.7 76.668 324.544 76.02 324.544C74.76 324.544 73.608 325.516 73.608 327.292C73.608 329.272 74.34 330.244 76.092 330.244C76.668 330.244 77.196 330.016 77.628 329.824L77.964 330.628ZM84.4867 331H83.4787V327.7H80.2267V331H79.2187V323.776H80.2267V326.848H83.4787V323.776H84.4867V331ZM89.9043 330.52C89.9043 331.96 88.9803 332.872 87.3963 332.872C86.9283 332.872 86.4363 332.788 85.9923 332.68L86.2083 331.78C86.6043 331.9 86.9403 331.996 87.4203 331.996C88.3683 331.996 88.9443 331.528 88.9443 330.664C88.9443 329.488 87.8643 329.032 86.3403 329.032V328.348C88.1163 328.24 88.6083 327.448 88.6083 326.668C88.6083 325.984 88.1883 325.6 87.5163 325.6C86.9643 325.6 86.6403 325.78 86.2803 326.02L85.8843 325.36C86.3163 325.024 86.8683 324.748 87.7083 324.748C88.8603 324.748 89.5683 325.432 89.5683 326.548C89.5683 327.52 89.0043 328.168 88.2003 328.552V328.564C89.3763 328.816 89.9043 329.596 89.9043 330.52ZM94.9696 329.92C94.9696 332.224 92.7976 332.872 91.2496 332.992L91.1296 332.176C92.2216 332.056 93.9856 331.624 93.9856 330.052C93.9856 329.068 93.4336 328.492 91.8976 328.492H91.0936L91.3576 324.88H94.7776V325.756H92.1856L92.0296 327.772C92.0296 327.772 92.3056 327.748 92.5576 327.748C93.9496 327.748 94.9696 328.48 94.9696 329.92ZM103.559 327.94C103.559 329.536 102.935 331.132 101.123 331.132C99.2993 331.132 98.6753 329.536 98.6753 327.94C98.6753 326.344 99.2993 324.748 101.123 324.748C102.935 324.748 103.559 326.344 103.559 327.94ZM102.575 327.94C102.575 326.596 102.131 325.588 101.123 325.588C100.103 325.588 99.6593 326.596 99.6593 327.94C99.6593 329.284 100.103 330.292 101.123 330.292C102.131 330.292 102.575 329.284 102.575 327.94ZM109.123 327.844C109.123 331.156 107.443 332.704 105.055 332.992L104.863 332.212C106.375 332.032 107.899 331.06 108.115 328.768L108.103 328.756C108.103 328.756 107.539 329.236 106.687 329.236C105.487 329.236 104.707 328.336 104.707 327.1C104.707 325.6 105.607 324.748 106.963 324.748C108.355 324.748 109.123 325.708 109.123 327.844ZM108.127 327.832C108.127 326.644 107.911 325.564 106.843 325.564C106.087 325.564 105.643 326.188 105.643 326.968C105.643 327.964 106.099 328.444 106.951 328.444C107.683 328.444 108.127 328.012 108.127 328.012V327.832ZM115.348 327.94C115.348 329.536 114.724 331.132 112.912 331.132C111.088 331.132 110.464 329.536 110.464 327.94C110.464 326.344 111.088 324.748 112.912 324.748C114.724 324.748 115.348 326.344 115.348 327.94ZM114.364 327.94C114.364 326.596 113.92 325.588 112.912 325.588C111.892 325.588 111.448 326.596 111.448 327.94C111.448 329.284 111.892 330.292 112.912 330.292C113.92 330.292 114.364 329.284 114.364 327.94ZM121.524 327.94C121.524 329.536 120.9 331.132 119.088 331.132C117.264 331.132 116.64 329.536 116.64 327.94C116.64 326.344 117.264 324.748 119.088 324.748C120.9 324.748 121.524 326.344 121.524 327.94ZM120.54 327.94C120.54 326.596 120.096 325.588 119.088 325.588C118.068 325.588 117.624 326.596 117.624 327.94C117.624 329.284 118.068 330.292 119.088 330.292C120.096 330.292 120.54 329.284 120.54 327.94ZM130.22 327.94C130.22 329.536 129.596 331.132 127.784 331.132C125.96 331.132 125.336 329.536 125.336 327.94C125.336 326.344 125.96 324.748 127.784 324.748C129.596 324.748 130.22 326.344 130.22 327.94ZM129.236 327.94C129.236 326.596 128.792 325.588 127.784 325.588C126.764 325.588 126.32 326.596 126.32 327.94C126.32 329.284 126.764 330.292 127.784 330.292C128.792 330.292 129.236 329.284 129.236 327.94ZM136.395 327.94C136.395 329.536 135.771 331.132 133.959 331.132C132.135 331.132 131.511 329.536 131.511 327.94C131.511 326.344 132.135 324.748 133.959 324.748C135.771 324.748 136.395 326.344 136.395 327.94ZM135.411 327.94C135.411 326.596 134.967 325.588 133.959 325.588C132.939 325.588 132.495 326.596 132.495 327.94C132.495 329.284 132.939 330.292 133.959 330.292C134.967 330.292 135.411 329.284 135.411 327.94ZM142.571 327.94C142.571 329.536 141.947 331.132 140.135 331.132C138.311 331.132 137.687 329.536 137.687 327.94C137.687 326.344 138.311 324.748 140.135 324.748C141.947 324.748 142.571 326.344 142.571 327.94ZM141.587 327.94C141.587 326.596 141.143 325.588 140.135 325.588C139.115 325.588 138.671 326.596 138.671 327.94C138.671 329.284 139.115 330.292 140.135 330.292C141.143 330.292 141.587 329.284 141.587 327.94ZM148.747 327.94C148.747 329.536 148.123 331.132 146.311 331.132C144.487 331.132 143.863 329.536 143.863 327.94C143.863 326.344 144.487 324.748 146.311 324.748C148.123 324.748 148.747 326.344 148.747 327.94ZM147.763 327.94C147.763 326.596 147.319 325.588 146.311 325.588C145.291 325.588 144.847 326.596 144.847 327.94C144.847 329.284 145.291 330.292 146.311 330.292C147.319 330.292 147.763 329.284 147.763 327.94ZM156.842 331H152.39V330.376L154.442 328.408C154.994 327.868 155.414 327.472 155.414 326.812C155.414 326.116 154.982 325.6 154.178 325.6C153.638 325.6 153.254 325.84 152.966 326.08L152.51 325.444C153.026 325.012 153.554 324.748 154.382 324.748C155.57 324.748 156.386 325.444 156.386 326.704C156.386 327.544 155.882 328.18 155.306 328.708L153.77 330.124V330.136H156.842V331ZM163.36 330.244H161.908V332.692L160.984 332.848V330.244H157.684V329.464L161.02 324.88H161.908V329.428H163.36V330.244ZM160.984 329.428V326.176H160.972L158.668 329.428H160.984ZM167.969 325.696L164.537 332.98L163.733 332.572L166.925 325.756H163.661V324.88H167.969V325.696ZM173.708 327.94C173.708 329.536 173.084 331.132 171.272 331.132C169.448 331.132 168.824 329.536 168.824 327.94C168.824 326.344 169.448 324.748 171.272 324.748C173.084 324.748 173.708 326.344 173.708 327.94ZM172.724 327.94C172.724 326.596 172.28 325.588 171.272 325.588C170.252 325.588 169.808 326.596 169.808 327.94C169.808 329.284 170.252 330.292 171.272 330.292C172.28 330.292 172.724 329.284 172.724 327.94ZM181.803 331H177.351V330.376L179.403 328.408C179.955 327.868 180.375 327.472 180.375 326.812C180.375 326.116 179.943 325.6 179.139 325.6C178.599 325.6 178.215 325.84 177.927 326.08L177.471 325.444C177.987 325.012 178.515 324.748 179.343 324.748C180.531 324.748 181.347 325.444 181.347 326.704C181.347 327.544 180.843 328.18 180.267 328.708L178.731 330.124V330.136H181.803V331ZM187.088 327.844C187.088 331.156 185.408 332.704 183.02 332.992L182.828 332.212C184.34 332.032 185.864 331.06 186.08 328.768L186.068 328.756C186.068 328.756 185.504 329.236 184.652 329.236C183.452 329.236 182.672 328.336 182.672 327.1C182.672 325.6 183.572 324.748 184.928 324.748C186.32 324.748 187.088 325.708 187.088 327.844ZM186.092 327.832C186.092 326.644 185.876 325.564 184.808 325.564C184.052 325.564 183.608 326.188 183.608 326.968C183.608 327.964 184.064 328.444 184.916 328.444C185.648 328.444 186.092 328.012 186.092 328.012V327.832ZM192.713 331H188.261V330.376L190.313 328.408C190.865 327.868 191.285 327.472 191.285 326.812C191.285 326.116 190.853 325.6 190.049 325.6C189.509 325.6 189.125 325.84 188.837 326.08L188.381 325.444C188.897 325.012 189.425 324.748 190.253 324.748C191.441 324.748 192.257 325.444 192.257 326.704C192.257 327.544 191.753 328.18 191.177 328.708L189.641 330.124V330.136H192.713V331ZM198.61 327.94C198.61 329.536 197.986 331.132 196.174 331.132C194.35 331.132 193.726 329.536 193.726 327.94C193.726 326.344 194.35 324.748 196.174 324.748C197.986 324.748 198.61 326.344 198.61 327.94ZM197.626 327.94C197.626 326.596 197.182 325.588 196.174 325.588C195.154 325.588 194.71 326.596 194.71 327.94C194.71 329.284 195.154 330.292 196.174 330.292C197.182 330.292 197.626 329.284 197.626 327.94ZM206.705 331H202.253V330.376L204.305 328.408C204.857 327.868 205.277 327.472 205.277 326.812C205.277 326.116 204.845 325.6 204.041 325.6C203.501 325.6 203.117 325.84 202.829 326.08L202.373 325.444C202.889 325.012 203.417 324.748 204.245 324.748C205.433 324.748 206.249 325.444 206.249 326.704C206.249 327.544 205.745 328.18 205.169 328.708L203.633 330.124V330.136H206.705V331Z" fill="#00157E" fill-opacity="0.7"/>
<g clip-path="url(#clip3_697_92433)">
<path d="M265.964 314.628C265.292 314.976 264.608 315.132 263.696 315.132C261.932 315.132 260.576 313.944 260.576 311.544C260.576 308.988 262.088 307.644 264.032 307.644C264.836 307.644 265.328 307.764 265.94 308.028L265.556 308.904C265.1 308.7 264.668 308.544 264.02 308.544C262.76 308.544 261.608 309.516 261.608 311.292C261.608 313.272 262.34 314.244 264.092 314.244C264.668 314.244 265.196 314.016 265.628 313.824L265.964 314.628ZM272.487 315H271.479V311.7H268.227V315H267.219V307.776H268.227V310.848H271.479V307.776H272.487V315ZM278.072 308.628H275.48V310.98H277.82V311.832H275.48V315H274.484V307.776H278.072V308.628Z" fill="#00157E" fill-opacity="0.7"/>
<path d="M293.483 316H288.037V314.922L290.263 312.864C290.781 312.388 291.131 312.038 291.131 311.38C291.131 310.736 290.725 310.302 290.081 310.302C289.479 310.302 289.101 310.54 288.793 310.778L288.009 309.602C288.653 309.042 289.395 308.692 290.445 308.692C291.929 308.692 292.951 309.56 292.951 311.086C292.951 312.024 292.405 312.752 291.817 313.284L290.599 314.376V314.39H293.483V316ZM299.421 314.558C299.421 317.064 297.279 318.044 294.773 318.338L294.507 316.826C295.683 316.644 297.601 316.238 297.601 314.74C297.601 313.802 296.915 313.34 295.333 313.34H294.507L294.773 308.86H299.169V310.456H296.243L296.145 312.108C296.145 312.108 296.411 312.094 296.691 312.094C298.399 312.094 299.421 312.934 299.421 314.558ZM302.692 308.594C302.692 310.022 302.118 310.82 301.082 311.562L300.578 311.016C301.068 310.596 301.39 310.148 301.502 309.532C300.984 309.476 300.564 309.014 300.564 308.482C300.564 307.908 301.04 307.432 301.614 307.432C302.216 307.432 302.692 307.88 302.692 308.594ZM309.974 312.43C309.974 314.39 309.12 316.168 306.964 316.168C304.808 316.168 303.954 314.39 303.954 312.43C303.954 310.47 304.808 308.692 306.964 308.692C309.12 308.692 309.974 310.47 309.974 312.43ZM308.182 312.43C308.182 311.086 307.804 310.274 306.964 310.274C306.138 310.274 305.746 311.086 305.746 312.43C305.746 313.774 306.138 314.586 306.964 314.586C307.804 314.586 308.182 313.774 308.182 312.43ZM317.22 312.43C317.22 314.39 316.366 316.168 314.21 316.168C312.054 316.168 311.2 314.39 311.2 312.43C311.2 310.47 312.054 308.692 314.21 308.692C316.366 308.692 317.22 310.47 317.22 312.43ZM315.428 312.43C315.428 311.086 315.05 310.274 314.21 310.274C313.384 310.274 312.992 311.086 312.992 312.43C312.992 313.774 313.384 314.586 314.21 314.586C315.05 314.586 315.428 313.774 315.428 312.43ZM324.466 312.43C324.466 314.39 323.612 316.168 321.456 316.168C319.3 316.168 318.446 314.39 318.446 312.43C318.446 310.47 319.3 308.692 321.456 308.692C323.612 308.692 324.466 310.47 324.466 312.43ZM322.674 312.43C322.674 311.086 322.296 310.274 321.456 310.274C320.63 310.274 320.238 311.086 320.238 312.43C320.238 313.774 320.63 314.586 321.456 314.586C322.296 314.586 322.674 313.774 322.674 312.43ZM327.862 315.048C327.862 315.636 327.386 316.112 326.798 316.112C326.21 316.112 325.734 315.636 325.734 315.048C325.734 314.474 326.21 313.998 326.798 313.998C327.386 313.998 327.862 314.474 327.862 315.048ZM335.144 312.43C335.144 314.39 334.29 316.168 332.134 316.168C329.978 316.168 329.124 314.39 329.124 312.43C329.124 310.47 329.978 308.692 332.134 308.692C334.29 308.692 335.144 310.47 335.144 312.43ZM333.352 312.43C333.352 311.086 332.974 310.274 332.134 310.274C331.308 310.274 330.916 311.086 330.916 312.43C330.916 313.774 331.308 314.586 332.134 314.586C332.974 314.586 333.352 313.774 333.352 312.43ZM342.39 312.43C342.39 314.39 341.536 316.168 339.38 316.168C337.224 316.168 336.37 314.39 336.37 312.43C336.37 310.47 337.224 308.692 339.38 308.692C341.536 308.692 342.39 310.47 342.39 312.43ZM340.598 312.43C340.598 311.086 340.22 310.274 339.38 310.274C338.554 310.274 338.162 311.086 338.162 312.43C338.162 313.774 338.554 314.586 339.38 314.586C340.22 314.586 340.598 313.774 340.598 312.43Z" fill="#00157E"/>
<path d="M325 329L331 335L337 329" stroke="#00157E" stroke-width="2" stroke-linecap="round" stroke-linejoin="round"/>
</g>
<g clip-path="url(#clip4_697_92433)">
<path d="M20.397 411.734C19.991 411.958 19.613 412.14 18.899 412.14C17.891 412.14 17.247 411.482 17.247 410.362V406.358H16.281V405.616L17.247 405.42V404.328L18.353 404.188V405.448H20.187V406.358H18.353V409.984C18.353 410.866 18.577 411.146 19.221 411.146C19.571 411.146 19.837 411.006 20.033 410.88L20.397 411.734ZM26.8531 408.724C26.8531 410.642 25.9431 412.154 24.0531 412.154C21.9811 412.154 21.2531 410.684 21.2531 408.724C21.2531 406.806 22.1631 405.294 24.0531 405.294C26.1251 405.294 26.8531 406.764 26.8531 408.724ZM25.7051 408.752C25.7051 407.128 25.1591 406.274 24.0531 406.274C22.9751 406.274 22.4011 407.03 22.4011 408.682C22.4011 410.306 22.9471 411.174 24.0531 411.174C25.1311 411.174 25.7051 410.404 25.7051 408.752Z" fill="#00157E" fill-opacity="0.7"/>
</g>
<path d="M16 432C16 427.582 19.5817 424 24 424H351C355.418 424 359 427.582 359 432V484C359 488.418 355.418 492 351 492H24C19.5817 492 16 488.418 16 484V432Z" fill="white"/>
<path d="M24 424.5H351C355.142 424.5 358.5 427.858 358.5 432V484C358.5 488.142 355.142 491.5 351 491.5H24C19.8579 491.5 16.5 488.142 16.5 484V432C16.5 427.858 19.8579 424.5 24 424.5Z" stroke="#00157E" stroke-opacity="0.7"/>
<path d="M35 449L44 442L53 449V460C53 460.53 52.7893 461.039 52.4142 461.414C52.0391 461.789 51.5304 462 51 462H37C36.4696 462 35.9609 461.789 35.5858 461.414C35.2107 461.039 35 460.53 35 460V449Z" stroke="#00157E" stroke-width="2" stroke-linecap="round" stroke-linejoin="round"/>
<path d="M41 462V452H47V462" stroke="#00157E" stroke-width="2" stroke-linecap="round" stroke-linejoin="round"/>
<path d="M79.616 448H77.74V444.5H74.856V448H72.966V439.572H74.856V442.96H77.74V439.572H79.616V448ZM87.0399 444.668C87.0399 446.656 86.0039 448.154 84.0579 448.154C81.9579 448.154 81.0759 446.67 81.0759 444.668C81.0759 442.68 82.1119 441.224 84.0579 441.224C86.1579 441.224 87.0399 442.666 87.0399 444.668ZM85.2759 444.682C85.2759 443.324 84.8279 442.778 84.0579 442.778C83.2879 442.778 82.8399 443.296 82.8399 444.654C82.8399 445.998 83.2879 446.6 84.0579 446.6C84.8279 446.6 85.2759 446.026 85.2759 444.682ZM94.2373 447.902L92.5293 448.126L92.4313 447.412H92.4173C92.0253 447.79 91.3673 448.168 90.4853 448.168C89.3513 448.168 88.4273 447.496 88.4273 446.012V443.1L88.2033 441.462L90.2053 441.238V445.578C90.2053 446.292 90.4993 446.614 91.1153 446.614C91.5773 446.614 91.9693 446.404 92.2353 446.138V443.1L92.0113 441.462L94.0133 441.238V446.264L94.2373 447.902ZM100.01 445.872C100.01 447.146 98.9884 448.154 97.4484 448.154C96.6504 448.154 95.9364 448.028 95.3344 447.748L95.7964 446.292C96.3004 446.502 96.7904 446.712 97.3504 446.712C97.9524 446.712 98.2464 446.502 98.2464 446.152C98.2464 445.83 98.0924 445.704 97.7284 445.55L96.6924 445.116C96.0764 444.864 95.4044 444.402 95.4044 443.31C95.4044 441.938 96.5664 441.21 97.9524 441.21C98.7364 441.21 99.2684 441.336 99.8984 441.602L99.3524 443.03C98.9044 442.848 98.4704 442.666 97.9664 442.666C97.4204 442.666 97.1124 442.82 97.1124 443.184C97.1124 443.534 97.3924 443.66 97.6444 443.758L98.7224 444.192C99.5624 444.528 100.01 445.06 100.01 445.872ZM106.469 447.608C105.727 447.986 105.111 448.168 104.215 448.168C102.003 448.168 101.023 446.824 101.023 444.584C101.023 442.582 102.213 441.224 103.977 441.224C105.825 441.224 106.427 442.498 106.427 444.094V444.878H102.759C102.815 446.054 103.375 446.614 104.439 446.614C105.069 446.614 105.419 446.46 105.923 446.25L106.469 447.608ZM104.873 443.8C104.873 443.114 104.579 442.652 103.921 442.652C103.221 442.652 102.871 443.184 102.787 443.8H104.873ZM113.344 448H111.566V443.8C111.566 443.142 111.286 442.778 110.628 442.778C110.082 442.778 109.69 443.1 109.55 443.226V448H107.772V440.286L107.548 438.648L109.55 438.424V441.826H109.564C109.732 441.672 110.334 441.21 111.3 441.21C112.476 441.21 113.344 441.882 113.344 443.366V448ZM120.673 444.668C120.673 446.656 119.637 448.154 117.691 448.154C115.591 448.154 114.709 446.67 114.709 444.668C114.709 442.68 115.745 441.224 117.691 441.224C119.791 441.224 120.673 442.666 120.673 444.668ZM118.909 444.682C118.909 443.324 118.461 442.778 117.691 442.778C116.921 442.778 116.473 443.296 116.473 444.654C116.473 445.998 116.921 446.6 117.691 446.6C118.461 446.6 118.909 446.026 118.909 444.682ZM123.81 448H122.032V440.272L121.808 438.648L123.81 438.424V448ZM131.048 447.916L129.354 448.126L129.256 447.44H129.242C129.074 447.58 128.528 448.168 127.632 448.168C125.98 448.168 125.154 446.768 125.154 444.92C125.154 442.54 126.512 441.322 128.43 441.322C128.78 441.322 129.046 441.378 129.046 441.378V440.286L128.822 438.648L130.824 438.424V446.278L131.048 447.916ZM128.178 446.586C128.598 446.586 128.92 446.404 129.046 446.292V442.904C129.046 442.904 128.808 442.792 128.374 442.792C127.52 442.792 126.946 443.464 126.946 444.654C126.946 445.984 127.296 446.586 128.178 446.586Z" fill="#00157E"/>
<path d="M77.964 462.628C77.292 462.976 76.608 463.132 75.696 463.132C73.932 463.132 72.576 461.944 72.576 459.544C72.576 456.988 74.088 455.644 76.032 455.644C76.836 455.644 77.328 455.764 77.94 456.028L77.556 456.904C77.1 456.7 76.668 456.544 76.02 456.544C74.76 456.544 73.608 457.516 73.608 459.292C73.608 461.272 74.34 462.244 76.092 462.244C76.668 462.244 77.196 462.016 77.628 461.824L77.964 462.628ZM84.4867 463H83.4787V459.7H80.2267V463H79.2187V455.776H80.2267V458.848H83.4787V455.776H84.4867V463ZM89.9043 462.52C89.9043 463.96 88.9803 464.872 87.3963 464.872C86.9283 464.872 86.4363 464.788 85.9923 464.68L86.2083 463.78C86.6043 463.9 86.9403 463.996 87.4203 463.996C88.3683 463.996 88.9443 463.528 88.9443 462.664C88.9443 461.488 87.8643 461.032 86.3403 461.032V460.348C88.1163 460.24 88.6083 459.448 88.6083 458.668C88.6083 457.984 88.1883 457.6 87.5163 457.6C86.9643 457.6 86.6403 457.78 86.2803 458.02L85.8843 457.36C86.3163 457.024 86.8683 456.748 87.7083 456.748C88.8603 456.748 89.5683 457.432 89.5683 458.548C89.5683 459.52 89.0043 460.168 88.2003 460.552V460.564C89.3763 460.816 89.9043 461.596 89.9043 462.52ZM94.9696 461.92C94.9696 464.224 92.7976 464.872 91.2496 464.992L91.1296 464.176C92.2216 464.056 93.9856 463.624 93.9856 462.052C93.9856 461.068 93.4336 460.492 91.8976 460.492H91.0936L91.3576 456.88H94.7776V457.756H92.1856L92.0296 459.772C92.0296 459.772 92.3056 459.748 92.5576 459.748C93.9496 459.748 94.9696 460.48 94.9696 461.92ZM103.559 459.94C103.559 461.536 102.935 463.132 101.123 463.132C99.2993 463.132 98.6753 461.536 98.6753 459.94C98.6753 458.344 99.2993 456.748 101.123 456.748C102.935 456.748 103.559 458.344 103.559 459.94ZM102.575 459.94C102.575 458.596 102.131 457.588 101.123 457.588C100.103 457.588 99.6593 458.596 99.6593 459.94C99.6593 461.284 100.103 462.292 101.123 462.292C102.131 462.292 102.575 461.284 102.575 459.94ZM109.123 459.844C109.123 463.156 107.443 464.704 105.055 464.992L104.863 464.212C106.375 464.032 107.899 463.06 108.115 460.768L108.103 460.756C108.103 460.756 107.539 461.236 106.687 461.236C105.487 461.236 104.707 460.336 104.707 459.1C104.707 457.6 105.607 456.748 106.963 456.748C108.355 456.748 109.123 457.708 109.123 459.844ZM108.127 459.832C108.127 458.644 107.911 457.564 106.843 457.564C106.087 457.564 105.643 458.188 105.643 458.968C105.643 459.964 106.099 460.444 106.951 460.444C107.683 460.444 108.127 460.012 108.127 460.012V459.832ZM115.348 459.94C115.348 461.536 114.724 463.132 112.912 463.132C111.088 463.132 110.464 461.536 110.464 459.94C110.464 458.344 111.088 456.748 112.912 456.748C114.724 456.748 115.348 458.344 115.348 459.94ZM114.364 459.94C114.364 458.596 113.92 457.588 112.912 457.588C111.892 457.588 111.448 458.596 111.448 459.94C111.448 461.284 111.892 462.292 112.912 462.292C113.92 462.292 114.364 461.284 114.364 459.94ZM121.524 459.94C121.524 461.536 120.9 463.132 119.088 463.132C117.264 463.132 116.64 461.536 116.64 459.94C116.64 458.344 117.264 456.748 119.088 456.748C120.9 456.748 121.524 458.344 121.524 459.94ZM120.54 459.94C120.54 458.596 120.096 457.588 119.088 457.588C118.068 457.588 117.624 458.596 117.624 459.94C117.624 461.284 118.068 462.292 119.088 462.292C120.096 462.292 120.54 461.284 120.54 459.94ZM130.22 459.94C130.22 461.536 129.596 463.132 127.784 463.132C125.96 463.132 125.336 461.536 125.336 459.94C125.336 458.344 125.96 456.748 127.784 456.748C129.596 456.748 130.22 458.344 130.22 459.94ZM129.236 459.94C129.236 458.596 128.792 457.588 127.784 457.588C126.764 457.588 126.32 458.596 126.32 459.94C126.32 461.284 126.764 462.292 127.784 462.292C128.792 462.292 129.236 461.284 129.236 459.94ZM136.395 459.94C136.395 461.536 135.771 463.132 133.959 463.132C132.135 463.132 131.511 461.536 131.511 459.94C131.511 458.344 132.135 456.748 133.959 456.748C135.771 456.748 136.395 458.344 136.395 459.94ZM135.411 459.94C135.411 458.596 134.967 457.588 133.959 457.588C132.939 457.588 132.495 458.596 132.495 459.94C132.495 461.284 132.939 462.292 133.959 462.292C134.967 462.292 135.411 461.284 135.411 459.94ZM142.571 459.94C142.571 461.536 141.947 463.132 140.135 463.132C138.311 463.132 137.687 461.536 137.687 459.94C137.687 458.344 138.311 456.748 140.135 456.748C141.947 456.748 142.571 458.344 142.571 459.94ZM141.587 459.94C141.587 458.596 141.143 457.588 140.135 457.588C139.115 457.588 138.671 458.596 138.671 459.94C138.671 461.284 139.115 462.292 140.135 462.292C141.143 462.292 141.587 461.284 141.587 459.94ZM148.747 459.94C148.747 461.536 148.123 463.132 146.311 463.132C144.487 463.132 143.863 461.536 143.863 459.94C143.863 458.344 144.487 456.748 146.311 456.748C148.123 456.748 148.747 458.344 148.747 459.94ZM147.763 459.94C147.763 458.596 147.319 457.588 146.311 457.588C145.291 457.588 144.847 458.596 144.847 459.94C144.847 461.284 145.291 462.292 146.311 462.292C147.319 462.292 147.763 461.284 147.763 459.94ZM156.842 463H152.39V462.376L154.442 460.408C154.994 459.868 155.414 459.472 155.414 458.812C155.414 458.116 154.982 457.6 154.178 457.6C153.638 457.6 153.254 457.84 152.966 458.08L152.51 457.444C153.026 457.012 153.554 456.748 154.382 456.748C155.57 456.748 156.386 457.444 156.386 458.704C156.386 459.544 155.882 460.18 155.306 460.708L153.77 462.124V462.136H156.842V463ZM163.36 462.244H161.908V464.692L160.984 464.848V462.244H157.684V461.464L161.02 456.88H161.908V461.428H163.36V462.244ZM160.984 461.428V458.176H160.972L158.668 461.428H160.984ZM167.969 457.696L164.537 464.98L163.733 464.572L166.925 457.756H163.661V456.88H167.969V457.696ZM173.708 459.94C173.708 461.536 173.084 463.132 171.272 463.132C169.448 463.132 168.824 461.536 168.824 459.94C168.824 458.344 169.448 456.748 171.272 456.748C173.084 456.748 173.708 458.344 173.708 459.94ZM172.724 459.94C172.724 458.596 172.28 457.588 171.272 457.588C170.252 457.588 169.808 458.596 169.808 459.94C169.808 461.284 170.252 462.292 171.272 462.292C172.28 462.292 172.724 461.284 172.724 459.94ZM181.803 463H177.351V462.376L179.403 460.408C179.955 459.868 180.375 459.472 180.375 458.812C180.375 458.116 179.943 457.6 179.139 457.6C178.599 457.6 178.215 457.84 177.927 458.08L177.471 457.444C177.987 457.012 178.515 456.748 179.343 456.748C180.531 456.748 181.347 457.444 181.347 458.704C181.347 459.544 180.843 460.18 180.267 460.708L178.731 462.124V462.136H181.803V463ZM187.088 459.844C187.088 463.156 185.408 464.704 183.02 464.992L182.828 464.212C184.34 464.032 185.864 463.06 186.08 460.768L186.068 460.756C186.068 460.756 185.504 461.236 184.652 461.236C183.452 461.236 182.672 460.336 182.672 459.1C182.672 457.6 183.572 456.748 184.928 456.748C186.32 456.748 187.088 457.708 187.088 459.844ZM186.092 459.832C186.092 458.644 185.876 457.564 184.808 457.564C184.052 457.564 183.608 458.188 183.608 458.968C183.608 459.964 184.064 460.444 184.916 460.444C185.648 460.444 186.092 460.012 186.092 460.012V459.832ZM192.713 463H188.261V462.376L190.313 460.408C190.865 459.868 191.285 459.472 191.285 458.812C191.285 458.116 190.853 457.6 190.049 457.6C189.509 457.6 189.125 457.84 188.837 458.08L188.381 457.444C188.897 457.012 189.425 456.748 190.253 456.748C191.441 456.748 192.257 457.444 192.257 458.704C192.257 459.544 191.753 460.18 191.177 460.708L189.641 462.124V462.136H192.713V463ZM198.61 459.94C198.61 461.536 197.986 463.132 196.174 463.132C194.35 463.132 193.726 461.536 193.726 459.94C193.726 458.344 194.35 456.748 196.174 456.748C197.986 456.748 198.61 458.344 198.61 459.94ZM197.626 459.94C197.626 458.596 197.182 457.588 196.174 457.588C195.154 457.588 194.71 458.596 194.71 459.94C194.71 461.284 195.154 462.292 196.174 462.292C197.182 462.292 197.626 461.284 197.626 459.94ZM204.269 463H203.321V457.696L202.265 457.84L202.157 457.108L204.269 456.772V463Z" fill="#00157E" fill-opacity="0.7"/>
<g clip-path="url(#clip5_697_92433)">
<path d="M266.964 446.628C266.292 446.976 265.608 447.132 264.696 447.132C262.932 447.132 261.576 445.944 261.576 443.544C261.576 440.988 263.088 439.644 265.032 439.644C265.836 439.644 266.328 439.764 266.94 440.028L266.556 440.904C266.1 440.7 265.668 440.544 265.02 440.544C263.76 440.544 262.608 441.516 262.608 443.292C262.608 445.272 263.34 446.244 265.092 446.244C265.668 446.244 266.196 446.016 266.628 445.824L266.964 446.628ZM273.487 447H272.479V443.7H269.227V447H268.219V439.776H269.227V442.848H272.479V439.776H273.487V447ZM279.072 440.628H276.48V442.98H278.82V443.832H276.48V447H275.484V439.776H279.072V440.628Z" fill="#00157E" fill-opacity="0.7"/>
<path d="M291.716 448H289.938V442.33L288.706 442.498L288.496 441.238L291.716 440.72V448ZM299.296 444.43C299.296 446.39 298.442 448.168 296.286 448.168C294.13 448.168 293.276 446.39 293.276 444.43C293.276 442.47 294.13 440.692 296.286 440.692C298.442 440.692 299.296 442.47 299.296 444.43ZM297.504 444.43C297.504 443.086 297.126 442.274 296.286 442.274C295.46 442.274 295.068 443.086 295.068 444.43C295.068 445.774 295.46 446.586 296.286 446.586C297.126 446.586 297.504 445.774 297.504 444.43ZM302.692 440.594C302.692 442.022 302.118 442.82 301.082 443.562L300.578 443.016C301.068 442.596 301.39 442.148 301.502 441.532C300.984 441.476 300.564 441.014 300.564 440.482C300.564 439.908 301.04 439.432 301.614 439.432C302.216 439.432 302.692 439.88 302.692 440.594ZM309.974 444.43C309.974 446.39 309.12 448.168 306.964 448.168C304.808 448.168 303.954 446.39 303.954 444.43C303.954 442.47 304.808 440.692 306.964 440.692C309.12 440.692 309.974 442.47 309.974 444.43ZM308.182 444.43C308.182 443.086 307.804 442.274 306.964 442.274C306.138 442.274 305.746 443.086 305.746 444.43C305.746 445.774 306.138 446.586 306.964 446.586C307.804 446.586 308.182 445.774 308.182 444.43ZM317.22 444.43C317.22 446.39 316.366 448.168 314.21 448.168C312.054 448.168 311.2 446.39 311.2 444.43C311.2 442.47 312.054 440.692 314.21 440.692C316.366 440.692 317.22 442.47 317.22 444.43ZM315.428 444.43C315.428 443.086 315.05 442.274 314.21 442.274C313.384 442.274 312.992 443.086 312.992 444.43C312.992 445.774 313.384 446.586 314.21 446.586C315.05 446.586 315.428 445.774 315.428 444.43ZM324.466 444.43C324.466 446.39 323.612 448.168 321.456 448.168C319.3 448.168 318.446 446.39 318.446 444.43C318.446 442.47 319.3 440.692 321.456 440.692C323.612 440.692 324.466 442.47 324.466 444.43ZM322.674 444.43C322.674 443.086 322.296 442.274 321.456 442.274C320.63 442.274 320.238 443.086 320.238 444.43C320.238 445.774 320.63 446.586 321.456 446.586C322.296 446.586 322.674 445.774 322.674 444.43ZM327.862 447.048C327.862 447.636 327.386 448.112 326.798 448.112C326.21 448.112 325.734 447.636 325.734 447.048C325.734 446.474 326.21 445.998 326.798 445.998C327.386 445.998 327.862 446.474 327.862 447.048ZM335.144 444.43C335.144 446.39 334.29 448.168 332.134 448.168C329.978 448.168 329.124 446.39 329.124 444.43C329.124 442.47 329.978 440.692 332.134 440.692C334.29 440.692 335.144 442.47 335.144 444.43ZM333.352 444.43C333.352 443.086 332.974 442.274 332.134 442.274C331.308 442.274 330.916 443.086 330.916 444.43C330.916 445.774 331.308 446.586 332.134 446.586C332.974 446.586 333.352 445.774 333.352 444.43ZM342.39 444.43C342.39 446.39 341.536 448.168 339.38 448.168C337.224 448.168 336.37 446.39 336.37 444.43C336.37 442.47 337.224 440.692 339.38 440.692C341.536 440.692 342.39 442.47 342.39 444.43ZM340.598 444.43C340.598 443.086 340.22 442.274 339.38 442.274C338.554 442.274 338.162 443.086 338.162 444.43C338.162 445.774 338.554 446.586 339.38 446.586C340.22 446.586 340.598 445.774 340.598 444.43Z" fill="#00157E"/>
<path d="M325 461L331 467L337 461" stroke="#00157E" stroke-width="2" stroke-linecap="round" stroke-linejoin="round"/>
</g>
</g>
<rect width="375" height="64" transform="translate(0 748)" fill="white"/>
<path d="M20 760.5H355C356.933 760.5 358.5 762.067 358.5 764V796C358.5 797.933 356.933 799.5 355 799.5H20C18.067 799.5 16.5 797.933 16.5 796V764C16.5 762.067 18.067 760.5 20 760.5Z" fill="#00157E"/>
<path d="M20 760.5H355C356.933 760.5 358.5 762.067 358.5 764V796C358.5 797.933 356.933 799.5 355 799.5H20C18.067 799.5 16.5 797.933 16.5 796V764C16.5 762.067 18.067 760.5 20 760.5Z" stroke="#00157E"/>
<path d="M170.733 784.504C169.837 784.968 168.925 785.176 167.709 785.176C165.357 785.176 163.549 783.592 163.549 780.392C163.549 776.984 165.565 775.192 168.157 775.192C169.229 775.192 169.885 775.352 170.701 775.704L170.189 776.872C169.581 776.6 169.005 776.392 168.141 776.392C166.461 776.392 164.925 777.688 164.925 780.056C164.925 782.696 165.901 783.992 168.237 783.992C169.005 783.992 169.709 783.688 170.285 783.432L170.733 784.504ZM177.949 781.256C177.949 783.448 176.909 785.176 174.749 785.176C172.381 785.176 171.549 783.496 171.549 781.256C171.549 779.064 172.589 777.336 174.749 777.336C177.117 777.336 177.949 779.016 177.949 781.256ZM176.637 781.288C176.637 779.432 176.013 778.456 174.749 778.456C173.517 778.456 172.861 779.32 172.861 781.208C172.861 783.064 173.485 784.056 174.749 784.056C175.981 784.056 176.637 783.176 176.637 781.288ZM185.663 785H184.383V780.136C184.383 779.032 183.967 778.472 182.959 778.472C182.239 778.472 181.727 778.776 181.263 779.192V785H179.983V779.24L179.759 777.592L181.023 777.384L181.151 778.264H181.167C181.727 777.72 182.463 777.336 183.391 777.336C184.655 777.336 185.663 778.152 185.663 779.688V785ZM193.402 785H192.138V778.552H189.594V785H188.33V778.552H187.226V777.704L188.33 777.48V776.888C188.33 775.272 189.354 774.088 191.178 774.088C192.01 774.088 192.538 774.344 192.922 774.552L192.458 775.576C192.266 775.448 191.786 775.176 191.178 775.176C190.01 775.176 189.594 775.832 189.594 776.744V777.512H193.402V785ZM199.328 778.616C198.464 778.616 197.824 778.84 197.248 779.368V785H195.968V779.24L195.743 777.592L197.008 777.384L197.136 778.408H197.152C197.664 777.832 198.336 777.352 199.328 777.352V778.616ZM210.953 785H209.689V780.136C209.689 779.032 209.273 778.472 208.249 778.472C207.529 778.472 206.921 778.824 206.521 779.224C206.521 779.224 206.569 779.496 206.569 779.784V785H205.289V780.136C205.289 779.032 204.873 778.472 203.865 778.472C203.145 778.472 202.633 778.76 202.169 779.192V785H200.889V779.24L200.665 777.592L201.929 777.384L202.057 778.264H202.073C202.633 777.72 203.369 777.336 204.297 777.336C205.161 777.336 205.881 777.72 206.265 778.408H206.281C206.873 777.816 207.641 777.336 208.697 777.336C209.977 777.336 210.953 778.152 210.953 779.688V785Z" fill="white"/>
</g>
<defs>
<clipPath id="clip0_697_92433">
<rect width="375" height="812" fill="white"/>
</clipPath>
<clipPath id="clip1_697_92433">
<rect width="375" height="642" fill="white" transform="translate(0 106)"/>
</clipPath>
<clipPath id="clip2_697_92433">
<rect width="419.998" height="24" fill="white" transform="translate(16.001 264)"/>
</clipPath>
<clipPath id="clip3_697_92433">
<rect width="151" height="36" fill="white" transform="translate(208 308)"/>
</clipPath>
<clipPath id="clip4_697_92433">
<rect width="419.998" height="24" fill="white" transform="translate(16.001 396)"/>
</clipPath>
<clipPath id="clip5_697_92433">
<rect width="153" height="36" fill="white" transform="translate(206 440)"/>
</clipPath>
</defs>
</svg>
