<svg width="420" height="224" viewBox="0 0 420 224" fill="none" xmlns="http://www.w3.org/2000/svg">
<path d="M0 8.00001C0 3.58173 3.58172 0 8 0H412C416.418 0 420 3.58172 420 8V216.007C420 220.425 416.418 224.007 412 224.007H8C3.58172 224.007 0 220.425 0 216.007V8.00001Z" fill="white"/>
<path d="M8 0.5H412C416.142 0.5 419.5 3.85786 419.5 8V216.007C419.5 220.149 416.142 223.507 412 223.507H8C3.85786 223.507 0.5 220.149 0.5 216.007V8C0.500003 3.85787 3.85787 0.5 8 0.5Z" stroke="#00157E" stroke-opacity="0.2"/>
<path d="M30.301 37.941L27.741 38.101L27.501 30.161H27.481L24.841 38.001H22.281L19.761 30.201H19.741L19.421 38.001H17.101L17.981 25.961H20.881L23.701 34.461H23.721L26.561 25.961H29.481L30.301 37.941ZM40.3182 28.541L37.3982 36.761C36.0382 40.621 34.0182 41.761 30.7982 42.241L30.3382 40.141C32.0182 39.881 33.8582 38.961 34.5182 37.641L31.2182 28.821L33.6982 28.201L35.8382 34.641H35.8582L37.8582 28.541H40.3182ZM54.1105 32.821C54.1105 36.121 52.3905 38.081 49.4105 38.081C49.0705 38.081 48.7305 38.021 48.5905 37.981V41.921L46.0505 42.241V31.001L45.7305 28.661L48.1705 28.341L48.2905 29.301H48.3105C48.5505 29.101 49.4705 28.301 50.7305 28.301C53.1305 28.301 54.1105 30.121 54.1105 32.821ZM51.5705 33.241C51.5705 31.481 51.2505 30.521 49.8705 30.521C49.2305 30.521 48.7705 30.881 48.5905 31.021V35.781C48.7305 35.841 49.0505 35.941 49.4905 35.941C50.8905 35.941 51.5705 34.881 51.5705 33.241ZM64.0296 33.241C64.0296 36.081 62.5496 38.221 59.7696 38.221C56.7696 38.221 55.5096 36.101 55.5096 33.241C55.5096 30.401 56.9896 28.321 59.7696 28.321C62.7696 28.321 64.0296 30.381 64.0296 33.241ZM61.5096 33.261C61.5096 31.321 60.8696 30.541 59.7696 30.541C58.6696 30.541 58.0296 31.281 58.0296 33.221C58.0296 35.141 58.6696 36.001 59.7696 36.001C60.8696 36.001 61.5096 35.181 61.5096 33.261ZM72.0314 34.961C72.0314 36.781 70.5714 38.221 68.3714 38.221C67.2314 38.221 66.2114 38.041 65.3514 37.641L66.0114 35.561C66.7314 35.861 67.4314 36.161 68.2314 36.161C69.0914 36.161 69.5114 35.861 69.5114 35.361C69.5114 34.901 69.2914 34.721 68.7714 34.501L67.2914 33.881C66.4114 33.521 65.4514 32.861 65.4514 31.301C65.4514 29.341 67.1114 28.301 69.0914 28.301C70.2114 28.301 70.9714 28.481 71.8714 28.861L71.0914 30.901C70.4514 30.641 69.8314 30.381 69.1114 30.381C68.3314 30.381 67.8914 30.601 67.8914 31.121C67.8914 31.621 68.2914 31.801 68.6514 31.941L70.1914 32.561C71.3914 33.041 72.0314 33.801 72.0314 34.961ZM76.6383 38.001H74.0983V31.001L73.7783 28.661L76.6383 28.341V38.001ZM76.8783 25.881C76.8783 26.721 76.2183 27.401 75.3783 27.401C74.5383 27.401 73.8783 26.721 73.8783 25.881C73.8783 25.061 74.5383 24.381 75.3783 24.381C76.2183 24.381 76.8783 25.061 76.8783 25.881ZM85.0155 37.541C84.1955 37.981 83.5755 38.221 82.3155 38.221C80.4355 38.221 79.5155 36.961 79.5155 35.081V30.541H78.0555V28.861L79.5155 28.521V26.881L82.0355 26.581V28.541H84.6355V30.541H82.0355V34.401C82.0355 35.661 82.3555 35.981 83.1755 35.981C83.6355 35.981 83.8955 35.861 84.3355 35.661L85.0155 37.541ZM89.1969 38.001H86.6569V31.001L86.3369 28.661L89.1969 28.341V38.001ZM89.4369 25.881C89.4369 26.721 88.7769 27.401 87.9369 27.401C87.0969 27.401 86.4369 26.721 86.4369 25.881C86.4369 25.061 87.0969 24.381 87.9369 24.381C88.7769 24.381 89.4369 25.061 89.4369 25.881ZM99.6741 33.241C99.6741 36.081 98.1941 38.221 95.4141 38.221C92.4141 38.221 91.1541 36.101 91.1541 33.241C91.1541 30.401 92.6341 28.321 95.4141 28.321C98.4141 28.321 99.6741 30.381 99.6741 33.241ZM97.1541 33.261C97.1541 31.321 96.5141 30.541 95.4141 30.541C94.3141 30.541 93.6741 31.281 93.6741 33.221C93.6741 35.141 94.3141 36.001 95.4141 36.001C96.5141 36.001 97.1541 35.181 97.1541 33.261ZM109.636 38.001H107.096V32.001C107.096 30.981 106.676 30.521 105.776 30.521C105.116 30.521 104.556 30.841 104.196 31.201V38.001H101.656V31.001L101.336 28.661L103.776 28.341L103.896 29.381H103.916C104.476 28.821 105.416 28.301 106.676 28.301C108.316 28.301 109.636 29.241 109.636 31.381V38.001ZM118.164 34.961C118.164 36.781 116.704 38.221 114.504 38.221C113.364 38.221 112.344 38.041 111.484 37.641L112.144 35.561C112.864 35.861 113.564 36.161 114.364 36.161C115.224 36.161 115.644 35.861 115.644 35.361C115.644 34.901 115.424 34.721 114.904 34.501L113.424 33.881C112.544 33.521 111.584 32.861 111.584 31.301C111.584 29.341 113.244 28.301 115.224 28.301C116.344 28.301 117.104 28.481 118.004 28.861L117.224 30.901C116.584 30.641 115.964 30.381 115.244 30.381C114.464 30.381 114.024 30.601 114.024 31.121C114.024 31.621 114.424 31.801 114.784 31.941L116.324 32.561C117.524 33.041 118.164 33.801 118.164 34.961Z" fill="#00157E"/>
<path d="M316.999 20.001C316.999 17.7918 318.79 16.001 320.999 16.001H399.999C402.208 16.001 403.999 17.7918 403.999 20.001V44.001C403.999 46.2101 402.208 48.001 399.999 48.001H320.999C318.79 48.001 316.999 46.2101 316.999 44.001V20.001Z" fill="#00157E" fill-opacity="0.05"/>
<path d="M333.251 31.255C333.251 34.335 331.403 36.001 328.407 36.001H326.643V27.629C326.643 27.629 327.805 27.489 329.051 27.489C331.655 27.489 333.251 28.847 333.251 31.255ZM332.033 31.423C332.033 29.435 330.689 28.483 328.855 28.483C328.267 28.483 327.819 28.511 327.819 28.511V34.951H328.631C330.633 34.951 332.033 33.761 332.033 31.423ZM339.587 35.651C338.957 36.001 338.313 36.155 337.515 36.155C335.583 36.155 334.589 34.853 334.589 32.683C334.589 30.653 335.653 29.295 337.305 29.295C338.887 29.295 339.531 30.345 339.531 31.787V32.571H335.681C335.695 34.321 336.325 35.161 337.753 35.161C338.299 35.161 338.719 35.007 339.195 34.769L339.587 35.651ZM338.481 31.787C338.481 30.807 338.117 30.191 337.249 30.191C336.409 30.191 335.877 30.849 335.737 31.787H338.481ZM344.534 35.735C344.128 35.959 343.75 36.141 343.036 36.141C342.028 36.141 341.384 35.483 341.384 34.363V30.359H340.418V29.617L341.384 29.421V28.329L342.49 28.189V29.449H344.324V30.359H342.49V33.985C342.49 34.867 342.714 35.147 343.358 35.147C343.708 35.147 343.974 35.007 344.17 34.881L344.534 35.735ZM350.327 35.931L349.207 36.113L349.109 35.343H349.095C348.619 35.791 348.101 36.169 347.317 36.169C346.225 36.169 345.581 35.511 345.581 34.475C345.581 33.299 346.505 32.725 347.835 32.585L349.011 32.459V31.871C349.011 30.961 348.731 30.317 347.653 30.317C347.107 30.317 346.701 30.485 346.295 30.695L345.889 29.869C346.477 29.519 347.079 29.295 347.919 29.295C349.235 29.295 350.117 30.065 350.117 31.367V34.489L350.327 35.931ZM349.011 34.643V33.215L347.989 33.355C347.149 33.467 346.687 33.733 346.687 34.335C346.687 34.881 347.023 35.245 347.583 35.245C348.241 35.245 348.647 34.965 349.011 34.643ZM353.521 36.001H352.401V30.961L352.205 29.519L353.521 29.337V36.001ZM353.745 27.741C353.745 28.189 353.395 28.525 352.975 28.525C352.541 28.525 352.177 28.189 352.177 27.741C352.177 27.293 352.541 26.943 352.975 26.943C353.395 26.943 353.745 27.293 353.745 27.741ZM356.856 36.001H355.736V28.063L355.54 26.621L356.856 26.439V36.001ZM362.866 34.097C362.866 35.287 361.928 36.141 360.528 36.141C359.856 36.141 359.184 36.043 358.652 35.791L358.988 34.811C359.45 35.021 359.968 35.189 360.472 35.189C361.228 35.189 361.732 34.895 361.732 34.279C361.732 33.803 361.48 33.607 361.046 33.411L359.828 32.851C359.394 32.655 358.61 32.263 358.61 31.129C358.61 29.883 359.702 29.295 360.892 29.295C361.606 29.295 362.11 29.407 362.67 29.645L362.292 30.611C361.844 30.415 361.41 30.275 360.878 30.275C360.164 30.275 359.702 30.499 359.702 31.059C359.702 31.549 360.122 31.745 360.388 31.871L361.634 32.459C362.502 32.865 362.866 33.383 362.866 34.097Z" fill="#00157E"/>
<path d="M376.999 32.001H390.999" stroke="#00157E" stroke-width="2" stroke-linecap="round" stroke-linejoin="round"/>
<path d="M383.999 25.001L390.999 32.001L383.999 39.001" stroke="#00157E" stroke-width="2" stroke-linecap="round" stroke-linejoin="round"/>
<g clip-path="url(#clip0_864_116028)">
<path d="M23.155 79.862L22.007 80.184L21.111 77.272H18.367L17.513 80.002H16.281L19.207 71.574H20.411L23.155 79.862ZM20.859 76.432L19.767 72.792H19.753L18.619 76.432H20.859ZM28.7591 73.576L28.4091 74.584C28.0451 74.444 27.6391 74.318 27.1771 74.318C25.9451 74.318 25.2031 75.242 25.2031 76.628C25.2031 78.378 25.8891 79.176 27.1491 79.176C27.5971 79.176 27.9611 79.022 28.3251 78.868L28.7031 79.778C28.1571 80.03 27.5551 80.156 26.9251 80.156C25.0491 80.156 24.0831 78.812 24.0831 76.81C24.0831 74.402 25.5671 73.296 27.2331 73.296C27.8071 73.296 28.2971 73.394 28.7591 73.576ZM34.7866 82.774L33.6806 82.956V79.512H33.6666C33.2466 79.876 32.7286 80.156 31.9866 80.156C30.5166 80.156 29.6066 78.938 29.6066 76.964C29.6066 74.444 31.0206 73.31 32.8406 73.31C33.6106 73.31 34.2266 73.422 34.7866 73.632V82.774ZM33.6806 78.616V74.388C33.3726 74.318 33.1066 74.276 32.7146 74.276C31.6926 74.276 30.7546 75.116 30.7546 76.6C30.7546 78.546 31.2726 79.176 32.3366 79.176C32.9526 79.176 33.3446 78.896 33.6806 78.616ZM42.1796 79.932L41.0736 80.114L40.9616 79.358H40.9476C40.4576 79.82 39.8136 80.156 39.0016 80.156C37.8956 80.156 37.0136 79.442 37.0136 78.098V74.962L36.8176 73.52L38.1336 73.338V77.706C38.1336 78.672 38.4976 79.176 39.3796 79.176C40.0096 79.176 40.4576 78.91 40.8636 78.532V74.962L40.6676 73.52L41.9836 73.338V78.49L42.1796 79.932ZM45.3666 80.002H44.2466V74.962L44.0506 73.52L45.3666 73.338V80.002ZM45.5906 71.742C45.5906 72.19 45.2406 72.526 44.8206 72.526C44.3866 72.526 44.0226 72.19 44.0226 71.742C44.0226 71.294 44.3866 70.944 44.8206 70.944C45.2406 70.944 45.5906 71.294 45.5906 71.742ZM51.4033 78.098C51.4033 79.288 50.4653 80.142 49.0653 80.142C48.3933 80.142 47.7213 80.044 47.1893 79.792L47.5253 78.812C47.9873 79.022 48.5053 79.19 49.0093 79.19C49.7653 79.19 50.2693 78.896 50.2693 78.28C50.2693 77.804 50.0173 77.608 49.5833 77.412L48.3653 76.852C47.9313 76.656 47.1473 76.264 47.1473 75.13C47.1473 73.884 48.2393 73.296 49.4293 73.296C50.1433 73.296 50.6473 73.408 51.2073 73.646L50.8293 74.612C50.3813 74.416 49.9473 74.276 49.4153 74.276C48.7013 74.276 48.2393 74.5 48.2393 75.06C48.2393 75.55 48.6593 75.746 48.9253 75.872L50.1713 76.46C51.0393 76.866 51.4033 77.384 51.4033 78.098ZM54.3217 80.002H53.2017V74.962L53.0057 73.52L54.3217 73.338V80.002ZM54.5457 71.742C54.5457 72.19 54.1957 72.526 53.7757 72.526C53.3417 72.526 52.9777 72.19 52.9777 71.742C52.9777 71.294 53.3417 70.944 53.7757 70.944C54.1957 70.944 54.5457 71.294 54.5457 71.742ZM59.8403 79.736C59.4343 79.96 59.0563 80.142 58.3423 80.142C57.3343 80.142 56.6903 79.484 56.6903 78.364V74.36H55.7243V73.618L56.6903 73.422V72.33L57.7963 72.19V73.45H59.6303V74.36H57.7963V77.986C57.7963 78.868 58.0203 79.148 58.6643 79.148C59.0143 79.148 59.2803 79.008 59.4763 78.882L59.8403 79.736ZM62.4838 80.002H61.3638V74.962L61.1678 73.52L62.4838 73.338V80.002ZM62.7078 71.742C62.7078 72.19 62.3578 72.526 61.9378 72.526C61.5038 72.526 61.1398 72.19 61.1398 71.742C61.1398 71.294 61.5038 70.944 61.9378 70.944C62.3578 70.944 62.7078 71.294 62.7078 71.742ZM69.8784 76.726C69.8784 78.644 68.9684 80.156 67.0784 80.156C65.0064 80.156 64.2784 78.686 64.2784 76.726C64.2784 74.808 65.1884 73.296 67.0784 73.296C69.1504 73.296 69.8784 74.766 69.8784 76.726ZM68.7304 76.754C68.7304 75.13 68.1844 74.276 67.0784 74.276C66.0004 74.276 65.4264 75.032 65.4264 76.684C65.4264 78.308 65.9724 79.176 67.0784 79.176C68.1564 79.176 68.7304 78.406 68.7304 76.754ZM76.6281 80.002H75.5081V75.746C75.5081 74.78 75.1441 74.29 74.2621 74.29C73.6321 74.29 73.1841 74.556 72.7781 74.92V80.002H71.6581V74.962L71.4621 73.52L72.5681 73.338L72.6801 74.108H72.6941C73.1841 73.632 73.8281 73.296 74.6401 73.296C75.7461 73.296 76.6281 74.01 76.6281 75.354V80.002ZM82.8673 80.002H81.7473V72.064L81.5513 70.622L82.8673 70.44V80.002ZM90.2359 76.726C90.2359 78.644 89.3259 80.156 87.4359 80.156C85.3639 80.156 84.6359 78.686 84.6359 76.726C84.6359 74.808 85.5459 73.296 87.4359 73.296C89.5079 73.296 90.2359 74.766 90.2359 76.726ZM89.0879 76.754C89.0879 75.13 88.5419 74.276 87.4359 74.276C86.3579 74.276 85.7839 75.032 85.7839 76.684C85.7839 78.308 86.3299 79.176 87.4359 79.176C88.5139 79.176 89.0879 78.406 89.0879 76.754ZM95.8095 78.098C95.8095 79.288 94.8715 80.142 93.4715 80.142C92.7995 80.142 92.1275 80.044 91.5955 79.792L91.9315 78.812C92.3935 79.022 92.9115 79.19 93.4155 79.19C94.1715 79.19 94.6755 78.896 94.6755 78.28C94.6755 77.804 94.4235 77.608 93.9895 77.412L92.7715 76.852C92.3375 76.656 91.5535 76.264 91.5535 75.13C91.5535 73.884 92.6455 73.296 93.8355 73.296C94.5495 73.296 95.0535 73.408 95.6135 73.646L95.2355 74.612C94.7875 74.416 94.3535 74.276 93.8215 74.276C93.1075 74.276 92.6455 74.5 92.6455 75.06C92.6455 75.55 93.0655 75.746 93.3315 75.872L94.5775 76.46C95.4455 76.866 95.8095 77.384 95.8095 78.098ZM101.374 78.098C101.374 79.288 100.436 80.142 99.036 80.142C98.364 80.142 97.692 80.044 97.16 79.792L97.496 78.812C97.958 79.022 98.476 79.19 98.98 79.19C99.736 79.19 100.24 78.896 100.24 78.28C100.24 77.804 99.988 77.608 99.554 77.412L98.336 76.852C97.902 76.656 97.118 76.264 97.118 75.13C97.118 73.884 98.21 73.296 99.4 73.296C100.114 73.296 100.618 73.408 101.178 73.646L100.8 74.612C100.352 74.416 99.918 74.276 99.386 74.276C98.672 74.276 98.21 74.5 98.21 75.06C98.21 75.55 98.63 75.746 98.896 75.872L100.142 76.46C101.01 76.866 101.374 77.384 101.374 78.098Z" fill="#00157E" fill-opacity="0.7"/>
</g>
<path d="M347.963 78.63C347.291 78.978 346.607 79.134 345.695 79.134C343.931 79.134 342.575 77.946 342.575 75.546C342.575 72.99 344.087 71.646 346.031 71.646C346.835 71.646 347.327 71.766 347.939 72.03L347.555 72.906C347.099 72.702 346.667 72.546 346.019 72.546C344.759 72.546 343.607 73.518 343.607 75.294C343.607 77.274 344.339 78.246 346.091 78.246C346.667 78.246 347.195 78.018 347.627 77.826L347.963 78.63ZM354.486 79.002H353.478V75.702H350.226V79.002H349.218V71.778H350.226V74.85H353.478V71.778H354.486V79.002ZM360.071 72.63H357.479V74.982H359.819V75.834H357.479V79.002H356.483V71.778H360.071V72.63Z" fill="#00157E" fill-opacity="0.7"/>
<path d="M375.559 76.32C375.559 80.184 373.599 81.99 370.813 82.326L370.589 81.416C372.353 81.206 374.131 80.072 374.383 77.398L374.369 77.384C374.369 77.384 373.711 77.944 372.717 77.944C371.317 77.944 370.407 76.894 370.407 75.452C370.407 73.702 371.457 72.708 373.039 72.708C374.663 72.708 375.559 73.828 375.559 76.32ZM374.397 76.306C374.397 74.92 374.145 73.66 372.899 73.66C372.017 73.66 371.499 74.388 371.499 75.298C371.499 76.46 372.031 77.02 373.025 77.02C373.879 77.02 374.397 76.516 374.397 76.516V76.306ZM381.66 78.742C381.66 81.43 379.126 82.186 377.32 82.326L377.18 81.374C378.454 81.234 380.512 80.73 380.512 78.896C380.512 77.748 379.868 77.076 378.076 77.076H377.138L377.446 72.862H381.436V73.884H378.412L378.23 76.236C378.23 76.236 378.552 76.208 378.846 76.208C380.47 76.208 381.66 77.062 381.66 78.742ZM388.21 77.44C388.21 79.092 387.23 80.156 385.648 80.156C383.856 80.156 383.1 78.826 383.1 76.852C383.1 73.044 385.34 71.476 387.776 71.28L387.916 72.204C386.236 72.386 384.556 73.296 384.234 75.634L384.248 75.648C384.248 75.648 384.962 75.032 385.928 75.032C387.398 75.032 388.21 75.97 388.21 77.44ZM387.104 77.664C387.104 76.474 386.642 75.97 385.62 75.97C384.822 75.97 384.234 76.53 384.234 76.53V76.796C384.234 78.364 384.64 79.232 385.746 79.232C386.67 79.232 387.104 78.574 387.104 77.664ZM390.84 71.574L390.336 74.486H389.482V71.574H390.84ZM397.104 77.958C397.104 79.302 396.082 80.156 394.64 80.156C393.17 80.156 392.176 79.414 392.176 78.042C392.176 76.81 393.086 76.068 393.786 75.592C392.946 75.004 392.386 74.5 392.386 73.45C392.386 72.26 393.366 71.42 394.626 71.42C395.984 71.42 396.866 72.176 396.866 73.352C396.866 74.36 396.166 75.004 395.48 75.48C396.376 76.082 397.104 76.684 397.104 77.958ZM396.026 77.958C396.026 77.048 395.396 76.586 394.556 76.04C393.814 76.544 393.24 76.978 393.24 77.902C393.24 78.742 393.8 79.218 394.654 79.218C395.564 79.218 396.026 78.658 396.026 77.958ZM395.872 73.478C395.872 72.764 395.396 72.302 394.64 72.302C393.884 72.302 393.394 72.792 393.394 73.492C393.394 74.15 393.94 74.528 394.696 75.046C395.298 74.654 395.872 74.15 395.872 73.478ZM403.573 80.002H398.379V79.274L400.773 76.978C401.417 76.348 401.907 75.886 401.907 75.116C401.907 74.304 401.403 73.702 400.465 73.702C399.835 73.702 399.387 73.982 399.051 74.262L398.519 73.52C399.121 73.016 399.737 72.708 400.703 72.708C402.089 72.708 403.041 73.52 403.041 74.99C403.041 75.97 402.453 76.712 401.781 77.328L399.989 78.98V78.994H403.573V80.002Z" fill="#00157E" fill-opacity="0.7"/>
<path d="M24.331 99.7889C24.331 102.001 23.337 104.157 20.523 104.157C17.653 104.157 16.673 102.029 16.673 99.7889C16.673 97.5629 17.695 95.4209 20.523 95.4209C23.393 95.4209 24.331 97.5349 24.331 99.7889ZM23.099 99.7889C23.099 97.7309 22.301 96.4149 20.523 96.4149C18.759 96.4149 17.933 97.7869 17.933 99.7889C17.933 101.833 18.731 103.163 20.523 103.163C22.259 103.163 23.099 101.791 23.099 99.7889ZM24.793 104.759L24.653 105.753L20.355 105.375L20.481 104.451L24.793 104.759ZM31.2831 103.933L30.1771 104.115L30.0651 103.359H30.0511C29.5611 103.821 28.9171 104.157 28.1051 104.157C26.9991 104.157 26.1171 103.443 26.1171 102.099V98.9629L25.9211 97.5209L27.2371 97.3389V101.707C27.2371 102.673 27.6011 103.177 28.4831 103.177C29.1131 103.177 29.5611 102.911 29.9671 102.533V98.9629L29.7711 97.5209L31.0871 97.3389V102.491L31.2831 103.933ZM37.6201 103.933L36.5001 104.115L36.4021 103.345H36.3881C35.9121 103.793 35.3941 104.171 34.6101 104.171C33.5181 104.171 32.8741 103.513 32.8741 102.477C32.8741 101.301 33.7981 100.727 35.1281 100.587L36.3041 100.461V99.8729C36.3041 98.9629 36.0241 98.3189 34.9461 98.3189C34.4001 98.3189 33.9941 98.4869 33.5881 98.6969L33.1821 97.8709C33.7701 97.5209 34.3721 97.2969 35.2121 97.2969C36.5281 97.2969 37.4101 98.0669 37.4101 99.3689V102.491L37.6201 103.933ZM36.3041 102.645V101.217L35.2821 101.357C34.4421 101.469 33.9801 101.735 33.9801 102.337C33.9801 102.883 34.3161 103.247 34.8761 103.247C35.5341 103.247 35.9401 102.967 36.3041 102.645ZM44.6359 104.003H43.5159V99.7469C43.5159 98.7809 43.1519 98.2909 42.2699 98.2909C41.6399 98.2909 41.1919 98.5569 40.7859 98.9209V104.003H39.6659V98.9629L39.4699 97.5209L40.5759 97.3389L40.6879 98.1089H40.7019C41.1919 97.6329 41.8359 97.2969 42.6479 97.2969C43.7539 97.2969 44.6359 98.0109 44.6359 99.3549V104.003ZM50.1196 103.737C49.7136 103.961 49.3356 104.143 48.6216 104.143C47.6136 104.143 46.9696 103.485 46.9696 102.365V98.3609H46.0036V97.6189L46.9696 97.4229V96.3309L48.0756 96.1909V97.4509H49.9096V98.3609H48.0756V101.987C48.0756 102.869 48.2996 103.149 48.9436 103.149C49.2936 103.149 49.5596 103.009 49.7556 102.883L50.1196 103.737ZM52.7631 104.003H51.6431V98.9629L51.4471 97.5209L52.7631 97.3389V104.003ZM52.9871 95.7429C52.9871 96.1909 52.6371 96.5269 52.2171 96.5269C51.7831 96.5269 51.4191 96.1909 51.4191 95.7429C51.4191 95.2949 51.7831 94.9449 52.2171 94.9449C52.6371 94.9449 52.9871 95.2949 52.9871 95.7429ZM58.2817 103.737C57.8757 103.961 57.4977 104.143 56.7837 104.143C55.7757 104.143 55.1317 103.485 55.1317 102.365V98.3609H54.1657V97.6189L55.1317 97.4229V96.3309L56.2377 96.1909V97.4509H58.0717V98.3609H56.2377V101.987C56.2377 102.869 56.4617 103.149 57.1057 103.149C57.4557 103.149 57.7217 103.009 57.9177 102.883L58.2817 103.737ZM64.5369 97.4509L62.3529 103.401C61.6529 105.333 60.7149 106.495 58.4329 106.957L58.2229 106.047C59.8889 105.711 60.7709 104.703 61.2049 103.611L58.8529 97.5489L59.9589 97.2549L61.7649 102.127H61.7789L63.4309 97.4509H64.5369Z" fill="#00157E" fill-opacity="0.7"/>
<path d="M370.375 99.9189C370.375 101.743 369.583 103.063 367.711 103.063C367.399 103.063 367.147 103.039 366.919 102.979V105.379L365.959 105.535V98.6829L365.791 97.4469L366.739 97.2909L366.823 97.8669H366.835C367.207 97.5549 367.699 97.2549 368.347 97.2549C369.715 97.2549 370.375 98.2869 370.375 99.9189ZM369.415 100.195C369.415 98.9709 369.139 98.1189 368.023 98.1189C367.543 98.1189 367.195 98.3229 366.919 98.5509V102.091C367.147 102.187 367.411 102.247 367.783 102.247C368.827 102.247 369.415 101.431 369.415 100.195ZM375.524 97.4949L375.224 98.3589C374.912 98.2389 374.564 98.1309 374.168 98.1309C373.112 98.1309 372.476 98.9229 372.476 100.111C372.476 101.611 373.064 102.295 374.144 102.295C374.528 102.295 374.84 102.163 375.152 102.031L375.476 102.811C375.008 103.027 374.492 103.135 373.952 103.135C372.344 103.135 371.516 101.983 371.516 100.267C371.516 98.2029 372.788 97.2549 374.216 97.2549C374.708 97.2549 375.128 97.3389 375.524 97.4949ZM380.098 101.371C380.098 102.391 379.294 103.123 378.094 103.123C377.518 103.123 376.942 103.039 376.486 102.823L376.774 101.983C377.17 102.163 377.614 102.307 378.046 102.307C378.694 102.307 379.126 102.055 379.126 101.527C379.126 101.119 378.91 100.951 378.538 100.783L377.494 100.303C377.122 100.135 376.45 99.7989 376.45 98.8269C376.45 97.7589 377.386 97.2549 378.406 97.2549C379.018 97.2549 379.45 97.3509 379.93 97.5549L379.606 98.3829C379.222 98.2149 378.85 98.0949 378.394 98.0949C377.782 98.0949 377.386 98.2869 377.386 98.7669C377.386 99.1869 377.746 99.3549 377.974 99.4629L379.042 99.9669C379.786 100.315 380.098 100.759 380.098 101.371ZM382.719 102.391C382.719 102.775 382.407 103.087 382.035 103.087C381.651 103.087 381.339 102.775 381.339 102.391C381.339 102.019 381.651 101.707 382.035 101.707C382.407 101.707 382.719 102.019 382.719 102.391Z" fill="#00157E" fill-opacity="0.7"/>
<path d="M395.673 104.003H394.567V97.8149L393.335 97.9829L393.209 97.1289L395.673 96.7369V104.003ZM403.248 100.433C403.248 102.295 402.52 104.157 400.406 104.157C398.278 104.157 397.55 102.295 397.55 100.433C397.55 98.5709 398.278 96.7089 400.406 96.7089C402.52 96.7089 403.248 98.5709 403.248 100.433ZM402.1 100.433C402.1 98.8649 401.582 97.6889 400.406 97.6889C399.216 97.6889 398.698 98.8649 398.698 100.433C398.698 102.001 399.216 103.177 400.406 103.177C401.582 103.177 402.1 102.001 402.1 100.433Z" fill="#00157E" fill-opacity="0.7"/>
<g clip-path="url(#clip1_864_116028)">
<path d="M22.833 119.576L20.159 128.004H18.913L16.281 119.716L17.457 119.38L19.529 126.436H19.543L21.601 119.576H22.833ZM28.1045 127.934L26.9845 128.116L26.8865 127.346H26.8725C26.3965 127.794 25.8785 128.172 25.0945 128.172C24.0025 128.172 23.3585 127.514 23.3585 126.478C23.3585 125.302 24.2825 124.728 25.6125 124.588L26.7885 124.462V123.874C26.7885 122.964 26.5085 122.32 25.4305 122.32C24.8845 122.32 24.4785 122.488 24.0725 122.698L23.6665 121.872C24.2545 121.522 24.8565 121.298 25.6965 121.298C27.0125 121.298 27.8945 122.068 27.8945 123.37V126.492L28.1045 127.934ZM26.7885 126.646V125.218L25.7665 125.358C24.9265 125.47 24.4645 125.736 24.4645 126.338C24.4645 126.884 24.8005 127.248 25.3605 127.248C26.0185 127.248 26.4245 126.968 26.7885 126.646ZM31.2423 128.004H30.1223V120.066L29.9263 118.624L31.2423 118.442V128.004ZM38.6249 127.934L37.5189 128.116L37.4069 127.36H37.3929C36.9029 127.822 36.2589 128.158 35.4469 128.158C34.3409 128.158 33.4589 127.444 33.4589 126.1V122.964L33.2629 121.522L34.5789 121.34V125.708C34.5789 126.674 34.9429 127.178 35.8249 127.178C36.4549 127.178 36.9029 126.912 37.3089 126.534V122.964L37.1129 121.522L38.4289 121.34V126.492L38.6249 127.934ZM45.2139 127.654C44.5839 128.004 43.9399 128.158 43.1419 128.158C41.2099 128.158 40.2159 126.856 40.2159 124.686C40.2159 122.656 41.2799 121.298 42.9319 121.298C44.5139 121.298 45.1579 122.348 45.1579 123.79V124.574H41.3079C41.3219 126.324 41.9519 127.164 43.3799 127.164C43.9259 127.164 44.3459 127.01 44.8219 126.772L45.2139 127.654ZM44.1079 123.79C44.1079 122.81 43.7439 122.194 42.8759 122.194C42.0359 122.194 41.5039 122.852 41.3639 123.79H44.1079Z" fill="#00157E" fill-opacity="0.7"/>
</g>
<path d="M330.963 126.632C330.291 126.98 329.607 127.136 328.695 127.136C326.931 127.136 325.575 125.948 325.575 123.548C325.575 120.992 327.087 119.648 329.031 119.648C329.835 119.648 330.327 119.768 330.939 120.032L330.555 120.908C330.099 120.704 329.667 120.548 329.019 120.548C327.759 120.548 326.607 121.52 326.607 123.296C326.607 125.276 327.339 126.248 329.091 126.248C329.667 126.248 330.195 126.02 330.627 125.828L330.963 126.632ZM337.486 127.004H336.478V123.704H333.226V127.004H332.218V119.78H333.226V122.852H336.478V119.78H337.486V127.004ZM343.071 120.632H340.479V122.984H342.819V123.836H340.479V127.004H339.483V119.78H343.071V120.632Z" fill="#00157E" fill-opacity="0.7"/>
<path d="M355.901 128.004H354.795V121.816L353.563 121.984L353.437 121.13L355.901 120.738V128.004ZM363.476 124.434C363.476 126.296 362.748 128.158 360.634 128.158C358.506 128.158 357.778 126.296 357.778 124.434C357.778 122.572 358.506 120.71 360.634 120.71C362.748 120.71 363.476 122.572 363.476 124.434ZM362.328 124.434C362.328 122.866 361.81 121.69 360.634 121.69C359.444 121.69 358.926 122.866 358.926 124.434C358.926 126.002 359.444 127.178 360.634 127.178C361.81 127.178 362.328 126.002 362.328 124.434ZM366.286 119.576L365.782 122.488H364.928V119.576H366.286ZM373.361 124.434C373.361 126.296 372.633 128.158 370.519 128.158C368.391 128.158 367.663 126.296 367.663 124.434C367.663 122.572 368.391 120.71 370.519 120.71C372.633 120.71 373.361 122.572 373.361 124.434ZM372.213 124.434C372.213 122.866 371.695 121.69 370.519 121.69C369.329 121.69 368.811 122.866 368.811 124.434C368.811 126.002 369.329 127.178 370.519 127.178C371.695 127.178 372.213 126.002 372.213 124.434ZM379.754 125.96C379.754 127.304 378.732 128.158 377.29 128.158C375.82 128.158 374.826 127.416 374.826 126.044C374.826 124.812 375.736 124.07 376.436 123.594C375.596 123.006 375.036 122.502 375.036 121.452C375.036 120.262 376.016 119.422 377.276 119.422C378.634 119.422 379.516 120.178 379.516 121.354C379.516 122.362 378.816 123.006 378.13 123.482C379.026 124.084 379.754 124.686 379.754 125.96ZM378.676 125.96C378.676 125.05 378.046 124.588 377.206 124.042C376.464 124.546 375.89 124.98 375.89 125.904C375.89 126.744 376.45 127.22 377.304 127.22C378.214 127.22 378.676 126.66 378.676 125.96ZM378.522 121.48C378.522 120.766 378.046 120.304 377.29 120.304C376.534 120.304 376.044 120.794 376.044 121.494C376.044 122.152 376.59 122.53 377.346 123.048C377.948 122.656 378.522 122.152 378.522 121.48ZM385.762 126.744C385.762 129.432 383.228 130.188 381.422 130.328L381.282 129.376C382.556 129.236 384.614 128.732 384.614 126.898C384.614 125.75 383.97 125.078 382.178 125.078H381.24L381.548 120.864H385.538V121.886H382.514L382.332 124.238C382.332 124.238 382.654 124.21 382.948 124.21C384.572 124.21 385.762 125.064 385.762 126.744ZM388.798 127.29C388.798 127.738 388.434 128.102 388 128.102C387.552 128.102 387.188 127.738 387.188 127.29C387.188 126.856 387.552 126.492 388 126.492C388.434 126.492 388.798 126.856 388.798 127.29ZM396.043 124.434C396.043 126.296 395.315 128.158 393.201 128.158C391.073 128.158 390.345 126.296 390.345 124.434C390.345 122.572 391.073 120.71 393.201 120.71C395.315 120.71 396.043 122.572 396.043 124.434ZM394.895 124.434C394.895 122.866 394.377 121.69 393.201 121.69C392.011 121.69 391.493 122.866 391.493 124.434C391.493 126.002 392.011 127.178 393.201 127.178C394.377 127.178 394.895 126.002 394.895 124.434ZM403.248 124.434C403.248 126.296 402.52 128.158 400.406 128.158C398.278 128.158 397.55 126.296 397.55 124.434C397.55 122.572 398.278 120.71 400.406 120.71C402.52 120.71 403.248 122.572 403.248 124.434ZM402.1 124.434C402.1 122.866 401.582 121.69 400.406 121.69C399.216 121.69 398.698 122.866 398.698 124.434C398.698 126.002 399.216 127.178 400.406 127.178C401.582 127.178 402.1 126.002 402.1 124.434Z" fill="#00157E" fill-opacity="0.7"/>
<path d="M22.021 145.663C22.021 147.637 20.411 148.631 18.535 148.631H18.325V152.005H17.163V143.647C17.163 143.647 18.213 143.493 19.319 143.493C20.957 143.493 22.021 144.277 22.021 145.663ZM20.873 145.873C20.873 144.837 20.187 144.375 19.123 144.375C18.675 144.375 18.325 144.431 18.325 144.431V147.735H18.507C19.753 147.735 20.873 147.175 20.873 145.873ZM26.6478 142.513L22.2378 154.665L21.2578 154.301L25.6818 142.149L26.6478 142.513ZM32.3598 152.005H27.9638V143.577H29.1398V151.011H32.3598V152.005Z" fill="#00157E" fill-opacity="0.7"/>
<path d="M352.963 150.633C352.291 150.981 351.607 151.137 350.695 151.137C348.931 151.137 347.575 149.949 347.575 147.549C347.575 144.993 349.087 143.649 351.031 143.649C351.835 143.649 352.327 143.769 352.939 144.033L352.555 144.909C352.099 144.705 351.667 144.549 351.019 144.549C349.759 144.549 348.607 145.521 348.607 147.297C348.607 149.277 349.339 150.249 351.091 150.249C351.667 150.249 352.195 150.021 352.627 149.829L352.963 150.633ZM359.486 151.005H358.478V147.705H355.226V151.005H354.218V143.781H355.226V146.853H358.478V143.781H359.486V151.005ZM365.071 144.633H362.479V146.985H364.819V147.837H362.479V151.005H361.483V143.781H365.071V144.633Z" fill="#00157E" fill-opacity="0.7"/>
<path d="M380.638 148.393H374.996V147.469H380.638V148.393ZM383.751 152.005H382.645V145.817L381.413 145.985L381.287 145.131L383.751 144.739V152.005ZM387.798 152.005H386.692V145.817L385.46 145.985L385.334 145.131L387.798 144.739V152.005ZM391.327 151.291C391.327 151.739 390.963 152.103 390.529 152.103C390.081 152.103 389.717 151.739 389.717 151.291C389.717 150.857 390.081 150.493 390.529 150.493C390.963 150.493 391.327 150.857 391.327 151.291ZM397.872 152.005H392.678V151.277L395.072 148.981C395.716 148.351 396.206 147.889 396.206 147.119C396.206 146.307 395.702 145.705 394.764 145.705C394.134 145.705 393.686 145.985 393.35 146.265L392.818 145.523C393.42 145.019 394.036 144.711 395.002 144.711C396.388 144.711 397.34 145.523 397.34 146.993C397.34 147.973 396.752 148.715 396.08 149.331L394.288 150.983V150.997H397.872V152.005ZM403.381 151.445C403.381 153.125 402.303 154.189 400.455 154.189C399.909 154.189 399.335 154.091 398.817 153.965L399.069 152.915C399.531 153.055 399.923 153.167 400.483 153.167C401.589 153.167 402.261 152.621 402.261 151.613C402.261 150.241 401.001 149.709 399.223 149.709V148.911C401.295 148.785 401.869 147.861 401.869 146.951C401.869 146.153 401.379 145.705 400.595 145.705C399.951 145.705 399.573 145.915 399.153 146.195L398.691 145.425C399.195 145.033 399.839 144.711 400.819 144.711C402.163 144.711 402.989 145.509 402.989 146.811C402.989 147.945 402.331 148.701 401.393 149.149V149.163C402.765 149.457 403.381 150.367 403.381 151.445Z" fill="#00157E" fill-opacity="0.7"/>
<path d="M23.505 172.59C23.505 174.998 22.147 176.188 20.327 176.188C18.381 176.188 17.135 175.208 17.135 172.562V167.578H18.339V172.618C18.339 174.284 18.983 175.068 20.285 175.068C21.587 175.068 22.385 174.27 22.385 172.646V167.578H23.505V172.59ZM30.7316 176.006H29.6116V171.75C29.6116 170.784 29.2476 170.294 28.3656 170.294C27.7356 170.294 27.2876 170.56 26.8816 170.924V176.006H25.7616V170.966L25.5656 169.524L26.6716 169.342L26.7836 170.112H26.7976C27.2876 169.636 27.9316 169.3 28.7436 169.3C29.8496 169.3 30.7316 170.014 30.7316 171.358V176.006ZM35.8793 170.42C35.1233 170.42 34.5633 170.616 34.0593 171.078V176.006H32.9393V170.966L32.7433 169.524L33.8493 169.342L33.9613 170.238H33.9753C34.4233 169.734 35.0113 169.314 35.8793 169.314V170.42ZM41.6319 175.656C41.0019 176.006 40.3579 176.16 39.5599 176.16C37.6279 176.16 36.6339 174.858 36.6339 172.688C36.6339 170.658 37.6979 169.3 39.3499 169.3C40.9319 169.3 41.5759 170.35 41.5759 171.792V172.576H37.7259C37.7399 174.326 38.3699 175.166 39.7979 175.166C40.3439 175.166 40.7639 175.012 41.2399 174.774L41.6319 175.656ZM40.5259 171.792C40.5259 170.812 40.1619 170.196 39.2939 170.196C38.4539 170.196 37.9219 170.854 37.7819 171.792H40.5259ZM47.6006 175.936L46.4806 176.118L46.3826 175.348H46.3686C45.8926 175.796 45.3746 176.174 44.5906 176.174C43.4986 176.174 42.8546 175.516 42.8546 174.48C42.8546 173.304 43.7786 172.73 45.1086 172.59L46.2846 172.464V171.876C46.2846 170.966 46.0046 170.322 44.9266 170.322C44.3806 170.322 43.9746 170.49 43.5686 170.7L43.1626 169.874C43.7506 169.524 44.3526 169.3 45.1926 169.3C46.5086 169.3 47.3906 170.07 47.3906 171.372V174.494L47.6006 175.936ZM46.2846 174.648V173.22L45.2626 173.36C44.4226 173.472 43.9606 173.738 43.9606 174.34C43.9606 174.886 44.2966 175.25 44.8566 175.25C45.5146 175.25 45.9206 174.97 46.2846 174.648ZM50.7384 176.006H49.6184V168.068L49.4224 166.626L50.7384 166.444V176.006ZM54.103 176.006H52.983V170.966L52.787 169.524L54.103 169.342V176.006ZM54.327 167.746C54.327 168.194 53.977 168.53 53.557 168.53C53.123 168.53 52.759 168.194 52.759 167.746C52.759 167.298 53.123 166.948 53.557 166.948C53.977 166.948 54.327 167.298 54.327 167.746ZM60.6016 176.006H55.8696V175.25L59.0756 170.378V170.364H56.0656V169.454H60.4616V170.21L57.2836 175.068V175.082H60.6016V176.006ZM66.5694 175.656C65.9394 176.006 65.2954 176.16 64.4974 176.16C62.5654 176.16 61.5714 174.858 61.5714 172.688C61.5714 170.658 62.6354 169.3 64.2874 169.3C65.8694 169.3 66.5134 170.35 66.5134 171.792V172.576H62.6634C62.6774 174.326 63.3074 175.166 64.7354 175.166C65.2814 175.166 65.7014 175.012 66.1774 174.774L66.5694 175.656ZM65.4634 171.792C65.4634 170.812 65.0994 170.196 64.2314 170.196C63.3914 170.196 62.8594 170.854 62.7194 171.792H65.4634ZM73.1541 175.964L72.0761 176.118L71.9781 175.46H71.9641C71.5441 175.81 70.9701 176.16 70.2001 176.16C68.7581 176.16 67.7921 174.97 67.7921 173.024C67.7921 170.77 68.9541 169.384 70.9421 169.384C71.4741 169.384 71.8521 169.482 71.8521 169.482V168.068L71.6421 166.626L72.9581 166.444V174.522L73.1541 175.964ZM70.5921 175.18C71.1381 175.18 71.5161 174.956 71.8521 174.69V170.504C71.8521 170.504 71.4881 170.322 70.8441 170.322C69.5701 170.322 68.9401 171.4 68.9401 172.674C68.9401 174.256 69.3601 175.18 70.5921 175.18ZM83.0386 169.664C83.0386 171.638 81.4286 172.632 79.5526 172.632H79.3426V176.006H78.1806V167.648C78.1806 167.648 79.2306 167.494 80.3366 167.494C81.9746 167.494 83.0386 168.278 83.0386 169.664ZM81.8906 169.874C81.8906 168.838 81.2046 168.376 80.1406 168.376C79.6926 168.376 79.3426 168.432 79.3426 168.432V171.736H79.5246C80.7706 171.736 81.8906 171.176 81.8906 169.874ZM87.6653 166.514L83.2553 178.666L82.2753 178.302L86.6993 166.15L87.6653 166.514ZM93.3773 176.006H88.9813V167.578H90.1573V175.012H93.3773V176.006Z" fill="#00157E" fill-opacity="0.7"/>
<path d="M347.963 174.634C347.291 174.982 346.607 175.138 345.695 175.138C343.931 175.138 342.575 173.95 342.575 171.55C342.575 168.994 344.087 167.65 346.031 167.65C346.835 167.65 347.327 167.77 347.939 168.034L347.555 168.91C347.099 168.706 346.667 168.55 346.019 168.55C344.759 168.55 343.607 169.522 343.607 171.298C343.607 173.278 344.339 174.25 346.091 174.25C346.667 174.25 347.195 174.022 347.627 173.83L347.963 174.634ZM354.486 175.006H353.478V171.706H350.226V175.006H349.218V167.782H350.226V170.854H353.478V167.782H354.486V175.006ZM360.071 168.634H357.479V170.986H359.819V171.838H357.479V175.006H356.483V167.782H360.071V168.634Z" fill="#00157E" fill-opacity="0.7"/>
<path d="M375.101 172.394H369.459V171.47H375.101V172.394ZM380.796 176.006H375.602V175.278L377.996 172.982C378.64 172.352 379.13 171.89 379.13 171.12C379.13 170.308 378.626 169.706 377.688 169.706C377.058 169.706 376.61 169.986 376.274 170.266L375.742 169.524C376.344 169.02 376.96 168.712 377.926 168.712C379.312 168.712 380.264 169.524 380.264 170.994C380.264 171.974 379.676 172.716 379.004 173.332L377.212 174.984V174.998H380.796V176.006ZM386.864 173.962C386.864 175.306 385.842 176.16 384.4 176.16C382.93 176.16 381.936 175.418 381.936 174.046C381.936 172.814 382.846 172.072 383.546 171.596C382.706 171.008 382.146 170.504 382.146 169.454C382.146 168.264 383.126 167.424 384.386 167.424C385.744 167.424 386.626 168.18 386.626 169.356C386.626 170.364 385.926 171.008 385.24 171.484C386.136 172.086 386.864 172.688 386.864 173.962ZM385.786 173.962C385.786 173.052 385.156 172.59 384.316 172.044C383.574 172.548 383 172.982 383 173.906C383 174.746 383.56 175.222 384.414 175.222C385.324 175.222 385.786 174.662 385.786 173.962ZM385.632 169.482C385.632 168.768 385.156 168.306 384.4 168.306C383.644 168.306 383.154 168.796 383.154 169.496C383.154 170.154 383.7 170.532 384.456 171.05C385.058 170.658 385.632 170.154 385.632 169.482ZM389.987 175.292C389.987 175.74 389.623 176.104 389.189 176.104C388.741 176.104 388.377 175.74 388.377 175.292C388.377 174.858 388.741 174.494 389.189 174.494C389.623 174.494 389.987 174.858 389.987 175.292ZM397.232 172.436C397.232 174.298 396.504 176.16 394.39 176.16C392.262 176.16 391.534 174.298 391.534 172.436C391.534 170.574 392.262 168.712 394.39 168.712C396.504 168.712 397.232 170.574 397.232 172.436ZM396.084 172.436C396.084 170.868 395.566 169.692 394.39 169.692C393.2 169.692 392.682 170.868 392.682 172.436C392.682 174.004 393.2 175.18 394.39 175.18C395.566 175.18 396.084 174.004 396.084 172.436ZM403.573 176.006H398.379V175.278L400.773 172.982C401.417 172.352 401.907 171.89 401.907 171.12C401.907 170.308 401.403 169.706 400.465 169.706C399.835 169.706 399.387 169.986 399.051 170.266L398.519 169.524C399.121 169.02 399.737 168.712 400.703 168.712C402.089 168.712 403.041 169.524 403.041 170.994C403.041 171.974 402.453 172.716 401.781 173.332L399.989 174.984V174.998H403.573V176.006Z" fill="#00157E" fill-opacity="0.7"/>
<g clip-path="url(#clip2_864_116028)">
<path d="M21.965 192.573H19.613V200.007H18.437V192.573H16.085V191.579H21.965V192.573ZM27.3863 196.731C27.3863 198.649 26.4763 200.161 24.5863 200.161C22.5143 200.161 21.7863 198.691 21.7863 196.731C21.7863 194.813 22.6963 193.301 24.5863 193.301C26.6583 193.301 27.3863 194.771 27.3863 196.731ZM26.2383 196.759C26.2383 195.135 25.6923 194.281 24.5863 194.281C23.5083 194.281 22.9343 195.037 22.9343 196.689C22.9343 198.313 23.4803 199.181 24.5863 199.181C25.6643 199.181 26.2383 198.411 26.2383 196.759ZM32.3462 199.741C31.9402 199.965 31.5622 200.147 30.8482 200.147C29.8402 200.147 29.1962 199.489 29.1962 198.369V194.365H28.2302V193.623L29.1962 193.427V192.335L30.3022 192.195V193.455H32.1362V194.365H30.3022V197.991C30.3022 198.873 30.5262 199.153 31.1702 199.153C31.5202 199.153 31.7862 199.013 31.9822 198.887L32.3462 199.741ZM38.1397 199.937L37.0197 200.119L36.9217 199.349H36.9077C36.4317 199.797 35.9137 200.175 35.1297 200.175C34.0377 200.175 33.3937 199.517 33.3937 198.481C33.3937 197.305 34.3177 196.731 35.6477 196.591L36.8237 196.465V195.877C36.8237 194.967 36.5437 194.323 35.4657 194.323C34.9197 194.323 34.5137 194.491 34.1077 194.701L33.7017 193.875C34.2897 193.525 34.8917 193.301 35.7317 193.301C37.0477 193.301 37.9297 194.071 37.9297 195.373V198.495L38.1397 199.937ZM36.8237 198.649V197.221L35.8017 197.361C34.9617 197.473 34.4997 197.739 34.4997 198.341C34.4997 198.887 34.8357 199.251 35.3957 199.251C36.0537 199.251 36.4597 198.971 36.8237 198.649ZM41.2774 200.007H40.1574V192.069L39.9614 190.627L41.2774 190.445V200.007ZM51.3335 193.665C51.3335 195.639 49.7235 196.633 47.8475 196.633H47.6375V200.007H46.4755V191.649C46.4755 191.649 47.5255 191.495 48.6315 191.495C50.2695 191.495 51.3335 192.279 51.3335 193.665ZM50.1855 193.875C50.1855 192.839 49.4995 192.377 48.4355 192.377C47.9875 192.377 47.6375 192.433 47.6375 192.433V195.737H47.8195C49.0655 195.737 50.1855 195.177 50.1855 193.875ZM55.9603 190.515L51.5503 202.667L50.5703 202.303L54.9943 190.151L55.9603 190.515ZM61.6723 200.007H57.2763V191.579H58.4523V199.013H61.6723V200.007Z" fill="#00157E" fill-opacity="0.7"/>
</g>
<path d="M350.963 198.635C350.291 198.983 349.607 199.139 348.695 199.139C346.931 199.139 345.575 197.951 345.575 195.551C345.575 192.995 347.087 191.651 349.031 191.651C349.835 191.651 350.327 191.771 350.939 192.035L350.555 192.911C350.099 192.707 349.667 192.551 349.019 192.551C347.759 192.551 346.607 193.523 346.607 195.299C346.607 197.279 347.339 198.251 349.091 198.251C349.667 198.251 350.195 198.023 350.627 197.831L350.963 198.635ZM357.486 199.007H356.478V195.707H353.226V199.007H352.218V191.783H353.226V194.855H356.478V191.783H357.486V199.007ZM363.071 192.635H360.479V194.987H362.819V195.839H360.479V199.007H359.483V191.783H363.071V192.635Z" fill="#00157E" fill-opacity="0.7"/>
<path d="M375.967 196.395H372.705V195.457H375.967V196.395ZM381.739 199.447C381.739 201.127 380.661 202.191 378.813 202.191C378.267 202.191 377.693 202.093 377.175 201.967L377.427 200.917C377.889 201.057 378.281 201.169 378.841 201.169C379.947 201.169 380.619 200.623 380.619 199.615C380.619 198.243 379.359 197.711 377.581 197.711V196.913C379.653 196.787 380.227 195.863 380.227 194.953C380.227 194.155 379.737 193.707 378.953 193.707C378.309 193.707 377.931 193.917 377.511 194.197L377.049 193.427C377.553 193.035 378.197 192.713 379.177 192.713C380.521 192.713 381.347 193.511 381.347 194.813C381.347 195.947 380.689 196.703 379.751 197.151V197.165C381.123 197.459 381.739 198.369 381.739 199.447ZM387.508 199.447C387.508 201.127 386.43 202.191 384.582 202.191C384.036 202.191 383.462 202.093 382.944 201.967L383.196 200.917C383.658 201.057 384.05 201.169 384.61 201.169C385.716 201.169 386.388 200.623 386.388 199.615C386.388 198.243 385.128 197.711 383.35 197.711V196.913C385.422 196.787 385.996 195.863 385.996 194.953C385.996 194.155 385.506 193.707 384.722 193.707C384.078 193.707 383.7 193.917 383.28 194.197L382.818 193.427C383.322 193.035 383.966 192.713 384.946 192.713C386.29 192.713 387.116 193.511 387.116 194.813C387.116 195.947 386.458 196.703 385.52 197.151V197.165C386.892 197.459 387.508 198.369 387.508 199.447ZM390.534 199.293C390.534 199.741 390.17 200.105 389.736 200.105C389.288 200.105 388.924 199.741 388.924 199.293C388.924 198.859 389.288 198.495 389.736 198.495C390.17 198.495 390.534 198.859 390.534 199.293ZM397.079 200.007H391.885V199.279L394.279 196.983C394.923 196.353 395.413 195.891 395.413 195.121C395.413 194.309 394.909 193.707 393.971 193.707C393.341 193.707 392.893 193.987 392.557 194.267L392.025 193.525C392.627 193.021 393.243 192.713 394.209 192.713C395.595 192.713 396.547 193.525 396.547 194.995C396.547 195.975 395.959 196.717 395.287 197.333L393.495 198.985V198.999H397.079V200.007ZM403.427 197.445C403.427 199.097 402.447 200.161 400.865 200.161C399.073 200.161 398.317 198.831 398.317 196.857C398.317 193.049 400.557 191.481 402.993 191.285L403.133 192.209C401.453 192.391 399.773 193.301 399.451 195.639L399.465 195.653C399.465 195.653 400.179 195.037 401.145 195.037C402.615 195.037 403.427 195.975 403.427 197.445ZM402.321 197.669C402.321 196.479 401.859 195.975 400.837 195.975C400.039 195.975 399.451 196.535 399.451 196.535V196.801C399.451 198.369 399.857 199.237 400.963 199.237C401.887 199.237 402.321 198.579 402.321 197.669Z" fill="#00157E" fill-opacity="0.7"/>
<defs>
<clipPath id="clip0_864_116028">
<rect width="313.998" height="24" fill="white" transform="translate(16.001 64.002)"/>
</clipPath>
<clipPath id="clip1_864_116028">
<rect width="296.998" height="24" fill="white" transform="translate(16.001 112.004)"/>
</clipPath>
<clipPath id="clip2_864_116028">
<rect width="316.998" height="24" fill="white" transform="translate(16.001 184.007)"/>
</clipPath>
</defs>
</svg>
