<svg width="148" height="40" viewBox="0 0 148 40" fill="none" xmlns="http://www.w3.org/2000/svg">
<g clip-path="url(#clip0_328_1234347)">
<path d="M0 4C0 1.79086 1.79086 0 4 0H144C146.209 0 148 1.79086 148 4V36C148 38.2091 146.209 40 144 40H4C1.79086 40 0 38.2091 0 36V4Z" fill="#00157E"/>
<path d="M0.333252 4C0.333252 1.79086 2.12411 0 4.33325 0H144.333C146.542 0 148.333 1.79086 148.333 4V36C148.333 38.2091 146.542 40 144.333 40H4.33325C2.12411 40 0.333252 38.2091 0.333252 36V4Z" fill="white" fill-opacity="0.2"/>
<path d="M31 20H17" stroke="white" stroke-width="2" stroke-linecap="round" stroke-linejoin="round"/>
<path d="M24 27L17 20L24 13" stroke="white" stroke-width="2" stroke-linecap="round" stroke-linejoin="round"/>
<path d="M59.9486 22.056C59.9486 24.216 58.1726 25 55.8366 25H53.8046V15.432C53.8046 15.432 55.0206 15.288 56.2686 15.288C58.1086 15.288 59.2286 15.976 59.2286 17.496C59.2286 18.648 58.5086 19.416 57.5966 19.816V19.832C58.8926 19.976 59.9486 20.728 59.9486 22.056ZM58.6206 22.264C58.6206 21.192 57.9326 20.552 56.0446 20.552H55.1166V23.912H56.2846C57.5966 23.912 58.6206 23.416 58.6206 22.264ZM57.9006 17.8C57.9006 16.728 57.2126 16.264 55.9806 16.264C55.5326 16.264 55.1166 16.312 55.1166 16.312V19.624C56.7646 19.592 57.9006 19.128 57.9006 17.8ZM67.6606 24.92L66.3966 25.128L66.2686 24.264H66.2526C65.6926 24.792 64.9566 25.176 64.0286 25.176C62.7646 25.176 61.7566 24.36 61.7566 22.824V19.24L61.5326 17.592L63.0366 17.384V22.376C63.0366 23.48 63.4526 24.056 64.4606 24.056C65.1806 24.056 65.6926 23.752 66.1566 23.32V19.24L65.9326 17.592L67.4366 17.384V23.272L67.6606 24.92ZM73.7349 24.696C73.2709 24.952 72.8389 25.16 72.0229 25.16C70.8709 25.16 70.1349 24.408 70.1349 23.128V18.552H69.0309V17.704L70.1349 17.48V16.232L71.3989 16.072V17.512H73.4949V18.552H71.3989V22.696C71.3989 23.704 71.6549 24.024 72.3909 24.024C72.7909 24.024 73.0949 23.864 73.3189 23.72L73.7349 24.696ZM79.1881 24.696C78.7241 24.952 78.2921 25.16 77.4761 25.16C76.3241 25.16 75.5881 24.408 75.5881 23.128V18.552H74.4841V17.704L75.5881 17.48V16.232L76.8521 16.072V17.512H78.9481V18.552H76.8521V22.696C76.8521 23.704 77.1081 24.024 77.8441 24.024C78.2441 24.024 78.5481 23.864 78.7721 23.72L79.1881 24.696ZM86.5664 21.256C86.5664 23.448 85.5264 25.176 83.3664 25.176C80.9984 25.176 80.1664 23.496 80.1664 21.256C80.1664 19.064 81.2064 17.336 83.3664 17.336C85.7344 17.336 86.5664 19.016 86.5664 21.256ZM85.2544 21.288C85.2544 19.432 84.6304 18.456 83.3664 18.456C82.1344 18.456 81.4784 19.32 81.4784 21.208C81.4784 23.064 82.1024 24.056 83.3664 24.056C84.5984 24.056 85.2544 23.176 85.2544 21.288ZM94.2803 25H93.0003V20.136C93.0003 19.032 92.5843 18.472 91.5763 18.472C90.8563 18.472 90.3443 18.776 89.8803 19.192V25H88.6003V19.24L88.3763 17.592L89.6403 17.384L89.7683 18.264H89.7843C90.3443 17.72 91.0803 17.336 92.0083 17.336C93.2723 17.336 94.2803 18.152 94.2803 19.688V25Z" fill="white"/>
<path d="M117 20H131" stroke="#F4F6FF" stroke-width="2" stroke-linecap="round" stroke-linejoin="round"/>
<path d="M124 13L131 20L124 27" stroke="#F4F6FF" stroke-width="2" stroke-linecap="round" stroke-linejoin="round"/>
</g>
<path d="M4 0.5H144C145.933 0.5 147.5 2.067 147.5 4V36C147.5 37.933 145.933 39.5 144 39.5H4C2.067 39.5 0.5 37.933 0.5 36V4C0.500001 2.067 2.067 0.5 4 0.5Z" stroke="#00157E"/>
<defs>
<clipPath id="clip0_328_1234347">
<path d="M0 4C0 1.79086 1.79086 0 4 0H144C146.209 0 148 1.79086 148 4V36C148 38.2091 146.209 40 144 40H4C1.79086 40 0 38.2091 0 36V4Z" fill="white"/>
</clipPath>
</defs>
</svg>
