<svg width="420" height="480" viewBox="0 0 420 480" fill="none" xmlns="http://www.w3.org/2000/svg">
<g clip-path="url(#clip0_820_126258)">
<g clip-path="url(#clip1_820_126258)">
<path d="M38.6499 14.3912L27.9999 22.1312L17.3499 14.3912C17.2071 14.2862 17.1012 14.1387 17.0473 13.9699C16.9935 13.801 16.9943 13.6195 17.0499 13.4512L18.2699 9.67118L20.7099 2.16118C20.7336 2.09999 20.7712 2.04519 20.8199 2.00118C20.8991 1.9288 21.0026 1.88867 21.1099 1.88867C21.2172 1.88867 21.3207 1.9288 21.3999 2.00118C21.4513 2.05085 21.4891 2.1128 21.5099 2.18118L23.9499 9.67118H32.0499L34.4899 2.16118C34.5136 2.09999 34.5512 2.04519 34.5999 2.00118C34.6791 1.9288 34.7826 1.88867 34.8899 1.88867C34.9972 1.88867 35.1007 1.9288 35.1799 2.00118C35.2313 2.05085 35.2691 2.1128 35.2899 2.18118L37.7299 9.69118L38.9999 13.4512C39.0504 13.6247 39.0437 13.8098 38.9806 13.9792C38.9176 14.1485 38.8016 14.293 38.6499 14.3912Z" stroke="#00157E" stroke-width="2" stroke-linecap="round" stroke-linejoin="round"/>
</g>
<path d="M55.77 11.255C55.77 14.335 53.922 16.001 50.926 16.001H49.162V7.62898C49.162 7.62898 50.324 7.48898 51.57 7.48898C54.174 7.48898 55.77 8.84698 55.77 11.255ZM54.552 11.423C54.552 9.43498 53.208 8.48298 51.374 8.48298C50.786 8.48298 50.338 8.51098 50.338 8.51098V14.951H51.15C53.152 14.951 54.552 13.761 54.552 11.423ZM62.1055 15.651C61.4755 16.001 60.8315 16.155 60.0335 16.155C58.1015 16.155 57.1075 14.853 57.1075 12.683C57.1075 10.653 58.1715 9.29498 59.8235 9.29498C61.4055 9.29498 62.0495 10.345 62.0495 11.787V12.571H58.1995C58.2135 14.321 58.8435 15.161 60.2715 15.161C60.8175 15.161 61.2375 15.007 61.7135 14.769L62.1055 15.651ZM60.9995 11.787C60.9995 10.807 60.6355 10.191 59.7675 10.191C58.9275 10.191 58.3955 10.849 58.2555 11.787H60.9995ZM68.9283 12.403C68.9283 14.531 68.0043 16.071 65.8203 16.071C65.4563 16.071 65.1623 16.043 64.8963 15.973V18.773L63.7763 18.955V10.961L63.5802 9.51898L64.6863 9.33698L64.7843 10.009H64.7983C65.2323 9.64498 65.8063 9.29498 66.5623 9.29498C68.1583 9.29498 68.9283 10.499 68.9283 12.403ZM67.8083 12.725C67.8083 11.297 67.4863 10.303 66.1843 10.303C65.6243 10.303 65.2183 10.541 64.8963 10.807V14.937C65.1623 15.049 65.4703 15.119 65.9043 15.119C67.1223 15.119 67.8083 14.167 67.8083 12.725ZM75.8599 12.725C75.8599 14.643 74.9499 16.155 73.0599 16.155C70.9879 16.155 70.2599 14.685 70.2599 12.725C70.2599 10.807 71.1699 9.29498 73.0599 9.29498C75.1319 9.29498 75.8599 10.765 75.8599 12.725ZM74.7119 12.753C74.7119 11.129 74.1659 10.275 73.0599 10.275C71.9819 10.275 71.4079 11.031 71.4079 12.683C71.4079 14.307 71.9539 15.175 73.0599 15.175C74.1379 15.175 74.7119 14.405 74.7119 12.753ZM81.4335 14.097C81.4335 15.287 80.4955 16.141 79.0955 16.141C78.4235 16.141 77.7515 16.043 77.2195 15.791L77.5555 14.811C78.0175 15.021 78.5355 15.189 79.0395 15.189C79.7955 15.189 80.2995 14.895 80.2995 14.279C80.2995 13.803 80.0475 13.607 79.6135 13.411L78.3955 12.851C77.9615 12.655 77.1775 12.263 77.1775 11.129C77.1775 9.88298 78.2695 9.29498 79.4595 9.29498C80.1735 9.29498 80.6775 9.40698 81.2375 9.64498L80.8595 10.611C80.4115 10.415 79.9775 10.275 79.4455 10.275C78.7315 10.275 78.2695 10.499 78.2695 11.059C78.2695 11.549 78.6895 11.745 78.9555 11.871L80.2015 12.459C81.0695 12.865 81.4335 13.383 81.4335 14.097ZM84.352 16.001H83.232V10.961L83.036 9.51898L84.352 9.33698V16.001ZM84.576 7.74098C84.576 8.18898 84.226 8.52498 83.806 8.52498C83.372 8.52498 83.008 8.18898 83.008 7.74098C83.008 7.29298 83.372 6.94298 83.806 6.94298C84.226 6.94298 84.576 7.29298 84.576 7.74098ZM89.8706 15.735C89.4646 15.959 89.0866 16.141 88.3726 16.141C87.3646 16.141 86.7206 15.483 86.7206 14.363V10.359H85.7546V9.61698L86.7206 9.42098V8.32898L87.8266 8.18898V9.44898H89.6606V10.359H87.8266V13.985C87.8266 14.867 88.0506 15.147 88.6946 15.147C89.0446 15.147 89.3106 15.007 89.5066 14.881L89.8706 15.735ZM97.0362 12.389H93.7742V11.451H97.0362V12.389ZM103.48 16.001H102.374V9.81298L101.142 9.98098L101.016 9.12698L103.48 8.73498V16.001ZM110.356 16.001H105.162V15.273L107.556 12.977C108.2 12.347 108.69 11.885 108.69 11.115C108.69 10.303 108.186 9.70098 107.248 9.70098C106.618 9.70098 106.17 9.98098 105.834 10.261L105.302 9.51898C105.904 9.01498 106.52 8.70698 107.486 8.70698C108.872 8.70698 109.824 9.51898 109.824 10.989C109.824 11.969 109.236 12.711 108.564 13.327L106.772 14.979V14.993H110.356V16.001ZM115.865 15.441C115.865 17.121 114.787 18.185 112.939 18.185C112.393 18.185 111.819 18.087 111.301 17.961L111.553 16.911C112.015 17.051 112.407 17.163 112.967 17.163C114.073 17.163 114.745 16.617 114.745 15.609C114.745 14.237 113.485 13.705 111.707 13.705V12.907C113.779 12.781 114.353 11.857 114.353 10.947C114.353 10.149 113.863 9.70098 113.079 9.70098C112.435 9.70098 112.057 9.91098 111.637 10.191L111.175 9.42098C111.679 9.02898 112.323 8.70698 113.303 8.70698C114.647 8.70698 115.473 9.50498 115.473 10.807C115.473 11.941 114.815 12.697 113.877 13.145V13.159C115.249 13.453 115.865 14.363 115.865 15.441ZM118.89 15.287C118.89 15.735 118.526 16.099 118.092 16.099C117.644 16.099 117.28 15.735 117.28 15.287C117.28 14.853 117.644 14.489 118.092 14.489C118.526 14.489 118.89 14.853 118.89 15.287ZM126.71 15.119H125.016V17.975L123.938 18.157V15.119H120.088V14.209L123.98 8.86098H125.016V14.167H126.71V15.119ZM123.938 14.167V10.373H123.924L121.236 14.167H123.938ZM132.015 14.741C132.015 17.429 129.481 18.185 127.675 18.325L127.535 17.373C128.809 17.233 130.867 16.729 130.867 14.895C130.867 13.747 130.223 13.075 128.431 13.075H127.493L127.801 8.86098H131.791V9.88298H128.767L128.585 12.235C128.585 12.235 128.907 12.207 129.201 12.207C130.825 12.207 132.015 13.061 132.015 14.741ZM138.565 13.439C138.565 15.091 137.585 16.155 136.003 16.155C134.211 16.155 133.455 14.825 133.455 12.851C133.455 9.04298 135.695 7.47498 138.131 7.27898L138.271 8.20298C136.591 8.38498 134.911 9.29498 134.589 11.633L134.603 11.647C134.603 11.647 135.317 11.031 136.283 11.031C137.753 11.031 138.565 11.969 138.565 13.439ZM137.459 13.663C137.459 12.473 136.997 11.969 135.975 11.969C135.177 11.969 134.589 12.529 134.589 12.529V12.795C134.589 14.363 134.995 15.231 136.101 15.231C137.025 15.231 137.459 14.573 137.459 13.663ZM141.545 15.287C141.545 15.735 141.181 16.099 140.747 16.099C140.299 16.099 139.935 15.735 139.935 15.287C139.935 14.853 140.299 14.489 140.747 14.489C141.181 14.489 141.545 14.853 141.545 15.287ZM147.344 9.81298L143.34 18.311L142.402 17.835L146.126 9.88298H142.318V8.86098H147.344V9.81298ZM153.392 13.957C153.392 15.301 152.37 16.155 150.928 16.155C149.458 16.155 148.464 15.413 148.464 14.041C148.464 12.809 149.374 12.067 150.074 11.591C149.234 11.003 148.674 10.499 148.674 9.44898C148.674 8.25898 149.654 7.41898 150.914 7.41898C152.272 7.41898 153.154 8.17498 153.154 9.35098C153.154 10.359 152.454 11.003 151.768 11.479C152.664 12.081 153.392 12.683 153.392 13.957ZM152.314 13.957C152.314 13.047 151.684 12.585 150.844 12.039C150.102 12.543 149.528 12.977 149.528 13.901C149.528 14.741 150.088 15.217 150.942 15.217C151.852 15.217 152.314 14.657 152.314 13.957ZM152.16 9.47698C152.16 8.76298 151.684 8.30098 150.928 8.30098C150.172 8.30098 149.682 8.79098 149.682 9.49098C149.682 10.149 150.228 10.527 150.984 11.045C151.586 10.653 152.16 10.149 152.16 9.47698Z" fill="#00157E" fill-opacity="0.7"/>
</g>
<path d="M0 36.001C0 31.5827 3.58172 28.001 8 28.001H412C416.418 28.001 420 31.5827 420 36.001V472.002C420 476.42 416.418 480.002 412 480.002H8C3.58172 480.002 0 476.42 0 472.002V36.001Z" fill="white"/>
<path d="M8 28.501H412C416.142 28.501 419.5 31.8588 419.5 36.001V472.002C419.5 476.144 416.142 479.502 412 479.502H8C3.85786 479.502 0.5 476.144 0.5 472.002V36.001C0.5 31.8588 3.85786 28.501 8 28.501Z" stroke="#00157E" stroke-opacity="0.2"/>
<path d="M29.344 69.501H17.216V67.453L22.496 62.493C23.872 61.213 24.8 60.285 24.8 58.621C24.8 56.925 23.776 55.709 21.92 55.709C20.512 55.709 19.584 56.349 18.816 56.925L17.344 54.781C18.752 53.565 20.32 52.829 22.592 52.829C25.856 52.829 28.128 54.717 28.128 58.141C28.128 60.349 26.848 62.013 25.376 63.357L21.888 66.557V66.589H29.344V69.501ZM45.2253 61.341C45.2253 65.725 43.4333 69.853 38.5373 69.853C33.6733 69.853 31.8493 65.725 31.8493 61.341C31.8493 56.957 33.6733 52.829 38.5373 52.829C43.4333 52.829 45.2253 56.957 45.2253 61.341ZM41.9293 61.341C41.9293 57.981 40.8733 55.677 38.5373 55.677C36.2013 55.677 35.1453 57.981 35.1453 61.341C35.1453 64.701 36.2013 67.005 38.5373 67.005C40.8733 67.005 41.9293 64.701 41.9293 61.341ZM52.6693 52.317C52.6693 55.069 51.5493 56.861 49.4053 58.269L48.4773 57.181C49.5333 56.349 50.1413 55.389 50.3333 54.141C49.3093 54.013 48.4773 53.085 48.4773 52.029C48.4773 50.845 49.4053 49.949 50.5573 49.949C51.7413 49.949 52.6693 50.845 52.6693 52.317ZM69.319 61.341C69.319 65.725 67.527 69.853 62.631 69.853C57.767 69.853 55.943 65.725 55.943 61.341C55.943 56.957 57.767 52.829 62.631 52.829C67.527 52.829 69.319 56.957 69.319 61.341ZM66.023 61.341C66.023 57.981 64.967 55.677 62.631 55.677C60.295 55.677 59.239 57.981 59.239 61.341C59.239 64.701 60.295 67.005 62.631 67.005C64.967 67.005 66.023 64.701 66.023 61.341ZM85.819 61.341C85.819 65.725 84.027 69.853 79.131 69.853C74.267 69.853 72.443 65.725 72.443 61.341C72.443 56.957 74.267 52.829 79.131 52.829C84.027 52.829 85.819 56.957 85.819 61.341ZM82.523 61.341C82.523 57.981 81.467 55.677 79.131 55.677C76.795 55.677 75.739 57.981 75.739 61.341C75.739 64.701 76.795 67.005 79.131 67.005C81.467 67.005 82.523 64.701 82.523 61.341ZM102.319 61.341C102.319 65.725 100.527 69.853 95.631 69.853C90.767 69.853 88.943 65.725 88.943 61.341C88.943 56.957 90.767 52.829 95.631 52.829C100.527 52.829 102.319 56.957 102.319 61.341ZM99.023 61.341C99.023 57.981 97.967 55.677 95.631 55.677C93.295 55.677 92.239 57.981 92.239 61.341C92.239 64.701 93.295 67.005 95.631 67.005C97.967 67.005 99.023 64.701 99.023 61.341ZM109.763 67.613C109.763 68.765 108.835 69.725 107.651 69.725C106.499 69.725 105.571 68.765 105.571 67.613C105.571 66.461 106.499 65.533 107.651 65.533C108.835 65.533 109.763 66.461 109.763 67.613ZM126.413 61.341C126.413 65.725 124.621 69.853 119.725 69.853C114.861 69.853 113.037 65.725 113.037 61.341C113.037 56.957 114.861 52.829 119.725 52.829C124.621 52.829 126.413 56.957 126.413 61.341ZM123.117 61.341C123.117 57.981 122.061 55.677 119.725 55.677C117.389 55.677 116.333 57.981 116.333 61.341C116.333 64.701 117.389 67.005 119.725 67.005C122.061 67.005 123.117 64.701 123.117 61.341ZM142.913 61.341C142.913 65.725 141.121 69.853 136.225 69.853C131.361 69.853 129.537 65.725 129.537 61.341C129.537 56.957 131.361 52.829 136.225 52.829C141.121 52.829 142.913 56.957 142.913 61.341ZM139.617 61.341C139.617 57.981 138.561 55.677 136.225 55.677C133.889 55.677 132.833 57.981 132.833 61.341C132.833 64.701 133.889 67.005 136.225 67.005C138.561 67.005 139.617 64.701 139.617 61.341Z" fill="#00157E"/>
<path d="M160.952 69.005C160.056 69.469 159.144 69.677 157.928 69.677C155.576 69.677 153.768 68.093 153.768 64.893C153.768 61.485 155.784 59.693 158.376 59.693C159.448 59.693 160.104 59.853 160.92 60.205L160.408 61.373C159.8 61.101 159.224 60.893 158.36 60.893C156.68 60.893 155.144 62.189 155.144 64.557C155.144 67.197 156.12 68.493 158.456 68.493C159.224 68.493 159.928 68.189 160.504 67.933L160.952 69.005ZM169.649 69.501H168.305V65.101H163.969V69.501H162.625V59.869H163.969V63.965H168.305V59.869H169.649V69.501ZM177.096 61.005H173.64V64.141H176.76V65.277H173.64V69.501H172.312V59.869H177.096V61.005Z" fill="#00157E" fill-opacity="0.7"/>
<path d="M317 48.001C317 45.7918 318.791 44.001 321 44.001H400C402.209 44.001 404 45.7918 404 48.001V72.001C404 74.2101 402.209 76.001 400 76.001H321C318.791 76.001 317 74.2101 317 72.001V48.001Z" fill="#00157E" fill-opacity="0.05"/>
<path d="M333.252 59.255C333.252 62.335 331.404 64.001 328.408 64.001H326.644V55.629C326.644 55.629 327.806 55.489 329.052 55.489C331.656 55.489 333.252 56.847 333.252 59.255ZM332.034 59.423C332.034 57.435 330.69 56.483 328.856 56.483C328.268 56.483 327.82 56.511 327.82 56.511V62.951H328.632C330.634 62.951 332.034 61.761 332.034 59.423ZM339.588 63.651C338.958 64.001 338.314 64.155 337.516 64.155C335.584 64.155 334.59 62.853 334.59 60.683C334.59 58.653 335.654 57.295 337.306 57.295C338.888 57.295 339.532 58.345 339.532 59.787V60.571H335.682C335.696 62.321 336.326 63.161 337.754 63.161C338.3 63.161 338.72 63.007 339.196 62.769L339.588 63.651ZM338.482 59.787C338.482 58.807 338.118 58.191 337.25 58.191C336.41 58.191 335.878 58.849 335.738 59.787H338.482ZM344.535 63.735C344.129 63.959 343.751 64.141 343.037 64.141C342.029 64.141 341.385 63.483 341.385 62.363V58.359H340.419V57.617L341.385 57.421V56.329L342.491 56.189V57.449H344.325V58.359H342.491V61.985C342.491 62.867 342.715 63.147 343.359 63.147C343.709 63.147 343.975 63.007 344.171 62.881L344.535 63.735ZM350.328 63.931L349.208 64.113L349.11 63.343H349.096C348.62 63.791 348.102 64.169 347.318 64.169C346.226 64.169 345.582 63.511 345.582 62.475C345.582 61.299 346.506 60.725 347.836 60.585L349.012 60.459V59.871C349.012 58.961 348.732 58.317 347.654 58.317C347.108 58.317 346.702 58.485 346.296 58.695L345.89 57.869C346.478 57.519 347.08 57.295 347.92 57.295C349.236 57.295 350.118 58.065 350.118 59.367V62.489L350.328 63.931ZM349.012 62.643V61.215L347.99 61.355C347.15 61.467 346.688 61.733 346.688 62.335C346.688 62.881 347.024 63.245 347.584 63.245C348.242 63.245 348.648 62.965 349.012 62.643ZM353.522 64.001H352.402V58.961L352.206 57.519L353.522 57.337V64.001ZM353.746 55.741C353.746 56.189 353.396 56.525 352.976 56.525C352.542 56.525 352.178 56.189 352.178 55.741C352.178 55.293 352.542 54.943 352.976 54.943C353.396 54.943 353.746 55.293 353.746 55.741ZM356.857 64.001H355.737V56.063L355.541 54.621L356.857 54.439V64.001ZM362.867 62.097C362.867 63.287 361.929 64.141 360.529 64.141C359.857 64.141 359.185 64.043 358.653 63.791L358.989 62.811C359.451 63.021 359.969 63.189 360.473 63.189C361.229 63.189 361.733 62.895 361.733 62.279C361.733 61.803 361.481 61.607 361.047 61.411L359.829 60.851C359.395 60.655 358.611 60.263 358.611 59.129C358.611 57.883 359.703 57.295 360.893 57.295C361.607 57.295 362.111 57.407 362.671 57.645L362.293 58.611C361.845 58.415 361.411 58.275 360.879 58.275C360.165 58.275 359.703 58.499 359.703 59.059C359.703 59.549 360.123 59.745 360.389 59.871L361.635 60.459C362.503 60.865 362.867 61.383 362.867 62.097Z" fill="#00157E"/>
<path d="M377 60.001H391" stroke="#00157E" stroke-width="2" stroke-linecap="round" stroke-linejoin="round"/>
<path d="M384 53.001L391 60.001L384 67.001" stroke="#00157E" stroke-width="2" stroke-linecap="round" stroke-linejoin="round"/>
<g clip-path="url(#clip2_820_126258)">
<path d="M22.021 96.389H19.655V98.741H18.731V96.389H16.379V95.465H18.731V93.113H19.655V95.465H22.021V96.389ZM31.0652 96.319C31.0652 100.183 29.1052 101.989 26.3192 102.325L26.0952 101.415C27.8592 101.205 29.6372 100.071 29.8892 97.397L29.8752 97.383C29.8752 97.383 29.2172 97.943 28.2232 97.943C26.8232 97.943 25.9132 96.893 25.9132 95.451C25.9132 93.701 26.9632 92.707 28.5452 92.707C30.1692 92.707 31.0652 93.827 31.0652 96.319ZM29.9032 96.305C29.9032 94.919 29.6512 93.659 28.4052 93.659C27.5232 93.659 27.0052 94.387 27.0052 95.297C27.0052 96.459 27.5372 97.019 28.5312 97.019C29.3852 97.019 29.9032 96.515 29.9032 96.515V96.305ZM37.516 97.957C37.516 99.301 36.494 100.155 35.052 100.155C33.582 100.155 32.588 99.413 32.588 98.041C32.588 96.809 33.498 96.067 34.198 95.591C33.358 95.003 32.798 94.499 32.798 93.449C32.798 92.259 33.778 91.419 35.038 91.419C36.396 91.419 37.278 92.175 37.278 93.351C37.278 94.359 36.578 95.003 35.892 95.479C36.788 96.081 37.516 96.683 37.516 97.957ZM36.438 97.957C36.438 97.047 35.808 96.585 34.968 96.039C34.226 96.543 33.652 96.977 33.652 97.901C33.652 98.741 34.212 99.217 35.066 99.217C35.976 99.217 36.438 98.657 36.438 97.957ZM36.284 93.477C36.284 92.763 35.808 92.301 35.052 92.301C34.296 92.301 33.806 92.791 33.806 93.491C33.806 94.149 34.352 94.527 35.108 95.045C35.71 94.653 36.284 94.149 36.284 93.477ZM44.6854 96.431C44.6854 98.293 43.9574 100.155 41.8434 100.155C39.7154 100.155 38.9874 98.293 38.9874 96.431C38.9874 94.569 39.7154 92.707 41.8434 92.707C43.9574 92.707 44.6854 94.569 44.6854 96.431ZM43.5374 96.431C43.5374 94.863 43.0194 93.687 41.8434 93.687C40.6534 93.687 40.1354 94.863 40.1354 96.431C40.1354 97.999 40.6534 99.175 41.8434 99.175C43.0194 99.175 43.5374 97.999 43.5374 96.431ZM47.8445 99.287C47.8445 99.735 47.4805 100.099 47.0465 100.099C46.5985 100.099 46.2345 99.735 46.2345 99.287C46.2345 98.853 46.5985 98.489 47.0465 98.489C47.4805 98.489 47.8445 98.853 47.8445 99.287ZM53.7877 99.441C53.7877 101.121 52.7097 102.185 50.8617 102.185C50.3157 102.185 49.7417 102.087 49.2237 101.961L49.4757 100.911C49.9377 101.051 50.3297 101.163 50.8897 101.163C51.9957 101.163 52.6677 100.617 52.6677 99.609C52.6677 98.237 51.4077 97.705 49.6297 97.705V96.907C51.7017 96.781 52.2757 95.857 52.2757 94.947C52.2757 94.149 51.7857 93.701 51.0017 93.701C50.3577 93.701 49.9797 93.911 49.5597 94.191L49.0977 93.421C49.6017 93.029 50.2457 92.707 51.2257 92.707C52.5697 92.707 53.3957 93.505 53.3957 94.807C53.3957 95.941 52.7377 96.697 51.7997 97.145V97.159C53.1717 97.453 53.7877 98.363 53.7877 99.441ZM60.1453 96.319C60.1453 100.183 58.1853 101.989 55.3993 102.325L55.1753 101.415C56.9393 101.205 58.7173 100.071 58.9693 97.397L58.9553 97.383C58.9553 97.383 58.2973 97.943 57.3033 97.943C55.9033 97.943 54.9933 96.893 54.9933 95.451C54.9933 93.701 56.0433 92.707 57.6253 92.707C59.2493 92.707 60.1453 93.827 60.1453 96.319ZM58.9833 96.305C58.9833 94.919 58.7313 93.659 57.4853 93.659C56.6033 93.659 56.0853 94.387 56.0853 95.297C56.0853 96.459 56.6173 97.019 57.6113 97.019C58.4653 97.019 58.9833 96.515 58.9833 96.515V96.305Z" fill="#00157E"/>
<path d="M71.959 99.567C71.175 99.973 70.377 100.155 69.313 100.155C67.255 100.155 65.673 98.769 65.673 95.969C65.673 92.987 67.437 91.419 69.705 91.419C70.643 91.419 71.217 91.559 71.931 91.867L71.483 92.889C70.951 92.651 70.447 92.469 69.691 92.469C68.221 92.469 66.877 93.603 66.877 95.675C66.877 97.985 67.731 99.119 69.775 99.119C70.447 99.119 71.063 98.853 71.567 98.629L71.959 99.567ZM79.5687 100.001H78.3927V96.151H74.5987V100.001H73.4227V91.573H74.5987V95.157H78.3927V91.573H79.5687V100.001ZM86.0853 92.567H83.0613V95.311H85.7913V96.305H83.0613V100.001H81.8993V91.573H86.0853V92.567Z" fill="#00157E" fill-opacity="0.7"/>
<path d="M109.021 96.389H106.655V98.741H105.731V96.389H103.379V95.465H105.731V93.113H106.655V95.465H109.021V96.389ZM118.079 100.001H112.885V99.273L115.279 96.977C115.923 96.347 116.413 95.885 116.413 95.115C116.413 94.303 115.909 93.701 114.971 93.701C114.341 93.701 113.893 93.981 113.557 94.261L113.025 93.519C113.627 93.015 114.243 92.707 115.209 92.707C116.595 92.707 117.547 93.519 117.547 94.989C117.547 95.969 116.959 96.711 116.287 97.327L114.495 98.979V98.993H118.079V100.001ZM120.913 99.287C120.913 99.735 120.549 100.099 120.115 100.099C119.667 100.099 119.303 99.735 119.303 99.287C119.303 98.853 119.667 98.489 120.115 98.489C120.549 98.489 120.913 98.853 120.913 99.287ZM128.158 96.431C128.158 98.293 127.43 100.155 125.316 100.155C123.188 100.155 122.46 98.293 122.46 96.431C122.46 94.569 123.188 92.707 125.316 92.707C127.43 92.707 128.158 94.569 128.158 96.431ZM127.01 96.431C127.01 94.863 126.492 93.687 125.316 93.687C124.126 93.687 123.608 94.863 123.608 96.431C123.608 97.999 124.126 99.175 125.316 99.175C126.492 99.175 127.01 97.999 127.01 96.431ZM135.363 96.431C135.363 98.293 134.635 100.155 132.521 100.155C130.393 100.155 129.665 98.293 129.665 96.431C129.665 94.569 130.393 92.707 132.521 92.707C134.635 92.707 135.363 94.569 135.363 96.431ZM134.215 96.431C134.215 94.863 133.697 93.687 132.521 93.687C131.331 93.687 130.813 94.863 130.813 96.431C130.813 97.999 131.331 99.175 132.521 99.175C133.697 99.175 134.215 97.999 134.215 96.431Z" fill="#00157E"/>
<path d="M146.069 93.617C146.069 94.877 145.103 95.843 143.843 95.843C142.583 95.843 141.617 94.877 141.617 93.617C141.617 92.357 142.583 91.419 143.843 91.419C145.103 91.419 146.069 92.357 146.069 93.617ZM152.285 97.943C152.285 99.203 151.319 100.155 150.059 100.155C148.799 100.155 147.833 99.203 147.833 97.943C147.833 96.697 148.799 95.745 150.059 95.745C151.319 95.745 152.285 96.697 152.285 97.943ZM149.709 91.769L145.075 100.281L144.221 99.819L148.855 91.307L149.709 91.769ZM151.263 97.943C151.263 97.229 150.773 96.739 150.059 96.739C149.345 96.739 148.855 97.229 148.855 97.943C148.855 98.643 149.345 99.175 150.059 99.175C150.773 99.175 151.263 98.643 151.263 97.943ZM145.033 93.617C145.033 92.903 144.557 92.413 143.843 92.413C143.129 92.413 142.639 92.903 142.639 93.617C142.639 94.331 143.129 94.849 143.843 94.849C144.557 94.849 145.033 94.331 145.033 93.617Z" fill="#00157E" fill-opacity="0.7"/>
</g>
<path d="M341.453 95.931C341.453 97.793 340.725 99.655 338.611 99.655C336.483 99.655 335.755 97.793 335.755 95.931C335.755 94.069 336.483 92.207 338.611 92.207C340.725 92.207 341.453 94.069 341.453 95.931ZM340.305 95.931C340.305 94.363 339.787 93.187 338.611 93.187C337.421 93.187 336.903 94.363 336.903 95.931C336.903 97.499 337.421 98.675 338.611 98.675C339.787 98.675 340.305 97.499 340.305 95.931ZM347.496 98.241C347.496 100.929 344.962 101.685 343.156 101.825L343.016 100.873C344.29 100.733 346.348 100.229 346.348 98.395C346.348 97.247 345.704 96.575 343.912 96.575H342.974L343.282 92.361H347.272V93.383H344.248L344.066 95.735C344.066 95.735 344.388 95.707 344.682 95.707C346.306 95.707 347.496 96.561 347.496 98.241ZM350.532 98.787C350.532 99.235 350.168 99.599 349.734 99.599C349.286 99.599 348.922 99.235 348.922 98.787C348.922 98.353 349.286 97.989 349.734 97.989C350.168 97.989 350.532 98.353 350.532 98.787ZM361.081 99.473L359.961 99.557L359.723 93.033H359.709L357.231 99.501H356.013L353.675 93.047H353.661L353.325 99.501H352.303L352.849 91.073H354.081L356.727 98.101H356.741L359.415 91.073H360.633L361.081 99.473ZM367.474 99.431L366.354 99.613L366.256 98.843H366.242C365.766 99.291 365.248 99.669 364.464 99.669C363.372 99.669 362.728 99.011 362.728 97.975C362.728 96.799 363.652 96.225 364.982 96.085L366.158 95.959V95.371C366.158 94.461 365.878 93.817 364.8 93.817C364.254 93.817 363.848 93.985 363.442 94.195L363.036 93.369C363.624 93.019 364.226 92.795 365.066 92.795C366.382 92.795 367.264 93.565 367.264 94.867V97.989L367.474 99.431ZM366.158 98.143V96.715L365.136 96.855C364.296 96.967 363.834 97.233 363.834 97.835C363.834 98.381 364.17 98.745 364.73 98.745C365.388 98.745 365.794 98.465 366.158 98.143ZM374.115 92.949L371.931 98.899C371.231 100.831 370.293 101.993 368.011 102.455L367.801 101.545C369.467 101.209 370.349 100.201 370.783 99.109L368.431 93.047L369.537 92.753L371.343 97.625H371.357L373.009 92.949H374.115ZM383.04 99.501H377.846V98.773L380.24 96.477C380.884 95.847 381.374 95.385 381.374 94.615C381.374 93.803 380.87 93.201 379.932 93.201C379.302 93.201 378.854 93.481 378.518 93.761L377.986 93.019C378.588 92.515 379.204 92.207 380.17 92.207C381.556 92.207 382.508 93.019 382.508 94.489C382.508 95.469 381.92 96.211 381.248 96.827L379.456 98.479V98.493H383.04V99.501ZM389.92 95.931C389.92 97.793 389.192 99.655 387.078 99.655C384.95 99.655 384.222 97.793 384.222 95.931C384.222 94.069 384.95 92.207 387.078 92.207C389.192 92.207 389.92 94.069 389.92 95.931ZM388.772 95.931C388.772 94.363 388.254 93.187 387.078 93.187C385.888 93.187 385.37 94.363 385.37 95.931C385.37 97.499 385.888 98.675 387.078 98.675C388.254 98.675 388.772 97.499 388.772 95.931ZM396.261 99.501H391.067V98.773L393.461 96.477C394.105 95.847 394.595 95.385 394.595 94.615C394.595 93.803 394.091 93.201 393.153 93.201C392.523 93.201 392.075 93.481 391.739 93.761L391.207 93.019C391.809 92.515 392.425 92.207 393.391 92.207C394.777 92.207 395.729 93.019 395.729 94.489C395.729 95.469 395.141 96.211 394.469 96.827L392.677 98.479V98.493H396.261V99.501ZM402.609 96.939C402.609 98.591 401.629 99.655 400.047 99.655C398.255 99.655 397.499 98.325 397.499 96.351C397.499 92.543 399.739 90.975 402.175 90.779L402.315 91.703C400.635 91.885 398.955 92.795 398.633 95.133L398.647 95.147C398.647 95.147 399.361 94.531 400.327 94.531C401.797 94.531 402.609 95.469 402.609 96.939ZM401.503 97.163C401.503 95.973 401.041 95.469 400.019 95.469C399.221 95.469 398.633 96.029 398.633 96.029V96.295C398.633 97.863 399.039 98.731 400.145 98.731C401.069 98.731 401.503 98.073 401.503 97.163Z" fill="#00157E" fill-opacity="0.7"/>
<path d="M44.7951 198.002L15.8721 211.73V287.955H367.872V249.396L335.872 249.786L303.257 235.764L267.564 244.333L240.487 231.48H207.872L175.872 219.23L145.103 249.396L108.795 211.73L78.6413 215.23L44.7951 198.002Z" fill="url(#paint0_linear_820_126258)"/>
<path d="M15.8721 211.73L44.7951 198.002L78.6413 215.23L108.795 211.73L145.103 249.396L175.872 219.23L207.872 231.48H240.487L267.564 244.333L303.257 235.764L335.872 249.786L367.872 249.396" stroke="#00157E" stroke-linecap="round"/>
<path d="M397.206 165.806C397.206 167.222 396.366 168.134 395.01 168.134C393.474 168.134 392.826 166.994 392.826 165.302C392.826 162.038 394.746 160.694 396.834 160.526L396.954 161.318C395.514 161.474 394.074 162.254 393.798 164.258L393.81 164.27C393.81 164.27 394.422 163.742 395.25 163.742C396.51 163.742 397.206 164.546 397.206 165.806ZM396.258 165.998C396.258 164.978 395.862 164.546 394.986 164.546C394.302 164.546 393.798 165.026 393.798 165.026V165.254C393.798 166.598 394.146 167.342 395.094 167.342C395.886 167.342 396.258 166.778 396.258 165.998ZM403.228 164.942C403.228 166.538 402.604 168.134 400.792 168.134C398.968 168.134 398.344 166.538 398.344 164.942C398.344 163.346 398.968 161.75 400.792 161.75C402.604 161.75 403.228 163.346 403.228 164.942ZM402.244 164.942C402.244 163.598 401.8 162.59 400.792 162.59C399.772 162.59 399.328 163.598 399.328 164.942C399.328 166.286 399.772 167.294 400.792 167.294C401.8 167.294 402.244 166.286 402.244 164.942Z" fill="#00157E" fill-opacity="0.7"/>
<path d="M397.65 205.733H396.198V208.181L395.274 208.337V205.733H391.974V204.953L395.31 200.369H396.198V204.917H397.65V205.733ZM395.274 204.917V201.665H395.262L392.958 204.917H395.274ZM403.228 203.429C403.228 205.025 402.604 206.621 400.792 206.621C398.968 206.621 398.344 205.025 398.344 203.429C398.344 201.833 398.968 200.237 400.792 200.237C402.604 200.237 403.228 201.833 403.228 203.429ZM402.244 203.429C402.244 202.085 401.8 201.077 400.792 201.077C399.772 201.077 399.328 202.085 399.328 203.429C399.328 204.773 399.772 205.781 400.792 205.781C401.8 205.781 402.244 204.773 402.244 203.429Z" fill="#00157E" fill-opacity="0.7"/>
<path d="M397.331 244.977H392.879V244.353L394.931 242.385C395.483 241.845 395.903 241.449 395.903 240.789C395.903 240.093 395.471 239.577 394.667 239.577C394.127 239.577 393.743 239.817 393.455 240.057L392.999 239.421C393.515 238.989 394.043 238.725 394.871 238.725C396.059 238.725 396.875 239.421 396.875 240.681C396.875 241.521 396.371 242.157 395.795 242.685L394.259 244.101V244.113H397.331V244.977ZM403.228 241.917C403.228 243.513 402.604 245.109 400.792 245.109C398.968 245.109 398.344 243.513 398.344 241.917C398.344 240.321 398.968 238.725 400.792 238.725C402.604 238.725 403.228 240.321 403.228 241.917ZM402.244 241.917C402.244 240.573 401.8 239.565 400.792 239.565C399.772 239.565 399.328 240.573 399.328 241.917C399.328 243.261 399.772 244.269 400.792 244.269C401.8 244.269 402.244 243.261 402.244 241.917Z" fill="#00157E" fill-opacity="0.7"/>
<path d="M403.228 280.403C403.228 281.999 402.604 283.595 400.792 283.595C398.968 283.595 398.344 281.999 398.344 280.403C398.344 278.807 398.968 277.211 400.792 277.211C402.604 277.211 403.228 278.807 403.228 280.403ZM402.244 280.403C402.244 279.059 401.8 278.051 400.792 278.051C399.772 278.051 399.328 279.059 399.328 280.403C399.328 281.747 399.772 282.755 400.792 282.755C401.8 282.755 402.244 281.747 402.244 280.403Z" fill="#00157E" fill-opacity="0.7"/>
<path d="M22.1241 307.43L21.1521 307.61L17.7921 301.826H17.7801V307.502H16.8681V300.278H17.9481L21.2001 305.858H21.2121V300.278H22.1241V307.43ZM28.4903 304.694C28.4903 306.338 27.7103 307.634 26.0903 307.634C24.3143 307.634 23.6903 306.374 23.6903 304.694C23.6903 303.05 24.4703 301.754 26.0903 301.754C27.8663 301.754 28.4903 303.014 28.4903 304.694ZM27.5063 304.718C27.5063 303.326 27.0383 302.594 26.0903 302.594C25.1663 302.594 24.6743 303.242 24.6743 304.658C24.6743 306.05 25.1423 306.794 26.0903 306.794C27.0143 306.794 27.5063 306.134 27.5063 304.718ZM34.0959 301.886L32.0679 307.49L31.1199 307.526L29.2719 301.97L30.2319 301.73L31.6359 306.254H31.6479L33.1359 301.886H34.0959Z" fill="#00157E" fill-opacity="0.7"/>
<path d="M135.107 301.13H132.515V303.482H134.855V304.334H132.515V307.502H131.519V300.278H135.107V301.13ZM140.106 307.202C139.566 307.502 139.014 307.634 138.33 307.634C136.674 307.634 135.822 306.518 135.822 304.658C135.822 302.918 136.734 301.754 138.15 301.754C139.506 301.754 140.058 302.654 140.058 303.89V304.562H136.758C136.77 306.062 137.31 306.782 138.534 306.782C139.002 306.782 139.362 306.65 139.77 306.446L140.106 307.202ZM139.158 303.89C139.158 303.05 138.846 302.522 138.102 302.522C137.382 302.522 136.926 303.086 136.806 303.89H139.158ZM145.978 304.358C145.978 306.23 145.006 307.622 143.23 307.622C142.606 307.622 141.922 307.514 141.514 307.358V300.698L141.346 299.462L142.474 299.306V302.318H142.486C142.846 302.018 143.326 301.754 143.962 301.754C145.282 301.754 145.978 302.702 145.978 304.358ZM145.006 304.706C145.006 303.47 144.718 302.63 143.626 302.63C143.122 302.63 142.762 302.834 142.474 303.086V306.698C142.714 306.758 142.954 306.794 143.314 306.794C144.43 306.794 145.006 305.846 145.006 304.706Z" fill="#00157E" fill-opacity="0.7"/>
<path d="M244.798 307.478L243.838 307.55L243.634 301.958H243.622L241.498 307.502H240.454L238.45 301.97H238.438L238.15 307.502H237.274L237.742 300.278H238.798L241.066 306.302H241.078L243.37 300.278H244.414L244.798 307.478ZM250.277 307.442L249.317 307.598L249.233 306.938H249.221C248.813 307.322 248.369 307.646 247.697 307.646C246.761 307.646 246.209 307.082 246.209 306.194C246.209 305.186 247.001 304.694 248.141 304.574L249.149 304.466V303.962C249.149 303.182 248.909 302.63 247.985 302.63C247.517 302.63 247.169 302.774 246.821 302.954L246.473 302.246C246.977 301.946 247.493 301.754 248.213 301.754C249.341 301.754 250.097 302.414 250.097 303.53V306.206L250.277 307.442ZM249.149 306.338V305.114L248.273 305.234C247.553 305.33 247.157 305.558 247.157 306.074C247.157 306.542 247.445 306.854 247.925 306.854C248.489 306.854 248.837 306.614 249.149 306.338ZM253.015 307.502H252.055V303.182L251.887 301.946L253.015 301.79V307.502ZM253.207 300.422C253.207 300.806 252.907 301.094 252.547 301.094C252.175 301.094 251.863 300.806 251.863 300.422C251.863 300.038 252.175 299.738 252.547 299.738C252.907 299.738 253.207 300.038 253.207 300.422Z" fill="#00157E" fill-opacity="0.7"/>
<path d="M355.617 307.382L354.633 307.658L353.865 305.162H351.513L350.781 307.502H349.725L352.233 300.278H353.265L355.617 307.382ZM353.649 304.442L352.713 301.322H352.701L351.729 304.442H353.649ZM361.225 307.442L360.277 307.598L360.181 306.95H360.169C359.749 307.346 359.197 307.634 358.501 307.634C357.553 307.634 356.797 307.022 356.797 305.87V303.182L356.629 301.946L357.757 301.79V305.534C357.757 306.362 358.069 306.794 358.825 306.794C359.365 306.794 359.749 306.566 360.097 306.242V303.182L359.929 301.946L361.057 301.79V306.206L361.225 307.442ZM367.557 302.594H366.429C366.597 302.882 366.693 303.218 366.693 303.626C366.693 304.766 365.865 305.534 364.713 305.534C364.485 305.534 364.269 305.498 364.077 305.45C364.077 305.45 363.693 305.666 363.693 306.098C363.693 306.47 363.969 306.542 364.353 306.542H365.961C366.945 306.542 367.521 306.842 367.521 307.718C367.521 308.822 366.393 310.07 364.341 310.07C363.165 310.07 362.445 309.494 362.445 308.51C362.445 307.586 363.201 307.13 363.201 307.13C362.961 306.974 362.805 306.734 362.805 306.338C362.805 305.642 363.405 305.294 363.525 305.234C362.997 304.91 362.709 304.358 362.709 303.626C362.709 302.486 363.549 301.73 364.713 301.73C365.145 301.73 365.541 301.826 365.853 302.018L367.557 301.754V302.594ZM366.681 307.862C366.681 307.454 366.333 307.37 365.745 307.37H364.233C364.065 307.37 363.909 307.358 363.753 307.334C363.753 307.334 363.297 307.694 363.297 308.294C363.297 308.942 363.693 309.29 364.557 309.29C365.937 309.29 366.681 308.474 366.681 307.862ZM365.793 303.626C365.793 302.846 365.361 302.45 364.713 302.45C364.089 302.45 363.609 302.87 363.609 303.626C363.609 304.418 364.053 304.814 364.713 304.814C365.325 304.814 365.793 304.394 365.793 303.626Z" fill="#00157E" fill-opacity="0.7"/>
<path d="M197.047 124.002L196.953 214.002" stroke="#00157E" stroke-opacity="0.7" stroke-width="0.5" stroke-dasharray="2.16 2.16"/>
<circle cx="197" cy="226.002" r="8" fill="#00157E" fill-opacity="0.05"/>
<circle cx="197" cy="226.002" r="7" stroke="#00157E" stroke-opacity="0.7" stroke-width="2"/>
<path d="M197 238.002V288.002" stroke="#00157E" stroke-opacity="0.7" stroke-width="0.5" stroke-dasharray="2.16 2.16"/>
<path d="M16 344.002C16 335.165 23.1634 328.002 32 328.002H71.2C80.0365 328.002 87.2 335.165 87.2 344.002C87.2 352.839 80.0366 360.002 71.2 360.002H32C23.1635 360.002 16 352.839 16 344.002Z" fill="#00157E" fill-opacity="0.05"/>
<path d="M47.8334 348.002H46.7274V341.814L45.4954 341.982L45.3694 341.128L47.8334 340.736V348.002ZM57.9286 341.45L56.1226 347.974L55.0866 348.03L53.4906 343.06H53.4766L51.8666 347.988L50.8306 348.03L49.1926 341.52L50.2566 341.254L51.4326 346.364H51.4466L52.9726 341.45H54.0646L55.6046 346.364H55.6186L56.8366 341.45H57.9286Z" fill="#00157E"/>
<path d="M95.2 344.002C95.2 335.165 102.363 328.002 111.2 328.002H150.4C159.236 328.002 166.4 335.165 166.4 344.002C166.4 352.839 159.237 360.002 150.4 360.002H111.2C102.363 360.002 95.2 352.839 95.2 344.002Z" fill="#00157E" fill-opacity="0.05"/>
<path d="M126.179 348.002H125.073V341.814L123.841 341.982L123.715 341.128L126.179 340.736V348.002ZM137.226 348.002H136.12V343.746C136.12 342.78 135.756 342.29 134.86 342.29C134.23 342.29 133.698 342.598 133.348 342.948C133.348 342.948 133.39 343.186 133.39 343.438V348.002H132.27V343.746C132.27 342.78 131.906 342.29 131.024 342.29C130.394 342.29 129.946 342.542 129.54 342.92V348.002H128.42V342.962L128.224 341.52L129.33 341.338L129.442 342.108H129.456C129.946 341.632 130.59 341.296 131.402 341.296C132.158 341.296 132.788 341.632 133.124 342.234H133.138C133.656 341.716 134.328 341.296 135.252 341.296C136.372 341.296 137.226 342.01 137.226 343.354V348.002Z" fill="#00157E"/>
<path d="M174.4 344.002C174.4 335.165 181.563 328.002 190.4 328.002H229.6C238.436 328.002 245.6 335.165 245.6 344.002C245.6 352.839 238.436 360.002 229.6 360.002H190.4C181.563 360.002 174.4 352.839 174.4 344.002Z" fill="#00157E" fill-opacity="0.05"/>
<path d="M206.751 347.442C206.751 349.122 205.673 350.186 203.825 350.186C203.279 350.186 202.705 350.088 202.187 349.962L202.439 348.912C202.901 349.052 203.293 349.164 203.853 349.164C204.959 349.164 205.631 348.618 205.631 347.61C205.631 346.238 204.371 345.706 202.593 345.706V344.908C204.665 344.782 205.239 343.858 205.239 342.948C205.239 342.15 204.749 341.702 203.965 341.702C203.321 341.702 202.943 341.912 202.523 342.192L202.061 341.422C202.565 341.03 203.209 340.708 204.189 340.708C205.533 340.708 206.359 341.506 206.359 342.808C206.359 343.942 205.701 344.698 204.763 345.146V345.16C206.135 345.454 206.751 346.364 206.751 347.442ZM217.294 348.002H216.188V343.746C216.188 342.78 215.824 342.29 214.928 342.29C214.298 342.29 213.766 342.598 213.416 342.948C213.416 342.948 213.458 343.186 213.458 343.438V348.002H212.338V343.746C212.338 342.78 211.974 342.29 211.092 342.29C210.462 342.29 210.014 342.542 209.608 342.92V348.002H208.488V342.962L208.292 341.52L209.398 341.338L209.51 342.108H209.524C210.014 341.632 210.658 341.296 211.47 341.296C212.226 341.296 212.856 341.632 213.192 342.234H213.206C213.724 341.716 214.396 341.296 215.32 341.296C216.44 341.296 217.294 342.01 217.294 343.354V348.002Z" fill="#00157E"/>
<path d="M253.6 344.002C253.6 335.165 260.764 328.002 269.6 328.002H308.8C317.637 328.002 324.8 335.165 324.8 344.002C324.8 352.839 317.637 360.002 308.8 360.002H269.6C260.764 360.002 253.6 352.839 253.6 344.002Z" fill="#00157E" fill-opacity="0.05"/>
<path d="M286.159 341.45L283.975 347.4C283.275 349.332 282.337 350.494 280.055 350.956L279.845 350.046C281.511 349.71 282.393 348.702 282.827 347.61L280.475 341.548L281.581 341.254L283.387 346.126H283.401L285.053 341.45H286.159ZM290.964 347.736C290.558 347.96 290.18 348.142 289.466 348.142C288.458 348.142 287.814 347.484 287.814 346.364V342.36H286.848V341.618L287.814 341.422V340.33L288.92 340.19V341.45H290.754V342.36H288.92V345.986C288.92 346.868 289.144 347.148 289.788 347.148C290.138 347.148 290.404 347.008 290.6 346.882L290.964 347.736ZM297.182 347.96L296.104 348.114L296.006 347.456H295.992C295.572 347.806 294.998 348.156 294.228 348.156C292.786 348.156 291.82 346.966 291.82 345.02C291.82 342.766 292.982 341.38 294.97 341.38C295.502 341.38 295.88 341.478 295.88 341.478V340.064L295.67 338.622L296.986 338.44V346.518L297.182 347.96ZM294.62 347.176C295.166 347.176 295.544 346.952 295.88 346.686V342.5C295.88 342.5 295.516 342.318 294.872 342.318C293.598 342.318 292.968 343.396 292.968 344.67C292.968 346.252 293.388 347.176 294.62 347.176Z" fill="#00157E"/>
<path d="M348.8 328.502H388C396.56 328.502 403.5 335.442 403.5 344.002C403.5 352.562 396.56 359.502 388 359.502H348.8C340.239 359.502 333.3 352.562 333.3 344.002C333.3 335.442 340.239 328.502 348.8 328.502Z" fill="#00157E"/>
<path d="M348.8 328.502H388C396.56 328.502 403.5 335.442 403.5 344.002C403.5 352.562 396.56 359.502 388 359.502H348.8C340.239 359.502 333.3 352.562 333.3 344.002C333.3 335.442 340.239 328.502 348.8 328.502Z" stroke="#00157E"/>
<path d="M366.639 347.974L365.519 348.058L365.281 341.534H365.267L362.789 348.002H361.571L359.233 341.548H359.219L358.883 348.002H357.861L358.407 339.574H359.639L362.285 346.602H362.299L364.973 339.574H366.191L366.639 347.974ZM373.032 347.932L371.912 348.114L371.814 347.344H371.8C371.324 347.792 370.806 348.17 370.022 348.17C368.93 348.17 368.286 347.512 368.286 346.476C368.286 345.3 369.21 344.726 370.54 344.586L371.716 344.46V343.872C371.716 342.962 371.436 342.318 370.358 342.318C369.812 342.318 369.406 342.486 369 342.696L368.594 341.87C369.182 341.52 369.784 341.296 370.624 341.296C371.94 341.296 372.822 342.066 372.822 343.368V346.49L373.032 347.932ZM371.716 346.644V345.216L370.694 345.356C369.854 345.468 369.392 345.734 369.392 346.336C369.392 346.882 369.728 347.246 370.288 347.246C370.946 347.246 371.352 346.966 371.716 346.644ZM379.67 347.708L378.718 348.24L376.898 345.44H376.884L375.246 348.002H374.07L376.352 344.6L374.392 341.744L375.33 341.212L376.954 343.676H376.968L378.368 341.45H379.558L377.486 344.502L379.67 347.708Z" fill="white"/>
<g clip-path="url(#clip3_820_126258)">
<path d="M16.001 392.002C16.001 389.793 17.7918 388.002 20.001 388.002H44.001C46.2101 388.002 48.001 389.793 48.001 392.002V416.002C48.001 418.211 46.2101 420.002 44.001 420.002H20.001C17.7918 420.002 16.001 418.211 16.001 416.002V392.002Z" fill="#00157E" fill-opacity="0.05"/>
<g clip-path="url(#clip4_820_126258)">
<path d="M38.001 400.002H39.001C40.0618 400.002 41.0793 400.423 41.8294 401.174C42.5795 401.924 43.001 402.941 43.001 404.002C43.001 405.063 42.5795 406.08 41.8294 406.83C41.0793 407.581 40.0618 408.002 39.001 408.002H38.001" stroke="#00157E" stroke-width="2" stroke-linecap="round" stroke-linejoin="round"/>
<path d="M22.001 400.002H38.001V409.002C38.001 410.063 37.5795 411.08 36.8294 411.83C36.0793 412.581 35.0618 413.002 34.001 413.002H26.001C24.9401 413.002 23.9227 412.581 23.1725 411.83C22.4224 411.08 22.001 410.063 22.001 409.002V400.002Z" stroke="#00157E" stroke-width="2" stroke-linecap="round" stroke-linejoin="round"/>
<path d="M26.001 393.002V396.002" stroke="#00157E" stroke-width="2" stroke-linecap="round" stroke-linejoin="round"/>
<path d="M30.001 393.002V396.002" stroke="#00157E" stroke-width="2" stroke-linecap="round" stroke-linejoin="round"/>
<path d="M34.001 393.002V396.002" stroke="#00157E" stroke-width="2" stroke-linecap="round" stroke-linejoin="round"/>
</g>
<path d="M66.673 409.002H65.329V399.37H66.673V409.002ZM74.961 409.002H73.681V404.138C73.681 403.034 73.265 402.474 72.257 402.474C71.537 402.474 71.025 402.778 70.561 403.194V409.002H69.281V403.242L69.057 401.594L70.321 401.386L70.449 402.266H70.465C71.025 401.722 71.761 401.338 72.689 401.338C73.953 401.338 74.961 402.154 74.961 403.69V409.002ZM82.7682 401.514L80.0642 408.986L78.8002 409.034L76.3362 401.626L77.6162 401.306L79.4882 407.338H79.5042L81.4882 401.514H82.7682ZM89.4029 408.602C88.6829 409.002 87.9469 409.178 87.0349 409.178C84.8269 409.178 83.6909 407.69 83.6909 405.21C83.6909 402.89 84.9069 401.338 86.7949 401.338C88.6029 401.338 89.3389 402.538 89.3389 404.186V405.082H84.9389C84.9549 407.082 85.6749 408.042 87.3069 408.042C87.9309 408.042 88.4109 407.866 88.9549 407.594L89.4029 408.602ZM88.1389 404.186C88.1389 403.066 87.7229 402.362 86.7309 402.362C85.7709 402.362 85.1629 403.114 85.0029 404.186H88.1389ZM95.6482 406.826C95.6482 408.186 94.5762 409.162 92.9762 409.162C92.2082 409.162 91.4402 409.05 90.8322 408.762L91.2162 407.642C91.7442 407.882 92.3362 408.074 92.9122 408.074C93.7762 408.074 94.3522 407.738 94.3522 407.034C94.3522 406.49 94.0642 406.266 93.5682 406.042L92.1762 405.402C91.6802 405.178 90.7842 404.73 90.7842 403.434C90.7842 402.01 92.0322 401.338 93.3922 401.338C94.2082 401.338 94.7842 401.466 95.4242 401.738L94.9922 402.842C94.4802 402.618 93.9842 402.458 93.3762 402.458C92.5602 402.458 92.0322 402.714 92.0322 403.354C92.0322 403.914 92.5122 404.138 92.8162 404.282L94.2402 404.954C95.2322 405.418 95.6482 406.01 95.6482 406.826ZM101.416 408.698C100.952 408.954 100.52 409.162 99.7036 409.162C98.5516 409.162 97.8156 408.41 97.8156 407.13V402.554H96.7116V401.706L97.8156 401.482V400.234L99.0796 400.074V401.514H101.176V402.554H99.0796V406.698C99.0796 407.706 99.3356 408.026 100.072 408.026C100.472 408.026 100.776 407.866 101 407.722L101.416 408.698ZM108.106 408.602C107.386 409.002 106.65 409.178 105.738 409.178C103.53 409.178 102.394 407.69 102.394 405.21C102.394 402.89 103.61 401.338 105.498 401.338C107.306 401.338 108.042 402.538 108.042 404.186V405.082H103.642C103.658 407.082 104.378 408.042 106.01 408.042C106.634 408.042 107.114 407.866 107.658 407.594L108.106 408.602ZM106.842 404.186C106.842 403.066 106.426 402.362 105.434 402.362C104.474 402.362 103.866 403.114 103.706 404.186H106.842ZM115.631 408.954L114.399 409.13L114.287 408.378H114.271C113.791 408.778 113.135 409.178 112.255 409.178C110.607 409.178 109.503 407.818 109.503 405.594C109.503 403.018 110.831 401.434 113.103 401.434C113.711 401.434 114.143 401.546 114.143 401.546V399.93L113.903 398.282L115.407 398.074V407.306L115.631 408.954ZM112.703 408.058C113.327 408.058 113.759 407.802 114.143 407.498V402.714C114.143 402.714 113.727 402.506 112.991 402.506C111.535 402.506 110.815 403.738 110.815 405.194C110.815 407.002 111.295 408.058 112.703 408.058Z" fill="#00157E"/>
</g>
<path d="M322.963 408.63C322.291 408.978 321.607 409.134 320.695 409.134C318.931 409.134 317.575 407.946 317.575 405.546C317.575 402.99 319.087 401.646 321.031 401.646C321.835 401.646 322.327 401.766 322.939 402.03L322.555 402.906C322.099 402.702 321.667 402.546 321.019 402.546C319.759 402.546 318.607 403.518 318.607 405.294C318.607 407.274 319.339 408.246 321.091 408.246C321.667 408.246 322.195 408.018 322.627 407.826L322.963 408.63ZM329.486 409.002H328.478V405.702H325.226V409.002H324.218V401.778H325.226V404.85H328.478V401.778H329.486V409.002ZM335.071 402.63H332.479V404.982H334.819V405.834H332.479V409.002H331.483V401.778H335.071V402.63Z" fill="#00157E" fill-opacity="0.7"/>
<path d="M347.468 409.002H346.204V401.93L344.796 402.122L344.652 401.146L347.468 400.698V409.002ZM354.797 407.562C354.797 410.634 351.901 411.498 349.837 411.658L349.677 410.57C351.133 410.41 353.485 409.834 353.485 407.738C353.485 406.426 352.749 405.658 350.701 405.658H349.629L349.981 400.842H354.541V402.01H351.085L350.877 404.698C350.877 404.698 351.245 404.666 351.581 404.666C353.437 404.666 354.797 405.642 354.797 407.562ZM358.267 400.282C358.267 401.45 357.787 402.346 356.811 402.922L356.443 402.442C356.923 402.09 357.179 401.642 357.259 401.066C356.811 401.002 356.427 400.618 356.427 400.154C356.427 399.626 356.843 399.226 357.355 399.226C357.867 399.226 358.267 399.642 358.267 400.282ZM366.547 404.922C366.547 407.05 365.715 409.178 363.299 409.178C360.867 409.178 360.035 407.05 360.035 404.922C360.035 402.794 360.867 400.666 363.299 400.666C365.715 400.666 366.547 402.794 366.547 404.922ZM365.235 404.922C365.235 403.13 364.643 401.786 363.299 401.786C361.939 401.786 361.347 403.13 361.347 404.922C361.347 406.714 361.939 408.058 363.299 408.058C364.643 408.058 365.235 406.714 365.235 404.922ZM374.781 404.922C374.781 407.05 373.949 409.178 371.533 409.178C369.101 409.178 368.269 407.05 368.269 404.922C368.269 402.794 369.101 400.666 371.533 400.666C373.949 400.666 374.781 402.794 374.781 404.922ZM373.469 404.922C373.469 403.13 372.877 401.786 371.533 401.786C370.173 401.786 369.581 403.13 369.581 404.922C369.581 406.714 370.173 408.058 371.533 408.058C372.877 408.058 373.469 406.714 373.469 404.922ZM383.016 404.922C383.016 407.05 382.184 409.178 379.768 409.178C377.336 409.178 376.504 407.05 376.504 404.922C376.504 402.794 377.336 400.666 379.768 400.666C382.184 400.666 383.016 402.794 383.016 404.922ZM381.704 404.922C381.704 403.13 381.112 401.786 379.768 401.786C378.408 401.786 377.816 403.13 377.816 404.922C377.816 406.714 378.408 408.058 379.768 408.058C381.112 408.058 381.704 406.714 381.704 404.922ZM386.626 408.186C386.626 408.698 386.21 409.114 385.714 409.114C385.202 409.114 384.786 408.698 384.786 408.186C384.786 407.69 385.202 407.274 385.714 407.274C386.21 407.274 386.626 407.69 386.626 408.186ZM394.906 404.922C394.906 407.05 394.074 409.178 391.658 409.178C389.226 409.178 388.394 407.05 388.394 404.922C388.394 402.794 389.226 400.666 391.658 400.666C394.074 400.666 394.906 402.794 394.906 404.922ZM393.594 404.922C393.594 403.13 393.002 401.786 391.658 401.786C390.298 401.786 389.706 403.13 389.706 404.922C389.706 406.714 390.298 408.058 391.658 408.058C393.002 408.058 393.594 406.714 393.594 404.922ZM403.141 404.922C403.141 407.05 402.309 409.178 399.893 409.178C397.461 409.178 396.629 407.05 396.629 404.922C396.629 402.794 397.461 400.666 399.893 400.666C402.309 400.666 403.141 402.794 403.141 404.922ZM401.829 404.922C401.829 403.13 401.237 401.786 399.893 401.786C398.533 401.786 397.941 403.13 397.941 404.922C397.941 406.714 398.533 408.058 399.893 408.058C401.237 408.058 401.829 406.714 401.829 404.922Z" fill="#00157E"/>
<g clip-path="url(#clip5_820_126258)">
<path d="M16.001 432.002C16.001 429.793 17.7918 428.002 20.001 428.002H44.001C46.2101 428.002 48.001 429.793 48.001 432.002V456.002C48.001 458.211 46.2101 460.002 44.001 460.002H20.001C17.7918 460.002 16.001 458.211 16.001 456.002V432.002Z" fill="#00157E" fill-opacity="0.05"/>
<g clip-path="url(#clip6_820_126258)">
<path d="M32.001 433.002V455.002" stroke="#00157E" stroke-width="2" stroke-linecap="round" stroke-linejoin="round"/>
<path d="M37.001 437.002H29.501C28.5727 437.002 27.6825 437.371 27.0261 438.027C26.3697 438.683 26.001 439.574 26.001 440.502C26.001 441.43 26.3697 442.32 27.0261 442.977C27.6825 443.633 28.5727 444.002 29.501 444.002H34.501C35.4292 444.002 36.3195 444.371 36.9759 445.027C37.6322 445.683 38.001 446.574 38.001 447.502C38.001 448.43 37.6322 449.32 36.9759 449.977C36.3195 450.633 35.4292 451.002 34.501 451.002H26.001" stroke="#00157E" stroke-width="2" stroke-linecap="round" stroke-linejoin="round"/>
</g>
<path d="M71.953 448.506C71.057 448.97 70.145 449.178 68.929 449.178C66.577 449.178 64.769 447.594 64.769 444.394C64.769 440.986 66.785 439.194 69.377 439.194C70.449 439.194 71.105 439.354 71.921 439.706L71.409 440.874C70.801 440.602 70.225 440.394 69.361 440.394C67.681 440.394 66.145 441.69 66.145 444.058C66.145 446.698 67.121 447.994 69.457 447.994C70.225 447.994 70.929 447.69 71.505 447.434L71.953 448.506ZM78.4899 448.922L77.2099 449.13L77.0979 448.25H77.0819C76.5379 448.762 75.9459 449.194 75.0499 449.194C73.8019 449.194 73.0659 448.442 73.0659 447.258C73.0659 445.914 74.1219 445.258 75.6419 445.098L76.9859 444.954V444.282C76.9859 443.242 76.6659 442.506 75.4339 442.506C74.8099 442.506 74.3459 442.698 73.8819 442.938L73.4179 441.994C74.0899 441.594 74.7779 441.338 75.7379 441.338C77.2419 441.338 78.2499 442.218 78.2499 443.706V447.274L78.4899 448.922ZM76.9859 447.45V445.818L75.8179 445.978C74.8579 446.106 74.3299 446.41 74.3299 447.098C74.3299 447.722 74.7139 448.138 75.3539 448.138C76.1059 448.138 76.5699 447.818 76.9859 447.45ZM85.1639 446.826C85.1639 448.186 84.0919 449.162 82.4919 449.162C81.7239 449.162 80.9559 449.05 80.3479 448.762L80.7319 447.642C81.2599 447.882 81.8519 448.074 82.4279 448.074C83.2919 448.074 83.8679 447.738 83.8679 447.034C83.8679 446.49 83.5799 446.266 83.0839 446.042L81.6919 445.402C81.1959 445.178 80.2999 444.73 80.2999 443.434C80.2999 442.01 81.5479 441.338 82.9079 441.338C83.7239 441.338 84.2999 441.466 84.9399 441.738L84.5079 442.842C83.9959 442.618 83.4999 442.458 82.8919 442.458C82.0759 442.458 81.5479 442.714 81.5479 443.354C81.5479 443.914 82.0279 444.138 82.3319 444.282L83.7559 444.954C84.7479 445.418 85.1639 446.01 85.1639 446.826ZM92.8192 449.002H91.5552V444.138C91.5552 443.05 91.1232 442.49 90.0992 442.49C89.3632 442.49 88.8672 442.81 88.4352 443.194V449.002H87.1552V439.93L86.9312 438.282L88.4352 438.074V442.17H88.4512C88.9472 441.738 89.6352 441.338 90.5632 441.338C91.8432 441.338 92.8192 442.138 92.8192 443.69V449.002Z" fill="#00157E"/>
</g>
<path d="M326.963 448.63C326.291 448.978 325.607 449.134 324.695 449.134C322.931 449.134 321.575 447.946 321.575 445.546C321.575 442.99 323.087 441.646 325.031 441.646C325.835 441.646 326.327 441.766 326.939 442.03L326.555 442.906C326.099 442.702 325.667 442.546 325.019 442.546C323.759 442.546 322.607 443.518 322.607 445.294C322.607 447.274 323.339 448.246 325.091 448.246C325.667 448.246 326.195 448.018 326.627 447.826L326.963 448.63ZM333.486 449.002H332.478V445.702H329.226V449.002H328.218V441.778H329.226V444.85H332.478V441.778H333.486V449.002ZM339.071 442.63H336.479V444.982H338.819V445.834H336.479V449.002H335.483V441.778H339.071V442.63Z" fill="#00157E" fill-opacity="0.7"/>
<path d="M354.797 447.562C354.797 450.634 351.901 451.498 349.837 451.658L349.677 450.57C351.133 450.41 353.485 449.834 353.485 447.738C353.485 446.426 352.749 445.658 350.701 445.658H349.629L349.981 440.842H354.541V442.01H351.085L350.877 444.698C350.877 444.698 351.245 444.666 351.581 444.666C353.437 444.666 354.797 445.642 354.797 447.562ZM358.267 440.282C358.267 441.45 357.787 442.346 356.811 442.922L356.443 442.442C356.923 442.09 357.179 441.642 357.259 441.066C356.811 441.002 356.427 440.618 356.427 440.154C356.427 439.626 356.843 439.226 357.355 439.226C357.867 439.226 358.267 439.642 358.267 440.282ZM366.547 444.922C366.547 447.05 365.715 449.178 363.299 449.178C360.867 449.178 360.035 447.05 360.035 444.922C360.035 442.794 360.867 440.666 363.299 440.666C365.715 440.666 366.547 442.794 366.547 444.922ZM365.235 444.922C365.235 443.13 364.643 441.786 363.299 441.786C361.939 441.786 361.347 443.13 361.347 444.922C361.347 446.714 361.939 448.058 363.299 448.058C364.643 448.058 365.235 446.714 365.235 444.922ZM374.781 444.922C374.781 447.05 373.949 449.178 371.533 449.178C369.101 449.178 368.269 447.05 368.269 444.922C368.269 442.794 369.101 440.666 371.533 440.666C373.949 440.666 374.781 442.794 374.781 444.922ZM373.469 444.922C373.469 443.13 372.877 441.786 371.533 441.786C370.173 441.786 369.581 443.13 369.581 444.922C369.581 446.714 370.173 448.058 371.533 448.058C372.877 448.058 373.469 446.714 373.469 444.922ZM383.016 444.922C383.016 447.05 382.184 449.178 379.768 449.178C377.336 449.178 376.504 447.05 376.504 444.922C376.504 442.794 377.336 440.666 379.768 440.666C382.184 440.666 383.016 442.794 383.016 444.922ZM381.704 444.922C381.704 443.13 381.112 441.786 379.768 441.786C378.408 441.786 377.816 443.13 377.816 444.922C377.816 446.714 378.408 448.058 379.768 448.058C381.112 448.058 381.704 446.714 381.704 444.922ZM386.626 448.186C386.626 448.698 386.21 449.114 385.714 449.114C385.202 449.114 384.786 448.698 384.786 448.186C384.786 447.69 385.202 447.274 385.714 447.274C386.21 447.274 386.626 447.69 386.626 448.186ZM394.906 444.922C394.906 447.05 394.074 449.178 391.658 449.178C389.226 449.178 388.394 447.05 388.394 444.922C388.394 442.794 389.226 440.666 391.658 440.666C394.074 440.666 394.906 442.794 394.906 444.922ZM393.594 444.922C393.594 443.13 393.002 441.786 391.658 441.786C390.298 441.786 389.706 443.13 389.706 444.922C389.706 446.714 390.298 448.058 391.658 448.058C393.002 448.058 393.594 446.714 393.594 444.922ZM403.141 444.922C403.141 447.05 402.309 449.178 399.893 449.178C397.461 449.178 396.629 447.05 396.629 444.922C396.629 442.794 397.461 440.666 399.893 440.666C402.309 440.666 403.141 442.794 403.141 444.922ZM401.829 444.922C401.829 443.13 401.237 441.786 399.893 441.786C398.533 441.786 397.941 443.13 397.941 444.922C397.941 446.714 398.533 448.058 399.893 448.058C401.237 448.058 401.829 446.714 401.829 444.922Z" fill="#00157E"/>
<g filter="url(#filter0_d_820_126258)">
<rect x="80" y="123.933" width="260" height="43" rx="8" fill="white" shape-rendering="crispEdges"/>
<rect x="80.5" y="124.433" width="259" height="42" rx="7.5" stroke="#00157E" stroke-opacity="0.2" shape-rendering="crispEdges"/>
<path d="M102.784 150.433H96.56V149.201L99.104 146.849C99.696 146.305 100.096 145.905 100.096 145.153C100.096 144.417 99.632 143.921 98.896 143.921C98.208 143.921 97.776 144.193 97.424 144.465L96.528 143.121C97.264 142.481 98.112 142.081 99.312 142.081C101.008 142.081 102.176 143.073 102.176 144.817C102.176 145.889 101.552 146.721 100.88 147.329L99.488 148.577V148.593H102.784V150.433ZM109.57 148.785C109.57 151.649 107.122 152.769 104.258 153.105L103.954 151.377C105.298 151.169 107.49 150.705 107.49 148.993C107.49 147.921 106.706 147.393 104.898 147.393H103.954L104.258 142.273H109.282V144.097H105.938L105.826 145.985C105.826 145.985 106.13 145.969 106.45 145.969C108.402 145.969 109.57 146.929 109.57 148.785ZM113.309 141.969C113.309 143.601 112.653 144.513 111.469 145.361L110.893 144.737C111.453 144.257 111.821 143.745 111.949 143.041C111.357 142.977 110.877 142.449 110.877 141.841C110.877 141.185 111.421 140.641 112.077 140.641C112.765 140.641 113.309 141.153 113.309 141.969ZM121.631 146.353C121.631 148.593 120.655 150.625 118.191 150.625C115.727 150.625 114.751 148.593 114.751 146.353C114.751 144.113 115.727 142.081 118.191 142.081C120.655 142.081 121.631 144.113 121.631 146.353ZM119.583 146.353C119.583 144.817 119.151 143.889 118.191 143.889C117.247 143.889 116.799 144.817 116.799 146.353C116.799 147.889 117.247 148.817 118.191 148.817C119.151 148.817 119.583 147.889 119.583 146.353ZM129.912 146.353C129.912 148.593 128.936 150.625 126.472 150.625C124.008 150.625 123.032 148.593 123.032 146.353C123.032 144.113 124.008 142.081 126.472 142.081C128.936 142.081 129.912 144.113 129.912 146.353ZM127.864 146.353C127.864 144.817 127.432 143.889 126.472 143.889C125.528 143.889 125.08 144.817 125.08 146.353C125.08 147.889 125.528 148.817 126.472 148.817C127.432 148.817 127.864 147.889 127.864 146.353ZM138.193 146.353C138.193 148.593 137.217 150.625 134.753 150.625C132.289 150.625 131.313 148.593 131.313 146.353C131.313 144.113 132.289 142.081 134.753 142.081C137.217 142.081 138.193 144.113 138.193 146.353ZM136.145 146.353C136.145 144.817 135.713 143.889 134.753 143.889C133.809 143.889 133.361 144.817 133.361 146.353C133.361 147.889 133.809 148.817 134.753 148.817C135.713 148.817 136.145 147.889 136.145 146.353ZM142.075 149.345C142.075 150.017 141.531 150.561 140.859 150.561C140.187 150.561 139.643 150.017 139.643 149.345C139.643 148.689 140.187 148.145 140.859 148.145C141.531 148.145 142.075 148.689 142.075 149.345ZM150.397 146.353C150.397 148.593 149.421 150.625 146.957 150.625C144.493 150.625 143.517 148.593 143.517 146.353C143.517 144.113 144.493 142.081 146.957 142.081C149.421 142.081 150.397 144.113 150.397 146.353ZM148.349 146.353C148.349 144.817 147.917 143.889 146.957 143.889C146.013 143.889 145.565 144.817 145.565 146.353C145.565 147.889 146.013 148.817 146.957 148.817C147.917 148.817 148.349 147.889 148.349 146.353ZM158.678 146.353C158.678 148.593 157.702 150.625 155.238 150.625C152.774 150.625 151.798 148.593 151.798 146.353C151.798 144.113 152.774 142.081 155.238 142.081C157.702 142.081 158.678 144.113 158.678 146.353ZM156.63 146.353C156.63 144.817 156.198 143.889 155.238 143.889C154.294 143.889 153.846 144.817 153.846 146.353C153.846 147.889 154.294 148.817 155.238 148.817C156.198 148.817 156.63 147.889 156.63 146.353Z" fill="#00157E"/>
<path d="M253.376 145.853C253.376 147.981 252.544 150.109 250.128 150.109C247.696 150.109 246.864 147.981 246.864 145.853C246.864 143.725 247.696 141.597 250.128 141.597C252.544 141.597 253.376 143.725 253.376 145.853ZM252.064 145.853C252.064 144.061 251.472 142.717 250.128 142.717C248.768 142.717 248.176 144.061 248.176 145.853C248.176 147.645 248.768 148.989 250.128 148.989C251.472 148.989 252.064 147.645 252.064 145.853ZM260.282 148.493C260.282 151.565 257.386 152.429 255.322 152.589L255.162 151.501C256.618 151.341 258.97 150.765 258.97 148.669C258.97 147.357 258.234 146.589 256.186 146.589H255.114L255.466 141.773H260.026V142.941H256.57L256.362 145.629C256.362 145.629 256.73 145.597 257.066 145.597C258.922 145.597 260.282 146.573 260.282 148.493ZM263.752 149.117C263.752 149.629 263.336 150.045 262.84 150.045C262.328 150.045 261.912 149.629 261.912 149.117C261.912 148.621 262.328 148.205 262.84 148.205C263.336 148.205 263.752 148.621 263.752 149.117ZM275.808 149.901L274.528 149.997L274.256 142.541H274.24L271.408 149.933H270.016L267.344 142.557H267.328L266.944 149.933H265.776L266.4 140.301H267.808L270.832 148.333H270.848L273.904 140.301H275.296L275.808 149.901ZM283.114 149.853L281.834 150.061L281.722 149.181H281.706C281.162 149.693 280.57 150.125 279.674 150.125C278.426 150.125 277.69 149.373 277.69 148.189C277.69 146.845 278.746 146.189 280.266 146.029L281.61 145.885V145.213C281.61 144.173 281.29 143.437 280.058 143.437C279.434 143.437 278.97 143.629 278.506 143.869L278.042 142.925C278.714 142.525 279.402 142.269 280.362 142.269C281.866 142.269 282.874 143.149 282.874 144.637V148.205L283.114 149.853ZM281.61 148.381V146.749L280.442 146.909C279.482 147.037 278.954 147.341 278.954 148.029C278.954 148.653 279.338 149.069 279.978 149.069C280.73 149.069 281.194 148.749 281.61 148.381ZM290.704 142.445L288.208 149.245C287.408 151.453 286.336 152.781 283.728 153.309L283.488 152.269C285.392 151.885 286.4 150.733 286.896 149.485L284.208 142.557L285.472 142.221L287.536 147.789H287.552L289.44 142.445H290.704ZM300.904 149.933H294.968V149.101L297.704 146.477C298.44 145.757 299 145.229 299 144.349C299 143.421 298.424 142.733 297.352 142.733C296.632 142.733 296.12 143.053 295.736 143.373L295.128 142.525C295.816 141.949 296.52 141.597 297.624 141.597C299.208 141.597 300.296 142.525 300.296 144.205C300.296 145.325 299.624 146.173 298.856 146.877L296.808 148.765V148.781H300.904V149.933ZM308.767 145.853C308.767 147.981 307.935 150.109 305.519 150.109C303.087 150.109 302.255 147.981 302.255 145.853C302.255 143.725 303.087 141.597 305.519 141.597C307.935 141.597 308.767 143.725 308.767 145.853ZM307.455 145.853C307.455 144.061 306.863 142.717 305.519 142.717C304.159 142.717 303.567 144.061 303.567 145.853C303.567 147.645 304.159 148.989 305.519 148.989C306.863 148.989 307.455 147.645 307.455 145.853ZM316.014 149.933H310.078V149.101L312.814 146.477C313.549 145.757 314.11 145.229 314.11 144.349C314.11 143.421 313.534 142.733 312.462 142.733C311.742 142.733 311.23 143.053 310.846 143.373L310.238 142.525C310.926 141.949 311.63 141.597 312.734 141.597C314.318 141.597 315.406 142.525 315.406 144.205C315.406 145.325 314.734 146.173 313.966 146.877L311.918 148.765V148.781H316.014V149.933ZM323.268 147.005C323.268 148.893 322.148 150.109 320.34 150.109C318.292 150.109 317.428 148.589 317.428 146.333C317.428 141.981 319.988 140.189 322.772 139.965L322.932 141.021C321.012 141.229 319.092 142.269 318.724 144.941L318.74 144.957C318.74 144.957 319.556 144.253 320.66 144.253C322.34 144.253 323.268 145.325 323.268 147.005ZM322.004 147.261C322.004 145.901 321.476 145.325 320.308 145.325C319.396 145.325 318.724 145.965 318.724 145.965V146.269C318.724 148.061 319.188 149.053 320.452 149.053C321.508 149.053 322.004 148.301 322.004 147.261Z" fill="#00157E" fill-opacity="0.7"/>
</g>
<defs>
<filter id="filter0_d_820_126258" x="68" y="113.933" width="284" height="67" filterUnits="userSpaceOnUse" color-interpolation-filters="sRGB">
<feFlood flood-opacity="0" result="BackgroundImageFix"/>
<feColorMatrix in="SourceAlpha" type="matrix" values="0 0 0 0 0 0 0 0 0 0 0 0 0 0 0 0 0 0 127 0" result="hardAlpha"/>
<feOffset dy="2"/>
<feGaussianBlur stdDeviation="6"/>
<feComposite in2="hardAlpha" operator="out"/>
<feColorMatrix type="matrix" values="0 0 0 0 0 0 0 0 0 0.0823529 0 0 0 0 0.494118 0 0 0 0.15 0"/>
<feBlend mode="normal" in2="BackgroundImageFix" result="effect1_dropShadow_820_126258"/>
<feBlend mode="normal" in="SourceGraphic" in2="effect1_dropShadow_820_126258" result="shape"/>
</filter>
<linearGradient id="paint0_linear_820_126258" x1="191.872" y1="232.46" x2="191.872" y2="287.955" gradientUnits="userSpaceOnUse">
<stop stop-color="#00157E" stop-opacity="0.2"/>
<stop offset="1" stop-color="#00157E" stop-opacity="0"/>
</linearGradient>
<clipPath id="clip0_820_126258">
<rect width="388" height="24" fill="white" transform="translate(16 0.000976562)"/>
</clipPath>
<clipPath id="clip1_820_126258">
<rect width="24" height="24" fill="white" transform="translate(16 0.000976562)"/>
</clipPath>
<clipPath id="clip2_820_126258">
<rect width="306.998" height="24" fill="white" transform="translate(16.001 84.001)"/>
</clipPath>
<clipPath id="clip3_820_126258">
<rect width="284.998" height="32" fill="white" transform="translate(16.001 388.002)"/>
</clipPath>
<clipPath id="clip4_820_126258">
<rect width="24" height="24" fill="white" transform="translate(20.001 392.002)"/>
</clipPath>
<clipPath id="clip5_820_126258">
<rect width="288.998" height="32" fill="white" transform="translate(16.001 428.002)"/>
</clipPath>
<clipPath id="clip6_820_126258">
<rect width="24" height="24" fill="white" transform="translate(20.001 432.002)"/>
</clipPath>
</defs>
</svg>
