<svg width="420" height="68" viewBox="0 0 420 68" fill="none" xmlns="http://www.w3.org/2000/svg">
<path d="M21.559 16H17.163V7.572H18.339V15.006H21.559V16ZM27.2432 15.93L26.1232 16.112L26.0252 15.342H26.0112C25.5352 15.79 25.0172 16.168 24.2332 16.168C23.1412 16.168 22.4972 15.51 22.4972 14.474C22.4972 13.298 23.4212 12.724 24.7512 12.584L25.9272 12.458V11.87C25.9272 10.96 25.6472 10.316 24.5692 10.316C24.0232 10.316 23.6172 10.484 23.2112 10.694L22.8052 9.868C23.3932 9.518 23.9952 9.294 24.8352 9.294C26.1512 9.294 27.0332 10.064 27.0332 11.366V14.488L27.2432 15.93ZM25.9272 14.642V13.214L24.9052 13.354C24.0652 13.466 23.6032 13.732 23.6032 14.334C23.6032 14.88 23.9392 15.244 24.4992 15.244C25.1572 15.244 25.5632 14.964 25.9272 14.642ZM34.4689 12.332C34.4689 14.516 33.3349 16.14 31.2629 16.14C30.5349 16.14 29.7369 16.014 29.2609 15.832V8.062L29.0649 6.62L30.3809 6.438V9.952H30.3949C30.8149 9.602 31.3749 9.294 32.1169 9.294C33.6569 9.294 34.4689 10.4 34.4689 12.332ZM33.3349 12.738C33.3349 11.296 32.9989 10.316 31.7249 10.316C31.1369 10.316 30.7169 10.554 30.3809 10.848V15.062C30.6609 15.132 30.9409 15.174 31.3609 15.174C32.6629 15.174 33.3349 14.068 33.3349 12.738ZM40.8116 15.65C40.1816 16 39.5376 16.154 38.7396 16.154C36.8076 16.154 35.8136 14.852 35.8136 12.682C35.8136 10.652 36.8776 9.294 38.5296 9.294C40.1116 9.294 40.7556 10.344 40.7556 11.786V12.57H36.9056C36.9196 14.32 37.5496 15.16 38.9776 15.16C39.5236 15.16 39.9436 15.006 40.4196 14.768L40.8116 15.65ZM39.7056 11.786C39.7056 10.806 39.3416 10.19 38.4736 10.19C37.6336 10.19 37.1016 10.848 36.9616 11.786H39.7056ZM43.5743 16H42.4543V8.062L42.2583 6.62L43.5743 6.438V16Z" fill="#00157E" fill-opacity="0.7"/>
<path d="M16 32C16 29.7909 17.7909 28 20 28H364C366.209 28 368 29.7909 368 32V64C368 66.2091 366.209 68 364 68H20C17.7909 68 16 66.2091 16 64V32Z" fill="white"/>
<path d="M20 28.5H364C365.933 28.5 367.5 30.067 367.5 32V64C367.5 65.933 365.933 67.5 364 67.5H20C18.067 67.5 16.5 65.933 16.5 64V32C16.5 30.067 18.067 28.5 20 28.5Z" stroke="#00157E" stroke-opacity="0.7"/>
<path d="M39 55C43.4183 55 47 51.4183 47 47C47 42.5817 43.4183 39 39 39C34.5817 39 31 42.5817 31 47C31 51.4183 34.5817 55 39 55Z" stroke="#00157E" stroke-width="2" stroke-linecap="round" stroke-linejoin="round"/>
<path d="M49 56.9999L44.65 52.6499" stroke="#00157E" stroke-width="2" stroke-linecap="round" stroke-linejoin="round"/>
<path d="M66.6314 53H61.6874V43.368H66.4714V44.504H63.0154V47.464H66.1354V48.584H63.0154V51.864H66.6314V53ZM74.21 53H72.93V48.136C72.93 47.032 72.514 46.472 71.506 46.472C70.786 46.472 70.274 46.776 69.81 47.192V53H68.53V47.24L68.306 45.592L69.57 45.384L69.698 46.264H69.714C70.274 45.72 71.01 45.336 71.938 45.336C73.202 45.336 74.21 46.152 74.21 47.688V53ZM80.4771 52.696C80.0131 52.952 79.5811 53.16 78.7651 53.16C77.6131 53.16 76.8771 52.408 76.8771 51.128V46.552H75.7731V45.704L76.8771 45.48V44.232L78.1411 44.072V45.512H80.2371V46.552H78.1411V50.696C78.1411 51.704 78.3971 52.024 79.1331 52.024C79.5331 52.024 79.8371 51.864 80.0611 51.72L80.4771 52.696ZM87.1675 52.6C86.4475 53 85.7115 53.176 84.7995 53.176C82.5915 53.176 81.4555 51.688 81.4555 49.208C81.4555 46.888 82.6715 45.336 84.5595 45.336C86.3675 45.336 87.1035 46.536 87.1035 48.184V49.08H82.7035C82.7195 51.08 83.4395 52.04 85.0715 52.04C85.6955 52.04 86.1755 51.864 86.7195 51.592L87.1675 52.6ZM85.9035 48.184C85.9035 47.064 85.4875 46.36 84.4955 46.36C83.5355 46.36 82.9275 47.112 82.7675 48.184H85.9035ZM92.4369 46.616C91.5729 46.616 90.9329 46.84 90.3569 47.368V53H89.0769V47.24L88.8529 45.592L90.1169 45.384L90.2449 46.408H90.2609C90.7729 45.832 91.4449 45.352 92.4369 45.352V46.616ZM98.7501 53H97.4061V43.368H98.7501V53ZM107.55 50.056C107.55 52.216 105.774 53 103.438 53H101.406V43.432C101.406 43.432 102.622 43.288 103.87 43.288C105.71 43.288 106.83 43.976 106.83 45.496C106.83 46.648 106.11 47.416 105.198 47.816V47.832C106.494 47.976 107.55 48.728 107.55 50.056ZM106.222 50.264C106.222 49.192 105.534 48.552 103.646 48.552H102.718V51.912H103.886C105.198 51.912 106.222 51.416 106.222 50.264ZM105.502 45.8C105.502 44.728 104.814 44.264 103.582 44.264C103.134 44.264 102.718 44.312 102.718 44.312V47.624C104.366 47.592 105.502 47.128 105.502 45.8ZM116.254 52.84L114.942 53.208L113.918 49.88H110.782L109.806 53H108.398L111.742 43.368H113.118L116.254 52.84ZM113.63 48.92L112.382 44.76H112.366L111.07 48.92H113.63ZM124.883 52.904L123.587 53.144L119.107 45.432H119.091V53H117.875V43.368H119.315L123.651 50.808H123.667V43.368H124.883V52.904ZM128.955 52.328C128.955 53.496 128.459 54.36 127.499 54.968L127.131 54.488C127.611 54.104 127.851 53.688 127.931 53.096C127.483 53.048 127.115 52.648 127.115 52.184C127.115 51.656 127.515 51.272 128.027 51.272C128.539 51.272 128.955 51.672 128.955 52.328ZM139.773 53H138.493V48.136C138.493 47.032 138.077 46.472 137.069 46.472C136.349 46.472 135.837 46.776 135.373 47.192V53H134.093V47.24L133.868 45.592L135.133 45.384L135.261 46.264H135.277C135.837 45.72 136.573 45.336 137.501 45.336C138.765 45.336 139.773 46.152 139.773 47.688V53ZM147.208 52.92L145.928 53.128L145.816 52.248H145.8C145.256 52.76 144.664 53.192 143.768 53.192C142.52 53.192 141.784 52.44 141.784 51.256C141.784 49.912 142.84 49.256 144.36 49.096L145.704 48.952V48.28C145.704 47.24 145.384 46.504 144.152 46.504C143.528 46.504 143.064 46.696 142.6 46.936L142.136 45.992C142.808 45.592 143.496 45.336 144.456 45.336C145.96 45.336 146.968 46.216 146.968 47.704V51.272L147.208 52.92ZM145.704 51.448V49.816L144.536 49.976C143.576 50.104 143.048 50.408 143.048 51.096C143.048 51.72 143.432 52.136 144.072 52.136C144.824 52.136 145.288 51.816 145.704 51.448ZM159.61 53H158.346V48.136C158.346 47.032 157.93 46.472 156.906 46.472C156.186 46.472 155.578 46.824 155.178 47.224C155.178 47.224 155.226 47.496 155.226 47.784V53H153.946V48.136C153.946 47.032 153.53 46.472 152.522 46.472C151.802 46.472 151.29 46.76 150.826 47.192V53H149.546V47.24L149.322 45.592L150.586 45.384L150.714 46.264H150.73C151.29 45.72 152.026 45.336 152.954 45.336C153.818 45.336 154.538 45.72 154.922 46.408H154.938C155.53 45.816 156.298 45.336 157.354 45.336C158.634 45.336 159.61 46.152 159.61 47.688V53ZM167.355 52.6C166.635 53 165.899 53.176 164.987 53.176C162.779 53.176 161.643 51.688 161.643 49.208C161.643 46.888 162.859 45.336 164.747 45.336C166.555 45.336 167.291 46.536 167.291 48.184V49.08H162.891C162.907 51.08 163.627 52.04 165.259 52.04C165.883 52.04 166.363 51.864 166.907 51.592L167.355 52.6ZM166.091 48.184C166.091 47.064 165.675 46.36 164.683 46.36C163.723 46.36 163.115 47.112 162.955 48.184H166.091ZM178.512 49.256C178.512 51.448 177.472 53.176 175.312 53.176C172.944 53.176 172.112 51.496 172.112 49.256C172.112 47.064 173.152 45.336 175.312 45.336C177.68 45.336 178.512 47.016 178.512 49.256ZM177.2 49.288C177.2 47.432 176.576 46.456 175.312 46.456C174.08 46.456 173.424 47.32 173.424 49.208C173.424 51.064 174.048 52.056 175.312 52.056C176.544 52.056 177.2 51.176 177.2 49.288ZM183.906 46.616C183.042 46.616 182.402 46.84 181.826 47.368V53H180.546V47.24L180.322 45.592L181.586 45.384L181.714 46.408H181.73C182.242 45.832 182.914 45.352 183.906 45.352V46.616ZM193.739 52.92L192.459 53.128L192.347 52.248H192.331C191.787 52.76 191.195 53.192 190.299 53.192C189.051 53.192 188.315 52.44 188.315 51.256C188.315 49.912 189.371 49.256 190.891 49.096L192.235 48.952V48.28C192.235 47.24 191.915 46.504 190.683 46.504C190.059 46.504 189.595 46.696 189.131 46.936L188.667 45.992C189.339 45.592 190.027 45.336 190.987 45.336C192.491 45.336 193.499 46.216 193.499 47.704V51.272L193.739 52.92ZM192.235 51.448V49.816L191.067 49.976C190.107 50.104 189.579 50.408 189.579 51.096C189.579 51.72 189.963 52.136 190.603 52.136C191.355 52.136 191.819 51.816 192.235 51.448ZM200.909 45.656L200.509 46.808C200.093 46.648 199.629 46.504 199.101 46.504C197.693 46.504 196.845 47.56 196.845 49.144C196.845 51.144 197.629 52.056 199.069 52.056C199.581 52.056 199.997 51.88 200.413 51.704L200.845 52.744C200.221 53.032 199.533 53.176 198.813 53.176C196.669 53.176 195.565 51.64 195.565 49.352C195.565 46.6 197.261 45.336 199.165 45.336C199.821 45.336 200.381 45.448 200.909 45.656ZM207.221 45.656L206.821 46.808C206.405 46.648 205.941 46.504 205.413 46.504C204.005 46.504 203.157 47.56 203.157 49.144C203.157 51.144 203.941 52.056 205.381 52.056C205.893 52.056 206.309 51.88 206.725 51.704L207.157 52.744C206.533 53.032 205.845 53.176 205.125 53.176C202.981 53.176 201.877 51.64 201.877 49.352C201.877 46.6 203.573 45.336 205.477 45.336C206.133 45.336 206.693 45.448 207.221 45.656ZM214.59 49.256C214.59 51.448 213.55 53.176 211.39 53.176C209.022 53.176 208.19 51.496 208.19 49.256C208.19 47.064 209.23 45.336 211.39 45.336C213.758 45.336 214.59 47.016 214.59 49.256ZM213.278 49.288C213.278 47.432 212.654 46.456 211.39 46.456C210.158 46.456 209.502 47.32 209.502 49.208C209.502 51.064 210.126 52.056 211.39 52.056C212.622 52.056 213.278 51.176 213.278 49.288ZM222.528 52.92L221.264 53.128L221.136 52.264H221.12C220.56 52.792 219.824 53.176 218.896 53.176C217.632 53.176 216.624 52.36 216.624 50.824V47.24L216.4 45.592L217.904 45.384V50.376C217.904 51.48 218.32 52.056 219.328 52.056C220.048 52.056 220.56 51.752 221.024 51.32V47.24L220.8 45.592L222.304 45.384V51.272L222.528 52.92ZM230.538 53H229.258V48.136C229.258 47.032 228.842 46.472 227.834 46.472C227.114 46.472 226.602 46.776 226.138 47.192V53H224.858V47.24L224.634 45.592L225.898 45.384L226.026 46.264H226.042C226.602 45.72 227.338 45.336 228.266 45.336C229.53 45.336 230.538 46.152 230.538 47.688V53ZM236.805 52.696C236.341 52.952 235.909 53.16 235.093 53.16C233.941 53.16 233.205 52.408 233.205 51.128V46.552H232.101V45.704L233.205 45.48V44.232L234.469 44.072V45.512H236.565V46.552H234.469V50.696C234.469 51.704 234.725 52.024 235.461 52.024C235.861 52.024 236.165 51.864 236.389 51.72L236.805 52.696ZM247.554 53H246.274V48.136C246.274 47.032 245.858 46.472 244.85 46.472C244.13 46.472 243.618 46.776 243.154 47.192V53H241.874V47.24L241.65 45.592L242.914 45.384L243.042 46.264H243.058C243.618 45.72 244.354 45.336 245.282 45.336C246.546 45.336 247.554 46.152 247.554 47.688V53ZM255.981 52.92L254.717 53.128L254.589 52.264H254.573C254.013 52.792 253.277 53.176 252.349 53.176C251.085 53.176 250.077 52.36 250.077 50.824V47.24L249.853 45.592L251.357 45.384V50.376C251.357 51.48 251.773 52.056 252.781 52.056C253.501 52.056 254.013 51.752 254.477 51.32V47.24L254.253 45.592L255.757 45.384V51.272L255.981 52.92ZM268.375 53H267.111V48.136C267.111 47.032 266.695 46.472 265.671 46.472C264.951 46.472 264.343 46.824 263.943 47.224C263.943 47.224 263.991 47.496 263.991 47.784V53H262.711V48.136C262.711 47.032 262.295 46.472 261.287 46.472C260.567 46.472 260.055 46.76 259.591 47.192V53H258.311V47.24L258.087 45.592L259.351 45.384L259.479 46.264H259.495C260.055 45.72 260.791 45.336 261.719 45.336C262.583 45.336 263.303 45.72 263.687 46.408H263.703C264.295 45.816 265.063 45.336 266.119 45.336C267.399 45.336 268.375 46.152 268.375 47.688V53ZM276.841 48.808C276.841 51.304 275.545 53.16 273.177 53.16C272.345 53.16 271.433 53.016 270.889 52.808V43.928L270.665 42.28L272.169 42.072V46.088H272.185C272.665 45.688 273.305 45.336 274.153 45.336C275.913 45.336 276.841 46.6 276.841 48.808ZM275.545 49.272C275.545 47.624 275.161 46.504 273.705 46.504C273.033 46.504 272.553 46.776 272.169 47.112V51.928C272.489 52.008 272.809 52.056 273.289 52.056C274.777 52.056 275.545 50.792 275.545 49.272ZM284.089 52.6C283.369 53 282.633 53.176 281.721 53.176C279.513 53.176 278.377 51.688 278.377 49.208C278.377 46.888 279.593 45.336 281.481 45.336C283.289 45.336 284.025 46.536 284.025 48.184V49.08H279.625C279.641 51.08 280.361 52.04 281.993 52.04C282.617 52.04 283.097 51.864 283.641 51.592L284.089 52.6ZM282.825 48.184C282.825 47.064 282.409 46.36 281.417 46.36C280.457 46.36 279.849 47.112 279.689 48.184H282.825ZM289.359 46.616C288.495 46.616 287.855 46.84 287.279 47.368V53H285.999V47.24L285.775 45.592L287.039 45.384L287.167 46.408H287.183C287.695 45.832 288.367 45.352 289.359 45.352V46.616Z" fill="#00157E" fill-opacity="0.4"/>
<path d="M398 28L386 40" stroke="#00157E" stroke-width="2" stroke-linecap="round" stroke-linejoin="round"/>
<path d="M386 28L398 40" stroke="#00157E" stroke-width="2" stroke-linecap="round" stroke-linejoin="round"/>
</svg>
