<svg width="420" height="68" viewBox="0 0 420 68" fill="none" xmlns="http://www.w3.org/2000/svg">
<path d="M21.559 16H17.163V7.572H18.339V15.006H21.559V16ZM27.2432 15.93L26.1232 16.112L26.0252 15.342H26.0112C25.5352 15.79 25.0172 16.168 24.2332 16.168C23.1412 16.168 22.4972 15.51 22.4972 14.474C22.4972 13.298 23.4212 12.724 24.7512 12.584L25.9272 12.458V11.87C25.9272 10.96 25.6472 10.316 24.5692 10.316C24.0232 10.316 23.6172 10.484 23.2112 10.694L22.8052 9.868C23.3932 9.518 23.9952 9.294 24.8352 9.294C26.1512 9.294 27.0332 10.064 27.0332 11.366V14.488L27.2432 15.93ZM25.9272 14.642V13.214L24.9052 13.354C24.0652 13.466 23.6032 13.732 23.6032 14.334C23.6032 14.88 23.9392 15.244 24.4992 15.244C25.1572 15.244 25.5632 14.964 25.9272 14.642ZM34.4689 12.332C34.4689 14.516 33.3349 16.14 31.2629 16.14C30.5349 16.14 29.7369 16.014 29.2609 15.832V8.062L29.0649 6.62L30.3809 6.438V9.952H30.3949C30.8149 9.602 31.3749 9.294 32.1169 9.294C33.6569 9.294 34.4689 10.4 34.4689 12.332ZM33.3349 12.738C33.3349 11.296 32.9989 10.316 31.7249 10.316C31.1369 10.316 30.7169 10.554 30.3809 10.848V15.062C30.6609 15.132 30.9409 15.174 31.3609 15.174C32.6629 15.174 33.3349 14.068 33.3349 12.738ZM40.8116 15.65C40.1816 16 39.5376 16.154 38.7396 16.154C36.8076 16.154 35.8136 14.852 35.8136 12.682C35.8136 10.652 36.8776 9.294 38.5296 9.294C40.1116 9.294 40.7556 10.344 40.7556 11.786V12.57H36.9056C36.9196 14.32 37.5496 15.16 38.9776 15.16C39.5236 15.16 39.9436 15.006 40.4196 14.768L40.8116 15.65ZM39.7056 11.786C39.7056 10.806 39.3416 10.19 38.4736 10.19C37.6336 10.19 37.1016 10.848 36.9616 11.786H39.7056ZM43.5743 16H42.4543V8.062L42.2583 6.62L43.5743 6.438V16Z" fill="#00157E" fill-opacity="0.7"/>
<path d="M20 29H364C365.657 29 367 30.3431 367 32V64C367 65.6569 365.657 67 364 67H20C18.3431 67 17 65.6569 17 64V32C17 30.3431 18.3431 29 20 29Z" fill="white"/>
<path d="M20 29H364C365.657 29 367 30.3431 367 32V64C367 65.6569 365.657 67 364 67H20C18.3431 67 17 65.6569 17 64V32C17 30.3431 18.3431 29 20 29Z" stroke="#00157E" stroke-width="2"/>
<path d="M39 55C43.4183 55 47 51.4183 47 47C47 42.5817 43.4183 39 39 39C34.5817 39 31 42.5817 31 47C31 51.4183 34.5817 55 39 55Z" stroke="#00157E" stroke-width="2" stroke-linecap="round" stroke-linejoin="round"/>
<path d="M49 56.9999L44.65 52.6499" stroke="#00157E" stroke-width="2" stroke-linecap="round" stroke-linejoin="round"/>
<path d="M68.8208 53H67.4768V48.6H63.1408V53H61.7968V43.368H63.1408V47.464H67.4768V43.368H68.8208V53ZM76.3483 52.92L75.0683 53.128L74.9563 52.248H74.9403C74.3963 52.76 73.8043 53.192 72.9083 53.192C71.6603 53.192 70.9243 52.44 70.9243 51.256C70.9243 49.912 71.9803 49.256 73.5003 49.096L74.8443 48.952V48.28C74.8443 47.24 74.5243 46.504 73.2923 46.504C72.6683 46.504 72.2043 46.696 71.7403 46.936L71.2763 45.992C71.9483 45.592 72.6363 45.336 73.5963 45.336C75.1003 45.336 76.1083 46.216 76.1083 47.704V51.272L76.3483 52.92ZM74.8443 51.448V49.816L73.6763 49.976C72.7163 50.104 72.1883 50.408 72.1883 51.096C72.1883 51.72 72.5723 52.136 73.2123 52.136C73.9643 52.136 74.4283 51.816 74.8443 51.448ZM84.3663 53H83.0863V48.136C83.0863 47.032 82.6703 46.472 81.6623 46.472C80.9423 46.472 80.4303 46.776 79.9663 47.192V53H78.6863V47.24L78.4622 45.592L79.7263 45.384L79.8543 46.264H79.8703C80.4303 45.72 81.1663 45.336 82.0943 45.336C83.3583 45.336 84.3663 46.152 84.3663 47.688V53ZM91.2254 50.824C91.2254 52.184 90.1534 53.16 88.5534 53.16C87.7854 53.16 87.0174 53.048 86.4094 52.76L86.7934 51.64C87.3214 51.88 87.9134 52.072 88.4894 52.072C89.3534 52.072 89.9294 51.736 89.9294 51.032C89.9294 50.488 89.6414 50.264 89.1454 50.04L87.7534 49.4C87.2574 49.176 86.3614 48.728 86.3614 47.432C86.3614 46.008 87.6094 45.336 88.9694 45.336C89.7854 45.336 90.3614 45.464 91.0014 45.736L90.5694 46.84C90.0574 46.616 89.5614 46.456 88.9534 46.456C88.1374 46.456 87.6094 46.712 87.6094 47.352C87.6094 47.912 88.0894 48.136 88.3934 48.28L89.8174 48.952C90.8094 49.416 91.2254 50.008 91.2254 50.824ZM106.48 52.968L105.2 53.064L104.928 45.608H104.912L102.08 53H100.688L98.0161 45.624H98.0001L97.6161 53H96.4481L97.0721 43.368H98.4801L101.504 51.4H101.52L104.576 43.368H105.968L106.48 52.968ZM114.058 52.6C113.338 53 112.602 53.176 111.69 53.176C109.482 53.176 108.346 51.688 108.346 49.208C108.346 46.888 109.562 45.336 111.45 45.336C113.258 45.336 113.994 46.536 113.994 48.184V49.08H109.594C109.61 51.08 110.33 52.04 111.962 52.04C112.586 52.04 113.066 51.864 113.61 51.592L114.058 52.6ZM112.794 48.184C112.794 47.064 112.378 46.36 111.386 46.36C110.426 46.36 109.818 47.112 109.658 48.184H112.794ZM121.392 45.512L118.896 52.312C118.096 54.52 117.024 55.848 114.415 56.376L114.175 55.336C116.08 54.952 117.088 53.8 117.584 52.552L114.896 45.624L116.16 45.288L118.224 50.856H118.24L120.128 45.512H121.392ZM127.98 52.6C127.26 53 126.524 53.176 125.612 53.176C123.404 53.176 122.268 51.688 122.268 49.208C122.268 46.888 123.484 45.336 125.372 45.336C127.18 45.336 127.916 46.536 127.916 48.184V49.08H123.516C123.532 51.08 124.252 52.04 125.884 52.04C126.508 52.04 126.988 51.864 127.532 51.592L127.98 52.6ZM126.716 48.184C126.716 47.064 126.3 46.36 125.308 46.36C124.348 46.36 123.74 47.112 123.58 48.184H126.716ZM133.249 46.616C132.385 46.616 131.745 46.84 131.169 47.368V53H129.889V47.24L129.665 45.592L130.929 45.384L131.057 46.408H131.073C131.585 45.832 132.257 45.352 133.249 45.352V46.616Z" fill="#00157E"/>
<path d="M344 58C349.523 58 354 53.5228 354 48C354 42.4772 349.523 38 344 38C338.477 38 334 42.4772 334 48C334 53.5228 338.477 58 344 58Z" stroke="#00157E" stroke-width="2" stroke-linecap="round" stroke-linejoin="round"/>
<path d="M347 45L341 51" stroke="#00157E" stroke-width="2" stroke-linecap="round" stroke-linejoin="round"/>
<path d="M341 45L347 51" stroke="#00157E" stroke-width="2" stroke-linecap="round" stroke-linejoin="round"/>
<path d="M398 28L386 40" stroke="#00157E" stroke-width="2" stroke-linecap="round" stroke-linejoin="round"/>
<path d="M386 28L398 40" stroke="#00157E" stroke-width="2" stroke-linecap="round" stroke-linejoin="round"/>
</svg>
