<svg width="514" height="94" viewBox="0 0 514 94" fill="none" xmlns="http://www.w3.org/2000/svg">
<path d="M5.55898 16H1.16298V7.572H2.33898V15.006H5.55898V16ZM11.2432 15.93L10.1232 16.112L10.0252 15.342H10.0112C9.5352 15.79 9.0172 16.168 8.2332 16.168C7.1412 16.168 6.4972 15.51 6.4972 14.474C6.4972 13.298 7.4212 12.724 8.7512 12.584L9.9272 12.458V11.87C9.9272 10.96 9.6472 10.316 8.5692 10.316C8.0232 10.316 7.6172 10.484 7.2112 10.694L6.8052 9.868C7.3932 9.518 7.9952 9.294 8.8352 9.294C10.1512 9.294 11.0332 10.064 11.0332 11.366V14.488L11.2432 15.93ZM9.9272 14.642V13.214L8.9052 13.354C8.0652 13.466 7.6032 13.732 7.6032 14.334C7.6032 14.88 7.9392 15.244 8.4992 15.244C9.1572 15.244 9.5632 14.964 9.9272 14.642ZM18.4689 12.332C18.4689 14.516 17.3349 16.14 15.2629 16.14C14.5349 16.14 13.7369 16.014 13.2609 15.832V8.062L13.0649 6.62L14.3809 6.438V9.952H14.3949C14.8149 9.602 15.3749 9.294 16.1169 9.294C17.6569 9.294 18.4689 10.4 18.4689 12.332ZM17.3349 12.738C17.3349 11.296 16.9989 10.316 15.7249 10.316C15.1369 10.316 14.7169 10.554 14.3809 10.848V15.062C14.6609 15.132 14.9409 15.174 15.3609 15.174C16.6629 15.174 17.3349 14.068 17.3349 12.738ZM24.8116 15.65C24.1816 16 23.5376 16.154 22.7396 16.154C20.8076 16.154 19.8136 14.852 19.8136 12.682C19.8136 10.652 20.8776 9.294 22.5296 9.294C24.1116 9.294 24.7556 10.344 24.7556 11.786V12.57H20.9056C20.9196 14.32 21.5496 15.16 22.9776 15.16C23.5236 15.16 23.9436 15.006 24.4196 14.768L24.8116 15.65ZM23.7056 11.786C23.7056 10.806 23.3416 10.19 22.4736 10.19C21.6336 10.19 21.1016 10.848 20.9616 11.786H23.7056ZM27.5743 16H26.4543V8.062L26.2583 6.62L27.5743 6.438V16Z" fill="#00157E" fill-opacity="0.7"/>
<g clip-path="url(#clip0_452_87434)">
<mask id="path-2-inside-1_452_87434" fill="white">
<path d="M0 28H514V94H0V28Z"/>
</mask>
<path d="M11.6217 41.968L10.3417 42.064L10.0697 34.608H10.0537L7.22173 42H5.82973L3.15773 34.624H3.14173L2.75773 42H1.58973L2.21373 32.368H3.62173L6.64573 40.4H6.66173L9.71773 32.368H11.1097L11.6217 41.968ZM15.4074 42H14.0634V32.368H15.4074V42ZM25.0874 32.704L24.6234 33.904C23.9834 33.632 23.3274 33.392 22.4634 33.392C20.5434 33.392 18.9114 34.672 18.9114 37.04C18.9114 39.648 19.9194 40.96 22.3354 40.96C22.9754 40.96 23.6794 40.784 23.6794 40.784V37.28H25.0074V41.68C25.0074 41.68 23.8234 42.176 21.7274 42.176C19.2954 42.176 17.5034 40.48 17.5034 37.36C17.5034 34 19.7594 32.192 22.4954 32.192C23.5354 32.192 24.2874 32.352 25.0874 32.704ZM33.5046 41.696L32.3206 42.272L29.6166 37.888C29.3766 37.92 29.1526 37.936 28.9126 37.936H28.6726V42H27.3446V32.448C27.3446 32.448 28.5606 32.272 29.8086 32.272C31.6646 32.272 32.8326 33.168 32.8326 34.688C32.8326 36.16 31.9846 37.072 30.8486 37.52L33.5046 41.696ZM31.5366 34.928C31.5366 33.776 30.7366 33.28 29.5846 33.28C29.0726 33.28 28.6726 33.328 28.6726 33.328V36.96H28.8806C30.1766 36.96 31.5366 36.416 31.5366 34.928ZM43.3335 37.184C43.3335 39.712 42.1975 42.176 38.9815 42.176C35.7015 42.176 34.5815 39.744 34.5815 37.184C34.5815 34.64 35.7495 32.192 38.9815 32.192C42.2615 32.192 43.3335 34.608 43.3335 37.184ZM41.9255 37.184C41.9255 34.832 41.0135 33.328 38.9815 33.328C36.9655 33.328 36.0215 34.896 36.0215 37.184C36.0215 39.52 36.9335 41.04 38.9815 41.04C40.9655 41.04 41.9255 39.472 41.9255 37.184ZM50.6387 39.296C50.6387 40.976 49.4707 42.176 47.5347 42.176C46.5427 42.176 45.6627 41.968 44.9107 41.648L45.3267 40.48C45.9507 40.768 46.6867 41.008 47.4387 41.008C48.6067 41.008 49.3587 40.56 49.3587 39.504C49.3587 38.72 48.7827 38.336 48.0147 37.968L46.5107 37.248C45.5027 36.768 44.8147 36.144 44.8147 34.784C44.8147 33.136 46.2547 32.192 47.9187 32.192C48.8147 32.192 49.3907 32.336 50.2227 32.64L49.7747 33.776C49.2627 33.536 48.7027 33.312 47.9987 33.312C47.0067 33.312 46.1107 33.712 46.1107 34.736C46.1107 35.424 46.5267 35.76 47.1667 36.064L48.7027 36.816C49.9187 37.408 50.6387 38.064 50.6387 39.296ZM62.1292 39.056C62.1292 41.216 60.3532 42 58.0172 42H55.9852V32.432C55.9852 32.432 57.2012 32.288 58.4492 32.288C60.2892 32.288 61.4092 32.976 61.4092 34.496C61.4092 35.648 60.6892 36.416 59.7772 36.816V36.832C61.0732 36.976 62.1292 37.728 62.1292 39.056ZM60.8012 39.264C60.8012 38.192 60.1132 37.552 58.2252 37.552H57.2972V40.912H58.4652C59.7772 40.912 60.8012 40.416 60.8012 39.264ZM60.0812 34.8C60.0812 33.728 59.3932 33.264 58.1612 33.264C57.7132 33.264 57.2972 33.312 57.2972 33.312V36.624C58.9452 36.592 60.0812 36.128 60.0812 34.8ZM68.8492 41.92L67.5692 42.128L67.4572 41.248H67.4412C66.8972 41.76 66.3052 42.192 65.4092 42.192C64.1612 42.192 63.4252 41.44 63.4252 40.256C63.4252 38.912 64.4812 38.256 66.0012 38.096L67.3452 37.952V37.28C67.3452 36.24 67.0252 35.504 65.7932 35.504C65.1692 35.504 64.7052 35.696 64.2412 35.936L63.7772 34.992C64.4492 34.592 65.1372 34.336 66.0972 34.336C67.6012 34.336 68.6092 35.216 68.6092 36.704V40.272L68.8492 41.92ZM67.3452 40.448V38.816L66.1772 38.976C65.2172 39.104 64.6892 39.408 64.6892 40.096C64.6892 40.72 65.0732 41.136 65.7132 41.136C66.4652 41.136 66.9292 40.816 67.3452 40.448ZM76.8672 42H75.5872V37.136C75.5872 36.032 75.1712 35.472 74.1632 35.472C73.4432 35.472 72.9312 35.776 72.4672 36.192V42H71.1872V36.24L70.9632 34.592L72.2272 34.384L72.3552 35.264H72.3712C72.9312 34.72 73.6672 34.336 74.5952 34.336C75.8592 34.336 76.8672 35.152 76.8672 36.688V42ZM80.6384 42H79.3584V32.928L79.1344 31.28L80.6384 31.072V42ZM85.3584 41.776L84.0784 42.24L80.6704 37.936L83.3744 34.512H84.8304L82.1744 37.824L85.3584 41.776Z" fill="#00157E"/>
<path d="M2.69641 60H1.35241V50.368H2.69641V60ZM10.9844 60H9.70441V55.136C9.70441 54.032 9.28841 53.472 8.28041 53.472C7.56041 53.472 7.04841 53.776 6.58441 54.192V60H5.30441V54.24L5.08041 52.592L6.34441 52.384L6.47241 53.264H6.48841C7.04841 52.72 7.78441 52.336 8.71241 52.336C9.97641 52.336 10.9844 53.152 10.9844 54.688V60ZM19.1235 59.952L17.8915 60.128L17.7795 59.376H17.7635C17.2835 59.776 16.6275 60.176 15.7475 60.176C14.0995 60.176 12.9955 58.816 12.9955 56.592C12.9955 54.016 14.3235 52.432 16.5955 52.432C17.2035 52.432 17.6355 52.544 17.6355 52.544V50.928L17.3955 49.28L18.8995 49.072V58.304L19.1235 59.952ZM16.1955 59.056C16.8195 59.056 17.2515 58.8 17.6355 58.496V53.712C17.6355 53.712 17.2195 53.504 16.4835 53.504C15.0275 53.504 14.3075 54.736 14.3075 56.192C14.3075 58 14.7875 59.056 16.1955 59.056ZM27.3647 59.92L26.1007 60.128L25.9727 59.264H25.9567C25.3967 59.792 24.6607 60.176 23.7327 60.176C22.4687 60.176 21.4607 59.36 21.4607 57.824V54.24L21.2367 52.592L22.7407 52.384V57.376C22.7407 58.48 23.1567 59.056 24.1647 59.056C24.8847 59.056 25.3967 58.752 25.8607 58.32V54.24L25.6367 52.592L27.1407 52.384V58.272L27.3647 59.92ZM34.031 57.824C34.031 59.184 32.959 60.16 31.359 60.16C30.591 60.16 29.823 60.048 29.215 59.76L29.599 58.64C30.127 58.88 30.719 59.072 31.295 59.072C32.159 59.072 32.735 58.736 32.735 58.032C32.735 57.488 32.447 57.264 31.951 57.04L30.559 56.4C30.063 56.176 29.167 55.728 29.167 54.432C29.167 53.008 30.415 52.336 31.775 52.336C32.591 52.336 33.167 52.464 33.807 52.736L33.375 53.84C32.863 53.616 32.367 53.456 31.759 53.456C30.943 53.456 30.415 53.712 30.415 54.352C30.415 54.912 30.895 55.136 31.199 55.28L32.623 55.952C33.615 56.416 34.031 57.008 34.031 57.824ZM39.7984 59.696C39.3344 59.952 38.9024 60.16 38.0864 60.16C36.9344 60.16 36.1984 59.408 36.1984 58.128V53.552H35.0944V52.704L36.1984 52.48V51.232L37.4624 51.072V52.512H39.5584V53.552H37.4624V57.696C37.4624 58.704 37.7184 59.024 38.4544 59.024C38.8544 59.024 39.1584 58.864 39.3824 58.72L39.7984 59.696ZM44.8675 53.616C44.0035 53.616 43.3635 53.84 42.7875 54.368V60H41.5075V54.24L41.2835 52.592L42.5475 52.384L42.6755 53.408H42.6915C43.2035 52.832 43.8755 52.352 44.8675 52.352V53.616ZM47.7414 60H46.4614V54.24L46.2374 52.592L47.7414 52.384V60ZM47.9974 50.56C47.9974 51.072 47.5974 51.456 47.1174 51.456C46.6214 51.456 46.2054 51.072 46.2054 50.56C46.2054 50.048 46.6214 49.648 47.1174 49.648C47.5974 49.648 47.9974 50.048 47.9974 50.56ZM55.5044 59.6C54.7844 60 54.0484 60.176 53.1364 60.176C50.9284 60.176 49.7924 58.688 49.7924 56.208C49.7924 53.888 51.0084 52.336 52.8964 52.336C54.7044 52.336 55.4404 53.536 55.4404 55.184V56.08H51.0404C51.0564 58.08 51.7764 59.04 53.4084 59.04C54.0324 59.04 54.5124 58.864 55.0564 58.592L55.5044 59.6ZM54.2404 55.184C54.2404 54.064 53.8244 53.36 52.8324 53.36C51.8724 53.36 51.2644 54.112 51.1044 55.184H54.2404ZM61.7498 57.824C61.7498 59.184 60.6778 60.16 59.0778 60.16C58.3098 60.16 57.5418 60.048 56.9338 59.76L57.3178 58.64C57.8458 58.88 58.4378 59.072 59.0138 59.072C59.8778 59.072 60.4538 58.736 60.4538 58.032C60.4538 57.488 60.1658 57.264 59.6698 57.04L58.2778 56.4C57.7818 56.176 56.8858 55.728 56.8858 54.432C56.8858 53.008 58.1338 52.336 59.4938 52.336C60.3098 52.336 60.8858 52.464 61.5258 52.736L61.0938 53.84C60.5818 53.616 60.0858 53.456 59.4778 53.456C58.6618 53.456 58.1338 53.712 58.1338 54.352C58.1338 54.912 58.6138 55.136 58.9178 55.28L60.3418 55.952C61.3338 56.416 61.7498 57.008 61.7498 57.824ZM67.5172 59.696C67.0532 59.952 66.6212 60.16 65.8052 60.16C64.6532 60.16 63.9172 59.408 63.9172 58.128V53.552H62.8132V52.704L63.9172 52.48V51.232L65.1812 51.072V52.512H67.2772V53.552H65.1812V57.696C65.1812 58.704 65.4372 59.024 66.1732 59.024C66.5732 59.024 66.8772 58.864 67.1012 58.72L67.5172 59.696ZM72.5863 53.616C71.7223 53.616 71.0823 53.84 70.5063 54.368V60H69.2263V54.24L69.0023 52.592L70.2663 52.384L70.3943 53.408H70.4103C70.9223 52.832 71.5943 52.352 72.5863 52.352V53.616ZM78.8258 59.92L77.5458 60.128L77.4338 59.248H77.4178C76.8738 59.76 76.2818 60.192 75.3858 60.192C74.1378 60.192 73.4018 59.44 73.4018 58.256C73.4018 56.912 74.4578 56.256 75.9778 56.096L77.3218 55.952V55.28C77.3218 54.24 77.0018 53.504 75.7698 53.504C75.1458 53.504 74.6818 53.696 74.2178 53.936L73.7538 52.992C74.4258 52.592 75.1138 52.336 76.0738 52.336C77.5778 52.336 78.5858 53.216 78.5858 54.704V58.272L78.8258 59.92ZM77.3218 58.448V56.816L76.1538 56.976C75.1938 57.104 74.6658 57.408 74.6658 58.096C74.6658 58.72 75.0498 59.136 75.6898 59.136C76.4418 59.136 76.9058 58.816 77.3218 58.448ZM85.4998 57.824C85.4998 59.184 84.4278 60.16 82.8278 60.16C82.0598 60.16 81.2918 60.048 80.6838 59.76L81.0678 58.64C81.5958 58.88 82.1878 59.072 82.7638 59.072C83.6278 59.072 84.2038 58.736 84.2038 58.032C84.2038 57.488 83.9158 57.264 83.4198 57.04L82.0278 56.4C81.5318 56.176 80.6358 55.728 80.6358 54.432C80.6358 53.008 81.8838 52.336 83.2438 52.336C84.0598 52.336 84.6358 52.464 85.2758 52.736L84.8438 53.84C84.3318 53.616 83.8358 53.456 83.2278 53.456C82.4118 53.456 81.8838 53.712 81.8838 54.352C81.8838 54.912 82.3638 55.136 82.6678 55.28L84.0918 55.952C85.0838 56.416 85.4998 57.008 85.4998 57.824ZM91.8592 57.824C91.8592 59.184 90.7872 60.16 89.1872 60.16C88.4192 60.16 87.6512 60.048 87.0432 59.76L87.4272 58.64C87.9552 58.88 88.5472 59.072 89.1232 59.072C89.9872 59.072 90.5632 58.736 90.5632 58.032C90.5632 57.488 90.2752 57.264 89.7792 57.04L88.3872 56.4C87.8912 56.176 86.9952 55.728 86.9952 54.432C86.9952 53.008 88.2432 52.336 89.6032 52.336C90.4192 52.336 90.9952 52.464 91.6352 52.736L91.2032 53.84C90.6912 53.616 90.1952 53.456 89.5872 53.456C88.7712 53.456 88.2432 53.712 88.2432 54.352C88.2432 54.912 88.7232 55.136 89.0272 55.28L90.4512 55.952C91.4432 56.416 91.8592 57.008 91.8592 57.824ZM99.0825 59.6C98.3625 60 97.6265 60.176 96.7145 60.176C94.5065 60.176 93.3705 58.688 93.3705 56.208C93.3705 53.888 94.5865 52.336 96.4745 52.336C98.2825 52.336 99.0185 53.536 99.0185 55.184V56.08H94.6185C94.6345 58.08 95.3545 59.04 96.9865 59.04C97.6105 59.04 98.0905 58.864 98.6345 58.592L99.0825 59.6ZM97.8185 55.184C97.8185 54.064 97.4025 53.36 96.4105 53.36C95.4505 53.36 94.8425 54.112 94.6825 55.184H97.8185ZM106.399 60H105.135V52.928L103.727 53.12L103.583 52.144L106.399 51.696V60ZM111.024 60H109.76V52.928L108.352 53.12L108.208 52.144L111.024 51.696V60ZM118.514 52.928L113.938 62.64L112.866 62.096L117.122 53.008H112.77V51.84H118.514V52.928Z" fill="#00157E"/>
<path d="M8.10923 77.504C7.21323 77.968 6.30123 78.176 5.08523 78.176C2.73323 78.176 0.925227 76.592 0.925227 73.392C0.925227 69.984 2.94123 68.192 5.53323 68.192C6.60523 68.192 7.26123 68.352 8.07723 68.704L7.56523 69.872C6.95723 69.6 6.38123 69.392 5.51723 69.392C3.83723 69.392 2.30123 70.688 2.30123 73.056C2.30123 75.696 3.27723 76.992 5.61323 76.992C6.38123 76.992 7.08523 76.688 7.66123 76.432L8.10923 77.504ZM16.8061 78H15.4621V73.6H11.1261V78H9.7821V68.368H11.1261V72.464H15.4621V68.368H16.8061V78ZM22.5736 73.872H18.8456V72.8H22.5736V73.872ZM29.7302 75.664C29.7302 77.2 28.5622 78.176 26.9142 78.176C25.2342 78.176 24.0982 77.328 24.0982 75.76C24.0982 74.352 25.1382 73.504 25.9382 72.96C24.9782 72.288 24.3382 71.712 24.3382 70.512C24.3382 69.152 25.4582 68.192 26.8982 68.192C28.4502 68.192 29.4582 69.056 29.4582 70.4C29.4582 71.552 28.6582 72.288 27.8742 72.832C28.8982 73.52 29.7302 74.208 29.7302 75.664ZM28.4982 75.664C28.4982 74.624 27.7782 74.096 26.8182 73.472C25.9702 74.048 25.3142 74.544 25.3142 75.6C25.3142 76.56 25.9542 77.104 26.9302 77.104C27.9702 77.104 28.4982 76.464 28.4982 75.664ZM28.3222 70.544C28.3222 69.728 27.7782 69.2 26.9142 69.2C26.0502 69.2 25.4902 69.76 25.4902 70.56C25.4902 71.312 26.1142 71.744 26.9782 72.336C27.6662 71.888 28.3222 71.312 28.3222 70.544ZM36.4359 77.36C36.4359 79.28 35.2039 80.496 33.0919 80.496C32.4679 80.496 31.8119 80.384 31.2199 80.24L31.5079 79.04C32.0359 79.2 32.4839 79.328 33.1239 79.328C34.3879 79.328 35.1559 78.704 35.1559 77.552C35.1559 75.984 33.7159 75.376 31.6839 75.376V74.464C34.0519 74.32 34.7079 73.264 34.7079 72.224C34.7079 71.312 34.1479 70.8 33.2519 70.8C32.5159 70.8 32.0839 71.04 31.6039 71.36L31.0759 70.48C31.6519 70.032 32.3879 69.664 33.5079 69.664C35.0439 69.664 35.9879 70.576 35.9879 72.064C35.9879 73.36 35.2359 74.224 34.1639 74.736V74.752C35.7319 75.088 36.4359 76.128 36.4359 77.36ZM44.502 73.92C44.502 76.048 43.67 78.176 41.254 78.176C38.822 78.176 37.99 76.048 37.99 73.92C37.99 71.792 38.822 69.664 41.254 69.664C43.67 69.664 44.502 71.792 44.502 73.92ZM43.19 73.92C43.19 72.128 42.598 70.784 41.254 70.784C39.894 70.784 39.302 72.128 39.302 73.92C39.302 75.712 39.894 77.056 41.254 77.056C42.598 77.056 43.19 75.712 43.19 73.92ZM53.3924 76.992H51.4564V80.256L50.2244 80.464V76.992H45.8244V75.952L50.2724 69.84H51.4564V75.904H53.3924V76.992ZM50.2244 75.904V71.568H50.2084L47.1364 75.904H50.2244ZM64.8269 78H57.5309V76.96L62.8909 69.504V69.488H57.9469V68.368H64.5229V69.392L59.2909 76.864V76.88H64.8269V78ZM72.5756 77.92L71.3116 78.128L71.1836 77.264H71.1676C70.6076 77.792 69.8716 78.176 68.9436 78.176C67.6796 78.176 66.6716 77.36 66.6716 75.824V72.24L66.4476 70.592L67.9516 70.384V75.376C67.9516 76.48 68.3676 77.056 69.3756 77.056C70.0956 77.056 70.6076 76.752 71.0716 76.32V72.24L70.8476 70.592L72.3516 70.384V76.272L72.5756 77.92ZM69.0236 68.656C69.0236 69.136 68.6556 69.472 68.2076 69.472C67.7596 69.472 67.3756 69.136 67.3756 68.656C67.3756 68.192 67.7596 67.824 68.2076 67.824C68.6556 67.824 69.0236 68.192 69.0236 68.656ZM71.6316 68.656C71.6316 69.136 71.2476 69.472 70.7996 69.472C70.3516 69.472 69.9676 69.136 69.9676 68.656C69.9676 68.192 70.3516 67.824 70.7996 67.824C71.2476 67.824 71.6316 68.192 71.6316 68.656ZM78.266 71.616C77.402 71.616 76.762 71.84 76.186 72.368V78H74.906V72.24L74.682 70.592L75.946 70.384L76.074 71.408H76.09C76.602 70.832 77.274 70.352 78.266 70.352V71.616ZM81.1399 78H79.8599V72.24L79.6359 70.592L81.1399 70.384V78ZM81.3959 68.56C81.3959 69.072 80.9959 69.456 80.5159 69.456C80.0199 69.456 79.6039 69.072 79.6039 68.56C79.6039 68.048 80.0199 67.648 80.5159 67.648C80.9959 67.648 81.3959 68.048 81.3959 68.56ZM88.5349 70.656L88.1349 71.808C87.7189 71.648 87.2549 71.504 86.7269 71.504C85.3189 71.504 84.4709 72.56 84.4709 74.144C84.4709 76.144 85.2549 77.056 86.6949 77.056C87.2069 77.056 87.6229 76.88 88.0389 76.704L88.4709 77.744C87.8469 78.032 87.1589 78.176 86.4389 78.176C84.2949 78.176 83.1909 76.64 83.1909 74.352C83.1909 71.6 84.8869 70.336 86.7909 70.336C87.4469 70.336 88.0069 70.448 88.5349 70.656ZM95.9286 78H94.6646V73.136C94.6646 72.048 94.2326 71.488 93.2086 71.488C92.4726 71.488 91.9766 71.808 91.5446 72.192V78H90.2646V68.928L90.0406 67.28L91.5446 67.072V71.168H91.5606C92.0566 70.736 92.7446 70.336 93.6726 70.336C94.9526 70.336 95.9286 71.136 95.9286 72.688V78ZM104.788 81.072L103.924 81.552C102.74 79.968 101.54 77.424 101.54 73.888C101.54 70.352 102.74 67.824 103.924 66.224L104.788 66.72C103.684 68.496 102.772 70.672 102.772 73.888C102.772 77.104 103.684 79.296 104.788 81.072ZM116.305 68.368L114.417 78H113.137L110.801 70.304H110.785L108.465 78H107.137L105.217 68.448L106.545 68.224L107.969 75.76H107.985L110.145 68.368H111.521L113.745 75.76H113.761L115.073 68.368H116.305ZM122.88 77.92L121.6 78.128L121.488 77.248H121.472C120.928 77.76 120.336 78.192 119.44 78.192C118.192 78.192 117.456 77.44 117.456 76.256C117.456 74.912 118.512 74.256 120.032 74.096L121.376 73.952V73.28C121.376 72.24 121.056 71.504 119.824 71.504C119.2 71.504 118.736 71.696 118.272 71.936L117.808 70.992C118.48 70.592 119.168 70.336 120.128 70.336C121.632 70.336 122.64 71.216 122.64 72.704V76.272L122.88 77.92ZM121.376 76.448V74.816L120.208 74.976C119.248 75.104 118.72 75.408 118.72 76.096C118.72 76.72 119.104 77.136 119.744 77.136C120.496 77.136 120.96 76.816 121.376 76.448ZM126.466 78H125.186V68.928L124.962 67.28L126.466 67.072V78ZM130.248 78H128.968V68.928L128.744 67.28L130.248 67.072V78ZM134.093 78H132.813V72.24L132.589 70.592L134.093 70.384V78ZM134.349 68.56C134.349 69.072 133.949 69.456 133.469 69.456C132.973 69.456 132.557 69.072 132.557 68.56C132.557 68.048 132.973 67.648 133.469 67.648C133.949 67.648 134.349 68.048 134.349 68.56ZM140.992 75.824C140.992 77.184 139.92 78.16 138.32 78.16C137.552 78.16 136.784 78.048 136.176 77.76L136.56 76.64C137.088 76.88 137.68 77.072 138.256 77.072C139.12 77.072 139.696 76.736 139.696 76.032C139.696 75.488 139.408 75.264 138.912 75.04L137.52 74.4C137.024 74.176 136.128 73.728 136.128 72.432C136.128 71.008 137.376 70.336 138.736 70.336C139.552 70.336 140.128 70.464 140.768 70.736L140.336 71.84C139.824 71.616 139.328 71.456 138.72 71.456C137.904 71.456 137.376 71.712 137.376 72.352C137.376 72.912 137.856 73.136 138.16 73.28L139.584 73.952C140.576 74.416 140.992 75.008 140.992 75.824ZM148.215 77.6C147.495 78 146.759 78.176 145.847 78.176C143.639 78.176 142.503 76.688 142.503 74.208C142.503 71.888 143.719 70.336 145.607 70.336C147.415 70.336 148.151 71.536 148.151 73.184V74.08H143.751C143.767 76.08 144.487 77.04 146.119 77.04C146.743 77.04 147.223 76.864 147.767 76.592L148.215 77.6ZM146.951 73.184C146.951 72.064 146.535 71.36 145.543 71.36C144.583 71.36 143.975 72.112 143.815 73.184H146.951ZM151.373 78H150.093V68.928L149.869 67.28L151.373 67.072V78ZM155.154 78H153.874V68.928L153.65 67.28L155.154 67.072V78ZM162.887 77.6C162.167 78 161.431 78.176 160.519 78.176C158.311 78.176 157.175 76.688 157.175 74.208C157.175 71.888 158.391 70.336 160.279 70.336C162.087 70.336 162.823 71.536 162.823 73.184V74.08H158.423C158.439 76.08 159.159 77.04 160.791 77.04C161.415 77.04 161.895 76.864 162.439 76.592L162.887 77.6ZM161.623 73.184C161.623 72.064 161.207 71.36 160.215 71.36C159.255 71.36 158.647 72.112 158.487 73.184H161.623ZM170.477 78H169.197V73.136C169.197 72.032 168.781 71.472 167.773 71.472C167.053 71.472 166.541 71.776 166.077 72.192V78H164.797V72.24L164.573 70.592L165.837 70.384L165.965 71.264H165.981C166.541 70.72 167.277 70.336 168.205 70.336C169.469 70.336 170.477 71.152 170.477 72.688V78ZM174.872 73.888C174.872 77.424 173.672 79.968 172.488 81.552L171.608 81.072C172.712 79.296 173.624 77.104 173.624 73.888C173.624 70.672 172.712 68.496 171.608 66.72L172.488 66.224C173.672 67.824 174.872 70.352 174.872 73.888Z" fill="#00157E"/>
<path d="M501.999 39L506.999 44L493.999 57H488.999V52L501.999 39Z" stroke="#00157E" stroke-width="2" stroke-linecap="round" stroke-linejoin="round"/>
</g>
<path d="M514 94V93H0V94V95H514V94Z" fill="#00157E" fill-opacity="0.2" mask="url(#path-2-inside-1_452_87434)"/>
<defs>
<clipPath id="clip0_452_87434">
<path d="M0 28H514V94H0V28Z" fill="white"/>
</clipPath>
</defs>
</svg>
