<svg width="420" height="40" viewBox="0 0 420 40" fill="none" xmlns="http://www.w3.org/2000/svg">
<rect width="420" height="40" fill="#00157E" fill-opacity="0.2"/>
<g clip-path="url(#clip0_361_3226)">
<path d="M31 22L36 17L31 12" stroke="#00157E" stroke-width="2" stroke-linecap="round" stroke-linejoin="round"/>
<path d="M20 28V21C20 19.9391 20.4214 18.9217 21.1716 18.1716C21.9217 17.4214 22.9391 17 24 17H36" stroke="#00157E" stroke-width="2" stroke-linecap="round" stroke-linejoin="round"/>
<path d="M62.958 23.566C62.174 23.972 61.376 24.154 60.312 24.154C58.254 24.154 56.672 22.768 56.672 19.968C56.672 16.986 58.436 15.418 60.704 15.418C61.642 15.418 62.216 15.558 62.93 15.866L62.482 16.888C61.95 16.65 61.446 16.468 60.69 16.468C59.22 16.468 57.876 17.602 57.876 19.674C57.876 21.984 58.73 23.118 60.774 23.118C61.446 23.118 62.062 22.852 62.566 22.628L62.958 23.566ZM68.6778 23.93L67.5578 24.112L67.4598 23.342H67.4458C66.9698 23.79 66.4518 24.168 65.6678 24.168C64.5758 24.168 63.9318 23.51 63.9318 22.474C63.9318 21.298 64.8558 20.724 66.1858 20.584L67.3618 20.458V19.87C67.3618 18.96 67.0818 18.316 66.0038 18.316C65.4578 18.316 65.0518 18.484 64.6458 18.694L64.2398 17.868C64.8278 17.518 65.4298 17.294 66.2698 17.294C67.5858 17.294 68.4678 18.064 68.4678 19.366V22.488L68.6778 23.93ZM67.3618 22.642V21.214L66.3398 21.354C65.4998 21.466 65.0378 21.732 65.0378 22.334C65.0378 22.88 65.3738 23.244 65.9338 23.244C66.5918 23.244 66.9978 22.964 67.3618 22.642ZM73.9575 14.578L73.7055 15.53C73.5095 15.46 73.3275 15.418 73.0475 15.418C72.4175 15.418 71.9555 15.824 71.9555 16.65V17.448H73.7615V18.358H71.9555V24H70.8495V18.358H69.8835V17.616L70.8495 17.42V16.734C70.8495 15.32 71.8015 14.452 73.1035 14.452C73.4535 14.452 73.7055 14.508 73.9575 14.578ZM79.3204 23.65C78.6904 24 78.0464 24.154 77.2484 24.154C75.3164 24.154 74.3224 22.852 74.3224 20.682C74.3224 18.652 75.3864 17.294 77.0384 17.294C78.6204 17.294 79.2644 18.344 79.2644 19.786V20.57H75.4144C75.4284 22.32 76.0584 23.16 77.4864 23.16C78.0324 23.16 78.4524 23.006 78.9284 22.768L79.3204 23.65ZM78.2144 19.786C78.2144 18.806 77.8504 18.19 76.9824 18.19C76.1424 18.19 75.6104 18.848 75.4704 19.786H78.2144Z" fill="#00157E"/>
</g>
<path d="M345.432 21.072C345.432 23.136 344.268 24.156 342.708 24.156C341.04 24.156 339.972 23.316 339.972 21.048V16.776H341.004V21.096C341.004 22.524 341.556 23.196 342.672 23.196C343.788 23.196 344.472 22.512 344.472 21.12V16.776H345.432V21.072ZM351.314 21.972C351.314 23.232 350.438 24.132 348.986 24.132C348.242 24.132 347.582 23.976 347.018 23.736L347.33 22.86C347.798 23.076 348.35 23.256 348.914 23.256C349.79 23.256 350.354 22.92 350.354 22.128C350.354 21.54 349.922 21.252 349.346 20.976L348.218 20.436C347.462 20.076 346.946 19.608 346.946 18.588C346.946 17.352 348.026 16.644 349.274 16.644C349.946 16.644 350.378 16.752 351.002 16.98L350.666 17.832C350.282 17.652 349.862 17.484 349.334 17.484C348.59 17.484 347.918 17.784 347.918 18.552C347.918 19.068 348.23 19.32 348.71 19.548L349.862 20.112C350.774 20.556 351.314 21.048 351.314 21.972ZM358.469 19.932C358.469 22.572 356.885 24 354.317 24H352.805V16.824C352.805 16.824 353.801 16.704 354.869 16.704C357.101 16.704 358.469 17.868 358.469 19.932ZM357.425 20.076C357.425 18.372 356.273 17.556 354.701 17.556C354.197 17.556 353.813 17.58 353.813 17.58V23.1H354.509C356.225 23.1 357.425 22.08 357.425 20.076Z" fill="#00157E" fill-opacity="0.7"/>
<path d="M374.952 20.388H369.31V19.464H374.952V20.388ZM378.064 24H376.958V17.812L375.726 17.98L375.6 17.126L378.064 16.734V24ZM385.64 20.43C385.64 22.292 384.912 24.154 382.798 24.154C380.67 24.154 379.942 22.292 379.942 20.43C379.942 18.568 380.67 16.706 382.798 16.706C384.912 16.706 385.64 18.568 385.64 20.43ZM384.492 20.43C384.492 18.862 383.974 17.686 382.798 17.686C381.608 17.686 381.09 18.862 381.09 20.43C381.09 21.998 381.608 23.174 382.798 23.174C383.974 23.174 384.492 21.998 384.492 20.43ZM388.799 23.286C388.799 23.734 388.435 24.098 388.001 24.098C387.553 24.098 387.189 23.734 387.189 23.286C387.189 22.852 387.553 22.488 388.001 22.488C388.435 22.488 388.799 22.852 388.799 23.286ZM396.044 20.43C396.044 22.292 395.316 24.154 393.202 24.154C391.074 24.154 390.346 22.292 390.346 20.43C390.346 18.568 391.074 16.706 393.202 16.706C395.316 16.706 396.044 18.568 396.044 20.43ZM394.896 20.43C394.896 18.862 394.378 17.686 393.202 17.686C392.012 17.686 391.494 18.862 391.494 20.43C391.494 21.998 392.012 23.174 393.202 23.174C394.378 23.174 394.896 21.998 394.896 20.43ZM403.249 20.43C403.249 22.292 402.521 24.154 400.407 24.154C398.279 24.154 397.551 22.292 397.551 20.43C397.551 18.568 398.279 16.706 400.407 16.706C402.521 16.706 403.249 18.568 403.249 20.43ZM402.101 20.43C402.101 18.862 401.583 17.686 400.407 17.686C399.217 17.686 398.699 18.862 398.699 20.43C398.699 21.998 399.217 23.174 400.407 23.174C401.583 23.174 402.101 21.998 402.101 20.43Z" fill="#00157E"/>
<defs>
<clipPath id="clip0_361_3226">
<rect width="307" height="24" fill="white" transform="translate(16 8)"/>
</clipPath>
</defs>
</svg>
