<svg width="555" height="120" viewBox="0 0 555 120" fill="none" xmlns="http://www.w3.org/2000/svg">
<path d="M22.02 9.658C22.02 11.632 20.41 12.626 18.534 12.626H18.324V16H17.162V7.642C17.162 7.642 18.212 7.488 19.318 7.488C20.956 7.488 22.02 8.272 22.02 9.658ZM20.872 9.868C20.872 8.832 20.186 8.37 19.122 8.37C18.674 8.37 18.324 8.426 18.324 8.426V11.73H18.506C19.752 11.73 20.872 11.17 20.872 9.868ZM26.4721 10.414C25.7161 10.414 25.1561 10.61 24.6521 11.072V16H23.5321V10.96L23.3361 9.518L24.4421 9.336L24.5541 10.232H24.5681C25.0161 9.728 25.6041 9.308 26.4721 9.308V10.414ZM32.8267 12.724C32.8267 14.642 31.9167 16.154 30.0267 16.154C27.9547 16.154 27.2267 14.684 27.2267 12.724C27.2267 10.806 28.1367 9.294 30.0267 9.294C32.0987 9.294 32.8267 10.764 32.8267 12.724ZM31.6787 12.752C31.6787 11.128 31.1327 10.274 30.0267 10.274C28.9487 10.274 28.3747 11.03 28.3747 12.682C28.3747 14.306 28.9207 15.174 30.0267 15.174C31.1047 15.174 31.6787 14.404 31.6787 12.752ZM39.5203 15.958L38.4423 16.112L38.3443 15.454H38.3303C37.9103 15.804 37.3363 16.154 36.5663 16.154C35.1243 16.154 34.1583 14.964 34.1583 13.018C34.1583 10.764 35.3203 9.378 37.3083 9.378C37.8403 9.378 38.2183 9.476 38.2183 9.476V8.062L38.0083 6.62L39.3243 6.438V14.516L39.5203 15.958ZM36.9583 15.174C37.5043 15.174 37.8823 14.95 38.2183 14.684V10.498C38.2183 10.498 37.8543 10.316 37.2103 10.316C35.9363 10.316 35.3063 11.394 35.3063 12.668C35.3063 14.25 35.7263 15.174 36.9583 15.174ZM46.7313 15.93L45.6253 16.112L45.5133 15.356H45.4993C45.0093 15.818 44.3653 16.154 43.5533 16.154C42.4473 16.154 41.5653 15.44 41.5653 14.096V10.96L41.3693 9.518L42.6853 9.336V13.704C42.6853 14.67 43.0493 15.174 43.9313 15.174C44.5613 15.174 45.0093 14.908 45.4153 14.53V10.96L45.2193 9.518L46.5353 9.336V14.488L46.7313 15.93ZM52.9984 9.574L52.6484 10.582C52.2844 10.442 51.8784 10.316 51.4164 10.316C50.1844 10.316 49.4424 11.24 49.4424 12.626C49.4424 14.376 50.1284 15.174 51.3884 15.174C51.8364 15.174 52.2004 15.02 52.5644 14.866L52.9424 15.776C52.3964 16.028 51.7944 16.154 51.1644 16.154C49.2884 16.154 48.3224 14.81 48.3224 12.808C48.3224 10.4 49.8064 9.294 51.4724 9.294C52.0464 9.294 52.5364 9.392 52.9984 9.574ZM57.9526 15.734C57.5466 15.958 57.1686 16.14 56.4546 16.14C55.4466 16.14 54.8026 15.482 54.8026 14.362V10.358H53.8366V9.616L54.8026 9.42V8.328L55.9086 8.188V9.448H57.7426V10.358H55.9086V13.984C55.9086 14.866 56.1326 15.146 56.7766 15.146C57.1266 15.146 57.3926 15.006 57.5886 14.88L57.9526 15.734Z" fill="#00157E" fill-opacity="0.7"/>
<path d="M432.099 12.072C432.099 14.136 430.935 15.156 429.375 15.156C427.707 15.156 426.639 14.316 426.639 12.048V7.776H427.671V12.096C427.671 13.524 428.223 14.196 429.339 14.196C430.455 14.196 431.139 13.512 431.139 12.12V7.776H432.099V12.072ZM437.981 12.972C437.981 14.232 437.105 15.132 435.653 15.132C434.909 15.132 434.249 14.976 433.685 14.736L433.997 13.86C434.465 14.076 435.017 14.256 435.581 14.256C436.457 14.256 437.021 13.92 437.021 13.128C437.021 12.54 436.589 12.252 436.013 11.976L434.885 11.436C434.129 11.076 433.613 10.608 433.613 9.588C433.613 8.352 434.693 7.644 435.941 7.644C436.613 7.644 437.045 7.752 437.669 7.98L437.333 8.832C436.949 8.652 436.529 8.484 436.001 8.484C435.257 8.484 434.585 8.784 434.585 9.552C434.585 10.068 434.897 10.32 435.377 10.548L436.529 11.112C437.441 11.556 437.981 12.048 437.981 12.972ZM445.135 10.932C445.135 13.572 443.551 15 440.983 15H439.471V7.824C439.471 7.824 440.467 7.704 441.535 7.704C443.767 7.704 445.135 8.868 445.135 10.932ZM444.091 11.076C444.091 9.372 442.939 8.556 441.367 8.556C440.863 8.556 440.479 8.58 440.479 8.58V14.1H441.175C442.891 14.1 444.091 13.08 444.091 11.076Z" fill="#00157E" fill-opacity="0.7"/>
<path d="M461.001 9.658C461.001 11.632 459.391 12.626 457.515 12.626H457.305V16H456.143V7.642C456.143 7.642 457.193 7.488 458.299 7.488C459.937 7.488 461.001 8.272 461.001 9.658ZM459.853 9.868C459.853 8.832 459.167 8.37 458.103 8.37C457.655 8.37 457.305 8.426 457.305 8.426V11.73H457.487C458.733 11.73 459.853 11.17 459.853 9.868ZM465.453 10.414C464.697 10.414 464.137 10.61 463.633 11.072V16H462.513V10.96L462.317 9.518L463.423 9.336L463.535 10.232H463.549C463.997 9.728 464.585 9.308 465.453 9.308V10.414ZM467.968 16H466.848V10.96L466.652 9.518L467.968 9.336V16ZM468.192 7.74C468.192 8.188 467.842 8.524 467.422 8.524C466.988 8.524 466.624 8.188 466.624 7.74C466.624 7.292 466.988 6.942 467.422 6.942C467.842 6.942 468.192 7.292 468.192 7.74ZM474.984 9.448L472.618 15.986L471.512 16.028L469.356 9.546L470.476 9.266L472.114 14.544H472.128L473.864 9.448H474.984ZM480.524 15.93L479.404 16.112L479.306 15.342H479.292C478.816 15.79 478.298 16.168 477.514 16.168C476.422 16.168 475.778 15.51 475.778 14.474C475.778 13.298 476.702 12.724 478.032 12.584L479.208 12.458V11.87C479.208 10.96 478.928 10.316 477.85 10.316C477.304 10.316 476.898 10.484 476.492 10.694L476.086 9.868C476.674 9.518 477.276 9.294 478.116 9.294C479.432 9.294 480.314 10.064 480.314 11.366V14.488L480.524 15.93ZM479.208 14.642V13.214L478.186 13.354C477.346 13.466 476.884 13.732 476.884 14.334C476.884 14.88 477.22 15.244 477.78 15.244C478.438 15.244 478.844 14.964 479.208 14.642ZM485.846 15.734C485.44 15.958 485.062 16.14 484.348 16.14C483.34 16.14 482.696 15.482 482.696 14.362V10.358H481.73V9.616L482.696 9.42V8.328L483.802 8.188V9.448H485.636V10.358H483.802V13.984C483.802 14.866 484.026 15.146 484.67 15.146C485.02 15.146 485.286 15.006 485.482 14.88L485.846 15.734ZM491.7 15.65C491.07 16 490.426 16.154 489.628 16.154C487.696 16.154 486.702 14.852 486.702 12.682C486.702 10.652 487.766 9.294 489.418 9.294C491 9.294 491.644 10.344 491.644 11.786V12.57H487.794C487.808 14.32 488.438 15.16 489.866 15.16C490.412 15.16 490.832 15.006 491.308 14.768L491.7 15.65ZM490.594 11.786C490.594 10.806 490.23 10.19 489.362 10.19C488.522 10.19 487.99 10.848 487.85 11.786H490.594ZM500.608 15.93L499.488 16.112L499.39 15.342H499.376C498.9 15.79 498.382 16.168 497.598 16.168C496.506 16.168 495.862 15.51 495.862 14.474C495.862 13.298 496.786 12.724 498.116 12.584L499.292 12.458V11.87C499.292 10.96 499.012 10.316 497.934 10.316C497.388 10.316 496.982 10.484 496.576 10.694L496.17 9.868C496.758 9.518 497.36 9.294 498.2 9.294C499.516 9.294 500.398 10.064 500.398 11.366V14.488L500.608 15.93ZM499.292 14.642V13.214L498.27 13.354C497.43 13.466 496.968 13.732 496.968 14.334C496.968 14.88 497.304 15.244 497.864 15.244C498.522 15.244 498.928 14.964 499.292 14.642ZM506.882 9.574L506.532 10.582C506.168 10.442 505.762 10.316 505.3 10.316C504.068 10.316 503.326 11.24 503.326 12.626C503.326 14.376 504.012 15.174 505.272 15.174C505.72 15.174 506.084 15.02 506.448 14.866L506.826 15.776C506.28 16.028 505.678 16.154 505.048 16.154C503.172 16.154 502.206 14.81 502.206 12.808C502.206 10.4 503.69 9.294 505.356 9.294C505.93 9.294 506.42 9.392 506.882 9.574ZM512.405 9.574L512.055 10.582C511.691 10.442 511.285 10.316 510.823 10.316C509.591 10.316 508.849 11.24 508.849 12.626C508.849 14.376 509.535 15.174 510.795 15.174C511.243 15.174 511.607 15.02 511.971 14.866L512.349 15.776C511.803 16.028 511.201 16.154 510.571 16.154C508.695 16.154 507.729 14.81 507.729 12.808C507.729 10.4 509.213 9.294 510.879 9.294C511.453 9.294 511.943 9.392 512.405 9.574ZM518.853 12.724C518.853 14.642 517.943 16.154 516.053 16.154C513.981 16.154 513.253 14.684 513.253 12.724C513.253 10.806 514.163 9.294 516.053 9.294C518.125 9.294 518.853 10.764 518.853 12.724ZM517.705 12.752C517.705 11.128 517.159 10.274 516.053 10.274C514.975 10.274 514.401 11.03 514.401 12.682C514.401 14.306 514.947 15.174 516.053 15.174C517.131 15.174 517.705 14.404 517.705 12.752ZM525.798 15.93L524.692 16.112L524.58 15.356H524.566C524.076 15.818 523.432 16.154 522.62 16.154C521.514 16.154 520.632 15.44 520.632 14.096V10.96L520.436 9.518L521.752 9.336V13.704C521.752 14.67 522.116 15.174 522.998 15.174C523.628 15.174 524.076 14.908 524.482 14.53V10.96L524.286 9.518L525.602 9.336V14.488L525.798 15.93ZM532.807 16H531.687V11.744C531.687 10.778 531.323 10.288 530.441 10.288C529.811 10.288 529.363 10.554 528.957 10.918V16H527.837V10.96L527.641 9.518L528.747 9.336L528.859 10.106H528.873C529.363 9.63 530.007 9.294 530.819 9.294C531.925 9.294 532.807 10.008 532.807 11.352V16ZM538.291 15.734C537.885 15.958 537.507 16.14 536.793 16.14C535.785 16.14 535.141 15.482 535.141 14.362V10.358H534.175V9.616L535.141 9.42V8.328L536.247 8.188V9.448H538.081V10.358H536.247V13.984C536.247 14.866 536.471 15.146 537.115 15.146C537.465 15.146 537.731 15.006 537.927 14.88L538.291 15.734Z" fill="#00157E" fill-opacity="0.7"/>
<rect y="28" width="554.667" height="56" rx="8" fill="white"/>
<rect x="0.5" y="28.5" width="553.667" height="55" rx="7.5" stroke="#00157E" stroke-opacity="0.2"/>
<path d="M28 52C29.6569 52 31 50.6569 31 49C31 47.3431 29.6569 46 28 46C26.3431 46 25 47.3431 25 49C25 50.6569 26.3431 52 28 52Z" stroke="#00157E" stroke-width="2" stroke-linecap="round" stroke-linejoin="round"/>
<path d="M28 66V52" stroke="#00157E" stroke-width="2" stroke-linecap="round" stroke-linejoin="round"/>
<path d="M21 56H18C18 58.6522 19.0536 61.1957 20.9289 63.0711C22.8043 64.9464 25.3478 66 28 66C30.6522 66 33.1957 64.9464 35.0711 63.0711C36.9464 61.1957 38 58.6522 38 56H35" stroke="#00157E" stroke-width="2" stroke-linecap="round" stroke-linejoin="round"/>
<path d="M61.726 49.634C61.726 51.104 60.704 52.154 59.01 52.154C58.142 52.154 57.372 51.972 56.714 51.692L57.078 50.67C57.624 50.922 58.268 51.132 58.926 51.132C59.948 51.132 60.606 50.74 60.606 49.816C60.606 49.13 60.102 48.794 59.43 48.472L58.114 47.842C57.232 47.422 56.63 46.876 56.63 45.686C56.63 44.244 57.89 43.418 59.346 43.418C60.13 43.418 60.634 43.544 61.362 43.81L60.97 44.804C60.522 44.594 60.032 44.398 59.416 44.398C58.548 44.398 57.764 44.748 57.764 45.644C57.764 46.246 58.128 46.54 58.688 46.806L60.032 47.464C61.096 47.982 61.726 48.556 61.726 49.634ZM67.7207 51.93L66.6007 52.112L66.5027 51.342H66.4887C66.0127 51.79 65.4947 52.168 64.7107 52.168C63.6187 52.168 62.9747 51.51 62.9747 50.474C62.9747 49.298 63.8987 48.724 65.2287 48.584L66.4047 48.458V47.87C66.4047 46.96 66.1247 46.316 65.0467 46.316C64.5007 46.316 64.0947 46.484 63.6887 46.694L63.2827 45.868C63.8707 45.518 64.4727 45.294 65.3127 45.294C66.6287 45.294 67.5107 46.064 67.5107 47.366V50.488L67.7207 51.93ZM66.4047 50.642V49.214L65.3827 49.354C64.5427 49.466 64.0807 49.732 64.0807 50.334C64.0807 50.88 64.4167 51.244 64.9767 51.244C65.6347 51.244 66.0407 50.964 66.4047 50.642ZM74.3901 45.448L72.0241 51.986L70.9181 52.028L68.7621 45.546L69.8821 45.266L71.5201 50.544H71.5341L73.2701 45.448H74.3901ZM76.9301 52H75.8101V46.96L75.6141 45.518L76.9301 45.336V52ZM77.1541 43.74C77.1541 44.188 76.8041 44.524 76.3841 44.524C75.9501 44.524 75.5861 44.188 75.5861 43.74C75.5861 43.292 75.9501 42.942 76.3841 42.942C76.8041 42.942 77.1541 43.292 77.1541 43.74ZM84.1427 52H83.0227V47.744C83.0227 46.778 82.6587 46.288 81.7767 46.288C81.1467 46.288 80.6987 46.554 80.2927 46.918V52H79.1727V46.96L78.9767 45.518L80.0827 45.336L80.1947 46.106H80.2087C80.6987 45.63 81.3427 45.294 82.1547 45.294C83.2607 45.294 84.1427 46.008 84.1427 47.352V52ZM91.6985 46.274H90.3825C90.5785 46.61 90.6905 47.002 90.6905 47.478C90.6905 48.808 89.7245 49.704 88.3805 49.704C88.1145 49.704 87.8625 49.662 87.6385 49.606C87.6385 49.606 87.1905 49.858 87.1905 50.362C87.1905 50.796 87.5125 50.88 87.9605 50.88H89.8365C90.9845 50.88 91.6565 51.23 91.6565 52.252C91.6565 53.54 90.3405 54.996 87.9465 54.996C86.5745 54.996 85.7345 54.324 85.7345 53.176C85.7345 52.098 86.6165 51.566 86.6165 51.566C86.3365 51.384 86.1545 51.104 86.1545 50.642C86.1545 49.83 86.8545 49.424 86.9945 49.354C86.3785 48.976 86.0425 48.332 86.0425 47.478C86.0425 46.148 87.0225 45.266 88.3805 45.266C88.8845 45.266 89.3465 45.378 89.7105 45.602L91.6985 45.294V46.274ZM90.6765 52.42C90.6765 51.944 90.2705 51.846 89.5845 51.846H87.8205C87.6245 51.846 87.4425 51.832 87.2605 51.804C87.2605 51.804 86.7285 52.224 86.7285 52.924C86.7285 53.68 87.1905 54.086 88.1985 54.086C89.8085 54.086 90.6765 53.134 90.6765 52.42ZM89.6405 47.478C89.6405 46.568 89.1365 46.106 88.3805 46.106C87.6525 46.106 87.0925 46.596 87.0925 47.478C87.0925 48.402 87.6105 48.864 88.3805 48.864C89.0945 48.864 89.6405 48.374 89.6405 47.478ZM96.9804 50.096C96.9804 51.286 96.0424 52.14 94.6424 52.14C93.9704 52.14 93.2984 52.042 92.7664 51.79L93.1024 50.81C93.5644 51.02 94.0824 51.188 94.5864 51.188C95.3424 51.188 95.8464 50.894 95.8464 50.278C95.8464 49.802 95.5944 49.606 95.1604 49.41L93.9424 48.85C93.5084 48.654 92.7244 48.262 92.7244 47.128C92.7244 45.882 93.8164 45.294 95.0064 45.294C95.7204 45.294 96.2244 45.406 96.7844 45.644L96.4064 46.61C95.9584 46.414 95.5244 46.274 94.9924 46.274C94.2784 46.274 93.8164 46.498 93.8164 47.058C93.8164 47.548 94.2364 47.744 94.5024 47.87L95.7484 48.458C96.6164 48.864 96.9804 49.382 96.9804 50.096ZM105.988 51.93L104.868 52.112L104.77 51.342H104.756C104.28 51.79 103.762 52.168 102.978 52.168C101.886 52.168 101.242 51.51 101.242 50.474C101.242 49.298 102.166 48.724 103.496 48.584L104.672 48.458V47.87C104.672 46.96 104.392 46.316 103.314 46.316C102.768 46.316 102.362 46.484 101.956 46.694L101.55 45.868C102.138 45.518 102.74 45.294 103.58 45.294C104.896 45.294 105.778 46.064 105.778 47.366V50.488L105.988 51.93ZM104.672 50.642V49.214L103.65 49.354C102.81 49.466 102.348 49.732 102.348 50.334C102.348 50.88 102.684 51.244 103.244 51.244C103.902 51.244 104.308 50.964 104.672 50.642ZM112.262 45.574L111.912 46.582C111.548 46.442 111.142 46.316 110.68 46.316C109.448 46.316 108.706 47.24 108.706 48.626C108.706 50.376 109.392 51.174 110.652 51.174C111.1 51.174 111.464 51.02 111.828 50.866L112.206 51.776C111.66 52.028 111.058 52.154 110.428 52.154C108.552 52.154 107.586 50.81 107.586 48.808C107.586 46.4 109.07 45.294 110.736 45.294C111.31 45.294 111.8 45.392 112.262 45.574ZM117.786 45.574L117.436 46.582C117.072 46.442 116.666 46.316 116.204 46.316C114.972 46.316 114.23 47.24 114.23 48.626C114.23 50.376 114.916 51.174 116.176 51.174C116.624 51.174 116.988 51.02 117.352 50.866L117.73 51.776C117.184 52.028 116.582 52.154 115.952 52.154C114.076 52.154 113.11 50.81 113.11 48.808C113.11 46.4 114.594 45.294 116.26 45.294C116.834 45.294 117.324 45.392 117.786 45.574ZM124.233 48.724C124.233 50.642 123.323 52.154 121.433 52.154C119.361 52.154 118.633 50.684 118.633 48.724C118.633 46.806 119.543 45.294 121.433 45.294C123.505 45.294 124.233 46.764 124.233 48.724ZM123.085 48.752C123.085 47.128 122.539 46.274 121.433 46.274C120.355 46.274 119.781 47.03 119.781 48.682C119.781 50.306 120.327 51.174 121.433 51.174C122.511 51.174 123.085 50.404 123.085 48.752ZM131.179 51.93L130.073 52.112L129.961 51.356H129.947C129.457 51.818 128.813 52.154 128.001 52.154C126.895 52.154 126.013 51.44 126.013 50.096V46.96L125.817 45.518L127.133 45.336V49.704C127.133 50.67 127.497 51.174 128.379 51.174C129.009 51.174 129.457 50.908 129.863 50.53V46.96L129.667 45.518L130.983 45.336V50.488L131.179 51.93ZM138.188 52H137.068V47.744C137.068 46.778 136.704 46.288 135.822 46.288C135.192 46.288 134.744 46.554 134.338 46.918V52H133.218V46.96L133.022 45.518L134.128 45.336L134.24 46.106H134.254C134.744 45.63 135.388 45.294 136.2 45.294C137.306 45.294 138.188 46.008 138.188 47.352V52ZM143.671 51.734C143.265 51.958 142.887 52.14 142.173 52.14C141.165 52.14 140.521 51.482 140.521 50.362V46.358H139.555V45.616L140.521 45.42V44.328L141.627 44.188V45.448H143.461V46.358H141.627V49.984C141.627 50.866 141.851 51.146 142.495 51.146C142.845 51.146 143.111 51.006 143.307 50.88L143.671 51.734Z" fill="#00157E"/>
<path d="M61.964 66.628C61.292 66.976 60.608 67.132 59.696 67.132C57.932 67.132 56.576 65.944 56.576 63.544C56.576 60.988 58.088 59.644 60.032 59.644C60.836 59.644 61.328 59.764 61.94 60.028L61.556 60.904C61.1 60.7 60.668 60.544 60.02 60.544C58.76 60.544 57.608 61.516 57.608 63.292C57.608 65.272 58.34 66.244 60.092 66.244C60.668 66.244 61.196 66.016 61.628 65.824L61.964 66.628ZM68.4867 67H67.4787V63.7H64.2267V67H63.2187V59.776H64.2267V62.848H67.4787V59.776H68.4867V67ZM73.9043 66.52C73.9043 67.96 72.9803 68.872 71.3963 68.872C70.9283 68.872 70.4363 68.788 69.9923 68.68L70.2083 67.78C70.6043 67.9 70.9403 67.996 71.4203 67.996C72.3683 67.996 72.9443 67.528 72.9443 66.664C72.9443 65.488 71.8643 65.032 70.3403 65.032V64.348C72.1163 64.24 72.6083 63.448 72.6083 62.668C72.6083 61.984 72.1883 61.6 71.5163 61.6C70.9643 61.6 70.6403 61.78 70.2803 62.02L69.8843 61.36C70.3163 61.024 70.8683 60.748 71.7083 60.748C72.8603 60.748 73.5683 61.432 73.5683 62.548C73.5683 63.52 73.0043 64.168 72.2003 64.552V64.564C73.3763 64.816 73.9043 65.596 73.9043 66.52ZM78.9696 65.92C78.9696 68.224 76.7976 68.872 75.2496 68.992L75.1296 68.176C76.2216 68.056 77.9856 67.624 77.9856 66.052C77.9856 65.068 77.4336 64.492 75.8976 64.492H75.0936L75.3576 60.88H78.7776V61.756H76.1856L76.0296 63.772C76.0296 63.772 76.3056 63.748 76.5576 63.748C77.9496 63.748 78.9696 64.48 78.9696 65.92ZM87.5593 63.94C87.5593 65.536 86.9353 67.132 85.1233 67.132C83.2993 67.132 82.6753 65.536 82.6753 63.94C82.6753 62.344 83.2993 60.748 85.1233 60.748C86.9353 60.748 87.5593 62.344 87.5593 63.94ZM86.5753 63.94C86.5753 62.596 86.1313 61.588 85.1233 61.588C84.1033 61.588 83.6593 62.596 83.6593 63.94C83.6593 65.284 84.1033 66.292 85.1233 66.292C86.1313 66.292 86.5753 65.284 86.5753 63.94ZM93.1231 63.844C93.1231 67.156 91.4431 68.704 89.0551 68.992L88.8631 68.212C90.3751 68.032 91.8991 67.06 92.1151 64.768L92.1031 64.756C92.1031 64.756 91.5391 65.236 90.6871 65.236C89.4871 65.236 88.7071 64.336 88.7071 63.1C88.7071 61.6 89.6071 60.748 90.9631 60.748C92.3551 60.748 93.1231 61.708 93.1231 63.844ZM92.1271 63.832C92.1271 62.644 91.9111 61.564 90.8431 61.564C90.0871 61.564 89.6431 62.188 89.6431 62.968C89.6431 63.964 90.0991 64.444 90.9511 64.444C91.6831 64.444 92.1271 64.012 92.1271 64.012V63.832ZM99.3484 63.94C99.3484 65.536 98.7244 67.132 96.9124 67.132C95.0884 67.132 94.4644 65.536 94.4644 63.94C94.4644 62.344 95.0884 60.748 96.9124 60.748C98.7244 60.748 99.3484 62.344 99.3484 63.94ZM98.3644 63.94C98.3644 62.596 97.9204 61.588 96.9124 61.588C95.8924 61.588 95.4484 62.596 95.4484 63.94C95.4484 65.284 95.8924 66.292 96.9124 66.292C97.9204 66.292 98.3644 65.284 98.3644 63.94ZM105.524 63.94C105.524 65.536 104.9 67.132 103.088 67.132C101.264 67.132 100.64 65.536 100.64 63.94C100.64 62.344 101.264 60.748 103.088 60.748C104.9 60.748 105.524 62.344 105.524 63.94ZM104.54 63.94C104.54 62.596 104.096 61.588 103.088 61.588C102.068 61.588 101.624 62.596 101.624 63.94C101.624 65.284 102.068 66.292 103.088 66.292C104.096 66.292 104.54 65.284 104.54 63.94ZM114.22 63.94C114.22 65.536 113.596 67.132 111.784 67.132C109.96 67.132 109.336 65.536 109.336 63.94C109.336 62.344 109.96 60.748 111.784 60.748C113.596 60.748 114.22 62.344 114.22 63.94ZM113.236 63.94C113.236 62.596 112.792 61.588 111.784 61.588C110.764 61.588 110.32 62.596 110.32 63.94C110.32 65.284 110.764 66.292 111.784 66.292C112.792 66.292 113.236 65.284 113.236 63.94ZM120.395 63.94C120.395 65.536 119.771 67.132 117.959 67.132C116.135 67.132 115.511 65.536 115.511 63.94C115.511 62.344 116.135 60.748 117.959 60.748C119.771 60.748 120.395 62.344 120.395 63.94ZM119.411 63.94C119.411 62.596 118.967 61.588 117.959 61.588C116.939 61.588 116.495 62.596 116.495 63.94C116.495 65.284 116.939 66.292 117.959 66.292C118.967 66.292 119.411 65.284 119.411 63.94ZM126.571 63.94C126.571 65.536 125.947 67.132 124.135 67.132C122.311 67.132 121.687 65.536 121.687 63.94C121.687 62.344 122.311 60.748 124.135 60.748C125.947 60.748 126.571 62.344 126.571 63.94ZM125.587 63.94C125.587 62.596 125.143 61.588 124.135 61.588C123.115 61.588 122.671 62.596 122.671 63.94C122.671 65.284 123.115 66.292 124.135 66.292C125.143 66.292 125.587 65.284 125.587 63.94ZM132.747 63.94C132.747 65.536 132.123 67.132 130.311 67.132C128.487 67.132 127.863 65.536 127.863 63.94C127.863 62.344 128.487 60.748 130.311 60.748C132.123 60.748 132.747 62.344 132.747 63.94ZM131.763 63.94C131.763 62.596 131.319 61.588 130.311 61.588C129.291 61.588 128.847 62.596 128.847 63.94C128.847 65.284 129.291 66.292 130.311 66.292C131.319 66.292 131.763 65.284 131.763 63.94ZM140.842 67H136.39V66.376L138.442 64.408C138.994 63.868 139.414 63.472 139.414 62.812C139.414 62.116 138.982 61.6 138.178 61.6C137.638 61.6 137.254 61.84 136.966 62.08L136.51 61.444C137.026 61.012 137.554 60.748 138.382 60.748C139.57 60.748 140.386 61.444 140.386 62.704C140.386 63.544 139.882 64.18 139.306 64.708L137.77 66.124V66.136H140.842V67ZM147.36 66.244H145.908V68.692L144.984 68.848V66.244H141.684V65.464L145.02 60.88H145.908V65.428H147.36V66.244ZM144.984 65.428V62.176H144.972L142.668 65.428H144.984ZM151.969 61.696L148.537 68.98L147.733 68.572L150.925 61.756H147.661V60.88H151.969V61.696ZM157.708 63.94C157.708 65.536 157.084 67.132 155.272 67.132C153.448 67.132 152.824 65.536 152.824 63.94C152.824 62.344 153.448 60.748 155.272 60.748C157.084 60.748 157.708 62.344 157.708 63.94ZM156.724 63.94C156.724 62.596 156.28 61.588 155.272 61.588C154.252 61.588 153.808 62.596 153.808 63.94C153.808 65.284 154.252 66.292 155.272 66.292C156.28 66.292 156.724 65.284 156.724 63.94ZM165.803 67H161.351V66.376L163.403 64.408C163.955 63.868 164.375 63.472 164.375 62.812C164.375 62.116 163.943 61.6 163.139 61.6C162.599 61.6 162.215 61.84 161.927 62.08L161.471 61.444C161.987 61.012 162.515 60.748 163.343 60.748C164.531 60.748 165.347 61.444 165.347 62.704C165.347 63.544 164.843 64.18 164.267 64.708L162.731 66.124V66.136H165.803V67ZM171.088 63.844C171.088 67.156 169.408 68.704 167.02 68.992L166.828 68.212C168.34 68.032 169.864 67.06 170.08 64.768L170.068 64.756C170.068 64.756 169.504 65.236 168.652 65.236C167.452 65.236 166.672 64.336 166.672 63.1C166.672 61.6 167.572 60.748 168.928 60.748C170.32 60.748 171.088 61.708 171.088 63.844ZM170.092 63.832C170.092 62.644 169.876 61.564 168.808 61.564C168.052 61.564 167.608 62.188 167.608 62.968C167.608 63.964 168.064 64.444 168.916 64.444C169.648 64.444 170.092 64.012 170.092 64.012V63.832ZM176.713 67H172.261V66.376L174.313 64.408C174.865 63.868 175.285 63.472 175.285 62.812C175.285 62.116 174.853 61.6 174.049 61.6C173.509 61.6 173.125 61.84 172.837 62.08L172.381 61.444C172.897 61.012 173.425 60.748 174.253 60.748C175.441 60.748 176.257 61.444 176.257 62.704C176.257 63.544 175.753 64.18 175.177 64.708L173.641 66.124V66.136H176.713V67ZM182.61 63.94C182.61 65.536 181.986 67.132 180.174 67.132C178.35 67.132 177.726 65.536 177.726 63.94C177.726 62.344 178.35 60.748 180.174 60.748C181.986 60.748 182.61 62.344 182.61 63.94ZM181.626 63.94C181.626 62.596 181.182 61.588 180.174 61.588C179.154 61.588 178.71 62.596 178.71 63.94C178.71 65.284 179.154 66.292 180.174 66.292C181.182 66.292 181.626 65.284 181.626 63.94ZM190.705 67H186.253V66.376L188.305 64.408C188.857 63.868 189.277 63.472 189.277 62.812C189.277 62.116 188.845 61.6 188.041 61.6C187.501 61.6 187.117 61.84 186.829 62.08L186.373 61.444C186.889 61.012 187.417 60.748 188.245 60.748C189.433 60.748 190.249 61.444 190.249 62.704C190.249 63.544 189.745 64.18 189.169 64.708L187.633 66.124V66.136H190.705V67Z" fill="#00157E" fill-opacity="0.7"/>
<path d="M460.099 48.072C460.099 50.136 458.935 51.156 457.375 51.156C455.707 51.156 454.639 50.316 454.639 48.048V43.776H455.671V48.096C455.671 49.524 456.223 50.196 457.339 50.196C458.455 50.196 459.139 49.512 459.139 48.12V43.776H460.099V48.072ZM465.981 48.972C465.981 50.232 465.105 51.132 463.653 51.132C462.909 51.132 462.249 50.976 461.685 50.736L461.997 49.86C462.465 50.076 463.017 50.256 463.581 50.256C464.457 50.256 465.021 49.92 465.021 49.128C465.021 48.54 464.589 48.252 464.013 47.976L462.885 47.436C462.129 47.076 461.613 46.608 461.613 45.588C461.613 44.352 462.693 43.644 463.941 43.644C464.613 43.644 465.045 43.752 465.669 43.98L465.333 44.832C464.949 44.652 464.529 44.484 464.001 44.484C463.257 44.484 462.585 44.784 462.585 45.552C462.585 46.068 462.897 46.32 463.377 46.548L464.529 47.112C465.441 47.556 465.981 48.048 465.981 48.972ZM473.135 46.932C473.135 49.572 471.551 51 468.983 51H467.471V43.824C467.471 43.824 468.467 43.704 469.535 43.704C471.767 43.704 473.135 44.868 473.135 46.932ZM472.091 47.076C472.091 45.372 470.939 44.556 469.367 44.556C468.863 44.556 468.479 44.58 468.479 44.58V50.1H469.175C470.891 50.1 472.091 49.08 472.091 47.076Z" fill="#00157E" fill-opacity="0.7"/>
<path d="M489.15 52H483.704V50.922L485.93 48.864C486.448 48.388 486.798 48.038 486.798 47.38C486.798 46.736 486.392 46.302 485.748 46.302C485.146 46.302 484.768 46.54 484.46 46.778L483.676 45.602C484.32 45.042 485.062 44.692 486.112 44.692C487.596 44.692 488.618 45.56 488.618 47.086C488.618 48.024 488.072 48.752 487.484 49.284L486.266 50.376V50.39H489.15V52ZM495.088 50.558C495.088 53.064 492.946 54.044 490.44 54.338L490.174 52.826C491.35 52.644 493.268 52.238 493.268 50.74C493.268 49.802 492.582 49.34 491 49.34H490.174L490.44 44.86H494.836V46.456H491.91L491.812 48.108C491.812 48.108 492.078 48.094 492.358 48.094C494.066 48.094 495.088 48.934 495.088 50.558ZM498.359 44.594C498.359 46.022 497.785 46.82 496.749 47.562L496.245 47.016C496.735 46.596 497.057 46.148 497.169 45.532C496.651 45.476 496.231 45.014 496.231 44.482C496.231 43.908 496.707 43.432 497.281 43.432C497.883 43.432 498.359 43.88 498.359 44.594ZM505.641 48.43C505.641 50.39 504.787 52.168 502.631 52.168C500.475 52.168 499.621 50.39 499.621 48.43C499.621 46.47 500.475 44.692 502.631 44.692C504.787 44.692 505.641 46.47 505.641 48.43ZM503.849 48.43C503.849 47.086 503.471 46.274 502.631 46.274C501.805 46.274 501.413 47.086 501.413 48.43C501.413 49.774 501.805 50.586 502.631 50.586C503.471 50.586 503.849 49.774 503.849 48.43ZM512.887 48.43C512.887 50.39 512.033 52.168 509.877 52.168C507.721 52.168 506.867 50.39 506.867 48.43C506.867 46.47 507.721 44.692 509.877 44.692C512.033 44.692 512.887 46.47 512.887 48.43ZM511.095 48.43C511.095 47.086 510.717 46.274 509.877 46.274C509.051 46.274 508.659 47.086 508.659 48.43C508.659 49.774 509.051 50.586 509.877 50.586C510.717 50.586 511.095 49.774 511.095 48.43ZM520.133 48.43C520.133 50.39 519.279 52.168 517.123 52.168C514.967 52.168 514.113 50.39 514.113 48.43C514.113 46.47 514.967 44.692 517.123 44.692C519.279 44.692 520.133 46.47 520.133 48.43ZM518.341 48.43C518.341 47.086 517.963 46.274 517.123 46.274C516.297 46.274 515.905 47.086 515.905 48.43C515.905 49.774 516.297 50.586 517.123 50.586C517.963 50.586 518.341 49.774 518.341 48.43ZM523.529 51.048C523.529 51.636 523.053 52.112 522.465 52.112C521.877 52.112 521.401 51.636 521.401 51.048C521.401 50.474 521.877 49.998 522.465 49.998C523.053 49.998 523.529 50.474 523.529 51.048ZM530.81 48.43C530.81 50.39 529.956 52.168 527.8 52.168C525.644 52.168 524.79 50.39 524.79 48.43C524.79 46.47 525.644 44.692 527.8 44.692C529.956 44.692 530.81 46.47 530.81 48.43ZM529.018 48.43C529.018 47.086 528.64 46.274 527.8 46.274C526.974 46.274 526.582 47.086 526.582 48.43C526.582 49.774 526.974 50.586 527.8 50.586C528.64 50.586 529.018 49.774 529.018 48.43ZM538.057 48.43C538.057 50.39 537.203 52.168 535.047 52.168C532.891 52.168 532.037 50.39 532.037 48.43C532.037 46.47 532.891 44.692 535.047 44.692C537.203 44.692 538.057 46.47 538.057 48.43ZM536.265 48.43C536.265 47.086 535.887 46.274 535.047 46.274C534.221 46.274 533.829 47.086 533.829 48.43C533.829 49.774 534.221 50.586 535.047 50.586C535.887 50.586 536.265 49.774 536.265 48.43Z" fill="#00157E"/>
<path d="M209.333 110L203.333 104L209.333 98" stroke="#00157E" stroke-opacity="0.4" stroke-width="2" stroke-linecap="round" stroke-linejoin="round"/>
<circle cx="263.333" cy="104" r="3" fill="#00157E"/>
<circle cx="277.333" cy="104" r="3" fill="#00157E" fill-opacity="0.4"/>
<circle cx="291.333" cy="104" r="3" fill="#00157E" fill-opacity="0.4"/>
<path d="M345.333 110L351.333 104L345.333 98" stroke="#00157E" stroke-width="2" stroke-linecap="round" stroke-linejoin="round"/>
</svg>
