<svg width="24" height="24" viewBox="0 0 24 24" fill="none" xmlns="http://www.w3.org/2000/svg">
<path d="M12.001 1C9.82526 0.999814 7.69841 1.64482 5.88932 2.85344C4.08024 4.06207 2.67019 5.78002 1.83752 7.79005C1.00484 9.80009 0.786918 12.0119 1.21131 14.1458C1.63573 16.2797 2.6834 18.2397 4.22184 19.7782C5.76025 21.3166 7.72037 22.3643 9.85423 22.7887C11.9881 23.2131 14.1999 22.9952 16.2099 22.1625C18.22 21.3298 19.9379 19.9198 21.1466 18.1107C22.3552 16.3016 23.0002 14.1747 23 11.9991C22.997 9.08282 21.8372 6.28694 19.7752 4.22485C17.7131 2.16278 14.9172 1.00299 12.001 1ZM12.001 3.25853C13.4685 3.25777 14.9126 3.62674 16.2 4.3314C17.4873 5.03604 18.5764 6.05367 19.3666 7.2903C20.1569 8.52692 20.6229 9.94272 20.7215 11.407C20.8202 12.8712 20.5484 14.3368 19.9312 15.6683H4.06973C3.45251 14.3367 3.18068 12.8711 3.27942 11.4067C3.37813 9.94241 3.8442 8.52658 4.63454 7.28992C5.42493 6.05325 6.51413 5.03566 7.8016 4.33106C9.08904 3.62647 10.5333 3.25761 12.001 3.25853Z" fill="#00157E"/>
</svg>
