<svg width="420" height="56" viewBox="0 0 420 56" fill="none" xmlns="http://www.w3.org/2000/svg">
<mask id="path-1-inside-1_276_338917" fill="white">
<path d="M0 8C0 3.58172 3.58172 0 8 0H412C416.418 0 420 3.58172 420 8V56H0V8Z"/>
</mask>
<path d="M0 8C0 3.58172 3.58172 0 8 0H412C416.418 0 420 3.58172 420 8V56H0V8Z" fill="white"/>
<path d="M0 8C0 3.02944 4.02944 -1 9 -1H411C415.971 -1 420 3.02944 420 8C420 4.13401 416.418 1 412 1H8C3.58172 1 0 4.13401 0 8ZM0 8M420 56H0H420M420 56M0 56V0V56M0 56M420 0V56V0" fill="#00157E" fill-opacity="0.1" mask="url(#path-1-inside-1_276_338917)"/>
<path d="M28 38C28 38 36 34 36 28V21L28 18L20 21V28C20 34 28 38 28 38Z" stroke="#00157E" stroke-width="2" stroke-linecap="round" stroke-linejoin="round"/>
<path d="M63.154 24.36L62.006 24.682L61.11 21.77H58.366L57.512 24.5H56.28L59.206 16.072H60.41L63.154 24.36ZM60.858 20.93L59.766 17.29H59.752L58.618 20.93H60.858ZM68.7582 18.074L68.4082 19.082C68.0442 18.942 67.6382 18.816 67.1762 18.816C65.9442 18.816 65.2022 19.74 65.2022 21.126C65.2022 22.876 65.8882 23.674 67.1482 23.674C67.5962 23.674 67.9602 23.52 68.3242 23.366L68.7022 24.276C68.1562 24.528 67.5542 24.654 66.9242 24.654C65.0482 24.654 64.0822 23.31 64.0822 21.308C64.0822 18.9 65.5662 17.794 67.2322 17.794C67.8062 17.794 68.2962 17.892 68.7582 18.074ZM74.2816 18.074L73.9316 19.082C73.5676 18.942 73.1616 18.816 72.6996 18.816C71.4676 18.816 70.7256 19.74 70.7256 21.126C70.7256 22.876 71.4116 23.674 72.6716 23.674C73.1196 23.674 73.4836 23.52 73.8476 23.366L74.2256 24.276C73.6796 24.528 73.0776 24.654 72.4476 24.654C70.5716 24.654 69.6056 23.31 69.6056 21.308C69.6056 18.9 71.0896 17.794 72.7556 17.794C73.3296 17.794 73.8196 17.892 74.2816 18.074ZM80.729 21.224C80.729 23.142 79.819 24.654 77.929 24.654C75.857 24.654 75.129 23.184 75.129 21.224C75.129 19.306 76.039 17.794 77.929 17.794C80.001 17.794 80.729 19.264 80.729 21.224ZM79.581 21.252C79.581 19.628 79.035 18.774 77.929 18.774C76.851 18.774 76.277 19.53 76.277 21.182C76.277 22.806 76.823 23.674 77.929 23.674C79.007 23.674 79.581 22.904 79.581 21.252ZM87.6747 24.43L86.5687 24.612L86.4567 23.856H86.4427C85.9527 24.318 85.3087 24.654 84.4967 24.654C83.3907 24.654 82.5087 23.94 82.5087 22.596V19.46L82.3127 18.018L83.6287 17.836V22.204C83.6287 23.17 83.9927 23.674 84.8747 23.674C85.5047 23.674 85.9527 23.408 86.3587 23.03V19.46L86.1627 18.018L87.4787 17.836V22.988L87.6747 24.43ZM94.6838 24.5H93.5638V20.244C93.5638 19.278 93.1998 18.788 92.3178 18.788C91.6878 18.788 91.2398 19.054 90.8338 19.418V24.5H89.7138V19.46L89.5177 18.018L90.6238 17.836L90.7358 18.606H90.7498C91.2398 18.13 91.8838 17.794 92.6958 17.794C93.8018 17.794 94.6838 18.508 94.6838 19.852V24.5ZM100.167 24.234C99.7615 24.458 99.3835 24.64 98.6695 24.64C97.6615 24.64 97.0175 23.982 97.0175 22.862V18.858H96.0515V18.116L97.0175 17.92V16.828L98.1235 16.688V17.948H99.9575V18.858H98.1235V22.484C98.1235 23.366 98.3475 23.646 98.9915 23.646C99.3415 23.646 99.6075 23.506 99.8035 23.38L100.167 24.234ZM105.457 22.596C105.457 23.786 104.519 24.64 103.119 24.64C102.447 24.64 101.775 24.542 101.243 24.29L101.579 23.31C102.041 23.52 102.559 23.688 103.063 23.688C103.819 23.688 104.323 23.394 104.323 22.778C104.323 22.302 104.071 22.106 103.637 21.91L102.419 21.35C101.985 21.154 101.201 20.762 101.201 19.628C101.201 18.382 102.293 17.794 103.483 17.794C104.197 17.794 104.701 17.906 105.261 18.144L104.883 19.11C104.435 18.914 104.001 18.774 103.469 18.774C102.755 18.774 102.293 18.998 102.293 19.558C102.293 20.048 102.713 20.244 102.979 20.37L104.225 20.958C105.093 21.364 105.457 21.882 105.457 22.596Z" fill="#00157E"/>
<path d="M61.16 34.064C61.16 35.756 59.78 36.608 58.172 36.608H57.992V39.5H56.996V32.336C56.996 32.336 57.896 32.204 58.844 32.204C60.248 32.204 61.16 32.876 61.16 34.064ZM60.176 34.244C60.176 33.356 59.588 32.96 58.676 32.96C58.292 32.96 57.992 33.008 57.992 33.008V35.84H58.148C59.216 35.84 60.176 35.36 60.176 34.244ZM64.9761 34.712C64.3281 34.712 63.8481 34.88 63.4161 35.276V39.5H62.4561V35.18L62.2881 33.944L63.2361 33.788L63.3321 34.556H63.3441C63.7281 34.124 64.2321 33.764 64.9761 33.764V34.712ZM67.1315 39.5H66.1715V35.18L66.0035 33.944L67.1315 33.788V39.5ZM67.3235 32.42C67.3235 32.804 67.0235 33.092 66.6635 33.092C66.2915 33.092 65.9795 32.804 65.9795 32.42C65.9795 32.036 66.2915 31.736 66.6635 31.736C67.0235 31.736 67.3235 32.036 67.3235 32.42ZM73.1458 33.884L71.1178 39.488L70.1698 39.524L68.3218 33.968L69.2818 33.728L70.6858 38.252H70.6978L72.1858 33.884H73.1458ZM77.894 39.44L76.934 39.596L76.85 38.936H76.838C76.43 39.32 75.986 39.644 75.314 39.644C74.378 39.644 73.826 39.08 73.826 38.192C73.826 37.184 74.618 36.692 75.758 36.572L76.766 36.464V35.96C76.766 35.18 76.526 34.628 75.602 34.628C75.134 34.628 74.786 34.772 74.438 34.952L74.09 34.244C74.594 33.944 75.11 33.752 75.83 33.752C76.958 33.752 77.714 34.412 77.714 35.528V38.204L77.894 39.44ZM76.766 38.336V37.112L75.89 37.232C75.17 37.328 74.774 37.556 74.774 38.072C74.774 38.54 75.062 38.852 75.542 38.852C76.106 38.852 76.454 38.612 76.766 38.336ZM82.4555 39.272C82.1075 39.464 81.7835 39.62 81.1715 39.62C80.3075 39.62 79.7555 39.056 79.7555 38.096V34.664H78.9275V34.028L79.7555 33.86V32.924L80.7035 32.804V33.884H82.2755V34.664H80.7035V37.772C80.7035 38.528 80.8955 38.768 81.4475 38.768C81.7475 38.768 81.9755 38.648 82.1435 38.54L82.4555 39.272ZM87.4733 39.2C86.9333 39.5 86.3813 39.632 85.6973 39.632C84.0413 39.632 83.1893 38.516 83.1893 36.656C83.1893 34.916 84.1013 33.752 85.5173 33.752C86.8733 33.752 87.4253 34.652 87.4253 35.888V36.56H84.1253C84.1373 38.06 84.6773 38.78 85.9013 38.78C86.3693 38.78 86.7293 38.648 87.1373 38.444L87.4733 39.2ZM86.5253 35.888C86.5253 35.048 86.2133 34.52 85.4693 34.52C84.7493 34.52 84.2933 35.084 84.1733 35.888H86.5253ZM97.7488 39.02L97.2088 39.704L95.6608 38.468C95.1568 39.176 94.4008 39.644 93.2728 39.644C92.0728 39.644 91.2568 38.972 91.2568 37.856C91.2568 36.932 91.7368 36.428 92.4568 35.816C91.9168 35.288 91.5928 34.76 91.5928 34.016C91.5928 32.828 92.3968 32.156 93.4288 32.156C94.3048 32.156 94.9408 32.732 94.9408 33.644C94.9408 34.628 94.4968 35.084 93.6808 35.744L95.4688 37.196C95.6488 36.68 95.6848 36.272 95.7328 35.504H97.7008V36.26H96.4168C96.3928 36.752 96.2608 37.244 96.0928 37.688L97.7488 39.02ZM95.0608 37.988L93.1408 36.404C93.0808 36.356 92.9968 36.296 92.9968 36.296C92.5528 36.632 92.1448 37.088 92.1448 37.676C92.1448 38.384 92.6488 38.876 93.4168 38.876C94.1848 38.876 94.7008 38.492 95.0608 37.988ZM94.1248 33.74C94.1248 33.272 93.8488 32.888 93.3448 32.888C92.7928 32.888 92.4328 33.248 92.4328 33.944C92.4328 34.436 92.5888 34.808 93.1408 35.324C93.7768 34.82 94.1248 34.46 94.1248 33.74ZM104.978 37.868C104.978 38.888 104.174 39.62 102.974 39.62C102.398 39.62 101.822 39.536 101.366 39.32L101.654 38.48C102.05 38.66 102.494 38.804 102.926 38.804C103.574 38.804 104.006 38.552 104.006 38.024C104.006 37.616 103.79 37.448 103.418 37.28L102.374 36.8C102.002 36.632 101.33 36.296 101.33 35.324C101.33 34.256 102.266 33.752 103.286 33.752C103.898 33.752 104.33 33.848 104.81 34.052L104.486 34.88C104.102 34.712 103.73 34.592 103.274 34.592C102.662 34.592 102.266 34.784 102.266 35.264C102.266 35.684 102.626 35.852 102.854 35.96L103.922 36.464C104.666 36.812 104.978 37.256 104.978 37.868ZM110.179 39.44L109.219 39.596L109.135 38.936H109.123C108.715 39.32 108.271 39.644 107.599 39.644C106.663 39.644 106.111 39.08 106.111 38.192C106.111 37.184 106.903 36.692 108.043 36.572L109.051 36.464V35.96C109.051 35.18 108.811 34.628 107.887 34.628C107.419 34.628 107.071 34.772 106.723 34.952L106.375 34.244C106.879 33.944 107.395 33.752 108.115 33.752C109.243 33.752 109.999 34.412 109.999 35.528V38.204L110.179 39.44ZM109.051 38.336V37.112L108.175 37.232C107.455 37.328 107.059 37.556 107.059 38.072C107.059 38.54 107.347 38.852 107.827 38.852C108.391 38.852 108.739 38.612 109.051 38.336ZM115.896 33.884L113.868 39.488L112.92 39.524L111.072 33.968L112.032 33.728L113.436 38.252H113.448L114.936 33.884H115.896ZM118.073 39.5H117.113V35.18L116.945 33.944L118.073 33.788V39.5ZM118.265 32.42C118.265 32.804 117.965 33.092 117.605 33.092C117.233 33.092 116.921 32.804 116.921 32.42C116.921 32.036 117.233 31.736 117.605 31.736C117.965 31.736 118.265 32.036 118.265 32.42ZM124.255 39.5H123.295V35.852C123.295 35.024 122.983 34.604 122.227 34.604C121.687 34.604 121.303 34.832 120.955 35.144V39.5H119.995V35.18L119.827 33.944L120.775 33.788L120.871 34.448H120.883C121.303 34.04 121.855 33.752 122.551 33.752C123.499 33.752 124.255 34.364 124.255 35.516V39.5ZM130.732 34.592H129.604C129.772 34.88 129.868 35.216 129.868 35.624C129.868 36.764 129.04 37.532 127.888 37.532C127.66 37.532 127.444 37.496 127.252 37.448C127.252 37.448 126.868 37.664 126.868 38.096C126.868 38.468 127.144 38.54 127.528 38.54H129.136C130.12 38.54 130.696 38.84 130.696 39.716C130.696 40.82 129.568 42.068 127.516 42.068C126.34 42.068 125.62 41.492 125.62 40.508C125.62 39.584 126.376 39.128 126.376 39.128C126.136 38.972 125.979 38.732 125.979 38.336C125.979 37.64 126.58 37.292 126.7 37.232C126.172 36.908 125.884 36.356 125.884 35.624C125.884 34.484 126.724 33.728 127.888 33.728C128.32 33.728 128.715 33.824 129.028 34.016L130.732 33.752V34.592ZM129.856 39.86C129.856 39.452 129.508 39.368 128.92 39.368H127.408C127.24 39.368 127.084 39.356 126.928 39.332C126.928 39.332 126.472 39.692 126.472 40.292C126.472 40.94 126.868 41.288 127.732 41.288C129.112 41.288 129.856 40.472 129.856 39.86ZM128.968 35.624C128.968 34.844 128.536 34.448 127.888 34.448C127.264 34.448 126.784 34.868 126.784 35.624C126.784 36.416 127.228 36.812 127.888 36.812C128.5 36.812 128.968 36.392 128.968 35.624ZM138.21 39.44L137.25 39.596L137.166 38.936H137.154C136.746 39.32 136.302 39.644 135.63 39.644C134.694 39.644 134.142 39.08 134.142 38.192C134.142 37.184 134.934 36.692 136.074 36.572L137.082 36.464V35.96C137.082 35.18 136.842 34.628 135.918 34.628C135.45 34.628 135.102 34.772 134.754 34.952L134.406 34.244C134.91 33.944 135.426 33.752 136.146 33.752C137.274 33.752 138.03 34.412 138.03 35.528V38.204L138.21 39.44ZM137.082 38.336V37.112L136.206 37.232C135.486 37.328 135.09 37.556 135.09 38.072C135.09 38.54 135.378 38.852 135.858 38.852C136.422 38.852 136.77 38.612 137.082 38.336ZM143.588 33.992L143.288 34.856C142.976 34.736 142.628 34.628 142.232 34.628C141.176 34.628 140.54 35.42 140.54 36.608C140.54 38.108 141.128 38.792 142.208 38.792C142.592 38.792 142.904 38.66 143.216 38.528L143.54 39.308C143.072 39.524 142.556 39.632 142.016 39.632C140.408 39.632 139.58 38.48 139.58 36.764C139.58 34.7 140.852 33.752 142.28 33.752C142.772 33.752 143.192 33.836 143.588 33.992ZM148.322 33.992L148.022 34.856C147.71 34.736 147.362 34.628 146.966 34.628C145.91 34.628 145.274 35.42 145.274 36.608C145.274 38.108 145.862 38.792 146.942 38.792C147.326 38.792 147.638 38.66 147.95 38.528L148.274 39.308C147.806 39.524 147.29 39.632 146.75 39.632C145.142 39.632 144.314 38.48 144.314 36.764C144.314 34.7 145.586 33.752 147.014 33.752C147.506 33.752 147.926 33.836 148.322 33.992ZM153.849 36.692C153.849 38.336 153.069 39.632 151.449 39.632C149.673 39.632 149.049 38.372 149.049 36.692C149.049 35.048 149.829 33.752 151.449 33.752C153.225 33.752 153.849 35.012 153.849 36.692ZM152.865 36.716C152.865 35.324 152.397 34.592 151.449 34.592C150.525 34.592 150.033 35.24 150.033 36.656C150.033 38.048 150.501 38.792 151.449 38.792C152.373 38.792 152.865 38.132 152.865 36.716ZM159.802 39.44L158.854 39.596L158.758 38.948H158.746C158.326 39.344 157.774 39.632 157.078 39.632C156.13 39.632 155.374 39.02 155.374 37.868V35.18L155.206 33.944L156.334 33.788V37.532C156.334 38.36 156.646 38.792 157.402 38.792C157.942 38.792 158.326 38.564 158.674 38.24V35.18L158.506 33.944L159.634 33.788V38.204L159.802 39.44ZM165.81 39.5H164.85V35.852C164.85 35.024 164.538 34.604 163.782 34.604C163.242 34.604 162.858 34.832 162.51 35.144V39.5H161.55V35.18L161.382 33.944L162.33 33.788L162.426 34.448H162.438C162.858 34.04 163.41 33.752 164.106 33.752C165.054 33.752 165.81 34.364 165.81 35.516V39.5ZM170.51 39.272C170.162 39.464 169.838 39.62 169.226 39.62C168.362 39.62 167.81 39.056 167.81 38.096V34.664H166.982V34.028L167.81 33.86V32.924L168.758 32.804V33.884H170.33V34.664H168.758V37.772C168.758 38.528 168.95 38.768 169.502 38.768C169.802 38.768 170.03 38.648 170.198 38.54L170.51 39.272ZM175.044 37.868C175.044 38.888 174.24 39.62 173.04 39.62C172.464 39.62 171.888 39.536 171.432 39.32L171.72 38.48C172.116 38.66 172.56 38.804 172.992 38.804C173.64 38.804 174.072 38.552 174.072 38.024C174.072 37.616 173.856 37.448 173.484 37.28L172.44 36.8C172.068 36.632 171.396 36.296 171.396 35.324C171.396 34.256 172.332 33.752 173.352 33.752C173.964 33.752 174.396 33.848 174.876 34.052L174.552 34.88C174.168 34.712 173.796 34.592 173.34 34.592C172.728 34.592 172.332 34.784 172.332 35.264C172.332 35.684 172.692 35.852 172.92 35.96L173.988 36.464C174.732 36.812 175.044 37.256 175.044 37.868Z" fill="#00157E"/>
<path d="M389 34L395 28L389 22" stroke="#00157E" stroke-width="2" stroke-linecap="round" stroke-linejoin="round"/>
</svg>
