<svg width="141" height="24" viewBox="0 0 141 24" fill="none" xmlns="http://www.w3.org/2000/svg">
<path d="M12 1C18.0751 1 23 5.92487 23 12C23 18.0751 18.0751 23 12 23C5.92487 23 1 18.0751 1 12C1 5.92487 5.92487 1 12 1Z" fill="white"/>
<path d="M12 1C18.0751 1 23 5.92487 23 12C23 18.0751 18.0751 23 12 23C5.92487 23 1 18.0751 1 12C1 5.92487 5.92487 1 12 1Z" stroke="#00157E" stroke-width="2"/>
<path d="M0 12C0 5.37258 5.37258 0 12 0V0C18.6274 0 24 5.37258 24 12V12C24 18.6274 18.6274 24 12 24V24C5.37258 24 0 18.6274 0 12V12Z" fill="#00157E" fill-opacity="0.2"/>
<circle cx="12" cy="12" r="7" fill="#00157E"/>
<path d="M46.9719 15.734L45.9359 16.238L43.5699 12.402C43.3599 12.43 43.1639 12.444 42.9539 12.444H42.7439V16H41.5819V7.642C41.5819 7.642 42.6459 7.488 43.7379 7.488C45.3619 7.488 46.3839 8.272 46.3839 9.602C46.3839 10.89 45.6419 11.688 44.6479 12.08L46.9719 15.734ZM45.2499 9.812C45.2499 8.804 44.5499 8.37 43.5419 8.37C43.0939 8.37 42.7439 8.412 42.7439 8.412V11.59H42.9259C44.0599 11.59 45.2499 11.114 45.2499 9.812ZM52.7012 15.93L51.5812 16.112L51.4832 15.342H51.4692C50.9932 15.79 50.4752 16.168 49.6912 16.168C48.5992 16.168 47.9552 15.51 47.9552 14.474C47.9552 13.298 48.8792 12.724 50.2092 12.584L51.3852 12.458V11.87C51.3852 10.96 51.1052 10.316 50.0272 10.316C49.4812 10.316 49.0752 10.484 48.6692 10.694L48.2632 9.868C48.8512 9.518 49.4532 9.294 50.2932 9.294C51.6092 9.294 52.4912 10.064 52.4912 11.366V14.488L52.7012 15.93ZM51.3852 14.642V13.214L50.3632 13.354C49.5232 13.466 49.0612 13.732 49.0612 14.334C49.0612 14.88 49.3972 15.244 49.9572 15.244C50.6152 15.244 51.0212 14.964 51.3852 14.642ZM59.661 15.958L58.583 16.112L58.485 15.454H58.471C58.051 15.804 57.477 16.154 56.707 16.154C55.265 16.154 54.299 14.964 54.299 13.018C54.299 10.764 55.461 9.378 57.449 9.378C57.981 9.378 58.359 9.476 58.359 9.476V8.062L58.149 6.62L59.465 6.438V14.516L59.661 15.958ZM57.099 15.174C57.645 15.174 58.023 14.95 58.359 14.684V10.498C58.359 10.498 57.995 10.316 57.351 10.316C56.077 10.316 55.447 11.394 55.447 12.668C55.447 14.25 55.867 15.174 57.099 15.174ZM62.8539 16H61.7339V10.96L61.5379 9.518L62.8539 9.336V16ZM63.0779 7.74C63.0779 8.188 62.7279 8.524 62.3079 8.524C61.8739 8.524 61.5099 8.188 61.5099 7.74C61.5099 7.292 61.8739 6.942 62.3079 6.942C62.7279 6.942 63.0779 7.292 63.0779 7.74ZM70.2486 12.724C70.2486 14.642 69.3386 16.154 67.4486 16.154C65.3766 16.154 64.6486 14.684 64.6486 12.724C64.6486 10.806 65.5586 9.294 67.4486 9.294C69.5206 9.294 70.2486 10.764 70.2486 12.724ZM69.1006 12.752C69.1006 11.128 68.5546 10.274 67.4486 10.274C66.3706 10.274 65.7966 11.03 65.7966 12.682C65.7966 14.306 66.3426 15.174 67.4486 15.174C68.5266 15.174 69.1006 14.404 69.1006 12.752ZM80.1477 12.332C80.1477 14.516 79.0137 16.14 76.9417 16.14C76.2137 16.14 75.4157 16.014 74.9397 15.832V8.062L74.7437 6.62L76.0597 6.438V9.952H76.0737C76.4937 9.602 77.0537 9.294 77.7957 9.294C79.3357 9.294 80.1477 10.4 80.1477 12.332ZM79.0137 12.738C79.0137 11.296 78.6777 10.316 77.4037 10.316C76.8157 10.316 76.3957 10.554 76.0597 10.848V15.062C76.3397 15.132 76.6197 15.174 77.0397 15.174C78.3417 15.174 79.0137 14.068 79.0137 12.738ZM87.1063 15.93L86.0003 16.112L85.8883 15.356H85.8743C85.3843 15.818 84.7403 16.154 83.9283 16.154C82.8223 16.154 81.9403 15.44 81.9403 14.096V10.96L81.7443 9.518L83.0603 9.336V13.704C83.0603 14.67 83.4243 15.174 84.3063 15.174C84.9363 15.174 85.3843 14.908 85.7903 14.53V10.96L85.5943 9.518L86.9103 9.336V14.488L87.1063 15.93ZM92.4214 15.734C92.0154 15.958 91.6374 16.14 90.9234 16.14C89.9154 16.14 89.2714 15.482 89.2714 14.362V10.358H88.3054V9.616L89.2714 9.42V8.328L90.3774 8.188V9.448H92.2114V10.358H90.3774V13.984C90.3774 14.866 90.6014 15.146 91.2454 15.146C91.5954 15.146 91.8614 15.006 92.0574 14.88L92.4214 15.734ZM97.1929 15.734C96.7869 15.958 96.4089 16.14 95.6949 16.14C94.6869 16.14 94.0429 15.482 94.0429 14.362V10.358H93.0769V9.616L94.0429 9.42V8.328L95.1489 8.188V9.448H96.9829V10.358H95.1489V13.984C95.1489 14.866 95.3729 15.146 96.0169 15.146C96.3669 15.146 96.6329 15.006 96.8289 14.88L97.1929 15.734ZM103.649 12.724C103.649 14.642 102.739 16.154 100.849 16.154C98.777 16.154 98.049 14.684 98.049 12.724C98.049 10.806 98.959 9.294 100.849 9.294C102.921 9.294 103.649 10.764 103.649 12.724ZM102.501 12.752C102.501 11.128 101.955 10.274 100.849 10.274C99.771 10.274 99.197 11.03 99.197 12.682C99.197 14.306 99.743 15.174 100.849 15.174C101.927 15.174 102.501 14.404 102.501 12.752ZM110.399 16H109.279V11.744C109.279 10.778 108.915 10.288 108.033 10.288C107.403 10.288 106.955 10.554 106.549 10.918V16H105.429V10.96L105.233 9.518L106.339 9.336L106.451 10.106H106.465C106.955 9.63 107.599 9.294 108.411 9.294C109.517 9.294 110.399 10.008 110.399 11.352V16ZM116.638 16H115.518V8.062L115.322 6.62L116.638 6.438V16ZM123.152 15.93L122.032 16.112L121.934 15.342H121.92C121.444 15.79 120.926 16.168 120.142 16.168C119.05 16.168 118.406 15.51 118.406 14.474C118.406 13.298 119.33 12.724 120.66 12.584L121.836 12.458V11.87C121.836 10.96 121.556 10.316 120.478 10.316C119.932 10.316 119.526 10.484 119.12 10.694L118.714 9.868C119.302 9.518 119.904 9.294 120.744 9.294C122.06 9.294 122.942 10.064 122.942 11.366V14.488L123.152 15.93ZM121.836 14.642V13.214L120.814 13.354C119.974 13.466 119.512 13.732 119.512 14.334C119.512 14.88 119.848 15.244 120.408 15.244C121.066 15.244 121.472 14.964 121.836 14.642ZM130.378 12.332C130.378 14.516 129.244 16.14 127.172 16.14C126.444 16.14 125.646 16.014 125.17 15.832V8.062L124.974 6.62L126.29 6.438V9.952H126.304C126.724 9.602 127.284 9.294 128.026 9.294C129.566 9.294 130.378 10.4 130.378 12.332ZM129.244 12.738C129.244 11.296 128.908 10.316 127.634 10.316C127.046 10.316 126.626 10.554 126.29 10.848V15.062C126.57 15.132 126.85 15.174 127.27 15.174C128.572 15.174 129.244 14.068 129.244 12.738ZM136.721 15.65C136.091 16 135.447 16.154 134.649 16.154C132.717 16.154 131.723 14.852 131.723 12.682C131.723 10.652 132.787 9.294 134.439 9.294C136.021 9.294 136.665 10.344 136.665 11.786V12.57H132.815C132.829 14.32 133.459 15.16 134.887 15.16C135.433 15.16 135.853 15.006 136.329 14.768L136.721 15.65ZM135.615 11.786C135.615 10.806 135.251 10.19 134.383 10.19C133.543 10.19 133.011 10.848 132.871 11.786H135.615ZM139.483 16H138.363V8.062L138.167 6.62L139.483 6.438V16Z" fill="#00157E"/>
</svg>
