<svg width="420" height="24" viewBox="0 0 420 24" fill="none" xmlns="http://www.w3.org/2000/svg">
<rect width="420" height="24" fill="#00157E" fill-opacity="0.1"/>
<g clip-path="url(#clip0_361_3194)">
<path d="M31 14L36 9L31 4" stroke="#00157E" stroke-width="2" stroke-linecap="round" stroke-linejoin="round"/>
<path d="M20 20V13C20 11.9391 20.4214 10.9217 21.1716 10.1716C21.9217 9.42143 22.9391 9 24 9H36" stroke="#00157E" stroke-width="2" stroke-linecap="round" stroke-linejoin="round"/>
<path d="M62.958 15.566C62.174 15.972 61.376 16.154 60.312 16.154C58.254 16.154 56.672 14.768 56.672 11.968C56.672 8.986 58.436 7.418 60.704 7.418C61.642 7.418 62.216 7.558 62.93 7.866L62.482 8.888C61.95 8.65 61.446 8.468 60.69 8.468C59.22 8.468 57.876 9.602 57.876 11.674C57.876 13.984 58.73 15.118 60.774 15.118C61.446 15.118 62.062 14.852 62.566 14.628L62.958 15.566ZM68.6778 15.93L67.5578 16.112L67.4598 15.342H67.4458C66.9698 15.79 66.4518 16.168 65.6678 16.168C64.5758 16.168 63.9318 15.51 63.9318 14.474C63.9318 13.298 64.8558 12.724 66.1858 12.584L67.3618 12.458V11.87C67.3618 10.96 67.0818 10.316 66.0038 10.316C65.4578 10.316 65.0518 10.484 64.6458 10.694L64.2398 9.868C64.8278 9.518 65.4298 9.294 66.2698 9.294C67.5858 9.294 68.4678 10.064 68.4678 11.366V14.488L68.6778 15.93ZM67.3618 14.642V13.214L66.3398 13.354C65.4998 13.466 65.0378 13.732 65.0378 14.334C65.0378 14.88 65.3738 15.244 65.9338 15.244C66.5918 15.244 66.9978 14.964 67.3618 14.642ZM73.9575 6.578L73.7055 7.53C73.5095 7.46 73.3275 7.418 73.0475 7.418C72.4175 7.418 71.9555 7.824 71.9555 8.65V9.448H73.7615V10.358H71.9555V16H70.8495V10.358H69.8835V9.616L70.8495 9.42V8.734C70.8495 7.32 71.8015 6.452 73.1035 6.452C73.4535 6.452 73.7055 6.508 73.9575 6.578ZM79.3204 15.65C78.6904 16 78.0464 16.154 77.2484 16.154C75.3164 16.154 74.3224 14.852 74.3224 12.682C74.3224 10.652 75.3864 9.294 77.0384 9.294C78.6204 9.294 79.2644 10.344 79.2644 11.786V12.57H75.4144C75.4284 14.32 76.0584 15.16 77.4864 15.16C78.0324 15.16 78.4524 15.006 78.9284 14.768L79.3204 15.65ZM78.2144 11.786C78.2144 10.806 77.8504 10.19 76.9824 10.19C76.1424 10.19 75.6104 10.848 75.4704 11.786H78.2144Z" fill="#00157E"/>
</g>
<path d="M345.432 13.072C345.432 15.136 344.268 16.156 342.708 16.156C341.04 16.156 339.972 15.316 339.972 13.048V8.776H341.004V13.096C341.004 14.524 341.556 15.196 342.672 15.196C343.788 15.196 344.472 14.512 344.472 13.12V8.776H345.432V13.072ZM351.314 13.972C351.314 15.232 350.438 16.132 348.986 16.132C348.242 16.132 347.582 15.976 347.018 15.736L347.33 14.86C347.798 15.076 348.35 15.256 348.914 15.256C349.79 15.256 350.354 14.92 350.354 14.128C350.354 13.54 349.922 13.252 349.346 12.976L348.218 12.436C347.462 12.076 346.946 11.608 346.946 10.588C346.946 9.352 348.026 8.644 349.274 8.644C349.946 8.644 350.378 8.752 351.002 8.98L350.666 9.832C350.282 9.652 349.862 9.484 349.334 9.484C348.59 9.484 347.918 9.784 347.918 10.552C347.918 11.068 348.23 11.32 348.71 11.548L349.862 12.112C350.774 12.556 351.314 13.048 351.314 13.972ZM358.469 11.932C358.469 14.572 356.885 16 354.317 16H352.805V8.824C352.805 8.824 353.801 8.704 354.869 8.704C357.101 8.704 358.469 9.868 358.469 11.932ZM357.425 12.076C357.425 10.372 356.273 9.556 354.701 9.556C354.197 9.556 353.813 9.58 353.813 9.58V15.1H354.509C356.225 15.1 357.425 14.08 357.425 12.076Z" fill="#00157E" fill-opacity="0.7"/>
<path d="M374.952 12.388H369.31V11.464H374.952V12.388ZM378.064 16H376.958V9.812L375.726 9.98L375.6 9.126L378.064 8.734V16ZM385.64 12.43C385.64 14.292 384.912 16.154 382.798 16.154C380.67 16.154 379.942 14.292 379.942 12.43C379.942 10.568 380.67 8.706 382.798 8.706C384.912 8.706 385.64 10.568 385.64 12.43ZM384.492 12.43C384.492 10.862 383.974 9.686 382.798 9.686C381.608 9.686 381.09 10.862 381.09 12.43C381.09 13.998 381.608 15.174 382.798 15.174C383.974 15.174 384.492 13.998 384.492 12.43ZM388.799 15.286C388.799 15.734 388.435 16.098 388.001 16.098C387.553 16.098 387.189 15.734 387.189 15.286C387.189 14.852 387.553 14.488 388.001 14.488C388.435 14.488 388.799 14.852 388.799 15.286ZM396.044 12.43C396.044 14.292 395.316 16.154 393.202 16.154C391.074 16.154 390.346 14.292 390.346 12.43C390.346 10.568 391.074 8.706 393.202 8.706C395.316 8.706 396.044 10.568 396.044 12.43ZM394.896 12.43C394.896 10.862 394.378 9.686 393.202 9.686C392.012 9.686 391.494 10.862 391.494 12.43C391.494 13.998 392.012 15.174 393.202 15.174C394.378 15.174 394.896 13.998 394.896 12.43ZM403.249 12.43C403.249 14.292 402.521 16.154 400.407 16.154C398.279 16.154 397.551 14.292 397.551 12.43C397.551 10.568 398.279 8.706 400.407 8.706C402.521 8.706 403.249 10.568 403.249 12.43ZM402.101 12.43C402.101 10.862 401.583 9.686 400.407 9.686C399.217 9.686 398.699 10.862 398.699 12.43C398.699 13.998 399.217 15.174 400.407 15.174C401.583 15.174 402.101 13.998 402.101 12.43Z" fill="#00157E"/>
<defs>
<clipPath id="clip0_361_3194">
<rect width="307" height="24" fill="white" transform="translate(16)"/>
</clipPath>
</defs>
</svg>
