<svg width="555" height="173" viewBox="0 0 555 173" fill="none" xmlns="http://www.w3.org/2000/svg">
<path d="M0 8C0 3.58172 3.58172 0 8 0H546.667C551.085 0 554.667 3.58172 554.667 8V165C554.667 169.418 551.085 173 546.667 173H8C3.58172 173 0 169.418 0 165V8Z" fill="white"/>
<path d="M33.984 32.184C33.984 39.16 29.632 43 22.72 43H18.464V23.896C18.464 23.896 21.216 23.544 24.16 23.544C30.144 23.544 33.984 26.488 33.984 32.184ZM30.432 32.504C30.432 28.376 27.712 26.392 23.904 26.392C22.752 26.392 21.888 26.488 21.888 26.488V39.928H23.424C27.616 39.928 30.432 37.496 30.432 32.504ZM41.007 43H37.775V31.64L37.295 28.12L41.007 27.672V43ZM41.487 23.896C41.487 25.048 40.559 25.976 39.407 25.976C38.255 25.976 37.327 25.048 37.327 23.896C37.327 22.712 38.255 21.816 39.407 21.816C40.559 21.816 41.487 22.712 41.487 23.896ZM54.7998 38.392C54.7998 41.24 52.5278 43.352 49.1998 43.352C47.5358 43.352 45.9678 43.064 44.6558 42.488L45.5518 39.736C46.6718 40.216 47.7918 40.632 49.0398 40.632C50.6078 40.632 51.5358 40.088 51.5358 38.936C51.5358 38.008 51.0238 37.656 50.1278 37.24L47.5358 36.088C46.3518 35.576 44.6878 34.616 44.6878 32.056C44.6878 29.08 47.2478 27.576 50.1598 27.576C51.8878 27.576 53.0718 27.864 54.4158 28.44L53.3918 31.128C52.3678 30.68 51.3758 30.296 50.1918 30.296C48.7198 30.296 47.8238 30.776 47.8238 31.832C47.8238 32.824 48.6558 33.176 49.2318 33.432L51.9198 34.616C53.8718 35.48 54.7998 36.664 54.7998 38.392ZM79.197 43H75.965V33.336C75.965 31.384 75.197 30.424 73.437 30.424C72.189 30.424 71.069 31.064 70.365 31.768C70.365 31.768 70.429 32.312 70.429 32.824V43H67.197V33.336C67.197 31.384 66.429 30.424 64.701 30.424C63.421 30.424 62.461 30.968 61.693 31.704V43H58.461V31.64L57.981 28.12L61.149 27.672L61.373 29.368H61.405C62.397 28.376 63.933 27.576 65.853 27.576C67.613 27.576 69.021 28.312 69.789 29.656H69.821C70.973 28.472 72.541 27.576 74.589 27.576C77.181 27.576 79.197 29.144 79.197 32.376V43ZM87.1008 43H83.8688V31.64L83.3888 28.12L87.1008 27.672V43ZM87.5808 23.896C87.5808 25.048 86.6528 25.976 85.5008 25.976C84.3488 25.976 83.4208 25.048 83.4208 23.896C83.4208 22.712 84.3488 21.816 85.5008 21.816C86.6528 21.816 87.5808 22.712 87.5808 23.896ZM100.894 38.392C100.894 41.24 98.6215 43.352 95.2935 43.352C93.6295 43.352 92.0615 43.064 90.7495 42.488L91.6455 39.736C92.7655 40.216 93.8855 40.632 95.1335 40.632C96.7015 40.632 97.6295 40.088 97.6295 38.936C97.6295 38.008 97.1175 37.656 96.2215 37.24L93.6295 36.088C92.4455 35.576 90.7815 34.616 90.7815 32.056C90.7815 29.08 93.3415 27.576 96.2535 27.576C97.9815 27.576 99.1655 27.864 100.51 28.44L99.4855 31.128C98.4615 30.68 97.4695 30.296 96.2855 30.296C94.8135 30.296 93.9175 30.776 93.9175 31.832C93.9175 32.824 94.7495 33.176 95.3255 33.432L98.0135 34.616C99.9655 35.48 100.894 36.664 100.894 38.392ZM113.675 38.392C113.675 41.24 111.403 43.352 108.075 43.352C106.411 43.352 104.843 43.064 103.531 42.488L104.427 39.736C105.547 40.216 106.667 40.632 107.915 40.632C109.483 40.632 110.411 40.088 110.411 38.936C110.411 38.008 109.899 37.656 109.003 37.24L106.411 36.088C105.227 35.576 103.563 34.616 103.563 32.056C103.563 29.08 106.123 27.576 109.035 27.576C110.763 27.576 111.947 27.864 113.291 28.44L112.267 31.128C111.243 30.68 110.251 30.296 109.067 30.296C107.595 30.296 106.699 30.776 106.699 31.832C106.699 32.824 107.531 33.176 108.107 33.432L110.795 34.616C112.747 35.48 113.675 36.664 113.675 38.392ZM136.343 34.744C136.343 39.8 133.911 43.16 129.047 43.16C128.343 43.16 127.735 43.064 127.287 42.936V49.304L124.055 49.784V31.64L123.575 28.12L126.743 27.672L126.935 29.208H126.967C127.671 28.6 129.047 27.576 130.935 27.576C134.647 27.576 136.343 30.392 136.343 34.744ZM133.079 35.448C133.079 32.376 132.439 30.456 129.815 30.456C128.663 30.456 127.831 31.032 127.287 31.448V40.056C127.735 40.248 128.343 40.408 129.207 40.408C131.735 40.408 133.079 38.424 133.079 35.448ZM147.384 30.68C145.592 30.68 144.344 31.064 143.224 32.184V43H139.992V31.64L139.512 28.12L142.68 27.672L142.936 29.752H142.968C143.896 28.6 145.24 27.608 147.384 27.608V30.68ZM162.028 35.448C162.028 39.896 159.82 43.352 155.436 43.352C150.668 43.352 148.844 39.96 148.844 35.448C148.844 31 151.052 27.608 155.436 27.608C160.204 27.608 162.028 30.936 162.028 35.448ZM158.764 35.512C158.764 32.088 157.612 30.424 155.436 30.424C153.292 30.424 152.108 31.928 152.108 35.384C152.108 38.808 153.26 40.504 155.436 40.504C157.58 40.504 158.764 38.936 158.764 35.512ZM175.76 28.248L174.736 31.128C173.936 30.808 173.104 30.52 172.016 30.52C169.584 30.52 167.952 32.312 167.952 35.256C167.952 38.84 169.456 40.44 171.92 40.44C172.976 40.44 173.712 40.152 174.608 39.768L175.632 42.424C174.288 43.032 172.976 43.352 171.376 43.352C166.992 43.352 164.688 40.28 164.688 35.608C164.688 30.072 168.272 27.576 172.08 27.576C173.488 27.576 174.576 27.8 175.76 28.248ZM189.248 42.168C187.68 42.968 186.24 43.384 184.32 43.384C179.616 43.384 177.344 40.344 177.344 35.32C177.344 30.712 179.904 27.608 183.808 27.608C187.68 27.608 189.12 30.232 189.12 33.688V35.48H180.512C180.576 38.872 181.952 40.504 184.832 40.504C186.176 40.504 187.072 40.152 188.16 39.64L189.248 42.168ZM186.208 33.368C186.208 31.48 185.44 30.2 183.68 30.2C181.92 30.2 180.864 31.576 180.608 33.368H186.208ZM201.831 38.392C201.831 41.24 199.559 43.352 196.231 43.352C194.567 43.352 192.999 43.064 191.687 42.488L192.583 39.736C193.703 40.216 194.823 40.632 196.071 40.632C197.639 40.632 198.567 40.088 198.567 38.936C198.567 38.008 198.055 37.656 197.159 37.24L194.567 36.088C193.383 35.576 191.719 34.616 191.719 32.056C191.719 29.08 194.279 27.576 197.191 27.576C198.919 27.576 200.103 27.864 201.447 28.44L200.423 31.128C199.399 30.68 198.407 30.296 197.223 30.296C195.751 30.296 194.855 30.776 194.855 31.832C194.855 32.824 195.687 33.176 196.263 33.432L198.951 34.616C200.903 35.48 201.831 36.664 201.831 38.392ZM214.612 38.392C214.612 41.24 212.34 43.352 209.012 43.352C207.348 43.352 205.78 43.064 204.468 42.488L205.364 39.736C206.484 40.216 207.604 40.632 208.852 40.632C210.42 40.632 211.348 40.088 211.348 38.936C211.348 38.008 210.836 37.656 209.94 37.24L207.348 36.088C206.164 35.576 204.5 34.616 204.5 32.056C204.5 29.08 207.06 27.576 209.972 27.576C211.7 27.576 212.884 27.864 214.228 28.44L213.204 31.128C212.18 30.68 211.188 30.296 210.004 30.296C208.532 30.296 207.636 30.776 207.636 31.832C207.636 32.824 208.468 33.176 209.044 33.432L211.732 34.616C213.684 35.48 214.612 36.664 214.612 38.392ZM226.818 28.088C226.818 32.984 221.154 32.568 221.154 35.224C221.154 36.088 221.698 36.76 221.698 36.76L219.234 37.528C219.234 37.528 218.242 36.312 218.242 34.776C218.242 31.16 223.586 31.512 223.586 28.728C223.586 27.128 222.53 26.232 220.93 26.232C219.746 26.232 218.85 26.68 217.89 27.352L216.642 25.24C217.794 24.184 219.522 23.352 221.57 23.352C224.578 23.352 226.818 25.048 226.818 28.088ZM222.754 41.112C222.754 42.328 221.826 43.224 220.674 43.224C219.49 43.224 218.562 42.328 218.562 41.112C218.562 39.928 219.49 39.032 220.674 39.032C221.826 39.032 222.754 39.928 222.754 41.112Z" fill="#00157E"/>
<path d="M24.176 80.84L22.864 81.208L21.84 77.88H18.704L17.728 81H16.32L19.664 71.368H21.04L24.176 80.84ZM21.552 76.92L20.304 72.76H20.288L18.992 76.92H21.552ZM26.9968 81H25.7168V71.928L25.4928 70.28L26.9968 70.072V81ZM30.778 81H29.498V71.928L29.274 70.28L30.778 70.072V81ZM40.4146 80.696C39.9506 80.952 39.5186 81.16 38.7026 81.16C37.5506 81.16 36.8146 80.408 36.8146 79.128V74.552H35.7106V73.704L36.8146 73.48V72.232L38.0786 72.072V73.512H40.1746V74.552H38.0786V78.696C38.0786 79.704 38.3346 80.024 39.0706 80.024C39.4706 80.024 39.7746 79.864 39.9986 79.72L40.4146 80.696ZM47.7558 81H46.4918V76.136C46.4918 75.048 46.0598 74.488 45.0358 74.488C44.2998 74.488 43.8038 74.808 43.3718 75.192V81H42.0918V71.928L41.8678 70.28L43.3718 70.072V74.168H43.3878C43.8838 73.736 44.5718 73.336 45.4998 73.336C46.7798 73.336 47.7558 74.136 47.7558 75.688V81ZM55.4956 80.6C54.7756 81 54.0396 81.176 53.1276 81.176C50.9196 81.176 49.7836 79.688 49.7836 77.208C49.7836 74.888 50.9996 73.336 52.8876 73.336C54.6956 73.336 55.4316 74.536 55.4316 76.184V77.08H51.0316C51.0476 79.08 51.7676 80.04 53.3996 80.04C54.0236 80.04 54.5036 79.864 55.0476 79.592L55.4956 80.6ZM54.2316 76.184C54.2316 75.064 53.8156 74.36 52.8236 74.36C51.8636 74.36 51.2556 75.112 51.0956 76.184H54.2316ZM62.0764 81H60.7964V75.24L60.5724 73.592L62.0764 73.384V81ZM62.3324 71.56C62.3324 72.072 61.9324 72.456 61.4524 72.456C60.9564 72.456 60.5404 72.072 60.5404 71.56C60.5404 71.048 60.9564 70.648 61.4524 70.648C61.9324 70.648 62.3324 71.048 62.3324 71.56ZM70.3194 81H69.0394V76.136C69.0394 75.032 68.6234 74.472 67.6154 74.472C66.8954 74.472 66.3834 74.776 65.9194 75.192V81H64.6394V75.24L64.4154 73.592L65.6794 73.384L65.8074 74.264H65.8234C66.3834 73.72 67.1194 73.336 68.0474 73.336C69.3114 73.336 70.3194 74.152 70.3194 75.688V81ZM78.7305 76.888C78.7305 79.32 77.6745 81.08 75.1785 81.08C74.7625 81.08 74.4265 81.048 74.1225 80.968V84.168L72.8425 84.376V75.24L72.6185 73.592L73.8825 73.384L73.9945 74.152H74.0105C74.5065 73.736 75.1625 73.336 76.0265 73.336C77.8505 73.336 78.7305 74.712 78.7305 76.888ZM77.4505 77.256C77.4505 75.624 77.0825 74.488 75.5945 74.488C74.9545 74.488 74.4905 74.76 74.1225 75.064V79.784C74.4265 79.912 74.7785 79.992 75.2745 79.992C76.6665 79.992 77.4505 78.904 77.4505 77.256ZM86.6684 80.92L85.4044 81.128L85.2764 80.264H85.2604C84.7004 80.792 83.9644 81.176 83.0364 81.176C81.7724 81.176 80.7644 80.36 80.7644 78.824V75.24L80.5404 73.592L82.0444 73.384V78.376C82.0444 79.48 82.4604 80.056 83.4684 80.056C84.1884 80.056 84.7004 79.752 85.1644 79.32V75.24L84.9404 73.592L86.4444 73.384V79.272L86.6684 80.92ZM92.7428 80.696C92.2788 80.952 91.8468 81.16 91.0308 81.16C89.8788 81.16 89.1428 80.408 89.1428 79.128V74.552H88.0388V73.704L89.1428 73.48V72.232L90.4068 72.072V73.512H92.5028V74.552H90.4068V78.696C90.4068 79.704 90.6628 80.024 91.3988 80.024C91.7988 80.024 92.1028 79.864 92.3268 79.72L92.7428 80.696ZM106.787 73.512L104.723 80.968L103.539 81.032L101.715 75.352H101.699L99.8593 80.984L98.6753 81.032L96.8033 73.592L98.0193 73.288L99.3633 79.128H99.3793L101.123 73.512H102.371L104.131 79.128H104.147L105.539 73.512H106.787ZM109.78 81H108.5V75.24L108.276 73.592L109.78 73.384V81ZM110.036 71.56C110.036 72.072 109.636 72.456 109.156 72.456C108.66 72.456 108.243 72.072 108.243 71.56C108.243 71.048 108.66 70.648 109.156 70.648C109.636 70.648 110.036 71.048 110.036 71.56ZM113.591 81H112.311V71.928L112.087 70.28L113.591 70.072V81ZM117.372 81H116.092V71.928L115.868 70.28L117.372 70.072V81ZM129.184 76.808C129.184 79.304 127.888 81.16 125.52 81.16C124.688 81.16 123.776 81.016 123.232 80.808V71.928L123.008 70.28L124.512 70.072V74.088H124.528C125.008 73.688 125.648 73.336 126.496 73.336C128.256 73.336 129.184 74.6 129.184 76.808ZM127.888 77.272C127.888 75.624 127.504 74.504 126.048 74.504C125.376 74.504 124.896 74.776 124.512 75.112V79.928C124.832 80.008 125.152 80.056 125.632 80.056C127.12 80.056 127.888 78.792 127.888 77.272ZM136.433 80.6C135.713 81 134.977 81.176 134.065 81.176C131.857 81.176 130.721 79.688 130.721 77.208C130.721 74.888 131.937 73.336 133.825 73.336C135.633 73.336 136.369 74.536 136.369 76.184V77.08H131.969C131.985 79.08 132.705 80.04 134.337 80.04C134.961 80.04 135.441 79.864 135.985 79.592L136.433 80.6ZM135.169 76.184C135.169 75.064 134.753 74.36 133.761 74.36C132.801 74.36 132.193 75.112 132.033 76.184H135.169ZM142.95 81H141.67V71.928L141.446 70.28L142.95 70.072V81ZM151.371 77.256C151.371 79.448 150.331 81.176 148.171 81.176C145.803 81.176 144.971 79.496 144.971 77.256C144.971 75.064 146.011 73.336 148.171 73.336C150.539 73.336 151.371 75.016 151.371 77.256ZM150.059 77.288C150.059 75.432 149.435 74.456 148.171 74.456C146.939 74.456 146.283 75.32 146.283 77.208C146.283 79.064 146.907 80.056 148.171 80.056C149.403 80.056 150.059 79.176 150.059 77.288ZM157.741 78.824C157.741 80.184 156.669 81.16 155.069 81.16C154.301 81.16 153.533 81.048 152.925 80.76L153.309 79.64C153.837 79.88 154.429 80.072 155.005 80.072C155.869 80.072 156.445 79.736 156.445 79.032C156.445 78.488 156.157 78.264 155.661 78.04L154.269 77.4C153.773 77.176 152.877 76.728 152.877 75.432C152.877 74.008 154.125 73.336 155.485 73.336C156.301 73.336 156.877 73.464 157.517 73.736L157.085 74.84C156.573 74.616 156.077 74.456 155.469 74.456C154.653 74.456 154.125 74.712 154.125 75.352C154.125 75.912 154.605 76.136 154.909 76.28L156.333 76.952C157.325 77.416 157.741 78.008 157.741 78.824ZM163.508 80.696C163.044 80.952 162.612 81.16 161.796 81.16C160.644 81.16 159.908 80.408 159.908 79.128V74.552H158.804V73.704L159.908 73.48V72.232L161.172 72.072V73.512H163.268V74.552H161.172V78.696C161.172 79.704 161.428 80.024 162.164 80.024C162.564 80.024 162.868 79.864 163.092 79.72L163.508 80.696ZM166.69 80.184C166.69 80.696 166.274 81.112 165.778 81.112C165.266 81.112 164.85 80.696 164.85 80.184C164.85 79.688 165.266 79.272 165.778 79.272C166.274 79.272 166.69 79.688 166.69 80.184Z" fill="#00157E"/>
<rect width="554.667" height="64" transform="translate(0 105)" fill="white"/>
<path d="M20 117.5H265.333C267.266 117.5 268.833 119.067 268.833 121V153C268.833 154.933 267.266 156.5 265.333 156.5H20C18.067 156.5 16.5 154.933 16.5 153V121C16.5 119.067 18.067 117.5 20 117.5Z" fill="white"/>
<path d="M20 117.5H265.333C267.266 117.5 268.833 119.067 268.833 121V153C268.833 154.933 267.266 156.5 265.333 156.5H20C18.067 156.5 16.5 154.933 16.5 153V121C16.5 119.067 18.067 117.5 20 117.5Z" stroke="#00157E"/>
<path d="M130.142 141.504C129.246 141.968 128.334 142.176 127.118 142.176C124.766 142.176 122.958 140.592 122.958 137.392C122.958 133.984 124.974 132.192 127.566 132.192C128.638 132.192 129.294 132.352 130.11 132.704L129.598 133.872C128.99 133.6 128.414 133.392 127.55 133.392C125.87 133.392 124.334 134.688 124.334 137.056C124.334 139.696 125.31 140.992 127.646 140.992C128.414 140.992 129.118 140.688 129.694 140.432L130.142 141.504ZM136.679 141.92L135.399 142.128L135.287 141.248H135.271C134.727 141.76 134.135 142.192 133.239 142.192C131.991 142.192 131.255 141.44 131.255 140.256C131.255 138.912 132.311 138.256 133.831 138.096L135.175 137.952V137.28C135.175 136.24 134.855 135.504 133.623 135.504C132.999 135.504 132.535 135.696 132.071 135.936L131.607 134.992C132.279 134.592 132.967 134.336 133.927 134.336C135.431 134.336 136.439 135.216 136.439 136.704V140.272L136.679 141.92ZM135.175 140.448V138.816L134.007 138.976C133.047 139.104 132.519 139.408 132.519 140.096C132.519 140.72 132.903 141.136 133.543 141.136C134.295 141.136 134.759 140.816 135.175 140.448ZM144.697 142H143.417V137.136C143.417 136.032 143.001 135.472 141.993 135.472C141.273 135.472 140.761 135.776 140.297 136.192V142H139.017V136.24L138.793 134.592L140.057 134.384L140.185 135.264H140.201C140.761 134.72 141.497 134.336 142.425 134.336C143.689 134.336 144.697 135.152 144.697 136.688V142ZM152.052 134.656L151.652 135.808C151.236 135.648 150.772 135.504 150.244 135.504C148.836 135.504 147.988 136.56 147.988 138.144C147.988 140.144 148.772 141.056 150.212 141.056C150.724 141.056 151.14 140.88 151.556 140.704L151.988 141.744C151.364 142.032 150.676 142.176 149.956 142.176C147.812 142.176 146.708 140.64 146.708 138.352C146.708 135.6 148.404 134.336 150.308 134.336C150.964 134.336 151.524 134.448 152.052 134.656ZM158.733 141.6C158.013 142 157.277 142.176 156.365 142.176C154.157 142.176 153.021 140.688 153.021 138.208C153.021 135.888 154.237 134.336 156.125 134.336C157.933 134.336 158.669 135.536 158.669 137.184V138.08H154.269C154.285 140.08 155.005 141.04 156.637 141.04C157.261 141.04 157.741 140.864 158.285 140.592L158.733 141.6ZM157.469 137.184C157.469 136.064 157.053 135.36 156.061 135.36C155.101 135.36 154.493 136.112 154.333 137.184H157.469ZM161.89 142H160.61V132.928L160.386 131.28L161.89 131.072V142Z" fill="#00157E"/>
<path d="M289.333 117.5H534.666C536.599 117.5 538.166 119.067 538.166 121V153C538.166 154.933 536.599 156.5 534.666 156.5H289.333C287.4 156.5 285.833 154.933 285.833 153V121C285.833 119.067 287.4 117.5 289.333 117.5Z" fill="#00157E"/>
<path d="M289.333 117.5H534.666C536.599 117.5 538.166 119.067 538.166 121V153C538.166 154.933 536.599 156.5 534.666 156.5H289.333C287.4 156.5 285.833 154.933 285.833 153V121C285.833 119.067 287.4 117.5 289.333 117.5Z" stroke="#00157E"/>
<path d="M396.341 136.576C396.341 140.096 394.229 142 390.805 142H388.789V132.432C388.789 132.432 390.117 132.272 391.541 132.272C394.517 132.272 396.341 133.824 396.341 136.576ZM394.949 136.768C394.949 134.496 393.413 133.408 391.317 133.408C390.645 133.408 390.133 133.44 390.133 133.44V140.8H391.061C393.349 140.8 394.949 139.44 394.949 136.768ZM399.694 142H398.414V136.24L398.19 134.592L399.694 134.384V142ZM399.95 132.56C399.95 133.072 399.55 133.456 399.07 133.456C398.574 133.456 398.158 133.072 398.158 132.56C398.158 132.048 398.574 131.648 399.07 131.648C399.55 131.648 399.95 132.048 399.95 132.56ZM406.593 139.824C406.593 141.184 405.521 142.16 403.921 142.16C403.153 142.16 402.385 142.048 401.777 141.76L402.161 140.64C402.689 140.88 403.281 141.072 403.857 141.072C404.721 141.072 405.297 140.736 405.297 140.032C405.297 139.488 405.009 139.264 404.513 139.04L403.121 138.4C402.625 138.176 401.729 137.728 401.729 136.432C401.729 135.008 402.977 134.336 404.337 134.336C405.153 134.336 405.729 134.464 406.369 134.736L405.937 135.84C405.425 135.616 404.929 135.456 404.321 135.456C403.505 135.456 402.977 135.712 402.977 136.352C402.977 136.912 403.457 137.136 403.761 137.28L405.185 137.952C406.177 138.416 406.593 139.008 406.593 139.824ZM418.68 142H417.416V137.136C417.416 136.032 417 135.472 415.976 135.472C415.256 135.472 414.648 135.824 414.248 136.224C414.248 136.224 414.296 136.496 414.296 136.784V142H413.016V137.136C413.016 136.032 412.6 135.472 411.592 135.472C410.872 135.472 410.36 135.76 409.896 136.192V142H408.616V136.24L408.392 134.592L409.656 134.384L409.784 135.264H409.8C410.36 134.72 411.096 134.336 412.024 134.336C412.888 134.336 413.608 134.72 413.992 135.408H414.008C414.6 134.816 415.368 134.336 416.424 134.336C417.704 134.336 418.68 135.152 418.68 136.688V142ZM422.537 142H421.257V136.24L421.033 134.592L422.537 134.384V142ZM422.793 132.56C422.793 133.072 422.393 133.456 421.913 133.456C421.417 133.456 421.001 133.072 421.001 132.56C421.001 132.048 421.417 131.648 421.913 131.648C422.393 131.648 422.793 132.048 422.793 132.56ZM429.436 139.824C429.436 141.184 428.364 142.16 426.764 142.16C425.996 142.16 425.228 142.048 424.62 141.76L425.004 140.64C425.532 140.88 426.124 141.072 426.7 141.072C427.564 141.072 428.14 140.736 428.14 140.032C428.14 139.488 427.852 139.264 427.356 139.04L425.964 138.4C425.468 138.176 424.572 137.728 424.572 136.432C424.572 135.008 425.82 134.336 427.18 134.336C427.996 134.336 428.572 134.464 429.212 134.736L428.78 135.84C428.268 135.616 427.772 135.456 427.164 135.456C426.348 135.456 425.82 135.712 425.82 136.352C425.82 136.912 426.3 137.136 426.604 137.28L428.028 137.952C429.02 138.416 429.436 139.008 429.436 139.824ZM435.796 139.824C435.796 141.184 434.724 142.16 433.124 142.16C432.356 142.16 431.588 142.048 430.98 141.76L431.364 140.64C431.892 140.88 432.484 141.072 433.06 141.072C433.924 141.072 434.5 140.736 434.5 140.032C434.5 139.488 434.212 139.264 433.716 139.04L432.324 138.4C431.828 138.176 430.932 137.728 430.932 136.432C430.932 135.008 432.18 134.336 433.54 134.336C434.356 134.336 434.932 134.464 435.572 134.736L435.14 135.84C434.628 135.616 434.132 135.456 433.524 135.456C432.708 135.456 432.18 135.712 432.18 136.352C432.18 136.912 432.66 137.136 432.964 137.28L434.388 137.952C435.38 138.416 435.796 139.008 435.796 139.824Z" fill="white"/>
</svg>
