<svg width="514" height="88" viewBox="0 0 514 88" fill="none" xmlns="http://www.w3.org/2000/svg">
<g clip-path="url(#clip0_321_1230263)">
<path d="M5.558 16H1.162V7.572H2.338V15.006H5.558V16ZM11.2422 15.93L10.1222 16.112L10.0242 15.342H10.0102C9.53422 15.79 9.01622 16.168 8.23222 16.168C7.14022 16.168 6.49622 15.51 6.49622 14.474C6.49622 13.298 7.42022 12.724 8.75022 12.584L9.92622 12.458V11.87C9.92622 10.96 9.64622 10.316 8.56822 10.316C8.02222 10.316 7.61622 10.484 7.21022 10.694L6.80422 9.868C7.39222 9.518 7.99422 9.294 8.83422 9.294C10.1502 9.294 11.0322 10.064 11.0322 11.366V14.488L11.2422 15.93ZM9.92622 14.642V13.214L8.90422 13.354C8.06422 13.466 7.60222 13.732 7.60222 14.334C7.60222 14.88 7.93822 15.244 8.49822 15.244C9.15622 15.244 9.56222 14.964 9.92622 14.642ZM18.468 12.332C18.468 14.516 17.334 16.14 15.262 16.14C14.534 16.14 13.736 16.014 13.26 15.832V8.062L13.064 6.62L14.38 6.438V9.952H14.394C14.814 9.602 15.374 9.294 16.116 9.294C17.656 9.294 18.468 10.4 18.468 12.332ZM17.334 12.738C17.334 11.296 16.998 10.316 15.724 10.316C15.136 10.316 14.716 10.554 14.38 10.848V15.062C14.66 15.132 14.94 15.174 15.36 15.174C16.662 15.174 17.334 14.068 17.334 12.738ZM24.8106 15.65C24.1806 16 23.5366 16.154 22.7386 16.154C20.8066 16.154 19.8126 14.852 19.8126 12.682C19.8126 10.652 20.8766 9.294 22.5286 9.294C24.1106 9.294 24.7546 10.344 24.7546 11.786V12.57H20.9046C20.9186 14.32 21.5486 15.16 22.9766 15.16C23.5226 15.16 23.9426 15.006 24.4186 14.768L24.8106 15.65ZM23.7046 11.786C23.7046 10.806 23.3406 10.19 22.4726 10.19C21.6326 10.19 21.1006 10.848 20.9606 11.786H23.7046ZM27.5733 16H26.4533V8.062L26.2573 6.62L27.5733 6.438V16ZM36.0054 15.734C35.5994 15.958 35.2214 16.14 34.5074 16.14C33.4994 16.14 32.8554 15.482 32.8554 14.362V10.358H31.8894V9.616L32.8554 9.42V8.328L33.9614 8.188V9.448H35.7954V10.358H33.9614V13.984C33.9614 14.866 34.1854 15.146 34.8294 15.146C35.1794 15.146 35.4454 15.006 35.6414 14.88L36.0054 15.734ZM41.8595 15.65C41.2295 16 40.5855 16.154 39.7875 16.154C37.8555 16.154 36.8615 14.852 36.8615 12.682C36.8615 10.652 37.9255 9.294 39.5775 9.294C41.1595 9.294 41.8035 10.344 41.8035 11.786V12.57H37.9535C37.9675 14.32 38.5975 15.16 40.0255 15.16C40.5715 15.16 40.9915 15.006 41.4675 14.768L41.8595 15.65ZM40.7535 11.786C40.7535 10.806 40.3895 10.19 39.5215 10.19C38.6815 10.19 38.1495 10.848 38.0095 11.786H40.7535ZM48.1085 15.706L47.1565 16.238L45.3365 13.438H45.3225L43.6845 16H42.5085L44.7905 12.598L42.8305 9.742L43.7685 9.21L45.3925 11.674H45.4065L46.8065 9.448H47.9965L45.9245 12.5L48.1085 15.706ZM52.7534 15.734C52.3474 15.958 51.9694 16.14 51.2554 16.14C50.2474 16.14 49.6034 15.482 49.6034 14.362V10.358H48.6374V9.616L49.6034 9.42V8.328L50.7094 8.188V9.448H52.5434V10.358H50.7094V13.984C50.7094 14.866 50.9334 15.146 51.5774 15.146C51.9274 15.146 52.1934 15.006 52.3894 14.88L52.7534 15.734Z" fill="#00157E" fill-opacity="0.7"/>
</g>
<path d="M0 32C0 29.7909 1.79086 28 4 28H510C512.209 28 514 29.7909 514 32V64C514 66.2091 512.209 68 510 68H4C1.79086 68 0 66.2091 0 64V32Z" fill="white"/>
<path d="M4 28.5H510C511.933 28.5 513.5 30.067 513.5 32V64C513.5 65.933 511.933 67.5 510 67.5H4C2.067 67.5 0.5 65.933 0.5 64V32C0.500001 30.067 2.067 28.5 4 28.5Z" stroke="#00157E" stroke-opacity="0.7"/>
<path d="M20.8208 53H19.4768V48.6H15.1408V53H13.7968V43.368H15.1408V47.464H19.4768V43.368H20.8208V53ZM28.3483 52.92L27.0683 53.128L26.9563 52.248H26.9403C26.3963 52.76 25.8043 53.192 24.9083 53.192C23.6603 53.192 22.9243 52.44 22.9243 51.256C22.9243 49.912 23.9803 49.256 25.5003 49.096L26.8443 48.952V48.28C26.8443 47.24 26.5243 46.504 25.2923 46.504C24.6683 46.504 24.2043 46.696 23.7403 46.936L23.2763 45.992C23.9483 45.592 24.6363 45.336 25.5963 45.336C27.1003 45.336 28.1083 46.216 28.1083 47.704V51.272L28.3483 52.92ZM26.8443 51.448V49.816L25.6763 49.976C24.7163 50.104 24.1883 50.408 24.1883 51.096C24.1883 51.72 24.5723 52.136 25.2123 52.136C25.9643 52.136 26.4283 51.816 26.8443 51.448ZM36.3663 53H35.0863V48.136C35.0863 47.032 34.6703 46.472 33.6623 46.472C32.9423 46.472 32.4303 46.776 31.9663 47.192V53H30.6863V47.24L30.4622 45.592L31.7263 45.384L31.8543 46.264H31.8703C32.4303 45.72 33.1663 45.336 34.0943 45.336C35.3583 45.336 36.3663 46.152 36.3663 47.688V53ZM43.2254 50.824C43.2254 52.184 42.1534 53.16 40.5534 53.16C39.7854 53.16 39.0174 53.048 38.4094 52.76L38.7934 51.64C39.3214 51.88 39.9134 52.072 40.4894 52.072C41.3534 52.072 41.9294 51.736 41.9294 51.032C41.9294 50.488 41.6414 50.264 41.1454 50.04L39.7534 49.4C39.2574 49.176 38.3614 48.728 38.3614 47.432C38.3614 46.008 39.6094 45.336 40.9694 45.336C41.7854 45.336 42.3614 45.464 43.0014 45.736L42.5694 46.84C42.0574 46.616 41.5614 46.456 40.9534 46.456C40.1374 46.456 39.6094 46.712 39.6094 47.352C39.6094 47.912 40.0894 48.136 40.3934 48.28L41.8174 48.952C42.8094 49.416 43.2254 50.008 43.2254 50.824ZM58.4801 52.968L57.2001 53.064L56.9281 45.608H56.9121L54.0801 53H52.6881L50.0161 45.624H50.0001L49.6161 53H48.4481L49.0721 43.368H50.4801L53.5041 51.4H53.5201L56.5761 43.368H57.9681L58.4801 52.968ZM66.0581 52.6C65.3381 53 64.6021 53.176 63.6901 53.176C61.4821 53.176 60.3461 51.688 60.3461 49.208C60.3461 46.888 61.5621 45.336 63.4501 45.336C65.2581 45.336 65.9941 46.536 65.9941 48.184V49.08H61.5941C61.6101 51.08 62.3301 52.04 63.9621 52.04C64.5861 52.04 65.0661 51.864 65.6101 51.592L66.0581 52.6ZM64.7941 48.184C64.7941 47.064 64.3781 46.36 63.3861 46.36C62.4261 46.36 61.8181 47.112 61.6581 48.184H64.7941ZM73.3915 45.512L70.8955 52.312C70.0955 54.52 69.0235 55.848 66.4155 56.376L66.1755 55.336C68.0795 54.952 69.0875 53.8 69.5835 52.552L66.8955 45.624L68.1595 45.288L70.2235 50.856H70.2395L72.1275 45.512H73.3915ZM79.98 52.6C79.26 53 78.524 53.176 77.612 53.176C75.404 53.176 74.268 51.688 74.268 49.208C74.268 46.888 75.484 45.336 77.372 45.336C79.18 45.336 79.916 46.536 79.916 48.184V49.08H75.516C75.532 51.08 76.252 52.04 77.884 52.04C78.508 52.04 78.988 51.864 79.532 51.592L79.98 52.6ZM78.716 48.184C78.716 47.064 78.3 46.36 77.308 46.36C76.348 46.36 75.74 47.112 75.58 48.184H78.716ZM85.2494 46.616C84.3854 46.616 83.7454 46.84 83.1694 47.368V53H81.8894V47.24L81.6654 45.592L82.9294 45.384L83.0574 46.408H83.0734C83.5854 45.832 84.2574 45.352 85.2494 45.352V46.616Z" fill="#00157E"/>
<g clip-path="url(#clip1_321_1230263)">
<g clip-path="url(#clip2_321_1230263)">
<path d="M6.86001 74.5732L1.21335 83.9999C1.09693 84.2015 1.03533 84.4301 1.03467 84.6629C1.03402 84.8957 1.09434 85.1246 1.20963 85.3269C1.32492 85.5292 1.49116 85.6977 1.69182 85.8158C1.89247 85.9339 2.12055 85.9973 2.35335 85.9999H13.6467C13.8795 85.9973 14.1076 85.9339 14.3082 85.8158C14.5089 85.6977 14.6751 85.5292 14.7904 85.3269C14.9057 85.1246 14.966 84.8957 14.9654 84.6629C14.9647 84.4301 14.9031 84.2015 14.7867 83.9999L9.14001 74.5732C9.02117 74.3773 8.85383 74.2153 8.65414 74.1029C8.45446 73.9905 8.22917 73.9314 8.00001 73.9314C7.77086 73.9314 7.54557 73.9905 7.34588 74.1029C7.1462 74.2153 6.97886 74.3773 6.86001 74.5732V74.5732Z" stroke="#00157E" stroke-width="2" stroke-linecap="round" stroke-linejoin="round"/>
<path d="M8 83.3333H8.00667" stroke="#00157E" stroke-width="2" stroke-linecap="round" stroke-linejoin="round"/>
<path d="M8 78V80.6667" stroke="#00157E" stroke-width="2" stroke-linecap="round" stroke-linejoin="round"/>
</g>
<path d="M32.33 79.786C32.33 81.998 31.336 84.154 28.522 84.154C25.652 84.154 24.672 82.026 24.672 79.786C24.672 77.56 25.694 75.418 28.522 75.418C31.392 75.418 32.33 77.532 32.33 79.786ZM31.098 79.786C31.098 77.728 30.3 76.412 28.522 76.412C26.758 76.412 25.932 77.784 25.932 79.786C25.932 81.83 26.73 83.16 28.522 83.16C30.258 83.16 31.098 81.788 31.098 79.786ZM39.2681 80.402C39.2681 82.53 38.3441 84.07 36.1601 84.07C35.7961 84.07 35.5021 84.042 35.2361 83.972V86.772L34.1161 86.954V78.96L33.9201 77.518L35.0261 77.336L35.1241 78.008H35.1381C35.5721 77.644 36.1461 77.294 36.9021 77.294C38.4981 77.294 39.2681 78.498 39.2681 80.402ZM38.1481 80.724C38.1481 79.296 37.8261 78.302 36.5241 78.302C35.9641 78.302 35.5581 78.54 35.2361 78.806V82.936C35.5021 83.048 35.8101 83.118 36.2441 83.118C37.4621 83.118 38.1481 82.166 38.1481 80.724ZM44.228 83.734C43.822 83.958 43.444 84.14 42.73 84.14C41.722 84.14 41.078 83.482 41.078 82.362V78.358H40.112V77.616L41.078 77.42V76.328L42.184 76.188V77.448H44.018V78.358H42.184V81.984C42.184 82.866 42.408 83.146 43.052 83.146C43.402 83.146 43.668 83.006 43.864 82.88L44.228 83.734ZM46.8715 84H45.7515V78.96L45.5555 77.518L46.8715 77.336V84ZM47.0955 75.74C47.0955 76.188 46.7455 76.524 46.3255 76.524C45.8915 76.524 45.5275 76.188 45.5275 75.74C45.5275 75.292 45.8915 74.942 46.3255 74.942C46.7455 74.942 47.0955 75.292 47.0955 75.74ZM54.2661 80.724C54.2661 82.642 53.3561 84.154 51.4661 84.154C49.3941 84.154 48.6661 82.684 48.6661 80.724C48.6661 78.806 49.5761 77.294 51.4661 77.294C53.5381 77.294 54.2661 78.764 54.2661 80.724ZM53.1181 80.752C53.1181 79.128 52.5721 78.274 51.4661 78.274C50.3881 78.274 49.8141 79.03 49.8141 80.682C49.8141 82.306 50.3601 83.174 51.4661 83.174C52.5441 83.174 53.1181 82.404 53.1181 80.752ZM61.0158 84H59.8958V79.744C59.8958 78.778 59.5318 78.288 58.6498 78.288C58.0198 78.288 57.5718 78.554 57.1658 78.918V84H56.0458V78.96L55.8498 77.518L56.9558 77.336L57.0678 78.106H57.0818C57.5718 77.63 58.2158 77.294 59.0278 77.294C60.1338 77.294 61.0158 78.008 61.0158 79.352V84ZM67.5215 83.93L66.4015 84.112L66.3035 83.342H66.2895C65.8135 83.79 65.2955 84.168 64.5115 84.168C63.4195 84.168 62.7755 83.51 62.7755 82.474C62.7755 81.298 63.6995 80.724 65.0295 80.584L66.2055 80.458V79.87C66.2055 78.96 65.9255 78.316 64.8475 78.316C64.3015 78.316 63.8955 78.484 63.4895 78.694L63.0835 77.868C63.6715 77.518 64.2735 77.294 65.1135 77.294C66.4295 77.294 67.3115 78.064 67.3115 79.366V82.488L67.5215 83.93ZM66.2055 82.642V81.214L65.1835 81.354C64.3435 81.466 63.8815 81.732 63.8815 82.334C63.8815 82.88 64.2175 83.244 64.7775 83.244C65.4355 83.244 65.8415 82.964 66.2055 82.642ZM70.6593 84H69.5393V76.062L69.3433 74.62L70.6593 74.438V84ZM80.6593 76.566H78.3073V84H77.1313V76.566H74.7793V75.572H80.6593V76.566ZM85.4786 83.65C84.8486 84 84.2046 84.154 83.4066 84.154C81.4746 84.154 80.4806 82.852 80.4806 80.682C80.4806 78.652 81.5446 77.294 83.1966 77.294C84.7786 77.294 85.4226 78.344 85.4226 79.786V80.57H81.5726C81.5866 82.32 82.2166 83.16 83.6446 83.16C84.1906 83.16 84.6106 83.006 85.0866 82.768L85.4786 83.65ZM84.3726 79.786C84.3726 78.806 84.0086 78.19 83.1406 78.19C82.3006 78.19 81.7686 78.848 81.6286 79.786H84.3726ZM91.7276 83.706L90.7756 84.238L88.9556 81.438H88.9416L87.3036 84H86.1276L88.4096 80.598L86.4496 77.742L87.3876 77.21L89.0116 79.674H89.0256L90.4256 77.448H91.6156L89.5436 80.5L91.7276 83.706ZM96.3726 83.734C95.9666 83.958 95.5886 84.14 94.8746 84.14C93.8666 84.14 93.2226 83.482 93.2226 82.362V78.358H92.2566V77.616L93.2226 77.42V76.328L94.3286 76.188V77.448H96.1626V78.358H94.3286V81.984C94.3286 82.866 94.5526 83.146 95.1966 83.146C95.5466 83.146 95.8126 83.006 96.0086 82.88L96.3726 83.734Z" fill="#00157E"/>
</g>
<defs>
<clipPath id="clip0_321_1230263">
<rect width="514" height="24" fill="white"/>
</clipPath>
<clipPath id="clip1_321_1230263">
<rect width="514" height="16" fill="white" transform="translate(0 72)"/>
</clipPath>
<clipPath id="clip2_321_1230263">
<rect width="16" height="16" fill="white" transform="translate(0 72)"/>
</clipPath>
</defs>
</svg>
