<svg width="156" height="144" viewBox="0 0 156 144" fill="none" xmlns="http://www.w3.org/2000/svg">
<path d="M0 8C0 3.58173 3.58172 0 8 0H148C152.418 0 156 3.58172 156 8V136C156 140.418 152.418 144 148 144H8C3.58172 144 0 140.418 0 136V8Z" fill="white"/>
<path d="M8 0.5H148C152.142 0.5 155.5 3.85786 155.5 8V136C155.5 140.142 152.142 143.5 148 143.5H8C3.85786 143.5 0.5 140.142 0.5 136V8C0.500002 3.85787 3.85787 0.5 8 0.5Z" stroke="#00157E" stroke-opacity="0.2"/>
<path d="M23.224 35.468C22.23 35.986 21.474 36.168 20.326 36.168C18.142 36.168 16.518 34.698 16.518 31.926C16.518 29.014 18.324 27.404 20.774 27.404C21.824 27.404 22.44 27.6 23.196 27.936L22.51 29.518C22.006 29.266 21.572 29.07 20.802 29.07C19.598 29.07 18.478 29.938 18.478 31.716C18.478 33.648 19.234 34.474 20.816 34.474C21.516 34.474 22.048 34.25 22.594 33.984L23.224 35.468ZM30.1708 35.902L28.4628 36.126L28.3648 35.412H28.3508C27.9588 35.79 27.3008 36.168 26.4188 36.168C25.2848 36.168 24.3608 35.496 24.3608 34.012V31.1L24.1368 29.462L26.1388 29.238V33.578C26.1388 34.292 26.4328 34.614 27.0488 34.614C27.5108 34.614 27.9028 34.404 28.1688 34.138V31.1L27.9448 29.462L29.9468 29.238V34.264L30.1708 35.902ZM35.944 33.872C35.944 35.146 34.922 36.154 33.382 36.154C32.584 36.154 31.87 36.028 31.268 35.748L31.73 34.292C32.234 34.502 32.724 34.712 33.284 34.712C33.886 34.712 34.18 34.502 34.18 34.152C34.18 33.83 34.026 33.704 33.662 33.55L32.626 33.116C32.01 32.864 31.338 32.402 31.338 31.31C31.338 29.938 32.5 29.21 33.886 29.21C34.67 29.21 35.202 29.336 35.832 29.602L35.286 31.03C34.838 30.848 34.404 30.666 33.9 30.666C33.354 30.666 33.046 30.82 33.046 31.184C33.046 31.534 33.326 31.66 33.578 31.758L34.656 32.192C35.496 32.528 35.944 33.06 35.944 33.872ZM41.4508 35.678C40.8768 35.986 40.4428 36.154 39.5608 36.154C38.2448 36.154 37.6008 35.272 37.6008 33.956V30.778H36.5788V29.602L37.6008 29.364V28.216L39.3648 28.006V29.378H41.1848V30.778H39.3648V33.48C39.3648 34.362 39.5888 34.586 40.1628 34.586C40.4848 34.586 40.6668 34.502 40.9748 34.362L41.4508 35.678ZM47.952 32.668C47.952 34.656 46.916 36.154 44.97 36.154C42.87 36.154 41.988 34.67 41.988 32.668C41.988 30.68 43.024 29.224 44.97 29.224C47.07 29.224 47.952 30.666 47.952 32.668ZM46.188 32.682C46.188 31.324 45.74 30.778 44.97 30.778C44.2 30.778 43.752 31.296 43.752 32.654C43.752 33.998 44.2 34.6 44.97 34.6C45.74 34.6 46.188 34.026 46.188 32.682ZM58.7194 36H56.9554V31.8C56.9554 31.086 56.6474 30.764 56.0174 30.764C55.5694 30.764 55.1354 31.002 54.8974 31.254C54.8974 31.254 54.9254 31.478 54.9254 31.674V36H53.1474V31.8C53.1474 31.086 52.8534 30.764 52.2234 30.764C51.7614 30.764 51.3694 30.974 51.1174 31.226V36H49.3394V31.1L49.1154 29.462L50.8234 29.238L50.9074 29.966H50.9214C51.3134 29.574 51.9994 29.21 52.8674 29.21C53.6514 29.21 54.2534 29.532 54.6034 30.078H54.6174C55.1074 29.574 55.8074 29.21 56.6754 29.21C57.8374 29.21 58.7194 29.868 58.7194 31.366V36ZM69.1614 32.43C69.1614 34.39 68.3074 36.168 66.1514 36.168C63.9954 36.168 63.1414 34.39 63.1414 32.43C63.1414 30.47 63.9954 28.692 66.1514 28.692C68.3074 28.692 69.1614 30.47 69.1614 32.43ZM67.3694 32.43C67.3694 31.086 66.9914 30.274 66.1514 30.274C65.3254 30.274 64.9334 31.086 64.9334 32.43C64.9334 33.774 65.3254 34.586 66.1514 34.586C66.9914 34.586 67.3694 33.774 67.3694 32.43ZM73.0931 36H71.3151V30.33L70.0831 30.498L69.8731 29.238L73.0931 28.72V36Z" fill="#00157E" fill-opacity="0.7"/>
<path d="M115 26H117H133" stroke="#00157E" stroke-width="2" stroke-linecap="round" stroke-linejoin="round"/>
<path d="M120 26V24C120 23.4696 120.211 22.9609 120.586 22.5858C120.961 22.2107 121.47 22 122 22H126C126.53 22 127.039 22.2107 127.414 22.5858C127.789 22.9609 128 23.4696 128 24V26M131 26V40C131 40.5304 130.789 41.0391 130.414 41.4142C130.039 41.7893 129.53 42 129 42H119C118.47 42 117.961 41.7893 117.586 41.4142C117.211 41.0391 117 40.5304 117 40V26H131Z" stroke="#00157E" stroke-width="2" stroke-linecap="round" stroke-linejoin="round"/>
<path d="M122 31V37" stroke="#00157E" stroke-width="2" stroke-linecap="round" stroke-linejoin="round"/>
<path d="M126 31V37" stroke="#00157E" stroke-width="2" stroke-linecap="round" stroke-linejoin="round"/>
<circle cx="32" cy="72" r="16.5" stroke="#00157E" stroke-opacity="0.2"/>
<circle cx="32" cy="72" r="16" fill="#00157E"/>
<path d="M68.9883 69.128H66.3963V71.48H68.7363V72.332H66.3963V75.5H65.4003V68.276H68.9883V69.128ZM74.503 72.692C74.503 74.336 73.723 75.632 72.103 75.632C70.327 75.632 69.703 74.372 69.703 72.692C69.703 71.048 70.483 69.752 72.103 69.752C73.879 69.752 74.503 71.012 74.503 72.692ZM73.519 72.716C73.519 71.324 73.051 70.592 72.103 70.592C71.179 70.592 70.687 71.24 70.687 72.656C70.687 74.048 71.155 74.792 72.103 74.792C73.027 74.792 73.519 74.132 73.519 72.716ZM78.5484 70.712C77.9004 70.712 77.4204 70.88 76.9884 71.276V75.5H76.0284V71.18L75.8604 69.944L76.8084 69.788L76.9044 70.556H76.9164C77.3004 70.124 77.8044 69.764 78.5484 69.764V70.712ZM83.4791 75.2C82.9391 75.5 82.3871 75.632 81.7031 75.632C80.0471 75.632 79.1951 74.516 79.1951 72.656C79.1951 70.916 80.1071 69.752 81.5231 69.752C82.8791 69.752 83.4311 70.652 83.4311 71.888V72.56H80.1311C80.1431 74.06 80.6831 74.78 81.9071 74.78C82.3751 74.78 82.7351 74.648 83.1431 74.444L83.4791 75.2ZM82.5311 71.888C82.5311 71.048 82.2191 70.52 81.4751 70.52C80.7551 70.52 80.2991 71.084 80.1791 71.888H82.5311ZM89.4952 70.592H88.3672C88.5352 70.88 88.6312 71.216 88.6312 71.624C88.6312 72.764 87.8032 73.532 86.6512 73.532C86.4232 73.532 86.2072 73.496 86.0152 73.448C86.0152 73.448 85.6312 73.664 85.6312 74.096C85.6312 74.468 85.9072 74.54 86.2912 74.54H87.8992C88.8832 74.54 89.4592 74.84 89.4592 75.716C89.4592 76.82 88.3312 78.068 86.2792 78.068C85.1032 78.068 84.3832 77.492 84.3832 76.508C84.3832 75.584 85.1392 75.128 85.1392 75.128C84.8992 74.972 84.7432 74.732 84.7432 74.336C84.7432 73.64 85.3432 73.292 85.4632 73.232C84.9352 72.908 84.6472 72.356 84.6472 71.624C84.6472 70.484 85.4872 69.728 86.6512 69.728C87.0832 69.728 87.4792 69.824 87.7912 70.016L89.4952 69.752V70.592ZM88.6192 75.86C88.6192 75.452 88.2712 75.368 87.6832 75.368H86.1712C86.0032 75.368 85.8472 75.356 85.6912 75.332C85.6912 75.332 85.2352 75.692 85.2352 76.292C85.2352 76.94 85.6312 77.288 86.4952 77.288C87.8752 77.288 88.6192 76.472 88.6192 75.86ZM87.7312 71.624C87.7312 70.844 87.2992 70.448 86.6512 70.448C86.0272 70.448 85.5472 70.868 85.5472 71.624C85.5472 72.416 85.9912 72.812 86.6512 72.812C87.2632 72.812 87.7312 72.392 87.7312 71.624ZM93.2905 70.712C92.6425 70.712 92.1625 70.88 91.7305 71.276V75.5H90.7705V71.18L90.6025 69.944L91.5505 69.788L91.6465 70.556H91.6585C92.0425 70.124 92.5465 69.764 93.2905 69.764V70.712ZM98.7373 72.692C98.7373 74.336 97.9573 75.632 96.3373 75.632C94.5613 75.632 93.9373 74.372 93.9373 72.692C93.9373 71.048 94.7173 69.752 96.3373 69.752C98.1133 69.752 98.7373 71.012 98.7373 72.692ZM97.7533 72.716C97.7533 71.324 97.2853 70.592 96.3373 70.592C95.4133 70.592 94.9213 71.24 94.9213 72.656C94.9213 74.048 95.3893 74.792 96.3373 74.792C97.2613 74.792 97.7533 74.132 97.7533 72.716ZM104.691 75.44L103.743 75.596L103.647 74.948H103.635C103.215 75.344 102.663 75.632 101.967 75.632C101.019 75.632 100.263 75.02 100.263 73.868V71.18L100.095 69.944L101.223 69.788V73.532C101.223 74.36 101.535 74.792 102.291 74.792C102.831 74.792 103.215 74.564 103.563 74.24V71.18L103.395 69.944L104.523 69.788V74.204L104.691 75.44ZM110.699 75.5H109.739V71.852C109.739 71.024 109.427 70.604 108.671 70.604C108.131 70.604 107.747 70.832 107.399 71.144V75.5H106.439V71.18L106.271 69.944L107.219 69.788L107.315 70.448H107.327C107.747 70.04 108.299 69.752 108.995 69.752C109.943 69.752 110.699 70.364 110.699 71.516V75.5ZM116.803 75.464L115.879 75.596L115.795 75.032H115.783C115.423 75.332 114.931 75.632 114.271 75.632C113.035 75.632 112.207 74.612 112.207 72.944C112.207 71.012 113.203 69.824 114.907 69.824C115.363 69.824 115.687 69.908 115.687 69.908V68.696L115.507 67.46L116.635 67.304V74.228L116.803 75.464ZM114.607 74.792C115.075 74.792 115.399 74.6 115.687 74.372V70.784C115.687 70.784 115.375 70.628 114.823 70.628C113.731 70.628 113.191 71.552 113.191 72.644C113.191 74 113.551 74.792 114.607 74.792Z" fill="#00157E"/>
<circle cx="32" cy="112" r="16.5" stroke="#00157E" stroke-opacity="0.2"/>
<circle cx="32" cy="112" r="16" fill="white"/>
<path d="M69.895 113.292C69.895 114.912 68.563 115.5 66.811 115.5H65.287V108.324C65.287 108.324 66.199 108.216 67.135 108.216C68.515 108.216 69.355 108.732 69.355 109.872C69.355 110.736 68.815 111.312 68.131 111.612V111.624C69.103 111.732 69.895 112.296 69.895 113.292ZM68.899 113.448C68.899 112.644 68.383 112.164 66.967 112.164H66.271V114.684H67.147C68.131 114.684 68.899 114.312 68.899 113.448ZM68.359 110.1C68.359 109.296 67.843 108.948 66.919 108.948C66.583 108.948 66.271 108.984 66.271 108.984V111.468C67.507 111.444 68.359 111.096 68.359 110.1ZM74.935 115.44L73.975 115.596L73.891 114.936H73.879C73.471 115.32 73.027 115.644 72.355 115.644C71.419 115.644 70.867 115.08 70.867 114.192C70.867 113.184 71.659 112.692 72.799 112.572L73.807 112.464V111.96C73.807 111.18 73.567 110.628 72.643 110.628C72.175 110.628 71.827 110.772 71.479 110.952L71.131 110.244C71.635 109.944 72.151 109.752 72.871 109.752C73.999 109.752 74.755 110.412 74.755 111.528V114.204L74.935 115.44ZM73.807 114.336V113.112L72.931 113.232C72.211 113.328 71.815 113.556 71.815 114.072C71.815 114.54 72.103 114.852 72.583 114.852C73.147 114.852 73.495 114.612 73.807 114.336ZM80.3125 109.992L80.0125 110.856C79.7005 110.736 79.3525 110.628 78.9565 110.628C77.9005 110.628 77.2645 111.42 77.2645 112.608C77.2645 114.108 77.8525 114.792 78.9325 114.792C79.3165 114.792 79.6285 114.66 79.9405 114.528L80.2645 115.308C79.7965 115.524 79.2805 115.632 78.7405 115.632C77.1325 115.632 76.3045 114.48 76.3045 112.764C76.3045 110.7 77.5765 109.752 79.0045 109.752C79.4965 109.752 79.9165 109.836 80.3125 109.992ZM82.5698 115.5H81.6098V108.696L81.4418 107.46L82.5698 107.304V115.5ZM86.1098 115.332L85.1498 115.68L82.5938 112.452L84.6218 109.884H85.7138L83.7218 112.368L86.1098 115.332ZM91.6085 110.592H90.4805C90.6485 110.88 90.7445 111.216 90.7445 111.624C90.7445 112.764 89.9165 113.532 88.7645 113.532C88.5365 113.532 88.3205 113.496 88.1285 113.448C88.1285 113.448 87.7445 113.664 87.7445 114.096C87.7445 114.468 88.0205 114.54 88.4045 114.54H90.0125C90.9965 114.54 91.5725 114.84 91.5725 115.716C91.5725 116.82 90.4445 118.068 88.3925 118.068C87.2165 118.068 86.4965 117.492 86.4965 116.508C86.4965 115.584 87.2525 115.128 87.2525 115.128C87.0125 114.972 86.8565 114.732 86.8565 114.336C86.8565 113.64 87.4565 113.292 87.5765 113.232C87.0485 112.908 86.7605 112.356 86.7605 111.624C86.7605 110.484 87.6005 109.728 88.7645 109.728C89.1965 109.728 89.5925 109.824 89.9045 110.016L91.6085 109.752V110.592ZM90.7325 115.86C90.7325 115.452 90.3845 115.368 89.7965 115.368H88.2845C88.1165 115.368 87.9605 115.356 87.8045 115.332C87.8045 115.332 87.3485 115.692 87.3485 116.292C87.3485 116.94 87.7445 117.288 88.6085 117.288C89.9885 117.288 90.7325 116.472 90.7325 115.86ZM89.8445 111.624C89.8445 110.844 89.4125 110.448 88.7645 110.448C88.1405 110.448 87.6605 110.868 87.6605 111.624C87.6605 112.416 88.1045 112.812 88.7645 112.812C89.3765 112.812 89.8445 112.392 89.8445 111.624ZM95.4038 110.712C94.7558 110.712 94.2758 110.88 93.8438 111.276V115.5H92.8838V111.18L92.7158 109.944L93.6638 109.788L93.7598 110.556H93.7718C94.1558 110.124 94.6598 109.764 95.4038 109.764V110.712ZM100.851 112.692C100.851 114.336 100.071 115.632 98.4506 115.632C96.6746 115.632 96.0506 114.372 96.0506 112.692C96.0506 111.048 96.8306 109.752 98.4506 109.752C100.227 115.632 100.851 111.012 100.851 112.692ZM99.8666 112.716C99.8666 111.324 99.3986 110.592 98.4506 110.592C97.5266 110.592 97.0346 111.24 97.0346 112.656C97.0346 114.048 97.5026 114.792 98.4506 114.792C99.3746 114.792 99.8666 114.132 99.8666 112.716ZM106.804 115.44L105.856 115.596L105.76 114.948H105.748C105.328 115.344 104.776 115.632 104.08 115.632C103.132 115.632 102.376 115.02 102.376 113.868V111.18L102.208 109.944L103.336 109.788V113.532C103.336 114.36 103.648 114.792 104.404 114.792C104.944 114.792 105.328 114.564 105.676 114.24V111.18L105.508 109.944L106.636 109.788V114.204L106.804 115.44ZM112.812 115.5H111.852V111.852C111.852 111.024 111.54 110.604 110.784 110.604C110.244 110.604 109.86 110.832 109.512 111.144V115.5H108.552V111.18L108.384 109.944L109.332 109.788L109.428 110.448H109.44C109.86 110.04 110.412 109.752 111.108 109.752C112.056 109.752 112.812 110.364 112.812 111.516V115.5ZM118.916 115.464L117.992 115.596L117.908 115.032H117.896C117.536 115.332 117.044 115.632 116.384 115.632C115.148 115.632 114.32 114.612 114.32 112.944C114.32 111.012 115.316 109.824 117.02 109.824C117.476 109.824 117.8 109.908 117.8 109.908V108.696L117.62 107.46L118.748 107.304V114.228L118.916 115.464ZM116.72 114.792C117.188 114.792 117.512 114.6 117.8 114.372V110.784C117.8 110.784 117.488 110.628 116.936 110.628C115.844 110.628 115.304 111.552 115.304 112.644C115.304 114 115.664 114.792 116.72 114.792Z" fill="#00157E"/>
</svg>
