<svg width="420" height="24" viewBox="0 0 420 24" fill="none" xmlns="http://www.w3.org/2000/svg">
<g clip-path="url(#clip0_276_338919)">
<path d="M23.154 15.86L22.006 16.182L21.11 13.27H18.366L17.512 16H16.28L19.206 7.572H20.41L23.154 15.86ZM20.858 12.43L19.766 8.79H19.752L18.618 12.43H20.858ZM25.6222 16H24.5022V8.062L24.3062 6.62L25.6222 6.438V16ZM28.9308 16H27.8108V8.062L27.6148 6.62L28.9308 6.438V16ZM38.3848 15.93L37.2648 16.112L37.1668 15.342H37.1528C36.6768 15.79 36.1588 16.168 35.3748 16.168C34.2828 16.168 33.6388 15.51 33.6388 14.474C33.6388 13.298 34.5628 12.724 35.8928 12.584L37.0688 12.458V11.87C37.0688 10.96 36.7888 10.316 35.7108 10.316C35.1648 10.316 34.7588 10.484 34.3528 10.694L33.9468 9.868C34.5348 9.518 35.1368 9.294 35.9768 9.294C37.2928 9.294 38.1748 10.064 38.1748 11.366V14.488L38.3848 15.93ZM37.0688 14.642V13.214L36.0468 13.354C35.2068 13.466 34.7448 13.732 34.7448 14.334C34.7448 14.88 35.0808 15.244 35.6408 15.244C36.2988 15.244 36.7048 14.964 37.0688 14.642ZM44.6585 9.574L44.3085 10.582C43.9445 10.442 43.5385 10.316 43.0765 10.316C41.8445 10.316 41.1025 11.24 41.1025 12.626C41.1025 14.376 41.7885 15.174 43.0485 15.174C43.4965 15.174 43.8605 15.02 44.2245 14.866L44.6025 15.776C44.0565 16.028 43.4545 16.154 42.8245 16.154C40.9485 16.154 39.9825 14.81 39.9825 12.808C39.9825 10.4 41.4665 9.294 43.1325 9.294C43.7065 9.294 44.1965 9.392 44.6585 9.574ZM50.182 9.574L49.832 10.582C49.468 10.442 49.062 10.316 48.6 10.316C47.368 10.316 46.626 11.24 46.626 12.626C46.626 14.376 47.312 15.174 48.572 15.174C49.02 15.174 49.384 15.02 49.748 14.866L50.126 15.776C49.58 16.028 48.978 16.154 48.348 16.154C46.472 16.154 45.506 14.81 45.506 12.808C45.506 10.4 46.99 9.294 48.656 9.294C49.23 9.294 49.72 9.392 50.182 9.574ZM56.6294 12.724C56.6294 14.642 55.7194 16.154 53.8294 16.154C51.7574 16.154 51.0294 14.684 51.0294 12.724C51.0294 10.806 51.9394 9.294 53.8294 9.294C55.9014 9.294 56.6294 10.764 56.6294 12.724ZM55.4814 12.752C55.4814 11.128 54.9354 10.274 53.8294 10.274C52.7514 10.274 52.1774 11.03 52.1774 12.682C52.1774 14.306 52.7234 15.174 53.8294 15.174C54.9074 15.174 55.4814 14.404 55.4814 12.752ZM63.5751 15.93L62.4691 16.112L62.3571 15.356H62.3431C61.8531 15.818 61.2091 16.154 60.3971 16.154C59.2911 16.154 58.4091 15.44 58.4091 14.096V10.96L58.2131 9.518L59.5291 9.336V13.704C59.5291 14.67 59.8931 15.174 60.7751 15.174C61.4051 15.174 61.8531 14.908 62.2591 14.53V10.96L62.0631 9.518L63.3791 9.336V14.488L63.5751 15.93ZM70.5841 16H69.4641V11.744C69.4641 10.778 69.1001 10.288 68.2181 10.288C67.5881 10.288 67.1401 10.554 66.7341 10.918V16H65.6141V10.96L65.4181 9.518L66.5241 9.336L66.6361 10.106H66.6501C67.1401 9.63 67.7841 9.294 68.5961 9.294C69.7021 9.294 70.5841 10.008 70.5841 11.352V16ZM76.0679 15.734C75.6619 15.958 75.2839 16.14 74.5699 16.14C73.5619 16.14 72.9179 15.482 72.9179 14.362V10.358H71.9519V9.616L72.9179 9.42V8.328L74.0239 8.188V9.448H75.8579V10.358H74.0239V13.984C74.0239 14.866 74.2479 15.146 74.8919 15.146C75.2419 15.146 75.5079 15.006 75.7039 14.88L76.0679 15.734ZM81.3574 14.096C81.3574 15.286 80.4194 16.14 79.0194 16.14C78.3474 16.14 77.6754 16.042 77.1434 15.79L77.4794 14.81C77.9414 15.02 78.4594 15.188 78.9634 15.188C79.7194 15.188 80.2234 14.894 80.2234 14.278C80.2234 13.802 79.9714 13.606 79.5374 13.41L78.3194 12.85C77.8854 12.654 77.1014 12.262 77.1014 11.128C77.1014 9.882 78.1934 9.294 79.3834 9.294C80.0974 9.294 80.6014 9.406 81.1614 9.644L80.7834 10.61C80.3354 10.414 79.9014 10.274 79.3694 10.274C78.6554 10.274 78.1934 10.498 78.1934 11.058C78.1934 11.548 78.6134 11.744 78.8794 11.87L80.1254 12.458C80.9934 12.864 81.3574 13.382 81.3574 14.096Z" fill="#00157E" fill-opacity="0.7"/>
</g>
<path d="M326.432 12.072C326.432 14.136 325.268 15.156 323.708 15.156C322.04 15.156 320.972 14.316 320.972 12.048V7.776H322.004V12.096C322.004 13.524 322.556 14.196 323.672 14.196C324.788 14.196 325.472 13.512 325.472 12.12V7.776H326.432V12.072ZM332.314 12.972C332.314 14.232 331.438 15.132 329.986 15.132C329.242 15.132 328.582 14.976 328.018 14.736L328.33 13.86C328.798 14.076 329.35 14.256 329.914 14.256C330.79 14.256 331.354 13.92 331.354 13.128C331.354 12.54 330.922 12.252 330.346 11.976L329.218 11.436C328.462 11.076 327.946 10.608 327.946 9.588C327.946 8.352 329.026 7.644 330.274 7.644C330.946 7.644 331.378 7.752 332.002 7.98L331.666 8.832C331.282 8.652 330.862 8.484 330.334 8.484C329.59 8.484 328.918 8.784 328.918 9.552C328.918 10.068 329.23 10.32 329.71 10.548L330.862 11.112C331.774 11.556 332.314 12.048 332.314 12.972ZM339.469 10.932C339.469 13.572 337.885 15 335.317 15H333.805V7.824C333.805 7.824 334.801 7.704 335.869 7.704C338.101 7.704 339.469 8.868 339.469 10.932ZM338.425 11.076C338.425 9.372 337.273 8.556 335.701 8.556C335.197 8.556 334.813 8.58 334.813 8.58V14.1H335.509C337.225 14.1 338.425 13.08 338.425 11.076Z" fill="#00157E" fill-opacity="0.7"/>
<path d="M355.039 15.44C355.039 17.12 353.961 18.184 352.113 18.184C351.567 18.184 350.993 18.086 350.475 17.96L350.727 16.91C351.189 17.05 351.581 17.162 352.141 17.162C353.247 17.162 353.919 16.616 353.919 15.608C353.919 14.236 352.659 13.704 350.881 13.704V12.906C352.953 12.78 353.527 11.856 353.527 10.946C353.527 10.148 353.037 9.7 352.253 9.7C351.609 9.7 351.231 9.91 350.811 10.19L350.349 9.42C350.853 9.028 351.497 8.706 352.477 8.706C353.821 8.706 354.647 9.504 354.647 10.806C354.647 11.94 353.989 12.696 353.051 13.144V13.158C354.423 13.452 355.039 14.362 355.039 15.44ZM360.948 14.74C360.948 17.428 358.414 18.184 356.608 18.324L356.468 17.372C357.742 17.232 359.8 16.728 359.8 14.894C359.8 13.746 359.156 13.074 357.364 13.074H356.426L356.734 8.86H360.724V9.882H357.7L357.518 12.234C357.518 12.234 357.84 12.206 358.134 12.206C359.758 12.206 360.948 13.06 360.948 14.74ZM363.984 8.37C363.984 9.392 363.564 10.176 362.71 10.68L362.388 10.26C362.808 9.952 363.032 9.56 363.102 9.056C362.71 9 362.374 8.664 362.374 8.258C362.374 7.796 362.738 7.446 363.186 7.446C363.634 7.446 363.984 7.81 363.984 8.37ZM371.229 12.43C371.229 14.292 370.501 16.154 368.387 16.154C366.259 16.154 365.531 14.292 365.531 12.43C365.531 10.568 366.259 8.706 368.387 8.706C370.501 8.706 371.229 10.568 371.229 12.43ZM370.081 12.43C370.081 10.862 369.563 9.686 368.387 9.686C367.197 9.686 366.679 10.862 366.679 12.43C366.679 13.998 367.197 15.174 368.387 15.174C369.563 15.174 370.081 13.998 370.081 12.43ZM378.434 12.43C378.434 14.292 377.706 16.154 375.592 16.154C373.464 16.154 372.736 14.292 372.736 12.43C372.736 10.568 373.464 8.706 375.592 8.706C377.706 8.706 378.434 10.568 378.434 12.43ZM377.286 12.43C377.286 10.862 376.768 9.686 375.592 9.686C374.402 9.686 373.884 10.862 373.884 12.43C373.884 13.998 374.402 15.174 375.592 15.174C376.768 15.174 377.286 13.998 377.286 12.43ZM385.64 12.43C385.64 14.292 384.912 16.154 382.798 16.154C380.67 16.154 379.942 14.292 379.942 12.43C379.942 10.568 380.67 8.706 382.798 8.706C384.912 8.706 385.64 10.568 385.64 12.43ZM384.492 12.43C384.492 10.862 383.974 9.686 382.798 9.686C381.608 9.686 381.09 10.862 381.09 12.43C381.09 13.998 381.608 15.174 382.798 15.174C383.974 15.174 384.492 13.998 384.492 12.43ZM388.799 15.286C388.799 15.734 388.435 16.098 388.001 16.098C387.553 16.098 387.189 15.734 387.189 15.286C387.189 14.852 387.553 14.488 388.001 14.488C388.435 14.488 388.799 14.852 388.799 15.286ZM396.044 12.43C396.044 14.292 395.316 16.154 393.202 16.154C391.074 16.154 390.346 14.292 390.346 12.43C390.346 10.568 391.074 8.706 393.202 8.706C395.316 8.706 396.044 10.568 396.044 12.43ZM394.896 12.43C394.896 10.862 394.378 9.686 393.202 9.686C392.012 9.686 391.494 10.862 391.494 12.43C391.494 13.998 392.012 15.174 393.202 15.174C394.378 15.174 394.896 13.998 394.896 12.43ZM403.249 12.43C403.249 14.292 402.521 16.154 400.407 16.154C398.279 16.154 397.551 14.292 397.551 12.43C397.551 10.568 398.279 8.706 400.407 8.706C402.521 8.706 403.249 10.568 403.249 12.43ZM402.101 12.43C402.101 10.862 401.583 9.686 400.407 9.686C399.217 9.686 398.699 10.862 398.699 12.43C398.699 13.998 399.217 15.174 400.407 15.174C401.583 15.174 402.101 13.998 402.101 12.43Z" fill="#00157E" fill-opacity="0.7"/>
<defs>
<clipPath id="clip0_276_338919">
<rect width="292" height="24" fill="white" transform="translate(16)"/>
</clipPath>
</defs>
</svg>
