<svg width="555" height="260" viewBox="0 0 555 260" fill="none" xmlns="http://www.w3.org/2000/svg">
<path d="M23.154 15.861L22.006 16.183L21.11 13.271H18.366L17.512 16.001H16.28L19.206 7.57298H20.41L23.154 15.861ZM20.858 12.431L19.766 8.79098H19.752L18.618 12.431H20.858ZM28.7582 9.57498L28.4082 10.583C28.0442 10.443 27.6382 10.317 27.1762 10.317C25.9442 10.317 25.2022 11.241 25.2022 12.627C25.2022 14.377 25.8882 15.175 27.1482 15.175C27.5962 15.175 27.9602 15.021 28.3242 14.867L28.7022 15.777C28.1562 16.029 27.5542 16.155 26.9242 16.155C25.0482 16.155 24.0822 14.811 24.0822 12.809C24.0822 10.401 25.5662 9.29498 27.2322 9.29498C27.8062 9.29498 28.2962 9.39298 28.7582 9.57498ZM34.2816 9.57498L33.9316 10.583C33.5676 10.443 33.1616 10.317 32.6996 10.317C31.4676 10.317 30.7256 11.241 30.7256 12.627C30.7256 14.377 31.4116 15.175 32.6716 15.175C33.1196 15.175 33.4836 15.021 33.8476 14.867L34.2256 15.777C33.6796 16.029 33.0776 16.155 32.4476 16.155C30.5716 16.155 29.6056 14.811 29.6056 12.809C29.6056 10.401 31.0896 9.29498 32.7556 9.29498C33.3296 9.29498 33.8196 9.39298 34.2816 9.57498ZM40.729 12.725C40.729 14.643 39.819 16.155 37.929 16.155C35.857 16.155 35.129 14.685 35.129 12.725C35.129 10.807 36.039 9.29498 37.929 9.29498C40.001 9.29498 40.729 10.765 40.729 12.725ZM39.581 12.753C39.581 11.129 39.035 10.275 37.929 10.275C36.851 10.275 36.277 11.031 36.277 12.683C36.277 14.307 36.823 15.175 37.929 15.175C39.007 15.175 39.581 14.405 39.581 12.753ZM47.6747 15.931L46.5687 16.113L46.4567 15.357H46.4427C45.9527 15.819 45.3087 16.155 44.4967 16.155C43.3907 16.155 42.5087 15.441 42.5087 14.097V10.961L42.3127 9.51898L43.6287 9.33698V13.705C43.6287 14.671 43.9927 15.175 44.8747 15.175C45.5047 15.175 45.9527 14.909 46.3587 14.531V10.961L46.1627 9.51898L47.4787 9.33698V14.489L47.6747 15.931ZM54.6838 16.001H53.5638V11.745C53.5638 10.779 53.1998 10.289 52.3178 10.289C51.6878 10.289 51.2398 10.555 50.8338 10.919V16.001H49.7138V10.961L49.5177 9.51898L50.6238 9.33698L50.7358 10.107H50.7498C51.2398 9.63098 51.8838 9.29498 52.6958 9.29498C53.8018 9.29498 54.6838 10.009 54.6838 11.353V16.001ZM60.1675 15.735C59.7615 15.959 59.3835 16.141 58.6695 16.141C57.6615 16.141 57.0175 15.483 57.0175 14.363V10.359H56.0515V9.61698L57.0175 9.42098V8.32898L58.1235 8.18898V9.44898H59.9575V10.359H58.1235V13.985C58.1235 14.867 58.3475 15.147 58.9915 15.147C59.3415 15.147 59.6075 15.007 59.8035 14.881L60.1675 15.735ZM65.457 14.097C65.457 15.287 64.519 16.141 63.119 16.141C62.447 16.141 61.775 16.043 61.243 15.791L61.579 14.811C62.041 15.021 62.559 15.189 63.063 15.189C63.819 15.189 64.323 14.895 64.323 14.279C64.323 13.803 64.071 13.607 63.637 13.411L62.419 12.851C61.985 12.655 61.201 12.263 61.201 11.129C61.201 9.88298 62.293 9.29498 63.483 9.29498C64.197 9.29498 64.701 9.40698 65.261 9.64498L64.883 10.611C64.435 10.415 64.001 10.275 63.469 10.275C62.755 10.275 62.293 10.499 62.293 11.059C62.293 11.549 62.713 11.745 62.979 11.871L64.225 12.459C65.093 12.865 65.457 13.383 65.457 14.097ZM77.5449 15.441L76.9149 16.239L75.1089 14.797C74.5209 15.623 73.6389 16.169 72.3229 16.169C70.9229 16.169 69.9709 15.385 69.9709 14.083C69.9709 13.005 70.5309 12.417 71.3709 11.703C70.7409 11.087 70.3629 10.471 70.3629 9.60298C70.3629 8.21698 71.3009 7.43298 72.5049 7.43298C73.5269 7.43298 74.2689 8.10498 74.2689 9.16898C74.2689 10.317 73.7509 10.849 72.7989 11.619L74.8849 13.313C75.0949 12.711 75.1369 12.235 75.1929 11.339H77.4889V12.221H75.9909C75.9629 12.795 75.8089 13.369 75.6129 13.887L77.5449 15.441ZM74.4089 14.237L72.1689 12.389C72.0989 12.333 72.0009 12.263 72.0009 12.263C71.4829 12.655 71.0069 13.187 71.0069 13.873C71.0069 14.699 71.5949 15.273 72.4909 15.273C73.3869 15.273 73.9889 14.825 74.4089 14.237ZM73.3169 9.28098C73.3169 8.73498 72.9949 8.28698 72.4069 8.28698C71.7629 8.28698 71.3429 8.70698 71.3429 9.51898C71.3429 10.093 71.5249 10.527 72.1689 11.129C72.9109 10.541 73.3169 10.121 73.3169 9.28098ZM83.3325 16.001H82.2125V10.961L82.0165 9.51898L83.3325 9.33698V16.001ZM83.5565 7.74098C83.5565 8.18898 83.2065 8.52498 82.7865 8.52498C82.3525 8.52498 81.9885 8.18898 81.9885 7.74098C81.9885 7.29298 82.3525 6.94298 82.7865 6.94298C83.2065 6.94298 83.5565 7.29298 83.5565 7.74098ZM90.5451 16.001H89.4251V11.745C89.4251 10.779 89.0611 10.289 88.1791 10.289C87.5491 10.289 87.1011 10.555 86.6951 10.919V16.001H85.5751V10.961L85.3791 9.51898L86.4851 9.33698L86.5971 10.107H86.6111C87.1011 9.63098 87.7451 9.29498 88.5571 9.29498C89.6631 9.29498 90.5451 10.009 90.5451 11.353V16.001ZM97.3764 9.44898L95.0104 15.987L93.9044 16.029L91.7484 9.54698L92.8684 9.26698L94.5064 14.545H94.5204L96.2564 9.44898H97.3764ZM103.182 15.651C102.552 16.001 101.908 16.155 101.11 16.155C99.1777 16.155 98.1837 14.853 98.1837 12.683C98.1837 10.653 99.2477 9.29498 100.9 9.29498C102.482 9.29498 103.126 10.345 103.126 11.787V12.571H99.2757C99.2897 14.321 99.9197 15.161 101.348 15.161C101.894 15.161 102.314 15.007 102.79 14.769L103.182 15.651ZM102.076 11.787C102.076 10.807 101.712 10.191 100.844 10.191C100.004 10.191 99.4717 10.849 99.3317 11.787H102.076ZM108.646 14.097C108.646 15.287 107.708 16.141 106.308 16.141C105.636 16.141 104.964 16.043 104.432 15.791L104.768 14.811C105.23 15.021 105.748 15.189 106.252 15.189C107.008 15.189 107.512 14.895 107.512 14.279C107.512 13.803 107.26 13.607 106.826 13.411L105.608 12.851C105.174 12.655 104.39 12.263 104.39 11.129C104.39 9.88298 105.482 9.29498 106.672 9.29498C107.386 9.29498 107.89 9.40698 108.45 9.64498L108.072 10.611C107.624 10.415 107.19 10.275 106.658 10.275C105.944 10.275 105.482 10.499 105.482 11.059C105.482 11.549 105.902 11.745 106.168 11.871L107.414 12.459C108.282 12.865 108.646 13.383 108.646 14.097ZM113.693 15.735C113.287 15.959 112.909 16.141 112.195 16.141C111.187 16.141 110.543 15.483 110.543 14.363V10.359H109.577V9.61698L110.543 9.42098V8.32898L111.649 8.18898V9.44898H113.483V10.359H111.649V13.985C111.649 14.867 111.873 15.147 112.517 15.147C112.867 15.147 113.133 15.007 113.329 14.881L113.693 15.735ZM123.994 16.001H122.888V11.745C122.888 10.779 122.524 10.289 121.628 10.289C120.998 10.289 120.466 10.597 120.116 10.947C120.116 10.947 120.158 11.185 120.158 11.437V16.001H119.038V11.745C119.038 10.779 118.674 10.289 117.792 10.289C117.162 10.289 116.714 10.541 116.308 10.919V16.001H115.188V10.961L114.992 9.51898L116.098 9.33698L116.21 10.107H116.224C116.714 9.63098 117.358 9.29498 118.17 9.29498C118.926 9.29498 119.556 9.63098 119.892 10.233H119.906C120.424 9.71498 121.096 9.29498 122.02 9.29498C123.14 9.29498 123.994 10.009 123.994 11.353V16.001ZM130.772 15.651C130.142 16.001 129.498 16.155 128.7 16.155C126.768 16.155 125.774 14.853 125.774 12.683C125.774 10.653 126.838 9.29498 128.49 9.29498C130.072 9.29498 130.716 10.345 130.716 11.787V12.571H126.866C126.88 14.321 127.51 15.161 128.938 15.161C129.484 15.161 129.904 15.007 130.38 14.769L130.772 15.651ZM129.666 11.787C129.666 10.807 129.302 10.191 128.434 10.191C127.594 10.191 127.062 10.849 126.922 11.787H129.666ZM137.412 16.001H136.292V11.745C136.292 10.779 135.928 10.289 135.046 10.289C134.416 10.289 133.968 10.555 133.562 10.919V16.001H132.442V10.961L132.246 9.51898L133.352 9.33698L133.464 10.107H133.478C133.968 9.63098 134.612 9.29498 135.424 9.29498C136.53 9.29498 137.412 10.009 137.412 11.353V16.001ZM142.896 15.735C142.49 15.959 142.112 16.141 141.398 16.141C140.39 16.141 139.746 15.483 139.746 14.363V10.359H138.78V9.61698L139.746 9.42098V8.32898L140.852 8.18898V9.44898H142.686V10.359H140.852V13.985C140.852 14.867 141.076 15.147 141.72 15.147C142.07 15.147 142.336 15.007 142.532 14.881L142.896 15.735Z" fill="#00157E" fill-opacity="0.7"/>
<path d="M462.631 14.629C461.959 14.977 461.275 15.133 460.363 15.133C458.599 15.133 457.243 13.945 457.243 11.545C457.243 8.98898 458.755 7.64498 460.699 7.64498C461.503 7.64498 461.995 7.76498 462.607 8.02898L462.223 8.90498C461.767 8.70098 461.335 8.54498 460.687 8.54498C459.427 8.54498 458.275 9.51698 458.275 11.293C458.275 13.273 459.007 14.245 460.759 14.245C461.335 14.245 461.863 14.017 462.295 13.825L462.631 14.629ZM469.153 15.001H468.145V11.701H464.893V15.001H463.885V7.77698H464.893V10.849H468.145V7.77698H469.153V15.001ZM474.739 8.62898H472.147V10.981H474.487V11.833H472.147V15.001H471.151V7.77698H474.739V8.62898Z" fill="#00157E" fill-opacity="0.7"/>
<path d="M489.751 13.439C489.751 15.091 488.771 16.155 487.189 16.155C485.397 16.155 484.641 14.825 484.641 12.851C484.641 9.04298 486.881 7.47498 489.317 7.27898L489.457 8.20298C487.777 8.38498 486.097 9.29498 485.775 11.633L485.789 11.647C485.789 11.647 486.503 11.031 487.469 11.031C488.939 11.031 489.751 11.969 489.751 13.439ZM488.645 13.663C488.645 12.473 488.183 11.969 487.161 11.969C486.363 11.969 485.775 12.529 485.775 12.529V12.795C485.775 14.363 486.181 15.231 487.287 15.231C488.211 15.231 488.645 14.573 488.645 13.663ZM495.615 14.741C495.615 17.429 493.081 18.185 491.275 18.325L491.135 17.373C492.409 17.233 494.467 16.729 494.467 14.895C494.467 13.747 493.823 13.075 492.031 13.075H491.093L491.401 8.86098H495.391V9.88298H492.367L492.185 12.235C492.185 12.235 492.507 12.207 492.801 12.207C494.425 12.207 495.615 13.061 495.615 14.741ZM498.651 8.37098C498.651 9.39298 498.231 10.177 497.377 10.681L497.055 10.261C497.475 9.95298 497.699 9.56098 497.769 9.05698C497.377 9.00098 497.041 8.66498 497.041 8.25898C497.041 7.79698 497.405 7.44698 497.853 7.44698C498.301 7.44698 498.651 7.81098 498.651 8.37098ZM505.896 12.431C505.896 14.293 505.168 16.155 503.054 16.155C500.926 16.155 500.198 14.293 500.198 12.431C500.198 10.569 500.926 8.70698 503.054 8.70698C505.168 8.70698 505.896 10.569 505.896 12.431ZM504.748 12.431C504.748 10.863 504.23 9.68698 503.054 9.68698C501.864 9.68698 501.346 10.863 501.346 12.431C501.346 13.999 501.864 15.175 503.054 15.175C504.23 15.175 504.748 13.999 504.748 12.431ZM513.101 12.431C513.101 14.293 512.373 16.155 510.259 16.155C508.131 16.155 507.403 14.293 507.403 12.431C507.403 10.569 508.131 8.70698 510.259 8.70698C512.373 8.70698 513.101 10.569 513.101 12.431ZM511.953 12.431C511.953 10.863 511.435 9.68698 510.259 9.68698C509.069 9.68698 508.551 10.863 508.551 12.431C508.551 13.999 509.069 15.175 510.259 15.175C511.435 15.175 511.953 13.999 511.953 12.431ZM520.306 12.431C520.306 14.293 519.578 16.155 517.464 16.155C515.336 16.155 514.608 14.293 514.608 12.431C514.608 10.569 515.336 8.70698 517.464 8.70698C519.578 8.70698 520.306 10.569 520.306 12.431ZM519.158 12.431C519.158 10.863 518.64 9.68698 517.464 9.68698C516.274 9.68698 515.756 10.863 515.756 12.431C515.756 13.999 516.274 15.175 517.464 15.175C518.64 15.175 519.158 13.999 519.158 12.431ZM523.465 15.287C523.465 15.735 523.101 16.099 522.667 16.099C522.219 16.099 521.855 15.735 521.855 15.287C521.855 14.853 522.219 14.489 522.667 14.489C523.101 14.489 523.465 14.853 523.465 15.287ZM530.711 12.431C530.711 14.293 529.983 16.155 527.869 16.155C525.741 16.155 525.013 14.293 525.013 12.431C525.013 10.569 525.741 8.70698 527.869 8.70698C529.983 8.70698 530.711 10.569 530.711 12.431ZM529.563 12.431C529.563 10.863 529.045 9.68698 527.869 9.68698C526.679 9.68698 526.161 10.863 526.161 12.431C526.161 13.999 526.679 15.175 527.869 15.175C529.045 15.175 529.563 13.999 529.563 12.431ZM537.916 12.431C537.916 14.293 537.188 16.155 535.074 16.155C532.946 16.155 532.218 14.293 532.218 12.431C532.218 10.569 532.946 8.70698 535.074 8.70698C537.188 8.70698 537.916 10.569 537.916 12.431ZM536.768 12.431C536.768 10.863 536.25 9.68698 535.074 9.68698C533.884 9.68698 533.366 10.863 533.366 12.431C533.366 13.999 533.884 15.175 535.074 15.175C536.25 15.175 536.768 13.999 536.768 12.431Z" fill="#00157E" fill-opacity="0.7"/>
<g clip-path="url(#clip0_382_4410)">
<path d="M0 36.001C0 31.5827 3.58172 28.001 8 28.001H546.667C551.085 28.001 554.667 31.5827 554.667 36.001V252.002C554.667 256.42 551.085 260.002 546.667 260.002H8C3.58172 260.002 0 256.42 0 252.002V36.001Z" fill="white"/>
<path d="M0 36.002C0 31.5837 3.58172 28.002 8 28.002H546.667C551.085 28.002 554.667 31.5837 554.667 36.002V84.002H0V36.002Z" fill="white"/>
<path d="M19 53.002L28 46.002L37 53.002V64.002C37 64.5324 36.7893 65.0411 36.4142 65.4162C36.0391 65.7912 35.5304 66.002 35 66.002H21C20.4696 66.002 19.9609 65.7912 19.5858 65.4162C19.2107 65.0411 19 64.5324 19 64.002V53.002Z" stroke="#00157E" stroke-width="2" stroke-linecap="round" stroke-linejoin="round"/>
<path d="M25 66.002V56.002H31V66.002" stroke="#00157E" stroke-width="2" stroke-linecap="round" stroke-linejoin="round"/>
<path d="M61.726 49.636C61.726 51.106 60.704 52.156 59.01 52.156C58.142 52.156 57.372 51.974 56.714 51.694L57.078 50.672C57.624 50.924 58.268 51.134 58.926 51.134C59.948 51.134 60.606 50.742 60.606 49.818C60.606 49.132 60.102 48.796 59.43 48.474L58.114 47.844C57.232 47.424 56.63 46.878 56.63 45.688C56.63 44.246 57.89 43.42 59.346 43.42C60.13 43.42 60.634 43.546 61.362 43.812L60.97 44.806C60.522 44.596 60.032 44.4 59.416 44.4C58.548 44.4 57.764 44.75 57.764 45.646C57.764 46.248 58.128 46.542 58.688 46.808L60.032 47.466C61.096 47.984 61.726 48.558 61.726 49.636ZM67.7207 51.932L66.6007 52.114L66.5027 51.344H66.4887C66.0127 51.792 65.4947 52.17 64.7107 52.17C63.6187 52.17 62.9747 51.512 62.9747 50.476C62.9747 49.3 63.8987 48.726 65.2287 48.586L66.4047 48.46V47.872C66.4047 46.962 66.1247 46.318 65.0467 46.318C64.5007 46.318 64.0947 46.486 63.6887 46.696L63.2827 45.87C63.8707 45.52 64.4727 45.296 65.3127 45.296C66.6287 45.296 67.5107 46.066 67.5107 47.368V50.49L67.7207 51.932ZM66.4047 50.644V49.216L65.3827 49.356C64.5427 49.468 64.0807 49.734 64.0807 50.336C64.0807 50.882 64.4167 51.246 64.9767 51.246C65.6347 51.246 66.0407 50.966 66.4047 50.644ZM74.3901 45.45L72.0241 51.988L70.9181 52.03L68.7621 45.548L69.8821 45.268L71.5201 50.546H71.5341L73.2701 45.45H74.3901ZM76.9301 52.002H75.8101V46.962L75.6141 45.52L76.9301 45.338V52.002ZM77.1541 43.742C77.1541 44.19 76.8041 44.526 76.3841 44.526C75.9501 44.526 75.5861 44.19 75.5861 43.742C75.5861 43.294 75.9501 42.944 76.3841 42.944C76.8041 42.944 77.1541 43.294 77.1541 43.742ZM84.1427 52.002H83.0227V47.746C83.0227 46.78 82.6587 46.29 81.7767 46.29C81.1467 46.29 80.6987 46.556 80.2927 46.92V52.002H79.1727V46.962L78.9767 45.52L80.0827 45.338L80.1947 46.108H80.2087C80.6987 45.632 81.3427 45.296 82.1547 45.296C83.2607 45.296 84.1427 46.01 84.1427 47.354V52.002ZM91.6985 46.276H90.3825C90.5785 46.612 90.6905 47.004 90.6905 47.48C90.6905 48.81 89.7245 49.706 88.3805 49.706C88.1145 49.706 87.8625 49.664 87.6385 49.608C87.6385 49.608 87.1905 49.86 87.1905 50.364C87.1905 50.798 87.5125 50.882 87.9605 50.882H89.8365C90.9845 50.882 91.6565 51.232 91.6565 52.254C91.6565 53.542 90.3405 54.998 87.9465 54.998C86.5745 54.998 85.7345 54.326 85.7345 53.178C85.7345 52.1 86.6165 51.568 86.6165 51.568C86.3365 51.386 86.1545 51.106 86.1545 50.644C86.1545 49.832 86.8545 49.426 86.9945 49.356C86.3785 48.978 86.0425 48.334 86.0425 47.48C86.0425 46.15 87.0225 45.268 88.3805 45.268C88.8845 45.268 89.3465 45.38 89.7105 45.604L91.6985 45.296V46.276ZM90.6765 52.422C90.6765 51.946 90.2705 51.848 89.5845 51.848H87.8205C87.6245 51.848 87.4425 51.834 87.2605 51.806C87.2605 51.806 86.7285 52.226 86.7285 52.926C86.7285 53.682 87.1905 54.088 88.1985 54.088C89.8085 54.088 90.6765 53.136 90.6765 52.422ZM89.6405 47.48C89.6405 46.57 89.1365 46.108 88.3805 46.108C87.6525 46.108 87.0925 46.598 87.0925 47.48C87.0925 48.404 87.6105 48.866 88.3805 48.866C89.0945 48.866 89.6405 48.376 89.6405 47.48ZM96.9804 50.098C96.9804 51.288 96.0424 52.142 94.6424 52.142C93.9704 52.142 93.2984 52.044 92.7664 51.792L93.1024 50.812C93.5644 51.022 94.0824 51.19 94.5864 51.19C95.3424 51.19 95.8464 50.896 95.8464 50.28C95.8464 49.804 95.5944 49.608 95.1604 49.412L93.9424 48.852C93.5084 48.656 92.7244 48.264 92.7244 47.13C92.7244 45.884 93.8164 45.296 95.0064 45.296C95.7204 45.296 96.2244 45.408 96.7844 45.646L96.4064 46.612C95.9584 46.416 95.5244 46.276 94.9924 46.276C94.2784 46.276 93.8164 46.5 93.8164 47.06C93.8164 47.55 94.2364 47.746 94.5024 47.872L95.7484 48.46C96.6164 48.866 96.9804 49.384 96.9804 50.098ZM105.988 51.932L104.868 52.114L104.77 51.344H104.756C104.28 51.792 103.762 52.17 102.978 52.17C101.886 52.17 101.242 51.512 101.242 50.476C101.242 49.3 102.166 48.726 103.496 48.586L104.672 48.46V47.872C104.672 46.962 104.392 46.318 103.314 46.318C102.768 46.318 102.362 46.486 101.956 46.696L101.55 45.87C102.138 45.52 102.74 45.296 103.58 45.296C104.896 45.296 105.778 46.066 105.778 47.368V50.49L105.988 51.932ZM104.672 50.644V49.216L103.65 49.356C102.81 49.468 102.348 49.734 102.348 50.336C102.348 50.882 102.684 51.246 103.244 51.246C103.902 51.246 104.308 50.966 104.672 50.644ZM112.262 45.576L111.912 46.584C111.548 46.444 111.142 46.318 110.68 46.318C109.448 46.318 108.706 47.242 108.706 48.628C108.706 50.378 109.392 51.176 110.652 51.176C111.1 51.176 111.464 51.022 111.828 50.868L112.206 51.778C111.66 52.03 111.058 52.156 110.428 52.156C108.552 52.156 107.586 50.812 107.586 48.81C107.586 46.402 109.07 45.296 110.736 45.296C111.31 45.296 111.8 45.394 112.262 45.576ZM117.786 45.576L117.436 46.584C117.072 46.444 116.666 46.318 116.204 46.318C114.972 46.318 114.23 47.242 114.23 48.628C114.23 50.378 114.916 51.176 116.176 51.176C116.624 51.176 116.988 51.022 117.352 50.868L117.73 51.778C117.184 52.03 116.582 52.156 115.952 52.156C114.076 52.156 113.11 50.812 113.11 48.81C113.11 46.402 114.594 45.296 116.26 45.296C116.834 45.296 117.324 45.394 117.786 45.576ZM124.233 48.726C124.233 50.644 123.323 52.156 121.433 52.156C119.361 52.156 118.633 50.686 118.633 48.726C118.633 46.808 119.543 45.296 121.433 45.296C123.505 45.296 124.233 46.766 124.233 48.726ZM123.085 48.754C123.085 47.13 122.539 46.276 121.433 46.276C120.355 46.276 119.781 47.032 119.781 48.684C119.781 50.308 120.327 51.176 121.433 51.176C122.511 51.176 123.085 50.406 123.085 48.754ZM131.179 51.932L130.073 52.114L129.961 51.358H129.947C129.457 51.82 128.813 52.156 128.001 52.156C126.895 52.156 126.013 51.442 126.013 50.098V46.962L125.817 45.52L127.133 45.338V49.706C127.133 50.672 127.497 51.176 128.379 51.176C129.009 51.176 129.457 50.91 129.863 50.532V46.962L129.667 45.52L130.983 45.338V50.49L131.179 51.932ZM138.188 52.002H137.068V47.746C137.068 46.78 136.704 46.29 135.822 46.29C135.192 46.29 134.744 46.556 134.338 46.92V52.002H133.218V46.962L133.022 45.52L134.128 45.338L134.24 46.108H134.254C134.744 45.632 135.388 45.296 136.2 45.296C137.306 45.296 138.188 46.01 138.188 47.354V52.002ZM143.671 51.736C143.265 51.96 142.887 52.142 142.173 52.142C141.165 52.142 140.521 51.484 140.521 50.364V46.36H139.555V45.618L140.521 45.422V44.33L141.627 44.19V45.45H143.461V46.36H141.627V49.986C141.627 50.868 141.851 51.148 142.495 51.148C142.845 51.148 143.111 51.008 143.307 50.882L143.671 51.736Z" fill="#00157E"/>
<path d="M61.964 66.63C61.292 66.978 60.608 67.134 59.696 67.134C57.932 67.134 56.576 65.946 56.576 63.546C56.576 60.99 58.088 59.646 60.032 59.646C60.836 59.646 61.328 59.766 61.94 60.03L61.556 60.906C61.1 60.702 60.668 60.546 60.02 60.546C58.76 60.546 57.608 61.518 57.608 63.294C57.608 65.274 58.34 66.246 60.092 66.246C60.668 66.246 61.196 66.018 61.628 65.826L61.964 66.63ZM68.4867 67.002H67.4787V63.702H64.2267V67.002H63.2187V59.778H64.2267V62.85H67.4787V59.778H68.4867V67.002ZM73.9043 66.522C73.9043 67.962 72.9803 68.874 71.3963 68.874C70.9283 68.874 70.4363 68.79 69.9923 68.682L70.2083 67.782C70.6043 67.902 70.9403 67.998 71.4203 67.998C72.3683 67.998 72.9443 67.53 72.9443 66.666C72.9443 65.49 71.8643 65.034 70.3403 65.034V64.35C72.1163 64.242 72.6083 63.45 72.6083 62.67C72.6083 61.986 72.1883 61.602 71.5163 61.602C70.9643 61.602 70.6403 61.782 70.2803 62.022L69.8843 61.362C70.3163 61.026 70.8683 60.75 71.7083 60.75C72.8603 60.75 73.5683 61.434 73.5683 62.55C73.5683 63.522 73.0043 64.17 72.2003 64.554V64.566C73.3763 64.818 73.9043 65.598 73.9043 66.522ZM78.9696 65.922C78.9696 68.226 76.7976 68.874 75.2496 68.994L75.1296 68.178C76.2216 68.058 77.9856 67.626 77.9856 66.054C77.9856 65.07 77.4336 64.494 75.8976 64.494H75.0936L75.3576 60.882H78.7776V61.758H76.1856L76.0296 63.774C76.0296 63.774 76.3056 63.75 76.5576 63.75C77.9496 63.75 78.9696 64.482 78.9696 65.922ZM87.5593 63.942C87.5593 65.538 86.9353 67.134 85.1233 67.134C83.2993 67.134 82.6753 65.538 82.6753 63.942C82.6753 62.346 83.2993 60.75 85.1233 60.75C86.9353 60.75 87.5593 62.346 87.5593 63.942ZM86.5753 63.942C86.5753 62.598 86.1313 61.59 85.1233 61.59C84.1033 61.59 83.6593 62.598 83.6593 63.942C83.6593 65.286 84.1033 66.294 85.1233 66.294C86.1313 66.294 86.5753 65.286 86.5753 63.942ZM93.1231 63.846C93.1231 67.158 91.4431 68.706 89.0551 68.994L88.8631 68.214C90.3751 68.034 91.8991 67.062 92.1151 64.77L92.1031 64.758C92.1031 64.758 91.5391 65.238 90.6871 65.238C89.4871 65.238 88.7071 64.338 88.7071 63.102C88.7071 61.602 89.6071 60.75 90.9631 60.75C92.3551 60.75 93.1231 61.71 93.1231 63.846ZM92.1271 63.834C92.1271 62.646 91.9111 61.566 90.8431 61.566C90.0871 61.566 89.6431 62.19 89.6431 62.97C89.6431 63.966 90.0991 64.446 90.9511 64.446C91.6831 64.446 92.1271 64.014 92.1271 64.014V63.834ZM99.3484 63.942C99.3484 65.538 98.7244 67.134 96.9124 67.134C95.0884 67.134 94.4644 65.538 94.4644 63.942C94.4644 62.346 95.0884 60.75 96.9124 60.75C98.7244 60.75 99.3484 62.346 99.3484 63.942ZM98.3644 63.942C98.3644 62.598 97.9204 61.59 96.9124 61.59C95.8924 61.59 95.4484 62.598 95.4484 63.942C95.4484 65.286 95.8924 66.294 96.9124 66.294C97.9204 66.294 98.3644 65.286 98.3644 63.942ZM105.524 63.942C105.524 65.538 104.9 67.134 103.088 67.134C101.264 67.134 100.64 65.538 100.64 63.942C100.64 62.346 101.264 60.75 103.088 60.75C104.9 60.75 105.524 62.346 105.524 63.942ZM104.54 63.942C104.54 62.598 104.096 61.59 103.088 61.59C102.068 61.59 101.624 62.598 101.624 63.942C101.624 65.286 102.068 66.294 103.088 66.294C104.096 66.294 104.54 65.286 104.54 63.942ZM114.22 63.942C114.22 65.538 113.596 67.134 111.784 67.134C109.96 67.134 109.336 65.538 109.336 63.942C109.336 62.346 109.96 60.75 111.784 60.75C113.596 60.75 114.22 62.346 114.22 63.942ZM113.236 63.942C113.236 62.598 112.792 61.59 111.784 61.59C110.764 61.59 110.32 62.598 110.32 63.942C110.32 65.286 110.764 66.294 111.784 66.294C112.792 66.294 113.236 65.286 113.236 63.942ZM120.395 63.942C120.395 65.538 119.771 67.134 117.959 67.134C116.135 67.134 115.511 65.538 115.511 63.942C115.511 62.346 116.135 60.75 117.959 60.75C119.771 60.75 120.395 62.346 120.395 63.942ZM119.411 63.942C119.411 62.598 118.967 61.59 117.959 61.59C116.939 61.59 116.495 62.598 116.495 63.942C116.495 65.286 116.939 66.294 117.959 66.294C118.967 66.294 119.411 65.286 119.411 63.942ZM126.571 63.942C126.571 65.538 125.947 67.134 124.135 67.134C122.311 67.134 121.687 65.538 121.687 63.942C121.687 62.346 122.311 60.75 124.135 60.75C125.947 60.75 126.571 62.346 126.571 63.942ZM125.587 63.942C125.587 62.598 125.143 61.59 124.135 61.59C123.115 61.59 122.671 62.598 122.671 63.942C122.671 65.286 123.115 66.294 124.135 66.294C125.143 66.294 125.587 65.286 125.587 63.942ZM132.747 63.942C132.747 65.538 132.123 67.134 130.311 67.134C128.487 67.134 127.863 65.538 127.863 63.942C127.863 62.346 128.487 60.75 130.311 60.75C132.123 60.75 132.747 62.346 132.747 63.942ZM131.763 63.942C131.763 62.598 131.319 61.59 130.311 61.59C129.291 61.59 128.847 62.598 128.847 63.942C128.847 65.286 129.291 66.294 130.311 66.294C131.319 66.294 131.763 65.286 131.763 63.942ZM140.842 67.002H136.39V66.378L138.442 64.41C138.994 63.87 139.414 63.474 139.414 62.814C139.414 62.118 138.982 61.602 138.178 61.602C137.638 61.602 137.254 61.842 136.966 62.082L136.51 61.446C137.026 61.014 137.554 60.75 138.382 60.75C139.57 60.75 140.386 61.446 140.386 62.706C140.386 63.546 139.882 64.182 139.306 64.71L137.77 66.126V66.138H140.842V67.002ZM147.36 66.246H145.908V68.694L144.984 68.85V66.246H141.684V65.466L145.02 60.882H145.908V65.43H147.36V66.246ZM144.984 65.43V62.178H144.972L142.668 65.43H144.984ZM151.969 61.698L148.537 68.982L147.733 68.574L150.925 61.758H147.661V60.882H151.969V61.698ZM157.708 63.942C157.708 65.538 157.084 67.134 155.272 67.134C153.448 67.134 152.824 65.538 152.824 63.942C152.824 62.346 153.448 60.75 155.272 60.75C157.084 60.75 157.708 62.346 157.708 63.942ZM156.724 63.942C156.724 62.598 156.28 61.59 155.272 61.59C154.252 61.59 153.808 62.598 153.808 63.942C153.808 65.286 154.252 66.294 155.272 66.294C156.28 66.294 156.724 65.286 156.724 63.942ZM165.803 67.002H161.351V66.378L163.403 64.41C163.955 63.87 164.375 63.474 164.375 62.814C164.375 62.118 163.943 61.602 163.139 61.602C162.599 61.602 162.215 61.842 161.927 62.082L161.471 61.446C161.987 61.014 162.515 60.75 163.343 60.75C164.531 60.75 165.347 61.446 165.347 62.706C165.347 63.546 164.843 64.182 164.267 64.71L162.731 66.126V66.138H165.803V67.002ZM171.088 63.846C171.088 67.158 169.408 68.706 167.02 68.994L166.828 68.214C168.34 68.034 169.864 67.062 170.08 64.77L170.068 64.758C170.068 64.758 169.504 65.238 168.652 65.238C167.452 65.238 166.672 64.338 166.672 63.102C166.672 61.602 167.572 60.75 168.928 60.75C170.32 60.75 171.088 61.71 171.088 63.846ZM170.092 63.834C170.092 62.646 169.876 61.566 168.808 61.566C168.052 61.566 167.608 62.19 167.608 62.97C167.608 63.966 168.064 64.446 168.916 64.446C169.648 64.446 170.092 64.014 170.092 64.014V63.834ZM176.713 67.002H172.261V66.378L174.313 64.41C174.865 63.87 175.285 63.474 175.285 62.814C175.285 62.118 174.853 61.602 174.049 61.602C173.509 61.602 173.125 61.842 172.837 62.082L172.381 61.446C172.897 61.014 173.425 60.75 174.253 60.75C175.441 60.75 176.257 61.446 176.257 62.706C176.257 63.546 175.753 64.182 175.177 64.71L173.641 66.126V66.138H176.713V67.002ZM182.61 63.942C182.61 65.538 181.986 67.134 180.174 67.134C178.35 67.134 177.726 65.538 177.726 63.942C177.726 62.346 178.35 60.75 180.174 60.75C181.986 60.75 182.61 62.346 182.61 63.942ZM181.626 63.942C181.626 62.598 181.182 61.59 180.174 61.59C179.154 61.59 178.71 62.598 178.71 63.942C178.71 65.286 179.154 66.294 180.174 66.294C181.182 66.294 181.626 65.286 181.626 63.942ZM188.269 67.002H187.321V61.698L186.265 61.842L186.157 61.11L188.269 60.774V67.002Z" fill="#00157E" fill-opacity="0.7"/>
<path d="M462.631 50.63C461.959 50.978 461.275 51.134 460.363 51.134C458.599 51.134 457.243 49.946 457.243 47.546C457.243 44.99 458.755 43.646 460.699 43.646C461.503 43.646 461.995 43.766 462.607 44.03L462.223 44.906C461.767 44.702 461.335 44.546 460.687 44.546C459.427 44.546 458.275 45.518 458.275 47.294C458.275 49.274 459.007 50.246 460.759 50.246C461.335 50.246 461.863 50.018 462.295 49.826L462.631 50.63ZM469.153 51.002H468.145V47.702H464.893V51.002H463.885V43.778H464.893V46.85H468.145V43.778H469.153V51.002ZM474.739 44.63H472.147V46.982H474.487V47.834H472.147V51.002H471.151V43.778H474.739V44.63Z" fill="#00157E" fill-opacity="0.7"/>
<path d="M487.383 52.002H485.605V46.332L484.373 46.5L484.163 45.24L487.383 44.722V52.002ZM494.963 48.432C494.963 50.392 494.109 52.17 491.953 52.17C489.797 52.17 488.943 50.392 488.943 48.432C488.943 46.472 489.797 44.694 491.953 44.694C494.109 44.694 494.963 46.472 494.963 48.432ZM493.171 48.432C493.171 47.088 492.793 46.276 491.953 46.276C491.127 46.276 490.735 47.088 490.735 48.432C490.735 49.776 491.127 50.588 491.953 50.588C492.793 50.588 493.171 49.776 493.171 48.432ZM498.359 44.596C498.359 46.024 497.785 46.822 496.749 47.564L496.245 47.018C496.735 46.598 497.057 46.15 497.169 45.534C496.651 45.478 496.231 45.016 496.231 44.484C496.231 43.91 496.707 43.434 497.281 43.434C497.883 43.434 498.359 43.882 498.359 44.596ZM505.641 48.432C505.641 50.392 504.787 52.17 502.631 52.17C500.475 52.17 499.621 50.392 499.621 48.432C499.621 46.472 500.475 44.694 502.631 44.694C504.787 44.694 505.641 46.472 505.641 48.432ZM503.849 48.432C503.849 47.088 503.471 46.276 502.631 46.276C501.805 46.276 501.413 47.088 501.413 48.432C501.413 49.776 501.805 50.588 502.631 50.588C503.471 50.588 503.849 49.776 503.849 48.432ZM512.887 48.432C512.887 50.392 512.033 52.17 509.877 52.17C507.721 52.17 506.867 50.392 506.867 48.432C506.867 46.472 507.721 44.694 509.877 44.694C512.033 44.694 512.887 46.472 512.887 48.432ZM511.095 48.432C511.095 47.088 510.717 46.276 509.877 46.276C509.051 46.276 508.659 47.088 508.659 48.432C508.659 49.776 509.051 50.588 509.877 50.588C510.717 50.588 511.095 49.776 511.095 48.432ZM520.133 48.432C520.133 50.392 519.279 52.17 517.123 52.17C514.967 52.17 514.113 50.392 514.113 48.432C514.113 46.472 514.967 44.694 517.123 44.694C519.279 44.694 520.133 46.472 520.133 48.432ZM518.341 48.432C518.341 47.088 517.963 46.276 517.123 46.276C516.297 46.276 515.905 47.088 515.905 48.432C515.905 49.776 516.297 50.588 517.123 50.588C517.963 50.588 518.341 49.776 518.341 48.432ZM523.529 51.05C523.529 51.638 523.053 52.114 522.465 52.114C521.877 52.114 521.401 51.638 521.401 51.05C521.401 50.476 521.877 50 522.465 50C523.053 50 523.529 50.476 523.529 51.05ZM530.811 48.432C530.811 50.392 529.957 52.17 527.801 52.17C525.645 52.17 524.791 50.392 524.791 48.432C524.791 46.472 525.645 44.694 527.801 44.694C529.957 44.694 530.811 46.472 530.811 48.432ZM529.019 48.432C529.019 47.088 528.641 46.276 527.801 46.276C526.975 46.276 526.583 47.088 526.583 48.432C526.583 49.776 526.975 50.588 527.801 50.588C528.641 50.588 529.019 49.776 529.019 48.432ZM538.057 48.432C538.057 50.392 537.203 52.17 535.047 52.17C532.891 52.17 532.037 50.392 532.037 48.432C532.037 46.472 532.891 44.694 535.047 44.694C537.203 44.694 538.057 46.472 538.057 48.432ZM536.265 48.432C536.265 47.088 535.887 46.276 535.047 46.276C534.221 46.276 533.829 47.088 533.829 48.432C533.829 49.776 534.221 50.588 535.047 50.588C535.887 50.588 536.265 49.776 536.265 48.432Z" fill="#00157E"/>
<mask id="path-14-inside-1_382_4410" fill="white">
<path d="M0 92.002C0 87.5837 3.58172 84.002 8 84.002H546.667C551.085 84.002 554.667 87.5837 554.667 92.002V140.002H0V92.002Z"/>
</mask>
<path d="M0 92.002C0 87.5837 3.58172 84.002 8 84.002H546.667C551.085 84.002 554.667 87.5837 554.667 92.002V140.002H0V92.002Z" fill="white"/>
<path d="M0 92.002C0 87.0314 4.02944 83.002 9 83.002H545.667C550.637 83.002 554.667 87.0314 554.667 92.002C554.667 88.136 551.085 85.002 546.667 85.002H8C3.58172 85.002 0 88.136 0 92.002ZM0 92.002M554.667 140.002H0H554.667M554.667 140.002M0 140.002V84.002V140.002M0 140.002M554.667 84.002V140.002V84.002" fill="#00157E" fill-opacity="0.2" mask="url(#path-14-inside-1_382_4410)"/>
<path d="M28 108.002C29.6569 108.002 31 106.659 31 105.002C31 103.345 29.6569 102.002 28 102.002C26.3431 102.002 25 103.345 25 105.002C25 106.659 26.3431 108.002 28 108.002Z" stroke="#00157E" stroke-width="2" stroke-linecap="round" stroke-linejoin="round"/>
<path d="M28 122.002V108.002" stroke="#00157E" stroke-width="2" stroke-linecap="round" stroke-linejoin="round"/>
<path d="M21 112.002H18C18 114.654 19.0536 117.198 20.9289 119.073C22.8043 120.948 25.3478 122.002 28 122.002C30.6522 122.002 33.1957 120.948 35.0711 119.073C36.9464 117.198 38 114.654 38 112.002H35" stroke="#00157E" stroke-width="2" stroke-linecap="round" stroke-linejoin="round"/>
<path d="M61.726 105.636C61.726 107.106 60.704 108.156 59.01 108.156C58.142 108.156 57.372 107.974 56.714 107.694L57.078 106.672C57.624 106.924 58.268 107.134 58.926 107.134C59.948 107.134 60.606 106.742 60.606 105.818C60.606 105.132 60.102 104.796 59.43 104.474L58.114 103.844C57.232 103.424 56.63 102.878 56.63 101.688C56.63 100.246 57.89 99.42 59.346 99.42C60.13 99.42 60.634 99.546 61.362 99.812L60.97 100.806C60.522 100.596 60.032 100.4 59.416 100.4C58.548 100.4 57.764 100.75 57.764 101.646C57.764 102.248 58.128 102.542 58.688 102.808L60.032 103.466C61.096 103.984 61.726 104.558 61.726 105.636ZM67.7207 107.932L66.6007 108.114L66.5027 107.344H66.4887C66.0127 107.792 65.4947 108.17 64.7107 108.17C63.6187 108.17 62.9747 107.512 62.9747 106.476C62.9747 105.3 63.8987 104.726 65.2287 104.586L66.4047 104.46V103.872C66.4047 102.962 66.1247 102.318 65.0467 102.318C64.5007 102.318 64.0947 102.486 63.6887 102.696L63.2827 101.87C63.8707 101.52 64.4727 101.296 65.3127 101.296C66.6287 101.296 67.5107 102.066 67.5107 103.368V106.49L67.7207 107.932ZM66.4047 106.644V105.216L65.3827 105.356C64.5427 105.468 64.0807 105.734 64.0807 106.336C64.0807 106.882 64.4167 107.246 64.9767 107.246C65.6347 107.246 66.0407 106.966 66.4047 106.644ZM74.3901 101.45L72.0241 107.988L70.9181 108.03L68.7621 101.548L69.8821 101.268L71.5201 106.546H71.5341L73.2701 101.45H74.3901ZM76.9301 108.002H75.8101V102.962L75.6141 101.52L76.9301 101.338V108.002ZM77.1541 99.742C77.1541 100.19 76.8041 100.526 76.3841 100.526C75.9501 100.526 75.5861 100.19 75.5861 99.742C75.5861 99.294 75.9501 98.944 76.3841 98.944C76.8041 98.944 77.1541 99.294 77.1541 99.742ZM84.1427 108.002H83.0227V103.746C83.0227 102.78 82.6587 102.29 81.7767 102.29C81.1467 102.29 80.6987 102.556 80.2927 102.92V108.002H79.1727V102.962L78.9767 101.52L80.0827 101.338L80.1947 102.108H80.2087C80.6987 101.632 81.3427 101.296 82.1547 101.296C83.2607 101.296 84.1427 102.01 84.1427 103.354V108.002ZM91.6985 102.276H90.3825C90.5785 102.612 90.6905 103.004 90.6905 103.48C90.6905 104.81 89.7245 105.706 88.3805 105.706C88.1145 105.706 87.8625 105.664 87.6385 105.608C87.6385 105.608 87.1905 105.86 87.1905 106.364C87.1905 106.798 87.5125 106.882 87.9605 106.882H89.8365C90.9845 106.882 91.6565 107.232 91.6565 108.254C91.6565 109.542 90.3405 110.998 87.9465 110.998C86.5745 110.998 85.7345 110.326 85.7345 109.178C85.7345 108.1 86.6165 107.568 86.6165 107.568C86.3365 107.386 86.1545 107.106 86.1545 106.644C86.1545 105.832 86.8545 105.426 86.9945 105.356C86.3785 104.978 86.0425 104.334 86.0425 103.48C86.0425 102.15 87.0225 101.268 88.3805 101.268C88.8845 101.268 89.3465 101.38 89.7105 101.604L91.6985 101.296V102.276ZM90.6765 108.422C90.6765 107.946 90.2705 107.848 89.5845 107.848H87.8205C87.6245 107.848 87.4425 107.834 87.2605 107.806C87.2605 107.806 86.7285 108.226 86.7285 108.926C86.7285 109.682 87.1905 110.088 88.1985 110.088C89.8085 110.088 90.6765 109.136 90.6765 108.422ZM89.6405 103.48C89.6405 102.57 89.1365 102.108 88.3805 102.108C87.6525 102.108 87.0925 102.598 87.0925 103.48C87.0925 104.404 87.6105 104.866 88.3805 104.866C89.0945 104.866 89.6405 104.376 89.6405 103.48ZM96.9804 106.098C96.9804 107.288 96.0424 108.142 94.6424 108.142C93.9704 108.142 93.2984 108.044 92.7664 107.792L93.1024 106.812C93.5644 107.022 94.0824 107.19 94.5864 107.19C95.3424 107.19 95.8464 106.896 95.8464 106.28C95.8464 105.804 95.5944 105.608 95.1604 105.412L93.9424 104.852C93.5084 104.656 92.7244 104.264 92.7244 103.13C92.7244 101.884 93.8164 101.296 95.0064 101.296C95.7204 101.296 96.2244 101.408 96.7844 101.646L96.4064 102.612C95.9584 102.416 95.5244 102.276 94.9924 102.276C94.2784 102.276 93.8164 102.5 93.8164 103.06C93.8164 103.55 94.2364 103.746 94.5024 103.872L95.7484 104.46C96.6164 104.866 96.9804 105.384 96.9804 106.098ZM105.988 107.932L104.868 108.114L104.77 107.344H104.756C104.28 107.792 103.762 108.17 102.978 108.17C101.886 108.17 101.242 107.512 101.242 106.476C101.242 105.3 102.166 104.726 103.496 104.586L104.672 104.46V103.872C104.672 102.962 104.392 102.318 103.314 102.318C102.768 102.318 102.362 102.486 101.956 102.696L101.55 101.87C102.138 101.52 102.74 101.296 103.58 101.296C104.896 101.296 105.778 102.066 105.778 103.368V106.49L105.988 107.932ZM104.672 106.644V105.216L103.65 105.356C102.81 105.468 102.348 105.734 102.348 106.336C102.348 106.882 102.684 107.246 103.244 107.246C103.902 107.246 104.308 106.966 104.672 106.644ZM112.262 101.576L111.912 102.584C111.548 102.444 111.142 102.318 110.68 102.318C109.448 102.318 108.706 103.242 108.706 104.628C108.706 106.378 109.392 107.176 110.652 107.176C111.1 107.176 111.464 107.022 111.828 106.868L112.206 107.778C111.66 108.03 111.058 108.156 110.428 108.156C108.552 108.156 107.586 106.812 107.586 104.81C107.586 102.402 109.07 101.296 110.736 101.296C111.31 101.296 111.8 101.394 112.262 101.576ZM117.786 101.576L117.436 102.584C117.072 102.444 116.666 102.318 116.204 102.318C114.972 102.318 114.23 103.242 114.23 104.628C114.23 106.378 114.916 107.176 116.176 107.176C116.624 107.176 116.988 107.022 117.352 106.868L117.73 107.778C117.184 108.03 116.582 108.156 115.952 108.156C114.076 108.156 113.11 106.812 113.11 104.81C113.11 102.402 114.594 101.296 116.26 101.296C116.834 101.296 117.324 101.394 117.786 101.576ZM124.233 104.726C124.233 106.644 123.323 108.156 121.433 108.156C119.361 108.156 118.633 106.686 118.633 104.726C118.633 102.808 119.543 101.296 121.433 101.296C123.505 101.296 124.233 102.766 124.233 104.726ZM123.085 104.754C123.085 103.13 122.539 102.276 121.433 102.276C120.355 102.276 119.781 103.032 119.781 104.684C119.781 106.308 120.327 107.176 121.433 107.176C122.511 107.176 123.085 106.406 123.085 104.754ZM131.179 107.932L130.073 108.114L129.961 107.358H129.947C129.457 107.82 128.813 108.156 128.001 108.156C126.895 108.156 126.013 107.442 126.013 106.098V102.962L125.817 101.52L127.133 101.338V105.706C127.133 106.672 127.497 107.176 128.379 107.176C129.009 107.176 129.457 106.91 129.863 106.532V102.962L129.667 101.52L130.983 101.338V106.49L131.179 107.932ZM138.188 108.002H137.068V103.746C137.068 102.78 136.704 102.29 135.822 102.29C135.192 102.29 134.744 102.556 134.338 102.92V108.002H133.218V102.962L133.022 101.52L134.128 101.338L134.24 102.108H134.254C134.744 101.632 135.388 101.296 136.2 101.296C137.306 101.296 138.188 102.01 138.188 103.354V108.002ZM143.671 107.736C143.265 107.96 142.887 108.142 142.173 108.142C141.165 108.142 140.521 107.484 140.521 106.364V102.36H139.555V101.618L140.521 101.422V100.33L141.627 100.19V101.45H143.461V102.36H141.627V105.986C141.627 106.868 141.851 107.148 142.495 107.148C142.845 107.148 143.111 107.008 143.307 106.882L143.671 107.736Z" fill="#00157E"/>
<path d="M61.964 122.63C61.292 122.978 60.608 123.134 59.696 123.134C57.932 123.134 56.576 121.946 56.576 119.546C56.576 116.99 58.088 115.646 60.032 115.646C60.836 115.646 61.328 115.766 61.94 116.03L61.556 116.906C61.1 116.702 60.668 116.546 60.02 116.546C58.76 116.546 57.608 117.518 57.608 119.294C57.608 121.274 58.34 122.246 60.092 122.246C60.668 122.246 61.196 122.018 61.628 121.826L61.964 122.63ZM68.4867 123.002H67.4787V119.702H64.2267V123.002H63.2187V115.778H64.2267V118.85H67.4787V115.778H68.4867V123.002ZM73.9043 122.522C73.9043 123.962 72.9803 124.874 71.3963 124.874C70.9283 124.874 70.4363 124.79 69.9923 124.682L70.2083 123.782C70.6043 123.902 70.9403 123.998 71.4203 123.998C72.3683 123.998 72.9443 123.53 72.9443 122.666C72.9443 121.49 71.8643 121.034 70.3403 121.034V120.35C72.1163 120.242 72.6083 119.45 72.6083 118.67C72.6083 117.986 72.1883 117.602 71.5163 117.602C70.9643 117.602 70.6403 117.782 70.2803 118.022L69.8843 117.362C70.3163 117.026 70.8683 116.75 71.7083 116.75C72.8603 116.75 73.5683 117.434 73.5683 118.55C73.5683 119.522 73.0043 120.17 72.2003 120.554V120.566C73.3763 120.818 73.9043 121.598 73.9043 122.522ZM78.9696 121.922C78.9696 124.226 76.7976 124.874 75.2496 124.994L75.1296 124.178C76.2216 124.058 77.9856 123.626 77.9856 122.054C77.9856 121.07 77.4336 120.494 75.8976 120.494H75.0936L75.3576 116.882H78.7776V117.758H76.1856L76.0296 119.774C76.0296 119.774 76.3056 119.75 76.5576 119.75C77.9496 119.75 78.9696 120.482 78.9696 121.922ZM87.5593 119.942C87.5593 121.538 86.9353 123.134 85.1233 123.134C83.2993 123.134 82.6753 121.538 82.6753 119.942C82.6753 118.346 83.2993 116.75 85.1233 116.75C86.9353 116.75 87.5593 118.346 87.5593 119.942ZM86.5753 119.942C86.5753 118.598 86.1313 117.59 85.1233 117.59C84.1033 117.59 83.6593 118.598 83.6593 119.942C83.6593 121.286 84.1033 122.294 85.1233 122.294C86.1313 122.294 86.5753 121.286 86.5753 119.942ZM93.1231 119.846C93.1231 123.158 91.4431 124.706 89.0551 124.994L88.8631 124.214C90.3751 124.034 91.8991 123.062 92.1151 120.77L92.1031 120.758C92.1031 120.758 91.5391 121.238 90.6871 121.238C89.4871 121.238 88.7071 120.338 88.7071 119.102C88.7071 117.602 89.6071 116.75 90.9631 116.75C92.3551 116.75 93.1231 117.71 93.1231 119.846ZM92.1271 119.834C92.1271 118.646 91.9111 117.566 90.8431 117.566C90.0871 117.566 89.6431 118.19 89.6431 118.97C89.6431 119.966 90.0991 120.446 90.9511 120.446C91.6831 120.446 92.1271 120.014 92.1271 120.014V119.834ZM99.3484 119.942C99.3484 121.538 98.7244 123.134 96.9124 123.134C95.0884 123.134 94.4644 121.538 94.4644 119.942C94.4644 118.346 95.0884 116.75 96.9124 116.75C98.7244 116.75 99.3484 118.346 99.3484 119.942ZM98.3644 119.942C98.3644 118.598 97.9204 117.59 96.9124 117.59C95.8924 117.59 95.4484 118.598 95.4484 119.942C95.4484 121.286 95.8924 122.294 96.9124 122.294C97.9204 122.294 98.3644 121.286 98.3644 119.942ZM105.524 119.942C105.524 121.538 104.9 123.134 103.088 123.134C101.264 123.134 100.64 121.538 100.64 119.942C100.64 118.346 101.264 116.75 103.088 116.75C104.9 116.75 105.524 118.346 105.524 119.942ZM104.54 119.942C104.54 118.598 104.096 117.59 103.088 117.59C102.068 117.59 101.624 118.598 101.624 119.942C101.624 121.286 102.068 122.294 103.088 122.294C104.096 122.294 104.54 121.286 104.54 119.942ZM114.22 119.942C114.22 121.538 113.596 123.134 111.784 123.134C109.96 123.134 109.336 121.538 109.336 119.942C109.336 118.346 109.96 116.75 111.784 116.75C113.596 116.75 114.22 118.346 114.22 119.942ZM113.236 119.942C113.236 118.598 112.792 117.59 111.784 117.59C110.764 117.59 110.32 118.598 110.32 119.942C110.32 121.286 110.764 122.294 111.784 122.294C112.792 122.294 113.236 121.286 113.236 119.942ZM120.395 119.942C120.395 121.538 119.771 123.134 117.959 123.134C116.135 123.134 115.511 121.538 115.511 119.942C115.511 118.346 116.135 116.75 117.959 116.75C119.771 116.75 120.395 118.346 120.395 119.942ZM119.411 119.942C119.411 118.598 118.967 117.59 117.959 117.59C116.939 117.59 116.495 118.598 116.495 119.942C116.495 121.286 116.939 122.294 117.959 122.294C118.967 122.294 119.411 121.286 119.411 119.942ZM126.571 119.942C126.571 121.538 125.947 123.134 124.135 123.134C122.311 123.134 121.687 121.538 121.687 119.942C121.687 118.346 122.311 116.75 124.135 116.75C125.947 116.75 126.571 118.346 126.571 119.942ZM125.587 119.942C125.587 118.598 125.143 117.59 124.135 117.59C123.115 117.59 122.671 118.598 122.671 119.942C122.671 121.286 123.115 122.294 124.135 122.294C125.143 122.294 125.587 121.286 125.587 119.942ZM132.747 119.942C132.747 121.538 132.123 123.134 130.311 123.134C128.487 123.134 127.863 121.538 127.863 119.942C127.863 118.346 128.487 116.75 130.311 116.75C132.123 116.75 132.747 118.346 132.747 119.942ZM131.763 119.942C131.763 118.598 131.319 117.59 130.311 117.59C129.291 117.59 128.847 118.598 128.847 119.942C128.847 121.286 129.291 122.294 130.311 122.294C131.319 122.294 131.763 121.286 131.763 119.942ZM140.842 123.002H136.39V122.378L138.442 120.41C138.994 119.87 139.414 119.474 139.414 118.814C139.414 118.118 138.982 117.602 138.178 117.602C137.638 117.602 137.254 117.842 136.966 118.082L136.51 117.446C137.026 117.014 137.554 116.75 138.382 116.75C139.57 116.75 140.386 117.446 140.386 118.706C140.386 119.546 139.882 120.182 139.306 120.71L137.77 122.126V122.138H140.842V123.002ZM147.36 122.246H145.908V124.694L144.984 124.85V122.246H141.684V121.466L145.02 116.882H145.908V121.43H147.36V122.246ZM144.984 121.43V118.178H144.972L142.668 121.43H144.984ZM151.969 117.698L148.537 124.982L147.733 124.574L150.925 117.758H147.661V116.882H151.969V117.698ZM157.708 119.942C157.708 121.538 157.084 123.134 155.272 123.134C153.448 123.134 152.824 121.538 152.824 119.942C152.824 118.346 153.448 116.75 155.272 116.75C157.084 116.75 157.708 118.346 157.708 119.942ZM156.724 119.942C156.724 118.598 156.28 117.59 155.272 117.59C154.252 117.59 153.808 118.598 153.808 119.942C153.808 121.286 154.252 122.294 155.272 122.294C156.28 122.294 156.724 121.286 156.724 119.942ZM165.803 123.002H161.351V122.378L163.403 120.41C163.955 119.87 164.375 119.474 164.375 118.814C164.375 118.118 163.943 117.602 163.139 117.602C162.599 117.602 162.215 117.842 161.927 118.082L161.471 117.446C161.987 117.014 162.515 116.75 163.343 116.75C164.531 116.75 165.347 117.446 165.347 118.706C165.347 119.546 164.843 120.182 164.267 120.71L162.731 122.126V122.138H165.803V123.002ZM171.088 119.846C171.088 123.158 169.408 124.706 167.02 124.994L166.828 124.214C168.34 124.034 169.864 123.062 170.08 120.77L170.068 120.758C170.068 120.758 169.504 121.238 168.652 121.238C167.452 121.238 166.672 120.338 166.672 119.102C166.672 117.602 167.572 116.75 168.928 116.75C170.32 116.75 171.088 117.71 171.088 119.846ZM170.092 119.834C170.092 118.646 169.876 117.566 168.808 117.566C168.052 117.566 167.608 118.19 167.608 118.97C167.608 119.966 168.064 120.446 168.916 120.446C169.648 120.446 170.092 120.014 170.092 120.014V119.834ZM176.713 123.002H172.261V122.378L174.313 120.41C174.865 119.87 175.285 119.474 175.285 118.814C175.285 118.118 174.853 117.602 174.049 117.602C173.509 117.602 173.125 117.842 172.837 118.082L172.381 117.446C172.897 117.014 173.425 116.75 174.253 116.75C175.441 116.75 176.257 117.446 176.257 118.706C176.257 119.546 175.753 120.182 175.177 120.71L173.641 122.126V122.138H176.713V123.002ZM182.61 119.942C182.61 121.538 181.986 123.134 180.174 123.134C178.35 123.134 177.726 121.538 177.726 119.942C177.726 118.346 178.35 116.75 180.174 116.75C181.986 116.75 182.61 118.346 182.61 119.942ZM181.626 119.942C181.626 118.598 181.182 117.59 180.174 117.59C179.154 117.59 178.71 118.598 178.71 119.942C178.71 121.286 179.154 122.294 180.174 122.294C181.182 122.294 181.626 121.286 181.626 119.942ZM190.705 123.002H186.253V122.378L188.305 120.41C188.857 119.87 189.277 119.474 189.277 118.814C189.277 118.118 188.845 117.602 188.041 117.602C187.501 117.602 187.117 117.842 186.829 118.082L186.373 117.446C186.889 117.014 187.417 116.75 188.245 116.75C189.433 116.75 190.249 117.446 190.249 118.706C190.249 119.546 189.745 120.182 189.169 120.71L187.633 122.126V122.138H190.705V123.002Z" fill="#00157E" fill-opacity="0.7"/>
<path d="M461.631 106.63C460.959 106.978 460.275 107.134 459.363 107.134C457.599 107.134 456.243 105.946 456.243 103.546C456.243 100.99 457.755 99.646 459.699 99.646C460.503 99.646 460.995 99.766 461.607 100.03L461.223 100.906C460.767 100.702 460.335 100.546 459.687 100.546C458.427 100.546 457.275 101.518 457.275 103.294C457.275 105.274 458.007 106.246 459.759 106.246C460.335 106.246 460.863 106.018 461.295 105.826L461.631 106.63ZM468.153 107.002H467.145V103.702H463.893V107.002H462.885V99.778H463.893V102.85H467.145V99.778H468.153V107.002ZM473.739 100.63H471.147V102.982H473.487V103.834H471.147V107.002H470.151V99.778H473.739V100.63Z" fill="#00157E" fill-opacity="0.7"/>
<path d="M489.15 108.002H483.704V106.924L485.93 104.866C486.448 104.39 486.798 104.04 486.798 103.382C486.798 102.738 486.392 102.304 485.748 102.304C485.146 102.304 484.768 102.542 484.46 102.78L483.676 101.604C484.32 101.044 485.062 100.694 486.112 100.694C487.596 100.694 488.618 101.562 488.618 103.088C488.618 104.026 488.072 104.754 487.484 105.286L486.266 106.378V106.392H489.15V108.002ZM495.088 106.56C495.088 109.066 492.946 110.046 490.44 110.34L490.174 108.828C491.35 108.646 493.268 108.24 493.268 106.742C493.268 105.804 492.582 105.342 491 105.342H490.174L490.44 100.862H494.836V102.458H491.91L491.812 104.11C491.812 104.11 492.078 104.096 492.358 104.096C494.066 104.096 495.088 104.936 495.088 106.56ZM498.359 100.596C498.359 102.024 497.785 102.822 496.749 103.564L496.245 103.018C496.735 102.598 497.057 102.15 497.169 101.534C496.651 101.478 496.231 101.016 496.231 100.484C496.231 99.91 496.707 99.434 497.281 99.434C497.883 99.434 498.359 99.882 498.359 100.596ZM505.641 104.432C505.641 106.392 504.787 108.17 502.631 108.17C500.475 108.17 499.621 106.392 499.621 104.432C499.621 102.472 500.475 100.694 502.631 100.694C504.787 100.694 505.641 102.472 505.641 104.432ZM503.849 104.432C503.849 103.088 503.471 102.276 502.631 102.276C501.805 102.276 501.413 103.088 501.413 104.432C501.413 105.776 501.805 106.588 502.631 106.588C503.471 106.588 503.849 105.776 503.849 104.432ZM512.887 104.432C512.887 106.392 512.033 108.17 509.877 108.17C507.721 108.17 506.867 106.392 506.867 104.432C506.867 102.472 507.721 100.694 509.877 100.694C512.033 100.694 512.887 102.472 512.887 104.432ZM511.095 104.432C511.095 103.088 510.717 102.276 509.877 102.276C509.051 102.276 508.659 103.088 508.659 104.432C508.659 105.776 509.051 106.588 509.877 106.588C510.717 106.588 511.095 105.776 511.095 104.432ZM520.133 104.432C520.133 106.392 519.279 108.17 517.123 108.17C514.967 108.17 514.113 106.392 514.113 104.432C514.113 102.472 514.967 100.694 517.123 100.694C519.279 100.694 520.133 102.472 520.133 104.432ZM518.341 104.432C518.341 103.088 517.963 102.276 517.123 102.276C516.297 102.276 515.905 103.088 515.905 104.432C515.905 105.776 516.297 106.588 517.123 106.588C517.963 106.588 518.341 105.776 518.341 104.432ZM523.529 107.05C523.529 107.638 523.053 108.114 522.465 108.114C521.877 108.114 521.401 107.638 521.401 107.05C521.401 106.476 521.877 106 522.465 106C523.053 106 523.529 106.476 523.529 107.05ZM530.811 104.432C530.811 106.392 529.957 108.17 527.801 108.17C525.645 108.17 524.791 106.392 524.791 104.432C524.791 102.472 525.645 100.694 527.801 100.694C529.957 100.694 530.811 102.472 530.811 104.432ZM529.019 104.432C529.019 103.088 528.641 102.276 527.801 102.276C526.975 102.276 526.583 103.088 526.583 104.432C526.583 105.776 526.975 106.588 527.801 106.588C528.641 106.588 529.019 105.776 529.019 104.432ZM538.057 104.432C538.057 106.392 537.203 108.17 535.047 108.17C532.891 108.17 532.037 106.392 532.037 104.432C532.037 102.472 532.891 100.694 535.047 100.694C537.203 100.694 538.057 102.472 538.057 104.432ZM536.265 104.432C536.265 103.088 535.887 102.276 535.047 102.276C534.221 102.276 533.829 103.088 533.829 104.432C533.829 105.776 534.221 106.588 535.047 106.588C535.887 106.588 536.265 105.776 536.265 104.432Z" fill="#00157E"/>
<mask id="path-23-inside-2_382_4410" fill="white">
<path d="M0 148.002C0 143.584 3.58172 140.002 8 140.002H546.667C551.085 140.002 554.667 143.584 554.667 148.002V196.002H0V148.002Z"/>
</mask>
<path d="M0 148.002C0 143.584 3.58172 140.002 8 140.002H546.667C551.085 140.002 554.667 143.584 554.667 148.002V196.002H0V148.002Z" fill="white"/>
<path d="M0 148.002C0 143.031 4.02944 139.002 9 139.002H545.667C550.637 139.002 554.667 143.031 554.667 148.002C554.667 144.136 551.085 141.002 546.667 141.002H8C3.58172 141.002 0 144.136 0 148.002ZM0 148.002M554.667 196.002H0H554.667M554.667 196.002M0 196.002V140.002V196.002M0 196.002M554.667 140.002V196.002V140.002" fill="#00157E" fill-opacity="0.2" mask="url(#path-23-inside-2_382_4410)"/>
<g clip-path="url(#clip1_382_4410)">
<path d="M38.65 170.392L28 178.132L17.35 170.392C17.2072 170.287 17.1013 170.14 17.0475 169.971C16.9936 169.802 16.9945 169.62 17.05 169.452L18.27 165.672L20.71 158.162C20.7337 158.101 20.7714 158.046 20.82 158.002C20.8993 157.93 21.0027 157.89 21.11 157.89C21.2173 157.89 21.3208 157.93 21.4 158.002C21.4514 158.052 21.4893 158.114 21.51 158.182L23.95 165.672H32.05L34.49 158.162C34.5137 158.101 34.5514 158.046 34.6 158.002C34.6793 157.93 34.7827 157.89 34.89 157.89C34.9973 157.89 35.1008 157.93 35.18 158.002C35.2314 158.052 35.2693 158.114 35.29 158.182L37.73 165.692L39 169.452C39.0505 169.626 39.0438 169.811 38.9807 169.98C38.9177 170.149 38.8017 170.294 38.65 170.392Z" stroke="#00157E" stroke-width="2" stroke-linecap="round" stroke-linejoin="round"/>
</g>
<path d="M61.726 161.636C61.726 163.106 60.704 164.156 59.01 164.156C58.142 164.156 57.372 163.974 56.714 163.694L57.078 162.672C57.624 162.924 58.268 163.134 58.926 163.134C59.948 163.134 60.606 162.742 60.606 161.818C60.606 161.132 60.102 160.796 59.43 160.474L58.114 159.844C57.232 159.424 56.63 158.878 56.63 157.688C56.63 156.246 57.89 155.42 59.346 155.42C60.13 155.42 60.634 155.546 61.362 155.812L60.97 156.806C60.522 156.596 60.032 156.4 59.416 156.4C58.548 156.4 57.764 156.75 57.764 157.646C57.764 158.248 58.128 158.542 58.688 158.808L60.032 159.466C61.096 159.984 61.726 160.558 61.726 161.636ZM67.7207 163.932L66.6007 164.114L66.5027 163.344H66.4887C66.0127 163.792 65.4947 164.17 64.7107 164.17C63.6187 164.17 62.9747 163.512 62.9747 162.476C62.9747 161.3 63.8987 160.726 65.2287 160.586L66.4047 160.46V159.872C66.4047 158.962 66.1247 158.318 65.0467 158.318C64.5007 158.318 64.0947 158.486 63.6887 158.696L63.2827 157.87C63.8707 157.52 64.4727 157.296 65.3127 157.296C66.6287 157.296 67.5107 158.066 67.5107 159.368V162.49L67.7207 163.932ZM66.4047 162.644V161.216L65.3827 161.356C64.5427 161.468 64.0807 161.734 64.0807 162.336C64.0807 162.882 64.4167 163.246 64.9767 163.246C65.6347 163.246 66.0407 162.966 66.4047 162.644ZM74.3901 157.45L72.0241 163.988L70.9181 164.03L68.7621 157.548L69.8821 157.268L71.5201 162.546H71.5341L73.2701 157.45H74.3901ZM76.9301 164.002H75.8101V158.962L75.6141 157.52L76.9301 157.338V164.002ZM77.1541 155.742C77.1541 156.19 76.8041 156.526 76.3841 156.526C75.9501 156.526 75.5861 156.19 75.5861 155.742C75.5861 155.294 75.9501 154.944 76.3841 154.944C76.8041 154.944 77.1541 155.294 77.1541 155.742ZM84.1427 164.002H83.0227V159.746C83.0227 158.78 82.6587 158.29 81.7767 158.29C81.1467 158.29 80.6987 158.556 80.2927 158.92V164.002H79.1727V158.962L78.9767 157.52L80.0827 157.338L80.1947 158.108H80.2087C80.6987 157.632 81.3427 157.296 82.1547 157.296C83.2607 157.296 84.1427 158.01 84.1427 159.354V164.002ZM91.6985 158.276H90.3825C90.5785 158.612 90.6905 159.004 90.6905 159.48C90.6905 160.81 89.7245 161.706 88.3805 161.706C88.1145 161.706 87.8625 161.664 87.6385 161.608C87.6385 161.608 87.1905 161.86 87.1905 162.364C87.1905 162.798 87.5125 162.882 87.9605 162.882H89.8365C90.9845 162.882 91.6565 163.232 91.6565 164.254C91.6565 165.542 90.3405 166.998 87.9465 166.998C86.5745 166.998 85.7345 166.326 85.7345 165.178C85.7345 164.1 86.6165 163.568 86.6165 163.568C86.3365 163.386 86.1545 163.106 86.1545 162.644C86.1545 161.832 86.8545 161.426 86.9945 161.356C86.3785 160.978 86.0425 160.334 86.0425 159.48C86.0425 158.15 87.0225 157.268 88.3805 157.268C88.8845 157.268 89.3465 157.38 89.7105 157.604L91.6985 157.296V158.276ZM90.6765 164.422C90.6765 163.946 90.2705 163.848 89.5845 163.848H87.8205C87.6245 163.848 87.4425 163.834 87.2605 163.806C87.2605 163.806 86.7285 164.226 86.7285 164.926C86.7285 165.682 87.1905 166.088 88.1985 166.088C89.8085 166.088 90.6765 165.136 90.6765 164.422ZM89.6405 159.48C89.6405 158.57 89.1365 158.108 88.3805 158.108C87.6525 158.108 87.0925 158.598 87.0925 159.48C87.0925 160.404 87.6105 160.866 88.3805 160.866C89.0945 160.866 89.6405 160.376 89.6405 159.48ZM96.9804 162.098C96.9804 163.288 96.0424 164.142 94.6424 164.142C93.9704 164.142 93.2984 164.044 92.7664 163.792L93.1024 162.812C93.5644 163.022 94.0824 163.19 94.5864 163.19C95.3424 163.19 95.8464 162.896 95.8464 162.28C95.8464 161.804 95.5944 161.608 95.1604 161.412L93.9424 160.852C93.5084 160.656 92.7244 160.264 92.7244 159.13C92.7244 157.884 93.8164 157.296 95.0064 157.296C95.7204 157.296 96.2244 157.408 96.7844 157.646L96.4064 158.612C95.9584 158.416 95.5244 158.276 94.9924 158.276C94.2784 158.276 93.8164 158.5 93.8164 159.06C93.8164 159.55 94.2364 159.746 94.5024 159.872L95.7484 160.46C96.6164 160.866 96.9804 161.384 96.9804 162.098ZM105.988 163.932L104.868 164.114L104.77 163.344H104.756C104.28 163.792 103.762 164.17 102.978 164.17C101.886 164.17 101.242 163.512 101.242 162.476C101.242 161.3 102.166 160.726 103.496 160.586L104.672 160.46V159.872C104.672 158.962 104.392 158.318 103.314 158.318C102.768 158.318 102.362 158.486 101.956 158.696L101.55 157.87C102.138 157.52 102.74 157.296 103.58 157.296C104.896 157.296 105.778 158.066 105.778 159.368V162.49L105.988 163.932ZM104.672 162.644V161.216L103.65 161.356C102.81 161.468 102.348 161.734 102.348 162.336C102.348 162.882 102.684 163.246 103.244 163.246C103.902 163.246 104.308 162.966 104.672 162.644ZM112.262 157.576L111.912 158.584C111.548 158.444 111.142 158.318 110.68 158.318C109.448 158.318 108.706 159.242 108.706 160.628C108.706 162.378 109.392 163.176 110.652 163.176C111.1 163.176 111.464 163.022 111.828 162.868L112.206 163.778C111.66 164.03 111.058 164.156 110.428 164.156C108.552 164.156 107.586 162.812 107.586 160.81C107.586 158.402 109.07 157.296 110.736 157.296C111.31 157.296 111.8 157.394 112.262 157.576ZM117.786 157.576L117.436 158.584C117.072 158.444 116.666 158.318 116.204 158.318C114.972 158.318 114.23 159.242 114.23 160.628C114.23 162.378 114.916 163.176 116.176 163.176C116.624 163.176 116.988 163.022 117.352 162.868L117.73 163.778C117.184 164.03 116.582 164.156 115.952 164.156C114.076 164.156 113.11 162.812 113.11 160.81C113.11 158.402 114.594 157.296 116.26 157.296C116.834 157.296 117.324 157.394 117.786 157.576ZM124.233 160.726C124.233 162.644 123.323 164.156 121.433 164.156C119.361 164.156 118.633 162.686 118.633 160.726C118.633 158.808 119.543 157.296 121.433 157.296C123.505 157.296 124.233 158.766 124.233 160.726ZM123.085 160.754C123.085 159.13 122.539 158.276 121.433 158.276C120.355 158.276 119.781 159.032 119.781 160.684C119.781 162.308 120.327 163.176 121.433 163.176C122.511 163.176 123.085 162.406 123.085 160.754ZM131.179 163.932L130.073 164.114L129.961 163.358H129.947C129.457 163.82 128.813 164.156 128.001 164.156C126.895 164.156 126.013 163.442 126.013 162.098V158.962L125.817 157.52L127.133 157.338V161.706C127.133 162.672 127.497 163.176 128.379 163.176C129.009 163.176 129.457 162.91 129.863 162.532V158.962L129.667 157.52L130.983 157.338V162.49L131.179 163.932ZM138.188 164.002H137.068V159.746C137.068 158.78 136.704 158.29 135.822 158.29C135.192 158.29 134.744 158.556 134.338 158.92V164.002H133.218V158.962L133.022 157.52L134.128 157.338L134.24 158.108H134.254C134.744 157.632 135.388 157.296 136.2 157.296C137.306 157.296 138.188 158.01 138.188 159.354V164.002ZM143.671 163.736C143.265 163.96 142.887 164.142 142.173 164.142C141.165 164.142 140.521 163.484 140.521 162.364V158.36H139.555V157.618L140.521 157.422V156.33L141.627 156.19V157.45H143.461V158.36H141.627V161.986C141.627 162.868 141.851 163.148 142.495 163.148C142.845 163.148 143.111 163.008 143.307 162.882L143.671 163.736Z" fill="#00157E"/>
<path d="M58.496 179.002H57.548V173.698L56.492 173.842L56.384 173.11L58.496 172.774V179.002ZM64.389 179.002H59.937V178.378L61.989 176.41C62.541 175.87 62.961 175.474 62.961 174.814C62.961 174.118 62.529 173.602 61.725 173.602C61.185 173.602 60.801 173.842 60.513 174.082L60.057 173.446C60.573 173.014 61.101 172.75 61.929 172.75C63.117 172.75 63.933 173.446 63.933 174.706C63.933 175.546 63.429 176.182 62.853 176.71L61.317 178.126V178.138H64.389V179.002ZM69.1113 178.522C69.1113 179.962 68.1873 180.874 66.6033 180.874C66.1353 180.874 65.6433 180.79 65.1993 180.682L65.4153 179.782C65.8113 179.902 66.1473 179.998 66.6273 179.998C67.5753 179.998 68.1513 179.53 68.1513 178.666C68.1513 177.49 67.0713 177.034 65.5473 177.034V176.35C67.3233 176.242 67.8153 175.45 67.8153 174.67C67.8153 173.986 67.3953 173.602 66.7233 173.602C66.1713 173.602 65.8473 173.782 65.4873 174.022L65.0913 173.362C65.5233 173.026 66.0753 172.75 66.9153 172.75C68.0673 172.75 68.7753 173.434 68.7753 174.55C68.7753 175.522 68.2113 176.17 67.4073 176.554V176.566C68.5833 176.818 69.1113 177.598 69.1113 178.522ZM71.7046 178.39C71.7046 178.774 71.3926 179.086 71.0206 179.086C70.6366 179.086 70.3246 178.774 70.3246 178.39C70.3246 178.018 70.6366 177.706 71.0206 177.706C71.3926 177.706 71.7046 178.018 71.7046 178.39ZM78.4068 178.246H76.9548V180.694L76.0308 180.85V178.246H72.7308V177.466L76.0668 172.882H76.9548V177.43H78.4068V178.246ZM76.0308 177.43V174.178H76.0188L73.7148 177.43H76.0308ZM82.954 177.922C82.954 180.226 80.782 180.874 79.234 180.994L79.114 180.178C80.206 180.058 81.97 179.626 81.97 178.054C81.97 177.07 81.418 176.494 79.882 176.494H79.078L79.342 172.882H82.762V173.758H80.17L80.014 175.774C80.014 175.774 80.29 175.75 80.542 175.75C81.934 175.75 82.954 176.482 82.954 177.922ZM88.5682 176.806C88.5682 178.222 87.7282 179.134 86.3722 179.134C84.8362 179.134 84.1882 177.994 84.1882 176.302C84.1882 173.038 86.1082 171.694 88.1962 171.526L88.3162 172.318C86.8762 172.474 85.4362 173.254 85.1602 175.258L85.1722 175.27C85.1722 175.27 85.7842 174.742 86.6122 174.742C87.8722 174.742 88.5682 175.546 88.5682 176.806ZM87.6202 176.998C87.6202 175.978 87.2242 175.546 86.3482 175.546C85.6642 175.546 85.1602 176.026 85.1602 176.026V176.254C85.1602 177.598 85.5082 178.342 86.4562 178.342C87.2482 178.342 87.6202 177.778 87.6202 176.998ZM91.1226 178.39C91.1226 178.774 90.8106 179.086 90.4386 179.086C90.0546 179.086 89.7426 178.774 89.7426 178.39C89.7426 178.018 90.0546 177.706 90.4386 177.706C90.8106 177.706 91.1226 178.018 91.1226 178.39ZM96.0935 173.698L92.6615 180.982L91.8575 180.574L95.0495 173.758H91.7855V172.882H96.0935V173.698ZM101.277 177.25C101.277 178.402 100.401 179.134 99.1654 179.134C97.9054 179.134 97.0534 178.498 97.0534 177.322C97.0534 176.266 97.8334 175.63 98.4334 175.222C97.7134 174.718 97.2334 174.286 97.2334 173.386C97.2334 172.366 98.0734 171.646 99.1534 171.646C100.317 171.646 101.073 172.294 101.073 173.302C101.073 174.166 100.473 174.718 99.8854 175.126C100.653 175.642 101.277 176.158 101.277 177.25ZM100.353 177.25C100.353 176.47 99.8134 176.074 99.0934 175.606C98.4574 176.038 97.9654 176.41 97.9654 177.202C97.9654 177.922 98.4454 178.33 99.1774 178.33C99.9574 178.33 100.353 177.85 100.353 177.25ZM100.221 173.41C100.221 172.798 99.8134 172.402 99.1654 172.402C98.5174 172.402 98.0974 172.822 98.0974 173.422C98.0974 173.986 98.5654 174.31 99.2134 174.754C99.7294 174.418 100.221 173.986 100.221 173.41Z" fill="#00157E" fill-opacity="0.7"/>
<path d="M460.631 162.63C459.959 162.978 459.275 163.134 458.363 163.134C456.599 163.134 455.243 161.946 455.243 159.546C455.243 156.99 456.755 155.646 458.699 155.646C459.503 155.646 459.995 155.766 460.607 156.03L460.223 156.906C459.767 156.702 459.335 156.546 458.687 156.546C457.427 156.546 456.275 157.518 456.275 159.294C456.275 161.274 457.007 162.246 458.759 162.246C459.335 162.246 459.863 162.018 460.295 161.826L460.631 162.63ZM467.153 163.002H466.145V159.702H462.893V163.002H461.885V155.778H462.893V158.85H466.145V155.778H467.153V163.002ZM472.739 156.63H470.147V158.982H472.487V159.834H470.147V163.002H469.151V155.778H472.739V156.63Z" fill="#00157E" fill-opacity="0.7"/>
<path d="M487.933 164.002H482.487V162.924L484.713 160.866C485.231 160.39 485.581 160.04 485.581 159.382C485.581 158.738 485.175 158.304 484.531 158.304C483.929 158.304 483.551 158.542 483.243 158.78L482.459 157.604C483.103 157.044 483.845 156.694 484.895 156.694C486.379 156.694 487.401 157.562 487.401 159.088C487.401 160.026 486.855 160.754 486.267 161.286L485.049 162.378V162.392H487.933V164.002ZM494.963 160.432C494.963 162.392 494.109 164.17 491.953 164.17C489.797 164.17 488.943 162.392 488.943 160.432C488.943 158.472 489.797 156.694 491.953 156.694C494.109 156.694 494.963 158.472 494.963 160.432ZM493.171 160.432C493.171 159.088 492.793 158.276 491.953 158.276C491.127 158.276 490.735 159.088 490.735 160.432C490.735 161.776 491.127 162.588 491.953 162.588C492.793 162.588 493.171 161.776 493.171 160.432ZM498.359 156.596C498.359 158.024 497.785 158.822 496.749 159.564L496.245 159.018C496.735 158.598 497.057 158.15 497.169 157.534C496.651 157.478 496.231 157.016 496.231 156.484C496.231 155.91 496.707 155.434 497.281 155.434C497.883 155.434 498.359 155.882 498.359 156.596ZM505.641 160.432C505.641 162.392 504.787 164.17 502.631 164.17C500.475 164.17 499.621 162.392 499.621 160.432C499.621 158.472 500.475 156.694 502.631 156.694C504.787 156.694 505.641 158.472 505.641 160.432ZM503.849 160.432C503.849 159.088 503.471 158.276 502.631 158.276C501.805 158.276 501.413 159.088 501.413 160.432C501.413 161.776 501.805 162.588 502.631 162.588C503.471 162.588 503.849 161.776 503.849 160.432ZM512.887 160.432C512.887 162.392 512.033 164.17 509.877 164.17C507.721 164.17 506.867 162.392 506.867 160.432C506.867 158.472 507.721 156.694 509.877 156.694C512.033 156.694 512.887 158.472 512.887 160.432ZM511.095 160.432C511.095 159.088 510.717 158.276 509.877 158.276C509.051 158.276 508.659 159.088 508.659 160.432C508.659 161.776 509.051 162.588 509.877 162.588C510.717 162.588 511.095 161.776 511.095 160.432ZM520.133 160.432C520.133 162.392 519.279 164.17 517.123 164.17C514.967 164.17 514.113 162.392 514.113 160.432C514.113 158.472 514.967 156.694 517.123 156.694C519.279 156.694 520.133 158.472 520.133 160.432ZM518.341 160.432C518.341 159.088 517.963 158.276 517.123 158.276C516.297 158.276 515.905 159.088 515.905 160.432C515.905 161.776 516.297 162.588 517.123 162.588C517.963 162.588 518.341 161.776 518.341 160.432ZM523.529 163.05C523.529 163.638 523.053 164.114 522.465 164.114C521.877 164.114 521.401 163.638 521.401 163.05C521.401 162.476 521.877 162 522.465 162C523.053 162 523.529 162.476 523.529 163.05ZM530.811 160.432C530.811 162.392 529.957 164.17 527.801 164.17C525.645 164.17 524.791 162.392 524.791 160.432C524.791 158.472 525.645 156.694 527.801 156.694C529.957 156.694 530.811 158.472 530.811 160.432ZM529.019 160.432C529.019 159.088 528.641 158.276 527.801 158.276C526.975 158.276 526.583 159.088 526.583 160.432C526.583 161.776 526.975 162.588 527.801 162.588C528.641 162.588 529.019 161.776 529.019 160.432ZM538.057 160.432C538.057 162.392 537.203 164.17 535.047 164.17C532.891 164.17 532.037 162.392 532.037 160.432C532.037 158.472 532.891 156.694 535.047 156.694C537.203 156.694 538.057 158.472 538.057 160.432ZM536.265 160.432C536.265 159.088 535.887 158.276 535.047 158.276C534.221 158.276 533.829 159.088 533.829 160.432C533.829 161.776 534.221 162.588 535.047 162.588C535.887 162.588 536.265 161.776 536.265 160.432Z" fill="#00157E"/>
<mask id="path-30-inside-3_382_4410" fill="white">
<path d="M0 204.002C0 199.584 3.58172 196.002 8 196.002H546.667C551.085 196.002 554.667 199.584 554.667 204.002V252.002H0V204.002Z"/>
</mask>
<path d="M0 204.002C0 199.584 3.58172 196.002 8 196.002H546.667C551.085 196.002 554.667 199.584 554.667 204.002V252.002H0V204.002Z" fill="white"/>
<path d="M0 204.002C0 199.031 4.02944 195.002 9 195.002H545.667C550.637 195.002 554.667 199.031 554.667 204.002C554.667 200.136 551.085 197.002 546.667 197.002H8C3.58172 197.002 0 200.136 0 204.002ZM0 204.002M554.667 252.002H0H554.667M554.667 252.002M0 252.002V196.002V252.002M0 252.002M554.667 196.002V252.002V196.002" fill="#00157E" fill-opacity="0.2" mask="url(#path-30-inside-3_382_4410)"/>
<path d="M28 234.002C33.5228 234.002 38 229.525 38 224.002C38 218.479 33.5228 214.002 28 214.002C22.4772 214.002 18 218.479 18 224.002C18 229.525 22.4772 234.002 28 234.002Z" stroke="#00157E" stroke-width="2" stroke-linecap="round" stroke-linejoin="round"/>
<path d="M28 228.002C30.2091 228.002 32 226.211 32 224.002C32 221.793 30.2091 220.002 28 220.002C25.7909 220.002 24 221.793 24 224.002C24 226.211 25.7909 228.002 28 228.002Z" stroke="#00157E" stroke-width="2" stroke-linecap="round" stroke-linejoin="round"/>
<path d="M20.9301 216.932L25.1701 221.172" stroke="#00157E" stroke-width="2" stroke-linecap="round" stroke-linejoin="round"/>
<path d="M30.83 226.832L35.07 231.072" stroke="#00157E" stroke-width="2" stroke-linecap="round" stroke-linejoin="round"/>
<path d="M30.83 221.172L35.07 216.932" stroke="#00157E" stroke-width="2" stroke-linecap="round" stroke-linejoin="round"/>
<path d="M30.83 221.172L34.36 217.642" stroke="#00157E" stroke-width="2" stroke-linecap="round" stroke-linejoin="round"/>
<path d="M20.9301 231.072L25.1701 226.832" stroke="#00157E" stroke-width="2" stroke-linecap="round" stroke-linejoin="round"/>
<path d="M61.726 217.636C61.726 219.106 60.704 220.156 59.01 220.156C58.142 220.156 57.372 219.974 56.714 219.694L57.078 218.672C57.624 218.924 58.268 219.134 58.926 219.134C59.948 219.134 60.606 218.742 60.606 217.818C60.606 217.132 60.102 216.796 59.43 216.474L58.114 215.844C57.232 215.424 56.63 214.878 56.63 213.688C56.63 212.246 57.89 211.42 59.346 211.42C60.13 211.42 60.634 211.546 61.362 211.812L60.97 212.806C60.522 212.596 60.032 212.4 59.416 212.4C58.548 212.4 57.764 212.75 57.764 213.646C57.764 214.248 58.128 214.542 58.688 214.808L60.032 215.466C61.096 215.984 61.726 216.558 61.726 217.636ZM67.7207 219.932L66.6007 220.114L66.5027 219.344H66.4887C66.0127 219.792 65.4947 220.17 64.7107 220.17C63.6187 220.17 62.9747 219.512 62.9747 218.476C62.9747 217.3 63.8987 216.726 65.2287 216.586L66.4047 216.46V215.872C66.4047 214.962 66.1247 214.318 65.0467 214.318C64.5007 214.318 64.0947 214.486 63.6887 214.696L63.2827 213.87C63.8707 213.52 64.4727 213.296 65.3127 213.296C66.6287 213.296 67.5107 214.066 67.5107 215.368V218.49L67.7207 219.932ZM66.4047 218.644V217.216L65.3827 217.356C64.5427 217.468 64.0807 217.734 64.0807 218.336C64.0807 218.882 64.4167 219.246 64.9767 219.246C65.6347 219.246 66.0407 218.966 66.4047 218.644ZM74.3901 213.45L72.0241 219.988L70.9181 220.03L68.7621 213.548L69.8821 213.268L71.5201 218.546H71.5341L73.2701 213.45H74.3901ZM76.9301 220.002H75.8101V214.962L75.6141 213.52L76.9301 213.338V220.002ZM77.1541 211.742C77.1541 212.19 76.8041 212.526 76.3841 212.526C75.9501 212.526 75.5861 212.19 75.5861 211.742C75.5861 211.294 75.9501 210.944 76.3841 210.944C76.8041 210.944 77.1541 211.294 77.1541 211.742ZM84.1427 220.002H83.0227V215.746C83.0227 214.78 82.6587 214.29 81.7767 214.29C81.1467 214.29 80.6987 214.556 80.2927 214.92V220.002H79.1727V214.962L78.9767 213.52L80.0827 213.338L80.1947 214.108H80.2087C80.6987 213.632 81.3427 213.296 82.1547 213.296C83.2607 213.296 84.1427 214.01 84.1427 215.354V220.002ZM91.6985 214.276H90.3825C90.5785 214.612 90.6905 215.004 90.6905 215.48C90.6905 216.81 89.7245 217.706 88.3805 217.706C88.1145 217.706 87.8625 217.664 87.6385 217.608C87.6385 217.608 87.1905 217.86 87.1905 218.364C87.1905 218.798 87.5125 218.882 87.9605 218.882H89.8365C90.9845 218.882 91.6565 219.232 91.6565 220.254C91.6565 221.542 90.3405 222.998 87.9465 222.998C86.5745 222.998 85.7345 222.326 85.7345 221.178C85.7345 220.1 86.6165 219.568 86.6165 219.568C86.3365 219.386 86.1545 219.106 86.1545 218.644C86.1545 217.832 86.8545 217.426 86.9945 217.356C86.3785 216.978 86.0425 216.334 86.0425 215.48C86.0425 214.15 87.0225 213.268 88.3805 213.268C88.8845 213.268 89.3465 213.38 89.7105 213.604L91.6985 213.296V214.276ZM90.6765 220.422C90.6765 219.946 90.2705 219.848 89.5845 219.848H87.8205C87.6245 219.848 87.4425 219.834 87.2605 219.806C87.2605 219.806 86.7285 220.226 86.7285 220.926C86.7285 221.682 87.1905 222.088 88.1985 222.088C89.8085 222.088 90.6765 221.136 90.6765 220.422ZM89.6405 215.48C89.6405 214.57 89.1365 214.108 88.3805 214.108C87.6525 214.108 87.0925 214.598 87.0925 215.48C87.0925 216.404 87.6105 216.866 88.3805 216.866C89.0945 216.866 89.6405 216.376 89.6405 215.48ZM96.9804 218.098C96.9804 219.288 96.0424 220.142 94.6424 220.142C93.9704 220.142 93.2984 220.044 92.7664 219.792L93.1024 218.812C93.5644 219.022 94.0824 219.19 94.5864 219.19C95.3424 219.19 95.8464 218.896 95.8464 218.28C95.8464 217.804 95.5944 217.608 95.1604 217.412L93.9424 216.852C93.5084 216.656 92.7244 216.264 92.7244 215.13C92.7244 213.884 93.8164 213.296 95.0064 213.296C95.7204 213.296 96.2244 213.408 96.7844 213.646L96.4064 214.612C95.9584 214.416 95.5244 214.276 94.9924 214.276C94.2784 214.276 93.8164 214.5 93.8164 215.06C93.8164 215.55 94.2364 215.746 94.5024 215.872L95.7484 216.46C96.6164 216.866 96.9804 217.384 96.9804 218.098ZM105.988 219.932L104.868 220.114L104.77 219.344H104.756C104.28 219.792 103.762 220.17 102.978 220.17C101.886 220.17 101.242 219.512 101.242 218.476C101.242 217.3 102.166 216.726 103.496 216.586L104.672 216.46V215.872C104.672 214.962 104.392 214.318 103.314 214.318C102.768 214.318 102.362 214.486 101.956 214.696L101.55 213.87C102.138 213.52 102.74 213.296 103.58 213.296C104.896 213.296 105.778 214.066 105.778 215.368V218.49L105.988 219.932ZM104.672 218.644V217.216L103.65 217.356C102.81 217.468 102.348 217.734 102.348 218.336C102.348 218.882 102.684 219.246 103.244 219.246C103.902 219.246 104.308 218.966 104.672 218.644ZM112.262 213.576L111.912 214.584C111.548 214.444 111.142 214.318 110.68 214.318C109.448 214.318 108.706 215.242 108.706 216.628C108.706 218.378 109.392 219.176 110.652 219.176C111.1 219.176 111.464 219.022 111.828 218.868L112.206 219.778C111.66 220.03 111.058 220.156 110.428 220.156C108.552 220.156 107.586 218.812 107.586 216.81C107.586 214.402 109.07 213.296 110.736 213.296C111.31 213.296 111.8 213.394 112.262 213.576ZM117.786 213.576L117.436 214.584C117.072 214.444 116.666 214.318 116.204 214.318C114.972 214.318 114.23 215.242 114.23 216.628C114.23 218.378 114.916 219.176 116.176 219.176C116.624 219.176 116.988 219.022 117.352 218.868L117.73 219.778C117.184 220.03 116.582 220.156 115.952 220.156C114.076 220.156 113.11 218.812 113.11 216.81C113.11 214.402 114.594 213.296 116.26 213.296C116.834 213.296 117.324 213.394 117.786 213.576ZM124.233 216.726C124.233 218.644 123.323 220.156 121.433 220.156C119.361 220.156 118.633 218.686 118.633 216.726C118.633 214.808 119.543 213.296 121.433 213.296C123.505 213.296 124.233 214.766 124.233 216.726ZM123.085 216.754C123.085 215.13 122.539 214.276 121.433 214.276C120.355 214.276 119.781 215.032 119.781 216.684C119.781 218.308 120.327 219.176 121.433 219.176C122.511 219.176 123.085 218.406 123.085 216.754ZM131.179 219.932L130.073 220.114L129.961 219.358H129.947C129.457 219.82 128.813 220.156 128.001 220.156C126.895 220.156 126.013 219.442 126.013 218.098V214.962L125.817 213.52L127.133 213.338V217.706C127.133 218.672 127.497 219.176 128.379 219.176C129.009 219.176 129.457 218.91 129.863 218.532V214.962L129.667 213.52L130.983 213.338V218.49L131.179 219.932ZM138.188 220.002H137.068V215.746C137.068 214.78 136.704 214.29 135.822 214.29C135.192 214.29 134.744 214.556 134.338 214.92V220.002H133.218V214.962L133.022 213.52L134.128 213.338L134.24 214.108H134.254C134.744 213.632 135.388 213.296 136.2 213.296C137.306 213.296 138.188 214.01 138.188 215.354V220.002ZM143.671 219.736C143.265 219.96 142.887 220.142 142.173 220.142C141.165 220.142 140.521 219.484 140.521 218.364V214.36H139.555V213.618L140.521 213.422V212.33L141.627 212.19V213.45H143.461V214.36H141.627V217.986C141.627 218.868 141.851 219.148 142.495 219.148C142.845 219.148 143.111 219.008 143.307 218.882L143.671 219.736Z" fill="#00157E"/>
<path d="M60.656 229.698L57.224 236.982L56.42 236.574L59.612 229.758H56.348V228.882H60.656V229.698ZM65.6599 229.698L62.2279 236.982L61.4239 236.574L64.6159 229.758H61.3519V228.882H65.6599V229.698ZM71.3756 234.246H69.9236V236.694L68.9996 236.85V234.246H65.6996V233.466L69.0356 228.882H69.9236V233.43H71.3756V234.246ZM68.9996 233.43V230.178H68.9876L66.6836 233.43H68.9996ZM76.9539 231.942C76.9539 233.538 76.3299 235.134 74.5179 235.134C72.6939 235.134 72.0699 233.538 72.0699 231.942C72.0699 230.346 72.6939 228.75 74.5179 228.75C76.3299 228.75 76.9539 230.346 76.9539 231.942ZM75.9699 231.942C75.9699 230.598 75.5259 229.59 74.5179 229.59C73.4979 229.59 73.0539 230.598 73.0539 231.942C73.0539 233.286 73.4979 234.294 74.5179 234.294C75.5259 234.294 75.9699 233.286 75.9699 231.942ZM82.389 235.002H77.937V234.378L79.989 232.41C80.541 231.87 80.961 231.474 80.961 230.814C80.961 230.118 80.529 229.602 79.725 229.602C79.185 229.602 78.801 229.842 78.513 230.082L78.057 229.446C78.573 229.014 79.101 228.75 79.929 228.75C81.117 228.75 81.933 229.446 81.933 230.706C81.933 231.546 81.429 232.182 80.853 232.71L79.317 234.126V234.138H82.389V235.002ZM88.2859 231.942C88.2859 233.538 87.6619 235.134 85.8499 235.134C84.0259 235.134 83.4019 233.538 83.4019 231.942C83.4019 230.346 84.0259 228.75 85.8499 228.75C87.6619 228.75 88.2859 230.346 88.2859 231.942ZM87.3019 231.942C87.3019 230.598 86.8579 229.59 85.8499 229.59C84.8299 229.59 84.3859 230.598 84.3859 231.942C84.3859 233.286 84.8299 234.294 85.8499 234.294C86.8579 234.294 87.3019 233.286 87.3019 231.942ZM93.4657 233.922C93.4657 236.226 91.2937 236.874 89.7457 236.994L89.6257 236.178C90.7177 236.058 92.4817 235.626 92.4817 234.054C92.4817 233.07 91.9297 232.494 90.3937 232.494H89.5897L89.8537 228.882H93.2737V229.758H90.6817L90.5257 231.774C90.5257 231.774 90.8017 231.75 91.0537 231.75C92.4457 231.75 93.4657 232.482 93.4657 233.922ZM97.3279 231.906H94.5319V231.102H97.3279V231.906ZM103.391 231.942C103.391 233.538 102.767 235.134 100.955 235.134C99.1314 235.134 98.5074 233.538 98.5074 231.942C98.5074 230.346 99.1314 228.75 100.955 228.75C102.767 228.75 103.391 230.346 103.391 231.942ZM102.407 231.942C102.407 230.598 101.963 229.59 100.955 229.59C99.9354 229.59 99.4914 230.598 99.4914 231.942C99.4914 233.286 99.9354 234.294 100.955 234.294C101.963 234.294 102.407 233.286 102.407 231.942ZM108.871 233.25C108.871 234.402 107.995 235.134 106.759 235.134C105.499 235.134 104.647 234.498 104.647 233.322C104.647 232.266 105.427 231.63 106.027 231.222C105.307 230.718 104.827 230.286 104.827 229.386C104.827 228.366 105.667 227.646 106.747 227.646C107.911 227.646 108.667 228.294 108.667 229.302C108.667 230.166 108.067 230.718 107.479 231.126C108.247 231.642 108.871 232.158 108.871 233.25ZM107.947 233.25C107.947 232.47 107.407 232.074 106.687 231.606C106.051 232.038 105.559 232.41 105.559 233.202C105.559 233.922 106.039 234.33 106.771 234.33C107.551 234.33 107.947 233.85 107.947 233.25ZM107.815 229.41C107.815 228.798 107.407 228.402 106.759 228.402C106.111 228.402 105.691 228.822 105.691 229.422C105.691 229.986 106.159 230.31 106.807 230.754C107.323 230.418 107.815 229.986 107.815 229.41Z" fill="#00157E" fill-opacity="0.7"/>
<path d="M462.631 218.63C461.959 218.978 461.275 219.134 460.363 219.134C458.599 219.134 457.243 217.946 457.243 215.546C457.243 212.99 458.755 211.646 460.699 211.646C461.503 211.646 461.995 211.766 462.607 212.03L462.223 212.906C461.767 212.702 461.335 212.546 460.687 212.546C459.427 212.546 458.275 213.518 458.275 215.294C458.275 217.274 459.007 218.246 460.759 218.246C461.335 218.246 461.863 218.018 462.295 217.826L462.631 218.63ZM469.153 219.002H468.145V215.702H464.893V219.002H463.885V211.778H464.893V214.85H468.145V211.778H469.153V219.002ZM474.739 212.63H472.147V214.982H474.487V215.834H472.147V219.002H471.151V211.778H474.739V212.63Z" fill="#00157E" fill-opacity="0.7"/>
<path d="M487.383 220.002H485.605V214.332L484.373 214.5L484.163 213.24L487.383 212.722V220.002ZM494.963 216.432C494.963 218.392 494.109 220.17 491.953 220.17C489.797 220.17 488.943 218.392 488.943 216.432C488.943 214.472 489.797 212.694 491.953 212.694C494.109 212.694 494.963 214.472 494.963 216.432ZM493.171 216.432C493.171 215.088 492.793 214.276 491.953 214.276C491.127 214.276 490.735 215.088 490.735 216.432C490.735 217.776 491.127 218.588 491.953 218.588C492.793 218.588 493.171 217.776 493.171 216.432ZM498.359 212.596C498.359 214.024 497.785 214.822 496.749 215.564L496.245 215.018C496.735 214.598 497.057 214.15 497.169 213.534C496.651 213.478 496.231 213.016 496.231 212.484C496.231 211.91 496.707 211.434 497.281 211.434C497.883 211.434 498.359 211.882 498.359 212.596ZM505.641 216.432C505.641 218.392 504.787 220.17 502.631 220.17C500.475 220.17 499.621 218.392 499.621 216.432C499.621 214.472 500.475 212.694 502.631 212.694C504.787 212.694 505.641 214.472 505.641 216.432ZM503.849 216.432C503.849 215.088 503.471 214.276 502.631 214.276C501.805 214.276 501.413 215.088 501.413 216.432C501.413 217.776 501.805 218.588 502.631 218.588C503.471 218.588 503.849 217.776 503.849 216.432ZM512.887 216.432C512.887 218.392 512.033 220.17 509.877 220.17C507.721 220.17 506.867 218.392 506.867 216.432C506.867 214.472 507.721 212.694 509.877 212.694C512.033 212.694 512.887 214.472 512.887 216.432ZM511.095 216.432C511.095 215.088 510.717 214.276 509.877 214.276C509.051 214.276 508.659 215.088 508.659 216.432C508.659 217.776 509.051 218.588 509.877 218.588C510.717 218.588 511.095 217.776 511.095 216.432ZM520.133 216.432C520.133 218.392 519.279 220.17 517.123 220.17C514.967 220.17 514.113 218.392 514.113 216.432C514.113 214.472 514.967 212.694 517.123 212.694C519.279 212.694 520.133 214.472 520.133 216.432ZM518.341 216.432C518.341 215.088 517.963 214.276 517.123 214.276C516.297 214.276 515.905 215.088 515.905 216.432C515.905 217.776 516.297 218.588 517.123 218.588C517.963 218.588 518.341 217.776 518.341 216.432ZM523.529 219.05C523.529 219.638 523.053 220.114 522.465 220.114C521.877 220.114 521.401 219.638 521.401 219.05C521.401 218.476 521.877 218 522.465 218C523.053 218 523.529 218.476 523.529 219.05ZM530.811 216.432C530.811 218.392 529.957 220.17 527.801 220.17C525.645 220.17 524.791 218.392 524.791 216.432C524.791 214.472 525.645 212.694 527.801 212.694C529.957 212.694 530.811 214.472 530.811 216.432ZM529.019 216.432C529.019 215.088 528.641 214.276 527.801 214.276C526.975 214.276 526.583 215.088 526.583 216.432C526.583 217.776 526.975 218.588 527.801 218.588C528.641 218.588 529.019 217.776 529.019 216.432ZM538.057 216.432C538.057 218.392 537.203 220.17 535.047 220.17C532.891 220.17 532.037 218.392 532.037 216.432C532.037 214.472 532.891 212.694 535.047 212.694C537.203 212.694 538.057 214.472 538.057 216.432ZM536.265 216.432C536.265 215.088 535.887 214.276 535.047 214.276C534.221 214.276 533.829 215.088 533.829 216.432C533.829 217.776 534.221 218.588 535.047 218.588C535.887 218.588 536.265 217.776 536.265 216.432Z" fill="#00157E"/>
</g>
<path d="M8 28.501H546.667C550.809 28.5011 554.167 31.8589 554.167 36.001V252.002C554.167 256.144 550.809 259.502 546.667 259.502H8C3.85786 259.502 0.5 256.144 0.5 252.002V36.001L0.509766 35.6152C0.710535 31.6524 3.98724 28.501 8 28.501Z" stroke="#00157E" stroke-opacity="0.2"/>
<defs>
<clipPath id="clip0_382_4410">
<path d="M0 36.001C0 31.5827 3.58172 28.001 8 28.001H546.667C551.085 28.001 554.667 31.5827 554.667 36.001V252.002C554.667 256.42 551.085 260.002 546.667 260.002H8C3.58172 260.002 0 256.42 0 252.002V36.001Z" fill="white"/>
</clipPath>
<clipPath id="clip1_382_4410">
<rect width="24" height="24" fill="white" transform="translate(16 156.002)"/>
</clipPath>
</defs>
</svg>
