<svg width="555" height="92" viewBox="0 0 555 92" fill="none" xmlns="http://www.w3.org/2000/svg">
<path d="M125.333 28C125.333 16.9543 134.288 8 145.333 8C156.379 8 165.333 16.9543 165.333 28C165.333 39.0457 156.379 48 145.333 48C134.288 48 125.333 39.0457 125.333 28Z" fill="#00157E"/>
<path d="M156.333 35C156.333 35.5304 156.123 36.0391 155.748 36.4142C155.372 36.7893 154.864 37 154.333 37H136.333C135.803 37 135.294 36.7893 134.919 36.4142C134.544 36.0391 134.333 35.5304 134.333 35V24C134.333 23.4696 134.544 22.9609 134.919 22.5858C135.294 22.2107 135.803 22 136.333 22H140.333L142.333 19H148.333L150.333 22H154.333C154.864 22 155.372 22.2107 155.748 22.5858C156.123 22.9609 156.333 23.4696 156.333 24V35Z" stroke="white" stroke-width="2" stroke-linecap="round" stroke-linejoin="round"/>
<path d="M145.333 33C147.542 33 149.333 31.2091 149.333 29C149.333 26.7909 147.542 25 145.333 25C143.124 25 141.333 26.7909 141.333 29C141.333 31.2091 143.124 33 145.333 33Z" stroke="white" stroke-width="2" stroke-linecap="round" stroke-linejoin="round"/>
<path d="M139.273 64.972C139.273 66.232 138.397 67.132 136.945 67.132C136.201 67.132 135.541 66.976 134.977 66.736L135.289 65.86C135.757 66.076 136.309 66.256 136.873 66.256C137.749 66.256 138.313 65.92 138.313 65.128C138.313 64.54 137.881 64.252 137.305 63.976L136.177 63.436C135.421 63.076 134.905 62.608 134.905 61.588C134.905 60.352 135.985 59.644 137.233 59.644C137.905 59.644 138.337 59.752 138.961 59.98L138.625 60.832C138.241 60.652 137.821 60.484 137.293 60.484C136.549 60.484 135.877 60.784 135.877 61.552C135.877 62.068 136.189 62.32 136.669 62.548L137.821 63.112C138.733 63.556 139.273 64.048 139.273 64.972ZM144.351 61.492L144.051 62.356C143.739 62.236 143.391 62.128 142.995 62.128C141.939 62.128 141.303 62.92 141.303 64.108C141.303 65.608 141.891 66.292 142.971 66.292C143.355 66.292 143.667 66.16 143.979 66.028L144.303 66.808C143.835 67.024 143.319 67.132 142.779 67.132C141.171 67.132 140.343 65.98 140.343 64.264C140.343 62.2 141.615 61.252 143.043 61.252C143.535 61.252 143.955 61.336 144.351 61.492ZM149.356 66.94L148.396 67.096L148.312 66.436H148.3C147.892 66.82 147.448 67.144 146.776 67.144C145.84 67.144 145.288 66.58 145.288 65.692C145.288 64.684 146.08 64.192 147.22 64.072L148.228 63.964V63.46C148.228 62.68 147.988 62.128 147.064 62.128C146.596 62.128 146.248 62.272 145.9 62.452L145.552 61.744C146.056 61.444 146.572 61.252 147.292 61.252C148.42 61.252 149.176 61.912 149.176 63.028V65.704L149.356 66.94ZM148.228 65.836V64.612L147.352 64.732C146.632 64.828 146.236 65.056 146.236 65.572C146.236 66.04 146.524 66.352 147.004 66.352C147.568 66.352 147.916 66.112 148.228 65.836ZM155.37 67H154.41V63.352C154.41 62.524 154.098 62.104 153.342 62.104C152.802 62.104 152.418 62.332 152.07 62.644V67H151.11V62.68L150.942 61.444L151.89 61.288L151.986 61.948H151.998C152.418 61.54 152.97 61.252 153.666 61.252C154.614 61.252 155.37 61.864 155.37 63.016V67Z" fill="#00157E"/>
<path d="M213.333 28C213.333 16.9543 222.288 8 233.333 8C244.379 8 253.333 16.9543 253.333 28C253.333 39.0457 244.379 48 233.333 48C222.288 48 213.333 39.0457 213.333 28Z" fill="#00157E"/>
<path d="M233.333 21V35" stroke="white" stroke-width="2" stroke-linecap="round" stroke-linejoin="round"/>
<path d="M226.333 28H240.333" stroke="white" stroke-width="2" stroke-linecap="round" stroke-linejoin="round"/>
<path d="M230.566 61.564C230.566 63.256 229.186 64.108 227.578 64.108H227.398V67H226.402V59.836C226.402 59.836 227.302 59.704 228.25 59.704C229.654 59.704 230.566 60.376 230.566 61.564ZM229.582 61.744C229.582 60.856 228.994 60.46 228.082 60.46C227.698 60.46 227.398 60.508 227.398 60.508V63.34H227.554C228.622 63.34 229.582 62.86 229.582 61.744ZM235.37 66.94L234.41 67.096L234.326 66.436H234.314C233.906 66.82 233.462 67.144 232.79 67.144C231.854 67.144 231.302 66.58 231.302 65.692C231.302 64.684 232.094 64.192 233.234 64.072L234.242 63.964V63.46C234.242 62.68 234.002 62.128 233.078 62.128C232.61 62.128 232.262 62.272 231.914 62.452L231.566 61.744C232.07 61.444 232.586 61.252 233.306 61.252C234.434 61.252 235.19 61.912 235.19 63.028V65.704L235.37 66.94ZM234.242 65.836V64.612L233.366 64.732C232.646 64.828 232.25 65.056 232.25 65.572C232.25 66.04 232.538 66.352 233.018 66.352C233.582 66.352 233.93 66.112 234.242 65.836ZM241.062 61.384L239.19 66.484C238.59 68.14 237.786 69.136 235.83 69.532L235.65 68.752C237.078 68.464 237.834 67.6 238.206 66.664L236.19 61.468L237.138 61.216L238.686 65.392H238.698L240.114 61.384H241.062Z" fill="#00157E"/>
<path d="M301.333 28C301.333 16.9543 310.288 8 321.333 8C332.379 8 341.333 16.9543 341.333 28C341.333 39.0457 332.379 48 321.333 48C310.288 48 301.333 39.0457 301.333 28Z" fill="#00157E"/>
<g clip-path="url(#clip0_445_11770)">
<path d="M326.333 17L330.333 21L326.333 25" stroke="white" stroke-width="2" stroke-linecap="round" stroke-linejoin="round"/>
<path d="M312.333 27V25C312.333 23.9391 312.755 22.9217 313.505 22.1716C314.255 21.4214 315.272 21 316.333 21H330.333" stroke="white" stroke-width="2" stroke-linecap="round" stroke-linejoin="round"/>
<path d="M316.333 39L312.333 35L316.333 31" stroke="white" stroke-width="2" stroke-linecap="round" stroke-linejoin="round"/>
<path d="M330.333 29V31C330.333 32.0609 329.912 33.0783 329.162 33.8284C328.412 34.5786 327.394 35 326.333 35H312.333" stroke="white" stroke-width="2" stroke-linecap="round" stroke-linejoin="round"/>
</g>
<path d="M305.074 67H304.066V59.776H305.074V67ZM311.29 67H310.33V63.352C310.33 62.524 310.018 62.104 309.262 62.104C308.722 62.104 308.338 62.332 307.99 62.644V67H307.03V62.68L306.862 61.444L307.81 61.288L307.906 61.948H307.918C308.338 61.54 308.89 61.252 309.586 61.252C310.534 61.252 311.29 61.864 311.29 63.016V67ZM315.99 66.772C315.642 66.964 315.318 67.12 314.706 67.12C313.842 67.12 313.29 66.556 313.29 65.596V62.164H312.462V61.528L313.29 61.36V60.424L314.238 60.304V61.384H315.81V62.164H314.238V65.272C314.238 66.028 314.43 66.268 314.982 66.268C315.282 66.268 315.51 66.148 315.678 66.04L315.99 66.772ZM321.008 66.7C320.468 67 319.916 67.132 319.232 67.132C317.576 67.132 316.724 66.016 316.724 64.156C316.724 62.416 317.636 61.252 319.052 61.252C320.408 61.252 320.96 62.152 320.96 63.388V64.06H317.66C317.672 65.56 318.212 66.28 319.436 66.28C319.904 66.28 320.264 66.148 320.672 65.944L321.008 66.7ZM320.06 63.388C320.06 62.548 319.748 62.02 319.004 62.02C318.284 62.02 317.828 62.584 317.708 63.388H320.06ZM324.96 62.212C324.312 62.212 323.832 62.38 323.4 62.776V67H322.44V62.68L322.272 61.444L323.22 61.288L323.316 62.056H323.328C323.712 61.624 324.216 61.264 324.96 61.264V62.212ZM330.391 67H329.431V63.352C329.431 62.524 329.119 62.104 328.363 62.104C327.823 62.104 327.439 62.332 327.091 62.644V67H326.131V62.68L325.963 61.444L326.911 61.288L327.007 61.948H327.019C327.439 61.54 327.991 61.252 328.687 61.252C329.635 61.252 330.391 61.864 330.391 63.016V67ZM335.968 66.94L335.008 67.096L334.924 66.436H334.912C334.504 66.82 334.06 67.144 333.388 67.144C332.452 67.144 331.9 66.58 331.9 65.692C331.9 64.684 332.692 64.192 333.832 64.072L334.84 63.964V63.46C334.84 62.68 334.6 62.128 333.676 62.128C333.208 62.128 332.86 62.272 332.512 62.452L332.164 61.744C332.668 61.444 333.184 61.252 333.904 61.252C335.032 61.252 335.788 61.912 335.788 63.028V65.704L335.968 66.94ZM334.84 65.836V64.612L333.964 64.732C333.244 64.828 332.848 65.056 332.848 65.572C332.848 66.04 333.136 66.352 333.616 66.352C334.18 66.352 334.528 66.112 334.84 65.836ZM338.657 67H337.697V60.196L337.529 58.96L338.657 58.804V67ZM307.988 77.628H305.972V84H304.964V77.628H302.948V76.776H307.988V77.628ZM310.903 79.212C310.255 79.212 309.775 79.38 309.343 79.776V84H308.383V79.68L308.215 78.444L309.163 78.288L309.259 79.056H309.271C309.655 78.624 310.159 78.264 310.903 78.264V79.212ZM315.583 83.94L314.623 84.096L314.539 83.436H314.527C314.119 83.82 313.675 84.144 313.003 84.144C312.067 84.144 311.515 83.58 311.515 82.692C311.515 81.684 312.307 81.192 313.447 81.072L314.455 80.964V80.46C314.455 79.68 314.215 79.128 313.291 79.128C312.823 79.128 312.475 79.272 312.127 79.452L311.779 78.744C312.283 78.444 312.799 78.252 313.519 78.252C314.647 78.252 315.403 78.912 315.403 80.028V82.704L315.583 83.94ZM314.455 82.836V81.612L313.579 81.732C312.859 81.828 312.463 82.056 312.463 82.572C312.463 83.04 312.751 83.352 313.231 83.352C313.795 83.352 314.143 83.112 314.455 82.836ZM321.596 84H320.636V80.352C320.636 79.524 320.324 79.104 319.568 79.104C319.028 79.104 318.644 79.332 318.296 79.644V84H317.336V79.68L317.168 78.444L318.116 78.288L318.212 78.948H318.224C318.644 78.54 319.196 78.252 319.892 78.252C320.84 78.252 321.596 78.864 321.596 80.016V84ZM326.741 82.368C326.741 83.388 325.937 84.12 324.737 84.12C324.161 84.12 323.585 84.036 323.129 83.82L323.417 82.98C323.813 83.16 324.257 83.304 324.689 83.304C325.337 83.304 325.769 83.052 325.769 82.524C325.769 82.116 325.553 81.948 325.181 81.78L324.137 81.3C323.765 81.132 323.093 80.796 323.093 79.824C323.093 78.756 324.029 78.252 325.049 78.252C325.661 78.252 326.093 78.348 326.573 78.552L326.249 79.38C325.865 79.212 325.493 79.092 325.037 79.092C324.425 79.092 324.029 79.284 324.029 79.764C324.029 80.184 324.389 80.352 324.617 80.46L325.685 80.964C326.429 81.312 326.741 81.756 326.741 82.368ZM331.03 75.924L330.814 76.74C330.646 76.68 330.49 76.644 330.25 76.644C329.71 76.644 329.314 76.992 329.314 77.7V78.384H330.862V79.164H329.314V84H328.366V79.164H327.538V78.528L328.366 78.36V77.772C328.366 76.56 329.182 75.816 330.298 75.816C330.598 75.816 330.814 75.864 331.03 75.924ZM335.627 83.7C335.087 84 334.535 84.132 333.851 84.132C332.195 84.132 331.343 83.016 331.343 81.156C331.343 79.416 332.255 78.252 333.671 78.252C335.027 78.252 335.579 79.152 335.579 80.388V81.06H332.279C332.291 82.56 332.831 83.28 334.055 83.28C334.523 83.28 334.883 83.148 335.291 82.944L335.627 83.7ZM334.679 80.388C334.679 79.548 334.367 79.02 333.623 79.02C332.903 79.02 332.447 79.584 332.327 80.388H334.679ZM339.579 79.212C338.931 79.212 338.451 79.38 338.019 79.776V84H337.059V79.68L336.891 78.444L337.839 78.288L337.935 79.056H337.947C338.331 78.624 338.835 78.264 339.579 78.264V79.212Z" fill="#00157E"/>
<path d="M389.333 28C389.333 16.9543 398.288 8 409.333 8C420.379 8 429.333 16.9543 429.333 28C429.333 39.0457 420.379 48 409.333 48C398.288 48 389.333 39.0457 389.333 28Z" fill="#00157E"/>
<path d="M409.333 29C409.886 29 410.333 28.5523 410.333 28C410.333 27.4477 409.886 27 409.333 27C408.781 27 408.333 27.4477 408.333 28C408.333 28.5523 408.781 29 409.333 29Z" stroke="white" stroke-width="2" stroke-linecap="round" stroke-linejoin="round"/>
<path d="M416.333 29C416.886 29 417.333 28.5523 417.333 28C417.333 27.4477 416.886 27 416.333 27C415.781 27 415.333 27.4477 415.333 28C415.333 28.5523 415.781 29 416.333 29Z" stroke="white" stroke-width="2" stroke-linecap="round" stroke-linejoin="round"/>
<path d="M402.333 29C402.886 29 403.333 28.5523 403.333 28C403.333 27.4477 402.886 27 402.333 27C401.781 27 401.333 27.4477 401.333 28C401.333 28.5523 401.781 29 402.333 29Z" stroke="white" stroke-width="2" stroke-linecap="round" stroke-linejoin="round"/>
<path d="M405.691 66.976L404.731 67.048L404.527 61.456H404.515L402.391 67H401.347L399.343 61.468H399.331L399.043 67H398.167L398.635 59.776H399.691L401.959 65.8H401.971L404.263 59.776H405.307L405.691 66.976ZM411.891 64.192C411.891 65.836 411.111 67.132 409.491 67.132C407.715 67.132 407.091 65.872 407.091 64.192C407.091 62.548 407.871 61.252 409.491 61.252C411.267 61.252 411.891 62.512 411.891 64.192ZM410.907 64.216C410.907 62.824 410.439 62.092 409.491 62.092C408.567 62.092 408.075 62.74 408.075 64.156C408.075 65.548 408.543 66.292 409.491 66.292C410.415 66.292 410.907 65.632 410.907 64.216ZM415.936 62.212C415.288 62.212 414.808 62.38 414.376 62.776V67H413.416V62.68L413.248 61.444L414.196 61.288L414.292 62.056H414.304C414.688 61.624 415.192 61.264 415.936 61.264V62.212ZM420.867 66.7C420.327 67 419.775 67.132 419.091 67.132C417.435 67.132 416.583 66.016 416.583 64.156C416.583 62.416 417.495 61.252 418.911 61.252C420.267 61.252 420.819 62.152 420.819 63.388V64.06H417.519C417.531 65.56 418.071 66.28 419.295 66.28C419.763 66.28 420.123 66.148 420.531 65.944L420.867 66.7ZM419.919 63.388C419.919 62.548 419.607 62.02 418.863 62.02C418.143 62.02 417.687 62.584 417.567 63.388H419.919Z" fill="#00157E"/>
<defs>
<clipPath id="clip0_445_11770">
<rect width="24" height="24" fill="white" transform="translate(309.333 16)"/>
</clipPath>
</defs>
</svg>
