<svg width="420" height="228" viewBox="0 0 420 228" fill="none" xmlns="http://www.w3.org/2000/svg">
<path d="M0 8C0 3.58173 3.58172 0 8 0H412C416.418 0 420 3.58172 420 8V220.001C420 224.419 416.418 228.001 412 228.001H8C3.58172 228.001 0 224.419 0 220.001V8Z" fill="white"/>
<path d="M157.692 33.241C156.272 33.981 155.192 34.241 153.552 34.241C150.432 34.241 148.112 32.141 148.112 28.181C148.112 24.021 150.692 21.721 154.192 21.721C155.692 21.721 156.572 22.001 157.652 22.481L156.672 24.741C155.952 24.381 155.332 24.101 154.232 24.101C152.512 24.101 150.912 25.341 150.912 27.881C150.912 30.641 151.992 31.821 154.252 31.821C155.252 31.821 156.012 31.501 156.792 31.121L157.692 33.241ZM167.236 34.001H164.696V28.001C164.696 27.061 164.296 26.541 163.356 26.541C162.576 26.541 162.016 27.001 161.816 27.181V34.001H159.276V22.981L158.956 20.641L161.816 20.321V25.181H161.836C162.076 24.961 162.936 24.301 164.316 24.301C165.996 24.301 167.236 25.261 167.236 27.381V34.001ZM177.706 29.241C177.706 32.081 176.226 34.221 173.446 34.221C170.446 34.221 169.186 32.101 169.186 29.241C169.186 26.401 170.666 24.321 173.446 24.321C176.446 24.321 177.706 26.381 177.706 29.241ZM175.186 29.261C175.186 27.321 174.546 26.541 173.446 26.541C172.346 26.541 171.706 27.281 171.706 29.221C171.706 31.141 172.346 32.001 173.446 32.001C174.546 32.001 175.186 31.181 175.186 29.261ZM187.628 29.241C187.628 32.081 186.148 34.221 183.368 34.221C180.368 34.221 179.108 32.101 179.108 29.241C179.108 26.401 180.588 24.321 183.368 24.321C186.368 24.321 187.628 26.381 187.628 29.241ZM185.108 29.261C185.108 27.321 184.468 26.541 183.368 26.541C182.268 26.541 181.628 27.281 181.628 29.221C181.628 31.141 182.268 32.001 183.368 32.001C184.468 32.001 185.108 31.181 185.108 29.261ZM195.629 30.961C195.629 32.781 194.169 34.221 191.969 34.221C190.829 34.221 189.809 34.041 188.949 33.641L189.609 31.561C190.329 31.861 191.029 32.161 191.829 32.161C192.689 32.161 193.109 31.861 193.109 31.361C193.109 30.901 192.889 30.721 192.369 30.501L190.889 29.881C190.009 29.521 189.049 28.861 189.049 27.301C189.049 25.341 190.709 24.301 192.689 24.301C193.809 24.301 194.569 24.481 195.469 24.861L194.689 26.901C194.049 26.641 193.429 26.381 192.709 26.381C191.929 26.381 191.489 26.601 191.489 27.121C191.489 27.621 191.889 27.801 192.249 27.941L193.789 28.561C194.989 29.041 195.629 29.801 195.629 30.961ZM204.856 33.441C203.796 33.981 202.916 34.241 201.636 34.241C198.476 34.241 197.076 32.321 197.076 29.121C197.076 26.261 198.776 24.321 201.296 24.321C203.936 24.321 204.796 26.141 204.796 28.421V29.541H199.556C199.636 31.221 200.436 32.021 201.956 32.021C202.856 32.021 203.356 31.801 204.076 31.501L204.856 33.441ZM202.576 28.001C202.576 27.021 202.156 26.361 201.216 26.361C200.216 26.361 199.716 27.121 199.596 28.001H202.576ZM217.557 24.741L216.797 26.961C216.297 26.741 215.837 26.561 215.157 26.561C213.897 26.561 212.957 27.461 212.957 29.161C212.957 31.081 213.817 31.921 215.037 31.921C215.757 31.921 216.137 31.761 216.737 31.521L217.497 33.601C216.617 34.001 215.797 34.241 214.717 34.241C211.877 34.241 210.377 32.321 210.377 29.301C210.377 25.821 212.737 24.301 215.157 24.301C216.097 24.301 216.737 24.421 217.557 24.741ZM226.827 29.241C226.827 32.081 225.347 34.221 222.567 34.221C219.567 34.221 218.307 32.101 218.307 29.241C218.307 26.401 219.787 24.321 222.567 24.321C225.567 24.321 226.827 26.381 226.827 29.241ZM224.307 29.261C224.307 27.321 223.667 26.541 222.567 26.541C221.467 26.541 220.827 27.281 220.827 29.221C220.827 31.141 221.467 32.001 222.567 32.001C223.667 32.001 224.307 31.181 224.307 29.261ZM237.109 33.861L234.669 34.181L234.529 33.161H234.509C233.949 33.701 233.009 34.241 231.749 34.241C230.129 34.241 228.809 33.281 228.809 31.161V27.001L228.489 24.661L231.349 24.341V30.541C231.349 31.561 231.769 32.021 232.649 32.021C233.309 32.021 233.869 31.721 234.249 31.341V27.001L233.929 24.661L236.789 24.341V31.521L237.109 33.861ZM247.316 34.001H244.776V28.001C244.776 26.981 244.356 26.521 243.456 26.521C242.796 26.521 242.236 26.841 241.876 27.201V34.001H239.336V27.001L239.016 24.661L241.456 24.341L241.576 25.381H241.596C242.156 24.821 243.096 24.301 244.356 24.301C245.996 24.301 247.316 25.241 247.316 27.381V34.001ZM255.664 33.541C254.844 33.981 254.224 34.221 252.964 34.221C251.084 34.221 250.164 32.961 250.164 31.081V26.541H248.704V24.861L250.164 24.521V22.881L252.684 22.581V24.541H255.284V26.541H252.684V30.401C252.684 31.661 253.004 31.981 253.824 31.981C254.284 31.981 254.544 31.861 254.984 31.661L255.664 33.541ZM262.406 26.621C261.246 26.621 260.486 26.821 259.806 27.581V34.001H257.266V27.001L256.946 24.661L259.386 24.341L259.546 25.681H259.566C260.106 24.961 260.926 24.301 262.406 24.301V26.621ZM272.041 24.541L269.121 32.761C267.761 36.621 265.741 37.761 262.521 38.241L262.061 36.141C263.741 35.881 265.581 34.961 266.241 33.641L262.941 24.821L265.421 24.201L267.561 30.641H267.581L269.581 24.541H272.041Z" fill="#00157E"/>
<path d="M398 21.9302L386 33.9302" stroke="#00157E" stroke-width="2" stroke-linecap="round" stroke-linejoin="round"/>
<path d="M386 21.9302L398 33.9302" stroke="#00157E" stroke-width="2" stroke-linecap="round" stroke-linejoin="round"/>
<mask id="path-6-inside-1_365_3708" fill="white">
<path d="M0 64.001C0 59.5827 3.58172 56.001 8 56.001H412C416.418 56.001 420 59.5827 420 64.001V96.001H0V64.001Z"/>
</mask>
<path d="M0 56.001H420H0M420 97.001H0V95.001H420V97.001ZM420 95.001M0 96.001V56.001V96.001M0 96.001M420 56.001V96.001V56.001" fill="#00157E" fill-opacity="0.1" mask="url(#path-6-inside-1_365_3708)"/>
<path d="M22.6378 78.297C22.6378 79.977 21.4698 81.177 19.5338 81.177C18.5418 81.177 17.6618 80.969 16.9098 80.649L17.3258 79.481C17.9498 79.769 18.6858 80.009 19.4378 80.009C20.6058 80.009 21.3578 79.561 21.3578 78.505C21.3578 77.721 20.7818 77.337 20.0138 76.969L18.5098 76.249C17.5018 75.769 16.8138 75.145 16.8138 73.785C16.8138 72.137 18.2538 71.193 19.9178 71.193C20.8138 71.193 21.3898 71.337 22.2218 71.641L21.7738 72.777C21.2618 72.537 20.7018 72.313 19.9978 72.313C19.0058 72.313 18.1098 72.713 18.1098 73.737C18.1098 74.425 18.5258 74.761 19.1658 75.065L20.7018 75.817C21.9178 76.409 22.6378 77.065 22.6378 78.297ZM33.4748 73.513L31.4108 80.969L30.2268 81.033L28.4028 75.353H28.3868L26.5468 80.985L25.3628 81.033L23.4908 73.593L24.7068 73.289L26.0508 79.129H26.0668L27.8108 73.513H29.0588L30.8188 79.129H30.8348L32.2268 73.513H33.4748ZM36.467 81.001H35.187V75.241L34.963 73.593L36.467 73.385V81.001ZM36.723 71.561C36.723 72.073 36.323 72.457 35.843 72.457C35.347 72.457 34.931 72.073 34.931 71.561C34.931 71.049 35.347 70.649 35.843 70.649C36.323 70.649 36.723 71.049 36.723 71.561ZM42.774 80.697C42.31 80.953 41.878 81.161 41.062 81.161C39.91 81.161 39.174 80.409 39.174 79.129V74.553H38.07V73.705L39.174 73.481V72.233L40.438 72.073V73.513H42.534V74.553H40.438V78.697C40.438 79.705 40.694 80.025 41.43 80.025C41.83 80.025 42.134 79.865 42.358 79.721L42.774 80.697ZM49.3471 81.001H43.9391V80.137L47.6031 74.569V74.553H44.1631V73.513H49.1871V74.377L45.5551 79.929V79.945H49.3471V81.001ZM56.1675 80.601C55.4475 81.001 54.7115 81.177 53.7995 81.177C51.5915 81.177 50.4555 79.689 50.4555 77.209C50.4555 74.889 51.6715 73.337 53.5595 73.337C55.3675 73.337 56.1035 74.537 56.1035 76.185V77.081H51.7035C51.7195 79.081 52.4395 80.041 54.0715 80.041C54.6955 80.041 55.1755 79.865 55.7195 79.593L56.1675 80.601ZM54.9035 76.185C54.9035 75.065 54.4875 74.361 53.4955 74.361C52.5355 74.361 51.9275 75.113 51.7675 76.185H54.9035ZM61.4369 74.617C60.5729 74.617 59.9329 74.841 59.3569 75.369V81.001H58.0769V75.241L57.8529 73.593L59.1169 73.385L59.2449 74.409H59.2609C59.7729 73.833 60.4449 73.353 61.4369 73.353V74.617ZM64.2468 81.001H62.9668V71.929L62.7428 70.281L64.2468 70.073V81.001ZM71.692 80.921L70.412 81.129L70.3 80.249H70.284C69.74 80.761 69.148 81.193 68.252 81.193C67.004 81.193 66.268 80.441 66.268 79.257C66.268 77.913 67.324 77.257 68.844 77.097L70.188 76.953V76.281C70.188 75.241 69.868 74.505 68.636 74.505C68.012 74.505 67.548 74.697 67.084 74.937L66.62 73.993C67.292 73.593 67.98 73.337 68.94 73.337C70.444 73.337 71.452 74.217 71.452 75.705V79.273L71.692 80.921ZM70.188 79.449V77.817L69.02 77.977C68.06 78.105 67.532 78.409 67.532 79.097C67.532 79.721 67.916 80.137 68.556 80.137C69.308 80.137 69.772 79.817 70.188 79.449ZM79.71 81.001H78.43V76.137C78.43 75.033 78.014 74.473 77.006 74.473C76.286 74.473 75.774 74.777 75.31 75.193V81.001H74.03V75.241L73.806 73.593L75.07 73.385L75.198 74.265H75.214C75.774 73.721 76.51 73.337 77.438 73.337C78.702 73.337 79.71 74.153 79.71 75.689V81.001ZM87.8491 80.953L86.6171 81.129L86.5051 80.377H86.4891C86.0091 80.777 85.3531 81.177 84.4731 81.177C82.8251 81.177 81.7211 79.817 81.7211 77.593C81.7211 75.017 83.0491 73.433 85.3211 73.433C85.9291 73.433 86.3611 73.545 86.3611 73.545V71.929L86.1211 70.281L87.6251 70.073V79.305L87.8491 80.953ZM84.9211 80.057C85.5451 80.057 85.9771 79.801 86.3611 79.497V74.713C86.3611 74.713 85.9451 74.505 85.2091 74.505C83.7531 74.505 83.0331 75.737 83.0331 77.193C83.0331 79.001 83.5131 80.057 84.9211 80.057Z" fill="#00157E"/>
<mask id="path-9-inside-2_365_3708" fill="white">
<path d="M0 96.001H420V136.001H0V96.001Z"/>
</mask>
<path d="M420 136.001V135.001H0V136.001V137.001H420V136.001Z" fill="#00157E" fill-opacity="0.1" mask="url(#path-9-inside-2_365_3708)"/>
<path d="M24.7661 111.705L24.3021 112.905C23.6621 112.633 23.0061 112.393 22.1421 112.393C20.2221 112.393 18.5901 113.673 18.5901 116.041C18.5901 118.649 19.5981 119.961 22.0141 119.961C22.6541 119.961 23.3581 119.785 23.3581 119.785V116.281H24.6861V120.681C24.6861 120.681 23.5021 121.177 21.4061 121.177C18.9741 121.177 17.1821 119.481 17.1821 116.361C17.1821 113.001 19.4381 111.193 22.1741 111.193C23.2141 111.193 23.9661 111.353 24.7661 111.705ZM32.1753 120.601C31.4553 121.001 30.7193 121.177 29.8073 121.177C27.5993 121.177 26.4633 119.689 26.4633 117.209C26.4633 114.889 27.6793 113.337 29.5673 113.337C31.3753 113.337 32.1113 114.537 32.1113 116.185V117.081H27.7113C27.7273 119.081 28.4473 120.041 30.0793 120.041C30.7033 120.041 31.1833 119.865 31.7273 119.593L32.1753 120.601ZM30.9113 116.185C30.9113 115.065 30.4953 114.361 29.5033 114.361C28.5433 114.361 27.9353 115.113 27.7753 116.185H30.9113ZM37.4447 114.617C36.5807 114.617 35.9407 114.841 35.3647 115.369V121.001H34.0847V115.241L33.8607 113.593L35.1247 113.385L35.2527 114.409H35.2687C35.7807 113.833 36.4527 113.353 37.4447 113.353V114.617ZM49.0706 121.001H47.8066V116.137C47.8066 115.033 47.3906 114.473 46.3666 114.473C45.6466 114.473 45.0386 114.825 44.6386 115.225C44.6386 115.225 44.6866 115.497 44.6866 115.785V121.001H43.4066V116.137C43.4066 115.033 42.9906 114.473 41.9826 114.473C41.2626 114.473 40.7506 114.761 40.2866 115.193V121.001H39.0066V115.241L38.7826 113.593L40.0466 113.385L40.1746 114.265H40.1906C40.7506 113.721 41.4866 113.337 42.4146 113.337C43.2786 113.337 43.9986 113.721 44.3826 114.409H44.3986C44.9906 113.817 45.7586 113.337 46.8146 113.337C48.0946 113.337 49.0706 114.153 49.0706 115.689V121.001ZM56.5279 120.921L55.2479 121.129L55.1359 120.249H55.1199C54.5759 120.761 53.9839 121.193 53.0879 121.193C51.8399 121.193 51.1039 120.441 51.1039 119.257C51.1039 117.913 52.1599 117.257 53.6799 117.097L55.0239 116.953V116.281C55.0239 115.241 54.7039 114.505 53.4719 114.505C52.8479 114.505 52.3839 114.697 51.9199 114.937L51.4559 113.993C52.1279 113.593 52.8159 113.337 53.7759 113.337C55.2799 113.337 56.2879 114.217 56.2879 115.705V119.273L56.5279 120.921ZM55.0239 119.449V117.817L53.8559 117.977C52.8959 118.105 52.3679 118.409 52.3679 119.097C52.3679 119.721 52.7519 120.137 53.3919 120.137C54.1439 120.137 54.6079 119.817 55.0239 119.449ZM64.5459 121.001H63.2659V116.137C63.2659 115.033 62.8499 114.473 61.8419 114.473C61.1219 114.473 60.6099 114.777 60.1459 115.193V121.001H58.8659V115.241L58.6419 113.593L59.9059 113.385L60.0339 114.265H60.0499C60.6099 113.721 61.3459 113.337 62.2739 113.337C63.5379 113.337 64.5459 114.153 64.5459 115.689V121.001ZM72.3212 113.513L69.8252 120.313C69.0252 122.521 67.9532 123.849 65.3452 124.377L65.1052 123.337C67.0092 122.953 68.0172 121.801 68.5132 120.553L65.8252 113.625L67.0892 113.289L69.1532 118.857H69.1692L71.0572 113.513H72.3212Z" fill="#00157E"/>
<mask id="path-12-inside-3_365_3708" fill="white">
<path d="M0 136.001H420V176.001H0V136.001Z"/>
</mask>
<path d="M420 176.001V175.001H0V176.001V177.001H420V176.001Z" fill="#00157E" fill-opacity="0.1" mask="url(#path-12-inside-3_365_3708)"/>
<path d="M24.3948 160.841L23.0828 161.209L22.0588 157.881H18.9228L17.9468 161.001H16.5388L19.8828 151.369H21.2588L24.3948 160.841ZM21.7708 156.921L20.5228 152.761H20.5068L19.2108 156.921H21.7708ZM31.8715 160.921L30.6075 161.129L30.4795 160.265H30.4635C29.9035 160.793 29.1675 161.177 28.2395 161.177C26.9755 161.177 25.9675 160.361 25.9675 158.825V155.241L25.7435 153.593L27.2475 153.385V158.377C27.2475 159.481 27.6635 160.057 28.6715 160.057C29.3915 160.057 29.9035 159.753 30.3675 159.321V155.241L30.1435 153.593L31.6475 153.385V159.273L31.8715 160.921ZM38.5379 158.825C38.5379 160.185 37.4659 161.161 35.8659 161.161C35.0979 161.161 34.3299 161.049 33.7219 160.761L34.1059 159.641C34.6339 159.881 35.2259 160.073 35.8019 160.073C36.6659 160.073 37.2419 159.737 37.2419 159.033C37.2419 158.489 36.9539 158.265 36.4579 158.041L35.0659 157.401C34.5699 157.177 33.6739 156.729 33.6739 155.433C33.6739 154.009 34.9219 153.337 36.2819 153.337C37.0979 153.337 37.6739 153.465 38.3139 153.737L37.8819 154.841C37.3699 154.617 36.8739 154.457 36.2659 154.457C35.4499 154.457 34.9219 154.713 34.9219 155.353C34.9219 155.913 35.4019 156.137 35.7059 156.281L37.1299 156.953C38.1219 157.417 38.5379 158.009 38.5379 158.825ZM44.3053 160.697C43.8413 160.953 43.4093 161.161 42.5933 161.161C41.4413 161.161 40.7053 160.409 40.7053 159.129V154.553H39.6013V153.705L40.7053 153.481V152.233L41.9693 152.073V153.513H44.0653V154.553H41.9693V158.697C41.9693 159.705 42.2253 160.025 42.9613 160.025C43.3613 160.025 43.6653 159.865 43.8893 159.721L44.3053 160.697ZM49.3744 154.617C48.5104 154.617 47.8704 154.841 47.2944 155.369V161.001H46.0144V155.241L45.7904 153.593L47.0544 153.385L47.1824 154.409H47.1984C47.7104 153.833 48.3824 153.353 49.3744 153.353V154.617ZM52.2483 161.001H50.9683V155.241L50.7443 153.593L52.2483 153.385V161.001ZM52.5043 151.561C52.5043 152.073 52.1043 152.457 51.6243 152.457C51.1283 152.457 50.7122 152.073 50.7122 151.561C50.7122 151.049 51.1283 150.649 51.6243 150.649C52.1043 150.649 52.5043 151.049 52.5043 151.561ZM59.7233 160.921L58.4433 161.129L58.3313 160.249H58.3153C57.7713 160.761 57.1793 161.193 56.2833 161.193C55.0353 161.193 54.2993 160.441 54.2993 159.257C54.2993 157.913 55.3553 157.257 56.8753 157.097L58.2193 156.953V156.281C58.2193 155.241 57.8993 154.505 56.6673 154.505C56.0433 154.505 55.5793 154.697 55.1153 154.937L54.6513 153.993C55.3233 153.593 56.0113 153.337 56.9713 153.337C58.4753 153.337 59.4833 154.217 59.4833 155.705V159.273L59.7233 160.921ZM58.2193 159.449V157.817L57.0513 157.977C56.0913 158.105 55.5633 158.409 55.5633 159.097C55.5633 159.721 55.9473 160.137 56.5873 160.137C57.3393 160.137 57.8033 159.817 58.2193 159.449Z" fill="#00157E"/>
<path d="M24.7869 197.097C24.7869 199.849 23.2349 201.209 21.1549 201.209C18.9309 201.209 17.5069 200.089 17.5069 197.065V191.369H18.8829V197.129C18.8829 199.033 19.6189 199.929 21.1069 199.929C22.5949 199.929 23.5069 199.017 23.5069 197.161V191.369H24.7869V197.097ZM33.0459 201.001H31.7659V196.137C31.7659 195.033 31.3499 194.473 30.3419 194.473C29.6219 194.473 29.1099 194.777 28.6459 195.193V201.001H27.3659V195.241L27.1419 193.593L28.4059 193.385L28.5339 194.265H28.5499C29.1099 193.721 29.8459 193.337 30.7739 193.337C32.0379 193.337 33.0459 194.153 33.0459 195.689V201.001ZM36.8811 201.001H35.6011V195.241L35.3771 193.593L36.8811 193.385V201.001ZM37.1371 191.561C37.1371 192.073 36.7371 192.457 36.2571 192.457C35.7611 192.457 35.3451 192.073 35.3451 191.561C35.3451 191.049 35.7611 190.649 36.2571 190.649C36.7371 190.649 37.1371 191.049 37.1371 191.561ZM43.1881 200.697C42.7241 200.953 42.2921 201.161 41.4761 201.161C40.3241 201.161 39.5881 200.409 39.5881 199.129V194.553H38.4841V193.705L39.5881 193.481V192.233L40.8521 192.073V193.513H42.9481V194.553H40.8521V198.697C40.8521 199.705 41.1081 200.025 41.8441 200.025C42.2441 200.025 42.5481 199.865 42.7721 199.721L43.1881 200.697ZM49.8784 200.601C49.1584 201.001 48.4224 201.177 47.5104 201.177C45.3024 201.177 44.1664 199.689 44.1664 197.209C44.1664 194.889 45.3824 193.337 47.2704 193.337C49.0784 193.337 49.8144 194.537 49.8144 196.185V197.081H45.4144C45.4304 199.081 46.1504 200.041 47.7824 200.041C48.4064 200.041 48.8864 199.865 49.4304 199.593L49.8784 200.601ZM48.6144 196.185C48.6144 195.065 48.1984 194.361 47.2064 194.361C46.2464 194.361 45.6384 195.113 45.4784 196.185H48.6144ZM57.4038 200.953L56.1718 201.129L56.0598 200.377H56.0438C55.5638 200.777 54.9078 201.177 54.0278 201.177C52.3798 201.177 51.2758 199.817 51.2758 197.593C51.2758 195.017 52.6038 193.433 54.8758 193.433C55.4838 193.433 55.9158 193.545 55.9158 193.545V191.929L55.6758 190.281L57.1798 190.073V199.305L57.4038 200.953ZM54.4758 200.057C55.0998 200.057 55.5318 199.801 55.9158 199.497V194.713C55.9158 194.713 55.4998 194.505 54.7638 194.505C53.3078 194.505 52.5878 195.737 52.5878 197.193C52.5878 199.001 53.0678 200.057 54.4758 200.057ZM68.3643 198.297C68.3643 199.977 67.1963 201.177 65.2603 201.177C64.2683 201.177 63.3883 200.969 62.6363 200.649L63.0523 199.481C63.6763 199.769 64.4123 200.009 65.1643 200.009C66.3323 200.009 67.0843 199.561 67.0843 198.505C67.0843 197.721 66.5083 197.337 65.7403 196.969L64.2363 196.249C63.2283 195.769 62.5403 195.145 62.5403 193.785C62.5403 192.137 63.9803 191.193 65.6443 191.193C66.5403 191.193 67.1163 191.337 67.9483 191.641L67.5003 192.777C66.9883 192.537 66.4283 192.313 65.7243 192.313C64.7323 192.313 63.8363 192.713 63.8363 193.737C63.8363 194.425 64.2523 194.761 64.8923 195.065L66.4283 195.817C67.6443 196.409 68.3643 197.065 68.3643 198.297ZM74.0474 200.697C73.5834 200.953 73.1514 201.161 72.3354 201.161C71.1834 201.161 70.4474 200.409 70.4474 199.129V194.553H69.3434V193.705L70.4474 193.481V192.233L71.7114 192.073V193.513H73.8074V194.553H71.7114V198.697C71.7114 199.705 71.9674 200.025 72.7034 200.025C73.1034 200.025 73.4074 199.865 73.6314 199.721L74.0474 200.697ZM80.6686 200.921L79.3886 201.129L79.2766 200.249H79.2606C78.7166 200.761 78.1246 201.193 77.2286 201.193C75.9806 201.193 75.2446 200.441 75.2446 199.257C75.2446 197.913 76.3006 197.257 77.8206 197.097L79.1646 196.953V196.281C79.1646 195.241 78.8446 194.505 77.6126 194.505C76.9886 194.505 76.5246 194.697 76.0606 194.937L75.5966 193.993C76.2686 193.593 76.9566 193.337 77.9166 193.337C79.4206 193.337 80.4286 194.217 80.4286 195.705V199.273L80.6686 200.921ZM79.1646 199.449V197.817L77.9966 197.977C77.0366 198.105 76.5086 198.409 76.5086 199.097C76.5086 199.721 76.8926 200.137 77.5326 200.137C78.2846 200.137 78.7486 199.817 79.1646 199.449ZM86.7506 200.697C86.2866 200.953 85.8546 201.161 85.0386 201.161C83.8866 201.161 83.1506 200.409 83.1506 199.129V194.553H82.0466V193.705L83.1506 193.481V192.233L84.4146 192.073V193.513H86.5106V194.553H84.4146V198.697C84.4146 199.705 84.6706 200.025 85.4066 200.025C85.8066 200.025 86.1106 199.865 86.3346 199.721L86.7506 200.697ZM93.4409 200.601C92.7209 201.001 91.9849 201.177 91.0729 201.177C88.8649 201.177 87.7289 199.689 87.7289 197.209C87.7289 194.889 88.9449 193.337 90.8329 193.337C92.6409 193.337 93.3769 194.537 93.3769 196.185V197.081H88.9769C88.9929 199.081 89.7129 200.041 91.3449 200.041C91.9689 200.041 92.4489 199.865 92.9929 199.593L93.4409 200.601ZM92.1769 196.185C92.1769 195.065 91.7609 194.361 90.7689 194.361C89.8089 194.361 89.2009 195.113 89.0409 196.185H92.1769ZM99.6863 198.825C99.6863 200.185 98.6143 201.161 97.0143 201.161C96.2463 201.161 95.4783 201.049 94.8703 200.761L95.2543 199.641C95.7823 199.881 96.3743 200.073 96.9503 200.073C97.8143 200.073 98.3903 199.737 98.3903 199.033C98.3903 198.489 98.1023 198.265 97.6063 198.041L96.2143 197.401C95.7183 197.177 94.8223 196.729 94.8223 195.433C94.8223 194.009 96.0703 193.337 97.4303 193.337C98.2463 193.337 98.8223 193.465 99.4623 193.737L99.0303 194.841C98.5183 194.617 98.0223 194.457 97.4143 194.457C96.5983 194.457 96.0703 194.713 96.0703 195.353C96.0703 195.913 96.5503 196.137 96.8543 196.281L98.2783 196.953C99.2703 197.417 99.6863 198.009 99.6863 198.825ZM110.957 197.257C110.957 199.449 109.917 201.177 107.757 201.177C105.389 201.177 104.557 199.497 104.557 197.257C104.557 195.065 105.597 193.337 107.757 193.337C110.125 193.337 110.957 195.017 110.957 197.257ZM109.645 197.289C109.645 195.433 109.021 194.457 107.757 194.457C106.525 194.457 105.869 195.321 105.869 197.209C105.869 199.065 106.493 200.057 107.757 200.057C108.989 200.057 109.645 199.177 109.645 197.289ZM116.609 190.233L116.321 191.321C116.097 191.241 115.889 191.193 115.569 191.193C114.849 191.193 114.321 191.657 114.321 192.601V193.513H116.385V194.553H114.321V201.001H113.057V194.553H111.953V193.705L113.057 193.481V192.697C113.057 191.081 114.145 190.089 115.633 190.089C116.033 190.089 116.321 190.153 116.609 190.233ZM128.137 200.841L126.825 201.209L125.801 197.881H122.665L121.689 201.001H120.281L123.625 191.369H125.001L128.137 200.841ZM125.513 196.921L124.265 192.761H124.249L122.953 196.921H125.513ZM139.774 201.001H138.51V196.137C138.51 195.033 138.094 194.473 137.07 194.473C136.35 194.473 135.742 194.825 135.342 195.225C135.342 195.225 135.39 195.497 135.39 195.785V201.001H134.11V196.137C134.11 195.033 133.694 194.473 132.686 194.473C131.966 194.473 131.454 194.761 130.99 195.193V201.001H129.71V195.241L129.486 193.593L130.75 193.385L130.878 194.265H130.894C131.454 193.721 132.19 193.337 133.118 193.337C133.982 193.337 134.702 193.721 135.086 194.409H135.102C135.694 193.817 136.462 193.337 137.518 193.337C138.798 193.337 139.774 194.153 139.774 195.689V201.001ZM147.519 200.601C146.799 201.001 146.063 201.177 145.151 201.177C142.943 201.177 141.807 199.689 141.807 197.209C141.807 194.889 143.023 193.337 144.911 193.337C146.719 193.337 147.455 194.537 147.455 196.185V197.081H143.055C143.071 199.081 143.791 200.041 145.423 200.041C146.047 200.041 146.527 199.865 147.071 199.593L147.519 200.601ZM146.255 196.185C146.255 195.065 145.839 194.361 144.847 194.361C143.887 194.361 143.279 195.113 143.119 196.185H146.255ZM152.788 194.617C151.924 194.617 151.284 194.841 150.708 195.369V201.001H149.428V195.241L149.204 193.593L150.468 193.385L150.596 194.409H150.612C151.124 193.833 151.796 193.353 152.788 193.353V194.617ZM155.662 201.001H154.382V195.241L154.158 193.593L155.662 193.385V201.001ZM155.918 191.561C155.918 192.073 155.518 192.457 155.038 192.457C154.542 192.457 154.126 192.073 154.126 191.561C154.126 191.049 154.542 190.649 155.038 190.649C155.518 190.649 155.918 191.049 155.918 191.561ZM163.057 193.657L162.657 194.809C162.241 194.649 161.777 194.505 161.249 194.505C159.841 194.505 158.993 195.561 158.993 197.145C158.993 199.145 159.777 200.057 161.217 200.057C161.729 200.057 162.145 199.881 162.561 199.705L162.993 200.745C162.369 201.033 161.681 201.177 160.961 201.177C158.817 201.177 157.713 199.641 157.713 197.353C157.713 194.601 159.409 193.337 161.313 193.337C161.969 193.337 162.529 193.449 163.057 193.657ZM169.731 200.921L168.451 201.129L168.339 200.249H168.323C167.779 200.761 167.187 201.193 166.291 201.193C165.043 201.193 164.307 200.441 164.307 199.257C164.307 197.913 165.363 197.257 166.883 197.097L168.227 196.953V196.281C168.227 195.241 167.907 194.505 166.675 194.505C166.051 194.505 165.587 194.697 165.123 194.937L164.659 193.993C165.331 193.593 166.019 193.337 166.979 193.337C168.483 193.337 169.491 194.217 169.491 195.705V199.273L169.731 200.921ZM168.227 199.449V197.817L167.059 197.977C166.099 198.105 165.571 198.409 165.571 199.097C165.571 199.721 165.955 200.137 166.595 200.137C167.347 200.137 167.811 199.817 168.227 199.449Z" fill="#00157E"/>
</svg>
