<svg width="512" height="88" viewBox="0 0 512 88" fill="none" xmlns="http://www.w3.org/2000/svg">
<path d="M5.488 16H1.162V7.572H5.348V8.566H2.324V11.156H5.054V12.136H2.324V15.006H5.488V16ZM11.7413 15.706L10.7893 16.238L8.9693 13.438H8.9553L7.3173 16H6.1413L8.4233 12.598L6.4633 9.742L7.4013 9.21L9.0253 11.674H9.0393L10.4393 9.448H11.6293L9.5573 12.5L11.7413 15.706ZM17.4962 15.65C16.8662 16 16.2222 16.154 15.4242 16.154C13.4922 16.154 12.4982 14.852 12.4982 12.682C12.4982 10.652 13.5622 9.294 15.2142 9.294C16.7962 9.294 17.4402 10.344 17.4402 11.786V12.57H13.5902C13.6042 14.32 14.2342 15.16 15.6622 15.16C16.2082 15.16 16.6282 15.006 17.1042 14.768L17.4962 15.65ZM16.3902 11.786C16.3902 10.806 16.0262 10.19 15.1582 10.19C14.3182 10.19 13.7862 10.848 13.6462 11.786H16.3902ZM23.3949 9.574L23.0449 10.582C22.6809 10.442 22.2749 10.316 21.8129 10.316C20.5809 10.316 19.8389 11.24 19.8389 12.626C19.8389 14.376 20.5249 15.174 21.7849 15.174C22.2329 15.174 22.5969 15.02 22.9609 14.866L23.3389 15.776C22.7929 16.028 22.1909 16.154 21.5609 16.154C19.6849 16.154 18.7189 14.81 18.7189 12.808C18.7189 10.4 20.2029 9.294 21.8689 9.294C22.4429 9.294 22.9329 9.392 23.3949 9.574ZM30.1024 15.93L28.9964 16.112L28.8844 15.356H28.8704C28.3804 15.818 27.7364 16.154 26.9244 16.154C25.8184 16.154 24.9364 15.44 24.9364 14.096V10.96L24.7404 9.518L26.0564 9.336V13.704C26.0564 14.67 26.4204 15.174 27.3024 15.174C27.9324 15.174 28.3804 14.908 28.7864 14.53V10.96L28.5904 9.518L29.9064 9.336V14.488L30.1024 15.93ZM35.4175 15.734C35.0115 15.958 34.6335 16.14 33.9195 16.14C32.9115 16.14 32.2675 15.482 32.2675 14.362V10.358H31.3015V9.616L32.2675 9.42V8.328L33.3735 8.188V9.448H35.2075V10.358H33.3735V13.984C33.3735 14.866 33.5975 15.146 34.2415 15.146C34.5915 15.146 34.8575 15.006 35.0535 14.88L35.4175 15.734ZM41.2716 15.65C40.6416 16 39.9976 16.154 39.1996 16.154C37.2676 16.154 36.2736 14.852 36.2736 12.682C36.2736 10.652 37.3376 9.294 38.9896 9.294C40.5716 9.294 41.2156 10.344 41.2156 11.786V12.57H37.3656C37.3796 14.32 38.0096 15.16 39.4376 15.16C39.9836 15.16 40.4036 15.006 40.8796 14.768L41.2716 15.65ZM40.1656 11.786C40.1656 10.806 39.8016 10.19 38.9336 10.19C38.0936 10.19 37.5616 10.848 37.4216 11.786H40.1656ZM51.0337 12.724C51.0337 14.642 50.1237 16.154 48.2337 16.154C46.1617 16.154 45.4337 14.684 45.4337 12.724C45.4337 10.806 46.3437 9.294 48.2337 9.294C50.3057 9.294 51.0337 10.764 51.0337 12.724ZM49.8857 12.752C49.8857 11.128 49.3397 10.274 48.2337 10.274C47.1557 10.274 46.5817 11.03 46.5817 12.682C46.5817 14.306 47.1277 15.174 48.2337 15.174C49.3117 15.174 49.8857 14.404 49.8857 12.752ZM57.7834 16H56.6634V11.744C56.6634 10.778 56.2994 10.288 55.4174 10.288C54.7874 10.288 54.3394 10.554 53.9334 10.918V16H52.8134V10.96L52.6174 9.518L53.7234 9.336L53.8354 10.106H53.8494C54.3394 9.63 54.9834 9.294 55.7954 9.294C56.9014 9.294 57.7834 10.008 57.7834 11.352V16Z" fill="#00157E" fill-opacity="0.7"/>
<path d="M0 32C0 29.7909 1.79086 28 4 28H508C510.209 28 512 29.7909 512 32V64C512 66.2091 510.209 68 508 68H4C1.79086 68 0 66.2091 0 64V32Z" fill="white"/>
<path d="M4 28.5H508C509.933 28.5 511.5 30.067 511.5 32V64C511.5 65.933 509.933 67.5 508 67.5H4C2.067 67.5 0.5 65.933 0.5 64V32C0.500001 30.067 2.067 28.5 4 28.5Z" stroke="#00157E" stroke-opacity="0.7"/>
<path d="M18.3333 52.36C18.3333 54.28 17.1013 55.496 14.9893 55.496C14.3653 55.496 13.7093 55.384 13.1173 55.24L13.4053 54.04C13.9333 54.2 14.3813 54.328 15.0213 54.328C16.2853 54.328 17.0533 53.704 17.0533 52.552C17.0533 50.984 15.6133 50.376 13.5813 50.376V49.464C15.9493 49.32 16.6053 48.264 16.6053 47.224C16.6053 46.312 16.0453 45.8 15.1493 45.8C14.4133 45.8 13.9813 46.04 13.5013 46.36L12.9733 45.48C13.5493 45.032 14.2853 44.664 15.4053 44.664C16.9413 44.664 17.8853 45.576 17.8853 47.064C17.8853 48.36 17.1333 49.224 16.0613 49.736V49.752C17.6293 50.088 18.3333 51.128 18.3333 52.36ZM22.3671 53H21.1031V45.928L19.6951 46.12L19.5511 45.144L22.3671 44.696V53ZM26.4004 52.184C26.4004 52.696 25.9844 53.112 25.4884 53.112C24.9764 53.112 24.5604 52.696 24.5604 52.184C24.5604 51.688 24.9764 51.272 25.4884 51.272C25.9844 51.272 26.4004 51.688 26.4004 52.184ZM34.6807 48.92C34.6807 51.048 33.8487 53.176 31.4327 53.176C29.0007 53.176 28.1687 51.048 28.1687 48.92C28.1687 46.792 29.0007 44.664 31.4327 44.664C33.8487 44.664 34.6807 46.792 34.6807 48.92ZM33.3687 48.92C33.3687 47.128 32.7767 45.784 31.4327 45.784C30.0727 45.784 29.4807 47.128 29.4807 48.92C29.4807 50.712 30.0727 52.056 31.4327 52.056C32.7767 52.056 33.3687 50.712 33.3687 48.92ZM41.5871 51.56C41.5871 54.632 38.6911 55.496 36.6271 55.656L36.4671 54.568C37.9231 54.408 40.2751 53.832 40.2751 51.736C40.2751 50.424 39.5391 49.656 37.4911 49.656H36.4191L36.7711 44.84H41.3311V46.008H37.8751L37.6671 48.696C37.6671 48.696 38.0351 48.664 38.3711 48.664C40.2271 48.664 41.5871 49.64 41.5871 51.56ZM45.0567 52.184C45.0567 52.696 44.6407 53.112 44.1447 53.112C43.6327 53.112 43.2167 52.696 43.2167 52.184C43.2167 51.688 43.6327 51.272 44.1447 51.272C44.6407 51.272 45.0567 51.688 45.0567 52.184ZM52.5369 53H46.6009V52.168L49.3369 49.544C50.0729 48.824 50.6329 48.296 50.6329 47.416C50.6329 46.488 50.0569 45.8 48.9849 45.8C48.2649 45.8 47.7529 46.12 47.3689 46.44L46.7609 45.592C47.4489 45.016 48.1529 44.664 49.2569 44.664C50.8409 44.664 51.9289 45.592 51.9289 47.272C51.9289 48.392 51.2569 49.24 50.4889 49.944L48.4409 51.832V51.848H52.5369V53ZM60.3994 48.92C60.3994 51.048 59.5674 53.176 57.1514 53.176C54.7194 53.176 53.8874 51.048 53.8874 48.92C53.8874 46.792 54.7194 44.664 57.1514 44.664C59.5674 44.664 60.3994 46.792 60.3994 48.92ZM59.0874 48.92C59.0874 47.128 58.4954 45.784 57.1514 45.784C55.7914 45.784 55.1994 47.128 55.1994 48.92C55.1994 50.712 55.7914 52.056 57.1514 52.056C58.4954 52.056 59.0874 50.712 59.0874 48.92ZM67.6463 53H61.7103V52.168L64.4463 49.544C65.1823 48.824 65.7423 48.296 65.7423 47.416C65.7423 46.488 65.1663 45.8 64.0943 45.8C63.3743 45.8 62.8623 46.12 62.4783 46.44L61.8703 45.592C62.5583 45.016 63.2623 44.664 64.3663 44.664C65.9503 44.664 67.0383 45.592 67.0383 47.272C67.0383 48.392 66.3663 49.24 65.5983 49.944L63.5503 51.832V51.848H67.6463V53ZM74.9008 50.072C74.9008 51.96 73.7808 53.176 71.9728 53.176C69.9248 53.176 69.0608 51.656 69.0608 49.4C69.0608 45.048 71.6208 43.256 74.4048 43.032L74.5648 44.088C72.6448 44.296 70.7248 45.336 70.3568 48.008L70.3728 48.024C70.3728 48.024 71.1888 47.32 72.2928 47.32C73.9728 47.32 74.9008 48.392 74.9008 50.072ZM73.6368 50.328C73.6368 48.968 73.1088 48.392 71.9408 48.392C71.0288 48.392 70.3568 49.032 70.3568 49.032V49.336C70.3568 51.128 70.8208 52.12 72.0848 52.12C73.1408 52.12 73.6368 51.368 73.6368 50.328Z" fill="#00157E"/>
<path d="M472 36C472 33.7909 473.791 32 476 32H500C502.209 32 504 33.7909 504 36V60C504 62.2091 502.209 64 500 64H476C473.791 64 472 62.2091 472 60V36Z" fill="white"/>
<path d="M495 40H481C479.895 40 479 40.8954 479 42V56C479 57.1046 479.895 58 481 58H495C496.105 58 497 57.1046 497 56V42C497 40.8954 496.105 40 495 40Z" stroke="#00157E" stroke-width="2" stroke-linecap="round" stroke-linejoin="round"/>
<path d="M492 38V42" stroke="#00157E" stroke-width="2" stroke-linecap="round" stroke-linejoin="round"/>
<path d="M484 38V42" stroke="#00157E" stroke-width="2" stroke-linecap="round" stroke-linejoin="round"/>
<path d="M479 46H497" stroke="#00157E" stroke-width="2" stroke-linecap="round" stroke-linejoin="round"/>
</svg>
