<svg width="375" height="812" viewBox="0 0 375 812" fill="none" xmlns="http://www.w3.org/2000/svg">
<g clip-path="url(#clip0_663_85202)">
<rect width="375" height="812" fill="white"/>
<g filter="url(#filter0_d_663_85202)">
<path d="M343.99 22.17H357.993C359.556 22.17 360.823 23.4372 360.823 25.0001V29.673C360.823 31.2359 359.556 32.5031 357.993 32.5031H343.99C342.427 32.5031 341.16 31.2359 341.16 29.673V25.0001C341.16 23.4372 342.427 22.17 343.99 22.17Z" stroke="#00157E"/>
<path d="M362.33 25.3367V29.3367C363.135 28.9979 363.658 28.2098 363.658 27.3367C363.658 26.4635 363.135 25.6754 362.33 25.3367" fill="#00157E"/>
<rect x="342.66" y="23.67" width="16.66" height="7.33333" rx="1.33333" fill="#00157E"/>
<path d="M325.427 30.0606C326.702 28.9817 328.571 28.9817 329.847 30.0606C329.911 30.1186 329.947 30.2008 329.949 30.2872C329.951 30.3736 329.917 30.4571 329.855 30.5176L327.858 32.5333C327.8 32.5925 327.72 32.626 327.637 32.626C327.553 32.626 327.474 32.5924 327.415 32.5333L325.417 30.5176C325.355 30.457 325.321 30.3735 325.323 30.2872C325.325 30.2007 325.363 30.1186 325.427 30.0606ZM322.762 27.3711C325.51 24.8151 329.766 24.8152 332.514 27.3711C332.576 27.431 332.611 27.5135 332.612 27.5997C332.613 27.6858 332.579 27.769 332.519 27.8301L331.364 28.9971C331.245 29.1162 331.053 29.1189 330.931 29.003C330.028 28.1858 328.854 27.7334 327.637 27.7335C326.42 27.734 325.247 28.1863 324.345 29.003C324.223 29.1188 324.03 29.1162 323.911 28.9971L322.757 27.8301C322.696 27.7691 322.662 27.6858 322.663 27.5997C322.664 27.5135 322.7 27.431 322.762 27.3711ZM320.097 24.6895C324.312 20.6503 330.962 20.6501 335.177 24.6895C335.238 24.7494 335.272 24.8316 335.272 24.917C335.273 25.0026 335.239 25.0848 335.179 25.1456L334.022 26.3126C333.903 26.432 333.711 26.4333 333.59 26.3155C331.984 24.7888 329.853 23.9377 327.637 23.9376C325.421 23.9375 323.289 24.7886 321.683 26.3155C321.562 26.4335 321.369 26.4323 321.25 26.3126L320.094 25.1456C320.033 25.0848 319.999 25.0026 320 24.917C320.001 24.8315 320.036 24.7494 320.097 24.6895Z" fill="#00157E"/>
<path d="M299.66 28.667C300.212 28.667 300.66 29.1147 300.66 29.667V31.667C300.66 32.2191 300.212 32.667 299.66 32.667H298.66C298.108 32.667 297.66 32.2191 297.66 31.667V29.667C297.66 29.1147 298.108 28.667 298.66 28.667H299.66ZM304.327 26.667C304.879 26.6672 305.327 27.1148 305.327 27.667V31.667C305.327 32.219 304.879 32.6668 304.327 32.667H303.327C302.775 32.667 302.327 32.2191 302.327 31.667V27.667C302.327 27.1147 302.775 26.667 303.327 26.667H304.327ZM308.993 24.333C309.545 24.333 309.993 24.7809 309.993 25.333V31.667C309.993 32.2191 309.545 32.667 308.993 32.667H307.993C307.441 32.6668 306.993 32.219 306.993 31.667V25.333C306.993 24.781 307.441 24.3332 307.993 24.333H308.993ZM313.66 22C314.212 22 314.66 22.4477 314.66 23V31.667C314.66 32.2191 314.212 32.667 313.66 32.667H312.66C312.108 32.667 311.66 32.2191 311.66 31.667V23C311.66 22.4477 312.108 22 312.66 22H313.66Z" fill="#00157E"/>
<path d="M32.1846 21.9175C34.4405 21.9175 36.4034 23.5215 36.4034 27.3301V27.3447C36.4034 30.9043 34.7994 33.0137 32.1407 33.0137C30.1998 33.0137 28.7496 31.8638 28.4127 30.2451L28.398 30.1646H30.2584L30.2804 30.2378C30.5587 30.9775 31.2105 31.4609 32.1407 31.4609C33.8179 31.4609 34.5284 29.8203 34.609 27.7988C34.609 27.7183 34.6163 27.6377 34.6163 27.5571H34.4698C34.0816 28.3921 33.1588 29.1318 31.7086 29.1318C29.6798 29.1318 28.2589 27.6523 28.2589 25.6455V25.6309C28.2589 23.4849 29.8922 21.9175 32.1846 21.9175ZM32.1773 27.6816C33.3712 27.6816 34.2867 26.8174 34.2867 25.6235V25.6089C34.2867 24.4004 33.3712 23.4556 32.1993 23.4556C31.0347 23.4556 30.1046 24.3857 30.1046 25.5649V25.5796C30.1046 26.8027 30.9762 27.6816 32.1773 27.6816ZM39.4486 25.9019C38.7821 25.9019 38.284 25.3892 38.284 24.7446C38.284 24.0928 38.7821 23.5874 39.4486 23.5874C40.1224 23.5874 40.6131 24.0928 40.6131 24.7446C40.6131 25.3892 40.1224 25.9019 39.4486 25.9019ZM39.4486 31.3364C38.7821 31.3364 38.284 30.8311 38.284 30.1792C38.284 29.5273 38.7821 29.022 39.4486 29.022C40.1224 29.022 40.6131 29.5273 40.6131 30.1792C40.6131 30.8311 40.1224 31.3364 39.4486 31.3364ZM47.6207 32.75V30.7212H42.4498V29.1758C43.8195 26.7954 45.3209 24.3638 46.7565 22.1812H49.4298V29.1611H50.8507V30.7212H49.4298V32.75H47.6207ZM44.2077 29.2051H47.65V23.6899H47.5402C46.4562 25.3452 45.233 27.3008 44.2077 29.0952V29.2051ZM54.9506 32.75V24.0415H54.8261L52.1967 25.9019V24.1221L54.9579 22.1812H56.8403V32.75H54.9506Z" fill="#00157E"/>
<path d="M123.362 77.24C123.362 81.58 120.542 84 116.182 84H113.342V72.06C113.342 72.06 115.122 71.84 117.082 71.84C120.822 71.84 123.362 73.56 123.362 77.24ZM120.602 77.44C120.602 75.14 119.122 74.06 117.042 74.06C116.482 74.06 116.042 74.1 116.042 74.1V81.6H116.742C119.102 81.6 120.602 80.26 120.602 77.44ZM133.331 79.24C133.331 82.08 131.851 84.22 129.071 84.22C126.071 84.22 124.811 82.1 124.811 79.24C124.811 76.4 126.291 74.32 129.071 74.32C132.071 74.32 133.331 76.38 133.331 79.24ZM130.811 79.26C130.811 77.32 130.171 76.54 129.071 76.54C127.971 76.54 127.331 77.28 127.331 79.22C127.331 81.14 127.971 82 129.071 82C130.171 82 130.811 81.18 130.811 79.26ZM148.713 84H146.193V78C146.193 76.98 145.753 76.52 144.853 76.52C144.213 76.52 143.593 76.86 143.253 77.22C143.253 77.22 143.293 77.54 143.293 77.82V84H140.753V78C140.753 76.98 140.333 76.52 139.433 76.52C138.773 76.52 138.213 76.82 137.853 77.18V84H135.313V77L134.993 74.66L137.433 74.34L137.553 75.38H137.573C138.133 74.82 139.113 74.3 140.353 74.3C141.473 74.3 142.333 74.76 142.833 75.54H142.853C143.553 74.82 144.553 74.3 145.793 74.3C147.453 74.3 148.713 75.24 148.713 77.38V84ZM158.431 83.44C157.371 83.98 156.491 84.24 155.211 84.24C152.051 84.24 150.651 82.32 150.651 79.12C150.651 76.26 152.351 74.32 154.871 74.32C157.511 74.32 158.371 76.14 158.371 78.42V79.54H153.131C153.211 81.22 154.011 82.02 155.531 82.02C156.431 82.02 156.931 81.8 157.651 81.5L158.431 83.44ZM156.151 78C156.151 77.02 155.731 76.36 154.791 76.36C153.791 76.36 153.291 77.12 153.171 78H156.151ZM166.352 80.96C166.352 82.78 164.892 84.22 162.692 84.22C161.552 84.22 160.532 84.04 159.672 83.64L160.332 81.56C161.052 81.86 161.752 82.16 162.552 82.16C163.412 82.16 163.832 81.86 163.832 81.36C163.832 80.9 163.612 80.72 163.092 80.5L161.612 79.88C160.732 79.52 159.772 78.86 159.772 77.3C159.772 75.34 161.432 74.3 163.412 74.3C164.532 74.3 165.292 74.48 166.192 74.86L165.412 76.9C164.772 76.64 164.152 76.38 163.432 76.38C162.652 76.38 162.212 76.6 162.212 77.12C162.212 77.62 162.612 77.8 162.972 77.94L164.512 78.56C165.712 79.04 166.352 79.8 166.352 80.96ZM174.219 83.54C173.399 83.98 172.779 84.22 171.519 84.22C169.639 84.22 168.719 82.96 168.719 81.08V76.54H167.259V74.86L168.719 74.52V72.88L171.239 72.58V74.54H173.839V76.54H171.239V80.4C171.239 81.66 171.559 81.98 172.379 81.98C172.839 81.98 173.099 81.86 173.539 81.66L174.219 83.54ZM178.4 84H175.86V77L175.54 74.66L178.4 74.34V84ZM178.64 71.88C178.64 72.72 177.98 73.4 177.14 73.4C176.3 73.4 175.64 72.72 175.64 71.88C175.64 71.06 176.3 70.38 177.14 70.38C177.98 70.38 178.64 71.06 178.64 71.88ZM187.538 74.74L186.778 76.96C186.278 76.74 185.818 76.56 185.138 76.56C183.878 76.56 182.938 77.46 182.938 79.16C182.938 81.08 183.798 81.92 185.018 81.92C185.738 81.92 186.118 81.76 186.718 81.52L187.478 83.6C186.598 84 185.778 84.24 184.698 84.24C181.858 84.24 180.358 82.32 180.358 79.3C180.358 75.82 182.718 74.3 185.138 74.3C186.078 74.3 186.718 74.42 187.538 74.74ZM201.315 75.22C201.315 77.94 199.075 79.62 196.455 79.62H196.275V84H193.635V72.08C193.635 72.08 195.215 71.84 196.895 71.84C199.715 71.84 201.315 73.02 201.315 75.22ZM198.755 75.5C198.755 74.26 197.995 73.82 196.915 73.82C196.575 73.82 196.275 73.86 196.275 73.86V77.64H196.455C197.715 77.64 198.755 76.9 198.755 75.5ZM209.594 83.86L207.154 84.18L207.034 83.14H207.014C206.454 83.64 205.714 84.24 204.634 84.24C203.154 84.24 202.174 83.32 202.174 81.74C202.174 79.94 203.514 79.12 205.454 78.92L206.774 78.78V78.14C206.774 77.18 206.374 76.52 205.174 76.52C204.434 76.52 203.934 76.74 203.394 77.04L202.474 75.32C203.414 74.7 204.314 74.3 205.754 74.3C208.054 74.3 209.274 75.54 209.274 77.56V81.52L209.594 83.86ZM206.774 81.96V80.22L205.914 80.32C205.134 80.42 204.634 80.74 204.634 81.4C204.634 81.98 204.974 82.42 205.574 82.42C206.154 82.42 206.494 82.2 206.774 81.96ZM219.502 74.54L216.582 82.76C215.222 86.62 213.202 87.76 209.982 88.24L209.522 86.14C211.202 85.88 213.042 84.96 213.702 83.64L210.402 74.82L212.882 74.2L215.022 80.64H215.042L217.042 74.54H219.502ZM234.435 84H231.915V78C231.915 76.98 231.475 76.52 230.575 76.52C229.935 76.52 229.315 76.86 228.975 77.22C228.975 77.22 229.015 77.54 229.015 77.82V84H226.475V78C226.475 76.98 226.055 76.52 225.155 76.52C224.495 76.52 223.935 76.82 223.575 77.18V84H221.035V77L220.715 74.66L223.155 74.34L223.275 75.38H223.295C223.855 74.82 224.835 74.3 226.075 74.3C227.195 74.3 228.055 74.76 228.555 75.54H228.575C229.275 74.82 230.275 74.3 231.515 74.3C233.175 74.3 234.435 75.24 234.435 77.38V84ZM244.153 83.44C243.093 83.98 242.213 84.24 240.933 84.24C237.773 84.24 236.373 82.32 236.373 79.12C236.373 76.26 238.073 74.32 240.593 74.32C243.233 74.32 244.093 76.14 244.093 78.42V79.54H238.853C238.933 81.22 239.733 82.02 241.253 82.02C242.153 82.02 242.653 81.8 243.373 81.5L244.153 83.44ZM241.873 78C241.873 77.02 241.453 76.36 240.513 76.36C239.513 76.36 239.013 77.12 238.893 78H241.873ZM254.035 84H251.495V78C251.495 76.98 251.075 76.52 250.175 76.52C249.515 76.52 248.955 76.84 248.595 77.2V84H246.055V77L245.735 74.66L248.175 74.34L248.295 75.38H248.315C248.875 74.82 249.815 74.3 251.075 74.3C252.715 74.3 254.035 75.24 254.035 77.38V84ZM262.383 83.54C261.563 83.98 260.943 84.22 259.683 84.22C257.803 84.22 256.883 82.96 256.883 81.08V76.54H255.423V74.86L256.883 74.52V72.88L259.403 72.58V74.54H262.003V76.54H259.403V80.4C259.403 81.66 259.723 81.98 260.543 81.98C261.003 81.98 261.263 81.86 261.703 81.66L262.383 83.54Z" fill="#00157E"/>
<path d="M353 71.9292L341 83.9292" stroke="#00157E" stroke-width="2" stroke-linecap="round" stroke-linejoin="round"/>
<path d="M341 71.9292L353 83.9292" stroke="#00157E" stroke-width="2" stroke-linecap="round" stroke-linejoin="round"/>
</g>
<path d="M25.344 135.468H17.344V132.844H25.344V135.468ZM39.0395 140.428C39.0395 146.38 33.6635 148.364 28.7995 148.844L28.3515 146.06C31.1675 145.676 35.7115 144.652 35.7115 140.812C35.7115 138.412 34.2075 137.1 30.3355 137.1H28.2875L28.9595 127.18H38.5275V130.124H31.7115L31.3595 134.764C31.3595 134.764 32.0635 134.7 32.7035 134.7C36.5115 134.7 39.0395 136.652 39.0395 140.428ZM55.2565 135.34C55.2565 139.724 53.4645 143.852 48.5685 143.852C43.7045 143.852 41.8805 139.724 41.8805 135.34C41.8805 130.956 43.7045 126.828 48.5685 126.828C53.4645 126.828 55.2565 130.956 55.2565 135.34ZM51.9605 135.34C51.9605 131.98 50.9045 129.676 48.5685 129.676C46.2325 129.676 45.1765 131.98 45.1765 135.34C45.1765 138.7 46.2325 141.004 48.5685 141.004C50.9045 141.004 51.9605 138.7 51.9605 135.34ZM71.7565 135.34C71.7565 139.724 69.9645 143.852 65.0685 143.852C60.2045 143.852 58.3805 139.724 58.3805 135.34C58.3805 130.956 60.2045 126.828 65.0685 126.828C69.9645 126.828 71.7565 130.956 71.7565 135.34ZM68.4605 135.34C68.4605 131.98 67.4045 129.676 65.0685 129.676C62.7325 129.676 61.6765 131.98 61.6765 135.34C61.6765 138.7 62.7325 141.004 65.0685 141.004C67.4045 141.004 68.4605 138.7 68.4605 135.34ZM79.2005 141.612C79.2005 142.764 78.2725 143.724 77.0885 143.724C75.9365 143.724 75.0085 142.764 75.0085 141.612C75.0085 140.46 75.9365 139.532 77.0885 139.532C78.2725 139.532 79.2005 140.46 79.2005 141.612ZM95.8503 135.34C95.8503 139.724 94.0583 143.852 89.1623 143.852C84.2983 143.852 82.4743 139.724 82.4743 135.34C82.4743 130.956 84.2983 126.828 89.1623 126.828C94.0583 126.828 95.8503 130.956 95.8503 135.34ZM92.5543 135.34C92.5543 131.98 91.4983 129.676 89.1623 129.676C86.8263 129.676 85.7703 131.98 85.7703 135.34C85.7703 138.7 86.8263 141.004 89.1623 141.004C91.4983 141.004 92.5543 138.7 92.5543 135.34ZM112.35 135.34C112.35 139.724 110.558 143.852 105.662 143.852C100.798 143.852 98.9743 139.724 98.9743 135.34C98.9743 130.956 100.798 126.828 105.662 126.828C110.558 126.828 112.35 130.956 112.35 135.34ZM109.054 135.34C109.054 131.98 107.998 129.676 105.662 129.676C103.326 129.676 102.27 131.98 102.27 135.34C102.27 138.7 103.326 141.004 105.662 141.004C107.998 141.004 109.054 138.7 109.054 135.34Z" fill="#00157E"/>
<path d="M129.952 143.004C129.056 143.468 128.144 143.676 126.928 143.676C124.576 143.676 122.768 142.092 122.768 138.892C122.768 135.484 124.784 133.692 127.376 133.692C128.448 133.692 129.104 133.852 129.92 134.204L129.408 135.372C128.8 135.1 128.224 134.892 127.36 134.892C125.68 134.892 124.144 136.188 124.144 138.556C124.144 141.196 125.12 142.492 127.456 142.492C128.224 142.492 128.928 142.188 129.504 141.932L129.952 143.004ZM138.649 143.5H137.305V139.1H132.969V143.5H131.625V133.868H132.969V137.964H137.305V133.868H138.649V143.5ZM146.096 135.004H142.64V138.14H145.76V139.276H142.64V143.5H141.312V133.868H146.096V135.004Z" fill="#00157E" fill-opacity="0.7"/>
<path d="M347 125L352 130L339 143H334V138L347 125Z" stroke="#00157E" stroke-width="2" stroke-linecap="round" stroke-linejoin="round"/>
<path d="M20.396 181.734C19.99 181.958 19.612 182.14 18.898 182.14C17.89 182.14 17.246 181.482 17.246 180.362V176.358H16.28V175.616L17.246 175.42V174.328L18.352 174.188V175.448H20.186V176.358H18.352V179.984C18.352 180.866 18.576 181.146 19.22 181.146C19.57 181.146 19.836 181.006 20.032 180.88L20.396 181.734ZM26.8521 178.724C26.8521 180.642 25.9421 182.154 24.0521 182.154C21.9801 182.154 21.2521 180.684 21.2521 178.724C21.2521 176.806 22.1621 175.294 24.0521 175.294C26.1241 175.294 26.8521 176.764 26.8521 178.724ZM25.7041 178.752C25.7041 177.128 25.1581 176.274 24.0521 176.274C22.9741 176.274 22.4001 177.03 22.4001 178.682C22.4001 180.306 22.9461 181.174 24.0521 181.174C25.1301 181.174 25.7041 180.404 25.7041 178.752Z" fill="#00157E" fill-opacity="0.7"/>
<mask id="path-16-inside-1_663_85202" fill="white">
<path d="M16 194H359V260H16V194Z"/>
</mask>
<path d="M359 260V259H16V260V261H359V260Z" fill="#00157E" fill-opacity="0.2" mask="url(#path-16-inside-1_663_85202)"/>
<path d="M24.8217 208H23.4777V203.6H19.1417V208H17.7977V198.368H19.1417V202.464H23.4777V198.368H24.8217V208ZM32.3492 207.92L31.0692 208.128L30.9572 207.248H30.9412C30.3972 207.76 29.8052 208.192 28.9092 208.192C27.6612 208.192 26.9252 207.44 26.9252 206.256C26.9252 204.912 27.9812 204.256 29.5012 204.096L30.8452 203.952V203.28C30.8452 202.24 30.5252 201.504 29.2932 201.504C28.6692 201.504 28.2052 201.696 27.7412 201.936L27.2772 200.992C27.9492 200.592 28.6372 200.336 29.5972 200.336C31.1012 200.336 32.1092 201.216 32.1092 202.704V206.272L32.3492 207.92ZM30.8452 206.448V204.816L29.6772 204.976C28.7172 205.104 28.1892 205.408 28.1892 206.096C28.1892 206.72 28.5732 207.136 29.2132 207.136C29.9652 207.136 30.4292 206.816 30.8452 206.448ZM40.3672 208H39.0872V203.136C39.0872 202.032 38.6712 201.472 37.6632 201.472C36.9432 201.472 36.4312 201.776 35.9672 202.192V208H34.6872V202.24L34.4632 200.592L35.7272 200.384L35.8552 201.264H35.8712C36.4312 200.72 37.1672 200.336 38.0952 200.336C39.3592 200.336 40.3672 201.152 40.3672 202.688V208ZM47.2264 205.824C47.2264 207.184 46.1544 208.16 44.5544 208.16C43.7864 208.16 43.0184 208.048 42.4104 207.76L42.7944 206.64C43.3224 206.88 43.9144 207.072 44.4904 207.072C45.3544 207.072 45.9304 206.736 45.9304 206.032C45.9304 205.488 45.6424 205.264 45.1464 205.04L43.7544 204.4C43.2584 204.176 42.3624 203.728 42.3624 202.432C42.3624 201.008 43.6104 200.336 44.9704 200.336C45.7864 200.336 46.3624 200.464 47.0024 200.736L46.5704 201.84C46.0584 201.616 45.5624 201.456 44.9544 201.456C44.1384 201.456 43.6104 201.712 43.6104 202.352C43.6104 202.912 44.0904 203.136 44.3944 203.28L45.8184 203.952C46.8104 204.416 47.2264 205.008 47.2264 205.824ZM62.4811 207.968L61.2011 208.064L60.9291 200.608H60.9131L58.0811 208H56.6891L54.0171 200.624H54.0011L53.6171 208H52.4491L53.0731 198.368H54.4811L57.5051 206.4H57.5211L60.5771 198.368H61.9691L62.4811 207.968ZM70.0591 207.6C69.3391 208 68.6031 208.176 67.6911 208.176C65.4831 208.176 64.3471 206.688 64.3471 204.208C64.3471 201.888 65.5631 200.336 67.4511 200.336C69.2591 200.336 69.9951 201.536 69.9951 203.184V204.08H65.5951C65.6111 206.08 66.3311 207.04 67.9631 207.04C68.5871 207.04 69.0671 206.864 69.6111 206.592L70.0591 207.6ZM68.7951 203.184C68.7951 202.064 68.3791 201.36 67.3871 201.36C66.4271 201.36 65.8191 202.112 65.6591 203.184H68.7951ZM77.3925 200.512L74.8965 207.312C74.0965 209.52 73.0245 210.848 70.4165 211.376L70.1765 210.336C72.0805 209.952 73.0885 208.8 73.5845 207.552L70.8965 200.624L72.1605 200.288L74.2245 205.856H74.2405L76.1285 200.512H77.3925ZM83.981 207.6C83.261 208 82.525 208.176 81.613 208.176C79.405 208.176 78.269 206.688 78.269 204.208C78.269 201.888 79.485 200.336 81.373 200.336C83.181 200.336 83.917 201.536 83.917 203.184V204.08H79.517C79.533 206.08 80.253 207.04 81.885 207.04C82.509 207.04 82.989 206.864 83.533 206.592L83.981 207.6ZM82.717 203.184C82.717 202.064 82.301 201.36 81.309 201.36C80.349 201.36 79.741 202.112 79.581 203.184H82.717ZM89.2504 201.616C88.3864 201.616 87.7464 201.84 87.1704 202.368V208H85.8904V202.24L85.6664 200.592L86.9304 200.384L87.0584 201.408H87.0744C87.5864 200.832 88.2584 200.352 89.2504 200.352V201.616Z" fill="#00157E"/>
<path d="M27.1764 225.968L25.8964 226.064L25.6244 218.608H25.6084L22.7764 226H21.3844L18.7124 218.624H18.6964L18.3124 226H17.1444L17.7684 216.368H19.1764L22.2004 224.4H22.2164L25.2724 216.368H26.6644L27.1764 225.968ZM34.482 225.92L33.202 226.128L33.09 225.248H33.074C32.53 225.76 31.938 226.192 31.042 226.192C29.794 226.192 29.058 225.44 29.058 224.256C29.058 222.912 30.114 222.256 31.634 222.096L32.978 221.952V221.28C32.978 220.24 32.658 219.504 31.426 219.504C30.802 219.504 30.338 219.696 29.874 219.936L29.41 218.992C30.082 218.592 30.77 218.336 31.73 218.336C33.234 218.336 34.242 219.216 34.242 220.704V224.272L34.482 225.92ZM32.978 224.448V222.816L31.81 222.976C30.85 223.104 30.322 223.408 30.322 224.096C30.322 224.72 30.706 225.136 31.346 225.136C32.098 225.136 32.562 224.816 32.978 224.448ZM38.132 226H36.852V220.24L36.628 218.592L38.132 218.384V226ZM38.388 216.56C38.388 217.072 37.988 217.456 37.508 217.456C37.012 217.456 36.596 217.072 36.596 216.56C36.596 216.048 37.012 215.648 37.508 215.648C37.988 215.648 38.388 216.048 38.388 216.56ZM46.375 226H45.095V221.136C45.095 220.032 44.679 219.472 43.671 219.472C42.951 219.472 42.439 219.776 41.975 220.192V226H40.695V220.24L40.471 218.592L41.735 218.384L41.863 219.264H41.879C42.439 218.72 43.175 218.336 44.103 218.336C45.367 218.336 46.375 219.152 46.375 220.688V226ZM57.5215 223.296C57.5215 224.976 56.3535 226.176 54.4175 226.176C53.4255 226.176 52.5455 225.968 51.7935 225.648L52.2095 224.48C52.8335 224.768 53.5695 225.008 54.3215 225.008C55.4895 225.008 56.2415 224.56 56.2415 223.504C56.2415 222.72 55.6655 222.336 54.8975 221.968L53.3935 221.248C52.3855 220.768 51.6975 220.144 51.6975 218.784C51.6975 217.136 53.1375 216.192 54.8015 216.192C55.6975 216.192 56.2735 216.336 57.1055 216.64L56.6575 217.776C56.1455 217.536 55.5855 217.312 54.8815 217.312C53.8895 217.312 52.9935 217.712 52.9935 218.736C52.9935 219.424 53.4095 219.76 54.0495 220.064L55.5855 220.816C56.8015 221.408 57.5215 222.064 57.5215 223.296ZM63.2047 225.696C62.7407 225.952 62.3087 226.16 61.4927 226.16C60.3407 226.16 59.6047 225.408 59.6047 224.128V219.552H58.5007V218.704L59.6047 218.48V217.232L60.8687 217.072V218.512H62.9647V219.552H60.8687V223.696C60.8687 224.704 61.1247 225.024 61.8607 225.024C62.2607 225.024 62.5647 224.864 62.7887 224.72L63.2047 225.696ZM68.2738 219.616C67.4098 219.616 66.7698 219.84 66.1938 220.368V226H64.9138V220.24L64.6898 218.592L65.9538 218.384L66.0818 219.408H66.0978C66.6098 218.832 67.2818 218.352 68.2738 218.352V219.616ZM74.8482 225.6C74.1282 226 73.3922 226.176 72.4802 226.176C70.2722 226.176 69.1362 224.688 69.1362 222.208C69.1362 219.888 70.3522 218.336 72.2402 218.336C74.0482 218.336 74.7842 219.536 74.7842 221.184V222.08H70.3842C70.4002 224.08 71.1202 225.04 72.7522 225.04C73.3762 225.04 73.8562 224.864 74.4002 224.592L74.8482 225.6ZM73.5842 221.184C73.5842 220.064 73.1682 219.36 72.1762 219.36C71.2162 219.36 70.6082 220.112 70.4482 221.184H73.5842ZM81.9575 225.6C81.2375 226 80.5015 226.176 79.5895 226.176C77.3815 226.176 76.2455 224.688 76.2455 222.208C76.2455 219.888 77.4615 218.336 79.3495 218.336C81.1575 218.336 81.8935 219.536 81.8935 221.184V222.08H77.4935C77.5095 224.08 78.2295 225.04 79.8615 225.04C80.4855 225.04 80.9655 224.864 81.5095 224.592L81.9575 225.6ZM80.6935 221.184C80.6935 220.064 80.2775 219.36 79.2855 219.36C78.3255 219.36 77.7175 220.112 77.5575 221.184H80.6935ZM87.6109 225.696C87.1469 225.952 86.7149 226.16 85.8989 226.16C84.7469 226.16 84.0109 225.408 84.0109 224.128V219.552H82.9069V218.704L84.0109 218.48V217.232L85.2749 217.072V218.512H87.3709V219.552H85.2749V223.696C85.2749 224.704 85.5309 225.024 86.2669 225.024C86.6669 225.024 86.9709 224.864 87.1949 224.72L87.6109 225.696ZM97.9754 226H92.0394V225.168L94.7754 222.544C95.5114 221.824 96.0714 221.296 96.0714 220.416C96.0714 219.488 95.4954 218.8 94.4234 218.8C93.7034 218.8 93.1914 219.12 92.8074 219.44L92.1994 218.592C92.8874 218.016 93.5914 217.664 94.6954 217.664C96.2794 217.664 97.3674 218.592 97.3674 220.272C97.3674 221.392 96.6954 222.24 95.9274 222.944L93.8794 224.832V224.848H97.9754V226ZM104.272 225.36C104.272 227.28 103.04 228.496 100.928 228.496C100.304 228.496 99.6478 228.384 99.0558 228.24L99.3438 227.04C99.8718 227.2 100.32 227.328 100.96 227.328C102.224 227.328 102.992 226.704 102.992 225.552C102.992 223.984 101.552 223.376 99.5198 223.376V222.464C101.888 222.32 102.544 221.264 102.544 220.224C102.544 219.312 101.984 218.8 101.088 218.8C100.352 218.8 99.9198 219.04 99.4398 219.36L98.9118 218.48C99.4878 218.032 100.224 217.664 101.344 217.664C102.88 217.664 103.824 218.576 103.824 220.064C103.824 221.36 103.072 222.224 102 222.736V222.752C103.568 223.088 104.272 224.128 104.272 225.36Z" fill="#00157E"/>
<path d="M22.5584 241.664C22.5584 243.2 21.3904 244.176 19.7424 244.176C18.0624 244.176 16.9264 243.328 16.9264 241.76C16.9264 240.352 17.9664 239.504 18.7664 238.96C17.8064 238.288 17.1664 237.712 17.1664 236.512C17.1664 235.152 18.2864 234.192 19.7264 234.192C21.2784 234.192 22.2864 235.056 22.2864 236.4C22.2864 237.552 21.4864 238.288 20.7024 238.832C21.7264 239.52 22.5584 240.208 22.5584 241.664ZM21.3264 241.664C21.3264 240.624 20.6064 240.096 19.6464 239.472C18.7984 240.048 18.1424 240.544 18.1424 241.6C18.1424 242.56 18.7824 243.104 19.7584 243.104C20.7984 243.104 21.3264 242.464 21.3264 241.664ZM21.1504 236.544C21.1504 235.728 20.6064 235.2 19.7424 235.2C18.8784 235.2 18.3184 235.76 18.3184 236.56C18.3184 237.312 18.9424 237.744 19.8064 238.336C20.4944 237.888 21.1504 237.312 21.1504 236.544ZM30.752 239.92C30.752 242.048 29.92 244.176 27.504 244.176C25.072 244.176 24.24 242.048 24.24 239.92C24.24 237.792 25.072 235.664 27.504 235.664C29.92 235.664 30.752 237.792 30.752 239.92ZM29.44 239.92C29.44 238.128 28.848 236.784 27.504 236.784C26.144 236.784 25.552 238.128 25.552 239.92C25.552 241.712 26.144 243.056 27.504 243.056C28.848 243.056 29.44 241.712 29.44 239.92ZM38.9864 239.92C38.9864 242.048 38.1544 244.176 35.7384 244.176C33.3064 244.176 32.4744 242.048 32.4744 239.92C32.4744 237.792 33.3064 235.664 35.7384 235.664C38.1544 235.664 38.9864 237.792 38.9864 239.92ZM37.6744 239.92C37.6744 238.128 37.0824 236.784 35.7384 236.784C34.3784 236.784 33.7864 238.128 33.7864 239.92C33.7864 241.712 34.3784 243.056 35.7384 243.056C37.0824 243.056 37.6744 241.712 37.6744 239.92ZM42.9852 244H41.7212V236.928L40.3132 237.12L40.1692 236.144L42.9852 235.696V244ZM55.53 244H48.234V242.96L53.594 235.504V235.488H48.65V234.368H55.226V235.392L49.994 242.864V242.88H55.53V244ZM63.2787 243.92L62.0147 244.128L61.8867 243.264H61.8707C61.3107 243.792 60.5747 244.176 59.6467 244.176C58.3827 244.176 57.3747 243.36 57.3747 241.824V238.24L57.1507 236.592L58.6547 236.384V241.376C58.6547 242.48 59.0707 243.056 60.0787 243.056C60.7987 243.056 61.3107 242.752 61.7747 242.32V238.24L61.5507 236.592L63.0547 236.384V242.272L63.2787 243.92ZM59.7267 234.656C59.7267 235.136 59.3587 235.472 58.9107 235.472C58.4627 235.472 58.0787 235.136 58.0787 234.656C58.0787 234.192 58.4627 233.824 58.9107 233.824C59.3587 233.824 59.7267 234.192 59.7267 234.656ZM62.3347 234.656C62.3347 235.136 61.9507 235.472 61.5027 235.472C61.0547 235.472 60.6707 235.136 60.6707 234.656C60.6707 234.192 61.0547 233.824 61.5027 233.824C61.9507 233.824 62.3347 234.192 62.3347 234.656ZM68.9691 237.616C68.1051 237.616 67.4651 237.84 66.8891 238.368V244H65.6091V238.24L65.3851 236.592L66.6491 236.384L66.7771 237.408H66.7931C67.3051 236.832 67.9771 236.352 68.9691 236.352V237.616ZM71.843 244H70.563V238.24L70.339 236.592L71.843 236.384V244ZM72.099 234.56C72.099 235.072 71.699 235.456 71.219 235.456C70.723 235.456 70.307 235.072 70.307 234.56C70.307 234.048 70.723 233.648 71.219 233.648C71.699 233.648 72.099 234.048 72.099 234.56ZM79.238 236.656L78.838 237.808C78.422 237.648 77.958 237.504 77.43 237.504C76.022 237.504 75.174 238.56 75.174 240.144C75.174 242.144 75.958 243.056 77.398 243.056C77.91 243.056 78.326 242.88 78.742 242.704L79.174 243.744C78.55 244.032 77.862 244.176 77.142 244.176C74.998 244.176 73.894 242.64 73.894 240.352C73.894 237.6 75.59 236.336 77.494 236.336C78.15 236.336 78.71 236.448 79.238 236.656ZM86.6317 244H85.3677V239.136C85.3677 238.048 84.9357 237.488 83.9117 237.488C83.1757 237.488 82.6797 237.808 82.2477 238.192V244H80.9677V234.928L80.7437 233.28L82.2477 233.072V237.168H82.2637C82.7597 236.736 83.4477 236.336 84.3757 236.336C85.6557 236.336 86.6317 237.136 86.6317 238.688V244Z" fill="#00157E"/>
<path d="M16.001 292C16.001 289.791 17.7918 288 20.001 288H82.001C84.2101 288 86.001 289.791 86.001 292V316C86.001 318.209 84.2101 320 82.001 320H20.001C17.7918 320 16.001 318.209 16.001 316V292Z" fill="#00157E" fill-opacity="0.05"/>
<path d="M40.001 295L45.001 300L32.001 313H27.001V308L40.001 295Z" stroke="#00157E" stroke-width="2" stroke-linecap="round" stroke-linejoin="round"/>
<path d="M61.9138 308H57.5878V299.572H61.7738V300.566H58.7498V303.156H61.4798V304.136H58.7498V307.006H61.9138V308ZM68.4891 307.958L67.4111 308.112L67.3131 307.454H67.2991C66.8791 307.804 66.3051 308.154 65.5351 308.154C64.0931 308.154 63.1271 306.964 63.1271 305.018C63.1271 302.764 64.2891 301.378 66.2771 301.378C66.8091 301.378 67.1871 301.476 67.1871 301.476V300.062L66.9771 298.62L68.2931 298.438V306.516L68.4891 307.958ZM65.9271 307.174C66.4731 307.174 66.8511 306.95 67.1871 306.684V302.498C67.1871 302.498 66.8231 302.316 66.1791 302.316C64.9051 302.316 64.2751 303.394 64.2751 304.668C64.2751 306.25 64.6951 307.174 65.9271 307.174ZM71.6821 308H70.5621V302.96L70.3661 301.518L71.6821 301.336V308ZM71.9061 299.74C71.9061 300.188 71.5561 300.524 71.1361 300.524C70.7021 300.524 70.3381 300.188 70.3381 299.74C70.3381 299.292 70.7021 298.942 71.1361 298.942C71.5561 298.942 71.9061 299.292 71.9061 299.74ZM77.2007 307.734C76.7947 307.958 76.4167 308.14 75.7027 308.14C74.6947 308.14 74.0507 307.482 74.0507 306.362V302.358H73.0847V301.616L74.0507 301.42V300.328L75.1567 300.188V301.448H76.9907V302.358H75.1567V305.984C75.1567 306.866 75.3807 307.146 76.0247 307.146C76.3747 307.146 76.6407 307.006 76.8367 306.88L77.2007 307.734Z" fill="#00157E"/>
<path d="M98.001 292C98.001 289.791 99.7918 288 102.001 288H177.001C179.21 288 181.001 289.791 181.001 292V316C181.001 318.209 179.21 320 177.001 320H102.001C99.7918 320 98.001 318.209 98.001 316V292Z" fill="#00157E" fill-opacity="0.05"/>
<path d="M109.001 298H111.001H127.001" stroke="#00157E" stroke-width="2" stroke-linecap="round" stroke-linejoin="round"/>
<path d="M114.001 298V296C114.001 295.47 114.212 294.961 114.587 294.586C114.962 294.211 115.471 294 116.001 294H120.001C120.531 294 121.04 294.211 121.415 294.586C121.79 294.961 122.001 295.47 122.001 296V298M125.001 298V312C125.001 312.53 124.79 313.039 124.415 313.414C124.04 313.789 123.531 314 123.001 314H113.001C112.471 314 111.962 313.789 111.587 313.414C111.212 313.039 111.001 312.53 111.001 312V298H125.001Z" stroke="#00157E" stroke-width="2" stroke-linecap="round" stroke-linejoin="round"/>
<path d="M116.001 303V309" stroke="#00157E" stroke-width="2" stroke-linecap="round" stroke-linejoin="round"/>
<path d="M120.001 303V309" stroke="#00157E" stroke-width="2" stroke-linecap="round" stroke-linejoin="round"/>
<path d="M145.778 303.254C145.778 306.334 143.93 308 140.934 308H139.17V299.628C139.17 299.628 140.332 299.488 141.578 299.488C144.182 299.488 145.778 300.846 145.778 303.254ZM144.56 303.422C144.56 301.434 143.216 300.482 141.382 300.482C140.794 300.482 140.346 300.51 140.346 300.51V306.95H141.158C143.16 306.95 144.56 305.76 144.56 303.422ZM152.113 307.65C151.483 308 150.839 308.154 150.041 308.154C148.109 308.154 147.115 306.852 147.115 304.682C147.115 302.652 148.179 301.294 149.831 301.294C151.413 301.294 152.057 302.344 152.057 303.786V304.57H148.207C148.221 306.32 148.851 307.16 150.279 307.16C150.825 307.16 151.245 307.006 151.721 306.768L152.113 307.65ZM151.007 303.786C151.007 302.806 150.643 302.19 149.775 302.19C148.935 302.19 148.403 302.848 148.263 303.786H151.007ZM154.876 308H153.756V300.062L153.56 298.62L154.876 298.438V308ZM161.643 307.65C161.013 308 160.369 308.154 159.571 308.154C157.639 308.154 156.645 306.852 156.645 304.682C156.645 302.652 157.709 301.294 159.361 301.294C160.943 301.294 161.587 302.344 161.587 303.786V304.57H157.737C157.751 306.32 158.381 307.16 159.809 307.16C160.355 307.16 160.775 307.006 161.251 306.768L161.643 307.65ZM160.537 303.786C160.537 302.806 160.173 302.19 159.305 302.19C158.465 302.19 157.933 302.848 157.793 303.786H160.537ZM166.589 307.734C166.183 307.958 165.805 308.14 165.091 308.14C164.083 308.14 163.439 307.482 163.439 306.362V302.358H162.473V301.616L163.439 301.42V300.328L164.545 300.188V301.448H166.379V302.358H164.545V305.984C164.545 306.866 164.769 307.146 165.413 307.146C165.763 307.146 166.029 307.006 166.225 306.88L166.589 307.734ZM172.443 307.65C171.813 308 171.169 308.154 170.371 308.154C168.439 308.154 167.445 306.852 167.445 304.682C167.445 302.652 168.509 301.294 170.161 301.294C171.743 301.294 172.387 302.344 172.387 303.786V304.57H168.537C168.551 306.32 169.181 307.16 170.609 307.16C171.155 307.16 171.575 307.006 172.051 306.768L172.443 307.65ZM171.337 303.786C171.337 302.806 170.973 302.19 170.105 302.19C169.265 302.19 168.733 302.848 168.593 303.786H171.337Z" fill="#00157E"/>
<path d="M193.001 292C193.001 289.791 194.792 288 197.001 288H264.001C266.21 288 268.001 289.791 268.001 292V316C268.001 318.209 266.21 320 264.001 320H197.001C194.792 320 193.001 318.209 193.001 316V292Z" fill="#00157E" fill-opacity="0.05"/>
<path d="M221.001 301H212.001C210.896 301 210.001 301.895 210.001 303V312C210.001 313.105 210.896 314 212.001 314H221.001C222.106 314 223.001 313.105 223.001 312V303C223.001 301.895 222.106 301 221.001 301Z" stroke="#00157E" stroke-width="2" stroke-linecap="round" stroke-linejoin="round"/>
<path d="M206.001 307H205.001C204.471 307 203.962 306.789 203.587 306.414C203.212 306.039 203.001 305.53 203.001 305V296C203.001 295.47 203.212 294.961 203.587 294.586C203.962 294.211 204.471 294 205.001 294H214.001C214.531 294 215.04 294.211 215.415 294.586C215.79 294.961 216.001 295.47 216.001 296V297" stroke="#00157E" stroke-width="2" stroke-linecap="round" stroke-linejoin="round"/>
<path d="M239.985 307.566C239.201 307.972 238.403 308.154 237.339 308.154C235.281 308.154 233.699 306.768 233.699 303.968C233.699 300.986 235.463 299.418 237.731 299.418C238.669 299.418 239.243 299.558 239.957 299.866L239.509 300.888C238.977 300.65 238.473 300.468 237.717 300.468C236.247 300.468 234.903 301.602 234.903 303.674C234.903 305.984 235.757 307.118 237.801 307.118C238.473 307.118 239.089 306.852 239.593 306.628L239.985 307.566ZM246.299 304.724C246.299 306.642 245.389 308.154 243.499 308.154C241.427 308.154 240.699 306.684 240.699 304.724C240.699 302.806 241.609 301.294 243.499 301.294C245.571 301.294 246.299 302.764 246.299 304.724ZM245.151 304.752C245.151 303.128 244.605 302.274 243.499 302.274C242.421 302.274 241.847 303.03 241.847 304.682C241.847 306.306 242.393 307.174 243.499 307.174C244.577 307.174 245.151 306.404 245.151 304.752ZM253.231 304.402C253.231 306.53 252.307 308.07 250.123 308.07C249.759 308.07 249.465 308.042 249.199 307.972V310.772L248.079 310.954V302.96L247.883 301.518L248.989 301.336L249.087 302.008H249.101C249.535 301.644 250.109 301.294 250.865 301.294C252.461 301.294 253.231 302.498 253.231 304.402ZM252.111 304.724C252.111 303.296 251.789 302.302 250.487 302.302C249.927 302.302 249.521 302.54 249.199 302.806V306.936C249.465 307.048 249.773 307.118 250.207 307.118C251.425 307.118 252.111 306.166 252.111 304.724ZM259.743 301.448L257.559 307.398C256.859 309.33 255.921 310.492 253.639 310.954L253.429 310.044C255.095 309.708 255.977 308.7 256.411 307.608L254.059 301.546L255.165 301.252L256.971 306.124H256.985L258.637 301.448H259.743Z" fill="#00157E"/>
<g clip-path="url(#clip1_663_85202)">
<path d="M21.727 361.635C21.727 363.105 20.705 364.155 19.011 364.155C18.143 364.155 17.373 363.973 16.715 363.693L17.079 362.671C17.625 362.923 18.269 363.133 18.927 363.133C19.949 363.133 20.607 362.741 20.607 361.817C20.607 361.131 20.103 360.795 19.431 360.473L18.115 359.843C17.233 359.423 16.631 358.877 16.631 357.687C16.631 356.245 17.891 355.419 19.347 355.419C20.131 355.419 20.635 355.545 21.363 355.811L20.971 356.805C20.523 356.595 20.033 356.399 19.417 356.399C18.549 356.399 17.765 356.749 17.765 357.645C17.765 358.247 18.129 358.541 18.689 358.807L20.033 359.465C21.097 359.983 21.727 360.557 21.727 361.635ZM26.6997 363.735C26.2937 363.959 25.9157 364.141 25.2017 364.141C24.1937 364.141 23.5497 363.483 23.5497 362.363V358.359H22.5837V357.617L23.5497 357.421V356.329L24.6557 356.189V357.449H26.4897V358.359H24.6557V361.985C24.6557 362.867 24.8797 363.147 25.5237 363.147C25.8737 363.147 26.1397 363.007 26.3357 362.881L26.6997 363.735ZM32.4932 363.931L31.3732 364.113L31.2752 363.343H31.2612C30.7852 363.791 30.2672 364.169 29.4832 364.169C28.3912 364.169 27.7472 363.511 27.7472 362.475C27.7472 361.299 28.6712 360.725 30.0012 360.585L31.1772 360.459V359.871C31.1772 358.961 30.8972 358.317 29.8192 358.317C29.2732 358.317 28.8672 358.485 28.4612 358.695L28.0552 357.869C28.6432 357.519 29.2452 357.295 30.0852 357.295C31.4012 357.295 32.2832 358.065 32.2832 359.367V362.489L32.4932 363.931ZM31.1772 362.643V361.215L30.1552 361.355C29.3152 361.467 28.8532 361.733 28.8532 362.335C28.8532 362.881 29.1892 363.245 29.7492 363.245C30.4072 363.245 30.8132 362.965 31.1772 362.643ZM37.8149 363.735C37.4089 363.959 37.0309 364.141 36.3169 364.141C35.3089 364.141 34.6649 363.483 34.6649 362.363V358.359H33.6989V357.617L34.6649 357.421V356.329L35.7709 356.189V357.449H37.6049V358.359H35.7709V361.985C35.7709 362.867 35.9949 363.147 36.6389 363.147C36.9889 363.147 37.2549 363.007 37.4509 362.881L37.8149 363.735ZM44.4764 363.931L43.3704 364.113L43.2584 363.357H43.2444C42.7544 363.819 42.1104 364.155 41.2984 364.155C40.1924 364.155 39.3104 363.441 39.3104 362.097V358.961L39.1144 357.519L40.4304 357.337V361.705C40.4304 362.671 40.7944 363.175 41.6764 363.175C42.3064 363.175 42.7544 362.909 43.1604 362.531V358.961L42.9644 357.519L44.2804 357.337V362.489L44.4764 363.931ZM50.3095 362.097C50.3095 363.287 49.3715 364.141 47.9715 364.141C47.2995 364.141 46.6275 364.043 46.0955 363.791L46.4315 362.811C46.8935 363.021 47.4115 363.189 47.9155 363.189C48.6715 363.189 49.1755 362.895 49.1755 362.279C49.1755 361.803 48.9235 361.607 48.4895 361.411L47.2715 360.851C46.8375 360.655 46.0535 360.263 46.0535 359.129C46.0535 357.883 47.1455 357.295 48.3355 357.295C49.0495 357.295 49.5535 357.407 50.1135 357.645L49.7355 358.611C49.2875 358.415 48.8535 358.275 48.3215 358.275C47.6075 358.275 47.1455 358.499 47.1455 359.059C47.1455 359.549 47.5655 359.745 47.8315 359.871L49.0775 360.459C49.9455 360.865 50.3095 361.383 50.3095 362.097Z" fill="#00157E"/>
</g>
<path d="M285.999 348.501H346.999C353.35 348.501 358.499 353.65 358.499 360.001C358.499 366.352 353.35 371.501 346.999 371.501H285.999C279.648 371.501 274.499 366.352 274.499 360.001C274.499 353.65 279.648 348.501 285.999 348.501Z" fill="#00157E"/>
<path d="M285.999 348.501H346.999C353.35 348.501 358.499 353.65 358.499 360.001C358.499 366.352 353.35 371.501 346.999 371.501H285.999C279.648 371.501 274.499 366.352 274.499 360.001C274.499 353.65 279.648 348.501 285.999 348.501Z" stroke="#00157E"/>
<g clip-path="url(#clip2_663_85202)">
<path d="M289.999 366.668C293.681 366.668 296.666 363.683 296.666 360.001C296.666 356.319 293.681 353.334 289.999 353.334C286.317 353.334 283.333 356.319 283.333 360.001C283.333 363.683 286.317 366.668 289.999 366.668Z" stroke="white" stroke-width="2" stroke-linecap="round" stroke-linejoin="round"/>
<path d="M289.999 356.001V360.001L292.666 361.334" stroke="white" stroke-width="2" stroke-linecap="round" stroke-linejoin="round"/>
</g>
<path d="M312.5 357.659C312.5 359.633 310.89 360.627 309.014 360.627H308.804V364.001H307.642V355.643C307.642 355.643 308.692 355.489 309.798 355.489C311.436 355.489 312.5 356.273 312.5 357.659ZM311.352 357.869C311.352 356.833 310.666 356.371 309.602 356.371C309.154 356.371 308.804 356.427 308.804 356.427V359.731H308.986C310.232 359.731 311.352 359.171 311.352 357.869ZM318.426 363.651C317.796 364.001 317.152 364.155 316.354 364.155C314.422 364.155 313.428 362.853 313.428 360.683C313.428 358.653 314.492 357.295 316.144 357.295C317.726 357.295 318.37 358.345 318.37 359.787V360.571H314.52C314.534 362.321 315.164 363.161 316.592 363.161C317.138 363.161 317.558 363.007 318.034 362.769L318.426 363.651ZM317.32 359.787C317.32 358.807 316.956 358.191 316.088 358.191C315.248 358.191 314.716 358.849 314.576 359.787H317.32ZM325.067 364.001H323.947V359.745C323.947 358.779 323.583 358.289 322.701 358.289C322.071 358.289 321.623 358.555 321.217 358.919V364.001H320.097V358.961L319.901 357.519L321.007 357.337L321.119 358.107H321.133C321.623 357.631 322.267 357.295 323.079 357.295C324.185 357.295 325.067 358.009 325.067 359.353V364.001ZM332.188 363.959L331.11 364.113L331.012 363.455H330.998C330.578 363.805 330.004 364.155 329.234 364.155C327.792 364.155 326.826 362.965 326.826 361.019C326.826 358.765 327.988 357.379 329.976 357.379C330.508 357.379 330.886 357.477 330.886 357.477V356.063L330.676 354.621L331.992 354.439V362.517L332.188 363.959ZM329.626 363.175C330.172 363.175 330.55 362.951 330.886 362.685V358.499C330.886 358.499 330.522 358.317 329.878 358.317C328.604 358.317 327.974 359.395 327.974 360.669C327.974 362.251 328.394 363.175 329.626 363.175ZM335.381 364.001H334.261V358.961L334.065 357.519L335.381 357.337V364.001ZM335.605 355.741C335.605 356.189 335.255 356.525 334.835 356.525C334.401 356.525 334.037 356.189 334.037 355.741C334.037 355.293 334.401 354.943 334.835 354.943C335.255 354.943 335.605 355.293 335.605 355.741ZM342.594 364.001H341.474V359.745C341.474 358.779 341.11 358.289 340.228 358.289C339.598 358.289 339.15 358.555 338.744 358.919V364.001H337.624V358.961L337.428 357.519L338.534 357.337L338.646 358.107H338.66C339.15 357.631 339.794 357.295 340.606 357.295C341.712 357.295 342.594 358.009 342.594 359.353V364.001ZM350.15 358.275H348.834C349.03 358.611 349.142 359.003 349.142 359.479C349.142 360.809 348.176 361.705 346.832 361.705C346.566 361.705 346.314 361.663 346.09 361.607C346.09 361.607 345.642 361.859 345.642 362.363C345.642 362.797 345.964 362.881 346.412 362.881H348.288C349.436 362.881 350.108 363.231 350.108 364.253C350.108 365.541 348.792 366.997 346.398 366.997C345.026 366.997 344.186 366.325 344.186 365.177C344.186 364.099 345.068 363.567 345.068 363.567C344.788 363.385 344.606 363.105 344.606 362.643C344.606 361.831 345.306 361.425 345.446 361.355C344.83 360.977 344.494 360.333 344.494 359.479C344.494 358.149 345.474 357.267 346.832 357.267C347.336 357.267 347.798 357.379 348.162 357.603L350.15 357.295V358.275ZM349.128 364.421C349.128 363.945 348.722 363.847 348.036 363.847H346.272C346.076 363.847 345.894 363.833 345.712 363.805C345.712 363.805 345.18 364.225 345.18 364.925C345.18 365.681 345.642 366.087 346.65 366.087C348.26 366.087 349.128 365.135 349.128 364.421ZM348.092 359.479C348.092 358.569 347.588 358.107 346.832 358.107C346.104 358.107 345.544 358.597 345.544 359.479C345.544 360.403 346.062 360.865 346.832 360.865C347.546 360.865 348.092 360.375 348.092 359.479Z" fill="white"/>
<path d="M22.539 397.427C22.539 399.317 20.985 400.003 18.941 400.003H17.163V391.631C17.163 391.631 18.227 391.505 19.319 391.505C20.929 391.505 21.909 392.107 21.909 393.437C21.909 394.445 21.279 395.117 20.481 395.467V395.481C21.615 395.607 22.539 396.265 22.539 397.427ZM21.377 397.609C21.377 396.671 20.775 396.111 19.123 396.111H18.311V399.051H19.333C20.481 399.051 21.377 398.617 21.377 397.609ZM20.747 393.703C20.747 392.765 20.145 392.359 19.067 392.359C18.675 392.359 18.311 392.401 18.311 392.401V395.299C19.753 395.271 20.747 394.865 20.747 393.703ZM29.273 396.727C29.273 398.645 28.363 400.157 26.473 400.157C24.401 400.157 23.673 398.687 23.673 396.727C23.673 394.809 24.583 393.297 26.473 393.297C28.545 393.297 29.273 394.767 29.273 396.727ZM28.125 396.755C28.125 395.131 27.579 394.277 26.473 394.277C25.395 394.277 24.821 395.033 24.821 396.685C24.821 398.309 25.367 399.177 26.473 399.177C27.551 399.177 28.125 398.407 28.125 396.755ZM36.2046 396.727C36.2046 398.645 35.2946 400.157 33.4046 400.157C31.3326 400.157 30.6046 398.687 30.6046 396.727C30.6046 394.809 31.5146 393.297 33.4046 393.297C35.4766 393.297 36.2046 394.767 36.2046 396.727ZM35.0566 396.755C35.0566 395.131 34.5106 394.277 33.4046 394.277C32.3266 394.277 31.7526 395.033 31.7526 396.685C31.7526 398.309 32.2986 399.177 33.4046 399.177C34.4826 399.177 35.0566 398.407 35.0566 396.755ZM39.0763 400.003H37.9563V392.065L37.7603 390.623L39.0763 390.441V400.003ZM43.2063 399.807L42.0863 400.213L39.1043 396.447L41.4703 393.451H42.7443L40.4203 396.349L43.2063 399.807ZM45.6264 400.003H44.5064V394.963L44.3104 393.521L45.6264 393.339V400.003ZM45.8504 391.743C45.8504 392.191 45.5004 392.527 45.0804 392.527C44.6464 392.527 44.2824 392.191 44.2824 391.743C44.2824 391.295 44.6464 390.945 45.0804 390.945C45.5004 390.945 45.8504 391.295 45.8504 391.743ZM52.839 400.003H51.719V395.747C51.719 394.781 51.355 394.291 50.473 394.291C49.843 394.291 49.395 394.557 48.989 394.921V400.003H47.869V394.963L47.673 393.521L48.779 393.339L48.891 394.109H48.905C49.395 393.633 50.039 393.297 50.851 393.297C51.957 393.297 52.839 394.011 52.839 395.355V400.003ZM60.3948 394.277H59.0788C59.2748 394.613 59.3868 395.005 59.3868 395.481C59.3868 396.811 58.4208 397.707 57.0768 397.707C56.8108 397.707 56.5588 397.665 56.3348 397.609C56.3348 397.609 55.8868 397.861 55.8868 398.365C55.8868 398.799 56.2088 398.883 56.6568 398.883H58.5328C59.6808 398.883 60.3528 399.233 60.3528 400.255C60.3528 401.543 59.0368 402.999 56.6428 402.999C55.2708 402.999 54.4308 402.327 54.4308 401.179C54.4308 400.101 55.3128 399.569 55.3128 399.569C55.0328 399.387 54.8508 399.107 54.8508 398.645C54.8508 397.833 55.5508 397.427 55.6908 397.357C55.0748 396.979 54.7388 396.335 54.7388 395.481C54.7388 394.151 55.7188 393.269 57.0768 393.269C57.5808 393.269 58.0428 393.381 58.4068 393.605L60.3948 393.297V394.277ZM59.3728 400.423C59.3728 399.947 58.9668 399.849 58.2808 399.849H56.5168C56.3208 399.849 56.1388 399.835 55.9568 399.807C55.9568 399.807 55.4248 400.227 55.4248 400.927C55.4248 401.683 55.8868 402.089 56.8948 402.089C58.5048 402.089 59.3728 401.137 59.3728 400.423ZM58.3368 395.481C58.3368 394.571 57.8328 394.109 57.0768 394.109C56.3488 394.109 55.7888 394.599 55.7888 395.481C55.7888 396.405 56.3068 396.867 57.0768 396.867C57.7908 396.867 58.3368 396.377 58.3368 395.481ZM69.0501 393.577L68.7001 394.585C68.3361 394.445 67.9301 394.319 67.4681 394.319C66.2361 394.319 65.4941 395.243 65.4941 396.629C65.4941 398.379 66.1801 399.177 67.4401 399.177C67.8881 399.177 68.2521 399.023 68.6161 398.869L68.9941 399.779C68.4481 400.031 67.8461 400.157 67.2161 400.157C65.3401 400.157 64.3741 398.813 64.3741 396.811C64.3741 394.403 65.8581 393.297 67.5241 393.297C68.0981 393.297 68.5881 393.395 69.0501 393.577ZM75.4976 396.727C75.4976 398.645 74.5876 400.157 72.6976 400.157C70.6256 400.157 69.8976 398.687 69.8976 396.727C69.8976 394.809 70.8076 393.297 72.6976 393.297C74.7696 393.297 75.4976 394.767 75.4976 396.727ZM74.3496 396.755C74.3496 395.131 73.8036 394.277 72.6976 394.277C71.6196 394.277 71.0456 395.033 71.0456 396.685C71.0456 398.309 71.5916 399.177 72.6976 399.177C73.7756 399.177 74.3496 398.407 74.3496 396.755ZM82.2472 400.003H81.1272V395.747C81.1272 394.781 80.7632 394.291 79.8812 394.291C79.2512 394.291 78.8032 394.557 78.3972 394.921V400.003H77.2772V394.963L77.0812 393.521L78.1872 393.339L78.2992 394.109H78.3132C78.8032 393.633 79.4472 393.297 80.2592 393.297C81.3652 393.297 82.2472 394.011 82.2472 395.355V400.003ZM89.019 400.003H87.913V394.361H85.687V400.003H84.581V394.361H83.615V393.619L84.581 393.423V392.905C84.581 391.491 85.477 390.455 87.073 390.455C87.801 390.455 88.263 390.679 88.599 390.861L88.193 391.757C88.025 391.645 87.605 391.407 87.073 391.407C86.051 391.407 85.687 391.981 85.687 392.779V393.451H89.019V400.003ZM94.2036 394.417C93.4476 394.417 92.8876 394.613 92.3836 395.075V400.003H91.2636V394.963L91.0676 393.521L92.1736 393.339L92.2856 394.235H92.2996C92.7476 393.731 93.3356 393.311 94.2036 393.311V394.417ZM104.376 400.003H103.27V395.747C103.27 394.781 102.906 394.291 102.01 394.291C101.38 394.291 100.848 394.599 100.498 394.949C100.498 394.949 100.54 395.187 100.54 395.439V400.003H99.4202V395.747C99.4202 394.781 99.0562 394.291 98.1742 394.291C97.5442 394.291 97.0962 394.543 96.6902 394.921V400.003H95.5702V394.963L95.3742 393.521L96.4802 393.339L96.5922 394.109H96.6062C97.0962 393.633 97.7402 393.297 98.5522 393.297C99.3082 393.297 99.9382 393.633 100.274 394.235H100.288C100.806 393.717 101.478 393.297 102.402 393.297C103.522 393.297 104.376 394.011 104.376 395.355V400.003ZM110.901 399.933L109.781 400.115L109.683 399.345H109.669C109.193 399.793 108.675 400.171 107.891 400.171C106.799 400.171 106.155 399.513 106.155 398.477C106.155 397.301 107.079 396.727 108.409 396.587L109.585 396.461V395.873C109.585 394.963 109.305 394.319 108.227 394.319C107.681 394.319 107.275 394.487 106.869 394.697L106.463 393.871C107.051 393.521 107.653 393.297 108.493 393.297C109.809 393.297 110.691 394.067 110.691 395.369V398.491L110.901 399.933ZM109.585 398.645V397.217L108.563 397.357C107.723 397.469 107.261 397.735 107.261 398.337C107.261 398.883 107.597 399.247 108.157 399.247C108.815 399.247 109.221 398.967 109.585 398.645ZM116.223 399.737C115.817 399.961 115.439 400.143 114.725 400.143C113.717 400.143 113.073 399.485 113.073 398.365V394.361H112.107V393.619L113.073 393.423V392.331L114.179 392.191V393.451H116.013V394.361H114.179V397.987C114.179 398.869 114.403 399.149 115.047 399.149C115.397 399.149 115.663 399.009 115.859 398.883L116.223 399.737ZM118.867 400.003H117.747V394.963L117.551 393.521L118.867 393.339V400.003ZM119.091 391.743C119.091 392.191 118.741 392.527 118.321 392.527C117.887 392.527 117.523 392.191 117.523 391.743C117.523 391.295 117.887 390.945 118.321 390.945C118.741 390.945 119.091 391.295 119.091 391.743ZM126.261 396.727C126.261 398.645 125.351 400.157 123.461 400.157C121.389 400.157 120.661 398.687 120.661 396.727C120.661 394.809 121.571 393.297 123.461 393.297C125.533 393.297 126.261 394.767 126.261 396.727ZM125.113 396.755C125.113 395.131 124.567 394.277 123.461 394.277C122.383 394.277 121.809 395.033 121.809 396.685C121.809 398.309 122.355 399.177 123.461 399.177C124.539 399.177 125.113 398.407 125.113 396.755ZM133.011 400.003H131.891V395.747C131.891 394.781 131.527 394.291 130.645 394.291C130.015 394.291 129.567 394.557 129.161 394.921V400.003H128.041V394.963L127.845 393.521L128.951 393.339L129.063 394.109H129.077C129.567 393.633 130.211 393.297 131.023 393.297C132.129 393.297 133.011 394.011 133.011 395.355V400.003Z" fill="#00157E"/>
<path d="M283.999 399.003V403.003C283.999 403.533 283.788 404.042 283.413 404.417C283.038 404.792 282.529 405.003 281.999 405.003H267.999C267.469 405.003 266.96 404.792 266.585 404.417C266.21 404.042 265.999 403.533 265.999 403.003V399.003" stroke="#00157E" stroke-width="2" stroke-linecap="round" stroke-linejoin="round"/>
<path d="M269.999 394.003L274.999 399.003L279.999 394.003" stroke="#00157E" stroke-width="2" stroke-linecap="round" stroke-linejoin="round"/>
<path d="M274.999 399.003V387.003" stroke="#00157E" stroke-width="2" stroke-linecap="round" stroke-linejoin="round"/>
<path d="M303.063 395.257C303.063 398.337 301.215 400.003 298.219 400.003H296.455V391.631C296.455 391.631 297.617 391.491 298.863 391.491C301.467 391.491 303.063 392.849 303.063 395.257ZM301.845 395.425C301.845 393.437 300.501 392.485 298.667 392.485C298.079 392.485 297.631 392.513 297.631 392.513V398.953H298.443C300.445 398.953 301.845 397.763 301.845 395.425ZM310.001 396.727C310.001 398.645 309.091 400.157 307.201 400.157C305.129 400.157 304.401 398.687 304.401 396.727C304.401 394.809 305.311 393.297 307.201 393.297C309.273 393.297 310.001 394.767 310.001 396.727ZM308.853 396.755C308.853 395.131 308.307 394.277 307.201 394.277C306.123 394.277 305.549 395.033 305.549 396.685C305.549 398.309 306.095 399.177 307.201 399.177C308.279 399.177 308.853 398.407 308.853 396.755ZM319.634 393.451L317.828 399.975L316.792 400.031L315.196 395.061H315.182L313.572 399.989L312.536 400.031L310.898 393.521L311.962 393.255L313.138 398.365H313.152L314.678 393.451H315.77L317.31 398.365H317.324L318.542 393.451H319.634ZM326.074 400.003H324.954V395.747C324.954 394.781 324.59 394.291 323.708 394.291C323.078 394.291 322.63 394.557 322.224 394.921V400.003H321.104V394.963L320.908 393.521L322.014 393.339L322.126 394.109H322.14C322.63 393.633 323.274 393.297 324.086 393.297C325.192 393.297 326.074 394.011 326.074 395.355V400.003ZM329.374 400.003H328.254V392.065L328.058 390.623L329.374 390.441V400.003ZM336.743 396.727C336.743 398.645 335.833 400.157 333.943 400.157C331.871 400.157 331.143 398.687 331.143 396.727C331.143 394.809 332.053 393.297 333.943 393.297C336.015 393.297 336.743 394.767 336.743 396.727ZM335.595 396.755C335.595 395.131 335.049 394.277 333.943 394.277C332.865 394.277 332.291 395.033 332.291 396.685C332.291 398.309 332.837 399.177 333.943 399.177C335.021 399.177 335.595 398.407 335.595 396.755ZM342.82 399.933L341.7 400.115L341.602 399.345H341.588C341.112 399.793 340.594 400.171 339.81 400.171C338.718 400.171 338.074 399.513 338.074 398.477C338.074 397.301 338.998 396.727 340.328 396.587L341.504 396.461V395.873C341.504 394.963 341.224 394.319 340.146 394.319C339.6 394.319 339.194 394.487 338.788 394.697L338.382 393.871C338.97 393.521 339.572 393.297 340.412 393.297C341.728 393.297 342.61 394.067 342.61 395.369V398.491L342.82 399.933ZM341.504 398.645V397.217L340.482 397.357C339.642 397.469 339.18 397.735 339.18 398.337C339.18 398.883 339.516 399.247 340.076 399.247C340.734 399.247 341.14 398.967 341.504 398.645ZM349.78 399.961L348.702 400.115L348.604 399.457H348.59C348.17 399.807 347.596 400.157 346.826 400.157C345.384 400.157 344.418 398.967 344.418 397.021C344.418 394.767 345.58 393.381 347.568 393.381C348.1 393.381 348.478 393.479 348.478 393.479V392.065L348.268 390.623L349.584 390.441V398.519L349.78 399.961ZM347.218 399.177C347.764 399.177 348.142 398.953 348.478 398.687V394.501C348.478 394.501 348.114 394.319 347.47 394.319C346.196 394.319 345.566 395.397 345.566 396.671C345.566 398.253 345.986 399.177 347.218 399.177Z" fill="#00157E"/>
<g clip-path="url(#clip3_663_85202)">
<path d="M21.727 433.638C21.727 435.108 20.705 436.158 19.011 436.158C18.143 436.158 17.373 435.976 16.715 435.696L17.079 434.674C17.625 434.926 18.269 435.136 18.927 435.136C19.949 435.136 20.607 434.744 20.607 433.82C20.607 433.134 20.103 432.798 19.431 432.476L18.115 431.846C17.233 431.426 16.631 430.88 16.631 429.69C16.631 428.248 17.891 427.422 19.347 427.422C20.131 427.422 20.635 427.548 21.363 427.814L20.971 428.808C20.523 428.598 20.033 428.402 19.417 428.402C18.549 428.402 17.765 428.752 17.765 429.648C17.765 430.25 18.129 430.544 18.689 430.81L20.033 431.468C21.097 431.986 21.727 432.56 21.727 433.638ZM24.5717 436.004H23.4517V430.964L23.2557 429.522L24.5717 429.34V436.004ZM24.7957 427.744C24.7957 428.192 24.4457 428.528 24.0257 428.528C23.5917 428.528 23.2277 428.192 23.2277 427.744C23.2277 427.296 23.5917 426.946 24.0257 426.946C24.4457 426.946 24.7957 427.296 24.7957 427.744ZM32.1623 430.278H30.8463C31.0423 430.614 31.1543 431.006 31.1543 431.482C31.1543 432.812 30.1883 433.708 28.8443 433.708C28.5783 433.708 28.3263 433.666 28.1023 433.61C28.1023 433.61 27.6543 433.862 27.6543 434.366C27.6543 434.8 27.9763 434.884 28.4243 434.884H30.3003C31.4483 434.884 32.1203 435.234 32.1203 436.256C32.1203 437.544 30.8043 439 28.4103 439C27.0383 439 26.1983 438.328 26.1983 437.18C26.1983 436.102 27.0803 435.57 27.0803 435.57C26.8003 435.388 26.6183 435.108 26.6183 434.646C26.6183 433.834 27.3183 433.428 27.4583 433.358C26.8423 432.98 26.5063 432.336 26.5063 431.482C26.5063 430.152 27.4863 429.27 28.8443 429.27C29.3483 429.27 29.8103 429.382 30.1743 429.606L32.1623 429.298V430.278ZM31.1403 436.424C31.1403 435.948 30.7343 435.85 30.0483 435.85H28.2843C28.0883 435.85 27.9063 435.836 27.7243 435.808C27.7243 435.808 27.1923 436.228 27.1923 436.928C27.1923 437.684 27.6543 438.09 28.6623 438.09C30.2723 438.09 31.1403 437.138 31.1403 436.424ZM30.1043 431.482C30.1043 430.572 29.6003 430.11 28.8443 430.11C28.1163 430.11 27.5563 430.6 27.5563 431.482C27.5563 432.406 28.0743 432.868 28.8443 432.868C29.5583 432.868 30.1043 432.378 30.1043 431.482ZM38.6203 436.004H37.5003V431.748C37.5003 430.782 37.1363 430.292 36.2543 430.292C35.6243 430.292 35.1763 430.558 34.7703 430.922V436.004H33.6503V430.964L33.4543 429.522L34.5603 429.34L34.6723 430.11H34.6863C35.1763 429.634 35.8203 429.298 36.6323 429.298C37.7383 429.298 38.6203 430.012 38.6203 431.356V436.004ZM45.378 435.654C44.748 436.004 44.104 436.158 43.306 436.158C41.374 436.158 40.38 434.856 40.38 432.686C40.38 430.656 41.444 429.298 43.096 429.298C44.678 429.298 45.322 430.348 45.322 431.79V432.574H41.472C41.486 434.324 42.116 435.164 43.544 435.164C44.09 435.164 44.51 435.01 44.986 434.772L45.378 435.654ZM44.272 431.79C44.272 430.81 43.908 430.194 43.04 430.194C42.2 430.194 41.668 430.852 41.528 431.79H44.272ZM51.9627 435.962L50.8847 436.116L50.7867 435.458H50.7727C50.3527 435.808 49.7787 436.158 49.0087 436.158C47.5667 436.158 46.6007 434.968 46.6007 433.022C46.6007 430.768 47.7627 429.382 49.7507 429.382C50.2827 429.382 50.6607 429.48 50.6607 429.48V428.066L50.4507 426.624L51.7667 426.442V434.52L51.9627 435.962ZM49.4007 435.178C49.9467 435.178 50.3247 434.954 50.6607 434.688V430.502C50.6607 430.502 50.2967 430.32 49.6527 430.32C48.3787 430.32 47.7487 431.398 47.7487 432.672C47.7487 434.254 48.1687 435.178 49.4007 435.178Z" fill="#00157E"/>
</g>
<path d="M347.938 427.576L345.278 432.546V436.004H343.402V432.574L340.98 427.996L342.688 427.254L344.368 430.88H344.382L345.95 427.576H347.938ZM352.931 435.612C352.189 435.99 351.573 436.172 350.677 436.172C348.465 436.172 347.485 434.828 347.485 432.588C347.485 430.586 348.675 429.228 350.439 429.228C352.287 429.228 352.889 430.502 352.889 432.098V432.882H349.221C349.277 434.058 349.837 434.618 350.901 434.618C351.531 434.618 351.881 434.464 352.385 434.254L352.931 435.612ZM351.335 431.804C351.335 431.118 351.041 430.656 350.383 430.656C349.683 430.656 349.333 431.188 349.249 431.804H351.335ZM358.476 433.876C358.476 435.15 357.454 436.158 355.914 436.158C355.116 436.158 354.402 436.032 353.8 435.752L354.262 434.296C354.766 434.506 355.256 434.716 355.816 434.716C356.418 434.716 356.712 434.506 356.712 434.156C356.712 433.834 356.558 433.708 356.194 433.554L355.158 433.12C354.542 432.868 353.87 432.406 353.87 431.314C353.87 429.942 355.032 429.214 356.418 429.214C357.202 429.214 357.734 429.34 358.364 429.606L357.818 431.034C357.37 430.852 356.936 430.67 356.432 430.67C355.886 430.67 355.578 430.824 355.578 431.188C355.578 431.538 355.858 431.664 356.11 431.762L357.188 432.196C358.028 432.532 358.476 433.064 358.476 433.876Z" fill="#00157E"/>
<path d="M16.001 472.004C16.001 469.795 17.7918 468.004 20.001 468.004H44.001C46.2101 468.004 48.001 469.795 48.001 472.004V496.004C48.001 498.213 46.2101 500.004 44.001 500.004H20.001C17.7918 500.004 16.001 498.213 16.001 496.004V472.004Z" fill="#00157E" fill-opacity="0.05"/>
<path d="M26.001 481.004L32.001 487.004L38.001 481.004" stroke="#00157E" stroke-width="2" stroke-linecap="round" stroke-linejoin="round"/>
<path d="M70.4255 480.508H66.9695V483.644H70.0895V484.78H66.9695V489.004H65.6415V479.372H70.4255V480.508ZM77.8881 488.924L76.6241 489.132L76.4961 488.268H76.4801C75.9201 488.796 75.1841 489.18 74.2561 489.18C72.9921 489.18 71.9841 488.364 71.9841 486.828V483.244L71.7601 481.596L73.2641 481.388V486.38C73.2641 487.484 73.6801 488.06 74.6881 488.06C75.4081 488.06 75.9201 487.756 76.3841 487.324V483.244L76.1601 481.596L77.6641 481.388V487.276L77.8881 488.924ZM83.5785 482.62C82.7145 482.62 82.0745 482.844 81.4985 483.372V489.004H80.2185V483.244L79.9945 481.596L81.2585 481.388L81.3865 482.412H81.4025C81.9145 481.836 82.5865 481.356 83.5785 481.356V482.62ZM89.15 488.7C88.686 488.956 88.254 489.164 87.438 489.164C86.286 489.164 85.55 488.412 85.55 487.132V482.556H84.446V481.708L85.55 481.484V480.236L86.814 480.076V481.516H88.91V482.556H86.814V486.7C86.814 487.708 87.07 488.028 87.806 488.028C88.206 488.028 88.51 487.868 88.734 487.724L89.15 488.7ZM96.4911 489.004H95.2271V484.14C95.2271 483.052 94.7951 482.492 93.7711 482.492C93.0351 482.492 92.5391 482.812 92.1071 483.196V489.004H90.8271V479.932L90.6031 478.284L92.1071 478.076V482.172H92.1231C92.6191 481.74 93.3071 481.34 94.2351 481.34C95.5151 481.34 96.4911 482.14 96.4911 483.692V489.004ZM104.231 488.604C103.511 489.004 102.775 489.18 101.863 489.18C99.655 489.18 98.519 487.692 98.519 485.212C98.519 482.892 99.735 481.34 101.623 481.34C103.431 481.34 104.167 482.54 104.167 484.188V485.084H99.767C99.783 487.084 100.503 488.044 102.135 488.044C102.759 488.044 103.239 487.868 103.783 487.596L104.231 488.604ZM102.967 484.188C102.967 483.068 102.551 482.364 101.559 482.364C100.599 482.364 99.991 483.116 99.831 484.188H102.967ZM109.5 482.62C108.636 482.62 107.996 482.844 107.42 483.372V489.004H106.14V483.244L105.916 481.596L107.18 481.388L107.308 482.412H107.324C107.836 481.836 108.508 481.356 109.5 481.356V482.62ZM120.31 485.26C120.31 487.452 119.27 489.18 117.11 489.18C114.742 489.18 113.91 487.5 113.91 485.26C113.91 483.068 114.95 481.34 117.11 481.34C119.478 481.34 120.31 483.02 120.31 485.26ZM118.998 485.292C118.998 483.436 118.374 482.46 117.11 482.46C115.878 482.46 115.222 483.324 115.222 485.212C115.222 487.068 115.846 488.06 117.11 488.06C118.342 488.06 118.998 487.18 118.998 485.292ZM128.231 484.892C128.231 487.324 127.175 489.084 124.679 489.084C124.263 489.084 123.927 489.052 123.623 488.972V492.172L122.343 492.38V483.244L122.119 481.596L123.383 481.388L123.495 482.156H123.511C124.007 481.74 124.663 481.34 125.527 481.34C127.351 481.34 128.231 482.716 128.231 484.892ZM126.951 485.26C126.951 483.628 126.583 482.492 125.095 482.492C124.455 482.492 123.991 482.764 123.623 483.068V487.788C123.927 487.916 124.279 487.996 124.775 487.996C126.167 487.996 126.951 486.908 126.951 485.26ZM133.9 488.7C133.436 488.956 133.004 489.164 132.188 489.164C131.036 489.164 130.3 488.412 130.3 487.132V482.556H129.196V481.708L130.3 481.484V480.236L131.564 480.076V481.516H133.66V482.556H131.564V486.7C131.564 487.708 131.82 488.028 132.556 488.028C132.956 488.028 133.26 487.868 133.484 487.724L133.9 488.7ZM136.921 489.004H135.641V483.244L135.417 481.596L136.921 481.388V489.004ZM137.177 479.564C137.177 480.076 136.777 480.46 136.297 480.46C135.801 480.46 135.385 480.076 135.385 479.564C135.385 479.052 135.801 478.652 136.297 478.652C136.777 478.652 137.177 479.052 137.177 479.564ZM145.372 485.26C145.372 487.452 144.332 489.18 142.172 489.18C139.804 489.18 138.972 487.5 138.972 485.26C138.972 483.068 140.012 481.34 142.172 481.34C144.54 481.34 145.372 483.02 145.372 485.26ZM144.06 485.292C144.06 483.436 143.436 482.46 142.172 482.46C140.94 482.46 140.284 483.324 140.284 485.212C140.284 487.068 140.908 488.06 142.172 488.06C143.404 488.06 144.06 487.18 144.06 485.292ZM153.086 489.004H151.806V484.14C151.806 483.036 151.39 482.476 150.382 482.476C149.662 482.476 149.15 482.78 148.686 483.196V489.004H147.406V483.244L147.182 481.596L148.446 481.388L148.574 482.268H148.59C149.15 481.724 149.886 481.34 150.814 481.34C152.078 481.34 153.086 482.156 153.086 483.692V489.004ZM159.945 486.828C159.945 488.188 158.873 489.164 157.273 489.164C156.505 489.164 155.737 489.052 155.129 488.764L155.513 487.644C156.041 487.884 156.633 488.076 157.209 488.076C158.073 488.076 158.649 487.74 158.649 487.036C158.649 486.492 158.361 486.268 157.865 486.044L156.473 485.404C155.977 485.18 155.081 484.732 155.081 483.436C155.081 482.012 156.329 481.34 157.689 481.34C158.505 481.34 159.081 481.468 159.721 481.74L159.289 482.844C158.777 482.62 158.281 482.46 157.673 482.46C156.857 482.46 156.329 482.716 156.329 483.356C156.329 483.916 156.809 484.14 157.113 484.284L158.537 484.956C159.529 485.42 159.945 486.012 159.945 486.828Z" fill="#00157E"/>
<rect width="375" height="64" transform="translate(0 748)" fill="white"/>
<path d="M20 760.5H355C356.933 760.5 358.5 762.067 358.5 764V796C358.5 797.933 356.933 799.5 355 799.5H20C18.067 799.5 16.5 797.933 16.5 796V764C16.5 762.067 18.067 760.5 20 760.5Z" fill="#00157E"/>
<path d="M20 760.5H355C356.933 760.5 358.5 762.067 358.5 764V796C358.5 797.933 356.933 799.5 355 799.5H20C18.067 799.5 16.5 797.933 16.5 796V764C16.5 762.067 18.067 760.5 20 760.5Z" stroke="#00157E"/>
<path d="M170.733 784.504C169.837 784.968 168.925 785.176 167.709 785.176C165.357 785.176 163.549 783.592 163.549 780.392C163.549 776.984 165.565 775.192 168.157 775.192C169.229 775.192 169.885 775.352 170.701 775.704L170.189 776.872C169.581 776.6 169.005 776.392 168.141 776.392C166.461 776.392 164.925 777.688 164.925 780.056C164.925 782.696 165.901 783.992 168.237 783.992C169.005 783.992 169.709 783.688 170.285 783.432L170.733 784.504ZM177.949 781.256C177.949 783.448 176.909 785.176 174.749 785.176C172.381 785.176 171.549 783.496 171.549 781.256C171.549 779.064 172.589 777.336 174.749 777.336C177.117 777.336 177.949 779.016 177.949 781.256ZM176.637 781.288C176.637 779.432 176.013 778.456 174.749 778.456C173.517 778.456 172.861 779.32 172.861 781.208C172.861 783.064 173.485 784.056 174.749 784.056C175.981 784.056 176.637 783.176 176.637 781.288ZM185.663 785H184.383V780.136C184.383 779.032 183.967 778.472 182.959 778.472C182.239 778.472 181.727 778.776 181.263 779.192V785H179.983V779.24L179.759 777.592L181.023 777.384L181.151 778.264H181.167C181.727 777.72 182.463 777.336 183.391 777.336C184.655 777.336 185.663 778.152 185.663 779.688V785ZM193.402 785H192.138V778.552H189.594V785H188.33V778.552H187.226V777.704L188.33 777.48V776.888C188.33 775.272 189.354 774.088 191.178 774.088C192.01 774.088 192.538 774.344 192.922 774.552L192.458 775.576C192.266 775.448 191.786 775.176 191.178 775.176C190.01 775.176 189.594 775.832 189.594 776.744V777.512H193.402V785ZM199.328 778.616C198.464 778.616 197.824 778.84 197.248 779.368V785H195.968V779.24L195.743 777.592L197.008 777.384L197.136 778.408H197.152C197.664 777.832 198.336 777.352 199.328 777.352V778.616ZM210.953 785H209.689V780.136C209.689 779.032 209.273 778.472 208.249 778.472C207.529 778.472 206.921 778.824 206.521 779.224C206.521 779.224 206.569 779.496 206.569 779.784V785H205.289V780.136C205.289 779.032 204.873 778.472 203.865 778.472C203.145 778.472 202.633 778.76 202.169 779.192V785H200.889V779.24L200.665 777.592L201.929 777.384L202.057 778.264H202.073C202.633 777.72 203.369 777.336 204.297 777.336C205.161 777.336 205.881 777.72 206.265 778.408H206.281C206.873 777.816 207.641 777.336 208.697 777.336C209.977 777.336 210.953 778.152 210.953 779.688V785Z" fill="white"/>
</g>
<defs>
<filter id="filter0_d_663_85202" x="-32" y="-30" width="439" height="170" filterUnits="userSpaceOnUse" color-interpolation-filters="sRGB">
<feFlood flood-opacity="0" result="BackgroundImageFix"/>
<feColorMatrix in="SourceAlpha" type="matrix" values="0 0 0 0 0 0 0 0 0 0 0 0 0 0 0 0 0 0 127 0" result="hardAlpha"/>
<feOffset dy="2"/>
<feGaussianBlur stdDeviation="16"/>
<feColorMatrix type="matrix" values="0 0 0 0 0 0 0 0 0 0.0823529 0 0 0 0 0.494118 0 0 0 0.1 0"/>
<feBlend mode="normal" in2="BackgroundImageFix" result="effect1_dropShadow_663_85202"/>
<feBlend mode="normal" in="SourceGraphic" in2="effect1_dropShadow_663_85202" result="shape"/>
</filter>
<clipPath id="clip0_663_85202">
<rect width="375" height="812" fill="white"/>
</clipPath>
<clipPath id="clip1_663_85202">
<rect width="245.998" height="24" fill="white" transform="translate(16.001 348.001)"/>
</clipPath>
<clipPath id="clip2_663_85202">
<rect width="16" height="16" fill="white" transform="translate(281.999 352.001)"/>
</clipPath>
<clipPath id="clip3_663_85202">
<rect width="311.998" height="24" fill="white" transform="translate(16.001 420.004)"/>
</clipPath>
</defs>
</svg>
