<svg width="109" height="32" viewBox="0 0 109 32" fill="none" xmlns="http://www.w3.org/2000/svg">
<g clip-path="url(#clip0_769_106607)">
<path d="M0 16C0 7.16344 7.16344 0 16 0H93C101.837 0 109 7.16344 109 16V16C109 24.8366 101.837 32 93 32H16C7.16345 32 0 24.8366 0 16V16Z" fill="white"/>
<path d="M0.333252 3.93335C0.333252 1.72421 2.12411 -0.0666504 4.33325 -0.0666504H105.333C107.542 -0.0666504 109.333 1.72421 109.333 3.93335V27.9333C109.333 30.1425 107.542 31.9333 105.333 31.9333H4.33325C2.12412 31.9333 0.333252 30.1425 0.333252 27.9333V3.93335Z" fill="#00157E" fill-opacity="0.2"/>
<path d="M28 10L17 21L12 16" stroke="#00157E" stroke-width="2" stroke-linecap="round" stroke-linejoin="round"/>
<path d="M45.723 20H41.327V11.572H42.503V19.006H45.723V20ZM51.4073 19.93L50.2873 20.112L50.1893 19.342H50.1753C49.6993 19.79 49.1813 20.168 48.3973 20.168C47.3053 20.168 46.6613 19.51 46.6613 18.474C46.6613 17.298 47.5853 16.724 48.9153 16.584L50.0913 16.458V15.87C50.0913 14.96 49.8113 14.316 48.7333 14.316C48.1873 14.316 47.7813 14.484 47.3753 14.694L46.9693 13.868C47.5573 13.518 48.1593 13.294 48.9993 13.294C50.3153 13.294 51.1973 14.064 51.1973 15.366V18.488L51.4073 19.93ZM50.0913 18.642V17.214L49.0693 17.354C48.2293 17.466 47.7673 17.732 47.7673 18.334C47.7673 18.88 48.1033 19.244 48.6633 19.244C49.3213 19.244 49.7273 18.964 50.0913 18.642ZM58.633 16.332C58.633 18.516 57.499 20.14 55.427 20.14C54.699 20.14 53.901 20.014 53.425 19.832V12.062L53.229 10.62L54.545 10.438V13.952H54.559C54.979 13.602 55.539 13.294 56.281 13.294C57.821 13.294 58.633 14.4 58.633 16.332ZM57.499 16.738C57.499 15.296 57.163 14.316 55.889 14.316C55.301 14.316 54.881 14.554 54.545 14.848V19.062C54.825 19.132 55.105 19.174 55.525 19.174C56.827 19.174 57.499 18.068 57.499 16.738ZM64.9757 19.65C64.3457 20 63.7017 20.154 62.9037 20.154C60.9717 20.154 59.9777 18.852 59.9777 16.682C59.9777 14.652 61.0417 13.294 62.6937 13.294C64.2757 13.294 64.9197 14.344 64.9197 15.786V16.57H61.0697C61.0837 18.32 61.7137 19.16 63.1417 19.16C63.6877 19.16 64.1077 19.006 64.5837 18.768L64.9757 19.65ZM63.8697 15.786C63.8697 14.806 63.5057 14.19 62.6377 14.19C61.7977 14.19 61.2657 14.848 61.1257 15.786H63.8697ZM67.7384 20H66.6184V12.062L66.4224 10.62L67.7384 10.438V20Z" fill="#00157E"/>
<path d="M95 10L83 22" stroke="#00157E" stroke-width="2" stroke-linecap="round" stroke-linejoin="round"/>
<path d="M83 10L95 22" stroke="#00157E" stroke-width="2" stroke-linecap="round" stroke-linejoin="round"/>
</g>
<path d="M16 0.5H93C101.56 0.500001 108.5 7.43959 108.5 16C108.5 24.5604 101.56 31.5 93 31.5H16C7.43959 31.5 0.5 24.5604 0.5 16C0.5 7.57345 7.22424 0.717246 15.5996 0.504883L16 0.5Z" stroke="#00157E"/>
<defs>
<clipPath id="clip0_769_106607">
<path d="M0 16C0 7.16344 7.16344 0 16 0H93C101.837 0 109 7.16344 109 16V16C109 24.8366 101.837 32 93 32H16C7.16345 32 0 24.8366 0 16V16Z" fill="white"/>
</clipPath>
</defs>
</svg>
