<svg width="172" height="48" viewBox="0 0 172 48" fill="none" xmlns="http://www.w3.org/2000/svg">
<g clip-path="url(#clip0_327_1234217)">
<path d="M0 4C0 1.79086 1.79086 0 4 0H168C170.209 0 172 1.79086 172 4V44C172 46.2091 170.209 48 168 48H4C1.79086 48 0 46.2091 0 44V4Z" fill="#00157E"/>
<path d="M0.333252 4C0.333252 1.79086 2.12411 0 4.33325 0H168.333C170.542 0 172.333 1.79086 172.333 4V44C172.333 46.2091 170.542 48 168.333 48H4.33325C2.12411 48 0.333252 46.2091 0.333252 44V4Z" fill="white" fill-opacity="0.2"/>
<path d="M43 24H29" stroke="white" stroke-width="2" stroke-linecap="round" stroke-linejoin="round"/>
<path d="M36 31L29 24L36 17" stroke="white" stroke-width="2" stroke-linecap="round" stroke-linejoin="round"/>
<path d="M71.9486 26.056C71.9486 28.216 70.1726 29 67.8366 29H65.8046V19.432C65.8046 19.432 67.0206 19.288 68.2686 19.288C70.1086 19.288 71.2286 19.976 71.2286 21.496C71.2286 22.648 70.5086 23.416 69.5966 23.816V23.832C70.8926 23.976 71.9486 24.728 71.9486 26.056ZM70.6206 26.264C70.6206 25.192 69.9326 24.552 68.0446 24.552H67.1166V27.912H68.2846C69.5966 27.912 70.6206 27.416 70.6206 26.264ZM69.9006 21.8C69.9006 20.728 69.2126 20.264 67.9806 20.264C67.5326 20.264 67.1166 20.312 67.1166 20.312V23.624C68.7646 23.592 69.9006 23.128 69.9006 21.8ZM79.6606 28.92L78.3966 29.128L78.2686 28.264H78.2526C77.6926 28.792 76.9566 29.176 76.0286 29.176C74.7646 29.176 73.7566 28.36 73.7566 26.824V23.24L73.5326 21.592L75.0366 21.384V26.376C75.0366 27.48 75.4526 28.056 76.4606 28.056C77.1806 28.056 77.6926 27.752 78.1566 27.32V23.24L77.9326 21.592L79.4366 21.384V27.272L79.6606 28.92ZM85.7349 28.696C85.2709 28.952 84.8389 29.16 84.0229 29.16C82.8709 29.16 82.1349 28.408 82.1349 27.128V22.552H81.0309V21.704L82.1349 21.48V20.232L83.3989 20.072V21.512H85.4949V22.552H83.3989V26.696C83.3989 27.704 83.6549 28.024 84.3909 28.024C84.7909 28.024 85.0949 27.864 85.3189 27.72L85.7349 28.696ZM91.1881 28.696C90.7241 28.952 90.2921 29.16 89.4761 29.16C88.3241 29.16 87.5881 28.408 87.5881 27.128V22.552H86.4841V21.704L87.5881 21.48V20.232L88.8521 20.072V21.512H90.9481V22.552H88.8521V26.696C88.8521 27.704 89.1081 28.024 89.8441 28.024C90.2441 28.024 90.5481 27.864 90.7721 27.72L91.1881 28.696ZM98.5664 25.256C98.5664 27.448 97.5264 29.176 95.3664 29.176C92.9984 29.176 92.1664 27.496 92.1664 25.256C92.1664 23.064 93.2064 21.336 95.3664 21.336C97.7344 21.336 98.5664 23.016 98.5664 25.256ZM97.2544 25.288C97.2544 23.432 96.6304 22.456 95.3664 22.456C94.1344 22.456 93.4784 23.32 93.4784 25.208C93.4784 27.064 94.1024 28.056 95.3664 28.056C96.5984 28.056 97.2544 27.176 97.2544 25.288ZM106.28 29H105V24.136C105 23.032 104.584 22.472 103.576 22.472C102.856 22.472 102.344 22.776 101.88 23.192V29H100.6V23.24L100.376 21.592L101.64 21.384L101.768 22.264H101.784C102.344 21.72 103.08 21.336 104.008 21.336C105.272 21.336 106.28 22.152 106.28 23.688V29Z" fill="white"/>
<path d="M129 24H143" stroke="white" stroke-width="2" stroke-linecap="round" stroke-linejoin="round"/>
<path d="M136 17L143 24L136 31" stroke="white" stroke-width="2" stroke-linecap="round" stroke-linejoin="round"/>
</g>
<path d="M4 0.5H168C169.933 0.5 171.5 2.067 171.5 4V44C171.5 45.933 169.933 47.5 168 47.5H4C2.067 47.5 0.5 45.933 0.5 44V4C0.5 2.067 2.067 0.5 4 0.5Z" stroke="#00157E"/>
<defs>
<clipPath id="clip0_327_1234217">
<path d="M0 4C0 1.79086 1.79086 0 4 0H168C170.209 0 172 1.79086 172 4V44C172 46.2091 170.209 48 168 48H4C1.79086 48 0 46.2091 0 44V4Z" fill="white"/>
</clipPath>
</defs>
</svg>
