<svg width="555" height="188" viewBox="0 0 555 188" fill="none" xmlns="http://www.w3.org/2000/svg">
<path d="M0 8C0 3.58172 3.58172 0 8 0H546.667C551.085 0 554.667 3.58172 554.667 8V180.001C554.667 184.419 551.085 188.001 546.667 188.001H8C3.58172 188.001 0 184.419 0 180.001V8Z" fill="white"/>
<path d="M230.481 33.941L227.921 34.101L227.681 26.161H227.661L225.021 34.001H222.461L219.941 26.201H219.921L219.601 34.001H217.281L218.161 21.961H221.061L223.881 30.461H223.901L226.741 21.961H229.661L230.481 33.941ZM240.733 29.241C240.733 32.081 239.253 34.221 236.473 34.221C233.473 34.221 232.213 32.101 232.213 29.241C232.213 26.401 233.693 24.321 236.473 24.321C239.473 24.321 240.733 26.381 240.733 29.241ZM238.213 29.261C238.213 27.321 237.573 26.541 236.473 26.541C235.373 26.541 234.733 27.281 234.733 29.221C234.733 31.141 235.373 32.001 236.473 32.001C237.573 32.001 238.213 31.181 238.213 29.261ZM247.855 26.621C246.695 26.621 245.935 26.821 245.255 27.581V34.001H242.715V27.001L242.395 24.661L244.835 24.341L244.995 25.681H245.015C245.555 24.961 246.375 24.301 247.855 24.301V26.621ZM256.302 33.441C255.242 33.981 254.362 34.241 253.082 34.241C249.922 34.241 248.522 32.321 248.522 29.121C248.522 26.261 250.222 24.321 252.742 24.321C255.382 24.321 256.242 26.141 256.242 28.421V29.541H251.002C251.082 31.221 251.882 32.021 253.402 32.021C254.302 32.021 254.802 31.801 255.522 31.501L256.302 33.441ZM254.022 28.001C254.022 27.021 253.602 26.361 252.662 26.361C251.662 26.361 251.162 27.121 251.042 28.001H254.022ZM268.022 20.561L267.422 22.721C267.122 22.621 266.902 22.561 266.582 22.561C265.782 22.561 265.262 23.001 265.262 23.941V24.541H267.662V26.541H265.262V34.001H262.742V26.541H261.282V24.861L262.742 24.521V23.821C262.742 21.681 264.282 20.301 266.382 20.301C267.062 20.301 267.522 20.421 268.022 20.561ZM277.46 33.861L275.02 34.181L274.88 33.161H274.86C274.3 33.701 273.36 34.241 272.1 34.241C270.48 34.241 269.16 33.281 269.16 31.161V27.001L268.84 24.661L271.7 24.341V30.541C271.7 31.561 272.12 32.021 273 32.021C273.66 32.021 274.22 31.721 274.6 31.341V27.001L274.28 24.661L277.14 24.341V31.521L277.46 33.861ZM287.668 34.001H285.128V28.001C285.128 26.981 284.708 26.521 283.808 26.521C283.148 26.521 282.588 26.841 282.228 27.201V34.001H279.688V27.001L279.368 24.661L281.808 24.341L281.928 25.381H281.948C282.508 24.821 283.448 24.301 284.708 24.301C286.348 24.301 287.668 25.241 287.668 27.381V34.001ZM296.776 24.741L296.016 26.961C295.516 26.741 295.056 26.561 294.376 26.561C293.116 26.561 292.176 27.461 292.176 29.161C292.176 31.081 293.036 31.921 294.256 31.921C294.976 31.921 295.356 31.761 295.956 31.521L296.716 33.601C295.836 34.001 295.016 34.241 293.936 34.241C291.096 34.241 289.596 32.321 289.596 29.301C289.596 25.821 291.956 24.301 294.376 24.301C295.316 24.301 295.956 24.421 296.776 24.741ZM304.59 33.541C303.77 33.981 303.15 34.221 301.89 34.221C300.01 34.221 299.09 32.961 299.09 31.081V26.541H297.63V24.861L299.09 24.521V22.881L301.61 22.581V24.541H304.21V26.541H301.61V30.401C301.61 31.661 301.93 31.981 302.75 31.981C303.21 31.981 303.47 31.861 303.91 31.661L304.59 33.541ZM308.771 34.001H306.231V27.001L305.911 24.661L308.771 24.341V34.001ZM309.011 21.881C309.011 22.721 308.351 23.401 307.511 23.401C306.671 23.401 306.011 22.721 306.011 21.881C306.011 21.061 306.671 20.381 307.511 20.381C308.351 20.381 309.011 21.061 309.011 21.881ZM319.249 29.241C319.249 32.081 317.769 34.221 314.989 34.221C311.989 34.221 310.729 32.101 310.729 29.241C310.729 26.401 312.209 24.321 314.989 24.321C317.989 24.321 319.249 26.381 319.249 29.241ZM316.729 29.261C316.729 27.321 316.089 26.541 314.989 26.541C313.889 26.541 313.249 27.281 313.249 29.221C313.249 31.141 313.889 32.001 314.989 32.001C316.089 32.001 316.729 31.181 316.729 29.261ZM329.211 34.001H326.671V28.001C326.671 26.981 326.251 26.521 325.351 26.521C324.691 26.521 324.131 26.841 323.771 27.201V34.001H321.231V27.001L320.911 24.661L323.351 24.341L323.471 25.381H323.491C324.051 24.821 324.991 24.301 326.251 24.301C327.891 24.301 329.211 25.241 329.211 27.381V34.001ZM337.739 30.961C337.739 32.781 336.279 34.221 334.079 34.221C332.939 34.221 331.919 34.041 331.059 33.641L331.719 31.561C332.439 31.861 333.139 32.161 333.939 32.161C334.799 32.161 335.219 31.861 335.219 31.361C335.219 30.901 334.999 30.721 334.479 30.501L332.999 29.881C332.119 29.521 331.159 28.861 331.159 27.301C331.159 25.341 332.819 24.301 334.799 24.301C335.919 24.301 336.679 24.481 337.579 24.861L336.799 26.901C336.159 26.641 335.539 26.381 334.819 26.381C334.039 26.381 333.599 26.601 333.599 27.121C333.599 27.621 333.999 27.801 334.359 27.941L335.899 28.561C337.099 29.041 337.739 29.801 337.739 30.961Z" fill="#00157E"/>
<path d="M533 21.9302L521 33.9302" stroke="#00157E" stroke-width="2" stroke-linecap="round" stroke-linejoin="round"/>
<path d="M521 21.9302L533 33.9302" stroke="#00157E" stroke-width="2" stroke-linecap="round" stroke-linejoin="round"/>
<mask id="path-6-inside-1_456_90687" fill="white">
<path d="M0 56.001H554.667V96.001H0V56.001Z"/>
</mask>
<path d="M554.667 96.001V95.001H0V96.001V97.001H554.667V96.001Z" fill="#00157E" fill-opacity="0.1" mask="url(#path-6-inside-1_456_90687)"/>
<path d="M23 76.001L18 81.001L23 86.001M18 81.001H30" stroke="#00157E" stroke-width="2" stroke-linecap="round" stroke-linejoin="round"/>
<path d="M33 66.001L38 71.001L33 76.001M38 71.001H26" stroke="#00157E" stroke-width="2" stroke-linecap="round" stroke-linejoin="round"/>
<path d="M58.8126 81.001H57.4686V71.369H58.8126V81.001ZM67.1006 81.001H65.8206V76.137C65.8206 75.033 65.4046 74.473 64.3966 74.473C63.6766 74.473 63.1646 74.777 62.7006 75.193V81.001H61.4206V75.241L61.1966 73.593L62.4606 73.385L62.5886 74.265H62.6046C63.1646 73.721 63.9006 73.337 64.8286 73.337C66.0926 73.337 67.1006 74.153 67.1006 75.689V81.001ZM73.3678 80.697C72.9038 80.953 72.4718 81.161 71.6558 81.161C70.5038 81.161 69.7678 80.409 69.7678 79.129V74.553H68.6638V73.705L69.7678 73.481V72.233L71.0318 72.073V73.513H73.1278V74.553H71.0318V78.697C71.0318 79.705 71.2878 80.025 72.0238 80.025C72.4238 80.025 72.7278 79.865 72.9518 79.721L73.3678 80.697ZM80.0581 80.601C79.3381 81.001 78.6021 81.177 77.6901 81.177C75.4821 81.177 74.3461 79.689 74.3461 77.209C74.3461 74.889 75.5621 73.337 77.4501 73.337C79.2581 73.337 79.9941 74.537 79.9941 76.185V77.081H75.5941C75.6101 79.081 76.3301 80.041 77.9621 80.041C78.5861 80.041 79.0661 79.865 79.6101 79.593L80.0581 80.601ZM78.7941 76.185C78.7941 75.065 78.3781 74.361 77.3861 74.361C76.4261 74.361 75.8181 75.113 75.6581 76.185H78.7941ZM85.3275 74.617C84.4635 74.617 83.8235 74.841 83.2475 75.369V81.001H81.9675V75.241L81.7435 73.593L83.0075 73.385L83.1355 74.409H83.1515C83.6635 73.833 84.3355 73.353 85.3275 73.353V74.617ZM92.5694 81.001H91.2894V76.137C91.2894 75.033 90.8734 74.473 89.8654 74.473C89.1454 74.473 88.6334 74.777 88.1694 75.193V81.001H86.8894V75.241L86.6654 73.593L87.9294 73.385L88.0574 74.265H88.0734C88.6334 73.721 89.3694 73.337 90.2974 73.337C91.5614 73.337 92.5694 74.153 92.5694 75.689V81.001ZM100.005 80.921L98.7245 81.129L98.6125 80.249H98.5965C98.0525 80.761 97.4605 81.193 96.5645 81.193C95.3165 81.193 94.5805 80.441 94.5805 79.257C94.5805 77.913 95.6365 77.257 97.1565 77.097L98.5005 76.953V76.281C98.5005 75.241 98.1805 74.505 96.9485 74.505C96.3245 74.505 95.8605 74.697 95.3965 74.937L94.9325 73.993C95.6045 73.593 96.2925 73.337 97.2525 73.337C98.7565 73.337 99.7645 74.217 99.7645 75.705V79.273L100.005 80.921ZM98.5005 79.449V77.817L97.3325 77.977C96.3725 78.105 95.8445 78.409 95.8445 79.097C95.8445 79.721 96.2285 80.137 96.8685 80.137C97.6205 80.137 98.0845 79.817 98.5005 79.449ZM103.591 81.001H102.311V71.929L102.087 70.281L103.591 70.073V81.001ZM114.395 80.921L113.115 81.129L113.003 80.249H112.987C112.443 80.761 111.851 81.193 110.955 81.193C109.707 81.193 108.971 80.441 108.971 79.257C108.971 77.913 110.027 77.257 111.547 77.097L112.891 76.953V76.281C112.891 75.241 112.571 74.505 111.339 74.505C110.715 74.505 110.251 74.697 109.787 74.937L109.323 73.993C109.995 73.593 110.683 73.337 111.643 73.337C113.147 73.337 114.155 74.217 114.155 75.705V79.273L114.395 80.921ZM112.891 79.449V77.817L111.723 77.977C110.763 78.105 110.235 78.409 110.235 79.097C110.235 79.721 110.619 80.137 111.259 80.137C112.011 80.137 112.475 79.817 112.891 79.449ZM121.565 73.657L121.165 74.809C120.749 74.649 120.285 74.505 119.757 74.505C118.349 74.505 117.501 75.561 117.501 77.145C117.501 79.145 118.285 80.057 119.725 80.057C120.237 80.057 120.653 79.881 121.069 79.705L121.501 80.745C120.877 81.033 120.189 81.177 119.469 81.177C117.325 81.177 116.221 79.641 116.221 77.353C116.221 74.601 117.917 73.337 119.821 73.337C120.477 73.337 121.037 73.449 121.565 73.657ZM127.878 73.657L127.478 74.809C127.062 74.649 126.598 74.505 126.07 74.505C124.662 74.505 123.814 75.561 123.814 77.145C123.814 79.145 124.598 80.057 126.038 80.057C126.55 80.057 126.966 79.881 127.382 79.705L127.814 80.745C127.19 81.033 126.502 81.177 125.782 81.177C123.638 81.177 122.534 79.641 122.534 77.353C122.534 74.601 124.23 73.337 126.134 73.337C126.79 73.337 127.35 73.449 127.878 73.657ZM135.246 77.257C135.246 79.449 134.206 81.177 132.046 81.177C129.678 81.177 128.846 79.497 128.846 77.257C128.846 75.065 129.886 73.337 132.046 73.337C134.414 73.337 135.246 75.017 135.246 77.257ZM133.934 77.289C133.934 75.433 133.31 74.457 132.046 74.457C130.814 74.457 130.158 75.321 130.158 77.209C130.158 79.065 130.782 80.057 132.046 80.057C133.278 80.057 133.934 79.177 133.934 77.289ZM143.184 80.921L141.92 81.129L141.792 80.265H141.776C141.216 80.793 140.48 81.177 139.552 81.177C138.288 81.177 137.28 80.361 137.28 78.825V75.241L137.056 73.593L138.56 73.385V78.377C138.56 79.481 138.976 80.057 139.984 80.057C140.704 80.057 141.216 79.753 141.68 79.321V75.241L141.456 73.593L142.96 73.385V79.273L143.184 80.921ZM151.194 81.001H149.914V76.137C149.914 75.033 149.498 74.473 148.49 74.473C147.77 74.473 147.258 74.777 146.794 75.193V81.001H145.514V75.241L145.29 73.593L146.554 73.385L146.682 74.265H146.698C147.258 73.721 147.994 73.337 148.922 73.337C150.186 73.337 151.194 74.153 151.194 75.689V81.001ZM157.462 80.697C156.998 80.953 156.566 81.161 155.75 81.161C154.598 81.161 153.862 80.409 153.862 79.129V74.553H152.758V73.705L153.862 73.481V72.233L155.126 72.073V73.513H157.222V74.553H155.126V78.697C155.126 79.705 155.382 80.025 156.118 80.025C156.518 80.025 156.822 79.865 157.046 79.721L157.462 80.697ZM166.274 80.697C165.81 80.953 165.378 81.161 164.562 81.161C163.41 81.161 162.674 80.409 162.674 79.129V74.553H161.57V73.705L162.674 73.481V72.233L163.938 72.073V73.513H166.034V74.553H163.938V78.697C163.938 79.705 164.194 80.025 164.93 80.025C165.33 80.025 165.634 79.865 165.858 79.721L166.274 80.697ZM171.343 74.617C170.479 74.617 169.839 74.841 169.263 75.369V81.001H167.983V75.241L167.759 73.593L169.023 73.385L169.151 74.409H169.167C169.679 73.833 170.351 73.353 171.343 73.353V74.617ZM177.583 80.921L176.303 81.129L176.191 80.249H176.175C175.631 80.761 175.039 81.193 174.143 81.193C172.895 81.193 172.159 80.441 172.159 79.257C172.159 77.913 173.215 77.257 174.735 77.097L176.079 76.953V76.281C176.079 75.241 175.759 74.505 174.527 74.505C173.903 74.505 173.439 74.697 172.975 74.937L172.511 73.993C173.183 73.593 173.871 73.337 174.831 73.337C176.335 73.337 177.343 74.217 177.343 75.705V79.273L177.583 80.921ZM176.079 79.449V77.817L174.911 77.977C173.951 78.105 173.423 78.409 173.423 79.097C173.423 79.721 173.807 80.137 174.447 80.137C175.199 80.137 175.663 79.817 176.079 79.449ZM185.601 81.001H184.321V76.137C184.321 75.033 183.905 74.473 182.897 74.473C182.177 74.473 181.665 74.777 181.201 75.193V81.001H179.921V75.241L179.697 73.593L180.961 73.385L181.089 74.265H181.105C181.665 73.721 182.401 73.337 183.329 73.337C184.593 73.337 185.601 74.153 185.601 75.689V81.001ZM192.46 78.825C192.46 80.185 191.388 81.161 189.788 81.161C189.02 81.161 188.252 81.049 187.644 80.761L188.028 79.641C188.556 79.881 189.148 80.073 189.724 80.073C190.588 80.073 191.164 79.737 191.164 79.033C191.164 78.489 190.876 78.265 190.38 78.041L188.988 77.401C188.492 77.177 187.596 76.729 187.596 75.433C187.596 74.009 188.844 73.337 190.204 73.337C191.02 73.337 191.596 73.465 192.236 73.737L191.804 74.841C191.292 74.617 190.796 74.457 190.188 74.457C189.372 74.457 188.844 74.713 188.844 75.353C188.844 75.913 189.324 76.137 189.628 76.281L191.052 76.953C192.044 77.417 192.46 78.009 192.46 78.825ZM198.179 70.233L197.891 71.321C197.667 71.241 197.459 71.193 197.139 71.193C196.419 71.193 195.891 71.657 195.891 72.601V73.513H197.955V74.553H195.891V81.001H194.627V74.553H193.523V73.705L194.627 73.481V72.697C194.627 71.081 195.715 70.089 197.203 70.089C197.603 70.089 197.891 70.153 198.179 70.233ZM204.308 80.601C203.588 81.001 202.852 81.177 201.94 81.177C199.732 81.177 198.596 79.689 198.596 77.209C198.596 74.889 199.812 73.337 201.7 73.337C203.508 73.337 204.244 74.537 204.244 76.185V77.081H199.844C199.86 79.081 200.58 80.041 202.212 80.041C202.836 80.041 203.316 79.865 203.86 79.593L204.308 80.601ZM203.044 76.185C203.044 75.065 202.628 74.361 201.636 74.361C200.676 74.361 200.068 75.113 199.908 76.185H203.044ZM209.578 74.617C208.714 74.617 208.074 74.841 207.498 75.369V81.001H206.218V75.241L205.993 73.593L207.258 73.385L207.386 74.409H207.402C207.914 73.833 208.586 73.353 209.578 73.353V74.617Z" fill="#00157E"/>
<mask id="path-11-inside-2_456_90687" fill="white">
<path d="M0 96.001H554.667V136.001H0V96.001Z"/>
</mask>
<path d="M554.667 136.001V135.001H0V136.001V137.001H554.667V136.001Z" fill="#00157E" fill-opacity="0.1" mask="url(#path-11-inside-2_456_90687)"/>
<path d="M32 107.001L37 112.001L24 125.001H19V120.001L32 107.001Z" stroke="#00157E" stroke-width="2" stroke-linecap="round" stroke-linejoin="round"/>
<path d="M64.0458 120.505C63.1498 120.969 62.2378 121.177 61.0218 121.177C58.6698 121.177 56.8618 119.593 56.8618 116.393C56.8618 112.985 58.8778 111.193 61.4698 111.193C62.5418 111.193 63.1978 111.353 64.0138 111.705L63.5018 112.873C62.8938 112.601 62.3178 112.393 61.4538 112.393C59.7738 112.393 58.2378 113.689 58.2378 116.057C58.2378 118.697 59.2138 119.993 61.5498 119.993C62.3178 119.993 63.0218 119.689 63.5978 119.433L64.0458 120.505ZM71.3026 121.001H70.0386V116.137C70.0386 115.049 69.6066 114.489 68.5826 114.489C67.8466 114.489 67.3506 114.809 66.9186 115.193V121.001H65.6386V111.929L65.4146 110.281L66.9186 110.073V114.169H66.9346C67.4306 113.737 68.1186 113.337 69.0466 113.337C70.3266 113.337 71.3026 114.137 71.3026 115.689V121.001ZM78.7545 120.921L77.4745 121.129L77.3625 120.249H77.3465C76.8025 120.761 76.2105 121.193 75.3145 121.193C74.0665 121.193 73.3305 120.441 73.3305 119.257C73.3305 117.913 74.3865 117.257 75.9065 117.097L77.2505 116.953V116.281C77.2505 115.241 76.9305 114.505 75.6985 114.505C75.0745 114.505 74.6105 114.697 74.1465 114.937L73.6825 113.993C74.3545 113.593 75.0425 113.337 76.0025 113.337C77.5065 113.337 78.5145 114.217 78.5145 115.705V119.273L78.7545 120.921ZM77.2505 119.449V117.817L76.0825 117.977C75.1225 118.105 74.5945 118.409 74.5945 119.097C74.5945 119.721 74.9785 120.137 75.6185 120.137C76.3705 120.137 76.8345 119.817 77.2505 119.449ZM86.7725 121.001H85.4925V116.137C85.4925 115.033 85.0765 114.473 84.0685 114.473C83.3485 114.473 82.8365 114.777 82.3725 115.193V121.001H81.0925V115.241L80.8685 113.593L82.1325 113.385L82.2605 114.265H82.2765C82.8365 113.721 83.5725 113.337 84.5005 113.337C85.7645 113.337 86.7725 114.153 86.7725 115.689V121.001ZM95.4076 114.457H93.9036C94.1276 114.841 94.2556 115.289 94.2556 115.833C94.2556 117.353 93.1516 118.377 91.6156 118.377C91.3116 118.377 91.0236 118.329 90.7676 118.265C90.7676 118.265 90.2556 118.553 90.2556 119.129C90.2556 119.625 90.6236 119.721 91.1356 119.721H93.2796C94.5916 119.721 95.3596 120.121 95.3596 121.289C95.3596 122.761 93.8556 124.425 91.1196 124.425C89.5516 124.425 88.5916 123.657 88.5916 122.345C88.5916 121.113 89.5996 120.505 89.5996 120.505C89.2796 120.297 89.0716 119.977 89.0716 119.449C89.0716 118.521 89.8716 118.057 90.0316 117.977C89.3276 117.545 88.9436 116.809 88.9436 115.833C88.9436 114.313 90.0636 113.305 91.6156 113.305C92.1916 113.305 92.7196 113.433 93.1356 113.689L95.4076 113.337V114.457ZM94.2396 121.481C94.2396 120.937 93.7756 120.825 92.9916 120.825H90.9756C90.7516 120.825 90.5436 120.809 90.3356 120.777C90.3356 120.777 89.7276 121.257 89.7276 122.057C89.7276 122.921 90.2556 123.385 91.4076 123.385C93.2476 123.385 94.2396 122.297 94.2396 121.481ZM93.0556 115.833C93.0556 114.793 92.4796 114.265 91.6156 114.265C90.7836 114.265 90.1436 114.825 90.1436 115.833C90.1436 116.889 90.7356 117.417 91.6156 117.417C92.4316 117.417 93.0556 116.857 93.0556 115.833ZM102.089 120.601C101.369 121.001 100.633 121.177 99.7214 121.177C97.5134 121.177 96.3774 119.689 96.3774 117.209C96.3774 114.889 97.5934 113.337 99.4814 113.337C101.289 113.337 102.025 114.537 102.025 116.185V117.081H97.6254C97.6414 119.081 98.3614 120.041 99.9934 120.041C100.617 120.041 101.097 119.865 101.641 119.593L102.089 120.601ZM100.825 116.185C100.825 115.065 100.409 114.361 99.4174 114.361C98.4574 114.361 97.8494 115.113 97.6894 116.185H100.825ZM112.19 113.657L111.79 114.809C111.374 114.649 110.91 114.505 110.382 114.505C108.974 114.505 108.126 115.561 108.126 117.145C108.126 119.145 108.91 120.057 110.35 120.057C110.862 120.057 111.278 119.881 111.694 119.705L112.126 120.745C111.502 121.033 110.814 121.177 110.094 121.177C107.95 121.177 106.846 119.641 106.846 117.353C106.846 114.601 108.542 113.337 110.446 113.337C111.102 113.337 111.662 113.449 112.19 113.657ZM118.864 120.921L117.584 121.129L117.472 120.249H117.456C116.912 120.761 116.32 121.193 115.424 121.193C114.176 121.193 113.44 120.441 113.44 119.257C113.44 117.913 114.496 117.257 116.016 117.097L117.36 116.953V116.281C117.36 115.241 117.04 114.505 115.808 114.505C115.184 114.505 114.72 114.697 114.256 114.937L113.792 113.993C114.464 113.593 115.152 113.337 116.112 113.337C117.616 113.337 118.624 114.217 118.624 115.705V119.273L118.864 120.921ZM117.36 119.449V117.817L116.192 117.977C115.232 118.105 114.704 118.409 114.704 119.097C114.704 119.721 115.088 120.137 115.728 120.137C116.48 120.137 116.944 119.817 117.36 119.449ZM124.946 120.697C124.482 120.953 124.05 121.161 123.234 121.161C122.082 121.161 121.346 120.409 121.346 119.129V114.553H120.242V113.705L121.346 113.481V112.233L122.61 112.073V113.513H124.706V114.553H122.61V118.697C122.61 119.705 122.866 120.025 123.602 120.025C124.002 120.025 124.306 119.865 124.53 119.721L124.946 120.697ZM131.636 120.601C130.916 121.001 130.18 121.177 129.268 121.177C127.06 121.177 125.924 119.689 125.924 117.209C125.924 114.889 127.14 113.337 129.028 113.337C130.836 113.337 131.572 114.537 131.572 116.185V117.081H127.172C127.188 119.081 127.908 120.041 129.54 120.041C130.164 120.041 130.644 119.865 131.188 119.593L131.636 120.601ZM130.372 116.185C130.372 115.065 129.956 114.361 128.964 114.361C128.004 114.361 127.396 115.113 127.236 116.185H130.372ZM139.658 114.457H138.154C138.378 114.841 138.506 115.289 138.506 115.833C138.506 117.353 137.402 118.377 135.866 118.377C135.562 118.377 135.274 118.329 135.018 118.265C135.018 118.265 134.506 118.553 134.506 119.129C134.506 119.625 134.874 119.721 135.386 119.721H137.53C138.842 119.721 139.61 120.121 139.61 121.289C139.61 122.761 138.106 124.425 135.37 124.425C133.802 124.425 132.842 123.657 132.842 122.345C132.842 121.113 133.85 120.505 133.85 120.505C133.53 120.297 133.322 119.977 133.322 119.449C133.322 118.521 134.122 118.057 134.282 117.977C133.578 117.545 133.194 116.809 133.194 115.833C133.194 114.313 134.314 113.305 135.866 113.305C136.442 113.305 136.97 113.433 137.386 113.689L139.658 113.337V114.457ZM138.49 121.481C138.49 120.937 138.026 120.825 137.242 120.825H135.226C135.002 120.825 134.794 120.809 134.586 120.777C134.586 120.777 133.978 121.257 133.978 122.057C133.978 122.921 134.506 123.385 135.658 123.385C137.498 123.385 138.49 122.297 138.49 121.481ZM137.306 115.833C137.306 114.793 136.73 114.265 135.866 114.265C135.034 114.265 134.394 114.825 134.394 115.833C134.394 116.889 134.986 117.417 135.866 117.417C136.682 117.417 137.306 116.857 137.306 115.833ZM147.027 117.257C147.027 119.449 145.987 121.177 143.827 121.177C141.459 121.177 140.627 119.497 140.627 117.257C140.627 115.065 141.667 113.337 143.827 113.337C146.195 113.337 147.027 115.017 147.027 117.257ZM145.715 117.289C145.715 115.433 145.091 114.457 143.827 114.457C142.595 114.457 141.939 115.321 141.939 117.209C141.939 119.065 142.563 120.057 143.827 120.057C145.059 120.057 145.715 119.177 145.715 117.289ZM152.421 114.617C151.557 114.617 150.917 114.841 150.341 115.369V121.001H149.061V115.241L148.837 113.593L150.101 113.385L150.229 114.409H150.245C150.757 113.833 151.429 113.353 152.421 113.353V114.617ZM159.642 113.513L157.146 120.313C156.346 122.521 155.274 123.849 152.665 124.377L152.425 123.337C154.33 122.953 155.338 121.801 155.834 120.553L153.146 113.625L154.41 113.289L156.474 118.857H156.49L158.378 113.513H159.642Z" fill="#00157E"/>
<path d="M17 156.001C17 156.001 21 148.001 28 148.001C35 148.001 39 156.001 39 156.001C39 156.001 35 164.001 28 164.001C21 164.001 17 156.001 17 156.001Z" stroke="#00157E" stroke-width="2" stroke-linecap="round" stroke-linejoin="round"/>
<path d="M28 159.001C29.6569 159.001 31 157.658 31 156.001C31 154.344 29.6569 153.001 28 153.001C26.3431 153.001 25 154.344 25 156.001C25 157.658 26.3431 159.001 28 159.001Z" stroke="#00157E" stroke-width="2" stroke-linecap="round" stroke-linejoin="round"/>
<path d="M62.9346 158.297C62.9346 159.977 61.7666 161.177 59.8306 161.177C58.8386 161.177 57.9586 160.969 57.2066 160.649L57.6226 159.481C58.2466 159.769 58.9826 160.009 59.7346 160.009C60.9026 160.009 61.6546 159.561 61.6546 158.505C61.6546 157.721 61.0786 157.337 60.3106 156.969L58.8066 156.249C57.7986 155.769 57.1106 155.145 57.1106 153.785C57.1106 152.137 58.5506 151.193 60.2146 151.193C61.1106 151.193 61.6866 151.337 62.5186 151.641L62.0706 152.777C61.5586 152.537 60.9986 152.313 60.2946 152.313C59.3026 152.313 58.4066 152.713 58.4066 153.737C58.4066 154.425 58.8226 154.761 59.4626 155.065L60.9986 155.817C62.2146 156.409 62.9346 157.065 62.9346 158.297ZM70.5058 161.001H69.2418V156.137C69.2418 155.049 68.8098 154.489 67.7858 154.489C67.0498 154.489 66.5538 154.809 66.1218 155.193V161.001H64.8418V151.929L64.6178 150.281L66.1218 150.073V154.169H66.1378C66.6338 153.737 67.3218 153.337 68.2498 153.337C69.5298 153.337 70.5058 154.137 70.5058 155.689V161.001ZM78.9336 157.257C78.9336 159.449 77.8936 161.177 75.7336 161.177C73.3656 161.177 72.5336 159.497 72.5336 157.257C72.5336 155.065 73.5736 153.337 75.7336 153.337C78.1016 153.337 78.9336 155.017 78.9336 157.257ZM77.6216 157.289C77.6216 155.433 76.9976 154.457 75.7336 154.457C74.5016 154.457 73.8456 155.321 73.8456 157.209C73.8456 159.065 74.4696 160.057 75.7336 160.057C76.9656 160.057 77.6216 159.177 77.6216 157.289ZM89.9435 153.513L87.8795 160.969L86.6955 161.033L84.8715 155.353H84.8555L83.0155 160.985L81.8315 161.033L79.9595 153.593L81.1755 153.289L82.5195 159.129H82.5355L84.2795 153.513H85.5275L87.2875 159.129H87.3035L88.6955 153.513H89.9435ZM99.8951 160.921L98.6151 161.129L98.5031 160.249H98.4871C97.9431 160.761 97.3511 161.193 96.4551 161.193C95.2071 161.193 94.4711 160.441 94.4711 159.257C94.4711 157.913 95.5271 157.257 97.0471 157.097L98.3911 156.953V156.281C98.3911 155.241 98.0711 154.505 96.8391 154.505C96.2151 154.505 95.7511 154.697 95.2871 154.937L94.8231 153.993C95.4951 153.593 96.1831 153.337 97.1431 153.337C98.6471 153.337 99.6551 154.217 99.6551 155.705V159.273L99.8951 160.921ZM98.3911 159.449V157.817L97.2231 157.977C96.2631 158.105 95.7351 158.409 95.7351 159.097C95.7351 159.721 96.1191 160.137 96.7591 160.137C97.5111 160.137 97.9751 159.817 98.3911 159.449ZM107.065 153.657L106.665 154.809C106.249 154.649 105.785 154.505 105.257 154.505C103.849 154.505 103.001 155.561 103.001 157.145C103.001 159.145 103.785 160.057 105.225 160.057C105.737 160.057 106.153 159.881 106.569 159.705L107.001 160.745C106.377 161.033 105.689 161.177 104.969 161.177C102.825 161.177 101.721 159.641 101.721 157.353C101.721 154.601 103.417 153.337 105.321 153.337C105.977 153.337 106.537 153.449 107.065 153.657ZM113.378 153.657L112.978 154.809C112.562 154.649 112.098 154.505 111.57 154.505C110.162 154.505 109.314 155.561 109.314 157.145C109.314 159.145 110.098 160.057 111.538 160.057C112.05 160.057 112.466 159.881 112.882 159.705L113.314 160.745C112.69 161.033 112.002 161.177 111.282 161.177C109.138 161.177 108.034 159.641 108.034 157.353C108.034 154.601 109.73 153.337 111.634 153.337C112.29 153.337 112.85 153.449 113.378 153.657ZM120.746 157.257C120.746 159.449 119.706 161.177 117.546 161.177C115.178 161.177 114.346 159.497 114.346 157.257C114.346 155.065 115.386 153.337 117.546 153.337C119.914 153.337 120.746 155.017 120.746 157.257ZM119.434 157.289C119.434 155.433 118.81 154.457 117.546 154.457C116.314 154.457 115.658 155.321 115.658 157.209C115.658 159.065 116.282 160.057 117.546 160.057C118.778 160.057 119.434 159.177 119.434 157.289ZM128.684 160.921L127.42 161.129L127.292 160.265H127.276C126.716 160.793 125.98 161.177 125.052 161.177C123.788 161.177 122.78 160.361 122.78 158.825V155.241L122.556 153.593L124.06 153.385V158.377C124.06 159.481 124.476 160.057 125.484 160.057C126.204 160.057 126.716 159.753 127.18 159.321V155.241L126.956 153.593L128.46 153.385V159.273L128.684 160.921ZM136.694 161.001H135.414V156.137C135.414 155.033 134.998 154.473 133.99 154.473C133.27 154.473 132.758 154.777 132.294 155.193V161.001H131.014V155.241L130.79 153.593L132.054 153.385L132.182 154.265H132.198C132.758 153.721 133.494 153.337 134.422 153.337C135.686 153.337 136.694 154.153 136.694 155.689V161.001ZM142.962 160.697C142.498 160.953 142.066 161.161 141.25 161.161C140.098 161.161 139.362 160.409 139.362 159.129V154.553H138.258V153.705L139.362 153.481V152.233L140.626 152.073V153.513H142.722V154.553H140.626V158.697C140.626 159.705 140.882 160.025 141.618 160.025C142.018 160.025 142.322 159.865 142.546 159.721L142.962 160.697ZM149.342 161.001H148.062V155.241L147.838 153.593L149.342 153.385V161.001ZM149.598 151.561C149.598 152.073 149.198 152.457 148.718 152.457C148.222 152.457 147.806 152.073 147.806 151.561C147.806 151.049 148.222 150.649 148.718 150.649C149.198 150.649 149.598 151.049 149.598 151.561ZM157.585 161.001H156.305V156.137C156.305 155.033 155.889 154.473 154.881 154.473C154.161 154.473 153.649 154.777 153.185 155.193V161.001H151.905V155.241L151.681 153.593L152.945 153.385L153.073 154.265H153.089C153.649 153.721 154.385 153.337 155.313 153.337C156.577 153.337 157.585 154.153 157.585 155.689V161.001ZM163.804 150.233L163.516 151.321C163.292 151.241 163.084 151.193 162.764 151.193C162.044 151.193 161.516 151.657 161.516 152.601V153.513H163.58V154.553H161.516V161.001H160.252V154.553H159.148V153.705L160.252 153.481V152.697C160.252 151.081 161.34 150.089 162.828 150.089C163.228 150.089 163.516 150.153 163.804 150.233ZM170.621 157.257C170.621 159.449 169.581 161.177 167.421 161.177C165.053 161.177 164.221 159.497 164.221 157.257C164.221 155.065 165.261 153.337 167.421 153.337C169.789 153.337 170.621 155.017 170.621 157.257ZM169.309 157.289C169.309 155.433 168.685 154.457 167.421 154.457C166.189 154.457 165.533 155.321 165.533 157.209C165.533 159.065 166.157 160.057 167.421 160.057C168.653 160.057 169.309 159.177 169.309 157.289ZM176.015 154.617C175.151 154.617 174.511 154.841 173.935 155.369V161.001H172.655V155.241L172.431 153.593L173.695 153.385L173.823 154.409H173.839C174.351 153.833 175.023 153.353 176.015 153.353V154.617ZM187.641 161.001H186.377V156.137C186.377 155.033 185.961 154.473 184.937 154.473C184.217 154.473 183.609 154.825 183.209 155.225C183.209 155.225 183.257 155.497 183.257 155.785V161.001H181.977V156.137C181.977 155.033 181.561 154.473 180.553 154.473C179.833 154.473 179.321 154.761 178.857 155.193V161.001H177.577V155.241L177.353 153.593L178.617 153.385L178.745 154.265H178.761C179.321 153.721 180.057 153.337 180.985 153.337C181.849 153.337 182.569 153.721 182.953 154.409H182.969C183.561 153.817 184.329 153.337 185.385 153.337C186.665 153.337 187.641 154.153 187.641 155.689V161.001ZM195.098 160.921L193.818 161.129L193.706 160.249H193.69C193.146 160.761 192.554 161.193 191.658 161.193C190.41 161.193 189.674 160.441 189.674 159.257C189.674 157.913 190.73 157.257 192.25 157.097L193.594 156.953V156.281C193.594 155.241 193.274 154.505 192.042 154.505C191.418 154.505 190.954 154.697 190.49 154.937L190.026 153.993C190.698 153.593 191.386 153.337 192.346 153.337C193.85 153.337 194.858 154.217 194.858 155.705V159.273L195.098 160.921ZM193.594 159.449V157.817L192.426 157.977C191.466 158.105 190.938 158.409 190.938 159.097C190.938 159.721 191.322 160.137 191.962 160.137C192.714 160.137 193.178 159.817 193.594 159.449ZM201.18 160.697C200.716 160.953 200.284 161.161 199.468 161.161C198.316 161.161 197.58 160.409 197.58 159.129V154.553H196.476V153.705L197.58 153.481V152.233L198.844 152.073V153.513H200.94V154.553H198.844V158.697C198.844 159.705 199.1 160.025 199.836 160.025C200.236 160.025 200.54 159.865 200.764 159.721L201.18 160.697ZM204.201 161.001H202.921V155.241L202.697 153.593L204.201 153.385V161.001ZM204.457 151.561C204.457 152.073 204.057 152.457 203.577 152.457C203.081 152.457 202.665 152.073 202.665 151.561C202.665 151.049 203.081 150.649 203.577 150.649C204.057 150.649 204.457 151.049 204.457 151.561ZM212.652 157.257C212.652 159.449 211.612 161.177 209.452 161.177C207.084 161.177 206.252 159.497 206.252 157.257C206.252 155.065 207.292 153.337 209.452 153.337C211.82 153.337 212.652 155.017 212.652 157.257ZM211.34 157.289C211.34 155.433 210.716 154.457 209.452 154.457C208.22 154.457 207.564 155.321 207.564 157.209C207.564 159.065 208.188 160.057 209.452 160.057C210.684 160.057 211.34 159.177 211.34 157.289ZM220.366 161.001H219.086V156.137C219.086 155.033 218.67 154.473 217.662 154.473C216.942 154.473 216.43 154.777 215.966 155.193V161.001H214.686V155.241L214.462 153.593L215.726 153.385L215.854 154.265H215.87C216.43 153.721 217.166 153.337 218.094 153.337C219.358 153.337 220.366 154.153 220.366 155.689V161.001Z" fill="#00157E"/>
</svg>
