<svg width="375" height="812" viewBox="0 0 375 812" fill="none" xmlns="http://www.w3.org/2000/svg">
<g clip-path="url(#clip0_417_79970)">
<rect width="375" height="812" fill="white"/>
<path d="M343.99 22.17H357.993C359.556 22.17 360.823 23.4371 360.823 25.0001V29.6729C360.823 31.2359 359.556 32.503 357.993 32.503H343.99C342.427 32.503 341.16 31.2359 341.16 29.6729V25.0001C341.16 23.4371 342.427 22.17 343.99 22.17Z" stroke="#00157E"/>
<path d="M362.33 25.3367V29.3367C363.135 28.9979 363.658 28.2098 363.658 27.3367C363.658 26.4635 363.135 25.6754 362.33 25.3367" fill="#00157E"/>
<rect x="342.66" y="23.67" width="16.66" height="7.33333" rx="1.33333" fill="#00157E"/>
<path d="M325.427 30.0606C326.702 28.9817 328.571 28.9817 329.847 30.0606C329.911 30.1186 329.947 30.2007 329.949 30.2871C329.951 30.3736 329.917 30.457 329.855 30.5176L327.858 32.5332C327.8 32.5924 327.72 32.626 327.637 32.626C327.553 32.626 327.474 32.5924 327.415 32.5332L325.417 30.5176C325.355 30.457 325.321 30.3735 325.323 30.2871C325.325 30.2007 325.363 30.1185 325.427 30.0606ZM322.762 27.3711C325.51 24.8151 329.766 24.8151 332.514 27.3711C332.576 27.431 332.611 27.5135 332.612 27.5996C332.613 27.6858 332.579 27.7689 332.519 27.8301L331.364 28.9971C331.245 29.1162 331.053 29.1188 330.931 29.003C330.028 28.1858 328.854 27.7334 327.637 27.7334C326.42 27.7339 325.247 28.1863 324.345 29.003C324.223 29.1188 324.03 29.1162 323.911 28.9971L322.757 27.8301C322.696 27.769 322.662 27.6857 322.663 27.5996C322.664 27.5135 322.7 27.431 322.762 27.3711ZM320.097 24.6895C324.312 20.6503 330.962 20.6501 335.177 24.6895C335.238 24.7494 335.272 24.8316 335.272 24.917C335.273 25.0026 335.239 25.0848 335.179 25.1455L334.022 26.3125C333.903 26.432 333.711 26.4332 333.59 26.3155C331.984 24.7887 329.853 23.9376 327.637 23.9375C325.421 23.9375 323.289 24.7886 321.683 26.3155C321.562 26.4334 321.369 26.4322 321.25 26.3125L320.094 25.1455C320.033 25.0848 319.999 25.0026 320 24.917C320.001 24.8315 320.036 24.7494 320.097 24.6895Z" fill="#00157E"/>
<path d="M299.66 28.667C300.212 28.667 300.66 29.1147 300.66 29.667V31.667C300.66 32.2191 300.212 32.667 299.66 32.667H298.66C298.108 32.667 297.66 32.2191 297.66 31.667V29.667C297.66 29.1147 298.108 28.667 298.66 28.667H299.66ZM304.327 26.667C304.879 26.6672 305.327 27.1148 305.327 27.667V31.667C305.327 32.219 304.879 32.6668 304.327 32.667H303.327C302.775 32.667 302.327 32.2191 302.327 31.667V27.667C302.327 27.1147 302.775 26.667 303.327 26.667H304.327ZM308.993 24.333C309.545 24.333 309.993 24.7809 309.993 25.333V31.667C309.993 32.2191 309.545 32.667 308.993 32.667H307.993C307.441 32.6668 306.993 32.219 306.993 31.667V25.333C306.993 24.781 307.441 24.3332 307.993 24.333H308.993ZM313.66 22C314.212 22 314.66 22.4477 314.66 23V31.667C314.66 32.2191 314.212 32.667 313.66 32.667H312.66C312.108 32.667 311.66 32.2191 311.66 31.667V23C311.66 22.4477 312.108 22 312.66 22H313.66Z" fill="#00157E"/>
<path d="M32.1846 21.9175C34.4405 21.9175 36.4034 23.5215 36.4034 27.3301V27.3447C36.4034 30.9043 34.7994 33.0137 32.1407 33.0137C30.1998 33.0137 28.7496 31.8638 28.4127 30.2451L28.398 30.1646H30.2584L30.2804 30.2378C30.5587 30.9775 31.2105 31.4609 32.1407 31.4609C33.8179 31.4609 34.5284 29.8203 34.609 27.7988C34.609 27.7183 34.6163 27.6377 34.6163 27.5571H34.4698C34.0816 28.3921 33.1588 29.1318 31.7086 29.1318C29.6798 29.1318 28.2589 27.6523 28.2589 25.6455V25.6309C28.2589 23.4849 29.8922 21.9175 32.1846 21.9175ZM32.1773 27.6816C33.3712 27.6816 34.2867 26.8174 34.2867 25.6235V25.6089C34.2867 24.4004 33.3712 23.4556 32.1993 23.4556C31.0347 23.4556 30.1046 24.3857 30.1046 25.5649V25.5796C30.1046 26.8027 30.9762 27.6816 32.1773 27.6816ZM39.4486 25.9019C38.7821 25.9019 38.284 25.3892 38.284 24.7446C38.284 24.0928 38.7821 23.5874 39.4486 23.5874C40.1224 23.5874 40.6131 24.0928 40.6131 24.7446C40.6131 25.3892 40.1224 25.9019 39.4486 25.9019ZM39.4486 31.3364C38.7821 31.3364 38.284 30.8311 38.284 30.1792C38.284 29.5273 38.7821 29.022 39.4486 29.022C40.1224 29.022 40.6131 29.5273 40.6131 30.1792C40.6131 30.8311 40.1224 31.3364 39.4486 31.3364ZM47.6207 32.75V30.7212H42.4498V29.1758C43.8195 26.7954 45.3209 24.3638 46.7565 22.1812H49.4298V29.1611H50.8507V30.7212H49.4298V32.75H47.6207ZM44.2077 29.2051H47.65V23.6899H47.5402C46.4562 25.3452 45.233 27.3008 44.2077 29.0952V29.2051ZM54.9506 32.75V24.0415H54.8261L52.1967 25.9019V24.1221L54.9579 22.1812H56.8403V32.75H54.9506Z" fill="#00157E"/>
<path d="M353 71.9292L341 83.9292" stroke="#00157E" stroke-width="2" stroke-linecap="round" stroke-linejoin="round"/>
<path d="M341 71.9292L353 83.9292" stroke="#00157E" stroke-width="2" stroke-linecap="round" stroke-linejoin="round"/>
<path d="M165.526 83.68L162.946 84.34L161.926 80.66H158.566L157.646 84H154.946L158.946 71.96H161.686L165.526 83.68ZM161.486 78.92L160.286 74.52H160.266L159.046 78.92H161.486ZM180.343 84H177.823V78C177.823 76.98 177.383 76.52 176.483 76.52C175.843 76.52 175.223 76.86 174.883 77.22C174.883 77.22 174.923 77.54 174.923 77.82V84H172.383V78C172.383 76.98 171.963 76.52 171.063 76.52C170.403 76.52 169.843 76.82 169.483 77.18V84H166.943V77L166.623 74.66L169.063 74.34L169.183 75.38H169.203C169.763 74.82 170.743 74.3 171.983 74.3C173.103 74.3 173.963 74.76 174.463 75.54H174.483C175.183 74.82 176.183 74.3 177.423 74.3C179.083 74.3 180.343 75.24 180.343 77.38V84ZM190.801 79.24C190.801 82.08 189.321 84.22 186.541 84.22C183.541 84.22 182.281 82.1 182.281 79.24C182.281 76.4 183.761 74.32 186.541 74.32C189.541 74.32 190.801 76.38 190.801 79.24ZM188.281 79.26C188.281 77.32 187.641 76.54 186.541 76.54C185.441 76.54 184.801 77.28 184.801 79.22C184.801 81.14 185.441 82 186.541 82C187.641 82 188.281 81.18 188.281 79.26ZM201.083 83.86L198.643 84.18L198.503 83.16H198.483C197.923 83.7 196.983 84.24 195.723 84.24C194.103 84.24 192.783 83.28 192.783 81.16V77L192.463 74.66L195.323 74.34V80.54C195.323 81.56 195.743 82.02 196.623 82.02C197.283 82.02 197.843 81.72 198.223 81.34V77L197.903 74.66L200.763 74.34V81.52L201.083 83.86ZM211.291 84H208.751V78C208.751 76.98 208.331 76.52 207.431 76.52C206.771 76.52 206.211 76.84 205.851 77.2V84H203.311V77L202.991 74.66L205.431 74.34L205.551 75.38H205.571C206.131 74.82 207.071 74.3 208.331 74.3C209.971 74.3 211.291 75.24 211.291 77.38V84ZM219.639 83.54C218.819 83.98 218.199 84.22 216.939 84.22C215.059 84.22 214.139 82.96 214.139 81.08V76.54H212.679V74.86L214.139 74.52V72.88L216.659 72.58V74.54H219.259V76.54H216.659V80.4C216.659 81.66 216.979 81.98 217.799 81.98C218.259 81.98 218.519 81.86 218.959 81.66L219.639 83.54Z" fill="#00157E"/>
<path d="M35 77.9292H21" stroke="#00157E" stroke-width="2" stroke-linecap="round" stroke-linejoin="round"/>
<path d="M28 84.9292L21 77.9292L28 70.9292" stroke="#00157E" stroke-width="2" stroke-linecap="round" stroke-linejoin="round"/>
<g clip-path="url(#clip1_417_79970)">
<path d="M22.552 133.734L21.516 134.238L19.15 130.402C18.94 130.43 18.744 130.444 18.534 130.444H18.324V134H17.162V125.642C17.162 125.642 18.226 125.488 19.318 125.488C20.942 125.488 21.964 126.272 21.964 127.602C21.964 128.89 21.222 129.688 20.228 130.08L22.552 133.734ZM20.83 127.812C20.83 126.804 20.13 126.37 19.122 126.37C18.674 126.37 18.324 126.412 18.324 126.412V129.59H18.506C19.64 129.59 20.83 129.114 20.83 127.812ZM28.4513 133.65C27.8213 134 27.1773 134.154 26.3792 134.154C24.4473 134.154 23.4533 132.852 23.4533 130.682C23.4533 128.652 24.5173 127.294 26.1693 127.294C27.7513 127.294 28.3953 128.344 28.3953 129.786V130.57H24.5453C24.5593 132.32 25.1893 133.16 26.6173 133.16C27.1633 133.16 27.5833 133.006 28.0593 132.768L28.4513 133.65ZM27.3453 129.786C27.3453 128.806 26.9813 128.19 26.1133 128.19C25.2733 128.19 24.7413 128.848 24.6013 129.786H27.3453ZM34.35 127.574L34 128.582C33.636 128.442 33.23 128.316 32.768 128.316C31.536 128.316 30.794 129.24 30.794 130.626C30.794 132.376 31.48 133.174 32.74 133.174C33.188 133.174 33.552 133.02 33.916 132.866L34.294 133.776C33.748 134.028 33.146 134.154 32.516 134.154C30.64 134.154 29.674 132.81 29.674 130.808C29.674 128.4 31.158 127.294 32.824 127.294C33.398 127.294 33.888 127.392 34.35 127.574ZM37.0395 134H35.9195V128.96L35.7235 127.518L37.0395 127.336V134ZM37.2635 125.74C37.2635 126.188 36.9135 126.524 36.4935 126.524C36.0595 126.524 35.6955 126.188 35.6955 125.74C35.6955 125.292 36.0595 124.942 36.4935 124.942C36.9135 124.942 37.2635 125.292 37.2635 125.74ZM44.4341 130.402C44.4341 132.53 43.5101 134.07 41.3261 134.07C40.9621 134.07 40.6681 134.042 40.4021 133.972V136.772L39.2821 136.954V128.96L39.0861 127.518L40.1921 127.336L40.2901 128.008H40.3041C40.7381 127.644 41.3121 127.294 42.0681 127.294C43.6641 127.294 44.4341 128.498 44.4341 130.402ZM43.3141 130.724C43.3141 129.296 42.9921 128.302 41.6901 128.302C41.1301 128.302 40.7241 128.54 40.4021 128.806V132.936C40.6681 133.048 40.9761 133.118 41.4101 133.118C42.6281 133.118 43.3141 132.166 43.3141 130.724ZM47.3618 134H46.2418V128.96L46.0458 127.518L47.3618 127.336V134ZM47.5858 125.74C47.5858 126.188 47.2358 126.524 46.8158 126.524C46.3818 126.524 46.0177 126.188 46.0177 125.74C46.0177 125.292 46.3818 124.942 46.8158 124.942C47.2358 124.942 47.5858 125.292 47.5858 125.74ZM54.1544 133.65C53.5244 134 52.8804 134.154 52.0824 134.154C50.1504 134.154 49.1564 132.852 49.1564 130.682C49.1564 128.652 50.2204 127.294 51.8724 127.294C53.4544 127.294 54.0984 128.344 54.0984 129.786V130.57H50.2484C50.2624 132.32 50.8924 133.16 52.3204 133.16C52.8664 133.16 53.2864 133.006 53.7624 132.768L54.1544 133.65ZM53.0484 129.786C53.0484 128.806 52.6844 128.19 51.8164 128.19C50.9764 128.19 50.4444 128.848 50.3044 129.786H53.0484ZM60.7951 134H59.6751V129.744C59.6751 128.778 59.3111 128.288 58.4291 128.288C57.7991 128.288 57.3511 128.554 56.9451 128.918V134H55.8251V128.96L55.6291 127.518L56.7351 127.336L56.8471 128.106H56.8611C57.3511 127.63 57.9951 127.294 58.8071 127.294C59.9131 127.294 60.7951 128.008 60.7951 129.352V134ZM66.2788 133.734C65.8728 133.958 65.4948 134.14 64.7808 134.14C63.7728 134.14 63.1288 133.482 63.1288 132.362V128.358H62.1628V127.616L63.1288 127.42V126.328L64.2348 126.188V127.448H66.0688V128.358H64.2348V131.984C64.2348 132.866 64.4588 133.146 65.1028 133.146C65.4528 133.146 65.7188 133.006 65.9148 132.88L66.2788 133.734Z" fill="#00157E" fill-opacity="0.7"/>
<mask id="path-15-inside-1_417_79970" fill="white">
<path d="M16 146H359V186H16V146Z"/>
</mask>
<path d="M359 186V185H16V186V187H359V186Z" fill="#00157E" fill-opacity="0.2" mask="url(#path-15-inside-1_417_79970)"/>
<path d="M24.8217 171H23.4777V166.6H19.1417V171H17.7977V161.368H19.1417V165.464H23.4777V161.368H24.8217V171ZM32.3492 170.92L31.0692 171.128L30.9572 170.248H30.9412C30.3972 170.76 29.8052 171.192 28.9092 171.192C27.6612 171.192 26.9252 170.44 26.9252 169.256C26.9252 167.912 27.9812 167.256 29.5012 167.096L30.8452 166.952V166.28C30.8452 165.24 30.5252 164.504 29.2932 164.504C28.6692 164.504 28.2052 164.696 27.7412 164.936L27.2772 163.992C27.9492 163.592 28.6372 163.336 29.5972 163.336C31.1012 163.336 32.1092 164.216 32.1092 165.704V169.272L32.3492 170.92ZM30.8452 169.448V167.816L29.6772 167.976C28.7172 168.104 28.1892 168.408 28.1892 169.096C28.1892 169.72 28.5732 170.136 29.2132 170.136C29.9652 170.136 30.4292 169.816 30.8452 169.448ZM40.3672 171H39.0872V166.136C39.0872 165.032 38.6712 164.472 37.6632 164.472C36.9432 164.472 36.4312 164.776 35.9672 165.192V171H34.6872V165.24L34.4632 163.592L35.7272 163.384L35.8552 164.264H35.8712C36.4312 163.72 37.1672 163.336 38.0952 163.336C39.3592 163.336 40.3672 164.152 40.3672 165.688V171ZM47.2264 168.824C47.2264 170.184 46.1544 171.16 44.5544 171.16C43.7864 171.16 43.0184 171.048 42.4104 170.76L42.7944 169.64C43.3224 169.88 43.9144 170.072 44.4904 170.072C45.3544 170.072 45.9304 169.736 45.9304 169.032C45.9304 168.488 45.6424 168.264 45.1464 168.04L43.7544 167.4C43.2584 167.176 42.3624 166.728 42.3624 165.432C42.3624 164.008 43.6104 163.336 44.9704 163.336C45.7864 163.336 46.3624 163.464 47.0024 163.736L46.5704 164.84C46.0584 164.616 45.5624 164.456 44.9544 164.456C44.1384 164.456 43.6104 164.712 43.6104 165.352C43.6104 165.912 44.0904 166.136 44.3944 166.28L45.8184 166.952C46.8104 167.416 47.2264 168.008 47.2264 168.824ZM62.4811 170.968L61.2011 171.064L60.9291 163.608H60.9131L58.0811 171H56.6891L54.0171 163.624H54.0011L53.6171 171H52.4491L53.0731 161.368H54.4811L57.5051 169.4H57.5211L60.5771 161.368H61.9691L62.4811 170.968ZM70.0591 170.6C69.3391 171 68.6031 171.176 67.6911 171.176C65.4831 171.176 64.3471 169.688 64.3471 167.208C64.3471 164.888 65.5631 163.336 67.4511 163.336C69.2591 163.336 69.9951 164.536 69.9951 166.184V167.08H65.5951C65.6111 169.08 66.3311 170.04 67.9631 170.04C68.5871 170.04 69.0671 169.864 69.6111 169.592L70.0591 170.6ZM68.7951 166.184C68.7951 165.064 68.3791 164.36 67.3871 164.36C66.4271 164.36 65.8191 165.112 65.6591 166.184H68.7951ZM77.3925 163.512L74.8965 170.312C74.0965 172.52 73.0245 173.848 70.4165 174.376L70.1765 173.336C72.0805 172.952 73.0885 171.8 73.5845 170.552L70.8965 163.624L72.1605 163.288L74.2245 168.856H74.2405L76.1285 163.512H77.3925ZM83.981 170.6C83.261 171 82.525 171.176 81.613 171.176C79.405 171.176 78.269 169.688 78.269 167.208C78.269 164.888 79.485 163.336 81.373 163.336C83.181 163.336 83.917 164.536 83.917 166.184V167.08H79.517C79.533 169.08 80.253 170.04 81.885 170.04C82.509 170.04 82.989 169.864 83.533 169.592L83.981 170.6ZM82.717 166.184C82.717 165.064 82.301 164.36 81.309 164.36C80.349 164.36 79.741 165.112 79.581 166.184H82.717ZM89.2504 164.616C88.3864 164.616 87.7464 164.84 87.1704 165.368V171H85.8904V165.24L85.6664 163.592L86.9304 163.384L87.0584 164.408H87.0744C87.5864 163.832 88.2584 163.352 89.2504 163.352V164.616Z" fill="#00157E"/>
<path d="M346.999 157L351.999 162L338.999 175H333.999V170L346.999 157Z" stroke="#00157E" stroke-width="2" stroke-linecap="round" stroke-linejoin="round"/>
<path d="M23.154 253.86L22.006 254.182L21.11 251.27H18.366L17.512 254H16.28L19.206 245.572H20.41L23.154 253.86ZM20.858 250.43L19.766 246.79H19.752L18.618 250.43H20.858ZM33.3362 254H32.2302V249.744C32.2302 248.778 31.8662 248.288 30.9702 248.288C30.3402 248.288 29.8082 248.596 29.4582 248.946C29.4582 248.946 29.5002 249.184 29.5002 249.436V254H28.3802V249.744C28.3802 248.778 28.0162 248.288 27.1342 248.288C26.5042 248.288 26.0562 248.54 25.6502 248.918V254H24.5302V248.96L24.3342 247.518L25.4402 247.336L25.5522 248.106H25.5662C26.0562 247.63 26.7002 247.294 27.5122 247.294C28.2682 247.294 28.8982 247.63 29.2342 248.232H29.2482C29.7662 247.714 30.4382 247.294 31.3622 247.294C32.4822 247.294 33.3362 248.008 33.3362 249.352V254ZM40.7154 250.724C40.7154 252.642 39.8054 254.154 37.9154 254.154C35.8434 254.154 35.1154 252.684 35.1154 250.724C35.1154 248.806 36.0254 247.294 37.9154 247.294C39.9874 247.294 40.7154 248.764 40.7154 250.724ZM39.5674 250.752C39.5674 249.128 39.0214 248.274 37.9154 248.274C36.8374 248.274 36.2634 249.03 36.2634 250.682C36.2634 252.306 36.8094 253.174 37.9154 253.174C38.9934 253.174 39.5674 252.404 39.5674 250.752ZM47.661 253.93L46.555 254.112L46.443 253.356H46.429C45.939 253.818 45.295 254.154 44.483 254.154C43.377 254.154 42.495 253.44 42.495 252.096V248.96L42.299 247.518L43.615 247.336V251.704C43.615 252.67 43.979 253.174 44.861 253.174C45.491 253.174 45.939 252.908 46.345 252.53V248.96L46.149 247.518L47.465 247.336V252.488L47.661 253.93ZM54.6701 254H53.5501V249.744C53.5501 248.778 53.1861 248.288 52.3041 248.288C51.6741 248.288 51.2261 248.554 50.8201 248.918V254H49.7001V248.96L49.5041 247.518L50.6101 247.336L50.7221 248.106H50.7361C51.2261 247.63 51.8701 247.294 52.6821 247.294C53.7881 247.294 54.6701 248.008 54.6701 249.352V254ZM60.1538 253.734C59.7478 253.958 59.3698 254.14 58.6558 254.14C57.6478 254.14 57.0038 253.482 57.0038 252.362V248.358H56.0378V247.616L57.0038 247.42V246.328L58.1098 246.188V247.448H59.9438V248.358H58.1098V251.984C58.1098 252.866 58.3338 253.146 58.9778 253.146C59.3278 253.146 59.5938 253.006 59.7898 252.88L60.1538 253.734Z" fill="#00157E" fill-opacity="0.7"/>
<path d="M16 270C16 267.791 17.7909 266 20 266H355C357.209 266 359 267.791 359 270V302C359 304.209 357.209 306 355 306H20C17.7909 306 16 304.209 16 302V270Z" fill="white"/>
<path d="M20 266.5H355C356.933 266.5 358.5 268.067 358.5 270V302C358.5 303.933 356.933 305.5 355 305.5H20C18.067 305.5 16.5 303.933 16.5 302V270C16.5 268.067 18.067 266.5 20 266.5Z" stroke="#00157E" stroke-opacity="0.7"/>
<path d="M36.2411 290.504C35.3451 290.968 34.4331 291.176 33.2171 291.176C30.8651 291.176 29.0571 289.592 29.0571 286.392C29.0571 282.984 31.0731 281.192 33.6651 281.192C34.7371 281.192 35.3931 281.352 36.2091 281.704L35.6971 282.872C35.0891 282.6 34.5131 282.392 33.6491 282.392C31.9691 282.392 30.4331 283.688 30.4331 286.056C30.4331 288.696 31.4091 289.992 33.7451 289.992C34.5131 289.992 35.2171 289.688 35.7931 289.432L36.2411 290.504ZM44.9379 291H43.5939V286.6H39.2579V291H37.9139V281.368H39.2579V285.464H43.5939V281.368H44.9379V291ZM52.3854 282.504H48.9294V285.64H52.0494V286.776H48.9294V291H47.6014V281.368H52.3854V282.504Z" fill="#00157E"/>
<path d="M67 283L73 289L79 283" stroke="#00157E" stroke-width="2" stroke-linecap="round" stroke-linejoin="round"/>
<path d="M300.361 290.2C300.361 294.04 296.741 295.12 294.161 295.32L293.961 293.96C295.781 293.76 298.721 293.04 298.721 290.42C298.721 288.78 297.801 287.82 295.241 287.82H293.901L294.341 281.8H300.041V283.26H295.721L295.461 286.62C295.461 286.62 295.921 286.58 296.341 286.58C298.661 286.58 300.361 287.8 300.361 290.2ZM310.478 286.9C310.478 289.56 309.438 292.22 306.418 292.22C303.378 292.22 302.338 289.56 302.338 286.9C302.338 284.24 303.378 281.58 306.418 281.58C309.438 281.58 310.478 284.24 310.478 286.9ZM308.838 286.9C308.838 284.66 308.098 282.98 306.418 282.98C304.718 282.98 303.978 284.66 303.978 286.9C303.978 289.14 304.718 290.82 306.418 290.82C308.098 290.82 308.838 289.14 308.838 286.9ZM320.771 286.9C320.771 289.56 319.731 292.22 316.711 292.22C313.671 292.22 312.631 289.56 312.631 286.9C312.631 284.24 313.671 281.58 316.711 281.58C319.731 281.58 320.771 284.24 320.771 286.9ZM319.131 286.9C319.131 284.66 318.391 282.98 316.711 282.98C315.011 282.98 314.271 284.66 314.271 286.9C314.271 289.14 315.011 290.82 316.711 290.82C318.391 290.82 319.131 289.14 319.131 286.9ZM325.284 290.98C325.284 291.62 324.764 292.14 324.144 292.14C323.504 292.14 322.984 291.62 322.984 290.98C322.984 290.36 323.504 289.84 324.144 289.84C324.764 289.84 325.284 290.36 325.284 290.98ZM335.634 286.9C335.634 289.56 334.594 292.22 331.574 292.22C328.534 292.22 327.494 289.56 327.494 286.9C327.494 284.24 328.534 281.58 331.574 281.58C334.594 281.58 335.634 284.24 335.634 286.9ZM333.994 286.9C333.994 284.66 333.254 282.98 331.574 282.98C329.874 282.98 329.134 284.66 329.134 286.9C329.134 289.14 329.874 290.82 331.574 290.82C333.254 290.82 333.994 289.14 333.994 286.9ZM345.927 286.9C345.927 289.56 344.887 292.22 341.867 292.22C338.827 292.22 337.787 289.56 337.787 286.9C337.787 284.24 338.827 281.58 341.867 281.58C344.887 281.58 345.927 284.24 345.927 286.9ZM344.287 286.9C344.287 284.66 343.547 282.98 341.867 282.98C340.167 282.98 339.427 284.66 339.427 286.9C339.427 289.14 340.167 290.82 341.867 290.82C343.547 290.82 344.287 289.14 344.287 286.9Z" fill="#00157E"/>
<path d="M23.77 353.254C23.77 356.334 21.922 358 18.926 358H17.162V349.628C17.162 349.628 18.324 349.488 19.57 349.488C22.174 349.488 23.77 350.846 23.77 353.254ZM22.552 353.422C22.552 351.434 21.208 350.482 19.374 350.482C18.786 350.482 18.338 350.51 18.338 350.51V356.95H19.15C21.152 356.95 22.552 355.76 22.552 353.422ZM30.1055 357.65C29.4755 358 28.8315 358.154 28.0335 358.154C26.1015 358.154 25.1075 356.852 25.1075 354.682C25.1075 352.652 26.1715 351.294 27.8235 351.294C29.4055 351.294 30.0495 352.344 30.0495 353.786V354.57H26.1995C26.2135 356.32 26.8435 357.16 28.2715 357.16C28.8175 357.16 29.2375 357.006 29.7135 356.768L30.1055 357.65ZM28.9995 353.786C28.9995 352.806 28.6355 352.19 27.7675 352.19C26.9275 352.19 26.3955 352.848 26.2555 353.786H28.9995ZM36.9563 354.332C36.9563 356.516 35.8223 358.14 33.7503 358.14C33.0223 358.14 32.2243 358.014 31.7483 357.832V350.062L31.5523 348.62L32.8683 348.438V351.952H32.8823C33.3023 351.602 33.8623 351.294 34.6043 351.294C36.1443 351.294 36.9563 352.4 36.9563 354.332ZM35.8223 354.738C35.8223 353.296 35.4863 352.316 34.2123 352.316C33.6243 352.316 33.2043 352.554 32.8683 352.848V357.062C33.1483 357.132 33.4283 357.174 33.8483 357.174C35.1503 357.174 35.8223 356.068 35.8223 354.738ZM39.8969 358H38.7769V352.96L38.5809 351.518L39.8969 351.336V358ZM40.1209 349.74C40.1209 350.188 39.7709 350.524 39.3509 350.524C38.9169 350.524 38.5529 350.188 38.5529 349.74C38.5529 349.292 38.9169 348.942 39.3509 348.942C39.7709 348.942 40.1209 349.292 40.1209 349.74ZM45.4155 357.734C45.0095 357.958 44.6315 358.14 43.9175 358.14C42.9095 358.14 42.2655 357.482 42.2655 356.362V352.358H41.2995V351.616L42.2655 351.42V350.328L43.3715 350.188V351.448H45.2055V352.358H43.3715V355.984C43.3715 356.866 43.5955 357.146 44.2395 357.146C44.5895 357.146 44.8555 357.006 45.0515 356.88L45.4155 357.734ZM54.1485 357.93L53.0285 358.112L52.9305 357.342H52.9165C52.4405 357.79 51.9225 358.168 51.1385 358.168C50.0465 358.168 49.4025 357.51 49.4025 356.474C49.4025 355.298 50.3265 354.724 51.6565 354.584L52.8325 354.458V353.87C52.8325 352.96 52.5525 352.316 51.4745 352.316C50.9285 352.316 50.5225 352.484 50.1165 352.694L49.7105 351.868C50.2985 351.518 50.9005 351.294 51.7405 351.294C53.0565 351.294 53.9385 352.064 53.9385 353.366V356.488L54.1485 357.93ZM52.8325 356.642V355.214L51.8105 355.354C50.9705 355.466 50.5085 355.732 50.5085 356.334C50.5085 356.88 50.8445 357.244 51.4045 357.244C52.0625 357.244 52.4685 356.964 52.8325 356.642ZM60.4222 351.574L60.0722 352.582C59.7082 352.442 59.3022 352.316 58.8402 352.316C57.6082 352.316 56.8662 353.24 56.8662 354.626C56.8662 356.376 57.5522 357.174 58.8122 357.174C59.2602 357.174 59.6242 357.02 59.9882 356.866L60.3662 357.776C59.8202 358.028 59.2182 358.154 58.5882 358.154C56.7122 358.154 55.7462 356.81 55.7462 354.808C55.7462 352.4 57.2302 351.294 58.8962 351.294C59.4702 351.294 59.9602 351.392 60.4222 351.574ZM65.9457 351.574L65.5957 352.582C65.2317 352.442 64.8257 352.316 64.3637 352.316C63.1317 352.316 62.3897 353.24 62.3897 354.626C62.3897 356.376 63.0757 357.174 64.3357 357.174C64.7837 357.174 65.1477 357.02 65.5117 356.866L65.8897 357.776C65.3437 358.028 64.7417 358.154 64.1117 358.154C62.2357 358.154 61.2697 356.81 61.2697 354.808C61.2697 352.4 62.7537 351.294 64.4197 351.294C64.9937 351.294 65.4837 351.392 65.9457 351.574ZM72.3931 354.724C72.3931 356.642 71.4831 358.154 69.5931 358.154C67.5211 358.154 66.7931 356.684 66.7931 354.724C66.7931 352.806 67.7031 351.294 69.5931 351.294C71.6651 351.294 72.3931 352.764 72.3931 354.724ZM71.2451 354.752C71.2451 353.128 70.6991 352.274 69.5931 352.274C68.5151 352.274 67.9411 353.03 67.9411 354.682C67.9411 356.306 68.4871 357.174 69.5931 357.174C70.6711 357.174 71.2451 356.404 71.2451 354.752ZM79.3387 357.93L78.2327 358.112L78.1207 357.356H78.1067C77.6167 357.818 76.9727 358.154 76.1607 358.154C75.0547 358.154 74.1727 357.44 74.1727 356.096V352.96L73.9767 351.518L75.2927 351.336V355.704C75.2927 356.67 75.6567 357.174 76.5387 357.174C77.1687 357.174 77.6167 356.908 78.0227 356.53V352.96L77.8267 351.518L79.1427 351.336V356.488L79.3387 357.93ZM86.3478 358H85.2278V353.744C85.2278 352.778 84.8638 352.288 83.9818 352.288C83.3518 352.288 82.9038 352.554 82.4978 352.918V358H81.3778V352.96L81.1818 351.518L82.2878 351.336L82.3998 352.106H82.4138C82.9038 351.63 83.5478 351.294 84.3598 351.294C85.4658 351.294 86.3478 352.008 86.3478 353.352V358ZM91.8315 357.734C91.4255 357.958 91.0475 358.14 90.3335 358.14C89.3255 358.14 88.6815 357.482 88.6815 356.362V352.358H87.7155V351.616L88.6815 351.42V350.328L89.7875 350.188V351.448H91.6215V352.358H89.7875V355.984C89.7875 356.866 90.0115 357.146 90.6555 357.146C91.0055 357.146 91.2715 357.006 91.4675 356.88L91.8315 357.734Z" fill="#00157E" fill-opacity="0.7"/>
<path d="M24 370.5H351C355.142 370.5 358.5 373.858 358.5 378V430C358.5 434.142 355.142 437.5 351 437.5H24C19.8579 437.5 16.5 434.142 16.5 430V378C16.5 373.858 19.8579 370.5 24 370.5Z" fill="white"/>
<path d="M24 370.5H351C355.142 370.5 358.5 373.858 358.5 378V430C358.5 434.142 355.142 437.5 351 437.5H24C19.8579 437.5 16.5 434.142 16.5 430V378C16.5 373.858 19.8579 370.5 24 370.5Z" stroke="#00157E"/>
<path d="M35 395L44 388L53 395V406C53 406.53 52.7893 407.039 52.4142 407.414C52.0391 407.789 51.5304 408 51 408H37C36.4696 408 35.9609 407.789 35.5858 407.414C35.2107 407.039 35 406.53 35 406V395Z" stroke="#00157E" stroke-width="2" stroke-linecap="round" stroke-linejoin="round"/>
<path d="M41 408V398H47V408" stroke="#00157E" stroke-width="2" stroke-linecap="round" stroke-linejoin="round"/>
<path d="M79.616 394H77.74V390.5H74.856V394H72.966V385.572H74.856V388.96H77.74V385.572H79.616V394ZM87.0399 390.668C87.0399 392.656 86.0039 394.154 84.0579 394.154C81.9579 394.154 81.0759 392.67 81.0759 390.668C81.0759 388.68 82.1119 387.224 84.0579 387.224C86.1579 387.224 87.0399 388.666 87.0399 390.668ZM85.2759 390.682C85.2759 389.324 84.8279 388.778 84.0579 388.778C83.2879 388.778 82.8399 389.296 82.8399 390.654C82.8399 391.998 83.2879 392.6 84.0579 392.6C84.8279 392.6 85.2759 392.026 85.2759 390.682ZM94.2373 393.902L92.5293 394.126L92.4313 393.412H92.4173C92.0253 393.79 91.3673 394.168 90.4853 394.168C89.3513 394.168 88.4273 393.496 88.4273 392.012V389.1L88.2033 387.462L90.2053 387.238V391.578C90.2053 392.292 90.4993 392.614 91.1153 392.614C91.5773 392.614 91.9693 392.404 92.2353 392.138V389.1L92.0113 387.462L94.0133 387.238V392.264L94.2373 393.902ZM100.01 391.872C100.01 393.146 98.9884 394.154 97.4484 394.154C96.6504 394.154 95.9364 394.028 95.3344 393.748L95.7964 392.292C96.3004 392.502 96.7904 392.712 97.3504 392.712C97.9524 392.712 98.2464 392.502 98.2464 392.152C98.2464 391.83 98.0924 391.704 97.7284 391.55L96.6924 391.116C96.0764 390.864 95.4044 390.402 95.4044 389.31C95.4044 387.938 96.5664 387.21 97.9524 387.21C98.7364 387.21 99.2684 387.336 99.8984 387.602L99.3524 389.03C98.9044 388.848 98.4704 388.666 97.9664 388.666C97.4204 388.666 97.1124 388.82 97.1124 389.184C97.1124 389.534 97.3924 389.66 97.6444 389.758L98.7224 390.192C99.5624 390.528 100.01 391.06 100.01 391.872ZM106.469 393.608C105.727 393.986 105.111 394.168 104.215 394.168C102.003 394.168 101.023 392.824 101.023 390.584C101.023 388.582 102.213 387.224 103.977 387.224C105.825 387.224 106.427 388.498 106.427 390.094V390.878H102.759C102.815 392.054 103.375 392.614 104.439 392.614C105.069 392.614 105.419 392.46 105.923 392.25L106.469 393.608ZM104.873 389.8C104.873 389.114 104.579 388.652 103.921 388.652C103.221 388.652 102.871 389.184 102.787 389.8H104.873ZM113.344 394H111.566V389.8C111.566 389.142 111.286 388.778 110.628 388.778C110.082 388.778 109.69 389.1 109.55 389.226V394H107.772V386.286L107.548 384.648L109.55 384.424V387.826H109.564C109.732 387.672 110.334 387.21 111.3 387.21C112.476 387.21 113.344 387.882 113.344 389.366V394ZM120.673 390.668C120.673 392.656 119.637 394.154 117.691 394.154C115.591 394.154 114.709 392.67 114.709 390.668C114.709 388.68 115.745 387.224 117.691 387.224C119.791 387.224 120.673 388.666 120.673 390.668ZM118.909 390.682C118.909 389.324 118.461 388.778 117.691 388.778C116.921 388.778 116.473 389.296 116.473 390.654C116.473 391.998 116.921 392.6 117.691 392.6C118.461 392.6 118.909 392.026 118.909 390.682ZM123.81 394H122.032V386.272L121.808 384.648L123.81 384.424V394ZM131.048 393.916L129.354 394.126L129.256 393.44H129.242C129.074 393.58 128.528 394.168 127.632 394.168C125.98 394.168 125.154 392.768 125.154 390.92C125.154 388.54 126.512 387.322 128.43 387.322C128.78 387.322 129.046 387.378 129.046 387.378V386.286L128.822 384.648L130.824 384.424V392.278L131.048 393.916ZM128.178 392.586C128.598 392.586 128.92 392.404 129.046 392.292V388.904C129.046 388.904 128.808 388.792 128.374 388.792C127.52 388.792 126.946 389.464 126.946 390.654C126.946 391.984 127.296 392.586 128.178 392.586Z" fill="#00157E"/>
<path d="M78.958 409.566C78.174 409.972 77.376 410.154 76.312 410.154C74.254 410.154 72.672 408.768 72.672 405.968C72.672 402.986 74.436 401.418 76.704 401.418C77.642 401.418 78.216 401.558 78.93 401.866L78.482 402.888C77.95 402.65 77.446 402.468 76.69 402.468C75.22 402.468 73.876 403.602 73.876 405.674C73.876 407.984 74.73 409.118 76.774 409.118C77.446 409.118 78.062 408.852 78.566 408.628L78.958 409.566ZM86.5678 410H85.3918V406.15H81.5978V410H80.4218V401.572H81.5978V405.156H85.3918V401.572H86.5678V410ZM92.8883 409.44C92.8883 411.12 91.8103 412.184 89.9623 412.184C89.4163 412.184 88.8423 412.086 88.3243 411.96L88.5763 410.91C89.0383 411.05 89.4303 411.162 89.9903 411.162C91.0963 411.162 91.7683 410.616 91.7683 409.608C91.7683 408.236 90.5083 407.704 88.7303 407.704V406.906C90.8023 406.78 91.3763 405.856 91.3763 404.946C91.3763 404.148 90.8863 403.7 90.1023 403.7C89.4583 403.7 89.0803 403.91 88.6603 404.19L88.1983 403.42C88.7023 403.028 89.3463 402.706 90.3263 402.706C91.6703 402.706 92.4963 403.504 92.4963 404.806C92.4963 405.94 91.8383 406.696 90.9003 407.144V407.158C92.2723 407.452 92.8883 408.362 92.8883 409.44ZM98.7979 408.74C98.7979 411.428 96.2639 412.184 94.4579 412.324L94.3179 411.372C95.5919 411.232 97.6499 410.728 97.6499 408.894C97.6499 407.746 97.0059 407.074 95.2139 407.074H94.2759L94.5839 402.86H98.5739V403.882H95.5499L95.3679 406.234C95.3679 406.234 95.6899 406.206 95.9839 406.206C97.6079 406.206 98.7979 407.06 98.7979 408.74ZM108.819 406.43C108.819 408.292 108.091 410.154 105.977 410.154C103.849 410.154 103.121 408.292 103.121 406.43C103.121 404.568 103.849 402.706 105.977 402.706C108.091 402.706 108.819 404.568 108.819 406.43ZM107.671 406.43C107.671 404.862 107.153 403.686 105.977 403.686C104.787 403.686 104.269 404.862 104.269 406.43C104.269 407.998 104.787 409.174 105.977 409.174C107.153 409.174 107.671 407.998 107.671 406.43ZM115.31 406.318C115.31 410.182 113.35 411.988 110.564 412.324L110.34 411.414C112.104 411.204 113.882 410.07 114.134 407.396L114.12 407.382C114.12 407.382 113.462 407.942 112.468 407.942C111.068 407.942 110.158 406.892 110.158 405.45C110.158 403.7 111.208 402.706 112.79 402.706C114.414 402.706 115.31 403.826 115.31 406.318ZM114.148 406.304C114.148 404.918 113.896 403.658 112.65 403.658C111.768 403.658 111.25 404.386 111.25 405.296C111.25 406.458 111.782 407.018 112.776 407.018C113.63 407.018 114.148 406.514 114.148 406.514V406.304ZM122.573 406.43C122.573 408.292 121.845 410.154 119.731 410.154C117.603 410.154 116.875 408.292 116.875 406.43C116.875 404.568 117.603 402.706 119.731 402.706C121.845 402.706 122.573 404.568 122.573 406.43ZM121.425 406.43C121.425 404.862 120.907 403.686 119.731 403.686C118.541 403.686 118.023 404.862 118.023 406.43C118.023 407.998 118.541 409.174 119.731 409.174C120.907 409.174 121.425 407.998 121.425 406.43ZM129.778 406.43C129.778 408.292 129.05 410.154 126.936 410.154C124.808 410.154 124.08 408.292 124.08 406.43C124.08 404.568 124.808 402.706 126.936 402.706C129.05 402.706 129.778 404.568 129.778 406.43ZM128.63 406.43C128.63 404.862 128.112 403.686 126.936 403.686C125.746 403.686 125.228 404.862 125.228 406.43C125.228 407.998 125.746 409.174 126.936 409.174C128.112 409.174 128.63 407.998 128.63 406.43ZM139.923 406.43C139.923 408.292 139.195 410.154 137.081 410.154C134.953 410.154 134.225 408.292 134.225 406.43C134.225 404.568 134.953 402.706 137.081 402.706C139.195 402.706 139.923 404.568 139.923 406.43ZM138.775 406.43C138.775 404.862 138.257 403.686 137.081 403.686C135.891 403.686 135.373 404.862 135.373 406.43C135.373 407.998 135.891 409.174 137.081 409.174C138.257 409.174 138.775 407.998 138.775 406.43ZM147.128 406.43C147.128 408.292 146.4 410.154 144.286 410.154C142.158 410.154 141.43 408.292 141.43 406.43C141.43 404.568 142.158 402.706 144.286 402.706C146.4 402.706 147.128 404.568 147.128 406.43ZM145.98 406.43C145.98 404.862 145.462 403.686 144.286 403.686C143.096 403.686 142.578 404.862 142.578 406.43C142.578 407.998 143.096 409.174 144.286 409.174C145.462 409.174 145.98 407.998 145.98 406.43ZM154.333 406.43C154.333 408.292 153.605 410.154 151.491 410.154C149.363 410.154 148.635 408.292 148.635 406.43C148.635 404.568 149.363 402.706 151.491 402.706C153.605 402.706 154.333 404.568 154.333 406.43ZM153.185 406.43C153.185 404.862 152.667 403.686 151.491 403.686C150.301 403.686 149.783 404.862 149.783 406.43C149.783 407.998 150.301 409.174 151.491 409.174C152.667 409.174 153.185 407.998 153.185 406.43ZM161.538 406.43C161.538 408.292 160.81 410.154 158.696 410.154C156.568 410.154 155.84 408.292 155.84 406.43C155.84 404.568 156.568 402.706 158.696 402.706C160.81 402.706 161.538 404.568 161.538 406.43ZM160.39 406.43C160.39 404.862 159.872 403.686 158.696 403.686C157.506 403.686 156.988 404.862 156.988 406.43C156.988 407.998 157.506 409.174 158.696 409.174C159.872 409.174 160.39 407.998 160.39 406.43ZM170.983 410H165.789V409.272L168.183 406.976C168.827 406.346 169.317 405.884 169.317 405.114C169.317 404.302 168.813 403.7 167.875 403.7C167.245 403.7 166.797 403.98 166.461 404.26L165.929 403.518C166.531 403.014 167.147 402.706 168.113 402.706C169.499 402.706 170.451 403.518 170.451 404.988C170.451 405.968 169.863 406.71 169.191 407.326L167.399 408.978V408.992H170.983V410ZM178.587 409.118H176.893V411.974L175.815 412.156V409.118H171.965V408.208L175.857 402.86H176.893V408.166H178.587V409.118ZM175.815 408.166V404.372H175.801L173.113 408.166H175.815ZM183.963 403.812L179.959 412.31L179.021 411.834L182.745 403.882H178.937V402.86H183.963V403.812ZM190.659 406.43C190.659 408.292 189.931 410.154 187.817 410.154C185.689 410.154 184.961 408.292 184.961 406.43C184.961 404.568 185.689 402.706 187.817 402.706C189.931 402.706 190.659 404.568 190.659 406.43ZM189.511 406.43C189.511 404.862 188.993 403.686 187.817 403.686C186.627 403.686 186.109 404.862 186.109 406.43C186.109 407.998 186.627 409.174 187.817 409.174C188.993 409.174 189.511 407.998 189.511 406.43ZM200.104 410H194.91V409.272L197.304 406.976C197.948 406.346 198.438 405.884 198.438 405.114C198.438 404.302 197.934 403.7 196.996 403.7C196.366 403.7 195.918 403.98 195.582 404.26L195.05 403.518C195.652 403.014 196.268 402.706 197.234 402.706C198.62 402.706 199.572 403.518 199.572 404.988C199.572 405.968 198.984 406.71 198.312 407.326L196.52 408.978V408.992H200.104V410ZM206.269 406.318C206.269 410.182 204.309 411.988 201.523 412.324L201.299 411.414C203.063 411.204 204.841 410.07 205.093 407.396L205.079 407.382C205.079 407.382 204.421 407.942 203.427 407.942C202.027 407.942 201.117 406.892 201.117 405.45C201.117 403.7 202.167 402.706 203.749 402.706C205.373 402.706 206.269 403.826 206.269 406.318ZM205.107 406.304C205.107 404.918 204.855 403.658 203.609 403.658C202.727 403.658 202.209 404.386 202.209 405.296C202.209 406.458 202.741 407.018 203.735 407.018C204.589 407.018 205.107 406.514 205.107 406.514V406.304ZM212.832 410H207.638V409.272L210.032 406.976C210.676 406.346 211.166 405.884 211.166 405.114C211.166 404.302 210.662 403.7 209.724 403.7C209.094 403.7 208.646 403.98 208.31 404.26L207.778 403.518C208.38 403.014 208.996 402.706 209.962 402.706C211.348 402.706 212.3 403.518 212.3 404.988C212.3 405.968 211.712 406.71 211.04 407.326L209.248 408.978V408.992H212.832V410ZM219.712 406.43C219.712 408.292 218.984 410.154 216.87 410.154C214.742 410.154 214.014 408.292 214.014 406.43C214.014 404.568 214.742 402.706 216.87 402.706C218.984 402.706 219.712 404.568 219.712 406.43ZM218.564 406.43C218.564 404.862 218.046 403.686 216.87 403.686C215.68 403.686 215.162 404.862 215.162 406.43C215.162 407.998 215.68 409.174 216.87 409.174C218.046 409.174 218.564 407.998 218.564 406.43ZM226.314 410H225.208V403.812L223.976 403.98L223.85 403.126L226.314 402.734V410Z" fill="#00157E" fill-opacity="0.7"/>
<g clip-path="url(#clip2_417_79970)">
<path d="M265.432 390.072C265.432 392.136 264.268 393.156 262.708 393.156C261.04 393.156 259.972 392.316 259.972 390.048V385.776H261.004V390.096C261.004 391.524 261.556 392.196 262.672 392.196C263.788 392.196 264.472 391.512 264.472 390.12V385.776H265.432V390.072ZM271.314 390.972C271.314 392.232 270.438 393.132 268.986 393.132C268.242 393.132 267.582 392.976 267.018 392.736L267.33 391.86C267.798 392.076 268.35 392.256 268.914 392.256C269.79 392.256 270.354 391.92 270.354 391.128C270.354 390.54 269.922 390.252 269.346 389.976L268.218 389.436C267.462 389.076 266.946 388.608 266.946 387.588C266.946 386.352 268.026 385.644 269.274 385.644C269.946 385.644 270.378 385.752 271.002 385.98L270.666 386.832C270.282 386.652 269.862 386.484 269.334 386.484C268.59 386.484 267.918 386.784 267.918 387.552C267.918 388.068 268.23 388.32 268.71 388.548L269.862 389.112C270.774 389.556 271.314 390.048 271.314 390.972ZM278.469 388.932C278.469 391.572 276.885 393 274.317 393H272.805V385.824C272.805 385.824 273.801 385.704 274.869 385.704C277.101 385.704 278.469 386.868 278.469 388.932ZM277.425 389.076C277.425 387.372 276.273 386.556 274.701 386.556C274.197 386.556 273.813 386.58 273.813 386.58V392.1H274.509C276.225 392.1 277.425 391.08 277.425 389.076Z" fill="#00157E" fill-opacity="0.7"/>
<path d="M291.716 394H289.938V388.33L288.706 388.498L288.496 387.238L291.716 386.72V394ZM299.296 390.43C299.296 392.39 298.442 394.168 296.286 394.168C294.13 394.168 293.276 392.39 293.276 390.43C293.276 388.47 294.13 386.692 296.286 386.692C298.442 386.692 299.296 388.47 299.296 390.43ZM297.504 390.43C297.504 389.086 297.126 388.274 296.286 388.274C295.46 388.274 295.068 389.086 295.068 390.43C295.068 391.774 295.46 392.586 296.286 392.586C297.126 392.586 297.504 391.774 297.504 390.43ZM302.692 386.594C302.692 388.022 302.118 388.82 301.082 389.562L300.578 389.016C301.068 388.596 301.39 388.148 301.502 387.532C300.984 387.476 300.564 387.014 300.564 386.482C300.564 385.908 301.04 385.432 301.614 385.432C302.216 385.432 302.692 385.88 302.692 386.594ZM309.974 390.43C309.974 392.39 309.12 394.168 306.964 394.168C304.808 394.168 303.954 392.39 303.954 390.43C303.954 388.47 304.808 386.692 306.964 386.692C309.12 386.692 309.974 388.47 309.974 390.43ZM308.182 390.43C308.182 389.086 307.804 388.274 306.964 388.274C306.138 388.274 305.746 389.086 305.746 390.43C305.746 391.774 306.138 392.586 306.964 392.586C307.804 392.586 308.182 391.774 308.182 390.43ZM317.22 390.43C317.22 392.39 316.366 394.168 314.21 394.168C312.054 394.168 311.2 392.39 311.2 390.43C311.2 388.47 312.054 386.692 314.21 386.692C316.366 386.692 317.22 388.47 317.22 390.43ZM315.428 390.43C315.428 389.086 315.05 388.274 314.21 388.274C313.384 388.274 312.992 389.086 312.992 390.43C312.992 391.774 313.384 392.586 314.21 392.586C315.05 392.586 315.428 391.774 315.428 390.43ZM324.466 390.43C324.466 392.39 323.612 394.168 321.456 394.168C319.3 394.168 318.446 392.39 318.446 390.43C318.446 388.47 319.3 386.692 321.456 386.692C323.612 386.692 324.466 388.47 324.466 390.43ZM322.674 390.43C322.674 389.086 322.296 388.274 321.456 388.274C320.63 388.274 320.238 389.086 320.238 390.43C320.238 391.774 320.63 392.586 321.456 392.586C322.296 392.586 322.674 391.774 322.674 390.43ZM327.862 393.048C327.862 393.636 327.386 394.112 326.798 394.112C326.21 394.112 325.734 393.636 325.734 393.048C325.734 392.474 326.21 391.998 326.798 391.998C327.386 391.998 327.862 392.474 327.862 393.048ZM335.144 390.43C335.144 392.39 334.29 394.168 332.134 394.168C329.978 394.168 329.124 392.39 329.124 390.43C329.124 388.47 329.978 386.692 332.134 386.692C334.29 386.692 335.144 388.47 335.144 390.43ZM333.352 390.43C333.352 389.086 332.974 388.274 332.134 388.274C331.308 388.274 330.916 389.086 330.916 390.43C330.916 391.774 331.308 392.586 332.134 392.586C332.974 392.586 333.352 391.774 333.352 390.43ZM342.39 390.43C342.39 392.39 341.536 394.168 339.38 394.168C337.224 394.168 336.37 392.39 336.37 390.43C336.37 388.47 337.224 386.692 339.38 386.692C341.536 386.692 342.39 388.47 342.39 390.43ZM340.598 390.43C340.598 389.086 340.22 388.274 339.38 388.274C338.554 388.274 338.162 389.086 338.162 390.43C338.162 391.774 338.554 392.586 339.38 392.586C340.22 392.586 340.598 391.774 340.598 390.43Z" fill="#00157E"/>
<path d="M325 407L331 413L337 407" stroke="#00157E" stroke-width="2" stroke-linecap="round" stroke-linejoin="round"/>
</g>
</g>
<rect width="375" height="64" transform="translate(0 748)" fill="white"/>
<path d="M20 760.5H355C356.933 760.5 358.5 762.067 358.5 764V796C358.5 797.933 356.933 799.5 355 799.5H20C18.067 799.5 16.5 797.933 16.5 796V764C16.5 762.067 18.067 760.5 20 760.5Z" fill="#00157E"/>
<path d="M20 760.5H355C356.933 760.5 358.5 762.067 358.5 764V796C358.5 797.933 356.933 799.5 355 799.5H20C18.067 799.5 16.5 797.933 16.5 796V764C16.5 762.067 18.067 760.5 20 760.5Z" stroke="#00157E"/>
<path d="M170.733 784.504C169.837 784.968 168.925 785.176 167.709 785.176C165.357 785.176 163.549 783.592 163.549 780.392C163.549 776.984 165.565 775.192 168.157 775.192C169.229 775.192 169.885 775.352 170.701 775.704L170.189 776.872C169.581 776.6 169.005 776.392 168.141 776.392C166.461 776.392 164.925 777.688 164.925 780.056C164.925 782.696 165.901 783.992 168.237 783.992C169.005 783.992 169.709 783.688 170.285 783.432L170.733 784.504ZM177.949 781.256C177.949 783.448 176.909 785.176 174.749 785.176C172.381 785.176 171.549 783.496 171.549 781.256C171.549 779.064 172.589 777.336 174.749 777.336C177.117 777.336 177.949 779.016 177.949 781.256ZM176.637 781.288C176.637 779.432 176.013 778.456 174.749 778.456C173.517 778.456 172.861 779.32 172.861 781.208C172.861 783.064 173.485 784.056 174.749 784.056C175.981 784.056 176.637 783.176 176.637 781.288ZM185.663 785H184.383V780.136C184.383 779.032 183.967 778.472 182.959 778.472C182.239 778.472 181.727 778.776 181.263 779.192V785H179.983V779.24L179.759 777.592L181.023 777.384L181.151 778.264H181.167C181.727 777.72 182.463 777.336 183.391 777.336C184.655 777.336 185.663 778.152 185.663 779.688V785ZM193.402 785H192.138V778.552H189.594V785H188.33V778.552H187.226V777.704L188.33 777.48V776.888C188.33 775.272 189.354 774.088 191.178 774.088C192.01 774.088 192.538 774.344 192.922 774.552L192.458 775.576C192.266 775.448 191.786 775.176 191.178 775.176C190.01 775.176 189.594 775.832 189.594 776.744V777.512H193.402V785ZM199.328 778.616C198.464 778.616 197.824 778.84 197.248 779.368V785H195.968V779.24L195.743 777.592L197.008 777.384L197.136 778.408H197.152C197.664 777.832 198.336 777.352 199.328 777.352V778.616ZM210.953 785H209.689V780.136C209.689 779.032 209.273 778.472 208.249 778.472C207.529 778.472 206.921 778.824 206.521 779.224C206.521 779.224 206.569 779.496 206.569 779.784V785H205.289V780.136C205.289 779.032 204.873 778.472 203.865 778.472C203.145 778.472 202.633 778.76 202.169 779.192V785H200.889V779.24L200.665 777.592L201.929 777.384L202.057 778.264H202.073C202.633 777.72 203.369 777.336 204.297 777.336C205.161 777.336 205.881 777.72 206.265 778.408H206.281C206.873 777.816 207.641 777.336 208.697 777.336C209.977 777.336 210.953 778.152 210.953 779.688V785Z" fill="white"/>
</g>
<defs>
<clipPath id="clip0_417_79970">
<rect width="375" height="812" fill="white"/>
</clipPath>
<clipPath id="clip1_417_79970">
<rect width="375" height="642" fill="white" transform="translate(0 106)"/>
</clipPath>
<clipPath id="clip2_417_79970">
<rect width="131" height="36" fill="white" transform="translate(228 386)"/>
</clipPath>
</defs>
</svg>
