<svg width="420" height="32" viewBox="0 0 420 32" fill="none" xmlns="http://www.w3.org/2000/svg">
<mask id="path-2-inside-1_394_71397" fill="white">
<path d="M0 0H206V32H0V0Z"/>
</mask>
<path d="M206 32V30H0V32V34H206V32Z" fill="#00157E" mask="url(#path-2-inside-1_394_71397)"/>
<path d="M98.5803 19.734L97.5443 20.238L95.1783 16.402C94.9683 16.43 94.7723 16.444 94.5623 16.444H94.3523V20H93.1903V11.642C93.1903 11.642 94.2543 11.488 95.3463 11.488C96.9703 11.488 97.9923 12.272 97.9923 13.602C97.9923 14.89 97.2503 15.688 96.2563 16.08L98.5803 19.734ZM96.8583 13.812C96.8583 12.804 96.1583 12.37 95.1503 12.37C94.7023 12.37 94.3523 12.412 94.3523 12.412V15.59H94.5343C95.6683 15.59 96.8583 15.114 96.8583 13.812ZM106.159 11.866L105.753 12.916C105.193 12.678 104.619 12.468 103.863 12.468C102.183 12.468 100.755 13.588 100.755 15.66C100.755 17.942 101.637 19.09 103.751 19.09C104.311 19.09 104.927 18.936 104.927 18.936V15.87H106.089V19.72C106.089 19.72 105.053 20.154 103.219 20.154C101.091 20.154 99.5226 18.67 99.5226 15.94C99.5226 13 101.497 11.418 103.891 11.418C104.801 11.418 105.459 11.558 106.159 11.866ZM113.51 17.424C113.51 19.314 111.956 20 109.912 20H108.134V11.628C108.134 11.628 109.198 11.502 110.29 11.502C111.9 11.502 112.88 12.104 112.88 13.434C112.88 14.442 112.25 15.114 111.452 15.464V15.478C112.586 15.604 113.51 16.262 113.51 17.424ZM112.348 17.606C112.348 16.668 111.746 16.108 110.094 16.108H109.282V19.048H110.304C111.452 19.048 112.348 18.614 112.348 17.606ZM111.718 13.7C111.718 12.762 111.116 12.356 110.038 12.356C109.646 12.356 109.282 12.398 109.282 12.398V15.296C110.724 15.268 111.718 14.862 111.718 13.7Z" fill="#00157E"/>
<path d="M314.088 20H312.912V16.15H309.118V20H307.942V11.572H309.118V15.156H312.912V11.572H314.088V20ZM320.983 17.634C320.983 19.104 319.961 20.154 318.267 20.154C317.399 20.154 316.629 19.972 315.971 19.692L316.335 18.67C316.881 18.922 317.525 19.132 318.183 19.132C319.205 19.132 319.863 18.74 319.863 17.816C319.863 17.13 319.359 16.794 318.687 16.472L317.371 15.842C316.489 15.422 315.887 14.876 315.887 13.686C315.887 12.244 317.147 11.418 318.603 11.418C319.387 11.418 319.891 11.544 320.619 11.81L320.227 12.804C319.779 12.594 319.289 12.398 318.673 12.398C317.805 12.398 317.021 12.748 317.021 13.644C317.021 14.246 317.385 14.54 317.945 14.806L319.289 15.464C320.353 15.982 320.983 16.556 320.983 17.634ZM327.118 20H322.722V11.572H323.898V19.006H327.118V20Z" fill="#00157E"/>
</svg>
