<svg width="420" height="120" viewBox="0 0 420 120" fill="none" xmlns="http://www.w3.org/2000/svg">
<g clip-path="url(#clip0_279_338939)">
<path d="M23.154 15.86L22.006 16.182L21.11 13.27H18.366L17.512 16H16.28L19.206 7.572H20.41L23.154 15.86ZM20.858 12.43L19.766 8.79H19.752L18.618 12.43H20.858ZM25.6222 16H24.5022V8.062L24.3062 6.62L25.6222 6.438V16ZM28.9308 16H27.8108V8.062L27.6148 6.62L28.9308 6.438V16ZM38.3848 15.93L37.2648 16.112L37.1668 15.342H37.1528C36.6768 15.79 36.1588 16.168 35.3748 16.168C34.2828 16.168 33.6388 15.51 33.6388 14.474C33.6388 13.298 34.5628 12.724 35.8928 12.584L37.0688 12.458V11.87C37.0688 10.96 36.7888 10.316 35.7108 10.316C35.1648 10.316 34.7588 10.484 34.3528 10.694L33.9468 9.868C34.5348 9.518 35.1368 9.294 35.9768 9.294C37.2928 9.294 38.1748 10.064 38.1748 11.366V14.488L38.3848 15.93ZM37.0688 14.642V13.214L36.0468 13.354C35.2068 13.466 34.7448 13.732 34.7448 14.334C34.7448 14.88 35.0808 15.244 35.6408 15.244C36.2988 15.244 36.7048 14.964 37.0688 14.642ZM44.6585 9.574L44.3085 10.582C43.9445 10.442 43.5385 10.316 43.0765 10.316C41.8445 10.316 41.1025 11.24 41.1025 12.626C41.1025 14.376 41.7885 15.174 43.0485 15.174C43.4965 15.174 43.8605 15.02 44.2245 14.866L44.6025 15.776C44.0565 16.028 43.4545 16.154 42.8245 16.154C40.9485 16.154 39.9825 14.81 39.9825 12.808C39.9825 10.4 41.4665 9.294 43.1325 9.294C43.7065 9.294 44.1965 9.392 44.6585 9.574ZM50.182 9.574L49.832 10.582C49.468 10.442 49.062 10.316 48.6 10.316C47.368 10.316 46.626 11.24 46.626 12.626C46.626 14.376 47.312 15.174 48.572 15.174C49.02 15.174 49.384 15.02 49.748 14.866L50.126 15.776C49.58 16.028 48.978 16.154 48.348 16.154C46.472 16.154 45.506 14.81 45.506 12.808C45.506 10.4 46.99 9.294 48.656 9.294C49.23 9.294 49.72 9.392 50.182 9.574ZM56.6294 12.724C56.6294 14.642 55.7194 16.154 53.8294 16.154C51.7574 16.154 51.0294 14.684 51.0294 12.724C51.0294 10.806 51.9394 9.294 53.8294 9.294C55.9014 9.294 56.6294 10.764 56.6294 12.724ZM55.4814 12.752C55.4814 11.128 54.9354 10.274 53.8294 10.274C52.7514 10.274 52.1774 11.03 52.1774 12.682C52.1774 14.306 52.7234 15.174 53.8294 15.174C54.9074 15.174 55.4814 14.404 55.4814 12.752ZM63.5751 15.93L62.4691 16.112L62.3571 15.356H62.3431C61.8531 15.818 61.2091 16.154 60.3971 16.154C59.2911 16.154 58.4091 15.44 58.4091 14.096V10.96L58.2131 9.518L59.5291 9.336V13.704C59.5291 14.67 59.8931 15.174 60.7751 15.174C61.4051 15.174 61.8531 14.908 62.2591 14.53V10.96L62.0631 9.518L63.3791 9.336V14.488L63.5751 15.93ZM70.5841 16H69.4641V11.744C69.4641 10.778 69.1001 10.288 68.2181 10.288C67.5881 10.288 67.1401 10.554 66.7341 10.918V16H65.6141V10.96L65.4181 9.518L66.5241 9.336L66.6361 10.106H66.6501C67.1401 9.63 67.7841 9.294 68.5961 9.294C69.7021 9.294 70.5841 10.008 70.5841 11.352V16ZM76.0679 15.734C75.6619 15.958 75.2839 16.14 74.5699 16.14C73.5619 16.14 72.9179 15.482 72.9179 14.362V10.358H71.9519V9.616L72.9179 9.42V8.328L74.0239 8.188V9.448H75.8579V10.358H74.0239V13.984C74.0239 14.866 74.2479 15.146 74.8919 15.146C75.2419 15.146 75.5079 15.006 75.7039 14.88L76.0679 15.734ZM81.3574 14.096C81.3574 15.286 80.4194 16.14 79.0194 16.14C78.3474 16.14 77.6754 16.042 77.1434 15.79L77.4794 14.81C77.9414 15.02 78.4594 15.188 78.9634 15.188C79.7194 15.188 80.2234 14.894 80.2234 14.278C80.2234 13.802 79.9714 13.606 79.5374 13.41L78.3194 12.85C77.8854 12.654 77.1014 12.262 77.1014 11.128C77.1014 9.882 78.1934 9.294 79.3834 9.294C80.0974 9.294 80.6014 9.406 81.1614 9.644L80.7834 10.61C80.3354 10.414 79.9014 10.274 79.3694 10.274C78.6554 10.274 78.1934 10.498 78.1934 11.058C78.1934 11.548 78.6134 11.744 78.8794 11.87L80.1254 12.458C80.9934 12.864 81.3574 13.382 81.3574 14.096Z" fill="#00157E" fill-opacity="0.7"/>
</g>
<path d="M326.432 12.072C326.432 14.136 325.268 15.156 323.708 15.156C322.04 15.156 320.972 14.316 320.972 12.048V7.776H322.004V12.096C322.004 13.524 322.556 14.196 323.672 14.196C324.788 14.196 325.472 13.512 325.472 12.12V7.776H326.432V12.072ZM332.314 12.972C332.314 14.232 331.438 15.132 329.986 15.132C329.242 15.132 328.582 14.976 328.018 14.736L328.33 13.86C328.798 14.076 329.35 14.256 329.914 14.256C330.79 14.256 331.354 13.92 331.354 13.128C331.354 12.54 330.922 12.252 330.346 11.976L329.218 11.436C328.462 11.076 327.946 10.608 327.946 9.588C327.946 8.352 329.026 7.644 330.274 7.644C330.946 7.644 331.378 7.752 332.002 7.98L331.666 8.832C331.282 8.652 330.862 8.484 330.334 8.484C329.59 8.484 328.918 8.784 328.918 9.552C328.918 10.068 329.23 10.32 329.71 10.548L330.862 11.112C331.774 11.556 332.314 12.048 332.314 12.972ZM339.469 10.932C339.469 13.572 337.885 15 335.317 15H333.805V7.824C333.805 7.824 334.801 7.704 335.869 7.704C338.101 7.704 339.469 8.868 339.469 10.932ZM338.425 11.076C338.425 9.372 337.273 8.556 335.701 8.556C335.197 8.556 334.813 8.58 334.813 8.58V14.1H335.509C337.225 14.1 338.425 13.08 338.425 11.076Z" fill="#00157E" fill-opacity="0.7"/>
<path d="M355.039 15.44C355.039 17.12 353.961 18.184 352.113 18.184C351.567 18.184 350.993 18.086 350.475 17.96L350.727 16.91C351.189 17.05 351.581 17.162 352.141 17.162C353.247 17.162 353.919 16.616 353.919 15.608C353.919 14.236 352.659 13.704 350.881 13.704V12.906C352.953 12.78 353.527 11.856 353.527 10.946C353.527 10.148 353.037 9.7 352.253 9.7C351.609 9.7 351.231 9.91 350.811 10.19L350.349 9.42C350.853 9.028 351.497 8.706 352.477 8.706C353.821 8.706 354.647 9.504 354.647 10.806C354.647 11.94 353.989 12.696 353.051 13.144V13.158C354.423 13.452 355.039 14.362 355.039 15.44ZM360.948 14.74C360.948 17.428 358.414 18.184 356.608 18.324L356.468 17.372C357.742 17.232 359.8 16.728 359.8 14.894C359.8 13.746 359.156 13.074 357.364 13.074H356.426L356.734 8.86H360.724V9.882H357.7L357.518 12.234C357.518 12.234 357.84 12.206 358.134 12.206C359.758 12.206 360.948 13.06 360.948 14.74ZM363.984 8.37C363.984 9.392 363.564 10.176 362.71 10.68L362.388 10.26C362.808 9.952 363.032 9.56 363.102 9.056C362.71 9 362.374 8.664 362.374 8.258C362.374 7.796 362.738 7.446 363.186 7.446C363.634 7.446 363.984 7.81 363.984 8.37ZM371.229 12.43C371.229 14.292 370.501 16.154 368.387 16.154C366.259 16.154 365.531 14.292 365.531 12.43C365.531 10.568 366.259 8.706 368.387 8.706C370.501 8.706 371.229 10.568 371.229 12.43ZM370.081 12.43C370.081 10.862 369.563 9.686 368.387 9.686C367.197 9.686 366.679 10.862 366.679 12.43C366.679 13.998 367.197 15.174 368.387 15.174C369.563 15.174 370.081 13.998 370.081 12.43ZM378.434 12.43C378.434 14.292 377.706 16.154 375.592 16.154C373.464 16.154 372.736 14.292 372.736 12.43C372.736 10.568 373.464 8.706 375.592 8.706C377.706 8.706 378.434 10.568 378.434 12.43ZM377.286 12.43C377.286 10.862 376.768 9.686 375.592 9.686C374.402 9.686 373.884 10.862 373.884 12.43C373.884 13.998 374.402 15.174 375.592 15.174C376.768 15.174 377.286 13.998 377.286 12.43ZM385.64 12.43C385.64 14.292 384.912 16.154 382.798 16.154C380.67 16.154 379.942 14.292 379.942 12.43C379.942 10.568 380.67 8.706 382.798 8.706C384.912 8.706 385.64 10.568 385.64 12.43ZM384.492 12.43C384.492 10.862 383.974 9.686 382.798 9.686C381.608 9.686 381.09 10.862 381.09 12.43C381.09 13.998 381.608 15.174 382.798 15.174C383.974 15.174 384.492 13.998 384.492 12.43ZM388.799 15.286C388.799 15.734 388.435 16.098 388.001 16.098C387.553 16.098 387.189 15.734 387.189 15.286C387.189 14.852 387.553 14.488 388.001 14.488C388.435 14.488 388.799 14.852 388.799 15.286ZM396.044 12.43C396.044 14.292 395.316 16.154 393.202 16.154C391.074 16.154 390.346 14.292 390.346 12.43C390.346 10.568 391.074 8.706 393.202 8.706C395.316 8.706 396.044 10.568 396.044 12.43ZM394.896 12.43C394.896 10.862 394.378 9.686 393.202 9.686C392.012 9.686 391.494 10.862 391.494 12.43C391.494 13.998 392.012 15.174 393.202 15.174C394.378 15.174 394.896 13.998 394.896 12.43ZM403.249 12.43C403.249 14.292 402.521 16.154 400.407 16.154C398.279 16.154 397.551 14.292 397.551 12.43C397.551 10.568 398.279 8.706 400.407 8.706C402.521 8.706 403.249 10.568 403.249 12.43ZM402.101 12.43C402.101 10.862 401.583 9.686 400.407 9.686C399.217 9.686 398.699 10.862 398.699 12.43C398.699 13.998 399.217 15.174 400.407 15.174C401.583 15.174 402.101 13.998 402.101 12.43Z" fill="#00157E" fill-opacity="0.7"/>
<mask id="path-4-inside-1_279_338939" fill="white">
<path d="M0 36C0 31.5817 3.58172 28 8 28H412C416.418 28 420 31.5817 420 36V84H0V36Z"/>
</mask>
<path d="M0 36C0 31.5817 3.58172 28 8 28H412C416.418 28 420 31.5817 420 36V84H0V36Z" fill="white"/>
<path d="M0 36C0 31.0294 4.02944 27 9 27H411C415.971 27 420 31.0294 420 36C420 32.134 416.418 29 412 29H8C3.58172 29 0 32.134 0 36ZM0 36M420 84H0H420M420 84M0 84V28V84M0 84M420 28V84V28" fill="#00157E" fill-opacity="0.1" mask="url(#path-4-inside-1_279_338939)"/>
<path d="M28 52C29.6569 52 31 50.6569 31 49C31 47.3431 29.6569 46 28 46C26.3431 46 25 47.3431 25 49C25 50.6569 26.3431 52 28 52Z" stroke="#00157E" stroke-width="2" stroke-linecap="round" stroke-linejoin="round"/>
<path d="M28 66V52" stroke="#00157E" stroke-width="2" stroke-linecap="round" stroke-linejoin="round"/>
<path d="M21 56H18C18 58.6522 19.0536 61.1957 20.9289 63.0711C22.8043 64.9464 25.3478 66 28 66C30.6522 66 33.1957 64.9464 35.0711 63.0711C36.9464 61.1957 38 58.6522 38 56H35" stroke="#00157E" stroke-width="2" stroke-linecap="round" stroke-linejoin="round"/>
<path d="M61.726 49.634C61.726 51.104 60.704 52.154 59.01 52.154C58.142 52.154 57.372 51.972 56.714 51.692L57.078 50.67C57.624 50.922 58.268 51.132 58.926 51.132C59.948 51.132 60.606 50.74 60.606 49.816C60.606 49.13 60.102 48.794 59.43 48.472L58.114 47.842C57.232 47.422 56.63 46.876 56.63 45.686C56.63 44.244 57.89 43.418 59.346 43.418C60.13 43.418 60.634 43.544 61.362 43.81L60.97 44.804C60.522 44.594 60.032 44.398 59.416 44.398C58.548 44.398 57.764 44.748 57.764 45.644C57.764 46.246 58.128 46.54 58.688 46.806L60.032 47.464C61.096 47.982 61.726 48.556 61.726 49.634ZM67.7207 51.93L66.6007 52.112L66.5027 51.342H66.4887C66.0127 51.79 65.4947 52.168 64.7107 52.168C63.6187 52.168 62.9747 51.51 62.9747 50.474C62.9747 49.298 63.8987 48.724 65.2287 48.584L66.4047 48.458V47.87C66.4047 46.96 66.1247 46.316 65.0467 46.316C64.5007 46.316 64.0947 46.484 63.6887 46.694L63.2827 45.868C63.8707 45.518 64.4727 45.294 65.3127 45.294C66.6287 45.294 67.5107 46.064 67.5107 47.366V50.488L67.7207 51.93ZM66.4047 50.642V49.214L65.3827 49.354C64.5427 49.466 64.0807 49.732 64.0807 50.334C64.0807 50.88 64.4167 51.244 64.9767 51.244C65.6347 51.244 66.0407 50.964 66.4047 50.642ZM74.3901 45.448L72.0241 51.986L70.9181 52.028L68.7621 45.546L69.8821 45.266L71.5201 50.544H71.5341L73.2701 45.448H74.3901ZM76.9301 52H75.8101V46.96L75.6141 45.518L76.9301 45.336V52ZM77.1541 43.74C77.1541 44.188 76.8041 44.524 76.3841 44.524C75.9501 44.524 75.5861 44.188 75.5861 43.74C75.5861 43.292 75.9501 42.942 76.3841 42.942C76.8041 42.942 77.1541 43.292 77.1541 43.74ZM84.1427 52H83.0227V47.744C83.0227 46.778 82.6587 46.288 81.7767 46.288C81.1467 46.288 80.6987 46.554 80.2927 46.918V52H79.1727V46.96L78.9767 45.518L80.0827 45.336L80.1947 46.106H80.2087C80.6987 45.63 81.3427 45.294 82.1547 45.294C83.2607 45.294 84.1427 46.008 84.1427 47.352V52ZM91.6985 46.274H90.3825C90.5785 46.61 90.6905 47.002 90.6905 47.478C90.6905 48.808 89.7245 49.704 88.3805 49.704C88.1145 49.704 87.8625 49.662 87.6385 49.606C87.6385 49.606 87.1905 49.858 87.1905 50.362C87.1905 50.796 87.5125 50.88 87.9605 50.88H89.8365C90.9845 50.88 91.6565 51.23 91.6565 52.252C91.6565 53.54 90.3405 54.996 87.9465 54.996C86.5745 54.996 85.7345 54.324 85.7345 53.176C85.7345 52.098 86.6165 51.566 86.6165 51.566C86.3365 51.384 86.1545 51.104 86.1545 50.642C86.1545 49.83 86.8545 49.424 86.9945 49.354C86.3785 48.976 86.0425 48.332 86.0425 47.478C86.0425 46.148 87.0225 45.266 88.3805 45.266C88.8845 45.266 89.3465 45.378 89.7105 45.602L91.6985 45.294V46.274ZM90.6765 52.42C90.6765 51.944 90.2705 51.846 89.5845 51.846H87.8205C87.6245 51.846 87.4425 51.832 87.2605 51.804C87.2605 51.804 86.7285 52.224 86.7285 52.924C86.7285 53.68 87.1905 54.086 88.1985 54.086C89.8085 54.086 90.6765 53.134 90.6765 52.42ZM89.6405 47.478C89.6405 46.568 89.1365 46.106 88.3805 46.106C87.6525 46.106 87.0925 46.596 87.0925 47.478C87.0925 48.402 87.6105 48.864 88.3805 48.864C89.0945 48.864 89.6405 48.374 89.6405 47.478ZM96.9804 50.096C96.9804 51.286 96.0424 52.14 94.6424 52.14C93.9704 52.14 93.2984 52.042 92.7664 51.79L93.1024 50.81C93.5644 51.02 94.0824 51.188 94.5864 51.188C95.3424 51.188 95.8464 50.894 95.8464 50.278C95.8464 49.802 95.5944 49.606 95.1604 49.41L93.9424 48.85C93.5084 48.654 92.7244 48.262 92.7244 47.128C92.7244 45.882 93.8164 45.294 95.0064 45.294C95.7204 45.294 96.2244 45.406 96.7844 45.644L96.4064 46.61C95.9584 46.414 95.5244 46.274 94.9924 46.274C94.2784 46.274 93.8164 46.498 93.8164 47.058C93.8164 47.548 94.2364 47.744 94.5024 47.87L95.7484 48.458C96.6164 48.864 96.9804 49.382 96.9804 50.096ZM105.988 51.93L104.868 52.112L104.77 51.342H104.756C104.28 51.79 103.762 52.168 102.978 52.168C101.886 52.168 101.242 51.51 101.242 50.474C101.242 49.298 102.166 48.724 103.496 48.584L104.672 48.458V47.87C104.672 46.96 104.392 46.316 103.314 46.316C102.768 46.316 102.362 46.484 101.956 46.694L101.55 45.868C102.138 45.518 102.74 45.294 103.58 45.294C104.896 45.294 105.778 46.064 105.778 47.366V50.488L105.988 51.93ZM104.672 50.642V49.214L103.65 49.354C102.81 49.466 102.348 49.732 102.348 50.334C102.348 50.88 102.684 51.244 103.244 51.244C103.902 51.244 104.308 50.964 104.672 50.642ZM112.262 45.574L111.912 46.582C111.548 46.442 111.142 46.316 110.68 46.316C109.448 46.316 108.706 47.24 108.706 48.626C108.706 50.376 109.392 51.174 110.652 51.174C111.1 51.174 111.464 51.02 111.828 50.866L112.206 51.776C111.66 52.028 111.058 52.154 110.428 52.154C108.552 52.154 107.586 50.81 107.586 48.808C107.586 46.4 109.07 45.294 110.736 45.294C111.31 45.294 111.8 45.392 112.262 45.574ZM117.786 45.574L117.436 46.582C117.072 46.442 116.666 46.316 116.204 46.316C114.972 46.316 114.23 47.24 114.23 48.626C114.23 50.376 114.916 51.174 116.176 51.174C116.624 51.174 116.988 51.02 117.352 50.866L117.73 51.776C117.184 52.028 116.582 52.154 115.952 52.154C114.076 52.154 113.11 50.81 113.11 48.808C113.11 46.4 114.594 45.294 116.26 45.294C116.834 45.294 117.324 45.392 117.786 45.574ZM124.233 48.724C124.233 50.642 123.323 52.154 121.433 52.154C119.361 52.154 118.633 50.684 118.633 48.724C118.633 46.806 119.543 45.294 121.433 45.294C123.505 45.294 124.233 46.764 124.233 48.724ZM123.085 48.752C123.085 47.128 122.539 46.274 121.433 46.274C120.355 46.274 119.781 47.03 119.781 48.682C119.781 50.306 120.327 51.174 121.433 51.174C122.511 51.174 123.085 50.404 123.085 48.752ZM131.179 51.93L130.073 52.112L129.961 51.356H129.947C129.457 51.818 128.813 52.154 128.001 52.154C126.895 52.154 126.013 51.44 126.013 50.096V46.96L125.817 45.518L127.133 45.336V49.704C127.133 50.67 127.497 51.174 128.379 51.174C129.009 51.174 129.457 50.908 129.863 50.53V46.96L129.667 45.518L130.983 45.336V50.488L131.179 51.93ZM138.188 52H137.068V47.744C137.068 46.778 136.704 46.288 135.822 46.288C135.192 46.288 134.744 46.554 134.338 46.918V52H133.218V46.96L133.022 45.518L134.128 45.336L134.24 46.106H134.254C134.744 45.63 135.388 45.294 136.2 45.294C137.306 45.294 138.188 46.008 138.188 47.352V52ZM143.671 51.734C143.265 51.958 142.887 52.14 142.173 52.14C141.165 52.14 140.521 51.482 140.521 50.362V46.358H139.555V45.616L140.521 45.42V44.328L141.627 44.188V45.448H143.461V46.358H141.627V49.984C141.627 50.866 141.851 51.146 142.495 51.146C142.845 51.146 143.111 51.006 143.307 50.88L143.671 51.734Z" fill="#00157E"/>
<path d="M61.964 66.628C61.292 66.976 60.608 67.132 59.696 67.132C57.932 67.132 56.576 65.944 56.576 63.544C56.576 60.988 58.088 59.644 60.032 59.644C60.836 59.644 61.328 59.764 61.94 60.028L61.556 60.904C61.1 60.7 60.668 60.544 60.02 60.544C58.76 60.544 57.608 61.516 57.608 63.292C57.608 65.272 58.34 66.244 60.092 66.244C60.668 66.244 61.196 66.016 61.628 65.824L61.964 66.628ZM68.4867 67H67.4787V63.7H64.2267V67H63.2187V59.776H64.2267V62.848H67.4787V59.776H68.4867V67ZM73.9043 66.52C73.9043 67.96 72.9803 68.872 71.3963 68.872C70.9283 68.872 70.4363 68.788 69.9923 68.68L70.2083 67.78C70.6043 67.9 70.9403 67.996 71.4203 67.996C72.3683 67.996 72.9443 67.528 72.9443 66.664C72.9443 65.488 71.8643 65.032 70.3403 65.032V64.348C72.1163 64.24 72.6083 63.448 72.6083 62.668C72.6083 61.984 72.1883 61.6 71.5163 61.6C70.9643 61.6 70.6403 61.78 70.2803 62.02L69.8843 61.36C70.3163 61.024 70.8683 60.748 71.7083 60.748C72.8603 60.748 73.5683 61.432 73.5683 62.548C73.5683 63.52 73.0043 64.168 72.2003 64.552V64.564C73.3763 64.816 73.9043 65.596 73.9043 66.52ZM78.9696 65.92C78.9696 68.224 76.7976 68.872 75.2496 68.992L75.1296 68.176C76.2216 68.056 77.9856 67.624 77.9856 66.052C77.9856 65.068 77.4336 64.492 75.8976 64.492H75.0936L75.3576 60.88H78.7776V61.756H76.1856L76.0296 63.772C76.0296 63.772 76.3056 63.748 76.5576 63.748C77.9496 63.748 78.9696 64.48 78.9696 65.92ZM87.5593 63.94C87.5593 65.536 86.9353 67.132 85.1233 67.132C83.2993 67.132 82.6753 65.536 82.6753 63.94C82.6753 62.344 83.2993 60.748 85.1233 60.748C86.9353 60.748 87.5593 62.344 87.5593 63.94ZM86.5753 63.94C86.5753 62.596 86.1313 61.588 85.1233 61.588C84.1033 61.588 83.6593 62.596 83.6593 63.94C83.6593 65.284 84.1033 66.292 85.1233 66.292C86.1313 66.292 86.5753 65.284 86.5753 63.94ZM93.1231 63.844C93.1231 67.156 91.4431 68.704 89.0551 68.992L88.8631 68.212C90.3751 68.032 91.8991 67.06 92.1151 64.768L92.1031 64.756C92.1031 64.756 91.5391 65.236 90.6871 65.236C89.4871 65.236 88.7071 64.336 88.7071 63.1C88.7071 61.6 89.6071 60.748 90.9631 60.748C92.3551 60.748 93.1231 61.708 93.1231 63.844ZM92.1271 63.832C92.1271 62.644 91.9111 61.564 90.8431 61.564C90.0871 61.564 89.6431 62.188 89.6431 62.968C89.6431 63.964 90.0991 64.444 90.9511 64.444C91.6831 64.444 92.1271 64.012 92.1271 64.012V63.832ZM99.3484 63.94C99.3484 65.536 98.7244 67.132 96.9124 67.132C95.0884 67.132 94.4644 65.536 94.4644 63.94C94.4644 62.344 95.0884 60.748 96.9124 60.748C98.7244 60.748 99.3484 62.344 99.3484 63.94ZM98.3644 63.94C98.3644 62.596 97.9204 61.588 96.9124 61.588C95.8924 61.588 95.4484 62.596 95.4484 63.94C95.4484 65.284 95.8924 66.292 96.9124 66.292C97.9204 66.292 98.3644 65.284 98.3644 63.94ZM105.524 63.94C105.524 65.536 104.9 67.132 103.088 67.132C101.264 67.132 100.64 65.536 100.64 63.94C100.64 62.344 101.264 60.748 103.088 60.748C104.9 60.748 105.524 62.344 105.524 63.94ZM104.54 63.94C104.54 62.596 104.096 61.588 103.088 61.588C102.068 61.588 101.624 62.596 101.624 63.94C101.624 65.284 102.068 66.292 103.088 66.292C104.096 66.292 104.54 65.284 104.54 63.94ZM114.22 63.94C114.22 65.536 113.596 67.132 111.784 67.132C109.96 67.132 109.336 65.536 109.336 63.94C109.336 62.344 109.96 60.748 111.784 60.748C113.596 60.748 114.22 62.344 114.22 63.94ZM113.236 63.94C113.236 62.596 112.792 61.588 111.784 61.588C110.764 61.588 110.32 62.596 110.32 63.94C110.32 65.284 110.764 66.292 111.784 66.292C112.792 66.292 113.236 65.284 113.236 63.94ZM120.395 63.94C120.395 65.536 119.771 67.132 117.959 67.132C116.135 67.132 115.511 65.536 115.511 63.94C115.511 62.344 116.135 60.748 117.959 60.748C119.771 60.748 120.395 62.344 120.395 63.94ZM119.411 63.94C119.411 62.596 118.967 61.588 117.959 61.588C116.939 61.588 116.495 62.596 116.495 63.94C116.495 65.284 116.939 66.292 117.959 66.292C118.967 66.292 119.411 65.284 119.411 63.94ZM126.571 63.94C126.571 65.536 125.947 67.132 124.135 67.132C122.311 67.132 121.687 65.536 121.687 63.94C121.687 62.344 122.311 60.748 124.135 60.748C125.947 60.748 126.571 62.344 126.571 63.94ZM125.587 63.94C125.587 62.596 125.143 61.588 124.135 61.588C123.115 61.588 122.671 62.596 122.671 63.94C122.671 65.284 123.115 66.292 124.135 66.292C125.143 66.292 125.587 65.284 125.587 63.94ZM132.747 63.94C132.747 65.536 132.123 67.132 130.311 67.132C128.487 67.132 127.863 65.536 127.863 63.94C127.863 62.344 128.487 60.748 130.311 60.748C132.123 60.748 132.747 62.344 132.747 63.94ZM131.763 63.94C131.763 62.596 131.319 61.588 130.311 61.588C129.291 61.588 128.847 62.596 128.847 63.94C128.847 65.284 129.291 66.292 130.311 66.292C131.319 66.292 131.763 65.284 131.763 63.94ZM140.842 67H136.39V66.376L138.442 64.408C138.994 63.868 139.414 63.472 139.414 62.812C139.414 62.116 138.982 61.6 138.178 61.6C137.638 61.6 137.254 61.84 136.966 62.08L136.51 61.444C137.026 61.012 137.554 60.748 138.382 60.748C139.57 60.748 140.386 61.444 140.386 62.704C140.386 63.544 139.882 64.18 139.306 64.708L137.77 66.124V66.136H140.842V67ZM147.36 66.244H145.908V68.692L144.984 68.848V66.244H141.684V65.464L145.02 60.88H145.908V65.428H147.36V66.244ZM144.984 65.428V62.176H144.972L142.668 65.428H144.984ZM151.969 61.696L148.537 68.98L147.733 68.572L150.925 61.756H147.661V60.88H151.969V61.696ZM157.708 63.94C157.708 65.536 157.084 67.132 155.272 67.132C153.448 67.132 152.824 65.536 152.824 63.94C152.824 62.344 153.448 60.748 155.272 60.748C157.084 60.748 157.708 62.344 157.708 63.94ZM156.724 63.94C156.724 62.596 156.28 61.588 155.272 61.588C154.252 61.588 153.808 62.596 153.808 63.94C153.808 65.284 154.252 66.292 155.272 66.292C156.28 66.292 156.724 65.284 156.724 63.94ZM165.803 67H161.351V66.376L163.403 64.408C163.955 63.868 164.375 63.472 164.375 62.812C164.375 62.116 163.943 61.6 163.139 61.6C162.599 61.6 162.215 61.84 161.927 62.08L161.471 61.444C161.987 61.012 162.515 60.748 163.343 60.748C164.531 60.748 165.347 61.444 165.347 62.704C165.347 63.544 164.843 64.18 164.267 64.708L162.731 66.124V66.136H165.803V67ZM171.088 63.844C171.088 67.156 169.408 68.704 167.02 68.992L166.828 68.212C168.34 68.032 169.864 67.06 170.08 64.768L170.068 64.756C170.068 64.756 169.504 65.236 168.652 65.236C167.452 65.236 166.672 64.336 166.672 63.1C166.672 61.6 167.572 60.748 168.928 60.748C170.32 60.748 171.088 61.708 171.088 63.844ZM170.092 63.832C170.092 62.644 169.876 61.564 168.808 61.564C168.052 61.564 167.608 62.188 167.608 62.968C167.608 63.964 168.064 64.444 168.916 64.444C169.648 64.444 170.092 64.012 170.092 64.012V63.832ZM176.713 67H172.261V66.376L174.313 64.408C174.865 63.868 175.285 63.472 175.285 62.812C175.285 62.116 174.853 61.6 174.049 61.6C173.509 61.6 173.125 61.84 172.837 62.08L172.381 61.444C172.897 61.012 173.425 60.748 174.253 60.748C175.441 60.748 176.257 61.444 176.257 62.704C176.257 63.544 175.753 64.18 175.177 64.708L173.641 66.124V66.136H176.713V67ZM182.61 63.94C182.61 65.536 181.986 67.132 180.174 67.132C178.35 67.132 177.726 65.536 177.726 63.94C177.726 62.344 178.35 60.748 180.174 60.748C181.986 60.748 182.61 62.344 182.61 63.94ZM181.626 63.94C181.626 62.596 181.182 61.588 180.174 61.588C179.154 61.588 178.71 62.596 178.71 63.94C178.71 65.284 179.154 66.292 180.174 66.292C181.182 66.292 181.626 65.284 181.626 63.94ZM190.705 67H186.253V66.376L188.305 64.408C188.857 63.868 189.277 63.472 189.277 62.812C189.277 62.116 188.845 61.6 188.041 61.6C187.501 61.6 187.117 61.84 186.829 62.08L186.373 61.444C186.889 61.012 187.417 60.748 188.245 60.748C189.433 60.748 190.249 61.444 190.249 62.704C190.249 63.544 189.745 64.18 189.169 64.708L187.633 66.124V66.136H190.705V67Z" fill="#00157E" fill-opacity="0.7"/>
<path d="M325.432 48.072C325.432 50.136 324.268 51.156 322.708 51.156C321.04 51.156 319.972 50.316 319.972 48.048V43.776H321.004V48.096C321.004 49.524 321.556 50.196 322.672 50.196C323.788 50.196 324.472 49.512 324.472 48.12V43.776H325.432V48.072ZM331.314 48.972C331.314 50.232 330.438 51.132 328.986 51.132C328.242 51.132 327.582 50.976 327.018 50.736L327.33 49.86C327.798 50.076 328.35 50.256 328.914 50.256C329.79 50.256 330.354 49.92 330.354 49.128C330.354 48.54 329.922 48.252 329.346 47.976L328.218 47.436C327.462 47.076 326.946 46.608 326.946 45.588C326.946 44.352 328.026 43.644 329.274 43.644C329.946 43.644 330.378 43.752 331.002 43.98L330.666 44.832C330.282 44.652 329.862 44.484 329.334 44.484C328.59 44.484 327.918 44.784 327.918 45.552C327.918 46.068 328.23 46.32 328.71 46.548L329.862 47.112C330.774 47.556 331.314 48.048 331.314 48.972ZM338.469 46.932C338.469 49.572 336.885 51 334.317 51H332.805V43.824C332.805 43.824 333.801 43.704 334.869 43.704C337.101 43.704 338.469 44.868 338.469 46.932ZM337.425 47.076C337.425 45.372 336.273 44.556 334.701 44.556C334.197 44.556 333.813 44.58 333.813 44.58V50.1H334.509C336.225 50.1 337.425 49.08 337.425 47.076Z" fill="#00157E" fill-opacity="0.7"/>
<path d="M354.483 52H349.037V50.922L351.263 48.864C351.781 48.388 352.131 48.038 352.131 47.38C352.131 46.736 351.725 46.302 351.081 46.302C350.479 46.302 350.101 46.54 349.793 46.778L349.009 45.602C349.653 45.042 350.395 44.692 351.445 44.692C352.929 44.692 353.951 45.56 353.951 47.086C353.951 48.024 353.405 48.752 352.817 49.284L351.599 50.376V50.39H354.483V52ZM360.421 50.558C360.421 53.064 358.279 54.044 355.773 54.338L355.507 52.826C356.683 52.644 358.601 52.238 358.601 50.74C358.601 49.802 357.915 49.34 356.333 49.34H355.507L355.773 44.86H360.169V46.456H357.243L357.145 48.108C357.145 48.108 357.411 48.094 357.691 48.094C359.399 48.094 360.421 48.934 360.421 50.558ZM363.692 44.594C363.692 46.022 363.118 46.82 362.082 47.562L361.578 47.016C362.068 46.596 362.39 46.148 362.502 45.532C361.984 45.476 361.564 45.014 361.564 44.482C361.564 43.908 362.04 43.432 362.614 43.432C363.216 43.432 363.692 43.88 363.692 44.594ZM370.974 48.43C370.974 50.39 370.12 52.168 367.964 52.168C365.808 52.168 364.954 50.39 364.954 48.43C364.954 46.47 365.808 44.692 367.964 44.692C370.12 44.692 370.974 46.47 370.974 48.43ZM369.182 48.43C369.182 47.086 368.804 46.274 367.964 46.274C367.138 46.274 366.746 47.086 366.746 48.43C366.746 49.774 367.138 50.586 367.964 50.586C368.804 50.586 369.182 49.774 369.182 48.43ZM378.22 48.43C378.22 50.39 377.366 52.168 375.21 52.168C373.054 52.168 372.2 50.39 372.2 48.43C372.2 46.47 373.054 44.692 375.21 44.692C377.366 44.692 378.22 46.47 378.22 48.43ZM376.428 48.43C376.428 47.086 376.05 46.274 375.21 46.274C374.384 46.274 373.992 47.086 373.992 48.43C373.992 49.774 374.384 50.586 375.21 50.586C376.05 50.586 376.428 49.774 376.428 48.43ZM385.466 48.43C385.466 50.39 384.612 52.168 382.456 52.168C380.3 52.168 379.446 50.39 379.446 48.43C379.446 46.47 380.3 44.692 382.456 44.692C384.612 44.692 385.466 46.47 385.466 48.43ZM383.674 48.43C383.674 47.086 383.296 46.274 382.456 46.274C381.63 46.274 381.238 47.086 381.238 48.43C381.238 49.774 381.63 50.586 382.456 50.586C383.296 50.586 383.674 49.774 383.674 48.43ZM388.862 51.048C388.862 51.636 388.386 52.112 387.798 52.112C387.21 52.112 386.734 51.636 386.734 51.048C386.734 50.474 387.21 49.998 387.798 49.998C388.386 49.998 388.862 50.474 388.862 51.048ZM396.144 48.43C396.144 50.39 395.29 52.168 393.134 52.168C390.978 52.168 390.124 50.39 390.124 48.43C390.124 46.47 390.978 44.692 393.134 44.692C395.29 44.692 396.144 46.47 396.144 48.43ZM394.352 48.43C394.352 47.086 393.974 46.274 393.134 46.274C392.308 46.274 391.916 47.086 391.916 48.43C391.916 49.774 392.308 50.586 393.134 50.586C393.974 50.586 394.352 49.774 394.352 48.43ZM403.39 48.43C403.39 50.39 402.536 52.168 400.38 52.168C398.224 52.168 397.37 50.39 397.37 48.43C397.37 46.47 398.224 44.692 400.38 44.692C402.536 44.692 403.39 46.47 403.39 48.43ZM401.598 48.43C401.598 47.086 401.22 46.274 400.38 46.274C399.554 46.274 399.162 47.086 399.162 48.43C399.162 49.774 399.554 50.586 400.38 50.586C401.22 50.586 401.598 49.774 401.598 48.43Z" fill="#00157E"/>
<path d="M142 110L136 104L142 98" stroke="#00157E" stroke-opacity="0.4" stroke-width="2" stroke-linecap="round" stroke-linejoin="round"/>
<circle cx="196" cy="104" r="3" fill="#00157E"/>
<circle cx="210" cy="104" r="3" fill="#00157E" fill-opacity="0.4"/>
<circle cx="224" cy="104" r="3" fill="#00157E" fill-opacity="0.4"/>
<path d="M278 110L284 104L278 98" stroke="#00157E" stroke-width="2" stroke-linecap="round" stroke-linejoin="round"/>
<defs>
<clipPath id="clip0_279_338939">
<rect width="292" height="24" fill="white" transform="translate(16)"/>
</clipPath>
</defs>
</svg>
