<svg width="555" height="200" viewBox="0 0 555 200" fill="none" xmlns="http://www.w3.org/2000/svg">
<g clip-path="url(#clip0_444_10455)">
<path d="M25.758 15.973L24.638 16.057L24.4 9.53298H24.386L21.908 16.001H20.69L18.352 9.54698H18.338L18.002 16.001H16.98L17.526 7.57298H18.758L21.404 14.601H21.418L24.092 7.57298H25.31L25.758 15.973ZM32.9908 12.725C32.9908 14.643 32.0808 16.155 30.1908 16.155C28.1188 16.155 27.3908 14.685 27.3908 12.725C27.3908 10.807 28.3008 9.29498 30.1908 9.29498C32.2628 9.29498 32.9908 10.765 32.9908 12.725ZM31.8428 12.753C31.8428 11.129 31.2968 10.275 30.1908 10.275C29.1128 10.275 28.5388 11.031 28.5388 12.683C28.5388 14.307 29.0848 15.175 30.1908 15.175C31.2688 15.175 31.8428 14.405 31.8428 12.753ZM38.5644 14.097C38.5644 15.287 37.6264 16.141 36.2264 16.141C35.5544 16.141 34.8824 16.043 34.3504 15.791L34.6864 14.811C35.1484 15.021 35.6664 15.189 36.1704 15.189C36.9264 15.189 37.4304 14.895 37.4304 14.279C37.4304 13.803 37.1784 13.607 36.7444 13.411L35.5264 12.851C35.0924 12.655 34.3084 12.263 34.3084 11.129C34.3084 9.88298 35.4004 9.29498 36.5904 9.29498C37.3044 9.29498 37.8084 9.40698 38.3684 9.64498L37.9904 10.611C37.5424 10.415 37.1084 10.275 36.5764 10.275C35.8624 10.275 35.4004 10.499 35.4004 11.059C35.4004 11.549 35.8204 11.745 36.0864 11.871L37.3324 12.459C38.2004 12.865 38.5644 13.383 38.5644 14.097ZM43.6108 15.735C43.2048 15.959 42.8268 16.141 42.1128 16.141C41.1048 16.141 40.4608 15.483 40.4608 14.363V10.359H39.4948V9.61698L40.4608 9.42098V8.32898L41.5668 8.18898V9.44898H43.4008V10.359H41.5668V13.985C41.5668 14.867 41.7908 15.147 42.4348 15.147C42.7848 15.147 43.0508 15.007 43.2468 14.881L43.6108 15.735ZM50.9858 10.415C50.2298 10.415 49.6698 10.611 49.1658 11.073V16.001H48.0458V10.961L47.8498 9.51898L48.9558 9.33698L49.0678 10.233H49.0818C49.5298 9.72898 50.1178 9.30898 50.9858 9.30898V10.415ZM56.7384 15.651C56.1084 16.001 55.4644 16.155 54.6664 16.155C52.7344 16.155 51.7404 14.853 51.7404 12.683C51.7404 10.653 52.8044 9.29498 54.4564 9.29498C56.0384 9.29498 56.6824 10.345 56.6824 11.787V12.571H52.8324C52.8464 14.321 53.4764 15.161 54.9044 15.161C55.4504 15.161 55.8704 15.007 56.3464 14.769L56.7384 15.651ZM55.6324 11.787C55.6324 10.807 55.2684 10.191 54.4004 10.191C53.5604 10.191 53.0284 10.849 52.8884 11.787H55.6324ZM62.6371 9.57498L62.2871 10.583C61.9231 10.443 61.5171 10.317 61.0551 10.317C59.8231 10.317 59.0811 11.241 59.0811 12.627C59.0811 14.377 59.7671 15.175 61.0271 15.175C61.4751 15.175 61.8391 15.021 62.2031 14.867L62.5811 15.777C62.0351 16.029 61.4331 16.155 60.8031 16.155C58.9271 16.155 57.9611 14.811 57.9611 12.809C57.9611 10.401 59.4451 9.29498 61.1111 9.29498C61.6851 9.29498 62.1751 9.39298 62.6371 9.57498ZM68.4825 15.651C67.8525 16.001 67.2085 16.155 66.4105 16.155C64.4785 16.155 63.4845 14.853 63.4845 12.683C63.4845 10.653 64.5485 9.29498 66.2005 9.29498C67.7825 9.29498 68.4265 10.345 68.4265 11.787V12.571H64.5765C64.5905 14.321 65.2205 15.161 66.6485 15.161C67.1945 15.161 67.6145 15.007 68.0905 14.769L68.4825 15.651ZM67.3765 11.787C67.3765 10.807 67.0125 10.191 66.1445 10.191C65.3045 10.191 64.7725 10.849 64.6325 11.787H67.3765ZM75.1232 16.001H74.0032V11.745C74.0032 10.779 73.6392 10.289 72.7572 10.289C72.1272 10.289 71.6792 10.555 71.2732 10.919V16.001H70.1532V10.961L69.9572 9.51898L71.0632 9.33698L71.1752 10.107H71.1892C71.6792 9.63098 72.3232 9.29498 73.1352 9.29498C74.2412 9.29498 75.1232 10.009 75.1232 11.353V16.001ZM80.6069 15.735C80.2009 15.959 79.8229 16.141 79.1089 16.141C78.1009 16.141 77.4569 15.483 77.4569 14.363V10.359H76.4909V9.61698L77.4569 9.42098V8.32898L78.5629 8.18898V9.44898H80.3969V10.359H78.5629V13.985C78.5629 14.867 78.7869 15.147 79.4309 15.147C79.7809 15.147 80.0469 15.007 80.2429 14.881L80.6069 15.735ZM87.9819 10.415C87.2259 10.415 86.6659 10.611 86.1619 11.073V16.001H85.0419V10.961L84.8459 9.51898L85.9519 9.33698L86.0639 10.233H86.0779C86.5259 9.72898 87.1139 9.30898 87.9819 9.30898V10.415ZM93.7345 15.651C93.1045 16.001 92.4605 16.155 91.6625 16.155C89.7305 16.155 88.7365 14.853 88.7365 12.683C88.7365 10.653 89.8005 9.29498 91.4525 9.29498C93.0345 9.29498 93.6785 10.345 93.6785 11.787V12.571H89.8285C89.8425 14.321 90.4725 15.161 91.9005 15.161C92.4465 15.161 92.8665 15.007 93.3425 14.769L93.7345 15.651ZM92.6285 11.787C92.6285 10.807 92.2645 10.191 91.3965 10.191C90.5565 10.191 90.0245 10.849 89.8845 11.787H92.6285ZM99.6332 9.57498L99.2832 10.583C98.9192 10.443 98.5132 10.317 98.0512 10.317C96.8192 10.317 96.0772 11.241 96.0772 12.627C96.0772 14.377 96.7632 15.175 98.0232 15.175C98.4712 15.175 98.8352 15.021 99.1992 14.867L99.5772 15.777C99.0312 16.029 98.4292 16.155 97.7992 16.155C95.9232 16.155 94.9572 14.811 94.9572 12.809C94.9572 10.401 96.4412 9.29498 98.1072 9.29498C98.6812 9.29498 99.1712 9.39298 99.6332 9.57498ZM102.323 16.001H101.203V10.961L101.007 9.51898L102.323 9.33698V16.001ZM102.547 7.74098C102.547 8.18898 102.197 8.52498 101.777 8.52498C101.343 8.52498 100.979 8.18898 100.979 7.74098C100.979 7.29298 101.343 6.94298 101.777 6.94298C102.197 6.94298 102.547 7.29298 102.547 7.74098ZM109.717 12.403C109.717 14.531 108.793 16.071 106.609 16.071C106.245 16.071 105.951 16.043 105.685 15.973V18.773L104.565 18.955V10.961L104.369 9.51898L105.475 9.33698L105.573 10.009H105.587C106.021 9.64498 106.595 9.29498 107.351 9.29498C108.947 9.29498 109.717 10.499 109.717 12.403ZM108.597 12.725C108.597 11.297 108.275 10.303 106.973 10.303C106.413 10.303 106.007 10.541 105.685 10.807V14.937C105.951 15.049 106.259 15.119 106.693 15.119C107.911 15.119 108.597 14.167 108.597 12.725ZM112.645 16.001H111.525V10.961L111.329 9.51898L112.645 9.33698V16.001ZM112.869 7.74098C112.869 8.18898 112.519 8.52498 112.099 8.52498C111.665 8.52498 111.301 8.18898 111.301 7.74098C111.301 7.29298 111.665 6.94298 112.099 6.94298C112.519 6.94298 112.869 7.29298 112.869 7.74098ZM119.438 15.651C118.808 16.001 118.164 16.155 117.366 16.155C115.434 16.155 114.44 14.853 114.44 12.683C114.44 10.653 115.504 9.29498 117.156 9.29498C118.738 9.29498 119.382 10.345 119.382 11.787V12.571H115.532C115.546 14.321 116.176 15.161 117.604 15.161C118.15 15.161 118.57 15.007 119.046 14.769L119.438 15.651ZM118.332 11.787C118.332 10.807 117.968 10.191 117.1 10.191C116.26 10.191 115.728 10.849 115.588 11.787H118.332ZM126.078 16.001H124.958V11.745C124.958 10.779 124.594 10.289 123.712 10.289C123.082 10.289 122.634 10.555 122.228 10.919V16.001H121.108V10.961L120.912 9.51898L122.018 9.33698L122.13 10.107H122.144C122.634 9.63098 123.278 9.29498 124.09 9.29498C125.196 9.29498 126.078 10.009 126.078 11.353V16.001ZM131.562 15.735C131.156 15.959 130.778 16.141 130.064 16.141C129.056 16.141 128.412 15.483 128.412 14.363V10.359H127.446V9.61698L128.412 9.42098V8.32898L129.518 8.18898V9.44898H131.352V10.359H129.518V13.985C129.518 14.867 129.742 15.147 130.386 15.147C130.736 15.147 131.002 15.007 131.198 14.881L131.562 15.735ZM136.852 14.097C136.852 15.287 135.914 16.141 134.514 16.141C133.842 16.141 133.17 16.043 132.638 15.791L132.974 14.811C133.436 15.021 133.954 15.189 134.458 15.189C135.214 15.189 135.718 14.895 135.718 14.279C135.718 13.803 135.466 13.607 135.032 13.411L133.814 12.851C133.38 12.655 132.596 12.263 132.596 11.129C132.596 9.88298 133.688 9.29498 134.878 9.29498C135.592 9.29498 136.096 9.40698 136.656 9.64498L136.278 10.611C135.83 10.415 135.396 10.275 134.864 10.275C134.15 10.275 133.688 10.499 133.688 11.059C133.688 11.549 134.108 11.745 134.374 11.871L135.62 12.459C136.488 12.865 136.852 13.383 136.852 14.097Z" fill="#00157E" fill-opacity="0.7"/>
</g>
<path d="M0 36.001C0 31.5827 3.58172 28.001 8 28.001H546.667C551.085 28.001 554.667 31.5827 554.667 36.001V192.005C554.667 196.423 551.085 200.005 546.667 200.005H8C3.58172 200.005 0 196.423 0 192.005V36.001Z" fill="white"/>
<path d="M8 28.501H546.667C550.809 28.5012 554.167 31.859 554.167 36.001V192.005C554.167 196.147 550.809 199.505 546.667 199.505H8C3.85787 199.505 0.5 196.147 0.5 192.005V36.001C0.500003 31.8588 3.85787 28.501 8 28.501Z" stroke="#00157E" stroke-opacity="0.2"/>
<path d="M36 65.002V63.002C36 61.9411 35.5786 60.9237 34.8284 60.1735C34.0783 59.4234 33.0609 59.002 32 59.002H24C22.9391 59.002 21.9217 59.4234 21.1716 60.1735C20.4214 60.9237 20 61.9411 20 63.002V65.002" stroke="#00157E" stroke-width="2" stroke-linecap="round" stroke-linejoin="round"/>
<path d="M28 55.002C30.2091 55.002 32 53.2111 32 51.002C32 48.7928 30.2091 47.002 28 47.002C25.7909 47.002 24 48.7928 24 51.002C24 53.2111 25.7909 55.002 28 55.002Z" stroke="#00157E" stroke-width="2" stroke-linecap="round" stroke-linejoin="round"/>
<path d="M63.154 59.862L62.006 60.184L61.11 57.272H58.366L57.512 60.002H56.28L59.206 51.574H60.41L63.154 59.862ZM60.858 56.432L59.766 52.792H59.752L58.618 56.432H60.858ZM69.5002 60.002H68.3802V55.746C68.3802 54.78 68.0162 54.29 67.1342 54.29C66.5042 54.29 66.0562 54.556 65.6502 54.92V60.002H64.5302V54.962L64.3342 53.52L65.4402 53.338L65.5522 54.108H65.5662C66.0562 53.632 66.7002 53.296 67.5122 53.296C68.6182 53.296 69.5002 54.01 69.5002 55.354V60.002ZM76.6779 60.002H75.5579V55.746C75.5579 54.78 75.1939 54.29 74.3119 54.29C73.6819 54.29 73.2339 54.556 72.8279 54.92V60.002H71.7079V54.962L71.5119 53.52L72.6179 53.338L72.7299 54.108H72.7439C73.2339 53.632 73.8779 53.296 74.6899 53.296C75.7959 53.296 76.6779 54.01 76.6779 55.354V60.002ZM83.1836 59.932L82.0636 60.114L81.9656 59.344H81.9516C81.4756 59.792 80.9576 60.17 80.1736 60.17C79.0816 60.17 78.4376 59.512 78.4376 58.476C78.4376 57.3 79.3616 56.726 80.6916 56.586L81.8676 56.46V55.872C81.8676 54.962 81.5876 54.318 80.5096 54.318C79.9636 54.318 79.5576 54.486 79.1516 54.696L78.7456 53.87C79.3336 53.52 79.9356 53.296 80.7756 53.296C82.0916 53.296 82.9736 54.066 82.9736 55.368V58.49L83.1836 59.932ZM81.8676 58.644V57.216L80.8456 57.356C80.0056 57.468 79.5436 57.734 79.5436 58.336C79.5436 58.882 79.8796 59.246 80.4396 59.246C81.0976 59.246 81.5036 58.966 81.8676 58.644ZM96.8068 59.974L95.6868 60.058L95.4488 53.534H95.4348L92.9568 60.002H91.7388L89.4008 53.548H89.3868L89.0508 60.002H88.0288L88.5748 51.574H89.8068L92.4528 58.602H92.4668L95.1408 51.574H96.3588L96.8068 59.974ZM104.04 59.932L102.934 60.114L102.822 59.358H102.808C102.318 59.82 101.674 60.156 100.862 60.156C99.7559 60.156 98.8739 59.442 98.8739 58.098V54.962L98.6779 53.52L99.9939 53.338V57.706C99.9939 58.672 100.358 59.176 101.24 59.176C101.87 59.176 102.318 58.91 102.724 58.532V54.962L102.528 53.52L103.844 53.338V58.49L104.04 59.932ZM100.932 51.826C100.932 52.246 100.61 52.54 100.218 52.54C99.8259 52.54 99.4899 52.246 99.4899 51.826C99.4899 51.42 99.8259 51.098 100.218 51.098C100.61 51.098 100.932 51.42 100.932 51.826ZM103.214 51.826C103.214 52.246 102.878 52.54 102.486 52.54C102.094 52.54 101.758 52.246 101.758 51.826C101.758 51.42 102.094 51.098 102.486 51.098C102.878 51.098 103.214 51.42 103.214 51.826ZM107.171 60.002H106.051V52.064L105.855 50.622L107.171 50.44V60.002ZM110.48 60.002H109.36V52.064L109.164 50.622L110.48 50.44V60.002ZM117.246 59.652C116.616 60.002 115.972 60.156 115.174 60.156C113.242 60.156 112.248 58.854 112.248 56.684C112.248 54.654 113.312 53.296 114.964 53.296C116.546 53.296 117.19 54.346 117.19 55.788V56.572H113.34C113.354 58.322 113.984 59.162 115.412 59.162C115.958 59.162 116.378 59.008 116.854 58.77L117.246 59.652ZM116.14 55.788C116.14 54.808 115.776 54.192 114.908 54.192C114.068 54.192 113.536 54.85 113.396 55.788H116.14ZM121.857 54.416C121.101 54.416 120.541 54.612 120.037 55.074V60.002H118.917V54.962L118.721 53.52L119.827 53.338L119.939 54.234H119.953C120.401 53.73 120.989 53.31 121.857 53.31V54.416Z" fill="#00157E"/>
<path d="M523.667 62.002L529.667 56.002L523.667 50.002" stroke="#00157E" stroke-width="2" stroke-linecap="round" stroke-linejoin="round"/>
<mask id="path-10-inside-1_444_10455" fill="white">
<path d="M0 92.0029C0 87.5847 3.58172 84.0029 8 84.0029H546.667C551.085 84.0029 554.667 87.5847 554.667 92.0029V140.003H0V92.0029Z"/>
</mask>
<path d="M0 92.0029C0 87.0324 4.02944 83.0029 9 83.0029H545.667C550.637 83.0029 554.667 87.0324 554.667 92.0029C554.667 88.1369 551.085 85.0029 546.667 85.0029H8C3.58172 85.0029 0 88.1369 0 92.0029ZM0 92.0029M554.667 140.003H0H554.667M554.667 140.003M0 140.003V84.0029V140.003M0 140.003M554.667 84.0029V140.003V84.0029" fill="#00157E" fill-opacity="0.2" mask="url(#path-10-inside-1_444_10455)"/>
<path d="M28.001 101.003C25.8253 101.003 23.6984 101.648 21.8893 102.856C20.0802 104.065 18.6702 105.783 17.8375 107.793C17.0048 109.803 16.7869 112.015 17.2113 114.149C17.6357 116.283 18.6834 118.243 20.2218 119.781C21.7602 121.32 23.7204 122.367 25.8542 122.792C27.9881 123.216 30.1999 122.998 32.2099 122.165C34.22 121.333 35.9379 119.923 37.1466 118.114C38.3552 116.305 39.0002 114.178 39 112.002C38.997 109.086 37.8372 106.29 35.7752 104.228C33.7131 102.166 30.9172 101.006 28.001 101.003ZM28.001 103.261C29.4685 103.261 30.9126 103.63 32.2 104.334C33.4873 105.039 34.5764 106.057 35.3666 107.293C36.1569 108.53 36.6229 109.946 36.7215 111.41C36.8202 112.874 36.5484 114.34 35.9312 115.671H20.0697C19.4525 114.34 19.1807 112.874 19.2794 111.41C19.3781 109.945 19.8442 108.53 20.6345 107.293C21.4249 106.056 22.5141 105.039 23.8016 104.334C25.089 103.629 26.5333 103.261 28.001 103.261Z" fill="#00157E"/>
<path d="M61.726 113.637C61.726 115.107 60.704 116.157 59.01 116.157C58.142 116.157 57.372 115.975 56.714 115.695L57.078 114.673C57.624 114.925 58.268 115.135 58.926 115.135C59.948 115.135 60.606 114.743 60.606 113.819C60.606 113.133 60.102 112.797 59.43 112.475L58.114 111.845C57.232 111.425 56.63 110.879 56.63 109.689C56.63 108.247 57.89 107.421 59.346 107.421C60.13 107.421 60.634 107.547 61.362 107.813L60.97 108.807C60.522 108.597 60.032 108.401 59.416 108.401C58.548 108.401 57.764 108.751 57.764 109.647C57.764 110.249 58.128 110.543 58.688 110.809L60.032 111.467C61.096 111.985 61.726 112.559 61.726 113.637ZM68.5887 115.933L67.4827 116.115L67.3707 115.359H67.3567C66.8667 115.821 66.2227 116.157 65.4107 116.157C64.3047 116.157 63.4227 115.443 63.4227 114.099V110.963L63.2267 109.521L64.5427 109.339V113.707C64.5427 114.673 64.9067 115.177 65.7887 115.177C66.4187 115.177 66.8667 114.911 67.2727 114.533V110.963L67.0767 109.521L68.3927 109.339V114.491L68.5887 115.933ZM75.5978 116.003H74.4778V111.747C74.4778 110.781 74.1138 110.291 73.2318 110.291C72.6018 110.291 72.1538 110.557 71.7478 110.921V116.003H70.6278V110.963L70.4318 109.521L71.5378 109.339L71.6498 110.109H71.6638C72.1538 109.633 72.7978 109.297 73.6098 109.297C74.7158 109.297 75.5978 110.011 75.5978 111.355V116.003ZM80.7455 110.417C79.9895 110.417 79.4295 110.613 78.9255 111.075V116.003H77.8055V110.963L77.6095 109.521L78.7155 109.339L78.8275 110.235H78.8415C79.2895 109.731 79.8775 109.311 80.7455 109.311V110.417ZM83.2602 116.003H82.1402V110.963L81.9442 109.521L83.2602 109.339V116.003ZM83.4842 107.743C83.4842 108.191 83.1342 108.527 82.7142 108.527C82.2802 108.527 81.9162 108.191 81.9162 107.743C81.9162 107.295 82.2802 106.945 82.7142 106.945C83.1342 106.945 83.4842 107.295 83.4842 107.743ZM89.2968 114.099C89.2968 115.289 88.3588 116.143 86.9588 116.143C86.2868 116.143 85.6148 116.045 85.0828 115.793L85.4188 114.813C85.8808 115.023 86.3988 115.191 86.9028 115.191C87.6588 115.191 88.1628 114.897 88.1628 114.281C88.1628 113.805 87.9108 113.609 87.4768 113.413L86.2588 112.853C85.8248 112.657 85.0408 112.265 85.0408 111.131C85.0408 109.885 86.1328 109.297 87.3228 109.297C88.0368 109.297 88.5408 109.409 89.1008 109.647L88.7228 110.613C88.2748 110.417 87.8408 110.277 87.3088 110.277C86.5948 110.277 86.1328 110.501 86.1328 111.061C86.1328 111.551 86.5528 111.747 86.8188 111.873L88.0648 112.461C88.9328 112.867 89.2968 113.385 89.2968 114.099ZM95.6173 115.653C94.9873 116.003 94.3433 116.157 93.5453 116.157C91.6133 116.157 90.6193 114.855 90.6193 112.685C90.6193 110.655 91.6833 109.297 93.3353 109.297C94.9173 109.297 95.5613 110.347 95.5613 111.789V112.573H91.7113C91.7253 114.323 92.3553 115.163 93.7833 115.163C94.3293 115.163 94.7493 115.009 95.2253 114.771L95.6173 115.653ZM94.5113 111.789C94.5113 110.809 94.1473 110.193 93.2793 110.193C92.4393 110.193 91.9073 110.851 91.7673 111.789H94.5113Z" fill="#00157E"/>
<path d="M523.667 118.003L529.667 112.003L523.667 106.003" stroke="#00157E" stroke-width="2" stroke-linecap="round" stroke-linejoin="round"/>
<mask id="path-15-inside-2_444_10455" fill="white">
<path d="M0 148.004C0 143.586 3.58172 140.004 8 140.004H546.667C551.085 140.004 554.667 143.586 554.667 148.004V196.004H0V148.004Z"/>
</mask>
<path d="M0 148.004C0 143.033 4.02944 139.004 9 139.004H545.667C550.637 139.004 554.667 143.033 554.667 148.004C554.667 144.138 551.085 141.004 546.667 141.004H8C3.58172 141.004 0 144.138 0 148.004ZM0 148.004M554.667 196.004H0H554.667M554.667 196.004M0 196.004V140.004V196.004M0 196.004M554.667 140.004V196.004V140.004" fill="#00157E" fill-opacity="0.2" mask="url(#path-15-inside-2_444_10455)"/>
<path d="M36 177.004V175.004C36 173.943 35.5786 172.926 34.8284 172.175C34.0783 171.425 33.0609 171.004 32 171.004H24C22.9391 171.004 21.9217 171.425 21.1716 172.175C20.4214 172.926 20 173.943 20 175.004V177.004" stroke="#00157E" stroke-width="2" stroke-linecap="round" stroke-linejoin="round"/>
<path d="M28 167.004C30.2091 167.004 32 165.213 32 163.004C32 160.795 30.2091 159.004 28 159.004C25.7909 159.004 24 160.795 24 163.004C24 165.213 25.7909 167.004 28 167.004Z" stroke="#00157E" stroke-width="2" stroke-linecap="round" stroke-linejoin="round"/>
<path d="M63.308 164.504H62.132V160.654H58.338V164.504H57.162V156.076H58.338V159.66H62.132V156.076H63.308V164.504ZM69.8946 164.434L68.7746 164.616L68.6766 163.846H68.6626C68.1866 164.294 67.6686 164.672 66.8846 164.672C65.7926 164.672 65.1486 164.014 65.1486 162.978C65.1486 161.802 66.0726 161.228 67.4026 161.088L68.5786 160.962V160.374C68.5786 159.464 68.2986 158.82 67.2206 158.82C66.6746 158.82 66.2686 158.988 65.8626 159.198L65.4566 158.372C66.0446 158.022 66.6466 157.798 67.4866 157.798C68.8026 157.798 69.6846 158.568 69.6846 159.87V162.992L69.8946 164.434ZM68.5786 163.146V161.718L67.5566 161.858C66.7166 161.97 66.2546 162.236 66.2546 162.838C66.2546 163.384 66.5906 163.748 67.1506 163.748C67.8086 163.748 68.2146 163.468 68.5786 163.146ZM76.9103 164.504H75.7903V160.248C75.7903 159.282 75.4263 158.792 74.5443 158.792C73.9143 158.792 73.4663 159.058 73.0603 159.422V164.504H71.9403V159.464L71.7443 158.022L72.8503 157.84L72.9623 158.61H72.9763C73.4663 158.134 74.1103 157.798 74.9223 157.798C76.0283 157.798 76.9103 158.512 76.9103 159.856V164.504ZM82.912 162.6C82.912 163.79 81.974 164.644 80.574 164.644C79.902 164.644 79.23 164.546 78.698 164.294L79.034 163.314C79.496 163.524 80.014 163.692 80.518 163.692C81.274 163.692 81.778 163.398 81.778 162.782C81.778 162.306 81.526 162.11 81.092 161.914L79.874 161.354C79.44 161.158 78.656 160.766 78.656 159.632C78.656 158.386 79.748 157.798 80.938 157.798C81.652 157.798 82.156 157.91 82.716 158.148L82.338 159.114C81.89 158.918 81.456 158.778 80.924 158.778C80.21 158.778 79.748 159.002 79.748 159.562C79.748 160.052 80.168 160.248 80.434 160.374L81.68 160.962C82.548 161.368 82.912 161.886 82.912 162.6ZM96.26 164.476L95.14 164.56L94.902 158.036H94.888L92.41 164.504H91.192L88.854 158.05H88.84L88.504 164.504H87.482L88.028 156.076H89.26L91.906 163.104H91.92L94.594 156.076H95.812L96.26 164.476ZM102.891 164.154C102.261 164.504 101.617 164.658 100.819 164.658C98.8867 164.658 97.8927 163.356 97.8927 161.186C97.8927 159.156 98.9567 157.798 100.609 157.798C102.191 157.798 102.835 158.848 102.835 160.29V161.074H98.9847C98.9987 162.824 99.6287 163.664 101.057 163.664C101.603 163.664 102.023 163.51 102.499 163.272L102.891 164.154ZM101.785 160.29C101.785 159.31 101.421 158.694 100.553 158.694C99.7127 158.694 99.1807 159.352 99.0407 160.29H101.785ZM109.307 157.952L107.123 163.902C106.423 165.834 105.485 166.996 103.203 167.458L102.993 166.548C104.659 166.212 105.541 165.204 105.975 164.112L103.623 158.05L104.729 157.756L106.535 162.628H106.549L108.201 157.952H109.307ZM115.072 164.154C114.442 164.504 113.798 164.658 113 164.658C111.068 164.658 110.074 163.356 110.074 161.186C110.074 159.156 111.138 157.798 112.79 157.798C114.372 157.798 115.016 158.848 115.016 160.29V161.074H111.166C111.18 162.824 111.81 163.664 113.238 163.664C113.784 163.664 114.204 163.51 114.68 163.272L115.072 164.154ZM113.966 160.29C113.966 159.31 113.602 158.694 112.734 158.694C111.894 158.694 111.362 159.352 111.222 160.29H113.966ZM119.683 158.918C118.927 158.918 118.367 159.114 117.863 159.576V164.504H116.743V159.464L116.547 158.022L117.653 157.84L117.765 158.736H117.779C118.227 158.232 118.815 157.812 119.683 157.812V158.918Z" fill="#00157E"/>
<path d="M61.616 179.276L60.728 179.708L58.7 176.42C58.52 176.444 58.352 176.456 58.172 176.456H57.992V179.504H56.996V172.34C56.996 172.34 57.908 172.208 58.844 172.208C60.236 172.208 61.112 172.88 61.112 174.02C61.112 175.124 60.476 175.808 59.624 176.144L61.616 179.276ZM60.14 174.2C60.14 173.336 59.54 172.964 58.676 172.964C58.292 172.964 57.992 173 57.992 173V175.724H58.148C59.12 175.724 60.14 175.316 60.14 174.2ZM66.6725 179.204C66.1325 179.504 65.5805 179.636 64.8965 179.636C63.2405 179.636 62.3885 178.52 62.3885 176.66C62.3885 174.92 63.3005 173.756 64.7165 173.756C66.0725 173.756 66.6245 174.656 66.6245 175.892V176.564H63.3245C63.3365 178.064 63.8765 178.784 65.1005 178.784C65.5685 178.784 65.9285 178.652 66.3365 178.448L66.6725 179.204ZM65.7245 175.892C65.7245 175.052 65.4125 174.524 64.6685 174.524C63.9485 174.524 63.4925 175.088 63.3725 175.892H65.7245ZM72.3645 179.504H71.4045V175.856C71.4045 175.028 71.0925 174.608 70.3365 174.608C69.7965 174.608 69.4125 174.836 69.0645 175.148V179.504H68.1045V175.184L67.9365 173.948L68.8845 173.792L68.9805 174.452H68.9925C69.4125 174.044 69.9645 173.756 70.6605 173.756C71.6085 173.756 72.3645 174.368 72.3645 175.52V179.504ZM77.0649 179.276C76.7169 179.468 76.3929 179.624 75.7809 179.624C74.9169 179.624 74.3649 179.06 74.3649 178.1V174.668H73.5369V174.032L74.3649 173.864V172.928L75.3129 172.808V173.888H76.8849V174.668H75.3129V177.776C75.3129 178.532 75.5049 178.772 76.0569 178.772C76.3569 178.772 76.5849 178.652 76.7529 178.544L77.0649 179.276Z" fill="#00157E"/>
<path d="M523.667 174.004L529.667 168.004L523.667 162.004" stroke="#00157E" stroke-width="2" stroke-linecap="round" stroke-linejoin="round"/>
<defs>
<clipPath id="clip0_444_10455">
<rect width="522.667" height="24" fill="white" transform="translate(16 0.000976562)"/>
</clipPath>
</defs>
</svg>
