<svg width="93" height="24" viewBox="0 0 93 24" fill="none" xmlns="http://www.w3.org/2000/svg">
<path d="M0 12C0 5.37258 5.37258 0 12 0H81C87.6274 0 93 5.37258 93 12V12C93 18.6274 87.6274 24 81 24H12C5.37258 24 0 18.6274 0 12V12Z" fill="#00157E" fill-opacity="0.05"/>
<path d="M21.3334 8L14 15.3333L10.6667 12" stroke="#00157E" stroke-width="2" stroke-linecap="round" stroke-linejoin="round"/>
<path d="M37.723 16H33.327V7.572H34.503V15.006H37.723V16ZM43.4073 15.93L42.2873 16.112L42.1893 15.342H42.1753C41.6993 15.79 41.1813 16.168 40.3973 16.168C39.3053 16.168 38.6613 15.51 38.6613 14.474C38.6613 13.298 39.5853 12.724 40.9153 12.584L42.0913 12.458V11.87C42.0913 10.96 41.8113 10.316 40.7333 10.316C40.1873 10.316 39.7813 10.484 39.3753 10.694L38.9693 9.868C39.5573 9.518 40.1593 9.294 40.9993 9.294C42.3153 9.294 43.1973 10.064 43.1973 11.366V14.488L43.4073 15.93ZM42.0913 14.642V13.214L41.0693 13.354C40.2293 13.466 39.7673 13.732 39.7673 14.334C39.7673 14.88 40.1033 15.244 40.6633 15.244C41.3213 15.244 41.7273 14.964 42.0913 14.642ZM50.633 12.332C50.633 14.516 49.499 16.14 47.427 16.14C46.699 16.14 45.901 16.014 45.425 15.832V8.062L45.229 6.62L46.545 6.438V9.952H46.559C46.979 9.602 47.539 9.294 48.281 9.294C49.821 9.294 50.633 10.4 50.633 12.332ZM49.499 12.738C49.499 11.296 49.163 10.316 47.889 10.316C47.301 10.316 46.881 10.554 46.545 10.848V15.062C46.825 15.132 47.105 15.174 47.525 15.174C48.827 15.174 49.499 14.068 49.499 12.738ZM56.9757 15.65C56.3457 16 55.7017 16.154 54.9037 16.154C52.9717 16.154 51.9777 14.852 51.9777 12.682C51.9777 10.652 53.0417 9.294 54.6937 9.294C56.2757 9.294 56.9197 10.344 56.9197 11.786V12.57H53.0697C53.0837 14.32 53.7137 15.16 55.1417 15.16C55.6877 15.16 56.1077 15.006 56.5837 14.768L56.9757 15.65ZM55.8697 11.786C55.8697 10.806 55.5057 10.19 54.6377 10.19C53.7977 10.19 53.2657 10.848 53.1257 11.786H55.8697ZM59.7384 16H58.6184V8.062L58.4224 6.62L59.7384 6.438V16Z" fill="#00157E"/>
<path d="M81 8L73 16" stroke="#00157E" stroke-width="2" stroke-linecap="round" stroke-linejoin="round"/>
<path d="M73 8L81 16" stroke="#00157E" stroke-width="2" stroke-linecap="round" stroke-linejoin="round"/>
</svg>
