<svg width="24" height="24" viewBox="0 0 24 24" fill="none" xmlns="http://www.w3.org/2000/svg">
<g clip-path="url(#clip0_164_48851)">
<path d="M8.56 2.89991C9.62531 2.2988 10.8295 1.98733 12.0527 1.99654C13.2759 2.00575 14.4753 2.33532 15.5314 2.95241C16.5876 3.5695 17.4636 4.45257 18.0721 5.51363C18.6807 6.5747 19.0006 7.77671 19 8.99991V12.9999M13.73 20.9999C13.5542 21.303 13.3018 21.5546 12.9982 21.7294C12.6946 21.9043 12.3504 21.9964 12 21.9964C11.6496 21.9964 11.3054 21.9043 11.0018 21.7294C10.6982 21.5546 10.4458 21.303 10.27 20.9999M17 16.9999H2C2.79565 16.9999 3.55871 16.6838 4.12132 16.1212C4.68393 15.5586 5 14.7956 5 13.9999V8.99991C4.99859 7.87963 5.26608 6.77537 5.78 5.77991L17 16.9999Z" stroke="#00157E" stroke-width="2" stroke-linecap="round" stroke-linejoin="round"/>
<path d="M1 1L23 23" stroke="#00157E" stroke-width="2" stroke-linecap="round" stroke-linejoin="round"/>
</g>
<defs>
<clipPath id="clip0_164_48851">
<rect width="24" height="24" fill="white"/>
</clipPath>
</defs>
</svg>
