<svg width="24" height="24" viewBox="0 0 24 24" fill="none" xmlns="http://www.w3.org/2000/svg">
<path d="M12.89 1.44991L20.89 5.44991C21.2233 5.61548 21.5037 5.87073 21.6998 6.18695C21.8959 6.50317 21.9999 6.86782 22 7.23991V16.7699C21.9999 17.142 21.8959 17.5066 21.6998 17.8229C21.5037 18.1391 21.2233 18.3943 20.89 18.5599L12.89 22.5599C12.6122 22.6989 12.3058 22.7713 11.995 22.7713C11.6843 22.7713 11.3779 22.6989 11.1 22.5599L3.10005 18.5599C2.76718 18.3922 2.4878 18.1348 2.29344 17.8167C2.09907 17.4987 1.99745 17.1326 2.00005 16.7599V7.23991C2.00025 6.86782 2.10424 6.50317 2.30033 6.18695C2.49642 5.87073 2.77684 5.61548 3.11005 5.44991L11.11 1.44991C11.3866 1.31248 11.6912 1.24097 12 1.24097C12.3089 1.24097 12.6135 1.31248 12.89 1.44991V1.44991Z" stroke="#00157E" stroke-width="2" stroke-linecap="round" stroke-linejoin="round"/>
<path d="M2.31982 6.15991L11.9998 10.9999L21.6798 6.15991" stroke="#00157E" stroke-width="2" stroke-linecap="round" stroke-linejoin="round"/>
<path d="M12 22.76V11" stroke="#00157E" stroke-width="2" stroke-linecap="round" stroke-linejoin="round"/>
<path d="M7 3.5L17 8.5" stroke="#00157E" stroke-width="2" stroke-linecap="round" stroke-linejoin="round"/>
</svg>
