<svg width="420" height="36" viewBox="0 0 420 36" fill="none" xmlns="http://www.w3.org/2000/svg">
<path d="M0 4C0 1.79086 1.79086 0 4 0H416C418.209 0 420 1.79086 420 4V32C420 34.2091 418.209 36 416 36H4C1.79086 36 0 34.2091 0 32V4Z" fill="#00157E" fill-opacity="0.05"/>
<path d="M6 2.5H202C203.933 2.5 205.5 4.067 205.5 6V30C205.5 31.933 203.933 33.5 202 33.5H6C4.067 33.5 2.5 31.933 2.5 30V6C2.5 4.067 4.067 2.5 6 2.5Z" fill="#00157E"/>
<path d="M6 2.5H202C203.933 2.5 205.5 4.067 205.5 6V30C205.5 31.933 203.933 33.5 202 33.5H6C4.067 33.5 2.5 31.933 2.5 30V6C2.5 4.067 4.067 2.5 6 2.5Z" stroke="#00157E"/>
<path d="M74.0007 21.86L72.8527 22.182L71.9567 19.27H69.2127L68.3587 22H67.1267L70.0527 13.572H71.2567L74.0007 21.86ZM71.7047 18.43L70.6127 14.79H70.5987L69.4647 18.43H71.7047ZM79.6048 15.574L79.2548 16.582C78.8908 16.442 78.4848 16.316 78.0228 16.316C76.7908 16.316 76.0488 17.24 76.0488 18.626C76.0488 20.376 76.7348 21.174 77.9948 21.174C78.4428 21.174 78.8068 21.02 79.1708 20.866L79.5488 21.776C79.0028 22.028 78.4008 22.154 77.7708 22.154C75.8948 22.154 74.9288 20.81 74.9288 18.808C74.9288 16.4 76.4128 15.294 78.0788 15.294C78.6528 15.294 79.1428 15.392 79.6048 15.574ZM84.5591 21.734C84.1531 21.958 83.7751 22.14 83.0611 22.14C82.0531 22.14 81.4091 21.482 81.4091 20.362V16.358H80.4431V15.616L81.4091 15.42V14.328L82.5151 14.188V15.448H84.3491V16.358H82.5151V19.984C82.5151 20.866 82.7391 21.146 83.3831 21.146C83.7331 21.146 83.9991 21.006 84.1951 20.88L84.5591 21.734ZM87.2026 22H86.0826V16.96L85.8866 15.518L87.2026 15.336V22ZM87.4266 13.74C87.4266 14.188 87.0766 14.524 86.6566 14.524C86.2226 14.524 85.8586 14.188 85.8586 13.74C85.8586 13.292 86.2226 12.942 86.6566 12.942C87.0766 12.942 87.4266 13.292 87.4266 13.74ZM94.2192 15.448L91.8532 21.986L90.7472 22.028L88.5912 15.546L89.7112 15.266L91.3492 20.544H91.3632L93.0992 15.448H94.2192ZM100.024 21.65C99.3945 22 98.7505 22.154 97.9525 22.154C96.0205 22.154 95.0265 20.852 95.0265 18.682C95.0265 16.652 96.0905 15.294 97.7425 15.294C99.3245 15.294 99.9685 16.344 99.9685 17.786V18.57H96.1185C96.1325 20.32 96.7625 21.16 98.1905 21.16C98.7365 21.16 99.1565 21.006 99.6325 20.768L100.024 21.65ZM98.9185 17.786C98.9185 16.806 98.5545 16.19 97.6865 16.19C96.8465 16.19 96.3145 16.848 96.1745 17.786H98.9185ZM109.815 18.332C109.815 20.516 108.681 22.14 106.609 22.14C105.881 22.14 105.083 22.014 104.607 21.832V14.062L104.411 12.62L105.727 12.438V15.952H105.741C106.161 15.602 106.721 15.294 107.463 15.294C109.003 15.294 109.815 16.4 109.815 18.332ZM108.681 18.738C108.681 17.296 108.345 16.316 107.071 16.316C106.483 16.316 106.063 16.554 105.727 16.848V21.062C106.007 21.132 106.287 21.174 106.707 21.174C108.009 21.174 108.681 20.068 108.681 18.738ZM116.773 21.93L115.667 22.112L115.555 21.356H115.541C115.051 21.818 114.407 22.154 113.595 22.154C112.489 22.154 111.607 21.44 111.607 20.096V16.96L111.411 15.518L112.727 15.336V19.704C112.727 20.67 113.091 21.174 113.973 21.174C114.603 21.174 115.051 20.908 115.457 20.53V16.96L115.261 15.518L116.577 15.336V20.488L116.773 21.93ZM122.088 21.734C121.682 21.958 121.304 22.14 120.59 22.14C119.582 22.14 118.938 21.482 118.938 20.362V16.358H117.972V15.616L118.938 15.42V14.328L120.044 14.188V15.448H121.878V16.358H120.044V19.984C120.044 20.866 120.268 21.146 120.912 21.146C121.262 21.146 121.528 21.006 121.724 20.88L122.088 21.734ZM126.86 21.734C126.454 21.958 126.076 22.14 125.362 22.14C124.354 22.14 123.71 21.482 123.71 20.362V16.358H122.744V15.616L123.71 15.42V14.328L124.816 14.188V15.448H126.65V16.358H124.816V19.984C124.816 20.866 125.04 21.146 125.684 21.146C126.034 21.146 126.3 21.006 126.496 20.88L126.86 21.734ZM133.316 18.724C133.316 20.642 132.406 22.154 130.516 22.154C128.444 22.154 127.716 20.684 127.716 18.724C127.716 16.806 128.626 15.294 130.516 15.294C132.588 15.294 133.316 16.764 133.316 18.724ZM132.168 18.752C132.168 17.128 131.622 16.274 130.516 16.274C129.438 16.274 128.864 17.03 128.864 18.682C128.864 20.306 129.41 21.174 130.516 21.174C131.594 21.174 132.168 20.404 132.168 18.752ZM140.066 22H138.946V17.744C138.946 16.778 138.582 16.288 137.7 16.288C137.07 16.288 136.622 16.554 136.216 16.918V22H135.096V16.96L134.9 15.518L136.006 15.336L136.118 16.106H136.132C136.622 15.63 137.266 15.294 138.078 15.294C139.184 15.294 140.066 16.008 140.066 17.352V22Z" fill="white"/>
<path d="M276.379 22H275.203V13.572H276.379V22ZM283.631 22H282.511V17.744C282.511 16.778 282.147 16.288 281.265 16.288C280.635 16.288 280.187 16.554 279.781 16.918V22H278.661V16.96L278.465 15.518L279.571 15.336L279.683 16.106H279.697C280.187 15.63 280.831 15.294 281.643 15.294C282.749 15.294 283.631 16.008 283.631 17.352V22ZM290.137 21.93L289.017 22.112L288.919 21.342H288.905C288.429 21.79 287.911 22.168 287.127 22.168C286.035 22.168 285.391 21.51 285.391 20.474C285.391 19.298 286.315 18.724 287.645 18.584L288.821 18.458V17.87C288.821 16.96 288.541 16.316 287.463 16.316C286.917 16.316 286.511 16.484 286.105 16.694L285.699 15.868C286.287 15.518 286.889 15.294 287.729 15.294C289.045 15.294 289.927 16.064 289.927 17.366V20.488L290.137 21.93ZM288.821 20.642V19.214L287.799 19.354C286.959 19.466 286.497 19.732 286.497 20.334C286.497 20.88 286.833 21.244 287.393 21.244C288.051 21.244 288.457 20.964 288.821 20.642ZM296.411 15.574L296.061 16.582C295.697 16.442 295.291 16.316 294.829 16.316C293.597 16.316 292.855 17.24 292.855 18.626C292.855 20.376 293.541 21.174 294.801 21.174C295.249 21.174 295.613 21.02 295.977 20.866L296.355 21.776C295.809 22.028 295.207 22.154 294.577 22.154C292.701 22.154 291.735 20.81 291.735 18.808C291.735 16.4 293.219 15.294 294.885 15.294C295.459 15.294 295.949 15.392 296.411 15.574ZM301.365 21.734C300.959 21.958 300.581 22.14 299.867 22.14C298.859 22.14 298.215 21.482 298.215 20.362V16.358H297.249V15.616L298.215 15.42V14.328L299.321 14.188V15.448H301.155V16.358H299.321V19.984C299.321 20.866 299.545 21.146 300.189 21.146C300.539 21.146 300.805 21.006 301.001 20.88L301.365 21.734ZM304.008 22H302.888V16.96L302.692 15.518L304.008 15.336V22ZM304.232 13.74C304.232 14.188 303.882 14.524 303.462 14.524C303.028 14.524 302.664 14.188 302.664 13.74C302.664 13.292 303.028 12.942 303.462 12.942C303.882 12.942 304.232 13.292 304.232 13.74ZM311.025 15.448L308.659 21.986L307.553 22.028L305.397 15.546L306.517 15.266L308.155 20.544H308.169L309.905 15.448H311.025ZM316.83 21.65C316.2 22 315.556 22.154 314.758 22.154C312.826 22.154 311.832 20.852 311.832 18.682C311.832 16.652 312.896 15.294 314.548 15.294C316.13 15.294 316.774 16.344 316.774 17.786V18.57H312.924C312.938 20.32 313.568 21.16 314.996 21.16C315.542 21.16 315.962 21.006 316.438 20.768L316.83 21.65ZM315.724 17.786C315.724 16.806 315.36 16.19 314.492 16.19C313.652 16.19 313.12 16.848 312.98 17.786H315.724ZM326.62 18.332C326.62 20.516 325.486 22.14 323.414 22.14C322.686 22.14 321.888 22.014 321.412 21.832V14.062L321.216 12.62L322.532 12.438V15.952H322.546C322.966 15.602 323.526 15.294 324.268 15.294C325.808 15.294 326.62 16.4 326.62 18.332ZM325.486 18.738C325.486 17.296 325.15 16.316 323.876 16.316C323.288 16.316 322.868 16.554 322.532 16.848V21.062C322.812 21.132 323.092 21.174 323.512 21.174C324.814 21.174 325.486 20.068 325.486 18.738ZM333.579 21.93L332.473 22.112L332.361 21.356H332.347C331.857 21.818 331.213 22.154 330.401 22.154C329.295 22.154 328.413 21.44 328.413 20.096V16.96L328.217 15.518L329.533 15.336V19.704C329.533 20.67 329.897 21.174 330.779 21.174C331.409 21.174 331.857 20.908 332.263 20.53V16.96L332.067 15.518L333.383 15.336V20.488L333.579 21.93ZM338.894 21.734C338.488 21.958 338.11 22.14 337.396 22.14C336.388 22.14 335.744 21.482 335.744 20.362V16.358H334.778V15.616L335.744 15.42V14.328L336.85 14.188V15.448H338.684V16.358H336.85V19.984C336.85 20.866 337.074 21.146 337.718 21.146C338.068 21.146 338.334 21.006 338.53 20.88L338.894 21.734ZM343.666 21.734C343.26 21.958 342.882 22.14 342.168 22.14C341.16 22.14 340.516 21.482 340.516 20.362V16.358H339.55V15.616L340.516 15.42V14.328L341.622 14.188V15.448H343.456V16.358H341.622V19.984C341.622 20.866 341.846 21.146 342.49 21.146C342.84 21.146 343.106 21.006 343.302 20.88L343.666 21.734ZM350.122 18.724C350.122 20.642 349.212 22.154 347.322 22.154C345.25 22.154 344.522 20.684 344.522 18.724C344.522 16.806 345.432 15.294 347.322 15.294C349.394 15.294 350.122 16.764 350.122 18.724ZM348.974 18.752C348.974 17.128 348.428 16.274 347.322 16.274C346.244 16.274 345.67 17.03 345.67 18.682C345.67 20.306 346.216 21.174 347.322 21.174C348.4 21.174 348.974 20.404 348.974 18.752ZM356.871 22H355.751V17.744C355.751 16.778 355.387 16.288 354.505 16.288C353.875 16.288 353.427 16.554 353.021 16.918V22H351.901V16.96L351.705 15.518L352.811 15.336L352.923 16.106H352.937C353.427 15.63 354.071 15.294 354.883 15.294C355.989 15.294 356.871 16.008 356.871 17.352V22Z" fill="#00157E"/>
</svg>
