<svg width="375" height="63" viewBox="0 0 375 63" fill="none" xmlns="http://www.w3.org/2000/svg">
<rect width="375.002" height="63" fill="white"/>
<path d="M38.5 31.5C38.5 18.2452 49.2452 7.5 62.5 7.5V7.5C75.7548 7.5 86.5 18.2452 86.5 31.5V31.5C86.5 44.7548 75.7548 55.5 62.5 55.5V55.5C49.2452 55.5 38.5 44.7548 38.5 31.5V31.5Z" fill="#00157E" fill-opacity="0.05"/>
<path d="M53.5 21L62.5 14L71.5 21V32C71.5 32.5304 71.2893 33.0391 70.9142 33.4142C70.5391 33.7893 70.0304 34 69.5 34H55.5C54.9696 34 54.4609 33.7893 54.0858 33.4142C53.7107 33.0391 53.5 32.5304 53.5 32V21Z" stroke="#00157E" stroke-width="2" stroke-linecap="round" stroke-linejoin="round"/>
<path d="M59.5 34V24H65.5V34" stroke="#00157E" stroke-width="2" stroke-linecap="round" stroke-linejoin="round"/>
<path d="M47.8431 47.388C47.8431 49.284 46.9911 51.132 44.5791 51.132C42.1191 51.132 41.2791 49.308 41.2791 47.388C41.2791 45.48 42.1551 43.644 44.5791 43.644C47.0391 43.644 47.8431 45.456 47.8431 47.388ZM46.7871 47.388C46.7871 45.624 46.1031 44.496 44.5791 44.496C43.0671 44.496 42.3591 45.672 42.3591 47.388C42.3591 49.14 43.0431 50.28 44.5791 50.28C46.0671 50.28 46.7871 49.104 46.7871 47.388ZM53.4661 45.384L51.4381 50.988L50.4901 51.024L48.6421 45.468L49.6021 45.228L51.0061 49.752H51.0181L52.5061 45.384H53.4661ZM58.442 50.7C57.902 51 57.35 51.132 56.666 51.132C55.01 51.132 54.158 50.016 54.158 48.156C54.158 46.416 55.07 45.252 56.486 45.252C57.842 45.252 58.394 46.152 58.394 47.388V48.06H55.094C55.106 49.56 55.646 50.28 56.87 50.28C57.338 50.28 57.698 50.148 58.106 49.944L58.442 50.7ZM57.494 47.388C57.494 46.548 57.182 46.02 56.438 46.02C55.718 46.02 55.262 46.584 55.142 47.388H57.494ZM62.3941 46.212C61.7461 46.212 61.2661 46.38 60.8341 46.776V51H59.8741V46.68L59.7061 45.444L60.6541 45.288L60.7501 46.056H60.7621C61.1461 45.624 61.6501 45.264 62.3941 45.264V46.212ZM67.8333 45.384L65.8053 50.988L64.8573 51.024L63.0093 45.468L63.9693 45.228L65.3733 49.752H65.3853L66.8733 45.384H67.8333ZM70.0104 51H69.0504V46.68L68.8824 45.444L70.0104 45.288V51ZM70.2024 43.92C70.2024 44.304 69.9024 44.592 69.5424 44.592C69.1704 44.592 68.8584 44.304 68.8584 43.92C68.8584 43.536 69.1704 43.236 69.5424 43.236C69.9024 43.236 70.2024 43.536 70.2024 43.92ZM75.8327 50.7C75.2927 51 74.7407 51.132 74.0567 51.132C72.4007 51.132 71.5487 50.016 71.5487 48.156C71.5487 46.416 72.4607 45.252 73.8767 45.252C75.2327 45.252 75.7847 46.152 75.7847 47.388V48.06H72.4847C72.4967 49.56 73.0367 50.28 74.2607 50.28C74.7287 50.28 75.0887 50.148 75.4967 49.944L75.8327 50.7ZM74.8847 47.388C74.8847 46.548 74.5727 46.02 73.8287 46.02C73.1087 46.02 72.6527 46.584 72.5327 47.388H74.8847ZM83.9967 45.384L82.4487 50.976L81.5607 51.024L80.1927 46.764H80.1807L78.8007 50.988L77.9127 51.024L76.5087 45.444L77.4207 45.216L78.4287 49.596H78.4407L79.7487 45.384H80.6847L82.0047 49.596H82.0167L83.0607 45.384H83.9967Z" fill="#00157E"/>
<path d="M182.501 24L177.501 29L182.501 34M177.501 29H189.501" stroke="#00157E" stroke-width="2" stroke-linecap="round" stroke-linejoin="round"/>
<path d="M192.501 14L197.501 19L192.501 24M197.501 19H185.501" stroke="#00157E" stroke-width="2" stroke-linecap="round" stroke-linejoin="round"/>
<path d="M169.833 45.564C169.833 47.256 168.453 48.108 166.845 48.108H166.665V51H165.669V43.836C165.669 43.836 166.569 43.704 167.517 43.704C168.921 43.704 169.833 44.376 169.833 45.564ZM168.849 45.744C168.849 44.856 168.261 44.46 167.349 44.46C166.965 44.46 166.665 44.508 166.665 44.508V47.34H166.821C167.889 47.34 168.849 46.86 168.849 45.744ZM174.637 50.94L173.677 51.096L173.593 50.436H173.581C173.173 50.82 172.729 51.144 172.057 51.144C171.121 51.144 170.569 50.58 170.569 49.692C170.569 48.684 171.361 48.192 172.501 48.072L173.509 47.964V47.46C173.509 46.68 173.269 46.128 172.345 46.128C171.877 46.128 171.529 46.272 171.181 46.452L170.833 45.744C171.337 45.444 171.853 45.252 172.573 45.252C173.701 45.252 174.457 45.912 174.457 47.028V49.704L174.637 50.94ZM173.509 49.836V48.612L172.633 48.732C171.913 48.828 171.517 49.056 171.517 49.572C171.517 50.04 171.805 50.352 172.285 50.352C172.849 50.352 173.197 50.112 173.509 49.836ZM180.33 45.384L178.458 50.484C177.858 52.14 177.054 53.136 175.098 53.532L174.918 52.752C176.346 52.464 177.102 51.6 177.474 50.664L175.458 45.468L176.406 45.216L177.954 49.392H177.966L179.382 45.384H180.33ZM189.036 51H188.088V47.352C188.088 46.524 187.776 46.104 187.008 46.104C186.468 46.104 186.012 46.368 185.712 46.668C185.712 46.668 185.748 46.872 185.748 47.088V51H184.788V47.352C184.788 46.524 184.476 46.104 183.72 46.104C183.18 46.104 182.796 46.32 182.448 46.644V51H181.488V46.68L181.32 45.444L182.268 45.288L182.364 45.948H182.376C182.796 45.54 183.348 45.252 184.044 45.252C184.692 45.252 185.232 45.54 185.52 46.056H185.532C185.976 45.612 186.552 45.252 187.344 45.252C188.304 45.252 189.036 45.864 189.036 47.016V51ZM194.845 50.7C194.305 51 193.753 51.132 193.069 51.132C191.413 51.132 190.561 50.016 190.561 48.156C190.561 46.416 191.473 45.252 192.889 45.252C194.245 45.252 194.797 46.152 194.797 47.388V48.06H191.497C191.509 49.56 192.049 50.28 193.273 50.28C193.741 50.28 194.101 50.148 194.509 49.944L194.845 50.7ZM193.897 47.388C193.897 46.548 193.585 46.02 192.841 46.02C192.121 46.02 191.665 46.584 191.545 47.388H193.897ZM200.537 51H199.577V47.352C199.577 46.524 199.265 46.104 198.509 46.104C197.969 46.104 197.585 46.332 197.237 46.644V51H196.277V46.68L196.109 45.444L197.057 45.288L197.153 45.948H197.165C197.585 45.54 198.137 45.252 198.833 45.252C199.781 45.252 200.537 45.864 200.537 47.016V51ZM205.238 50.772C204.89 50.964 204.566 51.12 203.954 51.12C203.09 51.12 202.538 50.556 202.538 49.596V46.164H201.71V45.528L202.538 45.36V44.424L203.486 44.304V45.384H205.058V46.164H203.486V49.272C203.486 50.028 203.678 50.268 204.23 50.268C204.53 50.268 204.758 50.148 204.926 50.04L205.238 50.772ZM209.772 49.368C209.772 50.388 208.968 51.12 207.768 51.12C207.192 51.12 206.616 51.036 206.16 50.82L206.448 49.98C206.844 50.16 207.288 50.304 207.72 50.304C208.368 50.304 208.8 50.052 208.8 49.524C208.8 49.116 208.584 48.948 208.212 48.78L207.168 48.3C206.796 48.132 206.124 47.796 206.124 46.824C206.124 45.756 207.06 45.252 208.08 45.252C208.692 45.252 209.124 45.348 209.604 45.552L209.28 46.38C208.896 46.212 208.524 46.092 208.068 46.092C207.456 46.092 207.06 46.284 207.06 46.764C207.06 47.184 207.42 47.352 207.648 47.46L208.716 47.964C209.46 48.312 209.772 48.756 209.772 49.368Z" fill="#00157E"/>
<path d="M320.502 33V31C320.502 29.9391 320.081 28.9217 319.33 28.1716C318.58 27.4214 317.563 27 316.502 27H308.502C307.441 27 306.424 27.4214 305.674 28.1716C304.923 28.9217 304.502 29.9391 304.502 31V33" stroke="#00157E" stroke-width="2" stroke-linecap="round" stroke-linejoin="round"/>
<path d="M312.502 23C314.711 23 316.502 21.2091 316.502 19C316.502 16.7909 314.711 15 312.502 15C310.293 15 308.502 16.7909 308.502 19C308.502 21.2091 310.293 23 312.502 23Z" stroke="#00157E" stroke-width="2" stroke-linecap="round" stroke-linejoin="round"/>
<path d="M303.195 45.564C303.195 47.256 301.815 48.108 300.207 48.108H300.027V51H299.031V43.836C299.031 43.836 299.931 43.704 300.879 43.704C302.283 43.704 303.195 44.376 303.195 45.564ZM302.211 45.744C302.211 44.856 301.623 44.46 300.711 44.46C300.327 44.46 300.027 44.508 300.027 44.508V47.34H300.183C301.251 47.34 302.211 46.86 302.211 45.744ZM307.011 46.212C306.363 46.212 305.883 46.38 305.451 46.776V51H304.491V46.68L304.323 45.444L305.271 45.288L305.367 46.056H305.379C305.763 45.624 306.267 45.264 307.011 45.264V46.212ZM312.458 48.192C312.458 49.836 311.678 51.132 310.058 51.132C308.282 51.132 307.658 49.872 307.658 48.192C307.658 46.548 308.438 45.252 310.058 45.252C311.834 45.252 312.458 46.512 312.458 48.192ZM311.474 48.216C311.474 46.824 311.006 46.092 310.058 46.092C309.134 46.092 308.642 46.74 308.642 48.156C308.642 49.548 309.11 50.292 310.058 50.292C310.982 50.292 311.474 49.632 311.474 48.216ZM317.837 51H316.889V46.164H314.981V51H314.033V46.164H313.205V45.528L314.033 45.36V44.916C314.033 43.704 314.801 42.816 316.169 42.816C316.793 42.816 317.189 43.008 317.477 43.164L317.129 43.932C316.985 43.836 316.625 43.632 316.169 43.632C315.293 43.632 314.981 44.124 314.981 44.808V45.384H317.837V51ZM320.697 51H319.737V44.196L319.569 42.96L320.697 42.804V51ZM326.497 50.7C325.957 51 325.405 51.132 324.721 51.132C323.065 51.132 322.213 50.016 322.213 48.156C322.213 46.416 323.125 45.252 324.541 45.252C325.897 45.252 326.449 46.152 326.449 47.388V48.06H323.149C323.161 49.56 323.701 50.28 324.925 50.28C325.393 50.28 325.753 50.148 326.161 49.944L326.497 50.7ZM325.549 47.388C325.549 46.548 325.237 46.02 324.493 46.02C323.773 46.02 323.317 46.584 323.197 47.388H325.549Z" fill="#00157E"/>
</svg>
