<svg width="420" height="44" viewBox="0 0 420 44" fill="none" xmlns="http://www.w3.org/2000/svg">
<path d="M0 4C0 1.79086 1.79086 0 4 0H416C418.209 0 420 1.79086 420 4V40C420 42.2091 418.209 44 416 44H4C1.79086 44 0 42.2091 0 40V4Z" fill="#00157E" fill-opacity="0.05"/>
<path d="M69.7151 26.84L68.4031 27.208L67.3791 23.88H64.2431L63.2671 27H61.8591L65.2031 17.368H66.5791L69.7151 26.84ZM67.0911 22.92L65.8431 18.76H65.8271L64.5311 22.92H67.0911ZM76.1198 19.656L75.7198 20.808C75.3038 20.648 74.8398 20.504 74.3118 20.504C72.9038 20.504 72.0558 21.56 72.0558 23.144C72.0558 25.144 72.8398 26.056 74.2798 26.056C74.7918 26.056 75.2078 25.88 75.6238 25.704L76.0558 26.744C75.4318 27.032 74.7438 27.176 74.0238 27.176C71.8798 27.176 70.7758 25.64 70.7758 23.352C70.7758 20.6 72.4718 19.336 74.3758 19.336C75.0318 19.336 75.5918 19.448 76.1198 19.656ZM81.7818 26.696C81.3178 26.952 80.8858 27.16 80.0698 27.16C78.9178 27.16 78.1818 26.408 78.1818 25.128V20.552H77.0778V19.704L78.1818 19.48V18.232L79.4458 18.072V19.512H81.5418V20.552H79.4458V24.696C79.4458 25.704 79.7018 26.024 80.4378 26.024C80.8378 26.024 81.1418 25.864 81.3658 25.72L81.7818 26.696ZM84.8029 27H83.5229V21.24L83.2989 19.592L84.8029 19.384V27ZM85.0589 17.56C85.0589 18.072 84.6589 18.456 84.1789 18.456C83.6829 18.456 83.2669 18.072 83.2669 17.56C83.2669 17.048 83.6829 16.648 84.1789 16.648C84.6589 16.648 85.0589 17.048 85.0589 17.56ZM92.8219 19.512L90.1179 26.984L88.8539 27.032L86.3899 19.624L87.6699 19.304L89.5419 25.336H89.5579L91.5419 19.512H92.8219ZM99.4566 26.6C98.7366 27 98.0006 27.176 97.0886 27.176C94.8806 27.176 93.7446 25.688 93.7446 23.208C93.7446 20.888 94.9606 19.336 96.8486 19.336C98.6566 19.336 99.3926 20.536 99.3926 22.184V23.08H94.9926C95.0086 25.08 95.7286 26.04 97.3606 26.04C97.9846 26.04 98.4646 25.864 99.0086 25.592L99.4566 26.6ZM98.1926 22.184C98.1926 21.064 97.7766 20.36 96.7846 20.36C95.8246 20.36 95.2166 21.112 95.0566 22.184H98.1926ZM110.645 22.808C110.645 25.304 109.349 27.16 106.981 27.16C106.149 27.16 105.237 27.016 104.693 26.808V17.928L104.469 16.28L105.973 16.072V20.088H105.989C106.469 19.688 107.109 19.336 107.957 19.336C109.717 19.336 110.645 20.6 110.645 22.808ZM109.349 23.272C109.349 21.624 108.965 20.504 107.509 20.504C106.837 20.504 106.357 20.776 105.973 21.112V25.928C106.293 26.008 106.613 26.056 107.093 26.056C108.581 26.056 109.349 24.792 109.349 23.272ZM118.598 26.92L117.334 27.128L117.206 26.264H117.19C116.63 26.792 115.894 27.176 114.966 27.176C113.702 27.176 112.694 26.36 112.694 24.824V21.24L112.47 19.592L113.974 19.384V24.376C113.974 25.48 114.39 26.056 115.398 26.056C116.118 26.056 116.63 25.752 117.094 25.32V21.24L116.87 19.592L118.374 19.384V25.272L118.598 26.92ZM124.672 26.696C124.208 26.952 123.776 27.16 122.96 27.16C121.808 27.16 121.072 26.408 121.072 25.128V20.552H119.968V19.704L121.072 19.48V18.232L122.336 18.072V19.512H124.432V20.552H122.336V24.696C122.336 25.704 122.592 26.024 123.328 26.024C123.728 26.024 124.032 25.864 124.256 25.72L124.672 26.696ZM130.126 26.696C129.662 26.952 129.23 27.16 128.414 27.16C127.262 27.16 126.526 26.408 126.526 25.128V20.552H125.422V19.704L126.526 19.48V18.232L127.79 18.072V19.512H129.886V20.552H127.79V24.696C127.79 25.704 128.046 26.024 128.782 26.024C129.182 26.024 129.486 25.864 129.71 25.72L130.126 26.696ZM137.504 23.256C137.504 25.448 136.464 27.176 134.304 27.176C131.936 27.176 131.104 25.496 131.104 23.256C131.104 21.064 132.144 19.336 134.304 19.336C136.672 19.336 137.504 21.016 137.504 23.256ZM136.192 23.288C136.192 21.432 135.568 20.456 134.304 20.456C133.072 20.456 132.416 21.32 132.416 23.208C132.416 25.064 133.04 26.056 134.304 26.056C135.536 26.056 136.192 25.176 136.192 23.288ZM145.218 27H143.938V22.136C143.938 21.032 143.522 20.472 142.514 20.472C141.794 20.472 141.282 20.776 140.818 21.192V27H139.538V21.24L139.314 19.592L140.578 19.384L140.706 20.264H140.722C141.282 19.72 142.018 19.336 142.946 19.336C144.21 19.336 145.218 20.152 145.218 21.688V27Z" fill="#00157E"/>
<path d="M218 2.5H414C415.933 2.5 417.5 4.067 417.5 6V38C417.5 39.933 415.933 41.5 414 41.5H218C216.067 41.5 214.5 39.933 214.5 38V6C214.5 4.067 216.067 2.5 218 2.5Z" fill="#00157E"/>
<path d="M218 2.5H414C415.933 2.5 417.5 4.067 417.5 6V38C417.5 39.933 415.933 41.5 414 41.5H218C216.067 41.5 214.5 39.933 214.5 38V6C214.5 4.067 216.067 2.5 218 2.5Z" stroke="#00157E"/>
<path d="M270.719 27H269.375V17.368H270.719V27ZM279.007 27H277.727V22.136C277.727 21.032 277.311 20.472 276.303 20.472C275.583 20.472 275.071 20.776 274.607 21.192V27H273.327V21.24L273.103 19.592L274.367 19.384L274.495 20.264H274.511C275.071 19.72 275.807 19.336 276.735 19.336C277.999 19.336 279.007 20.152 279.007 21.688V27ZM286.442 26.92L285.162 27.128L285.05 26.248H285.034C284.49 26.76 283.898 27.192 283.002 27.192C281.754 27.192 281.018 26.44 281.018 25.256C281.018 23.912 282.074 23.256 283.594 23.096L284.938 22.952V22.28C284.938 21.24 284.618 20.504 283.386 20.504C282.762 20.504 282.298 20.696 281.834 20.936L281.37 19.992C282.042 19.592 282.73 19.336 283.69 19.336C285.194 19.336 286.202 20.216 286.202 21.704V25.272L286.442 26.92ZM284.938 25.448V23.816L283.77 23.976C282.81 24.104 282.282 24.408 282.282 25.096C282.282 25.72 282.666 26.136 283.306 26.136C284.058 26.136 284.522 25.816 284.938 25.448ZM293.612 19.656L293.212 20.808C292.796 20.648 292.332 20.504 291.804 20.504C290.396 20.504 289.548 21.56 289.548 23.144C289.548 25.144 290.332 26.056 291.772 26.056C292.284 26.056 292.7 25.88 293.116 25.704L293.548 26.744C292.924 27.032 292.236 27.176 291.516 27.176C289.372 27.176 288.268 25.64 288.268 23.352C288.268 20.6 289.964 19.336 291.868 19.336C292.524 19.336 293.084 19.448 293.612 19.656ZM299.274 26.696C298.81 26.952 298.378 27.16 297.562 27.16C296.41 27.16 295.674 26.408 295.674 25.128V20.552H294.57V19.704L295.674 19.48V18.232L296.938 18.072V19.512H299.034V20.552H296.938V24.696C296.938 25.704 297.194 26.024 297.93 26.024C298.33 26.024 298.634 25.864 298.858 25.72L299.274 26.696ZM302.295 27H301.015V21.24L300.791 19.592L302.295 19.384V27ZM302.551 17.56C302.551 18.072 302.151 18.456 301.671 18.456C301.175 18.456 300.759 18.072 300.759 17.56C300.759 17.048 301.175 16.648 301.671 16.648C302.151 16.648 302.551 17.048 302.551 17.56ZM310.314 19.512L307.61 26.984L306.346 27.032L303.882 19.624L305.162 19.304L307.034 25.336H307.05L309.034 19.512H310.314ZM316.949 26.6C316.229 27 315.493 27.176 314.581 27.176C312.373 27.176 311.237 25.688 311.237 23.208C311.237 20.888 312.453 19.336 314.341 19.336C316.149 19.336 316.885 20.536 316.885 22.184V23.08H312.485C312.501 25.08 313.221 26.04 314.853 26.04C315.477 26.04 315.957 25.864 316.501 25.592L316.949 26.6ZM315.685 22.184C315.685 21.064 315.269 20.36 314.277 20.36C313.317 20.36 312.709 21.112 312.549 22.184H315.685ZM328.138 22.808C328.138 25.304 326.842 27.16 324.474 27.16C323.642 27.16 322.73 27.016 322.186 26.808V17.928L321.962 16.28L323.466 16.072V20.088H323.482C323.962 19.688 324.602 19.336 325.45 19.336C327.21 19.336 328.138 20.6 328.138 22.808ZM326.842 23.272C326.842 21.624 326.458 20.504 325.002 20.504C324.33 20.504 323.85 20.776 323.466 21.112V25.928C323.786 26.008 324.106 26.056 324.586 26.056C326.074 26.056 326.842 24.792 326.842 23.272ZM336.09 26.92L334.826 27.128L334.698 26.264H334.682C334.122 26.792 333.386 27.176 332.458 27.176C331.194 27.176 330.186 26.36 330.186 24.824V21.24L329.962 19.592L331.466 19.384V24.376C331.466 25.48 331.882 26.056 332.89 26.056C333.61 26.056 334.122 25.752 334.586 25.32V21.24L334.362 19.592L335.866 19.384V25.272L336.09 26.92ZM342.165 26.696C341.701 26.952 341.269 27.16 340.453 27.16C339.301 27.16 338.565 26.408 338.565 25.128V20.552H337.461V19.704L338.565 19.48V18.232L339.829 18.072V19.512H341.925V20.552H339.829V24.696C339.829 25.704 340.085 26.024 340.821 26.024C341.221 26.024 341.525 25.864 341.749 25.72L342.165 26.696ZM347.618 26.696C347.154 26.952 346.722 27.16 345.906 27.16C344.754 27.16 344.018 26.408 344.018 25.128V20.552H342.914V19.704L344.018 19.48V18.232L345.282 18.072V19.512H347.378V20.552H345.282V24.696C345.282 25.704 345.538 26.024 346.274 26.024C346.674 26.024 346.978 25.864 347.202 25.72L347.618 26.696ZM354.996 23.256C354.996 25.448 353.956 27.176 351.796 27.176C349.428 27.176 348.596 25.496 348.596 23.256C348.596 21.064 349.636 19.336 351.796 19.336C354.164 19.336 354.996 21.016 354.996 23.256ZM353.684 23.288C353.684 21.432 353.06 20.456 351.796 20.456C350.564 20.456 349.908 21.32 349.908 23.208C349.908 25.064 350.532 26.056 351.796 26.056C353.028 26.056 353.684 25.176 353.684 23.288ZM362.71 27H361.43V22.136C361.43 21.032 361.014 20.472 360.006 20.472C359.286 20.472 358.774 20.776 358.31 21.192V27H357.03V21.24L356.806 19.592L358.07 19.384L358.198 20.264H358.214C358.774 19.72 359.51 19.336 360.438 19.336C361.702 19.336 362.71 20.152 362.71 21.688V27Z" fill="white"/>
</svg>
