<svg width="555" height="353" viewBox="0 0 555 353" fill="none" xmlns="http://www.w3.org/2000/svg">
<path d="M0 8C0 3.58172 3.58172 0 8 0H546.667C551.085 0 554.667 3.58172 554.667 8V345.001C554.667 349.419 551.085 353.001 546.667 353.001H8C3.58172 353.001 0 349.419 0 345.001V8Z" fill="white"/>
<path d="M8 0.5H546.667C550.809 0.500196 554.167 3.85799 554.167 8V345.001C554.167 349.143 550.809 352.501 546.667 352.501H8C3.85786 352.501 0.5 349.143 0.5 345.001V8C0.5 3.85786 3.85786 0.5 8 0.5Z" stroke="#00157E" stroke-opacity="0.2"/>
<path d="M16 16.001C16 13.7918 17.7909 12.001 20 12.001H44C46.2091 12.001 48 13.7918 48 16.001V40.001C48 42.2101 46.2091 44.001 44 44.001H20C17.7909 44.001 16 42.2101 16 40.001V16.001Z" fill="#00157E" fill-opacity="0.05"/>
<path d="M26 25.001L32 31.001L38 25.001" stroke="#00157E" stroke-width="2" stroke-linecap="round" stroke-linejoin="round"/>
<path d="M70.02 25.659C70.02 27.633 68.41 28.627 66.534 28.627H66.324V32.001H65.162V23.643C65.162 23.643 66.212 23.489 67.318 23.489C68.956 23.489 70.02 24.273 70.02 25.659ZM68.872 25.869C68.872 24.833 68.186 24.371 67.122 24.371C66.674 24.371 66.324 24.427 66.324 24.427V27.731H66.506C67.752 27.731 68.872 27.171 68.872 25.869ZM75.9454 31.651C75.3154 32.001 74.6714 32.155 73.8734 32.155C71.9414 32.155 70.9474 30.853 70.9474 28.683C70.9474 26.653 72.0114 25.295 73.6634 25.295C75.2454 25.295 75.8894 26.345 75.8894 27.787V28.571H72.0394C72.0534 30.321 72.6834 31.161 74.1114 31.161C74.6574 31.161 75.0774 31.007 75.5534 30.769L75.9454 31.651ZM74.8394 27.787C74.8394 26.807 74.4754 26.191 73.6074 26.191C72.7674 26.191 72.2354 26.849 72.0954 27.787H74.8394ZM82.5861 32.001H81.4661V27.745C81.4661 26.779 81.1021 26.289 80.2201 26.289C79.5901 26.289 79.1421 26.555 78.7361 26.919V32.001H77.6161V26.961L77.4201 25.519L78.5261 25.337L78.6381 26.107H78.6521C79.1421 25.631 79.7861 25.295 80.5981 25.295C81.7041 25.295 82.5861 26.009 82.5861 27.353V32.001ZM89.7078 31.959L88.6298 32.113L88.5318 31.455H88.5178C88.0978 31.805 87.5238 32.155 86.7538 32.155C85.3118 32.155 84.3458 30.965 84.3458 29.019C84.3458 26.765 85.5078 25.379 87.4958 25.379C88.0278 25.379 88.4058 25.477 88.4058 25.477V24.063L88.1958 22.621L89.5118 22.439V30.517L89.7078 31.959ZM87.1458 31.175C87.6918 31.175 88.0698 30.951 88.4058 30.685V26.499C88.4058 26.499 88.0418 26.317 87.3978 26.317C86.1238 26.317 85.4938 27.395 85.4938 28.669C85.4938 30.251 85.9138 31.175 87.1458 31.175ZM92.9008 32.001H91.7808V26.961L91.5848 25.519L92.9008 25.337V32.001ZM93.1248 23.741C93.1248 24.189 92.7748 24.525 92.3548 24.525C91.9208 24.525 91.5568 24.189 91.5568 23.741C91.5568 23.293 91.9208 22.943 92.3548 22.943C92.7748 22.943 93.1248 23.293 93.1248 23.741ZM100.113 32.001H98.9934V27.745C98.9934 26.779 98.6294 26.289 97.7474 26.289C97.1174 26.289 96.6694 26.555 96.2634 26.919V32.001H95.1434V26.961L94.9474 25.519L96.0534 25.337L96.1654 26.107H96.1794C96.6694 25.631 97.3134 25.295 98.1254 25.295C99.2314 25.295 100.113 26.009 100.113 27.353V32.001ZM107.669 26.275H106.353C106.549 26.611 106.661 27.003 106.661 27.479C106.661 28.809 105.695 29.705 104.351 29.705C104.085 29.705 103.833 29.663 103.609 29.607C103.609 29.607 103.161 29.859 103.161 30.363C103.161 30.797 103.483 30.881 103.931 30.881H105.807C106.955 30.881 107.627 31.231 107.627 32.253C107.627 33.541 106.311 34.997 103.917 34.997C102.545 34.997 101.705 34.325 101.705 33.177C101.705 32.099 102.587 31.567 102.587 31.567C102.307 31.385 102.125 31.105 102.125 30.643C102.125 29.831 102.825 29.425 102.965 29.355C102.349 28.977 102.013 28.333 102.013 27.479C102.013 26.149 102.993 25.267 104.351 25.267C104.855 25.267 105.317 25.379 105.681 25.603L107.669 25.295V26.275ZM106.647 32.421C106.647 31.945 106.241 31.847 105.555 31.847H103.791C103.595 31.847 103.413 31.833 103.231 31.805C103.231 31.805 102.699 32.225 102.699 32.925C102.699 33.681 103.161 34.087 104.169 34.087C105.779 34.087 106.647 33.135 106.647 32.421ZM105.611 27.479C105.611 26.569 105.107 26.107 104.351 26.107C103.623 26.107 103.063 26.597 103.063 27.479C103.063 28.403 103.581 28.865 104.351 28.865C105.065 28.865 105.611 28.375 105.611 27.479ZM117.249 28.403C117.249 30.531 116.325 32.071 114.141 32.071C113.777 32.071 113.483 32.043 113.217 31.973V34.773L112.097 34.955V26.961L111.901 25.519L113.007 25.337L113.105 26.009H113.119C113.553 25.645 114.127 25.295 114.883 25.295C116.479 25.295 117.249 26.499 117.249 28.403ZM116.129 28.725C116.129 27.297 115.807 26.303 114.505 26.303C113.945 26.303 113.539 26.541 113.217 26.807V30.937C113.483 31.049 113.791 31.119 114.225 31.119C115.443 31.119 116.129 30.167 116.129 28.725ZM123.326 31.931L122.206 32.113L122.108 31.343H122.094C121.618 31.791 121.1 32.169 120.316 32.169C119.224 32.169 118.58 31.511 118.58 30.475C118.58 29.299 119.504 28.725 120.834 28.585L122.01 28.459V27.871C122.01 26.961 121.73 26.317 120.652 26.317C120.106 26.317 119.7 26.485 119.294 26.695L118.888 25.869C119.476 25.519 120.078 25.295 120.918 25.295C122.234 25.295 123.116 26.065 123.116 27.367V30.489L123.326 31.931ZM122.01 30.643V29.215L120.988 29.355C120.148 29.467 119.686 29.733 119.686 30.335C119.686 30.881 120.022 31.245 120.582 31.245C121.24 31.245 121.646 30.965 122.01 30.643ZM129.968 25.449L127.784 31.399C127.084 33.331 126.146 34.493 123.864 34.955L123.654 34.045C125.32 33.709 126.202 32.701 126.636 31.609L124.284 25.547L125.39 25.253L127.196 30.125H127.21L128.862 25.449H129.968ZM140.125 32.001H139.019V27.745C139.019 26.779 138.655 26.289 137.759 26.289C137.129 26.289 136.597 26.597 136.247 26.947C136.247 26.947 136.289 27.185 136.289 27.437V32.001H135.169V27.745C135.169 26.779 134.805 26.289 133.923 26.289C133.293 26.289 132.845 26.541 132.439 26.919V32.001H131.319V26.961L131.123 25.519L132.229 25.337L132.341 26.107H132.355C132.845 25.631 133.489 25.295 134.301 25.295C135.057 25.295 135.687 25.631 136.023 26.233H136.037C136.555 25.715 137.227 25.295 138.151 25.295C139.271 25.295 140.125 26.009 140.125 27.353V32.001ZM146.902 31.651C146.272 32.001 145.628 32.155 144.83 32.155C142.898 32.155 141.904 30.853 141.904 28.683C141.904 26.653 142.968 25.295 144.62 25.295C146.202 25.295 146.846 26.345 146.846 27.787V28.571H142.996C143.01 30.321 143.64 31.161 145.068 31.161C145.614 31.161 146.034 31.007 146.51 30.769L146.902 31.651ZM145.796 27.787C145.796 26.807 145.432 26.191 144.564 26.191C143.724 26.191 143.192 26.849 143.052 27.787H145.796ZM153.543 32.001H152.423V27.745C152.423 26.779 152.059 26.289 151.177 26.289C150.547 26.289 150.099 26.555 149.693 26.919V32.001H148.573V26.961L148.377 25.519L149.483 25.337L149.595 26.107H149.609C150.099 25.631 150.743 25.295 151.555 25.295C152.661 25.295 153.543 26.009 153.543 27.353V32.001ZM159.027 31.735C158.621 31.959 158.243 32.141 157.529 32.141C156.521 32.141 155.877 31.483 155.877 30.363V26.359H154.911V25.617L155.877 25.421V24.329L156.983 24.189V25.449H158.817V26.359H156.983V29.985C156.983 30.867 157.207 31.147 157.851 31.147C158.201 31.147 158.467 31.007 158.663 30.881L159.027 31.735ZM164.316 30.097C164.316 31.287 163.378 32.141 161.978 32.141C161.306 32.141 160.634 32.043 160.102 31.791L160.438 30.811C160.9 31.021 161.418 31.189 161.922 31.189C162.678 31.189 163.182 30.895 163.182 30.279C163.182 29.803 162.93 29.607 162.496 29.411L161.278 28.851C160.844 28.655 160.06 28.263 160.06 27.129C160.06 25.883 161.152 25.295 162.342 25.295C163.056 25.295 163.56 25.407 164.12 25.645L163.742 26.611C163.294 26.415 162.86 26.275 162.328 26.275C161.614 26.275 161.152 26.499 161.152 27.059C161.152 27.549 161.572 27.745 161.838 27.871L163.084 28.459C163.952 28.865 164.316 29.383 164.316 30.097ZM174.192 31.931L173.086 32.113L172.974 31.357H172.96C172.47 31.819 171.826 32.155 171.014 32.155C169.908 32.155 169.026 31.441 169.026 30.097V26.961L168.83 25.519L170.146 25.337V29.705C170.146 30.671 170.51 31.175 171.392 31.175C172.022 31.175 172.47 30.909 172.876 30.531V26.961L172.68 25.519L173.996 25.337V30.489L174.192 31.931ZM181.201 32.001H180.081V27.745C180.081 26.779 179.717 26.289 178.835 26.289C178.205 26.289 177.757 26.555 177.351 26.919V32.001H176.231V26.961L176.035 25.519L177.141 25.337L177.253 26.107H177.267C177.757 25.631 178.401 25.295 179.213 25.295C180.319 25.295 181.201 26.009 181.201 27.353V32.001ZM186.685 31.735C186.279 31.959 185.901 32.141 185.187 32.141C184.179 32.141 183.535 31.483 183.535 30.363V26.359H182.569V25.617L183.535 25.421V24.329L184.641 24.189V25.449H186.475V26.359H184.641V29.985C184.641 30.867 184.865 31.147 185.509 31.147C185.859 31.147 186.125 31.007 186.321 30.881L186.685 31.735ZM189.329 32.001H188.209V26.961L188.013 25.519L189.329 25.337V32.001ZM189.553 23.741C189.553 24.189 189.203 24.525 188.783 24.525C188.349 24.525 187.985 24.189 187.985 23.741C187.985 23.293 188.349 22.943 188.783 22.943C189.203 22.943 189.553 23.293 189.553 23.741ZM192.663 32.001H191.543V24.063L191.347 22.621L192.663 22.439V32.001ZM201.851 31.441C201.851 33.121 200.773 34.185 198.925 34.185C198.379 34.185 197.805 34.087 197.287 33.961L197.539 32.911C198.001 33.051 198.393 33.163 198.953 33.163C200.059 33.163 200.731 32.617 200.731 31.609C200.731 30.237 199.471 29.705 197.693 29.705V28.907C199.765 28.781 200.339 27.857 200.339 26.947C200.339 26.149 199.849 25.701 199.065 25.701C198.421 25.701 198.043 25.911 197.623 26.191L197.161 25.421C197.665 25.029 198.309 24.707 199.289 24.707C200.633 24.707 201.459 25.505 201.459 26.807C201.459 27.941 200.801 28.697 199.863 29.145V29.159C201.235 29.453 201.851 30.363 201.851 31.441ZM205.381 32.001H204.275V25.813L203.043 25.981L202.917 25.127L205.381 24.735V32.001ZM208.91 31.287C208.91 31.735 208.546 32.099 208.112 32.099C207.664 32.099 207.3 31.735 207.3 31.287C207.3 30.853 207.664 30.489 208.112 30.489C208.546 30.489 208.91 30.853 208.91 31.287ZM216.155 28.431C216.155 30.293 215.427 32.155 213.313 32.155C211.185 32.155 210.457 30.293 210.457 28.431C210.457 26.569 211.185 24.707 213.313 24.707C215.427 24.707 216.155 26.569 216.155 28.431ZM215.007 28.431C215.007 26.863 214.489 25.687 213.313 25.687C212.123 25.687 211.605 26.863 211.605 28.431C211.605 29.999 212.123 31.175 213.313 31.175C214.489 31.175 215.007 29.999 215.007 28.431ZM222.198 30.741C222.198 33.429 219.664 34.185 217.858 34.325L217.718 33.373C218.992 33.233 221.05 32.729 221.05 30.895C221.05 29.747 220.406 29.075 218.614 29.075H217.676L217.984 24.861H221.974V25.883H218.95L218.768 28.235C218.768 28.235 219.09 28.207 219.384 28.207C221.008 28.207 222.198 29.061 222.198 30.741ZM225.234 31.287C225.234 31.735 224.87 32.099 224.436 32.099C223.988 32.099 223.624 31.735 223.624 31.287C223.624 30.853 223.988 30.489 224.436 30.489C224.87 30.489 225.234 30.853 225.234 31.287ZM231.779 32.001H226.585V31.273L228.979 28.977C229.623 28.347 230.113 27.885 230.113 27.115C230.113 26.303 229.609 25.701 228.671 25.701C228.041 25.701 227.593 25.981 227.257 26.261L226.725 25.519C227.327 25.015 227.943 24.707 228.909 24.707C230.295 24.707 231.247 25.519 231.247 26.989C231.247 27.969 230.659 28.711 229.987 29.327L228.195 30.979V30.993H231.779V32.001ZM238.659 28.431C238.659 30.293 237.931 32.155 235.817 32.155C233.689 32.155 232.961 30.293 232.961 28.431C232.961 26.569 233.689 24.707 235.817 24.707C237.931 24.707 238.659 26.569 238.659 28.431ZM237.511 28.431C237.511 26.863 236.993 25.687 235.817 25.687C234.627 25.687 234.109 26.863 234.109 28.431C234.109 29.999 234.627 31.175 235.817 31.175C236.993 31.175 237.511 29.999 237.511 28.431ZM245 32.001H239.806V31.273L242.2 28.977C242.844 28.347 243.334 27.885 243.334 27.115C243.334 26.303 242.83 25.701 241.892 25.701C241.262 25.701 240.814 25.981 240.478 26.261L239.946 25.519C240.548 25.015 241.164 24.707 242.13 24.707C243.516 24.707 244.468 25.519 244.468 26.989C244.468 27.969 243.88 28.711 243.208 29.327L241.416 30.979V30.993H245V32.001ZM251.348 29.439C251.348 31.091 250.368 32.155 248.786 32.155C246.994 32.155 246.238 30.825 246.238 28.851C246.238 25.043 248.478 23.475 250.914 23.279L251.054 24.203C249.374 24.385 247.694 25.295 247.372 27.633L247.386 27.647C247.386 27.647 248.1 27.031 249.066 27.031C250.536 27.031 251.348 27.969 251.348 29.439ZM250.242 29.663C250.242 28.473 249.78 27.969 248.758 27.969C247.96 27.969 247.372 28.529 247.372 28.529V28.795C247.372 30.363 247.778 31.231 248.884 31.231C249.808 31.231 250.242 30.573 250.242 29.663Z" fill="#00157E"/>
<path d="M469.631 30.629C468.959 30.977 468.275 31.133 467.363 31.133C465.599 31.133 464.243 29.945 464.243 27.545C464.243 24.989 465.755 23.645 467.699 23.645C468.503 23.645 468.995 23.765 469.607 24.029L469.223 24.905C468.767 24.701 468.335 24.545 467.687 24.545C466.427 24.545 465.275 25.517 465.275 27.293C465.275 29.273 466.007 30.245 467.759 30.245C468.335 30.245 468.863 30.017 469.295 29.825L469.631 30.629ZM476.153 31.001H475.145V27.701H471.893V31.001H470.885V23.777H471.893V26.849H475.145V23.777H476.153V31.001ZM481.739 24.629H479.147V26.981H481.487V27.833H479.147V31.001H478.151V23.777H481.739V24.629Z" fill="#00157E" fill-opacity="0.7"/>
<path d="M497.102 32.001H491.908V31.273L494.302 28.977C494.946 28.347 495.436 27.885 495.436 27.115C495.436 26.303 494.932 25.701 493.994 25.701C493.364 25.701 492.916 25.981 492.58 26.261L492.048 25.519C492.65 25.015 493.266 24.707 494.232 24.707C495.618 24.707 496.57 25.519 496.57 26.989C496.57 27.969 495.982 28.711 495.31 29.327L493.518 30.979V30.993H497.102V32.001ZM499.936 24.371C499.936 25.393 499.516 26.177 498.662 26.681L498.34 26.261C498.76 25.953 498.984 25.561 499.054 25.057C498.662 25.001 498.326 24.665 498.326 24.259C498.326 23.797 498.69 23.447 499.138 23.447C499.586 23.447 499.936 23.811 499.936 24.371ZM506.019 30.741C506.019 33.429 503.485 34.185 501.679 34.325L501.539 33.373C502.813 33.233 504.871 32.729 504.871 30.895C504.871 29.747 504.227 29.075 502.435 29.075H501.497L501.805 24.861H505.795V25.883H502.771L502.589 28.235C502.589 28.235 502.911 28.207 503.205 28.207C504.829 28.207 506.019 29.061 506.019 30.741ZM513.101 28.431C513.101 30.293 512.373 32.155 510.259 32.155C508.131 32.155 507.403 30.293 507.403 28.431C507.403 26.569 508.131 24.707 510.259 24.707C512.373 24.707 513.101 26.569 513.101 28.431ZM511.953 28.431C511.953 26.863 511.435 25.687 510.259 25.687C509.069 25.687 508.551 26.863 508.551 28.431C508.551 29.999 509.069 31.175 510.259 31.175C511.435 31.175 511.953 29.999 511.953 28.431ZM520.306 28.431C520.306 30.293 519.578 32.155 517.464 32.155C515.336 32.155 514.608 30.293 514.608 28.431C514.608 26.569 515.336 24.707 517.464 24.707C519.578 24.707 520.306 26.569 520.306 28.431ZM519.158 28.431C519.158 26.863 518.64 25.687 517.464 25.687C516.274 25.687 515.756 26.863 515.756 28.431C515.756 29.999 516.274 31.175 517.464 31.175C518.64 31.175 519.158 29.999 519.158 28.431ZM523.465 31.287C523.465 31.735 523.101 32.099 522.667 32.099C522.219 32.099 521.855 31.735 521.855 31.287C521.855 30.853 522.219 30.489 522.667 30.489C523.101 30.489 523.465 30.853 523.465 31.287ZM530.711 28.431C530.711 30.293 529.983 32.155 527.869 32.155C525.741 32.155 525.013 30.293 525.013 28.431C525.013 26.569 525.741 24.707 527.869 24.707C529.983 24.707 530.711 26.569 530.711 28.431ZM529.563 28.431C529.563 26.863 529.045 25.687 527.869 25.687C526.679 25.687 526.161 26.863 526.161 28.431C526.161 29.999 526.679 31.175 527.869 31.175C529.045 31.175 529.563 29.999 529.563 28.431ZM537.916 28.431C537.916 30.293 537.188 32.155 535.074 32.155C532.946 32.155 532.218 30.293 532.218 28.431C532.218 26.569 532.946 24.707 535.074 24.707C537.188 24.707 537.916 26.569 537.916 28.431ZM536.768 28.431C536.768 26.863 536.25 25.687 535.074 25.687C533.884 25.687 533.366 26.863 533.366 28.431C533.366 29.999 533.884 31.175 535.074 31.175C536.25 31.175 536.768 29.999 536.768 28.431Z" fill="#00157E"/>
<g clip-path="url(#clip0_445_10761)">
<rect y="56.001" width="554.667" height="1" fill="#00157E" fill-opacity="0.2"/>
</g>
<g clip-path="url(#clip1_445_10761)">
<path d="M21.964 73.567H19.612V81.001H18.436V73.567H16.084V72.573H21.964V73.567ZM27.3853 77.725C27.3853 79.643 26.4753 81.155 24.5853 81.155C22.5133 81.155 21.7853 79.685 21.7853 77.725C21.7853 75.807 22.6953 74.295 24.5853 74.295C26.6573 74.295 27.3853 75.765 27.3853 77.725ZM26.2373 77.753C26.2373 76.129 25.6913 75.275 24.5853 75.275C23.5073 75.275 22.9333 76.031 22.9333 77.683C22.9333 79.307 23.4793 80.175 24.5853 80.175C25.6633 80.175 26.2373 79.405 26.2373 77.753ZM34.0789 80.959L33.0009 81.113L32.9029 80.455H32.8889C32.4689 80.805 31.8949 81.155 31.1249 81.155C29.6829 81.155 28.7169 79.965 28.7169 78.019C28.7169 75.765 29.8789 74.379 31.8669 74.379C32.3989 74.379 32.7769 74.477 32.7769 74.477V73.063L32.5669 71.621L33.8829 71.439V79.517L34.0789 80.959ZM31.5169 80.175C32.0629 80.175 32.4409 79.951 32.7769 79.685V75.499C32.7769 75.499 32.4129 75.317 31.7689 75.317C30.4949 75.317 29.8649 76.395 29.8649 77.669C29.8649 79.251 30.2849 80.175 31.5169 80.175ZM40.4219 80.931L39.3019 81.113L39.2039 80.343H39.1899C38.7139 80.791 38.1959 81.169 37.4119 81.169C36.3199 81.169 35.6759 80.511 35.6759 79.475C35.6759 78.299 36.5999 77.725 37.9299 77.585L39.1059 77.459V76.871C39.1059 75.961 38.8259 75.317 37.7479 75.317C37.2019 75.317 36.7959 75.485 36.3899 75.695L35.9839 74.869C36.5719 74.519 37.1739 74.295 38.0139 74.295C39.3299 74.295 40.2119 75.065 40.2119 76.367V79.489L40.4219 80.931ZM39.1059 79.643V78.215L38.0839 78.355C37.2439 78.467 36.7819 78.733 36.7819 79.335C36.7819 79.881 37.1179 80.245 37.6779 80.245C38.3359 80.245 38.7419 79.965 39.1059 79.643ZM47.0633 74.449L44.8793 80.399C44.1793 82.331 43.2413 83.493 40.9593 83.955L40.7493 83.045C42.4153 82.709 43.2973 81.701 43.7313 80.609L41.3793 74.547L42.4853 74.253L44.2913 79.125H44.3053L45.9573 74.449H47.0633Z" fill="#00157E" fill-opacity="0.7"/>
</g>
<path d="M468.631 79.629C467.959 79.977 467.275 80.133 466.363 80.133C464.599 80.133 463.243 78.945 463.243 76.545C463.243 73.989 464.755 72.645 466.699 72.645C467.503 72.645 467.995 72.765 468.607 73.029L468.223 73.905C467.767 73.701 467.335 73.545 466.687 73.545C465.427 73.545 464.275 74.517 464.275 76.293C464.275 78.273 465.007 79.245 466.759 79.245C467.335 79.245 467.863 79.017 468.295 78.825L468.631 79.629ZM475.153 80.001H474.145V76.701H470.893V80.001H469.885V72.777H470.893V75.849H474.145V72.777H475.153V80.001ZM480.739 73.629H478.147V75.981H480.487V76.833H478.147V80.001H477.151V72.777H480.739V73.629Z" fill="#00157E" fill-opacity="0.7"/>
<path d="M496.09 77.319C496.09 81.183 494.13 82.989 491.344 83.325L491.12 82.415C492.884 82.205 494.662 81.071 494.914 78.397L494.9 78.383C494.9 78.383 494.242 78.943 493.248 78.943C491.848 78.943 490.938 77.893 490.938 76.451C490.938 74.701 491.988 73.707 493.57 73.707C495.194 73.707 496.09 74.827 496.09 77.319ZM494.928 77.305C494.928 75.919 494.676 74.659 493.43 74.659C492.548 74.659 492.03 75.387 492.03 76.297C492.03 77.459 492.562 78.019 493.556 78.019C494.41 78.019 494.928 77.515 494.928 77.515V77.305ZM499.307 73.371C499.307 74.393 498.887 75.177 498.033 75.681L497.711 75.261C498.131 74.953 498.355 74.561 498.425 74.057C498.033 74.001 497.697 73.665 497.697 73.259C497.697 72.797 498.061 72.447 498.509 72.447C498.957 72.447 499.307 72.811 499.307 73.371ZM505.838 77.319C505.838 81.183 503.878 82.989 501.092 83.325L500.868 82.415C502.632 82.205 504.41 81.071 504.662 78.397L504.648 78.383C504.648 78.383 503.99 78.943 502.996 78.943C501.596 78.943 500.686 77.893 500.686 76.451C500.686 74.701 501.736 73.707 503.318 73.707C504.942 73.707 505.838 74.827 505.838 77.319ZM504.676 77.305C504.676 75.919 504.424 74.659 503.178 74.659C502.296 74.659 501.778 75.387 501.778 76.297C501.778 77.459 502.31 78.019 503.304 78.019C504.158 78.019 504.676 77.515 504.676 77.515V77.305ZM513.101 77.431C513.101 79.293 512.373 81.155 510.259 81.155C508.131 81.155 507.403 79.293 507.403 77.431C507.403 75.569 508.131 73.707 510.259 73.707C512.373 73.707 513.101 75.569 513.101 77.431ZM511.953 77.431C511.953 75.863 511.435 74.687 510.259 74.687C509.069 74.687 508.551 75.863 508.551 77.431C508.551 78.999 509.069 80.175 510.259 80.175C511.435 80.175 511.953 78.999 511.953 77.431ZM520.306 77.431C520.306 79.293 519.578 81.155 517.464 81.155C515.336 81.155 514.608 79.293 514.608 77.431C514.608 75.569 515.336 73.707 517.464 73.707C519.578 73.707 520.306 75.569 520.306 77.431ZM519.158 77.431C519.158 75.863 518.64 74.687 517.464 74.687C516.274 74.687 515.756 75.863 515.756 77.431C515.756 78.999 516.274 80.175 517.464 80.175C518.64 80.175 519.158 78.999 519.158 77.431ZM523.465 80.287C523.465 80.735 523.101 81.099 522.667 81.099C522.219 81.099 521.855 80.735 521.855 80.287C521.855 79.853 522.219 79.489 522.667 79.489C523.101 79.489 523.465 79.853 523.465 80.287ZM530.711 77.431C530.711 79.293 529.983 81.155 527.869 81.155C525.741 81.155 525.013 79.293 525.013 77.431C525.013 75.569 525.741 73.707 527.869 73.707C529.983 73.707 530.711 75.569 530.711 77.431ZM529.563 77.431C529.563 75.863 529.045 74.687 527.869 74.687C526.679 74.687 526.161 75.863 526.161 77.431C526.161 78.999 526.679 80.175 527.869 80.175C529.045 80.175 529.563 78.999 529.563 77.431ZM537.916 77.431C537.916 79.293 537.188 81.155 535.074 81.155C532.946 81.155 532.218 79.293 532.218 77.431C532.218 75.569 532.946 73.707 535.074 73.707C537.188 73.707 537.916 75.569 537.916 77.431ZM536.768 77.431C536.768 75.863 536.25 74.687 535.074 74.687C533.884 74.687 533.366 75.863 533.366 77.431C533.366 78.999 533.884 80.175 535.074 80.175C536.25 80.175 536.768 78.999 536.768 77.431Z" fill="#00157E" fill-opacity="0.7"/>
<g clip-path="url(#clip2_445_10761)">
<path d="M31 111.001L36 106.001L31 101.001" stroke="#00157E" stroke-width="2" stroke-linecap="round" stroke-linejoin="round"/>
<path d="M20 117.001V110.001C20 108.94 20.4214 107.923 21.1716 107.173C21.9217 106.422 22.9391 106.001 24 106.001H36" stroke="#00157E" stroke-width="2" stroke-linecap="round" stroke-linejoin="round"/>
<path d="M63.154 112.861L62.006 113.183L61.11 110.271H58.366L57.512 113.001H56.28L59.206 104.573H60.41L63.154 112.861ZM60.858 109.431L59.766 105.791H59.752L58.618 109.431H60.858ZM69.6822 109.403C69.6822 111.531 68.7582 113.071 66.5742 113.071C66.2102 113.071 65.9162 113.043 65.6502 112.973V115.773L64.5302 115.955V107.961L64.3342 106.519L65.4402 106.337L65.5382 107.009H65.5522C65.9862 106.645 66.5602 106.295 67.3162 106.295C68.9122 106.295 69.6822 107.499 69.6822 109.403ZM68.5622 109.725C68.5622 108.297 68.2402 107.303 66.9382 107.303C66.3782 107.303 65.9722 107.541 65.6502 107.807V111.937C65.9162 112.049 66.2242 112.119 66.6582 112.119C67.8762 112.119 68.5622 111.167 68.5622 109.725ZM76.6138 109.403C76.6138 111.531 75.6898 113.071 73.5058 113.071C73.1418 113.071 72.8478 113.043 72.5818 112.973V115.773L71.4618 115.955V107.961L71.2658 106.519L72.3718 106.337L72.4698 107.009H72.4838C72.9178 106.645 73.4918 106.295 74.2478 106.295C75.8438 106.295 76.6138 107.499 76.6138 109.403ZM75.4938 109.725C75.4938 108.297 75.1718 107.303 73.8698 107.303C73.3098 107.303 72.9038 107.541 72.5818 107.807V111.937C72.8478 112.049 73.1558 112.119 73.5898 112.119C74.8078 112.119 75.4938 111.167 75.4938 109.725ZM79.4854 113.001H78.3654V105.063L78.1694 103.621L79.4854 103.439V113.001ZM86.252 112.651C85.622 113.001 84.978 113.155 84.18 113.155C82.248 113.155 81.254 111.853 81.254 109.683C81.254 107.653 82.318 106.295 83.97 106.295C85.552 106.295 86.196 107.345 86.196 108.787V109.571H82.346C82.36 111.321 82.99 112.161 84.418 112.161C84.964 112.161 85.384 112.007 85.86 111.769L86.252 112.651ZM85.146 108.787C85.146 107.807 84.782 107.191 83.914 107.191C83.074 107.191 82.542 107.849 82.402 108.787H85.146Z" fill="#00157E"/>
</g>
<path d="M474.631 112.629C473.959 112.977 473.275 113.133 472.363 113.133C470.599 113.133 469.243 111.945 469.243 109.545C469.243 106.989 470.755 105.645 472.699 105.645C473.503 105.645 473.995 105.765 474.607 106.029L474.223 106.905C473.767 106.701 473.335 106.545 472.687 106.545C471.427 106.545 470.275 107.517 470.275 109.293C470.275 111.273 471.007 112.245 472.759 112.245C473.335 112.245 473.863 112.017 474.295 111.825L474.631 112.629ZM481.153 113.001H480.145V109.701H476.893V113.001H475.885V105.777H476.893V108.849H480.145V105.777H481.153V113.001ZM486.739 106.629H484.147V108.981H486.487V109.833H484.147V113.001H483.151V105.777H486.739V106.629Z" fill="#00157E" fill-opacity="0.7"/>
<path d="M502.413 109.389H496.771V108.465H502.413V109.389ZM505.526 113.001H504.42V106.813L503.188 106.981L503.062 106.127L505.526 105.735V113.001ZM513.101 109.431C513.101 111.293 512.373 113.155 510.259 113.155C508.131 113.155 507.403 111.293 507.403 109.431C507.403 107.569 508.131 105.707 510.259 105.707C512.373 105.707 513.101 107.569 513.101 109.431ZM511.953 109.431C511.953 107.863 511.435 106.687 510.259 106.687C509.069 106.687 508.551 107.863 508.551 109.431C508.551 110.999 509.069 112.175 510.259 112.175C511.435 112.175 511.953 110.999 511.953 109.431ZM520.306 109.431C520.306 111.293 519.578 113.155 517.464 113.155C515.336 113.155 514.608 111.293 514.608 109.431C514.608 107.569 515.336 105.707 517.464 105.707C519.578 105.707 520.306 107.569 520.306 109.431ZM519.158 109.431C519.158 107.863 518.64 106.687 517.464 106.687C516.274 106.687 515.756 107.863 515.756 109.431C515.756 110.999 516.274 112.175 517.464 112.175C518.64 112.175 519.158 110.999 519.158 109.431ZM523.465 112.287C523.465 112.735 523.101 113.099 522.667 113.099C522.219 113.099 521.855 112.735 521.855 112.287C521.855 111.853 522.219 111.489 522.667 111.489C523.101 111.489 523.465 111.853 523.465 112.287ZM530.711 109.431C530.711 111.293 529.983 113.155 527.869 113.155C525.741 113.155 525.013 111.293 525.013 109.431C525.013 107.569 525.741 105.707 527.869 105.707C529.983 105.707 530.711 107.569 530.711 109.431ZM529.563 109.431C529.563 107.863 529.045 106.687 527.869 106.687C526.679 106.687 526.161 107.863 526.161 109.431C526.161 110.999 526.679 112.175 527.869 112.175C529.045 112.175 529.563 110.999 529.563 109.431ZM537.916 109.431C537.916 111.293 537.188 113.155 535.074 113.155C532.946 113.155 532.218 111.293 532.218 109.431C532.218 107.569 532.946 105.707 535.074 105.707C537.188 105.707 537.916 107.569 537.916 109.431ZM536.768 109.431C536.768 107.863 536.25 106.687 535.074 106.687C533.884 106.687 533.366 107.863 533.366 109.431C533.366 110.999 533.884 112.175 535.074 112.175C536.25 112.175 536.768 110.999 536.768 109.431Z" fill="#00157E"/>
<g clip-path="url(#clip3_445_10761)">
<path d="M22.426 148.573L19.766 153.445V157.001H18.59V153.515L16.07 148.797L17.12 148.307L19.192 152.325H19.206L21.194 148.573H22.426ZM27.3575 156.651C26.7275 157.001 26.0835 157.155 25.2855 157.155C23.3535 157.155 22.3595 155.853 22.3595 153.683C22.3595 151.653 23.4235 150.295 25.0755 150.295C26.6575 150.295 27.3015 151.345 27.3015 152.787V153.571H23.4515C23.4655 155.321 24.0955 156.161 25.5235 156.161C26.0695 156.161 26.4895 156.007 26.9655 155.769L27.3575 156.651ZM26.2515 152.787C26.2515 151.807 25.8875 151.191 25.0195 151.191C24.1795 151.191 23.6475 151.849 23.5075 152.787H26.2515ZM32.8222 155.097C32.8222 156.287 31.8842 157.141 30.4842 157.141C29.8122 157.141 29.1402 157.043 28.6082 156.791L28.9442 155.811C29.4062 156.021 29.9242 156.189 30.4282 156.189C31.1842 156.189 31.6882 155.895 31.6882 155.279C31.6882 154.803 31.4362 154.607 31.0022 154.411L29.7842 153.851C29.3502 153.655 28.5662 153.263 28.5662 152.129C28.5662 150.883 29.6582 150.295 30.8482 150.295C31.5622 150.295 32.0662 150.407 32.6262 150.645L32.2482 151.611C31.8002 151.415 31.3662 151.275 30.8342 151.275C30.1202 151.275 29.6582 151.499 29.6582 152.059C29.6582 152.549 30.0782 152.745 30.3442 152.871L31.5902 153.459C32.4582 153.865 32.8222 154.383 32.8222 155.097ZM37.8687 156.735C37.4627 156.959 37.0847 157.141 36.3707 157.141C35.3627 157.141 34.7187 156.483 34.7187 155.363V151.359H33.7527V150.617L34.7187 150.421V149.329L35.8247 149.189V150.449H37.6587V151.359H35.8247V154.985C35.8247 155.867 36.0487 156.147 36.6927 156.147C37.0427 156.147 37.3087 156.007 37.5047 155.881L37.8687 156.735ZM43.7227 156.651C43.0927 157.001 42.4487 157.155 41.6507 157.155C39.7187 157.155 38.7247 155.853 38.7247 153.683C38.7247 151.653 39.7887 150.295 41.4407 150.295C43.0227 150.295 43.6667 151.345 43.6667 152.787V153.571H39.8167C39.8307 155.321 40.4607 156.161 41.8887 156.161C42.4347 156.161 42.8547 156.007 43.3307 155.769L43.7227 156.651ZM42.6167 152.787C42.6167 151.807 42.2527 151.191 41.3847 151.191C40.5447 151.191 40.0127 151.849 39.8727 152.787H42.6167ZM48.3334 151.415C47.5774 151.415 47.0174 151.611 46.5134 152.073V157.001H45.3934V151.961L45.1974 150.519L46.3034 150.337L46.4154 151.233H46.4294C46.8774 150.729 47.4654 150.309 48.3334 150.309V151.415ZM54.45 156.959L53.372 157.113L53.274 156.455H53.26C52.84 156.805 52.266 157.155 51.496 157.155C50.054 157.155 49.088 155.965 49.088 154.019C49.088 151.765 50.25 150.379 52.238 150.379C52.77 150.379 53.148 150.477 53.148 150.477V149.063L52.938 147.621L54.254 147.439V155.517L54.45 156.959ZM51.888 156.175C52.434 156.175 52.812 155.951 53.148 155.685V151.499C53.148 151.499 52.784 151.317 52.14 151.317C50.866 151.317 50.236 152.395 50.236 153.669C50.236 155.251 50.656 156.175 51.888 156.175ZM60.793 156.931L59.673 157.113L59.575 156.343H59.561C59.085 156.791 58.567 157.169 57.783 157.169C56.691 157.169 56.047 156.511 56.047 155.475C56.047 154.299 56.971 153.725 58.301 153.585L59.477 153.459V152.871C59.477 151.961 59.197 151.317 58.119 151.317C57.573 151.317 57.167 151.485 56.761 151.695L56.355 150.869C56.943 150.519 57.545 150.295 58.385 150.295C59.701 150.295 60.583 151.065 60.583 152.367V155.489L60.793 156.931ZM59.477 155.643V154.215L58.455 154.355C57.615 154.467 57.153 154.733 57.153 155.335C57.153 155.881 57.489 156.245 58.049 156.245C58.707 156.245 59.113 155.965 59.477 155.643ZM67.4344 150.449L65.2504 156.399C64.5504 158.331 63.6124 159.493 61.3304 159.955L61.1204 159.045C62.7864 158.709 63.6684 157.701 64.1024 156.609L61.7504 150.547L62.8564 150.253L64.6624 155.125H64.6764L66.3284 150.449H67.4344Z" fill="#00157E" fill-opacity="0.7"/>
</g>
<path d="M462.099 153.073C462.099 155.137 460.935 156.157 459.375 156.157C457.707 156.157 456.639 155.317 456.639 153.049V148.777H457.671V153.097C457.671 154.525 458.223 155.197 459.339 155.197C460.455 155.197 461.139 154.513 461.139 153.121V148.777H462.099V153.073ZM467.981 153.973C467.981 155.233 467.105 156.133 465.653 156.133C464.909 156.133 464.249 155.977 463.685 155.737L463.997 154.861C464.465 155.077 465.017 155.257 465.581 155.257C466.457 155.257 467.021 154.921 467.021 154.129C467.021 153.541 466.589 153.253 466.013 152.977L464.885 152.437C464.129 152.077 463.613 151.609 463.613 150.589C463.613 149.353 464.693 148.645 465.941 148.645C466.613 148.645 467.045 148.753 467.669 148.981L467.333 149.833C466.949 149.653 466.529 149.485 466.001 149.485C465.257 149.485 464.585 149.785 464.585 150.553C464.585 151.069 464.897 151.321 465.377 151.549L466.529 152.113C467.441 152.557 467.981 153.049 467.981 153.973ZM475.135 151.933C475.135 154.573 473.551 156.001 470.983 156.001H469.471V148.825C469.471 148.825 470.467 148.705 471.535 148.705C473.767 148.705 475.135 149.869 475.135 151.933ZM474.091 152.077C474.091 150.373 472.939 149.557 471.367 149.557C470.863 149.557 470.479 149.581 470.479 149.581V155.101H471.175C472.891 155.101 474.091 154.081 474.091 152.077Z" fill="#00157E" fill-opacity="0.7"/>
<path d="M487.917 157.001H486.811V150.813L485.579 150.981L485.453 150.127L487.917 149.735V157.001ZM495.492 153.431C495.492 155.293 494.764 157.155 492.65 157.155C490.522 157.155 489.794 155.293 489.794 153.431C489.794 151.569 490.522 149.707 492.65 149.707C494.764 149.707 495.492 151.569 495.492 153.431ZM494.344 153.431C494.344 151.863 493.826 150.687 492.65 150.687C491.46 150.687 490.942 151.863 490.942 153.431C490.942 154.999 491.46 156.175 492.65 156.175C493.826 156.175 494.344 154.999 494.344 153.431ZM498.651 149.371C498.651 150.393 498.231 151.177 497.377 151.681L497.055 151.261C497.475 150.953 497.699 150.561 497.769 150.057C497.377 150.001 497.041 149.665 497.041 149.259C497.041 148.797 497.405 148.447 497.853 148.447C498.301 148.447 498.651 148.811 498.651 149.371ZM505.896 153.431C505.896 155.293 505.168 157.155 503.054 157.155C500.926 157.155 500.198 155.293 500.198 153.431C500.198 151.569 500.926 149.707 503.054 149.707C505.168 149.707 505.896 151.569 505.896 153.431ZM504.748 153.431C504.748 151.863 504.23 150.687 503.054 150.687C501.864 150.687 501.346 151.863 501.346 153.431C501.346 154.999 501.864 156.175 503.054 156.175C504.23 156.175 504.748 154.999 504.748 153.431ZM513.101 153.431C513.101 155.293 512.373 157.155 510.259 157.155C508.131 157.155 507.403 155.293 507.403 153.431C507.403 151.569 508.131 149.707 510.259 149.707C512.373 149.707 513.101 151.569 513.101 153.431ZM511.953 153.431C511.953 151.863 511.435 150.687 510.259 150.687C509.069 150.687 508.551 151.863 508.551 153.431C508.551 154.999 509.069 156.175 510.259 156.175C511.435 156.175 511.953 154.999 511.953 153.431ZM520.306 153.431C520.306 155.293 519.578 157.155 517.464 157.155C515.336 157.155 514.608 155.293 514.608 153.431C514.608 151.569 515.336 149.707 517.464 149.707C519.578 149.707 520.306 151.569 520.306 153.431ZM519.158 153.431C519.158 151.863 518.64 150.687 517.464 150.687C516.274 150.687 515.756 151.863 515.756 153.431C515.756 154.999 516.274 156.175 517.464 156.175C518.64 156.175 519.158 154.999 519.158 153.431ZM523.465 156.287C523.465 156.735 523.101 157.099 522.667 157.099C522.219 157.099 521.855 156.735 521.855 156.287C521.855 155.853 522.219 155.489 522.667 155.489C523.101 155.489 523.465 155.853 523.465 156.287ZM530.711 153.431C530.711 155.293 529.983 157.155 527.869 157.155C525.741 157.155 525.013 155.293 525.013 153.431C525.013 151.569 525.741 149.707 527.869 149.707C529.983 149.707 530.711 151.569 530.711 153.431ZM529.563 153.431C529.563 151.863 529.045 150.687 527.869 150.687C526.679 150.687 526.161 151.863 526.161 153.431C526.161 154.999 526.679 156.175 527.869 156.175C529.045 156.175 529.563 154.999 529.563 153.431ZM537.916 153.431C537.916 155.293 537.188 157.155 535.074 157.155C532.946 157.155 532.218 155.293 532.218 153.431C532.218 151.569 532.946 149.707 535.074 149.707C537.188 149.707 537.916 151.569 537.916 153.431ZM536.768 153.431C536.768 151.863 536.25 150.687 535.074 150.687C533.884 150.687 533.366 151.863 533.366 153.431C533.366 154.999 533.884 156.175 535.074 156.175C536.25 156.175 536.768 154.999 536.768 153.431Z" fill="#00157E" fill-opacity="0.7"/>
<g clip-path="url(#clip4_445_10761)">
<path d="M31 187.001L36 182.001L31 177.001" stroke="#00157E" stroke-width="2" stroke-linecap="round" stroke-linejoin="round"/>
<path d="M20 193.001V186.001C20 184.94 20.4214 183.923 21.1716 183.173C21.9217 182.422 22.9391 182.001 24 182.001H36" stroke="#00157E" stroke-width="2" stroke-linecap="round" stroke-linejoin="round"/>
<path d="M62.958 188.567C62.174 188.973 61.376 189.155 60.312 189.155C58.254 189.155 56.672 187.769 56.672 184.969C56.672 181.987 58.436 180.419 60.704 180.419C61.642 180.419 62.216 180.559 62.93 180.867L62.482 181.889C61.95 181.651 61.446 181.469 60.69 181.469C59.22 181.469 57.876 182.603 57.876 184.675C57.876 186.985 58.73 188.119 60.774 188.119C61.446 188.119 62.062 187.853 62.566 187.629L62.958 188.567ZM68.6778 188.931L67.5578 189.113L67.4598 188.343H67.4458C66.9698 188.791 66.4518 189.169 65.6678 189.169C64.5758 189.169 63.9318 188.511 63.9318 187.475C63.9318 186.299 64.8558 185.725 66.1858 185.585L67.3618 185.459V184.871C67.3618 183.961 67.0818 183.317 66.0038 183.317C65.4578 183.317 65.0518 183.485 64.6458 183.695L64.2398 182.869C64.8278 182.519 65.4298 182.295 66.2698 182.295C67.5858 182.295 68.4678 183.065 68.4678 184.367V187.489L68.6778 188.931ZM67.3618 187.643V186.215L66.3398 186.355C65.4998 186.467 65.0378 186.733 65.0378 187.335C65.0378 187.881 65.3738 188.245 65.9338 188.245C66.5918 188.245 66.9978 187.965 67.3618 187.643ZM73.9575 179.579L73.7055 180.531C73.5095 180.461 73.3275 180.419 73.0475 180.419C72.4175 180.419 71.9555 180.825 71.9555 181.651V182.449H73.7615V183.359H71.9555V189.001H70.8495V183.359H69.8835V182.617L70.8495 182.421V181.735C70.8495 180.321 71.8015 179.453 73.1035 179.453C73.4535 179.453 73.7055 179.509 73.9575 179.579ZM79.3204 188.651C78.6904 189.001 78.0464 189.155 77.2484 189.155C75.3164 189.155 74.3224 187.853 74.3224 185.683C74.3224 183.653 75.3864 182.295 77.0384 182.295C78.6204 182.295 79.2644 183.345 79.2644 184.787V185.571H75.4144C75.4284 187.321 76.0584 188.161 77.4864 188.161C78.0324 188.161 78.4524 188.007 78.9284 187.769L79.3204 188.651ZM78.2144 184.787C78.2144 183.807 77.8504 183.191 76.9824 183.191C76.1424 183.191 75.6104 183.849 75.4704 184.787H78.2144Z" fill="#00157E"/>
</g>
<path d="M480.099 186.073C480.099 188.137 478.935 189.157 477.375 189.157C475.707 189.157 474.639 188.317 474.639 186.049V181.777H475.671V186.097C475.671 187.525 476.223 188.197 477.339 188.197C478.455 188.197 479.139 187.513 479.139 186.121V181.777H480.099V186.073ZM485.981 186.973C485.981 188.233 485.105 189.133 483.653 189.133C482.909 189.133 482.249 188.977 481.685 188.737L481.997 187.861C482.465 188.077 483.017 188.257 483.581 188.257C484.457 188.257 485.021 187.921 485.021 187.129C485.021 186.541 484.589 186.253 484.013 185.977L482.885 185.437C482.129 185.077 481.613 184.609 481.613 183.589C481.613 182.353 482.693 181.645 483.941 181.645C484.613 181.645 485.045 181.753 485.669 181.981L485.333 182.833C484.949 182.653 484.529 182.485 484.001 182.485C483.257 182.485 482.585 182.785 482.585 183.553C482.585 184.069 482.897 184.321 483.377 184.549L484.529 185.113C485.441 185.557 485.981 186.049 485.981 186.973ZM493.135 184.933C493.135 187.573 491.551 189.001 488.983 189.001H487.471V181.825C487.471 181.825 488.467 181.705 489.535 181.705C491.767 181.705 493.135 182.869 493.135 184.933ZM492.091 185.077C492.091 183.373 490.939 182.557 489.367 182.557C488.863 182.557 488.479 182.581 488.479 182.581V188.101H489.175C490.891 188.101 492.091 187.081 492.091 185.077Z" fill="#00157E" fill-opacity="0.7"/>
<path d="M509.618 185.389H503.976V184.465H509.618V185.389ZM512.731 189.001H511.625V182.813L510.393 182.981L510.267 182.127L512.731 181.735V189.001ZM520.306 185.431C520.306 187.293 519.578 189.155 517.464 189.155C515.336 189.155 514.608 187.293 514.608 185.431C514.608 183.569 515.336 181.707 517.464 181.707C519.578 181.707 520.306 183.569 520.306 185.431ZM519.158 185.431C519.158 183.863 518.64 182.687 517.464 182.687C516.274 182.687 515.756 183.863 515.756 185.431C515.756 186.999 516.274 188.175 517.464 188.175C518.64 188.175 519.158 186.999 519.158 185.431ZM523.465 188.287C523.465 188.735 523.101 189.099 522.667 189.099C522.219 189.099 521.855 188.735 521.855 188.287C521.855 187.853 522.219 187.489 522.667 187.489C523.101 187.489 523.465 187.853 523.465 188.287ZM530.711 185.431C530.711 187.293 529.983 189.155 527.869 189.155C525.741 189.155 525.013 187.293 525.013 185.431C525.013 183.569 525.741 181.707 527.869 181.707C529.983 181.707 530.711 183.569 530.711 185.431ZM529.563 185.431C529.563 183.863 529.045 182.687 527.869 182.687C526.679 182.687 526.161 183.863 526.161 185.431C526.161 186.999 526.679 188.175 527.869 188.175C529.045 188.175 529.563 186.999 529.563 185.431ZM537.916 185.431C537.916 187.293 537.188 189.155 535.074 189.155C532.946 189.155 532.218 187.293 532.218 185.431C532.218 183.569 532.946 181.707 535.074 181.707C537.188 181.707 537.916 183.569 537.916 185.431ZM536.768 185.431C536.768 183.863 536.25 182.687 535.074 182.687C533.884 182.687 533.366 183.863 533.366 185.431C533.366 186.999 533.884 188.175 535.074 188.175C536.25 188.175 536.768 186.999 536.768 185.431Z" fill="#00157E"/>
<g clip-path="url(#clip5_445_10761)">
<path d="M31 227.001L36 222.001L31 217.001" stroke="#00157E" stroke-width="2" stroke-linecap="round" stroke-linejoin="round"/>
<path d="M20 233.001V226.001C20 224.94 20.4214 223.923 21.1716 223.173C21.9217 222.422 22.9391 222.001 24 222.001H36" stroke="#00157E" stroke-width="2" stroke-linecap="round" stroke-linejoin="round"/>
<path d="M62.02 222.659C62.02 224.633 60.41 225.627 58.534 225.627H58.324V229.001H57.162V220.643C57.162 220.643 58.212 220.489 59.318 220.489C60.956 220.489 62.02 221.273 62.02 222.659ZM60.872 222.869C60.872 221.833 60.186 221.371 59.122 221.371C58.674 221.371 58.324 221.427 58.324 221.427V224.731H58.506C59.752 224.731 60.872 224.171 60.872 222.869ZM64.6801 229.001H63.5601V223.961L63.3641 222.519L64.6801 222.337V229.001ZM64.9041 220.741C64.9041 221.189 64.5541 221.525 64.1341 221.525C63.7001 221.525 63.3361 221.189 63.3361 220.741C63.3361 220.293 63.7001 219.943 64.1341 219.943C64.5541 219.943 64.9041 220.293 64.9041 220.741ZM71.1787 229.001H66.4467V228.245L69.6527 223.373V223.359H66.6427V222.449H71.0387V223.205L67.8607 228.063V228.077H71.1787V229.001ZM77.0576 229.001H72.3256V228.245L75.5316 223.373V223.359H72.5216V222.449H76.9176V223.205L73.7396 228.063V228.077H77.0576V229.001ZM82.9785 228.931L81.8585 229.113L81.7605 228.343H81.7465C81.2705 228.791 80.7525 229.169 79.9685 229.169C78.8765 229.169 78.2325 228.511 78.2325 227.475C78.2325 226.299 79.1565 225.725 80.4865 225.585L81.6625 225.459V224.871C81.6625 223.961 81.3825 223.317 80.3045 223.317C79.7585 223.317 79.3525 223.485 78.9465 223.695L78.5405 222.869C79.1285 222.519 79.7305 222.295 80.5705 222.295C81.8865 222.295 82.7685 223.065 82.7685 224.367V227.489L82.9785 228.931ZM81.6625 227.643V226.215L80.6405 226.355C79.8005 226.467 79.3385 226.733 79.3385 227.335C79.3385 227.881 79.6745 228.245 80.2345 228.245C80.8925 228.245 81.2985 227.965 81.6625 227.643Z" fill="#00157E"/>
</g>
<path d="M472.099 226.073C472.099 228.137 470.935 229.157 469.375 229.157C467.707 229.157 466.639 228.317 466.639 226.049V221.777H467.671V226.097C467.671 227.525 468.223 228.197 469.339 228.197C470.455 228.197 471.139 227.513 471.139 226.121V221.777H472.099V226.073ZM477.981 226.973C477.981 228.233 477.105 229.133 475.653 229.133C474.909 229.133 474.249 228.977 473.685 228.737L473.997 227.861C474.465 228.077 475.017 228.257 475.581 228.257C476.457 228.257 477.021 227.921 477.021 227.129C477.021 226.541 476.589 226.253 476.013 225.977L474.885 225.437C474.129 225.077 473.613 224.609 473.613 223.589C473.613 222.353 474.693 221.645 475.941 221.645C476.613 221.645 477.045 221.753 477.669 221.981L477.333 222.833C476.949 222.653 476.529 222.485 476.001 222.485C475.257 222.485 474.585 222.785 474.585 223.553C474.585 224.069 474.897 224.321 475.377 224.549L476.529 225.113C477.441 225.557 477.981 226.049 477.981 226.973ZM485.135 224.933C485.135 227.573 483.551 229.001 480.983 229.001H479.471V221.825C479.471 221.825 480.467 221.705 481.535 221.705C483.767 221.705 485.135 222.869 485.135 224.933ZM484.091 225.077C484.091 223.373 482.939 222.557 481.367 222.557C480.863 222.557 480.479 222.581 480.479 222.581V228.101H481.175C482.891 228.101 484.091 227.081 484.091 225.077Z" fill="#00157E" fill-opacity="0.7"/>
<path d="M501.538 225.389H495.896V224.465H501.538V225.389ZM507.055 228.441C507.055 230.121 505.977 231.185 504.129 231.185C503.583 231.185 503.009 231.087 502.491 230.961L502.743 229.911C503.205 230.051 503.597 230.163 504.157 230.163C505.263 230.163 505.935 229.617 505.935 228.609C505.935 227.237 504.675 226.705 502.897 226.705V225.907C504.969 225.781 505.543 224.857 505.543 223.947C505.543 223.149 505.053 222.701 504.269 222.701C503.625 222.701 503.247 222.911 502.827 223.191L502.365 222.421C502.869 222.029 503.513 221.707 504.493 221.707C505.837 221.707 506.663 222.505 506.663 223.807C506.663 224.941 506.005 225.697 505.067 226.145V226.159C506.439 226.453 507.055 227.363 507.055 228.441ZM513.427 229.001H508.233V228.273L510.627 225.977C511.271 225.347 511.761 224.885 511.761 224.115C511.761 223.303 511.257 222.701 510.319 222.701C509.689 222.701 509.241 222.981 508.905 223.261L508.373 222.519C508.975 222.015 509.591 221.707 510.557 221.707C511.943 221.707 512.895 222.519 512.895 223.989C512.895 224.969 512.307 225.711 511.635 226.327L509.843 227.979V227.993H513.427V229.001ZM520.306 225.431C520.306 227.293 519.578 229.155 517.464 229.155C515.336 229.155 514.608 227.293 514.608 225.431C514.608 223.569 515.336 221.707 517.464 221.707C519.578 221.707 520.306 223.569 520.306 225.431ZM519.158 225.431C519.158 223.863 518.64 222.687 517.464 222.687C516.274 222.687 515.756 223.863 515.756 225.431C515.756 226.999 516.274 228.175 517.464 228.175C518.64 228.175 519.158 226.999 519.158 225.431ZM523.465 228.287C523.465 228.735 523.101 229.099 522.667 229.099C522.219 229.099 521.855 228.735 521.855 228.287C521.855 227.853 522.219 227.489 522.667 227.489C523.101 227.489 523.465 227.853 523.465 228.287ZM530.711 225.431C530.711 227.293 529.983 229.155 527.869 229.155C525.741 229.155 525.013 227.293 525.013 225.431C525.013 223.569 525.741 221.707 527.869 221.707C529.983 221.707 530.711 223.569 530.711 225.431ZM529.563 225.431C529.563 223.863 529.045 222.687 527.869 222.687C526.679 222.687 526.161 223.863 526.161 225.431C526.161 226.999 526.679 228.175 527.869 228.175C529.045 228.175 529.563 226.999 529.563 225.431ZM537.916 225.431C537.916 227.293 537.188 229.155 535.074 229.155C532.946 229.155 532.218 227.293 532.218 225.431C532.218 223.569 532.946 221.707 535.074 221.707C537.188 221.707 537.916 223.569 537.916 225.431ZM536.768 225.431C536.768 223.863 536.25 222.687 535.074 222.687C533.884 222.687 533.366 223.863 533.366 225.431C533.366 226.999 533.884 228.175 535.074 228.175C536.25 228.175 536.768 226.999 536.768 225.431Z" fill="#00157E"/>
<g clip-path="url(#clip6_445_10761)">
<path d="M31 267.001L36 262.001L31 257.001" stroke="#00157E" stroke-width="2" stroke-linecap="round" stroke-linejoin="round"/>
<path d="M20 273.001V266.001C20 264.94 20.4214 263.923 21.1716 263.173C21.9217 262.422 22.9391 262.001 24 262.001H36" stroke="#00157E" stroke-width="2" stroke-linecap="round" stroke-linejoin="round"/>
<path d="M62.552 268.735L61.516 269.239L59.15 265.403C58.94 265.431 58.744 265.445 58.534 265.445H58.324V269.001H57.162V260.643C57.162 260.643 58.226 260.489 59.318 260.489C60.942 260.489 61.964 261.273 61.964 262.603C61.964 263.891 61.222 264.689 60.228 265.081L62.552 268.735ZM60.83 262.813C60.83 261.805 60.13 261.371 59.122 261.371C58.674 261.371 58.324 261.413 58.324 261.413V264.591H58.506C59.64 264.591 60.83 264.115 60.83 262.813ZM68.2813 268.931L67.1613 269.113L67.0633 268.343H67.0493C66.5733 268.791 66.0553 269.169 65.2713 269.169C64.1793 269.169 63.5353 268.511 63.5353 267.475C63.5353 266.299 64.4593 265.725 65.7893 265.585L66.9653 265.459V264.871C66.9653 263.961 66.6853 263.317 65.6073 263.317C65.0613 263.317 64.6553 263.485 64.2493 263.695L63.8433 262.869C64.4313 262.519 65.0333 262.295 65.8733 262.295C67.1893 262.295 68.0713 263.065 68.0713 264.367V267.489L68.2813 268.931ZM66.9653 267.643V266.215L65.9433 266.355C65.1033 266.467 64.6413 266.733 64.6413 267.335C64.6413 267.881 64.9773 268.245 65.5373 268.245C66.1953 268.245 66.6013 267.965 66.9653 267.643ZM71.475 269.001H70.355V263.961L70.159 262.519L71.475 262.337V269.001ZM71.699 260.741C71.699 261.189 71.349 261.525 70.929 261.525C70.495 261.525 70.131 261.189 70.131 260.741C70.131 260.293 70.495 259.943 70.929 259.943C71.349 259.943 71.699 260.293 71.699 260.741ZM74.8097 269.001H73.6897V261.063L73.4937 259.621L74.8097 259.439V269.001ZM84.8803 262.449L83.0743 268.973L82.0383 269.029L80.4423 264.059H80.4283L78.8183 268.987L77.7823 269.029L76.1443 262.519L77.2083 262.253L78.3843 267.363H78.3983L79.9243 262.449H81.0163L82.5563 267.363H82.5703L83.7883 262.449H84.8803ZM90.4571 268.931L89.3371 269.113L89.2391 268.343H89.2251C88.7491 268.791 88.2311 269.169 87.4471 269.169C86.3551 269.169 85.7111 268.511 85.7111 267.475C85.7111 266.299 86.6351 265.725 87.9651 265.585L89.1411 265.459V264.871C89.1411 263.961 88.8611 263.317 87.7831 263.317C87.2371 263.317 86.8311 263.485 86.4251 263.695L86.0191 262.869C86.6071 262.519 87.2091 262.295 88.0491 262.295C89.3651 262.295 90.2471 263.065 90.2471 264.367V267.489L90.4571 268.931ZM89.1411 267.643V266.215L88.1191 266.355C87.2791 266.467 86.8171 266.733 86.8171 267.335C86.8171 267.881 87.1531 268.245 87.7131 268.245C88.3711 268.245 88.7771 267.965 89.1411 267.643ZM97.0984 262.449L94.9144 268.399C94.2144 270.331 93.2764 271.493 90.9944 271.955L90.7844 271.045C92.4504 270.709 93.3324 269.701 93.7664 268.609L91.4144 262.547L92.5204 262.253L94.3264 267.125H94.3404L95.9924 262.449H97.0984Z" fill="#00157E"/>
</g>
<path d="M473.099 266.073C473.099 268.137 471.935 269.157 470.375 269.157C468.707 269.157 467.639 268.317 467.639 266.049V261.777H468.671V266.097C468.671 267.525 469.223 268.197 470.339 268.197C471.455 268.197 472.139 267.513 472.139 266.121V261.777H473.099V266.073ZM478.981 266.973C478.981 268.233 478.105 269.133 476.653 269.133C475.909 269.133 475.249 268.977 474.685 268.737L474.997 267.861C475.465 268.077 476.017 268.257 476.581 268.257C477.457 268.257 478.021 267.921 478.021 267.129C478.021 266.541 477.589 266.253 477.013 265.977L475.885 265.437C475.129 265.077 474.613 264.609 474.613 263.589C474.613 262.353 475.693 261.645 476.941 261.645C477.613 261.645 478.045 261.753 478.669 261.981L478.333 262.833C477.949 262.653 477.529 262.485 477.001 262.485C476.257 262.485 475.585 262.785 475.585 263.553C475.585 264.069 475.897 264.321 476.377 264.549L477.529 265.113C478.441 265.557 478.981 266.049 478.981 266.973ZM486.135 264.933C486.135 267.573 484.551 269.001 481.983 269.001H480.471V261.825C480.471 261.825 481.467 261.705 482.535 261.705C484.767 261.705 486.135 262.869 486.135 264.933ZM485.091 265.077C485.091 263.373 483.939 262.557 482.367 262.557C481.863 262.557 481.479 262.581 481.479 262.581V268.101H482.175C483.891 268.101 485.091 267.081 485.091 265.077Z" fill="#00157E" fill-opacity="0.7"/>
<path d="M502.413 265.389H496.771V264.465H502.413V265.389ZM505.526 269.001H504.42V262.813L503.188 262.981L503.062 262.127L505.526 261.735V269.001ZM513.101 265.431C513.101 267.293 512.373 269.155 510.259 269.155C508.131 269.155 507.403 267.293 507.403 265.431C507.403 263.569 508.131 261.707 510.259 261.707C512.373 261.707 513.101 263.569 513.101 265.431ZM511.953 265.431C511.953 263.863 511.435 262.687 510.259 262.687C509.069 262.687 508.551 263.863 508.551 265.431C508.551 266.999 509.069 268.175 510.259 268.175C511.435 268.175 511.953 266.999 511.953 265.431ZM520.306 265.431C520.306 267.293 519.578 269.155 517.464 269.155C515.336 269.155 514.608 267.293 514.608 265.431C514.608 263.569 515.336 261.707 517.464 261.707C519.578 261.707 520.306 263.569 520.306 265.431ZM519.158 265.431C519.158 263.863 518.64 262.687 517.464 262.687C516.274 262.687 515.756 263.863 515.756 265.431C515.756 266.999 516.274 268.175 517.464 268.175C518.64 268.175 519.158 266.999 519.158 265.431ZM523.465 268.287C523.465 268.735 523.101 269.099 522.667 269.099C522.219 269.099 521.855 268.735 521.855 268.287C521.855 267.853 522.219 267.489 522.667 267.489C523.101 267.489 523.465 267.853 523.465 268.287ZM530.711 265.431C530.711 267.293 529.983 269.155 527.869 269.155C525.741 269.155 525.013 267.293 525.013 265.431C525.013 263.569 525.741 261.707 527.869 261.707C529.983 261.707 530.711 263.569 530.711 265.431ZM529.563 265.431C529.563 263.863 529.045 262.687 527.869 262.687C526.679 262.687 526.161 263.863 526.161 265.431C526.161 266.999 526.679 268.175 527.869 268.175C529.045 268.175 529.563 266.999 529.563 265.431ZM537.916 265.431C537.916 267.293 537.188 269.155 535.074 269.155C532.946 269.155 532.218 267.293 532.218 265.431C532.218 263.569 532.946 261.707 535.074 261.707C537.188 261.707 537.916 263.569 537.916 265.431ZM536.768 265.431C536.768 263.863 536.25 262.687 535.074 262.687C533.884 262.687 533.366 263.863 533.366 265.431C533.366 266.999 533.884 268.175 535.074 268.175C536.25 268.175 536.768 266.999 536.768 265.431Z" fill="#00157E"/>
<path d="M16 309.001C16 306.792 17.7909 305.001 20 305.001H534.667C536.876 305.001 538.667 306.792 538.667 309.001V333.001C538.667 335.21 536.876 337.001 534.667 337.001H20C17.7909 337.001 16 335.21 16 333.001V309.001Z" fill="#00157E" fill-opacity="0.05"/>
<path d="M217.635 322.635C217.635 324.105 216.613 325.155 214.919 325.155C214.051 325.155 213.281 324.973 212.623 324.693L212.987 323.671C213.533 323.923 214.177 324.133 214.835 324.133C215.857 324.133 216.515 323.741 216.515 322.817C216.515 322.131 216.011 321.795 215.339 321.473L214.023 320.843C213.141 320.423 212.539 319.877 212.539 318.687C212.539 317.245 213.799 316.419 215.255 316.419C216.039 316.419 216.543 316.545 217.271 316.811L216.879 317.805C216.431 317.595 215.941 317.399 215.325 317.399C214.457 317.399 213.673 317.749 213.673 318.645C213.673 319.247 214.037 319.541 214.597 319.807L215.941 320.465C217.005 320.983 217.635 321.557 217.635 322.635ZM224.26 325.001H223.154V320.745C223.154 319.793 222.776 319.303 221.88 319.303C221.236 319.303 220.802 319.583 220.424 319.919V325.001H219.304V317.063L219.108 315.621L220.424 315.439V319.023H220.438C220.872 318.645 221.474 318.295 222.286 318.295C223.406 318.295 224.26 318.995 224.26 320.353V325.001ZM231.635 321.725C231.635 323.643 230.725 325.155 228.835 325.155C226.763 325.155 226.035 323.685 226.035 321.725C226.035 319.807 226.945 318.295 228.835 318.295C230.907 318.295 231.635 319.765 231.635 321.725ZM230.487 321.753C230.487 320.129 229.941 319.275 228.835 319.275C227.757 319.275 227.183 320.031 227.183 321.683C227.183 323.307 227.729 324.175 228.835 324.175C229.913 324.175 230.487 323.405 230.487 321.753ZM241.268 318.449L239.462 324.973L238.426 325.029L236.83 320.059H236.816L235.206 324.987L234.17 325.029L232.532 318.519L233.596 318.253L234.772 323.363H234.786L236.312 318.449H237.404L238.944 323.363H238.958L240.176 318.449H241.268ZM249.976 324.931L248.856 325.113L248.758 324.343H248.744C248.268 324.791 247.75 325.169 246.966 325.169C245.874 325.169 245.23 324.511 245.23 323.475C245.23 322.299 246.154 321.725 247.484 321.585L248.66 321.459V320.871C248.66 319.961 248.38 319.317 247.302 319.317C246.756 319.317 246.35 319.485 245.944 319.695L245.538 318.869C246.126 318.519 246.728 318.295 247.568 318.295C248.884 318.295 249.766 319.065 249.766 320.367V323.489L249.976 324.931ZM248.66 323.643V322.215L247.638 322.355C246.798 322.467 246.336 322.733 246.336 323.335C246.336 323.881 246.672 324.245 247.232 324.245C247.89 324.245 248.296 323.965 248.66 323.643ZM253.114 325.001H251.994V317.063L251.798 315.621L253.114 315.439V325.001ZM256.422 325.001H255.302V317.063L255.106 315.621L256.422 315.439V325.001ZM266.758 321.333C266.758 323.517 265.624 325.141 263.552 325.141C262.824 325.141 262.026 325.015 261.55 324.833V317.063L261.354 315.621L262.67 315.439V318.953H262.684C263.104 318.603 263.664 318.295 264.406 318.295C265.946 318.295 266.758 319.401 266.758 321.333ZM265.624 321.739C265.624 320.297 265.288 319.317 264.014 319.317C263.426 319.317 263.006 319.555 262.67 319.849V324.063C262.95 324.133 263.23 324.175 263.65 324.175C264.952 324.175 265.624 323.069 265.624 321.739ZM273.703 321.725C273.703 323.643 272.793 325.155 270.903 325.155C268.831 325.155 268.103 323.685 268.103 321.725C268.103 319.807 269.013 318.295 270.903 318.295C272.975 318.295 273.703 319.765 273.703 321.725ZM272.555 321.753C272.555 320.129 272.009 319.275 270.903 319.275C269.825 319.275 269.251 320.031 269.251 321.683C269.251 323.307 269.797 324.175 270.903 324.175C271.981 324.175 272.555 323.405 272.555 321.753ZM280.635 321.725C280.635 323.643 279.725 325.155 277.835 325.155C275.763 325.155 275.035 323.685 275.035 321.725C275.035 319.807 275.945 318.295 277.835 318.295C279.907 318.295 280.635 319.765 280.635 321.725ZM279.487 321.753C279.487 320.129 278.941 319.275 277.835 319.275C276.757 319.275 276.183 320.031 276.183 321.683C276.183 323.307 276.729 324.175 277.835 324.175C278.913 324.175 279.487 323.405 279.487 321.753ZM283.506 325.001H282.386V317.063L282.19 315.621L283.506 315.439V325.001ZM287.636 324.805L286.516 325.211L283.534 321.445L285.9 318.449H287.174L284.85 321.347L287.636 324.805ZM290.056 325.001H288.936V319.961L288.74 318.519L290.056 318.337V325.001ZM290.28 316.741C290.28 317.189 289.93 317.525 289.51 317.525C289.076 317.525 288.712 317.189 288.712 316.741C288.712 316.293 289.076 315.943 289.51 315.943C289.93 315.943 290.28 316.293 290.28 316.741ZM297.269 325.001H296.149V320.745C296.149 319.779 295.785 319.289 294.903 319.289C294.273 319.289 293.825 319.555 293.419 319.919V325.001H292.299V319.961L292.103 318.519L293.209 318.337L293.321 319.107H293.335C293.825 318.631 294.469 318.295 295.281 318.295C296.387 318.295 297.269 319.009 297.269 320.353V325.001ZM304.825 319.275H303.509C303.705 319.611 303.817 320.003 303.817 320.479C303.817 321.809 302.851 322.705 301.507 322.705C301.241 322.705 300.989 322.663 300.765 322.607C300.765 322.607 300.317 322.859 300.317 323.363C300.317 323.797 300.639 323.881 301.087 323.881H302.963C304.111 323.881 304.783 324.231 304.783 325.253C304.783 326.541 303.467 327.997 301.073 327.997C299.701 327.997 298.861 327.325 298.861 326.177C298.861 325.099 299.743 324.567 299.743 324.567C299.463 324.385 299.281 324.105 299.281 323.643C299.281 322.831 299.981 322.425 300.121 322.355C299.505 321.977 299.169 321.333 299.169 320.479C299.169 319.149 300.149 318.267 301.507 318.267C302.011 318.267 302.473 318.379 302.837 318.603L304.825 318.295V319.275ZM303.803 325.421C303.803 324.945 303.397 324.847 302.711 324.847H300.947C300.751 324.847 300.569 324.833 300.387 324.805C300.387 324.805 299.855 325.225 299.855 325.925C299.855 326.681 300.317 327.087 301.325 327.087C302.935 327.087 303.803 326.135 303.803 325.421ZM302.767 320.479C302.767 319.569 302.263 319.107 301.507 319.107C300.779 319.107 300.219 319.597 300.219 320.479C300.219 321.403 300.737 321.865 301.507 321.865C302.221 321.865 302.767 321.375 302.767 320.479ZM310.107 323.097C310.107 324.287 309.169 325.141 307.769 325.141C307.097 325.141 306.425 325.043 305.893 324.791L306.229 323.811C306.691 324.021 307.209 324.189 307.713 324.189C308.469 324.189 308.973 323.895 308.973 323.279C308.973 322.803 308.721 322.607 308.287 322.411L307.069 321.851C306.635 321.655 305.851 321.263 305.851 320.129C305.851 318.883 306.943 318.295 308.133 318.295C308.847 318.295 309.351 318.407 309.911 318.645L309.533 319.611C309.085 319.415 308.651 319.275 308.119 319.275C307.405 319.275 306.943 319.499 306.943 320.059C306.943 320.549 307.363 320.745 307.629 320.871L308.875 321.459C309.743 321.865 310.107 322.383 310.107 323.097Z" fill="#00157E"/>
<path d="M323.833 321.001H337.833" stroke="#00157E" stroke-width="2" stroke-linecap="round" stroke-linejoin="round"/>
<path d="M330.833 314.001L337.833 321.001L330.833 328.001" stroke="#00157E" stroke-width="2" stroke-linecap="round" stroke-linejoin="round"/>
<defs>
<clipPath id="clip0_445_10761">
<rect width="554.667" height="1" fill="white" transform="translate(0 56.001)"/>
</clipPath>
<clipPath id="clip1_445_10761">
<rect width="434.667" height="24" fill="white" transform="translate(16 65.001)"/>
</clipPath>
<clipPath id="clip2_445_10761">
<rect width="436.667" height="24" fill="white" transform="translate(16 97.001)"/>
</clipPath>
<clipPath id="clip3_445_10761">
<rect width="427.667" height="24" fill="white" transform="translate(16 141.001)"/>
</clipPath>
<clipPath id="clip4_445_10761">
<rect width="441.667" height="24" fill="white" transform="translate(16 173.001)"/>
</clipPath>
<clipPath id="clip5_445_10761">
<rect width="433.667" height="24" fill="white" transform="translate(16 213.001)"/>
</clipPath>
<clipPath id="clip6_445_10761">
<rect width="434.667" height="24" fill="white" transform="translate(16 253.001)"/>
</clipPath>
</defs>
</svg>
