<svg width="375" height="812" viewBox="0 0 375 812" fill="none" xmlns="http://www.w3.org/2000/svg">
<g clip-path="url(#clip0_697_92434)">
<rect width="375" height="812" fill="white"/>
<path d="M343.99 22.17H357.993C359.556 22.17 360.823 23.4372 360.823 25.0001V29.673C360.823 31.2359 359.556 32.5031 357.993 32.5031H343.99C342.427 32.5031 341.16 31.2359 341.16 29.673V25.0001C341.16 23.4372 342.427 22.17 343.99 22.17Z" stroke="#00157E"/>
<path d="M362.33 25.3367V29.3367C363.135 28.9979 363.658 28.2098 363.658 27.3367C363.658 26.4635 363.135 25.6754 362.33 25.3367" fill="#00157E"/>
<rect x="342.66" y="23.67" width="16.66" height="7.33333" rx="1.33333" fill="#00157E"/>
<path d="M325.427 30.0606C326.702 28.9817 328.571 28.9817 329.847 30.0606C329.911 30.1186 329.947 30.2008 329.949 30.2872C329.951 30.3736 329.917 30.4571 329.855 30.5176L327.858 32.5333C327.8 32.5925 327.72 32.626 327.637 32.626C327.553 32.626 327.474 32.5924 327.415 32.5333L325.417 30.5176C325.355 30.457 325.321 30.3735 325.323 30.2872C325.325 30.2007 325.363 30.1186 325.427 30.0606ZM322.762 27.3711C325.51 24.8151 329.766 24.8152 332.514 27.3711C332.576 27.431 332.611 27.5135 332.612 27.5997C332.613 27.6858 332.579 27.769 332.519 27.8301L331.364 28.9971C331.245 29.1162 331.053 29.1189 330.931 29.003C330.028 28.1858 328.854 27.7334 327.637 27.7335C326.42 27.734 325.247 28.1863 324.345 29.003C324.223 29.1188 324.03 29.1162 323.911 28.9971L322.757 27.8301C322.696 27.7691 322.662 27.6858 322.663 27.5997C322.664 27.5135 322.7 27.431 322.762 27.3711ZM320.097 24.6895C324.312 20.6503 330.962 20.6501 335.177 24.6895C335.238 24.7494 335.272 24.8316 335.272 24.917C335.273 25.0026 335.239 25.0848 335.179 25.1456L334.022 26.3126C333.903 26.432 333.711 26.4333 333.59 26.3155C331.984 24.7888 329.853 23.9377 327.637 23.9376C325.421 23.9375 323.289 24.7886 321.683 26.3155C321.562 26.4335 321.369 26.4323 321.25 26.3126L320.094 25.1456C320.033 25.0848 319.999 25.0026 320 24.917C320.001 24.8315 320.036 24.7494 320.097 24.6895Z" fill="#00157E"/>
<path d="M299.66 28.667C300.212 28.667 300.66 29.1147 300.66 29.667V31.667C300.66 32.2191 300.212 32.667 299.66 32.667H298.66C298.108 32.667 297.66 32.2191 297.66 31.667V29.667C297.66 29.1147 298.108 28.667 298.66 28.667H299.66ZM304.327 26.667C304.879 26.6672 305.327 27.1148 305.327 27.667V31.667C305.327 32.219 304.879 32.6668 304.327 32.667H303.327C302.775 32.667 302.327 32.2191 302.327 31.667V27.667C302.327 27.1147 302.775 26.667 303.327 26.667H304.327ZM308.993 24.333C309.545 24.333 309.993 24.7809 309.993 25.333V31.667C309.993 32.2191 309.545 32.667 308.993 32.667H307.993C307.441 32.6668 306.993 32.219 306.993 31.667V25.333C306.993 24.781 307.441 24.3332 307.993 24.333H308.993ZM313.66 22C314.212 22 314.66 22.4477 314.66 23V31.667C314.66 32.2191 314.212 32.667 313.66 32.667H312.66C312.108 32.667 311.66 32.2191 311.66 31.667V23C311.66 22.4477 312.108 22 312.66 22H313.66Z" fill="#00157E"/>
<path d="M32.1846 21.9175C34.4405 21.9175 36.4034 23.5215 36.4034 27.3301V27.3447C36.4034 30.9043 34.7994 33.0137 32.1407 33.0137C30.1998 33.0137 28.7496 31.8638 28.4127 30.2451L28.398 30.1646H30.2584L30.2804 30.2378C30.5587 30.9775 31.2105 31.4609 32.1407 31.4609C33.8179 31.4609 34.5284 29.8203 34.609 27.7988C34.609 27.7183 34.6163 27.6377 34.6163 27.5571H34.4698C34.0816 28.3921 33.1588 29.1318 31.7086 29.1318C29.6798 29.1318 28.2589 27.6523 28.2589 25.6455V25.6309C28.2589 23.4849 29.8922 21.9175 32.1846 21.9175ZM32.1773 27.6816C33.3712 27.6816 34.2867 26.8174 34.2867 25.6235V25.6089C34.2867 24.4004 33.3712 23.4556 32.1993 23.4556C31.0347 23.4556 30.1046 24.3857 30.1046 25.5649V25.5796C30.1046 26.8027 30.9762 27.6816 32.1773 27.6816ZM39.4486 25.9019C38.7821 25.9019 38.284 25.3892 38.284 24.7446C38.284 24.0928 38.7821 23.5874 39.4486 23.5874C40.1224 23.5874 40.6131 24.0928 40.6131 24.7446C40.6131 25.3892 40.1224 25.9019 39.4486 25.9019ZM39.4486 31.3364C38.7821 31.3364 38.284 30.8311 38.284 30.1792C38.284 29.5273 38.7821 29.022 39.4486 29.022C40.1224 29.022 40.6131 29.5273 40.6131 30.1792C40.6131 30.8311 40.1224 31.3364 39.4486 31.3364ZM47.6207 32.75V30.7212H42.4498V29.1758C43.8195 26.7954 45.3209 24.3638 46.7565 22.1812H49.4298V29.1611H50.8507V30.7212H49.4298V32.75H47.6207ZM44.2077 29.2051H47.65V23.6899H47.5402C46.4562 25.3452 45.233 27.3008 44.2077 29.0952V29.2051ZM54.9506 32.75V24.0415H54.8261L52.1967 25.9019V24.1221L54.9579 22.1812H56.8403V32.75H54.9506Z" fill="#00157E"/>
<path d="M35 77.9292H21" stroke="#00157E" stroke-width="2" stroke-linecap="round" stroke-linejoin="round"/>
<path d="M28 84.9292L21 77.9292L28 70.9292" stroke="#00157E" stroke-width="2" stroke-linecap="round" stroke-linejoin="round"/>
<path d="M139.407 74.22H136.167V84H133.467V74.22H130.227V71.96H139.407V74.22ZM143.4 84H140.86V77L140.54 74.66L143.4 74.34V84ZM143.64 71.88C143.64 72.72 142.98 73.4 142.14 73.4C141.3 73.4 140.64 72.72 140.64 71.88C140.64 71.06 141.3 70.38 142.14 70.38C142.98 70.38 143.64 71.06 143.64 71.88ZM159.338 84H156.818V78C156.818 76.98 156.378 76.52 155.478 76.52C154.838 76.52 154.218 76.86 153.878 77.22C153.878 77.22 153.918 77.54 153.918 77.82V84H151.378V78C151.378 76.98 150.958 76.52 150.058 76.52C149.398 76.52 148.838 76.82 148.478 77.18V84H145.938V77L145.618 74.66L148.058 74.34L148.178 75.38H148.198C148.758 74.82 149.738 74.3 150.978 74.3C152.098 74.3 152.958 74.76 153.458 75.54H153.478C154.178 74.82 155.178 74.3 156.418 74.3C158.078 74.3 159.338 75.24 159.338 77.38V84ZM169.056 83.44C167.996 83.98 167.116 84.24 165.836 84.24C162.676 84.24 161.276 82.32 161.276 79.12C161.276 76.26 162.976 74.32 165.496 74.32C168.136 74.32 168.996 76.14 168.996 78.42V79.54H163.756C163.836 81.22 164.636 82.02 166.156 82.02C167.056 82.02 167.556 81.8 168.276 81.5L169.056 83.44ZM166.776 78C166.776 77.02 166.356 76.36 165.416 76.36C164.416 76.36 163.916 77.12 163.796 78H166.776ZM181.176 80.96C181.176 82.78 179.716 84.22 177.516 84.22C176.376 84.22 175.356 84.04 174.496 83.64L175.156 81.56C175.876 81.86 176.576 82.16 177.376 82.16C178.236 82.16 178.656 81.86 178.656 81.36C178.656 80.9 178.436 80.72 177.916 80.5L176.436 79.88C175.556 79.52 174.596 78.86 174.596 77.3C174.596 75.34 176.256 74.3 178.236 74.3C179.356 74.3 180.116 74.48 181.016 74.86L180.236 76.9C179.596 76.64 178.976 76.38 178.256 76.38C177.476 76.38 177.036 76.6 177.036 77.12C177.036 77.62 177.436 77.8 177.796 77.94L179.336 78.56C180.536 79.04 181.176 79.8 181.176 80.96ZM189.803 74.74L189.043 76.96C188.543 76.74 188.083 76.56 187.403 76.56C186.143 76.56 185.203 77.46 185.203 79.16C185.203 81.08 186.063 81.92 187.283 81.92C188.003 81.92 188.383 81.76 188.983 81.52L189.743 83.6C188.863 84 188.043 84.24 186.963 84.24C184.123 84.24 182.623 82.32 182.623 79.3C182.623 75.82 184.983 74.3 187.403 74.3C188.343 74.3 188.983 74.42 189.803 74.74ZM199.522 84H196.982V78C196.982 77.06 196.582 76.54 195.642 76.54C194.862 76.54 194.302 77 194.102 77.18V84H191.562V72.98L191.242 70.64L194.102 70.32V75.18H194.122C194.362 74.96 195.222 74.3 196.602 74.3C198.282 74.3 199.522 75.26 199.522 77.38V84ZM209.251 83.44C208.191 83.98 207.311 84.24 206.031 84.24C202.871 84.24 201.471 82.32 201.471 79.12C201.471 76.26 203.171 74.32 205.691 74.32C208.331 74.32 209.191 76.14 209.191 78.42V79.54H203.951C204.031 81.22 204.831 82.02 206.351 82.02C207.251 82.02 207.751 81.8 208.471 81.5L209.251 83.44ZM206.971 78C206.971 77.02 206.551 76.36 205.611 76.36C204.611 76.36 204.111 77.12 203.991 78H206.971ZM218.992 83.88L216.572 84.18L216.432 83.2H216.412C216.172 83.4 215.392 84.24 214.112 84.24C211.752 84.24 210.572 82.24 210.572 79.6C210.572 76.2 212.512 74.46 215.252 74.46C215.752 74.46 216.132 74.54 216.132 74.54V72.98L215.812 70.64L218.672 70.32V81.54L218.992 83.88ZM214.892 81.98C215.492 81.98 215.952 81.72 216.132 81.56V76.72C216.132 76.72 215.792 76.56 215.172 76.56C213.952 76.56 213.132 77.52 213.132 79.22C213.132 81.12 213.632 81.98 214.892 81.98ZM229.531 83.86L227.091 84.18L226.951 83.16H226.931C226.371 83.7 225.431 84.24 224.171 84.24C222.551 84.24 221.231 83.28 221.231 81.16V77L220.911 74.66L223.771 74.34V80.54C223.771 81.56 224.191 82.02 225.071 82.02C225.731 82.02 226.291 81.72 226.671 81.34V77L226.351 74.66L229.211 74.34V81.52L229.531 83.86ZM234.258 84H231.718V72.96L231.398 70.64L234.258 70.32V84ZM243.958 83.44C242.898 83.98 242.018 84.24 240.738 84.24C237.578 84.24 236.178 82.32 236.178 79.12C236.178 76.26 237.878 74.32 240.398 74.32C243.038 74.32 243.898 76.14 243.898 78.42V79.54H238.658C238.738 81.22 239.538 82.02 241.058 82.02C241.958 82.02 242.458 81.8 243.178 81.5L243.958 83.44ZM241.678 78C241.678 77.02 241.258 76.36 240.318 76.36C239.318 76.36 238.818 77.12 238.698 78H241.678Z" fill="#00157E"/>
<path d="M353 71.9292L341 83.9292" stroke="#00157E" stroke-width="2" stroke-linecap="round" stroke-linejoin="round"/>
<path d="M341 71.9292L353 83.9292" stroke="#00157E" stroke-width="2" stroke-linecap="round" stroke-linejoin="round"/>
<g clip-path="url(#clip1_697_92434)">
<path d="M16 122C16 119.791 17.7909 118 20 118H355C357.209 118 359 119.791 359 122V150C359 152.209 357.209 154 355 154H20C17.7909 154 16 152.209 16 150V122Z" fill="#00157E" fill-opacity="0.05"/>
<path d="M22 120.5H179.5C181.433 120.5 183 122.067 183 124V148C183 149.933 181.433 151.5 179.5 151.5H22C20.067 151.5 18.5 149.933 18.5 148V124C18.5 122.067 20.067 120.5 22 120.5Z" fill="#00157E"/>
<path d="M22 120.5H179.5C181.433 120.5 183 122.067 183 124V148C183 149.933 181.433 151.5 179.5 151.5H22C20.067 151.5 18.5 149.933 18.5 148V124C18.5 122.067 20.067 120.5 22 120.5Z" stroke="#00157E"/>
<path d="M61.6528 137.634C61.6528 139.104 60.6308 140.154 58.9368 140.154C58.0688 140.154 57.2988 139.972 56.6408 139.692L57.0048 138.67C57.5508 138.922 58.1948 139.132 58.8528 139.132C59.8748 139.132 60.5328 138.74 60.5328 137.816C60.5328 137.13 60.0288 136.794 59.3568 136.472L58.0408 135.842C57.1588 135.422 56.5568 134.876 56.5568 133.686C56.5568 132.244 57.8168 131.418 59.2728 131.418C60.0568 131.418 60.5608 131.544 61.2888 131.81L60.8968 132.804C60.4488 132.594 59.9588 132.398 59.3428 132.398C58.4748 132.398 57.6908 132.748 57.6908 133.644C57.6908 134.246 58.0548 134.54 58.6148 134.806L59.9588 135.464C61.0228 135.982 61.6528 136.556 61.6528 137.634ZM64.4975 140H63.3775V134.96L63.1815 133.518L64.4975 133.336V140ZM64.7215 131.74C64.7215 132.188 64.3715 132.524 63.9515 132.524C63.5175 132.524 63.1535 132.188 63.1535 131.74C63.1535 131.292 63.5175 130.942 63.9515 130.942C64.3715 130.942 64.7215 131.292 64.7215 131.74ZM71.7101 140H70.5901V135.744C70.5901 134.778 70.2261 134.288 69.3441 134.288C68.7141 134.288 68.2661 134.554 67.8601 134.918V140H66.7401V134.96L66.5441 133.518L67.6501 133.336L67.7621 134.106H67.7761C68.2661 133.63 68.9101 133.294 69.7221 133.294C70.8281 133.294 71.7101 134.008 71.7101 135.352V140ZM79.2659 134.274H77.9499C78.1459 134.61 78.2579 135.002 78.2579 135.478C78.2579 136.808 77.2919 137.704 75.9479 137.704C75.6819 137.704 75.4299 137.662 75.2059 137.606C75.2059 137.606 74.7579 137.858 74.7579 138.362C74.7579 138.796 75.0799 138.88 75.5279 138.88H77.4039C78.5519 138.88 79.2239 139.23 79.2239 140.252C79.2239 141.54 77.9079 142.996 75.5139 142.996C74.1419 142.996 73.3019 142.324 73.3019 141.176C73.3019 140.098 74.1839 139.566 74.1839 139.566C73.9039 139.384 73.7219 139.104 73.7219 138.642C73.7219 137.83 74.4219 137.424 74.5619 137.354C73.9459 136.976 73.6099 136.332 73.6099 135.478C73.6099 134.148 74.5899 133.266 75.9479 133.266C76.4519 133.266 76.9139 133.378 77.2779 133.602L79.2659 133.294V134.274ZM78.2439 140.42C78.2439 139.944 77.8379 139.846 77.1519 139.846H75.3879C75.1919 139.846 75.0099 139.832 74.8279 139.804C74.8279 139.804 74.2959 140.224 74.2959 140.924C74.2959 141.68 74.7579 142.086 75.7659 142.086C77.3759 142.086 78.2439 141.134 78.2439 140.42ZM77.2079 135.478C77.2079 134.568 76.7039 134.106 75.9479 134.106C75.2199 134.106 74.6599 134.596 74.6599 135.478C74.6599 136.402 75.1779 136.864 75.9479 136.864C76.6619 136.864 77.2079 136.374 77.2079 135.478ZM81.8458 140H80.7258V132.062L80.5298 130.62L81.8458 130.438V140ZM88.6124 139.65C87.9824 140 87.3384 140.154 86.5404 140.154C84.6084 140.154 83.6144 138.852 83.6144 136.682C83.6144 134.652 84.6784 133.294 86.3304 133.294C87.9124 133.294 88.5564 134.344 88.5564 135.786V136.57H84.7064C84.7204 138.32 85.3504 139.16 86.7784 139.16C87.3244 139.16 87.7444 139.006 88.2204 138.768L88.6124 139.65ZM87.5064 135.786C87.5064 134.806 87.1424 134.19 86.2744 134.19C85.4344 134.19 84.9024 134.848 84.7624 135.786H87.5064ZM97.7725 139.65C97.1425 140 96.4985 140.154 95.7005 140.154C93.7685 140.154 92.7745 138.852 92.7745 136.682C92.7745 134.652 93.8385 133.294 95.4905 133.294C97.0725 133.294 97.7165 134.344 97.7165 135.786V136.57H93.8665C93.8805 138.32 94.5105 139.16 95.9385 139.16C96.4845 139.16 96.9045 139.006 97.3805 138.768L97.7725 139.65ZM96.6665 135.786C96.6665 134.806 96.3025 134.19 95.4345 134.19C94.5945 134.19 94.0625 134.848 93.9225 135.786H96.6665ZM104.022 139.706L103.07 140.238L101.25 137.438H101.236L99.5976 140H98.4216L100.704 136.598L98.7436 133.742L99.6816 133.21L101.306 135.674H101.32L102.72 133.448H103.91L101.838 136.5L104.022 139.706ZM109.776 139.65C109.146 140 108.502 140.154 107.704 140.154C105.772 140.154 104.778 138.852 104.778 136.682C104.778 134.652 105.842 133.294 107.494 133.294C109.076 133.294 109.72 134.344 109.72 135.786V136.57H105.87C105.884 138.32 106.514 139.16 107.942 139.16C108.488 139.16 108.908 139.006 109.384 138.768L109.776 139.65ZM108.67 135.786C108.67 134.806 108.306 134.19 107.438 134.19C106.598 134.19 106.066 134.848 105.926 135.786H108.67ZM115.675 133.574L115.325 134.582C114.961 134.442 114.555 134.316 114.093 134.316C112.861 134.316 112.119 135.24 112.119 136.626C112.119 138.376 112.805 139.174 114.065 139.174C114.513 139.174 114.877 139.02 115.241 138.866L115.619 139.776C115.073 140.028 114.471 140.154 113.841 140.154C111.965 140.154 110.999 138.81 110.999 136.808C110.999 134.4 112.483 133.294 114.149 133.294C114.723 133.294 115.213 133.392 115.675 133.574ZM122.383 139.93L121.277 140.112L121.165 139.356H121.151C120.661 139.818 120.017 140.154 119.205 140.154C118.099 140.154 117.217 139.44 117.217 138.096V134.96L117.021 133.518L118.337 133.336V137.704C118.337 138.67 118.701 139.174 119.583 139.174C120.213 139.174 120.661 138.908 121.067 138.53V134.96L120.871 133.518L122.187 133.336V138.488L122.383 139.93ZM127.698 139.734C127.292 139.958 126.914 140.14 126.2 140.14C125.192 140.14 124.548 139.482 124.548 138.362V134.358H123.582V133.616L124.548 133.42V132.328L125.654 132.188V133.448H127.488V134.358H125.654V137.984C125.654 138.866 125.878 139.146 126.522 139.146C126.872 139.146 127.138 139.006 127.334 138.88L127.698 139.734ZM130.341 140H129.221V134.96L129.025 133.518L130.341 133.336V140ZM130.565 131.74C130.565 132.188 130.215 132.524 129.795 132.524C129.361 132.524 128.997 132.188 128.997 131.74C128.997 131.292 129.361 130.942 129.795 130.942C130.215 130.942 130.565 131.292 130.565 131.74ZM137.736 136.724C137.736 138.642 136.826 140.154 134.936 140.154C132.864 140.154 132.136 138.684 132.136 136.724C132.136 134.806 133.046 133.294 134.936 133.294C137.008 133.294 137.736 134.764 137.736 136.724ZM136.588 136.752C136.588 135.128 136.042 134.274 134.936 134.274C133.858 134.274 133.284 135.03 133.284 136.682C133.284 138.306 133.83 139.174 134.936 139.174C136.014 139.174 136.588 138.404 136.588 136.752ZM144.486 140H143.366V135.744C143.366 134.778 143.002 134.288 142.12 134.288C141.49 134.288 141.042 134.554 140.636 134.918V140H139.516V134.96L139.32 133.518L140.426 133.336L140.538 134.106H140.552C141.042 133.63 141.686 133.294 142.498 133.294C143.604 133.294 144.486 134.008 144.486 135.352V140Z" fill="white"/>
<path d="M226.6 139.734L225.564 140.238L223.198 136.402C222.988 136.43 222.792 136.444 222.582 136.444H222.372V140H221.21V131.642C221.21 131.642 222.274 131.488 223.366 131.488C224.99 131.488 226.012 132.272 226.012 133.602C226.012 134.89 225.27 135.688 224.276 136.08L226.6 139.734ZM224.878 133.812C224.878 132.804 224.178 132.37 223.17 132.37C222.722 132.37 222.372 132.412 222.372 132.412V135.59H222.554C223.688 135.59 224.878 135.114 224.878 133.812ZM232.499 139.65C231.869 140 231.225 140.154 230.427 140.154C228.495 140.154 227.501 138.852 227.501 136.682C227.501 134.652 228.565 133.294 230.217 133.294C231.799 133.294 232.443 134.344 232.443 135.786V136.57H228.593C228.607 138.32 229.237 139.16 230.665 139.16C231.211 139.16 231.631 139.006 232.107 138.768L232.499 139.65ZM231.393 135.786C231.393 134.806 231.029 134.19 230.161 134.19C229.321 134.19 228.789 134.848 228.649 135.786H231.393ZM238.398 133.574L238.048 134.582C237.684 134.442 237.278 134.316 236.816 134.316C235.584 134.316 234.842 135.24 234.842 136.626C234.842 138.376 235.528 139.174 236.788 139.174C237.236 139.174 237.6 139.02 237.964 138.866L238.342 139.776C237.796 140.028 237.194 140.154 236.564 140.154C234.688 140.154 233.722 138.81 233.722 136.808C233.722 134.4 235.206 133.294 236.872 133.294C237.446 133.294 237.936 133.392 238.398 133.574ZM245.105 139.93L243.999 140.112L243.887 139.356H243.873C243.383 139.818 242.739 140.154 241.927 140.154C240.821 140.154 239.939 139.44 239.939 138.096V134.96L239.743 133.518L241.059 133.336V137.704C241.059 138.67 241.423 139.174 242.305 139.174C242.935 139.174 243.383 138.908 243.789 138.53V134.96L243.593 133.518L244.909 133.336V138.488L245.105 139.93ZM250.084 134.414C249.328 134.414 248.768 134.61 248.264 135.072V140H247.144V134.96L246.948 133.518L248.054 133.336L248.166 134.232H248.18C248.628 133.728 249.216 133.308 250.084 133.308V134.414ZM254.391 134.414C253.635 134.414 253.075 134.61 252.571 135.072V140H251.451V134.96L251.255 133.518L252.361 133.336L252.473 134.232H252.487C252.935 133.728 253.523 133.308 254.391 133.308V134.414ZM256.906 140H255.786V134.96L255.59 133.518L256.906 133.336V140ZM257.13 131.74C257.13 132.188 256.78 132.524 256.36 132.524C255.926 132.524 255.562 132.188 255.562 131.74C255.562 131.292 255.926 130.942 256.36 130.942C256.78 130.942 257.13 131.292 257.13 131.74ZM264.118 140H262.998V135.744C262.998 134.778 262.634 134.288 261.752 134.288C261.122 134.288 260.674 134.554 260.268 134.918V140H259.148V134.96L258.952 133.518L260.058 133.336L260.17 134.106H260.184C260.674 133.63 261.318 133.294 262.13 133.294C263.236 133.294 264.118 134.008 264.118 135.352V140ZM271.674 134.274H270.358C270.554 134.61 270.666 135.002 270.666 135.478C270.666 136.808 269.7 137.704 268.356 137.704C268.09 137.704 267.838 137.662 267.614 137.606C267.614 137.606 267.166 137.858 267.166 138.362C267.166 138.796 267.488 138.88 267.936 138.88H269.812C270.96 138.88 271.632 139.23 271.632 140.252C271.632 141.54 270.316 142.996 267.922 142.996C266.55 142.996 265.71 142.324 265.71 141.176C265.71 140.098 266.592 139.566 266.592 139.566C266.312 139.384 266.13 139.104 266.13 138.642C266.13 137.83 266.83 137.424 266.97 137.354C266.354 136.976 266.018 136.332 266.018 135.478C266.018 134.148 266.998 133.266 268.356 133.266C268.86 133.266 269.322 133.378 269.686 133.602L271.674 133.294V134.274ZM270.652 140.42C270.652 139.944 270.246 139.846 269.56 139.846H267.796C267.6 139.846 267.418 139.832 267.236 139.804C267.236 139.804 266.704 140.224 266.704 140.924C266.704 141.68 267.166 142.086 268.174 142.086C269.784 142.086 270.652 141.134 270.652 140.42ZM269.616 135.478C269.616 134.568 269.112 134.106 268.356 134.106C267.628 134.106 267.068 134.596 267.068 135.478C267.068 136.402 267.586 136.864 268.356 136.864C269.07 136.864 269.616 136.374 269.616 135.478ZM280.651 139.65C280.021 140 279.377 140.154 278.579 140.154C276.647 140.154 275.653 138.852 275.653 136.682C275.653 134.652 276.717 133.294 278.369 133.294C279.951 133.294 280.595 134.344 280.595 135.786V136.57H276.745C276.759 138.32 277.389 139.16 278.817 139.16C279.363 139.16 279.783 139.006 280.259 138.768L280.651 139.65ZM279.545 135.786C279.545 134.806 279.181 134.19 278.313 134.19C277.473 134.19 276.941 134.848 276.801 135.786H279.545ZM286.9 139.706L285.948 140.238L284.128 137.438H284.114L282.476 140H281.3L283.582 136.598L281.622 133.742L282.56 133.21L284.184 135.674H284.198L285.598 133.448H286.788L284.716 136.5L286.9 139.706ZM292.655 139.65C292.025 140 291.381 140.154 290.583 140.154C288.651 140.154 287.657 138.852 287.657 136.682C287.657 134.652 288.721 133.294 290.373 133.294C291.955 133.294 292.599 134.344 292.599 135.786V136.57H288.749C288.763 138.32 289.393 139.16 290.821 139.16C291.367 139.16 291.787 139.006 292.263 138.768L292.655 139.65ZM291.549 135.786C291.549 134.806 291.185 134.19 290.317 134.19C289.477 134.19 288.945 134.848 288.805 135.786H291.549ZM298.554 133.574L298.204 134.582C297.84 134.442 297.434 134.316 296.972 134.316C295.74 134.316 294.998 135.24 294.998 136.626C294.998 138.376 295.684 139.174 296.944 139.174C297.392 139.174 297.756 139.02 298.12 138.866L298.498 139.776C297.952 140.028 297.35 140.154 296.72 140.154C294.844 140.154 293.878 138.81 293.878 136.808C293.878 134.4 295.362 133.294 297.028 133.294C297.602 133.294 298.092 133.392 298.554 133.574ZM305.262 139.93L304.156 140.112L304.044 139.356H304.03C303.54 139.818 302.896 140.154 302.084 140.154C300.978 140.154 300.096 139.44 300.096 138.096V134.96L299.9 133.518L301.216 133.336V137.704C301.216 138.67 301.58 139.174 302.462 139.174C303.092 139.174 303.54 138.908 303.946 138.53V134.96L303.75 133.518L305.066 133.336V138.488L305.262 139.93ZM310.577 139.734C310.171 139.958 309.793 140.14 309.079 140.14C308.071 140.14 307.427 139.482 307.427 138.362V134.358H306.461V133.616L307.427 133.42V132.328L308.533 132.188V133.448H310.367V134.358H308.533V137.984C308.533 138.866 308.757 139.146 309.401 139.146C309.751 139.146 310.017 139.006 310.213 138.88L310.577 139.734ZM313.22 140H312.1V134.96L311.904 133.518L313.22 133.336V140ZM313.444 131.74C313.444 132.188 313.094 132.524 312.674 132.524C312.24 132.524 311.876 132.188 311.876 131.74C311.876 131.292 312.24 130.942 312.674 130.942C313.094 130.942 313.444 131.292 313.444 131.74ZM320.615 136.724C320.615 138.642 319.705 140.154 317.815 140.154C315.743 140.154 315.015 138.684 315.015 136.724C315.015 134.806 315.925 133.294 317.815 133.294C319.887 133.294 320.615 134.764 320.615 136.724ZM319.467 136.752C319.467 135.128 318.921 134.274 317.815 134.274C316.737 134.274 316.163 135.03 316.163 136.682C316.163 138.306 316.709 139.174 317.815 139.174C318.893 139.174 319.467 138.404 319.467 136.752ZM327.364 140H326.244V135.744C326.244 134.778 325.88 134.288 324.998 134.288C324.368 134.288 323.92 134.554 323.514 134.918V140H322.394V134.96L322.198 133.518L323.304 133.336L323.416 134.106H323.43C323.92 133.63 324.564 133.294 325.376 133.294C326.482 133.294 327.364 134.008 327.364 135.352V140Z" fill="#00157E"/>
<path d="M18.923 196H17.579V186.368H18.923V196ZM31.595 196H30.331V191.136C30.331 190.032 29.915 189.472 28.891 189.472C28.171 189.472 27.563 189.824 27.163 190.224C27.163 190.224 27.211 190.496 27.211 190.784V196H25.931V191.136C25.931 190.032 25.515 189.472 24.507 189.472C23.787 189.472 23.275 189.76 22.811 190.192V196H21.531V190.24L21.307 188.592L22.571 188.384L22.699 189.264H22.715C23.275 188.72 24.011 188.336 24.939 188.336C25.803 188.336 26.523 188.72 26.907 189.408H26.923C27.515 188.816 28.283 188.336 29.339 188.336C30.619 188.336 31.595 189.152 31.595 190.688V196ZM44.2044 196H42.9404V191.136C42.9404 190.032 42.5244 189.472 41.5004 189.472C40.7804 189.472 40.1724 189.824 39.7724 190.224C39.7724 190.224 39.8204 190.496 39.8204 190.784V196H38.5404V191.136C38.5404 190.032 38.1244 189.472 37.1164 189.472C36.3964 189.472 35.8844 189.76 35.4204 190.192V196H34.1404V190.24L33.9164 188.592L35.1804 188.384L35.3084 189.264H35.3244C35.8844 188.72 36.6204 188.336 37.5484 188.336C38.4124 188.336 39.1324 188.72 39.5164 189.408H39.5324C40.1244 188.816 40.8924 188.336 41.9484 188.336C43.2284 188.336 44.2044 189.152 44.2044 190.688V196ZM51.9497 195.6C51.2297 196 50.4937 196.176 49.5817 196.176C47.3737 196.176 46.2377 194.688 46.2377 192.208C46.2377 189.888 47.4537 188.336 49.3417 188.336C51.1497 188.336 51.8857 189.536 51.8857 191.184V192.08H47.4857C47.5017 194.08 48.2217 195.04 49.8537 195.04C50.4777 195.04 50.9577 194.864 51.5017 194.592L51.9497 195.6ZM50.6857 191.184C50.6857 190.064 50.2697 189.36 49.2777 189.36C48.3177 189.36 47.7097 190.112 47.5497 191.184H50.6857ZM59.4751 195.952L58.2431 196.128L58.1311 195.376H58.1151C57.6351 195.776 56.9791 196.176 56.0991 196.176C54.4511 196.176 53.3471 194.816 53.3471 192.592C53.3471 190.016 54.6751 188.432 56.9471 188.432C57.5551 188.432 57.9871 188.544 57.9871 188.544V186.928L57.7471 185.28L59.2511 185.072V194.304L59.4751 195.952ZM56.5471 195.056C57.1711 195.056 57.6031 194.8 57.9871 194.496V189.712C57.9871 189.712 57.5711 189.504 56.8351 189.504C55.3791 189.504 54.6591 190.736 54.6591 192.192C54.6591 194 55.1391 195.056 56.5471 195.056ZM63.1242 196H61.8442V190.24L61.6202 188.592L63.1242 188.384V196ZM63.3802 186.56C63.3802 187.072 62.9802 187.456 62.5002 187.456C62.0042 187.456 61.5882 187.072 61.5882 186.56C61.5882 186.048 62.0042 185.648 62.5002 185.648C62.9802 185.648 63.3802 186.048 63.3802 186.56ZM70.5992 195.92L69.3192 196.128L69.2072 195.248H69.1912C68.6472 195.76 68.0552 196.192 67.1592 196.192C65.9112 196.192 65.1752 195.44 65.1752 194.256C65.1752 192.912 66.2312 192.256 67.7512 192.096L69.0952 191.952V191.28C69.0952 190.24 68.7752 189.504 67.5432 189.504C66.9192 189.504 66.4552 189.696 65.9912 189.936L65.5272 188.992C66.1992 188.592 66.8872 188.336 67.8472 188.336C69.3512 188.336 70.3592 189.216 70.3592 190.704V194.272L70.5992 195.92ZM69.0952 194.448V192.816L67.9272 192.976C66.9672 193.104 66.4392 193.408 66.4392 194.096C66.4392 194.72 66.8232 195.136 67.4632 195.136C68.2152 195.136 68.6792 194.816 69.0952 194.448ZM76.6812 195.696C76.2172 195.952 75.7852 196.16 74.9692 196.16C73.8172 196.16 73.0812 195.408 73.0812 194.128V189.552H71.9772V188.704L73.0812 188.48V187.232L74.3452 187.072V188.512H76.4412V189.552H74.3452V193.696C74.3452 194.704 74.6012 195.024 75.3372 195.024C75.7372 195.024 76.0412 194.864 76.2652 194.72L76.6812 195.696ZM83.3716 195.6C82.6516 196 81.9156 196.176 81.0036 196.176C78.7956 196.176 77.6596 194.688 77.6596 192.208C77.6596 189.888 78.8756 188.336 80.7636 188.336C82.5716 188.336 83.3076 189.536 83.3076 191.184V192.08H78.9076C78.9236 194.08 79.6436 195.04 81.2756 195.04C81.8996 195.04 82.3796 194.864 82.9236 194.592L83.3716 195.6ZM82.1076 191.184C82.1076 190.064 81.6916 189.36 80.6996 189.36C79.7396 189.36 79.1316 190.112 78.9716 191.184H82.1076ZM86.529 196H85.249V186.928L85.025 185.28L86.529 185.072V196ZM94.4862 188.512L91.9902 195.312C91.1902 197.52 90.1182 198.848 87.5102 199.376L87.2702 198.336C89.1742 197.952 90.1822 196.8 90.6782 195.552L87.9902 188.624L89.2542 188.288L91.3182 193.856H91.3342L93.2222 188.512H94.4862Z" fill="#00157E"/>
<rect x="315.999" y="179" width="42" height="24" rx="12" fill="#00157E" stroke="#00157E" stroke-width="2"/>
<circle cx="346" cy="191" r="8" fill="white"/>
<path d="M21.488 244H17.162V235.572H21.348V236.566H18.324V239.156H21.054V240.136H18.324V243.006H21.488V244ZM27.7413 243.706L26.7893 244.238L24.9693 241.438H24.9553L23.3173 244H22.1413L24.4233 240.598L22.4633 237.742L23.4013 237.21L25.0253 239.674H25.0393L26.4393 237.448H27.6293L25.5573 240.5L27.7413 243.706ZM33.4962 243.65C32.8662 244 32.2222 244.154 31.4242 244.154C29.4922 244.154 28.4982 242.852 28.4982 240.682C28.4982 238.652 29.5622 237.294 31.2142 237.294C32.7962 237.294 33.4402 238.344 33.4402 239.786V240.57H29.5902C29.6042 242.32 30.2342 243.16 31.6622 243.16C32.2082 243.16 32.6282 243.006 33.1042 242.768L33.4962 243.65ZM32.3902 239.786C32.3902 238.806 32.0262 238.19 31.1582 238.19C30.3182 238.19 29.7862 238.848 29.6462 239.786H32.3902ZM39.3949 237.574L39.0449 238.582C38.6809 238.442 38.2749 238.316 37.8129 238.316C36.5809 238.316 35.8389 239.24 35.8389 240.626C35.8389 242.376 36.5249 243.174 37.7849 243.174C38.2329 243.174 38.5969 243.02 38.9609 242.866L39.3389 243.776C38.7929 244.028 38.1909 244.154 37.5609 244.154C35.6849 244.154 34.7189 242.81 34.7189 240.808C34.7189 238.4 36.2029 237.294 37.8689 237.294C38.4429 237.294 38.9329 237.392 39.3949 237.574ZM46.1024 243.93L44.9964 244.112L44.8844 243.356H44.8704C44.3804 243.818 43.7364 244.154 42.9244 244.154C41.8184 244.154 40.9364 243.44 40.9364 242.096V238.96L40.7404 237.518L42.0564 237.336V241.704C42.0564 242.67 42.4204 243.174 43.3024 243.174C43.9324 243.174 44.3804 242.908 44.7864 242.53V238.96L44.5904 237.518L45.9064 237.336V242.488L46.1024 243.93ZM51.4175 243.734C51.0115 243.958 50.6335 244.14 49.9195 244.14C48.9115 244.14 48.2675 243.482 48.2675 242.362V238.358H47.3015V237.616L48.2675 237.42V236.328L49.3735 236.188V237.448H51.2075V238.358H49.3735V241.984C49.3735 242.866 49.5975 243.146 50.2415 243.146C50.5915 243.146 50.8575 243.006 51.0535 242.88L51.4175 243.734ZM57.2716 243.65C56.6416 244 55.9976 244.154 55.1996 244.154C53.2676 244.154 52.2736 242.852 52.2736 240.682C52.2736 238.652 53.3376 237.294 54.9896 237.294C56.5716 237.294 57.2156 238.344 57.2156 239.786V240.57H53.3656C53.3796 242.32 54.0096 243.16 55.4376 243.16C55.9836 243.16 56.4036 243.006 56.8796 242.768L57.2716 243.65ZM56.1656 239.786C56.1656 238.806 55.8016 238.19 54.9336 238.19C54.0936 238.19 53.5616 238.848 53.4216 239.786H56.1656ZM67.0337 240.724C67.0337 242.642 66.1237 244.154 64.2337 244.154C62.1617 244.154 61.4337 242.684 61.4337 240.724C61.4337 238.806 62.3437 237.294 64.2337 237.294C66.3057 237.294 67.0337 238.764 67.0337 240.724ZM65.8857 240.752C65.8857 239.128 65.3397 238.274 64.2337 238.274C63.1557 238.274 62.5817 239.03 62.5817 240.682C62.5817 242.306 63.1277 243.174 64.2337 243.174C65.3117 243.174 65.8857 242.404 65.8857 240.752ZM73.7834 244H72.6634V239.744C72.6634 238.778 72.2994 238.288 71.4174 238.288C70.7874 238.288 70.3394 238.554 69.9334 238.918V244H68.8134V238.96L68.6174 237.518L69.7234 237.336L69.8354 238.106H69.8494C70.3394 237.63 70.9834 237.294 71.7954 237.294C72.9014 237.294 73.7834 238.008 73.7834 239.352V244Z" fill="#00157E" fill-opacity="0.7"/>
<path d="M16 260C16 257.791 17.7909 256 20 256H355C357.209 256 359 257.791 359 260V292C359 294.209 357.209 296 355 296H20C17.7909 296 16 294.209 16 292V260Z" fill="white"/>
<path d="M20 256.5H355C356.933 256.5 358.5 258.067 358.5 260V292C358.5 293.933 356.933 295.5 355 295.5H20C18.067 295.5 16.5 293.933 16.5 292V260C16.5 258.067 18.067 256.5 20 256.5Z" stroke="#00157E" stroke-opacity="0.7"/>
<path d="M34.3333 280.36C34.3333 282.28 33.1013 283.496 30.9893 283.496C30.3653 283.496 29.7093 283.384 29.1173 283.24L29.4053 282.04C29.9333 282.2 30.3813 282.328 31.0213 282.328C32.2853 282.328 33.0533 281.704 33.0533 280.552C33.0533 278.984 31.6133 278.376 29.5813 278.376V277.464C31.9493 277.32 32.6053 276.264 32.6053 275.224C32.6053 274.312 32.0453 273.8 31.1493 273.8C30.4133 273.8 29.9813 274.04 29.5013 274.36L28.9733 273.48C29.5493 273.032 30.2853 272.664 31.4053 272.664C32.9413 272.664 33.8853 273.576 33.8853 275.064C33.8853 276.36 33.1333 277.224 32.0613 277.736V277.752C33.6293 278.088 34.3333 279.128 34.3333 280.36ZM38.3671 281H37.1031V273.928L35.6951 274.12L35.5511 273.144L38.3671 272.696V281ZM42.4004 280.184C42.4004 280.696 41.9844 281.112 41.4884 281.112C40.9764 281.112 40.5604 280.696 40.5604 280.184C40.5604 279.688 40.9764 279.272 41.4884 279.272C41.9844 279.272 42.4004 279.688 42.4004 280.184ZM50.6807 276.92C50.6807 279.048 49.8487 281.176 47.4327 281.176C45.0007 281.176 44.1687 279.048 44.1687 276.92C44.1687 274.792 45.0007 272.664 47.4327 272.664C49.8487 272.664 50.6807 274.792 50.6807 276.92ZM49.3687 276.92C49.3687 275.128 48.7767 273.784 47.4327 273.784C46.0727 273.784 45.4807 275.128 45.4807 276.92C45.4807 278.712 46.0727 280.056 47.4327 280.056C48.7767 280.056 49.3687 278.712 49.3687 276.92ZM57.5871 279.56C57.5871 282.632 54.6911 283.496 52.6271 283.656L52.4671 282.568C53.9231 282.408 56.2751 281.832 56.2751 279.736C56.2751 278.424 55.5391 277.656 53.4911 277.656H52.4191L52.7711 272.84H57.3311V274.008H53.8751L53.6671 276.696C53.6671 276.696 54.0351 276.664 54.3711 276.664C56.2271 276.664 57.5871 277.64 57.5871 279.56ZM61.0567 280.184C61.0567 280.696 60.6407 281.112 60.1447 281.112C59.6327 281.112 59.2167 280.696 59.2167 280.184C59.2167 279.688 59.6327 279.272 60.1447 279.272C60.6407 279.272 61.0567 279.688 61.0567 280.184ZM68.5369 281H62.6009V280.168L65.3369 277.544C66.0729 276.824 66.6329 276.296 66.6329 275.416C66.6329 274.488 66.0569 273.8 64.9849 273.8C64.2649 273.8 63.7529 274.12 63.3689 274.44L62.7609 273.592C63.4489 273.016 64.1529 272.664 65.2569 272.664C66.8409 272.664 67.9289 273.592 67.9289 275.272C67.9289 276.392 67.2569 277.24 66.4889 277.944L64.4409 279.832V279.848H68.5369V281ZM76.3994 276.92C76.3994 279.048 75.5674 281.176 73.1514 281.176C70.7194 281.176 69.8874 279.048 69.8874 276.92C69.8874 274.792 70.7194 272.664 73.1514 272.664C75.5674 272.664 76.3994 274.792 76.3994 276.92ZM75.0874 276.92C75.0874 275.128 74.4954 273.784 73.1514 273.784C71.7914 273.784 71.1994 275.128 71.1994 276.92C71.1994 278.712 71.7914 280.056 73.1514 280.056C74.4954 280.056 75.0874 278.712 75.0874 276.92ZM83.6463 281H77.7103V280.168L80.4463 277.544C81.1823 276.824 81.7423 276.296 81.7423 275.416C81.7423 274.488 81.1663 273.8 80.0943 273.8C79.3743 273.8 78.8623 274.12 78.4783 274.44L77.8703 273.592C78.5583 273.016 79.2623 272.664 80.3663 272.664C81.9503 272.664 83.0383 273.592 83.0383 275.272C83.0383 276.392 82.3663 277.24 81.5983 277.944L79.5503 279.832V279.848H83.6463V281ZM90.9008 278.072C90.9008 279.96 89.7808 281.176 87.9728 281.176C85.9248 281.176 85.0608 279.656 85.0608 277.4C85.0608 273.048 87.6208 271.256 90.4048 271.032L90.5648 272.088C88.6448 272.296 86.7248 273.336 86.3568 276.008L86.3728 276.024C86.3728 276.024 87.1888 275.32 88.2928 275.32C89.9728 275.32 90.9008 276.392 90.9008 278.072ZM89.6368 278.328C89.6368 276.968 89.1088 276.392 87.9408 276.392C87.0288 276.392 86.3568 277.032 86.3568 277.032V277.336C86.3568 279.128 86.8208 280.12 88.0848 280.12C89.1408 280.12 89.6368 279.368 89.6368 278.328Z" fill="#00157E"/>
<path d="M342 268H328C326.895 268 326 268.895 326 270V284C326 285.105 326.895 286 328 286H342C343.105 286 344 285.105 344 284V270C344 268.895 343.105 268 342 268Z" stroke="#00157E" stroke-width="2" stroke-linecap="round" stroke-linejoin="round"/>
<path d="M339 266V270" stroke="#00157E" stroke-width="2" stroke-linecap="round" stroke-linejoin="round"/>
<path d="M331 266V270" stroke="#00157E" stroke-width="2" stroke-linecap="round" stroke-linejoin="round"/>
<path d="M326 274H344" stroke="#00157E" stroke-width="2" stroke-linecap="round" stroke-linejoin="round"/>
</g>
<rect width="375" height="64" transform="translate(0 748)" fill="white"/>
<path d="M20 760.5H355C356.933 760.5 358.5 762.067 358.5 764V796C358.5 797.933 356.933 799.5 355 799.5H20C18.067 799.5 16.5 797.933 16.5 796V764C16.5 762.067 18.067 760.5 20 760.5Z" fill="#00157E"/>
<path d="M20 760.5H355C356.933 760.5 358.5 762.067 358.5 764V796C358.5 797.933 356.933 799.5 355 799.5H20C18.067 799.5 16.5 797.933 16.5 796V764C16.5 762.067 18.067 760.5 20 760.5Z" stroke="#00157E"/>
<path d="M170.733 784.504C169.837 784.968 168.925 785.176 167.709 785.176C165.357 785.176 163.549 783.592 163.549 780.392C163.549 776.984 165.565 775.192 168.157 775.192C169.229 775.192 169.885 775.352 170.701 775.704L170.189 776.872C169.581 776.6 169.005 776.392 168.141 776.392C166.461 776.392 164.925 777.688 164.925 780.056C164.925 782.696 165.901 783.992 168.237 783.992C169.005 783.992 169.709 783.688 170.285 783.432L170.733 784.504ZM177.949 781.256C177.949 783.448 176.909 785.176 174.749 785.176C172.381 785.176 171.549 783.496 171.549 781.256C171.549 779.064 172.589 777.336 174.749 777.336C177.117 777.336 177.949 779.016 177.949 781.256ZM176.637 781.288C176.637 779.432 176.013 778.456 174.749 778.456C173.517 778.456 172.861 779.32 172.861 781.208C172.861 783.064 173.485 784.056 174.749 784.056C175.981 784.056 176.637 783.176 176.637 781.288ZM185.663 785H184.383V780.136C184.383 779.032 183.967 778.472 182.959 778.472C182.239 778.472 181.727 778.776 181.263 779.192V785H179.983V779.24L179.759 777.592L181.023 777.384L181.151 778.264H181.167C181.727 777.72 182.463 777.336 183.391 777.336C184.655 777.336 185.663 778.152 185.663 779.688V785ZM193.402 785H192.138V778.552H189.594V785H188.33V778.552H187.226V777.704L188.33 777.48V776.888C188.33 775.272 189.354 774.088 191.178 774.088C192.01 774.088 192.538 774.344 192.922 774.552L192.458 775.576C192.266 775.448 191.786 775.176 191.178 775.176C190.01 775.176 189.594 775.832 189.594 776.744V777.512H193.402V785ZM199.328 778.616C198.464 778.616 197.824 778.84 197.248 779.368V785H195.968V779.24L195.743 777.592L197.008 777.384L197.136 778.408H197.152C197.664 777.832 198.336 777.352 199.328 777.352V778.616ZM210.953 785H209.689V780.136C209.689 779.032 209.273 778.472 208.249 778.472C207.529 778.472 206.921 778.824 206.521 779.224C206.521 779.224 206.569 779.496 206.569 779.784V785H205.289V780.136C205.289 779.032 204.873 778.472 203.865 778.472C203.145 778.472 202.633 778.76 202.169 779.192V785H200.889V779.24L200.665 777.592L201.929 777.384L202.057 778.264H202.073C202.633 777.72 203.369 777.336 204.297 777.336C205.161 777.336 205.881 777.72 206.265 778.408H206.281C206.873 777.816 207.641 777.336 208.697 777.336C209.977 777.336 210.953 778.152 210.953 779.688V785Z" fill="white"/>
</g>
<defs>
<clipPath id="clip0_697_92434">
<rect width="375" height="812" fill="white"/>
</clipPath>
<clipPath id="clip1_697_92434">
<rect width="375" height="642" fill="white" transform="translate(0 106)"/>
</clipPath>
</defs>
</svg>
