<svg width="375" height="812" viewBox="0 0 375 812" fill="none" xmlns="http://www.w3.org/2000/svg">
<g clip-path="url(#clip0_393_69776)">
<rect width="375" height="812" fill="white"/>
<rect width="375" height="106" fill="white"/>
<path d="M343.99 22.17H357.993C359.556 22.17 360.823 23.4371 360.823 25.0001V29.6729C360.823 31.2359 359.556 32.503 357.993 32.503H343.99C342.427 32.503 341.16 31.2359 341.16 29.6729V25.0001C341.16 23.4371 342.427 22.17 343.99 22.17Z" stroke="#00157E"/>
<path d="M362.33 25.3367V29.3367C363.135 28.9979 363.658 28.2098 363.658 27.3367C363.658 26.4635 363.135 25.6754 362.33 25.3367" fill="#00157E"/>
<rect x="342.66" y="23.67" width="16.66" height="7.33333" rx="1.33333" fill="#00157E"/>
<path d="M325.427 30.0606C326.702 28.9817 328.571 28.9817 329.847 30.0606C329.911 30.1186 329.947 30.2007 329.949 30.2871C329.951 30.3736 329.917 30.457 329.855 30.5176L327.858 32.5332C327.8 32.5924 327.72 32.626 327.637 32.626C327.553 32.626 327.474 32.5924 327.415 32.5332L325.417 30.5176C325.355 30.457 325.321 30.3735 325.323 30.2871C325.325 30.2007 325.363 30.1185 325.427 30.0606ZM322.762 27.3711C325.51 24.8151 329.766 24.8151 332.514 27.3711C332.576 27.431 332.611 27.5135 332.612 27.5996C332.613 27.6858 332.579 27.7689 332.519 27.8301L331.364 28.9971C331.245 29.1162 331.053 29.1188 330.931 29.003C330.028 28.1858 328.854 27.7334 327.637 27.7334C326.42 27.7339 325.247 28.1863 324.345 29.003C324.223 29.1188 324.03 29.1162 323.911 28.9971L322.757 27.8301C322.696 27.769 322.662 27.6857 322.663 27.5996C322.664 27.5135 322.7 27.431 322.762 27.3711ZM320.097 24.6895C324.312 20.6503 330.962 20.6501 335.177 24.6895C335.238 24.7494 335.272 24.8316 335.272 24.917C335.273 25.0026 335.239 25.0848 335.179 25.1455L334.022 26.3125C333.903 26.432 333.711 26.4332 333.59 26.3155C331.984 24.7887 329.853 23.9376 327.637 23.9375C325.421 23.9375 323.289 24.7886 321.683 26.3155C321.562 26.4334 321.369 26.4322 321.25 26.3125L320.094 25.1455C320.033 25.0848 319.999 25.0026 320 24.917C320.001 24.8315 320.036 24.7494 320.097 24.6895Z" fill="#00157E"/>
<path d="M299.66 28.667C300.212 28.667 300.66 29.1147 300.66 29.667V31.667C300.66 32.2191 300.212 32.667 299.66 32.667H298.66C298.108 32.667 297.66 32.2191 297.66 31.667V29.667C297.66 29.1147 298.108 28.667 298.66 28.667H299.66ZM304.327 26.667C304.879 26.6672 305.327 27.1148 305.327 27.667V31.667C305.327 32.219 304.879 32.6668 304.327 32.667H303.327C302.775 32.667 302.327 32.2191 302.327 31.667V27.667C302.327 27.1147 302.775 26.667 303.327 26.667H304.327ZM308.993 24.333C309.545 24.333 309.993 24.7809 309.993 25.333V31.667C309.993 32.2191 309.545 32.667 308.993 32.667H307.993C307.441 32.6668 306.993 32.219 306.993 31.667V25.333C306.993 24.781 307.441 24.3332 307.993 24.333H308.993ZM313.66 22C314.212 22 314.66 22.4477 314.66 23V31.667C314.66 32.2191 314.212 32.667 313.66 32.667H312.66C312.108 32.667 311.66 32.2191 311.66 31.667V23C311.66 22.4477 312.108 22 312.66 22H313.66Z" fill="#00157E"/>
<path d="M32.1846 21.9175C34.4405 21.9175 36.4034 23.5215 36.4034 27.3301V27.3447C36.4034 30.9043 34.7994 33.0137 32.1407 33.0137C30.1998 33.0137 28.7496 31.8638 28.4127 30.2451L28.398 30.1646H30.2584L30.2804 30.2378C30.5587 30.9775 31.2105 31.4609 32.1407 31.4609C33.8179 31.4609 34.5284 29.8203 34.609 27.7988C34.609 27.7183 34.6163 27.6377 34.6163 27.5571H34.4698C34.0816 28.3921 33.1588 29.1318 31.7086 29.1318C29.6798 29.1318 28.2589 27.6523 28.2589 25.6455V25.6309C28.2589 23.4849 29.8922 21.9175 32.1846 21.9175ZM32.1773 27.6816C33.3712 27.6816 34.2867 26.8174 34.2867 25.6235V25.6089C34.2867 24.4004 33.3712 23.4556 32.1993 23.4556C31.0347 23.4556 30.1046 24.3857 30.1046 25.5649V25.5796C30.1046 26.8027 30.9762 27.6816 32.1773 27.6816ZM39.4486 25.9019C38.7821 25.9019 38.284 25.3892 38.284 24.7446C38.284 24.0928 38.7821 23.5874 39.4486 23.5874C40.1224 23.5874 40.6131 24.0928 40.6131 24.7446C40.6131 25.3892 40.1224 25.9019 39.4486 25.9019ZM39.4486 31.3364C38.7821 31.3364 38.284 30.8311 38.284 30.1792C38.284 29.5273 38.7821 29.022 39.4486 29.022C40.1224 29.022 40.6131 29.5273 40.6131 30.1792C40.6131 30.8311 40.1224 31.3364 39.4486 31.3364ZM47.6207 32.75V30.7212H42.4498V29.1758C43.8195 26.7954 45.3209 24.3638 46.7565 22.1812H49.4298V29.1611H50.8507V30.7212H49.4298V32.75H47.6207ZM44.2077 29.2051H47.65V23.6899H47.5402C46.4562 25.3452 45.233 27.3008 44.2077 29.0952V29.2051ZM54.9506 32.75V24.0415H54.8261L52.1967 25.9019V24.1221L54.9579 22.1812H56.8403V32.75H54.9506Z" fill="#00157E"/>
<path d="M353 71.9292L341 83.9292" stroke="#00157E" stroke-width="2" stroke-linecap="round" stroke-linejoin="round"/>
<path d="M341 71.9292L353 83.9292" stroke="#00157E" stroke-width="2" stroke-linecap="round" stroke-linejoin="round"/>
<path d="M160.004 83.3L157.584 84.3L154.764 79.18C154.504 79.22 154.264 79.22 154.024 79.22H153.844V84H151.204V72.08C151.204 72.08 152.904 71.84 154.464 71.84C157.244 71.84 158.864 72.9 158.864 75.16C158.864 76.56 158.084 77.58 157.024 78.24L160.004 83.3ZM156.344 75.44C156.344 74.22 155.484 73.8 154.444 73.8C154.104 73.8 153.844 73.84 153.844 73.84V77.5H154.004C155.224 77.5 156.344 76.9 156.344 75.44ZM168.518 83.44C167.458 83.98 166.578 84.24 165.298 84.24C162.138 84.24 160.738 82.32 160.738 79.12C160.738 76.26 162.438 74.32 164.958 74.32C167.598 74.32 168.458 76.14 168.458 78.42V79.54H163.218C163.298 81.22 164.098 82.02 165.618 82.02C166.518 82.02 167.018 81.8 167.738 81.5L168.518 83.44ZM166.238 78C166.238 77.02 165.818 76.36 164.878 76.36C163.878 76.36 163.378 77.12 163.258 78H166.238ZM177.02 74.74L176.26 76.96C175.76 76.74 175.3 76.56 174.62 76.56C173.36 76.56 172.42 77.46 172.42 79.16C172.42 81.08 173.28 81.92 174.5 81.92C175.22 81.92 175.6 81.76 176.2 81.52L176.96 83.6C176.08 84 175.26 84.24 174.18 84.24C171.34 84.24 169.84 82.32 169.84 79.3C169.84 75.82 172.2 74.3 174.62 74.3C175.56 74.3 176.2 74.42 177.02 74.74ZM181.398 84H178.858V77L178.538 74.66L181.398 74.34V84ZM181.638 71.88C181.638 72.72 180.978 73.4 180.138 73.4C179.298 73.4 178.638 72.72 178.638 71.88C178.638 71.06 179.298 70.38 180.138 70.38C180.978 70.38 181.638 71.06 181.638 71.88ZM191.996 78.82C191.996 82.12 190.276 84.08 187.296 84.08C186.956 84.08 186.616 84.02 186.476 83.98V87.92L183.936 88.24V77L183.616 74.66L186.056 74.34L186.176 75.3H186.196C186.436 75.1 187.356 74.3 188.616 74.3C191.016 74.3 191.996 76.12 191.996 78.82ZM189.456 79.24C189.456 77.48 189.136 76.52 187.756 76.52C187.116 76.52 186.656 76.88 186.476 77.02V81.78C186.616 81.84 186.936 81.94 187.376 81.94C188.776 81.94 189.456 80.88 189.456 79.24ZM196.555 84H194.015V77L193.695 74.66L196.555 74.34V84ZM196.795 71.88C196.795 72.72 196.135 73.4 195.295 73.4C194.455 73.4 193.795 72.72 193.795 71.88C193.795 71.06 194.455 70.38 195.295 70.38C196.135 70.38 196.795 71.06 196.795 71.88ZM206.292 83.44C205.232 83.98 204.352 84.24 203.072 84.24C199.912 84.24 198.512 82.32 198.512 79.12C198.512 76.26 200.212 74.32 202.732 74.32C205.372 74.32 206.232 76.14 206.232 78.42V79.54H200.992C201.072 81.22 201.872 82.02 203.392 82.02C204.292 82.02 204.792 81.8 205.512 81.5L206.292 83.44ZM204.012 78C204.012 77.02 203.592 76.36 202.652 76.36C201.652 76.36 201.152 77.12 201.032 78H204.012ZM216.173 84H213.633V78C213.633 76.98 213.213 76.52 212.313 76.52C211.653 76.52 211.093 76.84 210.733 77.2V84H208.193V77L207.873 74.66L210.313 74.34L210.433 75.38H210.453C211.013 74.82 211.953 74.3 213.213 74.3C214.853 74.3 216.173 75.24 216.173 77.38V84ZM224.522 83.54C223.702 83.98 223.082 84.22 221.822 84.22C219.942 84.22 219.022 82.96 219.022 81.08V76.54H217.562V74.86L219.022 74.52V72.88L221.542 72.58V74.54H224.142V76.54H221.542V80.4C221.542 81.66 221.862 81.98 222.682 81.98C223.142 81.98 223.402 81.86 223.842 81.66L224.522 83.54Z" fill="#00157E"/>
<path d="M35 77.9292H21" stroke="#00157E" stroke-width="2" stroke-linecap="round" stroke-linejoin="round"/>
<path d="M28 84.9292L21 77.9292L28 70.9292" stroke="#00157E" stroke-width="2" stroke-linecap="round" stroke-linejoin="round"/>
<g clip-path="url(#clip1_393_69776)">
<path d="M18.338 134H17.162V125.572H18.338V134ZM26.038 131.424C26.038 133.314 24.484 134 22.44 134H20.662V125.628C20.662 125.628 21.726 125.502 22.818 125.502C24.428 125.502 25.408 126.104 25.408 127.434C25.408 128.442 24.778 129.114 23.98 129.464V129.478C25.114 129.604 26.038 130.262 26.038 131.424ZM24.876 131.606C24.876 130.668 24.274 130.108 22.622 130.108H21.81V133.048H22.832C23.98 133.048 24.876 132.614 24.876 131.606ZM24.246 127.7C24.246 126.762 23.644 126.356 22.566 126.356C22.174 126.356 21.81 126.398 21.81 126.398V129.296C23.252 129.268 24.246 128.862 24.246 127.7ZM33.654 133.86L32.506 134.182L31.61 131.27H28.866L28.012 134H26.78L29.706 125.572H30.91L33.654 133.86ZM31.358 130.43L30.266 126.79H30.252L29.118 130.43H31.358ZM41.2042 133.916L40.0702 134.126L36.1502 127.378H36.1362V134H35.0722V125.572H36.3322L40.1262 132.082H40.1402V125.572H41.2042V133.916Z" fill="#00157E" fill-opacity="0.7"/>
<mask id="path-15-inside-1_393_69776" fill="white">
<path d="M16 146H359V186H16V146Z"/>
</mask>
<path d="M359 186V185H16V186V187H359V186Z" fill="#00157E" fill-opacity="0.2" mask="url(#path-15-inside-1_393_69776)"/>
<path d="M24.1795 170.504C23.2835 170.968 22.3715 171.176 21.1555 171.176C18.8035 171.176 16.9955 169.592 16.9955 166.392C16.9955 162.984 19.0115 161.192 21.6035 161.192C22.6755 161.192 23.3315 161.352 24.1475 161.704L23.6355 162.872C23.0275 162.6 22.4515 162.392 21.5875 162.392C19.9075 162.392 18.3715 163.688 18.3715 166.056C18.3715 168.696 19.3475 169.992 21.6835 169.992C22.4515 169.992 23.1555 169.688 23.7315 169.432L24.1795 170.504ZM32.8764 171H31.5324V166.6H27.1964V171H25.8524V161.368H27.1964V165.464H31.5324V161.368H32.8764V171ZM40.0999 170.36C40.0999 172.28 38.8679 173.496 36.7559 173.496C36.1319 173.496 35.4759 173.384 34.8839 173.24L35.1719 172.04C35.6999 172.2 36.1479 172.328 36.7879 172.328C38.0519 172.328 38.8199 171.704 38.8199 170.552C38.8199 168.984 37.3799 168.376 35.3479 168.376V167.464C37.7159 167.32 38.3719 166.264 38.3719 165.224C38.3719 164.312 37.8119 163.8 36.9159 163.8C36.1799 163.8 35.7479 164.04 35.2679 164.36L34.7399 163.48C35.3159 163.032 36.0519 162.664 37.1719 162.664C38.7079 162.664 39.6519 163.576 39.6519 165.064C39.6519 166.36 38.8999 167.224 37.8279 167.736V167.752C39.3959 168.088 40.0999 169.128 40.0999 170.36ZM46.8537 169.56C46.8537 172.632 43.9577 173.496 41.8937 173.656L41.7337 172.568C43.1897 172.408 45.5417 171.832 45.5417 169.736C45.5417 168.424 44.8057 167.656 42.7577 167.656H41.6857L42.0377 162.84H46.5977V164.008H43.1417L42.9337 166.696C42.9337 166.696 43.3017 166.664 43.6377 166.664C45.4937 166.664 46.8537 167.64 46.8537 169.56ZM58.3067 166.92C58.3067 169.048 57.4747 171.176 55.0587 171.176C52.6267 171.176 51.7947 169.048 51.7947 166.92C51.7947 164.792 52.6267 162.664 55.0587 162.664C57.4747 162.664 58.3067 164.792 58.3067 166.92ZM56.9947 166.92C56.9947 165.128 56.4027 163.784 55.0587 163.784C53.6987 163.784 53.1067 165.128 53.1067 166.92C53.1067 168.712 53.6987 170.056 55.0587 170.056C56.4027 170.056 56.9947 168.712 56.9947 166.92ZM65.725 166.792C65.725 171.208 63.485 173.272 60.301 173.656L60.045 172.616C62.061 172.376 64.093 171.08 64.381 168.024L64.365 168.008C64.365 168.008 63.613 168.648 62.477 168.648C60.877 168.648 59.837 167.448 59.837 165.8C59.837 163.8 61.037 162.664 62.845 162.664C64.701 162.664 65.725 163.944 65.725 166.792ZM64.397 166.776C64.397 165.192 64.109 163.752 62.685 163.752C61.677 163.752 61.085 164.584 61.085 165.624C61.085 166.952 61.693 167.592 62.829 167.592C63.805 167.592 64.397 167.016 64.397 167.016V166.776ZM74.0254 166.92C74.0254 169.048 73.1934 171.176 70.7774 171.176C68.3454 171.176 67.5134 169.048 67.5134 166.92C67.5134 164.792 68.3454 162.664 70.7774 162.664C73.1934 162.664 74.0254 164.792 74.0254 166.92ZM72.7134 166.92C72.7134 165.128 72.1214 163.784 70.7774 163.784C69.4174 163.784 68.8254 165.128 68.8254 166.92C68.8254 168.712 69.4174 170.056 70.7774 170.056C72.1214 170.056 72.7134 168.712 72.7134 166.92ZM82.2598 166.92C82.2598 169.048 81.4278 171.176 79.0118 171.176C76.5798 171.176 75.7478 169.048 75.7478 166.92C75.7478 164.792 76.5798 162.664 79.0118 162.664C81.4278 162.664 82.2598 164.792 82.2598 166.92ZM80.9478 166.92C80.9478 165.128 80.3558 163.784 79.0118 163.784C77.6518 163.784 77.0598 165.128 77.0598 166.92C77.0598 168.712 77.6518 170.056 79.0118 170.056C80.3558 170.056 80.9478 168.712 80.9478 166.92ZM93.8535 166.92C93.8535 169.048 93.0215 171.176 90.6055 171.176C88.1735 171.176 87.3415 169.048 87.3415 166.92C87.3415 164.792 88.1735 162.664 90.6055 162.664C93.0215 162.664 93.8535 164.792 93.8535 166.92ZM92.5415 166.92C92.5415 165.128 91.9495 163.784 90.6055 163.784C89.2455 163.784 88.6535 165.128 88.6535 166.92C88.6535 168.712 89.2455 170.056 90.6055 170.056C91.9495 170.056 92.5415 168.712 92.5415 166.92ZM102.088 166.92C102.088 169.048 101.256 171.176 98.8399 171.176C96.4079 171.176 95.5759 169.048 95.5759 166.92C95.5759 164.792 96.4079 162.664 98.8399 162.664C101.256 162.664 102.088 164.792 102.088 166.92ZM100.776 166.92C100.776 165.128 100.184 163.784 98.8399 163.784C97.4799 163.784 96.8879 165.128 96.8879 166.92C96.8879 168.712 97.4799 170.056 98.8399 170.056C100.184 170.056 100.776 168.712 100.776 166.92ZM110.322 166.92C110.322 169.048 109.49 171.176 107.074 171.176C104.642 171.176 103.81 169.048 103.81 166.92C103.81 164.792 104.642 162.664 107.074 162.664C109.49 162.664 110.322 164.792 110.322 166.92ZM109.01 166.92C109.01 165.128 108.418 163.784 107.074 163.784C105.714 163.784 105.122 165.128 105.122 166.92C105.122 168.712 105.714 170.056 107.074 170.056C108.418 170.056 109.01 168.712 109.01 166.92ZM118.557 166.92C118.557 169.048 117.725 171.176 115.309 171.176C112.877 171.176 112.045 169.048 112.045 166.92C112.045 164.792 112.877 162.664 115.309 162.664C117.725 162.664 118.557 164.792 118.557 166.92ZM117.245 166.92C117.245 165.128 116.653 163.784 115.309 163.784C113.949 163.784 113.357 165.128 113.357 166.92C113.357 168.712 113.949 170.056 115.309 170.056C116.653 170.056 117.245 168.712 117.245 166.92ZM129.35 171H123.414V170.168L126.15 167.544C126.886 166.824 127.446 166.296 127.446 165.416C127.446 164.488 126.87 163.8 125.798 163.8C125.078 163.8 124.566 164.12 124.182 164.44L123.574 163.592C124.262 163.016 124.966 162.664 126.07 162.664C127.654 162.664 128.742 163.592 128.742 165.272C128.742 166.392 128.07 167.24 127.302 167.944L125.254 169.832V169.848H129.35V171ZM135.885 169.56C135.885 172.632 132.989 173.496 130.925 173.656L130.765 172.568C132.221 172.408 134.573 171.832 134.573 169.736C134.573 168.424 133.837 167.656 131.789 167.656H130.717L131.069 162.84H135.629V164.008H132.173L131.965 166.696C131.965 166.696 132.333 166.664 132.669 166.664C134.525 166.664 135.885 167.64 135.885 169.56ZM143.371 168.072C143.371 169.96 142.251 171.176 140.443 171.176C138.395 171.176 137.531 169.656 137.531 167.4C137.531 163.048 140.091 161.256 142.875 161.032L143.035 162.088C141.115 162.296 139.195 163.336 138.827 166.008L138.843 166.024C138.843 166.024 139.659 165.32 140.763 165.32C142.443 165.32 143.371 166.392 143.371 168.072ZM142.107 168.328C142.107 166.968 141.579 166.392 140.411 166.392C139.499 166.392 138.827 167.032 138.827 167.032V167.336C138.827 169.128 139.291 170.12 140.555 170.12C141.611 170.12 142.107 169.368 142.107 168.328ZM151.4 166.92C151.4 169.048 150.568 171.176 148.152 171.176C145.72 171.176 144.888 169.048 144.888 166.92C144.888 164.792 145.72 162.664 148.152 162.664C150.568 162.664 151.4 164.792 151.4 166.92ZM150.088 166.92C150.088 165.128 149.496 163.784 148.152 163.784C146.792 163.784 146.2 165.128 146.2 166.92C146.2 168.712 146.792 170.056 148.152 170.056C149.496 170.056 150.088 168.712 150.088 166.92ZM162.994 166.92C162.994 169.048 162.162 171.176 159.746 171.176C157.314 171.176 156.482 169.048 156.482 166.92C156.482 164.792 157.314 162.664 159.746 162.664C162.162 162.664 162.994 164.792 162.994 166.92ZM161.682 166.92C161.682 165.128 161.09 163.784 159.746 163.784C158.386 163.784 157.794 165.128 157.794 166.92C157.794 168.712 158.386 170.056 159.746 170.056C161.09 170.056 161.682 168.712 161.682 166.92ZM170.621 168.072C170.621 169.96 169.501 171.176 167.693 171.176C165.645 171.176 164.781 169.656 164.781 167.4C164.781 163.048 167.341 161.256 170.125 161.032L170.285 162.088C168.365 162.296 166.445 163.336 166.077 166.008L166.093 166.024C166.093 166.024 166.909 165.32 168.013 165.32C169.693 165.32 170.621 166.392 170.621 168.072ZM169.357 168.328C169.357 166.968 168.829 166.392 167.661 166.392C166.749 166.392 166.077 167.032 166.077 167.032V167.336C166.077 169.128 166.541 170.12 167.805 170.12C168.861 170.12 169.357 169.368 169.357 168.328ZM177.834 166.792C177.834 171.208 175.594 173.272 172.41 173.656L172.154 172.616C174.17 172.376 176.202 171.08 176.49 168.024L176.474 168.008C176.474 168.008 175.722 168.648 174.586 168.648C172.986 168.648 171.946 167.448 171.946 165.8C171.946 163.8 173.146 162.664 174.954 162.664C176.81 162.664 177.834 163.944 177.834 166.792ZM176.506 166.776C176.506 165.192 176.218 163.752 174.794 163.752C173.786 163.752 173.194 164.584 173.194 165.624C173.194 166.952 173.802 167.592 174.938 167.592C175.914 167.592 176.506 167.016 176.506 167.016V166.776ZM185.527 168.072C185.527 169.96 184.407 171.176 182.599 171.176C180.551 171.176 179.687 169.656 179.687 167.4C179.687 163.048 182.247 161.256 185.031 161.032L185.191 162.088C183.271 162.296 181.351 163.336 180.983 166.008L180.999 166.024C180.999 166.024 181.815 165.32 182.919 165.32C184.599 165.32 185.527 166.392 185.527 168.072ZM184.263 168.328C184.263 166.968 183.735 166.392 182.567 166.392C181.655 166.392 180.983 167.032 180.983 167.032V167.336C180.983 169.128 181.447 170.12 182.711 170.12C183.767 170.12 184.263 169.368 184.263 168.328ZM196.916 166.92C196.916 169.048 196.084 171.176 193.668 171.176C191.236 171.176 190.404 169.048 190.404 166.92C190.404 164.792 191.236 162.664 193.668 162.664C196.084 162.664 196.916 164.792 196.916 166.92ZM195.604 166.92C195.604 165.128 195.012 163.784 193.668 163.784C192.308 163.784 191.716 165.128 191.716 166.92C191.716 168.712 192.308 170.056 193.668 170.056C195.012 170.056 195.604 168.712 195.604 166.92Z" fill="#00157E"/>
<path d="M346.999 157L351.999 162L338.999 175H333.999V170L346.999 157Z" stroke="#00157E" stroke-width="2" stroke-linecap="round" stroke-linejoin="round"/>
<path d="M22.538 235.424C22.538 237.314 20.984 238 18.94 238H17.162V229.628C17.162 229.628 18.226 229.502 19.318 229.502C20.928 229.502 21.908 230.104 21.908 231.434C21.908 232.442 21.278 233.114 20.48 233.464V233.478C21.614 233.604 22.538 234.262 22.538 235.424ZM21.376 235.606C21.376 234.668 20.774 234.108 19.122 234.108H18.31V237.048H19.332C20.48 237.048 21.376 236.614 21.376 235.606ZM20.746 231.7C20.746 230.762 20.144 230.356 19.066 230.356C18.674 230.356 18.31 230.398 18.31 230.398V233.296C19.752 233.268 20.746 232.862 20.746 231.7ZM28.418 237.93L27.298 238.112L27.2 237.342H27.186C26.71 237.79 26.192 238.168 25.408 238.168C24.316 238.168 23.672 237.51 23.672 236.474C23.672 235.298 24.596 234.724 25.926 234.584L27.102 234.458V233.87C27.102 232.96 26.822 232.316 25.744 232.316C25.198 232.316 24.792 232.484 24.386 232.694L23.98 231.868C24.568 231.518 25.17 231.294 26.01 231.294C27.326 231.294 28.208 232.064 28.208 233.366V236.488L28.418 237.93ZM27.102 236.642V235.214L26.08 235.354C25.24 235.466 24.778 235.732 24.778 236.334C24.778 236.88 25.114 237.244 25.674 237.244C26.332 237.244 26.738 236.964 27.102 236.642ZM35.4338 238H34.3138V233.744C34.3138 232.778 33.9498 232.288 33.0678 232.288C32.4378 232.288 31.9898 232.554 31.5838 232.918V238H30.4638V232.96L30.2677 231.518L31.3738 231.336L31.4858 232.106H31.4998C31.9898 231.63 32.6338 231.294 33.4458 231.294C34.5518 231.294 35.4338 232.008 35.4338 233.352V238ZM38.7335 238H37.6135V230.062L37.4175 228.62L38.7335 228.438V238ZM42.8635 237.804L41.7435 238.21L38.7615 234.444L41.1275 231.448H42.4015L40.0775 234.346L42.8635 237.804ZM53.2491 237.916L52.1151 238.126L48.1951 231.378H48.1811V238H47.1171V229.572H48.3771L52.1711 236.082H52.1851V229.572H53.2491V237.916ZM59.8223 237.93L58.7023 238.112L58.6043 237.342H58.5903C58.1143 237.79 57.5963 238.168 56.8123 238.168C55.7203 238.168 55.0763 237.51 55.0763 236.474C55.0763 235.298 56.0003 234.724 57.3303 234.584L58.5063 234.458V233.87C58.5063 232.96 58.2263 232.316 57.1483 232.316C56.6023 232.316 56.1963 232.484 55.7903 232.694L55.3843 231.868C55.9723 231.518 56.5743 231.294 57.4143 231.294C58.7303 231.294 59.6123 232.064 59.6123 233.366V236.488L59.8223 237.93ZM58.5063 236.642V235.214L57.4843 235.354C56.6443 235.466 56.1823 235.732 56.1823 236.334C56.1823 236.88 56.5183 237.244 57.0783 237.244C57.7363 237.244 58.1423 236.964 58.5063 236.642ZM70.674 238H69.568V233.744C69.568 232.778 69.204 232.288 68.308 232.288C67.678 232.288 67.146 232.596 66.796 232.946C66.796 232.946 66.838 233.184 66.838 233.436V238H65.718V233.744C65.718 232.778 65.354 232.288 64.472 232.288C63.842 232.288 63.394 232.54 62.988 232.918V238H61.868V232.96L61.672 231.518L62.778 231.336L62.89 232.106H62.904C63.394 231.63 64.038 231.294 64.85 231.294C65.606 231.294 66.236 231.63 66.572 232.232H66.586C67.104 231.714 67.776 231.294 68.7 231.294C69.82 231.294 70.674 232.008 70.674 233.352V238ZM77.4513 237.65C76.8213 238 76.1773 238.154 75.3792 238.154C73.4473 238.154 72.4533 236.852 72.4533 234.682C72.4533 232.652 73.5173 231.294 75.1693 231.294C76.7513 231.294 77.3953 232.344 77.3953 233.786V234.57H73.5453C73.5593 236.32 74.1893 237.16 75.6173 237.16C76.1633 237.16 76.5833 237.006 77.0593 236.768L77.4513 237.65ZM76.3453 233.786C76.3453 232.806 75.9813 232.19 75.1133 232.19C74.2733 232.19 73.7413 232.848 73.6013 233.786H76.3453Z" fill="#00157E" fill-opacity="0.7"/>
<mask id="path-21-inside-2_393_69776" fill="white">
<path d="M16 250H359V290H16V250Z"/>
</mask>
<path d="M359 290V289H16V290V291H359V290Z" fill="#00157E" fill-opacity="0.2" mask="url(#path-21-inside-2_393_69776)"/>
<path d="M25.0379 271.096C25.0379 273.848 23.4859 275.208 21.4059 275.208C19.1819 275.208 17.7579 274.088 17.7579 271.064V265.368H19.1339V271.128C19.1339 273.032 19.8699 273.928 21.3579 273.928C22.8459 273.928 23.7579 273.016 23.7579 271.16V265.368H25.0379V271.096ZM33.8089 272.056C33.8089 274.216 32.0329 275 29.6969 275H27.6649V265.432C27.6649 265.432 28.8809 265.288 30.1289 265.288C31.9689 265.288 33.0889 265.976 33.0889 267.496C33.0889 268.648 32.3689 269.416 31.4569 269.816V269.832C32.7529 269.976 33.8089 270.728 33.8089 272.056ZM32.4809 272.264C32.4809 271.192 31.7929 270.552 29.9049 270.552H28.9769V273.912H30.1449C31.4569 273.912 32.4809 273.416 32.4809 272.264ZM31.7609 267.8C31.7609 266.728 31.0729 266.264 29.8409 266.264C29.3929 266.264 28.9769 266.312 28.9769 266.312V269.624C30.6249 269.592 31.7609 269.128 31.7609 267.8ZM40.8809 272.296C40.8809 273.976 39.7129 275.176 37.7769 275.176C36.7849 275.176 35.9049 274.968 35.1529 274.648L35.5689 273.48C36.1929 273.768 36.9289 274.008 37.6809 274.008C38.8489 274.008 39.6009 273.56 39.6009 272.504C39.6009 271.72 39.0249 271.336 38.2569 270.968L36.7529 270.248C35.7449 269.768 35.0569 269.144 35.0569 267.784C35.0569 266.136 36.4969 265.192 38.1609 265.192C39.0569 265.192 39.6329 265.336 40.4649 265.64L40.0169 266.776C39.5049 266.536 38.9449 266.312 38.2409 266.312C37.2489 266.312 36.3529 266.712 36.3529 267.736C36.3529 268.424 36.7689 268.76 37.4089 269.064L38.9449 269.816C40.1609 270.408 40.8809 271.064 40.8809 272.296Z" fill="#00157E"/>
<path d="M22.552 357.734L21.516 358.238L19.15 354.402C18.94 354.43 18.744 354.444 18.534 354.444H18.324V358H17.162V349.642C17.162 349.642 18.226 349.488 19.318 349.488C20.942 349.488 21.964 350.272 21.964 351.602C21.964 352.89 21.222 353.688 20.228 354.08L22.552 357.734ZM20.83 351.812C20.83 350.804 20.13 350.37 19.122 350.37C18.674 350.37 18.324 350.412 18.324 350.412V353.59H18.506C19.64 353.59 20.83 353.114 20.83 351.812ZM28.4513 357.65C27.8213 358 27.1773 358.154 26.3792 358.154C24.4473 358.154 23.4533 356.852 23.4533 354.682C23.4533 352.652 24.5173 351.294 26.1693 351.294C27.7513 351.294 28.3953 352.344 28.3953 353.786V354.57H24.5453C24.5593 356.32 25.1893 357.16 26.6173 357.16C27.1633 357.16 27.5833 357.006 28.0593 356.768L28.4513 357.65ZM27.3453 353.786C27.3453 352.806 26.9813 352.19 26.1133 352.19C25.2733 352.19 24.7413 352.848 24.6013 353.786H27.3453ZM34.35 351.574L34 352.582C33.636 352.442 33.23 352.316 32.768 352.316C31.536 352.316 30.794 353.24 30.794 354.626C30.794 356.376 31.48 357.174 32.74 357.174C33.188 357.174 33.552 357.02 33.916 356.866L34.294 357.776C33.748 358.028 33.146 358.154 32.516 358.154C30.64 358.154 29.674 356.81 29.674 354.808C29.674 352.4 31.158 351.294 32.824 351.294C33.398 351.294 33.888 351.392 34.35 351.574ZM37.0395 358H35.9195V352.96L35.7235 351.518L37.0395 351.336V358ZM37.2635 349.74C37.2635 350.188 36.9135 350.524 36.4935 350.524C36.0595 350.524 35.6955 350.188 35.6955 349.74C35.6955 349.292 36.0595 348.942 36.4935 348.942C36.9135 348.942 37.2635 349.292 37.2635 349.74ZM44.4341 354.402C44.4341 356.53 43.5101 358.07 41.3261 358.07C40.9621 358.07 40.6681 358.042 40.4021 357.972V360.772L39.2821 360.954V352.96L39.0861 351.518L40.1921 351.336L40.2901 352.008H40.3041C40.7381 351.644 41.3121 351.294 42.0681 351.294C43.6641 351.294 44.4341 352.498 44.4341 354.402ZM43.3141 354.724C43.3141 353.296 42.9921 352.302 41.6901 352.302C41.1301 352.302 40.7241 352.54 40.4021 352.806V356.936C40.6681 357.048 40.9761 357.118 41.4101 357.118C42.6281 357.118 43.3141 356.166 43.3141 354.724ZM47.3618 358H46.2418V352.96L46.0458 351.518L47.3618 351.336V358ZM47.5858 349.74C47.5858 350.188 47.2358 350.524 46.8158 350.524C46.3818 350.524 46.0177 350.188 46.0177 349.74C46.0177 349.292 46.3818 348.942 46.8158 348.942C47.2358 348.942 47.5858 349.292 47.5858 349.74ZM54.1544 357.65C53.5244 358 52.8804 358.154 52.0824 358.154C50.1504 358.154 49.1564 356.852 49.1564 354.682C49.1564 352.652 50.2204 351.294 51.8724 351.294C53.4544 351.294 54.0984 352.344 54.0984 353.786V354.57H50.2484C50.2624 356.32 50.8924 357.16 52.3204 357.16C52.8664 357.16 53.2864 357.006 53.7624 356.768L54.1544 357.65ZM53.0484 353.786C53.0484 352.806 52.6844 352.19 51.8164 352.19C50.9764 352.19 50.4444 352.848 50.3044 353.786H53.0484ZM60.7951 358H59.6751V353.744C59.6751 352.778 59.3111 352.288 58.4291 352.288C57.7991 352.288 57.3511 352.554 56.9451 352.918V358H55.8251V352.96L55.6291 351.518L56.7351 351.336L56.8471 352.106H56.8611C57.3511 351.63 57.9951 351.294 58.8071 351.294C59.9131 351.294 60.7951 352.008 60.7951 353.352V358ZM66.2788 357.734C65.8728 357.958 65.4948 358.14 64.7808 358.14C63.7728 358.14 63.1288 357.482 63.1288 356.362V352.358H62.1628V351.616L63.1288 351.42V350.328L64.2348 350.188V351.448H66.0688V352.358H64.2348V355.984C64.2348 356.866 64.4588 357.146 65.1028 357.146C65.4528 357.146 65.7188 357.006 65.9148 356.88L66.2788 357.734ZM75.6838 358H74.5638V353.744C74.5638 352.778 74.1998 352.288 73.3178 352.288C72.6878 352.288 72.2398 352.554 71.8338 352.918V358H70.7138V352.96L70.5177 351.518L71.6238 351.336L71.7358 352.106H71.7498C72.2398 351.63 72.8838 351.294 73.6958 351.294C74.8018 351.294 75.6838 352.008 75.6838 353.352V358ZM82.1895 357.93L81.0695 358.112L80.9715 357.342H80.9575C80.4815 357.79 79.9635 358.168 79.1795 358.168C78.0875 358.168 77.4435 357.51 77.4435 356.474C77.4435 355.298 78.3675 354.724 79.6975 354.584L80.8735 354.458V353.87C80.8735 352.96 80.5935 352.316 79.5155 352.316C78.9695 352.316 78.5635 352.484 78.1575 352.694L77.7515 351.868C78.3395 351.518 78.9415 351.294 79.7815 351.294C81.0975 351.294 81.9795 352.064 81.9795 353.366V356.488L82.1895 357.93ZM80.8735 356.642V355.214L79.8515 355.354C79.0115 355.466 78.5495 355.732 78.5495 356.334C78.5495 356.88 78.8855 357.244 79.4455 357.244C80.1035 357.244 80.5095 356.964 80.8735 356.642ZM93.0412 358H91.9352V353.744C91.9352 352.778 91.5712 352.288 90.6752 352.288C90.0452 352.288 89.5132 352.596 89.1632 352.946C89.1632 352.946 89.2052 353.184 89.2052 353.436V358H88.0852V353.744C88.0852 352.778 87.7212 352.288 86.8392 352.288C86.2092 352.288 85.7612 352.54 85.3552 352.918V358H84.2352V352.96L84.0392 351.518L85.1452 351.336L85.2572 352.106H85.2712C85.7612 351.63 86.4052 351.294 87.2172 351.294C87.9732 351.294 88.6032 351.63 88.9392 352.232H88.9532C89.4712 351.714 90.1432 351.294 91.0672 351.294C92.1872 351.294 93.0412 352.008 93.0412 353.352V358ZM99.8184 357.65C99.1884 358 98.5444 358.154 97.7464 358.154C95.8144 358.154 94.8204 356.852 94.8204 354.682C94.8204 352.652 95.8844 351.294 97.5364 351.294C99.1184 351.294 99.7624 352.344 99.7624 353.786V354.57H95.9124C95.9264 356.32 96.5564 357.16 97.9844 357.16C98.5304 357.16 98.9504 357.006 99.4264 356.768L99.8184 357.65ZM98.7124 353.786C98.7124 352.806 98.3484 352.19 97.4804 352.19C96.6404 352.19 96.1084 352.848 95.9684 353.786H98.7124Z" fill="#00157E" fill-opacity="0.7"/>
<path d="M16 374C16 371.791 17.7909 370 20 370H355C357.209 370 359 371.791 359 374V406C359 408.209 357.209 410 355 410H20C17.7909 410 16 408.209 16 406V374Z" fill="white"/>
<path d="M20 370.5H355C356.933 370.5 358.5 372.067 358.5 374V406C358.5 407.933 356.933 409.5 355 409.5H20C18.067 409.5 16.5 407.933 16.5 406V374C16.5 372.067 18.067 370.5 20 370.5Z" stroke="#00157E" stroke-opacity="0.7"/>
<path d="M36.8208 395H35.4768V390.6H31.1408V395H29.7968V385.368H31.1408V389.464H35.4768V385.368H36.8208V395ZM44.3483 394.92L43.0683 395.128L42.9563 394.248H42.9403C42.3963 394.76 41.8043 395.192 40.9083 395.192C39.6603 395.192 38.9243 394.44 38.9243 393.256C38.9243 391.912 39.9803 391.256 41.5003 391.096L42.8443 390.952V390.28C42.8443 389.24 42.5243 388.504 41.2923 388.504C40.6683 388.504 40.2043 388.696 39.7403 388.936L39.2763 387.992C39.9483 387.592 40.6363 387.336 41.5963 387.336C43.1003 387.336 44.1083 388.216 44.1083 389.704V393.272L44.3483 394.92ZM42.8443 393.448V391.816L41.6763 391.976C40.7163 392.104 40.1883 392.408 40.1883 393.096C40.1883 393.72 40.5723 394.136 41.2123 394.136C41.9643 394.136 42.4283 393.816 42.8443 393.448ZM52.3663 395H51.0863V390.136C51.0863 389.032 50.6703 388.472 49.6623 388.472C48.9423 388.472 48.4303 388.776 47.9663 389.192V395H46.6863V389.24L46.4622 387.592L47.7263 387.384L47.8543 388.264H47.8703C48.4303 387.72 49.1663 387.336 50.0943 387.336C51.3583 387.336 52.3663 388.152 52.3663 389.688V395ZM59.2254 392.824C59.2254 394.184 58.1534 395.16 56.5534 395.16C55.7854 395.16 55.0174 395.048 54.4094 394.76L54.7934 393.64C55.3214 393.88 55.9134 394.072 56.4894 394.072C57.3534 394.072 57.9294 393.736 57.9294 393.032C57.9294 392.488 57.6414 392.264 57.1454 392.04L55.7534 391.4C55.2574 391.176 54.3614 390.728 54.3614 389.432C54.3614 388.008 55.6094 387.336 56.9694 387.336C57.7854 387.336 58.3614 387.464 59.0014 387.736L58.5694 388.84C58.0574 388.616 57.5614 388.456 56.9534 388.456C56.1374 388.456 55.6094 388.712 55.6094 389.352C55.6094 389.912 56.0894 390.136 56.3934 390.28L57.8174 390.952C58.8094 391.416 59.2254 392.008 59.2254 392.824ZM74.4801 394.968L73.2001 395.064L72.9281 387.608H72.9121L70.0801 395H68.6881L66.0161 387.624H66.0001L65.6161 395H64.4481L65.0721 385.368H66.4801L69.5041 393.4H69.5201L72.5761 385.368H73.9681L74.4801 394.968ZM82.0581 394.6C81.3381 395 80.6021 395.176 79.6901 395.176C77.4821 395.176 76.3461 393.688 76.3461 391.208C76.3461 388.888 77.5621 387.336 79.4501 387.336C81.2581 387.336 81.9941 388.536 81.9941 390.184V391.08H77.5941C77.6101 393.08 78.3301 394.04 79.9621 394.04C80.5861 394.04 81.0661 393.864 81.6101 393.592L82.0581 394.6ZM80.7941 390.184C80.7941 389.064 80.3781 388.36 79.3861 388.36C78.4261 388.36 77.8181 389.112 77.6581 390.184H80.7941ZM89.3915 387.512L86.8955 394.312C86.0955 396.52 85.0235 397.848 82.4155 398.376L82.1755 397.336C84.0795 396.952 85.0875 395.8 85.5835 394.552L82.8955 387.624L84.1595 387.288L86.2235 392.856H86.2395L88.1275 387.512H89.3915ZM95.98 394.6C95.26 395 94.524 395.176 93.612 395.176C91.404 395.176 90.268 393.688 90.268 391.208C90.268 388.888 91.484 387.336 93.372 387.336C95.18 387.336 95.916 388.536 95.916 390.184V391.08H91.516C91.532 393.08 92.252 394.04 93.884 394.04C94.508 394.04 94.988 393.864 95.532 393.592L95.98 394.6ZM94.716 390.184C94.716 389.064 94.3 388.36 93.308 388.36C92.348 388.36 91.74 389.112 91.58 390.184H94.716ZM101.249 388.616C100.385 388.616 99.7454 388.84 99.1694 389.368V395H97.8894V389.24L97.6654 387.592L98.9294 387.384L99.0574 388.408H99.0734C99.5854 387.832 100.257 387.352 101.249 387.352V388.616Z" fill="#00157E"/>
<path d="M21.726 459.634C21.726 461.104 20.704 462.154 19.01 462.154C18.142 462.154 17.372 461.972 16.714 461.692L17.078 460.67C17.624 460.922 18.268 461.132 18.926 461.132C19.948 461.132 20.606 460.74 20.606 459.816C20.606 459.13 20.102 458.794 19.43 458.472L18.114 457.842C17.232 457.422 16.63 456.876 16.63 455.686C16.63 454.244 17.89 453.418 19.346 453.418C20.13 453.418 20.634 453.544 21.362 453.81L20.97 454.804C20.522 454.594 20.032 454.398 19.416 454.398C18.548 454.398 17.764 454.748 17.764 455.644C17.764 456.246 18.128 456.54 18.688 456.806L20.032 457.464C21.096 457.982 21.726 458.556 21.726 459.634ZM26.6987 461.734C26.2927 461.958 25.9147 462.14 25.2007 462.14C24.1927 462.14 23.5487 461.482 23.5487 460.362V456.358H22.5827V455.616L23.5487 455.42V454.328L24.6547 454.188V455.448H26.4887V456.358H24.6547V459.984C24.6547 460.866 24.8787 461.146 25.5227 461.146C25.8727 461.146 26.1387 461.006 26.3347 460.88L26.6987 461.734ZM31.1342 456.414C30.3782 456.414 29.8182 456.61 29.3142 457.072V462H28.1942V456.96L27.9982 455.518L29.1042 455.336L29.2162 456.232H29.2302C29.6782 455.728 30.2662 455.308 31.1342 455.308V456.414ZM36.8868 461.65C36.2568 462 35.6128 462.154 34.8148 462.154C32.8828 462.154 31.8888 460.852 31.8888 458.682C31.8888 456.652 32.9528 455.294 34.6048 455.294C36.1868 455.294 36.8308 456.344 36.8308 457.786V458.57H32.9808C32.9948 460.32 33.6248 461.16 35.0528 461.16C35.5988 461.16 36.0188 461.006 36.4948 460.768L36.8868 461.65ZM35.7808 457.786C35.7808 456.806 35.4168 456.19 34.5488 456.19C33.7088 456.19 33.1768 456.848 33.0368 457.786H35.7808ZM43.1075 461.65C42.4775 462 41.8335 462.154 41.0355 462.154C39.1035 462.154 38.1095 460.852 38.1095 458.682C38.1095 456.652 39.1735 455.294 40.8255 455.294C42.4075 455.294 43.0515 456.344 43.0515 457.786V458.57H39.2015C39.2155 460.32 39.8455 461.16 41.2735 461.16C41.8195 461.16 42.2395 461.006 42.7155 460.768L43.1075 461.65ZM42.0015 457.786C42.0015 456.806 41.6375 456.19 40.7695 456.19C39.9295 456.19 39.3975 456.848 39.2575 457.786H42.0015ZM48.0542 461.734C47.6482 461.958 47.2702 462.14 46.5562 462.14C45.5482 462.14 44.9042 461.482 44.9042 460.362V456.358H43.9382V455.616L44.9042 455.42V454.328L46.0102 454.188V455.448H47.8442V456.358H46.0102V459.984C46.0102 460.866 46.2342 461.146 46.8782 461.146C47.2282 461.146 47.4942 461.006 47.6902 460.88L48.0542 461.734ZM56.7871 461.93L55.6671 462.112L55.5691 461.342H55.5551C55.0791 461.79 54.5611 462.168 53.7771 462.168C52.6851 462.168 52.0411 461.51 52.0411 460.474C52.0411 459.298 52.9651 458.724 54.2951 458.584L55.4711 458.458V457.87C55.4711 456.96 55.1911 456.316 54.1131 456.316C53.5671 456.316 53.1611 456.484 52.7551 456.694L52.3491 455.868C52.9371 455.518 53.5391 455.294 54.3791 455.294C55.6951 455.294 56.5771 456.064 56.5771 457.366V460.488L56.7871 461.93ZM55.4711 460.642V459.214L54.4491 459.354C53.6091 459.466 53.1471 459.732 53.1471 460.334C53.1471 460.88 53.4831 461.244 54.0431 461.244C54.7011 461.244 55.1071 460.964 55.4711 460.642ZM63.8029 462H62.6829V457.744C62.6829 456.778 62.3189 456.288 61.4369 456.288C60.8069 456.288 60.3589 456.554 59.9529 456.918V462H58.8329V456.96L58.6369 455.518L59.7429 455.336L59.8549 456.106H59.8689C60.3589 455.63 61.0029 455.294 61.8149 455.294C62.9209 455.294 63.8029 456.008 63.8029 457.352V462ZM70.9246 461.958L69.8466 462.112L69.7486 461.454H69.7346C69.3146 461.804 68.7406 462.154 67.9706 462.154C66.5286 462.154 65.5626 460.964 65.5626 459.018C65.5626 456.764 66.7246 455.378 68.7126 455.378C69.2446 455.378 69.6226 455.476 69.6226 455.476V454.062L69.4126 452.62L70.7286 452.438V460.516L70.9246 461.958ZM68.3626 461.174C68.9086 461.174 69.2866 460.95 69.6226 460.684V456.498C69.6226 456.498 69.2586 456.316 68.6146 456.316C67.3406 456.316 66.7106 457.394 66.7106 458.668C66.7106 460.25 67.1306 461.174 68.3626 461.174ZM80.8791 462H79.7591V457.744C79.7591 456.778 79.3951 456.288 78.5131 456.288C77.8831 456.288 77.4351 456.554 77.0291 456.918V462H75.9091V456.96L75.7131 455.518L76.8191 455.336L76.9311 456.106H76.9451C77.4351 455.63 78.0791 455.294 78.8911 455.294C79.9971 455.294 80.8791 456.008 80.8791 457.352V462ZM88.2528 461.93L87.1468 462.112L87.0348 461.356H87.0208C86.5308 461.818 85.8868 462.154 85.0748 462.154C83.9688 462.154 83.0868 461.44 83.0868 460.096V456.96L82.8908 455.518L84.2068 455.336V459.704C84.2068 460.67 84.5708 461.174 85.4528 461.174C86.0828 461.174 86.5308 460.908 86.9368 460.53V456.96L86.7408 455.518L88.0568 455.336V460.488L88.2528 461.93ZM99.0979 462H97.9919V457.744C97.9919 456.778 97.6279 456.288 96.7319 456.288C96.1019 456.288 95.5699 456.596 95.2199 456.946C95.2199 456.946 95.2619 457.184 95.2619 457.436V462H94.1419V457.744C94.1419 456.778 93.7779 456.288 92.8959 456.288C92.2659 456.288 91.8179 456.54 91.4119 456.918V462H90.2919V456.96L90.0959 455.518L91.2019 455.336L91.3139 456.106H91.3279C91.8179 455.63 92.4619 455.294 93.2739 455.294C94.0299 455.294 94.6599 455.63 94.9959 456.232H95.0099C95.5279 455.714 96.1999 455.294 97.1239 455.294C98.2439 455.294 99.0979 456.008 99.0979 457.352V462ZM106.505 458.332C106.505 460.516 105.371 462.14 103.299 462.14C102.571 462.14 101.773 462.014 101.297 461.832V454.062L101.101 452.62L102.417 452.438V455.952H102.431C102.851 455.602 103.411 455.294 104.153 455.294C105.693 455.294 106.505 456.4 106.505 458.332ZM105.371 458.738C105.371 457.296 105.035 456.316 103.761 456.316C103.173 456.316 102.753 456.554 102.417 456.848V461.062C102.697 461.132 102.977 461.174 103.397 461.174C104.699 461.174 105.371 460.068 105.371 458.738ZM112.848 461.65C112.218 462 111.574 462.154 110.776 462.154C108.844 462.154 107.85 460.852 107.85 458.682C107.85 456.652 108.914 455.294 110.566 455.294C112.148 455.294 112.792 456.344 112.792 457.786V458.57H108.942C108.956 460.32 109.586 461.16 111.014 461.16C111.56 461.16 111.98 461.006 112.456 460.768L112.848 461.65ZM111.742 457.786C111.742 456.806 111.378 456.19 110.51 456.19C109.67 456.19 109.138 456.848 108.998 457.786H111.742ZM117.458 456.414C116.702 456.414 116.142 456.61 115.638 457.072V462H114.518V456.96L114.322 455.518L115.428 455.336L115.54 456.232H115.554C116.002 455.728 116.59 455.308 117.458 455.308V456.414Z" fill="#00157E" fill-opacity="0.7"/>
<path d="M16 478C16 475.791 17.7909 474 20 474H355C357.209 474 359 475.791 359 478V510C359 512.209 357.209 514 355 514H20C17.7909 514 16 512.209 16 510V478Z" fill="white"/>
<path d="M20 474.5H355C356.933 474.5 358.5 476.067 358.5 478V510C358.5 511.933 356.933 513.5 355 513.5H20C18.067 513.5 16.5 511.933 16.5 510V478C16.5 476.067 18.067 474.5 20 474.5Z" stroke="#00157E" stroke-opacity="0.7"/>
<path d="M39.1754 498.968L37.8954 499.064L37.6234 491.608H37.6074L34.7754 499H33.3834L30.7114 491.624H30.6954L30.3114 499H29.1434L29.7674 489.368H31.1754L34.1994 497.4H34.2154L37.2714 489.368H38.6634L39.1754 498.968ZM46.4811 498.92L45.2011 499.128L45.0891 498.248H45.0731C44.5291 498.76 43.9371 499.192 43.0411 499.192C41.7931 499.192 41.0571 498.44 41.0571 497.256C41.0571 495.912 42.1131 495.256 43.6331 495.096L44.9771 494.952V494.28C44.9771 493.24 44.6571 492.504 43.4251 492.504C42.8011 492.504 42.3371 492.696 41.8731 492.936L41.4091 491.992C42.0811 491.592 42.7691 491.336 43.7291 491.336C45.2331 491.336 46.2411 492.216 46.2411 493.704V497.272L46.4811 498.92ZM44.9771 497.448V495.816L43.8091 495.976C42.8491 496.104 42.3211 496.408 42.3211 497.096C42.3211 497.72 42.7051 498.136 43.3451 498.136C44.0971 498.136 44.5611 497.816 44.9771 497.448ZM50.1311 499H48.8511V493.24L48.6271 491.592L50.1311 491.384V499ZM50.3871 489.56C50.3871 490.072 49.9871 490.456 49.5071 490.456C49.0111 490.456 48.5951 490.072 48.5951 489.56C48.5951 489.048 49.0111 488.648 49.5071 488.648C49.9871 488.648 50.3871 489.048 50.3871 489.56ZM58.3741 499H57.0941V494.136C57.0941 493.032 56.6781 492.472 55.6701 492.472C54.9501 492.472 54.4381 492.776 53.9741 493.192V499H52.6941V493.24L52.4701 491.592L53.7341 491.384L53.8621 492.264H53.8781C54.4381 491.72 55.1741 491.336 56.1021 491.336C57.3661 491.336 58.3741 492.152 58.3741 493.688V499ZM69.5206 496.296C69.5206 497.976 68.3526 499.176 66.4166 499.176C65.4246 499.176 64.5446 498.968 63.7926 498.648L64.2086 497.48C64.8326 497.768 65.5686 498.008 66.3206 498.008C67.4886 498.008 68.2406 497.56 68.2406 496.504C68.2406 495.72 67.6646 495.336 66.8966 494.968L65.3926 494.248C64.3846 493.768 63.6966 493.144 63.6966 491.784C63.6966 490.136 65.1366 489.192 66.8006 489.192C67.6966 489.192 68.2726 489.336 69.1046 489.64L68.6566 490.776C68.1446 490.536 67.5846 490.312 66.8806 490.312C65.8886 490.312 64.9926 490.712 64.9926 491.736C64.9926 492.424 65.4086 492.76 66.0486 493.064L67.5846 493.816C68.8006 494.408 69.5206 495.064 69.5206 496.296ZM75.2037 498.696C74.7397 498.952 74.3077 499.16 73.4917 499.16C72.3397 499.16 71.6037 498.408 71.6037 497.128V492.552H70.4997V491.704L71.6037 491.48V490.232L72.8677 490.072V491.512H74.9637V492.552H72.8677V496.696C72.8677 497.704 73.1237 498.024 73.8597 498.024C74.2597 498.024 74.5637 497.864 74.7877 497.72L75.2037 498.696ZM80.2728 492.616C79.4088 492.616 78.7688 492.84 78.1928 493.368V499H76.9128V493.24L76.6888 491.592L77.9528 491.384L78.0808 492.408H78.0968C78.6088 491.832 79.2808 491.352 80.2728 491.352V492.616ZM86.8472 498.6C86.1272 499 85.3912 499.176 84.4792 499.176C82.2712 499.176 81.1352 497.688 81.1352 495.208C81.1352 492.888 82.3512 491.336 84.2392 491.336C86.0472 491.336 86.7832 492.536 86.7832 494.184V495.08H82.3832C82.3992 497.08 83.1192 498.04 84.7512 498.04C85.3752 498.04 85.8552 497.864 86.3992 497.592L86.8472 498.6ZM85.5832 494.184C85.5832 493.064 85.1672 492.36 84.1752 492.36C83.2152 492.36 82.6072 493.112 82.4472 494.184H85.5832ZM93.9566 498.6C93.2366 499 92.5006 499.176 91.5886 499.176C89.3806 499.176 88.2446 497.688 88.2446 495.208C88.2446 492.888 89.4606 491.336 91.3486 491.336C93.1566 491.336 93.8926 492.536 93.8926 494.184V495.08H89.4926C89.5086 497.08 90.2286 498.04 91.8606 498.04C92.4846 498.04 92.9646 497.864 93.5086 497.592L93.9566 498.6ZM92.6926 494.184C92.6926 493.064 92.2766 492.36 91.2846 492.36C90.3246 492.36 89.7166 493.112 89.5566 494.184H92.6926ZM99.6099 498.696C99.1459 498.952 98.7139 499.16 97.8979 499.16C96.7459 499.16 96.0099 498.408 96.0099 497.128V492.552H94.9059V491.704L96.0099 491.48V490.232L97.2739 490.072V491.512H99.3699V492.552H97.2739V496.696C97.2739 497.704 97.5299 498.024 98.2659 498.024C98.6659 498.024 98.9699 497.864 99.1939 497.72L99.6099 498.696ZM109.974 499H104.038V498.168L106.774 495.544C107.51 494.824 108.07 494.296 108.07 493.416C108.07 492.488 107.494 491.8 106.422 491.8C105.702 491.8 105.19 492.12 104.806 492.44L104.198 491.592C104.886 491.016 105.59 490.664 106.694 490.664C108.278 490.664 109.366 491.592 109.366 493.272C109.366 494.392 108.694 495.24 107.926 495.944L105.878 497.832V497.848H109.974V499ZM116.271 498.36C116.271 500.28 115.039 501.496 112.927 501.496C112.303 501.496 111.647 501.384 111.055 501.24L111.343 500.04C111.871 500.2 112.319 500.328 112.959 500.328C114.223 500.328 114.991 499.704 114.991 498.552C114.991 496.984 113.551 496.376 111.519 496.376V495.464C113.887 495.32 114.543 494.264 114.543 493.224C114.543 492.312 113.983 491.8 113.087 491.8C112.351 491.8 111.919 492.04 111.439 492.36L110.911 491.48C111.487 491.032 112.223 490.664 113.343 490.664C114.879 490.664 115.823 491.576 115.823 493.064C115.823 494.36 115.071 495.224 113.999 495.736V495.752C115.567 496.088 116.271 497.128 116.271 498.36Z" fill="#00157E"/>
<path d="M22.958 565.566C22.174 565.972 21.376 566.154 20.312 566.154C18.254 566.154 16.672 564.768 16.672 561.968C16.672 558.986 18.436 557.418 20.704 557.418C21.642 557.418 22.216 557.558 22.93 557.866L22.482 558.888C21.95 558.65 21.446 558.468 20.69 558.468C19.22 558.468 17.876 559.602 17.876 561.674C17.876 563.984 18.73 565.118 20.774 565.118C21.446 565.118 22.062 564.852 22.566 564.628L22.958 565.566ZM25.5278 566H24.4078V560.96L24.2118 559.518L25.5278 559.336V566ZM25.7518 557.74C25.7518 558.188 25.4018 558.524 24.9818 558.524C24.5478 558.524 24.1838 558.188 24.1838 557.74C24.1838 557.292 24.5478 556.942 24.9818 556.942C25.4018 556.942 25.7518 557.292 25.7518 557.74ZM31.0464 565.734C30.6404 565.958 30.2624 566.14 29.5484 566.14C28.5404 566.14 27.8964 565.482 27.8964 564.362V560.358H26.9304V559.616L27.8964 559.42V558.328L29.0024 558.188V559.448H30.8364V560.358H29.0024V563.984C29.0024 564.866 29.2264 565.146 29.8704 565.146C30.2204 565.146 30.4864 565.006 30.6824 564.88L31.0464 565.734ZM37.3015 559.448L35.1175 565.398C34.4175 567.33 33.4795 568.492 31.1975 568.954L30.9875 568.044C32.6535 567.708 33.5355 566.7 33.9695 565.608L31.6175 559.546L32.7235 559.252L34.5295 564.124H34.5435L36.1955 559.448H37.3015ZM45.8907 565.93L44.7707 566.112L44.6727 565.342H44.6587C44.1827 565.79 43.6647 566.168 42.8807 566.168C41.7887 566.168 41.1447 565.51 41.1447 564.474C41.1447 563.298 42.0687 562.724 43.3987 562.584L44.5747 562.458V561.87C44.5747 560.96 44.2947 560.316 43.2167 560.316C42.6707 560.316 42.2647 560.484 41.8587 560.694L41.4527 559.868C42.0407 559.518 42.6427 559.294 43.4827 559.294C44.7987 559.294 45.6807 560.064 45.6807 561.366V564.488L45.8907 565.93ZM44.5747 564.642V563.214L43.5527 563.354C42.7127 563.466 42.2507 563.732 42.2507 564.334C42.2507 564.88 42.5867 565.244 43.1467 565.244C43.8047 565.244 44.2107 564.964 44.5747 564.642ZM52.9064 566H51.7864V561.744C51.7864 560.778 51.4224 560.288 50.5404 560.288C49.9104 560.288 49.4624 560.554 49.0564 560.918V566H47.9364V560.96L47.7404 559.518L48.8464 559.336L48.9584 560.106H48.9724C49.4624 559.63 50.1064 559.294 50.9184 559.294C52.0244 559.294 52.9064 560.008 52.9064 561.352V566ZM60.0281 565.958L58.9501 566.112L58.8521 565.454H58.8381C58.4181 565.804 57.8441 566.154 57.0741 566.154C55.6321 566.154 54.6661 564.964 54.6661 563.018C54.6661 560.764 55.8281 559.378 57.8161 559.378C58.3481 559.378 58.7261 559.476 58.7261 559.476V558.062L58.5161 556.62L59.8321 556.438V564.516L60.0281 565.958ZM57.4661 565.174C58.0121 565.174 58.3901 564.95 58.7261 564.684V560.498C58.7261 560.498 58.3621 560.316 57.7181 560.316C56.4441 560.316 55.8141 561.394 55.8141 562.668C55.8141 564.25 56.2341 565.174 57.4661 565.174ZM70.1646 562.402C70.1646 564.53 69.2406 566.07 67.0566 566.07C66.6926 566.07 66.3986 566.042 66.1326 565.972V568.772L65.0126 568.954V560.96L64.8166 559.518L65.9226 559.336L66.0206 560.008H66.0346C66.4686 559.644 67.0426 559.294 67.7986 559.294C69.3946 559.294 70.1646 560.498 70.1646 562.402ZM69.0446 562.724C69.0446 561.296 68.7226 560.302 67.4206 560.302C66.8606 560.302 66.4546 560.54 66.1326 560.806V564.936C66.3986 565.048 66.7066 565.118 67.1406 565.118C68.3586 565.118 69.0446 564.166 69.0446 562.724ZM77.0962 562.724C77.0962 564.642 76.1862 566.154 74.2962 566.154C72.2242 566.154 71.4962 564.684 71.4962 562.724C71.4962 560.806 72.4062 559.294 74.2962 559.294C76.3682 559.294 77.0962 560.764 77.0962 562.724ZM75.9482 562.752C75.9482 561.128 75.4022 560.274 74.2962 560.274C73.2182 560.274 72.6442 561.03 72.6442 562.682C72.6442 564.306 73.1902 565.174 74.2962 565.174C75.3742 565.174 75.9482 564.404 75.9482 562.752ZM82.6699 564.096C82.6699 565.286 81.7319 566.14 80.3319 566.14C79.6599 566.14 78.9879 566.042 78.4559 565.79L78.7919 564.81C79.2539 565.02 79.7719 565.188 80.2759 565.188C81.0319 565.188 81.5359 564.894 81.5359 564.278C81.5359 563.802 81.2839 563.606 80.8499 563.41L79.6319 562.85C79.1979 562.654 78.4139 562.262 78.4139 561.128C78.4139 559.882 79.5059 559.294 80.6959 559.294C81.4099 559.294 81.9139 559.406 82.4739 559.644L82.0959 560.61C81.6479 560.414 81.2139 560.274 80.6819 560.274C79.9679 560.274 79.5059 560.498 79.5059 561.058C79.5059 561.548 79.9259 561.744 80.1919 561.87L81.4379 562.458C82.3059 562.864 82.6699 563.382 82.6699 564.096ZM87.7163 565.734C87.3103 565.958 86.9323 566.14 86.2183 566.14C85.2103 566.14 84.5663 565.482 84.5663 564.362V560.358H83.6003V559.616L84.5663 559.42V558.328L85.6723 558.188V559.448H87.5063V560.358H85.6723V563.984C85.6723 564.866 85.8963 565.146 86.5403 565.146C86.8903 565.146 87.1563 565.006 87.3523 564.88L87.7163 565.734ZM93.5098 565.93L92.3898 566.112L92.2918 565.342H92.2778C91.8018 565.79 91.2838 566.168 90.4998 566.168C89.4078 566.168 88.7638 565.51 88.7638 564.474C88.7638 563.298 89.6878 562.724 91.0178 562.584L92.1938 562.458V561.87C92.1938 560.96 91.9138 560.316 90.8358 560.316C90.2898 560.316 89.8838 560.484 89.4778 560.694L89.0718 559.868C89.6598 559.518 90.2618 559.294 91.1018 559.294C92.4178 559.294 93.2998 560.064 93.2998 561.366V564.488L93.5098 565.93ZM92.1938 564.642V563.214L91.1718 563.354C90.3318 563.466 89.8698 563.732 89.8698 564.334C89.8698 564.88 90.2058 565.244 90.7658 565.244C91.4238 565.244 91.8298 564.964 92.1938 564.642ZM96.6475 566H95.5275V558.062L95.3315 556.62L96.6475 556.438V566ZM106.032 559.574L105.682 560.582C105.318 560.442 104.912 560.316 104.45 560.316C103.218 560.316 102.476 561.24 102.476 562.626C102.476 564.376 103.162 565.174 104.422 565.174C104.87 565.174 105.234 565.02 105.598 564.866L105.976 565.776C105.43 566.028 104.828 566.154 104.198 566.154C102.322 566.154 101.356 564.81 101.356 562.808C101.356 560.4 102.84 559.294 104.506 559.294C105.08 559.294 105.57 559.392 106.032 559.574ZM112.479 562.724C112.479 564.642 111.569 566.154 109.679 566.154C107.607 566.154 106.879 564.684 106.879 562.724C106.879 560.806 107.789 559.294 109.679 559.294C111.751 559.294 112.479 560.764 112.479 562.724ZM111.331 562.752C111.331 561.128 110.785 560.274 109.679 560.274C108.601 560.274 108.027 561.03 108.027 562.682C108.027 564.306 108.573 565.174 109.679 565.174C110.757 565.174 111.331 564.404 111.331 562.752ZM119.173 565.958L118.095 566.112L117.997 565.454H117.983C117.563 565.804 116.989 566.154 116.219 566.154C114.777 566.154 113.811 564.964 113.811 563.018C113.811 560.764 114.973 559.378 116.961 559.378C117.493 559.378 117.871 559.476 117.871 559.476V558.062L117.661 556.62L118.977 556.438V564.516L119.173 565.958ZM116.611 565.174C117.157 565.174 117.535 564.95 117.871 564.684V560.498C117.871 560.498 117.507 560.316 116.863 560.316C115.589 560.316 114.959 561.394 114.959 562.668C114.959 564.25 115.379 565.174 116.611 565.174ZM125.768 565.65C125.138 566 124.494 566.154 123.696 566.154C121.764 566.154 120.77 564.852 120.77 562.682C120.77 560.652 121.834 559.294 123.486 559.294C125.068 559.294 125.712 560.344 125.712 561.786V562.57H121.862C121.876 564.32 122.506 565.16 123.934 565.16C124.48 565.16 124.9 565.006 125.376 564.768L125.768 565.65ZM124.662 561.786C124.662 560.806 124.298 560.19 123.43 560.19C122.59 560.19 122.058 560.848 121.918 561.786H124.662Z" fill="#00157E" fill-opacity="0.7"/>
<path d="M16 582C16 579.791 17.7909 578 20 578H355C357.209 578 359 579.791 359 582V614C359 616.209 357.209 618 355 618H20C17.7909 618 16 616.209 16 614V582Z" fill="white"/>
<path d="M20 578.5H355C356.933 578.5 358.5 580.067 358.5 582V614C358.5 615.933 356.933 617.5 355 617.5H20C18.067 617.5 16.5 615.933 16.5 614V582C16.5 580.067 18.067 578.5 20 578.5Z" stroke="#00157E" stroke-opacity="0.7"/>
<path d="M34.5574 600.664C34.5574 602.2 33.3894 603.176 31.7414 603.176C30.0614 603.176 28.9254 602.328 28.9254 600.76C28.9254 599.352 29.9654 598.504 30.7654 597.96C29.8054 597.288 29.1654 596.712 29.1654 595.512C29.1654 594.152 30.2854 593.192 31.7254 593.192C33.2774 593.192 34.2854 594.056 34.2854 595.4C34.2854 596.552 33.4854 597.288 32.7014 597.832C33.7254 598.52 34.5574 599.208 34.5574 600.664ZM33.3254 600.664C33.3254 599.624 32.6054 599.096 31.6454 598.472C30.7974 599.048 30.1414 599.544 30.1414 600.6C30.1414 601.56 30.7814 602.104 31.7574 602.104C32.7974 602.104 33.3254 601.464 33.3254 600.664ZM33.1494 595.544C33.1494 594.728 32.6054 594.2 31.7414 594.2C30.8774 594.2 30.3174 594.76 30.3174 595.56C30.3174 596.312 30.9414 596.744 31.8054 597.336C32.4934 596.888 33.1494 596.312 33.1494 595.544ZM42.751 598.92C42.751 601.048 41.919 603.176 39.503 603.176C37.071 603.176 36.239 601.048 36.239 598.92C36.239 596.792 37.071 594.664 39.503 594.664C41.919 594.664 42.751 596.792 42.751 598.92ZM41.439 598.92C41.439 597.128 40.847 595.784 39.503 595.784C38.143 595.784 37.551 597.128 37.551 598.92C37.551 600.712 38.143 602.056 39.503 602.056C40.847 602.056 41.439 600.712 41.439 598.92ZM50.9854 598.92C50.9854 601.048 50.1534 603.176 47.7374 603.176C45.3054 603.176 44.4734 601.048 44.4734 598.92C44.4734 596.792 45.3054 594.664 47.7374 594.664C50.1534 594.664 50.9854 596.792 50.9854 598.92ZM49.6734 598.92C49.6734 597.128 49.0814 595.784 47.7374 595.784C46.3774 595.784 45.7854 597.128 45.7854 598.92C45.7854 600.712 46.3774 602.056 47.7374 602.056C49.0814 602.056 49.6734 600.712 49.6734 598.92ZM54.9843 603H53.7203V595.928L52.3123 596.12L52.1683 595.144L54.9843 594.696V603ZM67.529 603H60.233V601.96L65.593 594.504V594.488H60.649V593.368H67.225V594.392L61.993 601.864V601.88H67.529V603ZM75.2778 602.92L74.0138 603.128L73.8858 602.264H73.8698C73.3098 602.792 72.5738 603.176 71.6458 603.176C70.3818 603.176 69.3738 602.36 69.3738 600.824V597.24L69.1497 595.592L70.6538 595.384V600.376C70.6538 601.48 71.0698 602.056 72.0778 602.056C72.7977 602.056 73.3098 601.752 73.7738 601.32V597.24L73.5498 595.592L75.0538 595.384V601.272L75.2778 602.92ZM71.7258 593.656C71.7258 594.136 71.3578 594.472 70.9098 594.472C70.4618 594.472 70.0778 594.136 70.0778 593.656C70.0778 593.192 70.4618 592.824 70.9098 592.824C71.3578 592.824 71.7258 593.192 71.7258 593.656ZM74.3338 593.656C74.3338 594.136 73.9498 594.472 73.5018 594.472C73.0538 594.472 72.6698 594.136 72.6698 593.656C72.6698 593.192 73.0538 592.824 73.5018 592.824C73.9498 592.824 74.3338 593.192 74.3338 593.656ZM80.9681 596.616C80.1041 596.616 79.4641 596.84 78.8881 597.368V603H77.6081V597.24L77.3841 595.592L78.6481 595.384L78.7761 596.408H78.7921C79.3041 595.832 79.9761 595.352 80.9681 595.352V596.616ZM83.842 603H82.562V597.24L82.338 595.592L83.842 595.384V603ZM84.098 593.56C84.098 594.072 83.698 594.456 83.218 594.456C82.722 594.456 82.306 594.072 82.306 593.56C82.306 593.048 82.722 592.648 83.218 592.648C83.698 592.648 84.098 593.048 84.098 593.56ZM91.237 595.656L90.837 596.808C90.421 596.648 89.957 596.504 89.429 596.504C88.021 596.504 87.173 597.56 87.173 599.144C87.173 601.144 87.957 602.056 89.397 602.056C89.909 602.056 90.325 601.88 90.741 601.704L91.173 602.744C90.549 603.032 89.861 603.176 89.141 603.176C86.997 603.176 85.893 601.64 85.893 599.352C85.893 596.6 87.589 595.336 89.493 595.336C90.149 595.336 90.709 595.448 91.237 595.656ZM98.6308 603H97.3668V598.136C97.3668 597.048 96.9348 596.488 95.9108 596.488C95.1748 596.488 94.6788 596.808 94.2468 597.192V603H92.9668V593.928L92.7428 592.28L94.2468 592.072V596.168H94.2628C94.7588 595.736 95.4468 595.336 96.3748 595.336C97.6548 595.336 98.6308 596.136 98.6308 597.688V603Z" fill="#00157E"/>
<path d="M22.958 669.566C22.174 669.972 21.376 670.154 20.312 670.154C18.254 670.154 16.672 668.768 16.672 665.968C16.672 662.986 18.436 661.418 20.704 661.418C21.642 661.418 22.216 661.558 22.93 661.866L22.482 662.888C21.95 662.65 21.446 662.468 20.69 662.468C19.22 662.468 17.876 663.602 17.876 665.674C17.876 667.984 18.73 669.118 20.774 669.118C21.446 669.118 22.062 668.852 22.566 668.628L22.958 669.566ZM29.272 666.724C29.272 668.642 28.362 670.154 26.472 670.154C24.4 670.154 23.672 668.684 23.672 666.724C23.672 664.806 24.582 663.294 26.472 663.294C28.544 663.294 29.272 664.764 29.272 666.724ZM28.124 666.752C28.124 665.128 27.578 664.274 26.472 664.274C25.394 664.274 24.82 665.03 24.82 666.682C24.82 668.306 25.366 669.174 26.472 669.174C27.55 669.174 28.124 668.404 28.124 666.752ZM36.2176 669.93L35.1116 670.112L34.9996 669.356H34.9856C34.4956 669.818 33.8516 670.154 33.0396 670.154C31.9336 670.154 31.0516 669.44 31.0516 668.096V664.96L30.8556 663.518L32.1716 663.336V667.704C32.1716 668.67 32.5356 669.174 33.4176 669.174C34.0476 669.174 34.4956 668.908 34.9016 668.53V664.96L34.7056 663.518L36.0216 663.336V668.488L36.2176 669.93ZM43.2267 670H42.1067V665.744C42.1067 664.778 41.7427 664.288 40.8607 664.288C40.2307 664.288 39.7827 664.554 39.3767 664.918V670H38.2567V664.96L38.0607 663.518L39.1667 663.336L39.2787 664.106H39.2927C39.7827 663.63 40.4267 663.294 41.2387 663.294C42.3447 663.294 43.2267 664.008 43.2267 665.352V670ZM48.7105 669.734C48.3045 669.958 47.9265 670.14 47.2125 670.14C46.2045 670.14 45.5605 669.482 45.5605 668.362V664.358H44.5945V663.616L45.5605 663.42V662.328L46.6665 662.188V663.448H48.5005V664.358H46.6665V667.984C46.6665 668.866 46.8905 669.146 47.5345 669.146C47.8845 669.146 48.1505 669.006 48.3465 668.88L48.7105 669.734ZM53.1459 664.414C52.3899 664.414 51.8299 664.61 51.3259 665.072V670H50.2059V664.96L50.0099 663.518L51.1159 663.336L51.2279 664.232H51.2419C51.6899 663.728 52.2779 663.308 53.1459 663.308V664.414ZM59.4637 663.448L57.2797 669.398C56.5797 671.33 55.6417 672.492 53.3597 672.954L53.1497 672.044C54.8157 671.708 55.6977 670.7 56.1317 669.608L53.7797 663.546L54.8857 663.252L56.6917 668.124H56.7057L58.3577 663.448H59.4637Z" fill="#00157E" fill-opacity="0.7"/>
<path d="M16 686C16 683.791 17.7909 682 20 682H355C357.209 682 359 683.791 359 686V718C359 720.209 357.209 722 355 722H20C17.7909 722 16 720.209 16 718V686Z" fill="white"/>
<path d="M20 682.5H355C356.933 682.5 358.5 684.067 358.5 686V718C358.5 719.933 356.933 721.5 355 721.5H20C18.067 721.5 16.5 719.933 16.5 718V686C16.5 684.067 18.067 682.5 20 682.5Z" stroke="#00157E" stroke-opacity="0.7"/>
<path d="M34.6378 704.296C34.6378 705.976 33.4698 707.176 31.5338 707.176C30.5418 707.176 29.6618 706.968 28.9098 706.648L29.3258 705.48C29.9498 705.768 30.6858 706.008 31.4378 706.008C32.6058 706.008 33.3578 705.56 33.3578 704.504C33.3578 703.72 32.7818 703.336 32.0138 702.968L30.5098 702.248C29.5018 701.768 28.8138 701.144 28.8138 699.784C28.8138 698.136 30.2538 697.192 31.9178 697.192C32.8138 697.192 33.3898 697.336 34.2218 697.64L33.7738 698.776C33.2618 698.536 32.7018 698.312 31.9978 698.312C31.0058 698.312 30.1098 698.712 30.1098 699.736C30.1098 700.424 30.5258 700.76 31.1658 701.064L32.7018 701.816C33.9178 702.408 34.6378 703.064 34.6378 704.296ZM45.4748 699.512L43.4108 706.968L42.2268 707.032L40.4028 701.352H40.3868L38.5468 706.984L37.3628 707.032L35.4908 699.592L36.7068 699.288L38.0508 705.128H38.0668L39.8108 699.512H41.0588L42.8188 705.128H42.8348L44.2268 699.512H45.4748ZM48.467 707H47.187V701.24L46.963 699.592L48.467 699.384V707ZM48.723 697.56C48.723 698.072 48.323 698.456 47.843 698.456C47.347 698.456 46.931 698.072 46.931 697.56C46.931 697.048 47.347 696.648 47.843 696.648C48.323 696.648 48.723 697.048 48.723 697.56ZM54.774 706.696C54.31 706.952 53.878 707.16 53.062 707.16C51.91 707.16 51.174 706.408 51.174 705.128V700.552H50.07V699.704L51.174 699.48V698.232L52.438 698.072V699.512H54.534V700.552H52.438V704.696C52.438 705.704 52.694 706.024 53.43 706.024C53.83 706.024 54.134 705.864 54.358 705.72L54.774 706.696ZM61.3471 707H55.9391V706.136L59.6031 700.568V700.552H56.1631V699.512H61.1871V700.376L57.5551 705.928V705.944H61.3471V707ZM68.1675 706.6C67.4475 707 66.7115 707.176 65.7995 707.176C63.5915 707.176 62.4555 705.688 62.4555 703.208C62.4555 700.888 63.6715 699.336 65.5595 699.336C67.3675 699.336 68.1035 700.536 68.1035 702.184V703.08H63.7035C63.7195 705.08 64.4395 706.04 66.0715 706.04C66.6955 706.04 67.1755 705.864 67.7195 705.592L68.1675 706.6ZM66.9035 702.184C66.9035 701.064 66.4875 700.36 65.4955 700.36C64.5355 700.36 63.9275 701.112 63.7675 702.184H66.9035ZM73.4369 700.616C72.5729 700.616 71.9329 700.84 71.3569 701.368V707H70.0769V701.24L69.8529 699.592L71.1169 699.384L71.2449 700.408H71.2609C71.7729 699.832 72.4449 699.352 73.4369 699.352V700.616ZM76.2468 707H74.9668V697.928L74.7428 696.28L76.2468 696.072V707ZM83.692 706.92L82.412 707.128L82.3 706.248H82.284C81.74 706.76 81.148 707.192 80.252 707.192C79.004 707.192 78.268 706.44 78.268 705.256C78.268 703.912 79.324 703.256 80.844 703.096L82.188 702.952V702.28C82.188 701.24 81.868 700.504 80.636 700.504C80.012 700.504 79.548 700.696 79.084 700.936L78.62 699.992C79.292 699.592 79.98 699.336 80.94 699.336C82.444 699.336 83.452 700.216 83.452 701.704V705.272L83.692 706.92ZM82.188 705.448V703.816L81.02 703.976C80.06 704.104 79.532 704.408 79.532 705.096C79.532 705.72 79.916 706.136 80.556 706.136C81.308 706.136 81.772 705.816 82.188 705.448ZM91.71 707H90.43V702.136C90.43 701.032 90.014 700.472 89.006 700.472C88.286 700.472 87.774 700.776 87.31 701.192V707H86.03V701.24L85.806 699.592L87.07 699.384L87.198 700.264H87.214C87.774 699.72 88.51 699.336 89.438 699.336C90.702 699.336 91.71 700.152 91.71 701.688V707ZM99.8491 706.952L98.6171 707.128L98.5051 706.376H98.4891C98.0091 706.776 97.3531 707.176 96.4731 707.176C94.8251 707.176 93.7211 705.816 93.7211 703.592C93.7211 701.016 95.0491 699.432 97.3211 699.432C97.9291 699.432 98.3611 699.544 98.3611 699.544V697.928L98.1211 696.28L99.6251 696.072V705.304L99.8491 706.952ZM96.9211 706.056C97.5451 706.056 97.9771 705.8 98.3611 705.496V700.712C98.3611 700.712 97.9451 700.504 97.2091 700.504C95.7531 700.504 95.0331 701.736 95.0331 703.192C95.0331 705 95.5131 706.056 96.9211 706.056Z" fill="#00157E"/>
<path d="M329 699L335 705L341 699" stroke="#00157E" stroke-width="2" stroke-linecap="round" stroke-linejoin="round"/>
</g>
<rect width="375" height="64" transform="translate(0 748)" fill="white"/>
<path d="M20 760.5H355C356.933 760.5 358.5 762.067 358.5 764V796C358.5 797.933 356.933 799.5 355 799.5H20C18.067 799.5 16.5 797.933 16.5 796V764C16.5 762.067 18.067 760.5 20 760.5Z" fill="#00157E"/>
<path d="M20 760.5H355C356.933 760.5 358.5 762.067 358.5 764V796C358.5 797.933 356.933 799.5 355 799.5H20C18.067 799.5 16.5 797.933 16.5 796V764C16.5 762.067 18.067 760.5 20 760.5Z" stroke="#00157E"/>
<path d="M170.733 784.504C169.837 784.968 168.925 785.176 167.709 785.176C165.357 785.176 163.549 783.592 163.549 780.392C163.549 776.984 165.565 775.192 168.157 775.192C169.229 775.192 169.885 775.352 170.701 775.704L170.189 776.872C169.581 776.6 169.005 776.392 168.141 776.392C166.461 776.392 164.925 777.688 164.925 780.056C164.925 782.696 165.901 783.992 168.237 783.992C169.005 783.992 169.709 783.688 170.285 783.432L170.733 784.504ZM177.949 781.256C177.949 783.448 176.909 785.176 174.749 785.176C172.381 785.176 171.549 783.496 171.549 781.256C171.549 779.064 172.589 777.336 174.749 777.336C177.117 777.336 177.949 779.016 177.949 781.256ZM176.637 781.288C176.637 779.432 176.013 778.456 174.749 778.456C173.517 778.456 172.861 779.32 172.861 781.208C172.861 783.064 173.485 784.056 174.749 784.056C175.981 784.056 176.637 783.176 176.637 781.288ZM185.663 785H184.383V780.136C184.383 779.032 183.967 778.472 182.959 778.472C182.239 778.472 181.727 778.776 181.263 779.192V785H179.983V779.24L179.759 777.592L181.023 777.384L181.151 778.264H181.167C181.727 777.72 182.463 777.336 183.391 777.336C184.655 777.336 185.663 778.152 185.663 779.688V785ZM193.402 785H192.138V778.552H189.594V785H188.33V778.552H187.226V777.704L188.33 777.48V776.888C188.33 775.272 189.354 774.088 191.178 774.088C192.01 774.088 192.538 774.344 192.922 774.552L192.458 775.576C192.266 775.448 191.786 775.176 191.178 775.176C190.01 775.176 189.594 775.832 189.594 776.744V777.512H193.402V785ZM199.328 778.616C198.464 778.616 197.824 778.84 197.248 779.368V785H195.968V779.24L195.743 777.592L197.008 777.384L197.136 778.408H197.152C197.664 777.832 198.336 777.352 199.328 777.352V778.616ZM210.953 785H209.689V780.136C209.689 779.032 209.273 778.472 208.249 778.472C207.529 778.472 206.921 778.824 206.521 779.224C206.521 779.224 206.569 779.496 206.569 779.784V785H205.289V780.136C205.289 779.032 204.873 778.472 203.865 778.472C203.145 778.472 202.633 778.76 202.169 779.192V785H200.889V779.24L200.665 777.592L201.929 777.384L202.057 778.264H202.073C202.633 777.72 203.369 777.336 204.297 777.336C205.161 777.336 205.881 777.72 206.265 778.408H206.281C206.873 777.816 207.641 777.336 208.697 777.336C209.977 777.336 210.953 778.152 210.953 779.688V785Z" fill="white"/>
</g>
<defs>
<clipPath id="clip0_393_69776">
<rect width="375" height="812" fill="white"/>
</clipPath>
<clipPath id="clip1_393_69776">
<rect width="375" height="642" fill="white" transform="translate(0 106)"/>
</clipPath>
</defs>
</svg>
