<svg width="420" height="24" viewBox="0 0 420 24" fill="none" xmlns="http://www.w3.org/2000/svg">
<path d="M22.02 9.658C22.02 11.632 20.41 12.626 18.534 12.626H18.324V16H17.162V7.642C17.162 7.642 18.212 7.488 19.318 7.488C20.956 7.488 22.02 8.272 22.02 9.658ZM20.872 9.868C20.872 8.832 20.186 8.37 19.122 8.37C18.674 8.37 18.324 8.426 18.324 8.426V11.73H18.506C19.752 11.73 20.872 11.17 20.872 9.868ZM26.4721 10.414C25.7161 10.414 25.1561 10.61 24.6521 11.072V16H23.5321V10.96L23.3361 9.518L24.4421 9.336L24.5541 10.232H24.5681C25.0161 9.728 25.6041 9.308 26.4721 9.308V10.414ZM32.8267 12.724C32.8267 14.642 31.9167 16.154 30.0267 16.154C27.9547 16.154 27.2267 14.684 27.2267 12.724C27.2267 10.806 28.1367 9.294 30.0267 9.294C32.0987 9.294 32.8267 10.764 32.8267 12.724ZM31.6787 12.752C31.6787 11.128 31.1327 10.274 30.0267 10.274C28.9487 10.274 28.3747 11.03 28.3747 12.682C28.3747 14.306 28.9207 15.174 30.0267 15.174C31.1047 15.174 31.6787 14.404 31.6787 12.752ZM39.5203 15.958L38.4423 16.112L38.3443 15.454H38.3303C37.9103 15.804 37.3363 16.154 36.5663 16.154C35.1243 16.154 34.1583 14.964 34.1583 13.018C34.1583 10.764 35.3203 9.378 37.3083 9.378C37.8403 9.378 38.2183 9.476 38.2183 9.476V8.062L38.0083 6.62L39.3243 6.438V14.516L39.5203 15.958ZM36.9583 15.174C37.5043 15.174 37.8823 14.95 38.2183 14.684V10.498C38.2183 10.498 37.8543 10.316 37.2103 10.316C35.9363 10.316 35.3063 11.394 35.3063 12.668C35.3063 14.25 35.7263 15.174 36.9583 15.174ZM46.7313 15.93L45.6253 16.112L45.5133 15.356H45.4993C45.0093 15.818 44.3653 16.154 43.5533 16.154C42.4473 16.154 41.5653 15.44 41.5653 14.096V10.96L41.3693 9.518L42.6853 9.336V13.704C42.6853 14.67 43.0493 15.174 43.9313 15.174C44.5613 15.174 45.0093 14.908 45.4153 14.53V10.96L45.2193 9.518L46.5353 9.336V14.488L46.7313 15.93ZM52.9984 9.574L52.6484 10.582C52.2844 10.442 51.8784 10.316 51.4164 10.316C50.1844 10.316 49.4424 11.24 49.4424 12.626C49.4424 14.376 50.1284 15.174 51.3884 15.174C51.8364 15.174 52.2004 15.02 52.5644 14.866L52.9424 15.776C52.3964 16.028 51.7944 16.154 51.1644 16.154C49.2884 16.154 48.3224 14.81 48.3224 12.808C48.3224 10.4 49.8064 9.294 51.4724 9.294C52.0464 9.294 52.5364 9.392 52.9984 9.574ZM57.9526 15.734C57.5466 15.958 57.1686 16.14 56.4546 16.14C55.4466 16.14 54.8026 15.482 54.8026 14.362V10.358H53.8366V9.616L54.8026 9.42V8.328L55.9086 8.188V9.448H57.7426V10.358H55.9086V13.984C55.9086 14.866 56.1326 15.146 56.7766 15.146C57.1266 15.146 57.3926 15.006 57.5886 14.88L57.9526 15.734Z" fill="#00157E"/>
<path d="M324.045 9.854C324.045 11.758 322.477 12.934 320.643 12.934H320.517V16H318.669V7.656C318.669 7.656 319.775 7.488 320.951 7.488C322.925 7.488 324.045 8.314 324.045 9.854ZM322.253 10.05C322.253 9.182 321.721 8.874 320.965 8.874C320.727 8.874 320.517 8.902 320.517 8.902V11.548H320.643C321.525 11.548 322.253 11.03 322.253 10.05ZM328.828 10.834C328.016 10.834 327.484 10.974 327.008 11.506V16H325.23V11.1L325.006 9.462L326.714 9.238L326.826 10.176H326.84C327.218 9.672 327.792 9.21 328.828 9.21V10.834ZM331.671 16H329.893V11.1L329.669 9.462L331.671 9.238V16ZM331.839 7.516C331.839 8.104 331.377 8.58 330.789 8.58C330.201 8.58 329.739 8.104 329.739 7.516C329.739 6.942 330.201 6.466 330.789 6.466C331.377 6.466 331.839 6.942 331.839 7.516ZM339.047 9.378L336.597 15.93L334.847 16.126L332.691 9.574L334.455 9.168L335.799 13.83H335.813L337.339 9.378H339.047ZM344.661 15.902L342.953 16.126L342.869 15.398H342.855C342.463 15.748 341.945 16.168 341.189 16.168C340.153 16.168 339.467 15.524 339.467 14.418C339.467 13.158 340.405 12.584 341.763 12.444L342.687 12.346V11.898C342.687 11.226 342.407 10.764 341.567 10.764C341.049 10.764 340.699 10.918 340.321 11.128L339.677 9.924C340.335 9.49 340.965 9.21 341.973 9.21C343.583 9.21 344.437 10.078 344.437 11.492V14.264L344.661 15.902ZM342.687 14.572V13.354L342.085 13.424C341.539 13.494 341.189 13.718 341.189 14.18C341.189 14.586 341.427 14.894 341.847 14.894C342.253 14.894 342.491 14.74 342.687 14.572ZM350.318 15.678C349.744 15.986 349.31 16.154 348.428 16.154C347.112 16.154 346.468 15.272 346.468 13.956V10.778H345.446V9.602L346.468 9.364V8.216L348.232 8.006V9.378H350.052V10.778H348.232V13.48C348.232 14.362 348.456 14.586 349.03 14.586C349.352 14.586 349.534 14.502 349.842 14.362L350.318 15.678ZM356.301 15.608C355.559 15.986 354.943 16.168 354.047 16.168C351.835 16.168 350.855 14.824 350.855 12.584C350.855 10.582 352.045 9.224 353.809 9.224C355.657 9.224 356.259 10.498 356.259 12.094V12.878H352.591C352.647 14.054 353.207 14.614 354.271 14.614C354.901 14.614 355.251 14.46 355.755 14.25L356.301 15.608ZM354.705 11.8C354.705 11.114 354.411 10.652 353.753 10.652C353.053 10.652 352.703 11.184 352.619 11.8H354.705ZM365.36 15.902L363.652 16.126L363.568 15.398H363.554C363.162 15.748 362.644 16.168 361.888 16.168C360.852 16.168 360.166 15.524 360.166 14.418C360.166 13.158 361.104 12.584 362.462 12.444L363.386 12.346V11.898C363.386 11.226 363.106 10.764 362.266 10.764C361.748 10.764 361.398 10.918 361.02 11.128L360.376 9.924C361.034 9.49 361.664 9.21 362.672 9.21C364.282 9.21 365.136 10.078 365.136 11.492V14.264L365.36 15.902ZM363.386 14.572V13.354L362.784 13.424C362.238 13.494 361.888 13.718 361.888 14.18C361.888 14.586 362.126 14.894 362.546 14.894C362.952 14.894 363.19 14.74 363.386 14.572ZM371.549 9.518L371.017 11.072C370.667 10.918 370.345 10.792 369.869 10.792C368.987 10.792 368.329 11.422 368.329 12.612C368.329 13.956 368.931 14.544 369.785 14.544C370.289 14.544 370.555 14.432 370.975 14.264L371.507 15.72C370.891 16 370.317 16.168 369.561 16.168C367.573 16.168 366.523 14.824 366.523 12.71C366.523 10.274 368.175 9.21 369.869 9.21C370.527 9.21 370.975 9.294 371.549 9.518ZM377.1 9.518L376.568 11.072C376.218 10.918 375.896 10.792 375.42 10.792C374.538 10.792 373.88 11.422 373.88 12.612C373.88 13.956 374.482 14.544 375.336 14.544C375.84 14.544 376.106 14.432 376.526 14.264L377.058 15.72C376.442 16 375.868 16.168 375.112 16.168C373.124 16.168 372.074 14.824 372.074 12.71C372.074 10.274 373.726 9.21 375.42 9.21C376.078 9.21 376.526 9.294 377.1 9.518ZM383.589 12.668C383.589 14.656 382.553 16.154 380.607 16.154C378.507 16.154 377.625 14.67 377.625 12.668C377.625 10.68 378.661 9.224 380.607 9.224C382.707 9.224 383.589 10.666 383.589 12.668ZM381.825 12.682C381.825 11.324 381.377 10.778 380.607 10.778C379.837 10.778 379.389 11.296 379.389 12.654C379.389 13.998 379.837 14.6 380.607 14.6C381.377 14.6 381.825 14.026 381.825 12.682ZM390.786 15.902L389.078 16.126L388.98 15.412H388.966C388.574 15.79 387.916 16.168 387.034 16.168C385.9 16.168 384.976 15.496 384.976 14.012V11.1L384.752 9.462L386.754 9.238V13.578C386.754 14.292 387.048 14.614 387.664 14.614C388.126 14.614 388.518 14.404 388.784 14.138V11.1L388.56 9.462L390.562 9.238V14.264L390.786 15.902ZM397.931 16H396.153V11.8C396.153 11.086 395.859 10.764 395.229 10.764C394.767 10.764 394.375 10.988 394.123 11.24V16H392.345V11.1L392.121 9.462L393.829 9.238L393.913 9.966H393.927C394.319 9.574 394.977 9.21 395.859 9.21C397.007 9.21 397.931 9.868 397.931 11.366V16ZM403.775 15.678C403.201 15.986 402.767 16.154 401.885 16.154C400.569 16.154 399.925 15.272 399.925 13.956V10.778H398.903V9.602L399.925 9.364V8.216L401.689 8.006V9.378H403.509V10.778H401.689V13.48C401.689 14.362 401.913 14.586 402.487 14.586C402.809 14.586 402.991 14.502 403.299 14.362L403.775 15.678Z" fill="#00157E"/>
</svg>
