<svg width="420" height="24" viewBox="0 0 420 24" fill="none" xmlns="http://www.w3.org/2000/svg">
<path d="M22.02 9.658C22.02 11.632 20.41 12.626 18.534 12.626H18.324V16H17.162V7.642C17.162 7.642 18.212 7.488 19.318 7.488C20.956 7.488 22.02 8.272 22.02 9.658ZM20.872 9.868C20.872 8.832 20.186 8.37 19.122 8.37C18.674 8.37 18.324 8.426 18.324 8.426V11.73H18.506C19.752 11.73 20.872 11.17 20.872 9.868ZM26.4721 10.414C25.7161 10.414 25.1561 10.61 24.6521 11.072V16H23.5321V10.96L23.3361 9.518L24.4421 9.336L24.5541 10.232H24.5681C25.0161 9.728 25.6041 9.308 26.4721 9.308V10.414ZM32.8267 12.724C32.8267 14.642 31.9167 16.154 30.0267 16.154C27.9547 16.154 27.2267 14.684 27.2267 12.724C27.2267 10.806 28.1367 9.294 30.0267 9.294C32.0987 9.294 32.8267 10.764 32.8267 12.724ZM31.6787 12.752C31.6787 11.128 31.1327 10.274 30.0267 10.274C28.9487 10.274 28.3747 11.03 28.3747 12.682C28.3747 14.306 28.9207 15.174 30.0267 15.174C31.1047 15.174 31.6787 14.404 31.6787 12.752ZM39.5203 15.958L38.4423 16.112L38.3443 15.454H38.3303C37.9103 15.804 37.3363 16.154 36.5663 16.154C35.1243 16.154 34.1583 14.964 34.1583 13.018C34.1583 10.764 35.3203 9.378 37.3083 9.378C37.8403 9.378 38.2183 9.476 38.2183 9.476V8.062L38.0083 6.62L39.3243 6.438V14.516L39.5203 15.958ZM36.9583 15.174C37.5043 15.174 37.8823 14.95 38.2183 14.684V10.498C38.2183 10.498 37.8543 10.316 37.2103 10.316C35.9363 10.316 35.3063 11.394 35.3063 12.668C35.3063 14.25 35.7263 15.174 36.9583 15.174ZM46.7313 15.93L45.6253 16.112L45.5133 15.356H45.4993C45.0093 15.818 44.3653 16.154 43.5533 16.154C42.4473 16.154 41.5653 15.44 41.5653 14.096V10.96L41.3693 9.518L42.6853 9.336V13.704C42.6853 14.67 43.0493 15.174 43.9313 15.174C44.5613 15.174 45.0093 14.908 45.4153 14.53V10.96L45.2193 9.518L46.5353 9.336V14.488L46.7313 15.93ZM52.9984 9.574L52.6484 10.582C52.2844 10.442 51.8784 10.316 51.4164 10.316C50.1844 10.316 49.4424 11.24 49.4424 12.626C49.4424 14.376 50.1284 15.174 51.3884 15.174C51.8364 15.174 52.2004 15.02 52.5644 14.866L52.9424 15.776C52.3964 16.028 51.7944 16.154 51.1644 16.154C49.2884 16.154 48.3224 14.81 48.3224 12.808C48.3224 10.4 49.8064 9.294 51.4724 9.294C52.0464 9.294 52.5364 9.392 52.9984 9.574ZM57.9526 15.734C57.5466 15.958 57.1686 16.14 56.4546 16.14C55.4466 16.14 54.8026 15.482 54.8026 14.362V10.358H53.8366V9.616L54.8026 9.42V8.328L55.9086 8.188V9.448H57.7426V10.358H55.9086V13.984C55.9086 14.866 56.1326 15.146 56.7766 15.146C57.1266 15.146 57.3926 15.006 57.5886 14.88L57.9526 15.734Z" fill="#00157E" fill-opacity="0.7"/>
<path d="M297.432 12.072C297.432 14.136 296.268 15.156 294.708 15.156C293.04 15.156 291.972 14.316 291.972 12.048V7.776H293.004V12.096C293.004 13.524 293.556 14.196 294.672 14.196C295.788 14.196 296.472 13.512 296.472 12.12V7.776H297.432V12.072ZM303.314 12.972C303.314 14.232 302.438 15.132 300.986 15.132C300.242 15.132 299.582 14.976 299.018 14.736L299.33 13.86C299.798 14.076 300.35 14.256 300.914 14.256C301.79 14.256 302.354 13.92 302.354 13.128C302.354 12.54 301.922 12.252 301.346 11.976L300.218 11.436C299.462 11.076 298.946 10.608 298.946 9.588C298.946 8.352 300.026 7.644 301.274 7.644C301.946 7.644 302.378 7.752 303.002 7.98L302.666 8.832C302.282 8.652 301.862 8.484 301.334 8.484C300.59 8.484 299.918 8.784 299.918 9.552C299.918 10.068 300.23 10.32 300.71 10.548L301.862 11.112C302.774 11.556 303.314 12.048 303.314 12.972ZM310.469 10.932C310.469 13.572 308.885 15 306.317 15H304.805V7.824C304.805 7.824 305.801 7.704 306.869 7.704C309.101 7.704 310.469 8.868 310.469 10.932ZM309.425 11.076C309.425 9.372 308.273 8.556 306.701 8.556C306.197 8.556 305.813 8.58 305.813 8.58V14.1H306.509C308.225 14.1 309.425 13.08 309.425 11.076Z" fill="#00157E" fill-opacity="0.7"/>
<path d="M326.334 9.658C326.334 11.632 324.724 12.626 322.848 12.626H322.638V16H321.476V7.642C321.476 7.642 322.526 7.488 323.632 7.488C325.27 7.488 326.334 8.272 326.334 9.658ZM325.186 9.868C325.186 8.832 324.5 8.37 323.436 8.37C322.988 8.37 322.638 8.426 322.638 8.426V11.73H322.82C324.066 11.73 325.186 11.17 325.186 9.868ZM330.787 10.414C330.031 10.414 329.471 10.61 328.967 11.072V16H327.847V10.96L327.651 9.518L328.757 9.336L328.869 10.232H328.883C329.331 9.728 329.919 9.308 330.787 9.308V10.414ZM333.301 16H332.181V10.96L331.985 9.518L333.301 9.336V16ZM333.525 7.74C333.525 8.188 333.175 8.524 332.755 8.524C332.321 8.524 331.957 8.188 331.957 7.74C331.957 7.292 332.321 6.942 332.755 6.942C333.175 6.942 333.525 7.292 333.525 7.74ZM340.318 9.448L337.952 15.986L336.846 16.028L334.69 9.546L335.81 9.266L337.448 14.544H337.462L339.198 9.448H340.318ZM345.857 15.93L344.737 16.112L344.639 15.342H344.625C344.149 15.79 343.631 16.168 342.847 16.168C341.755 16.168 341.111 15.51 341.111 14.474C341.111 13.298 342.035 12.724 343.365 12.584L344.541 12.458V11.87C344.541 10.96 344.261 10.316 343.183 10.316C342.637 10.316 342.231 10.484 341.825 10.694L341.419 9.868C342.007 9.518 342.609 9.294 343.449 9.294C344.765 9.294 345.647 10.064 345.647 11.366V14.488L345.857 15.93ZM344.541 14.642V13.214L343.519 13.354C342.679 13.466 342.217 13.732 342.217 14.334C342.217 14.88 342.553 15.244 343.113 15.244C343.771 15.244 344.177 14.964 344.541 14.642ZM351.179 15.734C350.773 15.958 350.395 16.14 349.681 16.14C348.673 16.14 348.029 15.482 348.029 14.362V10.358H347.063V9.616L348.029 9.42V8.328L349.135 8.188V9.448H350.969V10.358H349.135V13.984C349.135 14.866 349.359 15.146 350.003 15.146C350.353 15.146 350.619 15.006 350.815 14.88L351.179 15.734ZM357.033 15.65C356.403 16 355.759 16.154 354.961 16.154C353.029 16.154 352.035 14.852 352.035 12.682C352.035 10.652 353.099 9.294 354.751 9.294C356.333 9.294 356.977 10.344 356.977 11.786V12.57H353.127C353.141 14.32 353.771 15.16 355.199 15.16C355.745 15.16 356.165 15.006 356.641 14.768L357.033 15.65ZM355.927 11.786C355.927 10.806 355.563 10.19 354.695 10.19C353.855 10.19 353.323 10.848 353.183 11.786H355.927ZM365.941 15.93L364.821 16.112L364.723 15.342H364.709C364.233 15.79 363.715 16.168 362.931 16.168C361.839 16.168 361.195 15.51 361.195 14.474C361.195 13.298 362.119 12.724 363.449 12.584L364.625 12.458V11.87C364.625 10.96 364.345 10.316 363.267 10.316C362.721 10.316 362.315 10.484 361.909 10.694L361.503 9.868C362.091 9.518 362.693 9.294 363.533 9.294C364.849 9.294 365.731 10.064 365.731 11.366V14.488L365.941 15.93ZM364.625 14.642V13.214L363.603 13.354C362.763 13.466 362.301 13.732 362.301 14.334C362.301 14.88 362.637 15.244 363.197 15.244C363.855 15.244 364.261 14.964 364.625 14.642ZM372.215 9.574L371.865 10.582C371.501 10.442 371.095 10.316 370.633 10.316C369.401 10.316 368.659 11.24 368.659 12.626C368.659 14.376 369.345 15.174 370.605 15.174C371.053 15.174 371.417 15.02 371.781 14.866L372.159 15.776C371.613 16.028 371.011 16.154 370.381 16.154C368.505 16.154 367.539 14.81 367.539 12.808C367.539 10.4 369.023 9.294 370.689 9.294C371.263 9.294 371.753 9.392 372.215 9.574ZM377.739 9.574L377.389 10.582C377.025 10.442 376.619 10.316 376.157 10.316C374.925 10.316 374.183 11.24 374.183 12.626C374.183 14.376 374.869 15.174 376.129 15.174C376.577 15.174 376.941 15.02 377.305 14.866L377.683 15.776C377.137 16.028 376.535 16.154 375.905 16.154C374.029 16.154 373.063 14.81 373.063 12.808C373.063 10.4 374.547 9.294 376.213 9.294C376.787 9.294 377.277 9.392 377.739 9.574ZM384.186 12.724C384.186 14.642 383.276 16.154 381.386 16.154C379.314 16.154 378.586 14.684 378.586 12.724C378.586 10.806 379.496 9.294 381.386 9.294C383.458 9.294 384.186 10.764 384.186 12.724ZM383.038 12.752C383.038 11.128 382.492 10.274 381.386 10.274C380.308 10.274 379.734 11.03 379.734 12.682C379.734 14.306 380.28 15.174 381.386 15.174C382.464 15.174 383.038 14.404 383.038 12.752ZM391.132 15.93L390.026 16.112L389.914 15.356H389.9C389.41 15.818 388.766 16.154 387.954 16.154C386.848 16.154 385.966 15.44 385.966 14.096V10.96L385.77 9.518L387.086 9.336V13.704C387.086 14.67 387.45 15.174 388.332 15.174C388.962 15.174 389.41 14.908 389.816 14.53V10.96L389.62 9.518L390.936 9.336V14.488L391.132 15.93ZM398.141 16H397.021V11.744C397.021 10.778 396.657 10.288 395.775 10.288C395.145 10.288 394.697 10.554 394.291 10.918V16H393.171V10.96L392.975 9.518L394.081 9.336L394.193 10.106H394.207C394.697 9.63 395.341 9.294 396.153 9.294C397.259 9.294 398.141 10.008 398.141 11.352V16ZM403.625 15.734C403.219 15.958 402.841 16.14 402.127 16.14C401.119 16.14 400.475 15.482 400.475 14.362V10.358H399.509V9.616L400.475 9.42V8.328L401.581 8.188V9.448H403.415V10.358H401.581V13.984C401.581 14.866 401.805 15.146 402.449 15.146C402.799 15.146 403.065 15.006 403.261 14.88L403.625 15.734Z" fill="#00157E" fill-opacity="0.7"/>
</svg>
