<svg width="165" height="32" viewBox="0 0 165 32" fill="none" xmlns="http://www.w3.org/2000/svg">
<path d="M16 0.5C24.5604 0.5 31.5 7.43959 31.5 16C31.5 24.5604 24.5604 31.5 16 31.5C7.43959 31.5 0.5 24.5604 0.5 16C0.5 7.43959 7.43959 0.5 16 0.5Z" fill="white"/>
<path d="M16 0.5C24.5604 0.5 31.5 7.43959 31.5 16C31.5 24.5604 24.5604 31.5 16 31.5C7.43959 31.5 0.5 24.5604 0.5 16C0.5 7.43959 7.43959 0.5 16 0.5Z" stroke="#00157E"/>
<path d="M0 16C0 7.16344 7.16344 0 16 0C24.8366 0 32 7.16344 32 16C32 24.8366 24.8366 32 16 32C7.16344 32 0 24.8366 0 16Z" fill="#00157E" fill-opacity="0.1"/>
<path d="M55.863 20.696L54.679 21.272L51.975 16.888C51.735 16.92 51.511 16.936 51.271 16.936H51.031V21H49.703V11.448C49.703 11.448 50.919 11.272 52.167 11.272C54.023 11.272 55.191 12.168 55.191 13.688C55.191 15.16 54.343 16.072 53.207 16.52L55.863 20.696ZM53.895 13.928C53.895 12.776 53.095 12.28 51.943 12.28C51.431 12.28 51.031 12.328 51.031 12.328V15.96H51.239C52.535 15.96 53.895 15.416 53.895 13.928ZM62.4108 20.92L61.1308 21.128L61.0188 20.248H61.0028C60.4588 20.76 59.8668 21.192 58.9708 21.192C57.7228 21.192 56.9868 20.44 56.9868 19.256C56.9868 17.912 58.0428 17.256 59.5628 17.096L60.9068 16.952V16.28C60.9068 15.24 60.5868 14.504 59.3548 14.504C58.7308 14.504 58.2668 14.696 57.8028 14.936L57.3388 13.992C58.0108 13.592 58.6988 13.336 59.6588 13.336C61.1628 13.336 62.1708 14.216 62.1708 15.704V19.272L62.4108 20.92ZM60.9068 19.448V17.816L59.7388 17.976C58.7788 18.104 58.2508 18.408 58.2508 19.096C58.2508 19.72 58.6348 20.136 59.2748 20.136C60.0268 20.136 60.4908 19.816 60.9068 19.448ZM70.3648 20.952L69.1328 21.128L69.0208 20.376H69.0048C68.5248 20.776 67.8688 21.176 66.9888 21.176C65.3408 21.176 64.2368 19.816 64.2368 17.592C64.2368 15.016 65.5648 13.432 67.8368 13.432C68.4448 13.432 68.8768 13.544 68.8768 13.544V11.928L68.6368 10.28L70.1408 10.072V19.304L70.3648 20.952ZM67.4368 20.056C68.0608 20.056 68.4928 19.8 68.8768 19.496V14.712C68.8768 14.712 68.4608 14.504 67.7248 14.504C66.2688 14.504 65.5488 15.736 65.5488 17.192C65.5488 19 66.0288 20.056 67.4368 20.056ZM74.0139 21H72.7339V15.24L72.5099 13.592L74.0139 13.384V21ZM74.2699 11.56C74.2699 12.072 73.8699 12.456 73.3899 12.456C72.8939 12.456 72.4779 12.072 72.4779 11.56C72.4779 11.048 72.8939 10.648 73.3899 10.648C73.8699 10.648 74.2699 11.048 74.2699 11.56ZM82.4649 17.256C82.4649 19.448 81.4249 21.176 79.2649 21.176C76.8969 21.176 76.0649 19.496 76.0649 17.256C76.0649 15.064 77.1049 13.336 79.2649 13.336C81.6329 13.336 82.4649 15.016 82.4649 17.256ZM81.1529 17.288C81.1529 15.432 80.5289 14.456 79.2649 14.456C78.0329 14.456 77.3769 15.32 77.3769 17.208C77.3769 19.064 78.0009 20.056 79.2649 20.056C80.4969 20.056 81.1529 19.176 81.1529 17.288ZM87.6508 16.872H83.9228V15.8H87.6508V16.872ZM95.5594 16.808C95.5594 19.304 94.2634 21.16 91.8954 21.16C91.0634 21.16 90.1514 21.016 89.6074 20.808V11.928L89.3834 10.28L90.8874 10.072V14.088H90.9034C91.3834 13.688 92.0234 13.336 92.8714 13.336C94.6314 13.336 95.5594 14.6 95.5594 16.808ZM94.2634 17.272C94.2634 15.624 93.8794 14.504 92.4234 14.504C91.7514 14.504 91.2714 14.776 90.8874 15.112V19.928C91.2074 20.008 91.5274 20.056 92.0074 20.056C93.4954 20.056 94.2634 18.792 94.2634 17.272ZM103.512 20.92L102.248 21.128L102.12 20.264H102.104C101.544 20.792 100.808 21.176 99.8801 21.176C98.6161 21.176 97.6081 20.36 97.6081 18.824V15.24L97.3841 13.592L98.8881 13.384V18.376C98.8881 19.48 99.3041 20.056 100.312 20.056C101.032 20.056 101.544 19.752 102.008 19.32V15.24L101.784 13.592L103.288 13.384V19.272L103.512 20.92ZM109.587 20.696C109.123 20.952 108.691 21.16 107.875 21.16C106.723 21.16 105.987 20.408 105.987 19.128V14.552H104.883V13.704L105.987 13.48V12.232L107.251 12.072V13.512H109.347V14.552H107.251V18.696C107.251 19.704 107.507 20.024 108.243 20.024C108.643 20.024 108.947 19.864 109.171 19.72L109.587 20.696ZM115.04 20.696C114.576 20.952 114.144 21.16 113.328 21.16C112.176 21.16 111.44 20.408 111.44 19.128V14.552H110.336V13.704L111.44 13.48V12.232L112.704 12.072V13.512H114.8V14.552H112.704V18.696C112.704 19.704 112.96 20.024 113.696 20.024C114.096 20.024 114.4 19.864 114.624 19.72L115.04 20.696ZM122.418 17.256C122.418 19.448 121.378 21.176 119.218 21.176C116.85 21.176 116.018 19.496 116.018 17.256C116.018 15.064 117.058 13.336 119.218 13.336C121.586 13.336 122.418 15.016 122.418 17.256ZM121.106 17.288C121.106 15.432 120.482 14.456 119.218 14.456C117.986 14.456 117.33 15.32 117.33 17.208C117.33 19.064 117.954 20.056 119.218 20.056C120.45 20.056 121.106 19.176 121.106 17.288ZM130.132 21H128.852V16.136C128.852 15.032 128.436 14.472 127.428 14.472C126.708 14.472 126.196 14.776 125.732 15.192V21H124.452V15.24L124.228 13.592L125.492 13.384L125.62 14.264H125.636C126.196 13.72 126.932 13.336 127.86 13.336C129.124 13.336 130.132 14.152 130.132 15.688V21ZM137.262 21H135.982V11.928L135.758 10.28L137.262 10.072V21ZM144.708 20.92L143.428 21.128L143.316 20.248H143.3C142.756 20.76 142.164 21.192 141.268 21.192C140.02 21.192 139.284 20.44 139.284 19.256C139.284 17.912 140.34 17.256 141.86 17.096L143.204 16.952V16.28C143.204 15.24 142.884 14.504 141.652 14.504C141.028 14.504 140.564 14.696 140.1 14.936L139.636 13.992C140.308 13.592 140.996 13.336 141.956 13.336C143.46 13.336 144.468 14.216 144.468 15.704V19.272L144.708 20.92ZM143.204 19.448V17.816L142.036 17.976C141.076 18.104 140.548 18.408 140.548 19.096C140.548 19.72 140.932 20.136 141.572 20.136C142.324 20.136 142.788 19.816 143.204 19.448ZM152.966 16.808C152.966 19.304 151.67 21.16 149.302 21.16C148.47 21.16 147.558 21.016 147.014 20.808V11.928L146.79 10.28L148.294 10.072V14.088H148.31C148.79 13.688 149.43 13.336 150.278 13.336C152.038 13.336 152.966 14.6 152.966 16.808ZM151.67 17.272C151.67 15.624 151.286 14.504 149.83 14.504C149.158 14.504 148.678 14.776 148.294 15.112V19.928C148.614 20.008 148.934 20.056 149.414 20.056C150.902 20.056 151.67 18.792 151.67 17.272ZM160.214 20.6C159.494 21 158.758 21.176 157.846 21.176C155.638 21.176 154.502 19.688 154.502 17.208C154.502 14.888 155.718 13.336 157.606 13.336C159.414 13.336 160.15 14.536 160.15 16.184V17.08H155.75C155.766 19.08 156.486 20.04 158.118 20.04C158.742 20.04 159.222 19.864 159.766 19.592L160.214 20.6ZM158.95 16.184C158.95 15.064 158.534 14.36 157.542 14.36C156.582 14.36 155.974 15.112 155.814 16.184H158.95ZM163.372 21H162.092V11.928L161.868 10.28L163.372 10.072V21Z" fill="#00157E"/>
</svg>
