<svg width="514" height="88" viewBox="0 0 514 88" fill="none" xmlns="http://www.w3.org/2000/svg">
<path d="M5.55898 16H1.16298V7.572H2.33898V15.006H5.55898V16ZM11.2432 15.93L10.1232 16.112L10.0252 15.342H10.0112C9.5352 15.79 9.0172 16.168 8.2332 16.168C7.1412 16.168 6.4972 15.51 6.4972 14.474C6.4972 13.298 7.4212 12.724 8.7512 12.584L9.9272 12.458V11.87C9.9272 10.96 9.6472 10.316 8.5692 10.316C8.0232 10.316 7.6172 10.484 7.2112 10.694L6.8052 9.868C7.3932 9.518 7.9952 9.294 8.8352 9.294C10.1512 9.294 11.0332 10.064 11.0332 11.366V14.488L11.2432 15.93ZM9.9272 14.642V13.214L8.9052 13.354C8.0652 13.466 7.6032 13.732 7.6032 14.334C7.6032 14.88 7.9392 15.244 8.4992 15.244C9.1572 15.244 9.5632 14.964 9.9272 14.642ZM18.4689 12.332C18.4689 14.516 17.3349 16.14 15.2629 16.14C14.5349 16.14 13.7369 16.014 13.2609 15.832V8.062L13.0649 6.62L14.3809 6.438V9.952H14.3949C14.8149 9.602 15.3749 9.294 16.1169 9.294C17.6569 9.294 18.4689 10.4 18.4689 12.332ZM17.3349 12.738C17.3349 11.296 16.9989 10.316 15.7249 10.316C15.1369 10.316 14.7169 10.554 14.3809 10.848V15.062C14.6609 15.132 14.9409 15.174 15.3609 15.174C16.6629 15.174 17.3349 14.068 17.3349 12.738ZM24.8116 15.65C24.1816 16 23.5376 16.154 22.7396 16.154C20.8076 16.154 19.8136 14.852 19.8136 12.682C19.8136 10.652 20.8776 9.294 22.5296 9.294C24.1116 9.294 24.7556 10.344 24.7556 11.786V12.57H20.9056C20.9196 14.32 21.5496 15.16 22.9776 15.16C23.5236 15.16 23.9436 15.006 24.4196 14.768L24.8116 15.65ZM23.7056 11.786C23.7056 10.806 23.3416 10.19 22.4736 10.19C21.6336 10.19 21.1016 10.848 20.9616 11.786H23.7056ZM27.5743 16H26.4543V8.062L26.2583 6.62L27.5743 6.438V16Z" fill="#00157E" fill-opacity="0.7"/>
<g clip-path="url(#clip0_325_1230712)">
<mask id="path-2-inside-1_325_1230712" fill="white">
<path d="M0 28H514V68H0V28Z"/>
</mask>
<path d="M8.82173 53H7.47773V48.6H3.14173V53H1.79773V43.368H3.14173V47.464H7.47773V43.368H8.82173V53ZM16.3492 52.92L15.0692 53.128L14.9572 52.248H14.9412C14.3972 52.76 13.8052 53.192 12.9092 53.192C11.6612 53.192 10.9252 52.44 10.9252 51.256C10.9252 49.912 11.9812 49.256 13.5012 49.096L14.8452 48.952V48.28C14.8452 47.24 14.5252 46.504 13.2932 46.504C12.6692 46.504 12.2052 46.696 11.7412 46.936L11.2772 45.992C11.9492 45.592 12.6372 45.336 13.5972 45.336C15.1012 45.336 16.1092 46.216 16.1092 47.704V51.272L16.3492 52.92ZM14.8452 51.448V49.816L13.6772 49.976C12.7172 50.104 12.1892 50.408 12.1892 51.096C12.1892 51.72 12.5732 52.136 13.2132 52.136C13.9652 52.136 14.4292 51.816 14.8452 51.448ZM24.3672 53H23.0872V48.136C23.0872 47.032 22.6712 46.472 21.6632 46.472C20.9432 46.472 20.4312 46.776 19.9672 47.192V53H18.6872V47.24L18.4632 45.592L19.7272 45.384L19.8552 46.264H19.8712C20.4312 45.72 21.1672 45.336 22.0952 45.336C23.3592 45.336 24.3672 46.152 24.3672 47.688V53ZM31.2264 50.824C31.2264 52.184 30.1544 53.16 28.5544 53.16C27.7864 53.16 27.0184 53.048 26.4104 52.76L26.7944 51.64C27.3224 51.88 27.9144 52.072 28.4904 52.072C29.3544 52.072 29.9304 51.736 29.9304 51.032C29.9304 50.488 29.6424 50.264 29.1464 50.04L27.7544 49.4C27.2584 49.176 26.3624 48.728 26.3624 47.432C26.3624 46.008 27.6104 45.336 28.9704 45.336C29.7864 45.336 30.3624 45.464 31.0024 45.736L30.5704 46.84C30.0584 46.616 29.5624 46.456 28.9544 46.456C28.1384 46.456 27.6104 46.712 27.6104 47.352C27.6104 47.912 28.0904 48.136 28.3944 48.28L29.8184 48.952C30.8104 49.416 31.2264 50.008 31.2264 50.824ZM46.4811 52.968L45.2011 53.064L44.9291 45.608H44.9131L42.0811 53H40.6891L38.0171 45.624H38.0011L37.6171 53H36.4491L37.0731 43.368H38.4811L41.5051 51.4H41.5211L44.5771 43.368H45.9691L46.4811 52.968ZM54.0591 52.6C53.3391 53 52.6031 53.176 51.6911 53.176C49.4831 53.176 48.3471 51.688 48.3471 49.208C48.3471 46.888 49.5631 45.336 51.4511 45.336C53.2591 45.336 53.9951 46.536 53.9951 48.184V49.08H49.5951C49.6111 51.08 50.3311 52.04 51.9631 52.04C52.5871 52.04 53.0671 51.864 53.6111 51.592L54.0591 52.6ZM52.7951 48.184C52.7951 47.064 52.3791 46.36 51.3871 46.36C50.4271 46.36 49.8191 47.112 49.6591 48.184H52.7951ZM61.3925 45.512L58.8965 52.312C58.0965 54.52 57.0245 55.848 54.4165 56.376L54.1765 55.336C56.0805 54.952 57.0885 53.8 57.5845 52.552L54.8965 45.624L56.1605 45.288L58.2245 50.856H58.2405L60.1285 45.512H61.3925ZM67.981 52.6C67.261 53 66.525 53.176 65.613 53.176C63.405 53.176 62.269 51.688 62.269 49.208C62.269 46.888 63.485 45.336 65.373 45.336C67.181 45.336 67.917 46.536 67.917 48.184V49.08H63.517C63.533 51.08 64.253 52.04 65.885 52.04C66.509 52.04 66.989 51.864 67.533 51.592L67.981 52.6ZM66.717 48.184C66.717 47.064 66.301 46.36 65.309 46.36C64.349 46.36 63.741 47.112 63.581 48.184H66.717ZM73.2504 46.616C72.3864 46.616 71.7464 46.84 71.1704 47.368V53H69.8904V47.24L69.6664 45.592L70.9304 45.384L71.0584 46.408H71.0744C71.5864 45.832 72.2584 45.352 73.2504 45.352V46.616Z" fill="#00157E"/>
<path d="M501.999 39L506.999 44L493.999 57H488.999V52L501.999 39Z" stroke="#00157E" stroke-width="2" stroke-linecap="round" stroke-linejoin="round"/>
</g>
<path d="M514 68V67H0V68V69H514V68Z" fill="#00157E" fill-opacity="0.2" mask="url(#path-2-inside-1_325_1230712)"/>
<g clip-path="url(#clip1_325_1230712)">
<g clip-path="url(#clip2_325_1230712)">
<path d="M7.99998 86.6666C11.6819 86.6666 14.6666 83.6819 14.6666 80C14.6666 76.3181 11.6819 73.3333 7.99998 73.3333C4.31808 73.3333 1.33331 76.3181 1.33331 80C1.33331 83.6819 4.31808 86.6666 7.99998 86.6666Z" stroke="#00157E" stroke-width="2" stroke-linecap="round" stroke-linejoin="round"/>
<path d="M8 82.6667V80" stroke="#00157E" stroke-width="2" stroke-linecap="round" stroke-linejoin="round"/>
<path d="M8 77.3333H8.00667" stroke="#00157E" stroke-width="2" stroke-linecap="round" stroke-linejoin="round"/>
</g>
<path d="M26.338 84H25.162V75.572H26.338V84ZM33.59 84H32.47V79.744C32.47 78.778 32.106 78.288 31.224 78.288C30.594 78.288 30.146 78.554 29.74 78.918V84H28.62V78.96L28.424 77.518L29.53 77.336L29.642 78.106H29.656C30.146 77.63 30.79 77.294 31.602 77.294C32.708 77.294 33.59 78.008 33.59 79.352V84ZM39.0317 74.578L38.7797 75.53C38.5837 75.46 38.4017 75.418 38.1217 75.418C37.4917 75.418 37.0297 75.824 37.0297 76.65V77.448H38.8357V78.358H37.0297V84H35.9237V78.358H34.9577V77.616L35.9237 77.42V76.734C35.9237 75.32 36.8757 74.452 38.1777 74.452C38.5277 74.452 38.7797 74.508 39.0317 74.578ZM44.9966 80.724C44.9966 82.642 44.0866 84.154 42.1966 84.154C40.1246 84.154 39.3966 82.684 39.3966 80.724C39.3966 78.806 40.3066 77.294 42.1966 77.294C44.2686 77.294 44.9966 78.764 44.9966 80.724ZM43.8486 80.752C43.8486 79.128 43.3026 78.274 42.1966 78.274C41.1186 78.274 40.5446 79.03 40.5446 80.682C40.5446 82.306 41.0906 83.174 42.1966 83.174C43.2746 83.174 43.8486 82.404 43.8486 80.752ZM49.7163 78.414C48.9603 78.414 48.4003 78.61 47.8963 79.072V84H46.7763V78.96L46.5802 77.518L47.6863 77.336L47.7983 78.232H47.8123C48.2603 77.728 48.8483 77.308 49.7163 77.308V78.414ZM59.8889 84H58.7829V79.744C58.7829 78.778 58.4189 78.288 57.5229 78.288C56.8929 78.288 56.3609 78.596 56.0109 78.946C56.0109 78.946 56.0529 79.184 56.0529 79.436V84H54.9329V79.744C54.9329 78.778 54.5689 78.288 53.6869 78.288C53.0569 78.288 52.6089 78.54 52.2029 78.918V84H51.0829V78.96L50.8869 77.518L51.9929 77.336L52.1049 78.106H52.1189C52.6089 77.63 53.2529 77.294 54.0649 77.294C54.8209 77.294 55.4509 77.63 55.7869 78.232H55.8009C56.3189 77.714 56.9909 77.294 57.9149 77.294C59.0349 77.294 59.8889 78.008 59.8889 79.352V84ZM66.4141 83.93L65.2941 84.112L65.1961 83.342H65.1821C64.7061 83.79 64.1881 84.168 63.4041 84.168C62.3121 84.168 61.6681 83.51 61.6681 82.474C61.6681 81.298 62.5921 80.724 63.9221 80.584L65.0981 80.458V79.87C65.0981 78.96 64.8181 78.316 63.7401 78.316C63.1941 78.316 62.7881 78.484 62.3821 78.694L61.9761 77.868C62.5641 77.518 63.1661 77.294 64.0061 77.294C65.3221 77.294 66.2041 78.064 66.2041 79.366V82.488L66.4141 83.93ZM65.0981 82.642V81.214L64.0761 81.354C63.2361 81.466 62.7741 81.732 62.7741 82.334C62.7741 82.88 63.1101 83.244 63.6701 83.244C64.3281 83.244 64.7341 82.964 65.0981 82.642ZM71.7358 83.734C71.3298 83.958 70.9518 84.14 70.2378 84.14C69.2298 84.14 68.5858 83.482 68.5858 82.362V78.358H67.6198V77.616L68.5858 77.42V76.328L69.6918 76.188V77.448H71.5258V78.358H69.6918V81.984C69.6918 82.866 69.9158 83.146 70.5598 83.146C70.9098 83.146 71.1758 83.006 71.3718 82.88L71.7358 83.734ZM74.3793 84H73.2593V78.96L73.0633 77.518L74.3793 77.336V84ZM74.6033 75.74C74.6033 76.188 74.2533 76.524 73.8333 76.524C73.3993 76.524 73.0353 76.188 73.0353 75.74C73.0353 75.292 73.3993 74.942 73.8333 74.942C74.2533 74.942 74.6033 75.292 74.6033 75.74ZM81.396 77.448L79.03 83.986L77.924 84.028L75.768 77.546L76.888 77.266L78.526 82.544H78.54L80.276 77.448H81.396ZM87.2013 83.65C86.5713 84 85.9273 84.154 85.1292 84.154C83.1973 84.154 82.2033 82.852 82.2033 80.682C82.2033 78.652 83.2673 77.294 84.9193 77.294C86.5013 77.294 87.1453 78.344 87.1453 79.786V80.57H83.2953C83.3093 82.32 83.9393 83.16 85.3673 83.16C85.9133 83.16 86.3333 83.006 86.8093 82.768L87.2013 83.65ZM86.0953 79.786C86.0953 78.806 85.7313 78.19 84.8633 78.19C84.0233 78.19 83.4913 78.848 83.3513 79.786H86.0953ZM95.0874 83.734C94.6814 83.958 94.3034 84.14 93.5894 84.14C92.5814 84.14 91.9374 83.482 91.9374 82.362V78.358H90.9714V77.616L91.9374 77.42V76.328L93.0434 76.188V77.448H94.8774V78.358H93.0434V81.984C93.0434 82.866 93.2674 83.146 93.9114 83.146C94.2614 83.146 94.5274 83.006 94.7234 82.88L95.0874 83.734ZM100.941 83.65C100.311 84 99.6675 84.154 98.8695 84.154C96.9375 84.154 95.9435 82.852 95.9435 80.682C95.9435 78.652 97.0075 77.294 98.6595 77.294C100.241 77.294 100.885 78.344 100.885 79.786V80.57H97.0355C97.0495 82.32 97.6795 83.16 99.1075 83.16C99.6535 83.16 100.073 83.006 100.549 82.768L100.941 83.65ZM99.8355 79.786C99.8355 78.806 99.4715 78.19 98.6035 78.19C97.7635 78.19 97.2315 78.848 97.0915 79.786H99.8355ZM107.191 83.706L106.239 84.238L104.419 81.438H104.405L102.767 84H101.591L103.873 80.598L101.913 77.742L102.851 77.21L104.475 79.674H104.489L105.889 77.448H107.079L105.007 80.5L107.191 83.706ZM111.835 83.734C111.429 83.958 111.051 84.14 110.337 84.14C109.329 84.14 108.685 83.482 108.685 82.362V78.358H107.719V77.616L108.685 77.42V76.328L109.791 76.188V77.448H111.625V78.358H109.791V81.984C109.791 82.866 110.015 83.146 110.659 83.146C111.009 83.146 111.275 83.006 111.471 82.88L111.835 83.734Z" fill="#00157E"/>
</g>
<defs>
<clipPath id="clip0_325_1230712">
<path d="M0 28H514V68H0V28Z" fill="white"/>
</clipPath>
<clipPath id="clip1_325_1230712">
<rect width="514" height="16" fill="white" transform="translate(0 72)"/>
</clipPath>
<clipPath id="clip2_325_1230712">
<rect width="16" height="16" fill="white" transform="translate(0 72)"/>
</clipPath>
</defs>
</svg>
