<svg width="555" height="200" viewBox="0 0 555 200" fill="none" xmlns="http://www.w3.org/2000/svg">
<g clip-path="url(#clip0_444_10379)">
<path d="M22.552 15.735L21.516 16.239L19.15 12.403C18.94 12.431 18.744 12.445 18.534 12.445H18.324V16.001H17.162V7.64298C17.162 7.64298 18.226 7.48898 19.318 7.48898C20.942 7.48898 21.964 8.27298 21.964 9.60298C21.964 10.891 21.222 11.689 20.228 12.081L22.552 15.735ZM20.83 9.81298C20.83 8.80498 20.13 8.37098 19.122 8.37098C18.674 8.37098 18.324 8.41298 18.324 8.41298V11.591H18.506C19.64 11.591 20.83 11.115 20.83 9.81298ZM28.4513 15.651C27.8213 16.001 27.1773 16.155 26.3792 16.155C24.4473 16.155 23.4533 14.853 23.4533 12.683C23.4533 10.653 24.5173 9.29498 26.1693 9.29498C27.7513 9.29498 28.3953 10.345 28.3953 11.787V12.571H24.5453C24.5593 14.321 25.1893 15.161 26.6173 15.161C27.1633 15.161 27.5833 15.007 28.0593 14.769L28.4513 15.651ZM27.3453 11.787C27.3453 10.807 26.9813 10.191 26.1133 10.191C25.2733 10.191 24.7413 10.849 24.6013 11.787H27.3453ZM34.35 9.57498L34 10.583C33.636 10.443 33.23 10.317 32.768 10.317C31.536 10.317 30.794 11.241 30.794 12.627C30.794 14.377 31.48 15.175 32.74 15.175C33.188 15.175 33.552 15.021 33.916 14.867L34.294 15.777C33.748 16.029 33.146 16.155 32.516 16.155C30.64 16.155 29.674 14.811 29.674 12.809C29.674 10.401 31.158 9.29498 32.824 9.29498C33.398 9.29498 33.888 9.39298 34.35 9.57498ZM41.0575 15.931L39.9515 16.113L39.8395 15.357H39.8255C39.3355 15.819 38.6915 16.155 37.8795 16.155C36.7735 16.155 35.8915 15.441 35.8915 14.097V10.961L35.6955 9.51898L37.0115 9.33698V13.705C37.0115 14.671 37.3755 15.175 38.2575 15.175C38.8875 15.175 39.3355 14.909 39.7415 14.531V10.961L39.5455 9.51898L40.8615 9.33698V14.489L41.0575 15.931ZM46.0366 10.415C45.2806 10.415 44.7206 10.611 44.2166 11.073V16.001H43.0966V10.961L42.9006 9.51898L44.0066 9.33698L44.1186 10.233H44.1326C44.5806 9.72898 45.1686 9.30898 46.0366 9.30898V10.415ZM50.3432 10.415C49.5872 10.415 49.0272 10.611 48.5232 11.073V16.001H47.4032V10.961L47.2072 9.51898L48.3132 9.33698L48.4252 10.233H48.4392C48.8872 9.72898 49.4752 9.30898 50.3432 9.30898V10.415ZM52.8578 16.001H51.7378V10.961L51.5418 9.51898L52.8578 9.33698V16.001ZM53.0818 7.74098C53.0818 8.18898 52.7318 8.52498 52.3118 8.52498C51.8778 8.52498 51.5138 8.18898 51.5138 7.74098C51.5138 7.29298 51.8778 6.94298 52.3118 6.94298C52.7318 6.94298 53.0818 7.29298 53.0818 7.74098ZM60.0705 16.001H58.9505V11.745C58.9505 10.779 58.5865 10.289 57.7045 10.289C57.0745 10.289 56.6265 10.555 56.2205 10.919V16.001H55.1005V10.961L54.9045 9.51898L56.0105 9.33698L56.1225 10.107H56.1365C56.6265 9.63098 57.2705 9.29498 58.0825 9.29498C59.1885 9.29498 60.0705 10.009 60.0705 11.353V16.001ZM67.6262 10.275H66.3102C66.5062 10.611 66.6182 11.003 66.6182 11.479C66.6182 12.809 65.6522 13.705 64.3082 13.705C64.0422 13.705 63.7902 13.663 63.5662 13.607C63.5662 13.607 63.1182 13.859 63.1182 14.363C63.1182 14.797 63.4402 14.881 63.8882 14.881H65.7642C66.9122 14.881 67.5842 15.231 67.5842 16.253C67.5842 17.541 66.2682 18.997 63.8742 18.997C62.5022 18.997 61.6622 18.325 61.6622 17.177C61.6622 16.099 62.5442 15.567 62.5442 15.567C62.2642 15.385 62.0822 15.105 62.0822 14.643C62.0822 13.831 62.7822 13.425 62.9222 13.355C62.3062 12.977 61.9702 12.333 61.9702 11.479C61.9702 10.149 62.9502 9.26698 64.3082 9.26698C64.8122 9.26698 65.2742 9.37898 65.6382 9.60298L67.6262 9.29498V10.275ZM66.6042 16.421C66.6042 15.945 66.1982 15.847 65.5122 15.847H63.7482C63.5522 15.847 63.3702 15.833 63.1882 15.805C63.1882 15.805 62.6562 16.225 62.6562 16.925C62.6562 17.681 63.1182 18.087 64.1262 18.087C65.7362 18.087 66.6042 17.135 66.6042 16.421ZM65.5682 11.479C65.5682 10.569 65.0642 10.107 64.3082 10.107C63.5802 10.107 63.0202 10.597 63.0202 11.479C63.0202 12.403 63.5382 12.865 64.3082 12.865C65.0222 12.865 65.5682 12.375 65.5682 11.479ZM77.2056 12.403C77.2056 14.531 76.2816 16.071 74.0976 16.071C73.7336 16.071 73.4396 16.043 73.1736 15.973V18.773L72.0536 18.955V10.961L71.8576 9.51898L72.9636 9.33698L73.0616 10.009H73.0756C73.5096 9.64498 74.0836 9.29498 74.8396 9.29498C76.4356 9.29498 77.2056 10.499 77.2056 12.403ZM76.0856 12.725C76.0856 11.297 75.7636 10.303 74.4616 10.303C73.9016 10.303 73.4956 10.541 73.1736 10.807V14.937C73.4396 15.049 73.7476 15.119 74.1816 15.119C75.3996 15.119 76.0856 14.167 76.0856 12.725ZM83.2832 15.931L82.1632 16.113L82.0652 15.343H82.0512C81.5752 15.791 81.0572 16.169 80.2732 16.169C79.1812 16.169 78.5372 15.511 78.5372 14.475C78.5372 13.299 79.4612 12.725 80.7912 12.585L81.9672 12.459V11.871C81.9672 10.961 81.6872 10.317 80.6092 10.317C80.0632 10.317 79.6572 10.485 79.2512 10.695L78.8452 9.86898C79.4332 9.51898 80.0352 9.29498 80.8752 9.29498C82.1912 9.29498 83.0732 10.065 83.0732 11.367V14.489L83.2832 15.931ZM81.9672 14.643V13.215L80.9452 13.355C80.1052 13.467 79.6432 13.733 79.6432 14.335C79.6432 14.881 79.9792 15.245 80.5392 15.245C81.1972 15.245 81.6032 14.965 81.9672 14.643ZM89.9246 9.44898L87.7406 15.399C87.0406 17.331 86.1026 18.493 83.8206 18.955L83.6106 18.045C85.2766 17.709 86.1586 16.701 86.5926 15.609L84.2406 9.54698L85.3466 9.25298L87.1526 14.125H87.1666L88.8186 9.44898H89.9246ZM100.082 16.001H98.9763V11.745C98.9763 10.779 98.6123 10.289 97.7163 10.289C97.0863 10.289 96.5543 10.597 96.2043 10.947C96.2043 10.947 96.2463 11.185 96.2463 11.437V16.001H95.1263V11.745C95.1263 10.779 94.7623 10.289 93.8803 10.289C93.2503 10.289 92.8023 10.541 92.3963 10.919V16.001H91.2763V10.961L91.0802 9.51898L92.1863 9.33698L92.2983 10.107H92.3123C92.8023 9.63098 93.4463 9.29498 94.2583 9.29498C95.0143 9.29498 95.6443 9.63098 95.9803 10.233H95.9943C96.5123 9.71498 97.1843 9.29498 98.1083 9.29498C99.2283 9.29498 100.082 10.009 100.082 11.353V16.001ZM106.859 15.651C106.229 16.001 105.585 16.155 104.787 16.155C102.855 16.155 101.861 14.853 101.861 12.683C101.861 10.653 102.925 9.29498 104.577 9.29498C106.159 9.29498 106.803 10.345 106.803 11.787V12.571H102.953C102.967 14.321 103.597 15.161 105.025 15.161C105.571 15.161 105.991 15.007 106.467 14.769L106.859 15.651ZM105.753 11.787C105.753 10.807 105.389 10.191 104.521 10.191C103.681 10.191 103.149 10.849 103.009 11.787H105.753ZM113.5 16.001H112.38V11.745C112.38 10.779 112.016 10.289 111.134 10.289C110.504 10.289 110.056 10.555 109.65 10.919V16.001H108.53V10.961L108.334 9.51898L109.44 9.33698L109.552 10.107H109.566C110.056 9.63098 110.7 9.29498 111.512 9.29498C112.618 9.29498 113.5 10.009 113.5 11.353V16.001ZM118.984 15.735C118.578 15.959 118.2 16.141 117.486 16.141C116.478 16.141 115.834 15.483 115.834 14.363V10.359H114.868V9.61698L115.834 9.42098V8.32898L116.94 8.18898V9.44898H118.774V10.359H116.94V13.985C116.94 14.867 117.164 15.147 117.808 15.147C118.158 15.147 118.424 15.007 118.62 14.881L118.984 15.735ZM124.273 14.097C124.273 15.287 123.335 16.141 121.935 16.141C121.263 16.141 120.591 16.043 120.059 15.791L120.395 14.811C120.857 15.021 121.375 15.189 121.879 15.189C122.635 15.189 123.139 14.895 123.139 14.279C123.139 13.803 122.887 13.607 122.453 13.411L121.235 12.851C120.801 12.655 120.017 12.263 120.017 11.129C120.017 9.88298 121.109 9.29498 122.299 9.29498C123.013 9.29498 123.517 9.40698 124.077 9.64498L123.699 10.611C123.251 10.415 122.817 10.275 122.285 10.275C121.571 10.275 121.109 10.499 121.109 11.059C121.109 11.549 121.529 11.745 121.795 11.871L123.041 12.459C123.909 12.865 124.273 13.383 124.273 14.097Z" fill="#00157E" fill-opacity="0.7"/>
</g>
<path d="M0 36.001C0 31.5827 3.58172 28.001 8 28.001H546.667C551.085 28.001 554.667 31.5827 554.667 36.001V192.005C554.667 196.423 551.085 200.005 546.667 200.005H8C3.58172 200.005 0 196.423 0 192.005V36.001Z" fill="white"/>
<path d="M8 28.501H546.667C550.809 28.5012 554.167 31.859 554.167 36.001V192.005C554.167 196.147 550.809 199.505 546.667 199.505H8C3.85787 199.505 0.5 196.147 0.5 192.005V36.001C0.500003 31.8588 3.85787 28.501 8 28.501Z" stroke="#00157E" stroke-opacity="0.2"/>
<g clip-path="url(#clip1_444_10379)">
<path d="M17 48.002V54.002H23" stroke="#00157E" stroke-width="2" stroke-linecap="round" stroke-linejoin="round"/>
<path d="M19.51 59.0019C20.1584 60.8423 21.3873 62.4221 23.0117 63.5033C24.636 64.5845 26.5677 65.1085 28.5157 64.9964C30.4637 64.8843 32.3226 64.1421 33.8121 62.8817C35.3017 61.6212 36.3413 59.9109 36.7742 58.0083C37.2072 56.1056 37.0101 54.1139 36.2126 52.333C35.4152 50.5521 34.0605 49.0787 32.3528 48.1347C30.6451 47.1906 28.6769 46.8272 26.7447 47.099C24.8125 47.3709 23.0209 48.2633 21.64 49.6419L17 54.0019" stroke="#00157E" stroke-width="2" stroke-linecap="round" stroke-linejoin="round"/>
</g>
<path d="M62.552 59.736L61.516 60.24L59.15 56.404C58.94 56.432 58.744 56.446 58.534 56.446H58.324V60.002H57.162V51.644C57.162 51.644 58.226 51.49 59.318 51.49C60.942 51.49 61.964 52.274 61.964 53.604C61.964 54.892 61.222 55.69 60.228 56.082L62.552 59.736ZM60.83 53.814C60.83 52.806 60.13 52.372 59.122 52.372C58.674 52.372 58.324 52.414 58.324 52.414V55.592H58.506C59.64 55.592 60.83 55.116 60.83 53.814ZM68.4513 59.652C67.8213 60.002 67.1773 60.156 66.3792 60.156C64.4473 60.156 63.4533 58.854 63.4533 56.684C63.4533 54.654 64.5173 53.296 66.1693 53.296C67.7513 53.296 68.3953 54.346 68.3953 55.788V56.572H64.5453C64.5593 58.322 65.1893 59.162 66.6173 59.162C67.1633 59.162 67.5833 59.008 68.0593 58.77L68.4513 59.652ZM67.3453 55.788C67.3453 54.808 66.9813 54.192 66.1133 54.192C65.2733 54.192 64.7413 54.85 64.6013 55.788H67.3453ZM75.092 60.002H73.972V55.746C73.972 54.78 73.608 54.29 72.726 54.29C72.096 54.29 71.648 54.556 71.242 54.92V60.002H70.122V54.962L69.926 53.52L71.032 53.338L71.144 54.108H71.158C71.648 53.632 72.292 53.296 73.104 53.296C74.21 53.296 75.092 54.01 75.092 55.354V60.002ZM80.5757 59.736C80.1697 59.96 79.7917 60.142 79.0777 60.142C78.0697 60.142 77.4257 59.484 77.4257 58.364V54.36H76.4597V53.618L77.4257 53.422V52.33L78.5317 52.19V53.45H80.3657V54.36H78.5317V57.986C78.5317 58.868 78.7557 59.148 79.3997 59.148C79.7497 59.148 80.0157 59.008 80.2117 58.882L80.5757 59.736Z" fill="#00157E"/>
<path d="M523.667 62.002L529.667 56.002L523.667 50.002" stroke="#00157E" stroke-width="2" stroke-linecap="round" stroke-linejoin="round"/>
<mask id="path-10-inside-1_444_10379" fill="white">
<path d="M0 92.0029C0 87.5847 3.58172 84.0029 8 84.0029H546.667C551.085 84.0029 554.667 87.5847 554.667 92.0029V140.003H0V92.0029Z"/>
</mask>
<path d="M0 92.0029C0 87.0324 4.02944 83.0029 9 83.0029H545.667C550.637 83.0029 554.667 87.0324 554.667 92.0029C554.667 88.1369 551.085 85.0029 546.667 85.0029H8C3.58172 85.0029 0 88.1369 0 92.0029ZM0 92.0029M554.667 140.003H0H554.667M554.667 140.003M0 140.003V84.0029V140.003M0 140.003M554.667 84.0029V140.003V84.0029" fill="#00157E" fill-opacity="0.2" mask="url(#path-10-inside-1_444_10379)"/>
<g clip-path="url(#clip2_444_10379)">
<path d="M17 104.003V110.003H23" stroke="#00157E" stroke-width="2" stroke-linecap="round" stroke-linejoin="round"/>
<path d="M19.51 115.003C20.1584 116.843 21.3873 118.423 23.0117 119.504C24.636 120.585 26.5677 121.109 28.5157 120.997C30.4637 120.885 32.3226 120.143 33.8121 118.883C35.3017 117.622 36.3413 115.912 36.7742 114.009C37.2072 112.107 37.0101 110.115 36.2126 108.334C35.4152 106.553 34.0605 105.08 32.3528 104.136C30.6451 103.192 28.6769 102.828 26.7447 103.1C24.8125 103.372 23.0209 104.264 21.64 105.643L17 110.003" stroke="#00157E" stroke-width="2" stroke-linecap="round" stroke-linejoin="round"/>
</g>
<path d="M61.348 108.569H58.324V111.313H61.054V112.307H58.324V116.003H57.162V107.575H61.348V108.569ZM67.7818 112.727C67.7818 114.645 66.8718 116.157 64.9818 116.157C62.9098 116.157 62.1818 114.687 62.1818 112.727C62.1818 110.809 63.0918 109.297 64.9818 109.297C67.0538 109.297 67.7818 110.767 67.7818 112.727ZM66.6338 112.755C66.6338 111.131 66.0878 110.277 64.9818 110.277C63.9038 110.277 63.3298 111.033 63.3298 112.685C63.3298 114.309 63.8758 115.177 64.9818 115.177C66.0598 115.177 66.6338 114.407 66.6338 112.755ZM74.5314 116.003H73.4114V111.747C73.4114 110.781 73.0474 110.291 72.1654 110.291C71.5354 110.291 71.0874 110.557 70.6814 110.921V116.003H69.5614V110.963L69.3654 109.521L70.4714 109.339L70.5834 110.109H70.5974C71.0874 109.633 71.7314 109.297 72.5434 109.297C73.6494 109.297 74.5314 110.011 74.5314 111.355V116.003ZM81.6531 115.961L80.5751 116.115L80.4771 115.457H80.4631C80.0431 115.807 79.4691 116.157 78.6991 116.157C77.2571 116.157 76.2911 114.967 76.2911 113.021C76.2911 110.767 77.4531 109.381 79.4411 109.381C79.9731 109.381 80.3511 109.479 80.3511 109.479V108.065L80.1411 106.623L81.4571 106.441V114.519L81.6531 115.961ZM79.0911 115.177C79.6371 115.177 80.0151 114.953 80.3511 114.687V110.501C80.3511 110.501 79.9871 110.319 79.3431 110.319C78.0691 110.319 77.4391 111.397 77.4391 112.671C77.4391 114.253 77.8591 115.177 79.0911 115.177ZM87.4921 114.099C87.4921 115.289 86.5541 116.143 85.1541 116.143C84.4821 116.143 83.8101 116.045 83.2781 115.793L83.6141 114.813C84.0761 115.023 84.5941 115.191 85.0981 115.191C85.8541 115.191 86.3581 114.897 86.3581 114.281C86.3581 113.805 86.1061 113.609 85.6721 113.413L84.4541 112.853C84.0201 112.657 83.2361 112.265 83.2361 111.131C83.2361 109.885 84.3281 109.297 85.5181 109.297C86.2321 109.297 86.7361 109.409 87.2961 109.647L86.9181 110.613C86.4701 110.417 86.0361 110.277 85.5041 110.277C84.7901 110.277 84.3281 110.501 84.3281 111.061C84.3281 111.551 84.7481 111.747 85.0141 111.873L86.2601 112.461C87.1281 112.867 87.4921 113.385 87.4921 114.099ZM93.35 116.003H92.23V110.963L92.034 109.521L93.35 109.339V116.003ZM93.574 107.743C93.574 108.191 93.224 108.527 92.804 108.527C92.37 108.527 92.006 108.191 92.006 107.743C92.006 107.295 92.37 106.945 92.804 106.945C93.224 106.945 93.574 107.295 93.574 107.743ZM100.563 116.003H99.4427V111.747C99.4427 110.781 99.0787 110.291 98.1967 110.291C97.5667 110.291 97.1187 110.557 96.7127 110.921V116.003H95.5927V110.963L95.3967 109.521L96.5027 109.339L96.6147 110.109H96.6287C97.1187 109.633 97.7627 109.297 98.5747 109.297C99.6807 109.297 100.563 110.011 100.563 111.355V116.003ZM107.394 109.451L105.028 115.989L103.922 116.031L101.766 109.549L102.886 109.269L104.524 114.547H104.538L106.274 109.451H107.394ZM113.199 115.653C112.569 116.003 111.925 116.157 111.127 116.157C109.195 116.157 108.201 114.855 108.201 112.685C108.201 110.655 109.265 109.297 110.917 109.297C112.499 109.297 113.143 110.347 113.143 111.789V112.573H109.293C109.307 114.323 109.937 115.163 111.365 115.163C111.911 115.163 112.331 115.009 112.807 114.771L113.199 115.653ZM112.093 111.789C112.093 110.809 111.729 110.193 110.861 110.193C110.021 110.193 109.489 110.851 109.349 111.789H112.093ZM118.664 114.099C118.664 115.289 117.726 116.143 116.326 116.143C115.654 116.143 114.982 116.045 114.45 115.793L114.786 114.813C115.248 115.023 115.766 115.191 116.27 115.191C117.026 115.191 117.53 114.897 117.53 114.281C117.53 113.805 117.278 113.609 116.844 113.413L115.626 112.853C115.192 112.657 114.408 112.265 114.408 111.131C114.408 109.885 115.5 109.297 116.69 109.297C117.404 109.297 117.908 109.409 118.468 109.647L118.09 110.613C117.642 110.417 117.208 110.277 116.676 110.277C115.962 110.277 115.5 110.501 115.5 111.061C115.5 111.551 115.92 111.747 116.186 111.873L117.432 112.461C118.3 112.867 118.664 113.385 118.664 114.099ZM123.71 115.737C123.304 115.961 122.926 116.143 122.212 116.143C121.204 116.143 120.56 115.485 120.56 114.365V110.361H119.594V109.619L120.56 109.423V108.331L121.666 108.191V109.451H123.5V110.361H121.666V113.987C121.666 114.869 121.89 115.149 122.534 115.149C122.884 115.149 123.15 115.009 123.346 114.883L123.71 115.737ZM134.012 116.003H132.906V111.747C132.906 110.781 132.542 110.291 131.646 110.291C131.016 110.291 130.484 110.599 130.134 110.949C130.134 110.949 130.176 111.187 130.176 111.439V116.003H129.056V111.747C129.056 110.781 128.692 110.291 127.81 110.291C127.18 110.291 126.732 110.543 126.326 110.921V116.003H125.206V110.963L125.01 109.521L126.116 109.339L126.228 110.109H126.242C126.732 109.633 127.376 109.297 128.188 109.297C128.944 109.297 129.574 109.633 129.91 110.235H129.924C130.442 109.717 131.114 109.297 132.038 109.297C133.158 109.297 134.012 110.011 134.012 111.355V116.003ZM140.789 115.653C140.159 116.003 139.515 116.157 138.717 116.157C136.785 116.157 135.791 114.855 135.791 112.685C135.791 110.655 136.855 109.297 138.507 109.297C140.089 109.297 140.733 110.347 140.733 111.789V112.573H136.883C136.897 114.323 137.527 115.163 138.955 115.163C139.501 115.163 139.921 115.009 140.397 114.771L140.789 115.653ZM139.683 111.789C139.683 110.809 139.319 110.193 138.451 110.193C137.611 110.193 137.079 110.851 136.939 111.789H139.683ZM147.43 116.003H146.31V111.747C146.31 110.781 145.946 110.291 145.064 110.291C144.434 110.291 143.986 110.557 143.58 110.921V116.003H142.46V110.963L142.264 109.521L143.37 109.339L143.482 110.109H143.496C143.986 109.633 144.63 109.297 145.442 109.297C146.548 109.297 147.43 110.011 147.43 111.355V116.003ZM152.914 115.737C152.508 115.961 152.13 116.143 151.416 116.143C150.408 116.143 149.764 115.485 149.764 114.365V110.361H148.798V109.619L149.764 109.423V108.331L150.87 108.191V109.451H152.704V110.361H150.87V113.987C150.87 114.869 151.094 115.149 151.738 115.149C152.088 115.149 152.354 115.009 152.55 114.883L152.914 115.737Z" fill="#00157E"/>
<path d="M523.667 118.003L529.667 112.003L523.667 106.003" stroke="#00157E" stroke-width="2" stroke-linecap="round" stroke-linejoin="round"/>
<mask id="path-16-inside-2_444_10379" fill="white">
<path d="M0 148.004C0 143.586 3.58172 140.004 8 140.004H546.667C551.085 140.004 554.667 143.586 554.667 148.004V196.004H0V148.004Z"/>
</mask>
<path d="M0 148.004C0 143.033 4.02944 139.004 9 139.004H545.667C550.637 139.004 554.667 143.033 554.667 148.004C554.667 144.138 551.085 141.004 546.667 141.004H8C3.58172 141.004 0 144.138 0 148.004ZM0 148.004M554.667 196.004H0H554.667M554.667 196.004M0 196.004V140.004V196.004M0 196.004M554.667 140.004V196.004V140.004" fill="#00157E" fill-opacity="0.2" mask="url(#path-16-inside-2_444_10379)"/>
<g clip-path="url(#clip3_444_10379)">
<path d="M17 160.004V166.004H23" stroke="#00157E" stroke-width="2" stroke-linecap="round" stroke-linejoin="round"/>
<path d="M19.51 171.004C20.1584 172.844 21.3873 174.424 23.0117 175.505C24.636 176.586 26.5677 177.11 28.5157 176.998C30.4637 176.886 32.3226 176.144 33.8121 174.884C35.3017 173.623 36.3413 171.913 36.7742 170.01C37.2072 168.108 37.0101 166.116 36.2126 164.335C35.4152 162.554 34.0605 161.081 32.3528 160.137C30.6451 159.193 28.6769 158.829 26.7447 159.101C24.8125 159.373 23.0209 160.265 21.64 161.644L17 166.004" stroke="#00157E" stroke-width="2" stroke-linecap="round" stroke-linejoin="round"/>
</g>
<path d="M63.154 171.864L62.006 172.186L61.11 169.274H58.366L57.512 172.004H56.28L59.206 163.576H60.41L63.154 171.864ZM60.858 168.434L59.766 164.794H59.752L58.618 168.434H60.858ZM65.6222 172.004H64.5022V164.066L64.3062 162.624L65.6222 162.442V172.004ZM68.9308 172.004H67.8108V164.066L67.6148 162.624L68.9308 162.442V172.004ZM76.2993 168.728C76.2993 170.646 75.3893 172.158 73.4993 172.158C71.4273 172.158 70.6993 170.688 70.6993 168.728C70.6993 166.81 71.6093 165.298 73.4993 165.298C75.5713 165.298 76.2993 166.768 76.2993 168.728ZM75.1513 168.756C75.1513 167.132 74.6053 166.278 73.4993 166.278C72.4213 166.278 71.8473 167.034 71.8473 168.686C71.8473 170.31 72.3933 171.178 73.4993 171.178C74.5773 171.178 75.1513 170.408 75.1513 168.756ZM85.933 165.452L84.127 171.976L83.091 172.032L81.495 167.062H81.481L79.871 171.99L78.835 172.032L77.197 165.522L78.261 165.256L79.437 170.366H79.451L80.977 165.452H82.069L83.609 170.366H83.623L84.841 165.452H85.933ZM91.5098 171.934L90.3898 172.116L90.2918 171.346H90.2778C89.8018 171.794 89.2838 172.172 88.4998 172.172C87.4078 172.172 86.7638 171.514 86.7638 170.478C86.7638 169.302 87.6878 168.728 89.0178 168.588L90.1938 168.462V167.874C90.1938 166.964 89.9138 166.32 88.8358 166.32C88.2898 166.32 87.8838 166.488 87.4778 166.698L87.0718 165.872C87.6598 165.522 88.2618 165.298 89.1018 165.298C90.4178 165.298 91.2998 166.068 91.2998 167.37V170.492L91.5098 171.934ZM90.1938 170.646V169.218L89.1718 169.358C88.3318 169.47 87.8698 169.736 87.8698 170.338C87.8698 170.884 88.2058 171.248 88.7658 171.248C89.4238 171.248 89.8298 170.968 90.1938 170.646ZM98.5255 172.004H97.4055V167.748C97.4055 166.782 97.0415 166.292 96.1595 166.292C95.5295 166.292 95.0815 166.558 94.6755 166.922V172.004H93.5555V166.964L93.3595 165.522L94.4655 165.34L94.5775 166.11H94.5915C95.0815 165.634 95.7255 165.298 96.5375 165.298C97.6435 165.298 98.5255 166.012 98.5255 167.356V172.004ZM104.961 165.578L104.611 166.586C104.247 166.446 103.841 166.32 103.379 166.32C102.147 166.32 101.405 167.244 101.405 168.63C101.405 170.38 102.091 171.178 103.351 171.178C103.799 171.178 104.163 171.024 104.527 170.87L104.905 171.78C104.359 172.032 103.757 172.158 103.127 172.158C101.251 172.158 100.285 170.814 100.285 168.812C100.285 166.404 101.769 165.298 103.435 165.298C104.009 165.298 104.499 165.396 104.961 165.578ZM110.807 171.654C110.177 172.004 109.533 172.158 108.735 172.158C106.803 172.158 105.809 170.856 105.809 168.686C105.809 166.656 106.873 165.298 108.525 165.298C110.107 165.298 110.751 166.348 110.751 167.79V168.574H106.901C106.915 170.324 107.545 171.164 108.973 171.164C109.519 171.164 109.939 171.01 110.415 170.772L110.807 171.654ZM109.701 167.79C109.701 166.81 109.337 166.194 108.469 166.194C107.629 166.194 107.097 166.852 106.957 167.79H109.701Z" fill="#00157E"/>
<path d="M523.667 174.004L529.667 168.004L523.667 162.004" stroke="#00157E" stroke-width="2" stroke-linecap="round" stroke-linejoin="round"/>
<defs>
<clipPath id="clip0_444_10379">
<rect width="522.667" height="24" fill="white" transform="translate(16 0.000976562)"/>
</clipPath>
<clipPath id="clip1_444_10379">
<rect width="24" height="24" fill="white" transform="translate(16 44.002)"/>
</clipPath>
<clipPath id="clip2_444_10379">
<rect width="24" height="24" fill="white" transform="translate(16 100.003)"/>
</clipPath>
<clipPath id="clip3_444_10379">
<rect width="24" height="24" fill="white" transform="translate(16 156.004)"/>
</clipPath>
</defs>
</svg>
