<svg width="420" height="70" viewBox="0 0 420 70" fill="none" xmlns="http://www.w3.org/2000/svg">
<mask id="path-1-inside-1_822_129468" fill="white">
<path d="M0 0H420V70H0V0Z"/>
</mask>
<path d="M420 70V69H0V70V71H420V70Z" fill="#00157E" fill-opacity="0.2" mask="url(#path-1-inside-1_822_129468)"/>
<path d="M7.15498 23.86L6.00698 24.182L5.11098 21.27H2.36698L1.51298 24H0.280977L3.20698 15.572H4.41098L7.15498 23.86ZM4.85898 20.43L3.76698 16.79H3.75298L2.61898 20.43H4.85898ZM13.9491 21.424C13.9491 23.314 12.3951 24 10.3511 24H8.57313V15.628C8.57313 15.628 9.63713 15.502 10.7291 15.502C12.3391 15.502 13.3191 16.104 13.3191 17.434C13.3191 18.442 12.6891 19.114 11.8911 19.464V19.478C13.0251 19.604 13.9491 20.262 13.9491 21.424ZM12.7871 21.606C12.7871 20.668 12.1851 20.108 10.5331 20.108H9.72113V23.048H10.7431C11.8911 23.048 12.7871 22.614 12.7871 21.606ZM12.1571 17.7C12.1571 16.762 11.5551 16.356 10.4771 16.356C10.0851 16.356 9.72113 16.398 9.72113 16.398V19.296C11.1631 19.268 12.1571 18.862 12.1571 17.7ZM20.9491 21.424C20.9491 23.314 19.3951 24 17.3511 24H15.5731V15.628C15.5731 15.628 16.6371 15.502 17.7291 15.502C19.3391 15.502 20.3191 16.104 20.3191 17.434C20.3191 18.442 19.6891 19.114 18.8911 19.464V19.478C20.0251 19.604 20.9491 20.262 20.9491 21.424ZM19.7871 21.606C19.7871 20.668 19.1851 20.108 17.5331 20.108H16.7211V23.048H17.7431C18.8911 23.048 19.7871 22.614 19.7871 21.606ZM19.1571 17.7C19.1571 16.762 18.5551 16.356 17.4771 16.356C17.0851 16.356 16.7211 16.398 16.7211 16.398V19.296C18.1631 19.268 19.1571 18.862 19.1571 17.7ZM29.9086 24H25.5126V15.572H26.6886V23.006H29.9086V24ZM34.3931 23.734C33.9871 23.958 33.6091 24.14 32.8951 24.14C31.8871 24.14 31.2431 23.482 31.2431 22.362V18.358H30.2771V17.616L31.2431 17.42V16.328L32.3491 16.188V17.448H34.1831V18.358H32.3491V21.984C32.3491 22.866 32.5731 23.146 33.2171 23.146C33.5671 23.146 33.8331 23.006 34.0291 22.88L34.3931 23.734ZM40.6111 23.958L39.5331 24.112L39.4351 23.454H39.4211C39.0011 23.804 38.4271 24.154 37.6571 24.154C36.2151 24.154 35.2491 22.964 35.2491 21.018C35.2491 18.764 36.4111 17.378 38.3991 17.378C38.9311 17.378 39.3091 17.476 39.3091 17.476V16.062L39.0991 14.62L40.4151 14.438V22.516L40.6111 23.958ZM38.0491 23.174C38.5951 23.174 38.9731 22.95 39.3091 22.684V18.498C39.3091 18.498 38.9451 18.316 38.3011 18.316C37.0271 18.316 36.3971 19.394 36.3971 20.668C36.3971 22.25 36.8171 23.174 38.0491 23.174Z" fill="#00157E"/>
<path d="M4.90898 36.972C4.90898 38.232 4.03298 39.132 2.58098 39.132C1.83698 39.132 1.17698 38.976 0.612977 38.736L0.924977 37.86C1.39298 38.076 1.94498 38.256 2.50898 38.256C3.38498 38.256 3.94898 37.92 3.94898 37.128C3.94898 36.54 3.51698 36.252 2.94098 35.976L1.81298 35.436C1.05698 35.076 0.540977 34.608 0.540977 33.588C0.540977 32.352 1.62098 31.644 2.86898 31.644C3.54098 31.644 3.97298 31.752 4.59698 31.98L4.26098 32.832C3.87698 32.652 3.45698 32.484 2.92898 32.484C2.18498 32.484 1.51298 32.784 1.51298 33.552C1.51298 34.068 1.82498 34.32 2.30498 34.548L3.45698 35.112C4.36898 35.556 4.90898 36.048 4.90898 36.972ZM9.17132 38.772C8.82332 38.964 8.49932 39.12 7.88732 39.12C7.02332 39.12 6.47132 38.556 6.47132 37.596V34.164H5.64332V33.528L6.47132 33.36V32.424L7.41932 32.304V33.384H8.99132V34.164H7.41932V37.272C7.41932 38.028 7.61132 38.268 8.16332 38.268C8.46332 38.268 8.69132 38.148 8.85932 38.04L9.17132 38.772ZM12.9732 34.212C12.3252 34.212 11.8452 34.38 11.4132 34.776V39H10.4532V34.68L10.2852 33.444L11.2332 33.288L11.3292 34.056H11.3412C11.7252 33.624 12.2292 33.264 12.9732 33.264V34.212ZM18.5726 38.94L17.6246 39.096L17.5286 38.448H17.5166C17.0966 38.844 16.5446 39.132 15.8486 39.132C14.9006 39.132 14.1446 38.52 14.1446 37.368V34.68L13.9766 33.444L15.1046 33.288V37.032C15.1046 37.86 15.4166 38.292 16.1726 38.292C16.7126 38.292 17.0966 38.064 17.4446 37.74V34.68L17.2766 33.444L18.4046 33.288V37.704L18.5726 38.94ZM23.9444 33.492L23.6444 34.356C23.3324 34.236 22.9844 34.128 22.5884 34.128C21.5324 34.128 20.8964 34.92 20.8964 36.108C20.8964 37.608 21.4844 38.292 22.5644 38.292C22.9484 38.292 23.2604 38.16 23.5724 38.028L23.8964 38.808C23.4284 39.024 22.9124 39.132 22.3724 39.132C20.7644 39.132 19.9364 37.98 19.9364 36.264C19.9364 34.2 21.2084 33.252 22.6364 33.252C23.1284 33.252 23.5484 33.336 23.9444 33.492ZM28.1909 38.772C27.8429 38.964 27.5189 39.12 26.9069 39.12C26.0429 39.12 25.4909 38.556 25.4909 37.596V34.164H24.6629V33.528L25.4909 33.36V32.424L26.4389 32.304V33.384H28.0109V34.164H26.4389V37.272C26.4389 38.028 26.6309 38.268 27.1829 38.268C27.4829 38.268 27.7109 38.148 27.8789 38.04L28.1909 38.772ZM33.9007 38.94L32.9527 39.096L32.8567 38.448H32.8447C32.4247 38.844 31.8727 39.132 31.1767 39.132C30.2287 39.132 29.4727 38.52 29.4727 37.368V34.68L29.3047 33.444L30.4327 33.288V37.032C30.4327 37.86 30.7447 38.292 31.5007 38.292C32.0407 38.292 32.4247 38.064 32.7727 37.74V34.68L32.6047 33.444L33.7327 33.288V37.704L33.9007 38.94ZM38.1685 34.212C37.5205 34.212 37.0405 34.38 36.6085 34.776V39H35.6485V34.68L35.4805 33.444L36.4285 33.288L36.5245 34.056H36.5365C36.9205 33.624 37.4245 33.264 38.1685 33.264V34.212ZM43.0993 38.7C42.5593 39 42.0073 39.132 41.3233 39.132C39.6673 39.132 38.8153 38.016 38.8153 36.156C38.8153 34.416 39.7273 33.252 41.1433 33.252C42.4993 33.252 43.0513 34.152 43.0513 35.388V36.06H39.7513C39.7633 37.56 40.3033 38.28 41.5273 38.28C41.9953 38.28 42.3553 38.148 42.7633 37.944L43.0993 38.7ZM42.1513 35.388C42.1513 34.548 41.8393 34.02 41.0953 34.02C40.3753 34.02 39.9193 34.584 39.7993 35.388H42.1513ZM48.7433 38.964L47.8193 39.096L47.7353 38.532H47.7233C47.3633 38.832 46.8713 39.132 46.2113 39.132C44.9753 39.132 44.1473 38.112 44.1473 36.444C44.1473 34.512 45.1433 33.324 46.8473 33.324C47.3033 33.324 47.6273 33.408 47.6273 33.408V32.196L47.4473 30.96L48.5753 30.804V37.728L48.7433 38.964ZM46.5473 38.292C47.0153 38.292 47.3393 38.1 47.6273 37.872V34.284C47.6273 34.284 47.3153 34.128 46.7633 34.128C45.6713 34.128 45.1313 35.052 45.1313 36.144C45.1313 37.5 45.4913 38.292 46.5473 38.292ZM57.4317 35.916C57.4317 37.74 56.6397 39.06 54.7677 39.06C54.4557 39.06 54.2037 39.036 53.9757 38.976V41.376L53.0157 41.532V34.68L52.8477 33.444L53.7957 33.288L53.8797 33.864H53.8917C54.2637 33.552 54.7557 33.252 55.4037 33.252C56.7717 33.252 57.4317 34.284 57.4317 35.916ZM56.4717 36.192C56.4717 34.968 56.1957 34.116 55.0797 34.116C54.5997 34.116 54.2517 34.32 53.9757 34.548V38.088C54.2037 38.184 54.4677 38.244 54.8397 38.244C55.8837 38.244 56.4717 37.428 56.4717 36.192ZM61.4771 34.212C60.8291 34.212 60.3491 34.38 59.9171 34.776V39H58.9571V34.68L58.7891 33.444L59.7371 33.288L59.8331 34.056H59.8451C60.2291 33.624 60.7331 33.264 61.4771 33.264V34.212ZM66.9239 36.192C66.9239 37.836 66.1439 39.132 64.5239 39.132C62.7479 39.132 62.1239 37.872 62.1239 36.192C62.1239 34.548 62.9039 33.252 64.5239 33.252C66.2999 33.252 66.9239 34.512 66.9239 36.192ZM65.9399 36.216C65.9399 34.824 65.4719 34.092 64.5239 34.092C63.5999 34.092 63.1079 34.74 63.1079 36.156C63.1079 37.548 63.5759 38.292 64.5239 38.292C65.4479 38.292 65.9399 37.632 65.9399 36.216ZM72.6613 38.964L71.7373 39.096L71.6533 38.532H71.6413C71.2813 38.832 70.7893 39.132 70.1293 39.132C68.8933 39.132 68.0653 38.112 68.0653 36.444C68.0653 34.512 69.0613 33.324 70.7653 33.324C71.2213 33.324 71.5453 33.408 71.5453 33.408V32.196L71.3653 30.96L72.4933 30.804V37.728L72.6613 38.964ZM70.4653 38.292C70.9333 38.292 71.2573 38.1 71.5453 37.872V34.284C71.5453 34.284 71.2333 34.128 70.6813 34.128C69.5893 34.128 69.0493 35.052 69.0493 36.144C69.0493 37.5 69.4093 38.292 70.4653 38.292ZM78.8421 38.94L77.8941 39.096L77.7981 38.448H77.7861C77.3661 38.844 76.8141 39.132 76.1181 39.132C75.1701 39.132 74.4141 38.52 74.4141 37.368V34.68L74.2461 33.444L75.3741 33.288V37.032C75.3741 37.86 75.6861 38.292 76.4421 38.292C76.9821 38.292 77.3661 38.064 77.7141 37.74V34.68L77.5461 33.444L78.6741 33.288V37.704L78.8421 38.94ZM84.2139 33.492L83.9139 34.356C83.6019 34.236 83.2539 34.128 82.8579 34.128C81.8019 34.128 81.1659 34.92 81.1659 36.108C81.1659 37.608 81.7539 38.292 82.8339 38.292C83.2179 38.292 83.5299 38.16 83.8419 38.028L84.1659 38.808C83.6979 39.024 83.1819 39.132 82.6419 39.132C81.0339 39.132 80.2059 37.98 80.2059 36.264C80.2059 34.2 81.4779 33.252 82.9059 33.252C83.3979 33.252 83.8179 33.336 84.2139 33.492ZM88.4604 38.772C88.1124 38.964 87.7884 39.12 87.1764 39.12C86.3124 39.12 85.7604 38.556 85.7604 37.596V34.164H84.9324V33.528L85.7604 33.36V32.424L86.7084 32.304V33.384H88.2804V34.164H86.7084V37.272C86.7084 38.028 86.9004 38.268 87.4524 38.268C87.7524 38.268 87.9804 38.148 88.1484 38.04L88.4604 38.772Z" fill="#00157E" fill-opacity="0.7"/>
<path d="M5.16098 50.904H3.13298V52.92H2.34098V50.904H0.324977V50.112H2.34098V48.096H3.13298V50.112H5.16098V50.904ZM7.96963 54H7.02163V48.696L5.96563 48.84L5.85763 48.108L7.96963 47.772V54ZM10.9947 47.46C10.9947 48.336 10.6347 49.008 9.90266 49.44L9.62666 49.08C9.98666 48.816 10.1787 48.48 10.2387 48.048C9.90266 48 9.61466 47.712 9.61466 47.364C9.61466 46.968 9.92666 46.668 10.3107 46.668C10.6947 46.668 10.9947 46.98 10.9947 47.46ZM16.6049 54H12.1529V53.376L14.2049 51.408C14.7569 50.868 15.1769 50.472 15.1769 49.812C15.1769 49.116 14.7449 48.6 13.9409 48.6C13.4009 48.6 13.0169 48.84 12.7289 49.08L12.2729 48.444C12.7889 48.012 13.3169 47.748 14.1449 47.748C15.3329 47.748 16.1489 48.444 16.1489 49.704C16.1489 50.544 15.6449 51.18 15.0689 51.708L13.5329 53.124V53.136H16.6049V54ZM22.5017 50.94C22.5017 52.536 21.8777 54.132 20.0657 54.132C18.2417 54.132 17.6177 52.536 17.6177 50.94C17.6177 49.344 18.2417 47.748 20.0657 47.748C21.8777 47.748 22.5017 49.344 22.5017 50.94ZM21.5177 50.94C21.5177 49.596 21.0737 48.588 20.0657 48.588C19.0457 48.588 18.6017 49.596 18.6017 50.94C18.6017 52.284 19.0457 53.292 20.0657 53.292C21.0737 53.292 21.5177 52.284 21.5177 50.94ZM28.6775 50.94C28.6775 52.536 28.0535 54.132 26.2415 54.132C24.4175 54.132 23.7935 52.536 23.7935 50.94C23.7935 49.344 24.4175 47.748 26.2415 47.748C28.0535 47.748 28.6775 49.344 28.6775 50.94ZM27.6935 50.94C27.6935 49.596 27.2495 48.588 26.2415 48.588C25.2215 48.588 24.7775 49.596 24.7775 50.94C24.7775 52.284 25.2215 53.292 26.2415 53.292C27.2495 53.292 27.6935 52.284 27.6935 50.94ZM31.3853 53.388C31.3853 53.772 31.0733 54.084 30.7013 54.084C30.3173 54.084 30.0053 53.772 30.0053 53.388C30.0053 53.016 30.3173 52.704 30.7013 52.704C31.0733 52.704 31.3853 53.016 31.3853 53.388ZM36.8995 52.248C36.8995 53.4 36.0235 54.132 34.7875 54.132C33.5275 54.132 32.6755 53.496 32.6755 52.32C32.6755 51.264 33.4555 50.628 34.0555 50.22C33.3355 49.716 32.8555 49.284 32.8555 48.384C32.8555 47.364 33.6955 46.644 34.7755 46.644C35.9395 46.644 36.6955 47.292 36.6955 48.3C36.6955 49.164 36.0955 49.716 35.5075 50.124C36.2755 50.64 36.8995 51.156 36.8995 52.248ZM35.9755 52.248C35.9755 51.468 35.4355 51.072 34.7155 50.604C34.0795 51.036 33.5875 51.408 33.5875 52.2C33.5875 52.92 34.0675 53.328 34.7995 53.328C35.5795 53.328 35.9755 52.848 35.9755 52.248ZM35.8435 48.408C35.8435 47.796 35.4355 47.4 34.7875 47.4C34.1395 47.4 33.7195 47.82 33.7195 48.42C33.7195 48.984 34.1875 49.308 34.8355 49.752C35.3515 49.416 35.8435 48.984 35.8435 48.408ZM42.5887 51.804C42.5887 53.22 41.7487 54.132 40.3927 54.132C38.8567 54.132 38.2087 52.992 38.2087 51.3C38.2087 48.036 40.1287 46.692 42.2167 46.524L42.3367 47.316C40.8967 47.472 39.4567 48.252 39.1807 50.256L39.1927 50.268C39.1927 50.268 39.8047 49.74 40.6327 49.74C41.8927 49.74 42.5887 50.544 42.5887 51.804ZM41.6407 51.996C41.6407 50.976 41.2447 50.544 40.3687 50.544C39.6847 50.544 39.1807 51.024 39.1807 51.024V51.252C39.1807 52.596 39.5287 53.34 40.4767 53.34C41.2687 53.34 41.6407 52.776 41.6407 51.996Z" fill="#00157E"/>
<path d="M53.965 53.628C53.293 53.976 52.609 54.132 51.697 54.132C49.933 54.132 48.577 52.944 48.577 50.544C48.577 47.988 50.089 46.644 52.033 46.644C52.837 46.644 53.329 46.764 53.941 47.028L53.557 47.904C53.101 47.7 52.669 47.544 52.021 47.544C50.761 47.544 49.609 48.516 49.609 50.292C49.609 52.272 50.341 53.244 52.093 53.244C52.669 53.244 53.197 53.016 53.629 52.824L53.965 53.628ZM60.4876 54H59.4796V50.7H56.2276V54H55.2196V46.776H56.2276V49.848H59.4796V46.776H60.4876V54ZM66.0733 47.628H63.4813V49.98H65.8213V50.832H63.4813V54H62.4853V46.776H66.0733V47.628Z" fill="#00157E" fill-opacity="0.7"/>
<path d="M88.161 50.904H86.133V52.92H85.341V50.904H83.325V50.112H85.341V48.096H86.133V50.112H88.161V50.904ZM90.9696 54H90.0216V48.696L88.9656 48.84L88.8576 48.108L90.9696 47.772V54ZM96.8627 54H92.4107V53.376L94.4627 51.408C95.0147 50.868 95.4347 50.472 95.4347 49.812C95.4347 49.116 95.0027 48.6 94.1987 48.6C93.6587 48.6 93.2747 48.84 92.9867 49.08L92.5307 48.444C93.0467 48.012 93.5747 47.748 94.4027 47.748C95.5907 47.748 96.4067 48.444 96.4067 49.704C96.4067 50.544 95.9027 51.18 95.3267 51.708L93.7907 53.124V53.136H96.8627V54ZM99.2915 53.388C99.2915 53.772 98.9795 54.084 98.6075 54.084C98.2235 54.084 97.9115 53.772 97.9115 53.388C97.9115 53.016 98.2235 52.704 98.6075 52.704C98.9795 52.704 99.2915 53.016 99.2915 53.388ZM104.806 52.248C104.806 53.4 103.93 54.132 102.694 54.132C101.434 54.132 100.582 53.496 100.582 52.32C100.582 51.264 101.362 50.628 101.962 50.22C101.242 49.716 100.762 49.284 100.762 48.384C100.762 47.364 101.602 46.644 102.682 46.644C103.846 46.644 104.602 47.292 104.602 48.3C104.602 49.164 104.002 49.716 103.414 50.124C104.182 50.64 104.806 51.156 104.806 52.248ZM103.882 52.248C103.882 51.468 103.342 51.072 102.622 50.604C101.986 51.036 101.494 51.408 101.494 52.2C101.494 52.92 101.974 53.328 102.706 53.328C103.486 53.328 103.882 52.848 103.882 52.248ZM103.75 48.408C103.75 47.796 103.342 47.4 102.694 47.4C102.046 47.4 101.626 47.82 101.626 48.42C101.626 48.984 102.094 49.308 102.742 49.752C103.258 49.416 103.75 48.984 103.75 48.408ZM110.495 51.804C110.495 53.22 109.655 54.132 108.299 54.132C106.763 54.132 106.115 52.992 106.115 51.3C106.115 48.036 108.035 46.692 110.123 46.524L110.243 47.316C108.803 47.472 107.363 48.252 107.087 50.256L107.099 50.268C107.099 50.268 107.711 49.74 108.539 49.74C109.799 49.74 110.495 50.544 110.495 51.804ZM109.547 51.996C109.547 50.976 109.151 50.544 108.275 50.544C107.591 50.544 107.087 51.024 107.087 51.024V51.252C107.087 52.596 107.435 53.34 108.383 53.34C109.175 53.34 109.547 52.776 109.547 51.996Z" fill="#00157E"/>
<path d="M119.345 48.528C119.345 49.608 118.517 50.436 117.437 50.436C116.357 50.436 115.529 49.608 115.529 48.528C115.529 47.448 116.357 46.644 117.437 46.644C118.517 46.644 119.345 47.448 119.345 48.528ZM124.673 52.236C124.673 53.316 123.845 54.132 122.765 54.132C121.685 54.132 120.857 53.316 120.857 52.236C120.857 51.168 121.685 50.352 122.765 50.352C123.845 50.352 124.673 51.168 124.673 52.236ZM122.465 46.944L118.493 54.24L117.761 53.844L121.733 46.548L122.465 46.944ZM123.797 52.236C123.797 51.624 123.377 51.204 122.765 51.204C122.153 51.204 121.733 51.624 121.733 52.236C121.733 52.836 122.153 53.292 122.765 53.292C123.377 53.292 123.797 52.836 123.797 52.236ZM118.457 48.528C118.457 47.916 118.049 47.496 117.437 47.496C116.825 47.496 116.405 47.916 116.405 48.528C116.405 49.14 116.825 49.584 117.437 49.584C118.049 49.584 118.457 49.14 118.457 48.528Z" fill="#00157E" fill-opacity="0.7"/>
<path d="M352.963 22.628C352.291 22.976 351.607 23.132 350.695 23.132C348.931 23.132 347.575 21.944 347.575 19.544C347.575 16.988 349.087 15.644 351.031 15.644C351.835 15.644 352.327 15.764 352.939 16.028L352.555 16.904C352.099 16.7 351.667 16.544 351.019 16.544C349.759 16.544 348.607 17.516 348.607 19.292C348.607 21.272 349.339 22.244 351.091 22.244C351.667 22.244 352.195 22.016 352.627 21.824L352.963 22.628ZM359.486 23H358.478V19.7H355.226V23H354.218V15.776H355.226V18.848H358.478V15.776H359.486V23ZM365.071 16.628H362.479V18.98H364.819V19.832H362.479V23H361.483V15.776H365.071V16.628Z" fill="#00157E" fill-opacity="0.7"/>
<path d="M377.998 24H376.22V18.33L374.988 18.498L374.778 17.238L377.998 16.72V24ZM381.728 16.594C381.728 18.022 381.154 18.82 380.118 19.562L379.614 19.016C380.104 18.596 380.426 18.148 380.538 17.532C380.02 17.476 379.6 17.014 379.6 16.482C379.6 15.908 380.076 15.432 380.65 15.432C381.252 15.432 381.728 15.88 381.728 16.594ZM389.01 20.43C389.01 22.39 388.156 24.168 386 24.168C383.844 24.168 382.99 22.39 382.99 20.43C382.99 18.47 383.844 16.692 386 16.692C388.156 16.692 389.01 18.47 389.01 20.43ZM387.218 20.43C387.218 19.086 386.84 18.274 386 18.274C385.174 18.274 384.782 19.086 384.782 20.43C384.782 21.774 385.174 22.586 386 22.586C386.84 22.586 387.218 21.774 387.218 20.43ZM396.256 20.43C396.256 22.39 395.402 24.168 393.246 24.168C391.09 24.168 390.236 22.39 390.236 20.43C390.236 18.47 391.09 16.692 393.246 16.692C395.402 16.692 396.256 18.47 396.256 20.43ZM394.464 20.43C394.464 19.086 394.086 18.274 393.246 18.274C392.42 18.274 392.028 19.086 392.028 20.43C392.028 21.774 392.42 22.586 393.246 22.586C394.086 22.586 394.464 21.774 394.464 20.43ZM402.704 21.732C402.704 23.076 401.71 24.168 400.1 24.168C398.392 24.168 397.454 23.384 397.454 21.942C397.454 20.878 398.182 20.164 398.798 19.702C398.168 19.212 397.636 18.638 397.636 17.63C397.636 16.272 398.784 15.404 400.044 15.404C401.402 15.404 402.438 16.146 402.438 17.448C402.438 18.372 401.85 19.002 401.29 19.45C402.004 19.94 402.704 20.598 402.704 21.732ZM401.136 21.802C401.136 21.116 400.52 20.696 399.932 20.332C399.442 20.696 399.036 21.088 399.036 21.76C399.036 22.432 399.484 22.782 400.128 22.782C400.772 22.782 401.136 22.334 401.136 21.802ZM400.954 17.616C400.954 17.07 400.618 16.734 400.058 16.734C399.526 16.734 399.204 17.098 399.204 17.63C399.204 18.148 399.652 18.484 400.156 18.82C400.576 18.512 400.954 18.134 400.954 17.616ZM406.078 23.048C406.078 23.636 405.602 24.112 405.014 24.112C404.426 24.112 403.95 23.636 403.95 23.048C403.95 22.474 404.426 21.998 405.014 21.998C405.602 21.998 406.078 22.474 406.078 23.048ZM412.268 22.558C412.268 25.064 410.126 26.044 407.62 26.338L407.354 24.826C408.53 24.644 410.448 24.238 410.448 22.74C410.448 21.802 409.762 21.34 408.18 21.34H407.354L407.62 16.86H412.016V18.456H409.09L408.992 20.108C408.992 20.108 409.258 20.094 409.538 20.094C411.246 20.094 412.268 20.934 412.268 22.558ZM419.389 20.43C419.389 22.39 418.535 24.168 416.379 24.168C414.223 24.168 413.369 22.39 413.369 20.43C413.369 18.47 414.223 16.692 416.379 16.692C418.535 16.692 419.389 18.47 419.389 20.43ZM417.597 20.43C417.597 19.086 417.219 18.274 416.379 18.274C415.553 18.274 415.161 19.086 415.161 20.43C415.161 21.774 415.553 22.586 416.379 22.586C417.219 22.586 417.597 21.774 417.597 20.43Z" fill="#00157E"/>
<path d="M392.375 35.916C392.375 37.74 391.583 39.06 389.711 39.06C389.399 39.06 389.147 39.036 388.919 38.976V41.376L387.959 41.532V34.68L387.791 33.444L388.739 33.288L388.823 33.864H388.835C389.207 33.552 389.699 33.252 390.347 33.252C391.715 33.252 392.375 34.284 392.375 35.916ZM391.415 36.192C391.415 34.968 391.139 34.116 390.023 34.116C389.543 34.116 389.195 34.32 388.919 34.548V38.088C389.147 38.184 389.411 38.244 389.783 38.244C390.827 38.244 391.415 37.428 391.415 36.192ZM397.524 33.492L397.224 34.356C396.912 34.236 396.564 34.128 396.168 34.128C395.112 34.128 394.476 34.92 394.476 36.108C394.476 37.608 395.064 38.292 396.144 38.292C396.528 38.292 396.84 38.16 397.152 38.028L397.476 38.808C397.008 39.024 396.492 39.132 395.952 39.132C394.344 39.132 393.516 37.98 393.516 36.264C393.516 34.2 394.788 33.252 396.216 33.252C396.708 33.252 397.128 33.336 397.524 33.492ZM402.098 37.368C402.098 38.388 401.294 39.12 400.094 39.12C399.518 39.12 398.942 39.036 398.486 38.82L398.774 37.98C399.17 38.16 399.614 38.304 400.046 38.304C400.694 38.304 401.126 38.052 401.126 37.524C401.126 37.116 400.91 36.948 400.538 36.78L399.494 36.3C399.122 36.132 398.45 35.796 398.45 34.824C398.45 33.756 399.386 33.252 400.406 33.252C401.018 33.252 401.45 33.348 401.93 33.552L401.606 34.38C401.222 34.212 400.85 34.092 400.394 34.092C399.782 34.092 399.386 34.284 399.386 34.764C399.386 35.184 399.746 35.352 399.974 35.46L401.042 35.964C401.786 36.312 402.098 36.756 402.098 37.368ZM404.719 38.388C404.719 38.772 404.407 39.084 404.035 39.084C403.651 39.084 403.339 38.772 403.339 38.388C403.339 38.016 403.651 37.704 404.035 37.704C404.407 37.704 404.719 38.016 404.719 38.388Z" fill="#00157E" fill-opacity="0.7"/>
<path d="M412.495 39H411.547V33.696L410.491 33.84L410.383 33.108L412.495 32.772V39ZM418.988 35.94C418.988 37.536 418.364 39.132 416.552 39.132C414.728 39.132 414.104 37.536 414.104 35.94C414.104 34.344 414.728 32.748 416.552 32.748C418.364 32.748 418.988 34.344 418.988 35.94ZM418.004 35.94C418.004 34.596 417.56 33.588 416.552 33.588C415.532 33.588 415.088 34.596 415.088 35.94C415.088 37.284 415.532 38.292 416.552 38.292C417.56 38.292 418.004 37.284 418.004 35.94Z" fill="#00157E"/>
<path d="M357.963 53.628C357.291 53.976 356.607 54.132 355.695 54.132C353.931 54.132 352.575 52.944 352.575 50.544C352.575 47.988 354.087 46.644 356.031 46.644C356.835 46.644 357.327 46.764 357.939 47.028L357.555 47.904C357.099 47.7 356.667 47.544 356.019 47.544C354.759 47.544 353.607 48.516 353.607 50.292C353.607 52.272 354.339 53.244 356.091 53.244C356.667 53.244 357.195 53.016 357.627 52.824L357.963 53.628ZM364.486 54H363.478V50.7H360.226V54H359.218V46.776H360.226V49.848H363.478V46.776H364.486V54ZM370.071 47.628H367.479V49.98H369.819V50.832H367.479V54H366.483V46.776H370.071V47.628Z" fill="#00157E" fill-opacity="0.7"/>
<path d="M377.495 54H376.547V48.696L375.491 48.84L375.383 48.108L377.495 47.772V54ZM383.988 50.94C383.988 52.536 383.364 54.132 381.552 54.132C379.728 54.132 379.104 52.536 379.104 50.94C379.104 49.344 379.728 47.748 381.552 47.748C383.364 47.748 383.988 49.344 383.988 50.94ZM383.004 50.94C383.004 49.596 382.56 48.588 381.552 48.588C380.532 48.588 380.088 49.596 380.088 50.94C380.088 52.284 380.532 53.292 381.552 53.292C382.56 53.292 383.004 52.284 383.004 50.94ZM386.696 47.46C386.696 48.336 386.336 49.008 385.604 49.44L385.328 49.08C385.688 48.816 385.88 48.48 385.94 48.048C385.604 48 385.316 47.712 385.316 47.364C385.316 46.968 385.628 46.668 386.012 46.668C386.396 46.668 386.696 46.98 386.696 47.46ZM392.21 52.248C392.21 53.4 391.334 54.132 390.098 54.132C388.838 54.132 387.986 53.496 387.986 52.32C387.986 51.264 388.766 50.628 389.366 50.22C388.646 49.716 388.166 49.284 388.166 48.384C388.166 47.364 389.006 46.644 390.086 46.644C391.25 46.644 392.006 47.292 392.006 48.3C392.006 49.164 391.406 49.716 390.818 50.124C391.586 50.64 392.21 51.156 392.21 52.248ZM391.286 52.248C391.286 51.468 390.746 51.072 390.026 50.604C389.39 51.036 388.898 51.408 388.898 52.2C388.898 52.92 389.378 53.328 390.11 53.328C390.89 53.328 391.286 52.848 391.286 52.248ZM391.154 48.408C391.154 47.796 390.746 47.4 390.098 47.4C389.45 47.4 389.03 47.82 389.03 48.42C389.03 48.984 389.498 49.308 390.146 49.752C390.662 49.416 391.154 48.984 391.154 48.408ZM398.355 50.94C398.355 52.536 397.731 54.132 395.919 54.132C394.095 54.132 393.471 52.536 393.471 50.94C393.471 49.344 394.095 47.748 395.919 47.748C397.731 47.748 398.355 49.344 398.355 50.94ZM397.371 50.94C397.371 49.596 396.927 48.588 395.919 48.588C394.899 48.588 394.455 49.596 394.455 50.94C394.455 52.284 394.899 53.292 395.919 53.292C396.927 53.292 397.371 52.284 397.371 50.94ZM403.535 52.92C403.535 55.224 401.363 55.872 399.815 55.992L399.695 55.176C400.787 55.056 402.551 54.624 402.551 53.052C402.551 52.068 401.999 51.492 400.463 51.492H399.659L399.923 47.88H403.343V48.756H400.751L400.595 50.772C400.595 50.772 400.871 50.748 401.123 50.748C402.515 50.748 403.535 51.48 403.535 52.92ZM406.137 53.388C406.137 53.772 405.825 54.084 405.453 54.084C405.069 54.084 404.757 53.772 404.757 53.388C404.757 53.016 405.069 52.704 405.453 52.704C405.825 52.704 406.137 53.016 406.137 53.388ZM412.347 50.94C412.347 52.536 411.723 54.132 409.911 54.132C408.087 54.132 407.463 52.536 407.463 50.94C407.463 49.344 408.087 47.748 409.911 47.748C411.723 47.748 412.347 49.344 412.347 50.94ZM411.363 50.94C411.363 49.596 410.919 48.588 409.911 48.588C408.891 48.588 408.447 49.596 408.447 50.94C408.447 52.284 408.891 53.292 409.911 53.292C410.919 53.292 411.363 52.284 411.363 50.94ZM418.523 50.94C418.523 52.536 417.899 54.132 416.087 54.132C414.263 54.132 413.639 52.536 413.639 50.94C413.639 49.344 414.263 47.748 416.087 47.748C417.899 47.748 418.523 49.344 418.523 50.94ZM417.539 50.94C417.539 49.596 417.095 48.588 416.087 48.588C415.067 48.588 414.623 49.596 414.623 50.94C414.623 52.284 415.067 53.292 416.087 53.292C417.095 53.292 417.539 52.284 417.539 50.94Z" fill="#00157E"/>
</svg>
