<svg width="375" height="812" viewBox="0 0 375 812" fill="none" xmlns="http://www.w3.org/2000/svg">
<g clip-path="url(#clip0_982_39009)">
<rect width="375" height="812" fill="white"/>
<path d="M343.99 22.17H357.993C359.556 22.17 360.823 23.4372 360.823 25.0001V29.673C360.823 31.2359 359.556 32.5031 357.993 32.5031H343.99C342.427 32.5031 341.16 31.2359 341.16 29.673V25.0001C341.16 23.4372 342.427 22.17 343.99 22.17Z" stroke="#00157E"/>
<path d="M362.33 25.3367V29.3367C363.135 28.9979 363.658 28.2098 363.658 27.3367C363.658 26.4635 363.135 25.6754 362.33 25.3367" fill="#00157E"/>
<rect x="342.66" y="23.67" width="16.66" height="7.33333" rx="1.33333" fill="#00157E"/>
<path d="M325.427 30.0606C326.702 28.9817 328.571 28.9817 329.847 30.0606C329.911 30.1186 329.947 30.2008 329.949 30.2872C329.951 30.3736 329.917 30.4571 329.855 30.5176L327.858 32.5333C327.8 32.5925 327.72 32.626 327.637 32.626C327.553 32.626 327.474 32.5924 327.415 32.5333L325.417 30.5176C325.355 30.457 325.321 30.3735 325.323 30.2872C325.325 30.2007 325.363 30.1186 325.427 30.0606ZM322.762 27.3711C325.51 24.8151 329.766 24.8152 332.514 27.3711C332.576 27.431 332.611 27.5135 332.612 27.5997C332.613 27.6858 332.579 27.769 332.519 27.8301L331.364 28.9971C331.245 29.1162 331.053 29.1189 330.931 29.003C330.028 28.1858 328.854 27.7334 327.637 27.7335C326.42 27.734 325.247 28.1863 324.345 29.003C324.223 29.1188 324.03 29.1162 323.911 28.9971L322.757 27.8301C322.696 27.7691 322.662 27.6858 322.663 27.5997C322.664 27.5135 322.7 27.431 322.762 27.3711ZM320.097 24.6895C324.312 20.6503 330.962 20.6501 335.177 24.6895C335.238 24.7494 335.272 24.8316 335.272 24.917C335.273 25.0026 335.239 25.0848 335.179 25.1456L334.022 26.3126C333.903 26.432 333.711 26.4333 333.59 26.3155C331.984 24.7888 329.853 23.9377 327.637 23.9376C325.421 23.9375 323.289 24.7886 321.683 26.3155C321.562 26.4335 321.369 26.4323 321.25 26.3126L320.094 25.1456C320.033 25.0848 319.999 25.0026 320 24.917C320.001 24.8315 320.036 24.7494 320.097 24.6895Z" fill="#00157E"/>
<path d="M299.66 28.667C300.212 28.667 300.66 29.1147 300.66 29.667V31.667C300.66 32.2191 300.212 32.667 299.66 32.667H298.66C298.108 32.667 297.66 32.2191 297.66 31.667V29.667C297.66 29.1147 298.108 28.667 298.66 28.667H299.66ZM304.327 26.667C304.879 26.6672 305.327 27.1148 305.327 27.667V31.667C305.327 32.219 304.879 32.6668 304.327 32.667H303.327C302.775 32.667 302.327 32.2191 302.327 31.667V27.667C302.327 27.1147 302.775 26.667 303.327 26.667H304.327ZM308.993 24.333C309.545 24.333 309.993 24.7809 309.993 25.333V31.667C309.993 32.2191 309.545 32.667 308.993 32.667H307.993C307.441 32.6668 306.993 32.219 306.993 31.667V25.333C306.993 24.781 307.441 24.3332 307.993 24.333H308.993ZM313.66 22C314.212 22 314.66 22.4477 314.66 23V31.667C314.66 32.2191 314.212 32.667 313.66 32.667H312.66C312.108 32.667 311.66 32.2191 311.66 31.667V23C311.66 22.4477 312.108 22 312.66 22H313.66Z" fill="#00157E"/>
<path d="M32.1846 21.9175C34.4405 21.9175 36.4034 23.5215 36.4034 27.3301V27.3447C36.4034 30.9043 34.7994 33.0137 32.1407 33.0137C30.1998 33.0137 28.7496 31.8638 28.4127 30.2451L28.398 30.1646H30.2584L30.2804 30.2378C30.5587 30.9775 31.2105 31.4609 32.1407 31.4609C33.8179 31.4609 34.5284 29.8203 34.609 27.7988C34.609 27.7183 34.6163 27.6377 34.6163 27.5571H34.4698C34.0816 28.3921 33.1588 29.1318 31.7086 29.1318C29.6798 29.1318 28.2589 27.6523 28.2589 25.6455V25.6309C28.2589 23.4849 29.8922 21.9175 32.1846 21.9175ZM32.1773 27.6816C33.3712 27.6816 34.2867 26.8174 34.2867 25.6235V25.6089C34.2867 24.4004 33.3712 23.4556 32.1993 23.4556C31.0347 23.4556 30.1046 24.3857 30.1046 25.5649V25.5796C30.1046 26.8027 30.9762 27.6816 32.1773 27.6816ZM39.4486 25.9019C38.7821 25.9019 38.284 25.3892 38.284 24.7446C38.284 24.0928 38.7821 23.5874 39.4486 23.5874C40.1224 23.5874 40.6131 24.0928 40.6131 24.7446C40.6131 25.3892 40.1224 25.9019 39.4486 25.9019ZM39.4486 31.3364C38.7821 31.3364 38.284 30.8311 38.284 30.1792C38.284 29.5273 38.7821 29.022 39.4486 29.022C40.1224 29.022 40.6131 29.5273 40.6131 30.1792C40.6131 30.8311 40.1224 31.3364 39.4486 31.3364ZM47.6207 32.75V30.7212H42.4498V29.1758C43.8195 26.7954 45.3209 24.3638 46.7565 22.1812H49.4298V29.1611H50.8507V30.7212H49.4298V32.75H47.6207ZM44.2077 29.2051H47.65V23.6899H47.5402C46.4562 25.3452 45.233 27.3008 44.2077 29.0952V29.2051ZM54.9506 32.75V24.0415H54.8261L52.1967 25.9019V24.1221L54.9579 22.1812H56.8403V32.75H54.9506Z" fill="#00157E"/>
<path d="M35 77.9292H21" stroke="#00157E" stroke-width="2" stroke-linecap="round" stroke-linejoin="round"/>
<path d="M28 84.9292L21 77.9292L28 70.9292" stroke="#00157E" stroke-width="2" stroke-linecap="round" stroke-linejoin="round"/>
<path d="M166.194 83.6121L163.614 84.2721L162.594 80.5921H159.234L158.314 83.9321H155.614L159.614 71.8921H162.354L166.194 83.6121ZM162.154 78.8521L160.954 74.4521H160.934L159.714 78.8521H162.154ZM181.011 83.9321H178.491V77.9321C178.491 76.9121 178.051 76.4521 177.151 76.4521C176.511 76.4521 175.891 76.7921 175.551 77.1521C175.551 77.1521 175.591 77.4721 175.591 77.7521V83.9321H173.051V77.9321C173.051 76.9121 172.631 76.4521 171.731 76.4521C171.071 76.4521 170.511 76.7521 170.151 77.1121V83.9321H167.611V76.9321L167.291 74.5921L169.731 74.2721L169.851 75.3121H169.871C170.431 74.7521 171.411 74.2321 172.651 74.2321C173.771 74.2321 174.631 74.6921 175.131 75.4721H175.151C175.851 74.7521 176.851 74.2321 178.091 74.2321C179.751 74.2321 181.011 75.1721 181.011 77.3121V83.9321ZM191.469 79.1721C191.469 82.0121 189.989 84.1521 187.209 84.1521C184.209 84.1521 182.949 82.0321 182.949 79.1721C182.949 76.3321 184.429 74.2521 187.209 74.2521C190.209 74.2521 191.469 76.3121 191.469 79.1721ZM188.949 79.1921C188.949 77.2521 188.309 76.4721 187.209 76.4721C186.109 76.4721 185.469 77.2121 185.469 79.1521C185.469 81.0721 186.109 81.9321 187.209 81.9321C188.309 81.9321 188.949 81.1121 188.949 79.1921ZM201.751 83.7921L199.311 84.1121L199.171 83.0921H199.151C198.591 83.6321 197.651 84.1721 196.391 84.1721C194.771 84.1721 193.451 83.2121 193.451 81.0921V76.9321L193.131 74.5921L195.991 74.2721V80.4721C195.991 81.4921 196.411 81.9521 197.291 81.9521C197.951 81.9521 198.511 81.6521 198.891 81.2721V76.9321L198.571 74.5921L201.431 74.2721V81.4521L201.751 83.7921ZM211.958 83.9321H209.418V77.9321C209.418 76.9121 208.998 76.4521 208.098 76.4521C207.438 76.4521 206.878 76.7721 206.518 77.1321V83.9321H203.978V76.9321L203.658 74.5921L206.098 74.2721L206.218 75.3121H206.238C206.798 74.7521 207.738 74.2321 208.998 74.2321C210.638 74.2321 211.958 75.1721 211.958 77.3121V83.9321ZM220.307 83.4721C219.487 83.9121 218.867 84.1521 217.607 84.1521C215.727 84.1521 214.807 82.8921 214.807 81.0121V76.4721H213.347V74.7921L214.807 74.4521V72.8121L217.327 72.5121V74.4721H219.927V76.4721H217.327V80.3321C217.327 81.5921 217.647 81.9121 218.467 81.9121C218.927 81.9121 219.187 81.7921 219.627 81.5921L220.307 83.4721Z" fill="#00157E"/>
<path d="M353 71.9292L341 83.9292" stroke="#00157E" stroke-width="2" stroke-linecap="round" stroke-linejoin="round"/>
<path d="M341 71.9292L353 83.9292" stroke="#00157E" stroke-width="2" stroke-linecap="round" stroke-linejoin="round"/>
<g clip-path="url(#clip1_982_39009)">
<path d="M21.559 134H17.163V125.572H18.339V133.006H21.559V134ZM27.2432 133.93L26.1232 134.112L26.0252 133.342H26.0112C25.5352 133.79 25.0172 134.168 24.2332 134.168C23.1412 134.168 22.4972 133.51 22.4972 132.474C22.4972 131.298 23.4212 130.724 24.7512 130.584L25.9272 130.458V129.87C25.9272 128.96 25.6472 128.316 24.5692 128.316C24.0232 128.316 23.6172 128.484 23.2112 128.694L22.8052 127.868C23.3932 127.518 23.9952 127.294 24.8352 127.294C26.1512 127.294 27.0332 128.064 27.0332 129.366V132.488L27.2432 133.93ZM25.9272 132.642V131.214L24.9052 131.354C24.0652 131.466 23.6032 131.732 23.6032 132.334C23.6032 132.88 23.9392 133.244 24.4992 133.244C25.1572 133.244 25.5632 132.964 25.9272 132.642ZM34.4689 130.332C34.4689 132.516 33.3349 134.14 31.2629 134.14C30.5349 134.14 29.7369 134.014 29.2609 133.832V126.062L29.0649 124.62L30.3809 124.438V127.952H30.3949C30.8149 127.602 31.3749 127.294 32.1169 127.294C33.6569 127.294 34.4689 128.4 34.4689 130.332ZM33.3349 130.738C33.3349 129.296 32.9989 128.316 31.7249 128.316C31.1369 128.316 30.7169 128.554 30.3809 128.848V133.062C30.6609 133.132 30.9409 133.174 31.3609 133.174C32.6629 133.174 33.3349 132.068 33.3349 130.738ZM40.8116 133.65C40.1816 134 39.5376 134.154 38.7396 134.154C36.8076 134.154 35.8136 132.852 35.8136 130.682C35.8136 128.652 36.8776 127.294 38.5296 127.294C40.1116 127.294 40.7556 128.344 40.7556 129.786V130.57H36.9056C36.9196 132.32 37.5496 133.16 38.9776 133.16C39.5236 133.16 39.9436 133.006 40.4196 132.768L40.8116 133.65ZM39.7056 129.786C39.7056 128.806 39.3416 128.19 38.4736 128.19C37.6336 128.19 37.1016 128.848 36.9616 129.786H39.7056ZM43.5743 134H42.4543V126.062L42.2583 124.62L43.5743 124.438V134Z" fill="#00157E" fill-opacity="0.7"/>
<mask id="path-15-inside-1_982_39009" fill="white">
<path d="M16 146H359V186H16V146Z"/>
</mask>
<path d="M359 186V185H16V186V187H359V186Z" fill="#00157E" fill-opacity="0.2" mask="url(#path-15-inside-1_982_39009)"/>
<path d="M24.8217 171H23.4777V166.6H19.1417V171H17.7977V161.368H19.1417V165.464H23.4777V161.368H24.8217V171ZM32.3492 170.92L31.0692 171.128L30.9572 170.248H30.9412C30.3972 170.76 29.8052 171.192 28.9092 171.192C27.6612 171.192 26.9252 170.44 26.9252 169.256C26.9252 167.912 27.9812 167.256 29.5012 167.096L30.8452 166.952V166.28C30.8452 165.24 30.5252 164.504 29.2932 164.504C28.6692 164.504 28.2052 164.696 27.7412 164.936L27.2772 163.992C27.9492 163.592 28.6372 163.336 29.5972 163.336C31.1012 163.336 32.1092 164.216 32.1092 165.704V169.272L32.3492 170.92ZM30.8452 169.448V167.816L29.6772 167.976C28.7172 168.104 28.1892 168.408 28.1892 169.096C28.1892 169.72 28.5732 170.136 29.2132 170.136C29.9652 170.136 30.4292 169.816 30.8452 169.448ZM40.3672 171H39.0872V166.136C39.0872 165.032 38.6712 164.472 37.6632 164.472C36.9432 164.472 36.4312 164.776 35.9672 165.192V171H34.6872V165.24L34.4632 163.592L35.7272 163.384L35.8552 164.264H35.8712C36.4312 163.72 37.1672 163.336 38.0952 163.336C39.3592 163.336 40.3672 164.152 40.3672 165.688V171ZM47.2264 168.824C47.2264 170.184 46.1544 171.16 44.5544 171.16C43.7864 171.16 43.0184 171.048 42.4104 170.76L42.7944 169.64C43.3224 169.88 43.9144 170.072 44.4904 170.072C45.3544 170.072 45.9304 169.736 45.9304 169.032C45.9304 168.488 45.6424 168.264 45.1464 168.04L43.7544 167.4C43.2584 167.176 42.3624 166.728 42.3624 165.432C42.3624 164.008 43.6104 163.336 44.9704 163.336C45.7864 163.336 46.3624 163.464 47.0024 163.736L46.5704 164.84C46.0584 164.616 45.5624 164.456 44.9544 164.456C44.1384 164.456 43.6104 164.712 43.6104 165.352C43.6104 165.912 44.0904 166.136 44.3944 166.28L45.8184 166.952C46.8104 167.416 47.2264 168.008 47.2264 168.824ZM62.4811 170.968L61.2011 171.064L60.9291 163.608H60.9131L58.0811 171H56.6891L54.0171 163.624H54.0011L53.6171 171H52.4491L53.0731 161.368H54.4811L57.5051 169.4H57.5211L60.5771 161.368H61.9691L62.4811 170.968ZM70.0591 170.6C69.3391 171 68.6031 171.176 67.6911 171.176C65.4831 171.176 64.3471 169.688 64.3471 167.208C64.3471 164.888 65.5631 163.336 67.4511 163.336C69.2591 163.336 69.9951 164.536 69.9951 166.184V167.08H65.5951C65.6111 169.08 66.3311 170.04 67.9631 170.04C68.5871 170.04 69.0671 169.864 69.6111 169.592L70.0591 170.6ZM68.7951 166.184C68.7951 165.064 68.3791 164.36 67.3871 164.36C66.4271 164.36 65.8191 165.112 65.6591 166.184H68.7951ZM77.3925 163.512L74.8965 170.312C74.0965 172.52 73.0245 173.848 70.4165 174.376L70.1765 173.336C72.0805 172.952 73.0885 171.8 73.5845 170.552L70.8965 163.624L72.1605 163.288L74.2245 168.856H74.2405L76.1285 163.512H77.3925ZM83.981 170.6C83.261 171 82.525 171.176 81.613 171.176C79.405 171.176 78.269 169.688 78.269 167.208C78.269 164.888 79.485 163.336 81.373 163.336C83.181 163.336 83.917 164.536 83.917 166.184V167.08H79.517C79.533 169.08 80.253 170.04 81.885 170.04C82.509 170.04 82.989 169.864 83.533 169.592L83.981 170.6ZM82.717 166.184C82.717 165.064 82.301 164.36 81.309 164.36C80.349 164.36 79.741 165.112 79.581 166.184H82.717ZM89.2504 164.616C88.3864 164.616 87.7464 164.84 87.1704 165.368V171H85.8904V165.24L85.6664 163.592L86.9304 163.384L87.0584 164.408H87.0744C87.5864 163.832 88.2584 163.352 89.2504 163.352V164.616Z" fill="#00157E"/>
<path d="M346.999 157L351.999 162L338.999 175H333.999V170L346.999 157Z" stroke="#00157E" stroke-width="2" stroke-linecap="round" stroke-linejoin="round"/>
<g clip-path="url(#clip2_982_39009)">
<path d="M23.155 253.86L22.007 254.182L21.111 251.27H18.367L17.513 254H16.281L19.207 245.572H20.411L23.155 253.86ZM20.859 250.43L19.767 246.79H19.753L18.619 250.43H20.859ZM33.3371 254H32.2311V249.744C32.2311 248.778 31.8671 248.288 30.9711 248.288C30.3411 248.288 29.8091 248.596 29.4591 248.946C29.4591 248.946 29.5011 249.184 29.5011 249.436V254H28.3811V249.744C28.3811 248.778 28.0171 248.288 27.1351 248.288C26.5051 248.288 26.0571 248.54 25.6511 248.918V254H24.5311V248.96L24.3351 247.518L25.4411 247.336L25.5531 248.106H25.5671C26.0571 247.63 26.7011 247.294 27.5131 247.294C28.2691 247.294 28.8991 247.63 29.2351 248.232H29.2491C29.7671 247.714 30.4391 247.294 31.3631 247.294C32.4831 247.294 33.3371 248.008 33.3371 249.352V254ZM40.7163 250.724C40.7163 252.642 39.8063 254.154 37.9163 254.154C35.8443 254.154 35.1163 252.684 35.1163 250.724C35.1163 248.806 36.0263 247.294 37.9163 247.294C39.9883 247.294 40.7163 248.764 40.7163 250.724ZM39.5683 250.752C39.5683 249.128 39.0223 248.274 37.9163 248.274C36.8383 248.274 36.2643 249.03 36.2643 250.682C36.2643 252.306 36.8103 253.174 37.9163 253.174C38.9943 253.174 39.5683 252.404 39.5683 250.752ZM47.662 253.93L46.556 254.112L46.444 253.356H46.43C45.94 253.818 45.296 254.154 44.484 254.154C43.378 254.154 42.496 253.44 42.496 252.096V248.96L42.3 247.518L43.616 247.336V251.704C43.616 252.67 43.98 253.174 44.862 253.174C45.492 253.174 45.94 252.908 46.346 252.53V248.96L46.15 247.518L47.466 247.336V252.488L47.662 253.93ZM54.6711 254H53.5511V249.744C53.5511 248.778 53.1871 248.288 52.3051 248.288C51.6751 248.288 51.2271 248.554 50.8211 248.918V254H49.7011V248.96L49.5051 247.518L50.6111 247.336L50.7231 248.106H50.7371C51.2271 247.63 51.8711 247.294 52.6831 247.294C53.7891 247.294 54.6711 248.008 54.6711 249.352V254ZM60.1548 253.734C59.7488 253.958 59.3708 254.14 58.6568 254.14C57.6488 254.14 57.0048 253.482 57.0048 252.362V248.358H56.0388V247.616L57.0048 247.42V246.328L58.1108 246.188V247.448H59.9448V248.358H58.1108V251.984C58.1108 252.866 58.3348 253.146 58.9788 253.146C59.3288 253.146 59.5948 253.006 59.7908 252.88L60.1548 253.734Z" fill="#00157E" fill-opacity="0.7"/>
</g>
<path d="M16 270C16 267.791 17.7909 266 20 266H355C357.209 266 359 267.791 359 270V302C359 304.209 357.209 306 355 306H20C17.7909 306 16 304.209 16 302V270Z" fill="white"/>
<path d="M20 266.5H355C356.933 266.5 358.5 268.067 358.5 270V302C358.5 303.933 356.933 305.5 355 305.5H20C18.067 305.5 16.5 303.933 16.5 302V270C16.5 268.067 18.067 266.5 20 266.5Z" stroke="#00157E" stroke-opacity="0.7"/>
<path d="M36.2411 290.504C35.3451 290.968 34.4331 291.176 33.2171 291.176C30.8651 291.176 29.0571 289.592 29.0571 286.392C29.0571 282.984 31.0731 281.192 33.6651 281.192C34.7371 281.192 35.3931 281.352 36.2091 281.704L35.6971 282.872C35.0891 282.6 34.5131 282.392 33.6491 282.392C31.9691 282.392 30.4331 283.688 30.4331 286.056C30.4331 288.696 31.4091 289.992 33.7451 289.992C34.5131 289.992 35.2171 289.688 35.7931 289.432L36.2411 290.504ZM44.9379 291H43.5939V286.6H39.2579V291H37.9139V281.368H39.2579V285.464H43.5939V281.368H44.9379V291ZM52.3854 282.504H48.9294V285.64H52.0494V286.776H48.9294V291H47.6014V281.368H52.3854V282.504Z" fill="#00157E"/>
<path d="M67 283L73 289L79 283" stroke="#00157E" stroke-width="2" stroke-linecap="round" stroke-linejoin="round"/>
<path d="M300.361 290.2C300.361 294.04 296.741 295.12 294.161 295.32L293.961 293.96C295.781 293.76 298.721 293.04 298.721 290.42C298.721 288.78 297.801 287.82 295.241 287.82H293.901L294.341 281.8H300.041V283.26H295.721L295.461 286.62C295.461 286.62 295.921 286.58 296.341 286.58C298.661 286.58 300.361 287.8 300.361 290.2ZM310.478 286.9C310.478 289.56 309.438 292.22 306.418 292.22C303.378 292.22 302.338 289.56 302.338 286.9C302.338 284.24 303.378 281.58 306.418 281.58C309.438 281.58 310.478 284.24 310.478 286.9ZM308.838 286.9C308.838 284.66 308.098 282.98 306.418 282.98C304.718 282.98 303.978 284.66 303.978 286.9C303.978 289.14 304.718 290.82 306.418 290.82C308.098 290.82 308.838 289.14 308.838 286.9ZM320.771 286.9C320.771 289.56 319.731 292.22 316.711 292.22C313.671 292.22 312.631 289.56 312.631 286.9C312.631 284.24 313.671 281.58 316.711 281.58C319.731 281.58 320.771 284.24 320.771 286.9ZM319.131 286.9C319.131 284.66 318.391 282.98 316.711 282.98C315.011 282.98 314.271 284.66 314.271 286.9C314.271 289.14 315.011 290.82 316.711 290.82C318.391 290.82 319.131 289.14 319.131 286.9ZM325.284 290.98C325.284 291.62 324.764 292.14 324.144 292.14C323.504 292.14 322.984 291.62 322.984 290.98C322.984 290.36 323.504 289.84 324.144 289.84C324.764 289.84 325.284 290.36 325.284 290.98ZM335.634 286.9C335.634 289.56 334.594 292.22 331.574 292.22C328.534 292.22 327.494 289.56 327.494 286.9C327.494 284.24 328.534 281.58 331.574 281.58C334.594 281.58 335.634 284.24 335.634 286.9ZM333.994 286.9C333.994 284.66 333.254 282.98 331.574 282.98C329.874 282.98 329.134 284.66 329.134 286.9C329.134 289.14 329.874 290.82 331.574 290.82C333.254 290.82 333.994 289.14 333.994 286.9ZM345.927 286.9C345.927 289.56 344.887 292.22 341.867 292.22C338.827 292.22 337.787 289.56 337.787 286.9C337.787 284.24 338.827 281.58 341.867 281.58C344.887 281.58 345.927 284.24 345.927 286.9ZM344.287 286.9C344.287 284.66 343.547 282.98 341.867 282.98C340.167 282.98 339.427 284.66 339.427 286.9C339.427 289.14 340.167 290.82 341.867 290.82C343.547 290.82 344.287 289.14 344.287 286.9Z" fill="#00157E"/>
<path d="M23.771 353.254C23.771 356.334 21.923 358 18.927 358H17.163V349.628C17.163 349.628 18.325 349.488 19.571 349.488C22.175 349.488 23.771 350.846 23.771 353.254ZM22.553 353.422C22.553 351.434 21.209 350.482 19.375 350.482C18.787 350.482 18.339 350.51 18.339 350.51V356.95H19.151C21.153 356.95 22.553 355.76 22.553 353.422ZM30.1065 357.65C29.4765 358 28.8325 358.154 28.0345 358.154C26.1025 358.154 25.1085 356.852 25.1085 354.682C25.1085 352.652 26.1725 351.294 27.8245 351.294C29.4065 351.294 30.0505 352.344 30.0505 353.786V354.57H26.2005C26.2145 356.32 26.8445 357.16 28.2725 357.16C28.8185 357.16 29.2385 357.006 29.7145 356.768L30.1065 357.65ZM29.0005 353.786C29.0005 352.806 28.6365 352.19 27.7685 352.19C26.9285 352.19 26.3965 352.848 26.2565 353.786H29.0005ZM36.9572 354.332C36.9572 356.516 35.8232 358.14 33.7512 358.14C33.0232 358.14 32.2252 358.014 31.7492 357.832V350.062L31.5532 348.62L32.8692 348.438V351.952H32.8832C33.3032 351.602 33.8632 351.294 34.6052 351.294C36.1452 351.294 36.9572 352.4 36.9572 354.332ZM35.8232 354.738C35.8232 353.296 35.4872 352.316 34.2132 352.316C33.6252 352.316 33.2052 352.554 32.8692 352.848V357.062C33.1492 357.132 33.4292 357.174 33.8492 357.174C35.1512 357.174 35.8232 356.068 35.8232 354.738ZM39.8979 358H38.7779V352.96L38.5819 351.518L39.8979 351.336V358ZM40.1219 349.74C40.1219 350.188 39.7719 350.524 39.3519 350.524C38.9179 350.524 38.5539 350.188 38.5539 349.74C38.5539 349.292 38.9179 348.942 39.3519 348.942C39.7719 348.942 40.1219 349.292 40.1219 349.74ZM45.4165 357.734C45.0105 357.958 44.6325 358.14 43.9185 358.14C42.9105 358.14 42.2665 357.482 42.2665 356.362V352.358H41.3005V351.616L42.2665 351.42V350.328L43.3725 350.188V351.448H45.2065V352.358H43.3725V355.984C43.3725 356.866 43.5965 357.146 44.2405 357.146C44.5905 357.146 44.8565 357.006 45.0525 356.88L45.4165 357.734ZM54.1494 357.93L53.0294 358.112L52.9314 357.342H52.9174C52.4414 357.79 51.9234 358.168 51.1394 358.168C50.0474 358.168 49.4034 357.51 49.4034 356.474C49.4034 355.298 50.3274 354.724 51.6574 354.584L52.8334 354.458V353.87C52.8334 352.96 52.5534 352.316 51.4754 352.316C50.9294 352.316 50.5234 352.484 50.1174 352.694L49.7114 351.868C50.2994 351.518 50.9014 351.294 51.7414 351.294C53.0574 351.294 53.9394 352.064 53.9394 353.366V356.488L54.1494 357.93ZM52.8334 356.642V355.214L51.8114 355.354C50.9714 355.466 50.5094 355.732 50.5094 356.334C50.5094 356.88 50.8454 357.244 51.4054 357.244C52.0634 357.244 52.4694 356.964 52.8334 356.642ZM60.4232 351.574L60.0732 352.582C59.7092 352.442 59.3032 352.316 58.8412 352.316C57.6092 352.316 56.8672 353.24 56.8672 354.626C56.8672 356.376 57.5532 357.174 58.8132 357.174C59.2612 357.174 59.6252 357.02 59.9892 356.866L60.3672 357.776C59.8212 358.028 59.2192 358.154 58.5892 358.154C56.7132 358.154 55.7472 356.81 55.7472 354.808C55.7472 352.4 57.2312 351.294 58.8972 351.294C59.4712 351.294 59.9612 351.392 60.4232 351.574ZM65.9466 351.574L65.5966 352.582C65.2326 352.442 64.8266 352.316 64.3646 352.316C63.1326 352.316 62.3906 353.24 62.3906 354.626C62.3906 356.376 63.0766 357.174 64.3366 357.174C64.7846 357.174 65.1486 357.02 65.5126 356.866L65.8906 357.776C65.3446 358.028 64.7426 358.154 64.1126 358.154C62.2366 358.154 61.2706 356.81 61.2706 354.808C61.2706 352.4 62.7546 351.294 64.4206 351.294C64.9946 351.294 65.4846 351.392 65.9466 351.574ZM72.3941 354.724C72.3941 356.642 71.4841 358.154 69.5941 358.154C67.5221 358.154 66.7941 356.684 66.7941 354.724C66.7941 352.806 67.7041 351.294 69.5941 351.294C71.6661 351.294 72.3941 352.764 72.3941 354.724ZM71.2461 354.752C71.2461 353.128 70.7001 352.274 69.5941 352.274C68.5161 352.274 67.9421 353.03 67.9421 354.682C67.9421 356.306 68.4881 357.174 69.5941 357.174C70.6721 357.174 71.2461 356.404 71.2461 354.752ZM79.3397 357.93L78.2337 358.112L78.1217 357.356H78.1077C77.6177 357.818 76.9737 358.154 76.1617 358.154C75.0557 358.154 74.1737 357.44 74.1737 356.096V352.96L73.9777 351.518L75.2937 351.336V355.704C75.2937 356.67 75.6577 357.174 76.5397 357.174C77.1697 357.174 77.6177 356.908 78.0237 356.53V352.96L77.8277 351.518L79.1437 351.336V356.488L79.3397 357.93ZM86.3488 358H85.2288V353.744C85.2288 352.778 84.8648 352.288 83.9828 352.288C83.3528 352.288 82.9048 352.554 82.4988 352.918V358H81.3788V352.96L81.1828 351.518L82.2888 351.336L82.4008 352.106H82.4148C82.9048 351.63 83.5488 351.294 84.3608 351.294C85.4668 351.294 86.3488 352.008 86.3488 353.352V358ZM91.8325 357.734C91.4265 357.958 91.0485 358.14 90.3345 358.14C89.3265 358.14 88.6825 357.482 88.6825 356.362V352.358H87.7165V351.616L88.6825 351.42V350.328L89.7885 350.188V351.448H91.6225V352.358H89.7885V355.984C89.7885 356.866 90.0125 357.146 90.6565 357.146C91.0065 357.146 91.2725 357.006 91.4685 356.88L91.8325 357.734Z" fill="#00157E" fill-opacity="0.7"/>
<path d="M16 378C16 373.582 19.5817 370 24 370H351C355.418 370 359 373.582 359 378V430C359 434.418 355.418 438 351 438H24C19.5817 438 16 434.418 16 430V378Z" fill="white"/>
<path d="M24 370.5H351C355.142 370.5 358.5 373.858 358.5 378V430C358.5 434.142 355.142 437.5 351 437.5H24C19.8579 437.5 16.5 434.142 16.5 430V378C16.5 373.858 19.8579 370.5 24 370.5Z" stroke="#00157E" stroke-opacity="0.7"/>
<path d="M35 395L44 388L53 395V406C53 406.53 52.7893 407.039 52.4142 407.414C52.0391 407.789 51.5304 408 51 408H37C36.4696 408 35.9609 407.789 35.5858 407.414C35.2107 407.039 35 406.53 35 406V395Z" stroke="#00157E" stroke-width="2" stroke-linecap="round" stroke-linejoin="round"/>
<path d="M41 408V398H47V408" stroke="#00157E" stroke-width="2" stroke-linecap="round" stroke-linejoin="round"/>
<path d="M79.616 394H77.74V390.5H74.856V394H72.966V385.572H74.856V388.96H77.74V385.572H79.616V394ZM87.0399 390.668C87.0399 392.656 86.0039 394.154 84.0579 394.154C81.9579 394.154 81.0759 392.67 81.0759 390.668C81.0759 388.68 82.1119 387.224 84.0579 387.224C86.1579 387.224 87.0399 388.666 87.0399 390.668ZM85.2759 390.682C85.2759 389.324 84.8279 388.778 84.0579 388.778C83.2879 388.778 82.8399 389.296 82.8399 390.654C82.8399 391.998 83.2879 392.6 84.0579 392.6C84.8279 392.6 85.2759 392.026 85.2759 390.682ZM94.2373 393.902L92.5293 394.126L92.4313 393.412H92.4173C92.0253 393.79 91.3673 394.168 90.4853 394.168C89.3513 394.168 88.4273 393.496 88.4273 392.012V389.1L88.2033 387.462L90.2053 387.238V391.578C90.2053 392.292 90.4993 392.614 91.1153 392.614C91.5773 392.614 91.9693 392.404 92.2353 392.138V389.1L92.0113 387.462L94.0133 387.238V392.264L94.2373 393.902ZM100.01 391.872C100.01 393.146 98.9884 394.154 97.4484 394.154C96.6504 394.154 95.9364 394.028 95.3344 393.748L95.7964 392.292C96.3004 392.502 96.7904 392.712 97.3504 392.712C97.9524 392.712 98.2464 392.502 98.2464 392.152C98.2464 391.83 98.0924 391.704 97.7284 391.55L96.6924 391.116C96.0764 390.864 95.4044 390.402 95.4044 389.31C95.4044 387.938 96.5664 387.21 97.9524 387.21C98.7364 387.21 99.2684 387.336 99.8984 387.602L99.3524 389.03C98.9044 388.848 98.4704 388.666 97.9664 388.666C97.4204 388.666 97.1124 388.82 97.1124 389.184C97.1124 389.534 97.3924 389.66 97.6444 389.758L98.7224 390.192C99.5624 390.528 100.01 391.06 100.01 391.872ZM106.469 393.608C105.727 393.986 105.111 394.168 104.215 394.168C102.003 394.168 101.023 392.824 101.023 390.584C101.023 388.582 102.213 387.224 103.977 387.224C105.825 387.224 106.427 388.498 106.427 390.094V390.878H102.759C102.815 392.054 103.375 392.614 104.439 392.614C105.069 392.614 105.419 392.46 105.923 392.25L106.469 393.608ZM104.873 389.8C104.873 389.114 104.579 388.652 103.921 388.652C103.221 388.652 102.871 389.184 102.787 389.8H104.873ZM113.344 394H111.566V389.8C111.566 389.142 111.286 388.778 110.628 388.778C110.082 388.778 109.69 389.1 109.55 389.226V394H107.772V386.286L107.548 384.648L109.55 384.424V387.826H109.564C109.732 387.672 110.334 387.21 111.3 387.21C112.476 387.21 113.344 387.882 113.344 389.366V394ZM120.673 390.668C120.673 392.656 119.637 394.154 117.691 394.154C115.591 394.154 114.709 392.67 114.709 390.668C114.709 388.68 115.745 387.224 117.691 387.224C119.791 387.224 120.673 388.666 120.673 390.668ZM118.909 390.682C118.909 389.324 118.461 388.778 117.691 388.778C116.921 388.778 116.473 389.296 116.473 390.654C116.473 391.998 116.921 392.6 117.691 392.6C118.461 392.6 118.909 392.026 118.909 390.682ZM123.81 394H122.032V386.272L121.808 384.648L123.81 384.424V394ZM131.048 393.916L129.354 394.126L129.256 393.44H129.242C129.074 393.58 128.528 394.168 127.632 394.168C125.98 394.168 125.154 392.768 125.154 390.92C125.154 388.54 126.512 387.322 128.43 387.322C128.78 387.322 129.046 387.378 129.046 387.378V386.286L128.822 384.648L130.824 384.424V392.278L131.048 393.916ZM128.178 392.586C128.598 392.586 128.92 392.404 129.046 392.292V388.904C129.046 388.904 128.808 388.792 128.374 388.792C127.52 388.792 126.946 389.464 126.946 390.654C126.946 391.984 127.296 392.586 128.178 392.586Z" fill="#00157E"/>
<path d="M77.964 408.628C77.292 408.976 76.608 409.132 75.696 409.132C73.932 409.132 72.576 407.944 72.576 405.544C72.576 402.988 74.088 401.644 76.032 401.644C76.836 401.644 77.328 401.764 77.94 402.028L77.556 402.904C77.1 402.7 76.668 402.544 76.02 402.544C74.76 402.544 73.608 403.516 73.608 405.292C73.608 407.272 74.34 408.244 76.092 408.244C76.668 408.244 77.196 408.016 77.628 407.824L77.964 408.628ZM84.4867 409H83.4787V405.7H80.2267V409H79.2187V401.776H80.2267V404.848H83.4787V401.776H84.4867V409ZM89.9043 408.52C89.9043 409.96 88.9803 410.872 87.3963 410.872C86.9283 410.872 86.4363 410.788 85.9923 410.68L86.2083 409.78C86.6043 409.9 86.9403 409.996 87.4203 409.996C88.3683 409.996 88.9443 409.528 88.9443 408.664C88.9443 407.488 87.8643 407.032 86.3403 407.032V406.348C88.1163 406.24 88.6083 405.448 88.6083 404.668C88.6083 403.984 88.1883 403.6 87.5163 403.6C86.9643 403.6 86.6403 403.78 86.2803 404.02L85.8843 403.36C86.3163 403.024 86.8683 402.748 87.7083 402.748C88.8603 402.748 89.5683 403.432 89.5683 404.548C89.5683 405.52 89.0043 406.168 88.2003 406.552V406.564C89.3763 406.816 89.9043 407.596 89.9043 408.52ZM94.9696 407.92C94.9696 410.224 92.7976 410.872 91.2496 410.992L91.1296 410.176C92.2216 410.056 93.9856 409.624 93.9856 408.052C93.9856 407.068 93.4336 406.492 91.8976 406.492H91.0936L91.3576 402.88H94.7776V403.756H92.1856L92.0296 405.772C92.0296 405.772 92.3056 405.748 92.5576 405.748C93.9496 405.748 94.9696 406.48 94.9696 407.92ZM103.559 405.94C103.559 407.536 102.935 409.132 101.123 409.132C99.2993 409.132 98.6753 407.536 98.6753 405.94C98.6753 404.344 99.2993 402.748 101.123 402.748C102.935 402.748 103.559 404.344 103.559 405.94ZM102.575 405.94C102.575 404.596 102.131 403.588 101.123 403.588C100.103 403.588 99.6593 404.596 99.6593 405.94C99.6593 407.284 100.103 408.292 101.123 408.292C102.131 408.292 102.575 407.284 102.575 405.94ZM109.123 405.844C109.123 409.156 107.443 410.704 105.055 410.992L104.863 410.212C106.375 410.032 107.899 409.06 108.115 406.768L108.103 406.756C108.103 406.756 107.539 407.236 106.687 407.236C105.487 407.236 104.707 406.336 104.707 405.1C104.707 403.6 105.607 402.748 106.963 402.748C108.355 402.748 109.123 403.708 109.123 405.844ZM108.127 405.832C108.127 404.644 107.911 403.564 106.843 403.564C106.087 403.564 105.643 404.188 105.643 404.968C105.643 405.964 106.099 406.444 106.951 406.444C107.683 406.444 108.127 406.012 108.127 406.012V405.832ZM115.348 405.94C115.348 407.536 114.724 409.132 112.912 409.132C111.088 409.132 110.464 407.536 110.464 405.94C110.464 404.344 111.088 402.748 112.912 402.748C114.724 402.748 115.348 404.344 115.348 405.94ZM114.364 405.94C114.364 404.596 113.92 403.588 112.912 403.588C111.892 403.588 111.448 404.596 111.448 405.94C111.448 407.284 111.892 408.292 112.912 408.292C113.92 408.292 114.364 407.284 114.364 405.94ZM121.524 405.94C121.524 407.536 120.9 409.132 119.088 409.132C117.264 409.132 116.64 407.536 116.64 405.94C116.64 404.344 117.264 402.748 119.088 402.748C120.9 402.748 121.524 404.344 121.524 405.94ZM120.54 405.94C120.54 404.596 120.096 403.588 119.088 403.588C118.068 403.588 117.624 404.596 117.624 405.94C117.624 407.284 118.068 408.292 119.088 408.292C120.096 408.292 120.54 407.284 120.54 405.94ZM130.22 405.94C130.22 407.536 129.596 409.132 127.784 409.132C125.96 409.132 125.336 407.536 125.336 405.94C125.336 404.344 125.96 402.748 127.784 402.748C129.596 402.748 130.22 404.344 130.22 405.94ZM129.236 405.94C129.236 404.596 128.792 403.588 127.784 403.588C126.764 403.588 126.32 404.596 126.32 405.94C126.32 407.284 126.764 408.292 127.784 408.292C128.792 408.292 129.236 407.284 129.236 405.94ZM136.395 405.94C136.395 407.536 135.771 409.132 133.959 409.132C132.135 409.132 131.511 407.536 131.511 405.94C131.511 404.344 132.135 402.748 133.959 402.748C135.771 402.748 136.395 404.344 136.395 405.94ZM135.411 405.94C135.411 404.596 134.967 403.588 133.959 403.588C132.939 403.588 132.495 404.596 132.495 405.94C132.495 407.284 132.939 408.292 133.959 408.292C134.967 408.292 135.411 407.284 135.411 405.94ZM142.571 405.94C142.571 407.536 141.947 409.132 140.135 409.132C138.311 409.132 137.687 407.536 137.687 405.94C137.687 404.344 138.311 402.748 140.135 402.748C141.947 402.748 142.571 404.344 142.571 405.94ZM141.587 405.94C141.587 404.596 141.143 403.588 140.135 403.588C139.115 403.588 138.671 404.596 138.671 405.94C138.671 407.284 139.115 408.292 140.135 408.292C141.143 408.292 141.587 407.284 141.587 405.94ZM148.747 405.94C148.747 407.536 148.123 409.132 146.311 409.132C144.487 409.132 143.863 407.536 143.863 405.94C143.863 404.344 144.487 402.748 146.311 402.748C148.123 402.748 148.747 404.344 148.747 405.94ZM147.763 405.94C147.763 404.596 147.319 403.588 146.311 403.588C145.291 403.588 144.847 404.596 144.847 405.94C144.847 407.284 145.291 408.292 146.311 408.292C147.319 408.292 147.763 407.284 147.763 405.94ZM156.842 409H152.39V408.376L154.442 406.408C154.994 405.868 155.414 405.472 155.414 404.812C155.414 404.116 154.982 403.6 154.178 403.6C153.638 403.6 153.254 403.84 152.966 404.08L152.51 403.444C153.026 403.012 153.554 402.748 154.382 402.748C155.57 402.748 156.386 403.444 156.386 404.704C156.386 405.544 155.882 406.18 155.306 406.708L153.77 408.124V408.136H156.842V409ZM163.36 408.244H161.908V410.692L160.984 410.848V408.244H157.684V407.464L161.02 402.88H161.908V407.428H163.36V408.244ZM160.984 407.428V404.176H160.972L158.668 407.428H160.984ZM167.969 403.696L164.537 410.98L163.733 410.572L166.925 403.756H163.661V402.88H167.969V403.696ZM173.708 405.94C173.708 407.536 173.084 409.132 171.272 409.132C169.448 409.132 168.824 407.536 168.824 405.94C168.824 404.344 169.448 402.748 171.272 402.748C173.084 402.748 173.708 404.344 173.708 405.94ZM172.724 405.94C172.724 404.596 172.28 403.588 171.272 403.588C170.252 403.588 169.808 404.596 169.808 405.94C169.808 407.284 170.252 408.292 171.272 408.292C172.28 408.292 172.724 407.284 172.724 405.94ZM181.803 409H177.351V408.376L179.403 406.408C179.955 405.868 180.375 405.472 180.375 404.812C180.375 404.116 179.943 403.6 179.139 403.6C178.599 403.6 178.215 403.84 177.927 404.08L177.471 403.444C177.987 403.012 178.515 402.748 179.343 402.748C180.531 402.748 181.347 403.444 181.347 404.704C181.347 405.544 180.843 406.18 180.267 406.708L178.731 408.124V408.136H181.803V409ZM187.088 405.844C187.088 409.156 185.408 410.704 183.02 410.992L182.828 410.212C184.34 410.032 185.864 409.06 186.08 406.768L186.068 406.756C186.068 406.756 185.504 407.236 184.652 407.236C183.452 407.236 182.672 406.336 182.672 405.1C182.672 403.6 183.572 402.748 184.928 402.748C186.32 402.748 187.088 403.708 187.088 405.844ZM186.092 405.832C186.092 404.644 185.876 403.564 184.808 403.564C184.052 403.564 183.608 404.188 183.608 404.968C183.608 405.964 184.064 406.444 184.916 406.444C185.648 406.444 186.092 406.012 186.092 406.012V405.832ZM192.713 409H188.261V408.376L190.313 406.408C190.865 405.868 191.285 405.472 191.285 404.812C191.285 404.116 190.853 403.6 190.049 403.6C189.509 403.6 189.125 403.84 188.837 404.08L188.381 403.444C188.897 403.012 189.425 402.748 190.253 402.748C191.441 402.748 192.257 403.444 192.257 404.704C192.257 405.544 191.753 406.18 191.177 406.708L189.641 408.124V408.136H192.713V409ZM198.61 405.94C198.61 407.536 197.986 409.132 196.174 409.132C194.35 409.132 193.726 407.536 193.726 405.94C193.726 404.344 194.35 402.748 196.174 402.748C197.986 402.748 198.61 404.344 198.61 405.94ZM197.626 405.94C197.626 404.596 197.182 403.588 196.174 403.588C195.154 403.588 194.71 404.596 194.71 405.94C194.71 407.284 195.154 408.292 196.174 408.292C197.182 408.292 197.626 407.284 197.626 405.94ZM204.269 409H203.321V403.696L202.265 403.84L202.157 403.108L204.269 402.772V409Z" fill="#00157E" fill-opacity="0.7"/>
<g clip-path="url(#clip3_982_39009)">
<path d="M265.432 390.072C265.432 392.136 264.268 393.156 262.708 393.156C261.04 393.156 259.972 392.316 259.972 390.048V385.776H261.004V390.096C261.004 391.524 261.556 392.196 262.672 392.196C263.788 392.196 264.472 391.512 264.472 390.12V385.776H265.432V390.072ZM271.314 390.972C271.314 392.232 270.438 393.132 268.986 393.132C268.242 393.132 267.582 392.976 267.018 392.736L267.33 391.86C267.798 392.076 268.35 392.256 268.914 392.256C269.79 392.256 270.354 391.92 270.354 391.128C270.354 390.54 269.922 390.252 269.346 389.976L268.218 389.436C267.462 389.076 266.946 388.608 266.946 387.588C266.946 386.352 268.026 385.644 269.274 385.644C269.946 385.644 270.378 385.752 271.002 385.98L270.666 386.832C270.282 386.652 269.862 386.484 269.334 386.484C268.59 386.484 267.918 386.784 267.918 387.552C267.918 388.068 268.23 388.32 268.71 388.548L269.862 389.112C270.774 389.556 271.314 390.048 271.314 390.972ZM278.469 388.932C278.469 391.572 276.885 393 274.317 393H272.805V385.824C272.805 385.824 273.801 385.704 274.869 385.704C277.101 385.704 278.469 386.868 278.469 388.932ZM277.425 389.076C277.425 387.372 276.273 386.556 274.701 386.556C274.197 386.556 273.813 386.58 273.813 386.58V392.1H274.509C276.225 392.1 277.425 391.08 277.425 389.076Z" fill="#00157E" fill-opacity="0.7"/>
<path d="M291.716 394H289.938V388.33L288.706 388.498L288.496 387.238L291.716 386.72V394ZM299.296 390.43C299.296 392.39 298.442 394.168 296.286 394.168C294.13 394.168 293.276 392.39 293.276 390.43C293.276 388.47 294.13 386.692 296.286 386.692C298.442 386.692 299.296 388.47 299.296 390.43ZM297.504 390.43C297.504 389.086 297.126 388.274 296.286 388.274C295.46 388.274 295.068 389.086 295.068 390.43C295.068 391.774 295.46 392.586 296.286 392.586C297.126 392.586 297.504 391.774 297.504 390.43ZM302.692 386.594C302.692 388.022 302.118 388.82 301.082 389.562L300.578 389.016C301.068 388.596 301.39 388.148 301.502 387.532C300.984 387.476 300.564 387.014 300.564 386.482C300.564 385.908 301.04 385.432 301.614 385.432C302.216 385.432 302.692 385.88 302.692 386.594ZM309.974 390.43C309.974 392.39 309.12 394.168 306.964 394.168C304.808 394.168 303.954 392.39 303.954 390.43C303.954 388.47 304.808 386.692 306.964 386.692C309.12 386.692 309.974 388.47 309.974 390.43ZM308.182 390.43C308.182 389.086 307.804 388.274 306.964 388.274C306.138 388.274 305.746 389.086 305.746 390.43C305.746 391.774 306.138 392.586 306.964 392.586C307.804 392.586 308.182 391.774 308.182 390.43ZM317.22 390.43C317.22 392.39 316.366 394.168 314.21 394.168C312.054 394.168 311.2 392.39 311.2 390.43C311.2 388.47 312.054 386.692 314.21 386.692C316.366 386.692 317.22 388.47 317.22 390.43ZM315.428 390.43C315.428 389.086 315.05 388.274 314.21 388.274C313.384 388.274 312.992 389.086 312.992 390.43C312.992 391.774 313.384 392.586 314.21 392.586C315.05 392.586 315.428 391.774 315.428 390.43ZM324.466 390.43C324.466 392.39 323.612 394.168 321.456 394.168C319.3 394.168 318.446 392.39 318.446 390.43C318.446 388.47 319.3 386.692 321.456 386.692C323.612 386.692 324.466 388.47 324.466 390.43ZM322.674 390.43C322.674 389.086 322.296 388.274 321.456 388.274C320.63 388.274 320.238 389.086 320.238 390.43C320.238 391.774 320.63 392.586 321.456 392.586C322.296 392.586 322.674 391.774 322.674 390.43ZM327.862 393.048C327.862 393.636 327.386 394.112 326.798 394.112C326.21 394.112 325.734 393.636 325.734 393.048C325.734 392.474 326.21 391.998 326.798 391.998C327.386 391.998 327.862 392.474 327.862 393.048ZM335.144 390.43C335.144 392.39 334.29 394.168 332.134 394.168C329.978 394.168 329.124 392.39 329.124 390.43C329.124 388.47 329.978 386.692 332.134 386.692C334.29 386.692 335.144 388.47 335.144 390.43ZM333.352 390.43C333.352 389.086 332.974 388.274 332.134 388.274C331.308 388.274 330.916 389.086 330.916 390.43C330.916 391.774 331.308 392.586 332.134 392.586C332.974 392.586 333.352 391.774 333.352 390.43ZM342.39 390.43C342.39 392.39 341.536 394.168 339.38 394.168C337.224 394.168 336.37 392.39 336.37 390.43C336.37 388.47 337.224 386.692 339.38 386.692C341.536 386.692 342.39 388.47 342.39 390.43ZM340.598 390.43C340.598 389.086 340.22 388.274 339.38 388.274C338.554 388.274 338.162 389.086 338.162 390.43C338.162 391.774 338.554 392.586 339.38 392.586C340.22 392.586 340.598 391.774 340.598 390.43Z" fill="#00157E"/>
<path d="M325 407L331 413L337 407" stroke="#00157E" stroke-width="2" stroke-linecap="round" stroke-linejoin="round"/>
</g>
</g>
<rect width="375" height="64" transform="translate(0 748)" fill="white"/>
<path d="M20 760.5H355C356.933 760.5 358.5 762.067 358.5 764V796C358.5 797.933 356.933 799.5 355 799.5H20C18.067 799.5 16.5 797.933 16.5 796V764C16.5 762.067 18.067 760.5 20 760.5Z" fill="#00157E"/>
<path d="M20 760.5H355C356.933 760.5 358.5 762.067 358.5 764V796C358.5 797.933 356.933 799.5 355 799.5H20C18.067 799.5 16.5 797.933 16.5 796V764C16.5 762.067 18.067 760.5 20 760.5Z" stroke="#00157E"/>
<path d="M170.733 784.504C169.837 784.968 168.925 785.176 167.709 785.176C165.357 785.176 163.549 783.592 163.549 780.392C163.549 776.984 165.565 775.192 168.157 775.192C169.229 775.192 169.885 775.352 170.701 775.704L170.189 776.872C169.581 776.6 169.005 776.392 168.141 776.392C166.461 776.392 164.925 777.688 164.925 780.056C164.925 782.696 165.901 783.992 168.237 783.992C169.005 783.992 169.709 783.688 170.285 783.432L170.733 784.504ZM177.949 781.256C177.949 783.448 176.909 785.176 174.749 785.176C172.381 785.176 171.549 783.496 171.549 781.256C171.549 779.064 172.589 777.336 174.749 777.336C177.117 777.336 177.949 779.016 177.949 781.256ZM176.637 781.288C176.637 779.432 176.013 778.456 174.749 778.456C173.517 778.456 172.861 779.32 172.861 781.208C172.861 783.064 173.485 784.056 174.749 784.056C175.981 784.056 176.637 783.176 176.637 781.288ZM185.663 785H184.383V780.136C184.383 779.032 183.967 778.472 182.959 778.472C182.239 778.472 181.727 778.776 181.263 779.192V785H179.983V779.24L179.759 777.592L181.023 777.384L181.151 778.264H181.167C181.727 777.72 182.463 777.336 183.391 777.336C184.655 777.336 185.663 778.152 185.663 779.688V785ZM193.402 785H192.138V778.552H189.594V785H188.33V778.552H187.226V777.704L188.33 777.48V776.888C188.33 775.272 189.354 774.088 191.178 774.088C192.01 774.088 192.538 774.344 192.922 774.552L192.458 775.576C192.266 775.448 191.786 775.176 191.178 775.176C190.01 775.176 189.594 775.832 189.594 776.744V777.512H193.402V785ZM199.328 778.616C198.464 778.616 197.824 778.84 197.248 779.368V785H195.968V779.24L195.743 777.592L197.008 777.384L197.136 778.408H197.152C197.664 777.832 198.336 777.352 199.328 777.352V778.616ZM210.953 785H209.689V780.136C209.689 779.032 209.273 778.472 208.249 778.472C207.529 778.472 206.921 778.824 206.521 779.224C206.521 779.224 206.569 779.496 206.569 779.784V785H205.289V780.136C205.289 779.032 204.873 778.472 203.865 778.472C203.145 778.472 202.633 778.76 202.169 779.192V785H200.889V779.24L200.665 777.592L201.929 777.384L202.057 778.264H202.073C202.633 777.72 203.369 777.336 204.297 777.336C205.161 777.336 205.881 777.72 206.265 778.408H206.281C206.873 777.816 207.641 777.336 208.697 777.336C209.977 777.336 210.953 778.152 210.953 779.688V785Z" fill="white"/>
</g>
<rect width="375" height="812" fill="#00157E" fill-opacity="0.2"/>
<path d="M4 628C4 623.582 7.58172 620 12 620H363C367.418 620 371 623.582 371 628V800C371 804.418 367.418 808 363 808H12C7.58172 808 4 804.418 4 800V628Z" fill="white"/>
<path d="M128.002 649.24C128.002 653.58 125.182 656 120.822 656H117.982V644.06C117.982 644.06 119.762 643.84 121.722 643.84C125.462 643.84 128.002 645.56 128.002 649.24ZM125.242 649.44C125.242 647.14 123.762 646.06 121.682 646.06C121.122 646.06 120.682 646.1 120.682 646.1V653.6H121.382C123.742 653.6 125.242 652.26 125.242 649.44ZM132.61 656H130.07V649L129.75 646.66L132.61 646.34V656ZM132.85 643.88C132.85 644.72 132.19 645.4 131.35 645.4C130.51 645.4 129.85 644.72 129.85 643.88C129.85 643.06 130.51 642.38 131.35 642.38C132.19 642.38 132.85 643.06 132.85 643.88ZM141.167 652.96C141.167 654.78 139.707 656.22 137.507 656.22C136.367 656.22 135.347 656.04 134.487 655.64L135.147 653.56C135.867 653.86 136.567 654.16 137.367 654.16C138.227 654.16 138.647 653.86 138.647 653.36C138.647 652.9 138.427 652.72 137.907 652.5L136.427 651.88C135.547 651.52 134.587 650.86 134.587 649.3C134.587 647.34 136.247 646.3 138.227 646.3C139.347 646.3 140.107 646.48 141.007 646.86L140.227 648.9C139.587 648.64 138.967 648.38 138.247 648.38C137.467 648.38 137.027 648.6 137.027 649.12C137.027 649.62 137.427 649.8 137.787 649.94L139.327 650.56C140.527 651.04 141.167 651.8 141.167 652.96ZM149.794 646.74L149.034 648.96C148.534 648.74 148.074 648.56 147.394 648.56C146.134 648.56 145.194 649.46 145.194 651.16C145.194 653.08 146.054 653.92 147.274 653.92C147.994 653.92 148.374 653.76 148.974 653.52L149.734 655.6C148.854 656 148.034 656.24 146.954 656.24C144.114 656.24 142.614 654.32 142.614 651.3C142.614 647.82 144.974 646.3 147.394 646.3C148.334 646.3 148.974 646.42 149.794 646.74ZM158.433 655.86L155.993 656.18L155.873 655.14H155.853C155.293 655.64 154.553 656.24 153.473 656.24C151.993 656.24 151.013 655.32 151.013 653.74C151.013 651.94 152.353 651.12 154.293 650.92L155.613 650.78V650.14C155.613 649.18 155.213 648.52 154.013 648.52C153.273 648.52 152.773 648.74 152.233 649.04L151.313 647.32C152.253 646.7 153.153 646.3 154.593 646.3C156.893 646.3 158.113 647.54 158.113 649.56V653.52L158.433 655.86ZM155.613 653.96V652.22L154.753 652.32C153.973 652.42 153.473 652.74 153.473 653.4C153.473 653.98 153.813 654.42 154.413 654.42C154.993 654.42 155.333 654.2 155.613 653.96ZM165.815 648.62C164.655 648.62 163.895 648.82 163.215 649.58V656H160.675V649L160.355 646.66L162.795 646.34L162.955 647.68H162.975C163.515 646.96 164.335 646.3 165.815 646.3V648.62ZM174.901 655.88L172.481 656.18L172.341 655.2H172.321C172.081 655.4 171.301 656.24 170.021 656.24C167.661 656.24 166.481 654.24 166.481 651.6C166.481 648.2 168.421 646.46 171.161 646.46C171.661 646.46 172.041 646.54 172.041 646.54V644.98L171.721 642.64L174.581 642.32V653.54L174.901 655.88ZM170.801 653.98C171.401 653.98 171.861 653.72 172.041 653.56V648.72C172.041 648.72 171.701 648.56 171.081 648.56C169.861 648.56 169.041 649.52 169.041 651.22C169.041 653.12 169.541 653.98 170.801 653.98ZM189.399 650.82C189.399 654.12 187.679 656.08 184.699 656.08C184.359 656.08 184.019 656.02 183.879 655.98V659.92L181.339 660.24V649L181.019 646.66L183.459 646.34L183.579 647.3H183.599C183.839 647.1 184.759 646.3 186.019 646.3C188.419 646.3 189.399 648.12 189.399 650.82ZM186.859 651.24C186.859 649.48 186.539 648.52 185.159 648.52C184.519 648.52 184.059 648.88 183.879 649.02V653.78C184.019 653.84 184.339 653.94 184.779 653.94C186.179 653.94 186.859 652.88 186.859 651.24ZM198.218 655.86L195.778 656.18L195.658 655.14H195.638C195.078 655.64 194.338 656.24 193.258 656.24C191.778 656.24 190.798 655.32 190.798 653.74C190.798 651.94 192.138 651.12 194.078 650.92L195.398 650.78V650.14C195.398 649.18 194.998 648.52 193.798 648.52C193.058 648.52 192.558 648.74 192.018 649.04L191.098 647.32C192.038 646.7 192.938 646.3 194.378 646.3C196.678 646.3 197.898 647.54 197.898 649.56V653.52L198.218 655.86ZM195.398 653.96V652.22L194.538 652.32C193.758 652.42 193.258 652.74 193.258 653.4C193.258 653.98 193.598 654.42 194.198 654.42C194.778 654.42 195.118 654.2 195.398 653.96ZM208.126 646.54L205.206 654.76C203.846 658.62 201.826 659.76 198.606 660.24L198.146 658.14C199.826 657.88 201.666 656.96 202.326 655.64L199.026 646.82L201.506 646.2L203.646 652.64H203.666L205.666 646.54H208.126ZM223.059 656H220.539V650C220.539 648.98 220.099 648.52 219.199 648.52C218.559 648.52 217.939 648.86 217.599 649.22C217.599 649.22 217.639 649.54 217.639 649.82V656H215.099V650C215.099 648.98 214.679 648.52 213.779 648.52C213.119 648.52 212.559 648.82 212.199 649.18V656H209.659V649L209.339 646.66L211.779 646.34L211.899 647.38H211.919C212.479 646.82 213.459 646.3 214.699 646.3C215.819 646.3 216.679 646.76 217.179 647.54H217.199C217.899 646.82 218.899 646.3 220.139 646.3C221.799 646.3 223.059 647.24 223.059 649.38V656ZM232.777 655.44C231.717 655.98 230.837 656.24 229.557 656.24C226.397 656.24 224.997 654.32 224.997 651.12C224.997 648.26 226.697 646.32 229.217 646.32C231.857 646.32 232.717 648.14 232.717 650.42V651.54H227.477C227.557 653.22 228.357 654.02 229.877 654.02C230.777 654.02 231.277 653.8 231.997 653.5L232.777 655.44ZM230.497 650C230.497 649.02 230.077 648.36 229.137 648.36C228.137 648.36 227.637 649.12 227.517 650H230.497ZM242.658 656H240.118V650C240.118 648.98 239.698 648.52 238.798 648.52C238.138 648.52 237.578 648.84 237.218 649.2V656H234.678V649L234.358 646.66L236.798 646.34L236.918 647.38H236.938C237.498 646.82 238.438 646.3 239.698 646.3C241.338 646.3 242.658 647.24 242.658 649.38V656ZM251.007 655.54C250.187 655.98 249.567 656.22 248.307 656.22C246.427 656.22 245.507 654.96 245.507 653.08V648.54H244.047V646.86L245.507 646.52V644.88L248.027 644.58V646.54H250.627V648.54H248.027V652.4C248.027 653.66 248.347 653.98 249.167 653.98C249.627 653.98 249.887 653.86 250.327 653.66L251.007 655.54ZM258.168 646.6C258.168 649.7 254.828 649.44 254.828 650.98C254.828 651.42 255.108 651.76 255.108 651.76L253.248 652.26C253.248 652.26 252.608 651.56 252.608 650.64C252.608 648.54 255.668 648.64 255.668 647.16C255.668 646.4 255.148 645.96 254.328 645.96C253.668 645.96 253.168 646.2 252.648 646.56L251.688 644.94C252.368 644.3 253.548 643.72 254.848 643.72C256.748 643.72 258.168 644.74 258.168 646.6ZM255.848 654.64C255.848 655.48 255.168 656.16 254.328 656.16C253.488 656.16 252.828 655.48 252.828 654.64C252.828 653.8 253.488 653.14 254.328 653.14C255.168 653.14 255.848 653.8 255.848 654.64Z" fill="#00157E"/>
<path d="M36.1096 684.368L33.0696 689.936V694H31.7256V690.016L28.8456 684.624L30.0456 684.064L32.4136 688.656H32.4296L34.7016 684.368H36.1096ZM42.4336 690.256C42.4336 692.448 41.3936 694.176 39.2336 694.176C36.8656 694.176 36.0336 692.496 36.0336 690.256C36.0336 688.064 37.0736 686.336 39.2336 686.336C41.6016 686.336 42.4336 688.016 42.4336 690.256ZM41.1216 690.288C41.1216 688.432 40.4976 687.456 39.2336 687.456C38.0016 687.456 37.3456 688.32 37.3456 690.208C37.3456 692.064 37.9696 693.056 39.2336 693.056C40.4656 693.056 41.1216 692.176 41.1216 690.288ZM50.3715 693.92L49.1075 694.128L48.9795 693.264H48.9635C48.4035 693.792 47.6675 694.176 46.7395 694.176C45.4755 694.176 44.4675 693.36 44.4675 691.824V688.24L44.2435 686.592L45.7475 686.384V691.376C45.7475 692.48 46.1635 693.056 47.1715 693.056C47.8915 693.056 48.4035 692.752 48.8675 692.32V688.24L48.6435 686.592L50.1475 686.384V692.272L50.3715 693.92ZM61.6933 694H60.4293V689.136C60.4293 688.048 59.9973 687.488 58.9733 687.488C58.2373 687.488 57.7413 687.808 57.3093 688.192V694H56.0293V684.928L55.8053 683.28L57.3093 683.072V687.168H57.3253C57.8213 686.736 58.5093 686.336 59.4373 686.336C60.7173 686.336 61.6933 687.136 61.6933 688.688V694ZM69.1451 693.92L67.8651 694.128L67.7531 693.248H67.7371C67.1931 693.76 66.6011 694.192 65.7051 694.192C64.4571 694.192 63.7211 693.44 63.7211 692.256C63.7211 690.912 64.7771 690.256 66.2971 690.096L67.6411 689.952V689.28C67.6411 688.24 67.3211 687.504 66.0891 687.504C65.4651 687.504 65.0011 687.696 64.5371 687.936L64.0731 686.992C64.7451 686.592 65.4331 686.336 66.3931 686.336C67.8971 686.336 68.9051 687.216 68.9051 688.704V692.272L69.1451 693.92ZM67.6411 692.448V690.816L66.4731 690.976C65.5131 691.104 64.9851 691.408 64.9851 692.096C64.9851 692.72 65.3691 693.136 66.0091 693.136C66.7611 693.136 67.2251 692.816 67.6411 692.448ZM76.7673 686.512L74.0633 693.984L72.7993 694.032L70.3353 686.624L71.6153 686.304L73.4873 692.336H73.5033L75.4873 686.512H76.7673ZM83.4019 693.6C82.6819 694 81.9459 694.176 81.0339 694.176C78.8259 694.176 77.6899 692.688 77.6899 690.208C77.6899 687.888 78.9059 686.336 80.7939 686.336C82.6019 686.336 83.3379 687.536 83.3379 689.184V690.08H78.9379C78.9539 692.08 79.6739 693.04 81.3059 693.04C81.9299 693.04 82.4099 692.864 82.9539 692.592L83.4019 693.6ZM82.1379 689.184C82.1379 688.064 81.7219 687.36 80.7299 687.36C79.7699 687.36 79.1619 688.112 79.0019 689.184H82.1379ZM94.3506 694H93.0706V689.136C93.0706 688.032 92.6546 687.472 91.6466 687.472C90.9266 687.472 90.4146 687.776 89.9506 688.192V694H88.6706V688.24L88.4466 686.592L89.7106 686.384L89.8386 687.264H89.8546C90.4146 686.72 91.1506 686.336 92.0786 686.336C93.3426 686.336 94.3506 687.152 94.3506 688.688V694ZM102.762 690.256C102.762 692.448 101.722 694.176 99.5618 694.176C97.1938 694.176 96.3618 692.496 96.3618 690.256C96.3618 688.064 97.4018 686.336 99.5618 686.336C101.93 686.336 102.762 688.016 102.762 690.256ZM101.45 690.288C101.45 688.432 100.826 687.456 99.5618 687.456C98.3298 687.456 97.6738 688.32 97.6738 690.208C97.6738 692.064 98.2978 693.056 99.5618 693.056C100.794 693.056 101.45 692.176 101.45 690.288ZM108.43 693.696C107.966 693.952 107.534 694.16 106.718 694.16C105.566 694.16 104.83 693.408 104.83 692.128V687.552H103.726V686.704L104.83 686.48V685.232L106.094 685.072V686.512H108.19V687.552H106.094V691.696C106.094 692.704 106.35 693.024 107.086 693.024C107.486 693.024 107.79 692.864 108.014 692.72L108.43 693.696ZM118.715 694H117.451V687.552H114.907V694H113.643V687.552H112.539V686.704L113.643 686.48V685.888C113.643 684.272 114.667 683.088 116.491 683.088C117.323 683.088 117.851 683.344 118.235 683.552L117.771 684.576C117.579 684.448 117.099 684.176 116.491 684.176C115.323 684.176 114.907 684.832 114.907 685.744V686.512H118.715V694ZM126.96 694H125.68V689.136C125.68 688.032 125.264 687.472 124.256 687.472C123.536 687.472 123.024 687.776 122.56 688.192V694H121.28V688.24L121.056 686.592L122.32 686.384L122.448 687.264H122.464C123.024 686.72 123.76 686.336 124.688 686.336C125.952 686.336 126.96 687.152 126.96 688.688V694ZM130.795 694H129.515V688.24L129.291 686.592L130.795 686.384V694ZM131.051 684.56C131.051 685.072 130.651 685.456 130.171 685.456C129.675 685.456 129.259 685.072 129.259 684.56C129.259 684.048 129.675 683.648 130.171 683.648C130.651 683.648 131.051 684.048 131.051 684.56ZM137.694 691.824C137.694 693.184 136.622 694.16 135.022 694.16C134.254 694.16 133.486 694.048 132.878 693.76L133.262 692.64C133.79 692.88 134.382 693.072 134.958 693.072C135.822 693.072 136.398 692.736 136.398 692.032C136.398 691.488 136.11 691.264 135.614 691.04L134.222 690.4C133.726 690.176 132.83 689.728 132.83 688.432C132.83 687.008 134.078 686.336 135.438 686.336C136.254 686.336 136.83 686.464 137.47 686.736L137.038 687.84C136.526 687.616 136.03 687.456 135.422 687.456C134.606 687.456 134.078 687.712 134.078 688.352C134.078 688.912 134.558 689.136 134.862 689.28L136.286 689.952C137.278 690.416 137.694 691.008 137.694 691.824ZM145.35 694H144.086V689.136C144.086 688.048 143.654 687.488 142.63 687.488C141.894 687.488 141.398 687.808 140.966 688.192V694H139.686V684.928L139.462 683.28L140.966 683.072V687.168H140.982C141.478 686.736 142.166 686.336 143.094 686.336C144.374 686.336 145.35 687.136 145.35 688.688V694ZM153.089 693.6C152.369 694 151.633 694.176 150.721 694.176C148.513 694.176 147.377 692.688 147.377 690.208C147.377 687.888 148.593 686.336 150.481 686.336C152.289 686.336 153.025 687.536 153.025 689.184V690.08H148.625C148.641 692.08 149.361 693.04 150.993 693.04C151.617 693.04 152.097 692.864 152.641 692.592L153.089 693.6ZM151.825 689.184C151.825 688.064 151.409 687.36 150.417 687.36C149.457 687.36 148.849 688.112 148.689 689.184H151.825ZM160.615 693.952L159.383 694.128L159.271 693.376H159.255C158.775 693.776 158.119 694.176 157.239 694.176C155.591 694.176 154.487 692.816 154.487 690.592C154.487 688.016 155.815 686.432 158.087 686.432C158.695 686.432 159.127 686.544 159.127 686.544V684.928L158.887 683.28L160.391 683.072V692.304L160.615 693.952ZM157.687 693.056C158.311 693.056 158.743 692.8 159.127 692.496V687.712C159.127 687.712 158.711 687.504 157.975 687.504C156.519 687.504 155.799 688.736 155.799 690.192C155.799 692 156.279 693.056 157.687 693.056ZM170.055 693.696C169.591 693.952 169.159 694.16 168.343 694.16C167.191 694.16 166.455 693.408 166.455 692.128V687.552H165.351V686.704L166.455 686.48V685.232L167.719 685.072V686.512H169.815V687.552H167.719V691.696C167.719 692.704 167.975 693.024 168.711 693.024C169.111 693.024 169.415 692.864 169.639 692.72L170.055 693.696ZM177.396 694H176.132V689.136C176.132 688.048 175.7 687.488 174.676 687.488C173.94 687.488 173.444 687.808 173.012 688.192V694H171.732V684.928L171.508 683.28L173.012 683.072V687.168H173.028C173.524 686.736 174.212 686.336 175.14 686.336C176.42 686.336 177.396 687.136 177.396 688.688V694ZM181.248 694H179.968V688.24L179.744 686.592L181.248 686.384V694ZM181.504 684.56C181.504 685.072 181.104 685.456 180.624 685.456C180.128 685.456 179.712 685.072 179.712 684.56C179.712 684.048 180.128 683.648 180.624 683.648C181.104 683.648 181.504 684.048 181.504 684.56ZM188.147 691.824C188.147 693.184 187.075 694.16 185.475 694.16C184.707 694.16 183.939 694.048 183.331 693.76L183.715 692.64C184.243 692.88 184.835 693.072 185.411 693.072C186.275 693.072 186.851 692.736 186.851 692.032C186.851 691.488 186.563 691.264 186.067 691.04L184.675 690.4C184.179 690.176 183.283 689.728 183.283 688.432C183.283 687.008 184.531 686.336 185.891 686.336C186.707 686.336 187.283 686.464 187.923 686.736L187.491 687.84C186.979 687.616 186.483 687.456 185.875 687.456C185.059 687.456 184.531 687.712 184.531 688.352C184.531 688.912 185.011 689.136 185.315 689.28L186.739 689.952C187.731 690.416 188.147 691.008 188.147 691.824ZM199.418 689.888C199.418 692.32 198.362 694.08 195.866 694.08C195.45 694.08 195.114 694.048 194.81 693.968V697.168L193.53 697.376V688.24L193.306 686.592L194.57 686.384L194.682 687.152H194.698C195.194 686.736 195.85 686.336 196.714 686.336C198.538 686.336 199.418 687.712 199.418 689.888ZM198.138 690.256C198.138 688.624 197.77 687.488 196.282 687.488C195.642 687.488 195.178 687.76 194.81 688.064V692.784C195.114 692.912 195.466 692.992 195.962 692.992C197.354 692.992 198.138 691.904 198.138 690.256ZM206.364 693.92L205.084 694.128L204.972 693.248H204.956C204.412 693.76 203.82 694.192 202.924 694.192C201.676 694.192 200.94 693.44 200.94 692.256C200.94 690.912 201.996 690.256 203.516 690.096L204.86 689.952V689.28C204.86 688.24 204.54 687.504 203.308 687.504C202.684 687.504 202.22 687.696 201.756 687.936L201.292 686.992C201.964 686.592 202.652 686.336 203.612 686.336C205.116 686.336 206.124 687.216 206.124 688.704V692.272L206.364 693.92ZM204.86 692.448V690.816L203.692 690.976C202.732 691.104 202.204 691.408 202.204 692.096C202.204 692.72 202.588 693.136 203.228 693.136C203.98 693.136 204.444 692.816 204.86 692.448ZM213.954 686.512L211.458 693.312C210.658 695.52 209.586 696.848 206.978 697.376L206.738 696.336C208.642 695.952 209.65 694.8 210.146 693.552L207.458 686.624L208.722 686.288L210.786 691.856H210.802L212.69 686.512H213.954ZM225.563 694H224.299V689.136C224.299 688.032 223.883 687.472 222.859 687.472C222.139 687.472 221.531 687.824 221.131 688.224C221.131 688.224 221.179 688.496 221.179 688.784V694H219.899V689.136C219.899 688.032 219.483 687.472 218.475 687.472C217.755 687.472 217.243 687.76 216.779 688.192V694H215.499V688.24L215.275 686.592L216.539 686.384L216.667 687.264H216.683C217.243 686.72 217.979 686.336 218.907 686.336C219.771 686.336 220.491 686.72 220.875 687.408H220.891C221.483 686.816 222.251 686.336 223.307 686.336C224.587 686.336 225.563 687.152 225.563 688.688V694ZM233.308 693.6C232.588 694 231.852 694.176 230.94 694.176C228.732 694.176 227.596 692.688 227.596 690.208C227.596 687.888 228.812 686.336 230.7 686.336C232.508 686.336 233.244 687.536 233.244 689.184V690.08H228.844C228.86 692.08 229.58 693.04 231.212 693.04C231.836 693.04 232.316 692.864 232.86 692.592L233.308 693.6ZM232.044 689.184C232.044 688.064 231.628 687.36 230.636 687.36C229.676 687.36 229.068 688.112 228.908 689.184H232.044ZM240.898 694H239.618V689.136C239.618 688.032 239.202 687.472 238.194 687.472C237.474 687.472 236.962 687.776 236.498 688.192V694H235.218V688.24L234.993 686.592L236.258 686.384L236.386 687.264H236.402C236.962 686.72 237.698 686.336 238.626 686.336C239.89 686.336 240.898 687.152 240.898 688.688V694ZM247.165 693.696C246.701 693.952 246.269 694.16 245.453 694.16C244.301 694.16 243.565 693.408 243.565 692.128V687.552H242.461V686.704L243.565 686.48V685.232L244.829 685.072V686.512H246.925V687.552H244.829V691.696C244.829 692.704 245.085 693.024 245.821 693.024C246.221 693.024 246.525 692.864 246.749 692.72L247.165 693.696ZM250.346 693.184C250.346 693.696 249.93 694.112 249.434 694.112C248.922 694.112 248.506 693.696 248.506 693.184C248.506 692.688 248.922 692.272 249.434 692.272C249.93 692.272 250.346 692.688 250.346 693.184ZM256.875 694H255.531V684.368H256.875V694ZM263.179 683.232L262.891 684.32C262.667 684.24 262.459 684.192 262.139 684.192C261.419 684.192 260.891 684.656 260.891 685.6V686.512H262.955V687.552H260.891V694H259.627V687.552H258.523V686.704L259.627 686.48V685.696C259.627 684.08 260.715 683.088 262.203 683.088C262.603 683.088 262.891 683.152 263.179 683.232ZM273.235 686.512L270.739 693.312C269.939 695.52 268.867 696.848 266.259 697.376L266.019 696.336C267.923 695.952 268.931 694.8 269.427 693.552L266.739 686.624L268.003 686.288L270.067 691.856H270.083L271.971 686.512H273.235ZM280.512 690.256C280.512 692.448 279.472 694.176 277.312 694.176C274.944 694.176 274.112 692.496 274.112 690.256C274.112 688.064 275.152 686.336 277.312 686.336C279.68 686.336 280.512 688.016 280.512 690.256ZM279.2 690.288C279.2 688.432 278.576 687.456 277.312 687.456C276.08 687.456 275.424 688.32 275.424 690.208C275.424 692.064 276.048 693.056 277.312 693.056C278.544 693.056 279.2 692.176 279.2 690.288ZM288.45 693.92L287.186 694.128L287.058 693.264H287.042C286.482 693.792 285.746 694.176 284.818 694.176C283.554 694.176 282.546 693.36 282.546 691.824V688.24L282.322 686.592L283.826 686.384V691.376C283.826 692.48 284.242 693.056 285.25 693.056C285.97 693.056 286.482 692.752 286.946 692.32V688.24L286.722 686.592L288.226 686.384V692.272L288.45 693.92ZM299.339 693.6C298.619 694 297.883 694.176 296.971 694.176C294.763 694.176 293.627 692.688 293.627 690.208C293.627 687.888 294.843 686.336 296.731 686.336C298.539 686.336 299.275 687.536 299.275 689.184V690.08H294.875C294.891 692.08 295.611 693.04 297.243 693.04C297.867 693.04 298.347 692.864 298.891 692.592L299.339 693.6ZM298.075 689.184C298.075 688.064 297.659 687.36 296.667 687.36C295.707 687.36 295.099 688.112 294.939 689.184H298.075ZM306.481 693.664L305.393 694.272L303.313 691.072H303.297L301.425 694H300.081L302.689 690.112L300.449 686.848L301.521 686.24L303.377 689.056H303.393L304.993 686.512H306.353L303.985 690L306.481 693.664ZM309.358 694H308.078V688.24L307.854 686.592L309.358 686.384V694ZM309.614 684.56C309.614 685.072 309.214 685.456 308.734 685.456C308.238 685.456 307.822 685.072 307.822 684.56C307.822 684.048 308.238 683.648 308.734 683.648C309.214 683.648 309.614 684.048 309.614 684.56ZM315.665 693.696C315.201 693.952 314.769 694.16 313.953 694.16C312.801 694.16 312.065 693.408 312.065 692.128V687.552H310.961V686.704L312.065 686.48V685.232L313.329 685.072V686.512H315.425V687.552H313.329V691.696C313.329 692.704 313.585 693.024 314.321 693.024C314.721 693.024 315.025 692.864 315.249 692.72L315.665 693.696ZM326.413 694H325.133V689.136C325.133 688.032 324.717 687.472 323.709 687.472C322.989 687.472 322.477 687.776 322.013 688.192V694H320.733V688.24L320.509 686.592L321.773 686.384L321.901 687.264H321.917C322.477 686.72 323.213 686.336 324.141 686.336C325.405 686.336 326.413 687.152 326.413 688.688V694ZM334.824 690.256C334.824 692.448 333.784 694.176 331.624 694.176C329.256 694.176 328.424 692.496 328.424 690.256C328.424 688.064 329.464 686.336 331.624 686.336C333.992 686.336 334.824 688.016 334.824 690.256ZM333.512 690.288C333.512 688.432 332.888 687.456 331.624 687.456C330.392 687.456 329.736 688.32 329.736 690.208C329.736 692.064 330.36 693.056 331.624 693.056C332.856 693.056 333.512 692.176 333.512 690.288ZM345.834 686.512L343.77 693.968L342.586 694.032L340.762 688.352H340.746L338.906 693.984L337.722 694.032L335.85 686.592L337.066 686.288L338.41 692.128H338.426L340.17 686.512H341.418L343.178 692.128H343.194L344.586 686.512H345.834ZM86.7978 708.512L84.3018 715.312C83.5018 717.52 82.4298 718.848 79.8217 719.376L79.5817 718.336C81.4858 717.952 82.4938 716.8 82.9898 715.552L80.3018 708.624L81.5658 708.288L83.6298 713.856H83.6458L85.5338 708.512H86.7978ZM94.0743 712.256C94.0743 714.448 93.0343 716.176 90.8743 716.176C88.5063 716.176 87.6743 714.496 87.6743 712.256C87.6743 710.064 88.7143 708.336 90.8743 708.336C93.2423 708.336 94.0743 710.016 94.0743 712.256ZM92.7623 712.288C92.7623 710.432 92.1383 709.456 90.8743 709.456C89.6423 709.456 88.9863 710.32 88.9863 712.208C88.9863 714.064 89.6103 715.056 90.8743 715.056C92.1063 715.056 92.7623 714.176 92.7623 712.288ZM102.012 715.92L100.748 716.128L100.62 715.264H100.604C100.044 715.792 99.3081 716.176 98.3801 716.176C97.1161 716.176 96.1081 715.36 96.1081 713.824V710.24L95.8841 708.592L97.3881 708.384V713.376C97.3881 714.48 97.8041 715.056 98.8121 715.056C99.5321 715.056 100.044 714.752 100.508 714.32V710.24L100.284 708.592L101.788 708.384V714.272L102.012 715.92ZM107.703 709.616C106.839 709.616 106.199 709.84 105.623 710.368V716H104.343V710.24L104.118 708.592L105.383 708.384L105.511 709.408H105.527C106.039 708.832 106.711 708.352 107.703 708.352V709.616ZM117.824 715.6C117.104 716 116.368 716.176 115.456 716.176C113.248 716.176 112.112 714.688 112.112 712.208C112.112 709.888 113.328 708.336 115.216 708.336C117.024 708.336 117.76 709.536 117.76 711.184V712.08H113.36C113.376 714.08 114.096 715.04 115.728 715.04C116.352 715.04 116.832 714.864 117.376 714.592L117.824 715.6ZM116.56 711.184C116.56 710.064 116.144 709.36 115.152 709.36C114.192 709.36 113.584 710.112 113.424 711.184H116.56ZM125.413 716H124.133V711.136C124.133 710.032 123.717 709.472 122.709 709.472C121.989 709.472 121.477 709.776 121.013 710.192V716H119.733V710.24L119.509 708.592L120.773 708.384L120.901 709.264H120.917C121.477 708.72 122.213 708.336 123.141 708.336C124.405 708.336 125.413 709.152 125.413 710.688V716ZM131.68 715.696C131.216 715.952 130.784 716.16 129.968 716.16C128.816 716.16 128.08 715.408 128.08 714.128V709.552H126.976V708.704L128.08 708.48V707.232L129.344 707.072V708.512H131.44V709.552H129.344V713.696C129.344 714.704 129.6 715.024 130.336 715.024C130.736 715.024 131.04 714.864 131.264 714.72L131.68 715.696ZM136.749 709.616C135.885 709.616 135.245 709.84 134.669 710.368V716H133.389V710.24L133.165 708.592L134.429 708.384L134.557 709.408H134.573C135.085 708.832 135.757 708.352 136.749 708.352V709.616ZM139.623 716H138.343V710.24L138.119 708.592L139.623 708.384V716ZM139.879 706.56C139.879 707.072 139.479 707.456 138.999 707.456C138.503 707.456 138.087 707.072 138.087 706.56C138.087 706.048 138.503 705.648 138.999 705.648C139.479 705.648 139.879 706.048 139.879 706.56ZM147.386 715.6C146.666 716 145.93 716.176 145.018 716.176C142.81 716.176 141.674 714.688 141.674 712.208C141.674 709.888 142.89 708.336 144.778 708.336C146.586 708.336 147.322 709.536 147.322 711.184V712.08H142.922C142.938 714.08 143.658 715.04 145.29 715.04C145.914 715.04 146.394 714.864 146.938 714.592L147.386 715.6ZM146.122 711.184C146.122 710.064 145.706 709.36 144.714 709.36C143.754 709.36 143.146 710.112 142.986 711.184H146.122ZM153.632 713.824C153.632 715.184 152.56 716.16 150.96 716.16C150.192 716.16 149.424 716.048 148.816 715.76L149.2 714.64C149.728 714.88 150.32 715.072 150.896 715.072C151.76 715.072 152.336 714.736 152.336 714.032C152.336 713.488 152.048 713.264 151.552 713.04L150.16 712.4C149.664 712.176 148.768 711.728 148.768 710.432C148.768 709.008 150.016 708.336 151.376 708.336C152.192 708.336 152.768 708.464 153.408 708.736L152.976 709.84C152.464 709.616 151.968 709.456 151.36 709.456C150.544 709.456 150.016 709.712 150.016 710.352C150.016 710.912 150.496 711.136 150.8 711.28L152.224 711.952C153.216 712.416 153.632 713.008 153.632 713.824ZM167.99 708.512L165.926 715.968L164.742 716.032L162.918 710.352H162.902L161.062 715.984L159.878 716.032L158.006 708.592L159.222 708.288L160.566 714.128H160.582L162.326 708.512H163.574L165.334 714.128H165.35L166.742 708.512H167.99ZM170.983 716H169.703V710.24L169.479 708.592L170.983 708.384V716ZM171.239 706.56C171.239 707.072 170.839 707.456 170.359 707.456C169.863 707.456 169.447 707.072 169.447 706.56C169.447 706.048 169.863 705.648 170.359 705.648C170.839 705.648 171.239 706.048 171.239 706.56ZM174.794 716H173.514V706.928L173.29 705.28L174.794 705.072V716ZM178.575 716H177.295V706.928L177.071 705.28L178.575 705.072V716ZM190.148 716H188.868V711.136C188.868 710.032 188.452 709.472 187.444 709.472C186.724 709.472 186.212 709.776 185.748 710.192V716H184.468V710.24L184.243 708.592L185.508 708.384L185.636 709.264H185.652C186.212 708.72 186.948 708.336 187.876 708.336C189.14 708.336 190.148 709.152 190.148 710.688V716ZM198.559 712.256C198.559 714.448 197.519 716.176 195.359 716.176C192.991 716.176 192.159 714.496 192.159 712.256C192.159 710.064 193.199 708.336 195.359 708.336C197.727 708.336 198.559 710.016 198.559 712.256ZM197.247 712.288C197.247 710.432 196.623 709.456 195.359 709.456C194.127 709.456 193.471 710.32 193.471 712.208C193.471 714.064 194.095 715.056 195.359 715.056C196.591 715.056 197.247 714.176 197.247 712.288ZM204.227 715.696C203.763 715.952 203.331 716.16 202.515 716.16C201.363 716.16 200.627 715.408 200.627 714.128V709.552H199.523V708.704L200.627 708.48V707.232L201.891 707.072V708.512H203.987V709.552H201.891V713.696C201.891 714.704 202.147 715.024 202.883 715.024C203.283 715.024 203.587 714.864 203.811 714.72L204.227 715.696ZM215.216 711.808C215.216 714.304 213.92 716.16 211.552 716.16C210.72 716.16 209.808 716.016 209.264 715.808V706.928L209.04 705.28L210.544 705.072V709.088H210.56C211.04 708.688 211.68 708.336 212.528 708.336C214.288 708.336 215.216 709.6 215.216 711.808ZM213.92 712.272C213.92 710.624 213.536 709.504 212.08 709.504C211.408 709.504 210.928 709.776 210.544 710.112V714.928C210.864 715.008 211.184 715.056 211.664 715.056C213.152 715.056 213.92 713.792 213.92 712.272ZM222.464 715.6C221.744 716 221.008 716.176 220.096 716.176C217.888 716.176 216.752 714.688 216.752 712.208C216.752 709.888 217.968 708.336 219.856 708.336C221.664 708.336 222.4 709.536 222.4 711.184V712.08H218C218.016 714.08 218.736 715.04 220.368 715.04C220.992 715.04 221.472 714.864 222.016 714.592L222.464 715.6ZM221.2 711.184C221.2 710.064 220.784 709.36 219.792 709.36C218.832 709.36 218.224 710.112 218.064 711.184H221.2ZM232.069 713.824C232.069 715.184 230.997 716.16 229.397 716.16C228.629 716.16 227.861 716.048 227.253 715.76L227.637 714.64C228.165 714.88 228.757 715.072 229.333 715.072C230.197 715.072 230.773 714.736 230.773 714.032C230.773 713.488 230.485 713.264 229.989 713.04L228.597 712.4C228.101 712.176 227.205 711.728 227.205 710.432C227.205 709.008 228.453 708.336 229.813 708.336C230.629 708.336 231.205 708.464 231.845 708.736L231.413 709.84C230.901 709.616 230.405 709.456 229.797 709.456C228.981 709.456 228.453 709.712 228.453 710.352C228.453 710.912 228.933 711.136 229.237 711.28L230.661 711.952C231.653 712.416 232.069 713.008 232.069 713.824ZM239.997 715.92L238.733 716.128L238.605 715.264H238.589C238.029 715.792 237.293 716.176 236.365 716.176C235.101 716.176 234.093 715.36 234.093 713.824V710.24L233.868 708.592L235.373 708.384V713.376C235.373 714.48 235.789 715.056 236.797 715.056C237.516 715.056 238.029 714.752 238.493 714.32V710.24L238.269 708.592L239.773 708.384V714.272L239.997 715.92ZM248.247 711.808C248.247 714.304 246.951 716.16 244.583 716.16C243.751 716.16 242.839 716.016 242.295 715.808V706.928L242.071 705.28L243.575 705.072V709.088H243.591C244.071 708.688 244.711 708.336 245.559 708.336C247.319 708.336 248.247 709.6 248.247 711.808ZM246.951 712.272C246.951 710.624 246.567 709.504 245.111 709.504C244.439 709.504 243.959 709.776 243.575 710.112V714.928C243.895 715.008 244.215 715.056 244.695 715.056C246.183 715.056 246.951 713.792 246.951 712.272ZM260.36 716H259.096V711.136C259.096 710.032 258.68 709.472 257.656 709.472C256.936 709.472 256.328 709.824 255.928 710.224C255.928 710.224 255.976 710.496 255.976 710.784V716H254.696V711.136C254.696 710.032 254.28 709.472 253.272 709.472C252.552 709.472 252.04 709.76 251.576 710.192V716H250.296V710.24L250.072 708.592L251.336 708.384L251.464 709.264H251.48C252.04 708.72 252.776 708.336 253.704 708.336C254.568 708.336 255.288 708.72 255.672 709.408H255.688C256.28 708.816 257.048 708.336 258.104 708.336C259.384 708.336 260.36 709.152 260.36 710.688V716ZM264.217 716H262.937V710.24L262.713 708.592L264.217 708.384V716ZM264.473 706.56C264.473 707.072 264.073 707.456 263.593 707.456C263.097 707.456 262.681 707.072 262.681 706.56C262.681 706.048 263.097 705.648 263.593 705.648C264.073 705.648 264.473 706.048 264.473 706.56ZM270.524 715.696C270.06 715.952 269.628 716.16 268.812 716.16C267.66 716.16 266.924 715.408 266.924 714.128V709.552H265.82V708.704L266.924 708.48V707.232L268.188 707.072V708.512H270.284V709.552H268.188V713.696C268.188 714.704 268.444 715.024 269.18 715.024C269.58 715.024 269.884 714.864 270.108 714.72L270.524 715.696ZM275.977 715.696C275.513 715.952 275.081 716.16 274.265 716.16C273.113 716.16 272.377 715.408 272.377 714.128V709.552H271.273V708.704L272.377 708.48V707.232L273.641 707.072V708.512H275.737V709.552H273.641V713.696C273.641 714.704 273.897 715.024 274.633 715.024C275.033 715.024 275.337 714.864 275.561 714.72L275.977 715.696ZM282.668 715.6C281.948 716 281.212 716.176 280.299 716.176C278.092 716.176 276.956 714.688 276.956 712.208C276.956 709.888 278.172 708.336 280.06 708.336C281.868 708.336 282.604 709.536 282.604 711.184V712.08H278.204C278.22 714.08 278.94 715.04 280.572 715.04C281.196 715.04 281.676 714.864 282.22 714.592L282.668 715.6ZM281.404 711.184C281.404 710.064 280.988 709.36 279.996 709.36C279.036 709.36 278.428 710.112 278.268 711.184H281.404ZM290.193 715.952L288.961 716.128L288.849 715.376H288.833C288.353 715.776 287.697 716.176 286.817 716.176C285.169 716.176 284.065 714.816 284.065 712.592C284.065 710.016 285.393 708.432 287.665 708.432C288.273 708.432 288.705 708.544 288.705 708.544V706.928L288.465 705.28L289.969 705.072V714.304L290.193 715.952ZM287.265 715.056C287.889 715.056 288.321 714.8 288.705 714.496V709.712C288.705 709.712 288.289 709.504 287.553 709.504C286.097 709.504 285.377 710.736 285.377 712.192C285.377 714 285.857 715.056 287.265 715.056ZM294.002 715.184C294.002 715.696 293.586 716.112 293.09 716.112C292.578 716.112 292.162 715.696 292.162 715.184C292.162 714.688 292.578 714.272 293.09 714.272C293.586 714.272 294.002 714.688 294.002 715.184Z" fill="#00157E"/>
<rect width="367" height="64" transform="translate(4 740)" fill="white"/>
<path d="M24 752.5H175.5C177.433 752.5 179 754.067 179 756V788C179 789.933 177.433 791.5 175.5 791.5H24C22.067 791.5 20.5 789.933 20.5 788V756C20.5 754.127 21.9708 752.598 23.8203 752.505L24 752.5Z" fill="white"/>
<path d="M24 752.5H175.5C177.433 752.5 179 754.067 179 756V788C179 789.933 177.433 791.5 175.5 791.5H24C22.067 791.5 20.5 789.933 20.5 788V756C20.5 754.127 21.9708 752.598 23.8203 752.505L24 752.5Z" stroke="#00157E"/>
<path d="M87.2254 776.504C86.3294 776.968 85.4174 777.176 84.2014 777.176C81.8494 777.176 80.0414 775.592 80.0414 772.392C80.0414 768.984 82.0574 767.192 84.6494 767.192C85.7214 767.192 86.3774 767.352 87.1934 767.704L86.6814 768.872C86.0734 768.6 85.4974 768.392 84.6334 768.392C82.9534 768.392 81.4174 769.688 81.4174 772.056C81.4174 774.696 82.3934 775.992 84.7294 775.992C85.4974 775.992 86.2014 775.688 86.7774 775.432L87.2254 776.504ZM93.7623 776.92L92.4823 777.128L92.3703 776.248H92.3543C91.8103 776.76 91.2183 777.192 90.3223 777.192C89.0743 777.192 88.3383 776.44 88.3383 775.256C88.3383 773.912 89.3943 773.256 90.9143 773.096L92.2583 772.952V772.28C92.2583 771.24 91.9383 770.504 90.7063 770.504C90.0823 770.504 89.6183 770.696 89.1543 770.936L88.6903 769.992C89.3623 769.592 90.0503 769.336 91.0103 769.336C92.5143 769.336 93.5223 770.216 93.5223 771.704V775.272L93.7623 776.92ZM92.2583 775.448V773.816L91.0903 773.976C90.1303 774.104 89.6023 774.408 89.6023 775.096C89.6023 775.72 89.9863 776.136 90.6263 776.136C91.3783 776.136 91.8423 775.816 92.2583 775.448ZM101.78 777H100.5V772.136C100.5 771.032 100.084 770.472 99.0763 770.472C98.3563 770.472 97.8443 770.776 97.3803 771.192V777H96.1003V771.24L95.8763 769.592L97.1403 769.384L97.2683 770.264H97.2843C97.8443 769.72 98.5803 769.336 99.5083 769.336C100.772 769.336 101.78 770.152 101.78 771.688V777ZM109.135 769.656L108.735 770.808C108.319 770.648 107.855 770.504 107.327 770.504C105.919 770.504 105.071 771.56 105.071 773.144C105.071 775.144 105.855 776.056 107.295 776.056C107.807 776.056 108.223 775.88 108.639 775.704L109.071 776.744C108.447 777.032 107.759 777.176 107.039 777.176C104.895 777.176 103.791 775.64 103.791 773.352C103.791 770.6 105.487 769.336 107.391 769.336C108.047 769.336 108.607 769.448 109.135 769.656ZM115.816 776.6C115.096 777 114.36 777.176 113.448 777.176C111.24 777.176 110.104 775.688 110.104 773.208C110.104 770.888 111.32 769.336 113.208 769.336C115.016 769.336 115.752 770.536 115.752 772.184V773.08H111.352C111.368 775.08 112.088 776.04 113.72 776.04C114.344 776.04 114.824 775.864 115.368 775.592L115.816 776.6ZM114.552 772.184C114.552 771.064 114.136 770.36 113.144 770.36C112.184 770.36 111.576 771.112 111.416 772.184H114.552ZM118.973 777H117.693V767.928L117.469 766.28L118.973 766.072V777Z" fill="#00157E"/>
<path d="M199.5 752.5H351C352.933 752.5 354.5 754.067 354.5 756V788C354.5 789.933 352.933 791.5 351 791.5H199.5C197.567 791.5 196 789.933 196 788V756C196 754.127 197.471 752.598 199.32 752.505L199.5 752.5Z" fill="#00157E"/>
<path d="M199.5 752.5H351C352.933 752.5 354.5 754.067 354.5 756V788C354.5 789.933 352.933 791.5 351 791.5H199.5C197.567 791.5 196 789.933 196 788V756C196 754.127 197.471 752.598 199.32 752.505L199.5 752.5Z" stroke="#00157E"/>
<path d="M259.591 771.576C259.591 775.096 257.479 777 254.055 777H252.039V767.432C252.039 767.432 253.367 767.272 254.791 767.272C257.767 767.272 259.591 768.824 259.591 771.576ZM258.199 771.768C258.199 769.496 256.663 768.408 254.567 768.408C253.895 768.408 253.383 768.44 253.383 768.44V775.8H254.311C256.599 775.8 258.199 774.44 258.199 771.768ZM262.944 777H261.664V771.24L261.44 769.592L262.944 769.384V777ZM263.2 767.56C263.2 768.072 262.8 768.456 262.32 768.456C261.824 768.456 261.408 768.072 261.408 767.56C261.408 767.048 261.824 766.648 262.32 766.648C262.8 766.648 263.2 767.048 263.2 767.56ZM269.843 774.824C269.843 776.184 268.771 777.16 267.171 777.16C266.403 777.16 265.635 777.048 265.027 776.76L265.411 775.64C265.939 775.88 266.531 776.072 267.107 776.072C267.971 776.072 268.547 775.736 268.547 775.032C268.547 774.488 268.259 774.264 267.763 774.04L266.371 773.4C265.875 773.176 264.979 772.728 264.979 771.432C264.979 770.008 266.227 769.336 267.587 769.336C268.403 769.336 268.979 769.464 269.619 769.736L269.187 770.84C268.675 770.616 268.179 770.456 267.571 770.456C266.755 770.456 266.227 770.712 266.227 771.352C266.227 771.912 266.707 772.136 267.011 772.28L268.435 772.952C269.427 773.416 269.843 774.008 269.843 774.824ZM281.93 777H280.666V772.136C280.666 771.032 280.25 770.472 279.226 770.472C278.506 770.472 277.898 770.824 277.498 771.224C277.498 771.224 277.546 771.496 277.546 771.784V777H276.266V772.136C276.266 771.032 275.85 770.472 274.842 770.472C274.122 770.472 273.61 770.76 273.146 771.192V777H271.866V771.24L271.642 769.592L272.906 769.384L273.034 770.264H273.05C273.61 769.72 274.346 769.336 275.274 769.336C276.138 769.336 276.858 769.72 277.242 770.408H277.258C277.85 769.816 278.618 769.336 279.674 769.336C280.954 769.336 281.93 770.152 281.93 771.688V777ZM285.787 777H284.507V771.24L284.283 769.592L285.787 769.384V777ZM286.043 767.56C286.043 768.072 285.643 768.456 285.163 768.456C284.667 768.456 284.251 768.072 284.251 767.56C284.251 767.048 284.667 766.648 285.163 766.648C285.643 766.648 286.043 767.048 286.043 767.56ZM292.686 774.824C292.686 776.184 291.614 777.16 290.014 777.16C289.246 777.16 288.478 777.048 287.87 776.76L288.254 775.64C288.782 775.88 289.374 776.072 289.95 776.072C290.814 776.072 291.39 775.736 291.39 775.032C291.39 774.488 291.102 774.264 290.606 774.04L289.214 773.4C288.718 773.176 287.822 772.728 287.822 771.432C287.822 770.008 289.07 769.336 290.43 769.336C291.246 769.336 291.822 769.464 292.462 769.736L292.03 770.84C291.518 770.616 291.022 770.456 290.414 770.456C289.598 770.456 289.07 770.712 289.07 771.352C289.07 771.912 289.55 772.136 289.854 772.28L291.278 772.952C292.27 773.416 292.686 774.008 292.686 774.824ZM299.046 774.824C299.046 776.184 297.974 777.16 296.374 777.16C295.606 777.16 294.838 777.048 294.23 776.76L294.614 775.64C295.142 775.88 295.734 776.072 296.31 776.072C297.174 776.072 297.75 775.736 297.75 775.032C297.75 774.488 297.462 774.264 296.966 774.04L295.574 773.4C295.078 773.176 294.182 772.728 294.182 771.432C294.182 770.008 295.43 769.336 296.79 769.336C297.606 769.336 298.182 769.464 298.822 769.736L298.39 770.84C297.878 770.616 297.382 770.456 296.774 770.456C295.958 770.456 295.43 770.712 295.43 771.352C295.43 771.912 295.91 772.136 296.214 772.28L297.638 772.952C298.63 773.416 299.046 774.008 299.046 774.824Z" fill="white"/>
<defs>
<clipPath id="clip0_982_39009">
<rect width="375" height="812" fill="white"/>
</clipPath>
<clipPath id="clip1_982_39009">
<rect width="375" height="642" fill="white" transform="translate(0 106)"/>
</clipPath>
<clipPath id="clip2_982_39009">
<rect width="342.998" height="24" fill="white" transform="translate(16.001 238)"/>
</clipPath>
<clipPath id="clip3_982_39009">
<rect width="153" height="36" fill="white" transform="translate(206 386)"/>
</clipPath>
</defs>
</svg>
