<svg width="375" height="812" viewBox="0 0 375 812" fill="none" xmlns="http://www.w3.org/2000/svg">
<g clip-path="url(#clip0_393_69775)">
<rect width="375" height="812" fill="white"/>
<path d="M343.99 22.17H357.993C359.556 22.17 360.823 23.4371 360.823 25.0001V29.6729C360.823 31.2359 359.556 32.503 357.993 32.503H343.99C342.427 32.503 341.16 31.2359 341.16 29.6729V25.0001C341.16 23.4371 342.427 22.17 343.99 22.17Z" stroke="#00157E"/>
<path d="M362.33 25.3367V29.3367C363.135 28.9979 363.658 28.2098 363.658 27.3367C363.658 26.4635 363.135 25.6754 362.33 25.3367" fill="#00157E"/>
<rect x="342.66" y="23.67" width="16.66" height="7.33333" rx="1.33333" fill="#00157E"/>
<path d="M325.427 30.0606C326.702 28.9817 328.571 28.9817 329.847 30.0606C329.911 30.1186 329.947 30.2007 329.949 30.2871C329.951 30.3736 329.917 30.457 329.855 30.5176L327.858 32.5332C327.8 32.5924 327.72 32.626 327.637 32.626C327.553 32.626 327.474 32.5924 327.415 32.5332L325.417 30.5176C325.355 30.457 325.321 30.3735 325.323 30.2871C325.325 30.2007 325.363 30.1185 325.427 30.0606ZM322.762 27.3711C325.51 24.8151 329.766 24.8151 332.514 27.3711C332.576 27.431 332.611 27.5135 332.612 27.5996C332.613 27.6858 332.579 27.7689 332.519 27.8301L331.364 28.9971C331.245 29.1162 331.053 29.1188 330.931 29.003C330.028 28.1858 328.854 27.7334 327.637 27.7334C326.42 27.7339 325.247 28.1863 324.345 29.003C324.223 29.1188 324.03 29.1162 323.911 28.9971L322.757 27.8301C322.696 27.769 322.662 27.6857 322.663 27.5996C322.664 27.5135 322.7 27.431 322.762 27.3711ZM320.097 24.6895C324.312 20.6503 330.962 20.6501 335.177 24.6895C335.238 24.7494 335.272 24.8316 335.272 24.917C335.273 25.0026 335.239 25.0848 335.179 25.1455L334.022 26.3125C333.903 26.432 333.711 26.4332 333.59 26.3155C331.984 24.7887 329.853 23.9376 327.637 23.9375C325.421 23.9375 323.289 24.7886 321.683 26.3155C321.562 26.4334 321.369 26.4322 321.25 26.3125L320.094 25.1455C320.033 25.0848 319.999 25.0026 320 24.917C320.001 24.8315 320.036 24.7494 320.097 24.6895Z" fill="#00157E"/>
<path d="M299.66 28.667C300.212 28.667 300.66 29.1147 300.66 29.667V31.667C300.66 32.2191 300.212 32.667 299.66 32.667H298.66C298.108 32.667 297.66 32.2191 297.66 31.667V29.667C297.66 29.1147 298.108 28.667 298.66 28.667H299.66ZM304.327 26.667C304.879 26.6672 305.327 27.1148 305.327 27.667V31.667C305.327 32.219 304.879 32.6668 304.327 32.667H303.327C302.775 32.667 302.327 32.2191 302.327 31.667V27.667C302.327 27.1147 302.775 26.667 303.327 26.667H304.327ZM308.993 24.333C309.545 24.333 309.993 24.7809 309.993 25.333V31.667C309.993 32.2191 309.545 32.667 308.993 32.667H307.993C307.441 32.6668 306.993 32.219 306.993 31.667V25.333C306.993 24.781 307.441 24.3332 307.993 24.333H308.993ZM313.66 22C314.212 22 314.66 22.4477 314.66 23V31.667C314.66 32.2191 314.212 32.667 313.66 32.667H312.66C312.108 32.667 311.66 32.2191 311.66 31.667V23C311.66 22.4477 312.108 22 312.66 22H313.66Z" fill="#00157E"/>
<path d="M32.1846 21.9175C34.4405 21.9175 36.4034 23.5215 36.4034 27.3301V27.3447C36.4034 30.9043 34.7994 33.0137 32.1407 33.0137C30.1998 33.0137 28.7496 31.8638 28.4127 30.2451L28.398 30.1646H30.2584L30.2804 30.2378C30.5587 30.9775 31.2105 31.4609 32.1407 31.4609C33.8179 31.4609 34.5284 29.8203 34.609 27.7988C34.609 27.7183 34.6163 27.6377 34.6163 27.5571H34.4698C34.0816 28.3921 33.1588 29.1318 31.7086 29.1318C29.6798 29.1318 28.2589 27.6523 28.2589 25.6455V25.6309C28.2589 23.4849 29.8922 21.9175 32.1846 21.9175ZM32.1773 27.6816C33.3712 27.6816 34.2867 26.8174 34.2867 25.6235V25.6089C34.2867 24.4004 33.3712 23.4556 32.1993 23.4556C31.0347 23.4556 30.1046 24.3857 30.1046 25.5649V25.5796C30.1046 26.8027 30.9762 27.6816 32.1773 27.6816ZM39.4486 25.9019C38.7821 25.9019 38.284 25.3892 38.284 24.7446C38.284 24.0928 38.7821 23.5874 39.4486 23.5874C40.1224 23.5874 40.6131 24.0928 40.6131 24.7446C40.6131 25.3892 40.1224 25.9019 39.4486 25.9019ZM39.4486 31.3364C38.7821 31.3364 38.284 30.8311 38.284 30.1792C38.284 29.5273 38.7821 29.022 39.4486 29.022C40.1224 29.022 40.6131 29.5273 40.6131 30.1792C40.6131 30.8311 40.1224 31.3364 39.4486 31.3364ZM47.6207 32.75V30.7212H42.4498V29.1758C43.8195 26.7954 45.3209 24.3638 46.7565 22.1812H49.4298V29.1611H50.8507V30.7212H49.4298V32.75H47.6207ZM44.2077 29.2051H47.65V23.6899H47.5402C46.4562 25.3452 45.233 27.3008 44.2077 29.0952V29.2051ZM54.9506 32.75V24.0415H54.8261L52.1967 25.9019V24.1221L54.9579 22.1812H56.8403V32.75H54.9506Z" fill="#00157E"/>
<path d="M20 51H315C316.657 51 318 52.3431 318 54V86C318 87.6569 316.657 89 315 89H20C18.3431 89 17 87.6569 17 86V54C17 52.3431 18.3431 51 20 51Z" fill="white"/>
<path d="M20 51H315C316.657 51 318 52.3431 318 54V86C318 87.6569 316.657 89 315 89H20C18.3431 89 17 87.6569 17 86V54C17 52.3431 18.3431 51 20 51Z" stroke="#00157E" stroke-width="2"/>
<path d="M39 77C43.4183 77 47 73.4183 47 69C47 64.5817 43.4183 61 39 61C34.5817 61 31 64.5817 31 69C31 73.4183 34.5817 77 39 77Z" stroke="#00157E" stroke-width="2" stroke-linecap="round" stroke-linejoin="round"/>
<path d="M49 79L44.65 74.65" stroke="#00157E" stroke-width="2" stroke-linecap="round" stroke-linejoin="round"/>
<path d="M68.8208 75H67.4768V70.6H63.1408V75H61.7968V65.368H63.1408V69.464H67.4768V65.368H68.8208V75ZM76.3483 74.92L75.0683 75.128L74.9563 74.248H74.9403C74.3963 74.76 73.8043 75.192 72.9083 75.192C71.6603 75.192 70.9243 74.44 70.9243 73.256C70.9243 71.912 71.9803 71.256 73.5003 71.096L74.8443 70.952V70.28C74.8443 69.24 74.5243 68.504 73.2923 68.504C72.6683 68.504 72.2043 68.696 71.7403 68.936L71.2763 67.992C71.9483 67.592 72.6363 67.336 73.5963 67.336C75.1003 67.336 76.1083 68.216 76.1083 69.704V73.272L76.3483 74.92ZM74.8443 73.448V71.816L73.6763 71.976C72.7163 72.104 72.1883 72.408 72.1883 73.096C72.1883 73.72 72.5723 74.136 73.2123 74.136C73.9643 74.136 74.4283 73.816 74.8443 73.448ZM84.3663 75H83.0863V70.136C83.0863 69.032 82.6703 68.472 81.6623 68.472C80.9423 68.472 80.4303 68.776 79.9663 69.192V75H78.6863V69.24L78.4622 67.592L79.7263 67.384L79.8543 68.264H79.8703C80.4303 67.72 81.1663 67.336 82.0943 67.336C83.3583 67.336 84.3663 68.152 84.3663 69.688V75ZM91.2254 72.824C91.2254 74.184 90.1534 75.16 88.5534 75.16C87.7854 75.16 87.0174 75.048 86.4094 74.76L86.7934 73.64C87.3214 73.88 87.9134 74.072 88.4894 74.072C89.3534 74.072 89.9294 73.736 89.9294 73.032C89.9294 72.488 89.6414 72.264 89.1454 72.04L87.7534 71.4C87.2574 71.176 86.3614 70.728 86.3614 69.432C86.3614 68.008 87.6094 67.336 88.9694 67.336C89.7854 67.336 90.3614 67.464 91.0014 67.736L90.5694 68.84C90.0574 68.616 89.5614 68.456 88.9534 68.456C88.1374 68.456 87.6094 68.712 87.6094 69.352C87.6094 69.912 88.0894 70.136 88.3934 70.28L89.8174 70.952C90.8094 71.416 91.2254 72.008 91.2254 72.824ZM106.48 74.968L105.2 75.064L104.928 67.608H104.912L102.08 75H100.688L98.0161 67.624H98.0001L97.6161 75H96.4481L97.0721 65.368H98.4801L101.504 73.4H101.52L104.576 65.368H105.968L106.48 74.968ZM114.058 74.6C113.338 75 112.602 75.176 111.69 75.176C109.482 75.176 108.346 73.688 108.346 71.208C108.346 68.888 109.562 67.336 111.45 67.336C113.258 67.336 113.994 68.536 113.994 70.184V71.08H109.594C109.61 73.08 110.33 74.04 111.962 74.04C112.586 74.04 113.066 73.864 113.61 73.592L114.058 74.6ZM112.794 70.184C112.794 69.064 112.378 68.36 111.386 68.36C110.426 68.36 109.818 69.112 109.658 70.184H112.794ZM121.392 67.512L118.896 74.312C118.096 76.52 117.024 77.848 114.415 78.376L114.175 77.336C116.08 76.952 117.088 75.8 117.584 74.552L114.896 67.624L116.16 67.288L118.224 72.856H118.24L120.128 67.512H121.392ZM127.98 74.6C127.26 75 126.524 75.176 125.612 75.176C123.404 75.176 122.268 73.688 122.268 71.208C122.268 68.888 123.484 67.336 125.372 67.336C127.18 67.336 127.916 68.536 127.916 70.184V71.08H123.516C123.532 73.08 124.252 74.04 125.884 74.04C126.508 74.04 126.988 73.864 127.532 73.592L127.98 74.6ZM126.716 70.184C126.716 69.064 126.3 68.36 125.308 68.36C124.348 68.36 123.74 69.112 123.58 70.184H126.716ZM133.249 68.616C132.385 68.616 131.745 68.84 131.169 69.368V75H129.889V69.24L129.665 67.592L130.929 67.384L131.057 68.408H131.073C131.585 67.832 132.257 67.352 133.249 67.352V68.616Z" fill="#00157E"/>
<path d="M295 80C300.523 80 305 75.5228 305 70C305 64.4772 300.523 60 295 60C289.477 60 285 64.4772 285 70C285 75.5228 289.477 80 295 80Z" stroke="#00157E" stroke-width="2" stroke-linecap="round" stroke-linejoin="round"/>
<path d="M298 67L292 73" stroke="#00157E" stroke-width="2" stroke-linecap="round" stroke-linejoin="round"/>
<path d="M292 67L298 73" stroke="#00157E" stroke-width="2" stroke-linecap="round" stroke-linejoin="round"/>
<path d="M349 64L337 76" stroke="#00157E" stroke-width="2" stroke-linecap="round" stroke-linejoin="round"/>
<path d="M337 64L349 76" stroke="#00157E" stroke-width="2" stroke-linecap="round" stroke-linejoin="round"/>
<g clip-path="url(#clip1_393_69775)">
<path d="M22.552 117.734L21.516 118.238L19.15 114.402C18.94 114.43 18.744 114.444 18.534 114.444H18.324V118H17.162V109.642C17.162 109.642 18.226 109.488 19.318 109.488C20.942 109.488 21.964 110.272 21.964 111.602C21.964 112.89 21.222 113.688 20.228 114.08L22.552 117.734ZM20.83 111.812C20.83 110.804 20.13 110.37 19.122 110.37C18.674 110.37 18.324 110.412 18.324 110.412V113.59H18.506C19.64 113.59 20.83 113.114 20.83 111.812ZM28.4513 117.65C27.8213 118 27.1773 118.154 26.3792 118.154C24.4473 118.154 23.4533 116.852 23.4533 114.682C23.4533 112.652 24.5173 111.294 26.1693 111.294C27.7513 111.294 28.3953 112.344 28.3953 113.786V114.57H24.5453C24.5593 116.32 25.1893 117.16 26.6173 117.16C27.1633 117.16 27.5833 117.006 28.0593 116.768L28.4513 117.65ZM27.3453 113.786C27.3453 112.806 26.9813 112.19 26.1133 112.19C25.2733 112.19 24.7413 112.848 24.6013 113.786H27.3453ZM34.35 111.574L34 112.582C33.636 112.442 33.23 112.316 32.768 112.316C31.536 112.316 30.794 113.24 30.794 114.626C30.794 116.376 31.48 117.174 32.74 117.174C33.188 117.174 33.552 117.02 33.916 116.866L34.294 117.776C33.748 118.028 33.146 118.154 32.516 118.154C30.64 118.154 29.674 116.81 29.674 114.808C29.674 112.4 31.158 111.294 32.824 111.294C33.398 111.294 33.888 111.392 34.35 111.574ZM40.7974 114.724C40.7974 116.642 39.8874 118.154 37.9974 118.154C35.9254 118.154 35.1974 116.684 35.1974 114.724C35.1974 112.806 36.1074 111.294 37.9974 111.294C40.0694 111.294 40.7974 112.764 40.7974 114.724ZM39.6494 114.752C39.6494 113.128 39.1034 112.274 37.9974 112.274C36.9194 112.274 36.3454 113.03 36.3454 114.682C36.3454 116.306 36.8914 117.174 37.9974 117.174C39.0754 117.174 39.6494 116.404 39.6494 114.752ZM51.383 118H50.277V113.744C50.277 112.778 49.913 112.288 49.017 112.288C48.387 112.288 47.855 112.596 47.505 112.946C47.505 112.946 47.547 113.184 47.547 113.436V118H46.427V113.744C46.427 112.778 46.063 112.288 45.181 112.288C44.551 112.288 44.103 112.54 43.697 112.918V118H42.577V112.96L42.381 111.518L43.487 111.336L43.599 112.106H43.613C44.103 111.63 44.747 111.294 45.559 111.294C46.315 111.294 46.945 111.63 47.281 112.232H47.295C47.813 111.714 48.485 111.294 49.409 111.294C50.529 111.294 51.383 112.008 51.383 113.352V118ZM62.4162 118H61.3102V113.744C61.3102 112.778 60.9462 112.288 60.0502 112.288C59.4202 112.288 58.8882 112.596 58.5382 112.946C58.5382 112.946 58.5802 113.184 58.5802 113.436V118H57.4602V113.744C57.4602 112.778 57.0962 112.288 56.2142 112.288C55.5842 112.288 55.1362 112.54 54.7302 112.918V118H53.6102V112.96L53.4142 111.518L54.5202 111.336L54.6322 112.106H54.6462C55.1362 111.63 55.7802 111.294 56.5922 111.294C57.3482 111.294 57.9782 111.63 58.3142 112.232H58.3282C58.8462 111.714 59.5182 111.294 60.4422 111.294C61.5622 111.294 62.4162 112.008 62.4162 113.352V118ZM69.1934 117.65C68.5634 118 67.9194 118.154 67.1214 118.154C65.1894 118.154 64.1954 116.852 64.1954 114.682C64.1954 112.652 65.2594 111.294 66.9114 111.294C68.4934 111.294 69.1374 112.344 69.1374 113.786V114.57H65.2874C65.3014 116.32 65.9314 117.16 67.3594 117.16C67.9054 117.16 68.3254 117.006 68.8014 116.768L69.1934 117.65ZM68.0874 113.786C68.0874 112.806 67.7234 112.19 66.8554 112.19C66.0154 112.19 65.4834 112.848 65.3434 113.786H68.0874ZM75.8341 118H74.7141V113.744C74.7141 112.778 74.3501 112.288 73.4681 112.288C72.8381 112.288 72.3901 112.554 71.9841 112.918V118H70.8641V112.96L70.6681 111.518L71.7741 111.336L71.8861 112.106H71.9001C72.3901 111.63 73.0341 111.294 73.8461 111.294C74.9521 111.294 75.8341 112.008 75.8341 113.352V118ZM82.9559 117.958L81.8779 118.112L81.7799 117.454H81.7659C81.3459 117.804 80.7719 118.154 80.0019 118.154C78.5599 118.154 77.5939 116.964 77.5939 115.018C77.5939 112.764 78.7559 111.378 80.7439 111.378C81.2759 111.378 81.6539 111.476 81.6539 111.476V110.062L81.4439 108.62L82.7599 108.438V116.516L82.9559 117.958ZM80.3939 117.174C80.9399 117.174 81.3179 116.95 81.6539 116.684V112.498C81.6539 112.498 81.2899 112.316 80.6459 112.316C79.3719 112.316 78.7419 113.394 78.7419 114.668C78.7419 116.25 79.1619 117.174 80.3939 117.174ZM89.5509 117.65C88.9209 118 88.2769 118.154 87.4789 118.154C85.5469 118.154 84.5529 116.852 84.5529 114.682C84.5529 112.652 85.6169 111.294 87.2689 111.294C88.8509 111.294 89.4949 112.344 89.4949 113.786V114.57H85.6449C85.6589 116.32 86.2889 117.16 87.7169 117.16C88.2629 117.16 88.6829 117.006 89.1589 116.768L89.5509 117.65ZM88.4449 113.786C88.4449 112.806 88.0809 112.19 87.2129 112.19C86.3729 112.19 85.8409 112.848 85.7009 113.786H88.4449ZM96.1356 117.958L95.0576 118.112L94.9596 117.454H94.9456C94.5256 117.804 93.9516 118.154 93.1816 118.154C91.7396 118.154 90.7736 116.964 90.7736 115.018C90.7736 112.764 91.9356 111.378 93.9236 111.378C94.4556 111.378 94.8336 111.476 94.8336 111.476V110.062L94.6236 108.62L95.9396 108.438V116.516L96.1356 117.958ZM93.5736 117.174C94.1196 117.174 94.4976 116.95 94.8336 116.684V112.498C94.8336 112.498 94.4696 112.316 93.8256 112.316C92.5516 112.316 91.9216 113.394 91.9216 114.668C91.9216 116.25 92.3416 117.174 93.5736 117.174ZM104.06 112.414C103.304 112.414 102.744 112.61 102.24 113.072V118H101.12V112.96L100.924 111.518L102.03 111.336L102.142 112.232H102.156C102.604 111.728 103.192 111.308 104.06 111.308V112.414ZM109.813 117.65C109.183 118 108.539 118.154 107.741 118.154C105.809 118.154 104.815 116.852 104.815 114.682C104.815 112.652 105.879 111.294 107.531 111.294C109.113 111.294 109.757 112.344 109.757 113.786V114.57H105.907C105.921 116.32 106.551 117.16 107.979 117.16C108.525 117.16 108.945 117.006 109.421 116.768L109.813 117.65ZM108.707 113.786C108.707 112.806 108.343 112.19 107.475 112.19C106.635 112.19 106.103 112.848 105.963 113.786H108.707ZM115.711 111.574L115.361 112.582C114.997 112.442 114.591 112.316 114.129 112.316C112.897 112.316 112.155 113.24 112.155 114.626C112.155 116.376 112.841 117.174 114.101 117.174C114.549 117.174 114.913 117.02 115.277 116.866L115.655 117.776C115.109 118.028 114.507 118.154 113.877 118.154C112.001 118.154 111.035 116.81 111.035 114.808C111.035 112.4 112.519 111.294 114.185 111.294C114.759 111.294 115.249 111.392 115.711 111.574ZM118.401 118H117.281V112.96L117.085 111.518L118.401 111.336V118ZM118.625 109.74C118.625 110.188 118.275 110.524 117.855 110.524C117.421 110.524 117.057 110.188 117.057 109.74C117.057 109.292 117.421 108.942 117.855 108.942C118.275 108.942 118.625 109.292 118.625 109.74ZM125.795 114.402C125.795 116.53 124.871 118.07 122.687 118.07C122.323 118.07 122.029 118.042 121.763 117.972V120.772L120.643 120.954V112.96L120.447 111.518L121.553 111.336L121.651 112.008H121.665C122.099 111.644 122.673 111.294 123.429 111.294C125.025 111.294 125.795 112.498 125.795 114.402ZM124.675 114.724C124.675 113.296 124.353 112.302 123.051 112.302C122.491 112.302 122.085 112.54 121.763 112.806V116.936C122.029 117.048 122.337 117.118 122.771 117.118C123.989 117.118 124.675 116.166 124.675 114.724ZM128.723 118H127.603V112.96L127.407 111.518L128.723 111.336V118ZM128.947 109.74C128.947 110.188 128.597 110.524 128.177 110.524C127.743 110.524 127.379 110.188 127.379 109.74C127.379 109.292 127.743 108.942 128.177 108.942C128.597 108.942 128.947 109.292 128.947 109.74ZM135.516 117.65C134.886 118 134.242 118.154 133.444 118.154C131.512 118.154 130.518 116.852 130.518 114.682C130.518 112.652 131.582 111.294 133.234 111.294C134.816 111.294 135.46 112.344 135.46 113.786V114.57H131.61C131.624 116.32 132.254 117.16 133.682 117.16C134.228 117.16 134.648 117.006 135.124 116.768L135.516 117.65ZM134.41 113.786C134.41 112.806 134.046 112.19 133.178 112.19C132.338 112.19 131.806 112.848 131.666 113.786H134.41ZM142.156 118H141.036V113.744C141.036 112.778 140.672 112.288 139.79 112.288C139.16 112.288 138.712 112.554 138.306 112.918V118H137.186V112.96L136.99 111.518L138.096 111.336L138.208 112.106H138.222C138.712 111.63 139.356 111.294 140.168 111.294C141.274 111.294 142.156 112.008 142.156 113.352V118ZM147.64 117.734C147.234 117.958 146.856 118.14 146.142 118.14C145.134 118.14 144.49 117.482 144.49 116.362V112.358H143.524V111.616L144.49 111.42V110.328L145.596 110.188V111.448H147.43V112.358H145.596V115.984C145.596 116.866 145.82 117.146 146.464 117.146C146.814 117.146 147.08 117.006 147.276 116.88L147.64 117.734ZM152.93 116.096C152.93 117.286 151.992 118.14 150.592 118.14C149.92 118.14 149.248 118.042 148.716 117.79L149.052 116.81C149.514 117.02 150.032 117.188 150.536 117.188C151.292 117.188 151.796 116.894 151.796 116.278C151.796 115.802 151.544 115.606 151.11 115.41L149.892 114.85C149.458 114.654 148.674 114.262 148.674 113.128C148.674 111.882 149.766 111.294 150.956 111.294C151.67 111.294 152.174 111.406 152.734 111.644L152.356 112.61C151.908 112.414 151.474 112.274 150.942 112.274C150.228 112.274 149.766 112.498 149.766 113.058C149.766 113.548 150.186 113.744 150.452 113.87L151.698 114.458C152.566 114.864 152.93 115.382 152.93 116.096Z" fill="#00157E" fill-opacity="0.7"/>
<mask id="path-19-inside-1_393_69775" fill="white">
<path d="M0 126.001H375V182.001H0V126.001Z"/>
</mask>
<path d="M0 126.001H375V182.001H0V126.001Z" fill="white"/>
<path d="M375 182.001V181.001H0V182.001V183.001H375V182.001Z" fill="#00157E" fill-opacity="0.2" mask="url(#path-19-inside-1_393_69775)"/>
<path d="M36 163.001V161.001C36 159.94 35.5786 158.923 34.8284 158.173C34.0783 157.422 33.0609 157.001 32 157.001H24C22.9391 157.001 21.9217 157.422 21.1716 158.173C20.4214 158.923 20 159.94 20 161.001V163.001" stroke="#00157E" stroke-width="2" stroke-linecap="round" stroke-linejoin="round"/>
<path d="M28 153.001C30.2091 153.001 32 151.21 32 149.001C32 146.792 30.2091 145.001 28 145.001C25.7909 145.001 24 146.792 24 149.001C24 151.21 25.7909 153.001 28 153.001Z" stroke="#00157E" stroke-width="2" stroke-linecap="round" stroke-linejoin="round"/>
<path d="M63.308 150.501H62.132V146.651H58.338V150.501H57.162V142.073H58.338V145.657H62.132V142.073H63.308V150.501ZM69.8946 150.431L68.7746 150.613L68.6766 149.843H68.6626C68.1866 150.291 67.6686 150.669 66.8846 150.669C65.7926 150.669 65.1486 150.011 65.1486 148.975C65.1486 147.799 66.0726 147.225 67.4026 147.085L68.5786 146.959V146.371C68.5786 145.461 68.2986 144.817 67.2206 144.817C66.6746 144.817 66.2686 144.985 65.8626 145.195L65.4566 144.369C66.0446 144.019 66.6466 143.795 67.4866 143.795C68.8026 143.795 69.6846 144.565 69.6846 145.867V148.989L69.8946 150.431ZM68.5786 149.143V147.715L67.5566 147.855C66.7166 147.967 66.2546 148.233 66.2546 148.835C66.2546 149.381 66.5906 149.745 67.1506 149.745C67.8086 149.745 68.2146 149.465 68.5786 149.143ZM76.9103 150.501H75.7903V146.245C75.7903 145.279 75.4263 144.789 74.5443 144.789C73.9143 144.789 73.4663 145.055 73.0603 145.419V150.501H71.9403V145.461L71.7443 144.019L72.8503 143.837L72.9623 144.607H72.9763C73.4663 144.131 74.1103 143.795 74.9223 143.795C76.0283 143.795 76.9103 144.509 76.9103 145.853V150.501ZM82.912 148.597C82.912 149.787 81.974 150.641 80.574 150.641C79.902 150.641 79.23 150.543 78.698 150.291L79.034 149.311C79.496 149.521 80.014 149.689 80.518 149.689C81.274 149.689 81.778 149.395 81.778 148.779C81.778 148.303 81.526 148.107 81.092 147.911L79.874 147.351C79.44 147.155 78.656 146.763 78.656 145.629C78.656 144.383 79.748 143.795 80.938 143.795C81.652 143.795 82.156 143.907 82.716 144.145L82.338 145.111C81.89 144.915 81.456 144.775 80.924 144.775C80.21 144.775 79.748 144.999 79.748 145.559C79.748 146.049 80.168 146.245 80.434 146.371L81.68 146.959C82.548 147.365 82.912 147.883 82.912 148.597ZM96.26 150.473L95.14 150.557L94.902 144.033H94.888L92.41 150.501H91.192L88.854 144.047H88.84L88.504 150.501H87.482L88.028 142.073H89.26L91.906 149.101H91.92L94.594 142.073H95.812L96.26 150.473ZM102.891 150.151C102.261 150.501 101.617 150.655 100.819 150.655C98.8867 150.655 97.8927 149.353 97.8927 147.183C97.8927 145.153 98.9567 143.795 100.609 143.795C102.191 143.795 102.835 144.845 102.835 146.287V147.071H98.9847C98.9987 148.821 99.6287 149.661 101.057 149.661C101.603 149.661 102.023 149.507 102.499 149.269L102.891 150.151ZM101.785 146.287C101.785 145.307 101.421 144.691 100.553 144.691C99.7127 144.691 99.1807 145.349 99.0407 146.287H101.785ZM109.307 143.949L107.123 149.899C106.423 151.831 105.485 152.993 103.203 153.455L102.993 152.545C104.659 152.209 105.541 151.201 105.975 150.109L103.623 144.047L104.729 143.753L106.535 148.625H106.549L108.201 143.949H109.307ZM115.072 150.151C114.442 150.501 113.798 150.655 113 150.655C111.068 150.655 110.074 149.353 110.074 147.183C110.074 145.153 111.138 143.795 112.79 143.795C114.372 143.795 115.016 144.845 115.016 146.287V147.071H111.166C111.18 148.821 111.81 149.661 113.238 149.661C113.784 149.661 114.204 149.507 114.68 149.269L115.072 150.151ZM113.966 146.287C113.966 145.307 113.602 144.691 112.734 144.691C111.894 144.691 111.362 145.349 111.222 146.287H113.966ZM119.683 144.915C118.927 144.915 118.367 145.111 117.863 145.573V150.501H116.743V145.461L116.547 144.019L117.653 143.837L117.765 144.733H117.779C118.227 144.229 118.815 143.809 119.683 143.809V144.915Z" fill="#00157E"/>
<path d="M61.964 165.129C61.292 165.477 60.608 165.633 59.696 165.633C57.932 165.633 56.576 164.445 56.576 162.045C56.576 159.489 58.088 158.145 60.032 158.145C60.836 158.145 61.328 158.265 61.94 158.529L61.556 159.405C61.1 159.201 60.668 159.045 60.02 159.045C58.76 159.045 57.608 160.017 57.608 161.793C57.608 163.773 58.34 164.745 60.092 164.745C60.668 164.745 61.196 164.517 61.628 164.325L61.964 165.129ZM68.4867 165.501H67.4787V162.201H64.2267V165.501H63.2187V158.277H64.2267V161.349H67.4787V158.277H68.4867V165.501ZM74.4203 165.501H69.9683V164.877L72.0203 162.909C72.5723 162.369 72.9923 161.973 72.9923 161.313C72.9923 160.617 72.5603 160.101 71.7563 160.101C71.2163 160.101 70.8323 160.341 70.5443 160.581L70.0883 159.945C70.6043 159.513 71.1323 159.249 71.9603 159.249C73.1483 159.249 73.9643 159.945 73.9643 161.205C73.9643 162.045 73.4603 162.681 72.8843 163.209L71.3483 164.625V164.637H74.4203V165.501ZM80.3172 162.441C80.3172 164.037 79.6932 165.633 77.8812 165.633C76.0572 165.633 75.4332 164.037 75.4332 162.441C75.4332 160.845 76.0572 159.249 77.8812 159.249C79.6932 159.249 80.3172 160.845 80.3172 162.441ZM79.3332 162.441C79.3332 161.097 78.8892 160.089 77.8812 160.089C76.8612 160.089 76.4172 161.097 76.4172 162.441C76.4172 163.785 76.8612 164.793 77.8812 164.793C78.8892 164.793 79.3332 163.785 79.3332 162.441ZM85.2398 164.889C85.2398 165.273 84.9278 165.585 84.5558 165.585C84.1718 165.585 83.8598 165.273 83.8598 164.889C83.8598 164.517 84.1718 164.205 84.5558 164.205C84.9278 164.205 85.2398 164.517 85.2398 164.889ZM87.982 164.889C87.982 165.273 87.67 165.585 87.298 165.585C86.914 165.585 86.602 165.273 86.602 164.889C86.602 164.517 86.914 164.205 87.298 164.205C87.67 164.205 87.982 164.517 87.982 164.889ZM90.7242 164.889C90.7242 165.273 90.4122 165.585 90.0402 165.585C89.6562 165.585 89.3442 165.273 89.3442 164.889C89.3442 164.517 89.6562 164.205 90.0402 164.205C90.4122 164.205 90.7242 164.517 90.7242 164.889Z" fill="#00157E" fill-opacity="0.7"/>
<path d="M344 160.001L350 154.001L344 148.001" stroke="#00157E" stroke-width="2" stroke-linecap="round" stroke-linejoin="round"/>
<mask id="path-26-inside-2_393_69775" fill="white">
<path d="M0 182.002H375V238.002H0V182.002Z"/>
</mask>
<path d="M0 182.002H375V238.002H0V182.002Z" fill="white"/>
<path d="M375 238.002V237.002H0V238.002V239.002H375V238.002Z" fill="#00157E" fill-opacity="0.2" mask="url(#path-26-inside-2_393_69775)"/>
<path d="M36 219.002V217.002C36 215.941 35.5786 214.924 34.8284 214.174C34.0783 213.423 33.0609 213.002 32 213.002H24C22.9391 213.002 21.9217 213.423 21.1716 214.174C20.4214 214.924 20 215.941 20 217.002V219.002" stroke="#00157E" stroke-width="2" stroke-linecap="round" stroke-linejoin="round"/>
<path d="M28 209.002C30.2091 209.002 32 207.211 32 205.002C32 202.793 30.2091 201.002 28 201.002C25.7909 201.002 24 202.793 24 205.002C24 207.211 25.7909 209.002 28 209.002Z" stroke="#00157E" stroke-width="2" stroke-linecap="round" stroke-linejoin="round"/>
<path d="M61.558 206.502H57.162V198.074H58.338V205.508H61.558V206.502ZM67.9462 206.432L66.8402 206.614L66.7282 205.858H66.7142C66.2242 206.32 65.5802 206.656 64.7682 206.656C63.6622 206.656 62.7802 205.942 62.7802 204.598V201.462L62.5842 200.02L63.9002 199.838V204.206C63.9002 205.172 64.2642 205.676 65.1462 205.676C65.7762 205.676 66.2242 205.41 66.6302 205.032V201.462L66.4342 200.02L67.7502 199.838V204.99L67.9462 206.432ZM71.0772 206.502H69.9572V198.564L69.7612 197.122L71.0772 196.94V206.502ZM75.2072 206.306L74.0872 206.712L71.1052 202.946L73.4712 199.95H74.7452L72.4212 202.848L75.2072 206.306ZM80.7774 206.432L79.6574 206.614L79.5594 205.844H79.5454C79.0694 206.292 78.5514 206.67 77.7674 206.67C76.6754 206.67 76.0314 206.012 76.0314 204.976C76.0314 203.8 76.9554 203.226 78.2854 203.086L79.4614 202.96V202.372C79.4614 201.462 79.1814 200.818 78.1034 200.818C77.5574 200.818 77.1514 200.986 76.7454 201.196L76.3394 200.37C76.9274 200.02 77.5294 199.796 78.3694 199.796C79.6854 199.796 80.5674 200.566 80.5674 201.868V204.99L80.7774 206.432ZM79.4614 205.144V203.716L78.4394 203.856C77.5994 203.968 77.1374 204.234 77.1374 204.836C77.1374 205.382 77.4734 205.746 78.0334 205.746C78.6914 205.746 79.0974 205.466 79.4614 205.144ZM86.6171 204.598C86.6171 205.788 85.6791 206.642 84.2791 206.642C83.6071 206.642 82.9351 206.544 82.4031 206.292L82.7391 205.312C83.2011 205.522 83.7191 205.69 84.2231 205.69C84.9791 205.69 85.4831 205.396 85.4831 204.78C85.4831 204.304 85.2311 204.108 84.7971 203.912L83.5791 203.352C83.1451 203.156 82.3611 202.764 82.3611 201.63C82.3611 200.384 83.4531 199.796 84.6431 199.796C85.3571 199.796 85.8611 199.908 86.4211 200.146L86.0431 201.112C85.5951 200.916 85.1611 200.776 84.6291 200.776C83.9151 200.776 83.4531 201 83.4531 201.56C83.4531 202.05 83.8731 202.246 84.1391 202.372L85.3851 202.96C86.2531 203.366 86.6171 203.884 86.6171 204.598ZM97.515 206.502H96.339V202.652H92.545V206.502H91.369V198.074H92.545V201.658H96.339V198.074H97.515V206.502ZM104.97 206.432L103.864 206.614L103.752 205.858H103.738C103.248 206.32 102.604 206.656 101.792 206.656C100.686 206.656 99.8036 205.942 99.8036 204.598V201.462L99.6076 200.02L100.924 199.838V204.206C100.924 205.172 101.288 205.676 102.17 205.676C102.8 205.676 103.248 205.41 103.654 205.032V201.462L103.458 200.02L104.774 199.838V204.99L104.97 206.432ZM112.189 202.834C112.189 205.018 111.055 206.642 108.983 206.642C108.255 206.642 107.457 206.516 106.981 206.334V198.564L106.785 197.122L108.101 196.94V200.454H108.115C108.535 200.104 109.095 199.796 109.837 199.796C111.377 199.796 112.189 200.902 112.189 202.834ZM111.055 203.24C111.055 201.798 110.719 200.818 109.445 200.818C108.857 200.818 108.437 201.056 108.101 201.35V205.564C108.381 205.634 108.661 205.676 109.081 205.676C110.383 205.676 111.055 204.57 111.055 203.24ZM118.531 206.152C117.901 206.502 117.257 206.656 116.459 206.656C114.527 206.656 113.533 205.354 113.533 203.184C113.533 201.154 114.597 199.796 116.249 199.796C117.831 199.796 118.475 200.846 118.475 202.288V203.072H114.625C114.639 204.822 115.269 205.662 116.697 205.662C117.243 205.662 117.663 205.508 118.139 205.27L118.531 206.152ZM117.425 202.288C117.425 201.308 117.061 200.692 116.193 200.692C115.353 200.692 114.821 201.35 114.681 202.288H117.425ZM123.142 200.916C122.386 200.916 121.826 201.112 121.322 201.574V206.502H120.202V201.462L120.006 200.02L121.112 199.838L121.224 200.734H121.238C121.686 200.23 122.274 199.81 123.142 199.81V200.916Z" fill="#00157E"/>
<path d="M61.964 221.13C61.292 221.478 60.608 221.634 59.696 221.634C57.932 221.634 56.576 220.446 56.576 218.046C56.576 215.49 58.088 214.146 60.032 214.146C60.836 214.146 61.328 214.266 61.94 214.53L61.556 215.406C61.1 215.202 60.668 215.046 60.02 215.046C58.76 215.046 57.608 216.018 57.608 217.794C57.608 219.774 58.34 220.746 60.092 220.746C60.668 220.746 61.196 220.518 61.628 220.326L61.964 221.13ZM68.4867 221.502H67.4787V218.202H64.2267V221.502H63.2187V214.278H64.2267V217.35H67.4787V214.278H68.4867V221.502ZM74.4203 221.502H69.9683V220.878L72.0203 218.91C72.5723 218.37 72.9923 217.974 72.9923 217.314C72.9923 216.618 72.5603 216.102 71.7563 216.102C71.2163 216.102 70.8323 216.342 70.5443 216.582L70.0883 215.946C70.6043 215.514 71.1323 215.25 71.9603 215.25C73.1483 215.25 73.9643 215.946 73.9643 217.206C73.9643 218.046 73.4603 218.682 72.8843 219.21L71.3483 220.626V220.638H74.4203V221.502ZM80.3172 218.442C80.3172 220.038 79.6932 221.634 77.8812 221.634C76.0572 221.634 75.4332 220.038 75.4332 218.442C75.4332 216.846 76.0572 215.25 77.8812 215.25C79.6932 215.25 80.3172 216.846 80.3172 218.442ZM79.3332 218.442C79.3332 217.098 78.8892 216.09 77.8812 216.09C76.8612 216.09 76.4172 217.098 76.4172 218.442C76.4172 219.786 76.8612 220.794 77.8812 220.794C78.8892 220.794 79.3332 219.786 79.3332 218.442ZM85.2398 220.89C85.2398 221.274 84.9278 221.586 84.5558 221.586C84.1718 221.586 83.8598 221.274 83.8598 220.89C83.8598 220.518 84.1718 220.206 84.5558 220.206C84.9278 220.206 85.2398 220.518 85.2398 220.89ZM87.982 220.89C87.982 221.274 87.67 221.586 87.298 221.586C86.914 221.586 86.602 221.274 86.602 220.89C86.602 220.518 86.914 220.206 87.298 220.206C87.67 220.206 87.982 220.518 87.982 220.89ZM90.7242 220.89C90.7242 221.274 90.4122 221.586 90.0402 221.586C89.6562 221.586 89.3442 221.274 89.3442 220.89C89.3442 220.518 89.6562 220.206 90.0402 220.206C90.4122 220.206 90.7242 220.518 90.7242 220.89Z" fill="#00157E" fill-opacity="0.7"/>
<path d="M344 216.002L350 210.002L344 204.002" stroke="#00157E" stroke-width="2" stroke-linecap="round" stroke-linejoin="round"/>
</g>
</g>
<defs>
<clipPath id="clip0_393_69775">
<rect width="375" height="812" fill="white"/>
</clipPath>
<clipPath id="clip1_393_69775">
<rect width="375" height="722" fill="white" transform="translate(0 90)"/>
</clipPath>
</defs>
</svg>
