<svg width="514" height="88" viewBox="0 0 514 88" fill="none" xmlns="http://www.w3.org/2000/svg">
<path d="M5.55898 16H1.16298V7.572H2.33898V15.006H5.55898V16ZM11.2432 15.93L10.1232 16.112L10.0252 15.342H10.0112C9.5352 15.79 9.0172 16.168 8.2332 16.168C7.1412 16.168 6.4972 15.51 6.4972 14.474C6.4972 13.298 7.4212 12.724 8.7512 12.584L9.9272 12.458V11.87C9.9272 10.96 9.6472 10.316 8.5692 10.316C8.0232 10.316 7.6172 10.484 7.2112 10.694L6.8052 9.868C7.3932 9.518 7.9952 9.294 8.8352 9.294C10.1512 9.294 11.0332 10.064 11.0332 11.366V14.488L11.2432 15.93ZM9.9272 14.642V13.214L8.9052 13.354C8.0652 13.466 7.6032 13.732 7.6032 14.334C7.6032 14.88 7.9392 15.244 8.4992 15.244C9.1572 15.244 9.5632 14.964 9.9272 14.642ZM18.4689 12.332C18.4689 14.516 17.3349 16.14 15.2629 16.14C14.5349 16.14 13.7369 16.014 13.2609 15.832V8.062L13.0649 6.62L14.3809 6.438V9.952H14.3949C14.8149 9.602 15.3749 9.294 16.1169 9.294C17.6569 9.294 18.4689 10.4 18.4689 12.332ZM17.3349 12.738C17.3349 11.296 16.9989 10.316 15.7249 10.316C15.1369 10.316 14.7169 10.554 14.3809 10.848V15.062C14.6609 15.132 14.9409 15.174 15.3609 15.174C16.6629 15.174 17.3349 14.068 17.3349 12.738ZM24.8116 15.65C24.1816 16 23.5376 16.154 22.7396 16.154C20.8076 16.154 19.8136 14.852 19.8136 12.682C19.8136 10.652 20.8776 9.294 22.5296 9.294C24.1116 9.294 24.7556 10.344 24.7556 11.786V12.57H20.9056C20.9196 14.32 21.5496 15.16 22.9776 15.16C23.5236 15.16 23.9436 15.006 24.4196 14.768L24.8116 15.65ZM23.7056 11.786C23.7056 10.806 23.3416 10.19 22.4736 10.19C21.6336 10.19 21.1016 10.848 20.9616 11.786H23.7056ZM27.5743 16H26.4543V8.062L26.2583 6.62L27.5743 6.438V16Z" fill="#00157E" fill-opacity="0.7"/>
<path d="M4 29H510C511.657 29 513 30.3431 513 32V64C513 65.6569 511.657 67 510 67H4C2.34315 67 1 65.6569 1 64V32C1 30.3431 2.34315 29 4 29Z" fill="white"/>
<path d="M4 29H510C511.657 29 513 30.3431 513 32V64C513 65.6569 511.657 67 510 67H4C2.34315 67 1 65.6569 1 64V32C1 30.3431 2.34315 29 4 29Z" stroke="#00157E" stroke-width="2"/>
<path d="M20.8208 53H19.4768V48.6H15.1408V53H13.7968V43.368H15.1408V47.464H19.4768V43.368H20.8208V53ZM28.3483 52.92L27.0683 53.128L26.9563 52.248H26.9403C26.3963 52.76 25.8043 53.192 24.9083 53.192C23.6603 53.192 22.9243 52.44 22.9243 51.256C22.9243 49.912 23.9803 49.256 25.5003 49.096L26.8443 48.952V48.28C26.8443 47.24 26.5243 46.504 25.2923 46.504C24.6683 46.504 24.2043 46.696 23.7403 46.936L23.2763 45.992C23.9483 45.592 24.6363 45.336 25.5963 45.336C27.1003 45.336 28.1083 46.216 28.1083 47.704V51.272L28.3483 52.92ZM26.8443 51.448V49.816L25.6763 49.976C24.7163 50.104 24.1883 50.408 24.1883 51.096C24.1883 51.72 24.5723 52.136 25.2123 52.136C25.9643 52.136 26.4283 51.816 26.8443 51.448ZM36.3663 53H35.0863V48.136C35.0863 47.032 34.6703 46.472 33.6623 46.472C32.9423 46.472 32.4303 46.776 31.9663 47.192V53H30.6863V47.24L30.4622 45.592L31.7263 45.384L31.8543 46.264H31.8703C32.4303 45.72 33.1663 45.336 34.0943 45.336C35.3583 45.336 36.3663 46.152 36.3663 47.688V53ZM43.2254 50.824C43.2254 52.184 42.1534 53.16 40.5534 53.16C39.7854 53.16 39.0174 53.048 38.4094 52.76L38.7934 51.64C39.3214 51.88 39.9134 52.072 40.4894 52.072C41.3534 52.072 41.9294 51.736 41.9294 51.032C41.9294 50.488 41.6414 50.264 41.1454 50.04L39.7534 49.4C39.2574 49.176 38.3614 48.728 38.3614 47.432C38.3614 46.008 39.6094 45.336 40.9694 45.336C41.7854 45.336 42.3614 45.464 43.0014 45.736L42.5694 46.84C42.0574 46.616 41.5614 46.456 40.9534 46.456C40.1374 46.456 39.6094 46.712 39.6094 47.352C39.6094 47.912 40.0894 48.136 40.3934 48.28L41.8174 48.952C42.8094 49.416 43.2254 50.008 43.2254 50.824ZM58.4801 52.968L57.2001 53.064L56.9281 45.608H56.9121L54.0801 53H52.6881L50.0161 45.624H50.0001L49.6161 53H48.4481L49.0721 43.368H50.4801L53.5041 51.4H53.5201L56.5761 43.368H57.9681L58.4801 52.968ZM66.0581 52.6C65.3381 53 64.6021 53.176 63.6901 53.176C61.4821 53.176 60.3461 51.688 60.3461 49.208C60.3461 46.888 61.5621 45.336 63.4501 45.336C65.2581 45.336 65.9941 46.536 65.9941 48.184V49.08H61.5941C61.6101 51.08 62.3301 52.04 63.9621 52.04C64.5861 52.04 65.0661 51.864 65.6101 51.592L66.0581 52.6ZM64.7941 48.184C64.7941 47.064 64.3781 46.36 63.3861 46.36C62.4261 46.36 61.8181 47.112 61.6581 48.184H64.7941ZM73.3915 45.512L70.8955 52.312C70.0955 54.52 69.0235 55.848 66.4155 56.376L66.1755 55.336C68.0795 54.952 69.0875 53.8 69.5835 52.552L66.8955 45.624L68.1595 45.288L70.2235 50.856H70.2395L72.1275 45.512H73.3915ZM79.98 52.6C79.26 53 78.524 53.176 77.612 53.176C75.404 53.176 74.268 51.688 74.268 49.208C74.268 46.888 75.484 45.336 77.372 45.336C79.18 45.336 79.916 46.536 79.916 48.184V49.08H75.516C75.532 51.08 76.252 52.04 77.884 52.04C78.508 52.04 78.988 51.864 79.532 51.592L79.98 52.6ZM78.716 48.184C78.716 47.064 78.3 46.36 77.308 46.36C76.348 46.36 75.74 47.112 75.58 48.184H78.716ZM85.2494 46.616C84.3854 46.616 83.7454 46.84 83.1694 47.368V53H81.8894V47.24L81.6654 45.592L82.9294 45.384L83.0574 46.408H83.0734C83.5854 45.832 84.2574 45.352 85.2494 45.352V46.616Z" fill="#00157E"/>
<path d="M490 58C495.523 58 500 53.5228 500 48C500 42.4772 495.523 38 490 38C484.477 38 480 42.4772 480 48C480 53.5228 484.477 58 490 58Z" stroke="#00157E" stroke-width="2" stroke-linecap="round" stroke-linejoin="round"/>
<path d="M493 45L487 51" stroke="#00157E" stroke-width="2" stroke-linecap="round" stroke-linejoin="round"/>
<path d="M487 45L493 51" stroke="#00157E" stroke-width="2" stroke-linecap="round" stroke-linejoin="round"/>
</svg>
