<svg width="420" height="32" viewBox="0 0 420 32" fill="none" xmlns="http://www.w3.org/2000/svg">
<path d="M22.02 13.659C22.02 15.633 20.41 16.627 18.534 16.627H18.324V20.001H17.162V11.643C17.162 11.643 18.212 11.489 19.318 11.489C20.956 11.489 22.02 12.273 22.02 13.659ZM20.872 13.869C20.872 12.833 20.186 12.371 19.122 12.371C18.674 12.371 18.324 12.427 18.324 12.427V15.731H18.506C19.752 15.731 20.872 15.171 20.872 13.869ZM26.4721 14.415C25.7161 14.415 25.1561 14.611 24.6521 15.073V20.001H23.5321V14.961L23.3361 13.519L24.4421 13.337L24.5541 14.233H24.5681C25.0161 13.729 25.6041 13.309 26.4721 13.309V14.415ZM32.8267 16.725C32.8267 18.643 31.9167 20.155 30.0267 20.155C27.9547 20.155 27.2267 18.685 27.2267 16.725C27.2267 14.807 28.1367 13.295 30.0267 13.295C32.0987 13.295 32.8267 14.765 32.8267 16.725ZM31.6787 16.753C31.6787 15.129 31.1327 14.275 30.0267 14.275C28.9487 14.275 28.3747 15.031 28.3747 16.683C28.3747 18.307 28.9207 19.175 30.0267 19.175C31.1047 19.175 31.6787 18.405 31.6787 16.753ZM39.5203 19.959L38.4423 20.113L38.3443 19.455H38.3303C37.9103 19.805 37.3363 20.155 36.5663 20.155C35.1243 20.155 34.1583 18.965 34.1583 17.019C34.1583 14.765 35.3203 13.379 37.3083 13.379C37.8403 13.379 38.2183 13.477 38.2183 13.477V12.063L38.0083 10.621L39.3243 10.439V18.517L39.5203 19.959ZM36.9583 19.175C37.5043 19.175 37.8823 18.951 38.2183 18.685V14.499C38.2183 14.499 37.8543 14.317 37.2103 14.317C35.9363 14.317 35.3063 15.395 35.3063 16.669C35.3063 18.251 35.7263 19.175 36.9583 19.175ZM46.7313 19.931L45.6253 20.113L45.5133 19.357H45.4993C45.0093 19.819 44.3653 20.155 43.5533 20.155C42.4473 20.155 41.5653 19.441 41.5653 18.097V14.961L41.3693 13.519L42.6853 13.337V17.705C42.6853 18.671 43.0493 19.175 43.9313 19.175C44.5613 19.175 45.0093 18.909 45.4153 18.531V14.961L45.2193 13.519L46.5353 13.337V18.489L46.7313 19.931ZM52.9984 13.575L52.6484 14.583C52.2844 14.443 51.8784 14.317 51.4164 14.317C50.1844 14.317 49.4424 15.241 49.4424 16.627C49.4424 18.377 50.1284 19.175 51.3884 19.175C51.8364 19.175 52.2004 19.021 52.5644 18.867L52.9424 19.777C52.3964 20.029 51.7944 20.155 51.1644 20.155C49.2884 20.155 48.3224 18.811 48.3224 16.809C48.3224 14.401 49.8064 13.295 51.4724 13.295C52.0464 13.295 52.5364 13.393 52.9984 13.575ZM57.9526 19.735C57.5466 19.959 57.1686 20.141 56.4546 20.141C55.4466 20.141 54.8026 19.483 54.8026 18.363V14.359H53.8366V13.617L54.8026 13.421V12.329L55.9086 12.189V13.449H57.7426V14.359H55.9086V17.985C55.9086 18.867 56.1326 19.147 56.7766 19.147C57.1266 19.147 57.3926 19.007 57.5886 18.881L57.9526 19.735Z" fill="#00157E"/>
<path d="M329 19.001V23.001C329 23.5314 328.789 24.0401 328.414 24.4152C328.039 24.7903 327.53 25.001 327 25.001H313C312.47 25.001 311.961 24.7903 311.586 24.4152C311.211 24.0401 311 23.5314 311 23.001V19.001" stroke="#00157E" stroke-width="2" stroke-linecap="round" stroke-linejoin="round"/>
<path d="M315 14.001L320 19.001L325 14.001" stroke="#00157E" stroke-width="2" stroke-linecap="round" stroke-linejoin="round"/>
<path d="M320 19.001V7.00098" stroke="#00157E" stroke-width="2" stroke-linecap="round" stroke-linejoin="round"/>
<path d="M348.064 15.255C348.064 18.335 346.216 20.001 343.22 20.001H341.456V11.629C341.456 11.629 342.618 11.489 343.864 11.489C346.468 11.489 348.064 12.847 348.064 15.255ZM346.846 15.423C346.846 13.435 345.502 12.483 343.668 12.483C343.08 12.483 342.632 12.511 342.632 12.511V18.951H343.444C345.446 18.951 346.846 17.761 346.846 15.423ZM355.001 16.725C355.001 18.643 354.091 20.155 352.201 20.155C350.129 20.155 349.401 18.685 349.401 16.725C349.401 14.807 350.311 13.295 352.201 13.295C354.273 13.295 355.001 14.765 355.001 16.725ZM353.853 16.753C353.853 15.129 353.307 14.275 352.201 14.275C351.123 14.275 350.549 15.031 350.549 16.683C350.549 18.307 351.095 19.175 352.201 19.175C353.279 19.175 353.853 18.405 353.853 16.753ZM364.635 13.449L362.829 19.973L361.793 20.029L360.197 15.059H360.183L358.573 19.987L357.537 20.029L355.899 13.519L356.963 13.253L358.139 18.363H358.153L359.679 13.449H360.771L362.311 18.363H362.325L363.543 13.449H364.635ZM371.075 20.001H369.955V15.745C369.955 14.779 369.591 14.289 368.709 14.289C368.079 14.289 367.631 14.555 367.225 14.919V20.001H366.105V14.961L365.909 13.519L367.015 13.337L367.127 14.107H367.141C367.631 13.631 368.275 13.295 369.087 13.295C370.193 13.295 371.075 14.009 371.075 15.353V20.001ZM374.375 20.001H373.255V12.063L373.059 10.621L374.375 10.439V20.001ZM381.744 16.725C381.744 18.643 380.834 20.155 378.944 20.155C376.872 20.155 376.144 18.685 376.144 16.725C376.144 14.807 377.054 13.295 378.944 13.295C381.016 13.295 381.744 14.765 381.744 16.725ZM380.596 16.753C380.596 15.129 380.05 14.275 378.944 14.275C377.866 14.275 377.292 15.031 377.292 16.683C377.292 18.307 377.838 19.175 378.944 19.175C380.022 19.175 380.596 18.405 380.596 16.753ZM387.821 19.931L386.701 20.113L386.603 19.343H386.589C386.113 19.791 385.595 20.169 384.811 20.169C383.719 20.169 383.075 19.511 383.075 18.475C383.075 17.299 383.999 16.725 385.329 16.585L386.505 16.459V15.871C386.505 14.961 386.225 14.317 385.147 14.317C384.601 14.317 384.195 14.485 383.789 14.695L383.383 13.869C383.971 13.519 384.573 13.295 385.413 13.295C386.729 13.295 387.611 14.065 387.611 15.367V18.489L387.821 19.931ZM386.505 18.643V17.215L385.483 17.355C384.643 17.467 384.181 17.733 384.181 18.335C384.181 18.881 384.517 19.245 385.077 19.245C385.735 19.245 386.141 18.965 386.505 18.643ZM394.781 19.959L393.703 20.113L393.605 19.455H393.591C393.171 19.805 392.597 20.155 391.827 20.155C390.385 20.155 389.419 18.965 389.419 17.019C389.419 14.765 390.581 13.379 392.569 13.379C393.101 13.379 393.479 13.477 393.479 13.477V12.063L393.269 10.621L394.585 10.439V18.517L394.781 19.959ZM392.219 19.175C392.765 19.175 393.143 18.951 393.479 18.685V14.499C393.479 14.499 393.115 14.317 392.471 14.317C391.197 14.317 390.567 15.395 390.567 16.669C390.567 18.251 390.987 19.175 392.219 19.175Z" fill="#00157E"/>
</svg>
