<svg width="420" height="116" viewBox="0 0 420 116" fill="none" xmlns="http://www.w3.org/2000/svg">
<path d="M7.77098 11.254C7.77098 14.334 5.92298 16 2.92698 16H1.16298V7.628C1.16298 7.628 2.32498 7.488 3.57098 7.488C6.17498 7.488 7.77098 8.846 7.77098 11.254ZM6.55298 11.422C6.55298 9.434 5.20898 8.482 3.37498 8.482C2.78698 8.482 2.33898 8.51 2.33898 8.51V14.95H3.15098C5.15298 14.95 6.55298 13.76 6.55298 11.422ZM14.1065 15.65C13.4765 16 12.8325 16.154 12.0345 16.154C10.1025 16.154 9.10852 14.852 9.10852 12.682C9.10852 10.652 10.1725 9.294 11.8245 9.294C13.4065 9.294 14.0505 10.344 14.0505 11.786V12.57H10.2005C10.2145 14.32 10.8445 15.16 12.2725 15.16C12.8185 15.16 13.2385 15.006 13.7145 14.768L14.1065 15.65ZM13.0005 11.786C13.0005 10.806 12.6365 10.19 11.7685 10.19C10.9285 10.19 10.3965 10.848 10.2565 11.786H13.0005ZM20.9572 12.332C20.9572 14.516 19.8232 16.14 17.7512 16.14C17.0232 16.14 16.2252 16.014 15.7492 15.832V8.062L15.5532 6.62L16.8692 6.438V9.952H16.8832C17.3032 9.602 17.8632 9.294 18.6052 9.294C20.1452 9.294 20.9572 10.4 20.9572 12.332ZM19.8232 12.738C19.8232 11.296 19.4872 10.316 18.2132 10.316C17.6252 10.316 17.2052 10.554 16.8692 10.848V15.062C17.1492 15.132 17.4292 15.174 17.8492 15.174C19.1512 15.174 19.8232 14.068 19.8232 12.738ZM23.8979 16H22.7779V10.96L22.5819 9.518L23.8979 9.336V16ZM24.1219 7.74C24.1219 8.188 23.7719 8.524 23.3519 8.524C22.9179 8.524 22.5539 8.188 22.5539 7.74C22.5539 7.292 22.9179 6.942 23.3519 6.942C23.7719 6.942 24.1219 7.292 24.1219 7.74ZM29.4165 15.734C29.0105 15.958 28.6325 16.14 27.9185 16.14C26.9105 16.14 26.2665 15.482 26.2665 14.362V10.358H25.3005V9.616L26.2665 9.42V8.328L27.3725 8.188V9.448H29.2065V10.358H27.3725V13.984C27.3725 14.866 27.5965 15.146 28.2405 15.146C28.5905 15.146 28.8565 15.006 29.0525 14.88L29.4165 15.734ZM38.1494 15.93L37.0294 16.112L36.9314 15.342H36.9174C36.4414 15.79 35.9234 16.168 35.1394 16.168C34.0474 16.168 33.4034 15.51 33.4034 14.474C33.4034 13.298 34.3274 12.724 35.6574 12.584L36.8334 12.458V11.87C36.8334 10.96 36.5534 10.316 35.4754 10.316C34.9294 10.316 34.5234 10.484 34.1174 10.694L33.7114 9.868C34.2994 9.518 34.9014 9.294 35.7414 9.294C37.0574 9.294 37.9394 10.064 37.9394 11.366V14.488L38.1494 15.93ZM36.8334 14.642V13.214L35.8114 13.354C34.9714 13.466 34.5094 13.732 34.5094 14.334C34.5094 14.88 34.8454 15.244 35.4054 15.244C36.0634 15.244 36.4694 14.964 36.8334 14.642ZM44.4232 9.574L44.0732 10.582C43.7092 10.442 43.3032 10.316 42.8412 10.316C41.6092 10.316 40.8672 11.24 40.8672 12.626C40.8672 14.376 41.5532 15.174 42.8132 15.174C43.2612 15.174 43.6252 15.02 43.9892 14.866L44.3672 15.776C43.8212 16.028 43.2192 16.154 42.5892 16.154C40.7132 16.154 39.7472 14.81 39.7472 12.808C39.7472 10.4 41.2312 9.294 42.8972 9.294C43.4712 9.294 43.9612 9.392 44.4232 9.574ZM49.9466 9.574L49.5966 10.582C49.2326 10.442 48.8266 10.316 48.3646 10.316C47.1326 10.316 46.3906 11.24 46.3906 12.626C46.3906 14.376 47.0766 15.174 48.3366 15.174C48.7846 15.174 49.1486 15.02 49.5126 14.866L49.8906 15.776C49.3446 16.028 48.7426 16.154 48.1126 16.154C46.2366 16.154 45.2706 14.81 45.2706 12.808C45.2706 10.4 46.7546 9.294 48.4206 9.294C48.9946 9.294 49.4846 9.392 49.9466 9.574ZM56.3941 12.724C56.3941 14.642 55.4841 16.154 53.5941 16.154C51.5221 16.154 50.7941 14.684 50.7941 12.724C50.7941 10.806 51.7041 9.294 53.5941 9.294C55.6661 9.294 56.3941 10.764 56.3941 12.724ZM55.2461 12.752C55.2461 11.128 54.7001 10.274 53.5941 10.274C52.5161 10.274 51.9421 11.03 51.9421 12.682C51.9421 14.306 52.4881 15.174 53.5941 15.174C54.6721 15.174 55.2461 14.404 55.2461 12.752ZM63.3397 15.93L62.2337 16.112L62.1217 15.356H62.1077C61.6177 15.818 60.9737 16.154 60.1617 16.154C59.0557 16.154 58.1737 15.44 58.1737 14.096V10.96L57.9777 9.518L59.2937 9.336V13.704C59.2937 14.67 59.6577 15.174 60.5397 15.174C61.1697 15.174 61.6177 14.908 62.0237 14.53V10.96L61.8277 9.518L63.1437 9.336V14.488L63.3397 15.93ZM70.3488 16H69.2288V11.744C69.2288 10.778 68.8648 10.288 67.9828 10.288C67.3528 10.288 66.9048 10.554 66.4988 10.918V16H65.3788V10.96L65.1828 9.518L66.2888 9.336L66.4008 10.106H66.4148C66.9048 9.63 67.5488 9.294 68.3608 9.294C69.4668 9.294 70.3488 10.008 70.3488 11.352V16ZM75.8325 15.734C75.4265 15.958 75.0485 16.14 74.3345 16.14C73.3265 16.14 72.6825 15.482 72.6825 14.362V10.358H71.7165V9.616L72.6825 9.42V8.328L73.7885 8.188V9.448H75.6225V10.358H73.7885V13.984C73.7885 14.866 74.0125 15.146 74.6565 15.146C75.0065 15.146 75.2725 15.006 75.4685 14.88L75.8325 15.734Z" fill="#00157E" fill-opacity="0.7"/>
<path d="M0 36C0 31.5817 3.58172 28 8 28H412C416.418 28 420 31.5817 420 36V88C420 92.4183 416.418 96 412 96H8C3.58172 96 0 92.4183 0 88V36Z" fill="white"/>
<path d="M8 28.5H412C416.142 28.5 419.5 31.8579 419.5 36V88C419.5 92.1421 416.142 95.5 412 95.5H8C3.85786 95.5 0.5 92.1421 0.5 88V36C0.5 31.8579 3.85786 28.5 8 28.5Z" stroke="#00157E" stroke-opacity="0.7"/>
<path d="M0 36C0 31.5817 3.58172 28 8 28H412C416.418 28 420 31.5817 420 36V88C420 92.4183 416.418 96 412 96H8C3.58172 96 0 92.4183 0 88V36Z" fill="#00157E" fill-opacity="0.2"/>
<path d="M19 53L28 46L37 53V64C37 64.5304 36.7893 65.0391 36.4142 65.4142C36.0391 65.7893 35.5304 66 35 66H21C20.4696 66 19.9609 65.7893 19.5858 65.4142C19.2107 65.0391 19 64.5304 19 64V53Z" stroke="#00157E" stroke-width="2" stroke-linecap="round" stroke-linejoin="round"/>
<path d="M25 66V56H31V66" stroke="#00157E" stroke-width="2" stroke-linecap="round" stroke-linejoin="round"/>
<path d="M63.616 52H61.74V48.5H58.856V52H56.966V43.572H58.856V46.96H61.74V43.572H63.616V52ZM71.0399 48.668C71.0399 50.656 70.0039 52.154 68.0579 52.154C65.9579 52.154 65.0759 50.67 65.0759 48.668C65.0759 46.68 66.1119 45.224 68.0579 45.224C70.1579 45.224 71.0399 46.666 71.0399 48.668ZM69.2759 48.682C69.2759 47.324 68.8279 46.778 68.0579 46.778C67.2879 46.778 66.8399 47.296 66.8399 48.654C66.8399 49.998 67.2879 50.6 68.0579 50.6C68.8279 50.6 69.2759 50.026 69.2759 48.682ZM78.2373 51.902L76.5293 52.126L76.4313 51.412H76.4173C76.0253 51.79 75.3673 52.168 74.4853 52.168C73.3513 52.168 72.4273 51.496 72.4273 50.012V47.1L72.2033 45.462L74.2053 45.238V49.578C74.2053 50.292 74.4993 50.614 75.1153 50.614C75.5773 50.614 75.9693 50.404 76.2353 50.138V47.1L76.0113 45.462L78.0133 45.238V50.264L78.2373 51.902ZM84.0104 49.872C84.0104 51.146 82.9884 52.154 81.4484 52.154C80.6504 52.154 79.9364 52.028 79.3344 51.748L79.7964 50.292C80.3004 50.502 80.7904 50.712 81.3504 50.712C81.9524 50.712 82.2464 50.502 82.2464 50.152C82.2464 49.83 82.0924 49.704 81.7284 49.55L80.6924 49.116C80.0764 48.864 79.4044 48.402 79.4044 47.31C79.4044 45.938 80.5664 45.21 81.9524 45.21C82.7364 45.21 83.2684 45.336 83.8984 45.602L83.3524 47.03C82.9044 46.848 82.4704 46.666 81.9664 46.666C81.4204 46.666 81.1124 46.82 81.1124 47.184C81.1124 47.534 81.3924 47.66 81.6444 47.758L82.7224 48.192C83.5624 48.528 84.0104 49.06 84.0104 49.872ZM90.4692 51.608C89.7272 51.986 89.1112 52.168 88.2152 52.168C86.0032 52.168 85.0232 50.824 85.0232 48.584C85.0232 46.582 86.2132 45.224 87.9772 45.224C89.8252 45.224 90.4272 46.498 90.4272 48.094V48.878H86.7592C86.8152 50.054 87.3752 50.614 88.4392 50.614C89.0692 50.614 89.4192 50.46 89.9232 50.25L90.4692 51.608ZM88.8732 47.8C88.8732 47.114 88.5792 46.652 87.9212 46.652C87.2212 46.652 86.8712 47.184 86.7872 47.8H88.8732ZM97.3443 52H95.5663V47.8C95.5663 47.142 95.2863 46.778 94.6283 46.778C94.0823 46.778 93.6903 47.1 93.5503 47.226V52H91.7723V44.286L91.5483 42.648L93.5503 42.424V45.826H93.5643C93.7323 45.672 94.3343 45.21 95.3003 45.21C96.4763 45.21 97.3443 45.882 97.3443 47.366V52ZM104.673 48.668C104.673 50.656 103.637 52.154 101.691 52.154C99.5908 52.154 98.7088 50.67 98.7088 48.668C98.7088 46.68 99.7448 45.224 101.691 45.224C103.791 45.224 104.673 46.666 104.673 48.668ZM102.909 48.682C102.909 47.324 102.461 46.778 101.691 46.778C100.921 46.778 100.473 47.296 100.473 48.654C100.473 49.998 100.921 50.6 101.691 50.6C102.461 50.6 102.909 50.026 102.909 48.682ZM107.81 52H106.032V44.272L105.808 42.648L107.81 42.424V52ZM115.048 51.916L113.354 52.126L113.256 51.44H113.242C113.074 51.58 112.528 52.168 111.632 52.168C109.98 52.168 109.154 50.768 109.154 48.92C109.154 46.54 110.512 45.322 112.43 45.322C112.78 45.322 113.046 45.378 113.046 45.378V44.286L112.822 42.648L114.824 42.424V50.278L115.048 51.916ZM112.178 50.586C112.598 50.586 112.92 50.404 113.046 50.292V46.904C113.046 46.904 112.808 46.792 112.374 46.792C111.52 46.792 110.946 47.464 110.946 48.654C110.946 49.984 111.296 50.586 112.178 50.586Z" fill="#00157E"/>
<path d="M61.964 66.628C61.292 66.976 60.608 67.132 59.696 67.132C57.932 67.132 56.576 65.944 56.576 63.544C56.576 60.988 58.088 59.644 60.032 59.644C60.836 59.644 61.328 59.764 61.94 60.028L61.556 60.904C61.1 60.7 60.668 60.544 60.02 60.544C58.76 60.544 57.608 61.516 57.608 63.292C57.608 65.272 58.34 66.244 60.092 66.244C60.668 66.244 61.196 66.016 61.628 65.824L61.964 66.628ZM68.4867 67H67.4787V63.7H64.2267V67H63.2187V59.776H64.2267V62.848H67.4787V59.776H68.4867V67ZM73.9043 66.52C73.9043 67.96 72.9803 68.872 71.3963 68.872C70.9283 68.872 70.4363 68.788 69.9923 68.68L70.2083 67.78C70.6043 67.9 70.9403 67.996 71.4203 67.996C72.3683 67.996 72.9443 67.528 72.9443 66.664C72.9443 65.488 71.8643 65.032 70.3403 65.032V64.348C72.1163 64.24 72.6083 63.448 72.6083 62.668C72.6083 61.984 72.1883 61.6 71.5163 61.6C70.9643 61.6 70.6403 61.78 70.2803 62.02L69.8843 61.36C70.3163 61.024 70.8683 60.748 71.7083 60.748C72.8603 60.748 73.5683 61.432 73.5683 62.548C73.5683 63.52 73.0043 64.168 72.2003 64.552V64.564C73.3763 64.816 73.9043 65.596 73.9043 66.52ZM78.9696 65.92C78.9696 68.224 76.7976 68.872 75.2496 68.992L75.1296 68.176C76.2216 68.056 77.9856 67.624 77.9856 66.052C77.9856 65.068 77.4336 64.492 75.8976 64.492H75.0936L75.3576 60.88H78.7776V61.756H76.1856L76.0296 63.772C76.0296 63.772 76.3056 63.748 76.5576 63.748C77.9496 63.748 78.9696 64.48 78.9696 65.92ZM87.5593 63.94C87.5593 65.536 86.9353 67.132 85.1233 67.132C83.2993 67.132 82.6753 65.536 82.6753 63.94C82.6753 62.344 83.2993 60.748 85.1233 60.748C86.9353 60.748 87.5593 62.344 87.5593 63.94ZM86.5753 63.94C86.5753 62.596 86.1313 61.588 85.1233 61.588C84.1033 61.588 83.6593 62.596 83.6593 63.94C83.6593 65.284 84.1033 66.292 85.1233 66.292C86.1313 66.292 86.5753 65.284 86.5753 63.94ZM93.1231 63.844C93.1231 67.156 91.4431 68.704 89.0551 68.992L88.8631 68.212C90.3751 68.032 91.8991 67.06 92.1151 64.768L92.1031 64.756C92.1031 64.756 91.5391 65.236 90.6871 65.236C89.4871 65.236 88.7071 64.336 88.7071 63.1C88.7071 61.6 89.6071 60.748 90.9631 60.748C92.3551 60.748 93.1231 61.708 93.1231 63.844ZM92.1271 63.832C92.1271 62.644 91.9111 61.564 90.8431 61.564C90.0871 61.564 89.6431 62.188 89.6431 62.968C89.6431 63.964 90.0991 64.444 90.9511 64.444C91.6831 64.444 92.1271 64.012 92.1271 64.012V63.832ZM99.3484 63.94C99.3484 65.536 98.7244 67.132 96.9124 67.132C95.0884 67.132 94.4644 65.536 94.4644 63.94C94.4644 62.344 95.0884 60.748 96.9124 60.748C98.7244 60.748 99.3484 62.344 99.3484 63.94ZM98.3644 63.94C98.3644 62.596 97.9204 61.588 96.9124 61.588C95.8924 61.588 95.4484 62.596 95.4484 63.94C95.4484 65.284 95.8924 66.292 96.9124 66.292C97.9204 66.292 98.3644 65.284 98.3644 63.94ZM105.524 63.94C105.524 65.536 104.9 67.132 103.088 67.132C101.264 67.132 100.64 65.536 100.64 63.94C100.64 62.344 101.264 60.748 103.088 60.748C104.9 60.748 105.524 62.344 105.524 63.94ZM104.54 63.94C104.54 62.596 104.096 61.588 103.088 61.588C102.068 61.588 101.624 62.596 101.624 63.94C101.624 65.284 102.068 66.292 103.088 66.292C104.096 66.292 104.54 65.284 104.54 63.94ZM114.22 63.94C114.22 65.536 113.596 67.132 111.784 67.132C109.96 67.132 109.336 65.536 109.336 63.94C109.336 62.344 109.96 60.748 111.784 60.748C113.596 60.748 114.22 62.344 114.22 63.94ZM113.236 63.94C113.236 62.596 112.792 61.588 111.784 61.588C110.764 61.588 110.32 62.596 110.32 63.94C110.32 65.284 110.764 66.292 111.784 66.292C112.792 66.292 113.236 65.284 113.236 63.94ZM120.395 63.94C120.395 65.536 119.771 67.132 117.959 67.132C116.135 67.132 115.511 65.536 115.511 63.94C115.511 62.344 116.135 60.748 117.959 60.748C119.771 60.748 120.395 62.344 120.395 63.94ZM119.411 63.94C119.411 62.596 118.967 61.588 117.959 61.588C116.939 61.588 116.495 62.596 116.495 63.94C116.495 65.284 116.939 66.292 117.959 66.292C118.967 66.292 119.411 65.284 119.411 63.94ZM126.571 63.94C126.571 65.536 125.947 67.132 124.135 67.132C122.311 67.132 121.687 65.536 121.687 63.94C121.687 62.344 122.311 60.748 124.135 60.748C125.947 60.748 126.571 62.344 126.571 63.94ZM125.587 63.94C125.587 62.596 125.143 61.588 124.135 61.588C123.115 61.588 122.671 62.596 122.671 63.94C122.671 65.284 123.115 66.292 124.135 66.292C125.143 66.292 125.587 65.284 125.587 63.94ZM132.747 63.94C132.747 65.536 132.123 67.132 130.311 67.132C128.487 67.132 127.863 65.536 127.863 63.94C127.863 62.344 128.487 60.748 130.311 60.748C132.123 60.748 132.747 62.344 132.747 63.94ZM131.763 63.94C131.763 62.596 131.319 61.588 130.311 61.588C129.291 61.588 128.847 62.596 128.847 63.94C128.847 65.284 129.291 66.292 130.311 66.292C131.319 66.292 131.763 65.284 131.763 63.94ZM140.842 67H136.39V66.376L138.442 64.408C138.994 63.868 139.414 63.472 139.414 62.812C139.414 62.116 138.982 61.6 138.178 61.6C137.638 61.6 137.254 61.84 136.966 62.08L136.51 61.444C137.026 61.012 137.554 60.748 138.382 60.748C139.57 60.748 140.386 61.444 140.386 62.704C140.386 63.544 139.882 64.18 139.306 64.708L137.77 66.124V66.136H140.842V67ZM147.36 66.244H145.908V68.692L144.984 68.848V66.244H141.684V65.464L145.02 60.88H145.908V65.428H147.36V66.244ZM144.984 65.428V62.176H144.972L142.668 65.428H144.984ZM151.969 61.696L148.537 68.98L147.733 68.572L150.925 61.756H147.661V60.88H151.969V61.696ZM157.708 63.94C157.708 65.536 157.084 67.132 155.272 67.132C153.448 67.132 152.824 65.536 152.824 63.94C152.824 62.344 153.448 60.748 155.272 60.748C157.084 60.748 157.708 62.344 157.708 63.94ZM156.724 63.94C156.724 62.596 156.28 61.588 155.272 61.588C154.252 61.588 153.808 62.596 153.808 63.94C153.808 65.284 154.252 66.292 155.272 66.292C156.28 66.292 156.724 65.284 156.724 63.94ZM165.803 67H161.351V66.376L163.403 64.408C163.955 63.868 164.375 63.472 164.375 62.812C164.375 62.116 163.943 61.6 163.139 61.6C162.599 61.6 162.215 61.84 161.927 62.08L161.471 61.444C161.987 61.012 162.515 60.748 163.343 60.748C164.531 60.748 165.347 61.444 165.347 62.704C165.347 63.544 164.843 64.18 164.267 64.708L162.731 66.124V66.136H165.803V67ZM171.088 63.844C171.088 67.156 169.408 68.704 167.02 68.992L166.828 68.212C168.34 68.032 169.864 67.06 170.08 64.768L170.068 64.756C170.068 64.756 169.504 65.236 168.652 65.236C167.452 65.236 166.672 64.336 166.672 63.1C166.672 61.6 167.572 60.748 168.928 60.748C170.32 60.748 171.088 61.708 171.088 63.844ZM170.092 63.832C170.092 62.644 169.876 61.564 168.808 61.564C168.052 61.564 167.608 62.188 167.608 62.968C167.608 63.964 168.064 64.444 168.916 64.444C169.648 64.444 170.092 64.012 170.092 64.012V63.832ZM176.713 67H172.261V66.376L174.313 64.408C174.865 63.868 175.285 63.472 175.285 62.812C175.285 62.116 174.853 61.6 174.049 61.6C173.509 61.6 173.125 61.84 172.837 62.08L172.381 61.444C172.897 61.012 173.425 60.748 174.253 60.748C175.441 60.748 176.257 61.444 176.257 62.704C176.257 63.544 175.753 64.18 175.177 64.708L173.641 66.124V66.136H176.713V67ZM182.61 63.94C182.61 65.536 181.986 67.132 180.174 67.132C178.35 67.132 177.726 65.536 177.726 63.94C177.726 62.344 178.35 60.748 180.174 60.748C181.986 60.748 182.61 62.344 182.61 63.94ZM181.626 63.94C181.626 62.596 181.182 61.588 180.174 61.588C179.154 61.588 178.71 62.596 178.71 63.94C178.71 65.284 179.154 66.292 180.174 66.292C181.182 66.292 181.626 65.284 181.626 63.94ZM188.269 67H187.321V61.696L186.265 61.84L186.157 61.108L188.269 60.772V67Z" fill="#00157E" fill-opacity="0.7"/>
<g clip-path="url(#clip0_357_2292)">
<path d="M326.432 48.072C326.432 50.136 325.268 51.156 323.708 51.156C322.04 51.156 320.972 50.316 320.972 48.048V43.776H322.004V48.096C322.004 49.524 322.556 50.196 323.672 50.196C324.788 50.196 325.472 49.512 325.472 48.12V43.776H326.432V48.072ZM332.314 48.972C332.314 50.232 331.438 51.132 329.986 51.132C329.242 51.132 328.582 50.976 328.018 50.736L328.33 49.86C328.798 50.076 329.35 50.256 329.914 50.256C330.79 50.256 331.354 49.92 331.354 49.128C331.354 48.54 330.922 48.252 330.346 47.976L329.218 47.436C328.462 47.076 327.946 46.608 327.946 45.588C327.946 44.352 329.026 43.644 330.274 43.644C330.946 43.644 331.378 43.752 332.002 43.98L331.666 44.832C331.282 44.652 330.862 44.484 330.334 44.484C329.59 44.484 328.918 44.784 328.918 45.552C328.918 46.068 329.23 46.32 329.71 46.548L330.862 47.112C331.774 47.556 332.314 48.048 332.314 48.972ZM339.469 46.932C339.469 49.572 337.885 51 335.317 51H333.805V43.824C333.805 43.824 334.801 43.704 335.869 43.704C338.101 43.704 339.469 44.868 339.469 46.932ZM338.425 47.076C338.425 45.372 337.273 44.556 335.701 44.556C335.197 44.556 334.813 44.58 334.813 44.58V50.1H335.509C337.225 50.1 338.425 49.08 338.425 47.076Z" fill="#00157E" fill-opacity="0.7"/>
<path d="M352.716 52H350.938V46.33L349.706 46.498L349.496 45.238L352.716 44.72V52ZM360.296 48.43C360.296 50.39 359.442 52.168 357.286 52.168C355.13 52.168 354.276 50.39 354.276 48.43C354.276 46.47 355.13 44.692 357.286 44.692C359.442 44.692 360.296 46.47 360.296 48.43ZM358.504 48.43C358.504 47.086 358.126 46.274 357.286 46.274C356.46 46.274 356.068 47.086 356.068 48.43C356.068 49.774 356.46 50.586 357.286 50.586C358.126 50.586 358.504 49.774 358.504 48.43ZM363.692 44.594C363.692 46.022 363.118 46.82 362.082 47.562L361.578 47.016C362.068 46.596 362.39 46.148 362.502 45.532C361.984 45.476 361.564 45.014 361.564 44.482C361.564 43.908 362.04 43.432 362.614 43.432C363.216 43.432 363.692 43.88 363.692 44.594ZM370.974 48.43C370.974 50.39 370.12 52.168 367.964 52.168C365.808 52.168 364.954 50.39 364.954 48.43C364.954 46.47 365.808 44.692 367.964 44.692C370.12 44.692 370.974 46.47 370.974 48.43ZM369.182 48.43C369.182 47.086 368.804 46.274 367.964 46.274C367.138 46.274 366.746 47.086 366.746 48.43C366.746 49.774 367.138 50.586 367.964 50.586C368.804 50.586 369.182 49.774 369.182 48.43ZM378.22 48.43C378.22 50.39 377.366 52.168 375.21 52.168C373.054 52.168 372.2 50.39 372.2 48.43C372.2 46.47 373.054 44.692 375.21 44.692C377.366 44.692 378.22 46.47 378.22 48.43ZM376.428 48.43C376.428 47.086 376.05 46.274 375.21 46.274C374.384 46.274 373.992 47.086 373.992 48.43C373.992 49.774 374.384 50.586 375.21 50.586C376.05 50.586 376.428 49.774 376.428 48.43ZM385.466 48.43C385.466 50.39 384.612 52.168 382.456 52.168C380.3 52.168 379.446 50.39 379.446 48.43C379.446 46.47 380.3 44.692 382.456 44.692C384.612 44.692 385.466 46.47 385.466 48.43ZM383.674 48.43C383.674 47.086 383.296 46.274 382.456 46.274C381.63 46.274 381.238 47.086 381.238 48.43C381.238 49.774 381.63 50.586 382.456 50.586C383.296 50.586 383.674 49.774 383.674 48.43ZM388.862 51.048C388.862 51.636 388.386 52.112 387.798 52.112C387.21 52.112 386.734 51.636 386.734 51.048C386.734 50.474 387.21 49.998 387.798 49.998C388.386 49.998 388.862 50.474 388.862 51.048ZM396.144 48.43C396.144 50.39 395.29 52.168 393.134 52.168C390.978 52.168 390.124 50.39 390.124 48.43C390.124 46.47 390.978 44.692 393.134 44.692C395.29 44.692 396.144 46.47 396.144 48.43ZM394.352 48.43C394.352 47.086 393.974 46.274 393.134 46.274C392.308 46.274 391.916 47.086 391.916 48.43C391.916 49.774 392.308 50.586 393.134 50.586C393.974 50.586 394.352 49.774 394.352 48.43ZM403.39 48.43C403.39 50.39 402.536 52.168 400.38 52.168C398.224 52.168 397.37 50.39 397.37 48.43C397.37 46.47 398.224 44.692 400.38 44.692C402.536 44.692 403.39 46.47 403.39 48.43ZM401.598 48.43C401.598 47.086 401.22 46.274 400.38 46.274C399.554 46.274 399.162 47.086 399.162 48.43C399.162 49.774 399.554 50.586 400.38 50.586C401.22 50.586 401.598 49.774 401.598 48.43Z" fill="#00157E"/>
<path d="M386 65L392 71L398 65" stroke="#00157E" stroke-width="2" stroke-linecap="round" stroke-linejoin="round"/>
</g>
<defs>
<clipPath id="clip0_357_2292">
<rect width="230" height="36" fill="white" transform="translate(190 44)"/>
</clipPath>
</defs>
</svg>
