<svg width="80" height="572" viewBox="0 0 80 572" fill="none" xmlns="http://www.w3.org/2000/svg">
<rect width="80" height="572" fill="white"/>
<g clip-path="url(#clip0_1274_88785)">
<g clip-path="url(#clip1_1274_88785)">
<path fill-rule="evenodd" clip-rule="evenodd" d="M20.001 20C24.442 20 28.3165 22.4141 30.3916 26H23.1855V28.2402H28.5459V28.2598L22.666 36.1797V38.04H30.3682C28.2874 41.6038 24.4254 44 20.001 44C13.3736 44 8.00098 38.6274 8.00098 32C8.00098 25.3726 13.3736 20 20.001 20ZM11.001 26V33.0195C11.001 36.6195 12.6609 38.3203 15.8809 38.3203C18.8608 38.3203 20.6406 36.34 20.6406 33.0801V26H18.0205V33.1396C18.0205 34.7196 17.3009 35.7197 15.8809 35.7197C14.421 35.7197 13.7208 34.9601 13.7207 32.9404V26H11.001Z" fill="#00157E"/>
<path d="M31.4775 28.4893C31.8168 29.5998 32.001 30.7784 32.001 32C32.001 33.3361 31.779 34.62 31.376 35.8203H26.2256V35.7998L31.4775 28.4893Z" fill="#00157E"/>
</g>
</g>
<path d="M57 37L62 32L57 27" stroke="#00157E" stroke-width="2" stroke-linecap="round" stroke-linejoin="round"/>
<path d="M50 37L55 32L50 27" stroke="#00157E" stroke-width="2" stroke-linecap="round" stroke-linejoin="round"/>
<path d="M8 80C8 75.5817 11.5817 72 16 72H64C68.4183 72 72 75.5817 72 80V104C72 108.418 68.4183 112 64 112H16C11.5817 112 8 108.418 8 104V80Z" fill="#00157E" fill-opacity="0.05"/>
<path d="M31 89L40 82L49 89V100C49 100.53 48.7893 101.039 48.4142 101.414C48.0391 101.789 47.5304 102 47 102H33C32.4696 102 31.9609 101.789 31.5858 101.414C31.2107 101.039 31 100.53 31 100V89Z" stroke="#00157E" stroke-width="2" stroke-linecap="round" stroke-linejoin="round"/>
<path d="M37 102V92H43V102" stroke="#00157E" stroke-width="2" stroke-linecap="round" stroke-linejoin="round"/>
<path d="M35 140L30 145L35 150M30 145H42" stroke="#00157E" stroke-width="2" stroke-linecap="round" stroke-linejoin="round"/>
<path d="M45 130L50 135L45 140M50 135H38" stroke="#00157E" stroke-width="2" stroke-linecap="round" stroke-linejoin="round"/>
<path d="M48 197V195C48 193.939 47.5786 192.922 46.8284 192.172C46.0783 191.421 45.0609 191 44 191H36C34.9391 191 33.9217 191.421 33.1716 192.172C32.4214 192.922 32 193.939 32 195V197" stroke="#00157E" stroke-width="2" stroke-linecap="round" stroke-linejoin="round"/>
<path d="M40 187C42.2091 187 44 185.209 44 183C44 180.791 42.2091 179 40 179C37.7909 179 36 180.791 36 183C36 185.209 37.7909 187 40 187Z" stroke="#00157E" stroke-width="2" stroke-linecap="round" stroke-linejoin="round"/>
<path d="M8 408C8 405.791 9.79086 404 12 404H68C70.2091 404 72 405.791 72 408V432C72 434.209 70.2091 436 68 436H12C9.79086 436 8 434.209 8 432V408Z" fill="#00157E" fill-opacity="0.05"/>
<path d="M49 420.79C48.8427 422.492 48.2039 424.114 47.1583 425.467C46.1127 426.819 44.7035 427.846 43.0957 428.427C41.4879 429.007 39.748 429.118 38.0795 428.746C36.411 428.374 34.883 427.535 33.6742 426.326C32.4655 425.117 31.626 423.589 31.2539 421.92C30.8819 420.252 30.9927 418.512 31.5735 416.904C32.1542 415.297 33.1809 413.887 34.5332 412.842C35.8856 411.796 37.5078 411.157 39.21 411C38.2134 412.348 37.7339 414.009 37.8586 415.681C37.9832 417.353 38.7039 418.925 39.8894 420.111C41.075 421.296 42.6466 422.017 44.3186 422.141C45.9906 422.266 47.6518 421.787 49 420.79Z" stroke="#00157E" stroke-width="2" stroke-linecap="round" stroke-linejoin="round"/>
<path d="M8 456C8 453.791 9.79086 452 12 452H68C70.2091 452 72 453.791 72 456V480C72 482.209 70.2091 484 68 484H12C9.79086 484 8 482.209 8 480V456Z" fill="#00157E"/>
<g clip-path="url(#clip2_1274_88785)">
<path d="M40 473C42.7614 473 45 470.761 45 468C45 465.239 42.7614 463 40 463C37.2386 463 35 465.239 35 468C35 470.761 37.2386 473 40 473Z" stroke="white" stroke-width="2" stroke-linecap="round" stroke-linejoin="round"/>
<path d="M40 457V459" stroke="white" stroke-width="2" stroke-linecap="round" stroke-linejoin="round"/>
<path d="M40 477V479" stroke="white" stroke-width="2" stroke-linecap="round" stroke-linejoin="round"/>
<path d="M32.22 460.22L33.64 461.64" stroke="white" stroke-width="2" stroke-linecap="round" stroke-linejoin="round"/>
<path d="M46.36 474.36L47.78 475.78" stroke="white" stroke-width="2" stroke-linecap="round" stroke-linejoin="round"/>
<path d="M29 468H31" stroke="white" stroke-width="2" stroke-linecap="round" stroke-linejoin="round"/>
<path d="M49 468H51" stroke="white" stroke-width="2" stroke-linecap="round" stroke-linejoin="round"/>
<path d="M32.22 475.78L33.64 474.36" stroke="white" stroke-width="2" stroke-linecap="round" stroke-linejoin="round"/>
<path d="M46.36 461.64L47.78 460.22" stroke="white" stroke-width="2" stroke-linecap="round" stroke-linejoin="round"/>
</g>
<path d="M8 504C8 501.791 9.79086 500 12 500H68C70.2091 500 72 501.791 72 504V536C72 538.209 70.2091 540 68 540H12C9.79086 540 8 538.209 8 536V504Z" fill="#00157E"/>
<path d="M37 529H33C32.4696 529 31.9609 528.789 31.5858 528.414C31.2107 528.039 31 527.53 31 527V513C31 512.47 31.2107 511.961 31.5858 511.586C31.9609 511.211 32.4696 511 33 511H37" stroke="white" stroke-width="2" stroke-linecap="round" stroke-linejoin="round"/>
<path d="M44 525L49 520L44 515" stroke="white" stroke-width="2" stroke-linecap="round" stroke-linejoin="round"/>
<path d="M49 520H37" stroke="white" stroke-width="2" stroke-linecap="round" stroke-linejoin="round"/>
<defs>
<clipPath id="clip0_1274_88785">
<rect width="24" height="24" fill="white" transform="translate(8 20)"/>
</clipPath>
<clipPath id="clip1_1274_88785">
<path d="M8.00098 32C8.00098 25.3726 13.3736 20 20.001 20V20C26.6284 20 32.001 25.3726 32.001 32V32C32.001 38.6274 26.6284 44 20.001 44V44C13.3736 44 8.00098 38.6274 8.00098 32V32Z" fill="white"/>
</clipPath>
<clipPath id="clip2_1274_88785">
<rect width="24" height="24" fill="white" transform="translate(28 456)"/>
</clipPath>
</defs>
</svg>
