<svg width="343" height="88" viewBox="0 0 343 88" fill="none" xmlns="http://www.w3.org/2000/svg">
<mask id="path-1-inside-1_822_129468" fill="white">
<path d="M0 0H342.998V88H0V0Z"/>
</mask>
<path d="M342.998 88V87H0V88V89H342.998V88Z" fill="#00157E" fill-opacity="0.2" mask="url(#path-1-inside-1_822_129468)"/>
<path d="M23.575 23.776L21.769 24.238L21.055 21.662H18.703L18.059 24H16.169L18.969 15.572H20.887L23.575 23.776ZM20.747 20.444L19.907 17.364H19.893L19.039 20.444H20.747ZM30.5869 21.368C30.5869 23.09 29.1869 24 26.6949 24H24.6369V15.642C24.6369 15.642 25.8269 15.488 27.0029 15.488C29.0469 15.488 29.9989 16.16 29.9989 17.434C29.9989 18.498 29.3129 19.016 28.4309 19.352V19.366C29.7189 19.506 30.5869 20.206 30.5869 21.368ZM28.6829 21.41C28.6829 20.612 28.0809 20.29 26.9469 20.29H26.4429V22.502H27.2689C28.1229 22.502 28.6829 22.124 28.6829 21.41ZM28.0949 17.854C28.0949 17.14 27.6329 16.874 26.8769 16.874C26.6249 16.874 26.4429 16.902 26.4429 16.902V19.016C27.3249 19.016 28.0949 18.764 28.0949 17.854ZM37.833 21.368C37.833 23.09 36.433 24 33.941 24H31.883V15.642C31.883 15.642 33.073 15.488 34.249 15.488C36.293 15.488 37.245 16.16 37.245 17.434C37.245 18.498 36.559 19.016 35.677 19.352V19.366C36.965 19.506 37.833 20.206 37.833 21.368ZM35.929 21.41C35.929 20.612 35.327 20.29 34.193 20.29H33.689V22.502H34.515C35.369 22.502 35.929 22.124 35.929 21.41ZM35.341 17.854C35.341 17.14 34.879 16.874 34.123 16.874C33.871 16.874 33.689 16.902 33.689 16.902V19.016C34.571 19.016 35.341 18.764 35.341 17.854ZM46.8985 24H42.0685V15.572H43.9585V22.418H46.8985V24ZM51.9381 23.678C51.3641 23.986 50.9301 24.154 50.0481 24.154C48.7321 24.154 48.0881 23.272 48.0881 21.956V18.778H47.0661V17.602L48.0881 17.364V16.216L49.8521 16.006V17.378H51.6721V18.778H49.8521V21.48C49.8521 22.362 50.0761 22.586 50.6501 22.586C50.9721 22.586 51.1541 22.502 51.4621 22.362L51.9381 23.678ZM58.3694 23.916L56.6754 24.126L56.5774 23.44H56.5634C56.3954 23.58 55.8494 24.168 54.9534 24.168C53.3014 24.168 52.4754 22.768 52.4754 20.92C52.4754 18.54 53.8334 17.322 55.7514 17.322C56.1014 17.322 56.3674 17.378 56.3674 17.378V16.286L56.1434 14.648L58.1454 14.424V22.278L58.3694 23.916ZM55.4994 22.586C55.9194 22.586 56.2414 22.404 56.3674 22.292V18.904C56.3674 18.904 56.1294 18.792 55.6954 18.792C54.8414 18.792 54.2674 19.464 54.2674 20.654C54.2674 21.984 54.6174 22.586 55.4994 22.586Z" fill="#00157E"/>
<path d="M21.727 37.634C21.727 39.104 20.705 40.154 19.011 40.154C18.143 40.154 17.373 39.972 16.715 39.692L17.079 38.67C17.625 38.922 18.269 39.132 18.927 39.132C19.949 39.132 20.607 38.74 20.607 37.816C20.607 37.13 20.103 36.794 19.431 36.472L18.115 35.842C17.233 35.422 16.631 34.876 16.631 33.686C16.631 32.244 17.891 31.418 19.347 31.418C20.131 31.418 20.635 31.544 21.363 31.81L20.971 32.804C20.523 32.594 20.033 32.398 19.417 32.398C18.549 32.398 17.765 32.748 17.765 33.644C17.765 34.246 18.129 34.54 18.689 34.806L20.033 35.464C21.097 35.982 21.727 36.556 21.727 37.634ZM26.6997 39.734C26.2937 39.958 25.9157 40.14 25.2017 40.14C24.1937 40.14 23.5497 39.482 23.5497 38.362V34.358H22.5837V33.616L23.5497 33.42V32.328L24.6557 32.188V33.448H26.4897V34.358H24.6557V37.984C24.6557 38.866 24.8797 39.146 25.5237 39.146C25.8737 39.146 26.1397 39.006 26.3357 38.88L26.6997 39.734ZM31.1352 34.414C30.3792 34.414 29.8192 34.61 29.3152 35.072V40H28.1952V34.96L27.9992 33.518L29.1052 33.336L29.2172 34.232H29.2312C29.6792 33.728 30.2672 33.308 31.1352 33.308V34.414ZM37.6678 39.93L36.5618 40.112L36.4498 39.356H36.4358C35.9458 39.818 35.3018 40.154 34.4898 40.154C33.3838 40.154 32.5018 39.44 32.5018 38.096V34.96L32.3058 33.518L33.6218 33.336V37.704C33.6218 38.67 33.9858 39.174 34.8678 39.174C35.4978 39.174 35.9458 38.908 36.3518 38.53V34.96L36.1558 33.518L37.4718 33.336V38.488L37.6678 39.93ZM43.9349 33.574L43.5849 34.582C43.2209 34.442 42.8149 34.316 42.3529 34.316C41.1209 34.316 40.3789 35.24 40.3789 36.626C40.3789 38.376 41.0649 39.174 42.3249 39.174C42.7729 39.174 43.1369 39.02 43.5009 38.866L43.8789 39.776C43.3329 40.028 42.7309 40.154 42.1009 40.154C40.2249 40.154 39.2589 38.81 39.2589 36.808C39.2589 34.4 40.7429 33.294 42.4089 33.294C42.9829 33.294 43.4729 33.392 43.9349 33.574ZM48.8892 39.734C48.4832 39.958 48.1052 40.14 47.3912 40.14C46.3832 40.14 45.7392 39.482 45.7392 38.362V34.358H44.7732V33.616L45.7392 33.42V32.328L46.8452 32.188V33.448H48.6792V34.358H46.8452V37.984C46.8452 38.866 47.0692 39.146 47.7132 39.146C48.0632 39.146 48.3292 39.006 48.5252 38.88L48.8892 39.734ZM55.5506 39.93L54.4446 40.112L54.3326 39.356H54.3186C53.8286 39.818 53.1846 40.154 52.3726 40.154C51.2666 40.154 50.3846 39.44 50.3846 38.096V34.96L50.1886 33.518L51.5046 33.336V37.704C51.5046 38.67 51.8686 39.174 52.7506 39.174C53.3806 39.174 53.8286 38.908 54.2346 38.53V34.96L54.0386 33.518L55.3546 33.336V38.488L55.5506 39.93ZM60.5297 34.414C59.7737 34.414 59.2137 34.61 58.7097 35.072V40H57.5897V34.96L57.3937 33.518L58.4997 33.336L58.6117 34.232H58.6257C59.0737 33.728 59.6617 33.308 60.5297 33.308V34.414ZM66.2823 39.65C65.6523 40 65.0083 40.154 64.2103 40.154C62.2783 40.154 61.2843 38.852 61.2843 36.682C61.2843 34.652 62.3483 33.294 64.0003 33.294C65.5823 33.294 66.2263 34.344 66.2263 35.786V36.57H62.3763C62.3903 38.32 63.0203 39.16 64.4483 39.16C64.9943 39.16 65.4143 39.006 65.8903 38.768L66.2823 39.65ZM65.1763 35.786C65.1763 34.806 64.8123 34.19 63.9443 34.19C63.1043 34.19 62.5723 34.848 62.4323 35.786H65.1763ZM72.867 39.958L71.789 40.112L71.691 39.454H71.677C71.257 39.804 70.683 40.154 69.913 40.154C68.471 40.154 67.505 38.964 67.505 37.018C67.505 34.764 68.667 33.378 70.655 33.378C71.187 33.378 71.565 33.476 71.565 33.476V32.062L71.355 30.62L72.671 30.438V38.516L72.867 39.958ZM70.305 39.174C70.851 39.174 71.229 38.95 71.565 38.684V34.498C71.565 34.498 71.201 34.316 70.557 34.316C69.283 34.316 68.653 35.394 68.653 36.668C68.653 38.25 69.073 39.174 70.305 39.174ZM83.0034 36.402C83.0034 38.53 82.0794 40.07 79.8954 40.07C79.5314 40.07 79.2374 40.042 78.9714 39.972V42.772L77.8514 42.954V34.96L77.6554 33.518L78.7614 33.336L78.8594 34.008H78.8734C79.3074 33.644 79.8814 33.294 80.6374 33.294C82.2334 33.294 83.0034 34.498 83.0034 36.402ZM81.8834 36.724C81.8834 35.296 81.5614 34.302 80.2594 34.302C79.6994 34.302 79.2934 34.54 78.9714 34.806V38.936C79.2374 39.048 79.5454 39.118 79.9794 39.118C81.1974 39.118 81.8834 38.166 81.8834 36.724ZM87.7231 34.414C86.9671 34.414 86.4071 34.61 85.9031 35.072V40H84.7831V34.96L84.5871 33.518L85.6931 33.336L85.8051 34.232H85.8191C86.2671 33.728 86.8551 33.308 87.7231 33.308V34.414ZM94.0777 36.724C94.0777 38.642 93.1677 40.154 91.2777 40.154C89.2057 40.154 88.4777 38.684 88.4777 36.724C88.4777 34.806 89.3877 33.294 91.2777 33.294C93.3497 33.294 94.0777 34.764 94.0777 36.724ZM92.9297 36.752C92.9297 35.128 92.3837 34.274 91.2777 34.274C90.1997 34.274 89.6257 35.03 89.6257 36.682C89.6257 38.306 90.1717 39.174 91.2777 39.174C92.3557 39.174 92.9297 38.404 92.9297 36.752ZM100.771 39.958L99.6933 40.112L99.5953 39.454H99.5813C99.1613 39.804 98.5873 40.154 97.8173 40.154C96.3753 40.154 95.4093 38.964 95.4093 37.018C95.4093 34.764 96.5713 33.378 98.5593 33.378C99.0913 33.378 99.4693 33.476 99.4693 33.476V32.062L99.2593 30.62L100.575 30.438V38.516L100.771 39.958ZM98.2093 39.174C98.7553 39.174 99.1333 38.95 99.4693 38.684V34.498C99.4693 34.498 99.1053 34.316 98.4613 34.316C97.1873 34.316 96.5573 35.394 96.5573 36.668C96.5573 38.25 96.9773 39.174 98.2093 39.174ZM107.982 39.93L106.876 40.112L106.764 39.356H106.75C106.26 39.818 105.616 40.154 104.804 40.154C103.698 40.154 102.816 39.44 102.816 38.096V34.96L102.62 33.518L103.936 33.336V37.704C103.936 38.67 104.3 39.174 105.182 39.174C105.812 39.174 106.26 38.908 106.666 38.53V34.96L106.47 33.518L107.786 33.336V38.488L107.982 39.93ZM114.249 33.574L113.899 34.582C113.535 34.442 113.129 34.316 112.667 34.316C111.435 34.316 110.693 35.24 110.693 36.626C110.693 38.376 111.379 39.174 112.639 39.174C113.087 39.174 113.451 39.02 113.815 38.866L114.193 39.776C113.647 40.028 113.045 40.154 112.415 40.154C110.539 40.154 109.573 38.81 109.573 36.808C109.573 34.4 111.057 33.294 112.723 33.294C113.297 33.294 113.787 33.392 114.249 33.574ZM119.204 39.734C118.798 39.958 118.42 40.14 117.706 40.14C116.698 40.14 116.054 39.482 116.054 38.362V34.358H115.088V33.616L116.054 33.42V32.328L117.16 32.188V33.448H118.994V34.358H117.16V37.984C117.16 38.866 117.384 39.146 118.028 39.146C118.378 39.146 118.644 39.006 118.84 38.88L119.204 39.734Z" fill="#00157E" fill-opacity="0.7"/>
<g clip-path="url(#clip0_822_129468)">
<path d="M39.001 54L29.501 63.5L24.501 58.5L17.001 66" stroke="#00157E" stroke-width="2" stroke-linecap="round" stroke-linejoin="round"/>
<path d="M33.001 54H39.001V60" stroke="#00157E" stroke-width="2" stroke-linecap="round" stroke-linejoin="round"/>
</g>
<path d="M62.021 60.388H59.655V62.74H58.731V60.388H56.379V59.464H58.731V57.112H59.655V59.464H62.021V60.388ZM65.2977 64H64.1917V57.812L62.9597 57.98L62.8337 57.126L65.2977 56.734V64ZM68.8269 56.37C68.8269 57.392 68.4069 58.176 67.5529 58.68L67.2309 58.26C67.6509 57.952 67.8749 57.56 67.9449 57.056C67.5529 57 67.2169 56.664 67.2169 56.258C67.2169 55.796 67.5809 55.446 68.0289 55.446C68.4769 55.446 68.8269 55.81 68.8269 56.37ZM75.3722 64H70.1782V63.272L72.5722 60.976C73.2162 60.346 73.7062 59.884 73.7062 59.114C73.7062 58.302 73.2022 57.7 72.2642 57.7C71.6342 57.7 71.1862 57.98 70.8502 58.26L70.3182 57.518C70.9202 57.014 71.5362 56.706 72.5022 56.706C73.8882 56.706 74.8402 57.518 74.8402 58.988C74.8402 59.968 74.2522 60.71 73.5802 61.326L71.7882 62.978V62.992H75.3722V64ZM82.2519 60.43C82.2519 62.292 81.5239 64.154 79.4099 64.154C77.2819 64.154 76.5539 62.292 76.5539 60.43C76.5539 58.568 77.2819 56.706 79.4099 56.706C81.5239 56.706 82.2519 58.568 82.2519 60.43ZM81.1039 60.43C81.1039 58.862 80.5859 57.686 79.4099 57.686C78.2199 57.686 77.7019 58.862 77.7019 60.43C77.7019 61.998 78.2199 63.174 79.4099 63.174C80.5859 63.174 81.1039 61.998 81.1039 60.43ZM89.4569 60.43C89.4569 62.292 88.7289 64.154 86.6149 64.154C84.4869 64.154 83.7589 62.292 83.7589 60.43C83.7589 58.568 84.4869 56.706 86.6149 56.706C88.7289 56.706 89.4569 58.568 89.4569 60.43ZM88.3089 60.43C88.3089 58.862 87.7909 57.686 86.6149 57.686C85.4249 57.686 84.9069 58.862 84.9069 60.43C84.9069 61.998 85.4249 63.174 86.6149 63.174C87.7909 63.174 88.3089 61.998 88.3089 60.43ZM92.616 63.286C92.616 63.734 92.252 64.098 91.818 64.098C91.37 64.098 91.006 63.734 91.006 63.286C91.006 62.852 91.37 62.488 91.818 62.488C92.252 62.488 92.616 62.852 92.616 63.286ZM99.0492 61.956C99.0492 63.3 98.0272 64.154 96.5852 64.154C95.1152 64.154 94.1212 63.412 94.1212 62.04C94.1212 60.808 95.0312 60.066 95.7312 59.59C94.8912 59.002 94.3312 58.498 94.3312 57.448C94.3312 56.258 95.3112 55.418 96.5712 55.418C97.9292 55.418 98.8112 56.174 98.8112 57.35C98.8112 58.358 98.1112 59.002 97.4252 59.478C98.3212 60.08 99.0492 60.682 99.0492 61.956ZM97.9712 61.956C97.9712 61.046 97.3412 60.584 96.5012 60.038C95.7592 60.542 95.1852 60.976 95.1852 61.9C95.1852 62.74 95.7452 63.216 96.5992 63.216C97.5092 63.216 97.9712 62.656 97.9712 61.956ZM97.8172 57.476C97.8172 56.762 97.3412 56.3 96.5852 56.3C95.8292 56.3 95.3392 56.79 95.3392 57.49C95.3392 58.148 95.8852 58.526 96.6412 59.044C97.2432 58.652 97.8172 58.148 97.8172 57.476ZM105.687 61.438C105.687 63.09 104.707 64.154 103.125 64.154C101.333 64.154 100.577 62.824 100.577 60.85C100.577 57.042 102.817 55.474 105.253 55.278L105.393 56.202C103.713 56.384 102.033 57.294 101.711 59.632L101.725 59.646C101.725 59.646 102.439 59.03 103.405 59.03C104.875 59.03 105.687 59.968 105.687 61.438ZM104.581 61.662C104.581 60.472 104.119 59.968 103.097 59.968C102.299 59.968 101.711 60.528 101.711 60.528V60.794C101.711 62.362 102.117 63.23 103.223 63.23C104.147 63.23 104.581 62.572 104.581 61.662Z" fill="#00157E"/>
<path d="M117.959 63.566C117.175 63.972 116.377 64.154 115.313 64.154C113.255 64.154 111.673 62.768 111.673 59.968C111.673 56.986 113.437 55.418 115.705 55.418C116.643 55.418 117.217 55.558 117.931 55.866L117.483 56.888C116.951 56.65 116.447 56.468 115.691 56.468C114.221 56.468 112.877 57.602 112.877 59.674C112.877 61.984 113.731 63.118 115.775 63.118C116.447 63.118 117.063 62.852 117.567 62.628L117.959 63.566ZM125.569 64H124.393V60.15H120.599V64H119.423V55.572H120.599V59.156H124.393V55.572H125.569V64ZM132.085 56.566H129.061V59.31H131.791V60.304H129.061V64H127.899V55.572H132.085V56.566Z" fill="#00157E" fill-opacity="0.7"/>
<path d="M155.021 60.388H152.655V62.74H151.731V60.388H149.379V59.464H151.731V57.112H152.655V59.464H155.021V60.388ZM158.298 64H157.192V57.812L155.96 57.98L155.834 57.126L158.298 56.734V64ZM165.173 64H159.979V63.272L162.373 60.976C163.017 60.346 163.507 59.884 163.507 59.114C163.507 58.302 163.003 57.7 162.065 57.7C161.435 57.7 160.987 57.98 160.651 58.26L160.119 57.518C160.721 57.014 161.337 56.706 162.303 56.706C163.689 56.706 164.641 57.518 164.641 58.988C164.641 59.968 164.053 60.71 163.381 61.326L161.589 62.978V62.992H165.173V64ZM168.007 63.286C168.007 63.734 167.643 64.098 167.209 64.098C166.761 64.098 166.397 63.734 166.397 63.286C166.397 62.852 166.761 62.488 167.209 62.488C167.643 62.488 168.007 62.852 168.007 63.286ZM174.44 61.956C174.44 63.3 173.418 64.154 171.976 64.154C170.506 64.154 169.512 63.412 169.512 62.04C169.512 60.808 170.422 60.066 171.122 59.59C170.282 59.002 169.722 58.498 169.722 57.448C169.722 56.258 170.702 55.418 171.962 55.418C173.32 55.418 174.202 56.174 174.202 57.35C174.202 58.358 173.502 59.002 172.816 59.478C173.712 60.08 174.44 60.682 174.44 61.956ZM173.362 61.956C173.362 61.046 172.732 60.584 171.892 60.038C171.15 60.542 170.576 60.976 170.576 61.9C170.576 62.74 171.136 63.216 171.99 63.216C172.9 63.216 173.362 62.656 173.362 61.956ZM173.208 57.476C173.208 56.762 172.732 56.3 171.976 56.3C171.22 56.3 170.73 56.79 170.73 57.49C170.73 58.148 171.276 58.526 172.032 59.044C172.634 58.652 173.208 58.148 173.208 57.476ZM181.077 61.438C181.077 63.09 180.097 64.154 178.515 64.154C176.723 64.154 175.967 62.824 175.967 60.85C175.967 57.042 178.207 55.474 180.643 55.278L180.783 56.202C179.103 56.384 177.423 57.294 177.101 59.632L177.115 59.646C177.115 59.646 177.829 59.03 178.795 59.03C180.265 59.03 181.077 59.968 181.077 61.438ZM179.971 61.662C179.971 60.472 179.509 59.968 178.487 59.968C177.689 59.968 177.101 60.528 177.101 60.528V60.794C177.101 62.362 177.507 63.23 178.613 63.23C179.537 63.23 179.971 62.572 179.971 61.662Z" fill="#00157E"/>
<path d="M191.069 57.616C191.069 58.876 190.103 59.842 188.843 59.842C187.583 59.842 186.617 58.876 186.617 57.616C186.617 56.356 187.583 55.418 188.843 55.418C190.103 55.418 191.069 56.356 191.069 57.616ZM197.285 61.942C197.285 63.202 196.319 64.154 195.059 64.154C193.799 64.154 192.833 63.202 192.833 61.942C192.833 60.696 193.799 59.744 195.059 59.744C196.319 59.744 197.285 60.696 197.285 61.942ZM194.709 55.768L190.075 64.28L189.221 63.818L193.855 55.306L194.709 55.768ZM196.263 61.942C196.263 61.228 195.773 60.738 195.059 60.738C194.345 60.738 193.855 61.228 193.855 61.942C193.855 62.642 194.345 63.174 195.059 63.174C195.773 63.174 196.263 62.642 196.263 61.942ZM190.033 57.616C190.033 56.902 189.557 56.412 188.843 56.412C188.129 56.412 187.639 56.902 187.639 57.616C187.639 58.33 188.129 58.848 188.843 58.848C189.557 58.848 190.033 58.33 190.033 57.616Z" fill="#00157E" fill-opacity="0.7"/>
<path d="M259.961 22.628C259.289 22.976 258.605 23.132 257.693 23.132C255.929 23.132 254.573 21.944 254.573 19.544C254.573 16.988 256.085 15.644 258.029 15.644C258.833 15.644 259.325 15.764 259.937 16.028L259.553 16.904C259.097 16.7 258.665 16.544 258.017 16.544C256.757 16.544 255.605 17.516 255.605 19.292C255.605 21.272 256.337 22.244 258.089 22.244C258.665 22.244 259.193 22.016 259.625 21.824L259.961 22.628ZM266.484 23H265.476V19.7H262.224V23H261.216V15.776H262.224V18.848H265.476V15.776H266.484V23ZM272.069 16.628H269.477V18.98H271.817V19.832H269.477V23H268.481V15.776H272.069V16.628Z" fill="#00157E" fill-opacity="0.7"/>
<path d="M284.996 24H283.218V18.33L281.986 18.498L281.776 17.238L284.996 16.72V24ZM288.726 16.594C288.726 18.022 288.152 18.82 287.116 19.562L286.612 19.016C287.102 18.596 287.424 18.148 287.536 17.532C287.018 17.476 286.598 17.014 286.598 16.482C286.598 15.908 287.074 15.432 287.648 15.432C288.25 15.432 288.726 15.88 288.726 16.594ZM296.008 20.43C296.008 22.39 295.154 24.168 292.998 24.168C290.842 24.168 289.988 22.39 289.988 20.43C289.988 18.47 290.842 16.692 292.998 16.692C295.154 16.692 296.008 18.47 296.008 20.43ZM294.216 20.43C294.216 19.086 293.838 18.274 292.998 18.274C292.172 18.274 291.78 19.086 291.78 20.43C291.78 21.774 292.172 22.586 292.998 22.586C293.838 22.586 294.216 21.774 294.216 20.43ZM303.254 20.43C303.254 22.39 302.4 24.168 300.244 24.168C298.088 24.168 297.234 22.39 297.234 20.43C297.234 18.47 298.088 16.692 300.244 16.692C302.4 16.692 303.254 18.47 303.254 20.43ZM301.462 20.43C301.462 19.086 301.084 18.274 300.244 18.274C299.418 18.274 299.026 19.086 299.026 20.43C299.026 21.774 299.418 22.586 300.244 22.586C301.084 22.586 301.462 21.774 301.462 20.43ZM309.702 21.732C309.702 23.076 308.708 24.168 307.098 24.168C305.39 24.168 304.452 23.384 304.452 21.942C304.452 20.878 305.18 20.164 305.796 19.702C305.166 19.212 304.634 18.638 304.634 17.63C304.634 16.272 305.782 15.404 307.042 15.404C308.4 15.404 309.436 16.146 309.436 17.448C309.436 18.372 308.848 19.002 308.288 19.45C309.002 19.94 309.702 20.598 309.702 21.732ZM308.134 21.802C308.134 21.116 307.518 20.696 306.93 20.332C306.44 20.696 306.034 21.088 306.034 21.76C306.034 22.432 306.482 22.782 307.126 22.782C307.77 22.782 308.134 22.334 308.134 21.802ZM307.952 17.616C307.952 17.07 307.616 16.734 307.056 16.734C306.524 16.734 306.202 17.098 306.202 17.63C306.202 18.148 306.65 18.484 307.154 18.82C307.574 18.512 307.952 18.134 307.952 17.616ZM313.076 23.048C313.076 23.636 312.6 24.112 312.012 24.112C311.424 24.112 310.948 23.636 310.948 23.048C310.948 22.474 311.424 21.998 312.012 21.998C312.6 21.998 313.076 22.474 313.076 23.048ZM319.266 22.558C319.266 25.064 317.124 26.044 314.618 26.338L314.352 24.826C315.528 24.644 317.446 24.238 317.446 22.74C317.446 21.802 316.76 21.34 315.178 21.34H314.352L314.618 16.86H319.014V18.456H316.088L315.99 20.108C315.99 20.108 316.256 20.094 316.536 20.094C318.244 20.094 319.266 20.934 319.266 22.558ZM326.387 20.43C326.387 22.39 325.533 24.168 323.377 24.168C321.221 24.168 320.367 22.39 320.367 20.43C320.367 18.47 321.221 16.692 323.377 16.692C325.533 16.692 326.387 18.47 326.387 20.43ZM324.595 20.43C324.595 19.086 324.217 18.274 323.377 18.274C322.551 18.274 322.159 19.086 322.159 20.43C322.159 21.774 322.551 22.586 323.377 22.586C324.217 22.586 324.595 21.774 324.595 20.43Z" fill="#00157E"/>
<path d="M297.373 36.416C297.373 38.24 296.581 39.56 294.709 39.56C294.397 39.56 294.145 39.536 293.917 39.476V41.876L292.957 42.032V35.18L292.789 33.944L293.737 33.788L293.821 34.364H293.833C294.205 34.052 294.697 33.752 295.345 33.752C296.713 33.752 297.373 34.784 297.373 36.416ZM296.413 36.692C296.413 35.468 296.137 34.616 295.021 34.616C294.541 34.616 294.193 34.82 293.917 35.048V38.588C294.145 38.684 294.409 38.744 294.781 38.744C295.825 38.744 296.413 37.928 296.413 36.692ZM302.522 33.992L302.222 34.856C301.91 34.736 301.562 34.628 301.166 34.628C300.11 34.628 299.474 35.42 299.474 36.608C299.474 38.108 300.062 38.792 301.142 38.792C301.526 38.792 301.838 38.66 302.15 38.528L302.474 39.308C302.006 39.524 301.49 39.632 300.95 39.632C299.342 39.632 298.514 38.48 298.514 36.764C298.514 34.7 299.786 33.752 301.214 33.752C301.706 33.752 302.126 33.836 302.522 33.992ZM307.096 37.868C307.096 38.888 306.292 39.62 305.092 39.62C304.516 39.62 303.94 39.536 303.484 39.32L303.772 38.48C304.168 38.66 304.612 38.804 305.044 38.804C305.692 38.804 306.124 38.552 306.124 38.024C306.124 37.616 305.908 37.448 305.536 37.28L304.492 36.8C304.12 36.632 303.448 36.296 303.448 35.324C303.448 34.256 304.384 33.752 305.404 33.752C306.016 33.752 306.448 33.848 306.928 34.052L306.604 34.88C306.22 34.712 305.848 34.592 305.392 34.592C304.78 34.592 304.384 34.784 304.384 35.264C304.384 35.684 304.744 35.852 304.972 35.96L306.04 36.464C306.784 36.812 307.096 37.256 307.096 37.868ZM309.717 38.888C309.717 39.272 309.405 39.584 309.033 39.584C308.649 39.584 308.337 39.272 308.337 38.888C308.337 38.516 308.649 38.204 309.033 38.204C309.405 38.204 309.717 38.516 309.717 38.888Z" fill="#00157E" fill-opacity="0.7"/>
<path d="M317.909 40H316.803V33.812L315.571 33.98L315.445 33.126L317.909 32.734V40ZM325.484 36.43C325.484 38.292 324.756 40.154 322.642 40.154C320.514 40.154 319.786 38.292 319.786 36.43C319.786 34.568 320.514 32.706 322.642 32.706C324.756 32.706 325.484 34.568 325.484 36.43ZM324.336 36.43C324.336 34.862 323.818 33.686 322.642 33.686C321.452 33.686 320.934 34.862 320.934 36.43C320.934 37.998 321.452 39.174 322.642 39.174C323.818 39.174 324.336 37.998 324.336 36.43Z" fill="#00157E"/>
<path d="M257.961 55.128C257.289 55.476 256.605 55.632 255.693 55.632C253.929 55.632 252.573 54.444 252.573 52.044C252.573 49.488 254.085 48.144 256.029 48.144C256.833 48.144 257.325 48.264 257.937 48.528L257.553 49.404C257.097 49.2 256.665 49.044 256.017 49.044C254.757 49.044 253.605 50.016 253.605 51.792C253.605 53.772 254.337 54.744 256.089 54.744C256.665 54.744 257.193 54.516 257.625 54.324L257.961 55.128ZM264.484 55.5H263.476V52.2H260.224V55.5H259.216V48.276H260.224V51.348H263.476V48.276H264.484V55.5ZM270.069 49.128H267.477V51.48H269.817V52.332H267.477V55.5H266.481V48.276H270.069V49.128Z" fill="#00157E" fill-opacity="0.7"/>
<path d="M277.909 56H276.803V49.812L275.571 49.98L275.445 49.126L277.909 48.734V56ZM285.484 52.43C285.484 54.292 284.756 56.154 282.642 56.154C280.514 56.154 279.786 54.292 279.786 52.43C279.786 50.568 280.514 48.706 282.642 48.706C284.756 48.706 285.484 50.568 285.484 52.43ZM284.336 52.43C284.336 50.862 283.818 49.686 282.642 49.686C281.452 49.686 280.934 50.862 280.934 52.43C280.934 53.998 281.452 55.174 282.642 55.174C283.818 55.174 284.336 53.998 284.336 52.43ZM288.643 48.37C288.643 49.392 288.223 50.176 287.369 50.68L287.047 50.26C287.467 49.952 287.691 49.56 287.761 49.056C287.369 49 287.033 48.664 287.033 48.258C287.033 47.796 287.397 47.446 287.845 47.446C288.293 47.446 288.643 47.81 288.643 48.37ZM295.077 53.956C295.077 55.3 294.055 56.154 292.613 56.154C291.143 56.154 290.149 55.412 290.149 54.04C290.149 52.808 291.059 52.066 291.759 51.59C290.919 51.002 290.359 50.498 290.359 49.448C290.359 48.258 291.339 47.418 292.599 47.418C293.957 47.418 294.839 48.174 294.839 49.35C294.839 50.358 294.139 51.002 293.453 51.478C294.349 52.08 295.077 52.682 295.077 53.956ZM293.999 53.956C293.999 53.046 293.369 52.584 292.529 52.038C291.787 52.542 291.213 52.976 291.213 53.9C291.213 54.74 291.773 55.216 292.627 55.216C293.537 55.216 293.999 54.656 293.999 53.956ZM293.845 49.476C293.845 48.762 293.369 48.3 292.613 48.3C291.857 48.3 291.367 48.79 291.367 49.49C291.367 50.148 291.913 50.526 292.669 51.044C293.271 50.652 293.845 50.148 293.845 49.476ZM302.246 52.43C302.246 54.292 301.518 56.154 299.404 56.154C297.276 56.154 296.548 54.292 296.548 52.43C296.548 50.568 297.276 48.706 299.404 48.706C301.518 48.706 302.246 50.568 302.246 52.43ZM301.098 52.43C301.098 50.862 300.58 49.686 299.404 49.686C298.214 49.686 297.696 50.862 297.696 52.43C297.696 53.998 298.214 55.174 299.404 55.174C300.58 55.174 301.098 53.998 301.098 52.43ZM308.289 54.74C308.289 57.428 305.755 58.184 303.949 58.324L303.809 57.372C305.083 57.232 307.141 56.728 307.141 54.894C307.141 53.746 306.497 53.074 304.705 53.074H303.767L304.075 48.86H308.065V49.882H305.041L304.859 52.234C304.859 52.234 305.181 52.206 305.475 52.206C307.099 52.206 308.289 53.06 308.289 54.74ZM311.325 55.286C311.325 55.734 310.961 56.098 310.527 56.098C310.079 56.098 309.715 55.734 309.715 55.286C309.715 54.852 310.079 54.488 310.527 54.488C310.961 54.488 311.325 54.852 311.325 55.286ZM318.57 52.43C318.57 54.292 317.842 56.154 315.728 56.154C313.6 56.154 312.872 54.292 312.872 52.43C312.872 50.568 313.6 48.706 315.728 48.706C317.842 48.706 318.57 50.568 318.57 52.43ZM317.422 52.43C317.422 50.862 316.904 49.686 315.728 49.686C314.538 49.686 314.02 50.862 314.02 52.43C314.02 53.998 314.538 55.174 315.728 55.174C316.904 55.174 317.422 53.998 317.422 52.43ZM325.775 52.43C325.775 54.292 325.047 56.154 322.933 56.154C320.805 56.154 320.077 54.292 320.077 52.43C320.077 50.568 320.805 48.706 322.933 48.706C325.047 48.706 325.775 50.568 325.775 52.43ZM324.627 52.43C324.627 50.862 324.109 49.686 322.933 49.686C321.743 49.686 321.225 50.862 321.225 52.43C321.225 53.998 321.743 55.174 322.933 55.174C324.109 55.174 324.627 53.998 324.627 52.43Z" fill="#00157E"/>
<defs>
<clipPath id="clip0_822_129468">
<rect width="24" height="24" fill="white" transform="translate(16.001 48)"/>
</clipPath>
</defs>
</svg>
