<svg width="343" height="356" viewBox="0 0 343 356" fill="none" xmlns="http://www.w3.org/2000/svg">
<path d="M0 8C0 3.58172 3.58172 0 8 0H335C339.418 0 343 3.58172 343 8V348C343 352.418 339.418 356 335 356H7.99999C3.58172 356 0 352.418 0 348V8Z" fill="white"/>
<path d="M8 0.5H335C339.142 0.5 342.5 3.85786 342.5 8V348C342.5 352.142 339.142 355.5 335 355.5H8C3.85787 355.5 0.5 352.142 0.5 348V8C0.5 3.85786 3.85786 0.5 8 0.5Z" stroke="#00157E" stroke-opacity="0.2"/>
<path d="M166.653 24.5408C171.28 23.4956 176.12 23.9736 180.453 25.9041C181.462 26.3536 181.916 27.5359 181.467 28.5447C181.018 29.5536 179.835 30.0078 178.826 29.5584C175.281 27.9786 171.32 27.5877 167.533 28.4432C163.747 29.2986 160.339 31.3539 157.817 34.3045C155.295 37.2551 153.795 40.9431 153.539 44.8162C153.284 48.6891 154.288 52.5406 156.401 55.7967C158.513 59.0528 161.621 61.5394 165.262 62.8846C168.903 64.2297 172.882 64.362 176.604 63.2615C180.326 62.161 183.592 59.8859 185.916 56.7771C188.24 53.6686 189.498 49.8926 189.5 46.0115V44.1717C189.5 43.0671 190.396 42.1717 191.5 42.1717C192.605 42.1717 193.5 43.0671 193.5 44.1717V46.0115L193.483 46.9002C193.301 51.33 191.784 55.6095 189.121 59.1717C186.281 62.9713 182.288 65.7523 177.739 67.0975C173.189 68.4426 168.325 68.2806 163.875 66.6365C159.426 64.9925 155.627 61.9537 153.045 57.9744C150.463 53.9946 149.235 49.2863 149.547 44.5525C149.859 39.8191 151.694 35.313 154.776 31.7068C157.858 28.1005 162.025 25.5863 166.653 24.5408ZM190.086 28.5975C190.867 27.8166 192.133 27.8152 192.914 28.5955C193.696 29.3762 193.695 30.6441 192.914 31.4256L172.914 51.4451C172.539 51.8201 172.031 52.0309 171.5 52.031C170.97 52.031 170.461 51.8202 170.086 51.4451L164.086 45.4451C163.305 44.6641 163.305 43.398 164.086 42.617C164.867 41.8361 166.133 41.8361 166.914 42.617L171.498 47.201L190.086 28.5975Z" fill="#00157E"/>
<path d="M127.617 107.368L124.577 112.936V117H123.233V113.016L120.353 107.624L121.553 107.064L123.921 111.656H123.937L126.209 107.368H127.617ZM133.941 113.256C133.941 115.448 132.901 117.176 130.741 117.176C128.373 117.176 127.541 115.496 127.541 113.256C127.541 111.064 128.581 109.336 130.741 109.336C133.109 109.336 133.941 111.016 133.941 113.256ZM132.629 113.288C132.629 111.432 132.005 110.456 130.741 110.456C129.509 110.456 128.853 111.32 128.853 113.208C128.853 115.064 129.477 116.056 130.741 116.056C131.973 116.056 132.629 115.176 132.629 113.288ZM141.879 116.92L140.615 117.128L140.487 116.264H140.471C139.911 116.792 139.175 117.176 138.247 117.176C136.983 117.176 135.975 116.36 135.975 114.824V111.24L135.751 109.592L137.255 109.384V114.376C137.255 115.48 137.671 116.056 138.679 116.056C139.399 116.056 139.911 115.752 140.375 115.32V111.24L140.151 109.592L141.655 109.384V115.272L141.879 116.92ZM147.57 110.616C146.706 110.616 146.066 110.84 145.49 111.368V117H144.21V111.24L143.986 109.592L145.25 109.384L145.378 110.408H145.394C145.906 109.832 146.578 109.352 147.57 109.352V110.616ZM158.379 112.888C158.379 115.32 157.323 117.08 154.827 117.08C154.411 117.08 154.075 117.048 153.771 116.968V120.168L152.491 120.376V111.24L152.267 109.592L153.531 109.384L153.643 110.152H153.659C154.155 109.736 154.811 109.336 155.675 109.336C157.499 109.336 158.379 110.712 158.379 112.888ZM157.099 113.256C157.099 111.624 156.731 110.488 155.243 110.488C154.603 110.488 154.139 110.76 153.771 111.064V115.784C154.075 115.912 154.427 115.992 154.923 115.992C156.315 115.992 157.099 114.904 157.099 113.256ZM165.325 116.92L164.045 117.128L163.933 116.248H163.917C163.373 116.76 162.781 117.192 161.885 117.192C160.637 117.192 159.901 116.44 159.901 115.256C159.901 113.912 160.957 113.256 162.477 113.096L163.821 112.952V112.28C163.821 111.24 163.501 110.504 162.269 110.504C161.645 110.504 161.181 110.696 160.717 110.936L160.253 109.992C160.925 109.592 161.613 109.336 162.573 109.336C164.077 109.336 165.085 110.216 165.085 111.704V115.272L165.325 116.92ZM163.821 115.448V113.816L162.653 113.976C161.693 114.104 161.165 114.408 161.165 115.096C161.165 115.72 161.549 116.136 162.189 116.136C162.941 116.136 163.405 115.816 163.821 115.448ZM172.915 109.512L170.419 116.312C169.619 118.52 168.547 119.848 165.939 120.376L165.699 119.336C167.603 118.952 168.611 117.8 169.107 116.552L166.419 109.624L167.683 109.288L169.747 114.856H169.763L171.651 109.512H172.915ZM184.524 117H183.26V112.136C183.26 111.032 182.844 110.472 181.82 110.472C181.1 110.472 180.492 110.824 180.092 111.224C180.092 111.224 180.14 111.496 180.14 111.784V117H178.86V112.136C178.86 111.032 178.444 110.472 177.436 110.472C176.716 110.472 176.204 110.76 175.74 111.192V117H174.46V111.24L174.236 109.592L175.5 109.384L175.628 110.264H175.644C176.204 109.72 176.94 109.336 177.868 109.336C178.732 109.336 179.452 109.72 179.836 110.408H179.852C180.444 109.816 181.212 109.336 182.268 109.336C183.548 109.336 184.524 110.152 184.524 111.688V117ZM192.269 116.6C191.549 117 190.813 117.176 189.901 117.176C187.693 117.176 186.557 115.688 186.557 113.208C186.557 110.888 187.773 109.336 189.661 109.336C191.469 109.336 192.205 110.536 192.205 112.184V113.08H187.805C187.821 115.08 188.541 116.04 190.173 116.04C190.797 116.04 191.277 115.864 191.821 115.592L192.269 116.6ZM191.005 112.184C191.005 111.064 190.589 110.36 189.597 110.36C188.637 110.36 188.029 111.112 187.869 112.184H191.005ZM199.858 117H198.578V112.136C198.578 111.032 198.162 110.472 197.154 110.472C196.434 110.472 195.922 110.776 195.458 111.192V117H194.178V111.24L193.954 109.592L195.218 109.384L195.346 110.264H195.362C195.922 109.72 196.658 109.336 197.586 109.336C198.85 109.336 199.858 110.152 199.858 111.688V117ZM206.126 116.696C205.662 116.952 205.23 117.16 204.414 117.16C203.262 117.16 202.526 116.408 202.526 115.128V110.552H201.422V109.704L202.526 109.48V108.232L203.79 108.072V109.512H205.886V110.552H203.79V114.696C203.79 115.704 204.046 116.024 204.782 116.024C205.182 116.024 205.486 115.864 205.71 115.72L206.126 116.696ZM217.082 113.256C217.082 115.448 216.042 117.176 213.882 117.176C211.514 117.176 210.682 115.496 210.682 113.256C210.682 111.064 211.722 109.336 213.882 109.336C216.25 109.336 217.082 111.016 217.082 113.256ZM215.77 113.288C215.77 111.432 215.146 110.456 213.882 110.456C212.65 110.456 211.994 111.32 211.994 113.208C211.994 115.064 212.618 116.056 213.882 116.056C215.114 116.056 215.77 115.176 215.77 113.288ZM222.734 106.232L222.446 107.32C222.222 107.24 222.014 107.192 221.694 107.192C220.974 107.192 220.446 107.656 220.446 108.6V109.512H222.51V110.552H220.446V117H219.182V110.552H218.078V109.704L219.182 109.48V108.696C219.182 107.08 220.27 106.088 221.758 106.088C222.158 106.088 222.446 106.152 222.734 106.232Z" fill="#00157E"/>
<path d="M131.741 164.504C130.845 164.968 129.933 165.176 128.717 165.176C126.365 165.176 124.557 163.592 124.557 160.392C124.557 156.984 126.573 155.192 129.165 155.192C130.237 155.192 130.893 155.352 131.709 155.704L131.197 156.872C130.589 156.6 130.013 156.392 129.149 156.392C127.469 156.392 125.933 157.688 125.933 160.056C125.933 162.696 126.909 163.992 129.245 163.992C130.013 163.992 130.717 163.688 131.293 163.432L131.741 164.504ZM140.438 165H139.094V160.6H134.758V165H133.414V155.368H134.758V159.464H139.094V155.368H140.438V165ZM147.885 156.504H144.429V159.64H147.549V160.776H144.429V165H143.101V155.368H147.885V156.504Z" fill="#00157E"/>
<path d="M172.459 163.94C172.459 167.52 169.399 168.92 165.819 169.34L165.439 167.18C167.119 166.92 169.859 166.34 169.859 164.2C169.859 162.86 168.879 162.2 166.619 162.2H165.439L165.819 155.8H172.099V158.08H167.919L167.779 160.44C167.779 160.44 168.159 160.42 168.559 160.42C170.999 160.42 172.459 161.62 172.459 163.94ZM182.632 160.9C182.632 163.7 181.412 166.24 178.332 166.24C175.252 166.24 174.032 163.7 174.032 160.9C174.032 158.1 175.252 155.56 178.332 155.56C181.412 155.56 182.632 158.1 182.632 160.9ZM180.072 160.9C180.072 158.98 179.532 157.82 178.332 157.82C177.152 157.82 176.592 158.98 176.592 160.9C176.592 162.82 177.152 163.98 178.332 163.98C179.532 163.98 180.072 162.82 180.072 160.9ZM192.984 160.9C192.984 163.7 191.764 166.24 188.684 166.24C185.604 166.24 184.384 163.7 184.384 160.9C184.384 158.1 185.604 155.56 188.684 155.56C191.764 155.56 192.984 158.1 192.984 160.9ZM190.424 160.9C190.424 158.98 189.884 157.82 188.684 157.82C187.504 157.82 186.944 158.98 186.944 160.9C186.944 162.82 187.504 163.98 188.684 163.98C189.884 163.98 190.424 162.82 190.424 160.9ZM197.835 164.64C197.835 165.48 197.155 166.16 196.315 166.16C195.475 166.16 194.795 165.48 194.795 164.64C194.795 163.82 195.475 163.14 196.315 163.14C197.155 163.14 197.835 163.82 197.835 164.64ZM208.238 160.9C208.238 163.7 207.018 166.24 203.938 166.24C200.858 166.24 199.638 163.7 199.638 160.9C199.638 158.1 200.858 155.56 203.938 155.56C207.018 155.56 208.238 158.1 208.238 160.9ZM205.678 160.9C205.678 158.98 205.138 157.82 203.938 157.82C202.758 157.82 202.198 158.98 202.198 160.9C202.198 162.82 202.758 163.98 203.938 163.98C205.138 163.98 205.678 162.82 205.678 160.9ZM218.589 160.9C218.589 163.7 217.369 166.24 214.289 166.24C211.209 166.24 209.989 163.7 209.989 160.9C209.989 158.1 211.209 155.56 214.289 155.56C217.369 155.56 218.589 158.1 218.589 160.9ZM216.029 160.9C216.029 158.98 215.489 157.82 214.289 157.82C213.109 157.82 212.549 158.98 212.549 160.9C212.549 162.82 213.109 163.98 214.289 163.98C215.489 163.98 216.029 162.82 216.029 160.9Z" fill="#00157E"/>
<path d="M127.946 212.696C127.482 212.952 127.05 213.16 126.234 213.16C125.082 213.16 124.346 212.408 124.346 211.128V206.552H123.242V205.704L124.346 205.48V204.232L125.61 204.072V205.512H127.706V206.552H125.61V210.696C125.61 211.704 125.866 212.024 126.602 212.024C127.002 212.024 127.306 211.864 127.53 211.72L127.946 212.696ZM135.324 209.256C135.324 211.448 134.284 213.176 132.124 213.176C129.756 213.176 128.924 211.496 128.924 209.256C128.924 207.064 129.964 205.336 132.124 205.336C134.492 205.336 135.324 207.016 135.324 209.256ZM134.012 209.288C134.012 207.432 133.388 206.456 132.124 206.456C130.892 206.456 130.236 207.32 130.236 209.208C130.236 211.064 130.86 212.056 132.124 212.056C133.356 212.056 134.012 211.176 134.012 209.288Z" fill="#00157E"/>
<path d="M161.282 213H159.938V208.6H155.602V213H154.258V203.368H155.602V207.464H159.938V203.368H161.282V213ZM169.785 209.256C169.785 211.448 168.745 213.176 166.585 213.176C164.217 213.176 163.385 211.496 163.385 209.256C163.385 207.064 164.425 205.336 166.585 205.336C168.953 205.336 169.785 207.016 169.785 209.256ZM168.473 209.288C168.473 207.432 167.849 206.456 166.585 206.456C165.353 206.456 164.697 207.32 164.697 209.208C164.697 211.064 165.321 212.056 166.585 212.056C167.817 212.056 168.473 211.176 168.473 209.288ZM177.723 212.92L176.459 213.128L176.331 212.264H176.315C175.755 212.792 175.019 213.176 174.091 213.176C172.827 213.176 171.819 212.36 171.819 210.824V207.24L171.595 205.592L173.099 205.384V210.376C173.099 211.48 173.515 212.056 174.523 212.056C175.243 212.056 175.755 211.752 176.219 211.32V207.24L175.995 205.592L177.499 205.384V211.272L177.723 212.92ZM184.389 210.824C184.389 212.184 183.317 213.16 181.717 213.16C180.949 213.16 180.181 213.048 179.573 212.76L179.957 211.64C180.485 211.88 181.077 212.072 181.653 212.072C182.517 212.072 183.093 211.736 183.093 211.032C183.093 210.488 182.805 210.264 182.309 210.04L180.917 209.4C180.421 209.176 179.525 208.728 179.525 207.432C179.525 206.008 180.773 205.336 182.133 205.336C182.949 205.336 183.525 205.464 184.165 205.736L183.733 206.84C183.221 206.616 182.725 206.456 182.117 206.456C181.301 206.456 180.773 206.712 180.773 207.352C180.773 207.912 181.253 208.136 181.557 208.28L182.981 208.952C183.973 209.416 184.389 210.008 184.389 210.824ZM191.613 212.6C190.893 213 190.157 213.176 189.245 213.176C187.037 213.176 185.901 211.688 185.901 209.208C185.901 206.888 187.117 205.336 189.005 205.336C190.813 205.336 191.549 206.536 191.549 208.184V209.08H187.149C187.165 211.08 187.885 212.04 189.517 212.04C190.141 212.04 190.621 211.864 191.165 211.592L191.613 212.6ZM190.349 208.184C190.349 207.064 189.933 206.36 188.941 206.36C187.981 206.36 187.373 207.112 187.213 208.184H190.349ZM199.154 213H197.89V208.136C197.89 207.048 197.458 206.488 196.434 206.488C195.698 206.488 195.202 206.808 194.77 207.192V213H193.49V203.928L193.266 202.28L194.77 202.072V206.168H194.786C195.282 205.736 195.97 205.336 196.898 205.336C198.178 205.336 199.154 206.136 199.154 207.688V213ZM207.582 209.256C207.582 211.448 206.542 213.176 204.382 213.176C202.014 213.176 201.182 211.496 201.182 209.256C201.182 207.064 202.222 205.336 204.382 205.336C206.75 205.336 207.582 207.016 207.582 209.256ZM206.27 209.288C206.27 207.432 205.646 206.456 204.382 206.456C203.15 206.456 202.494 207.32 202.494 209.208C202.494 211.064 203.118 212.056 204.382 212.056C205.614 212.056 206.27 211.176 206.27 209.288ZM210.864 213H209.584V203.928L209.36 202.28L210.864 202.072V213ZM219.013 212.952L217.781 213.128L217.669 212.376H217.653C217.173 212.776 216.517 213.176 215.637 213.176C213.989 213.176 212.885 211.816 212.885 209.592C212.885 207.016 214.213 205.432 216.485 205.432C217.093 205.432 217.525 205.544 217.525 205.544V203.928L217.285 202.28L218.789 202.072V211.304L219.013 212.952ZM216.085 212.056C216.709 212.056 217.141 211.8 217.525 211.496V206.712C217.525 206.712 217.109 206.504 216.373 206.504C214.917 206.504 214.197 207.736 214.197 209.192C214.197 211 214.677 212.056 216.085 212.056Z" fill="#00157E"/>
<path d="M116.764 253.512L114.7 260.968L113.516 261.032L111.692 255.352H111.676L109.836 260.984L108.652 261.032L106.78 253.592L107.996 253.288L109.34 259.128H109.356L111.1 253.512H112.348L114.108 259.128H114.124L115.516 253.512H116.764ZM119.756 261H118.476V255.24L118.252 253.592L119.756 253.384V261ZM120.012 251.56C120.012 252.072 119.612 252.456 119.132 252.456C118.636 252.456 118.22 252.072 118.22 251.56C118.22 251.048 118.636 250.648 119.132 250.648C119.612 250.648 120.012 251.048 120.012 251.56ZM123.567 261H122.287V251.928L122.063 250.28L123.567 250.072V261ZM127.348 261H126.068V251.928L125.844 250.28L127.348 250.072V261ZM139.161 256.808C139.161 259.304 137.865 261.16 135.497 261.16C134.665 261.16 133.753 261.016 133.209 260.808V251.928L132.985 250.28L134.489 250.072V254.088H134.505C134.985 253.688 135.625 253.336 136.473 253.336C138.233 253.336 139.161 254.6 139.161 256.808ZM137.865 257.272C137.865 255.624 137.481 254.504 136.025 254.504C135.353 254.504 134.873 254.776 134.489 255.112V259.928C134.809 260.008 135.129 260.056 135.609 260.056C137.097 260.056 137.865 258.792 137.865 257.272ZM146.41 260.6C145.69 261 144.954 261.176 144.042 261.176C141.834 261.176 140.698 259.688 140.698 257.208C140.698 254.888 141.914 253.336 143.802 253.336C145.61 253.336 146.346 254.536 146.346 256.184V257.08H141.946C141.962 259.08 142.682 260.04 144.314 260.04C144.938 260.04 145.418 259.864 145.962 259.592L146.41 260.6ZM145.146 256.184C145.146 255.064 144.73 254.36 143.738 254.36C142.778 254.36 142.17 255.112 142.01 256.184H145.146ZM156.878 260.6C156.158 261 155.422 261.176 154.51 261.176C152.302 261.176 151.166 259.688 151.166 257.208C151.166 254.888 152.382 253.336 154.27 253.336C156.078 253.336 156.814 254.536 156.814 256.184V257.08H152.414C152.43 259.08 153.15 260.04 154.782 260.04C155.406 260.04 155.886 259.864 156.43 259.592L156.878 260.6ZM155.614 256.184C155.614 255.064 155.198 254.36 154.206 254.36C153.246 254.36 152.638 255.112 152.478 256.184H155.614ZM164.02 260.664L162.932 261.272L160.852 258.072H160.836L158.964 261H157.62L160.228 257.112L157.988 253.848L159.06 253.24L160.916 256.056H160.932L162.532 253.512H163.892L161.524 257L164.02 260.664ZM170.597 260.6C169.877 261 169.141 261.176 168.229 261.176C166.021 261.176 164.885 259.688 164.885 257.208C164.885 254.888 166.101 253.336 167.989 253.336C169.797 253.336 170.533 254.536 170.533 256.184V257.08H166.133C166.149 259.08 166.869 260.04 168.501 260.04C169.125 260.04 169.605 259.864 170.149 259.592L170.597 260.6ZM169.333 256.184C169.333 255.064 168.917 254.36 167.925 254.36C166.965 254.36 166.357 255.112 166.197 256.184H169.333ZM177.339 253.656L176.939 254.808C176.523 254.648 176.059 254.504 175.531 254.504C174.123 254.504 173.275 255.56 173.275 257.144C173.275 259.144 174.059 260.056 175.499 260.056C176.011 260.056 176.427 259.88 176.843 259.704L177.275 260.744C176.651 261.032 175.963 261.176 175.243 261.176C173.099 261.176 171.995 259.64 171.995 257.352C171.995 254.6 173.691 253.336 175.595 253.336C176.251 253.336 176.811 253.448 177.339 253.656ZM185.004 260.92L183.74 261.128L183.612 260.264H183.596C183.036 260.792 182.3 261.176 181.372 261.176C180.108 261.176 179.1 260.36 179.1 258.824V255.24L178.876 253.592L180.38 253.384V258.376C180.38 259.48 180.796 260.056 181.804 260.056C182.524 260.056 183.036 259.752 183.5 259.32V255.24L183.276 253.592L184.78 253.384V259.272L185.004 260.92ZM191.079 260.696C190.615 260.952 190.183 261.16 189.367 261.16C188.215 261.16 187.479 260.408 187.479 259.128V254.552H186.375V253.704L187.479 253.48V252.232L188.743 252.072V253.512H190.839V254.552H188.743V258.696C188.743 259.704 188.999 260.024 189.735 260.024C190.135 260.024 190.439 259.864 190.663 259.72L191.079 260.696ZM197.769 260.6C197.049 261 196.313 261.176 195.401 261.176C193.193 261.176 192.057 259.688 192.057 257.208C192.057 254.888 193.273 253.336 195.161 253.336C196.969 253.336 197.705 254.536 197.705 256.184V257.08H193.305C193.321 259.08 194.041 260.04 195.673 260.04C196.297 260.04 196.777 259.864 197.321 259.592L197.769 260.6ZM196.505 256.184C196.505 255.064 196.089 254.36 195.097 254.36C194.137 254.36 193.529 255.112 193.369 256.184H196.505ZM205.294 260.952L204.062 261.128L203.95 260.376H203.934C203.454 260.776 202.798 261.176 201.918 261.176C200.27 261.176 199.166 259.816 199.166 257.592C199.166 255.016 200.494 253.432 202.766 253.432C203.374 253.432 203.806 253.544 203.806 253.544V251.928L203.566 250.28L205.07 250.072V259.304L205.294 260.952ZM202.366 260.056C202.99 260.056 203.422 259.8 203.806 259.496V254.712C203.806 254.712 203.39 254.504 202.654 254.504C201.198 254.504 200.478 255.736 200.478 257.192C200.478 259 200.958 260.056 202.366 260.056ZM216.671 261H215.391V256.136C215.391 255.032 214.975 254.472 213.967 254.472C213.247 254.472 212.735 254.776 212.271 255.192V261H210.991V255.24L210.767 253.592L212.031 253.384L212.159 254.264H212.175C212.735 253.72 213.471 253.336 214.399 253.336C215.663 253.336 216.671 254.152 216.671 255.688V261ZM225.082 257.256C225.082 259.448 224.042 261.176 221.882 261.176C219.514 261.176 218.682 259.496 218.682 257.256C218.682 255.064 219.722 253.336 221.882 253.336C224.25 253.336 225.082 255.016 225.082 257.256ZM223.77 257.288C223.77 255.432 223.146 254.456 221.882 254.456C220.65 254.456 219.994 255.32 219.994 257.208C219.994 259.064 220.618 260.056 221.882 260.056C223.114 260.056 223.77 259.176 223.77 257.288ZM236.092 253.512L234.028 260.968L232.844 261.032L231.02 255.352H231.004L229.164 260.984L227.98 261.032L226.108 253.592L227.324 253.288L228.668 259.128H228.684L230.428 253.512H231.676L233.436 259.128H233.452L234.844 253.512H236.092Z" fill="#00157E"/>
<path d="M20 300.5H323C324.933 300.5 326.5 302.067 326.5 304V336C326.5 337.933 324.933 339.5 323 339.5H20C18.067 339.5 16.5 337.933 16.5 336V304C16.5 302.067 18.067 300.5 20 300.5Z" fill="#00157E"/>
<path d="M20 300.5H323C324.933 300.5 326.5 302.067 326.5 304V336C326.5 337.933 324.933 339.5 323 339.5H20C18.067 339.5 16.5 337.933 16.5 336V304C16.5 302.067 18.067 300.5 20 300.5Z" stroke="#00157E"/>
<path d="M154.733 324.504C153.837 324.968 152.925 325.176 151.709 325.176C149.357 325.176 147.549 323.592 147.549 320.392C147.549 316.984 149.565 315.192 152.157 315.192C153.229 315.192 153.885 315.352 154.701 315.704L154.189 316.872C153.581 316.6 153.005 316.392 152.141 316.392C150.461 316.392 148.925 317.688 148.925 320.056C148.925 322.696 149.901 323.992 152.237 323.992C153.005 323.992 153.709 323.688 154.285 323.432L154.733 324.504ZM161.949 321.256C161.949 323.448 160.909 325.176 158.749 325.176C156.381 325.176 155.549 323.496 155.549 321.256C155.549 319.064 156.589 317.336 158.749 317.336C161.117 317.336 161.949 319.016 161.949 321.256ZM160.637 321.288C160.637 319.432 160.013 318.456 158.749 318.456C157.517 318.456 156.861 319.32 156.861 321.208C156.861 323.064 157.485 324.056 158.749 324.056C159.981 324.056 160.637 323.176 160.637 321.288ZM169.663 325H168.383V320.136C168.383 319.032 167.967 318.472 166.959 318.472C166.239 318.472 165.727 318.776 165.263 319.192V325H163.983V319.24L163.759 317.592L165.023 317.384L165.151 318.264H165.167C165.727 317.72 166.463 317.336 167.391 317.336C168.655 317.336 169.663 318.152 169.663 319.688V325ZM177.402 325H176.138V318.552H173.594V325H172.33V318.552H171.226V317.704L172.33 317.48V316.888C172.33 315.272 173.354 314.088 175.178 314.088C176.01 314.088 176.538 314.344 176.922 314.552L176.458 315.576C176.266 315.448 175.786 315.176 175.178 315.176C174.01 315.176 173.594 315.832 173.594 316.744V317.512H177.402V325ZM183.328 318.616C182.464 318.616 181.824 318.84 181.248 319.368V325H179.968V319.24L179.743 317.592L181.008 317.384L181.136 318.408H181.152C181.664 317.832 182.336 317.352 183.328 317.352V318.616ZM194.953 325H193.689V320.136C193.689 319.032 193.273 318.472 192.249 318.472C191.529 318.472 190.921 318.824 190.521 319.224C190.521 319.224 190.569 319.496 190.569 319.784V325H189.289V320.136C189.289 319.032 188.873 318.472 187.865 318.472C187.145 318.472 186.633 318.76 186.169 319.192V325H184.889V319.24L184.665 317.592L185.929 317.384L186.057 318.264H186.073C186.633 317.72 187.369 317.336 188.297 317.336C189.161 317.336 189.881 317.72 190.265 318.408H190.281C190.873 317.816 191.641 317.336 192.697 317.336C193.977 317.336 194.953 318.152 194.953 319.688V325Z" fill="white"/>
</svg>
