<svg width="420" height="56" viewBox="0 0 420 56" fill="none" xmlns="http://www.w3.org/2000/svg">
<mask id="path-1-inside-1_367_3836" fill="white">
<path d="M0 8C0 3.58172 3.58172 0 8 0H412C416.418 0 420 3.58172 420 8V56H0V8Z"/>
</mask>
<path d="M0 8C0 3.58172 3.58172 0 8 0H412C416.418 0 420 3.58172 420 8V56H0V8Z" fill="white"/>
<path d="M0 0H420H0M420 57H0V55H420V57ZM420 55M0 56V0V56M0 56M420 0V56V0" fill="#00157E" fill-opacity="0.1" mask="url(#path-1-inside-1_367_3836)"/>
<path d="M28 24C29.6569 24 31 22.6569 31 21C31 19.3431 29.6569 18 28 18C26.3431 18 25 19.3431 25 21C25 22.6569 26.3431 24 28 24Z" stroke="#00157E" stroke-width="2" stroke-linecap="round" stroke-linejoin="round"/>
<path d="M28 38V24" stroke="#00157E" stroke-width="2" stroke-linecap="round" stroke-linejoin="round"/>
<path d="M21 28H18C18 30.6522 19.0536 33.1957 20.9289 35.0711C22.8043 36.9464 25.3478 38 28 38C30.6522 38 33.1957 36.9464 35.0711 35.0711C36.9464 33.1957 38 30.6522 38 28H35" stroke="#00157E" stroke-width="2" stroke-linecap="round" stroke-linejoin="round"/>
<path d="M61.726 21.634C61.726 23.104 60.704 24.154 59.01 24.154C58.142 24.154 57.372 23.972 56.714 23.692L57.078 22.67C57.624 22.922 58.268 23.132 58.926 23.132C59.948 23.132 60.606 22.74 60.606 21.816C60.606 21.13 60.102 20.794 59.43 20.472L58.114 19.842C57.232 19.422 56.63 18.876 56.63 17.686C56.63 16.244 57.89 15.418 59.346 15.418C60.13 15.418 60.634 15.544 61.362 15.81L60.97 16.804C60.522 16.594 60.032 16.398 59.416 16.398C58.548 16.398 57.764 16.748 57.764 17.644C57.764 18.246 58.128 18.54 58.688 18.806L60.032 19.464C61.096 19.982 61.726 20.556 61.726 21.634ZM67.7207 23.93L66.6007 24.112L66.5027 23.342H66.4887C66.0127 23.79 65.4947 24.168 64.7107 24.168C63.6187 24.168 62.9747 23.51 62.9747 22.474C62.9747 21.298 63.8987 20.724 65.2287 20.584L66.4047 20.458V19.87C66.4047 18.96 66.1247 18.316 65.0467 18.316C64.5007 18.316 64.0947 18.484 63.6887 18.694L63.2827 17.868C63.8707 17.518 64.4727 17.294 65.3127 17.294C66.6287 17.294 67.5107 18.064 67.5107 19.366V22.488L67.7207 23.93ZM66.4047 22.642V21.214L65.3827 21.354C64.5427 21.466 64.0807 21.732 64.0807 22.334C64.0807 22.88 64.4167 23.244 64.9767 23.244C65.6347 23.244 66.0407 22.964 66.4047 22.642ZM74.3901 17.448L72.0241 23.986L70.9181 24.028L68.7621 17.546L69.8821 17.266L71.5201 22.544H71.5341L73.2701 17.448H74.3901ZM76.9301 24H75.8101V18.96L75.6141 17.518L76.9301 17.336V24ZM77.1541 15.74C77.1541 16.188 76.8041 16.524 76.3841 16.524C75.9501 16.524 75.5861 16.188 75.5861 15.74C75.5861 15.292 75.9501 14.942 76.3841 14.942C76.8041 14.942 77.1541 15.292 77.1541 15.74ZM84.1427 24H83.0227V19.744C83.0227 18.778 82.6587 18.288 81.7767 18.288C81.1467 18.288 80.6987 18.554 80.2927 18.918V24H79.1727V18.96L78.9767 17.518L80.0827 17.336L80.1947 18.106H80.2087C80.6987 17.63 81.3427 17.294 82.1547 17.294C83.2607 17.294 84.1427 18.008 84.1427 19.352V24ZM91.6985 18.274H90.3825C90.5785 18.61 90.6905 19.002 90.6905 19.478C90.6905 20.808 89.7245 21.704 88.3805 21.704C88.1145 21.704 87.8625 21.662 87.6385 21.606C87.6385 21.606 87.1905 21.858 87.1905 22.362C87.1905 22.796 87.5125 22.88 87.9605 22.88H89.8365C90.9845 22.88 91.6565 23.23 91.6565 24.252C91.6565 25.54 90.3405 26.996 87.9465 26.996C86.5745 26.996 85.7345 26.324 85.7345 25.176C85.7345 24.098 86.6165 23.566 86.6165 23.566C86.3365 23.384 86.1545 23.104 86.1545 22.642C86.1545 21.83 86.8545 21.424 86.9945 21.354C86.3785 20.976 86.0425 20.332 86.0425 19.478C86.0425 18.148 87.0225 17.266 88.3805 17.266C88.8845 17.266 89.3465 17.378 89.7105 17.602L91.6985 17.294V18.274ZM90.6765 24.42C90.6765 23.944 90.2705 23.846 89.5845 23.846H87.8205C87.6245 23.846 87.4425 23.832 87.2605 23.804C87.2605 23.804 86.7285 24.224 86.7285 24.924C86.7285 25.68 87.1905 26.086 88.1985 26.086C89.8085 26.086 90.6765 25.134 90.6765 24.42ZM89.6405 19.478C89.6405 18.568 89.1365 18.106 88.3805 18.106C87.6525 18.106 87.0925 18.596 87.0925 19.478C87.0925 20.402 87.6105 20.864 88.3805 20.864C89.0945 20.864 89.6405 20.374 89.6405 19.478ZM96.9804 22.096C96.9804 23.286 96.0424 24.14 94.6424 24.14C93.9704 24.14 93.2984 24.042 92.7664 23.79L93.1024 22.81C93.5644 23.02 94.0824 23.188 94.5864 23.188C95.3424 23.188 95.8464 22.894 95.8464 22.278C95.8464 21.802 95.5944 21.606 95.1604 21.41L93.9424 20.85C93.5084 20.654 92.7244 20.262 92.7244 19.128C92.7244 17.882 93.8164 17.294 95.0064 17.294C95.7204 17.294 96.2244 17.406 96.7844 17.644L96.4064 18.61C95.9584 18.414 95.5244 18.274 94.9924 18.274C94.2784 18.274 93.8164 18.498 93.8164 19.058C93.8164 19.548 94.2364 19.744 94.5024 19.87L95.7484 20.458C96.6164 20.864 96.9804 21.382 96.9804 22.096ZM105.988 23.93L104.868 24.112L104.77 23.342H104.756C104.28 23.79 103.762 24.168 102.978 24.168C101.886 24.168 101.242 23.51 101.242 22.474C101.242 21.298 102.166 20.724 103.496 20.584L104.672 20.458V19.87C104.672 18.96 104.392 18.316 103.314 18.316C102.768 18.316 102.362 18.484 101.956 18.694L101.55 17.868C102.138 17.518 102.74 17.294 103.58 17.294C104.896 17.294 105.778 18.064 105.778 19.366V22.488L105.988 23.93ZM104.672 22.642V21.214L103.65 21.354C102.81 21.466 102.348 21.732 102.348 22.334C102.348 22.88 102.684 23.244 103.244 23.244C103.902 23.244 104.308 22.964 104.672 22.642ZM112.262 17.574L111.912 18.582C111.548 18.442 111.142 18.316 110.68 18.316C109.448 18.316 108.706 19.24 108.706 20.626C108.706 22.376 109.392 23.174 110.652 23.174C111.1 23.174 111.464 23.02 111.828 22.866L112.206 23.776C111.66 24.028 111.058 24.154 110.428 24.154C108.552 24.154 107.586 22.81 107.586 20.808C107.586 18.4 109.07 17.294 110.736 17.294C111.31 17.294 111.8 17.392 112.262 17.574ZM117.786 17.574L117.436 18.582C117.072 18.442 116.666 18.316 116.204 18.316C114.972 18.316 114.23 19.24 114.23 20.626C114.23 22.376 114.916 23.174 116.176 23.174C116.624 23.174 116.988 23.02 117.352 22.866L117.73 23.776C117.184 24.028 116.582 24.154 115.952 24.154C114.076 24.154 113.11 22.81 113.11 20.808C113.11 18.4 114.594 17.294 116.26 17.294C116.834 17.294 117.324 17.392 117.786 17.574ZM124.233 20.724C124.233 22.642 123.323 24.154 121.433 24.154C119.361 24.154 118.633 22.684 118.633 20.724C118.633 18.806 119.543 17.294 121.433 17.294C123.505 17.294 124.233 18.764 124.233 20.724ZM123.085 20.752C123.085 19.128 122.539 18.274 121.433 18.274C120.355 18.274 119.781 19.03 119.781 20.682C119.781 22.306 120.327 23.174 121.433 23.174C122.511 23.174 123.085 22.404 123.085 20.752ZM131.179 23.93L130.073 24.112L129.961 23.356H129.947C129.457 23.818 128.813 24.154 128.001 24.154C126.895 24.154 126.013 23.44 126.013 22.096V18.96L125.817 17.518L127.133 17.336V21.704C127.133 22.67 127.497 23.174 128.379 23.174C129.009 23.174 129.457 22.908 129.863 22.53V18.96L129.667 17.518L130.983 17.336V22.488L131.179 23.93ZM138.188 24H137.068V19.744C137.068 18.778 136.704 18.288 135.822 18.288C135.192 18.288 134.744 18.554 134.338 18.918V24H133.218V18.96L133.022 17.518L134.128 17.336L134.24 18.106H134.254C134.744 17.63 135.388 17.294 136.2 17.294C137.306 17.294 138.188 18.008 138.188 19.352V24ZM143.671 23.734C143.265 23.958 142.887 24.14 142.173 24.14C141.165 24.14 140.521 23.482 140.521 22.362V18.358H139.555V17.616L140.521 17.42V16.328L141.627 16.188V17.448H143.461V18.358H141.627V21.984C141.627 22.866 141.851 23.146 142.495 23.146C142.845 23.146 143.111 23.006 143.307 22.88L143.671 23.734Z" fill="#00157E"/>
<path d="M61.964 38.628C61.292 38.976 60.608 39.132 59.696 39.132C57.932 39.132 56.576 37.944 56.576 35.544C56.576 32.988 58.088 31.644 60.032 31.644C60.836 31.644 61.328 31.764 61.94 32.028L61.556 32.904C61.1 32.7 60.668 32.544 60.02 32.544C58.76 32.544 57.608 33.516 57.608 35.292C57.608 37.272 58.34 38.244 60.092 38.244C60.668 38.244 61.196 38.016 61.628 37.824L61.964 38.628ZM68.4867 39H67.4787V35.7H64.2267V39H63.2187V31.776H64.2267V34.848H67.4787V31.776H68.4867V39ZM73.9043 38.52C73.9043 39.96 72.9803 40.872 71.3963 40.872C70.9283 40.872 70.4363 40.788 69.9923 40.68L70.2083 39.78C70.6043 39.9 70.9403 39.996 71.4203 39.996C72.3683 39.996 72.9443 39.528 72.9443 38.664C72.9443 37.488 71.8643 37.032 70.3403 37.032V36.348C72.1163 36.24 72.6083 35.448 72.6083 34.668C72.6083 33.984 72.1883 33.6 71.5163 33.6C70.9643 33.6 70.6403 33.78 70.2803 34.02L69.8843 33.36C70.3163 33.024 70.8683 32.748 71.7083 32.748C72.8603 32.748 73.5683 33.432 73.5683 34.548C73.5683 35.52 73.0043 36.168 72.2003 36.552V36.564C73.3763 36.816 73.9043 37.596 73.9043 38.52ZM78.9696 37.92C78.9696 40.224 76.7976 40.872 75.2496 40.992L75.1296 40.176C76.2216 40.056 77.9856 39.624 77.9856 38.052C77.9856 37.068 77.4336 36.492 75.8976 36.492H75.0936L75.3576 32.88H78.7776V33.756H76.1856L76.0296 35.772C76.0296 35.772 76.3056 35.748 76.5576 35.748C77.9496 35.748 78.9696 36.48 78.9696 37.92ZM87.5593 35.94C87.5593 37.536 86.9353 39.132 85.1233 39.132C83.2993 39.132 82.6753 37.536 82.6753 35.94C82.6753 34.344 83.2993 32.748 85.1233 32.748C86.9353 32.748 87.5593 34.344 87.5593 35.94ZM86.5753 35.94C86.5753 34.596 86.1313 33.588 85.1233 33.588C84.1033 33.588 83.6593 34.596 83.6593 35.94C83.6593 37.284 84.1033 38.292 85.1233 38.292C86.1313 38.292 86.5753 37.284 86.5753 35.94ZM93.1231 35.844C93.1231 39.156 91.4431 40.704 89.0551 40.992L88.8631 40.212C90.3751 40.032 91.8991 39.06 92.1151 36.768L92.1031 36.756C92.1031 36.756 91.5391 37.236 90.6871 37.236C89.4871 37.236 88.7071 36.336 88.7071 35.1C88.7071 33.6 89.6071 32.748 90.9631 32.748C92.3551 32.748 93.1231 33.708 93.1231 35.844ZM92.1271 35.832C92.1271 34.644 91.9111 33.564 90.8431 33.564C90.0871 33.564 89.6431 34.188 89.6431 34.968C89.6431 35.964 90.0991 36.444 90.9511 36.444C91.6831 36.444 92.1271 36.012 92.1271 36.012V35.832ZM99.3484 35.94C99.3484 37.536 98.7244 39.132 96.9124 39.132C95.0884 39.132 94.4644 37.536 94.4644 35.94C94.4644 34.344 95.0884 32.748 96.9124 32.748C98.7244 32.748 99.3484 34.344 99.3484 35.94ZM98.3644 35.94C98.3644 34.596 97.9204 33.588 96.9124 33.588C95.8924 33.588 95.4484 34.596 95.4484 35.94C95.4484 37.284 95.8924 38.292 96.9124 38.292C97.9204 38.292 98.3644 37.284 98.3644 35.94ZM105.524 35.94C105.524 37.536 104.9 39.132 103.088 39.132C101.264 39.132 100.64 37.536 100.64 35.94C100.64 34.344 101.264 32.748 103.088 32.748C104.9 32.748 105.524 34.344 105.524 35.94ZM104.54 35.94C104.54 34.596 104.096 33.588 103.088 33.588C102.068 33.588 101.624 34.596 101.624 35.94C101.624 37.284 102.068 38.292 103.088 38.292C104.096 38.292 104.54 37.284 104.54 35.94ZM114.22 35.94C114.22 37.536 113.596 39.132 111.784 39.132C109.96 39.132 109.336 37.536 109.336 35.94C109.336 34.344 109.96 32.748 111.784 32.748C113.596 32.748 114.22 34.344 114.22 35.94ZM113.236 35.94C113.236 34.596 112.792 33.588 111.784 33.588C110.764 33.588 110.32 34.596 110.32 35.94C110.32 37.284 110.764 38.292 111.784 38.292C112.792 38.292 113.236 37.284 113.236 35.94ZM120.395 35.94C120.395 37.536 119.771 39.132 117.959 39.132C116.135 39.132 115.511 37.536 115.511 35.94C115.511 34.344 116.135 32.748 117.959 32.748C119.771 32.748 120.395 34.344 120.395 35.94ZM119.411 35.94C119.411 34.596 118.967 33.588 117.959 33.588C116.939 33.588 116.495 34.596 116.495 35.94C116.495 37.284 116.939 38.292 117.959 38.292C118.967 38.292 119.411 37.284 119.411 35.94ZM126.571 35.94C126.571 37.536 125.947 39.132 124.135 39.132C122.311 39.132 121.687 37.536 121.687 35.94C121.687 34.344 122.311 32.748 124.135 32.748C125.947 32.748 126.571 34.344 126.571 35.94ZM125.587 35.94C125.587 34.596 125.143 33.588 124.135 33.588C123.115 33.588 122.671 34.596 122.671 35.94C122.671 37.284 123.115 38.292 124.135 38.292C125.143 38.292 125.587 37.284 125.587 35.94ZM132.747 35.94C132.747 37.536 132.123 39.132 130.311 39.132C128.487 39.132 127.863 37.536 127.863 35.94C127.863 34.344 128.487 32.748 130.311 32.748C132.123 32.748 132.747 34.344 132.747 35.94ZM131.763 35.94C131.763 34.596 131.319 33.588 130.311 33.588C129.291 33.588 128.847 34.596 128.847 35.94C128.847 37.284 129.291 38.292 130.311 38.292C131.319 38.292 131.763 37.284 131.763 35.94ZM140.842 39H136.39V38.376L138.442 36.408C138.994 35.868 139.414 35.472 139.414 34.812C139.414 34.116 138.982 33.6 138.178 33.6C137.638 33.6 137.254 33.84 136.966 34.08L136.51 33.444C137.026 33.012 137.554 32.748 138.382 32.748C139.57 32.748 140.386 33.444 140.386 34.704C140.386 35.544 139.882 36.18 139.306 36.708L137.77 38.124V38.136H140.842V39ZM147.36 38.244H145.908V40.692L144.984 40.848V38.244H141.684V37.464L145.02 32.88H145.908V37.428H147.36V38.244ZM144.984 37.428V34.176H144.972L142.668 37.428H144.984ZM151.969 33.696L148.537 40.98L147.733 40.572L150.925 33.756H147.661V32.88H151.969V33.696ZM157.708 35.94C157.708 37.536 157.084 39.132 155.272 39.132C153.448 39.132 152.824 37.536 152.824 35.94C152.824 34.344 153.448 32.748 155.272 32.748C157.084 32.748 157.708 34.344 157.708 35.94ZM156.724 35.94C156.724 34.596 156.28 33.588 155.272 33.588C154.252 33.588 153.808 34.596 153.808 35.94C153.808 37.284 154.252 38.292 155.272 38.292C156.28 38.292 156.724 37.284 156.724 35.94ZM165.803 39H161.351V38.376L163.403 36.408C163.955 35.868 164.375 35.472 164.375 34.812C164.375 34.116 163.943 33.6 163.139 33.6C162.599 33.6 162.215 33.84 161.927 34.08L161.471 33.444C161.987 33.012 162.515 32.748 163.343 32.748C164.531 32.748 165.347 33.444 165.347 34.704C165.347 35.544 164.843 36.18 164.267 36.708L162.731 38.124V38.136H165.803V39ZM171.088 35.844C171.088 39.156 169.408 40.704 167.02 40.992L166.828 40.212C168.34 40.032 169.864 39.06 170.08 36.768L170.068 36.756C170.068 36.756 169.504 37.236 168.652 37.236C167.452 37.236 166.672 36.336 166.672 35.1C166.672 33.6 167.572 32.748 168.928 32.748C170.32 32.748 171.088 33.708 171.088 35.844ZM170.092 35.832C170.092 34.644 169.876 33.564 168.808 33.564C168.052 33.564 167.608 34.188 167.608 34.968C167.608 35.964 168.064 36.444 168.916 36.444C169.648 36.444 170.092 36.012 170.092 36.012V35.832ZM176.713 39H172.261V38.376L174.313 36.408C174.865 35.868 175.285 35.472 175.285 34.812C175.285 34.116 174.853 33.6 174.049 33.6C173.509 33.6 173.125 33.84 172.837 34.08L172.381 33.444C172.897 33.012 173.425 32.748 174.253 32.748C175.441 32.748 176.257 33.444 176.257 34.704C176.257 35.544 175.753 36.18 175.177 36.708L173.641 38.124V38.136H176.713V39ZM182.61 35.94C182.61 37.536 181.986 39.132 180.174 39.132C178.35 39.132 177.726 37.536 177.726 35.94C177.726 34.344 178.35 32.748 180.174 32.748C181.986 32.748 182.61 34.344 182.61 35.94ZM181.626 35.94C181.626 34.596 181.182 33.588 180.174 33.588C179.154 33.588 178.71 34.596 178.71 35.94C178.71 37.284 179.154 38.292 180.174 38.292C181.182 38.292 181.626 37.284 181.626 35.94ZM190.705 39H186.253V38.376L188.305 36.408C188.857 35.868 189.277 35.472 189.277 34.812C189.277 34.116 188.845 33.6 188.041 33.6C187.501 33.6 187.117 33.84 186.829 34.08L186.373 33.444C186.889 33.012 187.417 32.748 188.245 32.748C189.433 32.748 190.249 33.444 190.249 34.704C190.249 35.544 189.745 36.18 189.169 36.708L187.633 38.124V38.136H190.705V39Z" fill="#00157E" fill-opacity="0.7"/>
<path d="M325.432 20.072C325.432 22.136 324.268 23.156 322.708 23.156C321.04 23.156 319.972 22.316 319.972 20.048V15.776H321.004V20.096C321.004 21.524 321.556 22.196 322.672 22.196C323.788 22.196 324.472 21.512 324.472 20.12V15.776H325.432V20.072ZM331.314 20.972C331.314 22.232 330.438 23.132 328.986 23.132C328.242 23.132 327.582 22.976 327.018 22.736L327.33 21.86C327.798 22.076 328.35 22.256 328.914 22.256C329.79 22.256 330.354 21.92 330.354 21.128C330.354 20.54 329.922 20.252 329.346 19.976L328.218 19.436C327.462 19.076 326.946 18.608 326.946 17.588C326.946 16.352 328.026 15.644 329.274 15.644C329.946 15.644 330.378 15.752 331.002 15.98L330.666 16.832C330.282 16.652 329.862 16.484 329.334 16.484C328.59 16.484 327.918 16.784 327.918 17.552C327.918 18.068 328.23 18.32 328.71 18.548L329.862 19.112C330.774 19.556 331.314 20.048 331.314 20.972ZM338.469 18.932C338.469 21.572 336.885 23 334.317 23H332.805V15.824C332.805 15.824 333.801 15.704 334.869 15.704C337.101 15.704 338.469 16.868 338.469 18.932ZM337.425 19.076C337.425 17.372 336.273 16.556 334.701 16.556C334.197 16.556 333.813 16.58 333.813 16.58V22.1H334.509C336.225 22.1 337.425 21.08 337.425 19.076Z" fill="#00157E" fill-opacity="0.7"/>
<path d="M354.483 24H349.037V22.922L351.263 20.864C351.781 20.388 352.131 20.038 352.131 19.38C352.131 18.736 351.725 18.302 351.081 18.302C350.479 18.302 350.101 18.54 349.793 18.778L349.009 17.602C349.653 17.042 350.395 16.692 351.445 16.692C352.929 16.692 353.951 17.56 353.951 19.086C353.951 20.024 353.405 20.752 352.817 21.284L351.599 22.376V22.39H354.483V24ZM360.421 22.558C360.421 25.064 358.279 26.044 355.773 26.338L355.507 24.826C356.683 24.644 358.601 24.238 358.601 22.74C358.601 21.802 357.915 21.34 356.333 21.34H355.507L355.773 16.86H360.169V18.456H357.243L357.145 20.108C357.145 20.108 357.411 20.094 357.691 20.094C359.399 20.094 360.421 20.934 360.421 22.558ZM363.692 16.594C363.692 18.022 363.118 18.82 362.082 19.562L361.578 19.016C362.068 18.596 362.39 18.148 362.502 17.532C361.984 17.476 361.564 17.014 361.564 16.482C361.564 15.908 362.04 15.432 362.614 15.432C363.216 15.432 363.692 15.88 363.692 16.594ZM370.974 20.43C370.974 22.39 370.12 24.168 367.964 24.168C365.808 24.168 364.954 22.39 364.954 20.43C364.954 18.47 365.808 16.692 367.964 16.692C370.12 16.692 370.974 18.47 370.974 20.43ZM369.182 20.43C369.182 19.086 368.804 18.274 367.964 18.274C367.138 18.274 366.746 19.086 366.746 20.43C366.746 21.774 367.138 22.586 367.964 22.586C368.804 22.586 369.182 21.774 369.182 20.43ZM378.22 20.43C378.22 22.39 377.366 24.168 375.21 24.168C373.054 24.168 372.2 22.39 372.2 20.43C372.2 18.47 373.054 16.692 375.21 16.692C377.366 16.692 378.22 18.47 378.22 20.43ZM376.428 20.43C376.428 19.086 376.05 18.274 375.21 18.274C374.384 18.274 373.992 19.086 373.992 20.43C373.992 21.774 374.384 22.586 375.21 22.586C376.05 22.586 376.428 21.774 376.428 20.43ZM385.466 20.43C385.466 22.39 384.612 24.168 382.456 24.168C380.3 24.168 379.446 22.39 379.446 20.43C379.446 18.47 380.3 16.692 382.456 16.692C384.612 16.692 385.466 18.47 385.466 20.43ZM383.674 20.43C383.674 19.086 383.296 18.274 382.456 18.274C381.63 18.274 381.238 19.086 381.238 20.43C381.238 21.774 381.63 22.586 382.456 22.586C383.296 22.586 383.674 21.774 383.674 20.43ZM388.862 23.048C388.862 23.636 388.386 24.112 387.798 24.112C387.21 24.112 386.734 23.636 386.734 23.048C386.734 22.474 387.21 21.998 387.798 21.998C388.386 21.998 388.862 22.474 388.862 23.048ZM396.144 20.43C396.144 22.39 395.29 24.168 393.134 24.168C390.978 24.168 390.124 22.39 390.124 20.43C390.124 18.47 390.978 16.692 393.134 16.692C395.29 16.692 396.144 18.47 396.144 20.43ZM394.352 20.43C394.352 19.086 393.974 18.274 393.134 18.274C392.308 18.274 391.916 19.086 391.916 20.43C391.916 21.774 392.308 22.586 393.134 22.586C393.974 22.586 394.352 21.774 394.352 20.43ZM403.39 20.43C403.39 22.39 402.536 24.168 400.38 24.168C398.224 24.168 397.37 22.39 397.37 20.43C397.37 18.47 398.224 16.692 400.38 16.692C402.536 16.692 403.39 18.47 403.39 20.43ZM401.598 20.43C401.598 19.086 401.22 18.274 400.38 18.274C399.554 18.274 399.162 19.086 399.162 20.43C399.162 21.774 399.554 22.586 400.38 22.586C401.22 22.586 401.598 21.774 401.598 20.43Z" fill="#00157E"/>
</svg>
