<svg width="420" height="128" viewBox="0 0 420 128" fill="none" xmlns="http://www.w3.org/2000/svg">
<path d="M0 8C0 3.58173 3.58172 0 8 0H412C416.418 0 420 3.58172 420 8V120.003C420 124.421 416.418 128.003 412 128.003H8C3.58172 128.003 0 124.421 0 120.003V8Z" fill="white"/>
<path d="M8 0.5H412C416.142 0.5 419.5 3.85786 419.5 8V120.003C419.5 124.145 416.142 127.503 412 127.503H8C3.85786 127.503 0.5 124.145 0.5 120.003V8C0.500002 3.85787 3.85787 0.5 8 0.5Z" stroke="#00157E" stroke-opacity="0.2"/>
<path d="M27.641 37.061L25.301 38.481L20.141 31.941L24.361 25.961H27.241L23.121 31.521L27.641 37.061ZM20.081 38.001H17.381V25.961H20.081V38.001ZM36.1216 37.441C35.0616 37.981 34.1816 38.241 32.9016 38.241C29.7416 38.241 28.3416 36.321 28.3416 33.121C28.3416 30.261 30.0416 28.321 32.5616 28.321C35.2016 28.321 36.0616 30.141 36.0616 32.421V33.541H30.8216C30.9016 35.221 31.7016 36.021 33.2216 36.021C34.1216 36.021 34.6216 35.801 35.3416 35.501L36.1216 37.441ZM33.8416 32.001C33.8416 31.021 33.4216 30.361 32.4816 30.361C31.4816 30.361 30.9816 31.121 30.8616 32.001H33.8416ZM45.9432 28.541L43.0232 36.761C41.6632 40.621 39.6432 41.761 36.4232 42.241L35.9632 40.141C37.6432 39.881 39.4832 38.961 40.1432 37.641L36.8432 28.821L39.3232 28.201L41.4632 34.641H41.4832L43.4832 28.541H45.9432ZM59.6755 38.001H57.1555V30.541H54.5355V38.001H52.0155V30.541H50.5555V28.861L52.0155 28.521V28.181C52.0155 25.881 53.5955 24.301 56.3955 24.301C57.4755 24.301 58.3155 24.641 58.9555 24.981L58.1155 27.061C57.7355 26.801 57.0755 26.561 56.3155 26.561C55.1155 26.561 54.5355 27.121 54.5355 28.121V28.541H59.6755V38.001ZM70.4619 30.081H68.6419C68.8619 30.521 68.9619 31.001 68.9619 31.541C68.9619 33.281 67.7619 34.801 65.4419 34.801C65.1019 34.801 64.7619 34.761 64.4619 34.701C64.4619 34.701 64.1019 34.961 64.1019 35.401C64.1019 35.841 64.4219 35.961 64.8419 35.961H67.8019C69.4619 35.961 70.3419 36.641 70.3419 38.041C70.3419 39.981 68.6419 42.301 64.9819 42.301C62.7419 42.301 61.5419 41.421 61.5419 39.721C61.5419 38.161 62.7219 37.581 62.7219 37.581C62.3019 37.261 62.0019 36.861 62.0019 36.081C62.0019 34.921 62.9619 34.321 63.2219 34.201C62.3219 33.601 61.8819 32.621 61.8819 31.541C61.8819 29.801 63.1019 28.281 65.4419 28.281C66.2019 28.281 66.8619 28.441 67.3819 28.721L70.4619 28.301V30.081ZM68.1819 38.621C68.1819 38.221 67.8619 38.101 67.3219 38.101H64.9219C64.6219 38.101 64.3219 38.081 64.0419 38.041C64.0419 38.041 63.6019 38.421 63.6019 39.121C63.6019 39.961 64.2019 40.361 65.2419 40.361C67.0619 40.361 68.1819 39.481 68.1819 38.621ZM66.6819 31.561C66.6819 30.621 66.1819 30.141 65.4419 30.141C64.7019 30.141 64.1619 30.641 64.1619 31.561C64.1619 32.521 64.6819 32.981 65.4419 32.981C66.1619 32.981 66.6819 32.501 66.6819 31.561ZM80.4052 37.861L77.9652 38.181L77.8252 37.161H77.8052C77.2452 37.701 76.3052 38.241 75.0452 38.241C73.4252 38.241 72.1052 37.281 72.1052 35.161V31.001L71.7852 28.661L74.6452 28.341V34.541C74.6452 35.561 75.0652 36.021 75.9452 36.021C76.6052 36.021 77.1652 35.721 77.5452 35.341V31.001L77.2252 28.661L80.0852 28.341V35.521L80.4052 37.861ZM87.7725 30.621C86.6125 30.621 85.8525 30.821 85.1725 31.581V38.001H82.6325V31.001L82.3125 28.661L84.7525 28.341L84.9125 29.681H84.9325C85.4725 28.961 86.2925 28.301 87.7725 28.301V30.621ZM96.2193 37.441C95.1593 37.981 94.2793 38.241 92.9993 38.241C89.8393 38.241 88.4393 36.321 88.4393 33.121C88.4393 30.261 90.1393 28.321 92.6593 28.321C95.2993 28.321 96.1593 30.141 96.1593 32.421V33.541H90.9193C90.9993 35.221 91.7993 36.021 93.3193 36.021C94.2193 36.021 94.7193 35.801 95.4393 35.501L96.2193 37.441ZM93.9393 32.001C93.9393 31.021 93.5193 30.361 92.5793 30.361C91.5793 30.361 91.0793 31.121 90.9593 32.001H93.9393ZM104.141 34.961C104.141 36.781 102.681 38.221 100.481 38.221C99.3408 38.221 98.3208 38.041 97.4608 37.641L98.1208 35.561C98.8408 35.861 99.5408 36.161 100.341 36.161C101.201 36.161 101.621 35.861 101.621 35.361C101.621 34.901 101.401 34.721 100.881 34.501L99.4008 33.881C98.5208 33.521 97.5608 32.861 97.5608 31.301C97.5608 29.341 99.2208 28.301 101.201 28.301C102.321 28.301 103.081 28.481 103.981 28.861L103.201 30.901C102.561 30.641 101.941 30.381 101.221 30.381C100.441 30.381 100.001 30.601 100.001 31.121C100.001 31.621 100.401 31.801 100.761 31.941L102.301 32.561C103.501 33.041 104.141 33.801 104.141 34.961Z" fill="#00157E"/>
<path d="M316.999 20.001C316.999 17.7918 318.79 16.001 320.999 16.001H399.999C402.208 16.001 403.999 17.7918 403.999 20.001V44.001C403.999 46.2101 402.208 48.001 399.999 48.001H320.999C318.79 48.001 316.999 46.2101 316.999 44.001V20.001Z" fill="#00157E" fill-opacity="0.05"/>
<path d="M333.251 31.255C333.251 34.335 331.403 36.001 328.407 36.001H326.643V27.629C326.643 27.629 327.805 27.489 329.051 27.489C331.655 27.489 333.251 28.847 333.251 31.255ZM332.033 31.423C332.033 29.435 330.689 28.483 328.855 28.483C328.267 28.483 327.819 28.511 327.819 28.511V34.951H328.631C330.633 34.951 332.033 33.761 332.033 31.423ZM339.587 35.651C338.957 36.001 338.313 36.155 337.515 36.155C335.583 36.155 334.589 34.853 334.589 32.683C334.589 30.653 335.653 29.295 337.305 29.295C338.887 29.295 339.531 30.345 339.531 31.787V32.571H335.681C335.695 34.321 336.325 35.161 337.753 35.161C338.299 35.161 338.719 35.007 339.195 34.769L339.587 35.651ZM338.481 31.787C338.481 30.807 338.117 30.191 337.249 30.191C336.409 30.191 335.877 30.849 335.737 31.787H338.481ZM344.534 35.735C344.128 35.959 343.75 36.141 343.036 36.141C342.028 36.141 341.384 35.483 341.384 34.363V30.359H340.418V29.617L341.384 29.421V28.329L342.49 28.189V29.449H344.324V30.359H342.49V33.985C342.49 34.867 342.714 35.147 343.358 35.147C343.708 35.147 343.974 35.007 344.17 34.881L344.534 35.735ZM350.327 35.931L349.207 36.113L349.109 35.343H349.095C348.619 35.791 348.101 36.169 347.317 36.169C346.225 36.169 345.581 35.511 345.581 34.475C345.581 33.299 346.505 32.725 347.835 32.585L349.011 32.459V31.871C349.011 30.961 348.731 30.317 347.653 30.317C347.107 30.317 346.701 30.485 346.295 30.695L345.889 29.869C346.477 29.519 347.079 29.295 347.919 29.295C349.235 29.295 350.117 30.065 350.117 31.367V34.489L350.327 35.931ZM349.011 34.643V33.215L347.989 33.355C347.149 33.467 346.687 33.733 346.687 34.335C346.687 34.881 347.023 35.245 347.583 35.245C348.241 35.245 348.647 34.965 349.011 34.643ZM353.521 36.001H352.401V30.961L352.205 29.519L353.521 29.337V36.001ZM353.745 27.741C353.745 28.189 353.395 28.525 352.975 28.525C352.541 28.525 352.177 28.189 352.177 27.741C352.177 27.293 352.541 26.943 352.975 26.943C353.395 26.943 353.745 27.293 353.745 27.741ZM356.856 36.001H355.736V28.063L355.54 26.621L356.856 26.439V36.001ZM362.866 34.097C362.866 35.287 361.928 36.141 360.528 36.141C359.856 36.141 359.184 36.043 358.652 35.791L358.988 34.811C359.45 35.021 359.968 35.189 360.472 35.189C361.228 35.189 361.732 34.895 361.732 34.279C361.732 33.803 361.48 33.607 361.046 33.411L359.828 32.851C359.394 32.655 358.61 32.263 358.61 31.129C358.61 29.883 359.702 29.295 360.892 29.295C361.606 29.295 362.11 29.407 362.67 29.645L362.292 30.611C361.844 30.415 361.41 30.275 360.878 30.275C360.164 30.275 359.702 30.499 359.702 31.059C359.702 31.549 360.122 31.745 360.388 31.871L361.634 32.459C362.502 32.865 362.866 33.383 362.866 34.097Z" fill="#00157E"/>
<path d="M376.999 32.001H390.999" stroke="#00157E" stroke-width="2" stroke-linecap="round" stroke-linejoin="round"/>
<path d="M383.999 25.001L390.999 32.001L383.999 39.001" stroke="#00157E" stroke-width="2" stroke-linecap="round" stroke-linejoin="round"/>
<path d="M23.309 80.002H22.133V76.152H18.339V80.002H17.163V71.574H18.339V75.158H22.133V71.574H23.309V80.002ZM26.7455 80.002H25.6255V74.962L25.4295 73.52L26.7455 73.338V80.002ZM26.9695 71.742C26.9695 72.19 26.6195 72.526 26.1995 72.526C25.7655 72.526 25.4015 72.19 25.4015 71.742C25.4015 71.294 25.7655 70.944 26.1995 70.944C26.6195 70.944 26.9695 71.294 26.9695 71.742ZM34.3362 74.276H33.0202C33.2162 74.612 33.3282 75.004 33.3282 75.48C33.3282 76.81 32.3622 77.706 31.0182 77.706C30.7522 77.706 30.5002 77.664 30.2762 77.608C30.2762 77.608 29.8282 77.86 29.8282 78.364C29.8282 78.798 30.1502 78.882 30.5982 78.882H32.4742C33.6222 78.882 34.2942 79.232 34.2942 80.254C34.2942 81.542 32.9782 82.998 30.5842 82.998C29.2122 82.998 28.3722 82.326 28.3722 81.178C28.3722 80.1 29.2542 79.568 29.2542 79.568C28.9742 79.386 28.7922 79.106 28.7922 78.644C28.7922 77.832 29.4922 77.426 29.6322 77.356C29.0162 76.978 28.6802 76.334 28.6802 75.48C28.6802 74.15 29.6602 73.268 31.0182 73.268C31.5222 73.268 31.9842 73.38 32.3482 73.604L34.3362 73.296V74.276ZM33.3142 80.422C33.3142 79.946 32.9082 79.848 32.2222 79.848H30.4582C30.2622 79.848 30.0802 79.834 29.8982 79.806C29.8982 79.806 29.3662 80.226 29.3662 80.926C29.3662 81.682 29.8282 82.088 30.8362 82.088C32.4462 82.088 33.3142 81.136 33.3142 80.422ZM32.2782 75.48C32.2782 74.57 31.7742 74.108 31.0182 74.108C30.2902 74.108 29.7302 74.598 29.7302 75.48C29.7302 76.404 30.2482 76.866 31.0182 76.866C31.7322 76.866 32.2782 76.376 32.2782 75.48ZM40.7521 80.002H39.6461V75.746C39.6461 74.794 39.2681 74.304 38.3721 74.304C37.7281 74.304 37.2941 74.584 36.9161 74.92V80.002H35.7961V72.064L35.6001 70.622L36.9161 70.44V74.024H36.9301C37.3641 73.646 37.9661 73.296 38.7781 73.296C39.8981 73.296 40.7521 73.996 40.7521 75.354V80.002Z" fill="#00157E" fill-opacity="0.7"/>
<path d="M341.431 76.074C341.431 78.138 340.267 79.158 338.707 79.158C337.039 79.158 335.971 78.318 335.971 76.05V71.778H337.003V76.098C337.003 77.526 337.555 78.198 338.671 78.198C339.787 78.198 340.471 77.514 340.471 76.122V71.778H341.431V76.074ZM347.313 76.974C347.313 78.234 346.437 79.134 344.985 79.134C344.241 79.134 343.581 78.978 343.017 78.738L343.329 77.862C343.797 78.078 344.349 78.258 344.913 78.258C345.789 78.258 346.353 77.922 346.353 77.13C346.353 76.542 345.921 76.254 345.345 75.978L344.217 75.438C343.461 75.078 342.945 74.61 342.945 73.59C342.945 72.354 344.025 71.646 345.273 71.646C345.945 71.646 346.377 71.754 347.001 71.982L346.665 72.834C346.281 72.654 345.861 72.486 345.333 72.486C344.589 72.486 343.917 72.786 343.917 73.554C343.917 74.07 344.229 74.322 344.709 74.55L345.861 75.114C346.773 75.558 347.313 76.05 347.313 76.974ZM354.468 74.934C354.468 77.574 352.884 79.002 350.316 79.002H348.804V71.826C348.804 71.826 349.8 71.706 350.868 71.706C353.1 71.706 354.468 72.87 354.468 74.934ZM353.424 75.078C353.424 73.374 352.272 72.558 350.7 72.558C350.196 72.558 349.812 72.582 349.812 72.582V78.102H350.508C352.224 78.102 353.424 77.082 353.424 75.078Z" fill="#00157E" fill-opacity="0.7"/>
<path d="M367.249 80.002H366.143V73.814L364.911 73.982L364.785 73.128L367.249 72.736V80.002ZM370.428 71.574L369.924 74.486H369.07V71.574H370.428ZM377.504 76.432C377.504 78.294 376.776 80.156 374.662 80.156C372.534 80.156 371.806 78.294 371.806 76.432C371.806 74.57 372.534 72.708 374.662 72.708C376.776 72.708 377.504 74.57 377.504 76.432ZM376.356 76.432C376.356 74.864 375.838 73.688 374.662 73.688C373.472 73.688 372.954 74.864 372.954 76.432C372.954 78 373.472 79.176 374.662 79.176C375.838 79.176 376.356 78 376.356 76.432ZM381.003 80.002H379.897V73.814L378.665 73.982L378.539 73.128L381.003 72.736V80.002ZM387.864 76.32C387.864 80.184 385.904 81.99 383.118 82.326L382.894 81.416C384.658 81.206 386.436 80.072 386.688 77.398L386.674 77.384C386.674 77.384 386.016 77.944 385.022 77.944C383.622 77.944 382.712 76.894 382.712 75.452C382.712 73.702 383.762 72.708 385.344 72.708C386.968 72.708 387.864 73.828 387.864 76.32ZM386.702 76.306C386.702 74.92 386.45 73.66 385.204 73.66C384.322 73.66 383.804 74.388 383.804 75.298C383.804 76.46 384.336 77.02 385.33 77.02C386.184 77.02 386.702 76.516 386.702 76.516V76.306ZM391.081 79.288C391.081 79.736 390.717 80.1 390.283 80.1C389.835 80.1 389.471 79.736 389.471 79.288C389.471 78.854 389.835 78.49 390.283 78.49C390.717 78.49 391.081 78.854 391.081 79.288ZM397.794 77.44C397.794 79.092 396.814 80.156 395.232 80.156C393.44 80.156 392.684 78.826 392.684 76.852C392.684 73.044 394.924 71.476 397.36 71.28L397.5 72.204C395.82 72.386 394.14 73.296 393.818 75.634L393.832 75.648C393.832 75.648 394.546 75.032 395.512 75.032C396.982 75.032 397.794 75.97 397.794 77.44ZM396.688 77.664C396.688 76.474 396.226 75.97 395.204 75.97C394.406 75.97 393.818 76.53 393.818 76.53V76.796C393.818 78.364 394.224 79.232 395.33 79.232C396.254 79.232 396.688 78.574 396.688 77.664ZM403.593 73.814L399.589 82.312L398.651 81.836L402.375 73.884H398.567V72.862H403.593V73.814Z" fill="#00157E" fill-opacity="0.7"/>
<path d="M21.559 104.003H17.163V95.5749H18.339V103.009H21.559V104.003ZM27.9331 100.727C27.9331 102.645 27.0231 104.157 25.1331 104.157C23.0611 104.157 22.3331 102.687 22.3331 100.727C22.3331 98.8089 23.2431 97.2969 25.1331 97.2969C27.2051 97.2969 27.9331 98.7669 27.9331 100.727ZM26.7851 100.755C26.7851 99.1309 26.2391 98.2769 25.1331 98.2769C24.0551 98.2769 23.4811 99.0329 23.4811 100.685C23.4811 102.309 24.0271 103.177 25.1331 103.177C26.2111 103.177 26.7851 102.407 26.7851 100.755ZM37.5668 97.4509L35.7608 103.975L34.7248 104.031L33.1288 99.0609H33.1148L31.5048 103.989L30.4688 104.031L28.8308 97.5209L29.8948 97.2549L31.0708 102.365H31.0848L32.6108 97.4509H33.7028L35.2428 102.365H35.2568L36.4748 97.4509H37.5668Z" fill="#00157E" fill-opacity="0.7"/>
<path d="M349.431 100.075C349.431 102.139 348.267 103.159 346.707 103.159C345.039 103.159 343.971 102.319 343.971 100.051V95.7789H345.003V100.099C345.003 101.527 345.555 102.199 346.671 102.199C347.787 102.199 348.471 101.515 348.471 100.123V95.7789H349.431V100.075ZM355.313 100.975C355.313 102.235 354.437 103.135 352.985 103.135C352.241 103.135 351.581 102.979 351.017 102.739L351.329 101.863C351.797 102.079 352.349 102.259 352.913 102.259C353.789 102.259 354.353 101.923 354.353 101.131C354.353 100.543 353.921 100.255 353.345 99.9789L352.217 99.4389C351.461 99.0789 350.945 98.6109 350.945 97.5909C350.945 96.3549 352.025 95.6469 353.273 95.6469C353.945 95.6469 354.377 95.7549 355.001 95.9829L354.665 96.8349C354.281 96.6549 353.861 96.4869 353.333 96.4869C352.589 96.4869 351.917 96.7869 351.917 97.5549C351.917 98.0709 352.229 98.3229 352.709 98.5509L353.861 99.1149C354.773 99.5589 355.313 100.051 355.313 100.975ZM362.468 98.9349C362.468 101.575 360.884 103.003 358.316 103.003H356.804V95.8269C356.804 95.8269 357.8 95.7069 358.868 95.7069C361.1 95.7069 362.468 96.8709 362.468 98.9349ZM361.424 99.0789C361.424 97.3749 360.272 96.5589 358.7 96.5589C358.196 96.5589 357.812 96.5829 357.812 96.5829V102.103H358.508C360.224 102.103 361.424 101.083 361.424 99.0789Z" fill="#00157E" fill-opacity="0.7"/>
<path d="M378.389 100.321C378.389 104.185 376.429 105.991 373.643 106.327L373.419 105.417C375.183 105.207 376.961 104.073 377.213 101.399L377.199 101.385C377.199 101.385 376.541 101.945 375.547 101.945C374.147 101.945 373.237 100.895 373.237 99.4529C373.237 97.7029 374.287 96.7089 375.869 96.7089C377.493 96.7089 378.389 97.8289 378.389 100.321ZM377.227 100.307C377.227 98.9209 376.975 97.6609 375.729 97.6609C374.847 97.6609 374.329 98.3889 374.329 99.2989C374.329 100.461 374.861 101.021 375.855 101.021C376.709 101.021 377.227 100.517 377.227 100.517V100.307ZM384.938 100.321C384.938 104.185 382.978 105.991 380.192 106.327L379.968 105.417C381.732 105.207 383.51 104.073 383.762 101.399L383.748 101.385C383.748 101.385 383.09 101.945 382.096 101.945C380.696 101.945 379.786 100.895 379.786 99.4529C379.786 97.7029 380.836 96.7089 382.418 96.7089C384.042 96.7089 384.938 97.8289 384.938 100.321ZM383.776 100.307C383.776 98.9209 383.524 97.6609 382.278 97.6609C381.396 97.6609 380.878 98.3889 380.878 99.2989C380.878 100.461 381.41 101.021 382.404 101.021C383.258 101.021 383.776 100.517 383.776 100.517V100.307ZM391.179 97.8149L387.175 106.313L386.237 105.837L389.961 97.8849H386.153V96.8629H391.179V97.8149ZM393.077 103.289C393.077 103.737 392.713 104.101 392.279 104.101C391.831 104.101 391.467 103.737 391.467 103.289C391.467 102.855 391.831 102.491 392.279 102.491C392.713 102.491 393.077 102.855 393.077 103.289ZM399.622 104.003H394.428V103.275L396.822 100.979C397.466 100.349 397.956 99.8869 397.956 99.1169C397.956 98.3049 397.452 97.7029 396.514 97.7029C395.884 97.7029 395.436 97.9829 395.1 98.2629L394.568 97.5209C395.17 97.0169 395.786 96.7089 396.752 96.7089C398.138 96.7089 399.09 97.5209 399.09 98.9909C399.09 99.9709 398.502 100.713 397.83 101.329L396.038 102.981V102.995H399.622V104.003ZM402.878 104.003H401.772V97.8149L400.54 97.9829L400.414 97.1289L402.878 96.7369V104.003Z" fill="#00157E" fill-opacity="0.7"/>
</svg>
