<svg width="512" height="88" viewBox="0 0 512 88" fill="none" xmlns="http://www.w3.org/2000/svg">
<path d="M5.489 16H1.163V7.572H5.349V8.566H2.325V11.156H5.055V12.136H2.325V15.006H5.489V16ZM11.7423 15.706L10.7903 16.238L8.9703 13.438H8.9563L7.3183 16H6.1423L8.4243 12.598L6.4643 9.742L7.4023 9.21L9.0263 11.674H9.0403L10.4403 9.448H11.6303L9.5583 12.5L11.7423 15.706ZM17.4972 15.65C16.8672 16 16.2232 16.154 15.4252 16.154C13.4932 16.154 12.4992 14.852 12.4992 12.682C12.4992 10.652 13.5632 9.294 15.2152 9.294C16.7972 9.294 17.4412 10.344 17.4412 11.786V12.57H13.5912C13.6052 14.32 14.2352 15.16 15.6632 15.16C16.2092 15.16 16.6292 15.006 17.1052 14.768L17.4972 15.65ZM16.3912 11.786C16.3912 10.806 16.0272 10.19 15.1592 10.19C14.3192 10.19 13.7872 10.848 13.6472 11.786H16.3912ZM23.3959 9.574L23.0459 10.582C22.6819 10.442 22.2759 10.316 21.8139 10.316C20.5819 10.316 19.8399 11.24 19.8399 12.626C19.8399 14.376 20.5259 15.174 21.7859 15.174C22.2339 15.174 22.5979 15.02 22.9619 14.866L23.3399 15.776C22.7939 16.028 22.1919 16.154 21.5619 16.154C19.6859 16.154 18.7199 14.81 18.7199 12.808C18.7199 10.4 20.2039 9.294 21.8699 9.294C22.4439 9.294 22.9339 9.392 23.3959 9.574ZM30.1034 15.93L28.9974 16.112L28.8854 15.356H28.8714C28.3814 15.818 27.7374 16.154 26.9254 16.154C25.8194 16.154 24.9374 15.44 24.9374 14.096V10.96L24.7414 9.518L26.0574 9.336V13.704C26.0574 14.67 26.4214 15.174 27.3034 15.174C27.9334 15.174 28.3814 14.908 28.7874 14.53V10.96L28.5914 9.518L29.9074 9.336V14.488L30.1034 15.93ZM35.4185 15.734C35.0125 15.958 34.6345 16.14 33.9205 16.14C32.9125 16.14 32.2685 15.482 32.2685 14.362V10.358H31.3025V9.616L32.2685 9.42V8.328L33.3745 8.188V9.448H35.2085V10.358H33.3745V13.984C33.3745 14.866 33.5985 15.146 34.2425 15.146C34.5925 15.146 34.8585 15.006 35.0545 14.88L35.4185 15.734ZM41.2726 15.65C40.6426 16 39.9986 16.154 39.2006 16.154C37.2686 16.154 36.2746 14.852 36.2746 12.682C36.2746 10.652 37.3386 9.294 38.9906 9.294C40.5726 9.294 41.2166 10.344 41.2166 11.786V12.57H37.3666C37.3806 14.32 38.0106 15.16 39.4386 15.16C39.9846 15.16 40.4046 15.006 40.8806 14.768L41.2726 15.65ZM40.1666 11.786C40.1666 10.806 39.8026 10.19 38.9346 10.19C38.0946 10.19 37.5626 10.848 37.4226 11.786H40.1666ZM51.0347 12.724C51.0347 14.642 50.1247 16.154 48.2347 16.154C46.1627 16.154 45.4347 14.684 45.4347 12.724C45.4347 10.806 46.3447 9.294 48.2347 9.294C50.3067 9.294 51.0347 10.764 51.0347 12.724ZM49.8867 12.752C49.8867 11.128 49.3407 10.274 48.2347 10.274C47.1567 10.274 46.5827 11.03 46.5827 12.682C46.5827 14.306 47.1287 15.174 48.2347 15.174C49.3127 15.174 49.8867 14.404 49.8867 12.752ZM57.7844 16H56.6644V11.744C56.6644 10.778 56.3004 10.288 55.4184 10.288C54.7884 10.288 54.3404 10.554 53.9344 10.918V16H52.8144V10.96L52.6184 9.518L53.7244 9.336L53.8364 10.106H53.8504C54.3404 9.63 54.9844 9.294 55.7964 9.294C56.9024 9.294 57.7844 10.008 57.7844 11.352V16Z" fill="#00157E" fill-opacity="0.7"/>
<g clip-path="url(#clip0_325_1231028)">
<path d="M0 32C0 29.7909 1.79086 28 4 28H508C510.209 28 512 29.7909 512 32V64C512 66.2091 510.209 68 508 68H4C1.79086 68 0 66.2091 0 64V32Z" fill="white"/>
<path d="M0 32C0 29.7909 1.79086 28 4 28H508C510.209 28 512 29.7909 512 32V64C512 66.2091 510.209 68 508 68H4C1.79086 68 0 66.2091 0 64V32Z" fill="#00157E" fill-opacity="0.1"/>
<path d="M18.3333 52.36C18.3333 54.28 17.1013 55.496 14.9893 55.496C14.3653 55.496 13.7093 55.384 13.1173 55.24L13.4053 54.04C13.9333 54.2 14.3813 54.328 15.0213 54.328C16.2853 54.328 17.0533 53.704 17.0533 52.552C17.0533 50.984 15.6133 50.376 13.5813 50.376V49.464C15.9493 49.32 16.6053 48.264 16.6053 47.224C16.6053 46.312 16.0453 45.8 15.1493 45.8C14.4133 45.8 13.9813 46.04 13.5013 46.36L12.9733 45.48C13.5493 45.032 14.2853 44.664 15.4053 44.664C16.9413 44.664 17.8853 45.576 17.8853 47.064C17.8853 48.36 17.1333 49.224 16.0613 49.736V49.752C17.6293 50.088 18.3333 51.128 18.3333 52.36ZM22.3671 53H21.1031V45.928L19.6951 46.12L19.5511 45.144L22.3671 44.696V53ZM26.4004 52.184C26.4004 52.696 25.9844 53.112 25.4884 53.112C24.9764 53.112 24.5604 52.696 24.5604 52.184C24.5604 51.688 24.9764 51.272 25.4884 51.272C25.9844 51.272 26.4004 51.688 26.4004 52.184ZM34.6807 48.92C34.6807 51.048 33.8487 53.176 31.4327 53.176C29.0007 53.176 28.1687 51.048 28.1687 48.92C28.1687 46.792 29.0007 44.664 31.4327 44.664C33.8487 44.664 34.6807 46.792 34.6807 48.92ZM33.3687 48.92C33.3687 47.128 32.7767 45.784 31.4327 45.784C30.0727 45.784 29.4807 47.128 29.4807 48.92C29.4807 50.712 30.0727 52.056 31.4327 52.056C32.7767 52.056 33.3687 50.712 33.3687 48.92ZM41.5871 51.56C41.5871 54.632 38.6911 55.496 36.6271 55.656L36.4671 54.568C37.9231 54.408 40.2751 53.832 40.2751 51.736C40.2751 50.424 39.5391 49.656 37.4911 49.656H36.4191L36.7711 44.84H41.3311V46.008H37.8751L37.6671 48.696C37.6671 48.696 38.0351 48.664 38.3711 48.664C40.2271 48.664 41.5871 49.64 41.5871 51.56ZM45.0567 52.184C45.0567 52.696 44.6407 53.112 44.1447 53.112C43.6327 53.112 43.2167 52.696 43.2167 52.184C43.2167 51.688 43.6327 51.272 44.1447 51.272C44.6407 51.272 45.0567 51.688 45.0567 52.184ZM52.5369 53H46.6009V52.168L49.3369 49.544C50.0729 48.824 50.6329 48.296 50.6329 47.416C50.6329 46.488 50.0569 45.8 48.9849 45.8C48.2649 45.8 47.7529 46.12 47.3689 46.44L46.7609 45.592C47.4489 45.016 48.1529 44.664 49.2569 44.664C50.8409 44.664 51.9289 45.592 51.9289 47.272C51.9289 48.392 51.2569 49.24 50.4889 49.944L48.4409 51.832V51.848H52.5369V53ZM60.3994 48.92C60.3994 51.048 59.5674 53.176 57.1514 53.176C54.7194 53.176 53.8874 51.048 53.8874 48.92C53.8874 46.792 54.7194 44.664 57.1514 44.664C59.5674 44.664 60.3994 46.792 60.3994 48.92ZM59.0874 48.92C59.0874 47.128 58.4954 45.784 57.1514 45.784C55.7914 45.784 55.1994 47.128 55.1994 48.92C55.1994 50.712 55.7914 52.056 57.1514 52.056C58.4954 52.056 59.0874 50.712 59.0874 48.92ZM67.6463 53H61.7103V52.168L64.4463 49.544C65.1823 48.824 65.7423 48.296 65.7423 47.416C65.7423 46.488 65.1663 45.8 64.0943 45.8C63.3743 45.8 62.8623 46.12 62.4783 46.44L61.8703 45.592C62.5583 45.016 63.2623 44.664 64.3663 44.664C65.9503 44.664 67.0383 45.592 67.0383 47.272C67.0383 48.392 66.3663 49.24 65.5983 49.944L63.5503 51.832V51.848H67.6463V53ZM74.9008 50.072C74.9008 51.96 73.7808 53.176 71.9728 53.176C69.9248 53.176 69.0608 51.656 69.0608 49.4C69.0608 45.048 71.6208 43.256 74.4048 43.032L74.5648 44.088C72.6448 44.296 70.7248 45.336 70.3568 48.008L70.3728 48.024C70.3728 48.024 71.1888 47.32 72.2928 47.32C73.9728 47.32 74.9008 48.392 74.9008 50.072ZM73.6368 50.328C73.6368 48.968 73.1088 48.392 71.9408 48.392C71.0288 48.392 70.3568 49.032 70.3568 49.032V49.336C70.3568 51.128 70.8208 52.12 72.0848 52.12C73.1408 52.12 73.6368 51.368 73.6368 50.328Z" fill="#00157E"/>
<path d="M495 40H481C479.895 40 479 40.8954 479 42V56C479 57.1046 479.895 58 481 58H495C496.105 58 497 57.1046 497 56V42C497 40.8954 496.105 40 495 40Z" stroke="#00157E" stroke-width="2" stroke-linecap="round" stroke-linejoin="round"/>
<path d="M492 38V42" stroke="#00157E" stroke-width="2" stroke-linecap="round" stroke-linejoin="round"/>
<path d="M484 38V42" stroke="#00157E" stroke-width="2" stroke-linecap="round" stroke-linejoin="round"/>
<path d="M479 46H497" stroke="#00157E" stroke-width="2" stroke-linecap="round" stroke-linejoin="round"/>
</g>
<path d="M4 28.5H508C509.933 28.5 511.5 30.067 511.5 32V64C511.5 65.933 509.933 67.5 508 67.5H4C2.067 67.5 0.5 65.933 0.5 64V32C0.500001 30.067 2.067 28.5 4 28.5Z" stroke="#00157E" stroke-opacity="0.7"/>
<defs>
<clipPath id="clip0_325_1231028">
<path d="M0 32C0 29.7909 1.79086 28 4 28H508C510.209 28 512 29.7909 512 32V64C512 66.2091 510.209 68 508 68H4C1.79086 68 0 66.2091 0 64V32Z" fill="white"/>
</clipPath>
</defs>
</svg>
