<svg width="118" height="32" viewBox="0 0 118 32" fill="none" xmlns="http://www.w3.org/2000/svg">
<path d="M4 0.5H114C115.933 0.5 117.5 2.067 117.5 4V28C117.5 29.933 115.933 31.5 114 31.5H4C2.067 31.5 0.5 29.933 0.5 28V4C0.5 2.067 2.067 0.5 4 0.5Z" fill="white"/>
<path d="M4 0.5H114C115.933 0.5 117.5 2.067 117.5 4V28C117.5 29.933 115.933 31.5 114 31.5H4C2.067 31.5 0.5 29.933 0.5 28V4C0.5 2.067 2.067 0.5 4 0.5Z" stroke="#00157E"/>
<path d="M27 16H13" stroke="#00157E" stroke-width="2" stroke-linecap="round" stroke-linejoin="round"/>
<path d="M20 23L13 16L20 9" stroke="#00157E" stroke-width="2" stroke-linecap="round" stroke-linejoin="round"/>
<path d="M46.705 17.424C46.705 19.314 45.151 20 43.107 20H41.329V11.628C41.329 11.628 42.393 11.502 43.485 11.502C45.095 11.502 46.075 12.104 46.075 13.434C46.075 14.442 45.445 15.114 44.647 15.464V15.478C45.781 15.604 46.705 16.262 46.705 17.424ZM45.543 17.606C45.543 16.668 44.941 16.108 43.289 16.108H42.477V19.048H43.499C44.647 19.048 45.543 18.614 45.543 17.606ZM44.913 13.7C44.913 12.762 44.311 12.356 43.233 12.356C42.841 12.356 42.477 12.398 42.477 12.398V15.296C43.919 15.268 44.913 14.862 44.913 13.7ZM53.453 19.93L52.347 20.112L52.235 19.356H52.221C51.731 19.818 51.087 20.154 50.275 20.154C49.169 20.154 48.287 19.44 48.287 18.096V14.96L48.091 13.518L49.407 13.336V17.704C49.407 18.67 49.771 19.174 50.653 19.174C51.283 19.174 51.731 18.908 52.137 18.53V14.96L51.941 13.518L53.257 13.336V18.488L53.453 19.93ZM58.7681 19.734C58.3621 19.958 57.9841 20.14 57.2701 20.14C56.2621 20.14 55.6181 19.482 55.6181 18.362V14.358H54.6521V13.616L55.6181 13.42V12.328L56.7241 12.188V13.448H58.5581V14.358H56.7241V17.984C56.7241 18.866 56.9481 19.146 57.5921 19.146C57.9421 19.146 58.2081 19.006 58.4041 18.88L58.7681 19.734ZM63.5396 19.734C63.1336 19.958 62.7556 20.14 62.0416 20.14C61.0336 20.14 60.3896 19.482 60.3896 18.362V14.358H59.4236V13.616L60.3896 13.42V12.328L61.4956 12.188V13.448H63.3296V14.358H61.4956V17.984C61.4956 18.866 61.7196 19.146 62.3636 19.146C62.7136 19.146 62.9796 19.006 63.1756 18.88L63.5396 19.734ZM69.9956 16.724C69.9956 18.642 69.0856 20.154 67.1956 20.154C65.1236 20.154 64.3956 18.684 64.3956 16.724C64.3956 14.806 65.3056 13.294 67.1956 13.294C69.2676 13.294 69.9956 14.764 69.9956 16.724ZM68.8476 16.752C68.8476 15.128 68.3016 14.274 67.1956 14.274C66.1176 14.274 65.5436 15.03 65.5436 16.682C65.5436 18.306 66.0896 19.174 67.1956 19.174C68.2736 19.174 68.8476 18.404 68.8476 16.752ZM76.7453 20H75.6253V15.744C75.6253 14.778 75.2613 14.288 74.3793 14.288C73.7493 14.288 73.3013 14.554 72.8953 14.918V20H71.7753V14.96L71.5793 13.518L72.6853 13.336L72.7973 14.106H72.8113C73.3013 13.63 73.9453 13.294 74.7573 13.294C75.8633 13.294 76.7453 14.008 76.7453 15.352V20Z" fill="#00157E"/>
<path d="M91 16H105" stroke="#00157E" stroke-width="2" stroke-linecap="round" stroke-linejoin="round"/>
<path d="M98 9L105 16L98 23" stroke="#00157E" stroke-width="2" stroke-linecap="round" stroke-linejoin="round"/>
</svg>
