<svg width="420" height="90" viewBox="0 0 420 90" fill="none" xmlns="http://www.w3.org/2000/svg">
<mask id="path-1-inside-1_822_129468" fill="white">
<path d="M0 0H420V90H0V0Z"/>
</mask>
<path d="M420 90V89H0V90V91H420V90Z" fill="#00157E" fill-opacity="0.2" mask="url(#path-1-inside-1_822_129468)"/>
<path d="M8.65698 25.744L6.59298 26.272L5.77698 23.328H3.08898L2.35298 26H0.192977L3.39298 16.368H5.58498L8.65698 25.744ZM5.42498 21.936L4.46498 18.416H4.44898L3.47298 21.936H5.42498ZM16.6706 22.992C16.6706 24.96 15.0706 26 12.2226 26H9.8706V16.448C9.8706 16.448 11.2306 16.272 12.5746 16.272C14.9106 16.272 15.9986 17.04 15.9986 18.496C15.9986 19.712 15.2146 20.304 14.2066 20.688V20.704C15.6786 20.864 16.6706 21.664 16.6706 22.992ZM14.4946 23.04C14.4946 22.128 13.8066 21.76 12.5106 21.76H11.9346V24.288H12.8786C13.8546 24.288 14.4946 23.856 14.4946 23.04ZM13.8226 18.976C13.8226 18.16 13.2946 17.856 12.4306 17.856C12.1426 17.856 11.9346 17.888 11.9346 17.888V20.304C12.9426 20.304 13.8226 20.016 13.8226 18.976ZM24.9519 22.992C24.9519 24.96 23.3519 26 20.5039 26H18.1519V16.448C18.1519 16.448 19.5119 16.272 20.8559 16.272C23.1919 16.272 24.2799 17.04 24.2799 18.496C24.2799 19.712 23.4959 20.304 22.4879 20.688V20.704C23.9599 20.864 24.9519 21.664 24.9519 22.992ZM22.7759 23.04C22.7759 22.128 22.0879 21.76 20.7919 21.76H20.2159V24.288H21.1599C22.1359 24.288 22.7759 23.856 22.7759 23.04ZM22.1039 18.976C22.1039 18.16 21.5759 17.856 20.7119 17.856C20.4239 17.856 20.2159 17.888 20.2159 17.888V20.304C21.2239 20.304 22.1039 20.016 22.1039 18.976ZM35.3125 26H29.7925V16.368H31.9525V24.192H35.3125V26ZM41.072 25.632C40.416 25.984 39.92 26.176 38.912 26.176C37.408 26.176 36.672 25.168 36.672 23.664V20.032H35.504V18.688L36.672 18.416V17.104L38.688 16.864V18.432H40.768V20.032H38.688V23.12C38.688 24.128 38.944 24.384 39.6 24.384C39.968 24.384 40.176 24.288 40.528 24.128L41.072 25.632ZM48.422 25.904L46.486 26.144L46.374 25.36H46.358C46.166 25.52 45.542 26.192 44.518 26.192C42.63 26.192 41.686 24.592 41.686 22.48C41.686 19.76 43.238 18.368 45.43 18.368C45.83 18.368 46.134 18.432 46.134 18.432V17.184L45.878 15.312L48.166 15.056V24.032L48.422 25.904ZM45.142 24.384C45.622 24.384 45.99 24.176 46.134 24.048V20.176C46.134 20.176 45.862 20.048 45.366 20.048C44.39 20.048 43.734 20.816 43.734 22.176C43.734 23.696 44.134 24.384 45.142 24.384Z" fill="#00157E"/>
<path d="M5.72698 39.634C5.72698 41.104 4.70498 42.154 3.01098 42.154C2.14298 42.154 1.37298 41.972 0.714977 41.692L1.07898 40.67C1.62498 40.922 2.26898 41.132 2.92698 41.132C3.94898 41.132 4.60698 40.74 4.60698 39.816C4.60698 39.13 4.10298 38.794 3.43098 38.472L2.11498 37.842C1.23298 37.422 0.630977 36.876 0.630977 35.686C0.630977 34.244 1.89098 33.418 3.34698 33.418C4.13098 33.418 4.63498 33.544 5.36298 33.81L4.97098 34.804C4.52298 34.594 4.03298 34.398 3.41698 34.398C2.54898 34.398 1.76498 34.748 1.76498 35.644C1.76498 36.246 2.12898 36.54 2.68898 36.806L4.03298 37.464C5.09698 37.982 5.72698 38.556 5.72698 39.634ZM10.6997 41.734C10.2937 41.958 9.91571 42.14 9.20171 42.14C8.19371 42.14 7.54971 41.482 7.54971 40.362V36.358H6.58371V35.616L7.54971 35.42V34.328L8.65571 34.188V35.448H10.4897V36.358H8.65571V39.984C8.65571 40.866 8.87971 41.146 9.52371 41.146C9.87371 41.146 10.1397 41.006 10.3357 40.88L10.6997 41.734ZM15.1352 36.414C14.3792 36.414 13.8192 36.61 13.3152 37.072V42H12.1952V36.96L11.9992 35.518L13.1052 35.336L13.2172 36.232H13.2312C13.6792 35.728 14.2672 35.308 15.1352 35.308V36.414ZM21.6678 41.93L20.5618 42.112L20.4498 41.356H20.4358C19.9458 41.818 19.3018 42.154 18.4898 42.154C17.3838 42.154 16.5018 41.44 16.5018 40.096V36.96L16.3058 35.518L17.6218 35.336V39.704C17.6218 40.67 17.9858 41.174 18.8678 41.174C19.4978 41.174 19.9458 40.908 20.3518 40.53V36.96L20.1558 35.518L21.4718 35.336V40.488L21.6678 41.93ZM27.9349 35.574L27.5849 36.582C27.2209 36.442 26.8149 36.316 26.3529 36.316C25.1209 36.316 24.3789 37.24 24.3789 38.626C24.3789 40.376 25.0649 41.174 26.3249 41.174C26.7729 41.174 27.1369 41.02 27.5009 40.866L27.8789 41.776C27.3329 42.028 26.7309 42.154 26.1009 42.154C24.2249 42.154 23.2589 40.81 23.2589 38.808C23.2589 36.4 24.7429 35.294 26.4089 35.294C26.9829 35.294 27.4729 35.392 27.9349 35.574ZM32.8892 41.734C32.4832 41.958 32.1052 42.14 31.3912 42.14C30.3832 42.14 29.7392 41.482 29.7392 40.362V36.358H28.7732V35.616L29.7392 35.42V34.328L30.8452 34.188V35.448H32.6792V36.358H30.8452V39.984C30.8452 40.866 31.0692 41.146 31.7132 41.146C32.0632 41.146 32.3292 41.006 32.5252 40.88L32.8892 41.734ZM39.5506 41.93L38.4446 42.112L38.3326 41.356H38.3186C37.8286 41.818 37.1846 42.154 36.3726 42.154C35.2666 42.154 34.3846 41.44 34.3846 40.096V36.96L34.1886 35.518L35.5046 35.336V39.704C35.5046 40.67 35.8686 41.174 36.7506 41.174C37.3806 41.174 37.8286 40.908 38.2346 40.53V36.96L38.0386 35.518L39.3546 35.336V40.488L39.5506 41.93ZM44.5297 36.414C43.7737 36.414 43.2137 36.61 42.7097 37.072V42H41.5897V36.96L41.3937 35.518L42.4997 35.336L42.6117 36.232H42.6257C43.0737 35.728 43.6617 35.308 44.5297 35.308V36.414ZM50.2823 41.65C49.6523 42 49.0083 42.154 48.2103 42.154C46.2783 42.154 45.2843 40.852 45.2843 38.682C45.2843 36.652 46.3483 35.294 48.0003 35.294C49.5823 35.294 50.2263 36.344 50.2263 37.786V38.57H46.3763C46.3903 40.32 47.0203 41.16 48.4483 41.16C48.9943 41.16 49.4143 41.006 49.8903 40.768L50.2823 41.65ZM49.1763 37.786C49.1763 36.806 48.8123 36.19 47.9443 36.19C47.1043 36.19 46.5723 36.848 46.4323 37.786H49.1763ZM56.867 41.958L55.789 42.112L55.691 41.454H55.677C55.257 41.804 54.683 42.154 53.913 42.154C52.471 42.154 51.505 40.964 51.505 39.018C51.505 36.764 52.667 35.378 54.655 35.378C55.187 35.378 55.565 35.476 55.565 35.476V34.062L55.355 32.62L56.671 32.438V40.516L56.867 41.958ZM54.305 41.174C54.851 41.174 55.229 40.95 55.565 40.684V36.498C55.565 36.498 55.201 36.316 54.557 36.316C53.283 36.316 52.653 37.394 52.653 38.668C52.653 40.25 53.073 41.174 54.305 41.174ZM67.0034 38.402C67.0034 40.53 66.0794 42.07 63.8954 42.07C63.5314 42.07 63.2374 42.042 62.9714 41.972V44.772L61.8514 44.954V36.96L61.6554 35.518L62.7614 35.336L62.8594 36.008H62.8734C63.3074 35.644 63.8814 35.294 64.6374 35.294C66.2334 35.294 67.0034 36.498 67.0034 38.402ZM65.8834 38.724C65.8834 37.296 65.5614 36.302 64.2594 36.302C63.6994 36.302 63.2934 36.54 62.9714 36.806V40.936C63.2374 41.048 63.5454 41.118 63.9794 41.118C65.1974 41.118 65.8834 40.166 65.8834 38.724ZM71.7231 36.414C70.9671 36.414 70.4071 36.61 69.9031 37.072V42H68.7831V36.96L68.5871 35.518L69.6931 35.336L69.8051 36.232H69.8191C70.2671 35.728 70.8551 35.308 71.7231 35.308V36.414ZM78.0777 38.724C78.0777 40.642 77.1677 42.154 75.2777 42.154C73.2057 42.154 72.4777 40.684 72.4777 38.724C72.4777 36.806 73.3877 35.294 75.2777 35.294C77.3497 35.294 78.0777 36.764 78.0777 38.724ZM76.9297 38.752C76.9297 37.128 76.3837 36.274 75.2777 36.274C74.1997 36.274 73.6257 37.03 73.6257 38.682C73.6257 40.306 74.1717 41.174 75.2777 41.174C76.3557 41.174 76.9297 40.404 76.9297 38.752ZM84.7713 41.958L83.6933 42.112L83.5953 41.454H83.5813C83.1613 41.804 82.5873 42.154 81.8173 42.154C80.3753 42.154 79.4093 40.964 79.4093 39.018C79.4093 36.764 80.5713 35.378 82.5593 35.378C83.0913 35.378 83.4693 35.476 83.4693 35.476V34.062L83.2593 32.62L84.5753 32.438V40.516L84.7713 41.958ZM82.2093 41.174C82.7553 41.174 83.1333 40.95 83.4693 40.684V36.498C83.4693 36.498 83.1053 36.316 82.4613 36.316C81.1873 36.316 80.5573 37.394 80.5573 38.668C80.5573 40.25 80.9773 41.174 82.2093 41.174ZM91.9823 41.93L90.8763 42.112L90.7643 41.356H90.7503C90.2603 41.818 89.6163 42.154 88.8043 42.154C87.6983 42.154 86.8163 41.44 86.8163 40.096V36.96L86.6203 35.518L87.9363 35.336V39.704C87.9363 40.67 88.3003 41.174 89.1823 41.174C89.8123 41.174 90.2603 40.908 90.6663 40.53V36.96L90.4703 35.518L91.7863 35.336V40.488L91.9823 41.93ZM98.2494 35.574L97.8994 36.582C97.5354 36.442 97.1294 36.316 96.6674 36.316C95.4354 36.316 94.6934 37.24 94.6934 38.626C94.6934 40.376 95.3794 41.174 96.6394 41.174C97.0874 41.174 97.4514 41.02 97.8154 40.866L98.1934 41.776C97.6474 42.028 97.0454 42.154 96.4154 42.154C94.5394 42.154 93.5734 40.81 93.5734 38.808C93.5734 36.4 95.0574 35.294 96.7234 35.294C97.2974 35.294 97.7874 35.392 98.2494 35.574ZM103.204 41.734C102.798 41.958 102.42 42.14 101.706 42.14C100.698 42.14 100.054 41.482 100.054 40.362V36.358H99.0876V35.616L100.054 35.42V34.328L101.16 34.188V35.448H102.994V36.358H101.16V39.984C101.16 40.866 101.384 41.146 102.028 41.146C102.378 41.146 102.644 41.006 102.84 40.88L103.204 41.734Z" fill="#00157E" fill-opacity="0.7"/>
<g clip-path="url(#clip0_822_129468)">
<path d="M23.001 56L13.501 65.5L8.50098 60.5L1.00098 68" stroke="#00157E" stroke-width="2" stroke-linecap="round" stroke-linejoin="round"/>
<path d="M17.001 56H23.001V62" stroke="#00157E" stroke-width="2" stroke-linecap="round" stroke-linejoin="round"/>
</g>
<path d="M46.021 62.388H43.655V64.74H42.731V62.388H40.379V61.464H42.731V59.112H43.655V61.464H46.021V62.388ZM49.2977 66H48.1917V59.812L46.9597 59.98L46.8337 59.126L49.2977 58.734V66ZM52.8269 58.37C52.8269 59.392 52.4069 60.176 51.5529 60.68L51.2309 60.26C51.6509 59.952 51.8749 59.56 51.9449 59.056C51.5529 59 51.2169 58.664 51.2169 58.258C51.2169 57.796 51.5809 57.446 52.0289 57.446C52.4769 57.446 52.8269 57.81 52.8269 58.37ZM59.3722 66H54.1782V65.272L56.5722 62.976C57.2162 62.346 57.7062 61.884 57.7062 61.114C57.7062 60.302 57.2022 59.7 56.2642 59.7C55.6342 59.7 55.1862 59.98 54.8502 60.26L54.3182 59.518C54.9202 59.014 55.5362 58.706 56.5022 58.706C57.8882 58.706 58.8402 59.518 58.8402 60.988C58.8402 61.968 58.2522 62.71 57.5802 63.326L55.7882 64.978V64.992H59.3722V66ZM66.2519 62.43C66.2519 64.292 65.5239 66.154 63.4099 66.154C61.2819 66.154 60.5539 64.292 60.5539 62.43C60.5539 60.568 61.2819 58.706 63.4099 58.706C65.5239 58.706 66.2519 60.568 66.2519 62.43ZM65.1039 62.43C65.1039 60.862 64.5859 59.686 63.4099 59.686C62.2199 59.686 61.7019 60.862 61.7019 62.43C61.7019 63.998 62.2199 65.174 63.4099 65.174C64.5859 65.174 65.1039 63.998 65.1039 62.43ZM73.4569 62.43C73.4569 64.292 72.7289 66.154 70.6149 66.154C68.4869 66.154 67.7589 64.292 67.7589 62.43C67.7589 60.568 68.4869 58.706 70.6149 58.706C72.7289 58.706 73.4569 60.568 73.4569 62.43ZM72.3089 62.43C72.3089 60.862 71.7909 59.686 70.6149 59.686C69.4249 59.686 68.9069 60.862 68.9069 62.43C68.9069 63.998 69.4249 65.174 70.6149 65.174C71.7909 65.174 72.3089 63.998 72.3089 62.43ZM76.616 65.286C76.616 65.734 76.252 66.098 75.818 66.098C75.37 66.098 75.006 65.734 75.006 65.286C75.006 64.852 75.37 64.488 75.818 64.488C76.252 64.488 76.616 64.852 76.616 65.286ZM83.0492 63.956C83.0492 65.3 82.0272 66.154 80.5852 66.154C79.1152 66.154 78.1212 65.412 78.1212 64.04C78.1212 62.808 79.0312 62.066 79.7312 61.59C78.8912 61.002 78.3312 60.498 78.3312 59.448C78.3312 58.258 79.3112 57.418 80.5712 57.418C81.9292 57.418 82.8112 58.174 82.8112 59.35C82.8112 60.358 82.1112 61.002 81.4252 61.478C82.3212 62.08 83.0492 62.682 83.0492 63.956ZM81.9712 63.956C81.9712 63.046 81.3412 62.584 80.5012 62.038C79.7592 62.542 79.1852 62.976 79.1852 63.9C79.1852 64.74 79.7452 65.216 80.5992 65.216C81.5092 65.216 81.9712 64.656 81.9712 63.956ZM81.8172 59.476C81.8172 58.762 81.3412 58.3 80.5852 58.3C79.8292 58.3 79.3392 58.79 79.3392 59.49C79.3392 60.148 79.8852 60.526 80.6412 61.044C81.2432 60.652 81.8172 60.148 81.8172 59.476ZM89.6866 63.438C89.6866 65.09 88.7066 66.154 87.1246 66.154C85.3326 66.154 84.5766 64.824 84.5766 62.85C84.5766 59.042 86.8166 57.474 89.2526 57.278L89.3926 58.202C87.7126 58.384 86.0326 59.294 85.7106 61.632L85.7246 61.646C85.7246 61.646 86.4386 61.03 87.4046 61.03C88.8746 61.03 89.6866 61.968 89.6866 63.438ZM88.5806 63.662C88.5806 62.472 88.1186 61.968 87.0966 61.968C86.2986 61.968 85.7106 62.528 85.7106 62.528V62.794C85.7106 64.362 86.1166 65.23 87.2226 65.23C88.1466 65.23 88.5806 64.572 88.5806 63.662Z" fill="#00157E"/>
<path d="M101.959 65.566C101.175 65.972 100.377 66.154 99.313 66.154C97.255 66.154 95.673 64.768 95.673 61.968C95.673 58.986 97.437 57.418 99.705 57.418C100.643 57.418 101.217 57.558 101.931 57.866L101.483 58.888C100.951 58.65 100.447 58.468 99.691 58.468C98.221 58.468 96.877 59.602 96.877 61.674C96.877 63.984 97.731 65.118 99.775 65.118C100.447 65.118 101.063 64.852 101.567 64.628L101.959 65.566ZM109.569 66H108.393V62.15H104.599V66H103.423V57.572H104.599V61.156H108.393V57.572H109.569V66ZM116.085 58.566H113.061V61.31H115.791V62.304H113.061V66H111.899V57.572H116.085V58.566Z" fill="#00157E" fill-opacity="0.7"/>
<path d="M139.021 62.388H136.655V64.74H135.731V62.388H133.379V61.464H135.731V59.112H136.655V61.464H139.021V62.388ZM142.298 66H141.192V59.812L139.96 59.98L139.834 59.126L142.298 58.734V66ZM149.173 66H143.979V65.272L146.373 62.976C147.017 62.346 147.507 61.884 147.507 61.114C147.507 60.302 147.003 59.7 146.065 59.7C145.435 59.7 144.987 59.98 144.651 60.26L144.119 59.518C144.721 59.014 145.337 58.706 146.303 58.706C147.689 58.706 148.641 59.518 148.641 60.988C148.641 61.968 148.053 62.71 147.381 63.326L145.589 64.978V64.992H149.173V66ZM152.007 65.286C152.007 65.734 151.643 66.098 151.209 66.098C150.761 66.098 150.397 65.734 150.397 65.286C150.397 64.852 150.761 64.488 151.209 64.488C151.643 64.488 152.007 64.852 152.007 65.286ZM158.44 63.956C158.44 65.3 157.418 66.154 155.976 66.154C154.506 66.154 153.512 65.412 153.512 64.04C153.512 62.808 154.422 62.066 155.122 61.59C154.282 61.002 153.722 60.498 153.722 59.448C153.722 58.258 154.702 57.418 155.962 57.418C157.32 57.418 158.202 58.174 158.202 59.35C158.202 60.358 157.502 61.002 156.816 61.478C157.712 62.08 158.44 62.682 158.44 63.956ZM157.362 63.956C157.362 63.046 156.732 62.584 155.892 62.038C155.15 62.542 154.576 62.976 154.576 63.9C154.576 64.74 155.136 65.216 155.99 65.216C156.9 65.216 157.362 64.656 157.362 63.956ZM157.208 59.476C157.208 58.762 156.732 58.3 155.976 58.3C155.22 58.3 154.73 58.79 154.73 59.49C154.73 60.148 155.276 60.526 156.032 61.044C156.634 60.652 157.208 60.148 157.208 59.476ZM165.077 63.438C165.077 65.09 164.097 66.154 162.515 66.154C160.723 66.154 159.967 64.824 159.967 62.85C159.967 59.042 162.207 57.474 164.643 57.278L164.783 58.202C163.103 58.384 161.423 59.294 161.101 61.632L161.115 61.646C161.115 61.646 161.829 61.03 162.795 61.03C164.265 61.03 165.077 61.968 165.077 63.438ZM163.971 63.662C163.971 62.472 163.509 61.968 162.487 61.968C161.689 61.968 161.101 62.528 161.101 62.528V62.794C161.101 64.362 161.507 65.23 162.613 65.23C163.537 65.23 163.971 64.572 163.971 63.662Z" fill="#00157E"/>
<path d="M175.069 59.616C175.069 60.876 174.103 61.842 172.843 61.842C171.583 61.842 170.617 60.876 170.617 59.616C170.617 58.356 171.583 57.418 172.843 57.418C174.103 57.418 175.069 58.356 175.069 59.616ZM181.285 63.942C181.285 65.202 180.319 66.154 179.059 66.154C177.799 66.154 176.833 65.202 176.833 63.942C176.833 62.696 177.799 61.744 179.059 61.744C180.319 61.744 181.285 62.696 181.285 63.942ZM178.709 57.768L174.075 66.28L173.221 65.818L177.855 57.306L178.709 57.768ZM180.263 63.942C180.263 63.228 179.773 62.738 179.059 62.738C178.345 62.738 177.855 63.228 177.855 63.942C177.855 64.642 178.345 65.174 179.059 65.174C179.773 65.174 180.263 64.642 180.263 63.942ZM174.033 59.616C174.033 58.902 173.557 58.412 172.843 58.412C172.129 58.412 171.639 58.902 171.639 59.616C171.639 60.33 172.129 60.848 172.843 60.848C173.557 60.848 174.033 60.33 174.033 59.616Z" fill="#00157E" fill-opacity="0.7"/>
<path d="M346.963 23.628C346.291 23.976 345.607 24.132 344.695 24.132C342.931 24.132 341.575 22.944 341.575 20.544C341.575 17.988 343.087 16.644 345.031 16.644C345.835 16.644 346.327 16.764 346.939 17.028L346.555 17.904C346.099 17.7 345.667 17.544 345.019 17.544C343.759 17.544 342.607 18.516 342.607 20.292C342.607 22.272 343.339 23.244 345.091 23.244C345.667 23.244 346.195 23.016 346.627 22.824L346.963 23.628ZM353.486 24H352.478V20.7H349.226V24H348.218V16.776H349.226V19.848H352.478V16.776H353.486V24ZM359.071 17.628H356.479V19.98H358.819V20.832H356.479V24H355.483V16.776H359.071V17.628Z" fill="#00157E" fill-opacity="0.7"/>
<path d="M371.998 26H369.966V19.52L368.558 19.712L368.318 18.272L371.998 17.68V26ZM376.261 17.536C376.261 19.168 375.605 20.08 374.421 20.928L373.845 20.304C374.405 19.824 374.773 19.312 374.901 18.608C374.309 18.544 373.829 18.016 373.829 17.408C373.829 16.752 374.373 16.208 375.029 16.208C375.717 16.208 376.261 16.72 376.261 17.536ZM384.583 21.92C384.583 24.16 383.607 26.192 381.143 26.192C378.679 26.192 377.703 24.16 377.703 21.92C377.703 19.68 378.679 17.648 381.143 17.648C383.607 17.648 384.583 19.68 384.583 21.92ZM382.535 21.92C382.535 20.384 382.103 19.456 381.143 19.456C380.199 19.456 379.751 20.384 379.751 21.92C379.751 23.456 380.199 24.384 381.143 24.384C382.103 24.384 382.535 23.456 382.535 21.92ZM392.864 21.92C392.864 24.16 391.888 26.192 389.424 26.192C386.96 26.192 385.984 24.16 385.984 21.92C385.984 19.68 386.96 17.648 389.424 17.648C391.888 17.648 392.864 19.68 392.864 21.92ZM390.816 21.92C390.816 20.384 390.384 19.456 389.424 19.456C388.48 19.456 388.032 20.384 388.032 21.92C388.032 23.456 388.48 24.384 389.424 24.384C390.384 24.384 390.816 23.456 390.816 21.92ZM400.234 23.408C400.234 24.944 399.098 26.192 397.258 26.192C395.306 26.192 394.234 25.296 394.234 23.648C394.234 22.432 395.066 21.616 395.77 21.088C395.05 20.528 394.442 19.872 394.442 18.72C394.442 17.168 395.754 16.176 397.194 16.176C398.746 16.176 399.93 17.024 399.93 18.512C399.93 19.568 399.258 20.288 398.618 20.8C399.434 21.36 400.234 22.112 400.234 23.408ZM398.442 23.488C398.442 22.704 397.738 22.224 397.066 21.808C396.506 22.224 396.042 22.672 396.042 23.44C396.042 24.208 396.554 24.608 397.29 24.608C398.026 24.608 398.442 24.096 398.442 23.488ZM398.234 18.704C398.234 18.08 397.85 17.696 397.21 17.696C396.602 17.696 396.234 18.112 396.234 18.72C396.234 19.312 396.746 19.696 397.322 20.08C397.802 19.728 398.234 19.296 398.234 18.704ZM404.089 24.912C404.089 25.584 403.545 26.128 402.873 26.128C402.201 26.128 401.657 25.584 401.657 24.912C401.657 24.256 402.201 23.712 402.873 23.712C403.545 23.712 404.089 24.256 404.089 24.912ZM411.163 24.352C411.163 27.216 408.715 28.336 405.851 28.672L405.547 26.944C406.891 26.736 409.083 26.272 409.083 24.56C409.083 23.488 408.299 22.96 406.491 22.96H405.547L405.851 17.84H410.875V19.664H407.531L407.419 21.552C407.419 21.552 407.723 21.536 408.043 21.536C409.995 21.536 411.163 22.496 411.163 24.352ZM419.302 21.92C419.302 24.16 418.326 26.192 415.862 26.192C413.398 26.192 412.422 24.16 412.422 21.92C412.422 19.68 413.398 17.648 415.862 17.648C418.326 17.648 419.302 19.68 419.302 21.92ZM417.254 21.92C417.254 20.384 416.822 19.456 415.862 19.456C414.918 19.456 414.47 20.384 414.47 21.92C414.47 23.456 414.918 24.384 415.862 24.384C416.822 24.384 417.254 23.456 417.254 21.92Z" fill="#00157E"/>
<path d="M388.271 38.402C388.271 40.53 387.347 42.07 385.163 42.07C384.799 42.07 384.505 42.042 384.239 41.972V44.772L383.119 44.954V36.96L382.923 35.518L384.029 35.336L384.127 36.008H384.141C384.575 35.644 385.149 35.294 385.905 35.294C387.501 35.294 388.271 36.498 388.271 38.402ZM387.151 38.724C387.151 37.296 386.829 36.302 385.527 36.302C384.967 36.302 384.561 36.54 384.239 36.806V40.936C384.505 41.048 384.813 41.118 385.247 41.118C386.465 41.118 387.151 40.166 387.151 38.724ZM394.279 35.574L393.929 36.582C393.565 36.442 393.159 36.316 392.697 36.316C391.465 36.316 390.723 37.24 390.723 38.626C390.723 40.376 391.409 41.174 392.669 41.174C393.117 41.174 393.481 41.02 393.845 40.866L394.223 41.776C393.677 42.028 393.075 42.154 392.445 42.154C390.569 42.154 389.603 40.81 389.603 38.808C389.603 36.4 391.087 35.294 392.753 35.294C393.327 35.294 393.817 35.392 394.279 35.574ZM399.614 40.096C399.614 41.286 398.676 42.14 397.276 42.14C396.604 42.14 395.932 42.042 395.4 41.79L395.736 40.81C396.198 41.02 396.716 41.188 397.22 41.188C397.976 41.188 398.48 40.894 398.48 40.278C398.48 39.802 398.228 39.606 397.794 39.41L396.576 38.85C396.142 38.654 395.358 38.262 395.358 37.128C395.358 35.882 396.45 35.294 397.64 35.294C398.354 35.294 398.858 35.406 399.418 35.644L399.04 36.61C398.592 36.414 398.158 36.274 397.626 36.274C396.912 36.274 396.45 36.498 396.45 37.058C396.45 37.548 396.87 37.744 397.136 37.87L398.382 38.458C399.25 38.864 399.614 39.382 399.614 40.096ZM402.673 41.286C402.673 41.734 402.309 42.098 401.875 42.098C401.427 42.098 401.063 41.734 401.063 41.286C401.063 40.852 401.427 40.488 401.875 40.488C402.309 40.488 402.673 40.852 402.673 41.286Z" fill="#00157E" fill-opacity="0.7"/>
<path d="M410.911 42H409.805V35.812L408.573 35.98L408.447 35.126L410.911 34.734V42ZM418.486 38.43C418.486 40.292 417.758 42.154 415.644 42.154C413.516 42.154 412.788 40.292 412.788 38.43C412.788 36.568 413.516 34.706 415.644 34.706C417.758 34.706 418.486 36.568 418.486 38.43ZM417.338 38.43C417.338 36.862 416.82 35.686 415.644 35.686C414.454 35.686 413.936 36.862 413.936 38.43C413.936 39.998 414.454 41.174 415.644 41.174C416.82 41.174 417.338 39.998 417.338 38.43Z" fill="#00157E"/>
<path d="M348.957 57.566C348.173 57.972 347.375 58.154 346.311 58.154C344.253 58.154 342.671 56.768 342.671 53.968C342.671 50.986 344.435 49.418 346.703 49.418C347.641 49.418 348.215 49.558 348.929 49.866L348.481 50.888C347.949 50.65 347.445 50.468 346.689 50.468C345.219 50.468 343.875 51.602 343.875 53.674C343.875 55.984 344.729 57.118 346.773 57.118C347.445 57.118 348.061 56.852 348.565 56.628L348.957 57.566ZM356.567 58H355.391V54.15H351.597V58H350.421V49.572H351.597V53.156H355.391V49.572H356.567V58ZM363.083 50.566H360.059V53.31H362.789V54.304H360.059V58H358.897V49.572H363.083V50.566Z" fill="#00157E" fill-opacity="0.7"/>
<path d="M370.911 58H369.805V51.812L368.573 51.98L368.447 51.126L370.911 50.734V58ZM378.486 54.43C378.486 56.292 377.758 58.154 375.644 58.154C373.516 58.154 372.788 56.292 372.788 54.43C372.788 52.568 373.516 50.706 375.644 50.706C377.758 50.706 378.486 52.568 378.486 54.43ZM377.338 54.43C377.338 52.862 376.82 51.686 375.644 51.686C374.454 51.686 373.936 52.862 373.936 54.43C373.936 55.998 374.454 57.174 375.644 57.174C376.82 57.174 377.338 55.998 377.338 54.43ZM381.645 50.37C381.645 51.392 381.225 52.176 380.371 52.68L380.049 52.26C380.469 51.952 380.693 51.56 380.763 51.056C380.371 51 380.035 50.664 380.035 50.258C380.035 49.796 380.399 49.446 380.847 49.446C381.295 49.446 381.645 49.81 381.645 50.37ZM388.079 55.956C388.079 57.3 387.057 58.154 385.615 58.154C384.145 58.154 383.151 57.412 383.151 56.04C383.151 54.808 384.061 54.066 384.761 53.59C383.921 53.002 383.361 52.498 383.361 51.448C383.361 50.258 384.341 49.418 385.601 49.418C386.959 49.418 387.841 50.174 387.841 51.35C387.841 52.358 387.141 53.002 386.455 53.478C387.351 54.08 388.079 54.682 388.079 55.956ZM387.001 55.956C387.001 55.046 386.371 54.584 385.531 54.038C384.789 54.542 384.215 54.976 384.215 55.9C384.215 56.74 384.775 57.216 385.629 57.216C386.539 57.216 387.001 56.656 387.001 55.956ZM386.847 51.476C386.847 50.762 386.371 50.3 385.615 50.3C384.859 50.3 384.369 50.79 384.369 51.49C384.369 52.148 384.915 52.526 385.671 53.044C386.273 52.652 386.847 52.148 386.847 51.476ZM395.248 54.43C395.248 56.292 394.52 58.154 392.406 58.154C390.278 58.154 389.55 56.292 389.55 54.43C389.55 52.568 390.278 50.706 392.406 50.706C394.52 50.706 395.248 52.568 395.248 54.43ZM394.1 54.43C394.1 52.862 393.582 51.686 392.406 51.686C391.216 51.686 390.698 52.862 390.698 54.43C390.698 55.998 391.216 57.174 392.406 57.174C393.582 57.174 394.1 55.998 394.1 54.43ZM401.291 56.74C401.291 59.428 398.757 60.184 396.951 60.324L396.811 59.372C398.085 59.232 400.143 58.728 400.143 56.894C400.143 55.746 399.499 55.074 397.707 55.074H396.769L397.077 50.86H401.067V51.882H398.043L397.861 54.234C397.861 54.234 398.183 54.206 398.477 54.206C400.101 54.206 401.291 55.06 401.291 56.74ZM404.327 57.286C404.327 57.734 403.963 58.098 403.529 58.098C403.081 58.098 402.717 57.734 402.717 57.286C402.717 56.852 403.081 56.488 403.529 56.488C403.963 56.488 404.327 56.852 404.327 57.286ZM411.572 54.43C411.572 56.292 410.844 58.154 408.73 58.154C406.602 58.154 405.874 56.292 405.874 54.43C405.874 52.568 406.602 50.706 408.73 50.706C410.844 50.706 411.572 52.568 411.572 54.43ZM410.424 54.43C410.424 52.862 409.906 51.686 408.73 51.686C407.54 51.686 407.022 52.862 407.022 54.43C407.022 55.998 407.54 57.174 408.73 57.174C409.906 57.174 410.424 55.998 410.424 54.43ZM418.777 54.43C418.777 56.292 418.049 58.154 415.935 58.154C413.807 58.154 413.079 56.292 413.079 54.43C413.079 52.568 413.807 50.706 415.935 50.706C418.049 50.706 418.777 52.568 418.777 54.43ZM417.629 54.43C417.629 52.862 417.111 51.686 415.935 51.686C414.745 51.686 414.227 52.862 414.227 54.43C414.227 55.998 414.745 57.174 415.935 57.174C417.111 57.174 417.629 55.998 417.629 54.43Z" fill="#00157E"/>
<defs>
<clipPath id="clip0_822_129468">
<rect width="24" height="24" fill="white" transform="translate(0.000976562 50)"/>
</clipPath>
</defs>
</svg>
