<svg width="420" height="24" viewBox="0 0 420 24" fill="none" xmlns="http://www.w3.org/2000/svg">
<path d="M22.02 9.65898C22.02 11.633 20.41 12.627 18.534 12.627H18.324V16.001H17.162V7.64298C17.162 7.64298 18.212 7.48898 19.318 7.48898C20.956 7.48898 22.02 8.27298 22.02 9.65898ZM20.872 9.86898C20.872 8.83298 20.186 8.37098 19.122 8.37098C18.674 8.37098 18.324 8.42698 18.324 8.42698V11.731H18.506C19.752 11.731 20.872 11.171 20.872 9.86898ZM26.4721 10.415C25.7161 10.415 25.1561 10.611 24.6521 11.073V16.001H23.5321V10.961L23.3361 9.51898L24.4421 9.33698L24.5541 10.233H24.5681C25.0161 9.72898 25.6041 9.30898 26.4721 9.30898V10.415ZM32.8267 12.725C32.8267 14.643 31.9167 16.155 30.0267 16.155C27.9547 16.155 27.2267 14.685 27.2267 12.725C27.2267 10.807 28.1367 9.29498 30.0267 9.29498C32.0987 9.29498 32.8267 10.765 32.8267 12.725ZM31.6787 12.753C31.6787 11.129 31.1327 10.275 30.0267 10.275C28.9487 10.275 28.3747 11.031 28.3747 12.683C28.3747 14.307 28.9207 15.175 30.0267 15.175C31.1047 15.175 31.6787 14.405 31.6787 12.753ZM39.5203 15.959L38.4423 16.113L38.3443 15.455H38.3303C37.9103 15.805 37.3363 16.155 36.5663 16.155C35.1243 16.155 34.1583 14.965 34.1583 13.019C34.1583 10.765 35.3203 9.37898 37.3083 9.37898C37.8403 9.37898 38.2183 9.47698 38.2183 9.47698V8.06298L38.0083 6.62098L39.3243 6.43898V14.517L39.5203 15.959ZM36.9583 15.175C37.5043 15.175 37.8823 14.951 38.2183 14.685V10.499C38.2183 10.499 37.8543 10.317 37.2103 10.317C35.9363 10.317 35.3063 11.395 35.3063 12.669C35.3063 14.251 35.7263 15.175 36.9583 15.175ZM46.7313 15.931L45.6253 16.113L45.5133 15.357H45.4993C45.0093 15.819 44.3653 16.155 43.5533 16.155C42.4473 16.155 41.5653 15.441 41.5653 14.097V10.961L41.3693 9.51898L42.6853 9.33698V13.705C42.6853 14.671 43.0493 15.175 43.9313 15.175C44.5613 15.175 45.0093 14.909 45.4153 14.531V10.961L45.2193 9.51898L46.5353 9.33698V14.489L46.7313 15.931ZM52.9984 9.57498L52.6484 10.583C52.2844 10.443 51.8784 10.317 51.4164 10.317C50.1844 10.317 49.4424 11.241 49.4424 12.627C49.4424 14.377 50.1284 15.175 51.3884 15.175C51.8364 15.175 52.2004 15.021 52.5644 14.867L52.9424 15.777C52.3964 16.029 51.7944 16.155 51.1644 16.155C49.2884 16.155 48.3224 14.811 48.3224 12.809C48.3224 10.401 49.8064 9.29498 51.4724 9.29498C52.0464 9.29498 52.5364 9.39298 52.9984 9.57498ZM57.9526 15.735C57.5466 15.959 57.1686 16.141 56.4546 16.141C55.4466 16.141 54.8026 15.483 54.8026 14.363V10.359H53.8366V9.61698L54.8026 9.42098V8.32898L55.9086 8.18898V9.44898H57.7426V10.359H55.9086V13.985C55.9086 14.867 56.1326 15.147 56.7766 15.147C57.1266 15.147 57.3926 15.007 57.5886 14.881L57.9526 15.735Z" fill="#00157E"/>
<path d="M323 0.500977H392C398.351 0.500977 403.5 5.6497 403.5 12.001C403.5 18.3523 398.351 23.501 392 23.501H323C316.649 23.501 311.5 18.3523 311.5 12.001C311.5 5.6497 316.649 0.500977 323 0.500977Z" fill="#00157E"/>
<path d="M323 0.500977H392C398.351 0.500977 403.5 5.6497 403.5 12.001C403.5 18.3523 398.351 23.501 392 23.501H323C316.649 23.501 311.5 18.3523 311.5 12.001C311.5 5.6497 316.649 0.500977 323 0.500977Z" stroke="#00157E"/>
<path d="M332.333 8.00098L325 15.3343L321.667 12.001" stroke="white" stroke-width="2" stroke-linecap="round" stroke-linejoin="round"/>
<path d="M348.723 16.001H344.327V7.57298H345.503V15.007H348.723V16.001ZM354.407 15.931L353.287 16.113L353.189 15.343H353.175C352.699 15.791 352.181 16.169 351.397 16.169C350.305 16.169 349.661 15.511 349.661 14.475C349.661 13.299 350.585 12.725 351.915 12.585L353.091 12.459V11.871C353.091 10.961 352.811 10.317 351.733 10.317C351.187 10.317 350.781 10.485 350.375 10.695L349.969 9.86898C350.557 9.51898 351.159 9.29498 351.999 9.29498C353.315 9.29498 354.197 10.065 354.197 11.367V14.489L354.407 15.931ZM353.091 14.643V13.215L352.069 13.355C351.229 13.467 350.767 13.733 350.767 14.335C350.767 14.881 351.103 15.245 351.663 15.245C352.321 15.245 352.727 14.965 353.091 14.643ZM361.633 12.333C361.633 14.517 360.499 16.141 358.427 16.141C357.699 16.141 356.901 16.015 356.425 15.833V8.06298L356.229 6.62098L357.545 6.43898V9.95298H357.559C357.979 9.60298 358.539 9.29498 359.281 9.29498C360.821 9.29498 361.633 10.401 361.633 12.333ZM360.499 12.739C360.499 11.297 360.163 10.317 358.889 10.317C358.301 10.317 357.881 10.555 357.545 10.849V15.063C357.825 15.133 358.105 15.175 358.525 15.175C359.827 15.175 360.499 14.069 360.499 12.739ZM367.976 15.651C367.346 16.001 366.702 16.155 365.904 16.155C363.972 16.155 362.978 14.853 362.978 12.683C362.978 10.653 364.042 9.29498 365.694 9.29498C367.276 9.29498 367.92 10.345 367.92 11.787V12.571H364.07C364.084 14.321 364.714 15.161 366.142 15.161C366.688 15.161 367.108 15.007 367.584 14.769L367.976 15.651ZM366.87 11.787C366.87 10.807 366.506 10.191 365.638 10.191C364.798 10.191 364.266 10.849 364.126 11.787H366.87ZM370.738 16.001H369.618V8.06298L369.422 6.62098L370.738 6.43898V16.001Z" fill="white"/>
<path d="M392 8.00098L384 16.001" stroke="white" stroke-width="2" stroke-linecap="round" stroke-linejoin="round"/>
<path d="M384 8.00098L392 16.001" stroke="white" stroke-width="2" stroke-linecap="round" stroke-linejoin="round"/>
</svg>
