<svg width="512" height="88" viewBox="0 0 512 88" fill="none" xmlns="http://www.w3.org/2000/svg">
<g clip-path="url(#clip0_279_338936)">
<path d="M7.155 15.86L6.007 16.182L5.111 13.27H2.367L1.513 16H0.280999L3.207 7.572H4.411L7.155 15.86ZM4.859 12.43L3.767 8.79H3.753L2.619 12.43H4.859ZM17.3372 16H16.2312V11.744C16.2312 10.778 15.8672 10.288 14.9712 10.288C14.3412 10.288 13.8092 10.596 13.4592 10.946C13.4592 10.946 13.5012 11.184 13.5012 11.436V16H12.3812V11.744C12.3812 10.778 12.0172 10.288 11.1352 10.288C10.5052 10.288 10.0572 10.54 9.65116 10.918V16H8.53116V10.96L8.33516 9.518L9.44116 9.336L9.55316 10.106H9.56716C10.0572 9.63 10.7012 9.294 11.5132 9.294C12.2692 9.294 12.8992 9.63 13.2352 10.232H13.2492C13.7672 9.714 14.4392 9.294 15.3632 9.294C16.4832 9.294 17.3372 10.008 17.3372 11.352V16ZM24.7164 12.724C24.7164 14.642 23.8064 16.154 21.9164 16.154C19.8444 16.154 19.1164 14.684 19.1164 12.724C19.1164 10.806 20.0264 9.294 21.9164 9.294C23.9884 9.294 24.7164 10.764 24.7164 12.724ZM23.5684 12.752C23.5684 11.128 23.0224 10.274 21.9164 10.274C20.8384 10.274 20.2644 11.03 20.2644 12.682C20.2644 14.306 20.8104 15.174 21.9164 15.174C22.9944 15.174 23.5684 14.404 23.5684 12.752ZM31.662 15.93L30.556 16.112L30.444 15.356H30.43C29.94 15.818 29.296 16.154 28.484 16.154C27.378 16.154 26.496 15.44 26.496 14.096V10.96L26.3 9.518L27.616 9.336V13.704C27.616 14.67 27.98 15.174 28.862 15.174C29.492 15.174 29.94 14.908 30.346 14.53V10.96L30.15 9.518L31.466 9.336V14.488L31.662 15.93ZM38.6711 16H37.5511V11.744C37.5511 10.778 37.1871 10.288 36.3051 10.288C35.6751 10.288 35.2271 10.554 34.8211 10.918V16H33.7011V10.96L33.5051 9.518L34.6111 9.336L34.7231 10.106H34.7371C35.2271 9.63 35.8711 9.294 36.6831 9.294C37.7891 9.294 38.6711 10.008 38.6711 11.352V16ZM44.1548 15.734C43.7488 15.958 43.3708 16.14 42.6568 16.14C41.6488 16.14 41.0048 15.482 41.0048 14.362V10.358H40.0388V9.616L41.0048 9.42V8.328L42.1108 8.188V9.448H43.9448V10.358H42.1108V13.984C42.1108 14.866 42.3348 15.146 42.9788 15.146C43.3288 15.146 43.5948 15.006 43.7908 14.88L44.1548 15.734Z" fill="#00157E" fill-opacity="0.7"/>
</g>
<path d="M0 32C0 29.7909 1.79086 28 4 28H508C510.209 28 512 29.7909 512 32V64C512 66.2091 510.209 68 508 68H4C1.79086 68 0 66.2091 0 64V32Z" fill="white"/>
<path d="M4 28.5H508C509.933 28.5 511.5 30.067 511.5 32V64C511.5 65.933 509.933 67.5 508 67.5H4C2.067 67.5 0.5 65.933 0.5 64V32C0.500001 30.067 2.067 28.5 4 28.5Z" stroke="#00157E" stroke-opacity="0.7"/>
<path d="M20.2411 52.504C19.3451 52.968 18.4331 53.176 17.2171 53.176C14.8651 53.176 13.0571 51.592 13.0571 48.392C13.0571 44.984 15.0731 43.192 17.6651 43.192C18.7371 43.192 19.3931 43.352 20.2091 43.704L19.6971 44.872C19.0891 44.6 18.5131 44.392 17.6491 44.392C15.9691 44.392 14.4331 45.688 14.4331 48.056C14.4331 50.696 15.4091 51.992 17.7451 51.992C18.5131 51.992 19.2171 51.688 19.7931 51.432L20.2411 52.504ZM28.9379 53H27.5939V48.6H23.2579V53H21.9139V43.368H23.2579V47.464H27.5939V43.368H28.9379V53ZM36.3854 44.504H32.9294V47.64H36.0494V48.776H32.9294V53H31.6014V43.368H36.3854V44.504Z" fill="#00157E"/>
<path d="M51 45L57 51L63 45" stroke="#00157E" stroke-width="2" stroke-linecap="round" stroke-linejoin="round"/>
<path d="M453.361 52.2C453.361 56.04 449.741 57.12 447.161 57.32L446.961 55.96C448.781 55.76 451.721 55.04 451.721 52.42C451.721 50.78 450.801 49.82 448.241 49.82H446.901L447.341 43.8H453.041V45.26H448.721L448.461 48.62C448.461 48.62 448.921 48.58 449.341 48.58C451.661 48.58 453.361 49.8 453.361 52.2ZM463.478 48.9C463.478 51.56 462.438 54.22 459.418 54.22C456.378 54.22 455.338 51.56 455.338 48.9C455.338 46.24 456.378 43.58 459.418 43.58C462.438 43.58 463.478 46.24 463.478 48.9ZM461.838 48.9C461.838 46.66 461.098 44.98 459.418 44.98C457.718 44.98 456.978 46.66 456.978 48.9C456.978 51.14 457.718 52.82 459.418 52.82C461.098 52.82 461.838 51.14 461.838 48.9ZM473.771 48.9C473.771 51.56 472.731 54.22 469.711 54.22C466.671 54.22 465.631 51.56 465.631 48.9C465.631 46.24 466.671 43.58 469.711 43.58C472.731 43.58 473.771 46.24 473.771 48.9ZM472.131 48.9C472.131 46.66 471.391 44.98 469.711 44.98C468.011 44.98 467.271 46.66 467.271 48.9C467.271 51.14 468.011 52.82 469.711 52.82C471.391 52.82 472.131 51.14 472.131 48.9ZM478.284 52.98C478.284 53.62 477.764 54.14 477.144 54.14C476.504 54.14 475.984 53.62 475.984 52.98C475.984 52.36 476.504 51.84 477.144 51.84C477.764 51.84 478.284 52.36 478.284 52.98ZM488.634 48.9C488.634 51.56 487.594 54.22 484.574 54.22C481.534 54.22 480.494 51.56 480.494 48.9C480.494 46.24 481.534 43.58 484.574 43.58C487.594 43.58 488.634 46.24 488.634 48.9ZM486.994 48.9C486.994 46.66 486.254 44.98 484.574 44.98C482.874 44.98 482.134 46.66 482.134 48.9C482.134 51.14 482.874 52.82 484.574 52.82C486.254 52.82 486.994 51.14 486.994 48.9ZM498.927 48.9C498.927 51.56 497.887 54.22 494.867 54.22C491.827 54.22 490.787 51.56 490.787 48.9C490.787 46.24 491.827 43.58 494.867 43.58C497.887 43.58 498.927 46.24 498.927 48.9ZM497.287 48.9C497.287 46.66 496.547 44.98 494.867 44.98C493.167 44.98 492.427 46.66 492.427 48.9C492.427 51.14 493.167 52.82 494.867 52.82C496.547 52.82 497.287 51.14 497.287 48.9Z" fill="#00157E"/>
<defs>
<clipPath id="clip0_279_338936">
<rect width="511.998" height="24" fill="white" transform="translate(0.000999451)"/>
</clipPath>
</defs>
</svg>
