<svg width="555" height="228" viewBox="0 0 555 228" fill="none" xmlns="http://www.w3.org/2000/svg">
<path d="M0 8C0 3.58173 3.58172 0 8 0H546.667C551.085 0 554.667 3.58172 554.667 8V220.001C554.667 224.419 551.085 228.001 546.667 228.001H8C3.58172 228.001 0 224.419 0 220.001V8Z" fill="white"/>
<path d="M533 21.9302L521 33.9302" stroke="#00157E" stroke-width="2" stroke-linecap="round" stroke-linejoin="round"/>
<path d="M521 21.9302L533 33.9302" stroke="#00157E" stroke-width="2" stroke-linecap="round" stroke-linejoin="round"/>
<path d="M230.481 33.941L227.921 34.101L227.681 26.161H227.661L225.021 34.001H222.461L219.941 26.201H219.921L219.601 34.001H217.281L218.161 21.961H221.061L223.881 30.461H223.901L226.741 21.961H229.661L230.481 33.941ZM240.733 29.241C240.733 32.081 239.253 34.221 236.473 34.221C233.473 34.221 232.213 32.101 232.213 29.241C232.213 26.401 233.693 24.321 236.473 24.321C239.473 24.321 240.733 26.381 240.733 29.241ZM238.213 29.261C238.213 27.321 237.573 26.541 236.473 26.541C235.373 26.541 234.733 27.281 234.733 29.221C234.733 31.141 235.373 32.001 236.473 32.001C237.573 32.001 238.213 31.181 238.213 29.261ZM247.855 26.621C246.695 26.621 245.935 26.821 245.255 27.581V34.001H242.715V27.001L242.395 24.661L244.835 24.341L244.995 25.681H245.015C245.555 24.961 246.375 24.301 247.855 24.301V26.621ZM256.302 33.441C255.242 33.981 254.362 34.241 253.082 34.241C249.922 34.241 248.522 32.321 248.522 29.121C248.522 26.261 250.222 24.321 252.742 24.321C255.382 24.321 256.242 26.141 256.242 28.421V29.541H251.002C251.082 31.221 251.882 32.021 253.402 32.021C254.302 32.021 254.802 31.801 255.522 31.501L256.302 33.441ZM254.022 28.001C254.022 27.021 253.602 26.361 252.662 26.361C251.662 26.361 251.162 27.121 251.042 28.001H254.022ZM268.022 20.561L267.422 22.721C267.122 22.621 266.902 22.561 266.582 22.561C265.782 22.561 265.262 23.001 265.262 23.941V24.541H267.662V26.541H265.262V34.001H262.742V26.541H261.282V24.861L262.742 24.521V23.821C262.742 21.681 264.282 20.301 266.382 20.301C267.062 20.301 267.522 20.421 268.022 20.561ZM277.46 33.861L275.02 34.181L274.88 33.161H274.86C274.3 33.701 273.36 34.241 272.1 34.241C270.48 34.241 269.16 33.281 269.16 31.161V27.001L268.84 24.661L271.7 24.341V30.541C271.7 31.561 272.12 32.021 273 32.021C273.66 32.021 274.22 31.721 274.6 31.341V27.001L274.28 24.661L277.14 24.341V31.521L277.46 33.861ZM287.668 34.001H285.128V28.001C285.128 26.981 284.708 26.521 283.808 26.521C283.148 26.521 282.588 26.841 282.228 27.201V34.001H279.688V27.001L279.368 24.661L281.808 24.341L281.928 25.381H281.948C282.508 24.821 283.448 24.301 284.708 24.301C286.348 24.301 287.668 25.241 287.668 27.381V34.001ZM296.776 24.741L296.016 26.961C295.516 26.741 295.056 26.561 294.376 26.561C293.116 26.561 292.176 27.461 292.176 29.161C292.176 31.081 293.036 31.921 294.256 31.921C294.976 31.921 295.356 31.761 295.956 31.521L296.716 33.601C295.836 34.001 295.016 34.241 293.936 34.241C291.096 34.241 289.596 32.321 289.596 29.301C289.596 25.821 291.956 24.301 294.376 24.301C295.316 24.301 295.956 24.421 296.776 24.741ZM304.59 33.541C303.77 33.981 303.15 34.221 301.89 34.221C300.01 34.221 299.09 32.961 299.09 31.081V26.541H297.63V24.861L299.09 24.521V22.881L301.61 22.581V24.541H304.21V26.541H301.61V30.401C301.61 31.661 301.93 31.981 302.75 31.981C303.21 31.981 303.47 31.861 303.91 31.661L304.59 33.541ZM308.771 34.001H306.231V27.001L305.911 24.661L308.771 24.341V34.001ZM309.011 21.881C309.011 22.721 308.351 23.401 307.511 23.401C306.671 23.401 306.011 22.721 306.011 21.881C306.011 21.061 306.671 20.381 307.511 20.381C308.351 20.381 309.011 21.061 309.011 21.881ZM319.249 29.241C319.249 32.081 317.769 34.221 314.989 34.221C311.989 34.221 310.729 32.101 310.729 29.241C310.729 26.401 312.209 24.321 314.989 24.321C317.989 24.321 319.249 26.381 319.249 29.241ZM316.729 29.261C316.729 27.321 316.089 26.541 314.989 26.541C313.889 26.541 313.249 27.281 313.249 29.221C313.249 31.141 313.889 32.001 314.989 32.001C316.089 32.001 316.729 31.181 316.729 29.261ZM329.211 34.001H326.671V28.001C326.671 26.981 326.251 26.521 325.351 26.521C324.691 26.521 324.131 26.841 323.771 27.201V34.001H321.231V27.001L320.911 24.661L323.351 24.341L323.471 25.381H323.491C324.051 24.821 324.991 24.301 326.251 24.301C327.891 24.301 329.211 25.241 329.211 27.381V34.001ZM337.739 30.961C337.739 32.781 336.279 34.221 334.079 34.221C332.939 34.221 331.919 34.041 331.059 33.641L331.719 31.561C332.439 31.861 333.139 32.161 333.939 32.161C334.799 32.161 335.219 31.861 335.219 31.361C335.219 30.901 334.999 30.721 334.479 30.501L332.999 29.881C332.119 29.521 331.159 28.861 331.159 27.301C331.159 25.341 332.819 24.301 334.799 24.301C335.919 24.301 336.679 24.481 337.579 24.861L336.799 26.901C336.159 26.641 335.539 26.381 334.819 26.381C334.039 26.381 333.599 26.601 333.599 27.121C333.599 27.621 333.999 27.801 334.359 27.941L335.899 28.561C337.099 29.041 337.739 29.801 337.739 30.961Z" fill="#00157E"/>
<mask id="path-6-inside-1_456_90687" fill="white">
<path d="M0 64.001C0 59.5827 3.58172 56.001 8 56.001H546.667C551.085 56.001 554.667 59.5827 554.667 64.001V96.001H0V64.001Z"/>
</mask>
<path d="M0 56.001H554.667H0M554.667 97.001H0V95.001H554.667V97.001ZM554.667 95.001M0 96.001V56.001V96.001M0 96.001M554.667 56.001V96.001V56.001" fill="#00157E" fill-opacity="0.1" mask="url(#path-6-inside-1_456_90687)"/>
<path d="M27 83.001C31.4183 83.001 35 79.4193 35 75.001C35 70.5827 31.4183 67.001 27 67.001C22.5817 67.001 19 70.5827 19 75.001C19 79.4193 22.5817 83.001 27 83.001Z" stroke="#00157E" stroke-width="2" stroke-linecap="round" stroke-linejoin="round"/>
<path d="M37 85.0009L32.65 80.6509" stroke="#00157E" stroke-width="2" stroke-linecap="round" stroke-linejoin="round"/>
<path d="M24 75.001H30" stroke="#00157E" stroke-width="2" stroke-linecap="round" stroke-linejoin="round"/>
<path d="M67.3708 80.969L66.0908 81.065L65.8188 73.609H65.8028L62.9708 81.001H61.5788L58.9068 73.625H58.8908L58.5068 81.001H57.3388L57.9628 71.369H59.3708L62.3948 79.401H62.4108L65.4668 71.369H66.8588L67.3708 80.969ZM74.6764 80.921L73.3964 81.129L73.2844 80.249H73.2684C72.7244 80.761 72.1324 81.193 71.2364 81.193C69.9884 81.193 69.2524 80.441 69.2524 79.257C69.2524 77.913 70.3084 77.257 71.8284 77.097L73.1724 76.953V76.281C73.1724 75.241 72.8524 74.505 71.6204 74.505C70.9964 74.505 70.5324 74.697 70.0684 74.937L69.6044 73.993C70.2764 73.593 70.9644 73.337 71.9244 73.337C73.4284 73.337 74.4364 74.217 74.4364 75.705V79.273L74.6764 80.921ZM73.1724 79.449V77.817L72.0044 77.977C71.0444 78.105 70.5164 78.409 70.5164 79.097C70.5164 79.721 70.9004 80.137 71.5404 80.137C72.2924 80.137 72.7564 79.817 73.1724 79.449ZM78.2624 81.001H76.9824V71.929L76.7584 70.281L78.2624 70.073V81.001ZM82.9824 80.777L81.7024 81.241L78.2944 76.937L80.9984 73.513H82.4544L79.7984 76.825L82.9824 80.777ZM89.4488 80.601C88.7288 81.001 87.9928 81.177 87.0807 81.177C84.8728 81.177 83.7368 79.689 83.7368 77.209C83.7368 74.889 84.9528 73.337 86.8408 73.337C88.6488 73.337 89.3848 74.537 89.3848 76.185V77.081H84.9848C85.0008 79.081 85.7208 80.041 87.3528 80.041C87.9768 80.041 88.4568 79.865 89.0008 79.593L89.4488 80.601ZM88.1848 76.185C88.1848 75.065 87.7688 74.361 86.7768 74.361C85.8168 74.361 85.2088 75.113 85.0488 76.185H88.1848ZM100.606 76.889C100.606 79.321 99.5495 81.081 97.0535 81.081C96.6375 81.081 96.3015 81.049 95.9975 80.969V84.169L94.7175 84.377V75.241L94.4935 73.593L95.7575 73.385L95.8695 74.153H95.8855C96.3815 73.737 97.0375 73.337 97.9015 73.337C99.7255 73.337 100.606 74.713 100.606 76.889ZM99.3255 77.257C99.3255 75.625 98.9575 74.489 97.4695 74.489C96.8295 74.489 96.3655 74.761 95.9975 75.065V79.785C96.3015 79.913 96.6535 79.993 97.1495 79.993C98.5415 79.993 99.3255 78.905 99.3255 77.257ZM107.551 80.921L106.271 81.129L106.159 80.249H106.143C105.599 80.761 105.007 81.193 104.111 81.193C102.863 81.193 102.127 80.441 102.127 79.257C102.127 77.913 103.183 77.257 104.703 77.097L106.047 76.953V76.281C106.047 75.241 105.727 74.505 104.495 74.505C103.871 74.505 103.407 74.697 102.943 74.937L102.479 73.993C103.151 73.593 103.839 73.337 104.799 73.337C106.303 73.337 107.311 74.217 107.311 75.705V79.273L107.551 80.921ZM106.047 79.449V77.817L104.879 77.977C103.919 78.105 103.391 78.409 103.391 79.097C103.391 79.721 103.775 80.137 104.415 80.137C105.167 80.137 105.631 79.817 106.047 79.449ZM115.142 73.513L112.646 80.313C111.846 82.521 110.774 83.849 108.165 84.377L107.925 83.337C109.83 82.953 110.838 81.801 111.334 80.553L108.646 73.625L109.91 73.289L111.974 78.857H111.99L113.878 73.513H115.142ZM126.75 81.001H125.486V76.137C125.486 75.033 125.07 74.473 124.046 74.473C123.326 74.473 122.718 74.825 122.318 75.225C122.318 75.225 122.366 75.497 122.366 75.785V81.001H121.086V76.137C121.086 75.033 120.67 74.473 119.662 74.473C118.942 74.473 118.43 74.761 117.966 75.193V81.001H116.686V75.241L116.462 73.593L117.726 73.385L117.854 74.265H117.87C118.43 73.721 119.166 73.337 120.094 73.337C120.958 73.337 121.678 73.721 122.062 74.409H122.078C122.67 73.817 123.438 73.337 124.494 73.337C125.774 73.337 126.75 74.153 126.75 75.689V81.001ZM134.496 80.601C133.776 81.001 133.04 81.177 132.128 81.177C129.92 81.177 128.784 79.689 128.784 77.209C128.784 74.889 130 73.337 131.888 73.337C133.696 73.337 134.432 74.537 134.432 76.185V77.081H130.032C130.048 79.081 130.768 80.041 132.4 80.041C133.024 80.041 133.504 79.865 134.048 79.593L134.496 80.601ZM133.232 76.185C133.232 75.065 132.816 74.361 131.824 74.361C130.864 74.361 130.256 75.113 130.096 76.185H133.232ZM142.085 81.001H140.805V76.137C140.805 75.033 140.389 74.473 139.381 74.473C138.661 74.473 138.149 74.777 137.685 75.193V81.001H136.405V75.241L136.181 73.593L137.445 73.385L137.573 74.265H137.589C138.149 73.721 138.885 73.337 139.813 73.337C141.077 73.337 142.085 74.153 142.085 75.689V81.001ZM148.352 80.697C147.888 80.953 147.456 81.161 146.64 81.161C145.488 81.161 144.752 80.409 144.752 79.129V74.553H143.648V73.705L144.752 73.481V72.233L146.016 72.073V73.513H148.112V74.553H146.016V78.697C146.016 79.705 146.272 80.025 147.008 80.025C147.408 80.025 147.712 79.865 147.936 79.721L148.352 80.697Z" fill="#00157E"/>
<mask id="path-12-inside-2_456_90687" fill="white">
<path d="M0 96.001H554.667V136.001H0V96.001Z"/>
</mask>
<path d="M554.667 136.001V135.001H0V136.001V137.001H554.667V136.001Z" fill="#00157E" fill-opacity="0.1" mask="url(#path-12-inside-2_456_90687)"/>
<g clip-path="url(#clip0_456_90687)">
<path d="M33 105.001L37 109.001L33 113.001" stroke="#00157E" stroke-width="2" stroke-linecap="round" stroke-linejoin="round"/>
<path d="M19 115.001V113.001C19 111.94 19.4214 110.923 20.1716 110.173C20.9217 109.422 21.9391 109.001 23 109.001H37" stroke="#00157E" stroke-width="2" stroke-linecap="round" stroke-linejoin="round"/>
<path d="M23 127.001L19 123.001L23 119.001" stroke="#00157E" stroke-width="2" stroke-linecap="round" stroke-linejoin="round"/>
<path d="M37 117.001V119.001C37 120.062 36.5786 121.079 35.8284 121.829C35.0783 122.58 34.0609 123.001 33 123.001H19" stroke="#00157E" stroke-width="2" stroke-linecap="round" stroke-linejoin="round"/>
</g>
<path d="M58.8126 121.001H57.4686V111.369H58.8126V121.001ZM67.1006 121.001H65.8206V116.137C65.8206 115.033 65.4046 114.473 64.3966 114.473C63.6766 114.473 63.1646 114.777 62.7006 115.193V121.001H61.4206V115.241L61.1966 113.593L62.4606 113.385L62.5886 114.265H62.6046C63.1646 113.721 63.9006 113.337 64.8286 113.337C66.0926 113.337 67.1006 114.153 67.1006 115.689V121.001ZM73.3678 120.697C72.9038 120.953 72.4718 121.161 71.6558 121.161C70.5038 121.161 69.7678 120.409 69.7678 119.129V114.553H68.6638V113.705L69.7678 113.481V112.233L71.0318 112.073V113.513H73.1278V114.553H71.0318V118.697C71.0318 119.705 71.2878 120.025 72.0238 120.025C72.4238 120.025 72.7278 119.865 72.9518 119.721L73.3678 120.697ZM80.0581 120.601C79.3381 121.001 78.6021 121.177 77.6901 121.177C75.4821 121.177 74.3461 119.689 74.3461 117.209C74.3461 114.889 75.5621 113.337 77.4501 113.337C79.2581 113.337 79.9941 114.537 79.9941 116.185V117.081H75.5941C75.6101 119.081 76.3301 120.041 77.9621 120.041C78.5861 120.041 79.0661 119.865 79.6101 119.593L80.0581 120.601ZM78.7941 116.185C78.7941 115.065 78.3781 114.361 77.3861 114.361C76.4261 114.361 75.8181 115.113 75.6581 116.185H78.7941ZM85.3275 114.617C84.4635 114.617 83.8235 114.841 83.2475 115.369V121.001H81.9675V115.241L81.7435 113.593L83.0075 113.385L83.1355 114.409H83.1515C83.6635 113.833 84.3355 113.353 85.3275 113.353V114.617ZM92.5694 121.001H91.2894V116.137C91.2894 115.033 90.8734 114.473 89.8654 114.473C89.1454 114.473 88.6334 114.777 88.1694 115.193V121.001H86.8894V115.241L86.6654 113.593L87.9294 113.385L88.0574 114.265H88.0734C88.6334 113.721 89.3694 113.337 90.2974 113.337C91.5614 113.337 92.5694 114.153 92.5694 115.689V121.001ZM100.005 120.921L98.7245 121.129L98.6125 120.249H98.5965C98.0525 120.761 97.4605 121.193 96.5645 121.193C95.3165 121.193 94.5805 120.441 94.5805 119.257C94.5805 117.913 95.6365 117.257 97.1565 117.097L98.5005 116.953V116.281C98.5005 115.241 98.1805 114.505 96.9485 114.505C96.3245 114.505 95.8605 114.697 95.3965 114.937L94.9325 113.993C95.6045 113.593 96.2925 113.337 97.2525 113.337C98.7565 113.337 99.7645 114.217 99.7645 115.705V119.273L100.005 120.921ZM98.5005 119.449V117.817L97.3325 117.977C96.3725 118.105 95.8445 118.409 95.8445 119.097C95.8445 119.721 96.2285 120.137 96.8685 120.137C97.6205 120.137 98.0845 119.817 98.5005 119.449ZM103.591 121.001H102.311V111.929L102.087 110.281L103.591 110.073V121.001ZM114.395 120.921L113.115 121.129L113.003 120.249H112.987C112.443 120.761 111.851 121.193 110.955 121.193C109.707 121.193 108.971 120.441 108.971 119.257C108.971 117.913 110.027 117.257 111.547 117.097L112.891 116.953V116.281C112.891 115.241 112.571 114.505 111.339 114.505C110.715 114.505 110.251 114.697 109.787 114.937L109.323 113.993C109.995 113.593 110.683 113.337 111.643 113.337C113.147 113.337 114.155 114.217 114.155 115.705V119.273L114.395 120.921ZM112.891 119.449V117.817L111.723 117.977C110.763 118.105 110.235 118.409 110.235 119.097C110.235 119.721 110.619 120.137 111.259 120.137C112.011 120.137 112.475 119.817 112.891 119.449ZM121.565 113.657L121.165 114.809C120.749 114.649 120.285 114.505 119.757 114.505C118.349 114.505 117.501 115.561 117.501 117.145C117.501 119.145 118.285 120.057 119.725 120.057C120.237 120.057 120.653 119.881 121.069 119.705L121.501 120.745C120.877 121.033 120.189 121.177 119.469 121.177C117.325 121.177 116.221 119.641 116.221 117.353C116.221 114.601 117.917 113.337 119.821 113.337C120.477 113.337 121.037 113.449 121.565 113.657ZM127.878 113.657L127.478 114.809C127.062 114.649 126.598 114.505 126.07 114.505C124.662 114.505 123.814 115.561 123.814 117.145C123.814 119.145 124.598 120.057 126.038 120.057C126.55 120.057 126.966 119.881 127.382 119.705L127.814 120.745C127.19 121.033 126.502 121.177 125.782 121.177C123.638 121.177 122.534 119.641 122.534 117.353C122.534 114.601 124.23 113.337 126.134 113.337C126.79 113.337 127.35 113.449 127.878 113.657ZM135.246 117.257C135.246 119.449 134.206 121.177 132.046 121.177C129.678 121.177 128.846 119.497 128.846 117.257C128.846 115.065 129.886 113.337 132.046 113.337C134.414 113.337 135.246 115.017 135.246 117.257ZM133.934 117.289C133.934 115.433 133.31 114.457 132.046 114.457C130.814 114.457 130.158 115.321 130.158 117.209C130.158 119.065 130.782 120.057 132.046 120.057C133.278 120.057 133.934 119.177 133.934 117.289ZM143.184 120.921L141.92 121.129L141.792 120.265H141.776C141.216 120.793 140.48 121.177 139.552 121.177C138.288 121.177 137.28 120.361 137.28 118.825V115.241L137.056 113.593L138.56 113.385V118.377C138.56 119.481 138.976 120.057 139.984 120.057C140.704 120.057 141.216 119.753 141.68 119.321V115.241L141.456 113.593L142.96 113.385V119.273L143.184 120.921ZM151.194 121.001H149.914V116.137C149.914 115.033 149.498 114.473 148.49 114.473C147.77 114.473 147.258 114.777 146.794 115.193V121.001H145.514V115.241L145.29 113.593L146.554 113.385L146.682 114.265H146.698C147.258 113.721 147.994 113.337 148.922 113.337C150.186 113.337 151.194 114.153 151.194 115.689V121.001ZM157.462 120.697C156.998 120.953 156.566 121.161 155.75 121.161C154.598 121.161 153.862 120.409 153.862 119.129V114.553H152.758V113.705L153.862 113.481V112.233L155.126 112.073V113.513H157.222V114.553H155.126V118.697C155.126 119.705 155.382 120.025 156.118 120.025C156.518 120.025 156.822 119.865 157.046 119.721L157.462 120.697ZM166.274 120.697C165.81 120.953 165.378 121.161 164.562 121.161C163.41 121.161 162.674 120.409 162.674 119.129V114.553H161.57V113.705L162.674 113.481V112.233L163.938 112.073V113.513H166.034V114.553H163.938V118.697C163.938 119.705 164.194 120.025 164.93 120.025C165.33 120.025 165.634 119.865 165.858 119.721L166.274 120.697ZM171.343 114.617C170.479 114.617 169.839 114.841 169.263 115.369V121.001H167.983V115.241L167.759 113.593L169.023 113.385L169.151 114.409H169.167C169.679 113.833 170.351 113.353 171.343 113.353V114.617ZM177.583 120.921L176.303 121.129L176.191 120.249H176.175C175.631 120.761 175.039 121.193 174.143 121.193C172.895 121.193 172.159 120.441 172.159 119.257C172.159 117.913 173.215 117.257 174.735 117.097L176.079 116.953V116.281C176.079 115.241 175.759 114.505 174.527 114.505C173.903 114.505 173.439 114.697 172.975 114.937L172.511 113.993C173.183 113.593 173.871 113.337 174.831 113.337C176.335 113.337 177.343 114.217 177.343 115.705V119.273L177.583 120.921ZM176.079 119.449V117.817L174.911 117.977C173.951 118.105 173.423 118.409 173.423 119.097C173.423 119.721 173.807 120.137 174.447 120.137C175.199 120.137 175.663 119.817 176.079 119.449ZM185.601 121.001H184.321V116.137C184.321 115.033 183.905 114.473 182.897 114.473C182.177 114.473 181.665 114.777 181.201 115.193V121.001H179.921V115.241L179.697 113.593L180.961 113.385L181.089 114.265H181.105C181.665 113.721 182.401 113.337 183.329 113.337C184.593 113.337 185.601 114.153 185.601 115.689V121.001ZM192.46 118.825C192.46 120.185 191.388 121.161 189.788 121.161C189.02 121.161 188.252 121.049 187.644 120.761L188.028 119.641C188.556 119.881 189.148 120.073 189.724 120.073C190.588 120.073 191.164 119.737 191.164 119.033C191.164 118.489 190.876 118.265 190.38 118.041L188.988 117.401C188.492 117.177 187.596 116.729 187.596 115.433C187.596 114.009 188.844 113.337 190.204 113.337C191.02 113.337 191.596 113.465 192.236 113.737L191.804 114.841C191.292 114.617 190.796 114.457 190.188 114.457C189.372 114.457 188.844 114.713 188.844 115.353C188.844 115.913 189.324 116.137 189.628 116.281L191.052 116.953C192.044 117.417 192.46 118.009 192.46 118.825ZM198.179 110.233L197.891 111.321C197.667 111.241 197.459 111.193 197.139 111.193C196.419 111.193 195.891 111.657 195.891 112.601V113.513H197.955V114.553H195.891V121.001H194.627V114.553H193.523V113.705L194.627 113.481V112.697C194.627 111.081 195.715 110.089 197.203 110.089C197.603 110.089 197.891 110.153 198.179 110.233ZM204.308 120.601C203.588 121.001 202.852 121.177 201.94 121.177C199.732 121.177 198.596 119.689 198.596 117.209C198.596 114.889 199.812 113.337 201.7 113.337C203.508 113.337 204.244 114.537 204.244 116.185V117.081H199.844C199.86 119.081 200.58 120.041 202.212 120.041C202.836 120.041 203.316 119.865 203.86 119.593L204.308 120.601ZM203.044 116.185C203.044 115.065 202.628 114.361 201.636 114.361C200.676 114.361 200.068 115.113 199.908 116.185H203.044ZM209.578 114.617C208.714 114.617 208.074 114.841 207.498 115.369V121.001H206.218V115.241L205.993 113.593L207.258 113.385L207.386 114.409H207.402C207.914 113.833 208.586 113.353 209.578 113.353V114.617Z" fill="#00157E"/>
<mask id="path-19-inside-3_456_90687" fill="white">
<path d="M0 136.001H554.667V176.001H0V136.001Z"/>
</mask>
<path d="M554.667 176.001V175.001H0V176.001V177.001H554.667V176.001Z" fill="#00157E" fill-opacity="0.1" mask="url(#path-19-inside-3_456_90687)"/>
<path d="M32 147.001L37 152.001L24 165.001H19V160.001L32 147.001Z" stroke="#00157E" stroke-width="2" stroke-linecap="round" stroke-linejoin="round"/>
<path d="M64.0458 160.505C63.1498 160.969 62.2378 161.177 61.0218 161.177C58.6698 161.177 56.8618 159.593 56.8618 156.393C56.8618 152.985 58.8778 151.193 61.4698 151.193C62.5418 151.193 63.1978 151.353 64.0138 151.705L63.5018 152.873C62.8938 152.601 62.3178 152.393 61.4538 152.393C59.7738 152.393 58.2378 153.689 58.2378 156.057C58.2378 158.697 59.2138 159.993 61.5498 159.993C62.3178 159.993 63.0218 159.689 63.5978 159.433L64.0458 160.505ZM71.3026 161.001H70.0386V156.137C70.0386 155.049 69.6066 154.489 68.5826 154.489C67.8466 154.489 67.3506 154.809 66.9186 155.193V161.001H65.6386V151.929L65.4146 150.281L66.9186 150.073V154.169H66.9346C67.4306 153.737 68.1186 153.337 69.0466 153.337C70.3266 153.337 71.3026 154.137 71.3026 155.689V161.001ZM78.7545 160.921L77.4745 161.129L77.3625 160.249H77.3465C76.8025 160.761 76.2105 161.193 75.3145 161.193C74.0665 161.193 73.3305 160.441 73.3305 159.257C73.3305 157.913 74.3865 157.257 75.9065 157.097L77.2505 156.953V156.281C77.2505 155.241 76.9305 154.505 75.6985 154.505C75.0745 154.505 74.6105 154.697 74.1465 154.937L73.6825 153.993C74.3545 153.593 75.0425 153.337 76.0025 153.337C77.5065 153.337 78.5145 154.217 78.5145 155.705V159.273L78.7545 160.921ZM77.2505 159.449V157.817L76.0825 157.977C75.1225 158.105 74.5945 158.409 74.5945 159.097C74.5945 159.721 74.9785 160.137 75.6185 160.137C76.3705 160.137 76.8345 159.817 77.2505 159.449ZM86.7725 161.001H85.4925V156.137C85.4925 155.033 85.0765 154.473 84.0685 154.473C83.3485 154.473 82.8365 154.777 82.3725 155.193V161.001H81.0925V155.241L80.8685 153.593L82.1325 153.385L82.2605 154.265H82.2765C82.8365 153.721 83.5725 153.337 84.5005 153.337C85.7645 153.337 86.7725 154.153 86.7725 155.689V161.001ZM95.4076 154.457H93.9036C94.1276 154.841 94.2556 155.289 94.2556 155.833C94.2556 157.353 93.1516 158.377 91.6156 158.377C91.3116 158.377 91.0236 158.329 90.7676 158.265C90.7676 158.265 90.2556 158.553 90.2556 159.129C90.2556 159.625 90.6236 159.721 91.1356 159.721H93.2796C94.5916 159.721 95.3596 160.121 95.3596 161.289C95.3596 162.761 93.8556 164.425 91.1196 164.425C89.5516 164.425 88.5916 163.657 88.5916 162.345C88.5916 161.113 89.5996 160.505 89.5996 160.505C89.2796 160.297 89.0716 159.977 89.0716 159.449C89.0716 158.521 89.8716 158.057 90.0316 157.977C89.3276 157.545 88.9436 156.809 88.9436 155.833C88.9436 154.313 90.0636 153.305 91.6156 153.305C92.1916 153.305 92.7196 153.433 93.1356 153.689L95.4076 153.337V154.457ZM94.2396 161.481C94.2396 160.937 93.7756 160.825 92.9916 160.825H90.9756C90.7516 160.825 90.5436 160.809 90.3356 160.777C90.3356 160.777 89.7276 161.257 89.7276 162.057C89.7276 162.921 90.2556 163.385 91.4076 163.385C93.2476 163.385 94.2396 162.297 94.2396 161.481ZM93.0556 155.833C93.0556 154.793 92.4796 154.265 91.6156 154.265C90.7836 154.265 90.1436 154.825 90.1436 155.833C90.1436 156.889 90.7356 157.417 91.6156 157.417C92.4316 157.417 93.0556 156.857 93.0556 155.833ZM102.089 160.601C101.369 161.001 100.633 161.177 99.7214 161.177C97.5134 161.177 96.3774 159.689 96.3774 157.209C96.3774 154.889 97.5934 153.337 99.4814 153.337C101.289 153.337 102.025 154.537 102.025 156.185V157.081H97.6254C97.6414 159.081 98.3614 160.041 99.9934 160.041C100.617 160.041 101.097 159.865 101.641 159.593L102.089 160.601ZM100.825 156.185C100.825 155.065 100.409 154.361 99.4174 154.361C98.4574 154.361 97.8494 155.113 97.6894 156.185H100.825ZM112.19 153.657L111.79 154.809C111.374 154.649 110.91 154.505 110.382 154.505C108.974 154.505 108.126 155.561 108.126 157.145C108.126 159.145 108.91 160.057 110.35 160.057C110.862 160.057 111.278 159.881 111.694 159.705L112.126 160.745C111.502 161.033 110.814 161.177 110.094 161.177C107.95 161.177 106.846 159.641 106.846 157.353C106.846 154.601 108.542 153.337 110.446 153.337C111.102 153.337 111.662 153.449 112.19 153.657ZM118.864 160.921L117.584 161.129L117.472 160.249H117.456C116.912 160.761 116.32 161.193 115.424 161.193C114.176 161.193 113.44 160.441 113.44 159.257C113.44 157.913 114.496 157.257 116.016 157.097L117.36 156.953V156.281C117.36 155.241 117.04 154.505 115.808 154.505C115.184 154.505 114.72 154.697 114.256 154.937L113.792 153.993C114.464 153.593 115.152 153.337 116.112 153.337C117.616 153.337 118.624 154.217 118.624 155.705V159.273L118.864 160.921ZM117.36 159.449V157.817L116.192 157.977C115.232 158.105 114.704 158.409 114.704 159.097C114.704 159.721 115.088 160.137 115.728 160.137C116.48 160.137 116.944 159.817 117.36 159.449ZM124.946 160.697C124.482 160.953 124.05 161.161 123.234 161.161C122.082 161.161 121.346 160.409 121.346 159.129V154.553H120.242V153.705L121.346 153.481V152.233L122.61 152.073V153.513H124.706V154.553H122.61V158.697C122.61 159.705 122.866 160.025 123.602 160.025C124.002 160.025 124.306 159.865 124.53 159.721L124.946 160.697ZM131.636 160.601C130.916 161.001 130.18 161.177 129.268 161.177C127.06 161.177 125.924 159.689 125.924 157.209C125.924 154.889 127.14 153.337 129.028 153.337C130.836 153.337 131.572 154.537 131.572 156.185V157.081H127.172C127.188 159.081 127.908 160.041 129.54 160.041C130.164 160.041 130.644 159.865 131.188 159.593L131.636 160.601ZM130.372 156.185C130.372 155.065 129.956 154.361 128.964 154.361C128.004 154.361 127.396 155.113 127.236 156.185H130.372ZM139.658 154.457H138.154C138.378 154.841 138.506 155.289 138.506 155.833C138.506 157.353 137.402 158.377 135.866 158.377C135.562 158.377 135.274 158.329 135.018 158.265C135.018 158.265 134.506 158.553 134.506 159.129C134.506 159.625 134.874 159.721 135.386 159.721H137.53C138.842 159.721 139.61 160.121 139.61 161.289C139.61 162.761 138.106 164.425 135.37 164.425C133.802 164.425 132.842 163.657 132.842 162.345C132.842 161.113 133.85 160.505 133.85 160.505C133.53 160.297 133.322 159.977 133.322 159.449C133.322 158.521 134.122 158.057 134.282 157.977C133.578 157.545 133.194 156.809 133.194 155.833C133.194 154.313 134.314 153.305 135.866 153.305C136.442 153.305 136.97 153.433 137.386 153.689L139.658 153.337V154.457ZM138.49 161.481C138.49 160.937 138.026 160.825 137.242 160.825H135.226C135.002 160.825 134.794 160.809 134.586 160.777C134.586 160.777 133.978 161.257 133.978 162.057C133.978 162.921 134.506 163.385 135.658 163.385C137.498 163.385 138.49 162.297 138.49 161.481ZM137.306 155.833C137.306 154.793 136.73 154.265 135.866 154.265C135.034 154.265 134.394 154.825 134.394 155.833C134.394 156.889 134.986 157.417 135.866 157.417C136.682 157.417 137.306 156.857 137.306 155.833ZM147.027 157.257C147.027 159.449 145.987 161.177 143.827 161.177C141.459 161.177 140.627 159.497 140.627 157.257C140.627 155.065 141.667 153.337 143.827 153.337C146.195 153.337 147.027 155.017 147.027 157.257ZM145.715 157.289C145.715 155.433 145.091 154.457 143.827 154.457C142.595 154.457 141.939 155.321 141.939 157.209C141.939 159.065 142.563 160.057 143.827 160.057C145.059 160.057 145.715 159.177 145.715 157.289ZM152.421 154.617C151.557 154.617 150.917 154.841 150.341 155.369V161.001H149.061V155.241L148.837 153.593L150.101 153.385L150.229 154.409H150.245C150.757 153.833 151.429 153.353 152.421 153.353V154.617ZM159.642 153.513L157.146 160.313C156.346 162.521 155.274 163.849 152.665 164.377L152.425 163.337C154.33 162.953 155.338 161.801 155.834 160.553L153.146 153.625L154.41 153.289L156.474 158.857H156.49L158.378 153.513H159.642Z" fill="#00157E"/>
<path d="M17 196.001C17 196.001 21 188.001 28 188.001C35 188.001 39 196.001 39 196.001C39 196.001 35 204.001 28 204.001C21 204.001 17 196.001 17 196.001Z" stroke="#00157E" stroke-width="2" stroke-linecap="round" stroke-linejoin="round"/>
<path d="M28 199.001C29.6569 199.001 31 197.658 31 196.001C31 194.344 29.6569 193.001 28 193.001C26.3431 193.001 25 194.344 25 196.001C25 197.658 26.3431 199.001 28 199.001Z" stroke="#00157E" stroke-width="2" stroke-linecap="round" stroke-linejoin="round"/>
<path d="M62.9346 198.297C62.9346 199.977 61.7666 201.177 59.8306 201.177C58.8386 201.177 57.9586 200.969 57.2066 200.649L57.6226 199.481C58.2466 199.769 58.9826 200.009 59.7346 200.009C60.9026 200.009 61.6546 199.561 61.6546 198.505C61.6546 197.721 61.0786 197.337 60.3106 196.969L58.8066 196.249C57.7986 195.769 57.1106 195.145 57.1106 193.785C57.1106 192.137 58.5506 191.193 60.2146 191.193C61.1106 191.193 61.6866 191.337 62.5186 191.641L62.0706 192.777C61.5586 192.537 60.9986 192.313 60.2946 192.313C59.3026 192.313 58.4066 192.713 58.4066 193.737C58.4066 194.425 58.8226 194.761 59.4626 195.065L60.9986 195.817C62.2146 196.409 62.9346 197.065 62.9346 198.297ZM70.5058 201.001H69.2418V196.137C69.2418 195.049 68.8098 194.489 67.7858 194.489C67.0498 194.489 66.5538 194.809 66.1218 195.193V201.001H64.8418V191.929L64.6178 190.281L66.1218 190.073V194.169H66.1378C66.6338 193.737 67.3218 193.337 68.2498 193.337C69.5298 193.337 70.5058 194.137 70.5058 195.689V201.001ZM78.9336 197.257C78.9336 199.449 77.8936 201.177 75.7336 201.177C73.3656 201.177 72.5336 199.497 72.5336 197.257C72.5336 195.065 73.5736 193.337 75.7336 193.337C78.1016 193.337 78.9336 195.017 78.9336 197.257ZM77.6216 197.289C77.6216 195.433 76.9976 194.457 75.7336 194.457C74.5016 194.457 73.8456 195.321 73.8456 197.209C73.8456 199.065 74.4696 200.057 75.7336 200.057C76.9656 200.057 77.6216 199.177 77.6216 197.289ZM89.9435 193.513L87.8795 200.969L86.6955 201.033L84.8715 195.353H84.8555L83.0155 200.985L81.8315 201.033L79.9595 193.593L81.1755 193.289L82.5195 199.129H82.5355L84.2795 193.513H85.5275L87.2875 199.129H87.3035L88.6955 193.513H89.9435ZM99.8951 200.921L98.6151 201.129L98.5031 200.249H98.4871C97.9431 200.761 97.3511 201.193 96.4551 201.193C95.2071 201.193 94.4711 200.441 94.4711 199.257C94.4711 197.913 95.5271 197.257 97.0471 197.097L98.3911 196.953V196.281C98.3911 195.241 98.0711 194.505 96.8391 194.505C96.2151 194.505 95.7511 194.697 95.2871 194.937L94.8231 193.993C95.4951 193.593 96.1831 193.337 97.1431 193.337C98.6471 193.337 99.6551 194.217 99.6551 195.705V199.273L99.8951 200.921ZM98.3911 199.449V197.817L97.2231 197.977C96.2631 198.105 95.7351 198.409 95.7351 199.097C95.7351 199.721 96.1191 200.137 96.7591 200.137C97.5111 200.137 97.9751 199.817 98.3911 199.449ZM107.065 193.657L106.665 194.809C106.249 194.649 105.785 194.505 105.257 194.505C103.849 194.505 103.001 195.561 103.001 197.145C103.001 199.145 103.785 200.057 105.225 200.057C105.737 200.057 106.153 199.881 106.569 199.705L107.001 200.745C106.377 201.033 105.689 201.177 104.969 201.177C102.825 201.177 101.721 199.641 101.721 197.353C101.721 194.601 103.417 193.337 105.321 193.337C105.977 193.337 106.537 193.449 107.065 193.657ZM113.378 193.657L112.978 194.809C112.562 194.649 112.098 194.505 111.57 194.505C110.162 194.505 109.314 195.561 109.314 197.145C109.314 199.145 110.098 200.057 111.538 200.057C112.05 200.057 112.466 199.881 112.882 199.705L113.314 200.745C112.69 201.033 112.002 201.177 111.282 201.177C109.138 201.177 108.034 199.641 108.034 197.353C108.034 194.601 109.73 193.337 111.634 193.337C112.29 193.337 112.85 193.449 113.378 193.657ZM120.746 197.257C120.746 199.449 119.706 201.177 117.546 201.177C115.178 201.177 114.346 199.497 114.346 197.257C114.346 195.065 115.386 193.337 117.546 193.337C119.914 193.337 120.746 195.017 120.746 197.257ZM119.434 197.289C119.434 195.433 118.81 194.457 117.546 194.457C116.314 194.457 115.658 195.321 115.658 197.209C115.658 199.065 116.282 200.057 117.546 200.057C118.778 200.057 119.434 199.177 119.434 197.289ZM128.684 200.921L127.42 201.129L127.292 200.265H127.276C126.716 200.793 125.98 201.177 125.052 201.177C123.788 201.177 122.78 200.361 122.78 198.825V195.241L122.556 193.593L124.06 193.385V198.377C124.06 199.481 124.476 200.057 125.484 200.057C126.204 200.057 126.716 199.753 127.18 199.321V195.241L126.956 193.593L128.46 193.385V199.273L128.684 200.921ZM136.694 201.001H135.414V196.137C135.414 195.033 134.998 194.473 133.99 194.473C133.27 194.473 132.758 194.777 132.294 195.193V201.001H131.014V195.241L130.79 193.593L132.054 193.385L132.182 194.265H132.198C132.758 193.721 133.494 193.337 134.422 193.337C135.686 193.337 136.694 194.153 136.694 195.689V201.001ZM142.962 200.697C142.498 200.953 142.066 201.161 141.25 201.161C140.098 201.161 139.362 200.409 139.362 199.129V194.553H138.258V193.705L139.362 193.481V192.233L140.626 192.073V193.513H142.722V194.553H140.626V198.697C140.626 199.705 140.882 200.025 141.618 200.025C142.018 200.025 142.322 199.865 142.546 199.721L142.962 200.697ZM149.342 201.001H148.062V195.241L147.838 193.593L149.342 193.385V201.001ZM149.598 191.561C149.598 192.073 149.198 192.457 148.718 192.457C148.222 192.457 147.806 192.073 147.806 191.561C147.806 191.049 148.222 190.649 148.718 190.649C149.198 190.649 149.598 191.049 149.598 191.561ZM157.585 201.001H156.305V196.137C156.305 195.033 155.889 194.473 154.881 194.473C154.161 194.473 153.649 194.777 153.185 195.193V201.001H151.905V195.241L151.681 193.593L152.945 193.385L153.073 194.265H153.089C153.649 193.721 154.385 193.337 155.313 193.337C156.577 193.337 157.585 194.153 157.585 195.689V201.001ZM163.804 190.233L163.516 191.321C163.292 191.241 163.084 191.193 162.764 191.193C162.044 191.193 161.516 191.657 161.516 192.601V193.513H163.58V194.553H161.516V201.001H160.252V194.553H159.148V193.705L160.252 193.481V192.697C160.252 191.081 161.34 190.089 162.828 190.089C163.228 190.089 163.516 190.153 163.804 190.233ZM170.621 197.257C170.621 199.449 169.581 201.177 167.421 201.177C165.053 201.177 164.221 199.497 164.221 197.257C164.221 195.065 165.261 193.337 167.421 193.337C169.789 193.337 170.621 195.017 170.621 197.257ZM169.309 197.289C169.309 195.433 168.685 194.457 167.421 194.457C166.189 194.457 165.533 195.321 165.533 197.209C165.533 199.065 166.157 200.057 167.421 200.057C168.653 200.057 169.309 199.177 169.309 197.289ZM176.015 194.617C175.151 194.617 174.511 194.841 173.935 195.369V201.001H172.655V195.241L172.431 193.593L173.695 193.385L173.823 194.409H173.839C174.351 193.833 175.023 193.353 176.015 193.353V194.617ZM187.641 201.001H186.377V196.137C186.377 195.033 185.961 194.473 184.937 194.473C184.217 194.473 183.609 194.825 183.209 195.225C183.209 195.225 183.257 195.497 183.257 195.785V201.001H181.977V196.137C181.977 195.033 181.561 194.473 180.553 194.473C179.833 194.473 179.321 194.761 178.857 195.193V201.001H177.577V195.241L177.353 193.593L178.617 193.385L178.745 194.265H178.761C179.321 193.721 180.057 193.337 180.985 193.337C181.849 193.337 182.569 193.721 182.953 194.409H182.969C183.561 193.817 184.329 193.337 185.385 193.337C186.665 193.337 187.641 194.153 187.641 195.689V201.001ZM195.098 200.921L193.818 201.129L193.706 200.249H193.69C193.146 200.761 192.554 201.193 191.658 201.193C190.41 201.193 189.674 200.441 189.674 199.257C189.674 197.913 190.73 197.257 192.25 197.097L193.594 196.953V196.281C193.594 195.241 193.274 194.505 192.042 194.505C191.418 194.505 190.954 194.697 190.49 194.937L190.026 193.993C190.698 193.593 191.386 193.337 192.346 193.337C193.85 193.337 194.858 194.217 194.858 195.705V199.273L195.098 200.921ZM193.594 199.449V197.817L192.426 197.977C191.466 198.105 190.938 198.409 190.938 199.097C190.938 199.721 191.322 200.137 191.962 200.137C192.714 200.137 193.178 199.817 193.594 199.449ZM201.18 200.697C200.716 200.953 200.284 201.161 199.468 201.161C198.316 201.161 197.58 200.409 197.58 199.129V194.553H196.476V193.705L197.58 193.481V192.233L198.844 192.073V193.513H200.94V194.553H198.844V198.697C198.844 199.705 199.1 200.025 199.836 200.025C200.236 200.025 200.54 199.865 200.764 199.721L201.18 200.697ZM204.201 201.001H202.921V195.241L202.697 193.593L204.201 193.385V201.001ZM204.457 191.561C204.457 192.073 204.057 192.457 203.577 192.457C203.081 192.457 202.665 192.073 202.665 191.561C202.665 191.049 203.081 190.649 203.577 190.649C204.057 190.649 204.457 191.049 204.457 191.561ZM212.652 197.257C212.652 199.449 211.612 201.177 209.452 201.177C207.084 201.177 206.252 199.497 206.252 197.257C206.252 195.065 207.292 193.337 209.452 193.337C211.82 193.337 212.652 195.017 212.652 197.257ZM211.34 197.289C211.34 195.433 210.716 194.457 209.452 194.457C208.22 194.457 207.564 195.321 207.564 197.209C207.564 199.065 208.188 200.057 209.452 200.057C210.684 200.057 211.34 199.177 211.34 197.289ZM220.366 201.001H219.086V196.137C219.086 195.033 218.67 194.473 217.662 194.473C216.942 194.473 216.43 194.777 215.966 195.193V201.001H214.686V195.241L214.462 193.593L215.726 193.385L215.854 194.265H215.87C216.43 193.721 217.166 193.337 218.094 193.337C219.358 193.337 220.366 194.153 220.366 195.689V201.001Z" fill="#00157E"/>
<defs>
<clipPath id="clip0_456_90687">
<rect width="24" height="24" fill="white" transform="translate(16 104.001)"/>
</clipPath>
</defs>
</svg>
