<svg width="375" height="812" viewBox="0 0 375 812" fill="none" xmlns="http://www.w3.org/2000/svg">
<g clip-path="url(#clip0_526_1487742)">
<rect width="375" height="812" fill="white"/>
<g filter="url(#filter0_d_526_1487742)">
<rect width="375" height="106" fill="white"/>
<path d="M343.99 22.1699H357.993C359.556 22.1699 360.823 23.437 360.823 25V29.6729C360.823 31.2358 359.556 32.5029 357.993 32.5029H343.99C342.427 32.5029 341.16 31.2358 341.16 29.6729V25C341.16 23.437 342.427 22.1699 343.99 22.1699Z" stroke="#00157E"/>
<path d="M362.33 25.3367V29.3367C363.135 28.9979 363.658 28.2098 363.658 27.3367C363.658 26.4635 363.135 25.6754 362.33 25.3367" fill="#00157E"/>
<rect x="342.66" y="23.6699" width="16.66" height="7.33333" rx="1.33333" fill="#00157E"/>
<path d="M325.427 30.0605C326.702 28.9816 328.571 28.9816 329.847 30.0605C329.911 30.1185 329.947 30.2006 329.949 30.287C329.951 30.3735 329.917 30.4569 329.855 30.5175L327.858 32.5331C327.8 32.5923 327.72 32.6259 327.637 32.6259C327.553 32.6259 327.474 32.5923 327.415 32.5331L325.417 30.5175C325.355 30.4569 325.321 30.3734 325.323 30.287C325.325 30.2006 325.363 30.1185 325.427 30.0605ZM322.762 27.371C325.51 24.815 329.766 24.815 332.514 27.371C332.576 27.4309 332.611 27.5134 332.612 27.5995C332.613 27.6857 332.579 27.7688 332.519 27.83L331.364 28.997C331.245 29.1161 331.053 29.1188 330.931 29.0029C330.028 28.1857 328.854 27.7333 327.637 27.7333C326.42 27.7338 325.247 28.1862 324.345 29.0029C324.223 29.1187 324.03 29.1161 323.911 28.997L322.757 27.83C322.696 27.7689 322.662 27.6856 322.663 27.5995C322.664 27.5134 322.7 27.4309 322.762 27.371ZM320.097 24.6894C324.312 20.6502 330.962 20.65 335.177 24.6894C335.238 24.7493 335.272 24.8315 335.272 24.9169C335.273 25.0025 335.239 25.0847 335.179 25.1454L334.022 26.3124C333.903 26.4319 333.711 26.4332 333.59 26.3154C331.984 24.7886 329.853 23.9376 327.637 23.9374C325.421 23.9374 323.289 24.7885 321.683 26.3154C321.562 26.4333 321.369 26.4321 321.25 26.3124L320.094 25.1454C320.033 25.0847 319.999 25.0025 320 24.9169C320.001 24.8314 320.036 24.7493 320.097 24.6894Z" fill="#00157E"/>
<path d="M299.66 28.667C300.212 28.667 300.66 29.1147 300.66 29.667V31.667C300.66 32.2191 300.212 32.667 299.66 32.667H298.66C298.108 32.667 297.66 32.2191 297.66 31.667V29.667C297.66 29.1147 298.108 28.667 298.66 28.667H299.66ZM304.327 26.667C304.879 26.6672 305.327 27.1148 305.327 27.667V31.667C305.327 32.219 304.879 32.6668 304.327 32.667H303.327C302.775 32.667 302.327 32.2191 302.327 31.667V27.667C302.327 27.1147 302.775 26.667 303.327 26.667H304.327ZM308.993 24.333C309.545 24.333 309.993 24.7809 309.993 25.333V31.667C309.993 32.2191 309.545 32.667 308.993 32.667H307.993C307.441 32.6668 306.993 32.219 306.993 31.667V25.333C306.993 24.781 307.441 24.3332 307.993 24.333H308.993ZM313.66 22C314.212 22 314.66 22.4477 314.66 23V31.667C314.66 32.2191 314.212 32.667 313.66 32.667H312.66C312.108 32.667 311.66 32.2191 311.66 31.667V23C311.66 22.4477 312.108 22 312.66 22H313.66Z" fill="#00157E"/>
<path d="M32.1846 21.9175C34.4405 21.9175 36.4034 23.5215 36.4034 27.3301V27.3447C36.4034 30.9043 34.7994 33.0137 32.1407 33.0137C30.1998 33.0137 28.7496 31.8638 28.4127 30.2451L28.398 30.1646H30.2584L30.2804 30.2378C30.5587 30.9775 31.2105 31.4609 32.1407 31.4609C33.8179 31.4609 34.5284 29.8203 34.609 27.7988C34.609 27.7183 34.6163 27.6377 34.6163 27.5571H34.4698C34.0816 28.3921 33.1588 29.1318 31.7086 29.1318C29.6798 29.1318 28.2589 27.6523 28.2589 25.6455V25.6309C28.2589 23.4849 29.8922 21.9175 32.1846 21.9175ZM32.1773 27.6816C33.3712 27.6816 34.2867 26.8174 34.2867 25.6235V25.6089C34.2867 24.4004 33.3712 23.4556 32.1993 23.4556C31.0347 23.4556 30.1046 24.3857 30.1046 25.5649V25.5796C30.1046 26.8027 30.9762 27.6816 32.1773 27.6816ZM39.4486 25.9019C38.7821 25.9019 38.284 25.3892 38.284 24.7446C38.284 24.0928 38.7821 23.5874 39.4486 23.5874C40.1224 23.5874 40.6131 24.0928 40.6131 24.7446C40.6131 25.3892 40.1224 25.9019 39.4486 25.9019ZM39.4486 31.3364C38.7821 31.3364 38.284 30.8311 38.284 30.1792C38.284 29.5273 38.7821 29.022 39.4486 29.022C40.1224 29.022 40.6131 29.5273 40.6131 30.1792C40.6131 30.8311 40.1224 31.3364 39.4486 31.3364ZM47.6207 32.75V30.7212H42.4498V29.1758C43.8195 26.7954 45.3209 24.3638 46.7565 22.1812H49.4298V29.1611H50.8507V30.7212H49.4298V32.75H47.6207ZM44.2077 29.2051H47.65V23.6899H47.5402C46.4562 25.3452 45.233 27.3008 44.2077 29.0952V29.2051ZM54.9506 32.75V24.0415H54.8261L52.1967 25.9019V24.1221L54.9579 22.1812H56.8403V32.75H54.9506Z" fill="#00157E"/>
<path d="M353 71.9292L341 83.9292" stroke="#00157E" stroke-width="2" stroke-linecap="round" stroke-linejoin="round"/>
<path d="M341 71.9292L353 83.9292" stroke="#00157E" stroke-width="2" stroke-linecap="round" stroke-linejoin="round"/>
<path d="M115.194 83.68L112.614 84.34L111.594 80.66H108.234L107.314 84H104.614L108.614 71.96H111.354L115.194 83.68ZM111.154 78.92L109.954 74.52H109.934L108.714 78.92H111.154ZM123.211 74.74L122.451 76.96C121.951 76.74 121.491 76.56 120.811 76.56C119.551 76.56 118.611 77.46 118.611 79.16C118.611 81.08 119.471 81.92 120.691 81.92C121.411 81.92 121.791 81.76 122.391 81.52L123.151 83.6C122.271 84 121.451 84.24 120.371 84.24C117.531 84.24 116.031 82.32 116.031 79.3C116.031 75.82 118.391 74.3 120.811 74.3C121.751 74.3 122.391 74.42 123.211 74.74ZM131.141 74.74L130.381 76.96C129.881 76.74 129.421 76.56 128.741 76.56C127.481 76.56 126.541 77.46 126.541 79.16C126.541 81.08 127.401 81.92 128.621 81.92C129.341 81.92 129.721 81.76 130.321 81.52L131.081 83.6C130.201 84 129.381 84.24 128.301 84.24C125.461 84.24 123.961 82.32 123.961 79.3C123.961 75.82 126.321 74.3 128.741 74.3C129.681 74.3 130.321 74.42 131.141 74.74ZM140.411 79.24C140.411 82.08 138.931 84.22 136.151 84.22C133.151 84.22 131.891 82.1 131.891 79.24C131.891 76.4 133.371 74.32 136.151 74.32C139.151 74.32 140.411 76.38 140.411 79.24ZM137.891 79.26C137.891 77.32 137.251 76.54 136.151 76.54C135.051 76.54 134.411 77.28 134.411 79.22C134.411 81.14 135.051 82 136.151 82C137.251 82 137.891 81.18 137.891 79.26ZM150.693 83.86L148.253 84.18L148.113 83.16H148.093C147.533 83.7 146.593 84.24 145.333 84.24C143.713 84.24 142.393 83.28 142.393 81.16V77L142.073 74.66L144.933 74.34V80.54C144.933 81.56 145.353 82.02 146.233 82.02C146.893 82.02 147.453 81.72 147.833 81.34V77L147.513 74.66L150.373 74.34V81.52L150.693 83.86ZM160.9 84H158.36V78C158.36 76.98 157.94 76.52 157.04 76.52C156.38 76.52 155.82 76.84 155.46 77.2V84H152.92V77L152.6 74.66L155.04 74.34L155.16 75.38H155.18C155.74 74.82 156.68 74.3 157.94 74.3C159.58 74.3 160.9 75.24 160.9 77.38V84ZM169.248 83.54C168.428 83.98 167.808 84.22 166.548 84.22C164.668 84.22 163.748 82.96 163.748 81.08V76.54H162.288V74.86L163.748 74.52V72.88L166.268 72.58V74.54H168.868V76.54H166.268V80.4C166.268 81.66 166.588 81.98 167.408 81.98C167.868 81.98 168.128 81.86 168.568 81.66L169.248 83.54ZM177.629 84H175.089V77L174.769 74.66L177.629 74.34V84ZM177.869 71.88C177.869 72.72 177.209 73.4 176.369 73.4C175.529 73.4 174.869 72.72 174.869 71.88C174.869 71.06 175.529 70.38 176.369 70.38C177.209 70.38 177.869 71.06 177.869 71.88ZM188.146 84H185.606V78C185.606 76.98 185.186 76.52 184.286 76.52C183.626 76.52 183.066 76.84 182.706 77.2V84H180.166V77L179.846 74.66L182.286 74.34L182.406 75.38H182.426C182.986 74.82 183.926 74.3 185.186 74.3C186.826 74.3 188.146 75.24 188.146 77.38V84ZM196.274 70.56L195.674 72.72C195.374 72.62 195.154 72.56 194.834 72.56C194.034 72.56 193.514 73 193.514 73.94V74.54H195.914V76.54H193.514V84H190.994V76.54H189.534V74.86L190.994 74.52V73.82C190.994 71.68 192.534 70.3 194.634 70.3C195.314 70.3 195.774 70.42 196.274 70.56ZM205.001 79.24C205.001 82.08 203.521 84.22 200.741 84.22C197.741 84.22 196.481 82.1 196.481 79.24C196.481 76.4 197.961 74.32 200.741 74.32C203.741 74.32 205.001 76.38 205.001 79.24ZM202.481 79.26C202.481 77.32 201.841 76.54 200.741 76.54C199.641 76.54 199.001 77.28 199.001 79.22C199.001 81.14 199.641 82 200.741 82C201.841 82 202.481 81.18 202.481 79.26ZM212.122 76.62C210.962 76.62 210.202 76.82 209.522 77.58V84H206.982V77L206.662 74.66L209.102 74.34L209.262 75.68H209.282C209.822 74.96 210.642 74.3 212.122 74.3V76.62ZM227.004 84H224.484V78C224.484 76.98 224.044 76.52 223.144 76.52C222.504 76.52 221.884 76.86 221.544 77.22C221.544 77.22 221.584 77.54 221.584 77.82V84H219.044V78C219.044 76.98 218.624 76.52 217.724 76.52C217.064 76.52 216.504 76.82 216.144 77.18V84H213.604V77L213.284 74.66L215.724 74.34L215.844 75.38H215.864C216.424 74.82 217.404 74.3 218.644 74.3C219.764 74.3 220.624 74.76 221.124 75.54H221.144C221.844 74.82 222.844 74.3 224.084 74.3C225.744 74.3 227.004 75.24 227.004 77.38V84ZM236.362 83.86L233.922 84.18L233.802 83.14H233.782C233.222 83.64 232.482 84.24 231.402 84.24C229.922 84.24 228.942 83.32 228.942 81.74C228.942 79.94 230.282 79.12 232.222 78.92L233.542 78.78V78.14C233.542 77.18 233.142 76.52 231.942 76.52C231.202 76.52 230.702 76.74 230.162 77.04L229.242 75.32C230.182 74.7 231.082 74.3 232.522 74.3C234.822 74.3 236.042 75.54 236.042 77.56V81.52L236.362 83.86ZM233.542 81.96V80.22L232.682 80.32C231.902 80.42 231.402 80.74 231.402 81.4C231.402 81.98 231.742 82.42 232.342 82.42C232.922 82.42 233.262 82.2 233.542 81.96ZM244.444 83.54C243.624 83.98 243.004 84.22 241.744 84.22C239.864 84.22 238.944 82.96 238.944 81.08V76.54H237.484V74.86L238.944 74.52V72.88L241.464 72.58V74.54H244.064V76.54H241.464V80.4C241.464 81.66 241.784 81.98 242.604 81.98C243.064 81.98 243.324 81.86 243.764 81.66L244.444 83.54ZM248.625 84H246.085V77L245.765 74.66L248.625 74.34V84ZM248.865 71.88C248.865 72.72 248.205 73.4 247.365 73.4C246.525 73.4 245.865 72.72 245.865 71.88C245.865 71.06 246.525 70.38 247.365 70.38C248.205 70.38 248.865 71.06 248.865 71.88ZM259.102 79.24C259.102 82.08 257.622 84.22 254.842 84.22C251.842 84.22 250.582 82.1 250.582 79.24C250.582 76.4 252.062 74.32 254.842 74.32C257.842 74.32 259.102 76.38 259.102 79.24ZM256.582 79.26C256.582 77.32 255.942 76.54 254.842 76.54C253.742 76.54 253.102 77.28 253.102 79.22C253.102 81.14 253.742 82 254.842 82C255.942 82 256.582 81.18 256.582 79.26ZM269.064 84H266.524V78C266.524 76.98 266.104 76.52 265.204 76.52C264.544 76.52 263.984 76.84 263.624 77.2V84H261.084V77L260.764 74.66L263.204 74.34L263.324 75.38H263.344C263.904 74.82 264.844 74.3 266.104 74.3C267.744 74.3 269.064 75.24 269.064 77.38V84Z" fill="#00157E"/>
</g>
<g clip-path="url(#clip1_526_1487742)">
<path d="M16.001 98C16.001 95.7909 17.7918 94 20.001 94H159.001C161.21 94 163.001 95.7909 163.001 98V122C163.001 124.209 161.21 126 159.001 126H20.001C17.7918 126 16.001 124.209 16.001 122V98Z" fill="#00157E" fill-opacity="0.05"/>
<g clip-path="url(#clip2_526_1487742)">
<path d="M25.001 110C25.001 110 29.001 102 36.001 102C43.001 102 47.001 110 47.001 110C47.001 110 43.001 118 36.001 118C29.001 118 25.001 110 25.001 110Z" stroke="#00157E" stroke-width="2" stroke-linecap="round" stroke-linejoin="round"/>
<path d="M36.001 113C37.6578 113 39.001 111.657 39.001 110C39.001 108.343 37.6578 107 36.001 107C34.3441 107 33.001 108.343 33.001 110C33.001 111.657 34.3441 113 36.001 113Z" stroke="#00157E" stroke-width="2" stroke-linecap="round" stroke-linejoin="round"/>
</g>
<path d="M61.9262 111.634C61.9262 113.104 60.9042 114.154 59.2102 114.154C58.3422 114.154 57.5722 113.972 56.9142 113.692L57.2782 112.67C57.8242 112.922 58.4682 113.132 59.1262 113.132C60.1482 113.132 60.8062 112.74 60.8062 111.816C60.8062 111.13 60.3022 110.794 59.6302 110.472L58.3142 109.842C57.4322 109.422 56.8302 108.876 56.8302 107.686C56.8302 106.244 58.0902 105.418 59.5462 105.418C60.3302 105.418 60.8342 105.544 61.5622 105.81L61.1702 106.804C60.7222 106.594 60.2322 106.398 59.6162 106.398C58.7482 106.398 57.9642 106.748 57.9642 107.644C57.9642 108.246 58.3282 108.54 58.8882 108.806L60.2322 109.464C61.2962 109.982 61.9262 110.556 61.9262 111.634ZM68.5509 114H67.4449V109.744C67.4449 108.792 67.0669 108.302 66.1709 108.302C65.5269 108.302 65.0929 108.582 64.7149 108.918V114H63.5949V106.062L63.3989 104.62L64.7149 104.438V108.022H64.7289C65.1629 107.644 65.7649 107.294 66.5769 107.294C67.6969 107.294 68.5509 107.994 68.5509 109.352V114ZM75.0713 113.93L73.9513 114.112L73.8533 113.342H73.8393C73.3633 113.79 72.8453 114.168 72.0613 114.168C70.9693 114.168 70.3253 113.51 70.3253 112.474C70.3253 111.298 71.2493 110.724 72.5793 110.584L73.7553 110.458V109.87C73.7553 108.96 73.4753 108.316 72.3973 108.316C71.8513 108.316 71.4453 108.484 71.0393 108.694L70.6333 107.868C71.2213 107.518 71.8233 107.294 72.6633 107.294C73.9793 107.294 74.8613 108.064 74.8613 109.366V112.488L75.0713 113.93ZM73.7553 112.642V111.214L72.7333 111.354C71.8933 111.466 71.4313 111.732 71.4313 112.334C71.4313 112.88 71.7673 113.244 72.3273 113.244C72.9853 113.244 73.3913 112.964 73.7553 112.642ZM80.0571 108.414C79.3011 108.414 78.7411 108.61 78.2371 109.072V114H77.1171V108.96L76.9211 107.518L78.0271 107.336L78.1391 108.232H78.1531C78.6011 107.728 79.1891 107.308 80.0571 107.308V108.414ZM85.8096 113.65C85.1796 114 84.5356 114.154 83.7376 114.154C81.8056 114.154 80.8116 112.852 80.8116 110.682C80.8116 108.652 81.8756 107.294 83.5276 107.294C85.1096 107.294 85.7536 108.344 85.7536 109.786V110.57H81.9036C81.9176 112.32 82.5476 113.16 83.9756 113.16C84.5216 113.16 84.9416 113.006 85.4176 112.768L85.8096 113.65ZM84.7036 109.786C84.7036 108.806 84.3396 108.19 83.4716 108.19C82.6316 108.19 82.0996 108.848 81.9596 109.786H84.7036ZM91.5678 114H90.4478V108.96L90.2518 107.518L91.5678 107.336V114ZM91.7918 105.74C91.7918 106.188 91.4418 106.524 91.0218 106.524C90.5878 106.524 90.2238 106.188 90.2238 105.74C90.2238 105.292 90.5878 104.942 91.0218 104.942C91.4418 104.942 91.7918 105.292 91.7918 105.74ZM98.7804 114H97.6604V109.744C97.6604 108.778 97.2964 108.288 96.4144 108.288C95.7844 108.288 95.3364 108.554 94.9304 108.918V114H93.8104V108.96L93.6144 107.518L94.7204 107.336L94.8324 108.106H94.8464C95.3364 107.63 95.9804 107.294 96.7924 107.294C97.8984 107.294 98.7804 108.008 98.7804 109.352V114ZM104.222 104.578L103.97 105.53C103.774 105.46 103.592 105.418 103.312 105.418C102.682 105.418 102.22 105.824 102.22 106.65V107.448H104.026V108.358H102.22V114H101.114V108.358H100.148V107.616L101.114 107.42V106.734C101.114 105.32 102.066 104.452 103.368 104.452C103.718 104.452 103.97 104.508 104.222 104.578ZM110.187 110.724C110.187 112.642 109.277 114.154 107.387 114.154C105.315 114.154 104.587 112.684 104.587 110.724C104.587 108.806 105.497 107.294 107.387 107.294C109.459 107.294 110.187 108.764 110.187 110.724ZM109.039 110.752C109.039 109.128 108.493 108.274 107.387 108.274C106.309 108.274 105.735 109.03 105.735 110.682C105.735 112.306 106.281 113.174 107.387 113.174C108.465 113.174 109.039 112.404 109.039 110.752ZM114.907 108.414C114.151 108.414 113.591 108.61 113.087 109.072V114H111.967V108.96L111.771 107.518L112.877 107.336L112.989 108.232H113.003C113.451 107.728 114.039 107.308 114.907 107.308V108.414ZM125.079 114H123.973V109.744C123.973 108.778 123.609 108.288 122.713 108.288C122.083 108.288 121.551 108.596 121.201 108.946C121.201 108.946 121.243 109.184 121.243 109.436V114H120.123V109.744C120.123 108.778 119.759 108.288 118.877 108.288C118.247 108.288 117.799 108.54 117.393 108.918V114H116.273V108.96L116.077 107.518L117.183 107.336L117.295 108.106H117.309C117.799 107.63 118.443 107.294 119.255 107.294C120.011 107.294 120.641 107.63 120.977 108.232H120.991C121.509 107.714 122.181 107.294 123.105 107.294C124.225 107.294 125.079 108.008 125.079 109.352V114ZM131.605 113.93L130.485 114.112L130.387 113.342H130.373C129.897 113.79 129.379 114.168 128.595 114.168C127.503 114.168 126.859 113.51 126.859 112.474C126.859 111.298 127.783 110.724 129.113 110.584L130.289 110.458V109.87C130.289 108.96 130.009 108.316 128.931 108.316C128.385 108.316 127.979 108.484 127.573 108.694L127.167 107.868C127.755 107.518 128.357 107.294 129.197 107.294C130.513 107.294 131.395 108.064 131.395 109.366V112.488L131.605 113.93ZM130.289 112.642V111.214L129.267 111.354C128.427 111.466 127.965 111.732 127.965 112.334C127.965 112.88 128.301 113.244 128.861 113.244C129.519 113.244 129.925 112.964 130.289 112.642ZM136.926 113.734C136.52 113.958 136.142 114.14 135.428 114.14C134.42 114.14 133.776 113.482 133.776 112.362V108.358H132.81V107.616L133.776 107.42V106.328L134.882 106.188V107.448H136.716V108.358H134.882V111.984C134.882 112.866 135.106 113.146 135.75 113.146C136.1 113.146 136.366 113.006 136.562 112.88L136.926 113.734ZM139.57 114H138.45V108.96L138.254 107.518L139.57 107.336V114ZM139.794 105.74C139.794 106.188 139.444 106.524 139.024 106.524C138.59 106.524 138.226 106.188 138.226 105.74C138.226 105.292 138.59 104.942 139.024 104.942C139.444 104.942 139.794 105.292 139.794 105.74ZM146.964 110.724C146.964 112.642 146.054 114.154 144.164 114.154C142.092 114.154 141.364 112.684 141.364 110.724C141.364 108.806 142.274 107.294 144.164 107.294C146.236 107.294 146.964 108.764 146.964 110.724ZM145.816 110.752C145.816 109.128 145.27 108.274 144.164 108.274C143.086 108.274 142.512 109.03 142.512 110.682C142.512 112.306 143.058 113.174 144.164 113.174C145.242 113.174 145.816 112.404 145.816 110.752ZM153.714 114H152.594V109.744C152.594 108.778 152.23 108.288 151.348 108.288C150.718 108.288 150.27 108.554 149.864 108.918V114H148.744V108.96L148.548 107.518L149.654 107.336L149.766 108.106H149.78C150.27 107.63 150.914 107.294 151.726 107.294C152.832 107.294 153.714 108.008 153.714 109.352V114Z" fill="#00157E"/>
<path d="M18.338 170H17.162V161.572H18.338V170ZM26.038 167.424C26.038 169.314 24.484 170 22.44 170H20.662V161.628C20.662 161.628 21.726 161.502 22.818 161.502C24.428 161.502 25.408 162.104 25.408 163.434C25.408 164.442 24.778 165.114 23.98 165.464V165.478C25.114 165.604 26.038 166.262 26.038 167.424ZM24.876 167.606C24.876 166.668 24.274 166.108 22.622 166.108H21.81V169.048H22.832C23.98 169.048 24.876 168.614 24.876 167.606ZM24.246 163.7C24.246 162.762 23.644 162.356 22.566 162.356C22.174 162.356 21.81 162.398 21.81 162.398V165.296C23.252 165.268 24.246 164.862 24.246 163.7ZM33.654 169.86L32.506 170.182L31.61 167.27H28.866L28.012 170H26.78L29.706 161.572H30.91L33.654 169.86ZM31.358 166.43L30.266 162.79H30.252L29.118 166.43H31.358ZM41.2042 169.916L40.0702 170.126L36.1502 163.378H36.1362V170H35.0722V161.572H36.3322L40.1262 168.082H40.1402V161.572H41.2042V169.916Z" fill="#00157E" fill-opacity="0.7"/>
<mask id="path-16-inside-1_526_1487742" fill="white">
<path d="M16 182H359V222H16V182Z"/>
</mask>
<path d="M359 222V221H16V222V223H359V222Z" fill="#00157E" fill-opacity="0.2" mask="url(#path-16-inside-1_526_1487742)"/>
<path d="M24.1327 206.504C23.2367 206.968 22.3247 207.176 21.1087 207.176C18.7567 207.176 16.9487 205.592 16.9487 202.392C16.9487 198.984 18.9647 197.192 21.5567 197.192C22.6287 197.192 23.2847 197.352 24.1007 197.704L23.5887 198.872C22.9807 198.6 22.4047 198.392 21.5407 198.392C19.8607 198.392 18.3247 199.688 18.3247 202.056C18.3247 204.696 19.3007 205.992 21.6367 205.992C22.4047 205.992 23.1087 205.688 23.6847 205.432L24.1327 206.504ZM32.8295 207H31.4855V202.6H27.1495V207H25.8055V197.368H27.1495V201.464H31.4855V197.368H32.8295V207ZM40.053 206.36C40.053 208.28 38.821 209.496 36.709 209.496C36.085 209.496 35.429 209.384 34.837 209.24L35.125 208.04C35.653 208.2 36.101 208.328 36.741 208.328C38.005 208.328 38.773 207.704 38.773 206.552C38.773 204.984 37.333 204.376 35.301 204.376V203.464C37.669 203.32 38.325 202.264 38.325 201.224C38.325 200.312 37.765 199.8 36.869 199.8C36.133 199.8 35.701 200.04 35.221 200.36L34.693 199.48C35.269 199.032 36.005 198.664 37.125 198.664C38.661 198.664 39.605 199.576 39.605 201.064C39.605 202.36 38.853 203.224 37.781 203.736V203.752C39.349 204.088 40.053 205.128 40.053 206.36ZM46.8068 205.56C46.8068 208.632 43.9108 209.496 41.8468 209.656L41.6868 208.568C43.1428 208.408 45.4948 207.832 45.4948 205.736C45.4948 204.424 44.7588 203.656 42.7108 203.656H41.6388L41.9908 198.84H46.5508V200.008H43.0948L42.8868 202.696C42.8868 202.696 43.2548 202.664 43.5908 202.664C45.4468 202.664 46.8068 203.64 46.8068 205.56ZM58.2598 202.92C58.2598 205.048 57.4278 207.176 55.0118 207.176C52.5798 207.176 51.7478 205.048 51.7478 202.92C51.7478 200.792 52.5798 198.664 55.0118 198.664C57.4278 198.664 58.2598 200.792 58.2598 202.92ZM56.9478 202.92C56.9478 201.128 56.3558 199.784 55.0118 199.784C53.6518 199.784 53.0598 201.128 53.0598 202.92C53.0598 204.712 53.6518 206.056 55.0118 206.056C56.3558 206.056 56.9478 204.712 56.9478 202.92ZM65.6782 202.792C65.6782 207.208 63.4382 209.272 60.2542 209.656L59.9982 208.616C62.0142 208.376 64.0462 207.08 64.3342 204.024L64.3182 204.008C64.3182 204.008 63.5662 204.648 62.4302 204.648C60.8302 204.648 59.7902 203.448 59.7902 201.8C59.7902 199.8 60.9902 198.664 62.7982 198.664C64.6542 198.664 65.6782 199.944 65.6782 202.792ZM64.3502 202.776C64.3502 201.192 64.0622 199.752 62.6382 199.752C61.6302 199.752 61.0382 200.584 61.0382 201.624C61.0382 202.952 61.6462 203.592 62.7822 203.592C63.7582 203.592 64.3502 203.016 64.3502 203.016V202.776ZM73.9785 202.92C73.9785 205.048 73.1465 207.176 70.7305 207.176C68.2985 207.176 67.4665 205.048 67.4665 202.92C67.4665 200.792 68.2985 198.664 70.7305 198.664C73.1465 198.664 73.9785 200.792 73.9785 202.92ZM72.6665 202.92C72.6665 201.128 72.0745 199.784 70.7305 199.784C69.3705 199.784 68.7785 201.128 68.7785 202.92C68.7785 204.712 69.3705 206.056 70.7305 206.056C72.0745 206.056 72.6665 204.712 72.6665 202.92ZM82.2129 202.92C82.2129 205.048 81.3809 207.176 78.9649 207.176C76.5329 207.176 75.7009 205.048 75.7009 202.92C75.7009 200.792 76.5329 198.664 78.9649 198.664C81.3809 198.664 82.2129 200.792 82.2129 202.92ZM80.9009 202.92C80.9009 201.128 80.3089 199.784 78.9649 199.784C77.6049 199.784 77.0129 201.128 77.0129 202.92C77.0129 204.712 77.6049 206.056 78.9649 206.056C80.3089 206.056 80.9009 204.712 80.9009 202.92ZM93.8067 202.92C93.8067 205.048 92.9747 207.176 90.5587 207.176C88.1267 207.176 87.2947 205.048 87.2947 202.92C87.2947 200.792 88.1267 198.664 90.5587 198.664C92.9747 198.664 93.8067 200.792 93.8067 202.92ZM92.4947 202.92C92.4947 201.128 91.9027 199.784 90.5587 199.784C89.1987 199.784 88.6067 201.128 88.6067 202.92C88.6067 204.712 89.1987 206.056 90.5587 206.056C91.9027 206.056 92.4947 204.712 92.4947 202.92ZM102.041 202.92C102.041 205.048 101.209 207.176 98.793 207.176C96.361 207.176 95.529 205.048 95.529 202.92C95.529 200.792 96.361 198.664 98.793 198.664C101.209 198.664 102.041 200.792 102.041 202.92ZM100.729 202.92C100.729 201.128 100.137 199.784 98.793 199.784C97.433 199.784 96.841 201.128 96.841 202.92C96.841 204.712 97.433 206.056 98.793 206.056C100.137 206.056 100.729 204.712 100.729 202.92ZM110.275 202.92C110.275 205.048 109.443 207.176 107.027 207.176C104.595 207.176 103.763 205.048 103.763 202.92C103.763 200.792 104.595 198.664 107.027 198.664C109.443 198.664 110.275 200.792 110.275 202.92ZM108.963 202.92C108.963 201.128 108.371 199.784 107.027 199.784C105.667 199.784 105.075 201.128 105.075 202.92C105.075 204.712 105.667 206.056 107.027 206.056C108.371 206.056 108.963 204.712 108.963 202.92ZM118.51 202.92C118.51 205.048 117.678 207.176 115.262 207.176C112.83 207.176 111.998 205.048 111.998 202.92C111.998 200.792 112.83 198.664 115.262 198.664C117.678 198.664 118.51 200.792 118.51 202.92ZM117.198 202.92C117.198 201.128 116.606 199.784 115.262 199.784C113.902 199.784 113.31 201.128 113.31 202.92C113.31 204.712 113.902 206.056 115.262 206.056C116.606 206.056 117.198 204.712 117.198 202.92ZM129.304 207H123.368V206.168L126.104 203.544C126.84 202.824 127.4 202.296 127.4 201.416C127.4 200.488 126.824 199.8 125.752 199.8C125.032 199.8 124.52 200.12 124.136 200.44L123.528 199.592C124.216 199.016 124.92 198.664 126.024 198.664C127.608 198.664 128.696 199.592 128.696 201.272C128.696 202.392 128.024 203.24 127.256 203.944L125.208 205.832V205.848H129.304V207ZM137.994 205.992H136.058V209.256L134.826 209.464V205.992H130.426V204.952L134.874 198.84H136.058V204.904H137.994V205.992ZM134.826 204.904V200.568H134.81L131.738 204.904H134.826ZM144.139 199.928L139.563 209.64L138.491 209.096L142.747 200.008H138.395V198.84H144.139V199.928ZM151.791 202.92C151.791 205.048 150.959 207.176 148.543 207.176C146.111 207.176 145.279 205.048 145.279 202.92C145.279 200.792 146.111 198.664 148.543 198.664C150.959 198.664 151.791 200.792 151.791 202.92ZM150.479 202.92C150.479 201.128 149.887 199.784 148.543 199.784C147.183 199.784 146.591 201.128 146.591 202.92C146.591 204.712 147.183 206.056 148.543 206.056C149.887 206.056 150.479 204.712 150.479 202.92ZM162.585 207H156.649V206.168L159.385 203.544C160.121 202.824 160.681 202.296 160.681 201.416C160.681 200.488 160.105 199.8 159.033 199.8C158.313 199.8 157.801 200.12 157.417 200.44L156.809 199.592C157.497 199.016 158.201 198.664 159.305 198.664C160.889 198.664 161.977 199.592 161.977 201.272C161.977 202.392 161.305 203.24 160.537 203.944L158.489 205.832V205.848H162.585V207ZM169.631 202.792C169.631 207.208 167.391 209.272 164.207 209.656L163.951 208.616C165.967 208.376 167.999 207.08 168.287 204.024L168.271 204.008C168.271 204.008 167.519 204.648 166.383 204.648C164.783 204.648 163.743 203.448 163.743 201.8C163.743 199.8 164.943 198.664 166.751 198.664C168.607 198.664 169.631 199.944 169.631 202.792ZM168.303 202.776C168.303 201.192 168.015 199.752 166.591 199.752C165.583 199.752 164.991 200.584 164.991 201.624C164.991 202.952 165.599 203.592 166.735 203.592C167.711 203.592 168.303 203.016 168.303 203.016V202.776ZM177.132 207H171.196V206.168L173.932 203.544C174.668 202.824 175.228 202.296 175.228 201.416C175.228 200.488 174.652 199.8 173.58 199.8C172.86 199.8 172.348 200.12 171.964 200.44L171.356 199.592C172.044 199.016 172.748 198.664 173.852 198.664C175.436 198.664 176.524 199.592 176.524 201.272C176.524 202.392 175.852 203.24 175.084 203.944L173.036 205.832V205.848H177.132V207ZM184.994 202.92C184.994 205.048 184.162 207.176 181.746 207.176C179.314 207.176 178.482 205.048 178.482 202.92C178.482 200.792 179.314 198.664 181.746 198.664C184.162 198.664 184.994 200.792 184.994 202.92ZM183.682 202.92C183.682 201.128 183.09 199.784 181.746 199.784C180.386 199.784 179.794 201.128 179.794 202.92C179.794 204.712 180.386 206.056 181.746 206.056C183.09 206.056 183.682 204.712 183.682 202.92ZM192.54 207H191.276V199.928L189.868 200.12L189.724 199.144L192.54 198.696V207Z" fill="#00157E"/>
<path d="M350.999 199H341.999C340.894 199 339.999 199.895 339.999 201V210C339.999 211.105 340.894 212 341.999 212H350.999C352.104 212 352.999 211.105 352.999 210V201C352.999 199.895 352.104 199 350.999 199Z" stroke="#00157E" stroke-width="2" stroke-linecap="round" stroke-linejoin="round"/>
<path d="M335.999 205H334.999C334.469 205 333.96 204.789 333.585 204.414C333.21 204.039 332.999 203.53 332.999 203V194C332.999 193.47 333.21 192.961 333.585 192.586C333.96 192.211 334.469 192 334.999 192H343.999C344.529 192 345.038 192.211 345.413 192.586C345.788 192.961 345.999 193.47 345.999 194V195" stroke="#00157E" stroke-width="2" stroke-linecap="round" stroke-linejoin="round"/>
<path d="M24.33 269.786C24.33 271.998 23.336 274.154 20.522 274.154C17.652 274.154 16.672 272.026 16.672 269.786C16.672 267.56 17.694 265.418 20.522 265.418C23.392 265.418 24.33 267.532 24.33 269.786ZM23.098 269.786C23.098 267.728 22.3 266.412 20.522 266.412C18.758 266.412 17.932 267.784 17.932 269.786C17.932 271.83 18.73 273.16 20.522 273.16C22.258 273.16 23.098 271.788 23.098 269.786ZM24.792 274.756L24.652 275.75L20.354 275.372L20.48 274.448L24.792 274.756ZM31.5481 273.734L30.5121 274.238L28.1461 270.402C27.9361 270.43 27.7401 270.444 27.5301 270.444H27.3201V274H26.1581V265.642C26.1581 265.642 27.2221 265.488 28.3141 265.488C29.9381 265.488 30.9601 266.272 30.9601 267.602C30.9601 268.89 30.2181 269.688 29.2241 270.08L31.5481 273.734ZM29.8261 267.812C29.8261 266.804 29.1261 266.37 28.1181 266.37C27.6701 266.37 27.3201 266.412 27.3201 266.412V269.59H27.5021C28.6361 269.59 29.8261 269.114 29.8261 267.812ZM37.1368 274H35.9608V265.572H37.1368V274ZM44.8368 271.424C44.8368 273.314 43.2828 274 41.2388 274H39.4608V265.628C39.4608 265.628 40.5248 265.502 41.6168 265.502C43.2268 265.502 44.2068 266.104 44.2068 267.434C44.2068 268.442 43.5768 269.114 42.7788 269.464V269.478C43.9128 269.604 44.8368 270.262 44.8368 271.424ZM43.6748 271.606C43.6748 270.668 43.0728 270.108 41.4208 270.108H40.6088V273.048H41.6308C42.7788 273.048 43.6748 272.614 43.6748 271.606ZM43.0448 267.7C43.0448 266.762 42.4428 266.356 41.3648 266.356C40.9728 266.356 40.6088 266.398 40.6088 266.398V269.296C42.0508 269.268 43.0448 268.862 43.0448 267.7ZM52.4528 273.86L51.3048 274.182L50.4088 271.27H47.6648L46.8108 274H45.5788L48.5048 265.572H49.7088L52.4528 273.86ZM50.1568 270.43L49.0648 266.79H49.0508L47.9168 270.43H50.1568ZM60.003 273.916L58.869 274.126L54.949 267.378H54.935V274H53.871V265.572H55.131L58.925 272.082H58.939V265.572H60.003V273.916Z" fill="#00157E" fill-opacity="0.7"/>
<mask id="path-23-inside-2_526_1487742" fill="white">
<path d="M16 286H359V326H16V286Z"/>
</mask>
<path d="M359 326V325H16V326V327H359V326Z" fill="#00157E" fill-opacity="0.2" mask="url(#path-23-inside-2_526_1487742)"/>
<path d="M24.4061 310.504C23.5101 310.968 22.5981 311.176 21.3821 311.176C19.0301 311.176 17.2221 309.592 17.2221 306.392C17.2221 302.984 19.2381 301.192 21.8301 301.192C22.9021 301.192 23.5581 301.352 24.3741 301.704L23.8621 302.872C23.2541 302.6 22.6781 302.392 21.8141 302.392C20.1341 302.392 18.5981 303.688 18.5981 306.056C18.5981 308.696 19.5741 309.992 21.9101 309.992C22.6781 309.992 23.3821 309.688 23.9581 309.432L24.4061 310.504ZM33.103 311H31.759V306.6H27.423V311H26.079V301.368H27.423V305.464H31.759V301.368H33.103V311ZM40.3265 310.36C40.3265 312.28 39.0945 313.496 36.9825 313.496C36.3585 313.496 35.7025 313.384 35.1105 313.24L35.3985 312.04C35.9265 312.2 36.3745 312.328 37.0145 312.328C38.2785 312.328 39.0465 311.704 39.0465 310.552C39.0465 308.984 37.6065 308.376 35.5745 308.376V307.464C37.9425 307.32 38.5985 306.264 38.5985 305.224C38.5985 304.312 38.0385 303.8 37.1425 303.8C36.4065 303.8 35.9745 304.04 35.4945 304.36L34.9665 303.48C35.5425 303.032 36.2785 302.664 37.3985 302.664C38.9345 302.664 39.8785 303.576 39.8785 305.064C39.8785 306.36 39.1265 307.224 38.0545 307.736V307.752C39.6225 308.088 40.3265 309.128 40.3265 310.36ZM47.0802 309.56C47.0802 312.632 44.1842 313.496 42.1202 313.656L41.9602 312.568C43.4162 312.408 45.7682 311.832 45.7682 309.736C45.7682 308.424 45.0322 307.656 42.9842 307.656H41.9122L42.2642 302.84H46.8242V304.008H43.3682L43.1602 306.696C43.1602 306.696 43.5282 306.664 43.8642 306.664C45.7202 306.664 47.0802 307.64 47.0802 309.56ZM58.5332 306.92C58.5332 309.048 57.7012 311.176 55.2852 311.176C52.8532 311.176 52.0212 309.048 52.0212 306.92C52.0212 304.792 52.8532 302.664 55.2852 302.664C57.7012 302.664 58.5332 304.792 58.5332 306.92ZM57.2212 306.92C57.2212 305.128 56.6292 303.784 55.2852 303.784C53.9252 303.784 53.3332 305.128 53.3332 306.92C53.3332 308.712 53.9252 310.056 55.2852 310.056C56.6292 310.056 57.2212 308.712 57.2212 306.92ZM65.9516 306.792C65.9516 311.208 63.7116 313.272 60.5276 313.656L60.2716 312.616C62.2876 312.376 64.3196 311.08 64.6076 308.024L64.5916 308.008C64.5916 308.008 63.8396 308.648 62.7036 308.648C61.1036 308.648 60.0636 307.448 60.0636 305.8C60.0636 303.8 61.2636 302.664 63.0716 302.664C64.9276 302.664 65.9516 303.944 65.9516 306.792ZM64.6236 306.776C64.6236 305.192 64.3356 303.752 62.9116 303.752C61.9036 303.752 61.3116 304.584 61.3116 305.624C61.3116 306.952 61.9196 307.592 63.0556 307.592C64.0316 307.592 64.6236 307.016 64.6236 307.016V306.776ZM74.252 306.92C74.252 309.048 73.42 311.176 71.004 311.176C68.572 311.176 67.74 309.048 67.74 306.92C67.74 304.792 68.572 302.664 71.004 302.664C73.42 302.664 74.252 304.792 74.252 306.92ZM72.94 306.92C72.94 305.128 72.348 303.784 71.004 303.784C69.644 303.784 69.052 305.128 69.052 306.92C69.052 308.712 69.644 310.056 71.004 310.056C72.348 310.056 72.94 308.712 72.94 306.92ZM82.4864 306.92C82.4864 309.048 81.6544 311.176 79.2384 311.176C76.8064 311.176 75.9744 309.048 75.9744 306.92C75.9744 304.792 76.8064 302.664 79.2384 302.664C81.6544 302.664 82.4864 304.792 82.4864 306.92ZM81.1744 306.92C81.1744 305.128 80.5824 303.784 79.2384 303.784C77.8784 303.784 77.2864 305.128 77.2864 306.92C77.2864 308.712 77.8784 310.056 79.2384 310.056C80.5824 310.056 81.1744 308.712 81.1744 306.92ZM94.0801 306.92C94.0801 309.048 93.2481 311.176 90.8321 311.176C88.4001 311.176 87.5681 309.048 87.5681 306.92C87.5681 304.792 88.4001 302.664 90.8321 302.664C93.2481 302.664 94.0801 304.792 94.0801 306.92ZM92.7681 306.92C92.7681 305.128 92.1761 303.784 90.8321 303.784C89.4721 303.784 88.8801 305.128 88.8801 306.92C88.8801 308.712 89.4721 310.056 90.8321 310.056C92.1761 310.056 92.7681 308.712 92.7681 306.92ZM102.314 306.92C102.314 309.048 101.482 311.176 99.0665 311.176C96.6345 311.176 95.8025 309.048 95.8025 306.92C95.8025 304.792 96.6345 302.664 99.0665 302.664C101.482 302.664 102.314 304.792 102.314 306.92ZM101.002 306.92C101.002 305.128 100.41 303.784 99.0665 303.784C97.7065 303.784 97.1145 305.128 97.1145 306.92C97.1145 308.712 97.7065 310.056 99.0665 310.056C100.41 310.056 101.002 308.712 101.002 306.92ZM110.549 306.92C110.549 309.048 109.717 311.176 107.301 311.176C104.869 311.176 104.037 309.048 104.037 306.92C104.037 304.792 104.869 302.664 107.301 302.664C109.717 302.664 110.549 304.792 110.549 306.92ZM109.237 306.92C109.237 305.128 108.645 303.784 107.301 303.784C105.941 303.784 105.349 305.128 105.349 306.92C105.349 308.712 105.941 310.056 107.301 310.056C108.645 310.056 109.237 308.712 109.237 306.92ZM118.783 306.92C118.783 309.048 117.951 311.176 115.535 311.176C113.103 311.176 112.271 309.048 112.271 306.92C112.271 304.792 113.103 302.664 115.535 302.664C117.951 302.664 118.783 304.792 118.783 306.92ZM117.471 306.92C117.471 305.128 116.879 303.784 115.535 303.784C114.175 303.784 113.583 305.128 113.583 306.92C113.583 308.712 114.175 310.056 115.535 310.056C116.879 310.056 117.471 308.712 117.471 306.92ZM129.577 311H123.641V310.168L126.377 307.544C127.113 306.824 127.673 306.296 127.673 305.416C127.673 304.488 127.097 303.8 126.025 303.8C125.305 303.8 124.793 304.12 124.409 304.44L123.801 303.592C124.489 303.016 125.193 302.664 126.297 302.664C127.881 302.664 128.969 303.592 128.969 305.272C128.969 306.392 128.297 307.24 127.529 307.944L125.481 309.832V309.848H129.577V311ZM138.267 309.992H136.331V313.256L135.099 313.464V309.992H130.699V308.952L135.147 302.84H136.331V308.904H138.267V309.992ZM135.099 308.904V304.568H135.083L132.011 308.904H135.099ZM144.412 303.928L139.836 313.64L138.764 313.096L143.02 304.008H138.668V302.84H144.412V303.928ZM152.064 306.92C152.064 309.048 151.232 311.176 148.816 311.176C146.384 311.176 145.552 309.048 145.552 306.92C145.552 304.792 146.384 302.664 148.816 302.664C151.232 302.664 152.064 304.792 152.064 306.92ZM150.752 306.92C150.752 305.128 150.16 303.784 148.816 303.784C147.456 303.784 146.864 305.128 146.864 306.92C146.864 308.712 147.456 310.056 148.816 310.056C150.16 310.056 150.752 308.712 150.752 306.92ZM162.858 311H156.922V310.168L159.658 307.544C160.394 306.824 160.954 306.296 160.954 305.416C160.954 304.488 160.378 303.8 159.306 303.8C158.586 303.8 158.074 304.12 157.69 304.44L157.082 303.592C157.77 303.016 158.474 302.664 159.578 302.664C161.162 302.664 162.25 303.592 162.25 305.272C162.25 306.392 161.578 307.24 160.81 307.944L158.762 309.832V309.848H162.858V311ZM169.905 306.792C169.905 311.208 167.665 313.272 164.481 313.656L164.225 312.616C166.241 312.376 168.273 311.08 168.561 308.024L168.545 308.008C168.545 308.008 167.793 308.648 166.657 308.648C165.057 308.648 164.017 307.448 164.017 305.8C164.017 303.8 165.217 302.664 167.025 302.664C168.881 302.664 169.905 303.944 169.905 306.792ZM168.577 306.776C168.577 305.192 168.289 303.752 166.865 303.752C165.857 303.752 165.265 304.584 165.265 305.624C165.265 306.952 165.873 307.592 167.009 307.592C167.985 307.592 168.577 307.016 168.577 307.016V306.776ZM177.405 311H171.469V310.168L174.205 307.544C174.941 306.824 175.501 306.296 175.501 305.416C175.501 304.488 174.925 303.8 173.853 303.8C173.133 303.8 172.621 304.12 172.237 304.44L171.629 303.592C172.317 303.016 173.021 302.664 174.125 302.664C175.709 302.664 176.797 303.592 176.797 305.272C176.797 306.392 176.125 307.24 175.357 307.944L173.309 309.832V309.848H177.405V311ZM185.268 306.92C185.268 309.048 184.436 311.176 182.02 311.176C179.588 311.176 178.756 309.048 178.756 306.92C178.756 304.792 179.588 302.664 182.02 302.664C184.436 302.664 185.268 304.792 185.268 306.92ZM183.956 306.92C183.956 305.128 183.364 303.784 182.02 303.784C180.66 303.784 180.068 305.128 180.068 306.92C180.068 308.712 180.66 310.056 182.02 310.056C183.364 310.056 183.956 308.712 183.956 306.92ZM196.061 311H190.125V310.168L192.861 307.544C193.597 306.824 194.157 306.296 194.157 305.416C194.157 304.488 193.581 303.8 192.509 303.8C191.789 303.8 191.277 304.12 190.893 304.44L190.285 303.592C190.973 303.016 191.677 302.664 192.781 302.664C194.365 302.664 195.453 303.592 195.453 305.272C195.453 306.392 194.781 307.24 194.013 307.944L191.965 309.832V309.848H196.061V311Z" fill="#00157E"/>
<path d="M350.999 303H341.999C340.894 303 339.999 303.895 339.999 305V314C339.999 315.105 340.894 316 341.999 316H350.999C352.104 316 352.999 315.105 352.999 314V305C352.999 303.895 352.104 303 350.999 303Z" stroke="#00157E" stroke-width="2" stroke-linecap="round" stroke-linejoin="round"/>
<path d="M335.999 309H334.999C334.469 309 333.96 308.789 333.585 308.414C333.21 308.039 332.999 307.53 332.999 307V298C332.999 297.47 333.21 296.961 333.585 296.586C333.96 296.211 334.469 296 334.999 296H343.999C344.529 296 345.038 296.211 345.413 296.586C345.788 296.961 345.999 297.47 345.999 298V299" stroke="#00157E" stroke-width="2" stroke-linecap="round" stroke-linejoin="round"/>
<path d="M23.154 377.86L22.006 378.182L21.11 375.27H18.366L17.512 378H16.28L19.206 369.572H20.41L23.154 377.86ZM20.858 374.43L19.766 370.79H19.752L18.618 374.43H20.858ZM28.7582 371.574L28.4082 372.582C28.0442 372.442 27.6382 372.316 27.1762 372.316C25.9442 372.316 25.2022 373.24 25.2022 374.626C25.2022 376.376 25.8882 377.174 27.1482 377.174C27.5962 377.174 27.9602 377.02 28.3242 376.866L28.7022 377.776C28.1562 378.028 27.5542 378.154 26.9242 378.154C25.0482 378.154 24.0822 376.81 24.0822 374.808C24.0822 372.4 25.5662 371.294 27.2322 371.294C27.8062 371.294 28.2962 371.392 28.7582 371.574ZM34.2816 371.574L33.9316 372.582C33.5676 372.442 33.1616 372.316 32.6996 372.316C31.4676 372.316 30.7256 373.24 30.7256 374.626C30.7256 376.376 31.4116 377.174 32.6716 377.174C33.1196 377.174 33.4836 377.02 33.8476 376.866L34.2256 377.776C33.6796 378.028 33.0776 378.154 32.4476 378.154C30.5716 378.154 29.6056 376.81 29.6056 374.808C29.6056 372.4 31.0896 371.294 32.7556 371.294C33.3296 371.294 33.8196 371.392 34.2816 371.574ZM40.729 374.724C40.729 376.642 39.819 378.154 37.929 378.154C35.857 378.154 35.129 376.684 35.129 374.724C35.129 372.806 36.039 371.294 37.929 371.294C40.001 371.294 40.729 372.764 40.729 374.724ZM39.581 374.752C39.581 373.128 39.035 372.274 37.929 372.274C36.851 372.274 36.277 373.03 36.277 374.682C36.277 376.306 36.823 377.174 37.929 377.174C39.007 377.174 39.581 376.404 39.581 374.752ZM47.6747 377.93L46.5687 378.112L46.4567 377.356H46.4427C45.9527 377.818 45.3087 378.154 44.4967 378.154C43.3907 378.154 42.5087 377.44 42.5087 376.096V372.96L42.3127 371.518L43.6287 371.336V375.704C43.6287 376.67 43.9927 377.174 44.8747 377.174C45.5047 377.174 45.9527 376.908 46.3587 376.53V372.96L46.1627 371.518L47.4787 371.336V376.488L47.6747 377.93ZM54.6838 378H53.5638V373.744C53.5638 372.778 53.1998 372.288 52.3178 372.288C51.6878 372.288 51.2398 372.554 50.8338 372.918V378H49.7138V372.96L49.5177 371.518L50.6238 371.336L50.7358 372.106H50.7498C51.2398 371.63 51.8838 371.294 52.6958 371.294C53.8018 371.294 54.6838 372.008 54.6838 373.352V378ZM60.1675 377.734C59.7615 377.958 59.3835 378.14 58.6695 378.14C57.6615 378.14 57.0175 377.482 57.0175 376.362V372.358H56.0515V371.616L57.0175 371.42V370.328L58.1235 370.188V371.448H59.9575V372.358H58.1235V375.984C58.1235 376.866 58.3475 377.146 58.9915 377.146C59.3415 377.146 59.6075 377.006 59.8035 376.88L60.1675 377.734ZM69.7544 374.724C69.7544 376.642 68.8444 378.154 66.9544 378.154C64.8824 378.154 64.1544 376.684 64.1544 374.724C64.1544 372.806 65.0644 371.294 66.9544 371.294C69.0264 371.294 69.7544 372.764 69.7544 374.724ZM68.6064 374.752C68.6064 373.128 68.0604 372.274 66.9544 372.274C65.8764 372.274 65.3024 373.03 65.3024 374.682C65.3024 376.306 65.8484 377.174 66.9544 377.174C68.0324 377.174 68.6064 376.404 68.6064 374.752ZM79.3881 371.448L77.5821 377.972L76.5461 378.028L74.9501 373.058H74.9361L73.3261 377.986L72.2901 378.028L70.6521 371.518L71.7161 371.252L72.8921 376.362H72.9061L74.4321 371.448H75.5241L77.0641 376.362H77.0781L78.2961 371.448H79.3881ZM85.8283 378H84.7083V373.744C84.7083 372.778 84.3443 372.288 83.4623 372.288C82.8323 372.288 82.3843 372.554 81.9783 372.918V378H80.8583V372.96L80.6623 371.518L81.7683 371.336L81.8803 372.106H81.8943C82.3843 371.63 83.0283 371.294 83.8403 371.294C84.9463 371.294 85.8283 372.008 85.8283 373.352V378ZM92.586 377.65C91.956 378 91.312 378.154 90.514 378.154C88.582 378.154 87.588 376.852 87.588 374.682C87.588 372.652 88.652 371.294 90.304 371.294C91.886 371.294 92.53 372.344 92.53 373.786V374.57H88.68C88.694 376.32 89.324 377.16 90.752 377.16C91.298 377.16 91.718 377.006 92.194 376.768L92.586 377.65ZM91.48 373.786C91.48 372.806 91.116 372.19 90.248 372.19C89.408 372.19 88.876 372.848 88.736 373.786H91.48ZM97.1967 372.414C96.4407 372.414 95.8807 372.61 95.3767 373.072V378H94.2567V372.96L94.0607 371.518L95.1667 371.336L95.2787 372.232H95.2927C95.7407 371.728 96.3287 371.308 97.1967 371.308V372.414Z" fill="#00157E" fill-opacity="0.7"/>
<mask id="path-30-inside-3_526_1487742" fill="white">
<path d="M16 390H359V430H16V390Z"/>
</mask>
<path d="M359 430V429H16V430V431H359V430Z" fill="#00157E" fill-opacity="0.2" mask="url(#path-30-inside-3_526_1487742)"/>
<path d="M23.7464 412.056C23.7464 414.216 21.9704 415 19.6344 415H17.6024V405.432C17.6024 405.432 18.8184 405.288 20.0664 405.288C21.9064 405.288 23.0264 405.976 23.0264 407.496C23.0264 408.648 22.3064 409.416 21.3944 409.816V409.832C22.6904 409.976 23.7464 410.728 23.7464 412.056ZM22.4184 412.264C22.4184 411.192 21.7304 410.552 19.8424 410.552H18.9144V413.912H20.0824C21.3944 413.912 22.4184 413.416 22.4184 412.264ZM21.6984 407.8C21.6984 406.728 21.0104 406.264 19.7784 406.264C19.3304 406.264 18.9144 406.312 18.9144 406.312V409.624C20.5624 409.592 21.6984 409.128 21.6984 407.8ZM30.7544 414.6C30.0344 415 29.2984 415.176 28.3864 415.176C26.1784 415.176 25.0424 413.688 25.0424 411.208C25.0424 408.888 26.2584 407.336 28.1464 407.336C29.9544 407.336 30.6904 408.536 30.6904 410.184V411.08H26.2904C26.3064 413.08 27.0264 414.04 28.6584 414.04C29.2824 414.04 29.7624 413.864 30.3064 413.592L30.7544 414.6ZM29.4904 410.184C29.4904 409.064 29.0744 408.36 28.0824 408.36C27.1224 408.36 26.5144 409.112 26.3544 410.184H29.4904ZM37.5758 414.92L36.2958 415.128L36.1838 414.248H36.1678C35.6238 414.76 35.0318 415.192 34.1358 415.192C32.8878 415.192 32.1518 414.44 32.1518 413.256C32.1518 411.912 33.2078 411.256 34.7278 411.096L36.0718 410.952V410.28C36.0718 409.24 35.7518 408.504 34.5198 408.504C33.8958 408.504 33.4318 408.696 32.9678 408.936L32.5038 407.992C33.1758 407.592 33.8638 407.336 34.8238 407.336C36.3278 407.336 37.3358 408.216 37.3358 409.704V413.272L37.5758 414.92ZM36.0718 413.448V411.816L34.9038 411.976C33.9438 412.104 33.4158 412.408 33.4158 413.096C33.4158 413.72 33.7998 414.136 34.4398 414.136C35.1918 414.136 35.6558 413.816 36.0718 413.448ZM43.6578 414.696C43.1938 414.952 42.7618 415.16 41.9458 415.16C40.7938 415.16 40.0578 414.408 40.0578 413.128V408.552H38.9538V407.704L40.0578 407.48V406.232L41.3218 406.072V407.512H43.4178V408.552H41.3218V412.696C41.3218 413.704 41.5778 414.024 42.3138 414.024C42.7138 414.024 43.0178 413.864 43.2418 413.72L43.6578 414.696ZM48.7269 408.616C47.8629 408.616 47.2229 408.84 46.6469 409.368V415H45.3669V409.24L45.1429 407.592L46.4069 407.384L46.5349 408.408H46.5509C47.0629 407.832 47.7349 407.352 48.7269 407.352V408.616ZM51.6008 415H50.3208V409.24L50.0968 407.592L51.6008 407.384V415ZM51.8568 405.56C51.8568 406.072 51.4568 406.456 50.9768 406.456C50.4808 406.456 50.0648 406.072 50.0648 405.56C50.0648 405.048 50.4808 404.648 50.9768 404.648C51.4568 404.648 51.8568 405.048 51.8568 405.56ZM58.9958 407.656L58.5958 408.808C58.1798 408.648 57.7158 408.504 57.1878 408.504C55.7798 408.504 54.9318 409.56 54.9318 411.144C54.9318 413.144 55.7158 414.056 57.1558 414.056C57.6678 414.056 58.0838 413.88 58.4998 413.704L58.9318 414.744C58.3078 415.032 57.6198 415.176 56.8998 415.176C54.7558 415.176 53.6518 413.64 53.6518 411.352C53.6518 408.6 55.3478 407.336 57.2518 407.336C57.9078 407.336 58.4678 407.448 58.9958 407.656ZM65.6763 414.6C64.9563 415 64.2203 415.176 63.3083 415.176C61.1003 415.176 59.9643 413.688 59.9643 411.208C59.9643 408.888 61.1803 407.336 63.0683 407.336C64.8763 407.336 65.6123 408.536 65.6123 410.184V411.08H61.2123C61.2283 413.08 61.9483 414.04 63.5803 414.04C64.2043 414.04 64.6843 413.864 65.2283 413.592L65.6763 414.6ZM64.4123 410.184C64.4123 409.064 63.9963 408.36 63.0043 408.36C62.0443 408.36 61.4363 409.112 61.2763 410.184H64.4123ZM80.817 414.968L79.537 415.064L79.265 407.608H79.249L76.417 415H75.025L72.353 407.624H72.337L71.953 415H70.785L71.409 405.368H72.817L75.841 413.4H75.857L78.913 405.368H80.305L80.817 414.968ZM89.0834 414.92L87.8194 415.128L87.6914 414.264H87.6754C87.1154 414.792 86.3794 415.176 85.4514 415.176C84.1874 415.176 83.1794 414.36 83.1794 412.824V409.24L82.9554 407.592L84.4594 407.384V412.376C84.4594 413.48 84.8754 414.056 85.8834 414.056C86.6034 414.056 87.1154 413.752 87.5794 413.32V409.24L87.3554 407.592L88.8594 407.384V413.272L89.0834 414.92ZM85.5314 405.656C85.5314 406.136 85.1634 406.472 84.7154 406.472C84.2674 406.472 83.8834 406.136 83.8834 405.656C83.8834 405.192 84.2674 404.824 84.7154 404.824C85.1634 404.824 85.5314 405.192 85.5314 405.656ZM88.1394 405.656C88.1394 406.136 87.7554 406.472 87.3074 406.472C86.8594 406.472 86.4754 406.136 86.4754 405.656C86.4754 405.192 86.8594 404.824 87.3074 404.824C87.7554 404.824 88.1394 405.192 88.1394 405.656ZM92.6618 415H91.3818V405.928L91.1578 404.28L92.6618 404.072V415ZM96.443 415H95.163V405.928L94.939 404.28L96.443 404.072V415ZM104.176 414.6C103.456 415 102.72 415.176 101.808 415.176C99.6003 415.176 98.4643 413.688 98.4643 411.208C98.4643 408.888 99.6803 407.336 101.568 407.336C103.376 407.336 104.112 408.536 104.112 410.184V411.08H99.7123C99.7283 413.08 100.448 414.04 102.08 414.04C102.704 414.04 103.184 413.864 103.728 413.592L104.176 414.6ZM102.912 410.184C102.912 409.064 102.496 408.36 101.504 408.36C100.544 408.36 99.9363 409.112 99.7763 410.184H102.912ZM109.446 408.616C108.582 408.616 107.942 408.84 107.366 409.368V415H106.086V409.24L105.862 407.592L107.126 407.384L107.254 408.408H107.27C107.782 407.832 108.454 407.352 109.446 407.352V408.616Z" fill="#00157E"/>
<path d="M22.02 475.658C22.02 477.632 20.41 478.626 18.534 478.626H18.324V482H17.162V473.642C17.162 473.642 18.212 473.488 19.318 473.488C20.956 473.488 22.02 474.272 22.02 475.658ZM20.872 475.868C20.872 474.832 20.186 474.37 19.122 474.37C18.674 474.37 18.324 474.426 18.324 474.426V477.73H18.506C19.752 477.73 20.872 477.17 20.872 475.868ZM26.4721 476.414C25.7161 476.414 25.1561 476.61 24.6521 477.072V482H23.5321V476.96L23.3361 475.518L24.4421 475.336L24.5541 476.232H24.5681C25.0161 475.728 25.6041 475.308 26.4721 475.308V476.414ZM32.8267 478.724C32.8267 480.642 31.9167 482.154 30.0267 482.154C27.9547 482.154 27.2267 480.684 27.2267 478.724C27.2267 476.806 28.1367 475.294 30.0267 475.294C32.0987 475.294 32.8267 476.764 32.8267 478.724ZM31.6787 478.752C31.6787 477.128 31.1327 476.274 30.0267 476.274C28.9487 476.274 28.3747 477.03 28.3747 478.682C28.3747 480.306 28.9207 481.174 30.0267 481.174C31.1047 481.174 31.6787 480.404 31.6787 478.752ZM39.5203 481.958L38.4423 482.112L38.3443 481.454H38.3303C37.9103 481.804 37.3363 482.154 36.5663 482.154C35.1243 482.154 34.1583 480.964 34.1583 479.018C34.1583 476.764 35.3203 475.378 37.3083 475.378C37.8403 475.378 38.2183 475.476 38.2183 475.476V474.062L38.0083 472.62L39.3243 472.438V480.516L39.5203 481.958ZM36.9583 481.174C37.5043 481.174 37.8823 480.95 38.2183 480.684V476.498C38.2183 476.498 37.8543 476.316 37.2103 476.316C35.9363 476.316 35.3063 477.394 35.3063 478.668C35.3063 480.25 35.7263 481.174 36.9583 481.174ZM46.7313 481.93L45.6253 482.112L45.5133 481.356H45.4993C45.0093 481.818 44.3653 482.154 43.5533 482.154C42.4473 482.154 41.5653 481.44 41.5653 480.096V476.96L41.3693 475.518L42.6853 475.336V479.704C42.6853 480.67 43.0493 481.174 43.9313 481.174C44.5613 481.174 45.0093 480.908 45.4153 480.53V476.96L45.2193 475.518L46.5353 475.336V480.488L46.7313 481.93ZM52.9984 475.574L52.6484 476.582C52.2844 476.442 51.8784 476.316 51.4164 476.316C50.1844 476.316 49.4424 477.24 49.4424 478.626C49.4424 480.376 50.1284 481.174 51.3884 481.174C51.8364 481.174 52.2004 481.02 52.5644 480.866L52.9424 481.776C52.3964 482.028 51.7944 482.154 51.1644 482.154C49.2884 482.154 48.3224 480.81 48.3224 478.808C48.3224 476.4 49.8064 475.294 51.4724 475.294C52.0464 475.294 52.5364 475.392 52.9984 475.574ZM57.9526 481.734C57.5466 481.958 57.1686 482.14 56.4546 482.14C55.4466 482.14 54.8026 481.482 54.8026 480.362V476.358H53.8366V475.616L54.8026 475.42V474.328L55.9086 474.188V475.448H57.7426V476.358H55.9086V479.984C55.9086 480.866 56.1326 481.146 56.7766 481.146C57.1266 481.146 57.3926 481.006 57.5886 480.88L57.9526 481.734Z" fill="#00157E" fill-opacity="0.7"/>
<mask id="path-34-inside-4_526_1487742" fill="white">
<path d="M16 494H359V534H16V494Z"/>
</mask>
<path d="M359 534V533H16V534V535H359V534Z" fill="#00157E" fill-opacity="0.2" mask="url(#path-34-inside-4_526_1487742)"/>
<path d="M23.0607 511.752C23.0607 514.008 21.2207 515.144 19.0767 515.144H18.8367V519H17.5087V509.448C17.5087 509.448 18.7087 509.272 19.9727 509.272C21.8447 509.272 23.0607 510.168 23.0607 511.752ZM21.7487 511.992C21.7487 510.808 20.9647 510.28 19.7487 510.28C19.2367 510.28 18.8367 510.344 18.8367 510.344V514.12H19.0447C20.4687 514.12 21.7487 513.48 21.7487 511.992ZM28.1488 512.616C27.2848 512.616 26.6448 512.84 26.0688 513.368V519H24.7888V513.24L24.5648 511.592L25.8288 511.384L25.9568 512.408H25.9728C26.4848 511.832 27.1568 511.352 28.1488 511.352V512.616ZM31.0227 519H29.7427V513.24L29.5187 511.592L31.0227 511.384V519ZM31.2787 509.56C31.2787 510.072 30.8787 510.456 30.3987 510.456C29.9027 510.456 29.4867 510.072 29.4867 509.56C29.4867 509.048 29.9027 508.648 30.3987 508.648C30.8787 508.648 31.2787 509.048 31.2787 509.56ZM39.0417 511.512L36.3377 518.984L35.0737 519.032L32.6097 511.624L33.8897 511.304L35.7617 517.336H35.7777L37.7617 511.512H39.0417ZM45.3727 518.92L44.0927 519.128L43.9807 518.248H43.9647C43.4207 518.76 42.8287 519.192 41.9327 519.192C40.6847 519.192 39.9487 518.44 39.9487 517.256C39.9487 515.912 41.0047 515.256 42.5247 515.096L43.8687 514.952V514.28C43.8687 513.24 43.5487 512.504 42.3167 512.504C41.6927 512.504 41.2287 512.696 40.7647 512.936L40.3007 511.992C40.9727 511.592 41.6607 511.336 42.6207 511.336C44.1247 511.336 45.1327 512.216 45.1327 513.704V517.272L45.3727 518.92ZM43.8687 517.448V515.816L42.7007 515.976C41.7407 516.104 41.2127 516.408 41.2127 517.096C41.2127 517.72 41.5967 518.136 42.2367 518.136C42.9887 518.136 43.4527 517.816 43.8687 517.448ZM51.4547 518.696C50.9907 518.952 50.5587 519.16 49.7427 519.16C48.5907 519.16 47.8547 518.408 47.8547 517.128V512.552H46.7507V511.704L47.8547 511.48V510.232L49.1187 510.072V511.512H51.2147V512.552H49.1187V516.696C49.1187 517.704 49.3747 518.024 50.1107 518.024C50.5107 518.024 50.8147 517.864 51.0387 517.72L51.4547 518.696ZM58.145 518.6C57.425 519 56.689 519.176 55.777 519.176C53.569 519.176 52.433 517.688 52.433 515.208C52.433 512.888 53.649 511.336 55.537 511.336C57.345 511.336 58.081 512.536 58.081 514.184V515.08H53.681C53.697 517.08 54.417 518.04 56.049 518.04C56.673 518.04 57.153 517.864 57.697 517.592L58.145 518.6ZM56.881 514.184C56.881 513.064 56.465 512.36 55.473 512.36C54.513 512.36 53.905 513.112 53.745 514.184H56.881ZM68.3258 518.92L67.0458 519.128L66.9338 518.248H66.9178C66.3738 518.76 65.7818 519.192 64.8858 519.192C63.6378 519.192 62.9018 518.44 62.9018 517.256C62.9018 515.912 63.9578 515.256 65.4778 515.096L66.8218 514.952V514.28C66.8218 513.24 66.5018 512.504 65.2698 512.504C64.6458 512.504 64.1818 512.696 63.7178 512.936L63.2538 511.992C63.9258 511.592 64.6138 511.336 65.5738 511.336C67.0778 511.336 68.0858 512.216 68.0858 513.704V517.272L68.3258 518.92ZM66.8218 517.448V515.816L65.6538 515.976C64.6938 516.104 64.1658 516.408 64.1658 517.096C64.1658 517.72 64.5498 518.136 65.1898 518.136C65.9418 518.136 66.4058 517.816 66.8218 517.448ZM75.4958 511.656L75.0958 512.808C74.6798 512.648 74.2158 512.504 73.6878 512.504C72.2798 512.504 71.4318 513.56 71.4318 515.144C71.4318 517.144 72.2158 518.056 73.6558 518.056C74.1678 518.056 74.5838 517.88 74.9998 517.704L75.4318 518.744C74.8078 519.032 74.1198 519.176 73.3998 519.176C71.2558 519.176 70.1518 517.64 70.1518 515.352C70.1518 512.6 71.8478 511.336 73.7518 511.336C74.4078 511.336 74.9678 511.448 75.4958 511.656ZM81.8083 511.656L81.4083 512.808C80.9923 512.648 80.5283 512.504 80.0003 512.504C78.5923 512.504 77.7443 513.56 77.7443 515.144C77.7443 517.144 78.5283 518.056 79.9683 518.056C80.4803 518.056 80.8963 517.88 81.3123 517.704L81.7443 518.744C81.1203 519.032 80.4323 519.176 79.7123 519.176C77.5683 519.176 76.4643 517.64 76.4643 515.352C76.4643 512.6 78.1603 511.336 80.0643 511.336C80.7203 511.336 81.2803 511.448 81.8083 511.656ZM89.1768 515.256C89.1768 517.448 88.1368 519.176 85.9768 519.176C83.6088 519.176 82.7768 517.496 82.7768 515.256C82.7768 513.064 83.8168 511.336 85.9768 511.336C88.3448 511.336 89.1768 513.016 89.1768 515.256ZM87.8648 515.288C87.8648 513.432 87.2408 512.456 85.9768 512.456C84.7448 512.456 84.0888 513.32 84.0888 515.208C84.0888 517.064 84.7128 518.056 85.9768 518.056C87.2088 518.056 87.8648 517.176 87.8648 515.288ZM97.1147 518.92L95.8507 519.128L95.7227 518.264H95.7067C95.1467 518.792 94.4107 519.176 93.4827 519.176C92.2187 519.176 91.2107 518.36 91.2107 516.824V513.24L90.9867 511.592L92.4907 511.384V516.376C92.4907 517.48 92.9067 518.056 93.9147 518.056C94.6347 518.056 95.1467 517.752 95.6107 517.32V513.24L95.3867 511.592L96.8907 511.384V517.272L97.1147 518.92ZM105.125 519H103.845V514.136C103.845 513.032 103.429 512.472 102.421 512.472C101.701 512.472 101.189 512.776 100.725 513.192V519H99.445V513.24L99.221 511.592L100.485 511.384L100.613 512.264H100.629C101.189 511.72 101.925 511.336 102.853 511.336C104.117 511.336 105.125 512.152 105.125 513.688V519ZM111.392 518.696C110.928 518.952 110.496 519.16 109.68 519.16C108.528 519.16 107.792 518.408 107.792 517.128V512.552H106.688V511.704L107.792 511.48V510.232L109.056 510.072V511.512H111.152V512.552H109.056V516.696C109.056 517.704 109.312 518.024 110.048 518.024C110.448 518.024 110.752 517.864 110.976 517.72L111.392 518.696Z" fill="#00157E"/>
<path d="M22.958 585.566C22.174 585.972 21.376 586.154 20.312 586.154C18.254 586.154 16.672 584.768 16.672 581.968C16.672 578.986 18.436 577.418 20.704 577.418C21.642 577.418 22.216 577.558 22.93 577.866L22.482 578.888C21.95 578.65 21.446 578.468 20.69 578.468C19.22 578.468 17.876 579.602 17.876 581.674C17.876 583.984 18.73 585.118 20.774 585.118C21.446 585.118 22.062 584.852 22.566 584.628L22.958 585.566ZM28.6778 585.93L27.5578 586.112L27.4598 585.342H27.4458C26.9698 585.79 26.4518 586.168 25.6678 586.168C24.5758 586.168 23.9318 585.51 23.9318 584.474C23.9318 583.298 24.8558 582.724 26.1858 582.584L27.3618 582.458V581.87C27.3618 580.96 27.0818 580.316 26.0038 580.316C25.4578 580.316 25.0518 580.484 24.6458 580.694L24.2398 579.868C24.8278 579.518 25.4298 579.294 26.2698 579.294C27.5858 579.294 28.4678 580.064 28.4678 581.366V584.488L28.6778 585.93ZM27.3618 584.642V583.214L26.3398 583.354C25.4998 583.466 25.0378 583.732 25.0378 584.334C25.0378 584.88 25.3738 585.244 25.9338 585.244C26.5918 585.244 26.9978 584.964 27.3618 584.642ZM33.9995 585.734C33.5935 585.958 33.2155 586.14 32.5015 586.14C31.4935 586.14 30.8495 585.482 30.8495 584.362V580.358H29.8835V579.616L30.8495 579.42V578.328L31.9555 578.188V579.448H33.7895V580.358H31.9555V583.984C31.9555 584.866 32.1795 585.146 32.8235 585.146C33.1735 585.146 33.4395 585.006 33.6355 584.88L33.9995 585.734ZM39.8536 585.65C39.2236 586 38.5796 586.154 37.7816 586.154C35.8496 586.154 34.8556 584.852 34.8556 582.682C34.8556 580.652 35.9196 579.294 37.5716 579.294C39.1536 579.294 39.7976 580.344 39.7976 581.786V582.57H35.9476C35.9616 584.32 36.5916 585.16 38.0196 585.16C38.5656 585.16 38.9856 585.006 39.4616 584.768L39.8536 585.65ZM38.7476 581.786C38.7476 580.806 38.3836 580.19 37.5156 580.19C36.6756 580.19 36.1436 580.848 36.0036 581.786H38.7476ZM46.8723 580.274H45.5563C45.7523 580.61 45.8643 581.002 45.8643 581.478C45.8643 582.808 44.8983 583.704 43.5543 583.704C43.2883 583.704 43.0363 583.662 42.8123 583.606C42.8123 583.606 42.3643 583.858 42.3643 584.362C42.3643 584.796 42.6863 584.88 43.1343 584.88H45.0103C46.1583 584.88 46.8303 585.23 46.8303 586.252C46.8303 587.54 45.5143 588.996 43.1203 588.996C41.7483 588.996 40.9083 588.324 40.9083 587.176C40.9083 586.098 41.7903 585.566 41.7903 585.566C41.5103 585.384 41.3283 585.104 41.3283 584.642C41.3283 583.83 42.0283 583.424 42.1683 583.354C41.5523 582.976 41.2163 582.332 41.2163 581.478C41.2163 580.148 42.1963 579.266 43.5543 579.266C44.0583 579.266 44.5203 579.378 44.8843 579.602L46.8723 579.294V580.274ZM45.8503 586.42C45.8503 585.944 45.4443 585.846 44.7583 585.846H42.9943C42.7983 585.846 42.6163 585.832 42.4343 585.804C42.4343 585.804 41.9023 586.224 41.9023 586.924C41.9023 587.68 42.3643 588.086 43.3723 588.086C44.9823 588.086 45.8503 587.134 45.8503 586.42ZM44.8143 581.478C44.8143 580.568 44.3103 580.106 43.5543 580.106C42.8263 580.106 42.2663 580.596 42.2663 581.478C42.2663 582.402 42.7843 582.864 43.5543 582.864C44.2683 582.864 44.8143 582.374 44.8143 581.478ZM53.3208 582.724C53.3208 584.642 52.4108 586.154 50.5208 586.154C48.4488 586.154 47.7208 584.684 47.7208 582.724C47.7208 580.806 48.6308 579.294 50.5208 579.294C52.5928 579.294 53.3208 580.764 53.3208 582.724ZM52.1728 582.752C52.1728 581.128 51.6268 580.274 50.5208 580.274C49.4428 580.274 48.8688 581.03 48.8688 582.682C48.8688 584.306 49.4148 585.174 50.5208 585.174C51.5988 585.174 52.1728 584.404 52.1728 582.752ZM58.0405 580.414C57.2845 580.414 56.7245 580.61 56.2205 581.072V586H55.1005V580.96L54.9045 579.518L56.0105 579.336L56.1225 580.232H56.1365C56.5845 579.728 57.1725 579.308 58.0405 579.308V580.414ZM64.3582 579.448L62.1742 585.398C61.4742 587.33 60.5362 588.492 58.2542 588.954L58.0442 588.044C59.7102 587.708 60.5922 586.7 61.0262 585.608L58.6742 579.546L59.7802 579.252L61.5862 584.124H61.6002L63.2522 579.448H64.3582Z" fill="#00157E" fill-opacity="0.7"/>
<mask id="path-38-inside-5_526_1487742" fill="white">
<path d="M16 598H359V638H16V598Z"/>
</mask>
<path d="M359 638V637H16V638V639H359V638Z" fill="#00157E" fill-opacity="0.2" mask="url(#path-38-inside-5_526_1487742)"/>
<path d="M22.9435 615.752C22.9435 618.008 21.1035 619.144 18.9595 619.144H18.7195V623H17.3915V613.448C17.3915 613.448 18.5915 613.272 19.8555 613.272C21.7275 613.272 22.9435 614.168 22.9435 615.752ZM21.6315 615.992C21.6315 614.808 20.8475 614.28 19.6315 614.28C19.1195 614.28 18.7195 614.344 18.7195 614.344V618.12H18.9275C20.3515 618.12 21.6315 617.48 21.6315 615.992ZM29.3492 622.92L28.0692 623.128L27.9572 622.248H27.9412C27.3972 622.76 26.8052 623.192 25.9092 623.192C24.6612 623.192 23.9252 622.44 23.9252 621.256C23.9252 619.912 24.9812 619.256 26.5012 619.096L27.8452 618.952V618.28C27.8452 617.24 27.5252 616.504 26.2932 616.504C25.6692 616.504 25.2052 616.696 24.7412 616.936L24.2772 615.992C24.9492 615.592 25.6372 615.336 26.5972 615.336C28.1012 615.336 29.1092 616.216 29.1092 617.704V621.272L29.3492 622.92ZM27.8452 621.448V619.816L26.6772 619.976C25.7172 620.104 25.1892 620.408 25.1892 621.096C25.1892 621.72 25.5732 622.136 26.2132 622.136C26.9652 622.136 27.4292 621.816 27.8452 621.448ZM36.9394 615.512L34.4434 622.312C33.6434 624.52 32.5714 625.848 29.9634 626.376L29.7234 625.336C31.6274 624.952 32.6354 623.8 33.1314 622.552L30.4434 615.624L31.7074 615.288L33.7714 620.856H33.7874L35.6754 615.512H36.9394ZM48.5481 623H47.2841V618.136C47.2841 617.032 46.8681 616.472 45.8441 616.472C45.1241 616.472 44.5161 616.824 44.1161 617.224C44.1161 617.224 44.1641 617.496 44.1641 617.784V623H42.8841V618.136C42.8841 617.032 42.4681 616.472 41.4601 616.472C40.7401 616.472 40.2281 616.76 39.7641 617.192V623H38.4841V617.24L38.2601 615.592L39.5241 615.384L39.6521 616.264H39.6681C40.2281 615.72 40.9641 615.336 41.8921 615.336C42.7561 615.336 43.4761 615.72 43.8601 616.408H43.8761C44.4681 615.816 45.2361 615.336 46.2921 615.336C47.5721 615.336 48.5481 616.152 48.5481 617.688V623ZM56.2935 622.6C55.5735 623 54.8375 623.176 53.9255 623.176C51.7175 623.176 50.5815 621.688 50.5815 619.208C50.5815 616.888 51.7975 615.336 53.6855 615.336C55.4935 615.336 56.2295 616.536 56.2295 618.184V619.08H51.8295C51.8455 621.08 52.5655 622.04 54.1975 622.04C54.8215 622.04 55.3015 621.864 55.8455 621.592L56.2935 622.6ZM55.0295 618.184C55.0295 617.064 54.6135 616.36 53.6215 616.36C52.6615 616.36 52.0535 617.112 51.8935 618.184H55.0295ZM63.8829 623H62.6029V618.136C62.6029 617.032 62.1869 616.472 61.1789 616.472C60.4589 616.472 59.9469 616.776 59.4829 617.192V623H58.2029V617.24L57.9789 615.592L59.2429 615.384L59.3709 616.264H59.3869C59.9469 615.72 60.6829 615.336 61.6109 615.336C62.8749 615.336 63.8829 616.152 63.8829 617.688V623ZM70.15 622.696C69.686 622.952 69.254 623.16 68.438 623.16C67.286 623.16 66.55 622.408 66.55 621.128V616.552H65.446V615.704L66.55 615.48V614.232L67.814 614.072V615.512H69.91V616.552H67.814V620.696C67.814 621.704 68.07 622.024 68.806 622.024C69.206 622.024 69.51 621.864 69.734 621.72L70.15 622.696ZM76.1951 620.824C76.1951 622.184 75.1231 623.16 73.5231 623.16C72.7551 623.16 71.9871 623.048 71.3791 622.76L71.7631 621.64C72.2911 621.88 72.8831 622.072 73.4591 622.072C74.3231 622.072 74.8991 621.736 74.8991 621.032C74.8991 620.488 74.6111 620.264 74.1151 620.04L72.7231 619.4C72.2271 619.176 71.3311 618.728 71.3311 617.432C71.3311 616.008 72.5791 615.336 73.9391 615.336C74.7551 615.336 75.3311 615.464 75.9711 615.736L75.5391 616.84C75.0271 616.616 74.5311 616.456 73.9231 616.456C73.1071 616.456 72.5791 616.712 72.5791 617.352C72.5791 617.912 73.0591 618.136 73.3631 618.28L74.7871 618.952C75.7791 619.416 76.1951 620.008 76.1951 620.824Z" fill="#00157E"/>
<path d="M346.999 609L351.999 614L338.999 627H333.999V622L346.999 609Z" stroke="#00157E" stroke-width="2" stroke-linecap="round" stroke-linejoin="round"/>
<path d="M22.538 687.424C22.538 689.314 20.984 690 18.94 690H17.162V681.628C17.162 681.628 18.226 681.502 19.318 681.502C20.928 681.502 21.908 682.104 21.908 683.434C21.908 684.442 21.278 685.114 20.48 685.464V685.478C21.614 685.604 22.538 686.262 22.538 687.424ZM21.376 687.606C21.376 686.668 20.774 686.108 19.122 686.108H18.31V689.048H19.332C20.48 689.048 21.376 688.614 21.376 687.606ZM20.746 683.7C20.746 682.762 20.144 682.356 19.066 682.356C18.674 682.356 18.31 682.398 18.31 682.398V685.296C19.752 685.268 20.746 684.862 20.746 683.7ZM28.418 689.93L27.298 690.112L27.2 689.342H27.186C26.71 689.79 26.192 690.168 25.408 690.168C24.316 690.168 23.672 689.51 23.672 688.474C23.672 687.298 24.596 686.724 25.926 686.584L27.102 686.458V685.87C27.102 684.96 26.822 684.316 25.744 684.316C25.198 684.316 24.792 684.484 24.386 684.694L23.98 683.868C24.568 683.518 25.17 683.294 26.01 683.294C27.326 683.294 28.208 684.064 28.208 685.366V688.488L28.418 689.93ZM27.102 688.642V687.214L26.08 687.354C25.24 687.466 24.778 687.732 24.778 688.334C24.778 688.88 25.114 689.244 25.674 689.244C26.332 689.244 26.738 688.964 27.102 688.642ZM35.4338 690H34.3138V685.744C34.3138 684.778 33.9498 684.288 33.0678 684.288C32.4378 684.288 31.9898 684.554 31.5838 684.918V690H30.4638V684.96L30.2677 683.518L31.3738 683.336L31.4858 684.106H31.4998C31.9898 683.63 32.6338 683.294 33.4458 683.294C34.5518 683.294 35.4338 684.008 35.4338 685.352V690ZM38.7335 690H37.6135V682.062L37.4175 680.62L38.7335 680.438V690ZM42.8635 689.804L41.7435 690.21L38.7615 686.444L41.1275 683.448H42.4015L40.0775 686.346L42.8635 689.804ZM51.3031 683.574L50.9531 684.582C50.5891 684.442 50.1831 684.316 49.7211 684.316C48.4891 684.316 47.7471 685.24 47.7471 686.626C47.7471 688.376 48.4331 689.174 49.6931 689.174C50.1411 689.174 50.5051 689.02 50.8691 688.866L51.2471 689.776C50.7011 690.028 50.0991 690.154 49.4691 690.154C47.5931 690.154 46.6271 688.81 46.6271 686.808C46.6271 684.4 48.1111 683.294 49.7771 683.294C50.3511 683.294 50.8411 683.392 51.3031 683.574ZM53.9366 690H52.8166V682.062L52.6206 680.62L53.9366 680.438V690ZM60.7032 689.65C60.0732 690 59.4292 690.154 58.6312 690.154C56.6992 690.154 55.7052 688.852 55.7052 686.682C55.7052 684.652 56.7692 683.294 58.4212 683.294C60.0032 683.294 60.6472 684.344 60.6472 685.786V686.57H56.7972C56.8112 688.32 57.4412 689.16 58.8692 689.16C59.4152 689.16 59.8352 689.006 60.3112 688.768L60.7032 689.65ZM59.5972 685.786C59.5972 684.806 59.2332 684.19 58.3652 684.19C57.5252 684.19 56.9932 684.848 56.8532 685.786H59.5972ZM66.6719 689.93L65.5519 690.112L65.4539 689.342H65.4399C64.9639 689.79 64.4459 690.168 63.6619 690.168C62.5699 690.168 61.9259 689.51 61.9259 688.474C61.9259 687.298 62.8499 686.724 64.1799 686.584L65.3559 686.458V685.87C65.3559 684.96 65.0759 684.316 63.9979 684.316C63.4519 684.316 63.0459 684.484 62.6399 684.694L62.2339 683.868C62.8219 683.518 63.4239 683.294 64.2639 683.294C65.5799 683.294 66.4619 684.064 66.4619 685.366V688.488L66.6719 689.93ZM65.3559 688.642V687.214L64.3339 687.354C63.4939 687.466 63.0319 687.732 63.0319 688.334C63.0319 688.88 63.3679 689.244 63.9279 689.244C64.5859 689.244 64.9919 688.964 65.3559 688.642ZM71.6577 684.414C70.9017 684.414 70.3417 684.61 69.8377 685.072V690H68.7177V684.96L68.5217 683.518L69.6277 683.336L69.7397 684.232H69.7537C70.2017 683.728 70.7897 683.308 71.6577 683.308V684.414ZM74.1723 690H73.0523V684.96L72.8563 683.518L74.1723 683.336V690ZM74.3963 681.74C74.3963 682.188 74.0463 682.524 73.6263 682.524C73.1923 682.524 72.8283 682.188 72.8283 681.74C72.8283 681.292 73.1923 680.942 73.6263 680.942C74.0463 680.942 74.3963 681.292 74.3963 681.74ZM81.3849 690H80.2649V685.744C80.2649 684.778 79.9009 684.288 79.0189 684.288C78.3889 684.288 77.9409 684.554 77.5349 684.918V690H76.4149V684.96L76.2189 683.518L77.3249 683.336L77.4369 684.106H77.4509C77.9409 683.63 78.5849 683.294 79.3969 683.294C80.5029 683.294 81.3849 684.008 81.3849 685.352V690ZM88.9407 684.274H87.6247C87.8207 684.61 87.9327 685.002 87.9327 685.478C87.9327 686.808 86.9667 687.704 85.6227 687.704C85.3567 687.704 85.1047 687.662 84.8807 687.606C84.8807 687.606 84.4327 687.858 84.4327 688.362C84.4327 688.796 84.7547 688.88 85.2027 688.88H87.0787C88.2267 688.88 88.8987 689.23 88.8987 690.252C88.8987 691.54 87.5827 692.996 85.1887 692.996C83.8167 692.996 82.9767 692.324 82.9767 691.176C82.9767 690.098 83.8587 689.566 83.8587 689.566C83.5787 689.384 83.3967 689.104 83.3967 688.642C83.3967 687.83 84.0967 687.424 84.2367 687.354C83.6207 686.976 83.2847 686.332 83.2847 685.478C83.2847 684.148 84.2647 683.266 85.6227 683.266C86.1267 683.266 86.5887 683.378 86.9527 683.602L88.9407 683.294V684.274ZM87.9187 690.42C87.9187 689.944 87.5127 689.846 86.8267 689.846H85.0627C84.8667 689.846 84.6847 689.832 84.5027 689.804C84.5027 689.804 83.9707 690.224 83.9707 690.924C83.9707 691.68 84.4327 692.086 85.4407 692.086C87.0507 692.086 87.9187 691.134 87.9187 690.42ZM86.8827 685.478C86.8827 684.568 86.3787 684.106 85.6227 684.106C84.8947 684.106 84.3347 684.596 84.3347 685.478C84.3347 686.402 84.8527 686.864 85.6227 686.864C86.3367 686.864 86.8827 686.374 86.8827 685.478ZM98.338 690H97.218V685.744C97.218 684.778 96.854 684.288 95.972 684.288C95.342 684.288 94.894 684.554 94.488 684.918V690H93.368V684.96L93.172 683.518L94.278 683.336L94.39 684.106H94.404C94.894 683.63 95.538 683.294 96.35 683.294C97.456 683.294 98.338 684.008 98.338 685.352V690ZM105.712 689.93L104.606 690.112L104.494 689.356H104.48C103.99 689.818 103.346 690.154 102.534 690.154C101.428 690.154 100.546 689.44 100.546 688.096V684.96L100.35 683.518L101.666 683.336V687.704C101.666 688.67 102.03 689.174 102.912 689.174C103.542 689.174 103.99 688.908 104.396 688.53V684.96L104.2 683.518L105.516 683.336V688.488L105.712 689.93ZM116.557 690H115.451V685.744C115.451 684.778 115.087 684.288 114.191 684.288C113.561 684.288 113.029 684.596 112.679 684.946C112.679 684.946 112.721 685.184 112.721 685.436V690H111.601V685.744C111.601 684.778 111.237 684.288 110.355 684.288C109.725 684.288 109.277 684.54 108.871 684.918V690H107.751V684.96L107.555 683.518L108.661 683.336L108.773 684.106H108.787C109.277 683.63 109.921 683.294 110.733 683.294C111.489 683.294 112.119 683.63 112.455 684.232H112.469C112.987 683.714 113.659 683.294 114.583 683.294C115.703 683.294 116.557 684.008 116.557 685.352V690ZM123.964 686.332C123.964 688.516 122.83 690.14 120.758 690.14C120.03 690.14 119.232 690.014 118.756 689.832V682.062L118.56 680.62L119.876 680.438V683.952H119.89C120.31 683.602 120.87 683.294 121.612 683.294C123.152 683.294 123.964 684.4 123.964 686.332ZM122.83 686.738C122.83 685.296 122.494 684.316 121.22 684.316C120.632 684.316 120.212 684.554 119.876 684.848V689.062C120.156 689.132 120.436 689.174 120.856 689.174C122.158 689.174 122.83 688.068 122.83 686.738ZM130.307 689.65C129.677 690 129.033 690.154 128.235 690.154C126.303 690.154 125.309 688.852 125.309 686.682C125.309 684.652 126.373 683.294 128.025 683.294C129.607 683.294 130.251 684.344 130.251 685.786V686.57H126.401C126.415 688.32 127.045 689.16 128.473 689.16C129.019 689.16 129.439 689.006 129.915 688.768L130.307 689.65ZM129.201 685.786C129.201 684.806 128.837 684.19 127.969 684.19C127.129 684.19 126.597 684.848 126.457 685.786H129.201ZM134.917 684.414C134.161 684.414 133.601 684.61 133.097 685.072V690H131.977V684.96L131.781 683.518L132.887 683.336L132.999 684.232H133.013C133.461 683.728 134.049 683.308 134.917 683.308V684.414Z" fill="#00157E" fill-opacity="0.7"/>
<mask id="path-44-inside-6_526_1487742" fill="white">
<path d="M16 702H359V742H16V702Z"/>
</mask>
<path d="M359 742V741H16V742V743H359V742Z" fill="#00157E" fill-opacity="0.2" mask="url(#path-44-inside-6_526_1487742)"/>
<path d="M22.9412 724.664C22.9412 726.2 21.7732 727.176 20.1252 727.176C18.4452 727.176 17.3092 726.328 17.3092 724.76C17.3092 723.352 18.3492 722.504 19.1492 721.96C18.1892 721.288 17.5492 720.712 17.5492 719.512C17.5492 718.152 18.6692 717.192 20.1092 717.192C21.6612 717.192 22.6692 718.056 22.6692 719.4C22.6692 720.552 21.8692 721.288 21.0852 721.832C22.1092 722.52 22.9412 723.208 22.9412 724.664ZM21.7092 724.664C21.7092 723.624 20.9892 723.096 20.0292 722.472C19.1812 723.048 18.5252 723.544 18.5252 724.6C18.5252 725.56 19.1652 726.104 20.1412 726.104C21.1812 726.104 21.7092 725.464 21.7092 724.664ZM21.5332 719.544C21.5332 718.728 20.9892 718.2 20.1252 718.2C19.2612 718.2 18.7012 718.76 18.7012 719.56C18.7012 720.312 19.3252 720.744 20.1892 721.336C20.8772 720.888 21.5332 720.312 21.5332 719.544ZM31.7908 725.992H29.8548V729.256L28.6228 729.464V725.992H24.2228V724.952L28.6708 718.84H29.8548V724.904H31.7908V725.992ZM28.6228 724.904V720.568H28.6068L25.5348 724.904H28.6228ZM39.2285 722.92C39.2285 725.048 38.3965 727.176 35.9805 727.176C33.5485 727.176 32.7165 725.048 32.7165 722.92C32.7165 720.792 33.5485 718.664 35.9805 718.664C38.3965 718.664 39.2285 720.792 39.2285 722.92ZM37.9165 722.92C37.9165 721.128 37.3245 719.784 35.9805 719.784C34.6205 719.784 34.0285 721.128 34.0285 722.92C34.0285 724.712 34.6205 726.056 35.9805 726.056C37.3245 726.056 37.9165 724.712 37.9165 722.92ZM43.2274 727H41.9634V719.928L40.5554 720.12L40.4114 719.144L43.2274 718.696V727Z" fill="#00157E"/>
</g>
<g filter="url(#filter1_d_526_1487742)">
<rect width="375" height="64" transform="translate(0 748)" fill="white"/>
<path d="M20 760.5H355C356.933 760.5 358.5 762.067 358.5 764V796C358.5 797.933 356.933 799.5 355 799.5H20C18.067 799.5 16.5 797.933 16.5 796V764C16.5 762.067 18.067 760.5 20 760.5Z" fill="#00157E"/>
<path d="M20 760.5H355C356.933 760.5 358.5 762.067 358.5 764V796C358.5 797.933 356.933 799.5 355 799.5H20C18.067 799.5 16.5 797.933 16.5 796V764C16.5 762.067 18.067 760.5 20 760.5Z" stroke="#00157E"/>
<path d="M170.733 784.504C169.837 784.968 168.925 785.176 167.709 785.176C165.357 785.176 163.549 783.592 163.549 780.392C163.549 776.984 165.565 775.192 168.157 775.192C169.229 775.192 169.885 775.352 170.701 775.704L170.189 776.872C169.581 776.6 169.005 776.392 168.141 776.392C166.461 776.392 164.925 777.688 164.925 780.056C164.925 782.696 165.901 783.992 168.237 783.992C169.005 783.992 169.709 783.688 170.285 783.432L170.733 784.504ZM177.949 781.256C177.949 783.448 176.909 785.176 174.749 785.176C172.381 785.176 171.549 783.496 171.549 781.256C171.549 779.064 172.589 777.336 174.749 777.336C177.117 777.336 177.949 779.016 177.949 781.256ZM176.637 781.288C176.637 779.432 176.013 778.456 174.749 778.456C173.517 778.456 172.861 779.32 172.861 781.208C172.861 783.064 173.485 784.056 174.749 784.056C175.981 784.056 176.637 783.176 176.637 781.288ZM185.663 785H184.383V780.136C184.383 779.032 183.967 778.472 182.959 778.472C182.239 778.472 181.727 778.776 181.263 779.192V785H179.983V779.24L179.759 777.592L181.023 777.384L181.151 778.264H181.167C181.727 777.72 182.463 777.336 183.391 777.336C184.655 777.336 185.663 778.152 185.663 779.688V785ZM193.402 785H192.138V778.552H189.594V785H188.33V778.552H187.226V777.704L188.33 777.48V776.888C188.33 775.272 189.354 774.088 191.178 774.088C192.01 774.088 192.538 774.344 192.922 774.552L192.458 775.576C192.266 775.448 191.786 775.176 191.178 775.176C190.01 775.176 189.594 775.832 189.594 776.744V777.512H193.402V785ZM199.328 778.616C198.464 778.616 197.824 778.84 197.248 779.368V785H195.968V779.24L195.743 777.592L197.008 777.384L197.136 778.408H197.152C197.664 777.832 198.336 777.352 199.328 777.352V778.616ZM210.953 785H209.689V780.136C209.689 779.032 209.273 778.472 208.249 778.472C207.529 778.472 206.921 778.824 206.521 779.224C206.521 779.224 206.569 779.496 206.569 779.784V785H205.289V780.136C205.289 779.032 204.873 778.472 203.865 778.472C203.145 778.472 202.633 778.76 202.169 779.192V785H200.889V779.24L200.665 777.592L201.929 777.384L202.057 778.264H202.073C202.633 777.72 203.369 777.336 204.297 777.336C205.161 777.336 205.881 777.72 206.265 778.408H206.281C206.873 777.816 207.641 777.336 208.697 777.336C209.977 777.336 210.953 778.152 210.953 779.688V785Z" fill="white"/>
</g>
</g>
<defs>
<filter id="filter0_d_526_1487742" x="-32" y="-30" width="439" height="170" filterUnits="userSpaceOnUse" color-interpolation-filters="sRGB">
<feFlood flood-opacity="0" result="BackgroundImageFix"/>
<feColorMatrix in="SourceAlpha" type="matrix" values="0 0 0 0 0 0 0 0 0 0 0 0 0 0 0 0 0 0 127 0" result="hardAlpha"/>
<feOffset dy="2"/>
<feGaussianBlur stdDeviation="16"/>
<feColorMatrix type="matrix" values="0 0 0 0 0 0 0 0 0 0.0823529 0 0 0 0 0.494118 0 0 0 0.1 0"/>
<feBlend mode="normal" in2="BackgroundImageFix" result="effect1_dropShadow_526_1487742"/>
<feBlend mode="normal" in="SourceGraphic" in2="effect1_dropShadow_526_1487742" result="shape"/>
</filter>
<filter id="filter1_d_526_1487742" x="-32" y="714" width="439" height="128" filterUnits="userSpaceOnUse" color-interpolation-filters="sRGB">
<feFlood flood-opacity="0" result="BackgroundImageFix"/>
<feColorMatrix in="SourceAlpha" type="matrix" values="0 0 0 0 0 0 0 0 0 0 0 0 0 0 0 0 0 0 127 0" result="hardAlpha"/>
<feOffset dy="-2"/>
<feGaussianBlur stdDeviation="16"/>
<feColorMatrix type="matrix" values="0 0 0 0 0 0 0 0 0 0.0823529 0 0 0 0 0.494118 0 0 0 0.1 0"/>
<feBlend mode="normal" in2="BackgroundImageFix" result="effect1_dropShadow_526_1487742"/>
<feBlend mode="normal" in="SourceGraphic" in2="effect1_dropShadow_526_1487742" result="shape"/>
</filter>
<clipPath id="clip0_526_1487742">
<rect width="375" height="812" fill="white"/>
</clipPath>
<clipPath id="clip1_526_1487742">
<rect width="375" height="642" fill="white" transform="translate(0 106)"/>
</clipPath>
<clipPath id="clip2_526_1487742">
<rect width="24" height="24" fill="white" transform="translate(24.001 98)"/>
</clipPath>
</defs>
</svg>
