<svg width="512" height="88" viewBox="0 0 512 88" fill="none" xmlns="http://www.w3.org/2000/svg">
<path d="M6.958 15.566C6.174 15.972 5.376 16.154 4.312 16.154C2.254 16.154 0.672 14.768 0.672 11.968C0.672 8.986 2.436 7.418 4.704 7.418C5.642 7.418 6.216 7.558 6.93 7.866L6.482 8.888C5.95 8.65 5.446 8.468 4.69 8.468C3.22 8.468 1.876 9.602 1.876 11.674C1.876 13.984 2.73 15.118 4.774 15.118C5.446 15.118 6.062 14.852 6.566 14.628L6.958 15.566ZM13.272 12.724C13.272 14.642 12.362 16.154 10.472 16.154C8.4 16.154 7.672 14.684 7.672 12.724C7.672 10.806 8.582 9.294 10.472 9.294C12.544 9.294 13.272 10.764 13.272 12.724ZM12.124 12.752C12.124 11.128 11.578 10.274 10.472 10.274C9.394 10.274 8.82 11.03 8.82 12.682C8.82 14.306 9.366 15.174 10.472 15.174C11.55 15.174 12.124 14.404 12.124 12.752ZM20.2176 15.93L19.1116 16.112L18.9996 15.356H18.9856C18.4956 15.818 17.8516 16.154 17.0396 16.154C15.9336 16.154 15.0516 15.44 15.0516 14.096V10.96L14.8556 9.518L16.1716 9.336V13.704C16.1716 14.67 16.5356 15.174 17.4176 15.174C18.0476 15.174 18.4956 14.908 18.9016 14.53V10.96L18.7056 9.518L20.0216 9.336V14.488L20.2176 15.93ZM27.2267 16H26.1067V11.744C26.1067 10.778 25.7427 10.288 24.8607 10.288C24.2307 10.288 23.7827 10.554 23.3767 10.918V16H22.2567V10.96L22.0607 9.518L23.1667 9.336L23.2787 10.106H23.2927C23.7827 9.63 24.4267 9.294 25.2387 9.294C26.3447 9.294 27.2267 10.008 27.2267 11.352V16ZM32.7105 15.734C32.3045 15.958 31.9265 16.14 31.2125 16.14C30.2045 16.14 29.5605 15.482 29.5605 14.362V10.358H28.5945V9.616L29.5605 9.42V8.328L30.6665 8.188V9.448H32.5005V10.358H30.6665V13.984C30.6665 14.866 30.8905 15.146 31.5345 15.146C31.8845 15.146 32.1505 15.006 32.3465 14.88L32.7105 15.734ZM37.1459 10.414C36.3899 10.414 35.8299 10.61 35.3259 11.072V16H34.2059V10.96L34.0099 9.518L35.1159 9.336L35.2279 10.232H35.2419C35.6899 9.728 36.2779 9.308 37.1459 9.308V10.414ZM43.4637 9.448L41.2797 15.398C40.5797 17.33 39.6417 18.492 37.3597 18.954L37.1497 18.044C38.8157 17.708 39.6977 16.7 40.1317 15.608L37.7797 9.546L38.8857 9.252L40.6917 14.124H40.7057L42.3577 9.448H43.4637Z" fill="#00157E" fill-opacity="0.7"/>
<path d="M0 32C0 29.7909 1.79086 28 4 28H508C510.209 28 512 29.7909 512 32V64C512 66.2091 510.209 68 508 68H4C1.79086 68 0 66.2091 0 64V32Z" fill="white"/>
<path d="M4 28.5H508C509.933 28.5 511.5 30.067 511.5 32V64C511.5 65.933 509.933 67.5 508 67.5H4C2.067 67.5 0.5 65.933 0.5 64V32C0.500001 30.067 2.067 28.5 4 28.5Z" stroke="#00157E" stroke-opacity="0.7"/>
<path d="M18.6378 50.296C18.6378 51.976 17.4698 53.176 15.5338 53.176C14.5418 53.176 13.6618 52.968 12.9098 52.648L13.3258 51.48C13.9498 51.768 14.6858 52.008 15.4378 52.008C16.6058 52.008 17.3578 51.56 17.3578 50.504C17.3578 49.72 16.7818 49.336 16.0138 48.968L14.5098 48.248C13.5018 47.768 12.8138 47.144 12.8138 45.784C12.8138 44.136 14.2538 43.192 15.9178 43.192C16.8138 43.192 17.3898 43.336 18.2218 43.64L17.7738 44.776C17.2618 44.536 16.7018 44.312 15.9978 44.312C15.0058 44.312 14.1098 44.712 14.1098 45.736C14.1098 46.424 14.5258 46.76 15.1658 47.064L16.7018 47.816C17.9178 48.408 18.6378 49.064 18.6378 50.296ZM29.4748 45.512L27.4108 52.968L26.2268 53.032L24.4028 47.352H24.3868L22.5468 52.984L21.3628 53.032L19.4908 45.592L20.7068 45.288L22.0508 51.128H22.0668L23.8108 45.512H25.0588L26.8188 51.128H26.8348L28.2268 45.512H29.4748ZM32.467 53H31.187V47.24L30.963 45.592L32.467 45.384V53ZM32.723 43.56C32.723 44.072 32.323 44.456 31.843 44.456C31.347 44.456 30.931 44.072 30.931 43.56C30.931 43.048 31.347 42.648 31.843 42.648C32.323 42.648 32.723 43.048 32.723 43.56ZM38.774 52.696C38.31 52.952 37.878 53.16 37.062 53.16C35.91 53.16 35.174 52.408 35.174 51.128V46.552H34.07V45.704L35.174 45.48V44.232L36.438 44.072V45.512H38.534V46.552H36.438V50.696C36.438 51.704 36.694 52.024 37.43 52.024C37.83 52.024 38.134 51.864 38.358 51.72L38.774 52.696ZM45.3471 53H39.9391V52.136L43.6031 46.568V46.552H40.1631V45.512H45.1871V46.376L41.5551 51.928V51.944H45.3471V53ZM52.1675 52.6C51.4475 53 50.7115 53.176 49.7995 53.176C47.5915 53.176 46.4555 51.688 46.4555 49.208C46.4555 46.888 47.6715 45.336 49.5595 45.336C51.3675 45.336 52.1035 46.536 52.1035 48.184V49.08H47.7035C47.7195 51.08 48.4395 52.04 50.0715 52.04C50.6955 52.04 51.1755 51.864 51.7195 51.592L52.1675 52.6ZM50.9035 48.184C50.9035 47.064 50.4875 46.36 49.4955 46.36C48.5355 46.36 47.9275 47.112 47.7675 48.184H50.9035ZM57.4369 46.616C56.5729 46.616 55.9329 46.84 55.3569 47.368V53H54.0769V47.24L53.8529 45.592L55.1169 45.384L55.2449 46.408H55.2609C55.7729 45.832 56.4449 45.352 57.4369 45.352V46.616ZM60.2468 53H58.9668V43.928L58.7428 42.28L60.2468 42.072V53ZM67.692 52.92L66.412 53.128L66.3 52.248H66.284C65.74 52.76 65.148 53.192 64.252 53.192C63.004 53.192 62.268 52.44 62.268 51.256C62.268 49.912 63.324 49.256 64.844 49.096L66.188 48.952V48.28C66.188 47.24 65.868 46.504 64.636 46.504C64.012 46.504 63.548 46.696 63.084 46.936L62.62 45.992C63.292 45.592 63.98 45.336 64.94 45.336C66.444 45.336 67.452 46.216 67.452 47.704V51.272L67.692 52.92ZM66.188 51.448V49.816L65.02 49.976C64.06 50.104 63.532 50.408 63.532 51.096C63.532 51.72 63.916 52.136 64.556 52.136C65.308 52.136 65.772 51.816 66.188 51.448ZM75.71 53H74.43V48.136C74.43 47.032 74.014 46.472 73.006 46.472C72.286 46.472 71.774 46.776 71.31 47.192V53H70.03V47.24L69.806 45.592L71.07 45.384L71.198 46.264H71.214C71.774 45.72 72.51 45.336 73.438 45.336C74.702 45.336 75.71 46.152 75.71 47.688V53ZM83.8491 52.952L82.6171 53.128L82.5051 52.376H82.4891C82.0091 52.776 81.3531 53.176 80.4731 53.176C78.8251 53.176 77.7211 51.816 77.7211 49.592C77.7211 47.016 79.0491 45.432 81.3211 45.432C81.9291 45.432 82.3611 45.544 82.3611 45.544V43.928L82.1211 42.28L83.6251 42.072V51.304L83.8491 52.952ZM80.9211 52.056C81.5451 52.056 81.9771 51.8 82.3611 51.496V46.712C82.3611 46.712 81.9451 46.504 81.2091 46.504C79.7531 46.504 79.0331 47.736 79.0331 49.192C79.0331 51 79.5131 52.056 80.9211 52.056Z" fill="#00157E"/>
<path d="M482 45L488 51L494 45" stroke="#00157E" stroke-width="2" stroke-linecap="round" stroke-linejoin="round"/>
</svg>
