<svg width="142" height="32" viewBox="0 0 142 32" fill="none" xmlns="http://www.w3.org/2000/svg">
<path d="M4 0.5H28C29.933 0.5 31.5 2.067 31.5 4V28C31.5 29.933 29.933 31.5 28 31.5H4C2.067 31.5 0.5 29.933 0.5 28V4C0.5 2.067 2.067 0.5 4 0.5Z" fill="#00157E"/>
<path d="M4 0.5H28C29.933 0.5 31.5 2.067 31.5 4V28C31.5 29.933 29.933 31.5 28 31.5H4C2.067 31.5 0.5 29.933 0.5 28V4C0.5 2.067 2.067 0.5 4 0.5Z" stroke="#00157E"/>
<path d="M0 4C0 1.79086 1.79086 0 4 0H28C30.2091 0 32 1.79086 32 4V28C32 30.2091 30.2091 32 28 32H4C1.79086 32 0 30.2091 0 28V4Z" fill="white" fill-opacity="0.1"/>
<path d="M24 10L13 21L8 16" stroke="white" stroke-width="2" stroke-linecap="round" stroke-linejoin="round"/>
<path d="M56.2645 20.504C55.3685 20.968 54.4565 21.176 53.2405 21.176C50.8885 21.176 49.0805 19.592 49.0805 16.392C49.0805 12.984 51.0965 11.192 53.6885 11.192C54.7605 11.192 55.4165 11.352 56.2325 11.704L55.7205 12.872C55.1125 12.6 54.5365 12.392 53.6725 12.392C51.9925 12.392 50.4565 13.688 50.4565 16.056C50.4565 18.696 51.4325 19.992 53.7685 19.992C54.5365 19.992 55.2405 19.688 55.8165 19.432L56.2645 20.504ZM63.5214 21H62.2574V16.136C62.2574 15.048 61.8254 14.488 60.8014 14.488C60.0654 14.488 59.5694 14.808 59.1374 15.192V21H57.8574V11.928L57.6334 10.28L59.1374 10.072V14.168H59.1534C59.6494 13.736 60.3374 13.336 61.2654 13.336C62.5454 13.336 63.5214 14.136 63.5214 15.688V21ZM71.2613 20.6C70.5413 21 69.8053 21.176 68.8932 21.176C66.6853 21.176 65.5493 19.688 65.5493 17.208C65.5493 14.888 66.7653 13.336 68.6533 13.336C70.4613 13.336 71.1973 14.536 71.1973 16.184V17.08H66.7973C66.8133 19.08 67.5333 20.04 69.1653 20.04C69.7893 20.04 70.2693 19.864 70.8133 19.592L71.2613 20.6ZM69.9973 16.184C69.9973 15.064 69.5813 14.36 68.5893 14.36C67.6293 14.36 67.0213 15.112 66.8613 16.184H69.9973ZM78.0026 13.656L77.6026 14.808C77.1866 14.648 76.7226 14.504 76.1946 14.504C74.7866 14.504 73.9386 15.56 73.9386 17.144C73.9386 19.144 74.7226 20.056 76.1626 20.056C76.6746 20.056 77.0906 19.88 77.5066 19.704L77.9386 20.744C77.3146 21.032 76.6266 21.176 75.9066 21.176C73.7626 21.176 72.6586 19.64 72.6586 17.352C72.6586 14.6 74.3546 13.336 76.2586 13.336C76.9146 13.336 77.4746 13.448 78.0026 13.656ZM81.0124 21H79.7324V11.928L79.5084 10.28L81.0124 10.072V21ZM85.7324 20.776L84.4524 21.24L81.0444 16.936L83.7484 13.512H85.2044L82.5484 16.824L85.7324 20.776ZM93.1063 16.808C93.1063 19.304 91.8103 21.16 89.4423 21.16C88.6103 21.16 87.6983 21.016 87.1543 20.808V11.928L86.9303 10.28L88.4343 10.072V14.088H88.4503C88.9303 13.688 89.5703 13.336 90.4183 13.336C92.1783 13.336 93.1063 14.6 93.1063 16.808ZM91.8103 17.272C91.8103 15.624 91.4263 14.504 89.9703 14.504C89.2983 14.504 88.8183 14.776 88.4343 15.112V19.928C88.7543 20.008 89.0743 20.056 89.5543 20.056C91.0423 20.056 91.8103 18.792 91.8103 17.272ZM101.043 17.256C101.043 19.448 100.003 21.176 97.843 21.176C95.475 21.176 94.643 19.496 94.643 17.256C94.643 15.064 95.683 13.336 97.843 13.336C100.211 13.336 101.043 15.016 101.043 17.256ZM99.731 17.288C99.731 15.432 99.107 14.456 97.843 14.456C96.611 14.456 95.955 15.32 95.955 17.208C95.955 19.064 96.579 20.056 97.843 20.056C99.075 20.056 99.731 19.176 99.731 17.288ZM108.153 20.664L107.065 21.272L104.985 18.072H104.969L103.097 21H101.753L104.361 17.112L102.121 13.848L103.193 13.24L105.049 16.056H105.065L106.665 13.512H108.025L105.657 17L108.153 20.664ZM114.325 21H113.045V11.928L112.821 10.28L114.325 10.072V21ZM121.77 20.92L120.49 21.128L120.378 20.248H120.362C119.818 20.76 119.226 21.192 118.33 21.192C117.082 21.192 116.346 20.44 116.346 19.256C116.346 17.912 117.402 17.256 118.922 17.096L120.266 16.952V16.28C120.266 15.24 119.946 14.504 118.714 14.504C118.09 14.504 117.626 14.696 117.162 14.936L116.698 13.992C117.37 13.592 118.058 13.336 119.018 13.336C120.522 13.336 121.53 14.216 121.53 15.704V19.272L121.77 20.92ZM120.266 19.448V17.816L119.098 17.976C118.138 18.104 117.61 18.408 117.61 19.096C117.61 19.72 117.994 20.136 118.634 20.136C119.386 20.136 119.85 19.816 120.266 19.448ZM130.028 16.808C130.028 19.304 128.732 21.16 126.364 21.16C125.532 21.16 124.62 21.016 124.076 20.808V11.928L123.852 10.28L125.356 10.072V14.088H125.372C125.852 13.688 126.492 13.336 127.34 13.336C129.1 13.336 130.028 14.6 130.028 16.808ZM128.732 17.272C128.732 15.624 128.348 14.504 126.892 14.504C126.22 14.504 125.74 14.776 125.356 15.112V19.928C125.676 20.008 125.996 20.056 126.476 20.056C127.964 20.056 128.732 18.792 128.732 17.272ZM137.277 20.6C136.557 21 135.821 21.176 134.909 21.176C132.701 21.176 131.565 19.688 131.565 17.208C131.565 14.888 132.781 13.336 134.669 13.336C136.477 13.336 137.213 14.536 137.213 16.184V17.08H132.813C132.829 19.08 133.549 20.04 135.181 20.04C135.805 20.04 136.285 19.864 136.829 19.592L137.277 20.6ZM136.013 16.184C136.013 15.064 135.597 14.36 134.605 14.36C133.645 14.36 133.037 15.112 132.877 16.184H136.013ZM140.434 21H139.154V11.928L138.93 10.28L140.434 10.072V21Z" fill="#00157E"/>
</svg>
