<svg width="420" height="48" viewBox="0 0 420 48" fill="none" xmlns="http://www.w3.org/2000/svg">
<path d="M0.000976562 12C0.000976562 9.79086 1.79184 8 4.00098 8H28.001C30.2101 8 32.001 9.79086 32.001 12V36C32.001 38.2091 30.2101 40 28.001 40H4.00098C1.79184 40 0.000976562 38.2091 0.000976562 36V12Z" fill="#00157E" fill-opacity="0.05"/>
<path d="M0.000976562 12C0.000976562 9.79086 1.79184 8 4.00098 8H28.001C30.2101 8 32.001 9.79086 32.001 12V36C32.001 38.2091 30.2101 40 28.001 40H4.00098C1.79184 40 0.000976562 38.2091 0.000976562 36V12Z" fill="#00157E" fill-opacity="0.1"/>
<path d="M10.001 21L16.001 27L22.001 21" stroke="#00157E" stroke-width="2" stroke-linecap="round" stroke-linejoin="round"/>
<path d="M54.7418 29H49.7978V19.368H54.5818V20.504H51.1258V23.464H54.2458V24.584H51.1258V27.864H54.7418V29ZM61.8884 28.664L60.8004 29.272L58.7204 26.072H58.7044L56.8324 29H55.4884L58.0964 25.112L55.8564 21.848L56.9284 21.24L58.7844 24.056H58.8004L60.4004 21.512H61.7604L59.3924 25L61.8884 28.664ZM69.3409 24.888C69.3409 27.32 68.2849 29.08 65.7889 29.08C65.3729 29.08 65.0369 29.048 64.7329 28.968V32.168L63.4529 32.376V23.24L63.2289 21.592L64.4929 21.384L64.6049 22.152H64.6209C65.1169 21.736 65.7729 21.336 66.6369 21.336C68.4609 21.336 69.3409 22.712 69.3409 24.888ZM68.0609 25.256C68.0609 23.624 67.6929 22.488 66.2049 22.488C65.5649 22.488 65.1009 22.76 64.7329 23.064V27.784C65.0369 27.912 65.3889 27.992 65.8849 27.992C67.2769 27.992 68.0609 26.904 68.0609 25.256ZM76.2868 28.92L75.0068 29.128L74.8948 28.248H74.8788C74.3348 28.76 73.7428 29.192 72.8468 29.192C71.5988 29.192 70.8628 28.44 70.8628 27.256C70.8628 25.912 71.9188 25.256 73.4388 25.096L74.7828 24.952V24.28C74.7828 23.24 74.4628 22.504 73.2308 22.504C72.6068 22.504 72.1428 22.696 71.6788 22.936L71.2148 21.992C71.8868 21.592 72.5748 21.336 73.5348 21.336C75.0388 21.336 76.0468 22.216 76.0468 23.704V27.272L76.2868 28.92ZM74.7828 27.448V25.816L73.6148 25.976C72.6548 26.104 72.1268 26.408 72.1268 27.096C72.1268 27.72 72.5108 28.136 73.1508 28.136C73.9028 28.136 74.3668 27.816 74.7828 27.448ZM84.3048 29H83.0248V24.136C83.0248 23.032 82.6088 22.472 81.6008 22.472C80.8808 22.472 80.3688 22.776 79.9048 23.192V29H78.6248V23.24L78.4008 21.592L79.6648 21.384L79.7928 22.264H79.8088C80.3688 21.72 81.1048 21.336 82.0328 21.336C83.2968 21.336 84.3048 22.152 84.3048 23.688V29ZM92.4439 28.952L91.2119 29.128L91.0999 28.376H91.0839C90.6039 28.776 89.9479 29.176 89.0679 29.176C87.4199 29.176 86.3159 27.816 86.3159 25.592C86.3159 23.016 87.6439 21.432 89.9159 21.432C90.5239 21.432 90.9559 21.544 90.9559 21.544V19.928L90.7159 18.28L92.2199 18.072V27.304L92.4439 28.952ZM89.5159 28.056C90.1399 28.056 90.5719 27.8 90.9559 27.496V22.712C90.9559 22.712 90.5399 22.504 89.8039 22.504C88.3479 22.504 87.6279 23.736 87.6279 25.192C87.6279 27 88.1079 28.056 89.5159 28.056ZM99.981 28.6C99.261 29 98.525 29.176 97.613 29.176C95.405 29.176 94.269 27.688 94.269 25.208C94.269 22.888 95.485 21.336 97.373 21.336C99.181 21.336 99.917 22.536 99.917 24.184V25.08H95.517C95.533 27.08 96.253 28.04 97.885 28.04C98.509 28.04 98.989 27.864 99.533 27.592L99.981 28.6ZM98.717 24.184C98.717 23.064 98.301 22.36 97.309 22.36C96.349 22.36 95.741 23.112 95.581 24.184H98.717ZM105.25 22.616C104.386 22.616 103.746 22.84 103.17 23.368V29H101.89V23.24L101.666 21.592L102.93 21.384L103.058 22.408H103.074C103.586 21.832 104.258 21.352 105.25 21.352V22.616Z" fill="#00157E"/>
</svg>
