<svg width="24" height="24" viewBox="0 0 24 24" fill="none" xmlns="http://www.w3.org/2000/svg">
<path d="M7 20H3.75C3.28587 20 2.84075 19.8104 2.51256 19.4728C2.18437 19.1352 2 18.6774 2 18.2V3.8C2 3.32261 2.18437 2.86477 2.51256 2.52721C2.84075 2.18964 3.28587 2 3.75 2H9.875L10.8472 3" stroke="#00157E" stroke-width="2" stroke-linejoin="round"/>
<path d="M17 5H10.75C10.2859 5 9.84075 5.18964 9.51256 5.52721C9.18437 5.86477 9 6.32261 9 6.8V21.2C9 21.6774 9.18437 22.1352 9.51256 22.4728C9.84075 22.8104 10.2859 23 10.75 23H21.25C21.7141 23 22.1592 22.8104 22.4874 22.4728C22.8156 22.1352 23 21.6774 23 21.2V11L17 5Z" stroke="#00157E" stroke-width="2" stroke-linecap="round" stroke-linejoin="round"/>
<path d="M17 5V11H23" stroke="#00157E" stroke-width="2" stroke-linecap="round" stroke-linejoin="round"/>
</svg>
