<svg width="375" height="812" viewBox="0 0 375 812" fill="none" xmlns="http://www.w3.org/2000/svg">
<g clip-path="url(#clip0_663_85201)">
<rect width="375" height="812" fill="white"/>
<g filter="url(#filter0_d_663_85201)">
<path d="M343.99 22.17H357.993C359.556 22.17 360.823 23.4372 360.823 25.0001V29.673C360.823 31.2359 359.556 32.5031 357.993 32.5031H343.99C342.427 32.5031 341.16 31.2359 341.16 29.673V25.0001C341.16 23.4372 342.427 22.17 343.99 22.17Z" stroke="#00157E"/>
<path d="M362.33 25.3367V29.3367C363.135 28.9979 363.658 28.2098 363.658 27.3367C363.658 26.4635 363.135 25.6754 362.33 25.3367" fill="#00157E"/>
<rect x="342.66" y="23.67" width="16.66" height="7.33333" rx="1.33333" fill="#00157E"/>
<path d="M325.427 30.0606C326.702 28.9817 328.571 28.9817 329.847 30.0606C329.911 30.1186 329.947 30.2008 329.949 30.2872C329.951 30.3736 329.917 30.4571 329.855 30.5176L327.858 32.5333C327.8 32.5925 327.72 32.626 327.637 32.626C327.553 32.626 327.474 32.5924 327.415 32.5333L325.417 30.5176C325.355 30.457 325.321 30.3735 325.323 30.2872C325.325 30.2007 325.363 30.1186 325.427 30.0606ZM322.762 27.3711C325.51 24.8151 329.766 24.8152 332.514 27.3711C332.576 27.431 332.611 27.5135 332.612 27.5997C332.613 27.6858 332.579 27.769 332.519 27.8301L331.364 28.9971C331.245 29.1162 331.053 29.1189 330.931 29.003C330.028 28.1858 328.854 27.7334 327.637 27.7335C326.42 27.734 325.247 28.1863 324.345 29.003C324.223 29.1188 324.03 29.1162 323.911 28.9971L322.757 27.8301C322.696 27.7691 322.662 27.6858 322.663 27.5997C322.664 27.5135 322.7 27.431 322.762 27.3711ZM320.097 24.6895C324.312 20.6503 330.962 20.6501 335.177 24.6895C335.238 24.7494 335.272 24.8316 335.272 24.917C335.273 25.0026 335.239 25.0848 335.179 25.1456L334.022 26.3126C333.903 26.432 333.711 26.4333 333.59 26.3155C331.984 24.7888 329.853 23.9377 327.637 23.9376C325.421 23.9375 323.289 24.7886 321.683 26.3155C321.562 26.4335 321.369 26.4323 321.25 26.3126L320.094 25.1456C320.033 25.0848 319.999 25.0026 320 24.917C320.001 24.8315 320.036 24.7494 320.097 24.6895Z" fill="#00157E"/>
<path d="M299.66 28.667C300.212 28.667 300.66 29.1147 300.66 29.667V31.667C300.66 32.2191 300.212 32.667 299.66 32.667H298.66C298.108 32.667 297.66 32.2191 297.66 31.667V29.667C297.66 29.1147 298.108 28.667 298.66 28.667H299.66ZM304.327 26.667C304.879 26.6672 305.327 27.1148 305.327 27.667V31.667C305.327 32.219 304.879 32.6668 304.327 32.667H303.327C302.775 32.667 302.327 32.2191 302.327 31.667V27.667C302.327 27.1147 302.775 26.667 303.327 26.667H304.327ZM308.993 24.333C309.545 24.333 309.993 24.7809 309.993 25.333V31.667C309.993 32.2191 309.545 32.667 308.993 32.667H307.993C307.441 32.6668 306.993 32.219 306.993 31.667V25.333C306.993 24.781 307.441 24.3332 307.993 24.333H308.993ZM313.66 22C314.212 22 314.66 22.4477 314.66 23V31.667C314.66 32.2191 314.212 32.667 313.66 32.667H312.66C312.108 32.667 311.66 32.2191 311.66 31.667V23C311.66 22.4477 312.108 22 312.66 22H313.66Z" fill="#00157E"/>
<path d="M32.1846 21.9175C34.4405 21.9175 36.4034 23.5215 36.4034 27.3301V27.3447C36.4034 30.9043 34.7994 33.0137 32.1407 33.0137C30.1998 33.0137 28.7496 31.8638 28.4127 30.2451L28.398 30.1646H30.2584L30.2804 30.2378C30.5587 30.9775 31.2105 31.4609 32.1407 31.4609C33.8179 31.4609 34.5284 29.8203 34.609 27.7988C34.609 27.7183 34.6163 27.6377 34.6163 27.5571H34.4698C34.0816 28.3921 33.1588 29.1318 31.7086 29.1318C29.6798 29.1318 28.2589 27.6523 28.2589 25.6455V25.6309C28.2589 23.4849 29.8922 21.9175 32.1846 21.9175ZM32.1773 27.6816C33.3712 27.6816 34.2867 26.8174 34.2867 25.6235V25.6089C34.2867 24.4004 33.3712 23.4556 32.1993 23.4556C31.0347 23.4556 30.1046 24.3857 30.1046 25.5649V25.5796C30.1046 26.8027 30.9762 27.6816 32.1773 27.6816ZM39.4486 25.9019C38.7821 25.9019 38.284 25.3892 38.284 24.7446C38.284 24.0928 38.7821 23.5874 39.4486 23.5874C40.1224 23.5874 40.6131 24.0928 40.6131 24.7446C40.6131 25.3892 40.1224 25.9019 39.4486 25.9019ZM39.4486 31.3364C38.7821 31.3364 38.284 30.8311 38.284 30.1792C38.284 29.5273 38.7821 29.022 39.4486 29.022C40.1224 29.022 40.6131 29.5273 40.6131 30.1792C40.6131 30.8311 40.1224 31.3364 39.4486 31.3364ZM47.6207 32.75V30.7212H42.4498V29.1758C43.8195 26.7954 45.3209 24.3638 46.7565 22.1812H49.4298V29.1611H50.8507V30.7212H49.4298V32.75H47.6207ZM44.2077 29.2051H47.65V23.6899H47.5402C46.4562 25.3452 45.233 27.3008 44.2077 29.0952V29.2051ZM54.9506 32.75V24.0415H54.8261L52.1967 25.9019V24.1221L54.9579 22.1812H56.8403V32.75H54.9506Z" fill="#00157E"/>
<path d="M90.4661 84H87.7661V71.96H90.4661V84ZM101.115 84H98.5748V78C98.5748 76.98 98.1548 76.52 97.2548 76.52C96.5948 76.52 96.0348 76.84 95.6748 77.2V84H93.1348V77L92.8148 74.66L95.2548 74.34L95.3748 75.38H95.3948C95.9548 74.82 96.8948 74.3 98.1548 74.3C99.7948 74.3 101.115 75.24 101.115 77.38V84ZM109.463 83.54C108.643 83.98 108.023 84.22 106.763 84.22C104.883 84.22 103.963 82.96 103.963 81.08V76.54H102.503V74.86L103.963 74.52V72.88L106.483 72.58V74.54H109.083V76.54H106.483V80.4C106.483 81.66 106.803 81.98 107.623 81.98C108.083 81.98 108.343 81.86 108.783 81.66L109.463 83.54ZM118.011 83.44C116.951 83.98 116.071 84.24 114.791 84.24C111.631 84.24 110.231 82.32 110.231 79.12C110.231 76.26 111.931 74.32 114.451 74.32C117.091 74.32 117.951 76.14 117.951 78.42V79.54H112.711C112.791 81.22 113.591 82.02 115.111 82.02C116.011 82.02 116.511 81.8 117.231 81.5L118.011 83.44ZM115.731 78C115.731 77.02 115.311 76.36 114.371 76.36C113.371 76.36 112.871 77.12 112.751 78H115.731ZM125.052 76.62C123.892 76.62 123.132 76.82 122.452 77.58V84H119.912V77L119.592 74.66L122.032 74.34L122.192 75.68H122.212C122.752 74.96 123.572 74.3 125.052 74.3V76.62ZM134.513 84H131.973V78C131.973 76.98 131.553 76.52 130.653 76.52C129.993 76.52 129.433 76.84 129.073 77.2V84H126.533V77L126.213 74.66L128.653 74.34L128.773 75.38H128.793C129.353 74.82 130.293 74.3 131.553 74.3C133.193 74.3 134.513 75.24 134.513 77.38V84ZM143.862 83.86L141.422 84.18L141.302 83.14H141.282C140.722 83.64 139.982 84.24 138.902 84.24C137.422 84.24 136.442 83.32 136.442 81.74C136.442 79.94 137.782 79.12 139.722 78.92L141.042 78.78V78.14C141.042 77.18 140.642 76.52 139.442 76.52C138.702 76.52 138.202 76.74 137.662 77.04L136.742 75.32C137.682 74.7 138.582 74.3 140.022 74.3C142.322 74.3 143.542 75.54 143.542 77.56V81.52L143.862 83.86ZM141.042 81.96V80.22L140.182 80.32C139.402 80.42 138.902 80.74 138.902 81.4C138.902 81.98 139.242 82.42 139.842 82.42C140.422 82.42 140.762 82.2 141.042 81.96ZM148.604 84H146.064V72.96L145.744 70.64L148.604 70.32V84ZM164.843 83.68L162.263 84.34L161.243 80.66H157.883L156.963 84H154.263L158.263 71.96H161.003L164.843 83.68ZM160.803 78.92L159.603 74.52H159.583L158.363 78.92H160.803ZM172.86 74.74L172.1 76.96C171.6 76.74 171.14 76.56 170.46 76.56C169.2 76.56 168.26 77.46 168.26 79.16C168.26 81.08 169.12 81.92 170.34 81.92C171.06 81.92 171.44 81.76 172.04 81.52L172.8 83.6C171.92 84 171.1 84.24 170.02 84.24C167.18 84.24 165.68 82.32 165.68 79.3C165.68 75.82 168.04 74.3 170.46 74.3C171.4 74.3 172.04 74.42 172.86 74.74ZM180.79 74.74L180.03 76.96C179.53 76.74 179.07 76.56 178.39 76.56C177.13 76.56 176.19 77.46 176.19 79.16C176.19 81.08 177.05 81.92 178.27 81.92C178.99 81.92 179.37 81.76 179.97 81.52L180.73 83.6C179.85 84 179.03 84.24 177.95 84.24C175.11 84.24 173.61 82.32 173.61 79.3C173.61 75.82 175.97 74.3 178.39 74.3C179.33 74.3 179.97 74.42 180.79 74.74ZM190.059 79.24C190.059 82.08 188.579 84.22 185.799 84.22C182.799 84.22 181.539 82.1 181.539 79.24C181.539 76.4 183.019 74.32 185.799 74.32C188.799 74.32 190.059 76.38 190.059 79.24ZM187.539 79.26C187.539 77.32 186.899 76.54 185.799 76.54C184.699 76.54 184.059 77.28 184.059 79.22C184.059 81.14 184.699 82 185.799 82C186.899 82 187.539 81.18 187.539 79.26ZM200.341 83.86L197.901 84.18L197.761 83.16H197.741C197.181 83.7 196.241 84.24 194.981 84.24C193.361 84.24 192.041 83.28 192.041 81.16V77L191.721 74.66L194.581 74.34V80.54C194.581 81.56 195.001 82.02 195.881 82.02C196.541 82.02 197.101 81.72 197.481 81.34V77L197.161 74.66L200.021 74.34V81.52L200.341 83.86ZM210.548 84H208.008V78C208.008 76.98 207.588 76.52 206.688 76.52C206.028 76.52 205.468 76.84 205.108 77.2V84H202.568V77L202.248 74.66L204.688 74.34L204.808 75.38H204.828C205.388 74.82 206.328 74.3 207.588 74.3C209.228 74.3 210.548 75.24 210.548 77.38V84ZM218.897 83.54C218.077 83.98 217.457 84.22 216.197 84.22C214.317 84.22 213.397 82.96 213.397 81.08V76.54H211.937V74.86L213.397 74.52V72.88L215.917 72.58V74.54H218.517V76.54H215.917V80.4C215.917 81.66 216.237 81.98 217.057 81.98C217.517 81.98 217.777 81.86 218.217 81.66L218.897 83.54ZM232.737 74.22H229.497V84H226.797V74.22H223.557V71.96H232.737V74.22ZM238.587 76.62C237.427 76.62 236.667 76.82 235.987 77.58V84H233.447V77L233.127 74.66L235.567 74.34L235.727 75.68H235.747C236.287 74.96 237.107 74.3 238.587 74.3V76.62ZM246.655 83.86L244.215 84.18L244.095 83.14H244.075C243.515 83.64 242.775 84.24 241.695 84.24C240.215 84.24 239.235 83.32 239.235 81.74C239.235 79.94 240.575 79.12 242.515 78.92L243.835 78.78V78.14C243.835 77.18 243.435 76.52 242.235 76.52C241.495 76.52 240.995 76.74 240.455 77.04L239.535 75.32C240.475 74.7 241.375 74.3 242.815 74.3C245.115 74.3 246.335 75.54 246.335 77.56V81.52L246.655 83.86ZM243.835 81.96V80.22L242.975 80.32C242.195 80.42 241.695 80.74 241.695 81.4C241.695 81.98 242.035 82.42 242.635 82.42C243.215 82.42 243.555 82.2 243.835 81.96ZM256.877 84H254.337V78C254.337 76.98 253.917 76.52 253.017 76.52C252.357 76.52 251.797 76.84 251.437 77.2V84H248.897V77L248.577 74.66L251.017 74.34L251.137 75.38H251.157C251.717 74.82 252.657 74.3 253.917 74.3C255.557 74.3 256.877 75.24 256.877 77.38V84ZM265.405 80.96C265.405 82.78 263.945 84.22 261.745 84.22C260.605 84.22 259.585 84.04 258.725 83.64L259.385 81.56C260.105 81.86 260.805 82.16 261.605 82.16C262.465 82.16 262.885 81.86 262.885 81.36C262.885 80.9 262.665 80.72 262.145 80.5L260.665 79.88C259.785 79.52 258.825 78.86 258.825 77.3C258.825 75.34 260.485 74.3 262.465 74.3C263.585 74.3 264.345 74.48 265.245 74.86L264.465 76.9C263.825 76.64 263.205 76.38 262.485 76.38C261.705 76.38 261.265 76.6 261.265 77.12C261.265 77.62 261.665 77.8 262.025 77.94L263.565 78.56C264.765 79.04 265.405 79.8 265.405 80.96ZM273.052 70.56L272.452 72.72C272.152 72.62 271.932 72.56 271.612 72.56C270.812 72.56 270.292 73 270.292 73.94V74.54H272.692V76.54H270.292V84H267.772V76.54H266.312V74.86L267.772 74.52V73.82C267.772 71.68 269.312 70.3 271.412 70.3C272.092 70.3 272.552 70.42 273.052 70.56ZM281.038 83.44C279.978 83.98 279.098 84.24 277.818 84.24C274.658 84.24 273.258 82.32 273.258 79.12C273.258 76.26 274.958 74.32 277.478 74.32C280.118 74.32 280.978 76.14 280.978 78.42V79.54H275.738C275.818 81.22 276.618 82.02 278.138 82.02C279.038 82.02 279.538 81.8 280.258 81.5L281.038 83.44ZM278.758 78C278.758 77.02 278.338 76.36 277.398 76.36C276.398 76.36 275.898 77.12 275.778 78H278.758ZM288.08 76.62C286.92 76.62 286.16 76.82 285.48 77.58V84H282.94V77L282.62 74.66L285.06 74.34L285.22 75.68H285.24C285.78 74.96 286.6 74.3 288.08 74.3V76.62Z" fill="#00157E"/>
<path d="M353 71.9292L341 83.9292" stroke="#00157E" stroke-width="2" stroke-linecap="round" stroke-linejoin="round"/>
<path d="M341 71.9292L353 83.9292" stroke="#00157E" stroke-width="2" stroke-linecap="round" stroke-linejoin="round"/>
</g>
<path d="M28.352 133.928C28.352 139.88 22.976 141.864 18.112 142.344L17.664 139.56C20.48 139.176 25.024 138.152 25.024 134.312C25.024 131.912 23.52 130.6 19.648 130.6H17.6L18.272 120.68H27.84V123.624H21.024L20.672 128.264C20.672 128.264 21.376 128.2 22.016 128.2C25.824 128.2 28.352 130.152 28.352 133.928ZM44.569 128.84C44.569 133.224 42.777 137.352 37.881 137.352C33.017 137.352 31.193 133.224 31.193 128.84C31.193 124.456 33.017 120.328 37.881 120.328C42.777 120.328 44.569 124.456 44.569 128.84ZM41.273 128.84C41.273 125.48 40.217 123.176 37.881 123.176C35.545 123.176 34.489 125.48 34.489 128.84C34.489 132.2 35.545 134.504 37.881 134.504C40.217 134.504 41.273 132.2 41.273 128.84ZM61.069 128.84C61.069 133.224 59.277 137.352 54.381 137.352C49.517 137.352 47.693 133.224 47.693 128.84C47.693 124.456 49.517 120.328 54.381 120.328C59.277 120.328 61.069 124.456 61.069 128.84ZM57.773 128.84C57.773 125.48 56.717 123.176 54.381 123.176C52.045 123.176 50.989 125.48 50.989 128.84C50.989 132.2 52.045 134.504 54.381 134.504C56.717 134.504 57.773 132.2 57.773 128.84ZM68.513 135.112C68.513 136.264 67.585 137.224 66.401 137.224C65.249 137.224 64.321 136.264 64.321 135.112C64.321 133.96 65.249 133.032 66.401 133.032C67.585 133.032 68.513 133.96 68.513 135.112ZM85.1628 128.84C85.1628 133.224 83.3708 137.352 78.4748 137.352C73.6108 137.352 71.7868 133.224 71.7868 128.84C71.7868 124.456 73.6108 120.328 78.4748 120.328C83.3708 120.328 85.1628 124.456 85.1628 128.84ZM81.8668 128.84C81.8668 125.48 80.8108 123.176 78.4748 123.176C76.1388 123.176 75.0828 125.48 75.0828 128.84C75.0828 132.2 76.1388 134.504 78.4748 134.504C80.8108 134.504 81.8668 132.2 81.8668 128.84ZM101.663 128.84C101.663 133.224 99.8708 137.352 94.9748 137.352C90.1108 137.352 88.2868 133.224 88.2868 128.84C88.2868 124.456 90.1108 120.328 94.9748 120.328C99.8708 120.328 101.663 124.456 101.663 128.84ZM98.3668 128.84C98.3668 125.48 97.3108 123.176 94.9748 123.176C92.6388 123.176 91.5828 125.48 91.5828 128.84C91.5828 132.2 92.6388 134.504 94.9748 134.504C97.3108 134.504 98.3668 132.2 98.3668 128.84Z" fill="#00157E"/>
<path d="M119.952 136.504C119.056 136.968 118.144 137.176 116.928 137.176C114.576 137.176 112.768 135.592 112.768 132.392C112.768 128.984 114.784 127.192 117.376 127.192C118.448 127.192 119.104 127.352 119.92 127.704L119.408 128.872C118.8 128.6 118.224 128.392 117.36 128.392C115.68 128.392 114.144 129.688 114.144 132.056C114.144 134.696 115.12 135.992 117.456 135.992C118.224 135.992 118.928 135.688 119.504 135.432L119.952 136.504ZM128.649 137H127.305V132.6H122.969V137H121.625V127.368H122.969V131.464H127.305V127.368H128.649V137ZM136.096 128.504H132.64V131.64H135.76V132.776H132.64V137H131.312V127.368H136.096V128.504Z" fill="#00157E" fill-opacity="0.7"/>
<g clip-path="url(#clip1_663_85201)">
<path d="M20.355 159.578L20.103 160.53C19.907 160.46 19.725 160.418 19.445 160.418C18.815 160.418 18.353 160.824 18.353 161.65V162.448H20.159V163.358H18.353V169H17.247V163.358H16.281V162.616L17.247 162.42V161.734C17.247 160.32 18.199 159.452 19.501 159.452C19.851 159.452 20.103 159.508 20.355 159.578ZM24.4086 163.414C23.6526 163.414 23.0926 163.61 22.5886 164.072V169H21.4686V163.96L21.2726 162.518L22.3786 162.336L22.4906 163.232H22.5046C22.9526 162.728 23.5406 162.308 24.4086 162.308V163.414ZM30.7632 165.724C30.7632 167.642 29.8532 169.154 27.9632 169.154C25.8912 169.154 25.1632 167.684 25.1632 165.724C25.1632 163.806 26.0732 162.294 27.9632 162.294C30.0352 162.294 30.7632 163.764 30.7632 165.724ZM29.6152 165.752C29.6152 164.128 29.0692 163.274 27.9632 163.274C26.8852 163.274 26.3112 164.03 26.3112 165.682C26.3112 167.306 26.8572 168.174 27.9632 168.174C29.0412 168.174 29.6152 167.404 29.6152 165.752ZM41.3489 169H40.2429V164.744C40.2429 163.778 39.8789 163.288 38.9829 163.288C38.3529 163.288 37.8209 163.596 37.4709 163.946C37.4709 163.946 37.5129 164.184 37.5129 164.436V169H36.3929V164.744C36.3929 163.778 36.0289 163.288 35.1469 163.288C34.5169 163.288 34.0689 163.54 33.6629 163.918V169H32.5429V163.96L32.3469 162.518L33.4529 162.336L33.5649 163.106H33.5789C34.0689 162.63 34.7129 162.294 35.5249 162.294C36.2809 162.294 36.9109 162.63 37.2469 163.232H37.2609C37.7789 162.714 38.4509 162.294 39.3749 162.294C40.4949 162.294 41.3489 163.008 41.3489 164.352V169Z" fill="#00157E" fill-opacity="0.7"/>
</g>
<rect x="16" y="181" width="343" height="56" rx="8" fill="white"/>
<rect x="16.5" y="181.5" width="342" height="55" rx="7.5" stroke="#00157E" stroke-opacity="0.2"/>
<path d="M44 205C45.6569 205 47 203.657 47 202C47 200.343 45.6569 199 44 199C42.3431 199 41 200.343 41 202C41 203.657 42.3431 205 44 205Z" stroke="#00157E" stroke-width="2" stroke-linecap="round" stroke-linejoin="round"/>
<path d="M44 219V205" stroke="#00157E" stroke-width="2" stroke-linecap="round" stroke-linejoin="round"/>
<path d="M37 209H34C34 211.652 35.0536 214.196 36.9289 216.071C38.8043 217.946 41.3478 219 44 219C46.6522 219 49.1957 217.946 51.0711 216.071C52.9464 214.196 54 211.652 54 209H51" stroke="#00157E" stroke-width="2" stroke-linecap="round" stroke-linejoin="round"/>
<path d="M77.726 202.634C77.726 204.104 76.704 205.154 75.01 205.154C74.142 205.154 73.372 204.972 72.714 204.692L73.078 203.67C73.624 203.922 74.268 204.132 74.926 204.132C75.948 204.132 76.606 203.74 76.606 202.816C76.606 202.13 76.102 201.794 75.43 201.472L74.114 200.842C73.232 200.422 72.63 199.876 72.63 198.686C72.63 197.244 73.89 196.418 75.346 196.418C76.13 196.418 76.634 196.544 77.362 196.81L76.97 197.804C76.522 197.594 76.032 197.398 75.416 197.398C74.548 197.398 73.764 197.748 73.764 198.644C73.764 199.246 74.128 199.54 74.688 199.806L76.032 200.464C77.096 200.982 77.726 201.556 77.726 202.634ZM83.7207 204.93L82.6007 205.112L82.5027 204.342H82.4887C82.0127 204.79 81.4947 205.168 80.7107 205.168C79.6187 205.168 78.9747 204.51 78.9747 203.474C78.9747 202.298 79.8987 201.724 81.2287 201.584L82.4047 201.458V200.87C82.4047 199.96 82.1247 199.316 81.0467 199.316C80.5007 199.316 80.0947 199.484 79.6887 199.694L79.2827 198.868C79.8707 198.518 80.4727 198.294 81.3127 198.294C82.6287 198.294 83.5107 199.064 83.5107 200.366V203.488L83.7207 204.93ZM82.4047 203.642V202.214L81.3827 202.354C80.5427 202.466 80.0807 202.732 80.0807 203.334C80.0807 203.88 80.4167 204.244 80.9767 204.244C81.6347 204.244 82.0407 203.964 82.4047 203.642ZM90.3901 198.448L88.0241 204.986L86.9181 205.028L84.7621 198.546L85.8821 198.266L87.5201 203.544H87.5341L89.2701 198.448H90.3901ZM92.9301 205H91.8101V199.96L91.6141 198.518L92.9301 198.336V205ZM93.1541 196.74C93.1541 197.188 92.8041 197.524 92.3841 197.524C91.9501 197.524 91.5861 197.188 91.5861 196.74C91.5861 196.292 91.9501 195.942 92.3841 195.942C92.8041 195.942 93.1541 196.292 93.1541 196.74ZM100.143 205H99.0227V200.744C99.0227 199.778 98.6587 199.288 97.7767 199.288C97.1467 199.288 96.6987 199.554 96.2927 199.918V205H95.1727V199.96L94.9767 198.518L96.0827 198.336L96.1947 199.106H96.2087C96.6987 198.63 97.3427 198.294 98.1547 198.294C99.2607 198.294 100.143 199.008 100.143 200.352V205ZM107.698 199.274H106.382C106.578 199.61 106.69 200.002 106.69 200.478C106.69 201.808 105.724 202.704 104.38 202.704C104.114 202.704 103.862 202.662 103.638 202.606C103.638 202.606 103.19 202.858 103.19 203.362C103.19 203.796 103.512 203.88 103.96 203.88H105.836C106.984 203.88 107.656 204.23 107.656 205.252C107.656 206.54 106.34 207.996 103.946 207.996C102.574 207.996 101.734 207.324 101.734 206.176C101.734 205.098 102.616 204.566 102.616 204.566C102.336 204.384 102.154 204.104 102.154 203.642C102.154 202.83 102.854 202.424 102.994 202.354C102.378 201.976 102.042 201.332 102.042 200.478C102.042 199.148 103.022 198.266 104.38 198.266C104.884 198.266 105.346 198.378 105.71 198.602L107.698 198.294V199.274ZM106.676 205.42C106.676 204.944 106.27 204.846 105.584 204.846H103.82C103.624 204.846 103.442 204.832 103.26 204.804C103.26 204.804 102.728 205.224 102.728 205.924C102.728 206.68 103.19 207.086 104.198 207.086C105.808 207.086 106.676 206.134 106.676 205.42ZM105.64 200.478C105.64 199.568 105.136 199.106 104.38 199.106C103.652 199.106 103.092 199.596 103.092 200.478C103.092 201.402 103.61 201.864 104.38 201.864C105.094 201.864 105.64 201.374 105.64 200.478ZM112.98 203.096C112.98 204.286 112.042 205.14 110.642 205.14C109.97 205.14 109.298 205.042 108.766 204.79L109.102 203.81C109.564 204.02 110.082 204.188 110.586 204.188C111.342 204.188 111.846 203.894 111.846 203.278C111.846 202.802 111.594 202.606 111.16 202.41L109.942 201.85C109.508 201.654 108.724 201.262 108.724 200.128C108.724 198.882 109.816 198.294 111.006 198.294C111.72 198.294 112.224 198.406 112.784 198.644L112.406 199.61C111.958 199.414 111.524 199.274 110.992 199.274C110.278 199.274 109.816 199.498 109.816 200.058C109.816 200.548 110.236 200.744 110.502 200.87L111.748 201.458C112.616 201.864 112.98 202.382 112.98 203.096ZM121.988 204.93L120.868 205.112L120.77 204.342H120.756C120.28 204.79 119.762 205.168 118.978 205.168C117.886 205.168 117.242 204.51 117.242 203.474C117.242 202.298 118.166 201.724 119.496 201.584L120.672 201.458V200.87C120.672 199.96 120.392 199.316 119.314 199.316C118.768 199.316 118.362 199.484 117.956 199.694L117.55 198.868C118.138 198.518 118.74 198.294 119.58 198.294C120.896 198.294 121.778 199.064 121.778 200.366V203.488L121.988 204.93ZM120.672 203.642V202.214L119.65 202.354C118.81 202.466 118.348 202.732 118.348 203.334C118.348 203.88 118.684 204.244 119.244 204.244C119.902 204.244 120.308 203.964 120.672 203.642ZM128.262 198.574L127.912 199.582C127.548 199.442 127.142 199.316 126.68 199.316C125.448 199.316 124.706 200.24 124.706 201.626C124.706 203.376 125.392 204.174 126.652 204.174C127.1 204.174 127.464 204.02 127.828 203.866L128.206 204.776C127.66 205.028 127.058 205.154 126.428 205.154C124.552 205.154 123.586 203.81 123.586 201.808C123.586 199.4 125.07 198.294 126.736 198.294C127.31 198.294 127.8 198.392 128.262 198.574ZM133.786 198.574L133.436 199.582C133.072 199.442 132.666 199.316 132.204 199.316C130.972 199.316 130.23 200.24 130.23 201.626C130.23 203.376 130.916 204.174 132.176 204.174C132.624 204.174 132.988 204.02 133.352 203.866L133.73 204.776C133.184 205.028 132.582 205.154 131.952 205.154C130.076 205.154 129.11 203.81 129.11 201.808C129.11 199.4 130.594 198.294 132.26 198.294C132.834 198.294 133.324 198.392 133.786 198.574ZM140.233 201.724C140.233 203.642 139.323 205.154 137.433 205.154C135.361 205.154 134.633 203.684 134.633 201.724C134.633 199.806 135.543 198.294 137.433 198.294C139.505 198.294 140.233 199.764 140.233 201.724ZM139.085 201.752C139.085 200.128 138.539 199.274 137.433 199.274C136.355 199.274 135.781 200.03 135.781 201.682C135.781 203.306 136.327 204.174 137.433 204.174C138.511 204.174 139.085 203.404 139.085 201.752ZM147.179 204.93L146.073 205.112L145.961 204.356H145.947C145.457 204.818 144.813 205.154 144.001 205.154C142.895 205.154 142.013 204.44 142.013 203.096V199.96L141.817 198.518L143.133 198.336V202.704C143.133 203.67 143.497 204.174 144.379 204.174C145.009 204.174 145.457 203.908 145.863 203.53V199.96L145.667 198.518L146.983 198.336V203.488L147.179 204.93ZM154.188 205H153.068V200.744C153.068 199.778 152.704 199.288 151.822 199.288C151.192 199.288 150.744 199.554 150.338 199.918V205H149.218V199.96L149.022 198.518L150.128 198.336L150.24 199.106H150.254C150.744 198.63 151.388 198.294 152.2 198.294C153.306 198.294 154.188 199.008 154.188 200.352V205ZM159.671 204.734C159.265 204.958 158.887 205.14 158.173 205.14C157.165 205.14 156.521 204.482 156.521 203.362V199.358H155.555V198.616L156.521 198.42V197.328L157.627 197.188V198.448H159.461V199.358H157.627V202.984C157.627 203.866 157.851 204.146 158.495 204.146C158.845 204.146 159.111 204.006 159.307 203.88L159.671 204.734Z" fill="#00157E"/>
<path d="M77.964 219.628C77.292 219.976 76.608 220.132 75.696 220.132C73.932 220.132 72.576 218.944 72.576 216.544C72.576 213.988 74.088 212.644 76.032 212.644C76.836 212.644 77.328 212.764 77.94 213.028L77.556 213.904C77.1 213.7 76.668 213.544 76.02 213.544C74.76 213.544 73.608 214.516 73.608 216.292C73.608 218.272 74.34 219.244 76.092 219.244C76.668 219.244 77.196 219.016 77.628 218.824L77.964 219.628ZM84.4867 220H83.4787V216.7H80.2267V220H79.2187V212.776H80.2267V215.848H83.4787V212.776H84.4867V220ZM89.9043 219.52C89.9043 220.96 88.9803 221.872 87.3963 221.872C86.9283 221.872 86.4363 221.788 85.9923 221.68L86.2083 220.78C86.6043 220.9 86.9403 220.996 87.4203 220.996C88.3683 220.996 88.9443 220.528 88.9443 219.664C88.9443 218.488 87.8643 218.032 86.3403 218.032V217.348C88.1163 217.24 88.6083 216.448 88.6083 215.668C88.6083 214.984 88.1883 214.6 87.5163 214.6C86.9643 214.6 86.6403 214.78 86.2803 215.02L85.8843 214.36C86.3163 214.024 86.8683 213.748 87.7083 213.748C88.8603 213.748 89.5683 214.432 89.5683 215.548C89.5683 216.52 89.0043 217.168 88.2003 217.552V217.564C89.3763 217.816 89.9043 218.596 89.9043 219.52ZM94.9696 218.92C94.9696 221.224 92.7976 221.872 91.2496 221.992L91.1296 221.176C92.2216 221.056 93.9856 220.624 93.9856 219.052C93.9856 218.068 93.4336 217.492 91.8976 217.492H91.0936L91.3576 213.88H94.7776V214.756H92.1856L92.0296 216.772C92.0296 216.772 92.3056 216.748 92.5576 216.748C93.9496 216.748 94.9696 217.48 94.9696 218.92ZM103.559 216.94C103.559 218.536 102.935 220.132 101.123 220.132C99.2993 220.132 98.6753 218.536 98.6753 216.94C98.6753 215.344 99.2993 213.748 101.123 213.748C102.935 213.748 103.559 215.344 103.559 216.94ZM102.575 216.94C102.575 215.596 102.131 214.588 101.123 214.588C100.103 214.588 99.6593 215.596 99.6593 216.94C99.6593 218.284 100.103 219.292 101.123 219.292C102.131 219.292 102.575 218.284 102.575 216.94ZM109.123 216.844C109.123 220.156 107.443 221.704 105.055 221.992L104.863 221.212C106.375 221.032 107.899 220.06 108.115 217.768L108.103 217.756C108.103 217.756 107.539 218.236 106.687 218.236C105.487 218.236 104.707 217.336 104.707 216.1C104.707 214.6 105.607 213.748 106.963 213.748C108.355 213.748 109.123 214.708 109.123 216.844ZM108.127 216.832C108.127 215.644 107.911 214.564 106.843 214.564C106.087 214.564 105.643 215.188 105.643 215.968C105.643 216.964 106.099 217.444 106.951 217.444C107.683 217.444 108.127 217.012 108.127 217.012V216.832ZM115.348 216.94C115.348 218.536 114.724 220.132 112.912 220.132C111.088 220.132 110.464 218.536 110.464 216.94C110.464 215.344 111.088 213.748 112.912 213.748C114.724 213.748 115.348 215.344 115.348 216.94ZM114.364 216.94C114.364 215.596 113.92 214.588 112.912 214.588C111.892 214.588 111.448 215.596 111.448 216.94C111.448 218.284 111.892 219.292 112.912 219.292C113.92 219.292 114.364 218.284 114.364 216.94ZM121.524 216.94C121.524 218.536 120.9 220.132 119.088 220.132C117.264 220.132 116.64 218.536 116.64 216.94C116.64 215.344 117.264 213.748 119.088 213.748C120.9 213.748 121.524 215.344 121.524 216.94ZM120.54 216.94C120.54 215.596 120.096 214.588 119.088 214.588C118.068 214.588 117.624 215.596 117.624 216.94C117.624 218.284 118.068 219.292 119.088 219.292C120.096 219.292 120.54 218.284 120.54 216.94ZM130.22 216.94C130.22 218.536 129.596 220.132 127.784 220.132C125.96 220.132 125.336 218.536 125.336 216.94C125.336 215.344 125.96 213.748 127.784 213.748C129.596 213.748 130.22 215.344 130.22 216.94ZM129.236 216.94C129.236 215.596 128.792 214.588 127.784 214.588C126.764 214.588 126.32 215.596 126.32 216.94C126.32 218.284 126.764 219.292 127.784 219.292C128.792 219.292 129.236 218.284 129.236 216.94ZM136.395 216.94C136.395 218.536 135.771 220.132 133.959 220.132C132.135 220.132 131.511 218.536 131.511 216.94C131.511 215.344 132.135 213.748 133.959 213.748C135.771 213.748 136.395 215.344 136.395 216.94ZM135.411 216.94C135.411 215.596 134.967 214.588 133.959 214.588C132.939 214.588 132.495 215.596 132.495 216.94C132.495 218.284 132.939 219.292 133.959 219.292C134.967 219.292 135.411 218.284 135.411 216.94ZM142.571 216.94C142.571 218.536 141.947 220.132 140.135 220.132C138.311 220.132 137.687 218.536 137.687 216.94C137.687 215.344 138.311 213.748 140.135 213.748C141.947 213.748 142.571 215.344 142.571 216.94ZM141.587 216.94C141.587 215.596 141.143 214.588 140.135 214.588C139.115 214.588 138.671 215.596 138.671 216.94C138.671 218.284 139.115 219.292 140.135 219.292C141.143 219.292 141.587 218.284 141.587 216.94ZM148.747 216.94C148.747 218.536 148.123 220.132 146.311 220.132C144.487 220.132 143.863 218.536 143.863 216.94C143.863 215.344 144.487 213.748 146.311 213.748C148.123 213.748 148.747 215.344 148.747 216.94ZM147.763 216.94C147.763 215.596 147.319 214.588 146.311 214.588C145.291 214.588 144.847 215.596 144.847 216.94C144.847 218.284 145.291 219.292 146.311 219.292C147.319 219.292 147.763 218.284 147.763 216.94ZM156.842 220H152.39V219.376L154.442 217.408C154.994 216.868 155.414 216.472 155.414 215.812C155.414 215.116 154.982 214.6 154.178 214.6C153.638 214.6 153.254 214.84 152.966 215.08L152.51 214.444C153.026 214.012 153.554 213.748 154.382 213.748C155.57 213.748 156.386 214.444 156.386 215.704C156.386 216.544 155.882 217.18 155.306 217.708L153.77 219.124V219.136H156.842V220ZM163.36 219.244H161.908V221.692L160.984 221.848V219.244H157.684V218.464L161.02 213.88H161.908V218.428H163.36V219.244ZM160.984 218.428V215.176H160.972L158.668 218.428H160.984ZM167.969 214.696L164.537 221.98L163.733 221.572L166.925 214.756H163.661V213.88H167.969V214.696ZM173.708 216.94C173.708 218.536 173.084 220.132 171.272 220.132C169.448 220.132 168.824 218.536 168.824 216.94C168.824 215.344 169.448 213.748 171.272 213.748C173.084 213.748 173.708 215.344 173.708 216.94ZM172.724 216.94C172.724 215.596 172.28 214.588 171.272 214.588C170.252 214.588 169.808 215.596 169.808 216.94C169.808 218.284 170.252 219.292 171.272 219.292C172.28 219.292 172.724 218.284 172.724 216.94ZM181.803 220H177.351V219.376L179.403 217.408C179.955 216.868 180.375 216.472 180.375 215.812C180.375 215.116 179.943 214.6 179.139 214.6C178.599 214.6 178.215 214.84 177.927 215.08L177.471 214.444C177.987 214.012 178.515 213.748 179.343 213.748C180.531 213.748 181.347 214.444 181.347 215.704C181.347 216.544 180.843 217.18 180.267 217.708L178.731 219.124V219.136H181.803V220ZM187.088 216.844C187.088 220.156 185.408 221.704 183.02 221.992L182.828 221.212C184.34 221.032 185.864 220.06 186.08 217.768L186.068 217.756C186.068 217.756 185.504 218.236 184.652 218.236C183.452 218.236 182.672 217.336 182.672 216.1C182.672 214.6 183.572 213.748 184.928 213.748C186.32 213.748 187.088 214.708 187.088 216.844ZM186.092 216.832C186.092 215.644 185.876 214.564 184.808 214.564C184.052 214.564 183.608 215.188 183.608 215.968C183.608 216.964 184.064 217.444 184.916 217.444C185.648 217.444 186.092 217.012 186.092 217.012V216.832ZM192.713 220H188.261V219.376L190.313 217.408C190.865 216.868 191.285 216.472 191.285 215.812C191.285 215.116 190.853 214.6 190.049 214.6C189.509 214.6 189.125 214.84 188.837 215.08L188.381 214.444C188.897 214.012 189.425 213.748 190.253 213.748C191.441 213.748 192.257 214.444 192.257 215.704C192.257 216.544 191.753 217.18 191.177 217.708L189.641 219.124V219.136H192.713V220ZM198.61 216.94C198.61 218.536 197.986 220.132 196.174 220.132C194.35 220.132 193.726 218.536 193.726 216.94C193.726 215.344 194.35 213.748 196.174 213.748C197.986 213.748 198.61 215.344 198.61 216.94ZM197.626 216.94C197.626 215.596 197.182 214.588 196.174 214.588C195.154 214.588 194.71 215.596 194.71 216.94C194.71 218.284 195.154 219.292 196.174 219.292C197.182 219.292 197.626 218.284 197.626 216.94ZM206.705 220H202.253V219.376L204.305 217.408C204.857 216.868 205.277 216.472 205.277 215.812C205.277 215.116 204.845 214.6 204.041 214.6C203.501 214.6 203.117 214.84 202.829 215.08L202.373 214.444C202.889 214.012 203.417 213.748 204.245 213.748C205.433 213.748 206.249 214.444 206.249 215.704C206.249 216.544 205.745 217.18 205.169 217.708L203.633 219.124V219.136H206.705V220Z" fill="#00157E" fill-opacity="0.7"/>
<path d="M265.964 203.628C265.292 203.976 264.608 204.132 263.696 204.132C261.932 204.132 260.576 202.944 260.576 200.544C260.576 197.988 262.088 196.644 264.032 196.644C264.836 196.644 265.328 196.764 265.94 197.028L265.556 197.904C265.1 197.7 264.668 197.544 264.02 197.544C262.76 197.544 261.608 198.516 261.608 200.292C261.608 202.272 262.34 203.244 264.092 203.244C264.668 203.244 265.196 203.016 265.628 202.824L265.964 203.628ZM272.487 204H271.479V200.7H268.227V204H267.219V196.776H268.227V199.848H271.479V196.776H272.487V204ZM278.072 197.628H275.48V199.98H277.82V200.832H275.48V204H274.484V196.776H278.072V197.628Z" fill="#00157E" fill-opacity="0.7"/>
<path d="M293.483 205H288.037V203.922L290.263 201.864C290.781 201.388 291.131 201.038 291.131 200.38C291.131 199.736 290.725 199.302 290.081 199.302C289.479 199.302 289.101 199.54 288.793 199.778L288.009 198.602C288.653 198.042 289.395 197.692 290.445 197.692C291.929 197.692 292.951 198.56 292.951 200.086C292.951 201.024 292.405 201.752 291.817 202.284L290.599 203.376V203.39H293.483V205ZM299.421 203.558C299.421 206.064 297.279 207.044 294.773 207.338L294.507 205.826C295.683 205.644 297.601 205.238 297.601 203.74C297.601 202.802 296.915 202.34 295.333 202.34H294.507L294.773 197.86H299.169V199.456H296.243L296.145 201.108C296.145 201.108 296.411 201.094 296.691 201.094C298.399 201.094 299.421 201.934 299.421 203.558ZM302.692 197.594C302.692 199.022 302.118 199.82 301.082 200.562L300.578 200.016C301.068 199.596 301.39 199.148 301.502 198.532C300.984 198.476 300.564 198.014 300.564 197.482C300.564 196.908 301.04 196.432 301.614 196.432C302.216 196.432 302.692 196.88 302.692 197.594ZM309.974 201.43C309.974 203.39 309.12 205.168 306.964 205.168C304.808 205.168 303.954 203.39 303.954 201.43C303.954 199.47 304.808 197.692 306.964 197.692C309.12 197.692 309.974 199.47 309.974 201.43ZM308.182 201.43C308.182 200.086 307.804 199.274 306.964 199.274C306.138 199.274 305.746 200.086 305.746 201.43C305.746 202.774 306.138 203.586 306.964 203.586C307.804 203.586 308.182 202.774 308.182 201.43ZM317.22 201.43C317.22 203.39 316.366 205.168 314.21 205.168C312.054 205.168 311.2 203.39 311.2 201.43C311.2 199.47 312.054 197.692 314.21 197.692C316.366 197.692 317.22 199.47 317.22 201.43ZM315.428 201.43C315.428 200.086 315.05 199.274 314.21 199.274C313.384 199.274 312.992 200.086 312.992 201.43C312.992 202.774 313.384 203.586 314.21 203.586C315.05 203.586 315.428 202.774 315.428 201.43ZM324.466 201.43C324.466 203.39 323.612 205.168 321.456 205.168C319.3 205.168 318.446 203.39 318.446 201.43C318.446 199.47 319.3 197.692 321.456 197.692C323.612 197.692 324.466 199.47 324.466 201.43ZM322.674 201.43C322.674 200.086 322.296 199.274 321.456 199.274C320.63 199.274 320.238 200.086 320.238 201.43C320.238 202.774 320.63 203.586 321.456 203.586C322.296 203.586 322.674 202.774 322.674 201.43ZM327.862 204.048C327.862 204.636 327.386 205.112 326.798 205.112C326.21 205.112 325.734 204.636 325.734 204.048C325.734 203.474 326.21 202.998 326.798 202.998C327.386 202.998 327.862 203.474 327.862 204.048ZM335.144 201.43C335.144 203.39 334.29 205.168 332.134 205.168C329.978 205.168 329.124 203.39 329.124 201.43C329.124 199.47 329.978 197.692 332.134 197.692C334.29 197.692 335.144 199.47 335.144 201.43ZM333.352 201.43C333.352 200.086 332.974 199.274 332.134 199.274C331.308 199.274 330.916 200.086 330.916 201.43C330.916 202.774 331.308 203.586 332.134 203.586C332.974 203.586 333.352 202.774 333.352 201.43ZM342.39 201.43C342.39 203.39 341.536 205.168 339.38 205.168C337.224 205.168 336.37 203.39 336.37 201.43C336.37 199.47 337.224 197.692 339.38 197.692C341.536 197.692 342.39 199.47 342.39 201.43ZM340.598 201.43C340.598 200.086 340.22 199.274 339.38 199.274C338.554 199.274 338.162 200.086 338.162 201.43C338.162 202.774 338.554 203.586 339.38 203.586C340.22 203.586 340.598 202.774 340.598 201.43Z" fill="#00157E"/>
<g clip-path="url(#clip2_663_85201)">
<path d="M20.397 268.734C19.991 268.958 19.613 269.14 18.899 269.14C17.891 269.14 17.247 268.482 17.247 267.362V263.358H16.281V262.616L17.247 262.42V261.328L18.353 261.188V262.448H20.187V263.358H18.353V266.984C18.353 267.866 18.577 268.146 19.221 268.146C19.571 268.146 19.837 268.006 20.033 267.88L20.397 268.734ZM26.8531 265.724C26.8531 267.642 25.9431 269.154 24.0531 269.154C21.9811 269.154 21.2531 267.684 21.2531 265.724C21.2531 263.806 22.1631 262.294 24.0531 262.294C26.1251 262.294 26.8531 263.764 26.8531 265.724ZM25.7051 265.752C25.7051 264.128 25.1591 263.274 24.0531 263.274C22.9751 263.274 22.4011 264.03 22.4011 265.682C22.4011 267.306 22.9471 268.174 24.0531 268.174C25.1311 268.174 25.7051 267.404 25.7051 265.752Z" fill="#00157E" fill-opacity="0.7"/>
</g>
<rect x="16" y="281" width="343" height="56" rx="8" fill="white"/>
<rect x="16.5" y="281.5" width="342" height="55" rx="7.5" stroke="#00157E" stroke-opacity="0.2"/>
<path d="M38 306C39.6569 306 41 304.657 41 303C41 301.343 39.6569 300 38 300C36.3431 300 35 301.343 35 303C35 304.657 36.3431 306 38 306Z" stroke="#00157E" stroke-width="2" stroke-linecap="round" stroke-linejoin="round"/>
<path d="M38 318C39.6569 318 41 316.657 41 315C41 313.343 39.6569 312 38 312C36.3431 312 35 313.343 35 315C35 316.657 36.3431 318 38 318Z" stroke="#00157E" stroke-width="2" stroke-linecap="round" stroke-linejoin="round"/>
<path d="M52.0001 301L40.1201 312.88" stroke="#00157E" stroke-width="2" stroke-linecap="round" stroke-linejoin="round"/>
<path d="M46.47 311.48L52 317" stroke="#00157E" stroke-width="2" stroke-linecap="round" stroke-linejoin="round"/>
<path d="M40.1201 305.12L44.0001 309" stroke="#00157E" stroke-width="2" stroke-linecap="round" stroke-linejoin="round"/>
<path d="M78.02 298.658C78.02 300.632 76.41 301.626 74.534 301.626H74.324V305H73.162V296.642C73.162 296.642 74.212 296.488 75.318 296.488C76.956 296.488 78.02 297.272 78.02 298.658ZM76.872 298.868C76.872 297.832 76.186 297.37 75.122 297.37C74.674 297.37 74.324 297.426 74.324 297.426V300.73H74.506C75.752 300.73 76.872 300.17 76.872 298.868ZM82.4721 299.414C81.7161 299.414 81.1561 299.61 80.6521 300.072V305H79.5321V299.96L79.3361 298.518L80.4421 298.336L80.5541 299.232H80.5681C81.0161 298.728 81.6041 298.308 82.4721 298.308V299.414ZM84.9868 305H83.8668V299.96L83.6708 298.518L84.9868 298.336V305ZM85.2108 296.74C85.2108 297.188 84.8608 297.524 84.4408 297.524C84.0068 297.524 83.6427 297.188 83.6427 296.74C83.6427 296.292 84.0068 295.942 84.4408 295.942C84.8608 295.942 85.2108 296.292 85.2108 296.74ZM92.0034 298.448L89.6374 304.986L88.5314 305.028L86.3754 298.546L87.4954 298.266L89.1334 303.544H89.1474L90.8834 298.448H92.0034ZM97.543 304.93L96.423 305.112L96.325 304.342H96.311C95.835 304.79 95.317 305.168 94.533 305.168C93.441 305.168 92.797 304.51 92.797 303.474C92.797 302.298 93.721 301.724 95.051 301.584L96.227 301.458V300.87C96.227 299.96 95.947 299.316 94.869 299.316C94.323 299.316 93.917 299.484 93.511 299.694L93.105 298.868C93.693 298.518 94.295 298.294 95.135 298.294C96.451 298.294 97.333 299.064 97.333 300.366V303.488L97.543 304.93ZM96.227 303.642V302.214L95.205 302.354C94.365 302.466 93.903 302.732 93.903 303.334C93.903 303.88 94.239 304.244 94.799 304.244C95.457 304.244 95.863 303.964 96.227 303.642ZM102.865 304.734C102.459 304.958 102.081 305.14 101.367 305.14C100.359 305.14 99.7148 304.482 99.7148 303.362V299.358H98.7488V298.616L99.7148 298.42V297.328L100.821 297.188V298.448H102.655V299.358H100.821V302.984C100.821 303.866 101.045 304.146 101.689 304.146C102.039 304.146 102.305 304.006 102.501 303.88L102.865 304.734ZM108.719 304.65C108.089 305 107.445 305.154 106.647 305.154C104.715 305.154 103.721 303.852 103.721 301.682C103.721 299.652 104.785 298.294 106.437 298.294C108.019 298.294 108.663 299.344 108.663 300.786V301.57H104.813C104.827 303.32 105.457 304.16 106.885 304.16C107.431 304.16 107.851 304.006 108.327 303.768L108.719 304.65ZM107.613 300.786C107.613 299.806 107.249 299.19 106.381 299.19C105.541 299.19 105.009 299.848 104.869 300.786H107.613ZM117.627 304.93L116.507 305.112L116.409 304.342H116.395C115.919 304.79 115.401 305.168 114.617 305.168C113.525 305.168 112.881 304.51 112.881 303.474C112.881 302.298 113.805 301.724 115.135 301.584L116.311 301.458V300.87C116.311 299.96 116.031 299.316 114.953 299.316C114.407 299.316 114.001 299.484 113.595 299.694L113.189 298.868C113.777 298.518 114.379 298.294 115.219 298.294C116.535 298.294 117.417 299.064 117.417 300.366V303.488L117.627 304.93ZM116.311 303.642V302.214L115.289 302.354C114.449 302.466 113.987 302.732 113.987 303.334C113.987 303.88 114.323 304.244 114.883 304.244C115.541 304.244 115.947 303.964 116.311 303.642ZM123.901 298.574L123.551 299.582C123.187 299.442 122.781 299.316 122.319 299.316C121.087 299.316 120.345 300.24 120.345 301.626C120.345 303.376 121.031 304.174 122.291 304.174C122.739 304.174 123.103 304.02 123.467 303.866L123.845 304.776C123.299 305.028 122.697 305.154 122.067 305.154C120.191 305.154 119.225 303.81 119.225 301.808C119.225 299.4 120.709 298.294 122.375 298.294C122.949 298.294 123.439 298.392 123.901 298.574ZM129.424 298.574L129.074 299.582C128.71 299.442 128.304 299.316 127.842 299.316C126.61 299.316 125.868 300.24 125.868 301.626C125.868 303.376 126.554 304.174 127.814 304.174C128.262 304.174 128.626 304.02 128.99 303.866L129.368 304.776C128.822 305.028 128.22 305.154 127.59 305.154C125.714 305.154 124.748 303.81 124.748 301.808C124.748 299.4 126.232 298.294 127.898 298.294C128.472 298.294 128.962 298.392 129.424 298.574ZM135.872 301.724C135.872 303.642 134.962 305.154 133.072 305.154C131 305.154 130.272 303.684 130.272 301.724C130.272 299.806 131.182 298.294 133.072 298.294C135.144 298.294 135.872 299.764 135.872 301.724ZM134.724 301.752C134.724 300.128 134.178 299.274 133.072 299.274C131.994 299.274 131.42 300.03 131.42 301.682C131.42 303.306 131.966 304.174 133.072 304.174C134.15 304.174 134.724 303.404 134.724 301.752ZM142.817 304.93L141.711 305.112L141.599 304.356H141.585C141.095 304.818 140.451 305.154 139.639 305.154C138.533 305.154 137.651 304.44 137.651 303.096V299.96L137.455 298.518L138.771 298.336V302.704C138.771 303.67 139.135 304.174 140.017 304.174C140.647 304.174 141.095 303.908 141.501 303.53V299.96L141.305 298.518L142.621 298.336V303.488L142.817 304.93ZM149.826 305H148.706V300.744C148.706 299.778 148.342 299.288 147.46 299.288C146.83 299.288 146.382 299.554 145.976 299.918V305H144.856V299.96L144.66 298.518L145.766 298.336L145.878 299.106H145.892C146.382 298.63 147.026 298.294 147.838 298.294C148.944 298.294 149.826 299.008 149.826 300.352V305ZM155.31 304.734C154.904 304.958 154.526 305.14 153.812 305.14C152.804 305.14 152.16 304.482 152.16 303.362V299.358H151.194V298.616L152.16 298.42V297.328L153.266 297.188V298.448H155.1V299.358H153.266V302.984C153.266 303.866 153.49 304.146 154.134 304.146C154.484 304.146 154.75 304.006 154.946 303.88L155.31 304.734Z" fill="#00157E"/>
<path d="M77.964 319.628C77.292 319.976 76.608 320.132 75.696 320.132C73.932 320.132 72.576 318.944 72.576 316.544C72.576 313.988 74.088 312.644 76.032 312.644C76.836 312.644 77.328 312.764 77.94 313.028L77.556 313.904C77.1 313.7 76.668 313.544 76.02 313.544C74.76 313.544 73.608 314.516 73.608 316.292C73.608 318.272 74.34 319.244 76.092 319.244C76.668 319.244 77.196 319.016 77.628 318.824L77.964 319.628ZM84.4867 320H83.4787V316.7H80.2267V320H79.2187V312.776H80.2267V315.848H83.4787V312.776H84.4867V320ZM89.9043 319.52C89.9043 320.96 88.9803 321.872 87.3963 321.872C86.9283 321.872 86.4363 321.788 85.9923 321.68L86.2083 320.78C86.6043 320.9 86.9403 320.996 87.4203 320.996C88.3683 320.996 88.9443 320.528 88.9443 319.664C88.9443 318.488 87.8643 318.032 86.3403 318.032V317.348C88.1163 317.24 88.6083 316.448 88.6083 315.668C88.6083 314.984 88.1883 314.6 87.5163 314.6C86.9643 314.6 86.6403 314.78 86.2803 315.02L85.8843 314.36C86.3163 314.024 86.8683 313.748 87.7083 313.748C88.8603 313.748 89.5683 314.432 89.5683 315.548C89.5683 316.52 89.0043 317.168 88.2003 317.552V317.564C89.3763 317.816 89.9043 318.596 89.9043 319.52ZM94.9696 318.92C94.9696 321.224 92.7976 321.872 91.2496 321.992L91.1296 321.176C92.2216 321.056 93.9856 320.624 93.9856 319.052C93.9856 318.068 93.4336 317.492 91.8976 317.492H91.0936L91.3576 313.88H94.7776V314.756H92.1856L92.0296 316.772C92.0296 316.772 92.3056 316.748 92.5576 316.748C93.9496 316.748 94.9696 317.48 94.9696 318.92ZM103.559 316.94C103.559 318.536 102.935 320.132 101.123 320.132C99.2993 320.132 98.6753 318.536 98.6753 316.94C98.6753 315.344 99.2993 313.748 101.123 313.748C102.935 313.748 103.559 315.344 103.559 316.94ZM102.575 316.94C102.575 315.596 102.131 314.588 101.123 314.588C100.103 314.588 99.6593 315.596 99.6593 316.94C99.6593 318.284 100.103 319.292 101.123 319.292C102.131 319.292 102.575 318.284 102.575 316.94ZM109.123 316.844C109.123 320.156 107.443 321.704 105.055 321.992L104.863 321.212C106.375 321.032 107.899 320.06 108.115 317.768L108.103 317.756C108.103 317.756 107.539 318.236 106.687 318.236C105.487 318.236 104.707 317.336 104.707 316.1C104.707 314.6 105.607 313.748 106.963 313.748C108.355 313.748 109.123 314.708 109.123 316.844ZM108.127 316.832C108.127 315.644 107.911 314.564 106.843 314.564C106.087 314.564 105.643 315.188 105.643 315.968C105.643 316.964 106.099 317.444 106.951 317.444C107.683 317.444 108.127 317.012 108.127 317.012V316.832ZM115.348 316.94C115.348 318.536 114.724 320.132 112.912 320.132C111.088 320.132 110.464 318.536 110.464 316.94C110.464 315.344 111.088 313.748 112.912 313.748C114.724 313.748 115.348 315.344 115.348 316.94ZM114.364 316.94C114.364 315.596 113.92 314.588 112.912 314.588C111.892 314.588 111.448 315.596 111.448 316.94C111.448 318.284 111.892 319.292 112.912 319.292C113.92 319.292 114.364 318.284 114.364 316.94ZM121.524 316.94C121.524 318.536 120.9 320.132 119.088 320.132C117.264 320.132 116.64 318.536 116.64 316.94C116.64 315.344 117.264 313.748 119.088 313.748C120.9 313.748 121.524 315.344 121.524 316.94ZM120.54 316.94C120.54 315.596 120.096 314.588 119.088 314.588C118.068 314.588 117.624 315.596 117.624 316.94C117.624 318.284 118.068 319.292 119.088 319.292C120.096 319.292 120.54 318.284 120.54 316.94ZM130.22 316.94C130.22 318.536 129.596 320.132 127.784 320.132C125.96 320.132 125.336 318.536 125.336 316.94C125.336 315.344 125.96 313.748 127.784 313.748C129.596 313.748 130.22 315.344 130.22 316.94ZM129.236 316.94C129.236 315.596 128.792 314.588 127.784 314.588C126.764 314.588 126.32 315.596 126.32 316.94C126.32 318.284 126.764 319.292 127.784 319.292C128.792 319.292 129.236 318.284 129.236 316.94ZM136.395 316.94C136.395 318.536 135.771 320.132 133.959 320.132C132.135 320.132 131.511 318.536 131.511 316.94C131.511 315.344 132.135 313.748 133.959 313.748C135.771 313.748 136.395 315.344 136.395 316.94ZM135.411 316.94C135.411 315.596 134.967 314.588 133.959 314.588C132.939 314.588 132.495 315.596 132.495 316.94C132.495 318.284 132.939 319.292 133.959 319.292C134.967 319.292 135.411 318.284 135.411 316.94ZM142.571 316.94C142.571 318.536 141.947 320.132 140.135 320.132C138.311 320.132 137.687 318.536 137.687 316.94C137.687 315.344 138.311 313.748 140.135 313.748C141.947 313.748 142.571 315.344 142.571 316.94ZM141.587 316.94C141.587 315.596 141.143 314.588 140.135 314.588C139.115 314.588 138.671 315.596 138.671 316.94C138.671 318.284 139.115 319.292 140.135 319.292C141.143 319.292 141.587 318.284 141.587 316.94ZM148.747 316.94C148.747 318.536 148.123 320.132 146.311 320.132C144.487 320.132 143.863 318.536 143.863 316.94C143.863 315.344 144.487 313.748 146.311 313.748C148.123 313.748 148.747 315.344 148.747 316.94ZM147.763 316.94C147.763 315.596 147.319 314.588 146.311 314.588C145.291 314.588 144.847 315.596 144.847 316.94C144.847 318.284 145.291 319.292 146.311 319.292C147.319 319.292 147.763 318.284 147.763 316.94ZM156.842 320H152.39V319.376L154.442 317.408C154.994 316.868 155.414 316.472 155.414 315.812C155.414 315.116 154.982 314.6 154.178 314.6C153.638 314.6 153.254 314.84 152.966 315.08L152.51 314.444C153.026 314.012 153.554 313.748 154.382 313.748C155.57 313.748 156.386 314.444 156.386 315.704C156.386 316.544 155.882 317.18 155.306 317.708L153.77 319.124V319.136H156.842V320ZM163.36 319.244H161.908V321.692L160.984 321.848V319.244H157.684V318.464L161.02 313.88H161.908V318.428H163.36V319.244ZM160.984 318.428V315.176H160.972L158.668 318.428H160.984ZM167.969 314.696L164.537 321.98L163.733 321.572L166.925 314.756H163.661V313.88H167.969V314.696ZM173.708 316.94C173.708 318.536 173.084 320.132 171.272 320.132C169.448 320.132 168.824 318.536 168.824 316.94C168.824 315.344 169.448 313.748 171.272 313.748C173.084 313.748 173.708 315.344 173.708 316.94ZM172.724 316.94C172.724 315.596 172.28 314.588 171.272 314.588C170.252 314.588 169.808 315.596 169.808 316.94C169.808 318.284 170.252 319.292 171.272 319.292C172.28 319.292 172.724 318.284 172.724 316.94ZM181.803 320H177.351V319.376L179.403 317.408C179.955 316.868 180.375 316.472 180.375 315.812C180.375 315.116 179.943 314.6 179.139 314.6C178.599 314.6 178.215 314.84 177.927 315.08L177.471 314.444C177.987 314.012 178.515 313.748 179.343 313.748C180.531 313.748 181.347 314.444 181.347 315.704C181.347 316.544 180.843 317.18 180.267 317.708L178.731 319.124V319.136H181.803V320ZM187.088 316.844C187.088 320.156 185.408 321.704 183.02 321.992L182.828 321.212C184.34 321.032 185.864 320.06 186.08 317.768L186.068 317.756C186.068 317.756 185.504 318.236 184.652 318.236C183.452 318.236 182.672 317.336 182.672 316.1C182.672 314.6 183.572 313.748 184.928 313.748C186.32 313.748 187.088 314.708 187.088 316.844ZM186.092 316.832C186.092 315.644 185.876 314.564 184.808 314.564C184.052 314.564 183.608 315.188 183.608 315.968C183.608 316.964 184.064 317.444 184.916 317.444C185.648 317.444 186.092 317.012 186.092 317.012V316.832ZM192.713 320H188.261V319.376L190.313 317.408C190.865 316.868 191.285 316.472 191.285 315.812C191.285 315.116 190.853 314.6 190.049 314.6C189.509 314.6 189.125 314.84 188.837 315.08L188.381 314.444C188.897 314.012 189.425 313.748 190.253 313.748C191.441 313.748 192.257 314.444 192.257 315.704C192.257 316.544 191.753 317.18 191.177 317.708L189.641 319.124V319.136H192.713V320ZM198.61 316.94C198.61 318.536 197.986 320.132 196.174 320.132C194.35 320.132 193.726 318.536 193.726 316.94C193.726 315.344 194.35 313.748 196.174 313.748C197.986 313.748 198.61 315.344 198.61 316.94ZM197.626 316.94C197.626 315.596 197.182 314.588 196.174 314.588C195.154 314.588 194.71 315.596 194.71 316.94C194.71 318.284 195.154 319.292 196.174 319.292C197.182 319.292 197.626 318.284 197.626 316.94ZM206.705 320H202.253V319.376L204.305 317.408C204.857 316.868 205.277 316.472 205.277 315.812C205.277 315.116 204.845 314.6 204.041 314.6C203.501 314.6 203.117 314.84 202.829 315.08L202.373 314.444C202.889 314.012 203.417 313.748 204.245 313.748C205.433 313.748 206.249 314.444 206.249 315.704C206.249 316.544 205.745 317.18 205.169 317.708L203.633 319.124V319.136H206.705V320Z" fill="#00157E" fill-opacity="0.7"/>
<path d="M266.964 303.628C266.292 303.976 265.608 304.132 264.696 304.132C262.932 304.132 261.576 302.944 261.576 300.544C261.576 297.988 263.088 296.644 265.032 296.644C265.836 296.644 266.328 296.764 266.94 297.028L266.556 297.904C266.1 297.7 265.668 297.544 265.02 297.544C263.76 297.544 262.608 298.516 262.608 300.292C262.608 302.272 263.34 303.244 265.092 303.244C265.668 303.244 266.196 303.016 266.628 302.824L266.964 303.628ZM273.487 304H272.479V300.7H269.227V304H268.219V296.776H269.227V299.848H272.479V296.776H273.487V304ZM279.072 297.628H276.48V299.98H278.82V300.832H276.48V304H275.484V296.776H279.072V297.628Z" fill="#00157E" fill-opacity="0.7"/>
<path d="M291.716 305H289.938V299.33L288.706 299.498L288.496 298.238L291.716 297.72V305ZM299.296 301.43C299.296 303.39 298.442 305.168 296.286 305.168C294.13 305.168 293.276 303.39 293.276 301.43C293.276 299.47 294.13 297.692 296.286 297.692C298.442 297.692 299.296 299.47 299.296 301.43ZM297.504 301.43C297.504 300.086 297.126 299.274 296.286 299.274C295.46 299.274 295.068 300.086 295.068 301.43C295.068 302.774 295.46 303.586 296.286 303.586C297.126 303.586 297.504 302.774 297.504 301.43ZM302.692 297.594C302.692 299.022 302.118 299.82 301.082 300.562L300.578 300.016C301.068 299.596 301.39 299.148 301.502 298.532C300.984 298.476 300.564 298.014 300.564 297.482C300.564 296.908 301.04 296.432 301.614 296.432C302.216 296.432 302.692 296.88 302.692 297.594ZM309.974 301.43C309.974 303.39 309.12 305.168 306.964 305.168C304.808 305.168 303.954 303.39 303.954 301.43C303.954 299.47 304.808 297.692 306.964 297.692C309.12 297.692 309.974 299.47 309.974 301.43ZM308.182 301.43C308.182 300.086 307.804 299.274 306.964 299.274C306.138 299.274 305.746 300.086 305.746 301.43C305.746 302.774 306.138 303.586 306.964 303.586C307.804 303.586 308.182 302.774 308.182 301.43ZM317.22 301.43C317.22 303.39 316.366 305.168 314.21 305.168C312.054 305.168 311.2 303.39 311.2 301.43C311.2 299.47 312.054 297.692 314.21 297.692C316.366 297.692 317.22 299.47 317.22 301.43ZM315.428 301.43C315.428 300.086 315.05 299.274 314.21 299.274C313.384 299.274 312.992 300.086 312.992 301.43C312.992 302.774 313.384 303.586 314.21 303.586C315.05 303.586 315.428 302.774 315.428 301.43ZM324.466 301.43C324.466 303.39 323.612 305.168 321.456 305.168C319.3 305.168 318.446 303.39 318.446 301.43C318.446 299.47 319.3 297.692 321.456 297.692C323.612 297.692 324.466 299.47 324.466 301.43ZM322.674 301.43C322.674 300.086 322.296 299.274 321.456 299.274C320.63 299.274 320.238 300.086 320.238 301.43C320.238 302.774 320.63 303.586 321.456 303.586C322.296 303.586 322.674 302.774 322.674 301.43ZM327.862 304.048C327.862 304.636 327.386 305.112 326.798 305.112C326.21 305.112 325.734 304.636 325.734 304.048C325.734 303.474 326.21 302.998 326.798 302.998C327.386 302.998 327.862 303.474 327.862 304.048ZM335.144 301.43C335.144 303.39 334.29 305.168 332.134 305.168C329.978 305.168 329.124 303.39 329.124 301.43C329.124 299.47 329.978 297.692 332.134 297.692C334.29 297.692 335.144 299.47 335.144 301.43ZM333.352 301.43C333.352 300.086 332.974 299.274 332.134 299.274C331.308 299.274 330.916 300.086 330.916 301.43C330.916 302.774 331.308 303.586 332.134 303.586C332.974 303.586 333.352 302.774 333.352 301.43ZM342.39 301.43C342.39 303.39 341.536 305.168 339.38 305.168C337.224 305.168 336.37 303.39 336.37 301.43C336.37 299.47 337.224 297.692 339.38 297.692C341.536 297.692 342.39 299.47 342.39 301.43ZM340.598 301.43C340.598 300.086 340.22 299.274 339.38 299.274C338.554 299.274 338.162 300.086 338.162 301.43C338.162 302.774 338.554 303.586 339.38 303.586C340.22 303.586 340.598 302.774 340.598 301.43Z" fill="#00157E"/>
<g clip-path="url(#clip3_663_85201)">
<path d="M21.727 366.635C21.727 368.105 20.705 369.155 19.011 369.155C18.143 369.155 17.373 368.973 16.715 368.693L17.079 367.671C17.625 367.923 18.269 368.133 18.927 368.133C19.949 368.133 20.607 367.741 20.607 366.817C20.607 366.131 20.103 365.795 19.431 365.473L18.115 364.843C17.233 364.423 16.631 363.877 16.631 362.687C16.631 361.245 17.891 360.419 19.347 360.419C20.131 360.419 20.635 360.545 21.363 360.811L20.971 361.805C20.523 361.595 20.033 361.399 19.417 361.399C18.549 361.399 17.765 361.749 17.765 362.645C17.765 363.247 18.129 363.541 18.689 363.807L20.033 364.465C21.097 364.983 21.727 365.557 21.727 366.635ZM26.6997 368.735C26.2937 368.959 25.9157 369.141 25.2017 369.141C24.1937 369.141 23.5497 368.483 23.5497 367.363V363.359H22.5837V362.617L23.5497 362.421V361.329L24.6557 361.189V362.449H26.4897V363.359H24.6557V366.985C24.6557 367.867 24.8797 368.147 25.5237 368.147C25.8737 368.147 26.1397 368.007 26.3357 367.881L26.6997 368.735ZM32.4932 368.931L31.3732 369.113L31.2752 368.343H31.2612C30.7852 368.791 30.2672 369.169 29.4832 369.169C28.3912 369.169 27.7472 368.511 27.7472 367.475C27.7472 366.299 28.6712 365.725 30.0012 365.585L31.1772 365.459V364.871C31.1772 363.961 30.8972 363.317 29.8192 363.317C29.2732 363.317 28.8672 363.485 28.4612 363.695L28.0552 362.869C28.6432 362.519 29.2452 362.295 30.0852 362.295C31.4012 362.295 32.2832 363.065 32.2832 364.367V367.489L32.4932 368.931ZM31.1772 367.643V366.215L30.1552 366.355C29.3152 366.467 28.8532 366.733 28.8532 367.335C28.8532 367.881 29.1892 368.245 29.7492 368.245C30.4072 368.245 30.8132 367.965 31.1772 367.643ZM37.8149 368.735C37.4089 368.959 37.0309 369.141 36.3169 369.141C35.3089 369.141 34.6649 368.483 34.6649 367.363V363.359H33.6989V362.617L34.6649 362.421V361.329L35.7709 361.189V362.449H37.6049V363.359H35.7709V366.985C35.7709 367.867 35.9949 368.147 36.6389 368.147C36.9889 368.147 37.2549 368.007 37.4509 367.881L37.8149 368.735ZM44.4764 368.931L43.3704 369.113L43.2584 368.357H43.2444C42.7544 368.819 42.1104 369.155 41.2984 369.155C40.1924 369.155 39.3104 368.441 39.3104 367.097V363.961L39.1144 362.519L40.4304 362.337V366.705C40.4304 367.671 40.7944 368.175 41.6764 368.175C42.3064 368.175 42.7544 367.909 43.1604 367.531V363.961L42.9644 362.519L44.2804 362.337V367.489L44.4764 368.931ZM50.3095 367.097C50.3095 368.287 49.3715 369.141 47.9715 369.141C47.2995 369.141 46.6275 369.043 46.0955 368.791L46.4315 367.811C46.8935 368.021 47.4115 368.189 47.9155 368.189C48.6715 368.189 49.1755 367.895 49.1755 367.279C49.1755 366.803 48.9235 366.607 48.4895 366.411L47.2715 365.851C46.8375 365.655 46.0535 365.263 46.0535 364.129C46.0535 362.883 47.1455 362.295 48.3355 362.295C49.0495 362.295 49.5535 362.407 50.1135 362.645L49.7355 363.611C49.2875 363.415 48.8535 363.275 48.3215 363.275C47.6075 363.275 47.1455 363.499 47.1455 364.059C47.1455 364.549 47.5655 364.745 47.8315 364.871L49.0775 365.459C49.9455 365.865 50.3095 366.383 50.3095 367.097Z" fill="#00157E"/>
</g>
<path d="M281.999 353.501H346.999C353.35 353.501 358.499 358.65 358.499 365.001C358.499 371.352 353.35 376.501 346.999 376.501H281.999C275.648 376.501 270.499 371.352 270.499 365.001C270.499 358.65 275.648 353.501 281.999 353.501Z" fill="#00157E"/>
<path d="M281.999 353.501H346.999C353.35 353.501 358.499 358.65 358.499 365.001C358.499 371.352 353.35 376.501 346.999 376.501H281.999C275.648 376.501 270.499 371.352 270.499 365.001C270.499 358.65 275.648 353.501 281.999 353.501Z" stroke="#00157E"/>
<path d="M291.332 361.001L283.999 368.334L280.666 365.001" stroke="white" stroke-width="2" stroke-linecap="round" stroke-linejoin="round"/>
<path d="M307.596 369.001H303.27V360.573H307.456V361.567H304.432V364.157H307.162V365.137H304.432V368.007H307.596V369.001ZM313.85 368.707L312.898 369.239L311.078 366.439H311.064L309.426 369.001H308.25L310.532 365.599L308.572 362.743L309.51 362.211L311.134 364.675H311.148L312.548 362.449H313.738L311.666 365.501L313.85 368.707ZM319.605 368.651C318.975 369.001 318.331 369.155 317.533 369.155C315.601 369.155 314.607 367.853 314.607 365.683C314.607 363.653 315.671 362.295 317.323 362.295C318.905 362.295 319.549 363.345 319.549 364.787V365.571H315.699C315.713 367.321 316.343 368.161 317.771 368.161C318.317 368.161 318.737 368.007 319.213 367.769L319.605 368.651ZM318.499 364.787C318.499 363.807 318.135 363.191 317.267 363.191C316.427 363.191 315.895 363.849 315.755 364.787H318.499ZM325.503 362.575L325.153 363.583C324.789 363.443 324.383 363.317 323.921 363.317C322.689 363.317 321.947 364.241 321.947 365.627C321.947 367.377 322.633 368.175 323.893 368.175C324.341 368.175 324.705 368.021 325.069 367.867L325.447 368.777C324.901 369.029 324.299 369.155 323.669 369.155C321.793 369.155 320.827 367.811 320.827 365.809C320.827 363.401 322.311 362.295 323.977 362.295C324.551 362.295 325.041 362.393 325.503 362.575ZM332.211 368.931L331.105 369.113L330.993 368.357H330.979C330.489 368.819 329.845 369.155 329.033 369.155C327.927 369.155 327.045 368.441 327.045 367.097V363.961L326.849 362.519L328.165 362.337V366.705C328.165 367.671 328.529 368.175 329.411 368.175C330.041 368.175 330.489 367.909 330.895 367.531V363.961L330.699 362.519L332.015 362.337V367.489L332.211 368.931ZM337.526 368.735C337.12 368.959 336.742 369.141 336.028 369.141C335.02 369.141 334.376 368.483 334.376 367.363V363.359H333.41V362.617L334.376 362.421V361.329L335.482 361.189V362.449H337.316V363.359H335.482V366.985C335.482 367.867 335.706 368.147 336.35 368.147C336.7 368.147 336.966 368.007 337.162 367.881L337.526 368.735ZM343.38 368.651C342.75 369.001 342.106 369.155 341.308 369.155C339.376 369.155 338.382 367.853 338.382 365.683C338.382 363.653 339.446 362.295 341.098 362.295C342.68 362.295 343.324 363.345 343.324 364.787V365.571H339.474C339.488 367.321 340.118 368.161 341.546 368.161C342.092 368.161 342.512 368.007 342.988 367.769L343.38 368.651ZM342.274 364.787C342.274 363.807 341.91 363.191 341.042 363.191C340.202 363.191 339.67 363.849 339.53 364.787H342.274ZM349.965 368.959L348.887 369.113L348.789 368.455H348.775C348.355 368.805 347.781 369.155 347.011 369.155C345.569 369.155 344.603 367.965 344.603 366.019C344.603 363.765 345.765 362.379 347.753 362.379C348.285 362.379 348.663 362.477 348.663 362.477V361.063L348.453 359.621L349.769 359.439V367.517L349.965 368.959ZM347.403 368.175C347.949 368.175 348.327 367.951 348.663 367.685V363.499C348.663 363.499 348.299 363.317 347.655 363.317C346.381 363.317 345.751 364.395 345.751 365.669C345.751 367.251 346.171 368.175 347.403 368.175Z" fill="white"/>
<path d="M22.539 402.427C22.539 404.317 20.985 405.003 18.941 405.003H17.163V396.631C17.163 396.631 18.227 396.505 19.319 396.505C20.929 396.505 21.909 397.107 21.909 398.437C21.909 399.445 21.279 400.117 20.481 400.467V400.481C21.615 400.607 22.539 401.265 22.539 402.427ZM21.377 402.609C21.377 401.671 20.775 401.111 19.123 401.111H18.311V404.051H19.333C20.481 404.051 21.377 403.617 21.377 402.609ZM20.747 398.703C20.747 397.765 20.145 397.359 19.067 397.359C18.675 397.359 18.311 397.401 18.311 397.401V400.299C19.753 400.271 20.747 399.865 20.747 398.703ZM29.273 401.727C29.273 403.645 28.363 405.157 26.473 405.157C24.401 405.157 23.673 403.687 23.673 401.727C23.673 399.809 24.583 398.297 26.473 398.297C28.545 398.297 29.273 399.767 29.273 401.727ZM28.125 401.755C28.125 400.131 27.579 399.277 26.473 399.277C25.395 399.277 24.821 400.033 24.821 401.685C24.821 403.309 25.367 404.177 26.473 404.177C27.551 404.177 28.125 403.407 28.125 401.755ZM36.2046 401.727C36.2046 403.645 35.2946 405.157 33.4046 405.157C31.3326 405.157 30.6046 403.687 30.6046 401.727C30.6046 399.809 31.5146 398.297 33.4046 398.297C35.4766 398.297 36.2046 399.767 36.2046 401.727ZM35.0566 401.755C35.0566 400.131 34.5106 399.277 33.4046 399.277C32.3266 399.277 31.7526 400.033 31.7526 401.685C31.7526 403.309 32.2986 404.177 33.4046 404.177C34.4826 404.177 35.0566 403.407 35.0566 401.755ZM39.0763 405.003H37.9563V397.065L37.7603 395.623L39.0763 395.441V405.003ZM43.2063 404.807L42.0863 405.213L39.1043 401.447L41.4703 398.451H42.7443L40.4203 401.349L43.2063 404.807ZM45.6264 405.003H44.5064V399.963L44.3104 398.521L45.6264 398.339V405.003ZM45.8504 396.743C45.8504 397.191 45.5004 397.527 45.0804 397.527C44.6464 397.527 44.2824 397.191 44.2824 396.743C44.2824 396.295 44.6464 395.945 45.0804 395.945C45.5004 395.945 45.8504 396.295 45.8504 396.743ZM52.839 405.003H51.719V400.747C51.719 399.781 51.355 399.291 50.473 399.291C49.843 399.291 49.395 399.557 48.989 399.921V405.003H47.869V399.963L47.673 398.521L48.779 398.339L48.891 399.109H48.905C49.395 398.633 50.039 398.297 50.851 398.297C51.957 398.297 52.839 399.011 52.839 400.355V405.003ZM60.3948 399.277H59.0788C59.2748 399.613 59.3868 400.005 59.3868 400.481C59.3868 401.811 58.4208 402.707 57.0768 402.707C56.8108 402.707 56.5588 402.665 56.3348 402.609C56.3348 402.609 55.8868 402.861 55.8868 403.365C55.8868 403.799 56.2088 403.883 56.6568 403.883H58.5328C59.6808 403.883 60.3528 404.233 60.3528 405.255C60.3528 406.543 59.0368 407.999 56.6428 407.999C55.2708 407.999 54.4308 407.327 54.4308 406.179C54.4308 405.101 55.3128 404.569 55.3128 404.569C55.0328 404.387 54.8508 404.107 54.8508 403.645C54.8508 402.833 55.5508 402.427 55.6908 402.357C55.0748 401.979 54.7388 401.335 54.7388 400.481C54.7388 399.151 55.7188 398.269 57.0768 398.269C57.5808 398.269 58.0428 398.381 58.4068 398.605L60.3948 398.297V399.277ZM59.3728 405.423C59.3728 404.947 58.9668 404.849 58.2808 404.849H56.5168C56.3208 404.849 56.1388 404.835 55.9568 404.807C55.9568 404.807 55.4248 405.227 55.4248 405.927C55.4248 406.683 55.8868 407.089 56.8948 407.089C58.5048 407.089 59.3728 406.137 59.3728 405.423ZM58.3368 400.481C58.3368 399.571 57.8328 399.109 57.0768 399.109C56.3488 399.109 55.7888 399.599 55.7888 400.481C55.7888 401.405 56.3068 401.867 57.0768 401.867C57.7908 401.867 58.3368 401.377 58.3368 400.481ZM69.0501 398.577L68.7001 399.585C68.3361 399.445 67.9301 399.319 67.4681 399.319C66.2361 399.319 65.4941 400.243 65.4941 401.629C65.4941 403.379 66.1801 404.177 67.4401 404.177C67.8881 404.177 68.2521 404.023 68.6161 403.869L68.9941 404.779C68.4481 405.031 67.8461 405.157 67.2161 405.157C65.3401 405.157 64.3741 403.813 64.3741 401.811C64.3741 399.403 65.8581 398.297 67.5241 398.297C68.0981 398.297 68.5881 398.395 69.0501 398.577ZM75.4976 401.727C75.4976 403.645 74.5876 405.157 72.6976 405.157C70.6256 405.157 69.8976 403.687 69.8976 401.727C69.8976 399.809 70.8076 398.297 72.6976 398.297C74.7696 398.297 75.4976 399.767 75.4976 401.727ZM74.3496 401.755C74.3496 400.131 73.8036 399.277 72.6976 399.277C71.6196 399.277 71.0456 400.033 71.0456 401.685C71.0456 403.309 71.5916 404.177 72.6976 404.177C73.7756 404.177 74.3496 403.407 74.3496 401.755ZM82.2472 405.003H81.1272V400.747C81.1272 399.781 80.7632 399.291 79.8812 399.291C79.2512 399.291 78.8032 399.557 78.3972 399.921V405.003H77.2772V399.963L77.0812 398.521L78.1872 398.339L78.2992 399.109H78.3132C78.8032 398.633 79.4472 398.297 80.2592 398.297C81.3652 398.297 82.2472 399.011 82.2472 400.355V405.003ZM89.019 405.003H87.913V399.361H85.687V405.003H84.581V399.361H83.615V398.619L84.581 398.423V397.905C84.581 396.491 85.477 395.455 87.073 395.455C87.801 395.455 88.263 395.679 88.599 395.861L88.193 396.757C88.025 396.645 87.605 396.407 87.073 396.407C86.051 396.407 85.687 396.981 85.687 397.779V398.451H89.019V405.003ZM94.2036 399.417C93.4476 399.417 92.8876 399.613 92.3836 400.075V405.003H91.2636V399.963L91.0676 398.521L92.1736 398.339L92.2856 399.235H92.2996C92.7476 398.731 93.3356 398.311 94.2036 398.311V399.417ZM104.376 405.003H103.27V400.747C103.27 399.781 102.906 399.291 102.01 399.291C101.38 399.291 100.848 399.599 100.498 399.949C100.498 399.949 100.54 400.187 100.54 400.439V405.003H99.4202V400.747C99.4202 399.781 99.0562 399.291 98.1742 399.291C97.5442 399.291 97.0962 399.543 96.6902 399.921V405.003H95.5702V399.963L95.3742 398.521L96.4802 398.339L96.5922 399.109H96.6062C97.0962 398.633 97.7402 398.297 98.5522 398.297C99.3082 398.297 99.9382 398.633 100.274 399.235H100.288C100.806 398.717 101.478 398.297 102.402 398.297C103.522 398.297 104.376 399.011 104.376 400.355V405.003ZM110.901 404.933L109.781 405.115L109.683 404.345H109.669C109.193 404.793 108.675 405.171 107.891 405.171C106.799 405.171 106.155 404.513 106.155 403.477C106.155 402.301 107.079 401.727 108.409 401.587L109.585 401.461V400.873C109.585 399.963 109.305 399.319 108.227 399.319C107.681 399.319 107.275 399.487 106.869 399.697L106.463 398.871C107.051 398.521 107.653 398.297 108.493 398.297C109.809 398.297 110.691 399.067 110.691 400.369V403.491L110.901 404.933ZM109.585 403.645V402.217L108.563 402.357C107.723 402.469 107.261 402.735 107.261 403.337C107.261 403.883 107.597 404.247 108.157 404.247C108.815 404.247 109.221 403.967 109.585 403.645ZM116.223 404.737C115.817 404.961 115.439 405.143 114.725 405.143C113.717 405.143 113.073 404.485 113.073 403.365V399.361H112.107V398.619L113.073 398.423V397.331L114.179 397.191V398.451H116.013V399.361H114.179V402.987C114.179 403.869 114.403 404.149 115.047 404.149C115.397 404.149 115.663 404.009 115.859 403.883L116.223 404.737ZM118.867 405.003H117.747V399.963L117.551 398.521L118.867 398.339V405.003ZM119.091 396.743C119.091 397.191 118.741 397.527 118.321 397.527C117.887 397.527 117.523 397.191 117.523 396.743C117.523 396.295 117.887 395.945 118.321 395.945C118.741 395.945 119.091 396.295 119.091 396.743ZM126.261 401.727C126.261 403.645 125.351 405.157 123.461 405.157C121.389 405.157 120.661 403.687 120.661 401.727C120.661 399.809 121.571 398.297 123.461 398.297C125.533 398.297 126.261 399.767 126.261 401.727ZM125.113 401.755C125.113 400.131 124.567 399.277 123.461 399.277C122.383 399.277 121.809 400.033 121.809 401.685C121.809 403.309 122.355 404.177 123.461 404.177C124.539 404.177 125.113 403.407 125.113 401.755ZM133.011 405.003H131.891V400.747C131.891 399.781 131.527 399.291 130.645 399.291C130.015 399.291 129.567 399.557 129.161 399.921V405.003H128.041V399.963L127.845 398.521L128.951 398.339L129.063 399.109H129.077C129.567 398.633 130.211 398.297 131.023 398.297C132.129 398.297 133.011 399.011 133.011 400.355V405.003Z" fill="#00157E"/>
<path d="M283.999 404.003V408.003C283.999 408.533 283.788 409.042 283.413 409.417C283.038 409.792 282.529 410.003 281.999 410.003H267.999C267.469 410.003 266.96 409.792 266.585 409.417C266.21 409.042 265.999 408.533 265.999 408.003V404.003" stroke="#00157E" stroke-width="2" stroke-linecap="round" stroke-linejoin="round"/>
<path d="M269.999 399.003L274.999 404.003L279.999 399.003" stroke="#00157E" stroke-width="2" stroke-linecap="round" stroke-linejoin="round"/>
<path d="M274.999 404.003V392.003" stroke="#00157E" stroke-width="2" stroke-linecap="round" stroke-linejoin="round"/>
<path d="M303.063 400.257C303.063 403.337 301.215 405.003 298.219 405.003H296.455V396.631C296.455 396.631 297.617 396.491 298.863 396.491C301.467 396.491 303.063 397.849 303.063 400.257ZM301.845 400.425C301.845 398.437 300.501 397.485 298.667 397.485C298.079 397.485 297.631 397.513 297.631 397.513V403.953H298.443C300.445 403.953 301.845 402.763 301.845 400.425ZM310.001 401.727C310.001 403.645 309.091 405.157 307.201 405.157C305.129 405.157 304.401 403.687 304.401 401.727C304.401 399.809 305.311 398.297 307.201 398.297C309.273 398.297 310.001 399.767 310.001 401.727ZM308.853 401.755C308.853 400.131 308.307 399.277 307.201 399.277C306.123 399.277 305.549 400.033 305.549 401.685C305.549 403.309 306.095 404.177 307.201 404.177C308.279 404.177 308.853 403.407 308.853 401.755ZM319.634 398.451L317.828 404.975L316.792 405.031L315.196 400.061H315.182L313.572 404.989L312.536 405.031L310.898 398.521L311.962 398.255L313.138 403.365H313.152L314.678 398.451H315.77L317.31 403.365H317.324L318.542 398.451H319.634ZM326.074 405.003H324.954V400.747C324.954 399.781 324.59 399.291 323.708 399.291C323.078 399.291 322.63 399.557 322.224 399.921V405.003H321.104V399.963L320.908 398.521L322.014 398.339L322.126 399.109H322.14C322.63 398.633 323.274 398.297 324.086 398.297C325.192 398.297 326.074 399.011 326.074 400.355V405.003ZM329.374 405.003H328.254V397.065L328.058 395.623L329.374 395.441V405.003ZM336.743 401.727C336.743 403.645 335.833 405.157 333.943 405.157C331.871 405.157 331.143 403.687 331.143 401.727C331.143 399.809 332.053 398.297 333.943 398.297C336.015 398.297 336.743 399.767 336.743 401.727ZM335.595 401.755C335.595 400.131 335.049 399.277 333.943 399.277C332.865 399.277 332.291 400.033 332.291 401.685C332.291 403.309 332.837 404.177 333.943 404.177C335.021 404.177 335.595 403.407 335.595 401.755ZM342.82 404.933L341.7 405.115L341.602 404.345H341.588C341.112 404.793 340.594 405.171 339.81 405.171C338.718 405.171 338.074 404.513 338.074 403.477C338.074 402.301 338.998 401.727 340.328 401.587L341.504 401.461V400.873C341.504 399.963 341.224 399.319 340.146 399.319C339.6 399.319 339.194 399.487 338.788 399.697L338.382 398.871C338.97 398.521 339.572 398.297 340.412 398.297C341.728 398.297 342.61 399.067 342.61 400.369V403.491L342.82 404.933ZM341.504 403.645V402.217L340.482 402.357C339.642 402.469 339.18 402.735 339.18 403.337C339.18 403.883 339.516 404.247 340.076 404.247C340.734 404.247 341.14 403.967 341.504 403.645ZM349.78 404.961L348.702 405.115L348.604 404.457H348.59C348.17 404.807 347.596 405.157 346.826 405.157C345.384 405.157 344.418 403.967 344.418 402.021C344.418 399.767 345.58 398.381 347.568 398.381C348.1 398.381 348.478 398.479 348.478 398.479V397.065L348.268 395.623L349.584 395.441V403.519L349.78 404.961ZM347.218 404.177C347.764 404.177 348.142 403.953 348.478 403.687V399.501C348.478 399.501 348.114 399.319 347.47 399.319C346.196 399.319 345.566 400.397 345.566 401.671C345.566 403.253 345.986 404.177 347.218 404.177Z" fill="#00157E"/>
<g clip-path="url(#clip4_663_85201)">
<path d="M21.727 438.638C21.727 440.108 20.705 441.158 19.011 441.158C18.143 441.158 17.373 440.976 16.715 440.696L17.079 439.674C17.625 439.926 18.269 440.136 18.927 440.136C19.949 440.136 20.607 439.744 20.607 438.82C20.607 438.134 20.103 437.798 19.431 437.476L18.115 436.846C17.233 436.426 16.631 435.88 16.631 434.69C16.631 433.248 17.891 432.422 19.347 432.422C20.131 432.422 20.635 432.548 21.363 432.814L20.971 433.808C20.523 433.598 20.033 433.402 19.417 433.402C18.549 433.402 17.765 433.752 17.765 434.648C17.765 435.25 18.129 435.544 18.689 435.81L20.033 436.468C21.097 436.986 21.727 437.56 21.727 438.638ZM24.5717 441.004H23.4517V435.964L23.2557 434.522L24.5717 434.34V441.004ZM24.7957 432.744C24.7957 433.192 24.4457 433.528 24.0257 433.528C23.5917 433.528 23.2277 433.192 23.2277 432.744C23.2277 432.296 23.5917 431.946 24.0257 431.946C24.4457 431.946 24.7957 432.296 24.7957 432.744ZM32.1623 435.278H30.8463C31.0423 435.614 31.1543 436.006 31.1543 436.482C31.1543 437.812 30.1883 438.708 28.8443 438.708C28.5783 438.708 28.3263 438.666 28.1023 438.61C28.1023 438.61 27.6543 438.862 27.6543 439.366C27.6543 439.8 27.9763 439.884 28.4243 439.884H30.3003C31.4483 439.884 32.1203 440.234 32.1203 441.256C32.1203 442.544 30.8043 444 28.4103 444C27.0383 444 26.1983 443.328 26.1983 442.18C26.1983 441.102 27.0803 440.57 27.0803 440.57C26.8003 440.388 26.6183 440.108 26.6183 439.646C26.6183 438.834 27.3183 438.428 27.4583 438.358C26.8423 437.98 26.5063 437.336 26.5063 436.482C26.5063 435.152 27.4863 434.27 28.8443 434.27C29.3483 434.27 29.8103 434.382 30.1743 434.606L32.1623 434.298V435.278ZM31.1403 441.424C31.1403 440.948 30.7343 440.85 30.0483 440.85H28.2843C28.0883 440.85 27.9063 440.836 27.7243 440.808C27.7243 440.808 27.1923 441.228 27.1923 441.928C27.1923 442.684 27.6543 443.09 28.6623 443.09C30.2723 443.09 31.1403 442.138 31.1403 441.424ZM30.1043 436.482C30.1043 435.572 29.6003 435.11 28.8443 435.11C28.1163 435.11 27.5563 435.6 27.5563 436.482C27.5563 437.406 28.0743 437.868 28.8443 437.868C29.5583 437.868 30.1043 437.378 30.1043 436.482ZM38.6203 441.004H37.5003V436.748C37.5003 435.782 37.1363 435.292 36.2543 435.292C35.6243 435.292 35.1763 435.558 34.7703 435.922V441.004H33.6503V435.964L33.4543 434.522L34.5603 434.34L34.6723 435.11H34.6863C35.1763 434.634 35.8203 434.298 36.6323 434.298C37.7383 434.298 38.6203 435.012 38.6203 436.356V441.004ZM45.378 440.654C44.748 441.004 44.104 441.158 43.306 441.158C41.374 441.158 40.38 439.856 40.38 437.686C40.38 435.656 41.444 434.298 43.096 434.298C44.678 434.298 45.322 435.348 45.322 436.79V437.574H41.472C41.486 439.324 42.116 440.164 43.544 440.164C44.09 440.164 44.51 440.01 44.986 439.772L45.378 440.654ZM44.272 436.79C44.272 435.81 43.908 435.194 43.04 435.194C42.2 435.194 41.668 435.852 41.528 436.79H44.272ZM51.9627 440.962L50.8847 441.116L50.7867 440.458H50.7727C50.3527 440.808 49.7787 441.158 49.0087 441.158C47.5667 441.158 46.6007 439.968 46.6007 438.022C46.6007 435.768 47.7627 434.382 49.7507 434.382C50.2827 434.382 50.6607 434.48 50.6607 434.48V433.066L50.4507 431.624L51.7667 431.442V439.52L51.9627 440.962ZM49.4007 440.178C49.9467 440.178 50.3247 439.954 50.6607 439.688V435.502C50.6607 435.502 50.2967 435.32 49.6527 435.32C48.3787 435.32 47.7487 436.398 47.7487 437.672C47.7487 439.254 48.1687 440.178 49.4007 440.178Z" fill="#00157E"/>
</g>
<path d="M347.938 432.576L345.278 437.546V441.004H343.402V437.574L340.98 432.996L342.688 432.254L344.368 435.88H344.382L345.95 432.576H347.938ZM352.931 440.612C352.189 440.99 351.573 441.172 350.677 441.172C348.465 441.172 347.485 439.828 347.485 437.588C347.485 435.586 348.675 434.228 350.439 434.228C352.287 434.228 352.889 435.502 352.889 437.098V437.882H349.221C349.277 439.058 349.837 439.618 350.901 439.618C351.531 439.618 351.881 439.464 352.385 439.254L352.931 440.612ZM351.335 436.804C351.335 436.118 351.041 435.656 350.383 435.656C349.683 435.656 349.333 436.188 349.249 436.804H351.335ZM358.476 438.876C358.476 440.15 357.454 441.158 355.914 441.158C355.116 441.158 354.402 441.032 353.8 440.752L354.262 439.296C354.766 439.506 355.256 439.716 355.816 439.716C356.418 439.716 356.712 439.506 356.712 439.156C356.712 438.834 356.558 438.708 356.194 438.554L355.158 438.12C354.542 437.868 353.87 437.406 353.87 436.314C353.87 434.942 355.032 434.214 356.418 434.214C357.202 434.214 357.734 434.34 358.364 434.606L357.818 436.034C357.37 435.852 356.936 435.67 356.432 435.67C355.886 435.67 355.578 435.824 355.578 436.188C355.578 436.538 355.858 436.664 356.11 436.762L357.188 437.196C358.028 437.532 358.476 438.064 358.476 438.876Z" fill="#00157E"/>
<path d="M16.001 477.004C16.001 474.795 17.7918 473.004 20.001 473.004H44.001C46.2101 473.004 48.001 474.795 48.001 477.004V501.004C48.001 503.213 46.2101 505.004 44.001 505.004H20.001C17.7918 505.004 16.001 503.213 16.001 501.004V477.004Z" fill="#00157E" fill-opacity="0.05"/>
<path d="M26.001 486.004L32.001 492.004L38.001 486.004" stroke="#00157E" stroke-width="2" stroke-linecap="round" stroke-linejoin="round"/>
<path d="M70.4255 485.508H66.9695V488.644H70.0895V489.78H66.9695V494.004H65.6415V484.372H70.4255V485.508ZM77.8881 493.924L76.6241 494.132L76.4961 493.268H76.4801C75.9201 493.796 75.1841 494.18 74.2561 494.18C72.9921 494.18 71.9841 493.364 71.9841 491.828V488.244L71.7601 486.596L73.2641 486.388V491.38C73.2641 492.484 73.6801 493.06 74.6881 493.06C75.4081 493.06 75.9201 492.756 76.3841 492.324V488.244L76.1601 486.596L77.6641 486.388V492.276L77.8881 493.924ZM83.5785 487.62C82.7145 487.62 82.0745 487.844 81.4985 488.372V494.004H80.2185V488.244L79.9945 486.596L81.2585 486.388L81.3865 487.412H81.4025C81.9145 486.836 82.5865 486.356 83.5785 486.356V487.62ZM89.15 493.7C88.686 493.956 88.254 494.164 87.438 494.164C86.286 494.164 85.55 493.412 85.55 492.132V487.556H84.446V486.708L85.55 486.484V485.236L86.814 485.076V486.516H88.91V487.556H86.814V491.7C86.814 492.708 87.07 493.028 87.806 493.028C88.206 493.028 88.51 492.868 88.734 492.724L89.15 493.7ZM96.4911 494.004H95.2271V489.14C95.2271 488.052 94.7951 487.492 93.7711 487.492C93.0351 487.492 92.5391 487.812 92.1071 488.196V494.004H90.8271V484.932L90.6031 483.284L92.1071 483.076V487.172H92.1231C92.6191 486.74 93.3071 486.34 94.2351 486.34C95.5151 486.34 96.4911 487.14 96.4911 488.692V494.004ZM104.231 493.604C103.511 494.004 102.775 494.18 101.863 494.18C99.655 494.18 98.519 492.692 98.519 490.212C98.519 487.892 99.735 486.34 101.623 486.34C103.431 486.34 104.167 487.54 104.167 489.188V490.084H99.767C99.783 492.084 100.503 493.044 102.135 493.044C102.759 493.044 103.239 492.868 103.783 492.596L104.231 493.604ZM102.967 489.188C102.967 488.068 102.551 487.364 101.559 487.364C100.599 487.364 99.991 488.116 99.831 489.188H102.967ZM109.5 487.62C108.636 487.62 107.996 487.844 107.42 488.372V494.004H106.14V488.244L105.916 486.596L107.18 486.388L107.308 487.412H107.324C107.836 486.836 108.508 486.356 109.5 486.356V487.62ZM120.31 490.26C120.31 492.452 119.27 494.18 117.11 494.18C114.742 494.18 113.91 492.5 113.91 490.26C113.91 488.068 114.95 486.34 117.11 486.34C119.478 486.34 120.31 488.02 120.31 490.26ZM118.998 490.292C118.998 488.436 118.374 487.46 117.11 487.46C115.878 487.46 115.222 488.324 115.222 490.212C115.222 492.068 115.846 493.06 117.11 493.06C118.342 493.06 118.998 492.18 118.998 490.292ZM128.231 489.892C128.231 492.324 127.175 494.084 124.679 494.084C124.263 494.084 123.927 494.052 123.623 493.972V497.172L122.343 497.38V488.244L122.119 486.596L123.383 486.388L123.495 487.156H123.511C124.007 486.74 124.663 486.34 125.527 486.34C127.351 486.34 128.231 487.716 128.231 489.892ZM126.951 490.26C126.951 488.628 126.583 487.492 125.095 487.492C124.455 487.492 123.991 487.764 123.623 488.068V492.788C123.927 492.916 124.279 492.996 124.775 492.996C126.167 492.996 126.951 491.908 126.951 490.26ZM133.9 493.7C133.436 493.956 133.004 494.164 132.188 494.164C131.036 494.164 130.3 493.412 130.3 492.132V487.556H129.196V486.708L130.3 486.484V485.236L131.564 485.076V486.516H133.66V487.556H131.564V491.7C131.564 492.708 131.82 493.028 132.556 493.028C132.956 493.028 133.26 492.868 133.484 492.724L133.9 493.7ZM136.921 494.004H135.641V488.244L135.417 486.596L136.921 486.388V494.004ZM137.177 484.564C137.177 485.076 136.777 485.46 136.297 485.46C135.801 485.46 135.385 485.076 135.385 484.564C135.385 484.052 135.801 483.652 136.297 483.652C136.777 483.652 137.177 484.052 137.177 484.564ZM145.372 490.26C145.372 492.452 144.332 494.18 142.172 494.18C139.804 494.18 138.972 492.5 138.972 490.26C138.972 488.068 140.012 486.34 142.172 486.34C144.54 486.34 145.372 488.02 145.372 490.26ZM144.06 490.292C144.06 488.436 143.436 487.46 142.172 487.46C140.94 487.46 140.284 488.324 140.284 490.212C140.284 492.068 140.908 493.06 142.172 493.06C143.404 493.06 144.06 492.18 144.06 490.292ZM153.086 494.004H151.806V489.14C151.806 488.036 151.39 487.476 150.382 487.476C149.662 487.476 149.15 487.78 148.686 488.196V494.004H147.406V488.244L147.182 486.596L148.446 486.388L148.574 487.268H148.59C149.15 486.724 149.886 486.34 150.814 486.34C152.078 486.34 153.086 487.156 153.086 488.692V494.004ZM159.945 491.828C159.945 493.188 158.873 494.164 157.273 494.164C156.505 494.164 155.737 494.052 155.129 493.764L155.513 492.644C156.041 492.884 156.633 493.076 157.209 493.076C158.073 493.076 158.649 492.74 158.649 492.036C158.649 491.492 158.361 491.268 157.865 491.044L156.473 490.404C155.977 490.18 155.081 489.732 155.081 488.436C155.081 487.012 156.329 486.34 157.689 486.34C158.505 486.34 159.081 486.468 159.721 486.74L159.289 487.844C158.777 487.62 158.281 487.46 157.673 487.46C156.857 487.46 156.329 487.716 156.329 488.356C156.329 488.916 156.809 489.14 157.113 489.284L158.537 489.956C159.529 490.42 159.945 491.012 159.945 491.828Z" fill="#00157E"/>
<rect width="375" height="64" transform="translate(0 748)" fill="white"/>
<path d="M20 760.5H355C356.933 760.5 358.5 762.067 358.5 764V796C358.5 797.933 356.933 799.5 355 799.5H20C18.067 799.5 16.5 797.933 16.5 796V764C16.5 762.067 18.067 760.5 20 760.5Z" fill="#00157E"/>
<path d="M20 760.5H355C356.933 760.5 358.5 762.067 358.5 764V796C358.5 797.933 356.933 799.5 355 799.5H20C18.067 799.5 16.5 797.933 16.5 796V764C16.5 762.067 18.067 760.5 20 760.5Z" stroke="#00157E"/>
<path d="M170.733 784.504C169.837 784.968 168.925 785.176 167.709 785.176C165.357 785.176 163.549 783.592 163.549 780.392C163.549 776.984 165.565 775.192 168.157 775.192C169.229 775.192 169.885 775.352 170.701 775.704L170.189 776.872C169.581 776.6 169.005 776.392 168.141 776.392C166.461 776.392 164.925 777.688 164.925 780.056C164.925 782.696 165.901 783.992 168.237 783.992C169.005 783.992 169.709 783.688 170.285 783.432L170.733 784.504ZM177.949 781.256C177.949 783.448 176.909 785.176 174.749 785.176C172.381 785.176 171.549 783.496 171.549 781.256C171.549 779.064 172.589 777.336 174.749 777.336C177.117 777.336 177.949 779.016 177.949 781.256ZM176.637 781.288C176.637 779.432 176.013 778.456 174.749 778.456C173.517 778.456 172.861 779.32 172.861 781.208C172.861 783.064 173.485 784.056 174.749 784.056C175.981 784.056 176.637 783.176 176.637 781.288ZM185.663 785H184.383V780.136C184.383 779.032 183.967 778.472 182.959 778.472C182.239 778.472 181.727 778.776 181.263 779.192V785H179.983V779.24L179.759 777.592L181.023 777.384L181.151 778.264H181.167C181.727 777.72 182.463 777.336 183.391 777.336C184.655 777.336 185.663 778.152 185.663 779.688V785ZM193.402 785H192.138V778.552H189.594V785H188.33V778.552H187.226V777.704L188.33 777.48V776.888C188.33 775.272 189.354 774.088 191.178 774.088C192.01 774.088 192.538 774.344 192.922 774.552L192.458 775.576C192.266 775.448 191.786 775.176 191.178 775.176C190.01 775.176 189.594 775.832 189.594 776.744V777.512H193.402V785ZM199.328 778.616C198.464 778.616 197.824 778.84 197.248 779.368V785H195.968V779.24L195.743 777.592L197.008 777.384L197.136 778.408H197.152C197.664 777.832 198.336 777.352 199.328 777.352V778.616ZM210.953 785H209.689V780.136C209.689 779.032 209.273 778.472 208.249 778.472C207.529 778.472 206.921 778.824 206.521 779.224C206.521 779.224 206.569 779.496 206.569 779.784V785H205.289V780.136C205.289 779.032 204.873 778.472 203.865 778.472C203.145 778.472 202.633 778.76 202.169 779.192V785H200.889V779.24L200.665 777.592L201.929 777.384L202.057 778.264H202.073C202.633 777.72 203.369 777.336 204.297 777.336C205.161 777.336 205.881 777.72 206.265 778.408H206.281C206.873 777.816 207.641 777.336 208.697 777.336C209.977 777.336 210.953 778.152 210.953 779.688V785Z" fill="white"/>
</g>
<defs>
<filter id="filter0_d_663_85201" x="-32" y="-30" width="439" height="170" filterUnits="userSpaceOnUse" color-interpolation-filters="sRGB">
<feFlood flood-opacity="0" result="BackgroundImageFix"/>
<feColorMatrix in="SourceAlpha" type="matrix" values="0 0 0 0 0 0 0 0 0 0 0 0 0 0 0 0 0 0 127 0" result="hardAlpha"/>
<feOffset dy="2"/>
<feGaussianBlur stdDeviation="16"/>
<feColorMatrix type="matrix" values="0 0 0 0 0 0 0 0 0 0.0823529 0 0 0 0 0.494118 0 0 0 0.1 0"/>
<feBlend mode="normal" in2="BackgroundImageFix" result="effect1_dropShadow_663_85201"/>
<feBlend mode="normal" in="SourceGraphic" in2="effect1_dropShadow_663_85201" result="shape"/>
</filter>
<clipPath id="clip0_663_85201">
<rect width="375" height="812" fill="white"/>
</clipPath>
<clipPath id="clip1_663_85201">
<rect width="342.998" height="24" fill="white" transform="translate(16.001 153)"/>
</clipPath>
<clipPath id="clip2_663_85201">
<rect width="342.998" height="24" fill="white" transform="translate(16.001 253)"/>
</clipPath>
<clipPath id="clip3_663_85201">
<rect width="241.998" height="24" fill="white" transform="translate(16.001 353.001)"/>
</clipPath>
<clipPath id="clip4_663_85201">
<rect width="311.998" height="24" fill="white" transform="translate(16.001 425.004)"/>
</clipPath>
</defs>
</svg>
